%TF.GenerationSoftware,KiCad,Pcbnew,7.0.0-da2b9df05c~163~ubuntu22.04.1*%
%TF.CreationDate,2023-02-19T13:11:16+01:00*%
%TF.ProjectId,europe-ergo-smd,6575726f-7065-42d6-9572-676f2d736d64,rev?*%
%TF.SameCoordinates,Original*%
%TF.FileFunction,AssemblyDrawing,Bot*%
%FSLAX46Y46*%
G04 Gerber Fmt 4.6, Leading zero omitted, Abs format (unit mm)*
G04 Created by KiCad (PCBNEW 7.0.0-da2b9df05c~163~ubuntu22.04.1) date 2023-02-19 13:11:16*
%MOMM*%
%LPD*%
G01*
G04 APERTURE LIST*
%ADD10C,0.150000*%
%ADD11C,0.120211*%
%ADD12C,0.120069*%
%ADD13C,0.127000*%
%ADD14C,0.120000*%
G04 APERTURE END LIST*
D10*
%TO.C,SW48*%
X395089809Y-49394047D02*
X394994571Y-49441666D01*
X394994571Y-49441666D02*
X394946952Y-49489285D01*
X394946952Y-49489285D02*
X394899333Y-49584523D01*
X394899333Y-49584523D02*
X394899333Y-49632142D01*
X394899333Y-49632142D02*
X394946952Y-49727380D01*
X394946952Y-49727380D02*
X394994571Y-49775000D01*
X394994571Y-49775000D02*
X395089809Y-49822619D01*
X395089809Y-49822619D02*
X395280285Y-49822619D01*
X395280285Y-49822619D02*
X395375523Y-49775000D01*
X395375523Y-49775000D02*
X395423142Y-49727380D01*
X395423142Y-49727380D02*
X395470761Y-49632142D01*
X395470761Y-49632142D02*
X395470761Y-49584523D01*
X395470761Y-49584523D02*
X395423142Y-49489285D01*
X395423142Y-49489285D02*
X395375523Y-49441666D01*
X395375523Y-49441666D02*
X395280285Y-49394047D01*
X395280285Y-49394047D02*
X395089809Y-49394047D01*
X395089809Y-49394047D02*
X394994571Y-49346428D01*
X394994571Y-49346428D02*
X394946952Y-49298809D01*
X394946952Y-49298809D02*
X394899333Y-49203571D01*
X394899333Y-49203571D02*
X394899333Y-49013095D01*
X394899333Y-49013095D02*
X394946952Y-48917857D01*
X394946952Y-48917857D02*
X394994571Y-48870238D01*
X394994571Y-48870238D02*
X395089809Y-48822619D01*
X395089809Y-48822619D02*
X395280285Y-48822619D01*
X395280285Y-48822619D02*
X395375523Y-48870238D01*
X395375523Y-48870238D02*
X395423142Y-48917857D01*
X395423142Y-48917857D02*
X395470761Y-49013095D01*
X395470761Y-49013095D02*
X395470761Y-49203571D01*
X395470761Y-49203571D02*
X395423142Y-49298809D01*
X395423142Y-49298809D02*
X395375523Y-49346428D01*
X395375523Y-49346428D02*
X395280285Y-49394047D01*
X396089809Y-49822619D02*
X396185047Y-49822619D01*
X396185047Y-49822619D02*
X396280285Y-49775000D01*
X396280285Y-49775000D02*
X396327904Y-49727380D01*
X396327904Y-49727380D02*
X396375523Y-49632142D01*
X396375523Y-49632142D02*
X396423142Y-49441666D01*
X396423142Y-49441666D02*
X396423142Y-49203571D01*
X396423142Y-49203571D02*
X396375523Y-49013095D01*
X396375523Y-49013095D02*
X396327904Y-48917857D01*
X396327904Y-48917857D02*
X396280285Y-48870238D01*
X396280285Y-48870238D02*
X396185047Y-48822619D01*
X396185047Y-48822619D02*
X396089809Y-48822619D01*
X396089809Y-48822619D02*
X395994571Y-48870238D01*
X395994571Y-48870238D02*
X395946952Y-48917857D01*
X395946952Y-48917857D02*
X395899333Y-49013095D01*
X395899333Y-49013095D02*
X395851714Y-49203571D01*
X395851714Y-49203571D02*
X395851714Y-49441666D01*
X395851714Y-49441666D02*
X395899333Y-49632142D01*
X395899333Y-49632142D02*
X395946952Y-49727380D01*
X395946952Y-49727380D02*
X395994571Y-49775000D01*
X395994571Y-49775000D02*
X396089809Y-49822619D01*
X397042190Y-49822619D02*
X397137428Y-49822619D01*
X397137428Y-49822619D02*
X397232666Y-49775000D01*
X397232666Y-49775000D02*
X397280285Y-49727380D01*
X397280285Y-49727380D02*
X397327904Y-49632142D01*
X397327904Y-49632142D02*
X397375523Y-49441666D01*
X397375523Y-49441666D02*
X397375523Y-49203571D01*
X397375523Y-49203571D02*
X397327904Y-49013095D01*
X397327904Y-49013095D02*
X397280285Y-48917857D01*
X397280285Y-48917857D02*
X397232666Y-48870238D01*
X397232666Y-48870238D02*
X397137428Y-48822619D01*
X397137428Y-48822619D02*
X397042190Y-48822619D01*
X397042190Y-48822619D02*
X396946952Y-48870238D01*
X396946952Y-48870238D02*
X396899333Y-48917857D01*
X396899333Y-48917857D02*
X396851714Y-49013095D01*
X396851714Y-49013095D02*
X396804095Y-49203571D01*
X396804095Y-49203571D02*
X396804095Y-49441666D01*
X396804095Y-49441666D02*
X396851714Y-49632142D01*
X396851714Y-49632142D02*
X396899333Y-49727380D01*
X396899333Y-49727380D02*
X396946952Y-49775000D01*
X396946952Y-49775000D02*
X397042190Y-49822619D01*
X397756476Y-48870238D02*
X397899333Y-48822619D01*
X397899333Y-48822619D02*
X398137428Y-48822619D01*
X398137428Y-48822619D02*
X398232666Y-48870238D01*
X398232666Y-48870238D02*
X398280285Y-48917857D01*
X398280285Y-48917857D02*
X398327904Y-49013095D01*
X398327904Y-49013095D02*
X398327904Y-49108333D01*
X398327904Y-49108333D02*
X398280285Y-49203571D01*
X398280285Y-49203571D02*
X398232666Y-49251190D01*
X398232666Y-49251190D02*
X398137428Y-49298809D01*
X398137428Y-49298809D02*
X397946952Y-49346428D01*
X397946952Y-49346428D02*
X397851714Y-49394047D01*
X397851714Y-49394047D02*
X397804095Y-49441666D01*
X397804095Y-49441666D02*
X397756476Y-49536904D01*
X397756476Y-49536904D02*
X397756476Y-49632142D01*
X397756476Y-49632142D02*
X397804095Y-49727380D01*
X397804095Y-49727380D02*
X397851714Y-49775000D01*
X397851714Y-49775000D02*
X397946952Y-49822619D01*
X397946952Y-49822619D02*
X398185047Y-49822619D01*
X398185047Y-49822619D02*
X398327904Y-49775000D01*
X398756476Y-48822619D02*
X398756476Y-49822619D01*
X398756476Y-49822619D02*
X399137428Y-49822619D01*
X399137428Y-49822619D02*
X399232666Y-49775000D01*
X399232666Y-49775000D02*
X399280285Y-49727380D01*
X399280285Y-49727380D02*
X399327904Y-49632142D01*
X399327904Y-49632142D02*
X399327904Y-49489285D01*
X399327904Y-49489285D02*
X399280285Y-49394047D01*
X399280285Y-49394047D02*
X399232666Y-49346428D01*
X399232666Y-49346428D02*
X399137428Y-49298809D01*
X399137428Y-49298809D02*
X398756476Y-49298809D01*
X399804095Y-48822619D02*
X399994571Y-48822619D01*
X399994571Y-48822619D02*
X400089809Y-48870238D01*
X400089809Y-48870238D02*
X400137428Y-48917857D01*
X400137428Y-48917857D02*
X400232666Y-49060714D01*
X400232666Y-49060714D02*
X400280285Y-49251190D01*
X400280285Y-49251190D02*
X400280285Y-49632142D01*
X400280285Y-49632142D02*
X400232666Y-49727380D01*
X400232666Y-49727380D02*
X400185047Y-49775000D01*
X400185047Y-49775000D02*
X400089809Y-49822619D01*
X400089809Y-49822619D02*
X399899333Y-49822619D01*
X399899333Y-49822619D02*
X399804095Y-49775000D01*
X399804095Y-49775000D02*
X399756476Y-49727380D01*
X399756476Y-49727380D02*
X399708857Y-49632142D01*
X399708857Y-49632142D02*
X399708857Y-49394047D01*
X399708857Y-49394047D02*
X399756476Y-49298809D01*
X399756476Y-49298809D02*
X399804095Y-49251190D01*
X399804095Y-49251190D02*
X399899333Y-49203571D01*
X399899333Y-49203571D02*
X400089809Y-49203571D01*
X400089809Y-49203571D02*
X400185047Y-49251190D01*
X400185047Y-49251190D02*
X400232666Y-49298809D01*
X400232666Y-49298809D02*
X400280285Y-49394047D01*
X401042190Y-49346428D02*
X401185047Y-49298809D01*
X401185047Y-49298809D02*
X401232666Y-49251190D01*
X401232666Y-49251190D02*
X401280285Y-49155952D01*
X401280285Y-49155952D02*
X401280285Y-49013095D01*
X401280285Y-49013095D02*
X401232666Y-48917857D01*
X401232666Y-48917857D02*
X401185047Y-48870238D01*
X401185047Y-48870238D02*
X401089809Y-48822619D01*
X401089809Y-48822619D02*
X400708857Y-48822619D01*
X400708857Y-48822619D02*
X400708857Y-49822619D01*
X400708857Y-49822619D02*
X401042190Y-49822619D01*
X401042190Y-49822619D02*
X401137428Y-49775000D01*
X401137428Y-49775000D02*
X401185047Y-49727380D01*
X401185047Y-49727380D02*
X401232666Y-49632142D01*
X401232666Y-49632142D02*
X401232666Y-49536904D01*
X401232666Y-49536904D02*
X401185047Y-49441666D01*
X401185047Y-49441666D02*
X401137428Y-49394047D01*
X401137428Y-49394047D02*
X401042190Y-49346428D01*
X401042190Y-49346428D02*
X400708857Y-49346428D01*
X402137428Y-49822619D02*
X401946952Y-49822619D01*
X401946952Y-49822619D02*
X401851714Y-49775000D01*
X401851714Y-49775000D02*
X401804095Y-49727380D01*
X401804095Y-49727380D02*
X401708857Y-49584523D01*
X401708857Y-49584523D02*
X401661238Y-49394047D01*
X401661238Y-49394047D02*
X401661238Y-49013095D01*
X401661238Y-49013095D02*
X401708857Y-48917857D01*
X401708857Y-48917857D02*
X401756476Y-48870238D01*
X401756476Y-48870238D02*
X401851714Y-48822619D01*
X401851714Y-48822619D02*
X402042190Y-48822619D01*
X402042190Y-48822619D02*
X402137428Y-48870238D01*
X402137428Y-48870238D02*
X402185047Y-48917857D01*
X402185047Y-48917857D02*
X402232666Y-49013095D01*
X402232666Y-49013095D02*
X402232666Y-49251190D01*
X402232666Y-49251190D02*
X402185047Y-49346428D01*
X402185047Y-49346428D02*
X402137428Y-49394047D01*
X402137428Y-49394047D02*
X402042190Y-49441666D01*
X402042190Y-49441666D02*
X401851714Y-49441666D01*
X401851714Y-49441666D02*
X401756476Y-49394047D01*
X401756476Y-49394047D02*
X401708857Y-49346428D01*
X401708857Y-49346428D02*
X401661238Y-49251190D01*
X402661238Y-48822619D02*
X402661238Y-49822619D01*
X402661238Y-49822619D02*
X402994571Y-49108333D01*
X402994571Y-49108333D02*
X403327904Y-49822619D01*
X403327904Y-49822619D02*
X403327904Y-48822619D01*
X403756476Y-49727380D02*
X403804095Y-49775000D01*
X403804095Y-49775000D02*
X403899333Y-49822619D01*
X403899333Y-49822619D02*
X404137428Y-49822619D01*
X404137428Y-49822619D02*
X404232666Y-49775000D01*
X404232666Y-49775000D02*
X404280285Y-49727380D01*
X404280285Y-49727380D02*
X404327904Y-49632142D01*
X404327904Y-49632142D02*
X404327904Y-49536904D01*
X404327904Y-49536904D02*
X404280285Y-49394047D01*
X404280285Y-49394047D02*
X403708857Y-48822619D01*
X403708857Y-48822619D02*
X404327904Y-48822619D01*
X405327904Y-48822619D02*
X404994571Y-49298809D01*
X404756476Y-48822619D02*
X404756476Y-49822619D01*
X404756476Y-49822619D02*
X405137428Y-49822619D01*
X405137428Y-49822619D02*
X405232666Y-49775000D01*
X405232666Y-49775000D02*
X405280285Y-49727380D01*
X405280285Y-49727380D02*
X405327904Y-49632142D01*
X405327904Y-49632142D02*
X405327904Y-49489285D01*
X405327904Y-49489285D02*
X405280285Y-49394047D01*
X405280285Y-49394047D02*
X405232666Y-49346428D01*
X405232666Y-49346428D02*
X405137428Y-49298809D01*
X405137428Y-49298809D02*
X404756476Y-49298809D01*
X405756476Y-49346428D02*
X406089809Y-49346428D01*
X406232666Y-48822619D02*
X405756476Y-48822619D01*
X405756476Y-48822619D02*
X405756476Y-49822619D01*
X405756476Y-49822619D02*
X406232666Y-49822619D01*
X398248476Y-50394238D02*
X398391333Y-50346619D01*
X398391333Y-50346619D02*
X398629428Y-50346619D01*
X398629428Y-50346619D02*
X398724666Y-50394238D01*
X398724666Y-50394238D02*
X398772285Y-50441857D01*
X398772285Y-50441857D02*
X398819904Y-50537095D01*
X398819904Y-50537095D02*
X398819904Y-50632333D01*
X398819904Y-50632333D02*
X398772285Y-50727571D01*
X398772285Y-50727571D02*
X398724666Y-50775190D01*
X398724666Y-50775190D02*
X398629428Y-50822809D01*
X398629428Y-50822809D02*
X398438952Y-50870428D01*
X398438952Y-50870428D02*
X398343714Y-50918047D01*
X398343714Y-50918047D02*
X398296095Y-50965666D01*
X398296095Y-50965666D02*
X398248476Y-51060904D01*
X398248476Y-51060904D02*
X398248476Y-51156142D01*
X398248476Y-51156142D02*
X398296095Y-51251380D01*
X398296095Y-51251380D02*
X398343714Y-51299000D01*
X398343714Y-51299000D02*
X398438952Y-51346619D01*
X398438952Y-51346619D02*
X398677047Y-51346619D01*
X398677047Y-51346619D02*
X398819904Y-51299000D01*
X399153238Y-51346619D02*
X399391333Y-50346619D01*
X399391333Y-50346619D02*
X399581809Y-51060904D01*
X399581809Y-51060904D02*
X399772285Y-50346619D01*
X399772285Y-50346619D02*
X400010381Y-51346619D01*
X400819904Y-51013285D02*
X400819904Y-50346619D01*
X400581809Y-51394238D02*
X400343714Y-50679952D01*
X400343714Y-50679952D02*
X400962761Y-50679952D01*
X401486571Y-50918047D02*
X401391333Y-50965666D01*
X401391333Y-50965666D02*
X401343714Y-51013285D01*
X401343714Y-51013285D02*
X401296095Y-51108523D01*
X401296095Y-51108523D02*
X401296095Y-51156142D01*
X401296095Y-51156142D02*
X401343714Y-51251380D01*
X401343714Y-51251380D02*
X401391333Y-51299000D01*
X401391333Y-51299000D02*
X401486571Y-51346619D01*
X401486571Y-51346619D02*
X401677047Y-51346619D01*
X401677047Y-51346619D02*
X401772285Y-51299000D01*
X401772285Y-51299000D02*
X401819904Y-51251380D01*
X401819904Y-51251380D02*
X401867523Y-51156142D01*
X401867523Y-51156142D02*
X401867523Y-51108523D01*
X401867523Y-51108523D02*
X401819904Y-51013285D01*
X401819904Y-51013285D02*
X401772285Y-50965666D01*
X401772285Y-50965666D02*
X401677047Y-50918047D01*
X401677047Y-50918047D02*
X401486571Y-50918047D01*
X401486571Y-50918047D02*
X401391333Y-50870428D01*
X401391333Y-50870428D02*
X401343714Y-50822809D01*
X401343714Y-50822809D02*
X401296095Y-50727571D01*
X401296095Y-50727571D02*
X401296095Y-50537095D01*
X401296095Y-50537095D02*
X401343714Y-50441857D01*
X401343714Y-50441857D02*
X401391333Y-50394238D01*
X401391333Y-50394238D02*
X401486571Y-50346619D01*
X401486571Y-50346619D02*
X401677047Y-50346619D01*
X401677047Y-50346619D02*
X401772285Y-50394238D01*
X401772285Y-50394238D02*
X401819904Y-50441857D01*
X401819904Y-50441857D02*
X401867523Y-50537095D01*
X401867523Y-50537095D02*
X401867523Y-50727571D01*
X401867523Y-50727571D02*
X401819904Y-50822809D01*
X401819904Y-50822809D02*
X401772285Y-50870428D01*
X401772285Y-50870428D02*
X401677047Y-50918047D01*
D11*
%TO.C,J1*%
X322099524Y-86197662D02*
X322030832Y-86220559D01*
X322030832Y-86220559D02*
X321916346Y-86220559D01*
X321916346Y-86220559D02*
X321870551Y-86197662D01*
X321870551Y-86197662D02*
X321847654Y-86174765D01*
X321847654Y-86174765D02*
X321824756Y-86128970D01*
X321824756Y-86128970D02*
X321824756Y-86083175D01*
X321824756Y-86083175D02*
X321847654Y-86037381D01*
X321847654Y-86037381D02*
X321870551Y-86014483D01*
X321870551Y-86014483D02*
X321916346Y-85991586D01*
X321916346Y-85991586D02*
X322007935Y-85968689D01*
X322007935Y-85968689D02*
X322053730Y-85945791D01*
X322053730Y-85945791D02*
X322076627Y-85922894D01*
X322076627Y-85922894D02*
X322099524Y-85877099D01*
X322099524Y-85877099D02*
X322099524Y-85831305D01*
X322099524Y-85831305D02*
X322076627Y-85785510D01*
X322076627Y-85785510D02*
X322053730Y-85762613D01*
X322053730Y-85762613D02*
X322007935Y-85739715D01*
X322007935Y-85739715D02*
X321893448Y-85739715D01*
X321893448Y-85739715D02*
X321824756Y-85762613D01*
X321481296Y-85739715D02*
X321481296Y-86083175D01*
X321481296Y-86083175D02*
X321504193Y-86151867D01*
X321504193Y-86151867D02*
X321549988Y-86197662D01*
X321549988Y-86197662D02*
X321618680Y-86220559D01*
X321618680Y-86220559D02*
X321664475Y-86220559D01*
X321252323Y-86037381D02*
X320885966Y-86037381D01*
X320450916Y-85899997D02*
X320450916Y-86220559D01*
X320565403Y-85716818D02*
X320679889Y-86060278D01*
X320679889Y-86060278D02*
X320382224Y-86060278D01*
X320244840Y-85739715D02*
X319947174Y-85739715D01*
X319947174Y-85739715D02*
X320107456Y-85922894D01*
X320107456Y-85922894D02*
X320038764Y-85922894D01*
X320038764Y-85922894D02*
X319992969Y-85945791D01*
X319992969Y-85945791D02*
X319970072Y-85968689D01*
X319970072Y-85968689D02*
X319947174Y-86014483D01*
X319947174Y-86014483D02*
X319947174Y-86128970D01*
X319947174Y-86128970D02*
X319970072Y-86174765D01*
X319970072Y-86174765D02*
X319992969Y-86197662D01*
X319992969Y-86197662D02*
X320038764Y-86220559D01*
X320038764Y-86220559D02*
X320176148Y-86220559D01*
X320176148Y-86220559D02*
X320221942Y-86197662D01*
X320221942Y-86197662D02*
X320244840Y-86174765D01*
X319512125Y-85739715D02*
X319741098Y-85739715D01*
X319741098Y-85739715D02*
X319763995Y-85968689D01*
X319763995Y-85968689D02*
X319741098Y-85945791D01*
X319741098Y-85945791D02*
X319695303Y-85922894D01*
X319695303Y-85922894D02*
X319580817Y-85922894D01*
X319580817Y-85922894D02*
X319535022Y-85945791D01*
X319535022Y-85945791D02*
X319512125Y-85968689D01*
X319512125Y-85968689D02*
X319489227Y-86014483D01*
X319489227Y-86014483D02*
X319489227Y-86128970D01*
X319489227Y-86128970D02*
X319512125Y-86174765D01*
X319512125Y-86174765D02*
X319535022Y-86197662D01*
X319535022Y-86197662D02*
X319580817Y-86220559D01*
X319580817Y-86220559D02*
X319695303Y-86220559D01*
X319695303Y-86220559D02*
X319741098Y-86197662D01*
X319741098Y-86197662D02*
X319763995Y-86174765D01*
X319031280Y-86220559D02*
X319306048Y-86220559D01*
X319168664Y-86220559D02*
X319168664Y-85739715D01*
X319168664Y-85739715D02*
X319214459Y-85808407D01*
X319214459Y-85808407D02*
X319260254Y-85854202D01*
X319260254Y-85854202D02*
X319306048Y-85877099D01*
X318619128Y-85899997D02*
X318619128Y-86220559D01*
X318733615Y-85716818D02*
X318848101Y-86060278D01*
X318848101Y-86060278D02*
X318550436Y-86060278D01*
D12*
X317486639Y-83921544D02*
X317486639Y-83441267D01*
X317486639Y-83441267D02*
X317303676Y-83441267D01*
X317303676Y-83441267D02*
X317257936Y-83464138D01*
X317257936Y-83464138D02*
X317235065Y-83487008D01*
X317235065Y-83487008D02*
X317212195Y-83532749D01*
X317212195Y-83532749D02*
X317212195Y-83601360D01*
X317212195Y-83601360D02*
X317235065Y-83647100D01*
X317235065Y-83647100D02*
X317257936Y-83669971D01*
X317257936Y-83669971D02*
X317303676Y-83692841D01*
X317303676Y-83692841D02*
X317486639Y-83692841D01*
X316731918Y-83875804D02*
X316754788Y-83898674D01*
X316754788Y-83898674D02*
X316823399Y-83921544D01*
X316823399Y-83921544D02*
X316869140Y-83921544D01*
X316869140Y-83921544D02*
X316937751Y-83898674D01*
X316937751Y-83898674D02*
X316983492Y-83852933D01*
X316983492Y-83852933D02*
X317006362Y-83807193D01*
X317006362Y-83807193D02*
X317029232Y-83715711D01*
X317029232Y-83715711D02*
X317029232Y-83647100D01*
X317029232Y-83647100D02*
X317006362Y-83555619D01*
X317006362Y-83555619D02*
X316983492Y-83509878D01*
X316983492Y-83509878D02*
X316937751Y-83464138D01*
X316937751Y-83464138D02*
X316869140Y-83441267D01*
X316869140Y-83441267D02*
X316823399Y-83441267D01*
X316823399Y-83441267D02*
X316754788Y-83464138D01*
X316754788Y-83464138D02*
X316731918Y-83487008D01*
X316365993Y-83669971D02*
X316297382Y-83692841D01*
X316297382Y-83692841D02*
X316274511Y-83715711D01*
X316274511Y-83715711D02*
X316251641Y-83761452D01*
X316251641Y-83761452D02*
X316251641Y-83830063D01*
X316251641Y-83830063D02*
X316274511Y-83875804D01*
X316274511Y-83875804D02*
X316297382Y-83898674D01*
X316297382Y-83898674D02*
X316343122Y-83921544D01*
X316343122Y-83921544D02*
X316526085Y-83921544D01*
X316526085Y-83921544D02*
X316526085Y-83441267D01*
X316526085Y-83441267D02*
X316365993Y-83441267D01*
X316365993Y-83441267D02*
X316320252Y-83464138D01*
X316320252Y-83464138D02*
X316297382Y-83487008D01*
X316297382Y-83487008D02*
X316274511Y-83532749D01*
X316274511Y-83532749D02*
X316274511Y-83578489D01*
X316274511Y-83578489D02*
X316297382Y-83624230D01*
X316297382Y-83624230D02*
X316320252Y-83647100D01*
X316320252Y-83647100D02*
X316365993Y-83669971D01*
X316365993Y-83669971D02*
X316526085Y-83669971D01*
X315757642Y-83669971D02*
X315597550Y-83669971D01*
X315528939Y-83921544D02*
X315757642Y-83921544D01*
X315757642Y-83921544D02*
X315757642Y-83441267D01*
X315757642Y-83441267D02*
X315528939Y-83441267D01*
X315323106Y-83921544D02*
X315323106Y-83441267D01*
X315323106Y-83441267D02*
X315208754Y-83441267D01*
X315208754Y-83441267D02*
X315140143Y-83464138D01*
X315140143Y-83464138D02*
X315094403Y-83509878D01*
X315094403Y-83509878D02*
X315071532Y-83555619D01*
X315071532Y-83555619D02*
X315048662Y-83647100D01*
X315048662Y-83647100D02*
X315048662Y-83715711D01*
X315048662Y-83715711D02*
X315071532Y-83807193D01*
X315071532Y-83807193D02*
X315094403Y-83852933D01*
X315094403Y-83852933D02*
X315140143Y-83898674D01*
X315140143Y-83898674D02*
X315208754Y-83921544D01*
X315208754Y-83921544D02*
X315323106Y-83921544D01*
X314591255Y-83464138D02*
X314636996Y-83441267D01*
X314636996Y-83441267D02*
X314705607Y-83441267D01*
X314705607Y-83441267D02*
X314774218Y-83464138D01*
X314774218Y-83464138D02*
X314819959Y-83509878D01*
X314819959Y-83509878D02*
X314842829Y-83555619D01*
X314842829Y-83555619D02*
X314865699Y-83647100D01*
X314865699Y-83647100D02*
X314865699Y-83715711D01*
X314865699Y-83715711D02*
X314842829Y-83807193D01*
X314842829Y-83807193D02*
X314819959Y-83852933D01*
X314819959Y-83852933D02*
X314774218Y-83898674D01*
X314774218Y-83898674D02*
X314705607Y-83921544D01*
X314705607Y-83921544D02*
X314659866Y-83921544D01*
X314659866Y-83921544D02*
X314591255Y-83898674D01*
X314591255Y-83898674D02*
X314568385Y-83875804D01*
X314568385Y-83875804D02*
X314568385Y-83715711D01*
X314568385Y-83715711D02*
X314659866Y-83715711D01*
X314362552Y-83669971D02*
X314202460Y-83669971D01*
X314133849Y-83921544D02*
X314362552Y-83921544D01*
X314362552Y-83921544D02*
X314362552Y-83441267D01*
X314362552Y-83441267D02*
X314133849Y-83441267D01*
D10*
%TO.C,U2*%
X278160761Y-50034524D02*
X278208380Y-50177381D01*
X278208380Y-50177381D02*
X278208380Y-50415476D01*
X278208380Y-50415476D02*
X278160761Y-50510714D01*
X278160761Y-50510714D02*
X278113142Y-50558333D01*
X278113142Y-50558333D02*
X278017904Y-50605952D01*
X278017904Y-50605952D02*
X277922666Y-50605952D01*
X277922666Y-50605952D02*
X277827428Y-50558333D01*
X277827428Y-50558333D02*
X277779809Y-50510714D01*
X277779809Y-50510714D02*
X277732190Y-50415476D01*
X277732190Y-50415476D02*
X277684571Y-50225000D01*
X277684571Y-50225000D02*
X277636952Y-50129762D01*
X277636952Y-50129762D02*
X277589333Y-50082143D01*
X277589333Y-50082143D02*
X277494095Y-50034524D01*
X277494095Y-50034524D02*
X277398857Y-50034524D01*
X277398857Y-50034524D02*
X277303619Y-50082143D01*
X277303619Y-50082143D02*
X277256000Y-50129762D01*
X277256000Y-50129762D02*
X277208380Y-50225000D01*
X277208380Y-50225000D02*
X277208380Y-50463095D01*
X277208380Y-50463095D02*
X277256000Y-50605952D01*
X278113142Y-51605952D02*
X278160761Y-51558333D01*
X278160761Y-51558333D02*
X278208380Y-51415476D01*
X278208380Y-51415476D02*
X278208380Y-51320238D01*
X278208380Y-51320238D02*
X278160761Y-51177381D01*
X278160761Y-51177381D02*
X278065523Y-51082143D01*
X278065523Y-51082143D02*
X277970285Y-51034524D01*
X277970285Y-51034524D02*
X277779809Y-50986905D01*
X277779809Y-50986905D02*
X277636952Y-50986905D01*
X277636952Y-50986905D02*
X277446476Y-51034524D01*
X277446476Y-51034524D02*
X277351238Y-51082143D01*
X277351238Y-51082143D02*
X277256000Y-51177381D01*
X277256000Y-51177381D02*
X277208380Y-51320238D01*
X277208380Y-51320238D02*
X277208380Y-51415476D01*
X277208380Y-51415476D02*
X277256000Y-51558333D01*
X277256000Y-51558333D02*
X277303619Y-51605952D01*
X277208380Y-52225000D02*
X277208380Y-52320238D01*
X277208380Y-52320238D02*
X277256000Y-52415476D01*
X277256000Y-52415476D02*
X277303619Y-52463095D01*
X277303619Y-52463095D02*
X277398857Y-52510714D01*
X277398857Y-52510714D02*
X277589333Y-52558333D01*
X277589333Y-52558333D02*
X277827428Y-52558333D01*
X277827428Y-52558333D02*
X278017904Y-52510714D01*
X278017904Y-52510714D02*
X278113142Y-52463095D01*
X278113142Y-52463095D02*
X278160761Y-52415476D01*
X278160761Y-52415476D02*
X278208380Y-52320238D01*
X278208380Y-52320238D02*
X278208380Y-52225000D01*
X278208380Y-52225000D02*
X278160761Y-52129762D01*
X278160761Y-52129762D02*
X278113142Y-52082143D01*
X278113142Y-52082143D02*
X278017904Y-52034524D01*
X278017904Y-52034524D02*
X277827428Y-51986905D01*
X277827428Y-51986905D02*
X277589333Y-51986905D01*
X277589333Y-51986905D02*
X277398857Y-52034524D01*
X277398857Y-52034524D02*
X277303619Y-52082143D01*
X277303619Y-52082143D02*
X277256000Y-52129762D01*
X277256000Y-52129762D02*
X277208380Y-52225000D01*
X278208380Y-53034524D02*
X278208380Y-53225000D01*
X278208380Y-53225000D02*
X278160761Y-53320238D01*
X278160761Y-53320238D02*
X278113142Y-53367857D01*
X278113142Y-53367857D02*
X277970285Y-53463095D01*
X277970285Y-53463095D02*
X277779809Y-53510714D01*
X277779809Y-53510714D02*
X277398857Y-53510714D01*
X277398857Y-53510714D02*
X277303619Y-53463095D01*
X277303619Y-53463095D02*
X277256000Y-53415476D01*
X277256000Y-53415476D02*
X277208380Y-53320238D01*
X277208380Y-53320238D02*
X277208380Y-53129762D01*
X277208380Y-53129762D02*
X277256000Y-53034524D01*
X277256000Y-53034524D02*
X277303619Y-52986905D01*
X277303619Y-52986905D02*
X277398857Y-52939286D01*
X277398857Y-52939286D02*
X277636952Y-52939286D01*
X277636952Y-52939286D02*
X277732190Y-52986905D01*
X277732190Y-52986905D02*
X277779809Y-53034524D01*
X277779809Y-53034524D02*
X277827428Y-53129762D01*
X277827428Y-53129762D02*
X277827428Y-53320238D01*
X277827428Y-53320238D02*
X277779809Y-53415476D01*
X277779809Y-53415476D02*
X277732190Y-53463095D01*
X277732190Y-53463095D02*
X277636952Y-53510714D01*
X278208380Y-54463095D02*
X278208380Y-53891667D01*
X278208380Y-54177381D02*
X277208380Y-54177381D01*
X277208380Y-54177381D02*
X277351238Y-54082143D01*
X277351238Y-54082143D02*
X277446476Y-53986905D01*
X277446476Y-53986905D02*
X277494095Y-53891667D01*
X277208380Y-55367857D02*
X277208380Y-54891667D01*
X277208380Y-54891667D02*
X277684571Y-54844048D01*
X277684571Y-54844048D02*
X277636952Y-54891667D01*
X277636952Y-54891667D02*
X277589333Y-54986905D01*
X277589333Y-54986905D02*
X277589333Y-55225000D01*
X277589333Y-55225000D02*
X277636952Y-55320238D01*
X277636952Y-55320238D02*
X277684571Y-55367857D01*
X277684571Y-55367857D02*
X277779809Y-55415476D01*
X277779809Y-55415476D02*
X278017904Y-55415476D01*
X278017904Y-55415476D02*
X278113142Y-55367857D01*
X278113142Y-55367857D02*
X278160761Y-55320238D01*
X278160761Y-55320238D02*
X278208380Y-55225000D01*
X278208380Y-55225000D02*
X278208380Y-54986905D01*
X278208380Y-54986905D02*
X278160761Y-54891667D01*
X278160761Y-54891667D02*
X278113142Y-54844048D01*
X279367380Y-51963095D02*
X280176904Y-51963095D01*
X280176904Y-51963095D02*
X280272142Y-52010714D01*
X280272142Y-52010714D02*
X280319761Y-52058333D01*
X280319761Y-52058333D02*
X280367380Y-52153571D01*
X280367380Y-52153571D02*
X280367380Y-52344047D01*
X280367380Y-52344047D02*
X280319761Y-52439285D01*
X280319761Y-52439285D02*
X280272142Y-52486904D01*
X280272142Y-52486904D02*
X280176904Y-52534523D01*
X280176904Y-52534523D02*
X279367380Y-52534523D01*
X279462619Y-52963095D02*
X279415000Y-53010714D01*
X279415000Y-53010714D02*
X279367380Y-53105952D01*
X279367380Y-53105952D02*
X279367380Y-53344047D01*
X279367380Y-53344047D02*
X279415000Y-53439285D01*
X279415000Y-53439285D02*
X279462619Y-53486904D01*
X279462619Y-53486904D02*
X279557857Y-53534523D01*
X279557857Y-53534523D02*
X279653095Y-53534523D01*
X279653095Y-53534523D02*
X279795952Y-53486904D01*
X279795952Y-53486904D02*
X280367380Y-52915476D01*
X280367380Y-52915476D02*
X280367380Y-53534523D01*
%TO.C,U1*%
X347028761Y-50034524D02*
X347076380Y-50177381D01*
X347076380Y-50177381D02*
X347076380Y-50415476D01*
X347076380Y-50415476D02*
X347028761Y-50510714D01*
X347028761Y-50510714D02*
X346981142Y-50558333D01*
X346981142Y-50558333D02*
X346885904Y-50605952D01*
X346885904Y-50605952D02*
X346790666Y-50605952D01*
X346790666Y-50605952D02*
X346695428Y-50558333D01*
X346695428Y-50558333D02*
X346647809Y-50510714D01*
X346647809Y-50510714D02*
X346600190Y-50415476D01*
X346600190Y-50415476D02*
X346552571Y-50225000D01*
X346552571Y-50225000D02*
X346504952Y-50129762D01*
X346504952Y-50129762D02*
X346457333Y-50082143D01*
X346457333Y-50082143D02*
X346362095Y-50034524D01*
X346362095Y-50034524D02*
X346266857Y-50034524D01*
X346266857Y-50034524D02*
X346171619Y-50082143D01*
X346171619Y-50082143D02*
X346124000Y-50129762D01*
X346124000Y-50129762D02*
X346076380Y-50225000D01*
X346076380Y-50225000D02*
X346076380Y-50463095D01*
X346076380Y-50463095D02*
X346124000Y-50605952D01*
X346981142Y-51605952D02*
X347028761Y-51558333D01*
X347028761Y-51558333D02*
X347076380Y-51415476D01*
X347076380Y-51415476D02*
X347076380Y-51320238D01*
X347076380Y-51320238D02*
X347028761Y-51177381D01*
X347028761Y-51177381D02*
X346933523Y-51082143D01*
X346933523Y-51082143D02*
X346838285Y-51034524D01*
X346838285Y-51034524D02*
X346647809Y-50986905D01*
X346647809Y-50986905D02*
X346504952Y-50986905D01*
X346504952Y-50986905D02*
X346314476Y-51034524D01*
X346314476Y-51034524D02*
X346219238Y-51082143D01*
X346219238Y-51082143D02*
X346124000Y-51177381D01*
X346124000Y-51177381D02*
X346076380Y-51320238D01*
X346076380Y-51320238D02*
X346076380Y-51415476D01*
X346076380Y-51415476D02*
X346124000Y-51558333D01*
X346124000Y-51558333D02*
X346171619Y-51605952D01*
X346076380Y-52225000D02*
X346076380Y-52320238D01*
X346076380Y-52320238D02*
X346124000Y-52415476D01*
X346124000Y-52415476D02*
X346171619Y-52463095D01*
X346171619Y-52463095D02*
X346266857Y-52510714D01*
X346266857Y-52510714D02*
X346457333Y-52558333D01*
X346457333Y-52558333D02*
X346695428Y-52558333D01*
X346695428Y-52558333D02*
X346885904Y-52510714D01*
X346885904Y-52510714D02*
X346981142Y-52463095D01*
X346981142Y-52463095D02*
X347028761Y-52415476D01*
X347028761Y-52415476D02*
X347076380Y-52320238D01*
X347076380Y-52320238D02*
X347076380Y-52225000D01*
X347076380Y-52225000D02*
X347028761Y-52129762D01*
X347028761Y-52129762D02*
X346981142Y-52082143D01*
X346981142Y-52082143D02*
X346885904Y-52034524D01*
X346885904Y-52034524D02*
X346695428Y-51986905D01*
X346695428Y-51986905D02*
X346457333Y-51986905D01*
X346457333Y-51986905D02*
X346266857Y-52034524D01*
X346266857Y-52034524D02*
X346171619Y-52082143D01*
X346171619Y-52082143D02*
X346124000Y-52129762D01*
X346124000Y-52129762D02*
X346076380Y-52225000D01*
X347076380Y-53034524D02*
X347076380Y-53225000D01*
X347076380Y-53225000D02*
X347028761Y-53320238D01*
X347028761Y-53320238D02*
X346981142Y-53367857D01*
X346981142Y-53367857D02*
X346838285Y-53463095D01*
X346838285Y-53463095D02*
X346647809Y-53510714D01*
X346647809Y-53510714D02*
X346266857Y-53510714D01*
X346266857Y-53510714D02*
X346171619Y-53463095D01*
X346171619Y-53463095D02*
X346124000Y-53415476D01*
X346124000Y-53415476D02*
X346076380Y-53320238D01*
X346076380Y-53320238D02*
X346076380Y-53129762D01*
X346076380Y-53129762D02*
X346124000Y-53034524D01*
X346124000Y-53034524D02*
X346171619Y-52986905D01*
X346171619Y-52986905D02*
X346266857Y-52939286D01*
X346266857Y-52939286D02*
X346504952Y-52939286D01*
X346504952Y-52939286D02*
X346600190Y-52986905D01*
X346600190Y-52986905D02*
X346647809Y-53034524D01*
X346647809Y-53034524D02*
X346695428Y-53129762D01*
X346695428Y-53129762D02*
X346695428Y-53320238D01*
X346695428Y-53320238D02*
X346647809Y-53415476D01*
X346647809Y-53415476D02*
X346600190Y-53463095D01*
X346600190Y-53463095D02*
X346504952Y-53510714D01*
X347076380Y-54463095D02*
X347076380Y-53891667D01*
X347076380Y-54177381D02*
X346076380Y-54177381D01*
X346076380Y-54177381D02*
X346219238Y-54082143D01*
X346219238Y-54082143D02*
X346314476Y-53986905D01*
X346314476Y-53986905D02*
X346362095Y-53891667D01*
X346076380Y-55367857D02*
X346076380Y-54891667D01*
X346076380Y-54891667D02*
X346552571Y-54844048D01*
X346552571Y-54844048D02*
X346504952Y-54891667D01*
X346504952Y-54891667D02*
X346457333Y-54986905D01*
X346457333Y-54986905D02*
X346457333Y-55225000D01*
X346457333Y-55225000D02*
X346504952Y-55320238D01*
X346504952Y-55320238D02*
X346552571Y-55367857D01*
X346552571Y-55367857D02*
X346647809Y-55415476D01*
X346647809Y-55415476D02*
X346885904Y-55415476D01*
X346885904Y-55415476D02*
X346981142Y-55367857D01*
X346981142Y-55367857D02*
X347028761Y-55320238D01*
X347028761Y-55320238D02*
X347076380Y-55225000D01*
X347076380Y-55225000D02*
X347076380Y-54986905D01*
X347076380Y-54986905D02*
X347028761Y-54891667D01*
X347028761Y-54891667D02*
X346981142Y-54844048D01*
X343917380Y-51963095D02*
X344726904Y-51963095D01*
X344726904Y-51963095D02*
X344822142Y-52010714D01*
X344822142Y-52010714D02*
X344869761Y-52058333D01*
X344869761Y-52058333D02*
X344917380Y-52153571D01*
X344917380Y-52153571D02*
X344917380Y-52344047D01*
X344917380Y-52344047D02*
X344869761Y-52439285D01*
X344869761Y-52439285D02*
X344822142Y-52486904D01*
X344822142Y-52486904D02*
X344726904Y-52534523D01*
X344726904Y-52534523D02*
X343917380Y-52534523D01*
X344917380Y-53534523D02*
X344917380Y-52963095D01*
X344917380Y-53248809D02*
X343917380Y-53248809D01*
X343917380Y-53248809D02*
X344060238Y-53153571D01*
X344060238Y-53153571D02*
X344155476Y-53058333D01*
X344155476Y-53058333D02*
X344203095Y-52963095D01*
%TO.C,SW49*%
X230920190Y-56605952D02*
X231015428Y-56558333D01*
X231015428Y-56558333D02*
X231063047Y-56510714D01*
X231063047Y-56510714D02*
X231110666Y-56415476D01*
X231110666Y-56415476D02*
X231110666Y-56367857D01*
X231110666Y-56367857D02*
X231063047Y-56272619D01*
X231063047Y-56272619D02*
X231015428Y-56225000D01*
X231015428Y-56225000D02*
X230920190Y-56177380D01*
X230920190Y-56177380D02*
X230729714Y-56177380D01*
X230729714Y-56177380D02*
X230634476Y-56225000D01*
X230634476Y-56225000D02*
X230586857Y-56272619D01*
X230586857Y-56272619D02*
X230539238Y-56367857D01*
X230539238Y-56367857D02*
X230539238Y-56415476D01*
X230539238Y-56415476D02*
X230586857Y-56510714D01*
X230586857Y-56510714D02*
X230634476Y-56558333D01*
X230634476Y-56558333D02*
X230729714Y-56605952D01*
X230729714Y-56605952D02*
X230920190Y-56605952D01*
X230920190Y-56605952D02*
X231015428Y-56653571D01*
X231015428Y-56653571D02*
X231063047Y-56701190D01*
X231063047Y-56701190D02*
X231110666Y-56796428D01*
X231110666Y-56796428D02*
X231110666Y-56986904D01*
X231110666Y-56986904D02*
X231063047Y-57082142D01*
X231063047Y-57082142D02*
X231015428Y-57129761D01*
X231015428Y-57129761D02*
X230920190Y-57177380D01*
X230920190Y-57177380D02*
X230729714Y-57177380D01*
X230729714Y-57177380D02*
X230634476Y-57129761D01*
X230634476Y-57129761D02*
X230586857Y-57082142D01*
X230586857Y-57082142D02*
X230539238Y-56986904D01*
X230539238Y-56986904D02*
X230539238Y-56796428D01*
X230539238Y-56796428D02*
X230586857Y-56701190D01*
X230586857Y-56701190D02*
X230634476Y-56653571D01*
X230634476Y-56653571D02*
X230729714Y-56605952D01*
X229920190Y-56177380D02*
X229824952Y-56177380D01*
X229824952Y-56177380D02*
X229729714Y-56225000D01*
X229729714Y-56225000D02*
X229682095Y-56272619D01*
X229682095Y-56272619D02*
X229634476Y-56367857D01*
X229634476Y-56367857D02*
X229586857Y-56558333D01*
X229586857Y-56558333D02*
X229586857Y-56796428D01*
X229586857Y-56796428D02*
X229634476Y-56986904D01*
X229634476Y-56986904D02*
X229682095Y-57082142D01*
X229682095Y-57082142D02*
X229729714Y-57129761D01*
X229729714Y-57129761D02*
X229824952Y-57177380D01*
X229824952Y-57177380D02*
X229920190Y-57177380D01*
X229920190Y-57177380D02*
X230015428Y-57129761D01*
X230015428Y-57129761D02*
X230063047Y-57082142D01*
X230063047Y-57082142D02*
X230110666Y-56986904D01*
X230110666Y-56986904D02*
X230158285Y-56796428D01*
X230158285Y-56796428D02*
X230158285Y-56558333D01*
X230158285Y-56558333D02*
X230110666Y-56367857D01*
X230110666Y-56367857D02*
X230063047Y-56272619D01*
X230063047Y-56272619D02*
X230015428Y-56225000D01*
X230015428Y-56225000D02*
X229920190Y-56177380D01*
X228967809Y-56177380D02*
X228872571Y-56177380D01*
X228872571Y-56177380D02*
X228777333Y-56225000D01*
X228777333Y-56225000D02*
X228729714Y-56272619D01*
X228729714Y-56272619D02*
X228682095Y-56367857D01*
X228682095Y-56367857D02*
X228634476Y-56558333D01*
X228634476Y-56558333D02*
X228634476Y-56796428D01*
X228634476Y-56796428D02*
X228682095Y-56986904D01*
X228682095Y-56986904D02*
X228729714Y-57082142D01*
X228729714Y-57082142D02*
X228777333Y-57129761D01*
X228777333Y-57129761D02*
X228872571Y-57177380D01*
X228872571Y-57177380D02*
X228967809Y-57177380D01*
X228967809Y-57177380D02*
X229063047Y-57129761D01*
X229063047Y-57129761D02*
X229110666Y-57082142D01*
X229110666Y-57082142D02*
X229158285Y-56986904D01*
X229158285Y-56986904D02*
X229205904Y-56796428D01*
X229205904Y-56796428D02*
X229205904Y-56558333D01*
X229205904Y-56558333D02*
X229158285Y-56367857D01*
X229158285Y-56367857D02*
X229110666Y-56272619D01*
X229110666Y-56272619D02*
X229063047Y-56225000D01*
X229063047Y-56225000D02*
X228967809Y-56177380D01*
X228253523Y-57129761D02*
X228110666Y-57177380D01*
X228110666Y-57177380D02*
X227872571Y-57177380D01*
X227872571Y-57177380D02*
X227777333Y-57129761D01*
X227777333Y-57129761D02*
X227729714Y-57082142D01*
X227729714Y-57082142D02*
X227682095Y-56986904D01*
X227682095Y-56986904D02*
X227682095Y-56891666D01*
X227682095Y-56891666D02*
X227729714Y-56796428D01*
X227729714Y-56796428D02*
X227777333Y-56748809D01*
X227777333Y-56748809D02*
X227872571Y-56701190D01*
X227872571Y-56701190D02*
X228063047Y-56653571D01*
X228063047Y-56653571D02*
X228158285Y-56605952D01*
X228158285Y-56605952D02*
X228205904Y-56558333D01*
X228205904Y-56558333D02*
X228253523Y-56463095D01*
X228253523Y-56463095D02*
X228253523Y-56367857D01*
X228253523Y-56367857D02*
X228205904Y-56272619D01*
X228205904Y-56272619D02*
X228158285Y-56225000D01*
X228158285Y-56225000D02*
X228063047Y-56177380D01*
X228063047Y-56177380D02*
X227824952Y-56177380D01*
X227824952Y-56177380D02*
X227682095Y-56225000D01*
X227253523Y-57177380D02*
X227253523Y-56177380D01*
X227253523Y-56177380D02*
X226872571Y-56177380D01*
X226872571Y-56177380D02*
X226777333Y-56225000D01*
X226777333Y-56225000D02*
X226729714Y-56272619D01*
X226729714Y-56272619D02*
X226682095Y-56367857D01*
X226682095Y-56367857D02*
X226682095Y-56510714D01*
X226682095Y-56510714D02*
X226729714Y-56605952D01*
X226729714Y-56605952D02*
X226777333Y-56653571D01*
X226777333Y-56653571D02*
X226872571Y-56701190D01*
X226872571Y-56701190D02*
X227253523Y-56701190D01*
X226205904Y-57177380D02*
X226015428Y-57177380D01*
X226015428Y-57177380D02*
X225920190Y-57129761D01*
X225920190Y-57129761D02*
X225872571Y-57082142D01*
X225872571Y-57082142D02*
X225777333Y-56939285D01*
X225777333Y-56939285D02*
X225729714Y-56748809D01*
X225729714Y-56748809D02*
X225729714Y-56367857D01*
X225729714Y-56367857D02*
X225777333Y-56272619D01*
X225777333Y-56272619D02*
X225824952Y-56225000D01*
X225824952Y-56225000D02*
X225920190Y-56177380D01*
X225920190Y-56177380D02*
X226110666Y-56177380D01*
X226110666Y-56177380D02*
X226205904Y-56225000D01*
X226205904Y-56225000D02*
X226253523Y-56272619D01*
X226253523Y-56272619D02*
X226301142Y-56367857D01*
X226301142Y-56367857D02*
X226301142Y-56605952D01*
X226301142Y-56605952D02*
X226253523Y-56701190D01*
X226253523Y-56701190D02*
X226205904Y-56748809D01*
X226205904Y-56748809D02*
X226110666Y-56796428D01*
X226110666Y-56796428D02*
X225920190Y-56796428D01*
X225920190Y-56796428D02*
X225824952Y-56748809D01*
X225824952Y-56748809D02*
X225777333Y-56701190D01*
X225777333Y-56701190D02*
X225729714Y-56605952D01*
X224967809Y-56653571D02*
X224824952Y-56701190D01*
X224824952Y-56701190D02*
X224777333Y-56748809D01*
X224777333Y-56748809D02*
X224729714Y-56844047D01*
X224729714Y-56844047D02*
X224729714Y-56986904D01*
X224729714Y-56986904D02*
X224777333Y-57082142D01*
X224777333Y-57082142D02*
X224824952Y-57129761D01*
X224824952Y-57129761D02*
X224920190Y-57177380D01*
X224920190Y-57177380D02*
X225301142Y-57177380D01*
X225301142Y-57177380D02*
X225301142Y-56177380D01*
X225301142Y-56177380D02*
X224967809Y-56177380D01*
X224967809Y-56177380D02*
X224872571Y-56225000D01*
X224872571Y-56225000D02*
X224824952Y-56272619D01*
X224824952Y-56272619D02*
X224777333Y-56367857D01*
X224777333Y-56367857D02*
X224777333Y-56463095D01*
X224777333Y-56463095D02*
X224824952Y-56558333D01*
X224824952Y-56558333D02*
X224872571Y-56605952D01*
X224872571Y-56605952D02*
X224967809Y-56653571D01*
X224967809Y-56653571D02*
X225301142Y-56653571D01*
X223872571Y-56177380D02*
X224063047Y-56177380D01*
X224063047Y-56177380D02*
X224158285Y-56225000D01*
X224158285Y-56225000D02*
X224205904Y-56272619D01*
X224205904Y-56272619D02*
X224301142Y-56415476D01*
X224301142Y-56415476D02*
X224348761Y-56605952D01*
X224348761Y-56605952D02*
X224348761Y-56986904D01*
X224348761Y-56986904D02*
X224301142Y-57082142D01*
X224301142Y-57082142D02*
X224253523Y-57129761D01*
X224253523Y-57129761D02*
X224158285Y-57177380D01*
X224158285Y-57177380D02*
X223967809Y-57177380D01*
X223967809Y-57177380D02*
X223872571Y-57129761D01*
X223872571Y-57129761D02*
X223824952Y-57082142D01*
X223824952Y-57082142D02*
X223777333Y-56986904D01*
X223777333Y-56986904D02*
X223777333Y-56748809D01*
X223777333Y-56748809D02*
X223824952Y-56653571D01*
X223824952Y-56653571D02*
X223872571Y-56605952D01*
X223872571Y-56605952D02*
X223967809Y-56558333D01*
X223967809Y-56558333D02*
X224158285Y-56558333D01*
X224158285Y-56558333D02*
X224253523Y-56605952D01*
X224253523Y-56605952D02*
X224301142Y-56653571D01*
X224301142Y-56653571D02*
X224348761Y-56748809D01*
X223348761Y-57177380D02*
X223348761Y-56177380D01*
X223348761Y-56177380D02*
X223015428Y-56891666D01*
X223015428Y-56891666D02*
X222682095Y-56177380D01*
X222682095Y-56177380D02*
X222682095Y-57177380D01*
X222253523Y-56272619D02*
X222205904Y-56225000D01*
X222205904Y-56225000D02*
X222110666Y-56177380D01*
X222110666Y-56177380D02*
X221872571Y-56177380D01*
X221872571Y-56177380D02*
X221777333Y-56225000D01*
X221777333Y-56225000D02*
X221729714Y-56272619D01*
X221729714Y-56272619D02*
X221682095Y-56367857D01*
X221682095Y-56367857D02*
X221682095Y-56463095D01*
X221682095Y-56463095D02*
X221729714Y-56605952D01*
X221729714Y-56605952D02*
X222301142Y-57177380D01*
X222301142Y-57177380D02*
X221682095Y-57177380D01*
X220682095Y-57177380D02*
X221015428Y-56701190D01*
X221253523Y-57177380D02*
X221253523Y-56177380D01*
X221253523Y-56177380D02*
X220872571Y-56177380D01*
X220872571Y-56177380D02*
X220777333Y-56225000D01*
X220777333Y-56225000D02*
X220729714Y-56272619D01*
X220729714Y-56272619D02*
X220682095Y-56367857D01*
X220682095Y-56367857D02*
X220682095Y-56510714D01*
X220682095Y-56510714D02*
X220729714Y-56605952D01*
X220729714Y-56605952D02*
X220777333Y-56653571D01*
X220777333Y-56653571D02*
X220872571Y-56701190D01*
X220872571Y-56701190D02*
X221253523Y-56701190D01*
X220253523Y-56653571D02*
X219920190Y-56653571D01*
X219777333Y-57177380D02*
X220253523Y-57177380D01*
X220253523Y-57177380D02*
X220253523Y-56177380D01*
X220253523Y-56177380D02*
X219777333Y-56177380D01*
X227761523Y-55605761D02*
X227618666Y-55653380D01*
X227618666Y-55653380D02*
X227380571Y-55653380D01*
X227380571Y-55653380D02*
X227285333Y-55605761D01*
X227285333Y-55605761D02*
X227237714Y-55558142D01*
X227237714Y-55558142D02*
X227190095Y-55462904D01*
X227190095Y-55462904D02*
X227190095Y-55367666D01*
X227190095Y-55367666D02*
X227237714Y-55272428D01*
X227237714Y-55272428D02*
X227285333Y-55224809D01*
X227285333Y-55224809D02*
X227380571Y-55177190D01*
X227380571Y-55177190D02*
X227571047Y-55129571D01*
X227571047Y-55129571D02*
X227666285Y-55081952D01*
X227666285Y-55081952D02*
X227713904Y-55034333D01*
X227713904Y-55034333D02*
X227761523Y-54939095D01*
X227761523Y-54939095D02*
X227761523Y-54843857D01*
X227761523Y-54843857D02*
X227713904Y-54748619D01*
X227713904Y-54748619D02*
X227666285Y-54701000D01*
X227666285Y-54701000D02*
X227571047Y-54653380D01*
X227571047Y-54653380D02*
X227332952Y-54653380D01*
X227332952Y-54653380D02*
X227190095Y-54701000D01*
X226856761Y-54653380D02*
X226618666Y-55653380D01*
X226618666Y-55653380D02*
X226428190Y-54939095D01*
X226428190Y-54939095D02*
X226237714Y-55653380D01*
X226237714Y-55653380D02*
X225999619Y-54653380D01*
X225190095Y-54986714D02*
X225190095Y-55653380D01*
X225428190Y-54605761D02*
X225666285Y-55320047D01*
X225666285Y-55320047D02*
X225047238Y-55320047D01*
X224618666Y-55653380D02*
X224428190Y-55653380D01*
X224428190Y-55653380D02*
X224332952Y-55605761D01*
X224332952Y-55605761D02*
X224285333Y-55558142D01*
X224285333Y-55558142D02*
X224190095Y-55415285D01*
X224190095Y-55415285D02*
X224142476Y-55224809D01*
X224142476Y-55224809D02*
X224142476Y-54843857D01*
X224142476Y-54843857D02*
X224190095Y-54748619D01*
X224190095Y-54748619D02*
X224237714Y-54701000D01*
X224237714Y-54701000D02*
X224332952Y-54653380D01*
X224332952Y-54653380D02*
X224523428Y-54653380D01*
X224523428Y-54653380D02*
X224618666Y-54701000D01*
X224618666Y-54701000D02*
X224666285Y-54748619D01*
X224666285Y-54748619D02*
X224713904Y-54843857D01*
X224713904Y-54843857D02*
X224713904Y-55081952D01*
X224713904Y-55081952D02*
X224666285Y-55177190D01*
X224666285Y-55177190D02*
X224618666Y-55224809D01*
X224618666Y-55224809D02*
X224523428Y-55272428D01*
X224523428Y-55272428D02*
X224332952Y-55272428D01*
X224332952Y-55272428D02*
X224237714Y-55224809D01*
X224237714Y-55224809D02*
X224190095Y-55177190D01*
X224190095Y-55177190D02*
X224142476Y-55081952D01*
D11*
%TO.C,J2*%
X305783160Y-98589850D02*
X305714468Y-98612747D01*
X305714468Y-98612747D02*
X305599982Y-98612747D01*
X305599982Y-98612747D02*
X305554187Y-98589850D01*
X305554187Y-98589850D02*
X305531290Y-98566953D01*
X305531290Y-98566953D02*
X305508392Y-98521158D01*
X305508392Y-98521158D02*
X305508392Y-98475363D01*
X305508392Y-98475363D02*
X305531290Y-98429569D01*
X305531290Y-98429569D02*
X305554187Y-98406671D01*
X305554187Y-98406671D02*
X305599982Y-98383774D01*
X305599982Y-98383774D02*
X305691571Y-98360877D01*
X305691571Y-98360877D02*
X305737366Y-98337979D01*
X305737366Y-98337979D02*
X305760263Y-98315082D01*
X305760263Y-98315082D02*
X305783160Y-98269287D01*
X305783160Y-98269287D02*
X305783160Y-98223493D01*
X305783160Y-98223493D02*
X305760263Y-98177698D01*
X305760263Y-98177698D02*
X305737366Y-98154801D01*
X305737366Y-98154801D02*
X305691571Y-98131903D01*
X305691571Y-98131903D02*
X305577084Y-98131903D01*
X305577084Y-98131903D02*
X305508392Y-98154801D01*
X305164932Y-98131903D02*
X305164932Y-98475363D01*
X305164932Y-98475363D02*
X305187829Y-98544055D01*
X305187829Y-98544055D02*
X305233624Y-98589850D01*
X305233624Y-98589850D02*
X305302316Y-98612747D01*
X305302316Y-98612747D02*
X305348111Y-98612747D01*
X304935959Y-98429569D02*
X304569602Y-98429569D01*
X304134552Y-98292185D02*
X304134552Y-98612747D01*
X304249039Y-98109006D02*
X304363525Y-98452466D01*
X304363525Y-98452466D02*
X304065860Y-98452466D01*
X303928476Y-98131903D02*
X303630810Y-98131903D01*
X303630810Y-98131903D02*
X303791092Y-98315082D01*
X303791092Y-98315082D02*
X303722400Y-98315082D01*
X303722400Y-98315082D02*
X303676605Y-98337979D01*
X303676605Y-98337979D02*
X303653708Y-98360877D01*
X303653708Y-98360877D02*
X303630810Y-98406671D01*
X303630810Y-98406671D02*
X303630810Y-98521158D01*
X303630810Y-98521158D02*
X303653708Y-98566953D01*
X303653708Y-98566953D02*
X303676605Y-98589850D01*
X303676605Y-98589850D02*
X303722400Y-98612747D01*
X303722400Y-98612747D02*
X303859784Y-98612747D01*
X303859784Y-98612747D02*
X303905578Y-98589850D01*
X303905578Y-98589850D02*
X303928476Y-98566953D01*
X303195761Y-98131903D02*
X303424734Y-98131903D01*
X303424734Y-98131903D02*
X303447631Y-98360877D01*
X303447631Y-98360877D02*
X303424734Y-98337979D01*
X303424734Y-98337979D02*
X303378939Y-98315082D01*
X303378939Y-98315082D02*
X303264453Y-98315082D01*
X303264453Y-98315082D02*
X303218658Y-98337979D01*
X303218658Y-98337979D02*
X303195761Y-98360877D01*
X303195761Y-98360877D02*
X303172863Y-98406671D01*
X303172863Y-98406671D02*
X303172863Y-98521158D01*
X303172863Y-98521158D02*
X303195761Y-98566953D01*
X303195761Y-98566953D02*
X303218658Y-98589850D01*
X303218658Y-98589850D02*
X303264453Y-98612747D01*
X303264453Y-98612747D02*
X303378939Y-98612747D01*
X303378939Y-98612747D02*
X303424734Y-98589850D01*
X303424734Y-98589850D02*
X303447631Y-98566953D01*
X302714916Y-98612747D02*
X302989684Y-98612747D01*
X302852300Y-98612747D02*
X302852300Y-98131903D01*
X302852300Y-98131903D02*
X302898095Y-98200595D01*
X302898095Y-98200595D02*
X302943890Y-98246390D01*
X302943890Y-98246390D02*
X302989684Y-98269287D01*
X302302764Y-98292185D02*
X302302764Y-98612747D01*
X302417251Y-98109006D02*
X302531737Y-98452466D01*
X302531737Y-98452466D02*
X302234072Y-98452466D01*
D12*
X310488279Y-100911344D02*
X310488279Y-100431067D01*
X310488279Y-100431067D02*
X310305316Y-100431067D01*
X310305316Y-100431067D02*
X310259576Y-100453938D01*
X310259576Y-100453938D02*
X310236705Y-100476808D01*
X310236705Y-100476808D02*
X310213835Y-100522549D01*
X310213835Y-100522549D02*
X310213835Y-100591160D01*
X310213835Y-100591160D02*
X310236705Y-100636900D01*
X310236705Y-100636900D02*
X310259576Y-100659771D01*
X310259576Y-100659771D02*
X310305316Y-100682641D01*
X310305316Y-100682641D02*
X310488279Y-100682641D01*
X309733558Y-100865604D02*
X309756428Y-100888474D01*
X309756428Y-100888474D02*
X309825039Y-100911344D01*
X309825039Y-100911344D02*
X309870780Y-100911344D01*
X309870780Y-100911344D02*
X309939391Y-100888474D01*
X309939391Y-100888474D02*
X309985132Y-100842733D01*
X309985132Y-100842733D02*
X310008002Y-100796993D01*
X310008002Y-100796993D02*
X310030872Y-100705511D01*
X310030872Y-100705511D02*
X310030872Y-100636900D01*
X310030872Y-100636900D02*
X310008002Y-100545419D01*
X310008002Y-100545419D02*
X309985132Y-100499678D01*
X309985132Y-100499678D02*
X309939391Y-100453938D01*
X309939391Y-100453938D02*
X309870780Y-100431067D01*
X309870780Y-100431067D02*
X309825039Y-100431067D01*
X309825039Y-100431067D02*
X309756428Y-100453938D01*
X309756428Y-100453938D02*
X309733558Y-100476808D01*
X309367633Y-100659771D02*
X309299022Y-100682641D01*
X309299022Y-100682641D02*
X309276151Y-100705511D01*
X309276151Y-100705511D02*
X309253281Y-100751252D01*
X309253281Y-100751252D02*
X309253281Y-100819863D01*
X309253281Y-100819863D02*
X309276151Y-100865604D01*
X309276151Y-100865604D02*
X309299022Y-100888474D01*
X309299022Y-100888474D02*
X309344762Y-100911344D01*
X309344762Y-100911344D02*
X309527725Y-100911344D01*
X309527725Y-100911344D02*
X309527725Y-100431067D01*
X309527725Y-100431067D02*
X309367633Y-100431067D01*
X309367633Y-100431067D02*
X309321892Y-100453938D01*
X309321892Y-100453938D02*
X309299022Y-100476808D01*
X309299022Y-100476808D02*
X309276151Y-100522549D01*
X309276151Y-100522549D02*
X309276151Y-100568289D01*
X309276151Y-100568289D02*
X309299022Y-100614030D01*
X309299022Y-100614030D02*
X309321892Y-100636900D01*
X309321892Y-100636900D02*
X309367633Y-100659771D01*
X309367633Y-100659771D02*
X309527725Y-100659771D01*
X308759282Y-100659771D02*
X308599190Y-100659771D01*
X308530579Y-100911344D02*
X308759282Y-100911344D01*
X308759282Y-100911344D02*
X308759282Y-100431067D01*
X308759282Y-100431067D02*
X308530579Y-100431067D01*
X308324746Y-100911344D02*
X308324746Y-100431067D01*
X308324746Y-100431067D02*
X308210394Y-100431067D01*
X308210394Y-100431067D02*
X308141783Y-100453938D01*
X308141783Y-100453938D02*
X308096043Y-100499678D01*
X308096043Y-100499678D02*
X308073172Y-100545419D01*
X308073172Y-100545419D02*
X308050302Y-100636900D01*
X308050302Y-100636900D02*
X308050302Y-100705511D01*
X308050302Y-100705511D02*
X308073172Y-100796993D01*
X308073172Y-100796993D02*
X308096043Y-100842733D01*
X308096043Y-100842733D02*
X308141783Y-100888474D01*
X308141783Y-100888474D02*
X308210394Y-100911344D01*
X308210394Y-100911344D02*
X308324746Y-100911344D01*
X307592895Y-100453938D02*
X307638636Y-100431067D01*
X307638636Y-100431067D02*
X307707247Y-100431067D01*
X307707247Y-100431067D02*
X307775858Y-100453938D01*
X307775858Y-100453938D02*
X307821599Y-100499678D01*
X307821599Y-100499678D02*
X307844469Y-100545419D01*
X307844469Y-100545419D02*
X307867339Y-100636900D01*
X307867339Y-100636900D02*
X307867339Y-100705511D01*
X307867339Y-100705511D02*
X307844469Y-100796993D01*
X307844469Y-100796993D02*
X307821599Y-100842733D01*
X307821599Y-100842733D02*
X307775858Y-100888474D01*
X307775858Y-100888474D02*
X307707247Y-100911344D01*
X307707247Y-100911344D02*
X307661506Y-100911344D01*
X307661506Y-100911344D02*
X307592895Y-100888474D01*
X307592895Y-100888474D02*
X307570025Y-100865604D01*
X307570025Y-100865604D02*
X307570025Y-100705511D01*
X307570025Y-100705511D02*
X307661506Y-100705511D01*
X307364192Y-100659771D02*
X307204100Y-100659771D01*
X307135489Y-100911344D02*
X307364192Y-100911344D01*
X307364192Y-100911344D02*
X307364192Y-100431067D01*
X307364192Y-100431067D02*
X307135489Y-100431067D01*
D13*
%TO.C,J1*%
X313075000Y-89250000D02*
X316075000Y-89250000D01*
X313075000Y-95250000D02*
X313075000Y-89250000D01*
X316075000Y-87950000D02*
X327075000Y-87950000D01*
X316075000Y-89250000D02*
X316075000Y-87950000D01*
X316075000Y-90000000D02*
X316075000Y-89250000D01*
X316075000Y-94500000D02*
X317375000Y-94500000D01*
X316075000Y-95250000D02*
X313075000Y-95250000D01*
X316075000Y-95250000D02*
X316075000Y-94500000D01*
X316075000Y-96950000D02*
X316075000Y-95250000D01*
X316075000Y-96950000D02*
X327075000Y-96950000D01*
X317375000Y-90000000D02*
X316075000Y-90000000D01*
X317375000Y-94500000D02*
X317375000Y-90000000D01*
X327075000Y-96950000D02*
X327075000Y-87950000D01*
D14*
%TO.C,U2*%
X254500000Y-63225000D02*
X305500000Y-63225000D01*
X304200000Y-63225000D02*
X305500000Y-61925000D01*
X305500000Y-63225000D02*
X305500000Y-42225000D01*
X254500000Y-42225000D02*
X254500000Y-63225000D01*
X305500000Y-42225000D02*
X254500000Y-42225000D01*
%TO.C,U1*%
X370050000Y-42225000D02*
X319050000Y-42225000D01*
X320350000Y-42225000D02*
X319050000Y-43525000D01*
X319050000Y-42225000D02*
X319050000Y-63225000D01*
X370050000Y-63225000D02*
X370050000Y-42225000D01*
X319050000Y-63225000D02*
X370050000Y-63225000D01*
D13*
%TO.C,J2*%
X311570000Y-95230000D02*
X308570000Y-95230000D01*
X311570000Y-89230000D02*
X311570000Y-95230000D01*
X308570000Y-96530000D02*
X297570000Y-96530000D01*
X308570000Y-95230000D02*
X308570000Y-96530000D01*
X308570000Y-94480000D02*
X308570000Y-95230000D01*
X308570000Y-89980000D02*
X307270000Y-89980000D01*
X308570000Y-89230000D02*
X311570000Y-89230000D01*
X308570000Y-89230000D02*
X308570000Y-89980000D01*
X308570000Y-87530000D02*
X308570000Y-89230000D01*
X308570000Y-87530000D02*
X297570000Y-87530000D01*
X307270000Y-94480000D02*
X308570000Y-94480000D01*
X307270000Y-89980000D02*
X307270000Y-94480000D01*
X297570000Y-87530000D02*
X297570000Y-96530000D01*
%TD*%
M02*
