%TF.GenerationSoftware,KiCad,Pcbnew,7.0.0-da2b9df05c~163~ubuntu22.04.1*%
%TF.CreationDate,2023-02-19T13:11:16+01:00*%
%TF.ProjectId,europe-ergo-smd,6575726f-7065-42d6-9572-676f2d736d64,rev?*%
%TF.SameCoordinates,Original*%
%TF.FileFunction,Soldermask,Bot*%
%TF.FilePolarity,Negative*%
%FSLAX46Y46*%
G04 Gerber Fmt 4.6, Leading zero omitted, Abs format (unit mm)*
G04 Created by KiCad (PCBNEW 7.0.0-da2b9df05c~163~ubuntu22.04.1) date 2023-02-19 13:11:16*
%MOMM*%
%LPD*%
G01*
G04 APERTURE LIST*
%ADD10C,7.500000*%
%ADD11C,1.700000*%
%ADD12C,4.000000*%
%ADD13C,2.200000*%
%ADD14R,1.500000X1.500000*%
%ADD15O,1.500000X1.500000*%
%ADD16R,1.800000X1.800000*%
%ADD17O,1.800000X1.800000*%
%ADD18C,1.100000*%
%ADD19R,1.650000X1.650000*%
%ADD20C,1.650000*%
%ADD21O,1.700000X1.700000*%
%ADD22R,1.700000X3.500000*%
%ADD23R,1.700000X1.700000*%
%ADD24R,3.500000X1.700000*%
G04 APERTURE END LIST*
D10*
%TO.C,H15*%
X302750000Y-32600000D03*
%TD*%
D11*
%TO.C,SW43*%
X343900000Y-128700000D03*
D12*
X343900000Y-123620000D03*
D11*
X343900000Y-118540000D03*
D13*
X338820000Y-121080000D03*
X341360000Y-127430000D03*
%TD*%
D11*
%TO.C,SW89*%
X151880000Y-162280000D03*
D12*
X156960000Y-162280000D03*
D11*
X162040000Y-162280000D03*
D13*
X159500000Y-157200000D03*
X153150000Y-159740000D03*
%TD*%
D11*
%TO.C,SW3*%
X492775000Y-120880000D03*
D12*
X497855000Y-120880000D03*
D11*
X502935000Y-120880000D03*
D13*
X500395000Y-115800000D03*
X494045000Y-118340000D03*
%TD*%
D10*
%TO.C,H3*%
X521000000Y-32600000D03*
%TD*%
D14*
%TO.C,D51*%
X512729999Y-50439999D03*
D15*
X515269999Y-50439999D03*
%TD*%
D11*
%TO.C,SW21*%
X424920000Y-114380000D03*
D12*
X430000000Y-114380000D03*
D11*
X435080000Y-114380000D03*
D13*
X432540000Y-109300000D03*
X426190000Y-111840000D03*
%TD*%
D11*
%TO.C,SW28*%
X403920000Y-159700000D03*
D12*
X409000000Y-159700000D03*
D11*
X414080000Y-159700000D03*
D13*
X411540000Y-154620000D03*
X405190000Y-157160000D03*
%TD*%
D11*
%TO.C,SW80*%
X172920000Y-180600000D03*
D12*
X178000000Y-180600000D03*
D11*
X183080000Y-180600000D03*
D13*
X180540000Y-175520000D03*
X174190000Y-178060000D03*
%TD*%
D11*
%TO.C,SW5*%
X492675000Y-141800000D03*
D12*
X497755000Y-141800000D03*
D11*
X502835000Y-141800000D03*
D13*
X500295000Y-136720000D03*
X493945000Y-139260000D03*
%TD*%
D11*
%TO.C,SW9*%
X466920000Y-121840000D03*
D12*
X472000000Y-121840000D03*
D11*
X477080000Y-121840000D03*
D13*
X474540000Y-116760000D03*
X468190000Y-119300000D03*
%TD*%
D10*
%TO.C,H11*%
X100900000Y-228000000D03*
%TD*%
D11*
%TO.C,SW35*%
X375600586Y-193540009D03*
D12*
X379999995Y-191000009D03*
D11*
X384399405Y-188460009D03*
D13*
X379659700Y-185330600D03*
X375430439Y-190705305D03*
%TD*%
D11*
%TO.C,SW34*%
X382920000Y-161800000D03*
D12*
X388000000Y-161800000D03*
D11*
X393080000Y-161800000D03*
D13*
X390540000Y-156720000D03*
X384190000Y-159260000D03*
%TD*%
D10*
%TO.C,H9*%
X100500000Y-34000000D03*
%TD*%
D11*
%TO.C,SW53*%
X283000000Y-128080000D03*
D12*
X283000000Y-123000000D03*
D11*
X283000000Y-117920000D03*
D13*
X277920000Y-120460000D03*
X280460000Y-126810000D03*
%TD*%
D11*
%TO.C,SW11*%
X465920000Y-143380000D03*
D12*
X471000000Y-143380000D03*
D11*
X476080000Y-143380000D03*
D13*
X473540000Y-138300000D03*
X467190000Y-140840000D03*
%TD*%
D11*
%TO.C,SW7*%
X443920000Y-76000000D03*
D12*
X449000000Y-76000000D03*
D11*
X454080000Y-76000000D03*
D13*
X451540000Y-70920000D03*
X445190000Y-73460000D03*
%TD*%
D11*
%TO.C,SW58*%
X256840000Y-118000000D03*
D12*
X261920000Y-118000000D03*
D11*
X267000000Y-118000000D03*
D13*
X264460000Y-112920000D03*
X258110000Y-115460000D03*
%TD*%
D11*
%TO.C,SW76*%
X193060000Y-113200000D03*
D12*
X198140000Y-113200000D03*
D11*
X203220000Y-113200000D03*
D13*
X200680000Y-108120000D03*
X194330000Y-110660000D03*
%TD*%
D10*
%TO.C,H8*%
X427400000Y-229450000D03*
%TD*%
D11*
%TO.C,SW20*%
X422590000Y-92480000D03*
D12*
X427670000Y-92480000D03*
D11*
X432750000Y-92480000D03*
D13*
X430210000Y-87400000D03*
X423860000Y-89940000D03*
%TD*%
D11*
%TO.C,SW29*%
X402730000Y-138580000D03*
D12*
X407810000Y-138580000D03*
D11*
X412890000Y-138580000D03*
D13*
X410350000Y-133500000D03*
X404000000Y-136040000D03*
%TD*%
D11*
%TO.C,SW17*%
X444920000Y-139040000D03*
D12*
X450000000Y-139040000D03*
D11*
X455080000Y-139040000D03*
D13*
X452540000Y-133960000D03*
X446190000Y-136500000D03*
%TD*%
D11*
%TO.C,SW74*%
X193920000Y-176600000D03*
D12*
X199000000Y-176600000D03*
D11*
X204080000Y-176600000D03*
D13*
X201540000Y-171520000D03*
X195190000Y-174060000D03*
%TD*%
D10*
%TO.C,H1*%
X521000000Y-229450000D03*
%TD*%
D11*
%TO.C,SW66*%
X255920000Y-75800000D03*
D12*
X261000000Y-75800000D03*
D11*
X266080000Y-75800000D03*
D13*
X263540000Y-70720000D03*
X257190000Y-73260000D03*
%TD*%
D11*
%TO.C,SW85*%
X151350000Y-141300000D03*
D12*
X156430000Y-141300000D03*
D11*
X161510000Y-141300000D03*
D13*
X158970000Y-136220000D03*
X152620000Y-138760000D03*
%TD*%
D11*
%TO.C,SW15*%
X445920000Y-118980000D03*
D12*
X451000000Y-118980000D03*
D11*
X456080000Y-118980000D03*
D13*
X453540000Y-113900000D03*
X447190000Y-116440000D03*
%TD*%
D11*
%TO.C,SW6*%
X488990000Y-185080000D03*
D12*
X494070000Y-185080000D03*
D11*
X499150000Y-185080000D03*
D13*
X496610000Y-180000000D03*
X490260000Y-182540000D03*
%TD*%
D11*
%TO.C,SW27*%
X403920000Y-115840000D03*
D12*
X409000000Y-115840000D03*
D11*
X414080000Y-115840000D03*
D13*
X411540000Y-110760000D03*
X405190000Y-113300000D03*
%TD*%
D11*
%TO.C,SW88*%
X150220000Y-120500000D03*
D12*
X155300000Y-120500000D03*
D11*
X160380000Y-120500000D03*
D13*
X157840000Y-115420000D03*
X151490000Y-117960000D03*
%TD*%
D11*
%TO.C,SW62*%
X233820000Y-96900000D03*
D12*
X238900000Y-96900000D03*
D11*
X243980000Y-96900000D03*
D13*
X241440000Y-91820000D03*
X235090000Y-94360000D03*
%TD*%
D11*
%TO.C,SW87*%
X150000000Y-99800000D03*
D12*
X155080000Y-99800000D03*
D11*
X160160000Y-99800000D03*
D13*
X157620000Y-94720000D03*
X151270000Y-97260000D03*
%TD*%
D11*
%TO.C,SW4*%
X492975000Y-162800000D03*
D12*
X498055000Y-162800000D03*
D11*
X503135000Y-162800000D03*
D13*
X500595000Y-157720000D03*
X494245000Y-160260000D03*
%TD*%
D11*
%TO.C,SW93*%
X123920000Y-99600000D03*
D12*
X129000000Y-99600000D03*
D11*
X134080000Y-99600000D03*
D13*
X131540000Y-94520000D03*
X125190000Y-97060000D03*
%TD*%
D11*
%TO.C,SW90*%
X170720000Y-75700000D03*
D12*
X175800000Y-75700000D03*
D11*
X180880000Y-75700000D03*
D13*
X178340000Y-70620000D03*
X171990000Y-73160000D03*
%TD*%
D11*
%TO.C,SW39*%
X361350000Y-119080000D03*
D12*
X366430000Y-119080000D03*
D11*
X371510000Y-119080000D03*
D13*
X368970000Y-114000000D03*
X362620000Y-116540000D03*
%TD*%
D11*
%TO.C,SW31*%
X357920000Y-75740000D03*
D12*
X363000000Y-75740000D03*
D11*
X368080000Y-75740000D03*
D13*
X365540000Y-70660000D03*
X359190000Y-73200000D03*
%TD*%
D11*
%TO.C,SW81*%
X170540000Y-94800000D03*
D12*
X175620000Y-94800000D03*
D11*
X180700000Y-94800000D03*
D13*
X178160000Y-89720000D03*
X171810000Y-92260000D03*
%TD*%
D10*
%TO.C,H5*%
X322000000Y-32650000D03*
%TD*%
D11*
%TO.C,SW54*%
X283180000Y-159080000D03*
D12*
X283180000Y-154000000D03*
D11*
X283180000Y-148920000D03*
D13*
X278100000Y-151460000D03*
X280640000Y-157810000D03*
%TD*%
D11*
%TO.C,SW19*%
X401000000Y-75860000D03*
D12*
X406080000Y-75860000D03*
D11*
X411160000Y-75860000D03*
D13*
X408620000Y-70780000D03*
X402270000Y-73320000D03*
%TD*%
D11*
%TO.C,SW47*%
X339010586Y-215200009D03*
D12*
X343409995Y-212660009D03*
D11*
X347809405Y-210120009D03*
D13*
X343069700Y-206990600D03*
X338840439Y-212365305D03*
%TD*%
D14*
%TO.C,D49*%
X455614699Y-50439999D03*
D15*
X458154699Y-50439999D03*
%TD*%
D11*
%TO.C,SW18*%
X445990000Y-181180000D03*
D12*
X451070000Y-181180000D03*
D11*
X456150000Y-181180000D03*
D13*
X453610000Y-176100000D03*
X447260000Y-178640000D03*
%TD*%
D11*
%TO.C,SW96*%
X149920000Y-75600000D03*
D12*
X155000000Y-75600000D03*
D11*
X160080000Y-75600000D03*
D13*
X157540000Y-70520000D03*
X151190000Y-73060000D03*
%TD*%
D10*
%TO.C,H4*%
X426550000Y-32650000D03*
%TD*%
D11*
%TO.C,SW67*%
X214760000Y-136600000D03*
D12*
X219840000Y-136600000D03*
D11*
X224920000Y-136600000D03*
D13*
X222380000Y-131520000D03*
X216030000Y-134060000D03*
%TD*%
D11*
%TO.C,SW41*%
X361050000Y-141080000D03*
D12*
X366130000Y-141080000D03*
D11*
X371210000Y-141080000D03*
D13*
X368670000Y-136000000D03*
X362320000Y-138540000D03*
%TD*%
D11*
%TO.C,SW46*%
X346600586Y-186540009D03*
D12*
X350999995Y-184000009D03*
D11*
X355399405Y-181460009D03*
D13*
X350659700Y-178330600D03*
X346430439Y-183705305D03*
%TD*%
D11*
%TO.C,SW16*%
X445920000Y-159800000D03*
D12*
X451000000Y-159800000D03*
D11*
X456080000Y-159800000D03*
D13*
X453540000Y-154720000D03*
X447190000Y-157260000D03*
%TD*%
D11*
%TO.C,SW22*%
X424920000Y-157220000D03*
D12*
X430000000Y-157220000D03*
D11*
X435080000Y-157220000D03*
D13*
X432540000Y-152140000D03*
X426190000Y-154680000D03*
%TD*%
D11*
%TO.C,SW26*%
X401590000Y-94740000D03*
D12*
X406670000Y-94740000D03*
D11*
X411750000Y-94740000D03*
D13*
X409210000Y-89660000D03*
X402860000Y-92200000D03*
%TD*%
D16*
%TO.C,D54*%
X138099999Y-51199999D03*
D17*
X140639999Y-51199999D03*
%TD*%
D11*
%TO.C,SW12*%
X466990000Y-185080000D03*
D12*
X472070000Y-185080000D03*
D11*
X477150000Y-185080000D03*
D13*
X474610000Y-180000000D03*
X468260000Y-182540000D03*
%TD*%
D11*
%TO.C,SW84*%
X191920000Y-75700000D03*
D12*
X197000000Y-75700000D03*
D11*
X202080000Y-75700000D03*
D13*
X199540000Y-70620000D03*
X193190000Y-73160000D03*
%TD*%
D11*
%TO.C,SW60*%
X277720000Y-75700000D03*
D12*
X282800000Y-75700000D03*
D11*
X287880000Y-75700000D03*
D13*
X285340000Y-70620000D03*
X278990000Y-73160000D03*
%TD*%
D11*
%TO.C,SW56*%
X256920000Y-139000000D03*
D12*
X262000000Y-139000000D03*
D11*
X267080000Y-139000000D03*
D13*
X264540000Y-133920000D03*
X258190000Y-136460000D03*
%TD*%
D11*
%TO.C,SW36*%
X381920000Y-140980000D03*
D12*
X387000000Y-140980000D03*
D11*
X392080000Y-140980000D03*
D13*
X389540000Y-135900000D03*
X383190000Y-138440000D03*
%TD*%
D10*
%TO.C,H16*%
X302200000Y-227800000D03*
%TD*%
%TO.C,H13*%
X300900000Y-128800000D03*
%TD*%
%TO.C,H12*%
X100500000Y-129000000D03*
%TD*%
%TO.C,H2*%
X521000000Y-129000000D03*
%TD*%
D11*
%TO.C,SW1*%
X464920000Y-75840000D03*
D12*
X470000000Y-75840000D03*
D11*
X475080000Y-75840000D03*
D13*
X472540000Y-70760000D03*
X466190000Y-73300000D03*
%TD*%
D11*
%TO.C,SW73*%
X193560000Y-134200000D03*
D12*
X198640000Y-134200000D03*
D11*
X203720000Y-134200000D03*
D13*
X201180000Y-129120000D03*
X194830000Y-131660000D03*
%TD*%
D14*
%TO.C,D48*%
X426914699Y-50339999D03*
D15*
X429454699Y-50339999D03*
%TD*%
D11*
%TO.C,SW51*%
X271600586Y-181460009D03*
D12*
X275999995Y-184000009D03*
D11*
X280399405Y-186540009D03*
D13*
X280739700Y-180870600D03*
X273970439Y-179895305D03*
%TD*%
D11*
%TO.C,SW71*%
X214920000Y-157780000D03*
D12*
X220000000Y-157780000D03*
D11*
X225080000Y-157780000D03*
D13*
X222540000Y-152700000D03*
X216190000Y-155240000D03*
%TD*%
D11*
%TO.C,SW91*%
X125510000Y-141400000D03*
D12*
X130590000Y-141400000D03*
D11*
X135670000Y-141400000D03*
D13*
X133130000Y-136320000D03*
X126780000Y-138860000D03*
%TD*%
D11*
%TO.C,SW69*%
X212720000Y-94700000D03*
D12*
X217800000Y-94700000D03*
D11*
X222880000Y-94700000D03*
D13*
X220340000Y-89620000D03*
X213990000Y-92160000D03*
%TD*%
D11*
%TO.C,SW86*%
X151920000Y-183580000D03*
D12*
X157000000Y-183580000D03*
D11*
X162080000Y-183580000D03*
D13*
X159540000Y-178500000D03*
X153190000Y-181040000D03*
%TD*%
D10*
%TO.C,H7*%
X324750000Y-228000000D03*
%TD*%
D11*
%TO.C,SW32*%
X380590000Y-96740000D03*
D12*
X385670000Y-96740000D03*
D11*
X390750000Y-96740000D03*
D13*
X388210000Y-91660000D03*
X381860000Y-94200000D03*
%TD*%
D16*
%TO.C,D55*%
X109899999Y-50699999D03*
D17*
X112439999Y-50699999D03*
%TD*%
D11*
%TO.C,SW2*%
X492775000Y-99540000D03*
D12*
X497855000Y-99540000D03*
D11*
X502935000Y-99540000D03*
D13*
X500395000Y-94460000D03*
X494045000Y-97000000D03*
%TD*%
D11*
%TO.C,SW10*%
X466920000Y-163260000D03*
D12*
X472000000Y-163260000D03*
D11*
X477080000Y-163260000D03*
D13*
X474540000Y-158180000D03*
X468190000Y-160720000D03*
%TD*%
D11*
%TO.C,SW77*%
X193840000Y-155180000D03*
D12*
X198920000Y-155180000D03*
D11*
X204000000Y-155180000D03*
D13*
X201460000Y-150100000D03*
X195110000Y-152640000D03*
%TD*%
D11*
%TO.C,SW95*%
X125920000Y-162480000D03*
D12*
X131000000Y-162480000D03*
D11*
X136080000Y-162480000D03*
D13*
X133540000Y-157400000D03*
X127190000Y-159940000D03*
%TD*%
D11*
%TO.C,SW45*%
X357070586Y-204300009D03*
D12*
X361469995Y-201760009D03*
D11*
X365869405Y-199220009D03*
D13*
X361129700Y-196090600D03*
X356900439Y-201465305D03*
%TD*%
D11*
%TO.C,SW30*%
X403920000Y-181080000D03*
D12*
X409000000Y-181080000D03*
D11*
X414080000Y-181080000D03*
D13*
X411540000Y-176000000D03*
X405190000Y-178540000D03*
%TD*%
D11*
%TO.C,SW55*%
X261140586Y-199180009D03*
D12*
X265539995Y-201720009D03*
D11*
X269939405Y-204260009D03*
D13*
X270279700Y-198590600D03*
X263510439Y-197615305D03*
%TD*%
D11*
%TO.C,SW78*%
X212920000Y-75600000D03*
D12*
X218000000Y-75600000D03*
D11*
X223080000Y-75600000D03*
D13*
X220540000Y-70520000D03*
X214190000Y-73060000D03*
%TD*%
D11*
%TO.C,SW70*%
X214460000Y-115700000D03*
D12*
X219540000Y-115700000D03*
D11*
X224620000Y-115700000D03*
D13*
X222080000Y-110620000D03*
X215730000Y-113160000D03*
%TD*%
D11*
%TO.C,SW94*%
X124240000Y-120500000D03*
D12*
X129320000Y-120500000D03*
D11*
X134400000Y-120500000D03*
D13*
X131860000Y-115420000D03*
X125510000Y-117960000D03*
%TD*%
D11*
%TO.C,SW79*%
X172250000Y-136600000D03*
D12*
X177330000Y-136600000D03*
D11*
X182410000Y-136600000D03*
D13*
X179870000Y-131520000D03*
X173520000Y-134060000D03*
%TD*%
D11*
%TO.C,SW72*%
X233920000Y-75500000D03*
D12*
X239000000Y-75500000D03*
D11*
X244080000Y-75500000D03*
D13*
X241540000Y-70420000D03*
X235190000Y-72960000D03*
%TD*%
D11*
%TO.C,SW13*%
X422920000Y-75940000D03*
D12*
X428000000Y-75940000D03*
D11*
X433080000Y-75940000D03*
D13*
X430540000Y-70860000D03*
X424190000Y-73400000D03*
%TD*%
D10*
%TO.C,H14*%
X198400000Y-228000000D03*
%TD*%
D11*
%TO.C,SW8*%
X464590000Y-99580000D03*
D12*
X469670000Y-99580000D03*
D11*
X474750000Y-99580000D03*
D13*
X472210000Y-94500000D03*
X465860000Y-97040000D03*
%TD*%
D10*
%TO.C,H6*%
X323550000Y-128900000D03*
%TD*%
D11*
%TO.C,SW33*%
X382920000Y-118840000D03*
D12*
X388000000Y-118840000D03*
D11*
X393080000Y-118840000D03*
D13*
X390540000Y-113760000D03*
X384190000Y-116300000D03*
%TD*%
D11*
%TO.C,SW68*%
X214920000Y-179000000D03*
D12*
X220000000Y-179000000D03*
D11*
X225080000Y-179000000D03*
D13*
X222540000Y-173920000D03*
X216190000Y-176460000D03*
%TD*%
D16*
%TO.C,D52*%
X195199999Y-51199999D03*
D17*
X197739999Y-51199999D03*
%TD*%
D11*
%TO.C,SW37*%
X337050000Y-75840000D03*
D12*
X342130000Y-75840000D03*
D11*
X347210000Y-75840000D03*
D13*
X344670000Y-70760000D03*
X338320000Y-73300000D03*
%TD*%
D11*
%TO.C,SW25*%
X379260000Y-75840000D03*
D12*
X384340000Y-75840000D03*
D11*
X389420000Y-75840000D03*
D13*
X386880000Y-70760000D03*
X380530000Y-73300000D03*
%TD*%
D11*
%TO.C,SW64*%
X235920000Y-160080000D03*
D12*
X241000000Y-160080000D03*
D11*
X246080000Y-160080000D03*
D13*
X243540000Y-155000000D03*
X237190000Y-157540000D03*
%TD*%
D11*
%TO.C,SW38*%
X359590000Y-96980000D03*
D12*
X364670000Y-96980000D03*
D11*
X369750000Y-96980000D03*
D13*
X367210000Y-91900000D03*
X360860000Y-94440000D03*
%TD*%
D11*
%TO.C,SW52*%
X277920000Y-97000000D03*
D12*
X283000000Y-97000000D03*
D11*
X288080000Y-97000000D03*
D13*
X285540000Y-91920000D03*
X279190000Y-94460000D03*
%TD*%
D11*
%TO.C,SW63*%
X235760000Y-118000000D03*
D12*
X240840000Y-118000000D03*
D11*
X245920000Y-118000000D03*
D13*
X243380000Y-112920000D03*
X237030000Y-115460000D03*
%TD*%
D11*
%TO.C,SW82*%
X171840000Y-115800000D03*
D12*
X176920000Y-115800000D03*
D11*
X182000000Y-115800000D03*
D13*
X179460000Y-110720000D03*
X173110000Y-113260000D03*
%TD*%
D11*
%TO.C,SW92*%
X130380000Y-183680000D03*
D12*
X135460000Y-183680000D03*
D11*
X140540000Y-183680000D03*
D13*
X138000000Y-178600000D03*
X131650000Y-181140000D03*
%TD*%
D10*
%TO.C,H10*%
X197600000Y-34100000D03*
%TD*%
D11*
%TO.C,SW75*%
X191220000Y-92200000D03*
D12*
X196300000Y-92200000D03*
D11*
X201380000Y-92200000D03*
D13*
X198840000Y-87120000D03*
X192490000Y-89660000D03*
%TD*%
D11*
%TO.C,SW50*%
X279630186Y-209564709D03*
D12*
X284029595Y-212104709D03*
D11*
X288429005Y-214644709D03*
D13*
X288769300Y-208975300D03*
X282000039Y-208000005D03*
%TD*%
D11*
%TO.C,SW65*%
X243060586Y-188630009D03*
D12*
X247459995Y-191170009D03*
D11*
X251859405Y-193710009D03*
D13*
X252199700Y-188040600D03*
X245430439Y-187065305D03*
%TD*%
D11*
%TO.C,SW57*%
X254920000Y-97000000D03*
D12*
X260000000Y-97000000D03*
D11*
X265080000Y-97000000D03*
D13*
X262540000Y-91920000D03*
X256190000Y-94460000D03*
%TD*%
D11*
%TO.C,SW44*%
X344000000Y-159080000D03*
D12*
X344000000Y-154000000D03*
D11*
X344000000Y-148920000D03*
D13*
X338920000Y-151460000D03*
X341460000Y-157810000D03*
%TD*%
D11*
%TO.C,SW61*%
X235940000Y-138900000D03*
D12*
X241020000Y-138900000D03*
D11*
X246100000Y-138900000D03*
D13*
X243560000Y-133820000D03*
X237210000Y-136360000D03*
%TD*%
D11*
%TO.C,SW59*%
X256920000Y-160080000D03*
D12*
X262000000Y-160080000D03*
D11*
X267080000Y-160080000D03*
D13*
X264540000Y-155000000D03*
X258190000Y-157540000D03*
%TD*%
D11*
%TO.C,SW40*%
X361250000Y-162000000D03*
D12*
X366330000Y-162000000D03*
D11*
X371410000Y-162000000D03*
D13*
X368870000Y-156920000D03*
X362520000Y-159460000D03*
%TD*%
D11*
%TO.C,SW24*%
X424990000Y-178480000D03*
D12*
X430070000Y-178480000D03*
D11*
X435150000Y-178480000D03*
D13*
X432610000Y-173400000D03*
X426260000Y-175940000D03*
%TD*%
D11*
%TO.C,SW83*%
X172840000Y-157680000D03*
D12*
X177920000Y-157680000D03*
D11*
X183000000Y-157680000D03*
D13*
X180460000Y-152600000D03*
X174110000Y-155140000D03*
%TD*%
D16*
%TO.C,D53*%
X167399999Y-50999999D03*
D17*
X169939999Y-50999999D03*
%TD*%
D11*
%TO.C,SW14*%
X443590000Y-97080000D03*
D12*
X448670000Y-97080000D03*
D11*
X453750000Y-97080000D03*
D13*
X451210000Y-92000000D03*
X444860000Y-94540000D03*
%TD*%
D14*
%TO.C,D50*%
X485114699Y-50239999D03*
D15*
X487654699Y-50239999D03*
%TD*%
D11*
%TO.C,SW23*%
X423920000Y-136380000D03*
D12*
X429000000Y-136380000D03*
D11*
X434080000Y-136380000D03*
D13*
X431540000Y-131300000D03*
X425190000Y-133840000D03*
%TD*%
D11*
%TO.C,SW42*%
X338920000Y-97080000D03*
D12*
X344000000Y-97080000D03*
D11*
X349080000Y-97080000D03*
D13*
X346540000Y-92000000D03*
X340190000Y-94540000D03*
%TD*%
D11*
%TO.C,SW48*%
X397010000Y-53000000D03*
X402090000Y-53000000D03*
%TD*%
D18*
%TO.C,J1*%
X318975000Y-92250000D03*
X323975000Y-92250000D03*
D19*
X318974999Y-97049999D03*
D20*
X323975000Y-88650000D03*
X327075000Y-93850000D03*
X318975000Y-87750000D03*
%TD*%
D17*
%TO.C,U2*%
X303999999Y-55449999D03*
D15*
X300969999Y-55149999D03*
X300969999Y-50299999D03*
D17*
X303999999Y-49999999D03*
D21*
X304129999Y-61614999D03*
D22*
X304129999Y-62514999D03*
D21*
X301589999Y-61614999D03*
D22*
X301589999Y-62514999D03*
D23*
X299049999Y-61614999D03*
D22*
X299049999Y-62514999D03*
D21*
X296509999Y-61614999D03*
D22*
X296509999Y-62514999D03*
D21*
X293969999Y-61614999D03*
D22*
X293969999Y-62514999D03*
D21*
X291429999Y-61614999D03*
D22*
X291429999Y-62514999D03*
D21*
X288889999Y-61614999D03*
D22*
X288889999Y-62514999D03*
D23*
X286349999Y-61614999D03*
D22*
X286349999Y-62514999D03*
D21*
X283809999Y-61614999D03*
D22*
X283809999Y-62514999D03*
D21*
X281269999Y-61614999D03*
D22*
X281269999Y-62514999D03*
D21*
X278729999Y-61614999D03*
D22*
X278729999Y-62514999D03*
D21*
X276189999Y-61614999D03*
D22*
X276189999Y-62514999D03*
D23*
X273649999Y-61614999D03*
D22*
X273649999Y-62514999D03*
D21*
X271109999Y-61614999D03*
D22*
X271109999Y-62514999D03*
D21*
X268569999Y-61614999D03*
D22*
X268569999Y-62514999D03*
D21*
X266029999Y-61614999D03*
D22*
X266029999Y-62514999D03*
D21*
X263489999Y-61614999D03*
D22*
X263489999Y-62514999D03*
D23*
X260949999Y-61614999D03*
D22*
X260949999Y-62514999D03*
D21*
X258409999Y-61614999D03*
D22*
X258409999Y-62514999D03*
D21*
X255869999Y-61614999D03*
D22*
X255869999Y-62514999D03*
D21*
X255869999Y-43834999D03*
D22*
X255869999Y-42934999D03*
D21*
X258409999Y-43834999D03*
D22*
X258409999Y-42934999D03*
D23*
X260949999Y-43834999D03*
D22*
X260949999Y-42934999D03*
D21*
X263489999Y-43834999D03*
D22*
X263489999Y-42934999D03*
D21*
X266029999Y-43834999D03*
D22*
X266029999Y-42934999D03*
D21*
X268569999Y-43834999D03*
D22*
X268569999Y-42934999D03*
D21*
X271109999Y-43834999D03*
D22*
X271109999Y-42934999D03*
D23*
X273649999Y-43834999D03*
D22*
X273649999Y-42934999D03*
D21*
X276189999Y-43834999D03*
D22*
X276189999Y-42934999D03*
D21*
X278729999Y-43834999D03*
D22*
X278729999Y-42934999D03*
D21*
X281269999Y-43834999D03*
D22*
X281269999Y-42934999D03*
D21*
X283809999Y-43834999D03*
D22*
X283809999Y-42934999D03*
D23*
X286349999Y-43834999D03*
D22*
X286349999Y-42934999D03*
D21*
X288889999Y-43834999D03*
D22*
X288889999Y-42934999D03*
D21*
X291429999Y-43834999D03*
D22*
X291429999Y-42934999D03*
D21*
X293969999Y-43834999D03*
D22*
X293969999Y-42934999D03*
D21*
X296509999Y-43834999D03*
D22*
X296509999Y-42934999D03*
D23*
X299049999Y-43834999D03*
D22*
X299049999Y-42934999D03*
D21*
X301589999Y-43834999D03*
D22*
X301589999Y-42934999D03*
D21*
X304129999Y-43834999D03*
D22*
X304129999Y-42934999D03*
D21*
X256099999Y-55264999D03*
D24*
X255199999Y-55264999D03*
D23*
X256099999Y-52724999D03*
D24*
X255199999Y-52724999D03*
D21*
X256099999Y-50184999D03*
D24*
X255199999Y-50184999D03*
%TD*%
D17*
%TO.C,U1*%
X320549999Y-49999999D03*
D15*
X323579999Y-50299999D03*
X323579999Y-55149999D03*
D17*
X320549999Y-55449999D03*
D21*
X320419999Y-43834999D03*
D22*
X320419999Y-42934999D03*
D21*
X322959999Y-43834999D03*
D22*
X322959999Y-42934999D03*
D23*
X325499999Y-43834999D03*
D22*
X325499999Y-42934999D03*
D21*
X328039999Y-43834999D03*
D22*
X328039999Y-42934999D03*
D21*
X330579999Y-43834999D03*
D22*
X330579999Y-42934999D03*
D21*
X333119999Y-43834999D03*
D22*
X333119999Y-42934999D03*
D21*
X335659999Y-43834999D03*
D22*
X335659999Y-42934999D03*
D23*
X338199999Y-43834999D03*
D22*
X338199999Y-42934999D03*
D21*
X340739999Y-43834999D03*
D22*
X340739999Y-42934999D03*
D21*
X343279999Y-43834999D03*
D22*
X343279999Y-42934999D03*
D21*
X345819999Y-43834999D03*
D22*
X345819999Y-42934999D03*
D21*
X348359999Y-43834999D03*
D22*
X348359999Y-42934999D03*
D23*
X350899999Y-43834999D03*
D22*
X350899999Y-42934999D03*
D21*
X353439999Y-43834999D03*
D22*
X353439999Y-42934999D03*
D21*
X355979999Y-43834999D03*
D22*
X355979999Y-42934999D03*
D21*
X358519999Y-43834999D03*
D22*
X358519999Y-42934999D03*
D21*
X361059999Y-43834999D03*
D22*
X361059999Y-42934999D03*
D23*
X363599999Y-43834999D03*
D22*
X363599999Y-42934999D03*
D21*
X366139999Y-43834999D03*
D22*
X366139999Y-42934999D03*
D21*
X368679999Y-43834999D03*
D22*
X368679999Y-42934999D03*
D21*
X368679999Y-61614999D03*
D22*
X368679999Y-62514999D03*
D21*
X366139999Y-61614999D03*
D22*
X366139999Y-62514999D03*
D23*
X363599999Y-61614999D03*
D22*
X363599999Y-62514999D03*
D21*
X361059999Y-61614999D03*
D22*
X361059999Y-62514999D03*
D21*
X358519999Y-61614999D03*
D22*
X358519999Y-62514999D03*
D21*
X355979999Y-61614999D03*
D22*
X355979999Y-62514999D03*
D21*
X353439999Y-61614999D03*
D22*
X353439999Y-62514999D03*
D23*
X350899999Y-61614999D03*
D22*
X350899999Y-62514999D03*
D21*
X348359999Y-61614999D03*
D22*
X348359999Y-62514999D03*
D21*
X345819999Y-61614999D03*
D22*
X345819999Y-62514999D03*
D21*
X343279999Y-61614999D03*
D22*
X343279999Y-62514999D03*
D21*
X340739999Y-61614999D03*
D22*
X340739999Y-62514999D03*
D23*
X338199999Y-61614999D03*
D22*
X338199999Y-62514999D03*
D21*
X335659999Y-61614999D03*
D22*
X335659999Y-62514999D03*
D21*
X333119999Y-61614999D03*
D22*
X333119999Y-62514999D03*
D21*
X330579999Y-61614999D03*
D22*
X330579999Y-62514999D03*
D21*
X328039999Y-61614999D03*
D22*
X328039999Y-62514999D03*
D23*
X325499999Y-61614999D03*
D22*
X325499999Y-62514999D03*
D21*
X322959999Y-61614999D03*
D22*
X322959999Y-62514999D03*
D21*
X320419999Y-61614999D03*
D22*
X320419999Y-62514999D03*
D21*
X368449999Y-50184999D03*
D24*
X369349999Y-50184999D03*
D23*
X368449999Y-52724999D03*
D24*
X369349999Y-52724999D03*
D21*
X368449999Y-55264999D03*
D24*
X369349999Y-55264999D03*
%TD*%
D11*
%TO.C,SW49*%
X229000000Y-53000000D03*
X223920000Y-53000000D03*
%TD*%
D18*
%TO.C,J2*%
X305670000Y-92230000D03*
X300670000Y-92230000D03*
D19*
X305669999Y-87429999D03*
D20*
X300670000Y-95830000D03*
X297570000Y-90630000D03*
X305670000Y-96730000D03*
%TD*%
M02*
