%TF.GenerationSoftware,KiCad,Pcbnew,7.0.0-da2b9df05c~163~ubuntu22.04.1*%
%TF.CreationDate,2023-02-19T13:11:16+01:00*%
%TF.ProjectId,europe-ergo-smd,6575726f-7065-42d6-9572-676f2d736d64,rev?*%
%TF.SameCoordinates,Original*%
%TF.FileFunction,Soldermask,Top*%
%TF.FilePolarity,Negative*%
%FSLAX46Y46*%
G04 Gerber Fmt 4.6, Leading zero omitted, Abs format (unit mm)*
G04 Created by KiCad (PCBNEW 7.0.0-da2b9df05c~163~ubuntu22.04.1) date 2023-02-19 13:11:16*
%MOMM*%
%LPD*%
G01*
G04 APERTURE LIST*
G04 Aperture macros list*
%AMRoundRect*
0 Rectangle with rounded corners*
0 $1 Rounding radius*
0 $2 $3 $4 $5 $6 $7 $8 $9 X,Y pos of 4 corners*
0 Add a 4 corners polygon primitive as box body*
4,1,4,$2,$3,$4,$5,$6,$7,$8,$9,$2,$3,0*
0 Add four circle primitives for the rounded corners*
1,1,$1+$1,$2,$3*
1,1,$1+$1,$4,$5*
1,1,$1+$1,$6,$7*
1,1,$1+$1,$8,$9*
0 Add four rect primitives between the rounded corners*
20,1,$1+$1,$2,$3,$4,$5,0*
20,1,$1+$1,$4,$5,$6,$7,0*
20,1,$1+$1,$6,$7,$8,$9,0*
20,1,$1+$1,$8,$9,$2,$3,0*%
G04 Aperture macros list end*
%ADD10RoundRect,0.250000X-0.312500X-1.450000X0.312500X-1.450000X0.312500X1.450000X-0.312500X1.450000X0*%
%ADD11RoundRect,0.250000X0.312500X1.450000X-0.312500X1.450000X-0.312500X-1.450000X0.312500X-1.450000X0*%
%ADD12RoundRect,0.225000X-0.225000X-0.375000X0.225000X-0.375000X0.225000X0.375000X-0.225000X0.375000X0*%
%ADD13C,7.500000*%
%ADD14C,1.700000*%
%ADD15C,4.000000*%
%ADD16C,2.200000*%
%ADD17R,1.500000X1.500000*%
%ADD18O,1.500000X1.500000*%
%ADD19R,1.800000X1.800000*%
%ADD20O,1.800000X1.800000*%
%ADD21C,1.100000*%
%ADD22R,1.650000X1.650000*%
%ADD23C,1.650000*%
%ADD24O,1.700000X1.700000*%
%ADD25R,1.700000X1.700000*%
G04 APERTURE END LIST*
D10*
%TO.C,R12*%
X105782500Y-56000000D03*
X110057500Y-56000000D03*
%TD*%
%TO.C,R11*%
X296322500Y-82500000D03*
X300597500Y-82500000D03*
%TD*%
%TO.C,R10*%
X134782500Y-56000000D03*
X139057500Y-56000000D03*
%TD*%
%TO.C,R9*%
X296402500Y-99500000D03*
X300677500Y-99500000D03*
%TD*%
D11*
%TO.C,R8*%
X173137500Y-56000000D03*
X168862500Y-56000000D03*
%TD*%
%TO.C,R7*%
X201137500Y-56000000D03*
X196862500Y-56000000D03*
%TD*%
D10*
%TO.C,R6*%
X510872500Y-54000000D03*
X515147500Y-54000000D03*
%TD*%
D11*
%TO.C,R5*%
X327227500Y-82500000D03*
X322952500Y-82500000D03*
%TD*%
%TO.C,R4*%
X491767500Y-54000000D03*
X487492500Y-54000000D03*
%TD*%
%TO.C,R3*%
X328307500Y-99500000D03*
X324032500Y-99500000D03*
%TD*%
%TO.C,R2*%
X461687500Y-54000000D03*
X457412500Y-54000000D03*
%TD*%
D10*
%TO.C,R1*%
X423332500Y-54000000D03*
X427607500Y-54000000D03*
%TD*%
D12*
%TO.C,D102*%
X149730000Y-84000000D03*
X153030000Y-84000000D03*
%TD*%
%TO.C,D101*%
X123450000Y-130000000D03*
X126750000Y-130000000D03*
%TD*%
%TO.C,D100*%
X125460000Y-112000000D03*
X128760000Y-112000000D03*
%TD*%
%TO.C,D99*%
X126050000Y-171380000D03*
X129350000Y-171380000D03*
%TD*%
%TO.C,D98*%
X125760000Y-149100000D03*
X129060000Y-149100000D03*
%TD*%
%TO.C,D97*%
X129710000Y-192000000D03*
X133010000Y-192000000D03*
%TD*%
%TO.C,D96*%
X171350000Y-84000000D03*
X174650000Y-84000000D03*
%TD*%
%TO.C,D95*%
X151310000Y-171380000D03*
X154610000Y-171380000D03*
%TD*%
%TO.C,D94*%
X151570000Y-149100000D03*
X154870000Y-149100000D03*
%TD*%
%TO.C,D93*%
X149750000Y-130000000D03*
X153050000Y-130000000D03*
%TD*%
%TO.C,D92*%
X151730000Y-112000000D03*
X155030000Y-112000000D03*
%TD*%
%TO.C,D91*%
X151540000Y-192000000D03*
X154840000Y-192000000D03*
%TD*%
%TO.C,D90*%
X191750000Y-84000000D03*
X195050000Y-84000000D03*
%TD*%
%TO.C,D89*%
X172460000Y-166380000D03*
X175760000Y-166380000D03*
%TD*%
%TO.C,D88*%
X171760000Y-125000000D03*
X175060000Y-125000000D03*
%TD*%
%TO.C,D87*%
X170970000Y-103800000D03*
X174270000Y-103800000D03*
%TD*%
%TO.C,D86*%
X172550000Y-189000000D03*
X175850000Y-189000000D03*
%TD*%
%TO.C,D85*%
X172250000Y-145100000D03*
X175550000Y-145100000D03*
%TD*%
%TO.C,D84*%
X213150000Y-84000000D03*
X216450000Y-84000000D03*
%TD*%
%TO.C,D83*%
X193730000Y-185000000D03*
X197030000Y-185000000D03*
%TD*%
%TO.C,D82*%
X193770000Y-163380000D03*
X197070000Y-163380000D03*
%TD*%
%TO.C,D81*%
X193580000Y-143100000D03*
X196880000Y-143100000D03*
%TD*%
%TO.C,D80*%
X192700000Y-122000000D03*
X196000000Y-122000000D03*
%TD*%
%TO.C,D79*%
X190430000Y-100800000D03*
X193730000Y-100800000D03*
%TD*%
%TO.C,D78*%
X232730000Y-84000000D03*
X236030000Y-84000000D03*
%TD*%
%TO.C,D77*%
X214490000Y-125000000D03*
X217790000Y-125000000D03*
%TD*%
%TO.C,D76*%
X214850000Y-187000000D03*
X218150000Y-187000000D03*
%TD*%
%TO.C,D75*%
X214540000Y-166380000D03*
X217840000Y-166380000D03*
%TD*%
%TO.C,D74*%
X214460000Y-145100000D03*
X217760000Y-145100000D03*
%TD*%
%TO.C,D73*%
X212650000Y-102800000D03*
X215950000Y-102800000D03*
%TD*%
%TO.C,D72*%
X255730000Y-84000000D03*
X259030000Y-84000000D03*
%TD*%
%TO.C,D71*%
X235730000Y-168380000D03*
X239030000Y-168380000D03*
%TD*%
%TO.C,D70*%
X235740000Y-147100000D03*
X239040000Y-147100000D03*
%TD*%
%TO.C,D69*%
X235890000Y-127000000D03*
X239190000Y-127000000D03*
%TD*%
%TO.C,D68*%
X234150000Y-105800000D03*
X237450000Y-105800000D03*
%TD*%
%TO.C,D67*%
X247350000Y-180250000D03*
X250650000Y-180250000D03*
%TD*%
%TO.C,D66*%
X277730000Y-84000000D03*
X281030000Y-84000000D03*
%TD*%
%TO.C,D65*%
X256630000Y-168380000D03*
X259930000Y-168380000D03*
%TD*%
%TO.C,D64*%
X254630000Y-105800000D03*
X257930000Y-105800000D03*
%TD*%
%TO.C,D63*%
X256540000Y-147100000D03*
X259840000Y-147100000D03*
%TD*%
%TO.C,D62*%
X257270000Y-128000000D03*
X260570000Y-128000000D03*
%TD*%
%TO.C,D61*%
X265730000Y-192000000D03*
X269030000Y-192000000D03*
%TD*%
%TO.C,D60*%
X276430000Y-105800000D03*
X279730000Y-105800000D03*
%TD*%
%TO.C,D59*%
X276910000Y-132540000D03*
X280210000Y-132540000D03*
%TD*%
%TO.C,D58*%
X276870000Y-164280000D03*
X280170000Y-164280000D03*
%TD*%
%TO.C,D57*%
X275010000Y-171880000D03*
X278310000Y-171880000D03*
%TD*%
%TO.C,D56*%
X282239600Y-200284700D03*
X285539600Y-200284700D03*
%TD*%
%TO.C,D47*%
X333540000Y-202000000D03*
X336840000Y-202000000D03*
%TD*%
%TO.C,D46*%
X340910000Y-173970600D03*
X344210000Y-173970600D03*
%TD*%
%TO.C,D45*%
X338990000Y-163000000D03*
X342290000Y-163000000D03*
%TD*%
%TO.C,D44*%
X351900000Y-191000000D03*
X355200000Y-191000000D03*
%TD*%
%TO.C,D43*%
X339350000Y-132920000D03*
X342650000Y-132920000D03*
%TD*%
%TO.C,D42*%
X337760000Y-106005000D03*
X341060000Y-106005000D03*
%TD*%
%TO.C,D41*%
X360280000Y-151040000D03*
X363580000Y-151040000D03*
%TD*%
%TO.C,D40*%
X360900000Y-129840000D03*
X364200000Y-129840000D03*
%TD*%
%TO.C,D39*%
X360870000Y-170525000D03*
X364170000Y-170525000D03*
%TD*%
%TO.C,D38*%
X358910000Y-106005000D03*
X362210000Y-106005000D03*
%TD*%
%TO.C,D37*%
X336900000Y-84000000D03*
X340200000Y-84000000D03*
%TD*%
%TO.C,D36*%
X369210000Y-181240000D03*
X372510000Y-181240000D03*
%TD*%
%TO.C,D35*%
X383150000Y-171260000D03*
X386450000Y-171260000D03*
%TD*%
%TO.C,D34*%
X382150000Y-151040000D03*
X385450000Y-151040000D03*
%TD*%
%TO.C,D33*%
X382870000Y-128700000D03*
X386170000Y-128700000D03*
%TD*%
%TO.C,D32*%
X380110000Y-105565000D03*
X383410000Y-105565000D03*
%TD*%
%TO.C,D31*%
X357540000Y-84000000D03*
X360840000Y-84000000D03*
%TD*%
%TO.C,D30*%
X403970000Y-190840000D03*
X407270000Y-190840000D03*
%TD*%
%TO.C,D29*%
X404070000Y-169260000D03*
X407370000Y-169260000D03*
%TD*%
%TO.C,D28*%
X403060000Y-148840000D03*
X406360000Y-148840000D03*
%TD*%
%TO.C,D27*%
X400210000Y-102965000D03*
X403510000Y-102965000D03*
%TD*%
%TO.C,D26*%
X403870000Y-126100000D03*
X407170000Y-126100000D03*
%TD*%
%TO.C,D25*%
X379350000Y-84000000D03*
X382650000Y-84000000D03*
%TD*%
%TO.C,D24*%
X424520000Y-188840000D03*
X427820000Y-188840000D03*
%TD*%
%TO.C,D23*%
X425210000Y-167260000D03*
X428510000Y-167260000D03*
%TD*%
%TO.C,D22*%
X423550000Y-146040000D03*
X426850000Y-146040000D03*
%TD*%
%TO.C,D21*%
X425450000Y-124840000D03*
X428750000Y-124840000D03*
%TD*%
%TO.C,D20*%
X421610000Y-101005000D03*
X424910000Y-101005000D03*
%TD*%
%TO.C,D19*%
X399740000Y-84000000D03*
X403040000Y-84000000D03*
%TD*%
%TO.C,D18*%
X445640000Y-190840000D03*
X448940000Y-190840000D03*
%TD*%
%TO.C,D17*%
X444540000Y-148565000D03*
X447840000Y-148565000D03*
%TD*%
%TO.C,D16*%
X445970000Y-170260000D03*
X449270000Y-170260000D03*
%TD*%
%TO.C,D15*%
X446370000Y-128840000D03*
X449670000Y-128840000D03*
%TD*%
%TO.C,D14*%
X443210000Y-105740000D03*
X446510000Y-105740000D03*
%TD*%
%TO.C,D13*%
X423000000Y-84000000D03*
X426300000Y-84000000D03*
%TD*%
%TO.C,D12*%
X466840000Y-196700000D03*
X470140000Y-196700000D03*
%TD*%
%TO.C,D11*%
X466670000Y-173220000D03*
X469970000Y-173220000D03*
%TD*%
%TO.C,D10*%
X465540000Y-152040000D03*
X468840000Y-152040000D03*
%TD*%
%TO.C,D9*%
X466850000Y-132200000D03*
X470150000Y-132200000D03*
%TD*%
%TO.C,D8*%
X463910000Y-108005000D03*
X467210000Y-108005000D03*
%TD*%
%TO.C,D7*%
X443400000Y-84260000D03*
X446700000Y-84260000D03*
%TD*%
%TO.C,D6*%
X489320000Y-195840000D03*
X492620000Y-195840000D03*
%TD*%
%TO.C,D5*%
X492825000Y-172660000D03*
X496125000Y-172660000D03*
%TD*%
%TO.C,D4*%
X492295000Y-150205000D03*
X495595000Y-150205000D03*
%TD*%
%TO.C,D3*%
X493205000Y-128800000D03*
X496505000Y-128800000D03*
%TD*%
%TO.C,D2*%
X492395000Y-108065000D03*
X495695000Y-108065000D03*
%TD*%
%TO.C,D1*%
X464870000Y-84000000D03*
X468170000Y-84000000D03*
%TD*%
D13*
%TO.C,H15*%
X302750000Y-32600000D03*
%TD*%
D14*
%TO.C,SW43*%
X343900000Y-128700000D03*
D15*
X343900000Y-123620000D03*
D14*
X343900000Y-118540000D03*
D16*
X338820000Y-121080000D03*
X341360000Y-127430000D03*
%TD*%
D14*
%TO.C,SW89*%
X151880000Y-162280000D03*
D15*
X156960000Y-162280000D03*
D14*
X162040000Y-162280000D03*
D16*
X159500000Y-157200000D03*
X153150000Y-159740000D03*
%TD*%
D14*
%TO.C,SW3*%
X492775000Y-120880000D03*
D15*
X497855000Y-120880000D03*
D14*
X502935000Y-120880000D03*
D16*
X500395000Y-115800000D03*
X494045000Y-118340000D03*
%TD*%
D13*
%TO.C,H3*%
X521000000Y-32600000D03*
%TD*%
D17*
%TO.C,D51*%
X512729999Y-50439999D03*
D18*
X515269999Y-50439999D03*
%TD*%
D14*
%TO.C,SW21*%
X424920000Y-114380000D03*
D15*
X430000000Y-114380000D03*
D14*
X435080000Y-114380000D03*
D16*
X432540000Y-109300000D03*
X426190000Y-111840000D03*
%TD*%
D14*
%TO.C,SW28*%
X403920000Y-159700000D03*
D15*
X409000000Y-159700000D03*
D14*
X414080000Y-159700000D03*
D16*
X411540000Y-154620000D03*
X405190000Y-157160000D03*
%TD*%
D14*
%TO.C,SW80*%
X172920000Y-180600000D03*
D15*
X178000000Y-180600000D03*
D14*
X183080000Y-180600000D03*
D16*
X180540000Y-175520000D03*
X174190000Y-178060000D03*
%TD*%
D14*
%TO.C,SW5*%
X492675000Y-141800000D03*
D15*
X497755000Y-141800000D03*
D14*
X502835000Y-141800000D03*
D16*
X500295000Y-136720000D03*
X493945000Y-139260000D03*
%TD*%
D14*
%TO.C,SW9*%
X466920000Y-121840000D03*
D15*
X472000000Y-121840000D03*
D14*
X477080000Y-121840000D03*
D16*
X474540000Y-116760000D03*
X468190000Y-119300000D03*
%TD*%
D13*
%TO.C,H11*%
X100900000Y-228000000D03*
%TD*%
D14*
%TO.C,SW35*%
X375600586Y-193540009D03*
D15*
X379999995Y-191000009D03*
D14*
X384399405Y-188460009D03*
D16*
X379659700Y-185330600D03*
X375430439Y-190705305D03*
%TD*%
D14*
%TO.C,SW34*%
X382920000Y-161800000D03*
D15*
X388000000Y-161800000D03*
D14*
X393080000Y-161800000D03*
D16*
X390540000Y-156720000D03*
X384190000Y-159260000D03*
%TD*%
D13*
%TO.C,H9*%
X100500000Y-34000000D03*
%TD*%
D14*
%TO.C,SW53*%
X283000000Y-128080000D03*
D15*
X283000000Y-123000000D03*
D14*
X283000000Y-117920000D03*
D16*
X277920000Y-120460000D03*
X280460000Y-126810000D03*
%TD*%
D14*
%TO.C,SW11*%
X465920000Y-143380000D03*
D15*
X471000000Y-143380000D03*
D14*
X476080000Y-143380000D03*
D16*
X473540000Y-138300000D03*
X467190000Y-140840000D03*
%TD*%
D14*
%TO.C,SW7*%
X443920000Y-76000000D03*
D15*
X449000000Y-76000000D03*
D14*
X454080000Y-76000000D03*
D16*
X451540000Y-70920000D03*
X445190000Y-73460000D03*
%TD*%
D14*
%TO.C,SW58*%
X256840000Y-118000000D03*
D15*
X261920000Y-118000000D03*
D14*
X267000000Y-118000000D03*
D16*
X264460000Y-112920000D03*
X258110000Y-115460000D03*
%TD*%
D14*
%TO.C,SW76*%
X193060000Y-113200000D03*
D15*
X198140000Y-113200000D03*
D14*
X203220000Y-113200000D03*
D16*
X200680000Y-108120000D03*
X194330000Y-110660000D03*
%TD*%
D13*
%TO.C,H8*%
X427400000Y-229450000D03*
%TD*%
D14*
%TO.C,SW20*%
X422590000Y-92480000D03*
D15*
X427670000Y-92480000D03*
D14*
X432750000Y-92480000D03*
D16*
X430210000Y-87400000D03*
X423860000Y-89940000D03*
%TD*%
D14*
%TO.C,SW29*%
X402730000Y-138580000D03*
D15*
X407810000Y-138580000D03*
D14*
X412890000Y-138580000D03*
D16*
X410350000Y-133500000D03*
X404000000Y-136040000D03*
%TD*%
D14*
%TO.C,SW17*%
X444920000Y-139040000D03*
D15*
X450000000Y-139040000D03*
D14*
X455080000Y-139040000D03*
D16*
X452540000Y-133960000D03*
X446190000Y-136500000D03*
%TD*%
D14*
%TO.C,SW74*%
X193920000Y-176600000D03*
D15*
X199000000Y-176600000D03*
D14*
X204080000Y-176600000D03*
D16*
X201540000Y-171520000D03*
X195190000Y-174060000D03*
%TD*%
D13*
%TO.C,H1*%
X521000000Y-229450000D03*
%TD*%
D14*
%TO.C,SW66*%
X255920000Y-75800000D03*
D15*
X261000000Y-75800000D03*
D14*
X266080000Y-75800000D03*
D16*
X263540000Y-70720000D03*
X257190000Y-73260000D03*
%TD*%
D14*
%TO.C,SW85*%
X151350000Y-141300000D03*
D15*
X156430000Y-141300000D03*
D14*
X161510000Y-141300000D03*
D16*
X158970000Y-136220000D03*
X152620000Y-138760000D03*
%TD*%
D14*
%TO.C,SW15*%
X445920000Y-118980000D03*
D15*
X451000000Y-118980000D03*
D14*
X456080000Y-118980000D03*
D16*
X453540000Y-113900000D03*
X447190000Y-116440000D03*
%TD*%
D14*
%TO.C,SW6*%
X488990000Y-185080000D03*
D15*
X494070000Y-185080000D03*
D14*
X499150000Y-185080000D03*
D16*
X496610000Y-180000000D03*
X490260000Y-182540000D03*
%TD*%
D14*
%TO.C,SW27*%
X403920000Y-115840000D03*
D15*
X409000000Y-115840000D03*
D14*
X414080000Y-115840000D03*
D16*
X411540000Y-110760000D03*
X405190000Y-113300000D03*
%TD*%
D14*
%TO.C,SW88*%
X150220000Y-120500000D03*
D15*
X155300000Y-120500000D03*
D14*
X160380000Y-120500000D03*
D16*
X157840000Y-115420000D03*
X151490000Y-117960000D03*
%TD*%
D14*
%TO.C,SW62*%
X233820000Y-96900000D03*
D15*
X238900000Y-96900000D03*
D14*
X243980000Y-96900000D03*
D16*
X241440000Y-91820000D03*
X235090000Y-94360000D03*
%TD*%
D14*
%TO.C,SW87*%
X150000000Y-99800000D03*
D15*
X155080000Y-99800000D03*
D14*
X160160000Y-99800000D03*
D16*
X157620000Y-94720000D03*
X151270000Y-97260000D03*
%TD*%
D14*
%TO.C,SW4*%
X492975000Y-162800000D03*
D15*
X498055000Y-162800000D03*
D14*
X503135000Y-162800000D03*
D16*
X500595000Y-157720000D03*
X494245000Y-160260000D03*
%TD*%
D14*
%TO.C,SW93*%
X123920000Y-99600000D03*
D15*
X129000000Y-99600000D03*
D14*
X134080000Y-99600000D03*
D16*
X131540000Y-94520000D03*
X125190000Y-97060000D03*
%TD*%
D14*
%TO.C,SW90*%
X170720000Y-75700000D03*
D15*
X175800000Y-75700000D03*
D14*
X180880000Y-75700000D03*
D16*
X178340000Y-70620000D03*
X171990000Y-73160000D03*
%TD*%
D14*
%TO.C,SW39*%
X361350000Y-119080000D03*
D15*
X366430000Y-119080000D03*
D14*
X371510000Y-119080000D03*
D16*
X368970000Y-114000000D03*
X362620000Y-116540000D03*
%TD*%
D14*
%TO.C,SW31*%
X357920000Y-75740000D03*
D15*
X363000000Y-75740000D03*
D14*
X368080000Y-75740000D03*
D16*
X365540000Y-70660000D03*
X359190000Y-73200000D03*
%TD*%
D14*
%TO.C,SW81*%
X170540000Y-94800000D03*
D15*
X175620000Y-94800000D03*
D14*
X180700000Y-94800000D03*
D16*
X178160000Y-89720000D03*
X171810000Y-92260000D03*
%TD*%
D13*
%TO.C,H5*%
X322000000Y-32650000D03*
%TD*%
D14*
%TO.C,SW54*%
X283180000Y-159080000D03*
D15*
X283180000Y-154000000D03*
D14*
X283180000Y-148920000D03*
D16*
X278100000Y-151460000D03*
X280640000Y-157810000D03*
%TD*%
D14*
%TO.C,SW19*%
X401000000Y-75860000D03*
D15*
X406080000Y-75860000D03*
D14*
X411160000Y-75860000D03*
D16*
X408620000Y-70780000D03*
X402270000Y-73320000D03*
%TD*%
D14*
%TO.C,SW47*%
X339010586Y-215200009D03*
D15*
X343409995Y-212660009D03*
D14*
X347809405Y-210120009D03*
D16*
X343069700Y-206990600D03*
X338840439Y-212365305D03*
%TD*%
D17*
%TO.C,D49*%
X455614699Y-50439999D03*
D18*
X458154699Y-50439999D03*
%TD*%
D14*
%TO.C,SW18*%
X445990000Y-181180000D03*
D15*
X451070000Y-181180000D03*
D14*
X456150000Y-181180000D03*
D16*
X453610000Y-176100000D03*
X447260000Y-178640000D03*
%TD*%
D14*
%TO.C,SW96*%
X149920000Y-75600000D03*
D15*
X155000000Y-75600000D03*
D14*
X160080000Y-75600000D03*
D16*
X157540000Y-70520000D03*
X151190000Y-73060000D03*
%TD*%
D13*
%TO.C,H4*%
X426550000Y-32650000D03*
%TD*%
D14*
%TO.C,SW67*%
X214760000Y-136600000D03*
D15*
X219840000Y-136600000D03*
D14*
X224920000Y-136600000D03*
D16*
X222380000Y-131520000D03*
X216030000Y-134060000D03*
%TD*%
D14*
%TO.C,SW41*%
X361050000Y-141080000D03*
D15*
X366130000Y-141080000D03*
D14*
X371210000Y-141080000D03*
D16*
X368670000Y-136000000D03*
X362320000Y-138540000D03*
%TD*%
D14*
%TO.C,SW46*%
X346600586Y-186540009D03*
D15*
X350999995Y-184000009D03*
D14*
X355399405Y-181460009D03*
D16*
X350659700Y-178330600D03*
X346430439Y-183705305D03*
%TD*%
D14*
%TO.C,SW16*%
X445920000Y-159800000D03*
D15*
X451000000Y-159800000D03*
D14*
X456080000Y-159800000D03*
D16*
X453540000Y-154720000D03*
X447190000Y-157260000D03*
%TD*%
D14*
%TO.C,SW22*%
X424920000Y-157220000D03*
D15*
X430000000Y-157220000D03*
D14*
X435080000Y-157220000D03*
D16*
X432540000Y-152140000D03*
X426190000Y-154680000D03*
%TD*%
D14*
%TO.C,SW26*%
X401590000Y-94740000D03*
D15*
X406670000Y-94740000D03*
D14*
X411750000Y-94740000D03*
D16*
X409210000Y-89660000D03*
X402860000Y-92200000D03*
%TD*%
D19*
%TO.C,D54*%
X138099999Y-51199999D03*
D20*
X140639999Y-51199999D03*
%TD*%
D14*
%TO.C,SW12*%
X466990000Y-185080000D03*
D15*
X472070000Y-185080000D03*
D14*
X477150000Y-185080000D03*
D16*
X474610000Y-180000000D03*
X468260000Y-182540000D03*
%TD*%
D14*
%TO.C,SW84*%
X191920000Y-75700000D03*
D15*
X197000000Y-75700000D03*
D14*
X202080000Y-75700000D03*
D16*
X199540000Y-70620000D03*
X193190000Y-73160000D03*
%TD*%
D14*
%TO.C,SW60*%
X277720000Y-75700000D03*
D15*
X282800000Y-75700000D03*
D14*
X287880000Y-75700000D03*
D16*
X285340000Y-70620000D03*
X278990000Y-73160000D03*
%TD*%
D14*
%TO.C,SW56*%
X256920000Y-139000000D03*
D15*
X262000000Y-139000000D03*
D14*
X267080000Y-139000000D03*
D16*
X264540000Y-133920000D03*
X258190000Y-136460000D03*
%TD*%
D14*
%TO.C,SW36*%
X381920000Y-140980000D03*
D15*
X387000000Y-140980000D03*
D14*
X392080000Y-140980000D03*
D16*
X389540000Y-135900000D03*
X383190000Y-138440000D03*
%TD*%
D13*
%TO.C,H16*%
X302200000Y-227800000D03*
%TD*%
%TO.C,H13*%
X300900000Y-128800000D03*
%TD*%
%TO.C,H12*%
X100500000Y-129000000D03*
%TD*%
%TO.C,H2*%
X521000000Y-129000000D03*
%TD*%
D14*
%TO.C,SW1*%
X464920000Y-75840000D03*
D15*
X470000000Y-75840000D03*
D14*
X475080000Y-75840000D03*
D16*
X472540000Y-70760000D03*
X466190000Y-73300000D03*
%TD*%
D14*
%TO.C,SW73*%
X193560000Y-134200000D03*
D15*
X198640000Y-134200000D03*
D14*
X203720000Y-134200000D03*
D16*
X201180000Y-129120000D03*
X194830000Y-131660000D03*
%TD*%
D17*
%TO.C,D48*%
X426914699Y-50339999D03*
D18*
X429454699Y-50339999D03*
%TD*%
D14*
%TO.C,SW51*%
X271600586Y-181460009D03*
D15*
X275999995Y-184000009D03*
D14*
X280399405Y-186540009D03*
D16*
X280739700Y-180870600D03*
X273970439Y-179895305D03*
%TD*%
D14*
%TO.C,SW71*%
X214920000Y-157780000D03*
D15*
X220000000Y-157780000D03*
D14*
X225080000Y-157780000D03*
D16*
X222540000Y-152700000D03*
X216190000Y-155240000D03*
%TD*%
D14*
%TO.C,SW91*%
X125510000Y-141400000D03*
D15*
X130590000Y-141400000D03*
D14*
X135670000Y-141400000D03*
D16*
X133130000Y-136320000D03*
X126780000Y-138860000D03*
%TD*%
D14*
%TO.C,SW69*%
X212720000Y-94700000D03*
D15*
X217800000Y-94700000D03*
D14*
X222880000Y-94700000D03*
D16*
X220340000Y-89620000D03*
X213990000Y-92160000D03*
%TD*%
D14*
%TO.C,SW86*%
X151920000Y-183580000D03*
D15*
X157000000Y-183580000D03*
D14*
X162080000Y-183580000D03*
D16*
X159540000Y-178500000D03*
X153190000Y-181040000D03*
%TD*%
D13*
%TO.C,H7*%
X324750000Y-228000000D03*
%TD*%
D14*
%TO.C,SW32*%
X380590000Y-96740000D03*
D15*
X385670000Y-96740000D03*
D14*
X390750000Y-96740000D03*
D16*
X388210000Y-91660000D03*
X381860000Y-94200000D03*
%TD*%
D19*
%TO.C,D55*%
X109899999Y-50699999D03*
D20*
X112439999Y-50699999D03*
%TD*%
D14*
%TO.C,SW2*%
X492775000Y-99540000D03*
D15*
X497855000Y-99540000D03*
D14*
X502935000Y-99540000D03*
D16*
X500395000Y-94460000D03*
X494045000Y-97000000D03*
%TD*%
D14*
%TO.C,SW10*%
X466920000Y-163260000D03*
D15*
X472000000Y-163260000D03*
D14*
X477080000Y-163260000D03*
D16*
X474540000Y-158180000D03*
X468190000Y-160720000D03*
%TD*%
D14*
%TO.C,SW77*%
X193840000Y-155180000D03*
D15*
X198920000Y-155180000D03*
D14*
X204000000Y-155180000D03*
D16*
X201460000Y-150100000D03*
X195110000Y-152640000D03*
%TD*%
D14*
%TO.C,SW95*%
X125920000Y-162480000D03*
D15*
X131000000Y-162480000D03*
D14*
X136080000Y-162480000D03*
D16*
X133540000Y-157400000D03*
X127190000Y-159940000D03*
%TD*%
D14*
%TO.C,SW45*%
X357070586Y-204300009D03*
D15*
X361469995Y-201760009D03*
D14*
X365869405Y-199220009D03*
D16*
X361129700Y-196090600D03*
X356900439Y-201465305D03*
%TD*%
D14*
%TO.C,SW30*%
X403920000Y-181080000D03*
D15*
X409000000Y-181080000D03*
D14*
X414080000Y-181080000D03*
D16*
X411540000Y-176000000D03*
X405190000Y-178540000D03*
%TD*%
D14*
%TO.C,SW55*%
X261140586Y-199180009D03*
D15*
X265539995Y-201720009D03*
D14*
X269939405Y-204260009D03*
D16*
X270279700Y-198590600D03*
X263510439Y-197615305D03*
%TD*%
D14*
%TO.C,SW78*%
X212920000Y-75600000D03*
D15*
X218000000Y-75600000D03*
D14*
X223080000Y-75600000D03*
D16*
X220540000Y-70520000D03*
X214190000Y-73060000D03*
%TD*%
D14*
%TO.C,SW70*%
X214460000Y-115700000D03*
D15*
X219540000Y-115700000D03*
D14*
X224620000Y-115700000D03*
D16*
X222080000Y-110620000D03*
X215730000Y-113160000D03*
%TD*%
D14*
%TO.C,SW94*%
X124240000Y-120500000D03*
D15*
X129320000Y-120500000D03*
D14*
X134400000Y-120500000D03*
D16*
X131860000Y-115420000D03*
X125510000Y-117960000D03*
%TD*%
D14*
%TO.C,SW79*%
X172250000Y-136600000D03*
D15*
X177330000Y-136600000D03*
D14*
X182410000Y-136600000D03*
D16*
X179870000Y-131520000D03*
X173520000Y-134060000D03*
%TD*%
D14*
%TO.C,SW72*%
X233920000Y-75500000D03*
D15*
X239000000Y-75500000D03*
D14*
X244080000Y-75500000D03*
D16*
X241540000Y-70420000D03*
X235190000Y-72960000D03*
%TD*%
D14*
%TO.C,SW13*%
X422920000Y-75940000D03*
D15*
X428000000Y-75940000D03*
D14*
X433080000Y-75940000D03*
D16*
X430540000Y-70860000D03*
X424190000Y-73400000D03*
%TD*%
D13*
%TO.C,H14*%
X198400000Y-228000000D03*
%TD*%
D14*
%TO.C,SW8*%
X464590000Y-99580000D03*
D15*
X469670000Y-99580000D03*
D14*
X474750000Y-99580000D03*
D16*
X472210000Y-94500000D03*
X465860000Y-97040000D03*
%TD*%
D13*
%TO.C,H6*%
X323550000Y-128900000D03*
%TD*%
D14*
%TO.C,SW33*%
X382920000Y-118840000D03*
D15*
X388000000Y-118840000D03*
D14*
X393080000Y-118840000D03*
D16*
X390540000Y-113760000D03*
X384190000Y-116300000D03*
%TD*%
D14*
%TO.C,SW68*%
X214920000Y-179000000D03*
D15*
X220000000Y-179000000D03*
D14*
X225080000Y-179000000D03*
D16*
X222540000Y-173920000D03*
X216190000Y-176460000D03*
%TD*%
D19*
%TO.C,D52*%
X195199999Y-51199999D03*
D20*
X197739999Y-51199999D03*
%TD*%
D14*
%TO.C,SW37*%
X337050000Y-75840000D03*
D15*
X342130000Y-75840000D03*
D14*
X347210000Y-75840000D03*
D16*
X344670000Y-70760000D03*
X338320000Y-73300000D03*
%TD*%
D14*
%TO.C,SW25*%
X379260000Y-75840000D03*
D15*
X384340000Y-75840000D03*
D14*
X389420000Y-75840000D03*
D16*
X386880000Y-70760000D03*
X380530000Y-73300000D03*
%TD*%
D14*
%TO.C,SW64*%
X235920000Y-160080000D03*
D15*
X241000000Y-160080000D03*
D14*
X246080000Y-160080000D03*
D16*
X243540000Y-155000000D03*
X237190000Y-157540000D03*
%TD*%
D14*
%TO.C,SW38*%
X359590000Y-96980000D03*
D15*
X364670000Y-96980000D03*
D14*
X369750000Y-96980000D03*
D16*
X367210000Y-91900000D03*
X360860000Y-94440000D03*
%TD*%
D14*
%TO.C,SW52*%
X277920000Y-97000000D03*
D15*
X283000000Y-97000000D03*
D14*
X288080000Y-97000000D03*
D16*
X285540000Y-91920000D03*
X279190000Y-94460000D03*
%TD*%
D14*
%TO.C,SW63*%
X235760000Y-118000000D03*
D15*
X240840000Y-118000000D03*
D14*
X245920000Y-118000000D03*
D16*
X243380000Y-112920000D03*
X237030000Y-115460000D03*
%TD*%
D14*
%TO.C,SW82*%
X171840000Y-115800000D03*
D15*
X176920000Y-115800000D03*
D14*
X182000000Y-115800000D03*
D16*
X179460000Y-110720000D03*
X173110000Y-113260000D03*
%TD*%
D14*
%TO.C,SW92*%
X130380000Y-183680000D03*
D15*
X135460000Y-183680000D03*
D14*
X140540000Y-183680000D03*
D16*
X138000000Y-178600000D03*
X131650000Y-181140000D03*
%TD*%
D13*
%TO.C,H10*%
X197600000Y-34100000D03*
%TD*%
D14*
%TO.C,SW75*%
X191220000Y-92200000D03*
D15*
X196300000Y-92200000D03*
D14*
X201380000Y-92200000D03*
D16*
X198840000Y-87120000D03*
X192490000Y-89660000D03*
%TD*%
D14*
%TO.C,SW50*%
X279630186Y-209564709D03*
D15*
X284029595Y-212104709D03*
D14*
X288429005Y-214644709D03*
D16*
X288769300Y-208975300D03*
X282000039Y-208000005D03*
%TD*%
D14*
%TO.C,SW65*%
X243060586Y-188630009D03*
D15*
X247459995Y-191170009D03*
D14*
X251859405Y-193710009D03*
D16*
X252199700Y-188040600D03*
X245430439Y-187065305D03*
%TD*%
D14*
%TO.C,SW57*%
X254920000Y-97000000D03*
D15*
X260000000Y-97000000D03*
D14*
X265080000Y-97000000D03*
D16*
X262540000Y-91920000D03*
X256190000Y-94460000D03*
%TD*%
D14*
%TO.C,SW44*%
X344000000Y-159080000D03*
D15*
X344000000Y-154000000D03*
D14*
X344000000Y-148920000D03*
D16*
X338920000Y-151460000D03*
X341460000Y-157810000D03*
%TD*%
D14*
%TO.C,SW61*%
X235940000Y-138900000D03*
D15*
X241020000Y-138900000D03*
D14*
X246100000Y-138900000D03*
D16*
X243560000Y-133820000D03*
X237210000Y-136360000D03*
%TD*%
D14*
%TO.C,SW59*%
X256920000Y-160080000D03*
D15*
X262000000Y-160080000D03*
D14*
X267080000Y-160080000D03*
D16*
X264540000Y-155000000D03*
X258190000Y-157540000D03*
%TD*%
D14*
%TO.C,SW40*%
X361250000Y-162000000D03*
D15*
X366330000Y-162000000D03*
D14*
X371410000Y-162000000D03*
D16*
X368870000Y-156920000D03*
X362520000Y-159460000D03*
%TD*%
D14*
%TO.C,SW24*%
X424990000Y-178480000D03*
D15*
X430070000Y-178480000D03*
D14*
X435150000Y-178480000D03*
D16*
X432610000Y-173400000D03*
X426260000Y-175940000D03*
%TD*%
D14*
%TO.C,SW83*%
X172840000Y-157680000D03*
D15*
X177920000Y-157680000D03*
D14*
X183000000Y-157680000D03*
D16*
X180460000Y-152600000D03*
X174110000Y-155140000D03*
%TD*%
D19*
%TO.C,D53*%
X167399999Y-50999999D03*
D20*
X169939999Y-50999999D03*
%TD*%
D14*
%TO.C,SW14*%
X443590000Y-97080000D03*
D15*
X448670000Y-97080000D03*
D14*
X453750000Y-97080000D03*
D16*
X451210000Y-92000000D03*
X444860000Y-94540000D03*
%TD*%
D17*
%TO.C,D50*%
X485114699Y-50239999D03*
D18*
X487654699Y-50239999D03*
%TD*%
D14*
%TO.C,SW23*%
X423920000Y-136380000D03*
D15*
X429000000Y-136380000D03*
D14*
X434080000Y-136380000D03*
D16*
X431540000Y-131300000D03*
X425190000Y-133840000D03*
%TD*%
D14*
%TO.C,SW42*%
X338920000Y-97080000D03*
D15*
X344000000Y-97080000D03*
D14*
X349080000Y-97080000D03*
D16*
X346540000Y-92000000D03*
X340190000Y-94540000D03*
%TD*%
D14*
%TO.C,SW48*%
X397010000Y-53000000D03*
X402090000Y-53000000D03*
%TD*%
D21*
%TO.C,J1*%
X318975000Y-92250000D03*
X323975000Y-92250000D03*
D22*
X318974999Y-97049999D03*
D23*
X323975000Y-88650000D03*
X327075000Y-93850000D03*
X318975000Y-87750000D03*
%TD*%
D20*
%TO.C,U2*%
X303999999Y-55449999D03*
D18*
X300969999Y-55149999D03*
X300969999Y-50299999D03*
D20*
X303999999Y-49999999D03*
D24*
X304129999Y-61614999D03*
X301589999Y-61614999D03*
D25*
X299049999Y-61614999D03*
D24*
X296509999Y-61614999D03*
X293969999Y-61614999D03*
X291429999Y-61614999D03*
X288889999Y-61614999D03*
D25*
X286349999Y-61614999D03*
D24*
X283809999Y-61614999D03*
X281269999Y-61614999D03*
X278729999Y-61614999D03*
X276189999Y-61614999D03*
D25*
X273649999Y-61614999D03*
D24*
X271109999Y-61614999D03*
X268569999Y-61614999D03*
X266029999Y-61614999D03*
X263489999Y-61614999D03*
D25*
X260949999Y-61614999D03*
D24*
X258409999Y-61614999D03*
X255869999Y-61614999D03*
X255869999Y-43834999D03*
X258409999Y-43834999D03*
D25*
X260949999Y-43834999D03*
D24*
X263489999Y-43834999D03*
X266029999Y-43834999D03*
X268569999Y-43834999D03*
X271109999Y-43834999D03*
D25*
X273649999Y-43834999D03*
D24*
X276189999Y-43834999D03*
X278729999Y-43834999D03*
X281269999Y-43834999D03*
X283809999Y-43834999D03*
D25*
X286349999Y-43834999D03*
D24*
X288889999Y-43834999D03*
X291429999Y-43834999D03*
X293969999Y-43834999D03*
X296509999Y-43834999D03*
D25*
X299049999Y-43834999D03*
D24*
X301589999Y-43834999D03*
X304129999Y-43834999D03*
X256099999Y-55264999D03*
D25*
X256099999Y-52724999D03*
D24*
X256099999Y-50184999D03*
%TD*%
D20*
%TO.C,U1*%
X320549999Y-49999999D03*
D18*
X323579999Y-50299999D03*
X323579999Y-55149999D03*
D20*
X320549999Y-55449999D03*
D24*
X320419999Y-43834999D03*
X322959999Y-43834999D03*
D25*
X325499999Y-43834999D03*
D24*
X328039999Y-43834999D03*
X330579999Y-43834999D03*
X333119999Y-43834999D03*
X335659999Y-43834999D03*
D25*
X338199999Y-43834999D03*
D24*
X340739999Y-43834999D03*
X343279999Y-43834999D03*
X345819999Y-43834999D03*
X348359999Y-43834999D03*
D25*
X350899999Y-43834999D03*
D24*
X353439999Y-43834999D03*
X355979999Y-43834999D03*
X358519999Y-43834999D03*
X361059999Y-43834999D03*
D25*
X363599999Y-43834999D03*
D24*
X366139999Y-43834999D03*
X368679999Y-43834999D03*
X368679999Y-61614999D03*
X366139999Y-61614999D03*
D25*
X363599999Y-61614999D03*
D24*
X361059999Y-61614999D03*
X358519999Y-61614999D03*
X355979999Y-61614999D03*
X353439999Y-61614999D03*
D25*
X350899999Y-61614999D03*
D24*
X348359999Y-61614999D03*
X345819999Y-61614999D03*
X343279999Y-61614999D03*
X340739999Y-61614999D03*
D25*
X338199999Y-61614999D03*
D24*
X335659999Y-61614999D03*
X333119999Y-61614999D03*
X330579999Y-61614999D03*
X328039999Y-61614999D03*
D25*
X325499999Y-61614999D03*
D24*
X322959999Y-61614999D03*
X320419999Y-61614999D03*
X368449999Y-50184999D03*
D25*
X368449999Y-52724999D03*
D24*
X368449999Y-55264999D03*
%TD*%
D14*
%TO.C,SW49*%
X229000000Y-53000000D03*
X223920000Y-53000000D03*
%TD*%
D21*
%TO.C,J2*%
X305670000Y-92230000D03*
X300670000Y-92230000D03*
D22*
X305669999Y-87429999D03*
D23*
X300670000Y-95830000D03*
X297570000Y-90630000D03*
X305670000Y-96730000D03*
%TD*%
M02*
