%TF.GenerationSoftware,KiCad,Pcbnew,6.0.10-86aedd382b~118~ubuntu22.04.1*%
%TF.CreationDate,2023-02-01T13:13:36+01:00*%
%TF.ProjectId,europe-ergo-smd,6575726f-7065-42d6-9572-676f2d736d64,rev?*%
%TF.SameCoordinates,Original*%
%TF.FileFunction,Paste,Top*%
%TF.FilePolarity,Positive*%
%FSLAX46Y46*%
G04 Gerber Fmt 4.6, Leading zero omitted, Abs format (unit mm)*
G04 Created by KiCad (PCBNEW 6.0.10-86aedd382b~118~ubuntu22.04.1) date 2023-02-01 13:13:36*
%MOMM*%
%LPD*%
G01*
G04 APERTURE LIST*
G04 Aperture macros list*
%AMRoundRect*
0 Rectangle with rounded corners*
0 $1 Rounding radius*
0 $2 $3 $4 $5 $6 $7 $8 $9 X,Y pos of 4 corners*
0 Add a 4 corners polygon primitive as box body*
4,1,4,$2,$3,$4,$5,$6,$7,$8,$9,$2,$3,0*
0 Add four circle primitives for the rounded corners*
1,1,$1+$1,$2,$3*
1,1,$1+$1,$4,$5*
1,1,$1+$1,$6,$7*
1,1,$1+$1,$8,$9*
0 Add four rect primitives between the rounded corners*
20,1,$1+$1,$2,$3,$4,$5,0*
20,1,$1+$1,$4,$5,$6,$7,0*
20,1,$1+$1,$6,$7,$8,$9,0*
20,1,$1+$1,$8,$9,$2,$3,0*%
G04 Aperture macros list end*
%ADD10RoundRect,0.250000X-0.362500X-1.425000X0.362500X-1.425000X0.362500X1.425000X-0.362500X1.425000X0*%
%ADD11RoundRect,0.250000X0.362500X1.425000X-0.362500X1.425000X-0.362500X-1.425000X0.362500X-1.425000X0*%
%ADD12R,0.900000X1.200000*%
G04 APERTURE END LIST*
D10*
%TO.C,R12*%
X108537500Y-56000000D03*
X114462500Y-56000000D03*
%TD*%
%TO.C,R11*%
X295075000Y-85000000D03*
X301000000Y-85000000D03*
%TD*%
%TO.C,R10*%
X136537500Y-56000000D03*
X142462500Y-56000000D03*
%TD*%
%TO.C,R9*%
X295577500Y-99500000D03*
X301502500Y-99500000D03*
%TD*%
D11*
%TO.C,R8*%
X171425000Y-56000000D03*
X165500000Y-56000000D03*
%TD*%
%TO.C,R7*%
X199425000Y-56000000D03*
X193500000Y-56000000D03*
%TD*%
D10*
%TO.C,R6*%
X511000000Y-54000000D03*
X516925000Y-54000000D03*
%TD*%
D11*
%TO.C,R5*%
X328925000Y-85000000D03*
X323000000Y-85000000D03*
%TD*%
%TO.C,R4*%
X489000000Y-54000000D03*
X483075000Y-54000000D03*
%TD*%
%TO.C,R3*%
X329132500Y-99500000D03*
X323207500Y-99500000D03*
%TD*%
%TO.C,R2*%
X459925000Y-54000000D03*
X454000000Y-54000000D03*
%TD*%
D10*
%TO.C,R1*%
X425075000Y-54000000D03*
X431000000Y-54000000D03*
%TD*%
D12*
%TO.C,D102*%
X109470000Y-89000000D03*
X112770000Y-89000000D03*
%TD*%
%TO.C,D101*%
X107850000Y-142000000D03*
X111150000Y-142000000D03*
%TD*%
%TO.C,D100*%
X109470000Y-118000000D03*
X112770000Y-118000000D03*
%TD*%
%TO.C,D99*%
X109470000Y-188000000D03*
X112770000Y-188000000D03*
%TD*%
%TO.C,D98*%
X109470000Y-165000000D03*
X112770000Y-165000000D03*
%TD*%
%TO.C,D97*%
X113470000Y-212000000D03*
X116770000Y-212000000D03*
%TD*%
%TO.C,D96*%
X136850000Y-89000000D03*
X140150000Y-89000000D03*
%TD*%
%TO.C,D95*%
X137470000Y-188000000D03*
X140770000Y-188000000D03*
%TD*%
%TO.C,D94*%
X138470000Y-165000000D03*
X141770000Y-165000000D03*
%TD*%
%TO.C,D93*%
X137470000Y-142000000D03*
X140770000Y-142000000D03*
%TD*%
%TO.C,D92*%
X138470000Y-118000000D03*
X141770000Y-118000000D03*
%TD*%
%TO.C,D91*%
X137470000Y-212000000D03*
X140770000Y-212000000D03*
%TD*%
%TO.C,D90*%
X166470000Y-88000000D03*
X169770000Y-88000000D03*
%TD*%
%TO.C,D89*%
X161470000Y-183000000D03*
X164770000Y-183000000D03*
%TD*%
%TO.C,D88*%
X161660000Y-138000000D03*
X164960000Y-138000000D03*
%TD*%
%TO.C,D87*%
X162470000Y-113000000D03*
X165770000Y-113000000D03*
%TD*%
%TO.C,D86*%
X161470000Y-207000000D03*
X164770000Y-207000000D03*
%TD*%
%TO.C,D85*%
X161850000Y-161000000D03*
X165150000Y-161000000D03*
%TD*%
%TO.C,D84*%
X195470000Y-87000000D03*
X198770000Y-87000000D03*
%TD*%
%TO.C,D83*%
X185470000Y-205000000D03*
X188770000Y-205000000D03*
%TD*%
%TO.C,D82*%
X185470000Y-181000000D03*
X188770000Y-181000000D03*
%TD*%
%TO.C,D81*%
X185470000Y-159000000D03*
X188770000Y-159000000D03*
%TD*%
%TO.C,D80*%
X185280000Y-135000000D03*
X188580000Y-135000000D03*
%TD*%
%TO.C,D79*%
X184850000Y-111000000D03*
X188150000Y-111000000D03*
%TD*%
%TO.C,D78*%
X222470000Y-87000000D03*
X225770000Y-87000000D03*
%TD*%
%TO.C,D77*%
X209470000Y-137000000D03*
X212770000Y-137000000D03*
%TD*%
%TO.C,D76*%
X209470000Y-207000000D03*
X212770000Y-207000000D03*
%TD*%
%TO.C,D75*%
X209470000Y-183000000D03*
X212770000Y-183000000D03*
%TD*%
%TO.C,D74*%
X208850000Y-161000000D03*
X212150000Y-161000000D03*
%TD*%
%TO.C,D73*%
X209470000Y-113000000D03*
X212770000Y-113000000D03*
%TD*%
%TO.C,D72*%
X252470000Y-87000000D03*
X255770000Y-87000000D03*
%TD*%
%TO.C,D71*%
X232850000Y-186000000D03*
X236150000Y-186000000D03*
%TD*%
%TO.C,D70*%
X232850000Y-163000000D03*
X236150000Y-163000000D03*
%TD*%
%TO.C,D69*%
X233470000Y-139000000D03*
X236770000Y-139000000D03*
%TD*%
%TO.C,D68*%
X233470000Y-114000000D03*
X236770000Y-114000000D03*
%TD*%
%TO.C,D67*%
X247850000Y-203000000D03*
X251150000Y-203000000D03*
%TD*%
%TO.C,D66*%
X281470000Y-87000000D03*
X284770000Y-87000000D03*
%TD*%
%TO.C,D65*%
X257470000Y-186000000D03*
X260770000Y-186000000D03*
%TD*%
%TO.C,D64*%
X256850000Y-115000000D03*
X260150000Y-115000000D03*
%TD*%
%TO.C,D63*%
X256470000Y-163000000D03*
X259770000Y-163000000D03*
%TD*%
%TO.C,D62*%
X257470000Y-140000000D03*
X260770000Y-140000000D03*
%TD*%
%TO.C,D61*%
X268850000Y-216000000D03*
X272150000Y-216000000D03*
%TD*%
%TO.C,D60*%
X281470000Y-116000000D03*
X284770000Y-116000000D03*
%TD*%
%TO.C,D59*%
X279850000Y-148000000D03*
X283150000Y-148000000D03*
%TD*%
%TO.C,D58*%
X279850000Y-182000000D03*
X283150000Y-182000000D03*
%TD*%
%TO.C,D57*%
X279470000Y-193000000D03*
X282770000Y-193000000D03*
%TD*%
%TO.C,D56*%
X287470000Y-226000000D03*
X290770000Y-226000000D03*
%TD*%
%TO.C,D47*%
X334350000Y-227000000D03*
X337650000Y-227000000D03*
%TD*%
%TO.C,D46*%
X342730000Y-195000000D03*
X346030000Y-195000000D03*
%TD*%
%TO.C,D45*%
X341350000Y-181000000D03*
X344650000Y-181000000D03*
%TD*%
%TO.C,D44*%
X355350000Y-215000000D03*
X358650000Y-215000000D03*
%TD*%
%TO.C,D43*%
X341350000Y-148000000D03*
X344650000Y-148000000D03*
%TD*%
%TO.C,D42*%
X340350000Y-115000000D03*
X343650000Y-115000000D03*
%TD*%
%TO.C,D41*%
X363730000Y-162000000D03*
X367030000Y-162000000D03*
%TD*%
%TO.C,D40*%
X364350000Y-139000000D03*
X367650000Y-139000000D03*
%TD*%
%TO.C,D39*%
X364730000Y-186000000D03*
X368030000Y-186000000D03*
%TD*%
%TO.C,D38*%
X364730000Y-115000000D03*
X368030000Y-115000000D03*
%TD*%
%TO.C,D37*%
X340350000Y-86000000D03*
X343650000Y-86000000D03*
%TD*%
%TO.C,D36*%
X374730000Y-204000000D03*
X378030000Y-204000000D03*
%TD*%
%TO.C,D35*%
X388730000Y-186000000D03*
X392030000Y-186000000D03*
%TD*%
%TO.C,D34*%
X388730000Y-162000000D03*
X392030000Y-162000000D03*
%TD*%
%TO.C,D33*%
X388350000Y-138000000D03*
X391650000Y-138000000D03*
%TD*%
%TO.C,D32*%
X388730000Y-115000000D03*
X392030000Y-115000000D03*
%TD*%
%TO.C,D31*%
X369350000Y-86000000D03*
X372650000Y-86000000D03*
%TD*%
%TO.C,D30*%
X412350000Y-207000000D03*
X415650000Y-207000000D03*
%TD*%
%TO.C,D29*%
X412350000Y-183000000D03*
X415650000Y-183000000D03*
%TD*%
%TO.C,D28*%
X412730000Y-160000000D03*
X416030000Y-160000000D03*
%TD*%
%TO.C,D27*%
X411730000Y-112000000D03*
X415030000Y-112000000D03*
%TD*%
%TO.C,D26*%
X412350000Y-136000000D03*
X415650000Y-136000000D03*
%TD*%
%TO.C,D25*%
X398350000Y-86000000D03*
X401650000Y-86000000D03*
%TD*%
%TO.C,D24*%
X435730000Y-205000000D03*
X439030000Y-205000000D03*
%TD*%
%TO.C,D23*%
X436350000Y-181000000D03*
X439650000Y-181000000D03*
%TD*%
%TO.C,D22*%
X435730000Y-157000000D03*
X439030000Y-157000000D03*
%TD*%
%TO.C,D21*%
X436730000Y-134000000D03*
X440030000Y-134000000D03*
%TD*%
%TO.C,D20*%
X435730000Y-110000000D03*
X439030000Y-110000000D03*
%TD*%
%TO.C,D19*%
X425730000Y-86000000D03*
X429030000Y-86000000D03*
%TD*%
%TO.C,D18*%
X459350000Y-207000000D03*
X462650000Y-207000000D03*
%TD*%
%TO.C,D17*%
X459730000Y-160000000D03*
X463030000Y-160000000D03*
%TD*%
%TO.C,D16*%
X460350000Y-184000000D03*
X463650000Y-184000000D03*
%TD*%
%TO.C,D15*%
X460350000Y-138000000D03*
X463650000Y-138000000D03*
%TD*%
%TO.C,D14*%
X459730000Y-115000000D03*
X463030000Y-115000000D03*
%TD*%
%TO.C,D13*%
X454730000Y-86000000D03*
X458030000Y-86000000D03*
%TD*%
%TO.C,D12*%
X483350000Y-213000000D03*
X486650000Y-213000000D03*
%TD*%
%TO.C,D11*%
X483350000Y-188000000D03*
X486650000Y-188000000D03*
%TD*%
%TO.C,D10*%
X483730000Y-165000000D03*
X487030000Y-165000000D03*
%TD*%
%TO.C,D9*%
X483730000Y-141000000D03*
X487030000Y-141000000D03*
%TD*%
%TO.C,D8*%
X483730000Y-117000000D03*
X487030000Y-117000000D03*
%TD*%
%TO.C,D7*%
X483730000Y-86000000D03*
X487030000Y-86000000D03*
%TD*%
%TO.C,D6*%
X507730000Y-212000000D03*
X511030000Y-212000000D03*
%TD*%
%TO.C,D5*%
X512350000Y-188000000D03*
X515650000Y-188000000D03*
%TD*%
%TO.C,D4*%
X512350000Y-165000000D03*
X515650000Y-165000000D03*
%TD*%
%TO.C,D3*%
X512730000Y-140000000D03*
X516030000Y-140000000D03*
%TD*%
%TO.C,D2*%
X512730000Y-117000000D03*
X516030000Y-117000000D03*
%TD*%
%TO.C,D1*%
X512350000Y-86000000D03*
X515650000Y-86000000D03*
%TD*%
M02*
