%TF.GenerationSoftware,KiCad,Pcbnew,7.0.0-da2b9df05c~163~ubuntu22.04.1*%
%TF.CreationDate,2023-02-19T13:11:12+01:00*%
%TF.ProjectId,europe-ergo-smd,6575726f-7065-42d6-9572-676f2d736d64,rev?*%
%TF.SameCoordinates,Original*%
%TF.FileFunction,Drillmap*%
%TF.FilePolarity,Positive*%
%FSLAX45Y45*%
G04 Gerber Fmt 4.5, Leading zero omitted, Abs format (unit mm)*
G04 Created by KiCad (PCBNEW 7.0.0-da2b9df05c~163~ubuntu22.04.1) date 2023-02-19 13:11:12*
%MOMM*%
%LPD*%
G01*
G04 APERTURE LIST*
%ADD10C,0.100000*%
%ADD11C,0.200000*%
%ADD12C,0.040000*%
%ADD13C,0.075000*%
%ADD14C,0.090000*%
%ADD15C,0.102000*%
%ADD16C,0.110000*%
%ADD17C,0.150000*%
%ADD18C,0.430000*%
G04 APERTURE END LIST*
D10*
X30857000Y-8388000D02*
X30850000Y-3125000D01*
X31607500Y-8340000D02*
X31605000Y-3125000D01*
X31345000Y-22685000D02*
X31745000Y-22685000D01*
X9400000Y-2700000D02*
X30850000Y-2700000D01*
X52800000Y-23500000D02*
X52855000Y-2690000D01*
X9490000Y-23510000D02*
X9400000Y-2700000D01*
X31345000Y-22685000D02*
X30900000Y-22685000D01*
X31605000Y-3125000D02*
X30850000Y-3125000D01*
X52855000Y-2690000D02*
X30850000Y-2700000D01*
X30990000Y-23510000D02*
X52800000Y-23500000D01*
X30857000Y-10108000D02*
X30900000Y-22685000D01*
X31607500Y-10060000D02*
X31745000Y-22685000D01*
X30990000Y-23510000D02*
X9490000Y-23510000D01*
D11*
D12*
X12380000Y-10380000D02*
X12420000Y-10420000D01*
X12420000Y-10380000D02*
X12380000Y-10420000D01*
X12480000Y-14480000D02*
X12520000Y-14520000D01*
X12520000Y-14480000D02*
X12480000Y-14520000D01*
X12580000Y-16580000D02*
X12620000Y-16620000D01*
X12620000Y-16580000D02*
X12580000Y-16620000D01*
X12880000Y-13580000D02*
X12920000Y-13620000D01*
X12920000Y-13580000D02*
X12880000Y-13620000D01*
X12880000Y-15680000D02*
X12920000Y-15720000D01*
X12920000Y-15680000D02*
X12880000Y-15720000D01*
X13980000Y-11380000D02*
X14020000Y-11420000D01*
X14020000Y-11380000D02*
X13980000Y-11420000D01*
X13980000Y-12380000D02*
X14020000Y-12420000D01*
X14020000Y-12380000D02*
X13980000Y-12420000D01*
X14015580Y-5608940D02*
X14055580Y-5648940D01*
X14055580Y-5608940D02*
X14015580Y-5648940D01*
X14180000Y-14180000D02*
X14220000Y-14220000D01*
X14220000Y-14180000D02*
X14180000Y-14220000D01*
X14380000Y-8780000D02*
X14420000Y-8820000D01*
X14420000Y-8780000D02*
X14380000Y-8820000D01*
X14980000Y-7880000D02*
X15020000Y-7920000D01*
X15020000Y-7880000D02*
X14980000Y-7920000D01*
X16280000Y-10180000D02*
X16320000Y-10220000D01*
X16320000Y-10180000D02*
X16280000Y-10220000D01*
X16480000Y-14180000D02*
X16520000Y-14220000D01*
X16520000Y-14180000D02*
X16480000Y-14220000D01*
X16736700Y-5608940D02*
X16776700Y-5648940D01*
X16776700Y-5608940D02*
X16736700Y-5648940D01*
X16748910Y-10505410D02*
X16788910Y-10545410D01*
X16788910Y-10505410D02*
X16748910Y-10545410D01*
X16748910Y-12293510D02*
X16788910Y-12333510D01*
X16788910Y-12293510D02*
X16748910Y-12333510D01*
X17094970Y-16887190D02*
X17134970Y-16927190D01*
X17134970Y-16887190D02*
X17094970Y-16927190D01*
X17094970Y-18880000D02*
X17134970Y-18920000D01*
X17134970Y-18880000D02*
X17094970Y-18920000D01*
X17180000Y-13980000D02*
X17220000Y-14020000D01*
X17220000Y-13980000D02*
X17180000Y-14020000D01*
X17680000Y-9880000D02*
X17720000Y-9920000D01*
X17720000Y-9880000D02*
X17680000Y-9920000D01*
X17721200Y-8456080D02*
X17761200Y-8496080D01*
X17761200Y-8456080D02*
X17721200Y-8496080D01*
X18580000Y-7780000D02*
X18620000Y-7820000D01*
X18620000Y-7780000D02*
X18580000Y-7820000D01*
X18680000Y-10380000D02*
X18720000Y-10420000D01*
X18720000Y-10380000D02*
X18680000Y-10420000D01*
X18780000Y-11680000D02*
X18820000Y-11720000D01*
X18820000Y-11680000D02*
X18780000Y-11720000D01*
X18780000Y-12580000D02*
X18820000Y-12620000D01*
X18820000Y-12580000D02*
X18780000Y-12620000D01*
X18780000Y-13280000D02*
X18820000Y-13320000D01*
X18820000Y-13280000D02*
X18780000Y-13320000D01*
X19023000Y-10199990D02*
X19063000Y-10239990D01*
X19063000Y-10199990D02*
X19023000Y-10239990D01*
X19073780Y-12161880D02*
X19113780Y-12201880D01*
X19113780Y-12161880D02*
X19073780Y-12201880D01*
X19357000Y-16185940D02*
X19397000Y-16225940D01*
X19397000Y-16185940D02*
X19357000Y-16225940D01*
X19380000Y-17980000D02*
X19420000Y-18020000D01*
X19420000Y-17980000D02*
X19380000Y-18020000D01*
X20338650Y-8844090D02*
X20378650Y-8884090D01*
X20378650Y-8844090D02*
X20338650Y-8884090D01*
X20580000Y-7880000D02*
X20620000Y-7920000D01*
X20620000Y-7880000D02*
X20580000Y-7920000D01*
X20680000Y-10180000D02*
X20720000Y-10220000D01*
X20720000Y-10180000D02*
X20680000Y-10220000D01*
X21136370Y-16618820D02*
X21176370Y-16658820D01*
X21176370Y-16618820D02*
X21136370Y-16658820D01*
X21245000Y-10392600D02*
X21285000Y-10432600D01*
X21285000Y-10392600D02*
X21245000Y-10432600D01*
X21332310Y-14396310D02*
X21372310Y-14436310D01*
X21372310Y-14396310D02*
X21332310Y-14436310D01*
X21429000Y-12353470D02*
X21469000Y-12393470D01*
X21469000Y-12353470D02*
X21429000Y-12393470D01*
X22780000Y-10580000D02*
X22820000Y-10620000D01*
X22820000Y-10580000D02*
X22780000Y-10620000D01*
X23133150Y-8380000D02*
X23173150Y-8420000D01*
X23173150Y-8380000D02*
X23133150Y-8420000D01*
X23381450Y-10697860D02*
X23421450Y-10737860D01*
X23421450Y-10697860D02*
X23381450Y-10737860D01*
X23419010Y-16793290D02*
X23459010Y-16833290D01*
X23459010Y-16793290D02*
X23419010Y-16833290D01*
X23419510Y-14746260D02*
X23459510Y-14786260D01*
X23459510Y-14746260D02*
X23419510Y-14786260D01*
X23427010Y-12686720D02*
X23467010Y-12726720D01*
X23467010Y-12686720D02*
X23427010Y-12726720D01*
X23704840Y-8345770D02*
X23744840Y-8385770D01*
X23744840Y-8345770D02*
X23704840Y-8385770D01*
X24319050Y-6914510D02*
X24359050Y-6954510D01*
X24359050Y-6914510D02*
X24319050Y-6954510D01*
X24780000Y-7080000D02*
X24820000Y-7120000D01*
X24820000Y-7080000D02*
X24780000Y-7120000D01*
X24880000Y-10680000D02*
X24920000Y-10720000D01*
X24920000Y-10680000D02*
X24880000Y-10720000D01*
X24980000Y-7780000D02*
X25020000Y-7820000D01*
X25020000Y-7780000D02*
X24980000Y-7820000D01*
X25124970Y-3965750D02*
X25164970Y-4005750D01*
X25164970Y-3965750D02*
X25124970Y-4005750D01*
X25188540Y-8380000D02*
X25228540Y-8420000D01*
X25228540Y-8380000D02*
X25188540Y-8420000D01*
X25461160Y-16793290D02*
X25501160Y-16833290D01*
X25501160Y-16793290D02*
X25461160Y-16833290D01*
X25533490Y-14589490D02*
X25573490Y-14629490D01*
X25573490Y-14589490D02*
X25533490Y-14629490D01*
X25580000Y-7880000D02*
X25620000Y-7920000D01*
X25620000Y-7880000D02*
X25580000Y-7920000D01*
X25668270Y-12935490D02*
X25708270Y-12975490D01*
X25708270Y-12935490D02*
X25668270Y-12975490D01*
X25766300Y-5014070D02*
X25806300Y-5054070D01*
X25806300Y-5014070D02*
X25766300Y-5054070D01*
X25795100Y-5484180D02*
X25835100Y-5524180D01*
X25835100Y-5484180D02*
X25795100Y-5524180D01*
X25922690Y-5215730D02*
X25962690Y-5255730D01*
X25962690Y-5215730D02*
X25922690Y-5255730D01*
X25980000Y-10080000D02*
X26020000Y-10120000D01*
X26020000Y-10080000D02*
X25980000Y-10120000D01*
X26080000Y-7980000D02*
X26120000Y-8020000D01*
X26120000Y-7980000D02*
X26080000Y-8020000D01*
X26080000Y-10780000D02*
X26120000Y-10820000D01*
X26120000Y-10780000D02*
X26080000Y-10820000D01*
X26280000Y-8580000D02*
X26320000Y-8620000D01*
X26320000Y-8580000D02*
X26280000Y-8620000D01*
X26480000Y-12180000D02*
X26520000Y-12220000D01*
X26520000Y-12180000D02*
X26480000Y-12220000D01*
X26782080Y-10327460D02*
X26822080Y-10367460D01*
X26822080Y-10327460D02*
X26782080Y-10367460D01*
X26880000Y-8480000D02*
X26920000Y-8520000D01*
X26920000Y-8480000D02*
X26880000Y-8520000D01*
X26946380Y-11006610D02*
X26986380Y-11046610D01*
X26986380Y-11006610D02*
X26946380Y-11046610D01*
X27092020Y-8758370D02*
X27132020Y-8798370D01*
X27132020Y-8758370D02*
X27092020Y-8798370D01*
X27119270Y-17012030D02*
X27159270Y-17052030D01*
X27159270Y-17012030D02*
X27119270Y-17052030D01*
X27480000Y-7980000D02*
X27520000Y-8020000D01*
X27520000Y-7980000D02*
X27480000Y-8020000D01*
X27780000Y-11180000D02*
X27820000Y-11220000D01*
X27820000Y-11180000D02*
X27780000Y-11220000D01*
X27789060Y-13028620D02*
X27829060Y-13068620D01*
X27829060Y-13028620D02*
X27789060Y-13068620D01*
X27880720Y-6824840D02*
X27920720Y-6864840D01*
X27920720Y-6824840D02*
X27880720Y-6864840D01*
X28180000Y-7980000D02*
X28220000Y-8020000D01*
X28220000Y-7980000D02*
X28180000Y-8020000D01*
X28180000Y-11980000D02*
X28220000Y-12020000D01*
X28220000Y-11980000D02*
X28180000Y-12020000D01*
X28580000Y-8680000D02*
X28620000Y-8720000D01*
X28620000Y-8680000D02*
X28580000Y-8720000D01*
X28580000Y-10780000D02*
X28620000Y-10820000D01*
X28620000Y-10780000D02*
X28580000Y-10820000D01*
X28824870Y-7305900D02*
X28864870Y-7345900D01*
X28864870Y-7305900D02*
X28824870Y-7345900D01*
X28980000Y-11280000D02*
X29020000Y-11320000D01*
X29020000Y-11280000D02*
X28980000Y-11320000D01*
X29180000Y-6680000D02*
X29220000Y-6720000D01*
X29220000Y-6680000D02*
X29180000Y-6720000D01*
X29848810Y-9934250D02*
X29888810Y-9974250D01*
X29888810Y-9934250D02*
X29848810Y-9974250D01*
X29880000Y-7480000D02*
X29920000Y-7520000D01*
X29920000Y-7480000D02*
X29880000Y-7520000D01*
X29896500Y-6499220D02*
X29936500Y-6539220D01*
X29936500Y-6499220D02*
X29896500Y-6539220D01*
X30355290Y-8361410D02*
X30395290Y-8401410D01*
X30395290Y-8361410D02*
X30355290Y-8401410D01*
X30380000Y-7680000D02*
X30420000Y-7720000D01*
X30420000Y-7680000D02*
X30380000Y-7720000D01*
X31872600Y-7162220D02*
X31912600Y-7202220D01*
X31912600Y-7162220D02*
X31872600Y-7202220D01*
X32305440Y-6499230D02*
X32345440Y-6539230D01*
X32345440Y-6499230D02*
X32305440Y-6539230D01*
X33915000Y-13141210D02*
X33955000Y-13181210D01*
X33955000Y-13141210D02*
X33915000Y-13181210D01*
X34236000Y-17405240D02*
X34276000Y-17445240D01*
X34276000Y-17405240D02*
X34236000Y-17445240D01*
X34280000Y-10280000D02*
X34320000Y-10320000D01*
X34320000Y-10280000D02*
X34280000Y-10320000D01*
X34880000Y-17180000D02*
X34920000Y-17220000D01*
X34920000Y-17180000D02*
X34880000Y-17220000D01*
X35192900Y-10004430D02*
X35232900Y-10044430D01*
X35232900Y-10004430D02*
X35192900Y-10044430D01*
X35890550Y-8361410D02*
X35930550Y-8401410D01*
X35930550Y-8361410D02*
X35890550Y-8401410D01*
X36310790Y-5233480D02*
X36350790Y-5273480D01*
X36350790Y-5233480D02*
X36310790Y-5273480D01*
X36428320Y-10004430D02*
X36468320Y-10044430D01*
X36468320Y-10004430D02*
X36428320Y-10044430D01*
X36691910Y-6502480D02*
X36731910Y-6542480D01*
X36731910Y-6502480D02*
X36691910Y-6542480D01*
X37480000Y-12280000D02*
X37520000Y-12320000D01*
X37520000Y-12280000D02*
X37480000Y-12320000D01*
X37480000Y-14780000D02*
X37520000Y-14820000D01*
X37520000Y-14780000D02*
X37480000Y-14820000D01*
X37480000Y-15980000D02*
X37520000Y-16020000D01*
X37520000Y-15980000D02*
X37480000Y-16020000D01*
X37680000Y-5280000D02*
X37720000Y-5320000D01*
X37720000Y-5280000D02*
X37680000Y-5320000D01*
X37779490Y-8361410D02*
X37819490Y-8401410D01*
X37819490Y-8361410D02*
X37779490Y-8401410D01*
X37780000Y-13980000D02*
X37820000Y-14020000D01*
X37820000Y-13980000D02*
X37780000Y-14020000D01*
X37817490Y-10506860D02*
X37857490Y-10546860D01*
X37857490Y-10506860D02*
X37817490Y-10546860D01*
X37888490Y-12686720D02*
X37928490Y-12726720D01*
X37928490Y-12686720D02*
X37888490Y-12726720D01*
X38480000Y-7980000D02*
X38520000Y-8020000D01*
X38520000Y-7980000D02*
X38480000Y-8020000D01*
X38520410Y-4648250D02*
X38560410Y-4688250D01*
X38560410Y-4648250D02*
X38520410Y-4688250D01*
X38705560Y-5180370D02*
X38745560Y-5220370D01*
X38745560Y-5180370D02*
X38705560Y-5220370D01*
X38734260Y-4648250D02*
X38774260Y-4688250D01*
X38774260Y-4648250D02*
X38734260Y-4688250D01*
X38740540Y-5627540D02*
X38780540Y-5667540D01*
X38780540Y-5627540D02*
X38740540Y-5667540D01*
X38980000Y-4180000D02*
X39020000Y-4220000D01*
X39020000Y-4180000D02*
X38980000Y-4220000D01*
X39080000Y-5680000D02*
X39120000Y-5720000D01*
X39120000Y-5680000D02*
X39080000Y-5720000D01*
X39350680Y-5478520D02*
X39390680Y-5518520D01*
X39390680Y-5478520D02*
X39350680Y-5518520D01*
X39626750Y-8721010D02*
X39666750Y-8761010D01*
X39666750Y-8721010D02*
X39626750Y-8761010D01*
X39861550Y-8287550D02*
X39901550Y-8327550D01*
X39901550Y-8287550D02*
X39861550Y-8327550D01*
X39901760Y-10177260D02*
X39941760Y-10217260D01*
X39941760Y-10177260D02*
X39901760Y-10217260D01*
X39956440Y-4010030D02*
X39996440Y-4050030D01*
X39996440Y-4010030D02*
X39956440Y-4050030D01*
X40234860Y-14721450D02*
X40274860Y-14761450D01*
X40274860Y-14721450D02*
X40234860Y-14761450D01*
X40281650Y-12485760D02*
X40321650Y-12525760D01*
X40321650Y-12485760D02*
X40281650Y-12525760D01*
X40380000Y-16280000D02*
X40420000Y-16320000D01*
X40420000Y-16280000D02*
X40380000Y-16320000D01*
X40780000Y-17780000D02*
X40820000Y-17820000D01*
X40820000Y-17780000D02*
X40780000Y-17820000D01*
X40880000Y-18480000D02*
X40920000Y-18520000D01*
X40920000Y-18480000D02*
X40880000Y-18520000D01*
X41080000Y-7980000D02*
X41120000Y-8020000D01*
X41120000Y-7980000D02*
X41080000Y-8020000D01*
X41380000Y-6780000D02*
X41420000Y-6820000D01*
X41420000Y-6780000D02*
X41380000Y-6820000D01*
X41478230Y-9541040D02*
X41518230Y-9581040D01*
X41518230Y-9541040D02*
X41478230Y-9581040D01*
X41780000Y-14080000D02*
X41820000Y-14120000D01*
X41820000Y-14080000D02*
X41780000Y-14120000D01*
X41880070Y-11819070D02*
X41920070Y-11859070D01*
X41920070Y-11819070D02*
X41880070Y-11859070D01*
X41986680Y-8073320D02*
X42026680Y-8113320D01*
X42026680Y-8073320D02*
X41986680Y-8113320D01*
X42180000Y-15780000D02*
X42220000Y-15820000D01*
X42220000Y-15780000D02*
X42180000Y-15820000D01*
X42595820Y-8597420D02*
X42635820Y-8637420D01*
X42635820Y-8597420D02*
X42595820Y-8637420D01*
X43871390Y-8361410D02*
X43911390Y-8401410D01*
X43911390Y-8361410D02*
X43871390Y-8401410D01*
X43980000Y-16180000D02*
X44020000Y-16220000D01*
X44020000Y-16180000D02*
X43980000Y-16220000D01*
X44081250Y-17006000D02*
X44121250Y-17046000D01*
X44121250Y-17006000D02*
X44081250Y-17046000D01*
X44168330Y-10498870D02*
X44208330Y-10538870D01*
X44208330Y-10498870D02*
X44168330Y-10538870D01*
X44270250Y-12686720D02*
X44310250Y-12726720D01*
X44310250Y-12686720D02*
X44270250Y-12726720D01*
X45380000Y-8080000D02*
X45420000Y-8120000D01*
X45420000Y-8080000D02*
X45380000Y-8120000D01*
X45780000Y-7580000D02*
X45820000Y-7620000D01*
X45820000Y-7580000D02*
X45780000Y-7620000D01*
X46195520Y-10720670D02*
X46235520Y-10760670D01*
X46235520Y-10720670D02*
X46195520Y-10760670D01*
X46264550Y-13079930D02*
X46304550Y-13119930D01*
X46304550Y-13079930D02*
X46264550Y-13119930D01*
X46264550Y-15045980D02*
X46304550Y-15085980D01*
X46304550Y-15045980D02*
X46264550Y-15085980D01*
X46264550Y-17405240D02*
X46304550Y-17445240D01*
X46304550Y-17405240D02*
X46264550Y-17445240D01*
X46264550Y-19764500D02*
X46304550Y-19804500D01*
X46304550Y-19764500D02*
X46264550Y-19804500D01*
X46880000Y-5080000D02*
X46920000Y-5120000D01*
X46920000Y-5080000D02*
X46880000Y-5120000D01*
X47859990Y-10327460D02*
X47899990Y-10367460D01*
X47899990Y-10327460D02*
X47859990Y-10367460D01*
X48657710Y-15045980D02*
X48697710Y-15085980D01*
X48697710Y-15045980D02*
X48657710Y-15085980D01*
X48657710Y-17405240D02*
X48697710Y-17445240D01*
X48697710Y-17405240D02*
X48657710Y-17445240D01*
X48657710Y-19371290D02*
X48697710Y-19411290D01*
X48697710Y-19371290D02*
X48657710Y-19411290D01*
X49200380Y-12759880D02*
X49240380Y-12799880D01*
X49240380Y-12759880D02*
X49200380Y-12799880D01*
D13*
X42728970Y-5034000D02*
G75*
G03*
X42728970Y-5034000I-37500J0D01*
G01*
X42982970Y-5034000D02*
G75*
G03*
X42982970Y-5034000I-37500J0D01*
G01*
X45598970Y-5044000D02*
G75*
G03*
X45598970Y-5044000I-37500J0D01*
G01*
X45852970Y-5044000D02*
G75*
G03*
X45852970Y-5044000I-37500J0D01*
G01*
X48548970Y-5024000D02*
G75*
G03*
X48548970Y-5024000I-37500J0D01*
G01*
X48802970Y-5024000D02*
G75*
G03*
X48802970Y-5024000I-37500J0D01*
G01*
X51310500Y-5044000D02*
G75*
G03*
X51310500Y-5044000I-37500J0D01*
G01*
X51564500Y-5044000D02*
G75*
G03*
X51564500Y-5044000I-37500J0D01*
G01*
D14*
X10990000Y-5025000D02*
X10990000Y-5115000D01*
X10945000Y-5070000D02*
X11035000Y-5070000D01*
X11244000Y-5025000D02*
X11244000Y-5115000D01*
X11199000Y-5070000D02*
X11289000Y-5070000D01*
X13810000Y-5075000D02*
X13810000Y-5165000D01*
X13765000Y-5120000D02*
X13855000Y-5120000D01*
X14064000Y-5075000D02*
X14064000Y-5165000D01*
X14019000Y-5120000D02*
X14109000Y-5120000D01*
X16740000Y-5055000D02*
X16740000Y-5145000D01*
X16695000Y-5100000D02*
X16785000Y-5100000D01*
X16994000Y-5055000D02*
X16994000Y-5145000D01*
X16949000Y-5100000D02*
X17039000Y-5100000D01*
X19520000Y-5075000D02*
X19520000Y-5165000D01*
X19475000Y-5120000D02*
X19565000Y-5120000D01*
X19774000Y-5075000D02*
X19774000Y-5165000D01*
X19729000Y-5120000D02*
X19819000Y-5120000D01*
D10*
X22427356Y-5335356D02*
X22427356Y-5264644D01*
X22356644Y-5264644D01*
X22356644Y-5335356D01*
X22427356Y-5335356D01*
X22935356Y-5335356D02*
X22935356Y-5264644D01*
X22864644Y-5264644D01*
X22864644Y-5335356D01*
X22935356Y-5335356D01*
X39736356Y-5335356D02*
X39736356Y-5264644D01*
X39665644Y-5264644D01*
X39665644Y-5335356D01*
X39736356Y-5335356D01*
X40244356Y-5335356D02*
X40244356Y-5264644D01*
X40173644Y-5264644D01*
X40173644Y-5335356D01*
X40244356Y-5335356D01*
D15*
X25587000Y-4434500D02*
X25638000Y-4383500D01*
X25587000Y-4332500D01*
X25536000Y-4383500D01*
X25587000Y-4434500D01*
X25587000Y-6212500D02*
X25638000Y-6161500D01*
X25587000Y-6110500D01*
X25536000Y-6161500D01*
X25587000Y-6212500D01*
X25610000Y-5069500D02*
X25661000Y-5018500D01*
X25610000Y-4967500D01*
X25559000Y-5018500D01*
X25610000Y-5069500D01*
X25610000Y-5323500D02*
X25661000Y-5272500D01*
X25610000Y-5221500D01*
X25559000Y-5272500D01*
X25610000Y-5323500D01*
X25610000Y-5577500D02*
X25661000Y-5526500D01*
X25610000Y-5475500D01*
X25559000Y-5526500D01*
X25610000Y-5577500D01*
X25841000Y-4434500D02*
X25892000Y-4383500D01*
X25841000Y-4332500D01*
X25790000Y-4383500D01*
X25841000Y-4434500D01*
X25841000Y-6212500D02*
X25892000Y-6161500D01*
X25841000Y-6110500D01*
X25790000Y-6161500D01*
X25841000Y-6212500D01*
X26095000Y-4434500D02*
X26146000Y-4383500D01*
X26095000Y-4332500D01*
X26044000Y-4383500D01*
X26095000Y-4434500D01*
X26095000Y-6212500D02*
X26146000Y-6161500D01*
X26095000Y-6110500D01*
X26044000Y-6161500D01*
X26095000Y-6212500D01*
X26349000Y-4434500D02*
X26400000Y-4383500D01*
X26349000Y-4332500D01*
X26298000Y-4383500D01*
X26349000Y-4434500D01*
X26349000Y-6212500D02*
X26400000Y-6161500D01*
X26349000Y-6110500D01*
X26298000Y-6161500D01*
X26349000Y-6212500D01*
X26603000Y-4434500D02*
X26654000Y-4383500D01*
X26603000Y-4332500D01*
X26552000Y-4383500D01*
X26603000Y-4434500D01*
X26603000Y-6212500D02*
X26654000Y-6161500D01*
X26603000Y-6110500D01*
X26552000Y-6161500D01*
X26603000Y-6212500D01*
X26857000Y-4434500D02*
X26908000Y-4383500D01*
X26857000Y-4332500D01*
X26806000Y-4383500D01*
X26857000Y-4434500D01*
X26857000Y-6212500D02*
X26908000Y-6161500D01*
X26857000Y-6110500D01*
X26806000Y-6161500D01*
X26857000Y-6212500D01*
X27111000Y-4434500D02*
X27162000Y-4383500D01*
X27111000Y-4332500D01*
X27060000Y-4383500D01*
X27111000Y-4434500D01*
X27111000Y-6212500D02*
X27162000Y-6161500D01*
X27111000Y-6110500D01*
X27060000Y-6161500D01*
X27111000Y-6212500D01*
X27365000Y-4434500D02*
X27416000Y-4383500D01*
X27365000Y-4332500D01*
X27314000Y-4383500D01*
X27365000Y-4434500D01*
X27365000Y-6212500D02*
X27416000Y-6161500D01*
X27365000Y-6110500D01*
X27314000Y-6161500D01*
X27365000Y-6212500D01*
X27619000Y-4434500D02*
X27670000Y-4383500D01*
X27619000Y-4332500D01*
X27568000Y-4383500D01*
X27619000Y-4434500D01*
X27619000Y-6212500D02*
X27670000Y-6161500D01*
X27619000Y-6110500D01*
X27568000Y-6161500D01*
X27619000Y-6212500D01*
X27873000Y-4434500D02*
X27924000Y-4383500D01*
X27873000Y-4332500D01*
X27822000Y-4383500D01*
X27873000Y-4434500D01*
X27873000Y-6212500D02*
X27924000Y-6161500D01*
X27873000Y-6110500D01*
X27822000Y-6161500D01*
X27873000Y-6212500D01*
X28127000Y-4434500D02*
X28178000Y-4383500D01*
X28127000Y-4332500D01*
X28076000Y-4383500D01*
X28127000Y-4434500D01*
X28127000Y-6212500D02*
X28178000Y-6161500D01*
X28127000Y-6110500D01*
X28076000Y-6161500D01*
X28127000Y-6212500D01*
X28381000Y-4434500D02*
X28432000Y-4383500D01*
X28381000Y-4332500D01*
X28330000Y-4383500D01*
X28381000Y-4434500D01*
X28381000Y-6212500D02*
X28432000Y-6161500D01*
X28381000Y-6110500D01*
X28330000Y-6161500D01*
X28381000Y-6212500D01*
X28635000Y-4434500D02*
X28686000Y-4383500D01*
X28635000Y-4332500D01*
X28584000Y-4383500D01*
X28635000Y-4434500D01*
X28635000Y-6212500D02*
X28686000Y-6161500D01*
X28635000Y-6110500D01*
X28584000Y-6161500D01*
X28635000Y-6212500D01*
X28889000Y-4434500D02*
X28940000Y-4383500D01*
X28889000Y-4332500D01*
X28838000Y-4383500D01*
X28889000Y-4434500D01*
X28889000Y-6212500D02*
X28940000Y-6161500D01*
X28889000Y-6110500D01*
X28838000Y-6161500D01*
X28889000Y-6212500D01*
X29143000Y-4434500D02*
X29194000Y-4383500D01*
X29143000Y-4332500D01*
X29092000Y-4383500D01*
X29143000Y-4434500D01*
X29143000Y-6212500D02*
X29194000Y-6161500D01*
X29143000Y-6110500D01*
X29092000Y-6161500D01*
X29143000Y-6212500D01*
X29397000Y-4434500D02*
X29448000Y-4383500D01*
X29397000Y-4332500D01*
X29346000Y-4383500D01*
X29397000Y-4434500D01*
X29397000Y-6212500D02*
X29448000Y-6161500D01*
X29397000Y-6110500D01*
X29346000Y-6161500D01*
X29397000Y-6212500D01*
X29651000Y-4434500D02*
X29702000Y-4383500D01*
X29651000Y-4332500D01*
X29600000Y-4383500D01*
X29651000Y-4434500D01*
X29651000Y-6212500D02*
X29702000Y-6161500D01*
X29651000Y-6110500D01*
X29600000Y-6161500D01*
X29651000Y-6212500D01*
X29905000Y-4434500D02*
X29956000Y-4383500D01*
X29905000Y-4332500D01*
X29854000Y-4383500D01*
X29905000Y-4434500D01*
X29905000Y-6212500D02*
X29956000Y-6161500D01*
X29905000Y-6110500D01*
X29854000Y-6161500D01*
X29905000Y-6212500D01*
X30159000Y-4434500D02*
X30210000Y-4383500D01*
X30159000Y-4332500D01*
X30108000Y-4383500D01*
X30159000Y-4434500D01*
X30159000Y-6212500D02*
X30210000Y-6161500D01*
X30159000Y-6110500D01*
X30108000Y-6161500D01*
X30159000Y-6212500D01*
X30413000Y-4434500D02*
X30464000Y-4383500D01*
X30413000Y-4332500D01*
X30362000Y-4383500D01*
X30413000Y-4434500D01*
X30413000Y-6212500D02*
X30464000Y-6161500D01*
X30413000Y-6110500D01*
X30362000Y-6161500D01*
X30413000Y-6212500D01*
X32042000Y-4434500D02*
X32093000Y-4383500D01*
X32042000Y-4332500D01*
X31991000Y-4383500D01*
X32042000Y-4434500D01*
X32042000Y-6212500D02*
X32093000Y-6161500D01*
X32042000Y-6110500D01*
X31991000Y-6161500D01*
X32042000Y-6212500D01*
X32296000Y-4434500D02*
X32347000Y-4383500D01*
X32296000Y-4332500D01*
X32245000Y-4383500D01*
X32296000Y-4434500D01*
X32296000Y-6212500D02*
X32347000Y-6161500D01*
X32296000Y-6110500D01*
X32245000Y-6161500D01*
X32296000Y-6212500D01*
X32550000Y-4434500D02*
X32601000Y-4383500D01*
X32550000Y-4332500D01*
X32499000Y-4383500D01*
X32550000Y-4434500D01*
X32550000Y-6212500D02*
X32601000Y-6161500D01*
X32550000Y-6110500D01*
X32499000Y-6161500D01*
X32550000Y-6212500D01*
X32804000Y-4434500D02*
X32855000Y-4383500D01*
X32804000Y-4332500D01*
X32753000Y-4383500D01*
X32804000Y-4434500D01*
X32804000Y-6212500D02*
X32855000Y-6161500D01*
X32804000Y-6110500D01*
X32753000Y-6161500D01*
X32804000Y-6212500D01*
X33058000Y-4434500D02*
X33109000Y-4383500D01*
X33058000Y-4332500D01*
X33007000Y-4383500D01*
X33058000Y-4434500D01*
X33058000Y-6212500D02*
X33109000Y-6161500D01*
X33058000Y-6110500D01*
X33007000Y-6161500D01*
X33058000Y-6212500D01*
X33312000Y-4434500D02*
X33363000Y-4383500D01*
X33312000Y-4332500D01*
X33261000Y-4383500D01*
X33312000Y-4434500D01*
X33312000Y-6212500D02*
X33363000Y-6161500D01*
X33312000Y-6110500D01*
X33261000Y-6161500D01*
X33312000Y-6212500D01*
X33566000Y-4434500D02*
X33617000Y-4383500D01*
X33566000Y-4332500D01*
X33515000Y-4383500D01*
X33566000Y-4434500D01*
X33566000Y-6212500D02*
X33617000Y-6161500D01*
X33566000Y-6110500D01*
X33515000Y-6161500D01*
X33566000Y-6212500D01*
X33820000Y-4434500D02*
X33871000Y-4383500D01*
X33820000Y-4332500D01*
X33769000Y-4383500D01*
X33820000Y-4434500D01*
X33820000Y-6212500D02*
X33871000Y-6161500D01*
X33820000Y-6110500D01*
X33769000Y-6161500D01*
X33820000Y-6212500D01*
X34074000Y-4434500D02*
X34125000Y-4383500D01*
X34074000Y-4332500D01*
X34023000Y-4383500D01*
X34074000Y-4434500D01*
X34074000Y-6212500D02*
X34125000Y-6161500D01*
X34074000Y-6110500D01*
X34023000Y-6161500D01*
X34074000Y-6212500D01*
X34328000Y-4434500D02*
X34379000Y-4383500D01*
X34328000Y-4332500D01*
X34277000Y-4383500D01*
X34328000Y-4434500D01*
X34328000Y-6212500D02*
X34379000Y-6161500D01*
X34328000Y-6110500D01*
X34277000Y-6161500D01*
X34328000Y-6212500D01*
X34582000Y-4434500D02*
X34633000Y-4383500D01*
X34582000Y-4332500D01*
X34531000Y-4383500D01*
X34582000Y-4434500D01*
X34582000Y-6212500D02*
X34633000Y-6161500D01*
X34582000Y-6110500D01*
X34531000Y-6161500D01*
X34582000Y-6212500D01*
X34836000Y-4434500D02*
X34887000Y-4383500D01*
X34836000Y-4332500D01*
X34785000Y-4383500D01*
X34836000Y-4434500D01*
X34836000Y-6212500D02*
X34887000Y-6161500D01*
X34836000Y-6110500D01*
X34785000Y-6161500D01*
X34836000Y-6212500D01*
X35090000Y-4434500D02*
X35141000Y-4383500D01*
X35090000Y-4332500D01*
X35039000Y-4383500D01*
X35090000Y-4434500D01*
X35090000Y-6212500D02*
X35141000Y-6161500D01*
X35090000Y-6110500D01*
X35039000Y-6161500D01*
X35090000Y-6212500D01*
X35344000Y-4434500D02*
X35395000Y-4383500D01*
X35344000Y-4332500D01*
X35293000Y-4383500D01*
X35344000Y-4434500D01*
X35344000Y-6212500D02*
X35395000Y-6161500D01*
X35344000Y-6110500D01*
X35293000Y-6161500D01*
X35344000Y-6212500D01*
X35598000Y-4434500D02*
X35649000Y-4383500D01*
X35598000Y-4332500D01*
X35547000Y-4383500D01*
X35598000Y-4434500D01*
X35598000Y-6212500D02*
X35649000Y-6161500D01*
X35598000Y-6110500D01*
X35547000Y-6161500D01*
X35598000Y-6212500D01*
X35852000Y-4434500D02*
X35903000Y-4383500D01*
X35852000Y-4332500D01*
X35801000Y-4383500D01*
X35852000Y-4434500D01*
X35852000Y-6212500D02*
X35903000Y-6161500D01*
X35852000Y-6110500D01*
X35801000Y-6161500D01*
X35852000Y-6212500D01*
X36106000Y-4434500D02*
X36157000Y-4383500D01*
X36106000Y-4332500D01*
X36055000Y-4383500D01*
X36106000Y-4434500D01*
X36106000Y-6212500D02*
X36157000Y-6161500D01*
X36106000Y-6110500D01*
X36055000Y-6161500D01*
X36106000Y-6212500D01*
X36360000Y-4434500D02*
X36411000Y-4383500D01*
X36360000Y-4332500D01*
X36309000Y-4383500D01*
X36360000Y-4434500D01*
X36360000Y-6212500D02*
X36411000Y-6161500D01*
X36360000Y-6110500D01*
X36309000Y-6161500D01*
X36360000Y-6212500D01*
X36614000Y-4434500D02*
X36665000Y-4383500D01*
X36614000Y-4332500D01*
X36563000Y-4383500D01*
X36614000Y-4434500D01*
X36614000Y-6212500D02*
X36665000Y-6161500D01*
X36614000Y-6110500D01*
X36563000Y-6161500D01*
X36614000Y-6212500D01*
X36845000Y-5069500D02*
X36896000Y-5018500D01*
X36845000Y-4967500D01*
X36794000Y-5018500D01*
X36845000Y-5069500D01*
X36845000Y-5323500D02*
X36896000Y-5272500D01*
X36845000Y-5221500D01*
X36794000Y-5272500D01*
X36845000Y-5323500D01*
X36845000Y-5577500D02*
X36896000Y-5526500D01*
X36845000Y-5475500D01*
X36794000Y-5526500D01*
X36845000Y-5577500D01*
X36868000Y-4434500D02*
X36919000Y-4383500D01*
X36868000Y-4332500D01*
X36817000Y-4383500D01*
X36868000Y-4434500D01*
X36868000Y-6212500D02*
X36919000Y-6161500D01*
X36868000Y-6110500D01*
X36817000Y-6161500D01*
X36868000Y-6212500D01*
D16*
X29702000Y-9008000D02*
X29812000Y-9118000D01*
X29812000Y-9008000D02*
X29702000Y-9118000D01*
X29812000Y-9063000D02*
G75*
G03*
X29812000Y-9063000I-55000J0D01*
G01*
X30012000Y-9528000D02*
X30122000Y-9638000D01*
X30122000Y-9528000D02*
X30012000Y-9638000D01*
X30122000Y-9583000D02*
G75*
G03*
X30122000Y-9583000I-55000J0D01*
G01*
X30512000Y-8688000D02*
X30622000Y-8798000D01*
X30622000Y-8688000D02*
X30512000Y-8798000D01*
X30622000Y-8743000D02*
G75*
G03*
X30622000Y-8743000I-55000J0D01*
G01*
X30512000Y-9618000D02*
X30622000Y-9728000D01*
X30622000Y-9618000D02*
X30512000Y-9728000D01*
X30622000Y-9673000D02*
G75*
G03*
X30622000Y-9673000I-55000J0D01*
G01*
X31842500Y-8720000D02*
X31952500Y-8830000D01*
X31952500Y-8720000D02*
X31842500Y-8830000D01*
X31952500Y-8775000D02*
G75*
G03*
X31952500Y-8775000I-55000J0D01*
G01*
X31842500Y-9650000D02*
X31952500Y-9760000D01*
X31952500Y-9650000D02*
X31842500Y-9760000D01*
X31952500Y-9705000D02*
G75*
G03*
X31952500Y-9705000I-55000J0D01*
G01*
X32342500Y-8810000D02*
X32452500Y-8920000D01*
X32452500Y-8810000D02*
X32342500Y-8920000D01*
X32452500Y-8865000D02*
G75*
G03*
X32452500Y-8865000I-55000J0D01*
G01*
X32652500Y-9330000D02*
X32762500Y-9440000D01*
X32762500Y-9330000D02*
X32652500Y-9440000D01*
X32762500Y-9385000D02*
G75*
G03*
X32762500Y-9385000I-55000J0D01*
G01*
D17*
X12444000Y-9631000D02*
X12594000Y-9781000D01*
X12594000Y-9631000D02*
X12444000Y-9781000D01*
X12519000Y-9631000D02*
X12519000Y-9781000D01*
X12444000Y-9706000D02*
X12594000Y-9706000D01*
X12476000Y-11721000D02*
X12626000Y-11871000D01*
X12626000Y-11721000D02*
X12476000Y-11871000D01*
X12551000Y-11721000D02*
X12551000Y-11871000D01*
X12476000Y-11796000D02*
X12626000Y-11796000D01*
X12603000Y-13811000D02*
X12753000Y-13961000D01*
X12753000Y-13811000D02*
X12603000Y-13961000D01*
X12678000Y-13811000D02*
X12678000Y-13961000D01*
X12603000Y-13886000D02*
X12753000Y-13886000D01*
X12644000Y-15919000D02*
X12794000Y-16069000D01*
X12794000Y-15919000D02*
X12644000Y-16069000D01*
X12719000Y-15919000D02*
X12719000Y-16069000D01*
X12644000Y-15994000D02*
X12794000Y-15994000D01*
X13079000Y-9377000D02*
X13229000Y-9527000D01*
X13229000Y-9377000D02*
X13079000Y-9527000D01*
X13154000Y-9377000D02*
X13154000Y-9527000D01*
X13079000Y-9452000D02*
X13229000Y-9452000D01*
X13090000Y-18039000D02*
X13240000Y-18189000D01*
X13240000Y-18039000D02*
X13090000Y-18189000D01*
X13165000Y-18039000D02*
X13165000Y-18189000D01*
X13090000Y-18114000D02*
X13240000Y-18114000D01*
X13111000Y-11467000D02*
X13261000Y-11617000D01*
X13261000Y-11467000D02*
X13111000Y-11617000D01*
X13186000Y-11467000D02*
X13186000Y-11617000D01*
X13111000Y-11542000D02*
X13261000Y-11542000D01*
X13238000Y-13557000D02*
X13388000Y-13707000D01*
X13388000Y-13557000D02*
X13238000Y-13707000D01*
X13313000Y-13557000D02*
X13313000Y-13707000D01*
X13238000Y-13632000D02*
X13388000Y-13632000D01*
X13279000Y-15665000D02*
X13429000Y-15815000D01*
X13429000Y-15665000D02*
X13279000Y-15815000D01*
X13354000Y-15665000D02*
X13354000Y-15815000D01*
X13279000Y-15740000D02*
X13429000Y-15740000D01*
X13725000Y-17785000D02*
X13875000Y-17935000D01*
X13875000Y-17785000D02*
X13725000Y-17935000D01*
X13800000Y-17785000D02*
X13800000Y-17935000D01*
X13725000Y-17860000D02*
X13875000Y-17860000D01*
X15044000Y-7231000D02*
X15194000Y-7381000D01*
X15194000Y-7231000D02*
X15044000Y-7381000D01*
X15119000Y-7231000D02*
X15119000Y-7381000D01*
X15044000Y-7306000D02*
X15194000Y-7306000D01*
X15052000Y-9651000D02*
X15202000Y-9801000D01*
X15202000Y-9651000D02*
X15052000Y-9801000D01*
X15127000Y-9651000D02*
X15127000Y-9801000D01*
X15052000Y-9726000D02*
X15202000Y-9726000D01*
X15074000Y-11721000D02*
X15224000Y-11871000D01*
X15224000Y-11721000D02*
X15074000Y-11871000D01*
X15149000Y-11721000D02*
X15149000Y-11871000D01*
X15074000Y-11796000D02*
X15224000Y-11796000D01*
X15187000Y-13801000D02*
X15337000Y-13951000D01*
X15337000Y-13801000D02*
X15187000Y-13951000D01*
X15262000Y-13801000D02*
X15262000Y-13951000D01*
X15187000Y-13876000D02*
X15337000Y-13876000D01*
X15240000Y-15899000D02*
X15390000Y-16049000D01*
X15390000Y-15899000D02*
X15240000Y-16049000D01*
X15315000Y-15899000D02*
X15315000Y-16049000D01*
X15240000Y-15974000D02*
X15390000Y-15974000D01*
X15244000Y-18029000D02*
X15394000Y-18179000D01*
X15394000Y-18029000D02*
X15244000Y-18179000D01*
X15319000Y-18029000D02*
X15319000Y-18179000D01*
X15244000Y-18104000D02*
X15394000Y-18104000D01*
X15679000Y-6977000D02*
X15829000Y-7127000D01*
X15829000Y-6977000D02*
X15679000Y-7127000D01*
X15754000Y-6977000D02*
X15754000Y-7127000D01*
X15679000Y-7052000D02*
X15829000Y-7052000D01*
X15687000Y-9397000D02*
X15837000Y-9547000D01*
X15837000Y-9397000D02*
X15687000Y-9547000D01*
X15762000Y-9397000D02*
X15762000Y-9547000D01*
X15687000Y-9472000D02*
X15837000Y-9472000D01*
X15709000Y-11467000D02*
X15859000Y-11617000D01*
X15859000Y-11467000D02*
X15709000Y-11617000D01*
X15784000Y-11467000D02*
X15784000Y-11617000D01*
X15709000Y-11542000D02*
X15859000Y-11542000D01*
X15822000Y-13547000D02*
X15972000Y-13697000D01*
X15972000Y-13547000D02*
X15822000Y-13697000D01*
X15897000Y-13547000D02*
X15897000Y-13697000D01*
X15822000Y-13622000D02*
X15972000Y-13622000D01*
X15875000Y-15645000D02*
X16025000Y-15795000D01*
X16025000Y-15645000D02*
X15875000Y-15795000D01*
X15950000Y-15645000D02*
X15950000Y-15795000D01*
X15875000Y-15720000D02*
X16025000Y-15720000D01*
X15879000Y-17775000D02*
X16029000Y-17925000D01*
X16029000Y-17775000D02*
X15879000Y-17925000D01*
X15954000Y-17775000D02*
X15954000Y-17925000D01*
X15879000Y-17850000D02*
X16029000Y-17850000D01*
X17106000Y-9151000D02*
X17256000Y-9301000D01*
X17256000Y-9151000D02*
X17106000Y-9301000D01*
X17181000Y-9151000D02*
X17181000Y-9301000D01*
X17106000Y-9226000D02*
X17256000Y-9226000D01*
X17124000Y-7241000D02*
X17274000Y-7391000D01*
X17274000Y-7241000D02*
X17124000Y-7391000D01*
X17199000Y-7241000D02*
X17199000Y-7391000D01*
X17124000Y-7316000D02*
X17274000Y-7316000D01*
X17236000Y-11251000D02*
X17386000Y-11401000D01*
X17386000Y-11251000D02*
X17236000Y-11401000D01*
X17311000Y-11251000D02*
X17311000Y-11401000D01*
X17236000Y-11326000D02*
X17386000Y-11326000D01*
X17277000Y-13331000D02*
X17427000Y-13481000D01*
X17427000Y-13331000D02*
X17277000Y-13481000D01*
X17352000Y-13331000D02*
X17352000Y-13481000D01*
X17277000Y-13406000D02*
X17427000Y-13406000D01*
X17336000Y-15439000D02*
X17486000Y-15589000D01*
X17486000Y-15439000D02*
X17336000Y-15589000D01*
X17411000Y-15439000D02*
X17411000Y-15589000D01*
X17336000Y-15514000D02*
X17486000Y-15514000D01*
X17344000Y-17731000D02*
X17494000Y-17881000D01*
X17494000Y-17731000D02*
X17344000Y-17881000D01*
X17419000Y-17731000D02*
X17419000Y-17881000D01*
X17344000Y-17806000D02*
X17494000Y-17806000D01*
X17741000Y-8897000D02*
X17891000Y-9047000D01*
X17891000Y-8897000D02*
X17741000Y-9047000D01*
X17816000Y-8897000D02*
X17816000Y-9047000D01*
X17741000Y-8972000D02*
X17891000Y-8972000D01*
X17759000Y-6987000D02*
X17909000Y-7137000D01*
X17909000Y-6987000D02*
X17759000Y-7137000D01*
X17834000Y-6987000D02*
X17834000Y-7137000D01*
X17759000Y-7062000D02*
X17909000Y-7062000D01*
X17871000Y-10997000D02*
X18021000Y-11147000D01*
X18021000Y-10997000D02*
X17871000Y-11147000D01*
X17946000Y-10997000D02*
X17946000Y-11147000D01*
X17871000Y-11072000D02*
X18021000Y-11072000D01*
X17912000Y-13077000D02*
X18062000Y-13227000D01*
X18062000Y-13077000D02*
X17912000Y-13227000D01*
X17987000Y-13077000D02*
X17987000Y-13227000D01*
X17912000Y-13152000D02*
X18062000Y-13152000D01*
X17971000Y-15185000D02*
X18121000Y-15335000D01*
X18121000Y-15185000D02*
X17971000Y-15335000D01*
X18046000Y-15185000D02*
X18046000Y-15335000D01*
X17971000Y-15260000D02*
X18121000Y-15260000D01*
X17979000Y-17477000D02*
X18129000Y-17627000D01*
X18129000Y-17477000D02*
X17979000Y-17627000D01*
X18054000Y-17477000D02*
X18054000Y-17627000D01*
X17979000Y-17552000D02*
X18129000Y-17552000D01*
X19174000Y-8891000D02*
X19324000Y-9041000D01*
X19324000Y-8891000D02*
X19174000Y-9041000D01*
X19249000Y-8891000D02*
X19249000Y-9041000D01*
X19174000Y-8966000D02*
X19324000Y-8966000D01*
X19244000Y-7241000D02*
X19394000Y-7391000D01*
X19394000Y-7241000D02*
X19244000Y-7391000D01*
X19319000Y-7241000D02*
X19319000Y-7391000D01*
X19244000Y-7316000D02*
X19394000Y-7316000D01*
X19358000Y-10991000D02*
X19508000Y-11141000D01*
X19508000Y-10991000D02*
X19358000Y-11141000D01*
X19433000Y-10991000D02*
X19433000Y-11141000D01*
X19358000Y-11066000D02*
X19508000Y-11066000D01*
X19408000Y-13091000D02*
X19558000Y-13241000D01*
X19558000Y-13091000D02*
X19408000Y-13241000D01*
X19483000Y-13091000D02*
X19483000Y-13241000D01*
X19408000Y-13166000D02*
X19558000Y-13166000D01*
X19436000Y-15189000D02*
X19586000Y-15339000D01*
X19586000Y-15189000D02*
X19436000Y-15339000D01*
X19511000Y-15189000D02*
X19511000Y-15339000D01*
X19436000Y-15264000D02*
X19586000Y-15264000D01*
X19444000Y-17331000D02*
X19594000Y-17481000D01*
X19594000Y-17331000D02*
X19444000Y-17481000D01*
X19519000Y-17331000D02*
X19519000Y-17481000D01*
X19444000Y-17406000D02*
X19594000Y-17406000D01*
X19809000Y-8637000D02*
X19959000Y-8787000D01*
X19959000Y-8637000D02*
X19809000Y-8787000D01*
X19884000Y-8637000D02*
X19884000Y-8787000D01*
X19809000Y-8712000D02*
X19959000Y-8712000D01*
X19879000Y-6987000D02*
X20029000Y-7137000D01*
X20029000Y-6987000D02*
X19879000Y-7137000D01*
X19954000Y-6987000D02*
X19954000Y-7137000D01*
X19879000Y-7062000D02*
X20029000Y-7062000D01*
X19993000Y-10737000D02*
X20143000Y-10887000D01*
X20143000Y-10737000D02*
X19993000Y-10887000D01*
X20068000Y-10737000D02*
X20068000Y-10887000D01*
X19993000Y-10812000D02*
X20143000Y-10812000D01*
X20043000Y-12837000D02*
X20193000Y-12987000D01*
X20193000Y-12837000D02*
X20043000Y-12987000D01*
X20118000Y-12837000D02*
X20118000Y-12987000D01*
X20043000Y-12912000D02*
X20193000Y-12912000D01*
X20071000Y-14935000D02*
X20221000Y-15085000D01*
X20221000Y-14935000D02*
X20071000Y-15085000D01*
X20146000Y-14935000D02*
X20146000Y-15085000D01*
X20071000Y-15010000D02*
X20221000Y-15010000D01*
X20079000Y-17077000D02*
X20229000Y-17227000D01*
X20229000Y-17077000D02*
X20079000Y-17227000D01*
X20154000Y-17077000D02*
X20154000Y-17227000D01*
X20079000Y-17152000D02*
X20229000Y-17152000D01*
X21324000Y-9141000D02*
X21474000Y-9291000D01*
X21474000Y-9141000D02*
X21324000Y-9291000D01*
X21399000Y-9141000D02*
X21399000Y-9291000D01*
X21324000Y-9216000D02*
X21474000Y-9216000D01*
X21344000Y-7231000D02*
X21494000Y-7381000D01*
X21494000Y-7231000D02*
X21344000Y-7381000D01*
X21419000Y-7231000D02*
X21419000Y-7381000D01*
X21344000Y-7306000D02*
X21494000Y-7306000D01*
X21498000Y-11241000D02*
X21648000Y-11391000D01*
X21648000Y-11241000D02*
X21498000Y-11391000D01*
X21573000Y-11241000D02*
X21573000Y-11391000D01*
X21498000Y-11316000D02*
X21648000Y-11316000D01*
X21528000Y-13331000D02*
X21678000Y-13481000D01*
X21678000Y-13331000D02*
X21528000Y-13481000D01*
X21603000Y-13331000D02*
X21603000Y-13481000D01*
X21528000Y-13406000D02*
X21678000Y-13406000D01*
X21544000Y-15449000D02*
X21694000Y-15599000D01*
X21694000Y-15449000D02*
X21544000Y-15599000D01*
X21619000Y-15449000D02*
X21619000Y-15599000D01*
X21544000Y-15524000D02*
X21694000Y-15524000D01*
X21544000Y-17571000D02*
X21694000Y-17721000D01*
X21694000Y-17571000D02*
X21544000Y-17721000D01*
X21619000Y-17571000D02*
X21619000Y-17721000D01*
X21544000Y-17646000D02*
X21694000Y-17646000D01*
X21959000Y-8887000D02*
X22109000Y-9037000D01*
X22109000Y-8887000D02*
X21959000Y-9037000D01*
X22034000Y-8887000D02*
X22034000Y-9037000D01*
X21959000Y-8962000D02*
X22109000Y-8962000D01*
X21979000Y-6977000D02*
X22129000Y-7127000D01*
X22129000Y-6977000D02*
X21979000Y-7127000D01*
X22054000Y-6977000D02*
X22054000Y-7127000D01*
X21979000Y-7052000D02*
X22129000Y-7052000D01*
X22133000Y-10987000D02*
X22283000Y-11137000D01*
X22283000Y-10987000D02*
X22133000Y-11137000D01*
X22208000Y-10987000D02*
X22208000Y-11137000D01*
X22133000Y-11062000D02*
X22283000Y-11062000D01*
X22163000Y-13077000D02*
X22313000Y-13227000D01*
X22313000Y-13077000D02*
X22163000Y-13227000D01*
X22238000Y-13077000D02*
X22238000Y-13227000D01*
X22163000Y-13152000D02*
X22313000Y-13152000D01*
X22179000Y-15195000D02*
X22329000Y-15345000D01*
X22329000Y-15195000D02*
X22179000Y-15345000D01*
X22254000Y-15195000D02*
X22254000Y-15345000D01*
X22179000Y-15270000D02*
X22329000Y-15270000D01*
X22179000Y-17317000D02*
X22329000Y-17467000D01*
X22329000Y-17317000D02*
X22179000Y-17467000D01*
X22254000Y-17317000D02*
X22254000Y-17467000D01*
X22179000Y-17392000D02*
X22329000Y-17392000D01*
X23434000Y-9361000D02*
X23584000Y-9511000D01*
X23584000Y-9361000D02*
X23434000Y-9511000D01*
X23509000Y-9361000D02*
X23509000Y-9511000D01*
X23434000Y-9436000D02*
X23584000Y-9436000D01*
X23444000Y-7221000D02*
X23594000Y-7371000D01*
X23594000Y-7221000D02*
X23444000Y-7371000D01*
X23519000Y-7221000D02*
X23519000Y-7371000D01*
X23444000Y-7296000D02*
X23594000Y-7296000D01*
X23628000Y-11471000D02*
X23778000Y-11621000D01*
X23778000Y-11471000D02*
X23628000Y-11621000D01*
X23703000Y-11471000D02*
X23703000Y-11621000D01*
X23628000Y-11546000D02*
X23778000Y-11546000D01*
X23644000Y-15679000D02*
X23794000Y-15829000D01*
X23794000Y-15679000D02*
X23644000Y-15829000D01*
X23719000Y-15679000D02*
X23719000Y-15829000D01*
X23644000Y-15754000D02*
X23794000Y-15754000D01*
X23646000Y-13561000D02*
X23796000Y-13711000D01*
X23796000Y-13561000D02*
X23646000Y-13711000D01*
X23721000Y-13561000D02*
X23721000Y-13711000D01*
X23646000Y-13636000D02*
X23796000Y-13636000D01*
X24069000Y-9107000D02*
X24219000Y-9257000D01*
X24219000Y-9107000D02*
X24069000Y-9257000D01*
X24144000Y-9107000D02*
X24144000Y-9257000D01*
X24069000Y-9182000D02*
X24219000Y-9182000D01*
X24079000Y-6967000D02*
X24229000Y-7117000D01*
X24229000Y-6967000D02*
X24079000Y-7117000D01*
X24154000Y-6967000D02*
X24154000Y-7117000D01*
X24079000Y-7042000D02*
X24229000Y-7042000D01*
X24263000Y-11217000D02*
X24413000Y-11367000D01*
X24413000Y-11217000D02*
X24263000Y-11367000D01*
X24338000Y-11217000D02*
X24338000Y-11367000D01*
X24263000Y-11292000D02*
X24413000Y-11292000D01*
X24279000Y-15425000D02*
X24429000Y-15575000D01*
X24429000Y-15425000D02*
X24279000Y-15575000D01*
X24354000Y-15425000D02*
X24354000Y-15575000D01*
X24279000Y-15500000D02*
X24429000Y-15500000D01*
X24281000Y-13307000D02*
X24431000Y-13457000D01*
X24431000Y-13307000D02*
X24281000Y-13457000D01*
X24356000Y-13307000D02*
X24356000Y-13457000D01*
X24281000Y-13382000D02*
X24431000Y-13382000D01*
X24468044Y-18631531D02*
X24618044Y-18781531D01*
X24618044Y-18631531D02*
X24468044Y-18781531D01*
X24543044Y-18631531D02*
X24543044Y-18781531D01*
X24468044Y-18706531D02*
X24618044Y-18706531D01*
X25144970Y-18729060D02*
X25294970Y-18879060D01*
X25294970Y-18729060D02*
X25144970Y-18879060D01*
X25219970Y-18729060D02*
X25219970Y-18879060D01*
X25144970Y-18804060D02*
X25294970Y-18804060D01*
X25544000Y-9371000D02*
X25694000Y-9521000D01*
X25694000Y-9371000D02*
X25544000Y-9521000D01*
X25619000Y-9371000D02*
X25619000Y-9521000D01*
X25544000Y-9446000D02*
X25694000Y-9446000D01*
X25644000Y-7251000D02*
X25794000Y-7401000D01*
X25794000Y-7251000D02*
X25644000Y-7401000D01*
X25719000Y-7251000D02*
X25719000Y-7401000D01*
X25644000Y-7326000D02*
X25794000Y-7326000D01*
X25736000Y-11471000D02*
X25886000Y-11621000D01*
X25886000Y-11471000D02*
X25736000Y-11621000D01*
X25811000Y-11471000D02*
X25811000Y-11621000D01*
X25736000Y-11546000D02*
X25886000Y-11546000D01*
X25744000Y-13571000D02*
X25894000Y-13721000D01*
X25894000Y-13571000D02*
X25744000Y-13721000D01*
X25819000Y-13571000D02*
X25819000Y-13721000D01*
X25744000Y-13646000D02*
X25894000Y-13646000D01*
X25744000Y-15679000D02*
X25894000Y-15829000D01*
X25894000Y-15679000D02*
X25744000Y-15829000D01*
X25819000Y-15679000D02*
X25819000Y-15829000D01*
X25744000Y-15754000D02*
X25894000Y-15754000D01*
X26179000Y-9117000D02*
X26329000Y-9267000D01*
X26329000Y-9117000D02*
X26179000Y-9267000D01*
X26254000Y-9117000D02*
X26254000Y-9267000D01*
X26179000Y-9192000D02*
X26329000Y-9192000D01*
X26276044Y-19686531D02*
X26426044Y-19836531D01*
X26426044Y-19686531D02*
X26276044Y-19836531D01*
X26351044Y-19686531D02*
X26351044Y-19836531D01*
X26276044Y-19761531D02*
X26426044Y-19761531D01*
X26279000Y-6997000D02*
X26429000Y-7147000D01*
X26429000Y-6997000D02*
X26279000Y-7147000D01*
X26354000Y-6997000D02*
X26354000Y-7147000D01*
X26279000Y-7072000D02*
X26429000Y-7072000D01*
X26371000Y-11217000D02*
X26521000Y-11367000D01*
X26521000Y-11217000D02*
X26371000Y-11367000D01*
X26446000Y-11217000D02*
X26446000Y-11367000D01*
X26371000Y-11292000D02*
X26521000Y-11292000D01*
X26379000Y-13317000D02*
X26529000Y-13467000D01*
X26529000Y-13317000D02*
X26379000Y-13467000D01*
X26454000Y-13317000D02*
X26454000Y-13467000D01*
X26379000Y-13392000D02*
X26529000Y-13392000D01*
X26379000Y-15425000D02*
X26529000Y-15575000D01*
X26529000Y-15425000D02*
X26379000Y-15575000D01*
X26454000Y-15425000D02*
X26454000Y-15575000D01*
X26379000Y-15500000D02*
X26529000Y-15500000D01*
X26952970Y-19784060D02*
X27102970Y-19934060D01*
X27102970Y-19784060D02*
X26952970Y-19934060D01*
X27027970Y-19784060D02*
X27027970Y-19934060D01*
X26952970Y-19859060D02*
X27102970Y-19859060D01*
X27322044Y-17914531D02*
X27472044Y-18064531D01*
X27472044Y-17914531D02*
X27322044Y-18064531D01*
X27397044Y-17914531D02*
X27397044Y-18064531D01*
X27322044Y-17989531D02*
X27472044Y-17989531D01*
X27717000Y-11971000D02*
X27867000Y-12121000D01*
X27867000Y-11971000D02*
X27717000Y-12121000D01*
X27792000Y-11971000D02*
X27792000Y-12121000D01*
X27717000Y-12046000D02*
X27867000Y-12046000D01*
X27735000Y-15071000D02*
X27885000Y-15221000D01*
X27885000Y-15071000D02*
X27735000Y-15221000D01*
X27810000Y-15071000D02*
X27810000Y-15221000D01*
X27735000Y-15146000D02*
X27885000Y-15146000D01*
X27824000Y-7241000D02*
X27974000Y-7391000D01*
X27974000Y-7241000D02*
X27824000Y-7391000D01*
X27899000Y-7241000D02*
X27899000Y-7391000D01*
X27824000Y-7316000D02*
X27974000Y-7316000D01*
X27844000Y-9371000D02*
X27994000Y-9521000D01*
X27994000Y-9371000D02*
X27844000Y-9521000D01*
X27919000Y-9371000D02*
X27919000Y-9521000D01*
X27844000Y-9446000D02*
X27994000Y-9446000D01*
X27971000Y-12606000D02*
X28121000Y-12756000D01*
X28121000Y-12606000D02*
X27971000Y-12756000D01*
X28046000Y-12606000D02*
X28046000Y-12756000D01*
X27971000Y-12681000D02*
X28121000Y-12681000D01*
X27989000Y-15706000D02*
X28139000Y-15856000D01*
X28139000Y-15706000D02*
X27989000Y-15856000D01*
X28064000Y-15706000D02*
X28064000Y-15856000D01*
X27989000Y-15781000D02*
X28139000Y-15781000D01*
X27998970Y-18012060D02*
X28148970Y-18162060D01*
X28148970Y-18012060D02*
X27998970Y-18162060D01*
X28073970Y-18012060D02*
X28073970Y-18162060D01*
X27998970Y-18087060D02*
X28148970Y-18087060D01*
X28125004Y-20725001D02*
X28275004Y-20875001D01*
X28275004Y-20725001D02*
X28125004Y-20875001D01*
X28200004Y-20725001D02*
X28200004Y-20875001D01*
X28125004Y-20800001D02*
X28275004Y-20800001D01*
X28459000Y-6987000D02*
X28609000Y-7137000D01*
X28609000Y-6987000D02*
X28459000Y-7137000D01*
X28534000Y-6987000D02*
X28534000Y-7137000D01*
X28459000Y-7062000D02*
X28609000Y-7062000D01*
X28479000Y-9117000D02*
X28629000Y-9267000D01*
X28629000Y-9117000D02*
X28479000Y-9267000D01*
X28554000Y-9117000D02*
X28554000Y-9267000D01*
X28479000Y-9192000D02*
X28629000Y-9192000D01*
X28801930Y-20822530D02*
X28951930Y-20972530D01*
X28951930Y-20822530D02*
X28801930Y-20972530D01*
X28876930Y-20822530D02*
X28876930Y-20972530D01*
X28801930Y-20897530D02*
X28951930Y-20897530D01*
X33757000Y-7255000D02*
X33907000Y-7405000D01*
X33907000Y-7255000D02*
X33757000Y-7405000D01*
X33832000Y-7255000D02*
X33832000Y-7405000D01*
X33757000Y-7330000D02*
X33907000Y-7330000D01*
X33807000Y-12033000D02*
X33957000Y-12183000D01*
X33957000Y-12033000D02*
X33807000Y-12183000D01*
X33882000Y-12033000D02*
X33882000Y-12183000D01*
X33807000Y-12108000D02*
X33957000Y-12108000D01*
X33809044Y-21161531D02*
X33959044Y-21311531D01*
X33959044Y-21161531D02*
X33809044Y-21311531D01*
X33884044Y-21161531D02*
X33884044Y-21311531D01*
X33809044Y-21236531D02*
X33959044Y-21236531D01*
X33817000Y-15071000D02*
X33967000Y-15221000D01*
X33967000Y-15071000D02*
X33817000Y-15221000D01*
X33892000Y-15071000D02*
X33892000Y-15221000D01*
X33817000Y-15146000D02*
X33967000Y-15146000D01*
X33944000Y-9379000D02*
X34094000Y-9529000D01*
X34094000Y-9379000D02*
X33944000Y-9529000D01*
X34019000Y-9379000D02*
X34019000Y-9529000D01*
X33944000Y-9454000D02*
X34094000Y-9454000D01*
X34061000Y-12668000D02*
X34211000Y-12818000D01*
X34211000Y-12668000D02*
X34061000Y-12818000D01*
X34136000Y-12668000D02*
X34136000Y-12818000D01*
X34061000Y-12743000D02*
X34211000Y-12743000D01*
X34071000Y-15706000D02*
X34221000Y-15856000D01*
X34221000Y-15706000D02*
X34071000Y-15856000D01*
X34146000Y-15706000D02*
X34146000Y-15856000D01*
X34071000Y-15781000D02*
X34221000Y-15781000D01*
X34231970Y-20624060D02*
X34381970Y-20774060D01*
X34381970Y-20624060D02*
X34231970Y-20774060D01*
X34306970Y-20624060D02*
X34306970Y-20774060D01*
X34231970Y-20699060D02*
X34381970Y-20699060D01*
X34392000Y-7001000D02*
X34542000Y-7151000D01*
X34542000Y-7001000D02*
X34392000Y-7151000D01*
X34467000Y-7001000D02*
X34467000Y-7151000D01*
X34392000Y-7076000D02*
X34542000Y-7076000D01*
X34568044Y-18295531D02*
X34718044Y-18445531D01*
X34718044Y-18295531D02*
X34568044Y-18445531D01*
X34643044Y-18295531D02*
X34643044Y-18445531D01*
X34568044Y-18370531D02*
X34718044Y-18370531D01*
X34579000Y-9125000D02*
X34729000Y-9275000D01*
X34729000Y-9125000D02*
X34579000Y-9275000D01*
X34654000Y-9125000D02*
X34654000Y-9275000D01*
X34579000Y-9200000D02*
X34729000Y-9200000D01*
X34990970Y-17758060D02*
X35140970Y-17908060D01*
X35140970Y-17758060D02*
X34990970Y-17908060D01*
X35065970Y-17758060D02*
X35065970Y-17908060D01*
X34990970Y-17833060D02*
X35140970Y-17833060D01*
X35615044Y-20071531D02*
X35765044Y-20221531D01*
X35765044Y-20071531D02*
X35615044Y-20221531D01*
X35690044Y-20071531D02*
X35690044Y-20221531D01*
X35615044Y-20146531D02*
X35765044Y-20146531D01*
X35844000Y-7245000D02*
X35994000Y-7395000D01*
X35994000Y-7245000D02*
X35844000Y-7395000D01*
X35919000Y-7245000D02*
X35919000Y-7395000D01*
X35844000Y-7320000D02*
X35994000Y-7320000D01*
X36011000Y-9369000D02*
X36161000Y-9519000D01*
X36161000Y-9369000D02*
X36011000Y-9519000D01*
X36086000Y-9369000D02*
X36086000Y-9519000D01*
X36011000Y-9444000D02*
X36161000Y-9444000D01*
X36037970Y-19534060D02*
X36187970Y-19684060D01*
X36187970Y-19534060D02*
X36037970Y-19684060D01*
X36112970Y-19534060D02*
X36112970Y-19684060D01*
X36037970Y-19609060D02*
X36187970Y-19609060D01*
X36157000Y-13779000D02*
X36307000Y-13929000D01*
X36307000Y-13779000D02*
X36157000Y-13929000D01*
X36232000Y-13779000D02*
X36232000Y-13929000D01*
X36157000Y-13854000D02*
X36307000Y-13854000D01*
X36177000Y-15871000D02*
X36327000Y-16021000D01*
X36327000Y-15871000D02*
X36177000Y-16021000D01*
X36252000Y-15871000D02*
X36252000Y-16021000D01*
X36177000Y-15946000D02*
X36327000Y-15946000D01*
X36187000Y-11579000D02*
X36337000Y-11729000D01*
X36337000Y-11579000D02*
X36187000Y-11729000D01*
X36262000Y-11579000D02*
X36262000Y-11729000D01*
X36187000Y-11654000D02*
X36337000Y-11654000D01*
X36479000Y-6991000D02*
X36629000Y-7141000D01*
X36629000Y-6991000D02*
X36479000Y-7141000D01*
X36554000Y-6991000D02*
X36554000Y-7141000D01*
X36479000Y-7066000D02*
X36629000Y-7066000D01*
X36646000Y-9115000D02*
X36796000Y-9265000D01*
X36796000Y-9115000D02*
X36646000Y-9265000D01*
X36721000Y-9115000D02*
X36721000Y-9265000D01*
X36646000Y-9190000D02*
X36796000Y-9190000D01*
X36792000Y-13525000D02*
X36942000Y-13675000D01*
X36942000Y-13525000D02*
X36792000Y-13675000D01*
X36867000Y-13525000D02*
X36867000Y-13675000D01*
X36792000Y-13600000D02*
X36942000Y-13600000D01*
X36812000Y-15617000D02*
X36962000Y-15767000D01*
X36962000Y-15617000D02*
X36812000Y-15767000D01*
X36887000Y-15617000D02*
X36887000Y-15767000D01*
X36812000Y-15692000D02*
X36962000Y-15692000D01*
X36822000Y-11325000D02*
X36972000Y-11475000D01*
X36972000Y-11325000D02*
X36822000Y-11475000D01*
X36897000Y-11325000D02*
X36897000Y-11475000D01*
X36822000Y-11400000D02*
X36972000Y-11400000D01*
X37468044Y-18995531D02*
X37618044Y-19145531D01*
X37618044Y-18995531D02*
X37468044Y-19145531D01*
X37543044Y-18995531D02*
X37543044Y-19145531D01*
X37468044Y-19070531D02*
X37618044Y-19070531D01*
X37890970Y-18458060D02*
X38040970Y-18608060D01*
X38040970Y-18458060D02*
X37890970Y-18608060D01*
X37965970Y-18458060D02*
X37965970Y-18608060D01*
X37890970Y-18533060D02*
X38040970Y-18533060D01*
X37978000Y-7255000D02*
X38128000Y-7405000D01*
X38128000Y-7255000D02*
X37978000Y-7405000D01*
X38053000Y-7255000D02*
X38053000Y-7405000D01*
X37978000Y-7330000D02*
X38128000Y-7330000D01*
X38111000Y-9345000D02*
X38261000Y-9495000D01*
X38261000Y-9345000D02*
X38111000Y-9495000D01*
X38186000Y-9345000D02*
X38186000Y-9495000D01*
X38111000Y-9420000D02*
X38261000Y-9420000D01*
X38244000Y-13769000D02*
X38394000Y-13919000D01*
X38394000Y-13769000D02*
X38244000Y-13919000D01*
X38319000Y-13769000D02*
X38319000Y-13919000D01*
X38244000Y-13844000D02*
X38394000Y-13844000D01*
X38344000Y-11555000D02*
X38494000Y-11705000D01*
X38494000Y-11555000D02*
X38344000Y-11705000D01*
X38419000Y-11555000D02*
X38419000Y-11705000D01*
X38344000Y-11630000D02*
X38494000Y-11630000D01*
X38344000Y-15851000D02*
X38494000Y-16001000D01*
X38494000Y-15851000D02*
X38344000Y-16001000D01*
X38419000Y-15851000D02*
X38419000Y-16001000D01*
X38344000Y-15926000D02*
X38494000Y-15926000D01*
X38613000Y-7001000D02*
X38763000Y-7151000D01*
X38763000Y-7001000D02*
X38613000Y-7151000D01*
X38688000Y-7001000D02*
X38688000Y-7151000D01*
X38613000Y-7076000D02*
X38763000Y-7076000D01*
X38746000Y-9091000D02*
X38896000Y-9241000D01*
X38896000Y-9091000D02*
X38746000Y-9241000D01*
X38821000Y-9091000D02*
X38821000Y-9241000D01*
X38746000Y-9166000D02*
X38896000Y-9166000D01*
X38879000Y-13515000D02*
X39029000Y-13665000D01*
X39029000Y-13515000D02*
X38879000Y-13665000D01*
X38954000Y-13515000D02*
X38954000Y-13665000D01*
X38879000Y-13590000D02*
X39029000Y-13590000D01*
X38979000Y-11301000D02*
X39129000Y-11451000D01*
X39129000Y-11301000D02*
X38979000Y-11451000D01*
X39054000Y-11301000D02*
X39054000Y-11451000D01*
X38979000Y-11376000D02*
X39129000Y-11376000D01*
X38979000Y-15597000D02*
X39129000Y-15747000D01*
X39129000Y-15597000D02*
X38979000Y-15747000D01*
X39054000Y-15597000D02*
X39054000Y-15747000D01*
X38979000Y-15672000D02*
X39129000Y-15672000D01*
X40152000Y-7257000D02*
X40302000Y-7407000D01*
X40302000Y-7257000D02*
X40152000Y-7407000D01*
X40227000Y-7257000D02*
X40227000Y-7407000D01*
X40152000Y-7332000D02*
X40302000Y-7332000D01*
X40211000Y-9145000D02*
X40361000Y-9295000D01*
X40361000Y-9145000D02*
X40211000Y-9295000D01*
X40286000Y-9145000D02*
X40286000Y-9295000D01*
X40211000Y-9220000D02*
X40361000Y-9220000D01*
X40325000Y-13529000D02*
X40475000Y-13679000D01*
X40475000Y-13529000D02*
X40325000Y-13679000D01*
X40400000Y-13529000D02*
X40400000Y-13679000D01*
X40325000Y-13604000D02*
X40475000Y-13604000D01*
X40444000Y-11255000D02*
X40594000Y-11405000D01*
X40594000Y-11255000D02*
X40444000Y-11405000D01*
X40519000Y-11255000D02*
X40519000Y-11405000D01*
X40444000Y-11330000D02*
X40594000Y-11330000D01*
X40444000Y-15641000D02*
X40594000Y-15791000D01*
X40594000Y-15641000D02*
X40444000Y-15791000D01*
X40519000Y-15641000D02*
X40519000Y-15791000D01*
X40444000Y-15716000D02*
X40594000Y-15716000D01*
X40444000Y-17779000D02*
X40594000Y-17929000D01*
X40594000Y-17779000D02*
X40444000Y-17929000D01*
X40519000Y-17779000D02*
X40519000Y-17929000D01*
X40444000Y-17854000D02*
X40594000Y-17854000D01*
X40787000Y-7003000D02*
X40937000Y-7153000D01*
X40937000Y-7003000D02*
X40787000Y-7153000D01*
X40862000Y-7003000D02*
X40862000Y-7153000D01*
X40787000Y-7078000D02*
X40937000Y-7078000D01*
X40846000Y-8891000D02*
X40996000Y-9041000D01*
X40996000Y-8891000D02*
X40846000Y-9041000D01*
X40921000Y-8891000D02*
X40921000Y-9041000D01*
X40846000Y-8966000D02*
X40996000Y-8966000D01*
X40960000Y-13275000D02*
X41110000Y-13425000D01*
X41110000Y-13275000D02*
X40960000Y-13425000D01*
X41035000Y-13275000D02*
X41035000Y-13425000D01*
X40960000Y-13350000D02*
X41110000Y-13350000D01*
X41079000Y-11001000D02*
X41229000Y-11151000D01*
X41229000Y-11001000D02*
X41079000Y-11151000D01*
X41154000Y-11001000D02*
X41154000Y-11151000D01*
X41079000Y-11076000D02*
X41229000Y-11076000D01*
X41079000Y-15387000D02*
X41229000Y-15537000D01*
X41229000Y-15387000D02*
X41079000Y-15537000D01*
X41154000Y-15387000D02*
X41154000Y-15537000D01*
X41079000Y-15462000D02*
X41229000Y-15462000D01*
X41079000Y-17525000D02*
X41229000Y-17675000D01*
X41229000Y-17525000D02*
X41079000Y-17675000D01*
X41154000Y-17525000D02*
X41154000Y-17675000D01*
X41079000Y-17600000D02*
X41229000Y-17600000D01*
X42311000Y-8919000D02*
X42461000Y-9069000D01*
X42461000Y-8919000D02*
X42311000Y-9069000D01*
X42386000Y-8919000D02*
X42386000Y-9069000D01*
X42311000Y-8994000D02*
X42461000Y-8994000D01*
X42344000Y-7265000D02*
X42494000Y-7415000D01*
X42494000Y-7265000D02*
X42344000Y-7415000D01*
X42419000Y-7265000D02*
X42419000Y-7415000D01*
X42344000Y-7340000D02*
X42494000Y-7340000D01*
X42444000Y-13309000D02*
X42594000Y-13459000D01*
X42594000Y-13309000D02*
X42444000Y-13459000D01*
X42519000Y-13309000D02*
X42519000Y-13459000D01*
X42444000Y-13384000D02*
X42594000Y-13384000D01*
X42544000Y-11109000D02*
X42694000Y-11259000D01*
X42694000Y-11109000D02*
X42544000Y-11259000D01*
X42619000Y-11109000D02*
X42619000Y-11259000D01*
X42544000Y-11184000D02*
X42694000Y-11184000D01*
X42544000Y-15393000D02*
X42694000Y-15543000D01*
X42694000Y-15393000D02*
X42544000Y-15543000D01*
X42619000Y-15393000D02*
X42619000Y-15543000D01*
X42544000Y-15468000D02*
X42694000Y-15468000D01*
X42551000Y-17519000D02*
X42701000Y-17669000D01*
X42701000Y-17519000D02*
X42551000Y-17669000D01*
X42626000Y-17519000D02*
X42626000Y-17669000D01*
X42551000Y-17594000D02*
X42701000Y-17594000D01*
X42946000Y-8665000D02*
X43096000Y-8815000D01*
X43096000Y-8665000D02*
X42946000Y-8815000D01*
X43021000Y-8665000D02*
X43021000Y-8815000D01*
X42946000Y-8740000D02*
X43096000Y-8740000D01*
X42979000Y-7011000D02*
X43129000Y-7161000D01*
X43129000Y-7011000D02*
X42979000Y-7161000D01*
X43054000Y-7011000D02*
X43054000Y-7161000D01*
X42979000Y-7086000D02*
X43129000Y-7086000D01*
X43079000Y-13055000D02*
X43229000Y-13205000D01*
X43229000Y-13055000D02*
X43079000Y-13205000D01*
X43154000Y-13055000D02*
X43154000Y-13205000D01*
X43079000Y-13130000D02*
X43229000Y-13130000D01*
X43179000Y-10855000D02*
X43329000Y-11005000D01*
X43329000Y-10855000D02*
X43179000Y-11005000D01*
X43254000Y-10855000D02*
X43254000Y-11005000D01*
X43179000Y-10930000D02*
X43329000Y-10930000D01*
X43179000Y-15139000D02*
X43329000Y-15289000D01*
X43329000Y-15139000D02*
X43179000Y-15289000D01*
X43254000Y-15139000D02*
X43254000Y-15289000D01*
X43179000Y-15214000D02*
X43329000Y-15214000D01*
X43186000Y-17265000D02*
X43336000Y-17415000D01*
X43336000Y-17265000D02*
X43186000Y-17415000D01*
X43261000Y-17265000D02*
X43261000Y-17415000D01*
X43186000Y-17340000D02*
X43336000Y-17340000D01*
X44411000Y-9379000D02*
X44561000Y-9529000D01*
X44561000Y-9379000D02*
X44411000Y-9529000D01*
X44486000Y-9379000D02*
X44486000Y-9529000D01*
X44411000Y-9454000D02*
X44561000Y-9454000D01*
X44444000Y-7271000D02*
X44594000Y-7421000D01*
X44594000Y-7271000D02*
X44444000Y-7421000D01*
X44519000Y-7271000D02*
X44519000Y-7421000D01*
X44444000Y-7346000D02*
X44594000Y-7346000D01*
X44544000Y-13575000D02*
X44694000Y-13725000D01*
X44694000Y-13575000D02*
X44544000Y-13725000D01*
X44619000Y-13575000D02*
X44619000Y-13725000D01*
X44544000Y-13650000D02*
X44694000Y-13650000D01*
X44644000Y-11569000D02*
X44794000Y-11719000D01*
X44794000Y-11569000D02*
X44644000Y-11719000D01*
X44719000Y-11569000D02*
X44719000Y-11719000D01*
X44644000Y-11644000D02*
X44794000Y-11644000D01*
X44644000Y-15651000D02*
X44794000Y-15801000D01*
X44794000Y-15651000D02*
X44644000Y-15801000D01*
X44719000Y-15651000D02*
X44719000Y-15801000D01*
X44644000Y-15726000D02*
X44794000Y-15726000D01*
X44651000Y-17789000D02*
X44801000Y-17939000D01*
X44801000Y-17789000D02*
X44651000Y-17939000D01*
X44726000Y-17789000D02*
X44726000Y-17939000D01*
X44651000Y-17864000D02*
X44801000Y-17864000D01*
X45046000Y-9125000D02*
X45196000Y-9275000D01*
X45196000Y-9125000D02*
X45046000Y-9275000D01*
X45121000Y-9125000D02*
X45121000Y-9275000D01*
X45046000Y-9200000D02*
X45196000Y-9200000D01*
X45079000Y-7017000D02*
X45229000Y-7167000D01*
X45229000Y-7017000D02*
X45079000Y-7167000D01*
X45154000Y-7017000D02*
X45154000Y-7167000D01*
X45079000Y-7092000D02*
X45229000Y-7092000D01*
X45179000Y-13321000D02*
X45329000Y-13471000D01*
X45329000Y-13321000D02*
X45179000Y-13471000D01*
X45254000Y-13321000D02*
X45254000Y-13471000D01*
X45179000Y-13396000D02*
X45329000Y-13396000D01*
X45279000Y-11315000D02*
X45429000Y-11465000D01*
X45429000Y-11315000D02*
X45279000Y-11465000D01*
X45354000Y-11315000D02*
X45354000Y-11465000D01*
X45279000Y-11390000D02*
X45429000Y-11390000D01*
X45279000Y-15397000D02*
X45429000Y-15547000D01*
X45429000Y-15397000D02*
X45279000Y-15547000D01*
X45354000Y-15397000D02*
X45354000Y-15547000D01*
X45279000Y-15472000D02*
X45429000Y-15472000D01*
X45286000Y-17535000D02*
X45436000Y-17685000D01*
X45436000Y-17535000D02*
X45286000Y-17685000D01*
X45361000Y-17535000D02*
X45361000Y-17685000D01*
X45286000Y-17610000D02*
X45436000Y-17610000D01*
X46511000Y-9629000D02*
X46661000Y-9779000D01*
X46661000Y-9629000D02*
X46511000Y-9779000D01*
X46586000Y-9629000D02*
X46586000Y-9779000D01*
X46511000Y-9704000D02*
X46661000Y-9704000D01*
X46544000Y-7255000D02*
X46694000Y-7405000D01*
X46694000Y-7255000D02*
X46544000Y-7405000D01*
X46619000Y-7255000D02*
X46619000Y-7405000D01*
X46544000Y-7330000D02*
X46694000Y-7330000D01*
X46644000Y-14009000D02*
X46794000Y-14159000D01*
X46794000Y-14009000D02*
X46644000Y-14159000D01*
X46719000Y-14009000D02*
X46719000Y-14159000D01*
X46644000Y-14084000D02*
X46794000Y-14084000D01*
X46744000Y-11855000D02*
X46894000Y-12005000D01*
X46894000Y-11855000D02*
X46744000Y-12005000D01*
X46819000Y-11855000D02*
X46819000Y-12005000D01*
X46744000Y-11930000D02*
X46894000Y-11930000D01*
X46744000Y-15997000D02*
X46894000Y-16147000D01*
X46894000Y-15997000D02*
X46744000Y-16147000D01*
X46819000Y-15997000D02*
X46819000Y-16147000D01*
X46744000Y-16072000D02*
X46894000Y-16072000D01*
X46751000Y-18179000D02*
X46901000Y-18329000D01*
X46901000Y-18179000D02*
X46751000Y-18329000D01*
X46826000Y-18179000D02*
X46826000Y-18329000D01*
X46751000Y-18254000D02*
X46901000Y-18254000D01*
X47146000Y-9375000D02*
X47296000Y-9525000D01*
X47296000Y-9375000D02*
X47146000Y-9525000D01*
X47221000Y-9375000D02*
X47221000Y-9525000D01*
X47146000Y-9450000D02*
X47296000Y-9450000D01*
X47179000Y-7001000D02*
X47329000Y-7151000D01*
X47329000Y-7001000D02*
X47179000Y-7151000D01*
X47254000Y-7001000D02*
X47254000Y-7151000D01*
X47179000Y-7076000D02*
X47329000Y-7076000D01*
X47279000Y-13755000D02*
X47429000Y-13905000D01*
X47429000Y-13755000D02*
X47279000Y-13905000D01*
X47354000Y-13755000D02*
X47354000Y-13905000D01*
X47279000Y-13830000D02*
X47429000Y-13830000D01*
X47379000Y-11601000D02*
X47529000Y-11751000D01*
X47529000Y-11601000D02*
X47379000Y-11751000D01*
X47454000Y-11601000D02*
X47454000Y-11751000D01*
X47379000Y-11676000D02*
X47529000Y-11676000D01*
X47379000Y-15743000D02*
X47529000Y-15893000D01*
X47529000Y-15743000D02*
X47379000Y-15893000D01*
X47454000Y-15743000D02*
X47454000Y-15893000D01*
X47379000Y-15818000D02*
X47529000Y-15818000D01*
X47386000Y-17925000D02*
X47536000Y-18075000D01*
X47536000Y-17925000D02*
X47386000Y-18075000D01*
X47461000Y-17925000D02*
X47461000Y-18075000D01*
X47386000Y-18000000D02*
X47536000Y-18000000D01*
X48951000Y-18179000D02*
X49101000Y-18329000D01*
X49101000Y-18179000D02*
X48951000Y-18329000D01*
X49026000Y-18179000D02*
X49026000Y-18329000D01*
X48951000Y-18254000D02*
X49101000Y-18254000D01*
X49319500Y-13851000D02*
X49469500Y-14001000D01*
X49469500Y-13851000D02*
X49319500Y-14001000D01*
X49394500Y-13851000D02*
X49394500Y-14001000D01*
X49319500Y-13926000D02*
X49469500Y-13926000D01*
X49329500Y-9625000D02*
X49479500Y-9775000D01*
X49479500Y-9625000D02*
X49329500Y-9775000D01*
X49404500Y-9625000D02*
X49404500Y-9775000D01*
X49329500Y-9700000D02*
X49479500Y-9700000D01*
X49329500Y-11759000D02*
X49479500Y-11909000D01*
X49479500Y-11759000D02*
X49329500Y-11909000D01*
X49404500Y-11759000D02*
X49404500Y-11909000D01*
X49329500Y-11834000D02*
X49479500Y-11834000D01*
X49349500Y-15951000D02*
X49499500Y-16101000D01*
X49499500Y-15951000D02*
X49349500Y-16101000D01*
X49424500Y-15951000D02*
X49424500Y-16101000D01*
X49349500Y-16026000D02*
X49499500Y-16026000D01*
X49586000Y-17925000D02*
X49736000Y-18075000D01*
X49736000Y-17925000D02*
X49586000Y-18075000D01*
X49661000Y-17925000D02*
X49661000Y-18075000D01*
X49586000Y-18000000D02*
X49736000Y-18000000D01*
X49954500Y-13597000D02*
X50104500Y-13747000D01*
X50104500Y-13597000D02*
X49954500Y-13747000D01*
X50029500Y-13597000D02*
X50029500Y-13747000D01*
X49954500Y-13672000D02*
X50104500Y-13672000D01*
X49964500Y-9371000D02*
X50114500Y-9521000D01*
X50114500Y-9371000D02*
X49964500Y-9521000D01*
X50039500Y-9371000D02*
X50039500Y-9521000D01*
X49964500Y-9446000D02*
X50114500Y-9446000D01*
X49964500Y-11505000D02*
X50114500Y-11655000D01*
X50114500Y-11505000D02*
X49964500Y-11655000D01*
X50039500Y-11505000D02*
X50039500Y-11655000D01*
X49964500Y-11580000D02*
X50114500Y-11580000D01*
X49984500Y-15697000D02*
X50134500Y-15847000D01*
X50134500Y-15697000D02*
X49984500Y-15847000D01*
X50059500Y-15697000D02*
X50059500Y-15847000D01*
X49984500Y-15772000D02*
X50134500Y-15772000D01*
D18*
X9835000Y-3185000D02*
X10265000Y-3615000D01*
X10265000Y-3185000D02*
X9835000Y-3615000D01*
X10202029Y-3552029D02*
X10202029Y-3247971D01*
X9897971Y-3247971D01*
X9897971Y-3552029D01*
X10202029Y-3552029D01*
X9835000Y-12685000D02*
X10265000Y-13115000D01*
X10265000Y-12685000D02*
X9835000Y-13115000D01*
X10202029Y-13052029D02*
X10202029Y-12747971D01*
X9897971Y-12747971D01*
X9897971Y-13052029D01*
X10202029Y-13052029D01*
X9875000Y-22585000D02*
X10305000Y-23015000D01*
X10305000Y-22585000D02*
X9875000Y-23015000D01*
X10242029Y-22952029D02*
X10242029Y-22647971D01*
X9937971Y-22647971D01*
X9937971Y-22952029D01*
X10242029Y-22952029D01*
X19545000Y-3195000D02*
X19975000Y-3625000D01*
X19975000Y-3195000D02*
X19545000Y-3625000D01*
X19912029Y-3562029D02*
X19912029Y-3257971D01*
X19607971Y-3257971D01*
X19607971Y-3562029D01*
X19912029Y-3562029D01*
X19625000Y-22585000D02*
X20055000Y-23015000D01*
X20055000Y-22585000D02*
X19625000Y-23015000D01*
X19992029Y-22952029D02*
X19992029Y-22647971D01*
X19687971Y-22647971D01*
X19687971Y-22952029D01*
X19992029Y-22952029D01*
X29875000Y-12665000D02*
X30305000Y-13095000D01*
X30305000Y-12665000D02*
X29875000Y-13095000D01*
X30242029Y-13032029D02*
X30242029Y-12727971D01*
X29937971Y-12727971D01*
X29937971Y-13032029D01*
X30242029Y-13032029D01*
X30005000Y-22565000D02*
X30435000Y-22995000D01*
X30435000Y-22565000D02*
X30005000Y-22995000D01*
X30372029Y-22932029D02*
X30372029Y-22627971D01*
X30067971Y-22627971D01*
X30067971Y-22932029D01*
X30372029Y-22932029D01*
X30060000Y-3045000D02*
X30490000Y-3475000D01*
X30490000Y-3045000D02*
X30060000Y-3475000D01*
X30427029Y-3412029D02*
X30427029Y-3107971D01*
X30122971Y-3107971D01*
X30122971Y-3412029D01*
X30427029Y-3412029D01*
X31985000Y-3050000D02*
X32415000Y-3480000D01*
X32415000Y-3050000D02*
X31985000Y-3480000D01*
X32352029Y-3417029D02*
X32352029Y-3112971D01*
X32047971Y-3112971D01*
X32047971Y-3417029D01*
X32352029Y-3417029D01*
X32140000Y-12675000D02*
X32570000Y-13105000D01*
X32570000Y-12675000D02*
X32140000Y-13105000D01*
X32507029Y-13042029D02*
X32507029Y-12737971D01*
X32202971Y-12737971D01*
X32202971Y-13042029D01*
X32507029Y-13042029D01*
X32260000Y-22585000D02*
X32690000Y-23015000D01*
X32690000Y-22585000D02*
X32260000Y-23015000D01*
X32627029Y-22952029D02*
X32627029Y-22647971D01*
X32322971Y-22647971D01*
X32322971Y-22952029D01*
X32627029Y-22952029D01*
X42440000Y-3050000D02*
X42870000Y-3480000D01*
X42870000Y-3050000D02*
X42440000Y-3480000D01*
X42807029Y-3417029D02*
X42807029Y-3112971D01*
X42502971Y-3112971D01*
X42502971Y-3417029D01*
X42807029Y-3417029D01*
X42525000Y-22730000D02*
X42955000Y-23160000D01*
X42955000Y-22730000D02*
X42525000Y-23160000D01*
X42892029Y-23097029D02*
X42892029Y-22792971D01*
X42587971Y-22792971D01*
X42587971Y-23097029D01*
X42892029Y-23097029D01*
X51885000Y-3045000D02*
X52315000Y-3475000D01*
X52315000Y-3045000D02*
X51885000Y-3475000D01*
X52252029Y-3412029D02*
X52252029Y-3107971D01*
X51947971Y-3107971D01*
X51947971Y-3412029D01*
X52252029Y-3412029D01*
X51885000Y-12685000D02*
X52315000Y-13115000D01*
X52315000Y-12685000D02*
X51885000Y-13115000D01*
X52252029Y-13052029D02*
X52252029Y-12747971D01*
X51947971Y-12747971D01*
X51947971Y-13052029D01*
X52252029Y-13052029D01*
X51885000Y-22730000D02*
X52315000Y-23160000D01*
X52315000Y-22730000D02*
X51885000Y-23160000D01*
X52252029Y-23097029D02*
X52252029Y-22792971D01*
X51947971Y-22792971D01*
X51947971Y-23097029D01*
X52252029Y-23097029D01*
D11*
X9642619Y-23808476D02*
X9642619Y-23608476D01*
X9642619Y-23608476D02*
X9690238Y-23608476D01*
X9690238Y-23608476D02*
X9718810Y-23618000D01*
X9718810Y-23618000D02*
X9737857Y-23637048D01*
X9737857Y-23637048D02*
X9747381Y-23656095D01*
X9747381Y-23656095D02*
X9756905Y-23694190D01*
X9756905Y-23694190D02*
X9756905Y-23722762D01*
X9756905Y-23722762D02*
X9747381Y-23760857D01*
X9747381Y-23760857D02*
X9737857Y-23779905D01*
X9737857Y-23779905D02*
X9718810Y-23798952D01*
X9718810Y-23798952D02*
X9690238Y-23808476D01*
X9690238Y-23808476D02*
X9642619Y-23808476D01*
X9842619Y-23808476D02*
X9842619Y-23675143D01*
X9842619Y-23713238D02*
X9852143Y-23694190D01*
X9852143Y-23694190D02*
X9861667Y-23684667D01*
X9861667Y-23684667D02*
X9880714Y-23675143D01*
X9880714Y-23675143D02*
X9899762Y-23675143D01*
X9966429Y-23808476D02*
X9966429Y-23675143D01*
X9966429Y-23608476D02*
X9956905Y-23618000D01*
X9956905Y-23618000D02*
X9966429Y-23627524D01*
X9966429Y-23627524D02*
X9975952Y-23618000D01*
X9975952Y-23618000D02*
X9966429Y-23608476D01*
X9966429Y-23608476D02*
X9966429Y-23627524D01*
X10090238Y-23808476D02*
X10071190Y-23798952D01*
X10071190Y-23798952D02*
X10061667Y-23779905D01*
X10061667Y-23779905D02*
X10061667Y-23608476D01*
X10195000Y-23808476D02*
X10175952Y-23798952D01*
X10175952Y-23798952D02*
X10166429Y-23779905D01*
X10166429Y-23779905D02*
X10166429Y-23608476D01*
X10391190Y-23808476D02*
X10391190Y-23608476D01*
X10391190Y-23608476D02*
X10457857Y-23751333D01*
X10457857Y-23751333D02*
X10524524Y-23608476D01*
X10524524Y-23608476D02*
X10524524Y-23808476D01*
X10705476Y-23808476D02*
X10705476Y-23703714D01*
X10705476Y-23703714D02*
X10695952Y-23684667D01*
X10695952Y-23684667D02*
X10676905Y-23675143D01*
X10676905Y-23675143D02*
X10638809Y-23675143D01*
X10638809Y-23675143D02*
X10619762Y-23684667D01*
X10705476Y-23798952D02*
X10686429Y-23808476D01*
X10686429Y-23808476D02*
X10638809Y-23808476D01*
X10638809Y-23808476D02*
X10619762Y-23798952D01*
X10619762Y-23798952D02*
X10610238Y-23779905D01*
X10610238Y-23779905D02*
X10610238Y-23760857D01*
X10610238Y-23760857D02*
X10619762Y-23741809D01*
X10619762Y-23741809D02*
X10638809Y-23732286D01*
X10638809Y-23732286D02*
X10686429Y-23732286D01*
X10686429Y-23732286D02*
X10705476Y-23722762D01*
X10800714Y-23675143D02*
X10800714Y-23875143D01*
X10800714Y-23684667D02*
X10819762Y-23675143D01*
X10819762Y-23675143D02*
X10857857Y-23675143D01*
X10857857Y-23675143D02*
X10876905Y-23684667D01*
X10876905Y-23684667D02*
X10886429Y-23694190D01*
X10886429Y-23694190D02*
X10895952Y-23713238D01*
X10895952Y-23713238D02*
X10895952Y-23770381D01*
X10895952Y-23770381D02*
X10886429Y-23789428D01*
X10886429Y-23789428D02*
X10876905Y-23798952D01*
X10876905Y-23798952D02*
X10857857Y-23808476D01*
X10857857Y-23808476D02*
X10819762Y-23808476D01*
X10819762Y-23808476D02*
X10800714Y-23798952D01*
X10981667Y-23789428D02*
X10991190Y-23798952D01*
X10991190Y-23798952D02*
X10981667Y-23808476D01*
X10981667Y-23808476D02*
X10972143Y-23798952D01*
X10972143Y-23798952D02*
X10981667Y-23789428D01*
X10981667Y-23789428D02*
X10981667Y-23808476D01*
X10981667Y-23684667D02*
X10991190Y-23694190D01*
X10991190Y-23694190D02*
X10981667Y-23703714D01*
X10981667Y-23703714D02*
X10972143Y-23694190D01*
X10972143Y-23694190D02*
X10981667Y-23684667D01*
X10981667Y-23684667D02*
X10981667Y-23703714D01*
D12*
X9355000Y-24135000D02*
X9395000Y-24175000D01*
X9395000Y-24135000D02*
X9355000Y-24175000D01*
D11*
X9680714Y-24028476D02*
X9699762Y-24028476D01*
X9699762Y-24028476D02*
X9718810Y-24038000D01*
X9718810Y-24038000D02*
X9728333Y-24047524D01*
X9728333Y-24047524D02*
X9737857Y-24066571D01*
X9737857Y-24066571D02*
X9747381Y-24104667D01*
X9747381Y-24104667D02*
X9747381Y-24152286D01*
X9747381Y-24152286D02*
X9737857Y-24190381D01*
X9737857Y-24190381D02*
X9728333Y-24209428D01*
X9728333Y-24209428D02*
X9718810Y-24218952D01*
X9718810Y-24218952D02*
X9699762Y-24228476D01*
X9699762Y-24228476D02*
X9680714Y-24228476D01*
X9680714Y-24228476D02*
X9661667Y-24218952D01*
X9661667Y-24218952D02*
X9652143Y-24209428D01*
X9652143Y-24209428D02*
X9642619Y-24190381D01*
X9642619Y-24190381D02*
X9633095Y-24152286D01*
X9633095Y-24152286D02*
X9633095Y-24104667D01*
X9633095Y-24104667D02*
X9642619Y-24066571D01*
X9642619Y-24066571D02*
X9652143Y-24047524D01*
X9652143Y-24047524D02*
X9661667Y-24038000D01*
X9661667Y-24038000D02*
X9680714Y-24028476D01*
X9833095Y-24209428D02*
X9842619Y-24218952D01*
X9842619Y-24218952D02*
X9833095Y-24228476D01*
X9833095Y-24228476D02*
X9823571Y-24218952D01*
X9823571Y-24218952D02*
X9833095Y-24209428D01*
X9833095Y-24209428D02*
X9833095Y-24228476D01*
X10014048Y-24095143D02*
X10014048Y-24228476D01*
X9966429Y-24018952D02*
X9918810Y-24161809D01*
X9918810Y-24161809D02*
X10042619Y-24161809D01*
X10156905Y-24028476D02*
X10175952Y-24028476D01*
X10175952Y-24028476D02*
X10195000Y-24038000D01*
X10195000Y-24038000D02*
X10204524Y-24047524D01*
X10204524Y-24047524D02*
X10214048Y-24066571D01*
X10214048Y-24066571D02*
X10223571Y-24104667D01*
X10223571Y-24104667D02*
X10223571Y-24152286D01*
X10223571Y-24152286D02*
X10214048Y-24190381D01*
X10214048Y-24190381D02*
X10204524Y-24209428D01*
X10204524Y-24209428D02*
X10195000Y-24218952D01*
X10195000Y-24218952D02*
X10175952Y-24228476D01*
X10175952Y-24228476D02*
X10156905Y-24228476D01*
X10156905Y-24228476D02*
X10137857Y-24218952D01*
X10137857Y-24218952D02*
X10128333Y-24209428D01*
X10128333Y-24209428D02*
X10118810Y-24190381D01*
X10118810Y-24190381D02*
X10109286Y-24152286D01*
X10109286Y-24152286D02*
X10109286Y-24104667D01*
X10109286Y-24104667D02*
X10118810Y-24066571D01*
X10118810Y-24066571D02*
X10128333Y-24047524D01*
X10128333Y-24047524D02*
X10137857Y-24038000D01*
X10137857Y-24038000D02*
X10156905Y-24028476D01*
X10347381Y-24028476D02*
X10366429Y-24028476D01*
X10366429Y-24028476D02*
X10385476Y-24038000D01*
X10385476Y-24038000D02*
X10395000Y-24047524D01*
X10395000Y-24047524D02*
X10404524Y-24066571D01*
X10404524Y-24066571D02*
X10414048Y-24104667D01*
X10414048Y-24104667D02*
X10414048Y-24152286D01*
X10414048Y-24152286D02*
X10404524Y-24190381D01*
X10404524Y-24190381D02*
X10395000Y-24209428D01*
X10395000Y-24209428D02*
X10385476Y-24218952D01*
X10385476Y-24218952D02*
X10366429Y-24228476D01*
X10366429Y-24228476D02*
X10347381Y-24228476D01*
X10347381Y-24228476D02*
X10328333Y-24218952D01*
X10328333Y-24218952D02*
X10318810Y-24209428D01*
X10318810Y-24209428D02*
X10309286Y-24190381D01*
X10309286Y-24190381D02*
X10299762Y-24152286D01*
X10299762Y-24152286D02*
X10299762Y-24104667D01*
X10299762Y-24104667D02*
X10309286Y-24066571D01*
X10309286Y-24066571D02*
X10318810Y-24047524D01*
X10318810Y-24047524D02*
X10328333Y-24038000D01*
X10328333Y-24038000D02*
X10347381Y-24028476D01*
X10499762Y-24228476D02*
X10499762Y-24095143D01*
X10499762Y-24114190D02*
X10509286Y-24104667D01*
X10509286Y-24104667D02*
X10528333Y-24095143D01*
X10528333Y-24095143D02*
X10556905Y-24095143D01*
X10556905Y-24095143D02*
X10575952Y-24104667D01*
X10575952Y-24104667D02*
X10585476Y-24123714D01*
X10585476Y-24123714D02*
X10585476Y-24228476D01*
X10585476Y-24123714D02*
X10595000Y-24104667D01*
X10595000Y-24104667D02*
X10614048Y-24095143D01*
X10614048Y-24095143D02*
X10642619Y-24095143D01*
X10642619Y-24095143D02*
X10661667Y-24104667D01*
X10661667Y-24104667D02*
X10671191Y-24123714D01*
X10671191Y-24123714D02*
X10671191Y-24228476D01*
X10766429Y-24228476D02*
X10766429Y-24095143D01*
X10766429Y-24114190D02*
X10775952Y-24104667D01*
X10775952Y-24104667D02*
X10795000Y-24095143D01*
X10795000Y-24095143D02*
X10823572Y-24095143D01*
X10823572Y-24095143D02*
X10842619Y-24104667D01*
X10842619Y-24104667D02*
X10852143Y-24123714D01*
X10852143Y-24123714D02*
X10852143Y-24228476D01*
X10852143Y-24123714D02*
X10861667Y-24104667D01*
X10861667Y-24104667D02*
X10880714Y-24095143D01*
X10880714Y-24095143D02*
X10909286Y-24095143D01*
X10909286Y-24095143D02*
X10928333Y-24104667D01*
X10928333Y-24104667D02*
X10937857Y-24123714D01*
X10937857Y-24123714D02*
X10937857Y-24228476D01*
X11295952Y-24018952D02*
X11124524Y-24276095D01*
X11520714Y-24028476D02*
X11539762Y-24028476D01*
X11539762Y-24028476D02*
X11558810Y-24038000D01*
X11558810Y-24038000D02*
X11568333Y-24047524D01*
X11568333Y-24047524D02*
X11577857Y-24066571D01*
X11577857Y-24066571D02*
X11587381Y-24104667D01*
X11587381Y-24104667D02*
X11587381Y-24152286D01*
X11587381Y-24152286D02*
X11577857Y-24190381D01*
X11577857Y-24190381D02*
X11568333Y-24209428D01*
X11568333Y-24209428D02*
X11558810Y-24218952D01*
X11558810Y-24218952D02*
X11539762Y-24228476D01*
X11539762Y-24228476D02*
X11520714Y-24228476D01*
X11520714Y-24228476D02*
X11501667Y-24218952D01*
X11501667Y-24218952D02*
X11492143Y-24209428D01*
X11492143Y-24209428D02*
X11482619Y-24190381D01*
X11482619Y-24190381D02*
X11473095Y-24152286D01*
X11473095Y-24152286D02*
X11473095Y-24104667D01*
X11473095Y-24104667D02*
X11482619Y-24066571D01*
X11482619Y-24066571D02*
X11492143Y-24047524D01*
X11492143Y-24047524D02*
X11501667Y-24038000D01*
X11501667Y-24038000D02*
X11520714Y-24028476D01*
X11673095Y-24209428D02*
X11682619Y-24218952D01*
X11682619Y-24218952D02*
X11673095Y-24228476D01*
X11673095Y-24228476D02*
X11663571Y-24218952D01*
X11663571Y-24218952D02*
X11673095Y-24209428D01*
X11673095Y-24209428D02*
X11673095Y-24228476D01*
X11806429Y-24028476D02*
X11825476Y-24028476D01*
X11825476Y-24028476D02*
X11844524Y-24038000D01*
X11844524Y-24038000D02*
X11854048Y-24047524D01*
X11854048Y-24047524D02*
X11863571Y-24066571D01*
X11863571Y-24066571D02*
X11873095Y-24104667D01*
X11873095Y-24104667D02*
X11873095Y-24152286D01*
X11873095Y-24152286D02*
X11863571Y-24190381D01*
X11863571Y-24190381D02*
X11854048Y-24209428D01*
X11854048Y-24209428D02*
X11844524Y-24218952D01*
X11844524Y-24218952D02*
X11825476Y-24228476D01*
X11825476Y-24228476D02*
X11806429Y-24228476D01*
X11806429Y-24228476D02*
X11787381Y-24218952D01*
X11787381Y-24218952D02*
X11777857Y-24209428D01*
X11777857Y-24209428D02*
X11768333Y-24190381D01*
X11768333Y-24190381D02*
X11758810Y-24152286D01*
X11758810Y-24152286D02*
X11758810Y-24104667D01*
X11758810Y-24104667D02*
X11768333Y-24066571D01*
X11768333Y-24066571D02*
X11777857Y-24047524D01*
X11777857Y-24047524D02*
X11787381Y-24038000D01*
X11787381Y-24038000D02*
X11806429Y-24028476D01*
X12063571Y-24228476D02*
X11949286Y-24228476D01*
X12006429Y-24228476D02*
X12006429Y-24028476D01*
X12006429Y-24028476D02*
X11987381Y-24057048D01*
X11987381Y-24057048D02*
X11968333Y-24076095D01*
X11968333Y-24076095D02*
X11949286Y-24085619D01*
X12244524Y-24028476D02*
X12149286Y-24028476D01*
X12149286Y-24028476D02*
X12139762Y-24123714D01*
X12139762Y-24123714D02*
X12149286Y-24114190D01*
X12149286Y-24114190D02*
X12168333Y-24104667D01*
X12168333Y-24104667D02*
X12215952Y-24104667D01*
X12215952Y-24104667D02*
X12235000Y-24114190D01*
X12235000Y-24114190D02*
X12244524Y-24123714D01*
X12244524Y-24123714D02*
X12254048Y-24142762D01*
X12254048Y-24142762D02*
X12254048Y-24190381D01*
X12254048Y-24190381D02*
X12244524Y-24209428D01*
X12244524Y-24209428D02*
X12235000Y-24218952D01*
X12235000Y-24218952D02*
X12215952Y-24228476D01*
X12215952Y-24228476D02*
X12168333Y-24228476D01*
X12168333Y-24228476D02*
X12149286Y-24218952D01*
X12149286Y-24218952D02*
X12139762Y-24209428D01*
X12320714Y-24028476D02*
X12454048Y-24028476D01*
X12454048Y-24028476D02*
X12368333Y-24228476D01*
X12520714Y-24028476D02*
X12520714Y-24066571D01*
X12596905Y-24028476D02*
X12596905Y-24066571D01*
X12859762Y-24304667D02*
X12850238Y-24295143D01*
X12850238Y-24295143D02*
X12831191Y-24266571D01*
X12831191Y-24266571D02*
X12821667Y-24247524D01*
X12821667Y-24247524D02*
X12812143Y-24218952D01*
X12812143Y-24218952D02*
X12802619Y-24171333D01*
X12802619Y-24171333D02*
X12802619Y-24133238D01*
X12802619Y-24133238D02*
X12812143Y-24085619D01*
X12812143Y-24085619D02*
X12821667Y-24057048D01*
X12821667Y-24057048D02*
X12831191Y-24038000D01*
X12831191Y-24038000D02*
X12850238Y-24009428D01*
X12850238Y-24009428D02*
X12859762Y-23999905D01*
X13040714Y-24228476D02*
X12926429Y-24228476D01*
X12983571Y-24228476D02*
X12983571Y-24028476D01*
X12983571Y-24028476D02*
X12964524Y-24057048D01*
X12964524Y-24057048D02*
X12945476Y-24076095D01*
X12945476Y-24076095D02*
X12926429Y-24085619D01*
X13212143Y-24095143D02*
X13212143Y-24228476D01*
X13164524Y-24018952D02*
X13116905Y-24161809D01*
X13116905Y-24161809D02*
X13240714Y-24161809D01*
X13412143Y-24028476D02*
X13316905Y-24028476D01*
X13316905Y-24028476D02*
X13307381Y-24123714D01*
X13307381Y-24123714D02*
X13316905Y-24114190D01*
X13316905Y-24114190D02*
X13335952Y-24104667D01*
X13335952Y-24104667D02*
X13383572Y-24104667D01*
X13383572Y-24104667D02*
X13402619Y-24114190D01*
X13402619Y-24114190D02*
X13412143Y-24123714D01*
X13412143Y-24123714D02*
X13421667Y-24142762D01*
X13421667Y-24142762D02*
X13421667Y-24190381D01*
X13421667Y-24190381D02*
X13412143Y-24209428D01*
X13412143Y-24209428D02*
X13402619Y-24218952D01*
X13402619Y-24218952D02*
X13383572Y-24228476D01*
X13383572Y-24228476D02*
X13335952Y-24228476D01*
X13335952Y-24228476D02*
X13316905Y-24218952D01*
X13316905Y-24218952D02*
X13307381Y-24209428D01*
X13627381Y-24228476D02*
X13627381Y-24028476D01*
X13713095Y-24228476D02*
X13713095Y-24123714D01*
X13713095Y-24123714D02*
X13703572Y-24104667D01*
X13703572Y-24104667D02*
X13684524Y-24095143D01*
X13684524Y-24095143D02*
X13655952Y-24095143D01*
X13655952Y-24095143D02*
X13636905Y-24104667D01*
X13636905Y-24104667D02*
X13627381Y-24114190D01*
X13836905Y-24228476D02*
X13817857Y-24218952D01*
X13817857Y-24218952D02*
X13808333Y-24209428D01*
X13808333Y-24209428D02*
X13798810Y-24190381D01*
X13798810Y-24190381D02*
X13798810Y-24133238D01*
X13798810Y-24133238D02*
X13808333Y-24114190D01*
X13808333Y-24114190D02*
X13817857Y-24104667D01*
X13817857Y-24104667D02*
X13836905Y-24095143D01*
X13836905Y-24095143D02*
X13865476Y-24095143D01*
X13865476Y-24095143D02*
X13884524Y-24104667D01*
X13884524Y-24104667D02*
X13894048Y-24114190D01*
X13894048Y-24114190D02*
X13903572Y-24133238D01*
X13903572Y-24133238D02*
X13903572Y-24190381D01*
X13903572Y-24190381D02*
X13894048Y-24209428D01*
X13894048Y-24209428D02*
X13884524Y-24218952D01*
X13884524Y-24218952D02*
X13865476Y-24228476D01*
X13865476Y-24228476D02*
X13836905Y-24228476D01*
X14017857Y-24228476D02*
X13998810Y-24218952D01*
X13998810Y-24218952D02*
X13989286Y-24199905D01*
X13989286Y-24199905D02*
X13989286Y-24028476D01*
X14170238Y-24218952D02*
X14151191Y-24228476D01*
X14151191Y-24228476D02*
X14113095Y-24228476D01*
X14113095Y-24228476D02*
X14094048Y-24218952D01*
X14094048Y-24218952D02*
X14084524Y-24199905D01*
X14084524Y-24199905D02*
X14084524Y-24123714D01*
X14084524Y-24123714D02*
X14094048Y-24104667D01*
X14094048Y-24104667D02*
X14113095Y-24095143D01*
X14113095Y-24095143D02*
X14151191Y-24095143D01*
X14151191Y-24095143D02*
X14170238Y-24104667D01*
X14170238Y-24104667D02*
X14179762Y-24123714D01*
X14179762Y-24123714D02*
X14179762Y-24142762D01*
X14179762Y-24142762D02*
X14084524Y-24161809D01*
X14255953Y-24218952D02*
X14275000Y-24228476D01*
X14275000Y-24228476D02*
X14313095Y-24228476D01*
X14313095Y-24228476D02*
X14332143Y-24218952D01*
X14332143Y-24218952D02*
X14341667Y-24199905D01*
X14341667Y-24199905D02*
X14341667Y-24190381D01*
X14341667Y-24190381D02*
X14332143Y-24171333D01*
X14332143Y-24171333D02*
X14313095Y-24161809D01*
X14313095Y-24161809D02*
X14284524Y-24161809D01*
X14284524Y-24161809D02*
X14265476Y-24152286D01*
X14265476Y-24152286D02*
X14255953Y-24133238D01*
X14255953Y-24133238D02*
X14255953Y-24123714D01*
X14255953Y-24123714D02*
X14265476Y-24104667D01*
X14265476Y-24104667D02*
X14284524Y-24095143D01*
X14284524Y-24095143D02*
X14313095Y-24095143D01*
X14313095Y-24095143D02*
X14332143Y-24104667D01*
X14408334Y-24304667D02*
X14417857Y-24295143D01*
X14417857Y-24295143D02*
X14436905Y-24266571D01*
X14436905Y-24266571D02*
X14446429Y-24247524D01*
X14446429Y-24247524D02*
X14455953Y-24218952D01*
X14455953Y-24218952D02*
X14465476Y-24171333D01*
X14465476Y-24171333D02*
X14465476Y-24133238D01*
X14465476Y-24133238D02*
X14455953Y-24085619D01*
X14455953Y-24085619D02*
X14446429Y-24057048D01*
X14446429Y-24057048D02*
X14436905Y-24038000D01*
X14436905Y-24038000D02*
X14417857Y-24009428D01*
X14417857Y-24009428D02*
X14408334Y-23999905D01*
D13*
X9395000Y-24419000D02*
G75*
G03*
X9395000Y-24419000I-37500J0D01*
G01*
D11*
X9680714Y-24292476D02*
X9699762Y-24292476D01*
X9699762Y-24292476D02*
X9718810Y-24302000D01*
X9718810Y-24302000D02*
X9728333Y-24311524D01*
X9728333Y-24311524D02*
X9737857Y-24330571D01*
X9737857Y-24330571D02*
X9747381Y-24368667D01*
X9747381Y-24368667D02*
X9747381Y-24416286D01*
X9747381Y-24416286D02*
X9737857Y-24454381D01*
X9737857Y-24454381D02*
X9728333Y-24473428D01*
X9728333Y-24473428D02*
X9718810Y-24482952D01*
X9718810Y-24482952D02*
X9699762Y-24492476D01*
X9699762Y-24492476D02*
X9680714Y-24492476D01*
X9680714Y-24492476D02*
X9661667Y-24482952D01*
X9661667Y-24482952D02*
X9652143Y-24473428D01*
X9652143Y-24473428D02*
X9642619Y-24454381D01*
X9642619Y-24454381D02*
X9633095Y-24416286D01*
X9633095Y-24416286D02*
X9633095Y-24368667D01*
X9633095Y-24368667D02*
X9642619Y-24330571D01*
X9642619Y-24330571D02*
X9652143Y-24311524D01*
X9652143Y-24311524D02*
X9661667Y-24302000D01*
X9661667Y-24302000D02*
X9680714Y-24292476D01*
X9833095Y-24473428D02*
X9842619Y-24482952D01*
X9842619Y-24482952D02*
X9833095Y-24492476D01*
X9833095Y-24492476D02*
X9823571Y-24482952D01*
X9823571Y-24482952D02*
X9833095Y-24473428D01*
X9833095Y-24473428D02*
X9833095Y-24492476D01*
X9909286Y-24292476D02*
X10042619Y-24292476D01*
X10042619Y-24292476D02*
X9956905Y-24492476D01*
X10214048Y-24292476D02*
X10118810Y-24292476D01*
X10118810Y-24292476D02*
X10109286Y-24387714D01*
X10109286Y-24387714D02*
X10118810Y-24378190D01*
X10118810Y-24378190D02*
X10137857Y-24368667D01*
X10137857Y-24368667D02*
X10185476Y-24368667D01*
X10185476Y-24368667D02*
X10204524Y-24378190D01*
X10204524Y-24378190D02*
X10214048Y-24387714D01*
X10214048Y-24387714D02*
X10223571Y-24406762D01*
X10223571Y-24406762D02*
X10223571Y-24454381D01*
X10223571Y-24454381D02*
X10214048Y-24473428D01*
X10214048Y-24473428D02*
X10204524Y-24482952D01*
X10204524Y-24482952D02*
X10185476Y-24492476D01*
X10185476Y-24492476D02*
X10137857Y-24492476D01*
X10137857Y-24492476D02*
X10118810Y-24482952D01*
X10118810Y-24482952D02*
X10109286Y-24473428D01*
X10347381Y-24292476D02*
X10366429Y-24292476D01*
X10366429Y-24292476D02*
X10385476Y-24302000D01*
X10385476Y-24302000D02*
X10395000Y-24311524D01*
X10395000Y-24311524D02*
X10404524Y-24330571D01*
X10404524Y-24330571D02*
X10414048Y-24368667D01*
X10414048Y-24368667D02*
X10414048Y-24416286D01*
X10414048Y-24416286D02*
X10404524Y-24454381D01*
X10404524Y-24454381D02*
X10395000Y-24473428D01*
X10395000Y-24473428D02*
X10385476Y-24482952D01*
X10385476Y-24482952D02*
X10366429Y-24492476D01*
X10366429Y-24492476D02*
X10347381Y-24492476D01*
X10347381Y-24492476D02*
X10328333Y-24482952D01*
X10328333Y-24482952D02*
X10318810Y-24473428D01*
X10318810Y-24473428D02*
X10309286Y-24454381D01*
X10309286Y-24454381D02*
X10299762Y-24416286D01*
X10299762Y-24416286D02*
X10299762Y-24368667D01*
X10299762Y-24368667D02*
X10309286Y-24330571D01*
X10309286Y-24330571D02*
X10318810Y-24311524D01*
X10318810Y-24311524D02*
X10328333Y-24302000D01*
X10328333Y-24302000D02*
X10347381Y-24292476D01*
X10499762Y-24492476D02*
X10499762Y-24359143D01*
X10499762Y-24378190D02*
X10509286Y-24368667D01*
X10509286Y-24368667D02*
X10528333Y-24359143D01*
X10528333Y-24359143D02*
X10556905Y-24359143D01*
X10556905Y-24359143D02*
X10575952Y-24368667D01*
X10575952Y-24368667D02*
X10585476Y-24387714D01*
X10585476Y-24387714D02*
X10585476Y-24492476D01*
X10585476Y-24387714D02*
X10595000Y-24368667D01*
X10595000Y-24368667D02*
X10614048Y-24359143D01*
X10614048Y-24359143D02*
X10642619Y-24359143D01*
X10642619Y-24359143D02*
X10661667Y-24368667D01*
X10661667Y-24368667D02*
X10671191Y-24387714D01*
X10671191Y-24387714D02*
X10671191Y-24492476D01*
X10766429Y-24492476D02*
X10766429Y-24359143D01*
X10766429Y-24378190D02*
X10775952Y-24368667D01*
X10775952Y-24368667D02*
X10795000Y-24359143D01*
X10795000Y-24359143D02*
X10823572Y-24359143D01*
X10823572Y-24359143D02*
X10842619Y-24368667D01*
X10842619Y-24368667D02*
X10852143Y-24387714D01*
X10852143Y-24387714D02*
X10852143Y-24492476D01*
X10852143Y-24387714D02*
X10861667Y-24368667D01*
X10861667Y-24368667D02*
X10880714Y-24359143D01*
X10880714Y-24359143D02*
X10909286Y-24359143D01*
X10909286Y-24359143D02*
X10928333Y-24368667D01*
X10928333Y-24368667D02*
X10937857Y-24387714D01*
X10937857Y-24387714D02*
X10937857Y-24492476D01*
X11295952Y-24282952D02*
X11124524Y-24540095D01*
X11520714Y-24292476D02*
X11539762Y-24292476D01*
X11539762Y-24292476D02*
X11558810Y-24302000D01*
X11558810Y-24302000D02*
X11568333Y-24311524D01*
X11568333Y-24311524D02*
X11577857Y-24330571D01*
X11577857Y-24330571D02*
X11587381Y-24368667D01*
X11587381Y-24368667D02*
X11587381Y-24416286D01*
X11587381Y-24416286D02*
X11577857Y-24454381D01*
X11577857Y-24454381D02*
X11568333Y-24473428D01*
X11568333Y-24473428D02*
X11558810Y-24482952D01*
X11558810Y-24482952D02*
X11539762Y-24492476D01*
X11539762Y-24492476D02*
X11520714Y-24492476D01*
X11520714Y-24492476D02*
X11501667Y-24482952D01*
X11501667Y-24482952D02*
X11492143Y-24473428D01*
X11492143Y-24473428D02*
X11482619Y-24454381D01*
X11482619Y-24454381D02*
X11473095Y-24416286D01*
X11473095Y-24416286D02*
X11473095Y-24368667D01*
X11473095Y-24368667D02*
X11482619Y-24330571D01*
X11482619Y-24330571D02*
X11492143Y-24311524D01*
X11492143Y-24311524D02*
X11501667Y-24302000D01*
X11501667Y-24302000D02*
X11520714Y-24292476D01*
X11673095Y-24473428D02*
X11682619Y-24482952D01*
X11682619Y-24482952D02*
X11673095Y-24492476D01*
X11673095Y-24492476D02*
X11663571Y-24482952D01*
X11663571Y-24482952D02*
X11673095Y-24473428D01*
X11673095Y-24473428D02*
X11673095Y-24492476D01*
X11806429Y-24292476D02*
X11825476Y-24292476D01*
X11825476Y-24292476D02*
X11844524Y-24302000D01*
X11844524Y-24302000D02*
X11854048Y-24311524D01*
X11854048Y-24311524D02*
X11863571Y-24330571D01*
X11863571Y-24330571D02*
X11873095Y-24368667D01*
X11873095Y-24368667D02*
X11873095Y-24416286D01*
X11873095Y-24416286D02*
X11863571Y-24454381D01*
X11863571Y-24454381D02*
X11854048Y-24473428D01*
X11854048Y-24473428D02*
X11844524Y-24482952D01*
X11844524Y-24482952D02*
X11825476Y-24492476D01*
X11825476Y-24492476D02*
X11806429Y-24492476D01*
X11806429Y-24492476D02*
X11787381Y-24482952D01*
X11787381Y-24482952D02*
X11777857Y-24473428D01*
X11777857Y-24473428D02*
X11768333Y-24454381D01*
X11768333Y-24454381D02*
X11758810Y-24416286D01*
X11758810Y-24416286D02*
X11758810Y-24368667D01*
X11758810Y-24368667D02*
X11768333Y-24330571D01*
X11768333Y-24330571D02*
X11777857Y-24311524D01*
X11777857Y-24311524D02*
X11787381Y-24302000D01*
X11787381Y-24302000D02*
X11806429Y-24292476D01*
X11949286Y-24311524D02*
X11958810Y-24302000D01*
X11958810Y-24302000D02*
X11977857Y-24292476D01*
X11977857Y-24292476D02*
X12025476Y-24292476D01*
X12025476Y-24292476D02*
X12044524Y-24302000D01*
X12044524Y-24302000D02*
X12054048Y-24311524D01*
X12054048Y-24311524D02*
X12063571Y-24330571D01*
X12063571Y-24330571D02*
X12063571Y-24349619D01*
X12063571Y-24349619D02*
X12054048Y-24378190D01*
X12054048Y-24378190D02*
X11939762Y-24492476D01*
X11939762Y-24492476D02*
X12063571Y-24492476D01*
X12158810Y-24492476D02*
X12196905Y-24492476D01*
X12196905Y-24492476D02*
X12215952Y-24482952D01*
X12215952Y-24482952D02*
X12225476Y-24473428D01*
X12225476Y-24473428D02*
X12244524Y-24444857D01*
X12244524Y-24444857D02*
X12254048Y-24406762D01*
X12254048Y-24406762D02*
X12254048Y-24330571D01*
X12254048Y-24330571D02*
X12244524Y-24311524D01*
X12244524Y-24311524D02*
X12235000Y-24302000D01*
X12235000Y-24302000D02*
X12215952Y-24292476D01*
X12215952Y-24292476D02*
X12177857Y-24292476D01*
X12177857Y-24292476D02*
X12158810Y-24302000D01*
X12158810Y-24302000D02*
X12149286Y-24311524D01*
X12149286Y-24311524D02*
X12139762Y-24330571D01*
X12139762Y-24330571D02*
X12139762Y-24378190D01*
X12139762Y-24378190D02*
X12149286Y-24397238D01*
X12149286Y-24397238D02*
X12158810Y-24406762D01*
X12158810Y-24406762D02*
X12177857Y-24416286D01*
X12177857Y-24416286D02*
X12215952Y-24416286D01*
X12215952Y-24416286D02*
X12235000Y-24406762D01*
X12235000Y-24406762D02*
X12244524Y-24397238D01*
X12244524Y-24397238D02*
X12254048Y-24378190D01*
X12435000Y-24292476D02*
X12339762Y-24292476D01*
X12339762Y-24292476D02*
X12330238Y-24387714D01*
X12330238Y-24387714D02*
X12339762Y-24378190D01*
X12339762Y-24378190D02*
X12358810Y-24368667D01*
X12358810Y-24368667D02*
X12406429Y-24368667D01*
X12406429Y-24368667D02*
X12425476Y-24378190D01*
X12425476Y-24378190D02*
X12435000Y-24387714D01*
X12435000Y-24387714D02*
X12444524Y-24406762D01*
X12444524Y-24406762D02*
X12444524Y-24454381D01*
X12444524Y-24454381D02*
X12435000Y-24473428D01*
X12435000Y-24473428D02*
X12425476Y-24482952D01*
X12425476Y-24482952D02*
X12406429Y-24492476D01*
X12406429Y-24492476D02*
X12358810Y-24492476D01*
X12358810Y-24492476D02*
X12339762Y-24482952D01*
X12339762Y-24482952D02*
X12330238Y-24473428D01*
X12520714Y-24292476D02*
X12520714Y-24330571D01*
X12596905Y-24292476D02*
X12596905Y-24330571D01*
X12859762Y-24568667D02*
X12850238Y-24559143D01*
X12850238Y-24559143D02*
X12831191Y-24530571D01*
X12831191Y-24530571D02*
X12821667Y-24511524D01*
X12821667Y-24511524D02*
X12812143Y-24482952D01*
X12812143Y-24482952D02*
X12802619Y-24435333D01*
X12802619Y-24435333D02*
X12802619Y-24397238D01*
X12802619Y-24397238D02*
X12812143Y-24349619D01*
X12812143Y-24349619D02*
X12821667Y-24321048D01*
X12821667Y-24321048D02*
X12831191Y-24302000D01*
X12831191Y-24302000D02*
X12850238Y-24273428D01*
X12850238Y-24273428D02*
X12859762Y-24263905D01*
X12964524Y-24378190D02*
X12945476Y-24368667D01*
X12945476Y-24368667D02*
X12935952Y-24359143D01*
X12935952Y-24359143D02*
X12926429Y-24340095D01*
X12926429Y-24340095D02*
X12926429Y-24330571D01*
X12926429Y-24330571D02*
X12935952Y-24311524D01*
X12935952Y-24311524D02*
X12945476Y-24302000D01*
X12945476Y-24302000D02*
X12964524Y-24292476D01*
X12964524Y-24292476D02*
X13002619Y-24292476D01*
X13002619Y-24292476D02*
X13021667Y-24302000D01*
X13021667Y-24302000D02*
X13031191Y-24311524D01*
X13031191Y-24311524D02*
X13040714Y-24330571D01*
X13040714Y-24330571D02*
X13040714Y-24340095D01*
X13040714Y-24340095D02*
X13031191Y-24359143D01*
X13031191Y-24359143D02*
X13021667Y-24368667D01*
X13021667Y-24368667D02*
X13002619Y-24378190D01*
X13002619Y-24378190D02*
X12964524Y-24378190D01*
X12964524Y-24378190D02*
X12945476Y-24387714D01*
X12945476Y-24387714D02*
X12935952Y-24397238D01*
X12935952Y-24397238D02*
X12926429Y-24416286D01*
X12926429Y-24416286D02*
X12926429Y-24454381D01*
X12926429Y-24454381D02*
X12935952Y-24473428D01*
X12935952Y-24473428D02*
X12945476Y-24482952D01*
X12945476Y-24482952D02*
X12964524Y-24492476D01*
X12964524Y-24492476D02*
X13002619Y-24492476D01*
X13002619Y-24492476D02*
X13021667Y-24482952D01*
X13021667Y-24482952D02*
X13031191Y-24473428D01*
X13031191Y-24473428D02*
X13040714Y-24454381D01*
X13040714Y-24454381D02*
X13040714Y-24416286D01*
X13040714Y-24416286D02*
X13031191Y-24397238D01*
X13031191Y-24397238D02*
X13021667Y-24387714D01*
X13021667Y-24387714D02*
X13002619Y-24378190D01*
X13246429Y-24492476D02*
X13246429Y-24292476D01*
X13332143Y-24492476D02*
X13332143Y-24387714D01*
X13332143Y-24387714D02*
X13322619Y-24368667D01*
X13322619Y-24368667D02*
X13303572Y-24359143D01*
X13303572Y-24359143D02*
X13275000Y-24359143D01*
X13275000Y-24359143D02*
X13255952Y-24368667D01*
X13255952Y-24368667D02*
X13246429Y-24378190D01*
X13455952Y-24492476D02*
X13436905Y-24482952D01*
X13436905Y-24482952D02*
X13427381Y-24473428D01*
X13427381Y-24473428D02*
X13417857Y-24454381D01*
X13417857Y-24454381D02*
X13417857Y-24397238D01*
X13417857Y-24397238D02*
X13427381Y-24378190D01*
X13427381Y-24378190D02*
X13436905Y-24368667D01*
X13436905Y-24368667D02*
X13455952Y-24359143D01*
X13455952Y-24359143D02*
X13484524Y-24359143D01*
X13484524Y-24359143D02*
X13503572Y-24368667D01*
X13503572Y-24368667D02*
X13513095Y-24378190D01*
X13513095Y-24378190D02*
X13522619Y-24397238D01*
X13522619Y-24397238D02*
X13522619Y-24454381D01*
X13522619Y-24454381D02*
X13513095Y-24473428D01*
X13513095Y-24473428D02*
X13503572Y-24482952D01*
X13503572Y-24482952D02*
X13484524Y-24492476D01*
X13484524Y-24492476D02*
X13455952Y-24492476D01*
X13636905Y-24492476D02*
X13617857Y-24482952D01*
X13617857Y-24482952D02*
X13608333Y-24463905D01*
X13608333Y-24463905D02*
X13608333Y-24292476D01*
X13789286Y-24482952D02*
X13770238Y-24492476D01*
X13770238Y-24492476D02*
X13732143Y-24492476D01*
X13732143Y-24492476D02*
X13713095Y-24482952D01*
X13713095Y-24482952D02*
X13703572Y-24463905D01*
X13703572Y-24463905D02*
X13703572Y-24387714D01*
X13703572Y-24387714D02*
X13713095Y-24368667D01*
X13713095Y-24368667D02*
X13732143Y-24359143D01*
X13732143Y-24359143D02*
X13770238Y-24359143D01*
X13770238Y-24359143D02*
X13789286Y-24368667D01*
X13789286Y-24368667D02*
X13798810Y-24387714D01*
X13798810Y-24387714D02*
X13798810Y-24406762D01*
X13798810Y-24406762D02*
X13703572Y-24425809D01*
X13875000Y-24482952D02*
X13894048Y-24492476D01*
X13894048Y-24492476D02*
X13932143Y-24492476D01*
X13932143Y-24492476D02*
X13951191Y-24482952D01*
X13951191Y-24482952D02*
X13960714Y-24463905D01*
X13960714Y-24463905D02*
X13960714Y-24454381D01*
X13960714Y-24454381D02*
X13951191Y-24435333D01*
X13951191Y-24435333D02*
X13932143Y-24425809D01*
X13932143Y-24425809D02*
X13903572Y-24425809D01*
X13903572Y-24425809D02*
X13884524Y-24416286D01*
X13884524Y-24416286D02*
X13875000Y-24397238D01*
X13875000Y-24397238D02*
X13875000Y-24387714D01*
X13875000Y-24387714D02*
X13884524Y-24368667D01*
X13884524Y-24368667D02*
X13903572Y-24359143D01*
X13903572Y-24359143D02*
X13932143Y-24359143D01*
X13932143Y-24359143D02*
X13951191Y-24368667D01*
X14027381Y-24568667D02*
X14036905Y-24559143D01*
X14036905Y-24559143D02*
X14055953Y-24530571D01*
X14055953Y-24530571D02*
X14065476Y-24511524D01*
X14065476Y-24511524D02*
X14075000Y-24482952D01*
X14075000Y-24482952D02*
X14084524Y-24435333D01*
X14084524Y-24435333D02*
X14084524Y-24397238D01*
X14084524Y-24397238D02*
X14075000Y-24349619D01*
X14075000Y-24349619D02*
X14065476Y-24321048D01*
X14065476Y-24321048D02*
X14055953Y-24302000D01*
X14055953Y-24302000D02*
X14036905Y-24273428D01*
X14036905Y-24273428D02*
X14027381Y-24263905D01*
D14*
X9350000Y-24638000D02*
X9350000Y-24728000D01*
X9305000Y-24683000D02*
X9395000Y-24683000D01*
D11*
X9680714Y-24556476D02*
X9699762Y-24556476D01*
X9699762Y-24556476D02*
X9718810Y-24566000D01*
X9718810Y-24566000D02*
X9728333Y-24575524D01*
X9728333Y-24575524D02*
X9737857Y-24594571D01*
X9737857Y-24594571D02*
X9747381Y-24632667D01*
X9747381Y-24632667D02*
X9747381Y-24680286D01*
X9747381Y-24680286D02*
X9737857Y-24718381D01*
X9737857Y-24718381D02*
X9728333Y-24737428D01*
X9728333Y-24737428D02*
X9718810Y-24746952D01*
X9718810Y-24746952D02*
X9699762Y-24756476D01*
X9699762Y-24756476D02*
X9680714Y-24756476D01*
X9680714Y-24756476D02*
X9661667Y-24746952D01*
X9661667Y-24746952D02*
X9652143Y-24737428D01*
X9652143Y-24737428D02*
X9642619Y-24718381D01*
X9642619Y-24718381D02*
X9633095Y-24680286D01*
X9633095Y-24680286D02*
X9633095Y-24632667D01*
X9633095Y-24632667D02*
X9642619Y-24594571D01*
X9642619Y-24594571D02*
X9652143Y-24575524D01*
X9652143Y-24575524D02*
X9661667Y-24566000D01*
X9661667Y-24566000D02*
X9680714Y-24556476D01*
X9833095Y-24737428D02*
X9842619Y-24746952D01*
X9842619Y-24746952D02*
X9833095Y-24756476D01*
X9833095Y-24756476D02*
X9823571Y-24746952D01*
X9823571Y-24746952D02*
X9833095Y-24737428D01*
X9833095Y-24737428D02*
X9833095Y-24756476D01*
X9937857Y-24756476D02*
X9975952Y-24756476D01*
X9975952Y-24756476D02*
X9995000Y-24746952D01*
X9995000Y-24746952D02*
X10004524Y-24737428D01*
X10004524Y-24737428D02*
X10023571Y-24708857D01*
X10023571Y-24708857D02*
X10033095Y-24670762D01*
X10033095Y-24670762D02*
X10033095Y-24594571D01*
X10033095Y-24594571D02*
X10023571Y-24575524D01*
X10023571Y-24575524D02*
X10014048Y-24566000D01*
X10014048Y-24566000D02*
X9995000Y-24556476D01*
X9995000Y-24556476D02*
X9956905Y-24556476D01*
X9956905Y-24556476D02*
X9937857Y-24566000D01*
X9937857Y-24566000D02*
X9928333Y-24575524D01*
X9928333Y-24575524D02*
X9918810Y-24594571D01*
X9918810Y-24594571D02*
X9918810Y-24642190D01*
X9918810Y-24642190D02*
X9928333Y-24661238D01*
X9928333Y-24661238D02*
X9937857Y-24670762D01*
X9937857Y-24670762D02*
X9956905Y-24680286D01*
X9956905Y-24680286D02*
X9995000Y-24680286D01*
X9995000Y-24680286D02*
X10014048Y-24670762D01*
X10014048Y-24670762D02*
X10023571Y-24661238D01*
X10023571Y-24661238D02*
X10033095Y-24642190D01*
X10156905Y-24556476D02*
X10175952Y-24556476D01*
X10175952Y-24556476D02*
X10195000Y-24566000D01*
X10195000Y-24566000D02*
X10204524Y-24575524D01*
X10204524Y-24575524D02*
X10214048Y-24594571D01*
X10214048Y-24594571D02*
X10223571Y-24632667D01*
X10223571Y-24632667D02*
X10223571Y-24680286D01*
X10223571Y-24680286D02*
X10214048Y-24718381D01*
X10214048Y-24718381D02*
X10204524Y-24737428D01*
X10204524Y-24737428D02*
X10195000Y-24746952D01*
X10195000Y-24746952D02*
X10175952Y-24756476D01*
X10175952Y-24756476D02*
X10156905Y-24756476D01*
X10156905Y-24756476D02*
X10137857Y-24746952D01*
X10137857Y-24746952D02*
X10128333Y-24737428D01*
X10128333Y-24737428D02*
X10118810Y-24718381D01*
X10118810Y-24718381D02*
X10109286Y-24680286D01*
X10109286Y-24680286D02*
X10109286Y-24632667D01*
X10109286Y-24632667D02*
X10118810Y-24594571D01*
X10118810Y-24594571D02*
X10128333Y-24575524D01*
X10128333Y-24575524D02*
X10137857Y-24566000D01*
X10137857Y-24566000D02*
X10156905Y-24556476D01*
X10347381Y-24556476D02*
X10366429Y-24556476D01*
X10366429Y-24556476D02*
X10385476Y-24566000D01*
X10385476Y-24566000D02*
X10395000Y-24575524D01*
X10395000Y-24575524D02*
X10404524Y-24594571D01*
X10404524Y-24594571D02*
X10414048Y-24632667D01*
X10414048Y-24632667D02*
X10414048Y-24680286D01*
X10414048Y-24680286D02*
X10404524Y-24718381D01*
X10404524Y-24718381D02*
X10395000Y-24737428D01*
X10395000Y-24737428D02*
X10385476Y-24746952D01*
X10385476Y-24746952D02*
X10366429Y-24756476D01*
X10366429Y-24756476D02*
X10347381Y-24756476D01*
X10347381Y-24756476D02*
X10328333Y-24746952D01*
X10328333Y-24746952D02*
X10318810Y-24737428D01*
X10318810Y-24737428D02*
X10309286Y-24718381D01*
X10309286Y-24718381D02*
X10299762Y-24680286D01*
X10299762Y-24680286D02*
X10299762Y-24632667D01*
X10299762Y-24632667D02*
X10309286Y-24594571D01*
X10309286Y-24594571D02*
X10318810Y-24575524D01*
X10318810Y-24575524D02*
X10328333Y-24566000D01*
X10328333Y-24566000D02*
X10347381Y-24556476D01*
X10499762Y-24756476D02*
X10499762Y-24623143D01*
X10499762Y-24642190D02*
X10509286Y-24632667D01*
X10509286Y-24632667D02*
X10528333Y-24623143D01*
X10528333Y-24623143D02*
X10556905Y-24623143D01*
X10556905Y-24623143D02*
X10575952Y-24632667D01*
X10575952Y-24632667D02*
X10585476Y-24651714D01*
X10585476Y-24651714D02*
X10585476Y-24756476D01*
X10585476Y-24651714D02*
X10595000Y-24632667D01*
X10595000Y-24632667D02*
X10614048Y-24623143D01*
X10614048Y-24623143D02*
X10642619Y-24623143D01*
X10642619Y-24623143D02*
X10661667Y-24632667D01*
X10661667Y-24632667D02*
X10671191Y-24651714D01*
X10671191Y-24651714D02*
X10671191Y-24756476D01*
X10766429Y-24756476D02*
X10766429Y-24623143D01*
X10766429Y-24642190D02*
X10775952Y-24632667D01*
X10775952Y-24632667D02*
X10795000Y-24623143D01*
X10795000Y-24623143D02*
X10823572Y-24623143D01*
X10823572Y-24623143D02*
X10842619Y-24632667D01*
X10842619Y-24632667D02*
X10852143Y-24651714D01*
X10852143Y-24651714D02*
X10852143Y-24756476D01*
X10852143Y-24651714D02*
X10861667Y-24632667D01*
X10861667Y-24632667D02*
X10880714Y-24623143D01*
X10880714Y-24623143D02*
X10909286Y-24623143D01*
X10909286Y-24623143D02*
X10928333Y-24632667D01*
X10928333Y-24632667D02*
X10937857Y-24651714D01*
X10937857Y-24651714D02*
X10937857Y-24756476D01*
X11295952Y-24546952D02*
X11124524Y-24804095D01*
X11520714Y-24556476D02*
X11539762Y-24556476D01*
X11539762Y-24556476D02*
X11558810Y-24566000D01*
X11558810Y-24566000D02*
X11568333Y-24575524D01*
X11568333Y-24575524D02*
X11577857Y-24594571D01*
X11577857Y-24594571D02*
X11587381Y-24632667D01*
X11587381Y-24632667D02*
X11587381Y-24680286D01*
X11587381Y-24680286D02*
X11577857Y-24718381D01*
X11577857Y-24718381D02*
X11568333Y-24737428D01*
X11568333Y-24737428D02*
X11558810Y-24746952D01*
X11558810Y-24746952D02*
X11539762Y-24756476D01*
X11539762Y-24756476D02*
X11520714Y-24756476D01*
X11520714Y-24756476D02*
X11501667Y-24746952D01*
X11501667Y-24746952D02*
X11492143Y-24737428D01*
X11492143Y-24737428D02*
X11482619Y-24718381D01*
X11482619Y-24718381D02*
X11473095Y-24680286D01*
X11473095Y-24680286D02*
X11473095Y-24632667D01*
X11473095Y-24632667D02*
X11482619Y-24594571D01*
X11482619Y-24594571D02*
X11492143Y-24575524D01*
X11492143Y-24575524D02*
X11501667Y-24566000D01*
X11501667Y-24566000D02*
X11520714Y-24556476D01*
X11673095Y-24737428D02*
X11682619Y-24746952D01*
X11682619Y-24746952D02*
X11673095Y-24756476D01*
X11673095Y-24756476D02*
X11663571Y-24746952D01*
X11663571Y-24746952D02*
X11673095Y-24737428D01*
X11673095Y-24737428D02*
X11673095Y-24756476D01*
X11806429Y-24556476D02*
X11825476Y-24556476D01*
X11825476Y-24556476D02*
X11844524Y-24566000D01*
X11844524Y-24566000D02*
X11854048Y-24575524D01*
X11854048Y-24575524D02*
X11863571Y-24594571D01*
X11863571Y-24594571D02*
X11873095Y-24632667D01*
X11873095Y-24632667D02*
X11873095Y-24680286D01*
X11873095Y-24680286D02*
X11863571Y-24718381D01*
X11863571Y-24718381D02*
X11854048Y-24737428D01*
X11854048Y-24737428D02*
X11844524Y-24746952D01*
X11844524Y-24746952D02*
X11825476Y-24756476D01*
X11825476Y-24756476D02*
X11806429Y-24756476D01*
X11806429Y-24756476D02*
X11787381Y-24746952D01*
X11787381Y-24746952D02*
X11777857Y-24737428D01*
X11777857Y-24737428D02*
X11768333Y-24718381D01*
X11768333Y-24718381D02*
X11758810Y-24680286D01*
X11758810Y-24680286D02*
X11758810Y-24632667D01*
X11758810Y-24632667D02*
X11768333Y-24594571D01*
X11768333Y-24594571D02*
X11777857Y-24575524D01*
X11777857Y-24575524D02*
X11787381Y-24566000D01*
X11787381Y-24566000D02*
X11806429Y-24556476D01*
X11939762Y-24556476D02*
X12063571Y-24556476D01*
X12063571Y-24556476D02*
X11996905Y-24632667D01*
X11996905Y-24632667D02*
X12025476Y-24632667D01*
X12025476Y-24632667D02*
X12044524Y-24642190D01*
X12044524Y-24642190D02*
X12054048Y-24651714D01*
X12054048Y-24651714D02*
X12063571Y-24670762D01*
X12063571Y-24670762D02*
X12063571Y-24718381D01*
X12063571Y-24718381D02*
X12054048Y-24737428D01*
X12054048Y-24737428D02*
X12044524Y-24746952D01*
X12044524Y-24746952D02*
X12025476Y-24756476D01*
X12025476Y-24756476D02*
X11968333Y-24756476D01*
X11968333Y-24756476D02*
X11949286Y-24746952D01*
X11949286Y-24746952D02*
X11939762Y-24737428D01*
X12244524Y-24556476D02*
X12149286Y-24556476D01*
X12149286Y-24556476D02*
X12139762Y-24651714D01*
X12139762Y-24651714D02*
X12149286Y-24642190D01*
X12149286Y-24642190D02*
X12168333Y-24632667D01*
X12168333Y-24632667D02*
X12215952Y-24632667D01*
X12215952Y-24632667D02*
X12235000Y-24642190D01*
X12235000Y-24642190D02*
X12244524Y-24651714D01*
X12244524Y-24651714D02*
X12254048Y-24670762D01*
X12254048Y-24670762D02*
X12254048Y-24718381D01*
X12254048Y-24718381D02*
X12244524Y-24737428D01*
X12244524Y-24737428D02*
X12235000Y-24746952D01*
X12235000Y-24746952D02*
X12215952Y-24756476D01*
X12215952Y-24756476D02*
X12168333Y-24756476D01*
X12168333Y-24756476D02*
X12149286Y-24746952D01*
X12149286Y-24746952D02*
X12139762Y-24737428D01*
X12425476Y-24623143D02*
X12425476Y-24756476D01*
X12377857Y-24546952D02*
X12330238Y-24689809D01*
X12330238Y-24689809D02*
X12454048Y-24689809D01*
X12520714Y-24556476D02*
X12520714Y-24594571D01*
X12596905Y-24556476D02*
X12596905Y-24594571D01*
X12859762Y-24832667D02*
X12850238Y-24823143D01*
X12850238Y-24823143D02*
X12831191Y-24794571D01*
X12831191Y-24794571D02*
X12821667Y-24775524D01*
X12821667Y-24775524D02*
X12812143Y-24746952D01*
X12812143Y-24746952D02*
X12802619Y-24699333D01*
X12802619Y-24699333D02*
X12802619Y-24661238D01*
X12802619Y-24661238D02*
X12812143Y-24613619D01*
X12812143Y-24613619D02*
X12821667Y-24585048D01*
X12821667Y-24585048D02*
X12831191Y-24566000D01*
X12831191Y-24566000D02*
X12850238Y-24537428D01*
X12850238Y-24537428D02*
X12859762Y-24527905D01*
X12964524Y-24642190D02*
X12945476Y-24632667D01*
X12945476Y-24632667D02*
X12935952Y-24623143D01*
X12935952Y-24623143D02*
X12926429Y-24604095D01*
X12926429Y-24604095D02*
X12926429Y-24594571D01*
X12926429Y-24594571D02*
X12935952Y-24575524D01*
X12935952Y-24575524D02*
X12945476Y-24566000D01*
X12945476Y-24566000D02*
X12964524Y-24556476D01*
X12964524Y-24556476D02*
X13002619Y-24556476D01*
X13002619Y-24556476D02*
X13021667Y-24566000D01*
X13021667Y-24566000D02*
X13031191Y-24575524D01*
X13031191Y-24575524D02*
X13040714Y-24594571D01*
X13040714Y-24594571D02*
X13040714Y-24604095D01*
X13040714Y-24604095D02*
X13031191Y-24623143D01*
X13031191Y-24623143D02*
X13021667Y-24632667D01*
X13021667Y-24632667D02*
X13002619Y-24642190D01*
X13002619Y-24642190D02*
X12964524Y-24642190D01*
X12964524Y-24642190D02*
X12945476Y-24651714D01*
X12945476Y-24651714D02*
X12935952Y-24661238D01*
X12935952Y-24661238D02*
X12926429Y-24680286D01*
X12926429Y-24680286D02*
X12926429Y-24718381D01*
X12926429Y-24718381D02*
X12935952Y-24737428D01*
X12935952Y-24737428D02*
X12945476Y-24746952D01*
X12945476Y-24746952D02*
X12964524Y-24756476D01*
X12964524Y-24756476D02*
X13002619Y-24756476D01*
X13002619Y-24756476D02*
X13021667Y-24746952D01*
X13021667Y-24746952D02*
X13031191Y-24737428D01*
X13031191Y-24737428D02*
X13040714Y-24718381D01*
X13040714Y-24718381D02*
X13040714Y-24680286D01*
X13040714Y-24680286D02*
X13031191Y-24661238D01*
X13031191Y-24661238D02*
X13021667Y-24651714D01*
X13021667Y-24651714D02*
X13002619Y-24642190D01*
X13246429Y-24756476D02*
X13246429Y-24556476D01*
X13332143Y-24756476D02*
X13332143Y-24651714D01*
X13332143Y-24651714D02*
X13322619Y-24632667D01*
X13322619Y-24632667D02*
X13303572Y-24623143D01*
X13303572Y-24623143D02*
X13275000Y-24623143D01*
X13275000Y-24623143D02*
X13255952Y-24632667D01*
X13255952Y-24632667D02*
X13246429Y-24642190D01*
X13455952Y-24756476D02*
X13436905Y-24746952D01*
X13436905Y-24746952D02*
X13427381Y-24737428D01*
X13427381Y-24737428D02*
X13417857Y-24718381D01*
X13417857Y-24718381D02*
X13417857Y-24661238D01*
X13417857Y-24661238D02*
X13427381Y-24642190D01*
X13427381Y-24642190D02*
X13436905Y-24632667D01*
X13436905Y-24632667D02*
X13455952Y-24623143D01*
X13455952Y-24623143D02*
X13484524Y-24623143D01*
X13484524Y-24623143D02*
X13503572Y-24632667D01*
X13503572Y-24632667D02*
X13513095Y-24642190D01*
X13513095Y-24642190D02*
X13522619Y-24661238D01*
X13522619Y-24661238D02*
X13522619Y-24718381D01*
X13522619Y-24718381D02*
X13513095Y-24737428D01*
X13513095Y-24737428D02*
X13503572Y-24746952D01*
X13503572Y-24746952D02*
X13484524Y-24756476D01*
X13484524Y-24756476D02*
X13455952Y-24756476D01*
X13636905Y-24756476D02*
X13617857Y-24746952D01*
X13617857Y-24746952D02*
X13608333Y-24727905D01*
X13608333Y-24727905D02*
X13608333Y-24556476D01*
X13789286Y-24746952D02*
X13770238Y-24756476D01*
X13770238Y-24756476D02*
X13732143Y-24756476D01*
X13732143Y-24756476D02*
X13713095Y-24746952D01*
X13713095Y-24746952D02*
X13703572Y-24727905D01*
X13703572Y-24727905D02*
X13703572Y-24651714D01*
X13703572Y-24651714D02*
X13713095Y-24632667D01*
X13713095Y-24632667D02*
X13732143Y-24623143D01*
X13732143Y-24623143D02*
X13770238Y-24623143D01*
X13770238Y-24623143D02*
X13789286Y-24632667D01*
X13789286Y-24632667D02*
X13798810Y-24651714D01*
X13798810Y-24651714D02*
X13798810Y-24670762D01*
X13798810Y-24670762D02*
X13703572Y-24689809D01*
X13875000Y-24746952D02*
X13894048Y-24756476D01*
X13894048Y-24756476D02*
X13932143Y-24756476D01*
X13932143Y-24756476D02*
X13951191Y-24746952D01*
X13951191Y-24746952D02*
X13960714Y-24727905D01*
X13960714Y-24727905D02*
X13960714Y-24718381D01*
X13960714Y-24718381D02*
X13951191Y-24699333D01*
X13951191Y-24699333D02*
X13932143Y-24689809D01*
X13932143Y-24689809D02*
X13903572Y-24689809D01*
X13903572Y-24689809D02*
X13884524Y-24680286D01*
X13884524Y-24680286D02*
X13875000Y-24661238D01*
X13875000Y-24661238D02*
X13875000Y-24651714D01*
X13875000Y-24651714D02*
X13884524Y-24632667D01*
X13884524Y-24632667D02*
X13903572Y-24623143D01*
X13903572Y-24623143D02*
X13932143Y-24623143D01*
X13932143Y-24623143D02*
X13951191Y-24632667D01*
X14027381Y-24832667D02*
X14036905Y-24823143D01*
X14036905Y-24823143D02*
X14055953Y-24794571D01*
X14055953Y-24794571D02*
X14065476Y-24775524D01*
X14065476Y-24775524D02*
X14075000Y-24746952D01*
X14075000Y-24746952D02*
X14084524Y-24699333D01*
X14084524Y-24699333D02*
X14084524Y-24661238D01*
X14084524Y-24661238D02*
X14075000Y-24613619D01*
X14075000Y-24613619D02*
X14065476Y-24585048D01*
X14065476Y-24585048D02*
X14055953Y-24566000D01*
X14055953Y-24566000D02*
X14036905Y-24537428D01*
X14036905Y-24537428D02*
X14027381Y-24527905D01*
D10*
X9380356Y-24982356D02*
X9380356Y-24911644D01*
X9309644Y-24911644D01*
X9309644Y-24982356D01*
X9380356Y-24982356D01*
D11*
X9747381Y-25020476D02*
X9633095Y-25020476D01*
X9690238Y-25020476D02*
X9690238Y-24820476D01*
X9690238Y-24820476D02*
X9671190Y-24849048D01*
X9671190Y-24849048D02*
X9652143Y-24868095D01*
X9652143Y-24868095D02*
X9633095Y-24877619D01*
X9833095Y-25001428D02*
X9842619Y-25010952D01*
X9842619Y-25010952D02*
X9833095Y-25020476D01*
X9833095Y-25020476D02*
X9823571Y-25010952D01*
X9823571Y-25010952D02*
X9833095Y-25001428D01*
X9833095Y-25001428D02*
X9833095Y-25020476D01*
X9966429Y-24820476D02*
X9985476Y-24820476D01*
X9985476Y-24820476D02*
X10004524Y-24830000D01*
X10004524Y-24830000D02*
X10014048Y-24839524D01*
X10014048Y-24839524D02*
X10023571Y-24858571D01*
X10023571Y-24858571D02*
X10033095Y-24896667D01*
X10033095Y-24896667D02*
X10033095Y-24944286D01*
X10033095Y-24944286D02*
X10023571Y-24982381D01*
X10023571Y-24982381D02*
X10014048Y-25001428D01*
X10014048Y-25001428D02*
X10004524Y-25010952D01*
X10004524Y-25010952D02*
X9985476Y-25020476D01*
X9985476Y-25020476D02*
X9966429Y-25020476D01*
X9966429Y-25020476D02*
X9947381Y-25010952D01*
X9947381Y-25010952D02*
X9937857Y-25001428D01*
X9937857Y-25001428D02*
X9928333Y-24982381D01*
X9928333Y-24982381D02*
X9918810Y-24944286D01*
X9918810Y-24944286D02*
X9918810Y-24896667D01*
X9918810Y-24896667D02*
X9928333Y-24858571D01*
X9928333Y-24858571D02*
X9937857Y-24839524D01*
X9937857Y-24839524D02*
X9947381Y-24830000D01*
X9947381Y-24830000D02*
X9966429Y-24820476D01*
X10156905Y-24820476D02*
X10175952Y-24820476D01*
X10175952Y-24820476D02*
X10195000Y-24830000D01*
X10195000Y-24830000D02*
X10204524Y-24839524D01*
X10204524Y-24839524D02*
X10214048Y-24858571D01*
X10214048Y-24858571D02*
X10223571Y-24896667D01*
X10223571Y-24896667D02*
X10223571Y-24944286D01*
X10223571Y-24944286D02*
X10214048Y-24982381D01*
X10214048Y-24982381D02*
X10204524Y-25001428D01*
X10204524Y-25001428D02*
X10195000Y-25010952D01*
X10195000Y-25010952D02*
X10175952Y-25020476D01*
X10175952Y-25020476D02*
X10156905Y-25020476D01*
X10156905Y-25020476D02*
X10137857Y-25010952D01*
X10137857Y-25010952D02*
X10128333Y-25001428D01*
X10128333Y-25001428D02*
X10118810Y-24982381D01*
X10118810Y-24982381D02*
X10109286Y-24944286D01*
X10109286Y-24944286D02*
X10109286Y-24896667D01*
X10109286Y-24896667D02*
X10118810Y-24858571D01*
X10118810Y-24858571D02*
X10128333Y-24839524D01*
X10128333Y-24839524D02*
X10137857Y-24830000D01*
X10137857Y-24830000D02*
X10156905Y-24820476D01*
X10347381Y-24820476D02*
X10366429Y-24820476D01*
X10366429Y-24820476D02*
X10385476Y-24830000D01*
X10385476Y-24830000D02*
X10395000Y-24839524D01*
X10395000Y-24839524D02*
X10404524Y-24858571D01*
X10404524Y-24858571D02*
X10414048Y-24896667D01*
X10414048Y-24896667D02*
X10414048Y-24944286D01*
X10414048Y-24944286D02*
X10404524Y-24982381D01*
X10404524Y-24982381D02*
X10395000Y-25001428D01*
X10395000Y-25001428D02*
X10385476Y-25010952D01*
X10385476Y-25010952D02*
X10366429Y-25020476D01*
X10366429Y-25020476D02*
X10347381Y-25020476D01*
X10347381Y-25020476D02*
X10328333Y-25010952D01*
X10328333Y-25010952D02*
X10318810Y-25001428D01*
X10318810Y-25001428D02*
X10309286Y-24982381D01*
X10309286Y-24982381D02*
X10299762Y-24944286D01*
X10299762Y-24944286D02*
X10299762Y-24896667D01*
X10299762Y-24896667D02*
X10309286Y-24858571D01*
X10309286Y-24858571D02*
X10318810Y-24839524D01*
X10318810Y-24839524D02*
X10328333Y-24830000D01*
X10328333Y-24830000D02*
X10347381Y-24820476D01*
X10499762Y-25020476D02*
X10499762Y-24887143D01*
X10499762Y-24906190D02*
X10509286Y-24896667D01*
X10509286Y-24896667D02*
X10528333Y-24887143D01*
X10528333Y-24887143D02*
X10556905Y-24887143D01*
X10556905Y-24887143D02*
X10575952Y-24896667D01*
X10575952Y-24896667D02*
X10585476Y-24915714D01*
X10585476Y-24915714D02*
X10585476Y-25020476D01*
X10585476Y-24915714D02*
X10595000Y-24896667D01*
X10595000Y-24896667D02*
X10614048Y-24887143D01*
X10614048Y-24887143D02*
X10642619Y-24887143D01*
X10642619Y-24887143D02*
X10661667Y-24896667D01*
X10661667Y-24896667D02*
X10671191Y-24915714D01*
X10671191Y-24915714D02*
X10671191Y-25020476D01*
X10766429Y-25020476D02*
X10766429Y-24887143D01*
X10766429Y-24906190D02*
X10775952Y-24896667D01*
X10775952Y-24896667D02*
X10795000Y-24887143D01*
X10795000Y-24887143D02*
X10823572Y-24887143D01*
X10823572Y-24887143D02*
X10842619Y-24896667D01*
X10842619Y-24896667D02*
X10852143Y-24915714D01*
X10852143Y-24915714D02*
X10852143Y-25020476D01*
X10852143Y-24915714D02*
X10861667Y-24896667D01*
X10861667Y-24896667D02*
X10880714Y-24887143D01*
X10880714Y-24887143D02*
X10909286Y-24887143D01*
X10909286Y-24887143D02*
X10928333Y-24896667D01*
X10928333Y-24896667D02*
X10937857Y-24915714D01*
X10937857Y-24915714D02*
X10937857Y-25020476D01*
X11295952Y-24810952D02*
X11124524Y-25068095D01*
X11520714Y-24820476D02*
X11539762Y-24820476D01*
X11539762Y-24820476D02*
X11558810Y-24830000D01*
X11558810Y-24830000D02*
X11568333Y-24839524D01*
X11568333Y-24839524D02*
X11577857Y-24858571D01*
X11577857Y-24858571D02*
X11587381Y-24896667D01*
X11587381Y-24896667D02*
X11587381Y-24944286D01*
X11587381Y-24944286D02*
X11577857Y-24982381D01*
X11577857Y-24982381D02*
X11568333Y-25001428D01*
X11568333Y-25001428D02*
X11558810Y-25010952D01*
X11558810Y-25010952D02*
X11539762Y-25020476D01*
X11539762Y-25020476D02*
X11520714Y-25020476D01*
X11520714Y-25020476D02*
X11501667Y-25010952D01*
X11501667Y-25010952D02*
X11492143Y-25001428D01*
X11492143Y-25001428D02*
X11482619Y-24982381D01*
X11482619Y-24982381D02*
X11473095Y-24944286D01*
X11473095Y-24944286D02*
X11473095Y-24896667D01*
X11473095Y-24896667D02*
X11482619Y-24858571D01*
X11482619Y-24858571D02*
X11492143Y-24839524D01*
X11492143Y-24839524D02*
X11501667Y-24830000D01*
X11501667Y-24830000D02*
X11520714Y-24820476D01*
X11673095Y-25001428D02*
X11682619Y-25010952D01*
X11682619Y-25010952D02*
X11673095Y-25020476D01*
X11673095Y-25020476D02*
X11663571Y-25010952D01*
X11663571Y-25010952D02*
X11673095Y-25001428D01*
X11673095Y-25001428D02*
X11673095Y-25020476D01*
X11806429Y-24820476D02*
X11825476Y-24820476D01*
X11825476Y-24820476D02*
X11844524Y-24830000D01*
X11844524Y-24830000D02*
X11854048Y-24839524D01*
X11854048Y-24839524D02*
X11863571Y-24858571D01*
X11863571Y-24858571D02*
X11873095Y-24896667D01*
X11873095Y-24896667D02*
X11873095Y-24944286D01*
X11873095Y-24944286D02*
X11863571Y-24982381D01*
X11863571Y-24982381D02*
X11854048Y-25001428D01*
X11854048Y-25001428D02*
X11844524Y-25010952D01*
X11844524Y-25010952D02*
X11825476Y-25020476D01*
X11825476Y-25020476D02*
X11806429Y-25020476D01*
X11806429Y-25020476D02*
X11787381Y-25010952D01*
X11787381Y-25010952D02*
X11777857Y-25001428D01*
X11777857Y-25001428D02*
X11768333Y-24982381D01*
X11768333Y-24982381D02*
X11758810Y-24944286D01*
X11758810Y-24944286D02*
X11758810Y-24896667D01*
X11758810Y-24896667D02*
X11768333Y-24858571D01*
X11768333Y-24858571D02*
X11777857Y-24839524D01*
X11777857Y-24839524D02*
X11787381Y-24830000D01*
X11787381Y-24830000D02*
X11806429Y-24820476D01*
X11939762Y-24820476D02*
X12063571Y-24820476D01*
X12063571Y-24820476D02*
X11996905Y-24896667D01*
X11996905Y-24896667D02*
X12025476Y-24896667D01*
X12025476Y-24896667D02*
X12044524Y-24906190D01*
X12044524Y-24906190D02*
X12054048Y-24915714D01*
X12054048Y-24915714D02*
X12063571Y-24934762D01*
X12063571Y-24934762D02*
X12063571Y-24982381D01*
X12063571Y-24982381D02*
X12054048Y-25001428D01*
X12054048Y-25001428D02*
X12044524Y-25010952D01*
X12044524Y-25010952D02*
X12025476Y-25020476D01*
X12025476Y-25020476D02*
X11968333Y-25020476D01*
X11968333Y-25020476D02*
X11949286Y-25010952D01*
X11949286Y-25010952D02*
X11939762Y-25001428D01*
X12158810Y-25020476D02*
X12196905Y-25020476D01*
X12196905Y-25020476D02*
X12215952Y-25010952D01*
X12215952Y-25010952D02*
X12225476Y-25001428D01*
X12225476Y-25001428D02*
X12244524Y-24972857D01*
X12244524Y-24972857D02*
X12254048Y-24934762D01*
X12254048Y-24934762D02*
X12254048Y-24858571D01*
X12254048Y-24858571D02*
X12244524Y-24839524D01*
X12244524Y-24839524D02*
X12235000Y-24830000D01*
X12235000Y-24830000D02*
X12215952Y-24820476D01*
X12215952Y-24820476D02*
X12177857Y-24820476D01*
X12177857Y-24820476D02*
X12158810Y-24830000D01*
X12158810Y-24830000D02*
X12149286Y-24839524D01*
X12149286Y-24839524D02*
X12139762Y-24858571D01*
X12139762Y-24858571D02*
X12139762Y-24906190D01*
X12139762Y-24906190D02*
X12149286Y-24925238D01*
X12149286Y-24925238D02*
X12158810Y-24934762D01*
X12158810Y-24934762D02*
X12177857Y-24944286D01*
X12177857Y-24944286D02*
X12215952Y-24944286D01*
X12215952Y-24944286D02*
X12235000Y-24934762D01*
X12235000Y-24934762D02*
X12244524Y-24925238D01*
X12244524Y-24925238D02*
X12254048Y-24906190D01*
X12425476Y-24887143D02*
X12425476Y-25020476D01*
X12377857Y-24810952D02*
X12330238Y-24953809D01*
X12330238Y-24953809D02*
X12454048Y-24953809D01*
X12520714Y-24820476D02*
X12520714Y-24858571D01*
X12596905Y-24820476D02*
X12596905Y-24858571D01*
X12859762Y-25096667D02*
X12850238Y-25087143D01*
X12850238Y-25087143D02*
X12831191Y-25058571D01*
X12831191Y-25058571D02*
X12821667Y-25039524D01*
X12821667Y-25039524D02*
X12812143Y-25010952D01*
X12812143Y-25010952D02*
X12802619Y-24963333D01*
X12802619Y-24963333D02*
X12802619Y-24925238D01*
X12802619Y-24925238D02*
X12812143Y-24877619D01*
X12812143Y-24877619D02*
X12821667Y-24849048D01*
X12821667Y-24849048D02*
X12831191Y-24830000D01*
X12831191Y-24830000D02*
X12850238Y-24801428D01*
X12850238Y-24801428D02*
X12859762Y-24791905D01*
X13021667Y-24887143D02*
X13021667Y-25020476D01*
X12974048Y-24810952D02*
X12926429Y-24953809D01*
X12926429Y-24953809D02*
X13050238Y-24953809D01*
X13246429Y-25020476D02*
X13246429Y-24820476D01*
X13332143Y-25020476D02*
X13332143Y-24915714D01*
X13332143Y-24915714D02*
X13322619Y-24896667D01*
X13322619Y-24896667D02*
X13303572Y-24887143D01*
X13303572Y-24887143D02*
X13275000Y-24887143D01*
X13275000Y-24887143D02*
X13255952Y-24896667D01*
X13255952Y-24896667D02*
X13246429Y-24906190D01*
X13455952Y-25020476D02*
X13436905Y-25010952D01*
X13436905Y-25010952D02*
X13427381Y-25001428D01*
X13427381Y-25001428D02*
X13417857Y-24982381D01*
X13417857Y-24982381D02*
X13417857Y-24925238D01*
X13417857Y-24925238D02*
X13427381Y-24906190D01*
X13427381Y-24906190D02*
X13436905Y-24896667D01*
X13436905Y-24896667D02*
X13455952Y-24887143D01*
X13455952Y-24887143D02*
X13484524Y-24887143D01*
X13484524Y-24887143D02*
X13503572Y-24896667D01*
X13503572Y-24896667D02*
X13513095Y-24906190D01*
X13513095Y-24906190D02*
X13522619Y-24925238D01*
X13522619Y-24925238D02*
X13522619Y-24982381D01*
X13522619Y-24982381D02*
X13513095Y-25001428D01*
X13513095Y-25001428D02*
X13503572Y-25010952D01*
X13503572Y-25010952D02*
X13484524Y-25020476D01*
X13484524Y-25020476D02*
X13455952Y-25020476D01*
X13636905Y-25020476D02*
X13617857Y-25010952D01*
X13617857Y-25010952D02*
X13608333Y-24991905D01*
X13608333Y-24991905D02*
X13608333Y-24820476D01*
X13789286Y-25010952D02*
X13770238Y-25020476D01*
X13770238Y-25020476D02*
X13732143Y-25020476D01*
X13732143Y-25020476D02*
X13713095Y-25010952D01*
X13713095Y-25010952D02*
X13703572Y-24991905D01*
X13703572Y-24991905D02*
X13703572Y-24915714D01*
X13703572Y-24915714D02*
X13713095Y-24896667D01*
X13713095Y-24896667D02*
X13732143Y-24887143D01*
X13732143Y-24887143D02*
X13770238Y-24887143D01*
X13770238Y-24887143D02*
X13789286Y-24896667D01*
X13789286Y-24896667D02*
X13798810Y-24915714D01*
X13798810Y-24915714D02*
X13798810Y-24934762D01*
X13798810Y-24934762D02*
X13703572Y-24953809D01*
X13875000Y-25010952D02*
X13894048Y-25020476D01*
X13894048Y-25020476D02*
X13932143Y-25020476D01*
X13932143Y-25020476D02*
X13951191Y-25010952D01*
X13951191Y-25010952D02*
X13960714Y-24991905D01*
X13960714Y-24991905D02*
X13960714Y-24982381D01*
X13960714Y-24982381D02*
X13951191Y-24963333D01*
X13951191Y-24963333D02*
X13932143Y-24953809D01*
X13932143Y-24953809D02*
X13903572Y-24953809D01*
X13903572Y-24953809D02*
X13884524Y-24944286D01*
X13884524Y-24944286D02*
X13875000Y-24925238D01*
X13875000Y-24925238D02*
X13875000Y-24915714D01*
X13875000Y-24915714D02*
X13884524Y-24896667D01*
X13884524Y-24896667D02*
X13903572Y-24887143D01*
X13903572Y-24887143D02*
X13932143Y-24887143D01*
X13932143Y-24887143D02*
X13951191Y-24896667D01*
X14027381Y-25096667D02*
X14036905Y-25087143D01*
X14036905Y-25087143D02*
X14055953Y-25058571D01*
X14055953Y-25058571D02*
X14065476Y-25039524D01*
X14065476Y-25039524D02*
X14075000Y-25010952D01*
X14075000Y-25010952D02*
X14084524Y-24963333D01*
X14084524Y-24963333D02*
X14084524Y-24925238D01*
X14084524Y-24925238D02*
X14075000Y-24877619D01*
X14075000Y-24877619D02*
X14065476Y-24849048D01*
X14065476Y-24849048D02*
X14055953Y-24830000D01*
X14055953Y-24830000D02*
X14036905Y-24801428D01*
X14036905Y-24801428D02*
X14027381Y-24791905D01*
D15*
X9344000Y-25262000D02*
X9395000Y-25211000D01*
X9344000Y-25160000D01*
X9293000Y-25211000D01*
X9344000Y-25262000D01*
D11*
X9747381Y-25284476D02*
X9633095Y-25284476D01*
X9690238Y-25284476D02*
X9690238Y-25084476D01*
X9690238Y-25084476D02*
X9671190Y-25113048D01*
X9671190Y-25113048D02*
X9652143Y-25132095D01*
X9652143Y-25132095D02*
X9633095Y-25141619D01*
X9833095Y-25265428D02*
X9842619Y-25274952D01*
X9842619Y-25274952D02*
X9833095Y-25284476D01*
X9833095Y-25284476D02*
X9823571Y-25274952D01*
X9823571Y-25274952D02*
X9833095Y-25265428D01*
X9833095Y-25265428D02*
X9833095Y-25284476D01*
X9966429Y-25084476D02*
X9985476Y-25084476D01*
X9985476Y-25084476D02*
X10004524Y-25094000D01*
X10004524Y-25094000D02*
X10014048Y-25103524D01*
X10014048Y-25103524D02*
X10023571Y-25122571D01*
X10023571Y-25122571D02*
X10033095Y-25160667D01*
X10033095Y-25160667D02*
X10033095Y-25208286D01*
X10033095Y-25208286D02*
X10023571Y-25246381D01*
X10023571Y-25246381D02*
X10014048Y-25265428D01*
X10014048Y-25265428D02*
X10004524Y-25274952D01*
X10004524Y-25274952D02*
X9985476Y-25284476D01*
X9985476Y-25284476D02*
X9966429Y-25284476D01*
X9966429Y-25284476D02*
X9947381Y-25274952D01*
X9947381Y-25274952D02*
X9937857Y-25265428D01*
X9937857Y-25265428D02*
X9928333Y-25246381D01*
X9928333Y-25246381D02*
X9918810Y-25208286D01*
X9918810Y-25208286D02*
X9918810Y-25160667D01*
X9918810Y-25160667D02*
X9928333Y-25122571D01*
X9928333Y-25122571D02*
X9937857Y-25103524D01*
X9937857Y-25103524D02*
X9947381Y-25094000D01*
X9947381Y-25094000D02*
X9966429Y-25084476D01*
X10109286Y-25103524D02*
X10118810Y-25094000D01*
X10118810Y-25094000D02*
X10137857Y-25084476D01*
X10137857Y-25084476D02*
X10185476Y-25084476D01*
X10185476Y-25084476D02*
X10204524Y-25094000D01*
X10204524Y-25094000D02*
X10214048Y-25103524D01*
X10214048Y-25103524D02*
X10223571Y-25122571D01*
X10223571Y-25122571D02*
X10223571Y-25141619D01*
X10223571Y-25141619D02*
X10214048Y-25170190D01*
X10214048Y-25170190D02*
X10099762Y-25284476D01*
X10099762Y-25284476D02*
X10223571Y-25284476D01*
X10347381Y-25084476D02*
X10366429Y-25084476D01*
X10366429Y-25084476D02*
X10385476Y-25094000D01*
X10385476Y-25094000D02*
X10395000Y-25103524D01*
X10395000Y-25103524D02*
X10404524Y-25122571D01*
X10404524Y-25122571D02*
X10414048Y-25160667D01*
X10414048Y-25160667D02*
X10414048Y-25208286D01*
X10414048Y-25208286D02*
X10404524Y-25246381D01*
X10404524Y-25246381D02*
X10395000Y-25265428D01*
X10395000Y-25265428D02*
X10385476Y-25274952D01*
X10385476Y-25274952D02*
X10366429Y-25284476D01*
X10366429Y-25284476D02*
X10347381Y-25284476D01*
X10347381Y-25284476D02*
X10328333Y-25274952D01*
X10328333Y-25274952D02*
X10318810Y-25265428D01*
X10318810Y-25265428D02*
X10309286Y-25246381D01*
X10309286Y-25246381D02*
X10299762Y-25208286D01*
X10299762Y-25208286D02*
X10299762Y-25160667D01*
X10299762Y-25160667D02*
X10309286Y-25122571D01*
X10309286Y-25122571D02*
X10318810Y-25103524D01*
X10318810Y-25103524D02*
X10328333Y-25094000D01*
X10328333Y-25094000D02*
X10347381Y-25084476D01*
X10499762Y-25284476D02*
X10499762Y-25151143D01*
X10499762Y-25170190D02*
X10509286Y-25160667D01*
X10509286Y-25160667D02*
X10528333Y-25151143D01*
X10528333Y-25151143D02*
X10556905Y-25151143D01*
X10556905Y-25151143D02*
X10575952Y-25160667D01*
X10575952Y-25160667D02*
X10585476Y-25179714D01*
X10585476Y-25179714D02*
X10585476Y-25284476D01*
X10585476Y-25179714D02*
X10595000Y-25160667D01*
X10595000Y-25160667D02*
X10614048Y-25151143D01*
X10614048Y-25151143D02*
X10642619Y-25151143D01*
X10642619Y-25151143D02*
X10661667Y-25160667D01*
X10661667Y-25160667D02*
X10671191Y-25179714D01*
X10671191Y-25179714D02*
X10671191Y-25284476D01*
X10766429Y-25284476D02*
X10766429Y-25151143D01*
X10766429Y-25170190D02*
X10775952Y-25160667D01*
X10775952Y-25160667D02*
X10795000Y-25151143D01*
X10795000Y-25151143D02*
X10823572Y-25151143D01*
X10823572Y-25151143D02*
X10842619Y-25160667D01*
X10842619Y-25160667D02*
X10852143Y-25179714D01*
X10852143Y-25179714D02*
X10852143Y-25284476D01*
X10852143Y-25179714D02*
X10861667Y-25160667D01*
X10861667Y-25160667D02*
X10880714Y-25151143D01*
X10880714Y-25151143D02*
X10909286Y-25151143D01*
X10909286Y-25151143D02*
X10928333Y-25160667D01*
X10928333Y-25160667D02*
X10937857Y-25179714D01*
X10937857Y-25179714D02*
X10937857Y-25284476D01*
X11295952Y-25074952D02*
X11124524Y-25332095D01*
X11520714Y-25084476D02*
X11539762Y-25084476D01*
X11539762Y-25084476D02*
X11558810Y-25094000D01*
X11558810Y-25094000D02*
X11568333Y-25103524D01*
X11568333Y-25103524D02*
X11577857Y-25122571D01*
X11577857Y-25122571D02*
X11587381Y-25160667D01*
X11587381Y-25160667D02*
X11587381Y-25208286D01*
X11587381Y-25208286D02*
X11577857Y-25246381D01*
X11577857Y-25246381D02*
X11568333Y-25265428D01*
X11568333Y-25265428D02*
X11558810Y-25274952D01*
X11558810Y-25274952D02*
X11539762Y-25284476D01*
X11539762Y-25284476D02*
X11520714Y-25284476D01*
X11520714Y-25284476D02*
X11501667Y-25274952D01*
X11501667Y-25274952D02*
X11492143Y-25265428D01*
X11492143Y-25265428D02*
X11482619Y-25246381D01*
X11482619Y-25246381D02*
X11473095Y-25208286D01*
X11473095Y-25208286D02*
X11473095Y-25160667D01*
X11473095Y-25160667D02*
X11482619Y-25122571D01*
X11482619Y-25122571D02*
X11492143Y-25103524D01*
X11492143Y-25103524D02*
X11501667Y-25094000D01*
X11501667Y-25094000D02*
X11520714Y-25084476D01*
X11673095Y-25265428D02*
X11682619Y-25274952D01*
X11682619Y-25274952D02*
X11673095Y-25284476D01*
X11673095Y-25284476D02*
X11663571Y-25274952D01*
X11663571Y-25274952D02*
X11673095Y-25265428D01*
X11673095Y-25265428D02*
X11673095Y-25284476D01*
X11806429Y-25084476D02*
X11825476Y-25084476D01*
X11825476Y-25084476D02*
X11844524Y-25094000D01*
X11844524Y-25094000D02*
X11854048Y-25103524D01*
X11854048Y-25103524D02*
X11863571Y-25122571D01*
X11863571Y-25122571D02*
X11873095Y-25160667D01*
X11873095Y-25160667D02*
X11873095Y-25208286D01*
X11873095Y-25208286D02*
X11863571Y-25246381D01*
X11863571Y-25246381D02*
X11854048Y-25265428D01*
X11854048Y-25265428D02*
X11844524Y-25274952D01*
X11844524Y-25274952D02*
X11825476Y-25284476D01*
X11825476Y-25284476D02*
X11806429Y-25284476D01*
X11806429Y-25284476D02*
X11787381Y-25274952D01*
X11787381Y-25274952D02*
X11777857Y-25265428D01*
X11777857Y-25265428D02*
X11768333Y-25246381D01*
X11768333Y-25246381D02*
X11758810Y-25208286D01*
X11758810Y-25208286D02*
X11758810Y-25160667D01*
X11758810Y-25160667D02*
X11768333Y-25122571D01*
X11768333Y-25122571D02*
X11777857Y-25103524D01*
X11777857Y-25103524D02*
X11787381Y-25094000D01*
X11787381Y-25094000D02*
X11806429Y-25084476D01*
X12044524Y-25151143D02*
X12044524Y-25284476D01*
X11996905Y-25074952D02*
X11949286Y-25217809D01*
X11949286Y-25217809D02*
X12073095Y-25217809D01*
X12187381Y-25084476D02*
X12206429Y-25084476D01*
X12206429Y-25084476D02*
X12225476Y-25094000D01*
X12225476Y-25094000D02*
X12235000Y-25103524D01*
X12235000Y-25103524D02*
X12244524Y-25122571D01*
X12244524Y-25122571D02*
X12254048Y-25160667D01*
X12254048Y-25160667D02*
X12254048Y-25208286D01*
X12254048Y-25208286D02*
X12244524Y-25246381D01*
X12244524Y-25246381D02*
X12235000Y-25265428D01*
X12235000Y-25265428D02*
X12225476Y-25274952D01*
X12225476Y-25274952D02*
X12206429Y-25284476D01*
X12206429Y-25284476D02*
X12187381Y-25284476D01*
X12187381Y-25284476D02*
X12168333Y-25274952D01*
X12168333Y-25274952D02*
X12158810Y-25265428D01*
X12158810Y-25265428D02*
X12149286Y-25246381D01*
X12149286Y-25246381D02*
X12139762Y-25208286D01*
X12139762Y-25208286D02*
X12139762Y-25160667D01*
X12139762Y-25160667D02*
X12149286Y-25122571D01*
X12149286Y-25122571D02*
X12158810Y-25103524D01*
X12158810Y-25103524D02*
X12168333Y-25094000D01*
X12168333Y-25094000D02*
X12187381Y-25084476D01*
X12330238Y-25103524D02*
X12339762Y-25094000D01*
X12339762Y-25094000D02*
X12358810Y-25084476D01*
X12358810Y-25084476D02*
X12406429Y-25084476D01*
X12406429Y-25084476D02*
X12425476Y-25094000D01*
X12425476Y-25094000D02*
X12435000Y-25103524D01*
X12435000Y-25103524D02*
X12444524Y-25122571D01*
X12444524Y-25122571D02*
X12444524Y-25141619D01*
X12444524Y-25141619D02*
X12435000Y-25170190D01*
X12435000Y-25170190D02*
X12320714Y-25284476D01*
X12320714Y-25284476D02*
X12444524Y-25284476D01*
X12520714Y-25084476D02*
X12520714Y-25122571D01*
X12596905Y-25084476D02*
X12596905Y-25122571D01*
X12859762Y-25360667D02*
X12850238Y-25351143D01*
X12850238Y-25351143D02*
X12831191Y-25322571D01*
X12831191Y-25322571D02*
X12821667Y-25303524D01*
X12821667Y-25303524D02*
X12812143Y-25274952D01*
X12812143Y-25274952D02*
X12802619Y-25227333D01*
X12802619Y-25227333D02*
X12802619Y-25189238D01*
X12802619Y-25189238D02*
X12812143Y-25141619D01*
X12812143Y-25141619D02*
X12821667Y-25113048D01*
X12821667Y-25113048D02*
X12831191Y-25094000D01*
X12831191Y-25094000D02*
X12850238Y-25065428D01*
X12850238Y-25065428D02*
X12859762Y-25055905D01*
X12964524Y-25170190D02*
X12945476Y-25160667D01*
X12945476Y-25160667D02*
X12935952Y-25151143D01*
X12935952Y-25151143D02*
X12926429Y-25132095D01*
X12926429Y-25132095D02*
X12926429Y-25122571D01*
X12926429Y-25122571D02*
X12935952Y-25103524D01*
X12935952Y-25103524D02*
X12945476Y-25094000D01*
X12945476Y-25094000D02*
X12964524Y-25084476D01*
X12964524Y-25084476D02*
X13002619Y-25084476D01*
X13002619Y-25084476D02*
X13021667Y-25094000D01*
X13021667Y-25094000D02*
X13031191Y-25103524D01*
X13031191Y-25103524D02*
X13040714Y-25122571D01*
X13040714Y-25122571D02*
X13040714Y-25132095D01*
X13040714Y-25132095D02*
X13031191Y-25151143D01*
X13031191Y-25151143D02*
X13021667Y-25160667D01*
X13021667Y-25160667D02*
X13002619Y-25170190D01*
X13002619Y-25170190D02*
X12964524Y-25170190D01*
X12964524Y-25170190D02*
X12945476Y-25179714D01*
X12945476Y-25179714D02*
X12935952Y-25189238D01*
X12935952Y-25189238D02*
X12926429Y-25208286D01*
X12926429Y-25208286D02*
X12926429Y-25246381D01*
X12926429Y-25246381D02*
X12935952Y-25265428D01*
X12935952Y-25265428D02*
X12945476Y-25274952D01*
X12945476Y-25274952D02*
X12964524Y-25284476D01*
X12964524Y-25284476D02*
X13002619Y-25284476D01*
X13002619Y-25284476D02*
X13021667Y-25274952D01*
X13021667Y-25274952D02*
X13031191Y-25265428D01*
X13031191Y-25265428D02*
X13040714Y-25246381D01*
X13040714Y-25246381D02*
X13040714Y-25208286D01*
X13040714Y-25208286D02*
X13031191Y-25189238D01*
X13031191Y-25189238D02*
X13021667Y-25179714D01*
X13021667Y-25179714D02*
X13002619Y-25170190D01*
X13212143Y-25084476D02*
X13174048Y-25084476D01*
X13174048Y-25084476D02*
X13155000Y-25094000D01*
X13155000Y-25094000D02*
X13145476Y-25103524D01*
X13145476Y-25103524D02*
X13126429Y-25132095D01*
X13126429Y-25132095D02*
X13116905Y-25170190D01*
X13116905Y-25170190D02*
X13116905Y-25246381D01*
X13116905Y-25246381D02*
X13126429Y-25265428D01*
X13126429Y-25265428D02*
X13135952Y-25274952D01*
X13135952Y-25274952D02*
X13155000Y-25284476D01*
X13155000Y-25284476D02*
X13193095Y-25284476D01*
X13193095Y-25284476D02*
X13212143Y-25274952D01*
X13212143Y-25274952D02*
X13221667Y-25265428D01*
X13221667Y-25265428D02*
X13231191Y-25246381D01*
X13231191Y-25246381D02*
X13231191Y-25198762D01*
X13231191Y-25198762D02*
X13221667Y-25179714D01*
X13221667Y-25179714D02*
X13212143Y-25170190D01*
X13212143Y-25170190D02*
X13193095Y-25160667D01*
X13193095Y-25160667D02*
X13155000Y-25160667D01*
X13155000Y-25160667D02*
X13135952Y-25170190D01*
X13135952Y-25170190D02*
X13126429Y-25179714D01*
X13126429Y-25179714D02*
X13116905Y-25198762D01*
X13436905Y-25284476D02*
X13436905Y-25084476D01*
X13522619Y-25284476D02*
X13522619Y-25179714D01*
X13522619Y-25179714D02*
X13513095Y-25160667D01*
X13513095Y-25160667D02*
X13494048Y-25151143D01*
X13494048Y-25151143D02*
X13465476Y-25151143D01*
X13465476Y-25151143D02*
X13446429Y-25160667D01*
X13446429Y-25160667D02*
X13436905Y-25170190D01*
X13646429Y-25284476D02*
X13627381Y-25274952D01*
X13627381Y-25274952D02*
X13617857Y-25265428D01*
X13617857Y-25265428D02*
X13608333Y-25246381D01*
X13608333Y-25246381D02*
X13608333Y-25189238D01*
X13608333Y-25189238D02*
X13617857Y-25170190D01*
X13617857Y-25170190D02*
X13627381Y-25160667D01*
X13627381Y-25160667D02*
X13646429Y-25151143D01*
X13646429Y-25151143D02*
X13675000Y-25151143D01*
X13675000Y-25151143D02*
X13694048Y-25160667D01*
X13694048Y-25160667D02*
X13703572Y-25170190D01*
X13703572Y-25170190D02*
X13713095Y-25189238D01*
X13713095Y-25189238D02*
X13713095Y-25246381D01*
X13713095Y-25246381D02*
X13703572Y-25265428D01*
X13703572Y-25265428D02*
X13694048Y-25274952D01*
X13694048Y-25274952D02*
X13675000Y-25284476D01*
X13675000Y-25284476D02*
X13646429Y-25284476D01*
X13827381Y-25284476D02*
X13808333Y-25274952D01*
X13808333Y-25274952D02*
X13798810Y-25255905D01*
X13798810Y-25255905D02*
X13798810Y-25084476D01*
X13979762Y-25274952D02*
X13960714Y-25284476D01*
X13960714Y-25284476D02*
X13922619Y-25284476D01*
X13922619Y-25284476D02*
X13903572Y-25274952D01*
X13903572Y-25274952D02*
X13894048Y-25255905D01*
X13894048Y-25255905D02*
X13894048Y-25179714D01*
X13894048Y-25179714D02*
X13903572Y-25160667D01*
X13903572Y-25160667D02*
X13922619Y-25151143D01*
X13922619Y-25151143D02*
X13960714Y-25151143D01*
X13960714Y-25151143D02*
X13979762Y-25160667D01*
X13979762Y-25160667D02*
X13989286Y-25179714D01*
X13989286Y-25179714D02*
X13989286Y-25198762D01*
X13989286Y-25198762D02*
X13894048Y-25217809D01*
X14065476Y-25274952D02*
X14084524Y-25284476D01*
X14084524Y-25284476D02*
X14122619Y-25284476D01*
X14122619Y-25284476D02*
X14141667Y-25274952D01*
X14141667Y-25274952D02*
X14151191Y-25255905D01*
X14151191Y-25255905D02*
X14151191Y-25246381D01*
X14151191Y-25246381D02*
X14141667Y-25227333D01*
X14141667Y-25227333D02*
X14122619Y-25217809D01*
X14122619Y-25217809D02*
X14094048Y-25217809D01*
X14094048Y-25217809D02*
X14075000Y-25208286D01*
X14075000Y-25208286D02*
X14065476Y-25189238D01*
X14065476Y-25189238D02*
X14065476Y-25179714D01*
X14065476Y-25179714D02*
X14075000Y-25160667D01*
X14075000Y-25160667D02*
X14094048Y-25151143D01*
X14094048Y-25151143D02*
X14122619Y-25151143D01*
X14122619Y-25151143D02*
X14141667Y-25160667D01*
X14217857Y-25360667D02*
X14227381Y-25351143D01*
X14227381Y-25351143D02*
X14246429Y-25322571D01*
X14246429Y-25322571D02*
X14255953Y-25303524D01*
X14255953Y-25303524D02*
X14265476Y-25274952D01*
X14265476Y-25274952D02*
X14275000Y-25227333D01*
X14275000Y-25227333D02*
X14275000Y-25189238D01*
X14275000Y-25189238D02*
X14265476Y-25141619D01*
X14265476Y-25141619D02*
X14255953Y-25113048D01*
X14255953Y-25113048D02*
X14246429Y-25094000D01*
X14246429Y-25094000D02*
X14227381Y-25065428D01*
X14227381Y-25065428D02*
X14217857Y-25055905D01*
D16*
X9285000Y-25420000D02*
X9395000Y-25530000D01*
X9395000Y-25420000D02*
X9285000Y-25530000D01*
X9395000Y-25475000D02*
G75*
G03*
X9395000Y-25475000I-55000J0D01*
G01*
D11*
X9747381Y-25548476D02*
X9633095Y-25548476D01*
X9690238Y-25548476D02*
X9690238Y-25348476D01*
X9690238Y-25348476D02*
X9671190Y-25377048D01*
X9671190Y-25377048D02*
X9652143Y-25396095D01*
X9652143Y-25396095D02*
X9633095Y-25405619D01*
X9833095Y-25529428D02*
X9842619Y-25538952D01*
X9842619Y-25538952D02*
X9833095Y-25548476D01*
X9833095Y-25548476D02*
X9823571Y-25538952D01*
X9823571Y-25538952D02*
X9833095Y-25529428D01*
X9833095Y-25529428D02*
X9833095Y-25548476D01*
X10033095Y-25548476D02*
X9918810Y-25548476D01*
X9975952Y-25548476D02*
X9975952Y-25348476D01*
X9975952Y-25348476D02*
X9956905Y-25377048D01*
X9956905Y-25377048D02*
X9937857Y-25396095D01*
X9937857Y-25396095D02*
X9918810Y-25405619D01*
X10156905Y-25348476D02*
X10175952Y-25348476D01*
X10175952Y-25348476D02*
X10195000Y-25358000D01*
X10195000Y-25358000D02*
X10204524Y-25367524D01*
X10204524Y-25367524D02*
X10214048Y-25386571D01*
X10214048Y-25386571D02*
X10223571Y-25424667D01*
X10223571Y-25424667D02*
X10223571Y-25472286D01*
X10223571Y-25472286D02*
X10214048Y-25510381D01*
X10214048Y-25510381D02*
X10204524Y-25529428D01*
X10204524Y-25529428D02*
X10195000Y-25538952D01*
X10195000Y-25538952D02*
X10175952Y-25548476D01*
X10175952Y-25548476D02*
X10156905Y-25548476D01*
X10156905Y-25548476D02*
X10137857Y-25538952D01*
X10137857Y-25538952D02*
X10128333Y-25529428D01*
X10128333Y-25529428D02*
X10118810Y-25510381D01*
X10118810Y-25510381D02*
X10109286Y-25472286D01*
X10109286Y-25472286D02*
X10109286Y-25424667D01*
X10109286Y-25424667D02*
X10118810Y-25386571D01*
X10118810Y-25386571D02*
X10128333Y-25367524D01*
X10128333Y-25367524D02*
X10137857Y-25358000D01*
X10137857Y-25358000D02*
X10156905Y-25348476D01*
X10347381Y-25348476D02*
X10366429Y-25348476D01*
X10366429Y-25348476D02*
X10385476Y-25358000D01*
X10385476Y-25358000D02*
X10395000Y-25367524D01*
X10395000Y-25367524D02*
X10404524Y-25386571D01*
X10404524Y-25386571D02*
X10414048Y-25424667D01*
X10414048Y-25424667D02*
X10414048Y-25472286D01*
X10414048Y-25472286D02*
X10404524Y-25510381D01*
X10404524Y-25510381D02*
X10395000Y-25529428D01*
X10395000Y-25529428D02*
X10385476Y-25538952D01*
X10385476Y-25538952D02*
X10366429Y-25548476D01*
X10366429Y-25548476D02*
X10347381Y-25548476D01*
X10347381Y-25548476D02*
X10328333Y-25538952D01*
X10328333Y-25538952D02*
X10318810Y-25529428D01*
X10318810Y-25529428D02*
X10309286Y-25510381D01*
X10309286Y-25510381D02*
X10299762Y-25472286D01*
X10299762Y-25472286D02*
X10299762Y-25424667D01*
X10299762Y-25424667D02*
X10309286Y-25386571D01*
X10309286Y-25386571D02*
X10318810Y-25367524D01*
X10318810Y-25367524D02*
X10328333Y-25358000D01*
X10328333Y-25358000D02*
X10347381Y-25348476D01*
X10499762Y-25548476D02*
X10499762Y-25415143D01*
X10499762Y-25434190D02*
X10509286Y-25424667D01*
X10509286Y-25424667D02*
X10528333Y-25415143D01*
X10528333Y-25415143D02*
X10556905Y-25415143D01*
X10556905Y-25415143D02*
X10575952Y-25424667D01*
X10575952Y-25424667D02*
X10585476Y-25443714D01*
X10585476Y-25443714D02*
X10585476Y-25548476D01*
X10585476Y-25443714D02*
X10595000Y-25424667D01*
X10595000Y-25424667D02*
X10614048Y-25415143D01*
X10614048Y-25415143D02*
X10642619Y-25415143D01*
X10642619Y-25415143D02*
X10661667Y-25424667D01*
X10661667Y-25424667D02*
X10671191Y-25443714D01*
X10671191Y-25443714D02*
X10671191Y-25548476D01*
X10766429Y-25548476D02*
X10766429Y-25415143D01*
X10766429Y-25434190D02*
X10775952Y-25424667D01*
X10775952Y-25424667D02*
X10795000Y-25415143D01*
X10795000Y-25415143D02*
X10823572Y-25415143D01*
X10823572Y-25415143D02*
X10842619Y-25424667D01*
X10842619Y-25424667D02*
X10852143Y-25443714D01*
X10852143Y-25443714D02*
X10852143Y-25548476D01*
X10852143Y-25443714D02*
X10861667Y-25424667D01*
X10861667Y-25424667D02*
X10880714Y-25415143D01*
X10880714Y-25415143D02*
X10909286Y-25415143D01*
X10909286Y-25415143D02*
X10928333Y-25424667D01*
X10928333Y-25424667D02*
X10937857Y-25443714D01*
X10937857Y-25443714D02*
X10937857Y-25548476D01*
X11295952Y-25338952D02*
X11124524Y-25596095D01*
X11520714Y-25348476D02*
X11539762Y-25348476D01*
X11539762Y-25348476D02*
X11558810Y-25358000D01*
X11558810Y-25358000D02*
X11568333Y-25367524D01*
X11568333Y-25367524D02*
X11577857Y-25386571D01*
X11577857Y-25386571D02*
X11587381Y-25424667D01*
X11587381Y-25424667D02*
X11587381Y-25472286D01*
X11587381Y-25472286D02*
X11577857Y-25510381D01*
X11577857Y-25510381D02*
X11568333Y-25529428D01*
X11568333Y-25529428D02*
X11558810Y-25538952D01*
X11558810Y-25538952D02*
X11539762Y-25548476D01*
X11539762Y-25548476D02*
X11520714Y-25548476D01*
X11520714Y-25548476D02*
X11501667Y-25538952D01*
X11501667Y-25538952D02*
X11492143Y-25529428D01*
X11492143Y-25529428D02*
X11482619Y-25510381D01*
X11482619Y-25510381D02*
X11473095Y-25472286D01*
X11473095Y-25472286D02*
X11473095Y-25424667D01*
X11473095Y-25424667D02*
X11482619Y-25386571D01*
X11482619Y-25386571D02*
X11492143Y-25367524D01*
X11492143Y-25367524D02*
X11501667Y-25358000D01*
X11501667Y-25358000D02*
X11520714Y-25348476D01*
X11673095Y-25529428D02*
X11682619Y-25538952D01*
X11682619Y-25538952D02*
X11673095Y-25548476D01*
X11673095Y-25548476D02*
X11663571Y-25538952D01*
X11663571Y-25538952D02*
X11673095Y-25529428D01*
X11673095Y-25529428D02*
X11673095Y-25548476D01*
X11806429Y-25348476D02*
X11825476Y-25348476D01*
X11825476Y-25348476D02*
X11844524Y-25358000D01*
X11844524Y-25358000D02*
X11854048Y-25367524D01*
X11854048Y-25367524D02*
X11863571Y-25386571D01*
X11863571Y-25386571D02*
X11873095Y-25424667D01*
X11873095Y-25424667D02*
X11873095Y-25472286D01*
X11873095Y-25472286D02*
X11863571Y-25510381D01*
X11863571Y-25510381D02*
X11854048Y-25529428D01*
X11854048Y-25529428D02*
X11844524Y-25538952D01*
X11844524Y-25538952D02*
X11825476Y-25548476D01*
X11825476Y-25548476D02*
X11806429Y-25548476D01*
X11806429Y-25548476D02*
X11787381Y-25538952D01*
X11787381Y-25538952D02*
X11777857Y-25529428D01*
X11777857Y-25529428D02*
X11768333Y-25510381D01*
X11768333Y-25510381D02*
X11758810Y-25472286D01*
X11758810Y-25472286D02*
X11758810Y-25424667D01*
X11758810Y-25424667D02*
X11768333Y-25386571D01*
X11768333Y-25386571D02*
X11777857Y-25367524D01*
X11777857Y-25367524D02*
X11787381Y-25358000D01*
X11787381Y-25358000D02*
X11806429Y-25348476D01*
X12044524Y-25415143D02*
X12044524Y-25548476D01*
X11996905Y-25338952D02*
X11949286Y-25481809D01*
X11949286Y-25481809D02*
X12073095Y-25481809D01*
X12130238Y-25348476D02*
X12254048Y-25348476D01*
X12254048Y-25348476D02*
X12187381Y-25424667D01*
X12187381Y-25424667D02*
X12215952Y-25424667D01*
X12215952Y-25424667D02*
X12235000Y-25434190D01*
X12235000Y-25434190D02*
X12244524Y-25443714D01*
X12244524Y-25443714D02*
X12254048Y-25462762D01*
X12254048Y-25462762D02*
X12254048Y-25510381D01*
X12254048Y-25510381D02*
X12244524Y-25529428D01*
X12244524Y-25529428D02*
X12235000Y-25538952D01*
X12235000Y-25538952D02*
X12215952Y-25548476D01*
X12215952Y-25548476D02*
X12158810Y-25548476D01*
X12158810Y-25548476D02*
X12139762Y-25538952D01*
X12139762Y-25538952D02*
X12130238Y-25529428D01*
X12320714Y-25348476D02*
X12444524Y-25348476D01*
X12444524Y-25348476D02*
X12377857Y-25424667D01*
X12377857Y-25424667D02*
X12406429Y-25424667D01*
X12406429Y-25424667D02*
X12425476Y-25434190D01*
X12425476Y-25434190D02*
X12435000Y-25443714D01*
X12435000Y-25443714D02*
X12444524Y-25462762D01*
X12444524Y-25462762D02*
X12444524Y-25510381D01*
X12444524Y-25510381D02*
X12435000Y-25529428D01*
X12435000Y-25529428D02*
X12425476Y-25538952D01*
X12425476Y-25538952D02*
X12406429Y-25548476D01*
X12406429Y-25548476D02*
X12349286Y-25548476D01*
X12349286Y-25548476D02*
X12330238Y-25538952D01*
X12330238Y-25538952D02*
X12320714Y-25529428D01*
X12520714Y-25348476D02*
X12520714Y-25386571D01*
X12596905Y-25348476D02*
X12596905Y-25386571D01*
X12859762Y-25624667D02*
X12850238Y-25615143D01*
X12850238Y-25615143D02*
X12831191Y-25586571D01*
X12831191Y-25586571D02*
X12821667Y-25567524D01*
X12821667Y-25567524D02*
X12812143Y-25538952D01*
X12812143Y-25538952D02*
X12802619Y-25491333D01*
X12802619Y-25491333D02*
X12802619Y-25453238D01*
X12802619Y-25453238D02*
X12812143Y-25405619D01*
X12812143Y-25405619D02*
X12821667Y-25377048D01*
X12821667Y-25377048D02*
X12831191Y-25358000D01*
X12831191Y-25358000D02*
X12850238Y-25329428D01*
X12850238Y-25329428D02*
X12859762Y-25319905D01*
X12964524Y-25434190D02*
X12945476Y-25424667D01*
X12945476Y-25424667D02*
X12935952Y-25415143D01*
X12935952Y-25415143D02*
X12926429Y-25396095D01*
X12926429Y-25396095D02*
X12926429Y-25386571D01*
X12926429Y-25386571D02*
X12935952Y-25367524D01*
X12935952Y-25367524D02*
X12945476Y-25358000D01*
X12945476Y-25358000D02*
X12964524Y-25348476D01*
X12964524Y-25348476D02*
X13002619Y-25348476D01*
X13002619Y-25348476D02*
X13021667Y-25358000D01*
X13021667Y-25358000D02*
X13031191Y-25367524D01*
X13031191Y-25367524D02*
X13040714Y-25386571D01*
X13040714Y-25386571D02*
X13040714Y-25396095D01*
X13040714Y-25396095D02*
X13031191Y-25415143D01*
X13031191Y-25415143D02*
X13021667Y-25424667D01*
X13021667Y-25424667D02*
X13002619Y-25434190D01*
X13002619Y-25434190D02*
X12964524Y-25434190D01*
X12964524Y-25434190D02*
X12945476Y-25443714D01*
X12945476Y-25443714D02*
X12935952Y-25453238D01*
X12935952Y-25453238D02*
X12926429Y-25472286D01*
X12926429Y-25472286D02*
X12926429Y-25510381D01*
X12926429Y-25510381D02*
X12935952Y-25529428D01*
X12935952Y-25529428D02*
X12945476Y-25538952D01*
X12945476Y-25538952D02*
X12964524Y-25548476D01*
X12964524Y-25548476D02*
X13002619Y-25548476D01*
X13002619Y-25548476D02*
X13021667Y-25538952D01*
X13021667Y-25538952D02*
X13031191Y-25529428D01*
X13031191Y-25529428D02*
X13040714Y-25510381D01*
X13040714Y-25510381D02*
X13040714Y-25472286D01*
X13040714Y-25472286D02*
X13031191Y-25453238D01*
X13031191Y-25453238D02*
X13021667Y-25443714D01*
X13021667Y-25443714D02*
X13002619Y-25434190D01*
X13246429Y-25548476D02*
X13246429Y-25348476D01*
X13332143Y-25548476D02*
X13332143Y-25443714D01*
X13332143Y-25443714D02*
X13322619Y-25424667D01*
X13322619Y-25424667D02*
X13303572Y-25415143D01*
X13303572Y-25415143D02*
X13275000Y-25415143D01*
X13275000Y-25415143D02*
X13255952Y-25424667D01*
X13255952Y-25424667D02*
X13246429Y-25434190D01*
X13455952Y-25548476D02*
X13436905Y-25538952D01*
X13436905Y-25538952D02*
X13427381Y-25529428D01*
X13427381Y-25529428D02*
X13417857Y-25510381D01*
X13417857Y-25510381D02*
X13417857Y-25453238D01*
X13417857Y-25453238D02*
X13427381Y-25434190D01*
X13427381Y-25434190D02*
X13436905Y-25424667D01*
X13436905Y-25424667D02*
X13455952Y-25415143D01*
X13455952Y-25415143D02*
X13484524Y-25415143D01*
X13484524Y-25415143D02*
X13503572Y-25424667D01*
X13503572Y-25424667D02*
X13513095Y-25434190D01*
X13513095Y-25434190D02*
X13522619Y-25453238D01*
X13522619Y-25453238D02*
X13522619Y-25510381D01*
X13522619Y-25510381D02*
X13513095Y-25529428D01*
X13513095Y-25529428D02*
X13503572Y-25538952D01*
X13503572Y-25538952D02*
X13484524Y-25548476D01*
X13484524Y-25548476D02*
X13455952Y-25548476D01*
X13636905Y-25548476D02*
X13617857Y-25538952D01*
X13617857Y-25538952D02*
X13608333Y-25519905D01*
X13608333Y-25519905D02*
X13608333Y-25348476D01*
X13789286Y-25538952D02*
X13770238Y-25548476D01*
X13770238Y-25548476D02*
X13732143Y-25548476D01*
X13732143Y-25548476D02*
X13713095Y-25538952D01*
X13713095Y-25538952D02*
X13703572Y-25519905D01*
X13703572Y-25519905D02*
X13703572Y-25443714D01*
X13703572Y-25443714D02*
X13713095Y-25424667D01*
X13713095Y-25424667D02*
X13732143Y-25415143D01*
X13732143Y-25415143D02*
X13770238Y-25415143D01*
X13770238Y-25415143D02*
X13789286Y-25424667D01*
X13789286Y-25424667D02*
X13798810Y-25443714D01*
X13798810Y-25443714D02*
X13798810Y-25462762D01*
X13798810Y-25462762D02*
X13703572Y-25481809D01*
X13875000Y-25538952D02*
X13894048Y-25548476D01*
X13894048Y-25548476D02*
X13932143Y-25548476D01*
X13932143Y-25548476D02*
X13951191Y-25538952D01*
X13951191Y-25538952D02*
X13960714Y-25519905D01*
X13960714Y-25519905D02*
X13960714Y-25510381D01*
X13960714Y-25510381D02*
X13951191Y-25491333D01*
X13951191Y-25491333D02*
X13932143Y-25481809D01*
X13932143Y-25481809D02*
X13903572Y-25481809D01*
X13903572Y-25481809D02*
X13884524Y-25472286D01*
X13884524Y-25472286D02*
X13875000Y-25453238D01*
X13875000Y-25453238D02*
X13875000Y-25443714D01*
X13875000Y-25443714D02*
X13884524Y-25424667D01*
X13884524Y-25424667D02*
X13903572Y-25415143D01*
X13903572Y-25415143D02*
X13932143Y-25415143D01*
X13932143Y-25415143D02*
X13951191Y-25424667D01*
X14027381Y-25624667D02*
X14036905Y-25615143D01*
X14036905Y-25615143D02*
X14055953Y-25586571D01*
X14055953Y-25586571D02*
X14065476Y-25567524D01*
X14065476Y-25567524D02*
X14075000Y-25538952D01*
X14075000Y-25538952D02*
X14084524Y-25491333D01*
X14084524Y-25491333D02*
X14084524Y-25453238D01*
X14084524Y-25453238D02*
X14075000Y-25405619D01*
X14075000Y-25405619D02*
X14065476Y-25377048D01*
X14065476Y-25377048D02*
X14055953Y-25358000D01*
X14055953Y-25358000D02*
X14036905Y-25329428D01*
X14036905Y-25329428D02*
X14027381Y-25319905D01*
D17*
X9245000Y-25664000D02*
X9395000Y-25814000D01*
X9395000Y-25664000D02*
X9245000Y-25814000D01*
X9320000Y-25664000D02*
X9320000Y-25814000D01*
X9245000Y-25739000D02*
X9395000Y-25739000D01*
D11*
X9747381Y-25812476D02*
X9633095Y-25812476D01*
X9690238Y-25812476D02*
X9690238Y-25612476D01*
X9690238Y-25612476D02*
X9671190Y-25641048D01*
X9671190Y-25641048D02*
X9652143Y-25660095D01*
X9652143Y-25660095D02*
X9633095Y-25669619D01*
X9833095Y-25793428D02*
X9842619Y-25802952D01*
X9842619Y-25802952D02*
X9833095Y-25812476D01*
X9833095Y-25812476D02*
X9823571Y-25802952D01*
X9823571Y-25802952D02*
X9833095Y-25793428D01*
X9833095Y-25793428D02*
X9833095Y-25812476D01*
X10023571Y-25612476D02*
X9928333Y-25612476D01*
X9928333Y-25612476D02*
X9918810Y-25707714D01*
X9918810Y-25707714D02*
X9928333Y-25698190D01*
X9928333Y-25698190D02*
X9947381Y-25688667D01*
X9947381Y-25688667D02*
X9995000Y-25688667D01*
X9995000Y-25688667D02*
X10014048Y-25698190D01*
X10014048Y-25698190D02*
X10023571Y-25707714D01*
X10023571Y-25707714D02*
X10033095Y-25726762D01*
X10033095Y-25726762D02*
X10033095Y-25774381D01*
X10033095Y-25774381D02*
X10023571Y-25793428D01*
X10023571Y-25793428D02*
X10014048Y-25802952D01*
X10014048Y-25802952D02*
X9995000Y-25812476D01*
X9995000Y-25812476D02*
X9947381Y-25812476D01*
X9947381Y-25812476D02*
X9928333Y-25802952D01*
X9928333Y-25802952D02*
X9918810Y-25793428D01*
X10156905Y-25612476D02*
X10175952Y-25612476D01*
X10175952Y-25612476D02*
X10195000Y-25622000D01*
X10195000Y-25622000D02*
X10204524Y-25631524D01*
X10204524Y-25631524D02*
X10214048Y-25650571D01*
X10214048Y-25650571D02*
X10223571Y-25688667D01*
X10223571Y-25688667D02*
X10223571Y-25736286D01*
X10223571Y-25736286D02*
X10214048Y-25774381D01*
X10214048Y-25774381D02*
X10204524Y-25793428D01*
X10204524Y-25793428D02*
X10195000Y-25802952D01*
X10195000Y-25802952D02*
X10175952Y-25812476D01*
X10175952Y-25812476D02*
X10156905Y-25812476D01*
X10156905Y-25812476D02*
X10137857Y-25802952D01*
X10137857Y-25802952D02*
X10128333Y-25793428D01*
X10128333Y-25793428D02*
X10118810Y-25774381D01*
X10118810Y-25774381D02*
X10109286Y-25736286D01*
X10109286Y-25736286D02*
X10109286Y-25688667D01*
X10109286Y-25688667D02*
X10118810Y-25650571D01*
X10118810Y-25650571D02*
X10128333Y-25631524D01*
X10128333Y-25631524D02*
X10137857Y-25622000D01*
X10137857Y-25622000D02*
X10156905Y-25612476D01*
X10347381Y-25612476D02*
X10366429Y-25612476D01*
X10366429Y-25612476D02*
X10385476Y-25622000D01*
X10385476Y-25622000D02*
X10395000Y-25631524D01*
X10395000Y-25631524D02*
X10404524Y-25650571D01*
X10404524Y-25650571D02*
X10414048Y-25688667D01*
X10414048Y-25688667D02*
X10414048Y-25736286D01*
X10414048Y-25736286D02*
X10404524Y-25774381D01*
X10404524Y-25774381D02*
X10395000Y-25793428D01*
X10395000Y-25793428D02*
X10385476Y-25802952D01*
X10385476Y-25802952D02*
X10366429Y-25812476D01*
X10366429Y-25812476D02*
X10347381Y-25812476D01*
X10347381Y-25812476D02*
X10328333Y-25802952D01*
X10328333Y-25802952D02*
X10318810Y-25793428D01*
X10318810Y-25793428D02*
X10309286Y-25774381D01*
X10309286Y-25774381D02*
X10299762Y-25736286D01*
X10299762Y-25736286D02*
X10299762Y-25688667D01*
X10299762Y-25688667D02*
X10309286Y-25650571D01*
X10309286Y-25650571D02*
X10318810Y-25631524D01*
X10318810Y-25631524D02*
X10328333Y-25622000D01*
X10328333Y-25622000D02*
X10347381Y-25612476D01*
X10499762Y-25812476D02*
X10499762Y-25679143D01*
X10499762Y-25698190D02*
X10509286Y-25688667D01*
X10509286Y-25688667D02*
X10528333Y-25679143D01*
X10528333Y-25679143D02*
X10556905Y-25679143D01*
X10556905Y-25679143D02*
X10575952Y-25688667D01*
X10575952Y-25688667D02*
X10585476Y-25707714D01*
X10585476Y-25707714D02*
X10585476Y-25812476D01*
X10585476Y-25707714D02*
X10595000Y-25688667D01*
X10595000Y-25688667D02*
X10614048Y-25679143D01*
X10614048Y-25679143D02*
X10642619Y-25679143D01*
X10642619Y-25679143D02*
X10661667Y-25688667D01*
X10661667Y-25688667D02*
X10671191Y-25707714D01*
X10671191Y-25707714D02*
X10671191Y-25812476D01*
X10766429Y-25812476D02*
X10766429Y-25679143D01*
X10766429Y-25698190D02*
X10775952Y-25688667D01*
X10775952Y-25688667D02*
X10795000Y-25679143D01*
X10795000Y-25679143D02*
X10823572Y-25679143D01*
X10823572Y-25679143D02*
X10842619Y-25688667D01*
X10842619Y-25688667D02*
X10852143Y-25707714D01*
X10852143Y-25707714D02*
X10852143Y-25812476D01*
X10852143Y-25707714D02*
X10861667Y-25688667D01*
X10861667Y-25688667D02*
X10880714Y-25679143D01*
X10880714Y-25679143D02*
X10909286Y-25679143D01*
X10909286Y-25679143D02*
X10928333Y-25688667D01*
X10928333Y-25688667D02*
X10937857Y-25707714D01*
X10937857Y-25707714D02*
X10937857Y-25812476D01*
X11295952Y-25602952D02*
X11124524Y-25860095D01*
X11520714Y-25612476D02*
X11539762Y-25612476D01*
X11539762Y-25612476D02*
X11558810Y-25622000D01*
X11558810Y-25622000D02*
X11568333Y-25631524D01*
X11568333Y-25631524D02*
X11577857Y-25650571D01*
X11577857Y-25650571D02*
X11587381Y-25688667D01*
X11587381Y-25688667D02*
X11587381Y-25736286D01*
X11587381Y-25736286D02*
X11577857Y-25774381D01*
X11577857Y-25774381D02*
X11568333Y-25793428D01*
X11568333Y-25793428D02*
X11558810Y-25802952D01*
X11558810Y-25802952D02*
X11539762Y-25812476D01*
X11539762Y-25812476D02*
X11520714Y-25812476D01*
X11520714Y-25812476D02*
X11501667Y-25802952D01*
X11501667Y-25802952D02*
X11492143Y-25793428D01*
X11492143Y-25793428D02*
X11482619Y-25774381D01*
X11482619Y-25774381D02*
X11473095Y-25736286D01*
X11473095Y-25736286D02*
X11473095Y-25688667D01*
X11473095Y-25688667D02*
X11482619Y-25650571D01*
X11482619Y-25650571D02*
X11492143Y-25631524D01*
X11492143Y-25631524D02*
X11501667Y-25622000D01*
X11501667Y-25622000D02*
X11520714Y-25612476D01*
X11673095Y-25793428D02*
X11682619Y-25802952D01*
X11682619Y-25802952D02*
X11673095Y-25812476D01*
X11673095Y-25812476D02*
X11663571Y-25802952D01*
X11663571Y-25802952D02*
X11673095Y-25793428D01*
X11673095Y-25793428D02*
X11673095Y-25812476D01*
X11806429Y-25612476D02*
X11825476Y-25612476D01*
X11825476Y-25612476D02*
X11844524Y-25622000D01*
X11844524Y-25622000D02*
X11854048Y-25631524D01*
X11854048Y-25631524D02*
X11863571Y-25650571D01*
X11863571Y-25650571D02*
X11873095Y-25688667D01*
X11873095Y-25688667D02*
X11873095Y-25736286D01*
X11873095Y-25736286D02*
X11863571Y-25774381D01*
X11863571Y-25774381D02*
X11854048Y-25793428D01*
X11854048Y-25793428D02*
X11844524Y-25802952D01*
X11844524Y-25802952D02*
X11825476Y-25812476D01*
X11825476Y-25812476D02*
X11806429Y-25812476D01*
X11806429Y-25812476D02*
X11787381Y-25802952D01*
X11787381Y-25802952D02*
X11777857Y-25793428D01*
X11777857Y-25793428D02*
X11768333Y-25774381D01*
X11768333Y-25774381D02*
X11758810Y-25736286D01*
X11758810Y-25736286D02*
X11758810Y-25688667D01*
X11758810Y-25688667D02*
X11768333Y-25650571D01*
X11768333Y-25650571D02*
X11777857Y-25631524D01*
X11777857Y-25631524D02*
X11787381Y-25622000D01*
X11787381Y-25622000D02*
X11806429Y-25612476D01*
X12054048Y-25612476D02*
X11958810Y-25612476D01*
X11958810Y-25612476D02*
X11949286Y-25707714D01*
X11949286Y-25707714D02*
X11958810Y-25698190D01*
X11958810Y-25698190D02*
X11977857Y-25688667D01*
X11977857Y-25688667D02*
X12025476Y-25688667D01*
X12025476Y-25688667D02*
X12044524Y-25698190D01*
X12044524Y-25698190D02*
X12054048Y-25707714D01*
X12054048Y-25707714D02*
X12063571Y-25726762D01*
X12063571Y-25726762D02*
X12063571Y-25774381D01*
X12063571Y-25774381D02*
X12054048Y-25793428D01*
X12054048Y-25793428D02*
X12044524Y-25802952D01*
X12044524Y-25802952D02*
X12025476Y-25812476D01*
X12025476Y-25812476D02*
X11977857Y-25812476D01*
X11977857Y-25812476D02*
X11958810Y-25802952D01*
X11958810Y-25802952D02*
X11949286Y-25793428D01*
X12158810Y-25812476D02*
X12196905Y-25812476D01*
X12196905Y-25812476D02*
X12215952Y-25802952D01*
X12215952Y-25802952D02*
X12225476Y-25793428D01*
X12225476Y-25793428D02*
X12244524Y-25764857D01*
X12244524Y-25764857D02*
X12254048Y-25726762D01*
X12254048Y-25726762D02*
X12254048Y-25650571D01*
X12254048Y-25650571D02*
X12244524Y-25631524D01*
X12244524Y-25631524D02*
X12235000Y-25622000D01*
X12235000Y-25622000D02*
X12215952Y-25612476D01*
X12215952Y-25612476D02*
X12177857Y-25612476D01*
X12177857Y-25612476D02*
X12158810Y-25622000D01*
X12158810Y-25622000D02*
X12149286Y-25631524D01*
X12149286Y-25631524D02*
X12139762Y-25650571D01*
X12139762Y-25650571D02*
X12139762Y-25698190D01*
X12139762Y-25698190D02*
X12149286Y-25717238D01*
X12149286Y-25717238D02*
X12158810Y-25726762D01*
X12158810Y-25726762D02*
X12177857Y-25736286D01*
X12177857Y-25736286D02*
X12215952Y-25736286D01*
X12215952Y-25736286D02*
X12235000Y-25726762D01*
X12235000Y-25726762D02*
X12244524Y-25717238D01*
X12244524Y-25717238D02*
X12254048Y-25698190D01*
X12444524Y-25812476D02*
X12330238Y-25812476D01*
X12387381Y-25812476D02*
X12387381Y-25612476D01*
X12387381Y-25612476D02*
X12368333Y-25641048D01*
X12368333Y-25641048D02*
X12349286Y-25660095D01*
X12349286Y-25660095D02*
X12330238Y-25669619D01*
X12520714Y-25612476D02*
X12520714Y-25650571D01*
X12596905Y-25612476D02*
X12596905Y-25650571D01*
X12859762Y-25888667D02*
X12850238Y-25879143D01*
X12850238Y-25879143D02*
X12831191Y-25850571D01*
X12831191Y-25850571D02*
X12821667Y-25831524D01*
X12821667Y-25831524D02*
X12812143Y-25802952D01*
X12812143Y-25802952D02*
X12802619Y-25755333D01*
X12802619Y-25755333D02*
X12802619Y-25717238D01*
X12802619Y-25717238D02*
X12812143Y-25669619D01*
X12812143Y-25669619D02*
X12821667Y-25641048D01*
X12821667Y-25641048D02*
X12831191Y-25622000D01*
X12831191Y-25622000D02*
X12850238Y-25593428D01*
X12850238Y-25593428D02*
X12859762Y-25583905D01*
X13040714Y-25812476D02*
X12926429Y-25812476D01*
X12983571Y-25812476D02*
X12983571Y-25612476D01*
X12983571Y-25612476D02*
X12964524Y-25641048D01*
X12964524Y-25641048D02*
X12945476Y-25660095D01*
X12945476Y-25660095D02*
X12926429Y-25669619D01*
X13155000Y-25698190D02*
X13135952Y-25688667D01*
X13135952Y-25688667D02*
X13126429Y-25679143D01*
X13126429Y-25679143D02*
X13116905Y-25660095D01*
X13116905Y-25660095D02*
X13116905Y-25650571D01*
X13116905Y-25650571D02*
X13126429Y-25631524D01*
X13126429Y-25631524D02*
X13135952Y-25622000D01*
X13135952Y-25622000D02*
X13155000Y-25612476D01*
X13155000Y-25612476D02*
X13193095Y-25612476D01*
X13193095Y-25612476D02*
X13212143Y-25622000D01*
X13212143Y-25622000D02*
X13221667Y-25631524D01*
X13221667Y-25631524D02*
X13231191Y-25650571D01*
X13231191Y-25650571D02*
X13231191Y-25660095D01*
X13231191Y-25660095D02*
X13221667Y-25679143D01*
X13221667Y-25679143D02*
X13212143Y-25688667D01*
X13212143Y-25688667D02*
X13193095Y-25698190D01*
X13193095Y-25698190D02*
X13155000Y-25698190D01*
X13155000Y-25698190D02*
X13135952Y-25707714D01*
X13135952Y-25707714D02*
X13126429Y-25717238D01*
X13126429Y-25717238D02*
X13116905Y-25736286D01*
X13116905Y-25736286D02*
X13116905Y-25774381D01*
X13116905Y-25774381D02*
X13126429Y-25793428D01*
X13126429Y-25793428D02*
X13135952Y-25802952D01*
X13135952Y-25802952D02*
X13155000Y-25812476D01*
X13155000Y-25812476D02*
X13193095Y-25812476D01*
X13193095Y-25812476D02*
X13212143Y-25802952D01*
X13212143Y-25802952D02*
X13221667Y-25793428D01*
X13221667Y-25793428D02*
X13231191Y-25774381D01*
X13231191Y-25774381D02*
X13231191Y-25736286D01*
X13231191Y-25736286D02*
X13221667Y-25717238D01*
X13221667Y-25717238D02*
X13212143Y-25707714D01*
X13212143Y-25707714D02*
X13193095Y-25698190D01*
X13345476Y-25698190D02*
X13326429Y-25688667D01*
X13326429Y-25688667D02*
X13316905Y-25679143D01*
X13316905Y-25679143D02*
X13307381Y-25660095D01*
X13307381Y-25660095D02*
X13307381Y-25650571D01*
X13307381Y-25650571D02*
X13316905Y-25631524D01*
X13316905Y-25631524D02*
X13326429Y-25622000D01*
X13326429Y-25622000D02*
X13345476Y-25612476D01*
X13345476Y-25612476D02*
X13383572Y-25612476D01*
X13383572Y-25612476D02*
X13402619Y-25622000D01*
X13402619Y-25622000D02*
X13412143Y-25631524D01*
X13412143Y-25631524D02*
X13421667Y-25650571D01*
X13421667Y-25650571D02*
X13421667Y-25660095D01*
X13421667Y-25660095D02*
X13412143Y-25679143D01*
X13412143Y-25679143D02*
X13402619Y-25688667D01*
X13402619Y-25688667D02*
X13383572Y-25698190D01*
X13383572Y-25698190D02*
X13345476Y-25698190D01*
X13345476Y-25698190D02*
X13326429Y-25707714D01*
X13326429Y-25707714D02*
X13316905Y-25717238D01*
X13316905Y-25717238D02*
X13307381Y-25736286D01*
X13307381Y-25736286D02*
X13307381Y-25774381D01*
X13307381Y-25774381D02*
X13316905Y-25793428D01*
X13316905Y-25793428D02*
X13326429Y-25802952D01*
X13326429Y-25802952D02*
X13345476Y-25812476D01*
X13345476Y-25812476D02*
X13383572Y-25812476D01*
X13383572Y-25812476D02*
X13402619Y-25802952D01*
X13402619Y-25802952D02*
X13412143Y-25793428D01*
X13412143Y-25793428D02*
X13421667Y-25774381D01*
X13421667Y-25774381D02*
X13421667Y-25736286D01*
X13421667Y-25736286D02*
X13412143Y-25717238D01*
X13412143Y-25717238D02*
X13402619Y-25707714D01*
X13402619Y-25707714D02*
X13383572Y-25698190D01*
X13627381Y-25812476D02*
X13627381Y-25612476D01*
X13713095Y-25812476D02*
X13713095Y-25707714D01*
X13713095Y-25707714D02*
X13703572Y-25688667D01*
X13703572Y-25688667D02*
X13684524Y-25679143D01*
X13684524Y-25679143D02*
X13655952Y-25679143D01*
X13655952Y-25679143D02*
X13636905Y-25688667D01*
X13636905Y-25688667D02*
X13627381Y-25698190D01*
X13836905Y-25812476D02*
X13817857Y-25802952D01*
X13817857Y-25802952D02*
X13808333Y-25793428D01*
X13808333Y-25793428D02*
X13798810Y-25774381D01*
X13798810Y-25774381D02*
X13798810Y-25717238D01*
X13798810Y-25717238D02*
X13808333Y-25698190D01*
X13808333Y-25698190D02*
X13817857Y-25688667D01*
X13817857Y-25688667D02*
X13836905Y-25679143D01*
X13836905Y-25679143D02*
X13865476Y-25679143D01*
X13865476Y-25679143D02*
X13884524Y-25688667D01*
X13884524Y-25688667D02*
X13894048Y-25698190D01*
X13894048Y-25698190D02*
X13903572Y-25717238D01*
X13903572Y-25717238D02*
X13903572Y-25774381D01*
X13903572Y-25774381D02*
X13894048Y-25793428D01*
X13894048Y-25793428D02*
X13884524Y-25802952D01*
X13884524Y-25802952D02*
X13865476Y-25812476D01*
X13865476Y-25812476D02*
X13836905Y-25812476D01*
X14017857Y-25812476D02*
X13998810Y-25802952D01*
X13998810Y-25802952D02*
X13989286Y-25783905D01*
X13989286Y-25783905D02*
X13989286Y-25612476D01*
X14170238Y-25802952D02*
X14151191Y-25812476D01*
X14151191Y-25812476D02*
X14113095Y-25812476D01*
X14113095Y-25812476D02*
X14094048Y-25802952D01*
X14094048Y-25802952D02*
X14084524Y-25783905D01*
X14084524Y-25783905D02*
X14084524Y-25707714D01*
X14084524Y-25707714D02*
X14094048Y-25688667D01*
X14094048Y-25688667D02*
X14113095Y-25679143D01*
X14113095Y-25679143D02*
X14151191Y-25679143D01*
X14151191Y-25679143D02*
X14170238Y-25688667D01*
X14170238Y-25688667D02*
X14179762Y-25707714D01*
X14179762Y-25707714D02*
X14179762Y-25726762D01*
X14179762Y-25726762D02*
X14084524Y-25745809D01*
X14255953Y-25802952D02*
X14275000Y-25812476D01*
X14275000Y-25812476D02*
X14313095Y-25812476D01*
X14313095Y-25812476D02*
X14332143Y-25802952D01*
X14332143Y-25802952D02*
X14341667Y-25783905D01*
X14341667Y-25783905D02*
X14341667Y-25774381D01*
X14341667Y-25774381D02*
X14332143Y-25755333D01*
X14332143Y-25755333D02*
X14313095Y-25745809D01*
X14313095Y-25745809D02*
X14284524Y-25745809D01*
X14284524Y-25745809D02*
X14265476Y-25736286D01*
X14265476Y-25736286D02*
X14255953Y-25717238D01*
X14255953Y-25717238D02*
X14255953Y-25707714D01*
X14255953Y-25707714D02*
X14265476Y-25688667D01*
X14265476Y-25688667D02*
X14284524Y-25679143D01*
X14284524Y-25679143D02*
X14313095Y-25679143D01*
X14313095Y-25679143D02*
X14332143Y-25688667D01*
X14408334Y-25888667D02*
X14417857Y-25879143D01*
X14417857Y-25879143D02*
X14436905Y-25850571D01*
X14436905Y-25850571D02*
X14446429Y-25831524D01*
X14446429Y-25831524D02*
X14455953Y-25802952D01*
X14455953Y-25802952D02*
X14465476Y-25755333D01*
X14465476Y-25755333D02*
X14465476Y-25717238D01*
X14465476Y-25717238D02*
X14455953Y-25669619D01*
X14455953Y-25669619D02*
X14446429Y-25641048D01*
X14446429Y-25641048D02*
X14436905Y-25622000D01*
X14436905Y-25622000D02*
X14417857Y-25593428D01*
X14417857Y-25593428D02*
X14408334Y-25583905D01*
X9195000Y-25909000D02*
X9395000Y-26109000D01*
X9395000Y-25909000D02*
X9195000Y-26109000D01*
X9365711Y-26079711D02*
X9365711Y-25938289D01*
X9224289Y-25938289D01*
X9224289Y-26079711D01*
X9365711Y-26079711D01*
X9728333Y-25949143D02*
X9728333Y-26082476D01*
X9680714Y-25872952D02*
X9633095Y-26015809D01*
X9633095Y-26015809D02*
X9756905Y-26015809D01*
X9833095Y-26063428D02*
X9842619Y-26072952D01*
X9842619Y-26072952D02*
X9833095Y-26082476D01*
X9833095Y-26082476D02*
X9823571Y-26072952D01*
X9823571Y-26072952D02*
X9833095Y-26063428D01*
X9833095Y-26063428D02*
X9833095Y-26082476D01*
X9909286Y-25882476D02*
X10033095Y-25882476D01*
X10033095Y-25882476D02*
X9966429Y-25958667D01*
X9966429Y-25958667D02*
X9995000Y-25958667D01*
X9995000Y-25958667D02*
X10014048Y-25968190D01*
X10014048Y-25968190D02*
X10023571Y-25977714D01*
X10023571Y-25977714D02*
X10033095Y-25996762D01*
X10033095Y-25996762D02*
X10033095Y-26044381D01*
X10033095Y-26044381D02*
X10023571Y-26063428D01*
X10023571Y-26063428D02*
X10014048Y-26072952D01*
X10014048Y-26072952D02*
X9995000Y-26082476D01*
X9995000Y-26082476D02*
X9937857Y-26082476D01*
X9937857Y-26082476D02*
X9918810Y-26072952D01*
X9918810Y-26072952D02*
X9909286Y-26063428D01*
X10156905Y-25882476D02*
X10175952Y-25882476D01*
X10175952Y-25882476D02*
X10195000Y-25892000D01*
X10195000Y-25892000D02*
X10204524Y-25901524D01*
X10204524Y-25901524D02*
X10214048Y-25920571D01*
X10214048Y-25920571D02*
X10223571Y-25958667D01*
X10223571Y-25958667D02*
X10223571Y-26006286D01*
X10223571Y-26006286D02*
X10214048Y-26044381D01*
X10214048Y-26044381D02*
X10204524Y-26063428D01*
X10204524Y-26063428D02*
X10195000Y-26072952D01*
X10195000Y-26072952D02*
X10175952Y-26082476D01*
X10175952Y-26082476D02*
X10156905Y-26082476D01*
X10156905Y-26082476D02*
X10137857Y-26072952D01*
X10137857Y-26072952D02*
X10128333Y-26063428D01*
X10128333Y-26063428D02*
X10118810Y-26044381D01*
X10118810Y-26044381D02*
X10109286Y-26006286D01*
X10109286Y-26006286D02*
X10109286Y-25958667D01*
X10109286Y-25958667D02*
X10118810Y-25920571D01*
X10118810Y-25920571D02*
X10128333Y-25901524D01*
X10128333Y-25901524D02*
X10137857Y-25892000D01*
X10137857Y-25892000D02*
X10156905Y-25882476D01*
X10347381Y-25882476D02*
X10366429Y-25882476D01*
X10366429Y-25882476D02*
X10385476Y-25892000D01*
X10385476Y-25892000D02*
X10395000Y-25901524D01*
X10395000Y-25901524D02*
X10404524Y-25920571D01*
X10404524Y-25920571D02*
X10414048Y-25958667D01*
X10414048Y-25958667D02*
X10414048Y-26006286D01*
X10414048Y-26006286D02*
X10404524Y-26044381D01*
X10404524Y-26044381D02*
X10395000Y-26063428D01*
X10395000Y-26063428D02*
X10385476Y-26072952D01*
X10385476Y-26072952D02*
X10366429Y-26082476D01*
X10366429Y-26082476D02*
X10347381Y-26082476D01*
X10347381Y-26082476D02*
X10328333Y-26072952D01*
X10328333Y-26072952D02*
X10318810Y-26063428D01*
X10318810Y-26063428D02*
X10309286Y-26044381D01*
X10309286Y-26044381D02*
X10299762Y-26006286D01*
X10299762Y-26006286D02*
X10299762Y-25958667D01*
X10299762Y-25958667D02*
X10309286Y-25920571D01*
X10309286Y-25920571D02*
X10318810Y-25901524D01*
X10318810Y-25901524D02*
X10328333Y-25892000D01*
X10328333Y-25892000D02*
X10347381Y-25882476D01*
X10499762Y-26082476D02*
X10499762Y-25949143D01*
X10499762Y-25968190D02*
X10509286Y-25958667D01*
X10509286Y-25958667D02*
X10528333Y-25949143D01*
X10528333Y-25949143D02*
X10556905Y-25949143D01*
X10556905Y-25949143D02*
X10575952Y-25958667D01*
X10575952Y-25958667D02*
X10585476Y-25977714D01*
X10585476Y-25977714D02*
X10585476Y-26082476D01*
X10585476Y-25977714D02*
X10595000Y-25958667D01*
X10595000Y-25958667D02*
X10614048Y-25949143D01*
X10614048Y-25949143D02*
X10642619Y-25949143D01*
X10642619Y-25949143D02*
X10661667Y-25958667D01*
X10661667Y-25958667D02*
X10671191Y-25977714D01*
X10671191Y-25977714D02*
X10671191Y-26082476D01*
X10766429Y-26082476D02*
X10766429Y-25949143D01*
X10766429Y-25968190D02*
X10775952Y-25958667D01*
X10775952Y-25958667D02*
X10795000Y-25949143D01*
X10795000Y-25949143D02*
X10823572Y-25949143D01*
X10823572Y-25949143D02*
X10842619Y-25958667D01*
X10842619Y-25958667D02*
X10852143Y-25977714D01*
X10852143Y-25977714D02*
X10852143Y-26082476D01*
X10852143Y-25977714D02*
X10861667Y-25958667D01*
X10861667Y-25958667D02*
X10880714Y-25949143D01*
X10880714Y-25949143D02*
X10909286Y-25949143D01*
X10909286Y-25949143D02*
X10928333Y-25958667D01*
X10928333Y-25958667D02*
X10937857Y-25977714D01*
X10937857Y-25977714D02*
X10937857Y-26082476D01*
X11295952Y-25872952D02*
X11124524Y-26130095D01*
X11520714Y-25882476D02*
X11539762Y-25882476D01*
X11539762Y-25882476D02*
X11558810Y-25892000D01*
X11558810Y-25892000D02*
X11568333Y-25901524D01*
X11568333Y-25901524D02*
X11577857Y-25920571D01*
X11577857Y-25920571D02*
X11587381Y-25958667D01*
X11587381Y-25958667D02*
X11587381Y-26006286D01*
X11587381Y-26006286D02*
X11577857Y-26044381D01*
X11577857Y-26044381D02*
X11568333Y-26063428D01*
X11568333Y-26063428D02*
X11558810Y-26072952D01*
X11558810Y-26072952D02*
X11539762Y-26082476D01*
X11539762Y-26082476D02*
X11520714Y-26082476D01*
X11520714Y-26082476D02*
X11501667Y-26072952D01*
X11501667Y-26072952D02*
X11492143Y-26063428D01*
X11492143Y-26063428D02*
X11482619Y-26044381D01*
X11482619Y-26044381D02*
X11473095Y-26006286D01*
X11473095Y-26006286D02*
X11473095Y-25958667D01*
X11473095Y-25958667D02*
X11482619Y-25920571D01*
X11482619Y-25920571D02*
X11492143Y-25901524D01*
X11492143Y-25901524D02*
X11501667Y-25892000D01*
X11501667Y-25892000D02*
X11520714Y-25882476D01*
X11673095Y-26063428D02*
X11682619Y-26072952D01*
X11682619Y-26072952D02*
X11673095Y-26082476D01*
X11673095Y-26082476D02*
X11663571Y-26072952D01*
X11663571Y-26072952D02*
X11673095Y-26063428D01*
X11673095Y-26063428D02*
X11673095Y-26082476D01*
X11873095Y-26082476D02*
X11758810Y-26082476D01*
X11815952Y-26082476D02*
X11815952Y-25882476D01*
X11815952Y-25882476D02*
X11796905Y-25911048D01*
X11796905Y-25911048D02*
X11777857Y-25930095D01*
X11777857Y-25930095D02*
X11758810Y-25939619D01*
X12044524Y-25882476D02*
X12006429Y-25882476D01*
X12006429Y-25882476D02*
X11987381Y-25892000D01*
X11987381Y-25892000D02*
X11977857Y-25901524D01*
X11977857Y-25901524D02*
X11958810Y-25930095D01*
X11958810Y-25930095D02*
X11949286Y-25968190D01*
X11949286Y-25968190D02*
X11949286Y-26044381D01*
X11949286Y-26044381D02*
X11958810Y-26063428D01*
X11958810Y-26063428D02*
X11968333Y-26072952D01*
X11968333Y-26072952D02*
X11987381Y-26082476D01*
X11987381Y-26082476D02*
X12025476Y-26082476D01*
X12025476Y-26082476D02*
X12044524Y-26072952D01*
X12044524Y-26072952D02*
X12054048Y-26063428D01*
X12054048Y-26063428D02*
X12063571Y-26044381D01*
X12063571Y-26044381D02*
X12063571Y-25996762D01*
X12063571Y-25996762D02*
X12054048Y-25977714D01*
X12054048Y-25977714D02*
X12044524Y-25968190D01*
X12044524Y-25968190D02*
X12025476Y-25958667D01*
X12025476Y-25958667D02*
X11987381Y-25958667D01*
X11987381Y-25958667D02*
X11968333Y-25968190D01*
X11968333Y-25968190D02*
X11958810Y-25977714D01*
X11958810Y-25977714D02*
X11949286Y-25996762D01*
X12158810Y-26082476D02*
X12196905Y-26082476D01*
X12196905Y-26082476D02*
X12215952Y-26072952D01*
X12215952Y-26072952D02*
X12225476Y-26063428D01*
X12225476Y-26063428D02*
X12244524Y-26034857D01*
X12244524Y-26034857D02*
X12254048Y-25996762D01*
X12254048Y-25996762D02*
X12254048Y-25920571D01*
X12254048Y-25920571D02*
X12244524Y-25901524D01*
X12244524Y-25901524D02*
X12235000Y-25892000D01*
X12235000Y-25892000D02*
X12215952Y-25882476D01*
X12215952Y-25882476D02*
X12177857Y-25882476D01*
X12177857Y-25882476D02*
X12158810Y-25892000D01*
X12158810Y-25892000D02*
X12149286Y-25901524D01*
X12149286Y-25901524D02*
X12139762Y-25920571D01*
X12139762Y-25920571D02*
X12139762Y-25968190D01*
X12139762Y-25968190D02*
X12149286Y-25987238D01*
X12149286Y-25987238D02*
X12158810Y-25996762D01*
X12158810Y-25996762D02*
X12177857Y-26006286D01*
X12177857Y-26006286D02*
X12215952Y-26006286D01*
X12215952Y-26006286D02*
X12235000Y-25996762D01*
X12235000Y-25996762D02*
X12244524Y-25987238D01*
X12244524Y-25987238D02*
X12254048Y-25968190D01*
X12320714Y-25882476D02*
X12444524Y-25882476D01*
X12444524Y-25882476D02*
X12377857Y-25958667D01*
X12377857Y-25958667D02*
X12406429Y-25958667D01*
X12406429Y-25958667D02*
X12425476Y-25968190D01*
X12425476Y-25968190D02*
X12435000Y-25977714D01*
X12435000Y-25977714D02*
X12444524Y-25996762D01*
X12444524Y-25996762D02*
X12444524Y-26044381D01*
X12444524Y-26044381D02*
X12435000Y-26063428D01*
X12435000Y-26063428D02*
X12425476Y-26072952D01*
X12425476Y-26072952D02*
X12406429Y-26082476D01*
X12406429Y-26082476D02*
X12349286Y-26082476D01*
X12349286Y-26082476D02*
X12330238Y-26072952D01*
X12330238Y-26072952D02*
X12320714Y-26063428D01*
X12520714Y-25882476D02*
X12520714Y-25920571D01*
X12596905Y-25882476D02*
X12596905Y-25920571D01*
X12859762Y-26158667D02*
X12850238Y-26149143D01*
X12850238Y-26149143D02*
X12831191Y-26120571D01*
X12831191Y-26120571D02*
X12821667Y-26101524D01*
X12821667Y-26101524D02*
X12812143Y-26072952D01*
X12812143Y-26072952D02*
X12802619Y-26025333D01*
X12802619Y-26025333D02*
X12802619Y-25987238D01*
X12802619Y-25987238D02*
X12812143Y-25939619D01*
X12812143Y-25939619D02*
X12821667Y-25911048D01*
X12821667Y-25911048D02*
X12831191Y-25892000D01*
X12831191Y-25892000D02*
X12850238Y-25863428D01*
X12850238Y-25863428D02*
X12859762Y-25853905D01*
X13040714Y-26082476D02*
X12926429Y-26082476D01*
X12983571Y-26082476D02*
X12983571Y-25882476D01*
X12983571Y-25882476D02*
X12964524Y-25911048D01*
X12964524Y-25911048D02*
X12945476Y-25930095D01*
X12945476Y-25930095D02*
X12926429Y-25939619D01*
X13212143Y-25882476D02*
X13174048Y-25882476D01*
X13174048Y-25882476D02*
X13155000Y-25892000D01*
X13155000Y-25892000D02*
X13145476Y-25901524D01*
X13145476Y-25901524D02*
X13126429Y-25930095D01*
X13126429Y-25930095D02*
X13116905Y-25968190D01*
X13116905Y-25968190D02*
X13116905Y-26044381D01*
X13116905Y-26044381D02*
X13126429Y-26063428D01*
X13126429Y-26063428D02*
X13135952Y-26072952D01*
X13135952Y-26072952D02*
X13155000Y-26082476D01*
X13155000Y-26082476D02*
X13193095Y-26082476D01*
X13193095Y-26082476D02*
X13212143Y-26072952D01*
X13212143Y-26072952D02*
X13221667Y-26063428D01*
X13221667Y-26063428D02*
X13231191Y-26044381D01*
X13231191Y-26044381D02*
X13231191Y-25996762D01*
X13231191Y-25996762D02*
X13221667Y-25977714D01*
X13221667Y-25977714D02*
X13212143Y-25968190D01*
X13212143Y-25968190D02*
X13193095Y-25958667D01*
X13193095Y-25958667D02*
X13155000Y-25958667D01*
X13155000Y-25958667D02*
X13135952Y-25968190D01*
X13135952Y-25968190D02*
X13126429Y-25977714D01*
X13126429Y-25977714D02*
X13116905Y-25996762D01*
X13436905Y-26082476D02*
X13436905Y-25882476D01*
X13522619Y-26082476D02*
X13522619Y-25977714D01*
X13522619Y-25977714D02*
X13513095Y-25958667D01*
X13513095Y-25958667D02*
X13494048Y-25949143D01*
X13494048Y-25949143D02*
X13465476Y-25949143D01*
X13465476Y-25949143D02*
X13446429Y-25958667D01*
X13446429Y-25958667D02*
X13436905Y-25968190D01*
X13646429Y-26082476D02*
X13627381Y-26072952D01*
X13627381Y-26072952D02*
X13617857Y-26063428D01*
X13617857Y-26063428D02*
X13608333Y-26044381D01*
X13608333Y-26044381D02*
X13608333Y-25987238D01*
X13608333Y-25987238D02*
X13617857Y-25968190D01*
X13617857Y-25968190D02*
X13627381Y-25958667D01*
X13627381Y-25958667D02*
X13646429Y-25949143D01*
X13646429Y-25949143D02*
X13675000Y-25949143D01*
X13675000Y-25949143D02*
X13694048Y-25958667D01*
X13694048Y-25958667D02*
X13703572Y-25968190D01*
X13703572Y-25968190D02*
X13713095Y-25987238D01*
X13713095Y-25987238D02*
X13713095Y-26044381D01*
X13713095Y-26044381D02*
X13703572Y-26063428D01*
X13703572Y-26063428D02*
X13694048Y-26072952D01*
X13694048Y-26072952D02*
X13675000Y-26082476D01*
X13675000Y-26082476D02*
X13646429Y-26082476D01*
X13827381Y-26082476D02*
X13808333Y-26072952D01*
X13808333Y-26072952D02*
X13798810Y-26053905D01*
X13798810Y-26053905D02*
X13798810Y-25882476D01*
X13979762Y-26072952D02*
X13960714Y-26082476D01*
X13960714Y-26082476D02*
X13922619Y-26082476D01*
X13922619Y-26082476D02*
X13903572Y-26072952D01*
X13903572Y-26072952D02*
X13894048Y-26053905D01*
X13894048Y-26053905D02*
X13894048Y-25977714D01*
X13894048Y-25977714D02*
X13903572Y-25958667D01*
X13903572Y-25958667D02*
X13922619Y-25949143D01*
X13922619Y-25949143D02*
X13960714Y-25949143D01*
X13960714Y-25949143D02*
X13979762Y-25958667D01*
X13979762Y-25958667D02*
X13989286Y-25977714D01*
X13989286Y-25977714D02*
X13989286Y-25996762D01*
X13989286Y-25996762D02*
X13894048Y-26015809D01*
X14065476Y-26072952D02*
X14084524Y-26082476D01*
X14084524Y-26082476D02*
X14122619Y-26082476D01*
X14122619Y-26082476D02*
X14141667Y-26072952D01*
X14141667Y-26072952D02*
X14151191Y-26053905D01*
X14151191Y-26053905D02*
X14151191Y-26044381D01*
X14151191Y-26044381D02*
X14141667Y-26025333D01*
X14141667Y-26025333D02*
X14122619Y-26015809D01*
X14122619Y-26015809D02*
X14094048Y-26015809D01*
X14094048Y-26015809D02*
X14075000Y-26006286D01*
X14075000Y-26006286D02*
X14065476Y-25987238D01*
X14065476Y-25987238D02*
X14065476Y-25977714D01*
X14065476Y-25977714D02*
X14075000Y-25958667D01*
X14075000Y-25958667D02*
X14094048Y-25949143D01*
X14094048Y-25949143D02*
X14122619Y-25949143D01*
X14122619Y-25949143D02*
X14141667Y-25958667D01*
X14217857Y-26158667D02*
X14227381Y-26149143D01*
X14227381Y-26149143D02*
X14246429Y-26120571D01*
X14246429Y-26120571D02*
X14255953Y-26101524D01*
X14255953Y-26101524D02*
X14265476Y-26072952D01*
X14265476Y-26072952D02*
X14275000Y-26025333D01*
X14275000Y-26025333D02*
X14275000Y-25987238D01*
X14275000Y-25987238D02*
X14265476Y-25939619D01*
X14265476Y-25939619D02*
X14255953Y-25911048D01*
X14255953Y-25911048D02*
X14246429Y-25892000D01*
X14246429Y-25892000D02*
X14227381Y-25863428D01*
X14227381Y-25863428D02*
X14217857Y-25853905D01*
M02*
