%TF.GenerationSoftware,KiCad,Pcbnew,6.0.10-86aedd382b~118~ubuntu22.04.1*%
%TF.CreationDate,2023-02-01T13:13:33+01:00*%
%TF.ProjectId,europe-ergo-smd,6575726f-7065-42d6-9572-676f2d736d64,rev?*%
%TF.SameCoordinates,Original*%
%TF.FileFunction,Drillmap*%
%TF.FilePolarity,Positive*%
%FSLAX45Y45*%
G04 Gerber Fmt 4.5, Leading zero omitted, Abs format (unit mm)*
G04 Created by KiCad (PCBNEW 6.0.10-86aedd382b~118~ubuntu22.04.1) date 2023-02-01 13:13:33*
%MOMM*%
%LPD*%
G01*
G04 APERTURE LIST*
%ADD10C,0.100000*%
%ADD11C,0.200000*%
%ADD12C,0.110000*%
%ADD13C,0.150000*%
%ADD14C,0.170000*%
%ADD15C,0.180000*%
%ADD16C,0.400000*%
G04 APERTURE END LIST*
D10*
X30857000Y-8388000D02*
X30850000Y-3125000D01*
X31607500Y-8340000D02*
X31605000Y-3125000D01*
X31255000Y-25475000D02*
X31655000Y-25475000D01*
X8500000Y-2700000D02*
X30850000Y-2700000D01*
X53555000Y-26300000D02*
X53555000Y-2700000D01*
X31255000Y-26300000D02*
X31655000Y-26300000D01*
X8500000Y-26300000D02*
X8500000Y-2700000D01*
X31255000Y-26300000D02*
X30900000Y-26300000D01*
X31255000Y-25475000D02*
X30900000Y-25475000D01*
X31605000Y-3125000D02*
X30850000Y-3125000D01*
X53555000Y-2700000D02*
X31605000Y-2700000D01*
X31655000Y-26300000D02*
X53555000Y-26300000D01*
X30857000Y-10108000D02*
X30900000Y-25475000D01*
X30850000Y-2700000D02*
X31605000Y-2700000D01*
X31607500Y-10060000D02*
X31655000Y-25475000D01*
X30900000Y-26300000D02*
X8500000Y-26300000D01*
D11*
D12*
X30012000Y-9168000D02*
X30122000Y-9278000D01*
X30122000Y-9168000D02*
X30012000Y-9278000D01*
X30512000Y-9168000D02*
X30622000Y-9278000D01*
X30622000Y-9168000D02*
X30512000Y-9278000D01*
X31842500Y-9170000D02*
X31952500Y-9280000D01*
X31952500Y-9170000D02*
X31842500Y-9280000D01*
X32342500Y-9170000D02*
X32452500Y-9280000D01*
X32452500Y-9170000D02*
X32342500Y-9280000D01*
D13*
X30172000Y-5030000D02*
G75*
G03*
X30172000Y-5030000I-75000J0D01*
G01*
X30172000Y-5515000D02*
G75*
G03*
X30172000Y-5515000I-75000J0D01*
G01*
X32433000Y-5030000D02*
G75*
G03*
X32433000Y-5030000I-75000J0D01*
G01*
X32433000Y-5515000D02*
G75*
G03*
X32433000Y-5515000I-75000J0D01*
G01*
D14*
X10612000Y-7475000D02*
X10612000Y-7645000D01*
X10527000Y-7560000D02*
X10697000Y-7560000D01*
X10622000Y-17725000D02*
X10622000Y-17895000D01*
X10537000Y-17810000D02*
X10707000Y-17810000D01*
X10632000Y-10575000D02*
X10632000Y-10745000D01*
X10547000Y-10660000D02*
X10717000Y-10660000D01*
X10632000Y-15345000D02*
X10632000Y-15515000D01*
X10547000Y-15430000D02*
X10717000Y-15430000D01*
X10652000Y-12965000D02*
X10652000Y-13135000D01*
X10567000Y-13050000D02*
X10737000Y-13050000D01*
X11102000Y-20115000D02*
X11102000Y-20285000D01*
X11017000Y-20200000D02*
X11187000Y-20200000D01*
X11628000Y-7475000D02*
X11628000Y-7645000D01*
X11543000Y-7560000D02*
X11713000Y-7560000D01*
X11638000Y-17725000D02*
X11638000Y-17895000D01*
X11553000Y-17810000D02*
X11723000Y-17810000D01*
X11648000Y-10575000D02*
X11648000Y-10745000D01*
X11563000Y-10660000D02*
X11733000Y-10660000D01*
X11648000Y-15345000D02*
X11648000Y-15515000D01*
X11563000Y-15430000D02*
X11733000Y-15430000D01*
X11668000Y-12965000D02*
X11668000Y-13135000D01*
X11583000Y-13050000D02*
X11753000Y-13050000D01*
X12118000Y-20115000D02*
X12118000Y-20285000D01*
X12033000Y-20200000D02*
X12203000Y-20200000D01*
X13472000Y-7485000D02*
X13472000Y-7655000D01*
X13387000Y-7570000D02*
X13557000Y-7570000D01*
X13472000Y-20105000D02*
X13472000Y-20275000D01*
X13387000Y-20190000D02*
X13557000Y-20190000D01*
X13482000Y-12965000D02*
X13482000Y-13135000D01*
X13397000Y-13050000D02*
X13567000Y-13050000D01*
X13492000Y-10595000D02*
X13492000Y-10765000D01*
X13407000Y-10680000D02*
X13577000Y-10680000D01*
X13492000Y-17705000D02*
X13492000Y-17875000D01*
X13407000Y-17790000D02*
X13577000Y-17790000D01*
X13522000Y-15335000D02*
X13522000Y-15505000D01*
X13437000Y-15420000D02*
X13607000Y-15420000D01*
X14488000Y-7485000D02*
X14488000Y-7655000D01*
X14403000Y-7570000D02*
X14573000Y-7570000D01*
X14488000Y-20105000D02*
X14488000Y-20275000D01*
X14403000Y-20190000D02*
X14573000Y-20190000D01*
X14498000Y-12965000D02*
X14498000Y-13135000D01*
X14413000Y-13050000D02*
X14583000Y-13050000D01*
X14508000Y-10595000D02*
X14508000Y-10765000D01*
X14423000Y-10680000D02*
X14593000Y-10680000D01*
X14508000Y-17705000D02*
X14508000Y-17875000D01*
X14423000Y-17790000D02*
X14593000Y-17790000D01*
X14538000Y-15335000D02*
X14538000Y-15505000D01*
X14453000Y-15420000D02*
X14623000Y-15420000D01*
X15862000Y-12495000D02*
X15862000Y-12665000D01*
X15777000Y-12580000D02*
X15947000Y-12580000D01*
X15862000Y-17245000D02*
X15862000Y-17415000D01*
X15777000Y-17330000D02*
X15947000Y-17330000D01*
X15872000Y-19625000D02*
X15872000Y-19795000D01*
X15787000Y-19710000D02*
X15957000Y-19710000D01*
X15882000Y-14865000D02*
X15882000Y-15035000D01*
X15797000Y-14950000D02*
X15967000Y-14950000D01*
X15892000Y-10115000D02*
X15892000Y-10285000D01*
X15807000Y-10200000D02*
X15977000Y-10200000D01*
X16352000Y-7485000D02*
X16352000Y-7655000D01*
X16267000Y-7570000D02*
X16437000Y-7570000D01*
X16878000Y-12495000D02*
X16878000Y-12665000D01*
X16793000Y-12580000D02*
X16963000Y-12580000D01*
X16878000Y-17245000D02*
X16878000Y-17415000D01*
X16793000Y-17330000D02*
X16963000Y-17330000D01*
X16888000Y-19625000D02*
X16888000Y-19795000D01*
X16803000Y-19710000D02*
X16973000Y-19710000D01*
X16898000Y-14865000D02*
X16898000Y-15035000D01*
X16813000Y-14950000D02*
X16983000Y-14950000D01*
X16908000Y-10115000D02*
X16908000Y-10285000D01*
X16823000Y-10200000D02*
X16993000Y-10200000D01*
X17368000Y-7485000D02*
X17368000Y-7655000D01*
X17283000Y-7570000D02*
X17453000Y-7570000D01*
X18242000Y-14625000D02*
X18242000Y-14795000D01*
X18157000Y-14710000D02*
X18327000Y-14710000D01*
X18242000Y-16995000D02*
X18242000Y-17165000D01*
X18157000Y-17080000D02*
X18327000Y-17080000D01*
X18242000Y-19395000D02*
X18242000Y-19565000D01*
X18157000Y-19480000D02*
X18327000Y-19480000D01*
X18252000Y-9855000D02*
X18252000Y-10025000D01*
X18167000Y-9940000D02*
X18337000Y-9940000D01*
X18252000Y-12235000D02*
X18252000Y-12405000D01*
X18167000Y-12320000D02*
X18337000Y-12320000D01*
X19212000Y-7475000D02*
X19212000Y-7645000D01*
X19127000Y-7560000D02*
X19297000Y-7560000D01*
X19258000Y-14625000D02*
X19258000Y-14795000D01*
X19173000Y-14710000D02*
X19343000Y-14710000D01*
X19258000Y-16995000D02*
X19258000Y-17165000D01*
X19173000Y-17080000D02*
X19343000Y-17080000D01*
X19258000Y-19395000D02*
X19258000Y-19565000D01*
X19173000Y-19480000D02*
X19343000Y-19480000D01*
X19268000Y-9855000D02*
X19268000Y-10025000D01*
X19183000Y-9940000D02*
X19353000Y-9940000D01*
X19268000Y-12235000D02*
X19268000Y-12405000D01*
X19183000Y-12320000D02*
X19353000Y-12320000D01*
X20228000Y-7475000D02*
X20228000Y-7645000D01*
X20143000Y-7560000D02*
X20313000Y-7560000D01*
X20612000Y-14865000D02*
X20612000Y-15035000D01*
X20527000Y-14950000D02*
X20697000Y-14950000D01*
X20632000Y-12485000D02*
X20632000Y-12655000D01*
X20547000Y-12570000D02*
X20717000Y-12570000D01*
X20632000Y-17255000D02*
X20632000Y-17425000D01*
X20547000Y-17340000D02*
X20717000Y-17340000D01*
X20642000Y-10105000D02*
X20642000Y-10275000D01*
X20557000Y-10190000D02*
X20727000Y-10190000D01*
X20642000Y-19635000D02*
X20642000Y-19805000D01*
X20557000Y-19720000D02*
X20727000Y-19720000D01*
X21628000Y-14865000D02*
X21628000Y-15035000D01*
X21543000Y-14950000D02*
X21713000Y-14950000D01*
X21648000Y-12485000D02*
X21648000Y-12655000D01*
X21563000Y-12570000D02*
X21733000Y-12570000D01*
X21648000Y-17255000D02*
X21648000Y-17425000D01*
X21563000Y-17340000D02*
X21733000Y-17340000D01*
X21658000Y-10105000D02*
X21658000Y-10275000D01*
X21573000Y-10190000D02*
X21743000Y-10190000D01*
X21658000Y-19635000D02*
X21658000Y-19805000D01*
X21573000Y-19720000D02*
X21743000Y-19720000D01*
X22082000Y-7465000D02*
X22082000Y-7635000D01*
X21997000Y-7550000D02*
X22167000Y-7550000D01*
X22992000Y-17485000D02*
X22992000Y-17655000D01*
X22907000Y-17570000D02*
X23077000Y-17570000D01*
X23002000Y-10325000D02*
X23002000Y-10495000D01*
X22917000Y-10410000D02*
X23087000Y-10410000D01*
X23002000Y-15095000D02*
X23002000Y-15265000D01*
X22917000Y-15180000D02*
X23087000Y-15180000D01*
X23022000Y-12715000D02*
X23022000Y-12885000D01*
X22937000Y-12800000D02*
X23107000Y-12800000D01*
X23098000Y-7465000D02*
X23098000Y-7635000D01*
X23013000Y-7550000D02*
X23183000Y-7550000D01*
X24008000Y-17485000D02*
X24008000Y-17655000D01*
X23923000Y-17570000D02*
X24093000Y-17570000D01*
X24018000Y-10325000D02*
X24018000Y-10495000D01*
X23933000Y-10410000D02*
X24103000Y-10410000D01*
X24018000Y-15095000D02*
X24018000Y-15265000D01*
X23933000Y-15180000D02*
X24103000Y-15180000D01*
X24038000Y-12715000D02*
X24038000Y-12885000D01*
X23953000Y-12800000D02*
X24123000Y-12800000D01*
X24044059Y-21053001D02*
X24044059Y-21223001D01*
X23959059Y-21138001D02*
X24129059Y-21138001D01*
X24902000Y-7495000D02*
X24902000Y-7665000D01*
X24817000Y-7580000D02*
X24987000Y-7580000D01*
X24923940Y-21561001D02*
X24923940Y-21731001D01*
X24838940Y-21646001D02*
X25008940Y-21646001D01*
X25382000Y-15105000D02*
X25382000Y-15275000D01*
X25297000Y-15190000D02*
X25467000Y-15190000D01*
X25392000Y-12715000D02*
X25392000Y-12885000D01*
X25307000Y-12800000D02*
X25477000Y-12800000D01*
X25402000Y-10335000D02*
X25402000Y-10505000D01*
X25317000Y-10420000D02*
X25487000Y-10420000D01*
X25402000Y-17485000D02*
X25402000Y-17655000D01*
X25317000Y-17570000D02*
X25487000Y-17570000D01*
X25918000Y-7495000D02*
X25918000Y-7665000D01*
X25833000Y-7580000D02*
X26003000Y-7580000D01*
X26114059Y-22233001D02*
X26114059Y-22403001D01*
X26029059Y-22318001D02*
X26199059Y-22318001D01*
X26398000Y-15105000D02*
X26398000Y-15275000D01*
X26313000Y-15190000D02*
X26483000Y-15190000D01*
X26408000Y-12715000D02*
X26408000Y-12885000D01*
X26323000Y-12800000D02*
X26493000Y-12800000D01*
X26418000Y-10335000D02*
X26418000Y-10505000D01*
X26333000Y-10420000D02*
X26503000Y-10420000D01*
X26418000Y-17485000D02*
X26418000Y-17655000D01*
X26333000Y-17570000D02*
X26503000Y-17570000D01*
X26993940Y-22741001D02*
X26993940Y-22911001D01*
X26908940Y-22826001D02*
X27078940Y-22826001D01*
X27294059Y-20173001D02*
X27294059Y-20343001D01*
X27209059Y-20258001D02*
X27379059Y-20258001D01*
X27772000Y-7485000D02*
X27772000Y-7655000D01*
X27687000Y-7570000D02*
X27857000Y-7570000D01*
X27772000Y-10335000D02*
X27772000Y-10505000D01*
X27687000Y-10420000D02*
X27857000Y-10420000D01*
X28173940Y-20681001D02*
X28173940Y-20851001D01*
X28088940Y-20766001D02*
X28258940Y-20766001D01*
X28174059Y-23443001D02*
X28174059Y-23613001D01*
X28089059Y-23528001D02*
X28259059Y-23528001D01*
X28282000Y-13153000D02*
X28282000Y-13323000D01*
X28197000Y-13238000D02*
X28367000Y-13238000D01*
X28282000Y-14169000D02*
X28282000Y-14339000D01*
X28197000Y-14254000D02*
X28367000Y-14254000D01*
X28304000Y-16479000D02*
X28304000Y-16649000D01*
X28219000Y-16564000D02*
X28389000Y-16564000D01*
X28304000Y-17495000D02*
X28304000Y-17665000D01*
X28219000Y-17580000D02*
X28389000Y-17580000D01*
X28788000Y-7485000D02*
X28788000Y-7655000D01*
X28703000Y-7570000D02*
X28873000Y-7570000D01*
X28788000Y-10335000D02*
X28788000Y-10505000D01*
X28703000Y-10420000D02*
X28873000Y-10420000D01*
X29053940Y-23951001D02*
X29053940Y-24121001D01*
X28968940Y-24036001D02*
X29138940Y-24036001D01*
X33637059Y-23935001D02*
X33637059Y-24105001D01*
X33552059Y-24020001D02*
X33722059Y-24020001D01*
X33705000Y-7499000D02*
X33705000Y-7669000D01*
X33620000Y-7584000D02*
X33790000Y-7584000D01*
X33725000Y-10349000D02*
X33725000Y-10519000D01*
X33640000Y-10434000D02*
X33810000Y-10434000D01*
X34245000Y-13177000D02*
X34245000Y-13347000D01*
X34160000Y-13262000D02*
X34330000Y-13262000D01*
X34245000Y-14193000D02*
X34245000Y-14363000D01*
X34160000Y-14278000D02*
X34330000Y-14278000D01*
X34255000Y-16507000D02*
X34255000Y-16677000D01*
X34170000Y-16592000D02*
X34340000Y-16592000D01*
X34255000Y-17523000D02*
X34255000Y-17693000D01*
X34170000Y-17608000D02*
X34340000Y-17608000D01*
X34516941Y-23427001D02*
X34516941Y-23597001D01*
X34431941Y-23512001D02*
X34601941Y-23512001D01*
X34721000Y-7499000D02*
X34721000Y-7669000D01*
X34636000Y-7584000D02*
X34806000Y-7584000D01*
X34741000Y-10349000D02*
X34741000Y-10519000D01*
X34656000Y-10434000D02*
X34826000Y-10434000D01*
X34842059Y-20671941D02*
X34842059Y-20841941D01*
X34757059Y-20756941D02*
X34927059Y-20756941D01*
X35707059Y-22745001D02*
X35707059Y-22915001D01*
X35622059Y-22830001D02*
X35792059Y-22830001D01*
X35721941Y-20163941D02*
X35721941Y-20333941D01*
X35636941Y-20248941D02*
X35806941Y-20248941D01*
X36105000Y-15119000D02*
X36105000Y-15289000D01*
X36020000Y-15204000D02*
X36190000Y-15204000D01*
X36115000Y-10339000D02*
X36115000Y-10509000D01*
X36030000Y-10424000D02*
X36200000Y-10424000D01*
X36125000Y-17489000D02*
X36125000Y-17659000D01*
X36040000Y-17574000D02*
X36210000Y-17574000D01*
X36135000Y-12739000D02*
X36135000Y-12909000D01*
X36050000Y-12824000D02*
X36220000Y-12824000D01*
X36585000Y-7489000D02*
X36585000Y-7659000D01*
X36500000Y-7574000D02*
X36670000Y-7574000D01*
X36586941Y-22237001D02*
X36586941Y-22407001D01*
X36501941Y-22322001D02*
X36671941Y-22322001D01*
X37121000Y-15119000D02*
X37121000Y-15289000D01*
X37036000Y-15204000D02*
X37206000Y-15204000D01*
X37131000Y-10339000D02*
X37131000Y-10509000D01*
X37046000Y-10424000D02*
X37216000Y-10424000D01*
X37141000Y-17489000D02*
X37141000Y-17659000D01*
X37056000Y-17574000D02*
X37226000Y-17574000D01*
X37151000Y-12739000D02*
X37151000Y-12909000D01*
X37066000Y-12824000D02*
X37236000Y-12824000D01*
X37601000Y-7489000D02*
X37601000Y-7659000D01*
X37516000Y-7574000D02*
X37686000Y-7574000D01*
X37767059Y-21545001D02*
X37767059Y-21715001D01*
X37682059Y-21630001D02*
X37852059Y-21630001D01*
X38495000Y-10359000D02*
X38495000Y-10529000D01*
X38410000Y-10444000D02*
X38580000Y-10444000D01*
X38495000Y-12729000D02*
X38495000Y-12899000D01*
X38410000Y-12814000D02*
X38580000Y-12814000D01*
X38505000Y-15109000D02*
X38505000Y-15279000D01*
X38420000Y-15194000D02*
X38590000Y-15194000D01*
X38505000Y-17469000D02*
X38505000Y-17639000D01*
X38420000Y-17554000D02*
X38590000Y-17554000D01*
X38646941Y-21037001D02*
X38646941Y-21207001D01*
X38561941Y-21122001D02*
X38731941Y-21122001D01*
X39445000Y-7499000D02*
X39445000Y-7669000D01*
X39360000Y-7584000D02*
X39530000Y-7584000D01*
X39511000Y-10359000D02*
X39511000Y-10529000D01*
X39426000Y-10444000D02*
X39596000Y-10444000D01*
X39511000Y-12729000D02*
X39511000Y-12899000D01*
X39426000Y-12814000D02*
X39596000Y-12814000D01*
X39521000Y-15109000D02*
X39521000Y-15279000D01*
X39436000Y-15194000D02*
X39606000Y-15194000D01*
X39521000Y-17469000D02*
X39521000Y-17639000D01*
X39436000Y-17554000D02*
X39606000Y-17554000D01*
X40461000Y-7499000D02*
X40461000Y-7669000D01*
X40376000Y-7584000D02*
X40546000Y-7584000D01*
X40875000Y-17259000D02*
X40875000Y-17429000D01*
X40790000Y-17344000D02*
X40960000Y-17344000D01*
X40885000Y-10119000D02*
X40885000Y-10289000D01*
X40800000Y-10204000D02*
X40970000Y-10204000D01*
X40885000Y-19639000D02*
X40885000Y-19809000D01*
X40800000Y-19724000D02*
X40970000Y-19724000D01*
X40895000Y-12489000D02*
X40895000Y-12659000D01*
X40810000Y-12574000D02*
X40980000Y-12574000D01*
X40895000Y-14889000D02*
X40895000Y-15059000D01*
X40810000Y-14974000D02*
X40980000Y-14974000D01*
X41891000Y-17259000D02*
X41891000Y-17429000D01*
X41806000Y-17344000D02*
X41976000Y-17344000D01*
X41901000Y-10119000D02*
X41901000Y-10289000D01*
X41816000Y-10204000D02*
X41986000Y-10204000D01*
X41901000Y-19639000D02*
X41901000Y-19809000D01*
X41816000Y-19724000D02*
X41986000Y-19724000D01*
X41911000Y-12489000D02*
X41911000Y-12659000D01*
X41826000Y-12574000D02*
X41996000Y-12574000D01*
X41911000Y-14889000D02*
X41911000Y-15059000D01*
X41826000Y-14974000D02*
X41996000Y-14974000D01*
X42299000Y-7501000D02*
X42299000Y-7671000D01*
X42214000Y-7586000D02*
X42384000Y-7586000D01*
X43245000Y-9889000D02*
X43245000Y-10059000D01*
X43160000Y-9974000D02*
X43330000Y-9974000D01*
X43261000Y-17011000D02*
X43261000Y-17181000D01*
X43176000Y-17096000D02*
X43346000Y-17096000D01*
X43265000Y-14649000D02*
X43265000Y-14819000D01*
X43180000Y-14734000D02*
X43350000Y-14734000D01*
X43275000Y-12269000D02*
X43275000Y-12439000D01*
X43190000Y-12354000D02*
X43360000Y-12354000D01*
X43275000Y-19379000D02*
X43275000Y-19549000D01*
X43190000Y-19464000D02*
X43360000Y-19464000D01*
X43315000Y-7501000D02*
X43315000Y-7671000D01*
X43230000Y-7586000D02*
X43400000Y-7586000D01*
X44261000Y-9889000D02*
X44261000Y-10059000D01*
X44176000Y-9974000D02*
X44346000Y-9974000D01*
X44277000Y-17011000D02*
X44277000Y-17181000D01*
X44192000Y-17096000D02*
X44362000Y-17096000D01*
X44281000Y-14649000D02*
X44281000Y-14819000D01*
X44196000Y-14734000D02*
X44366000Y-14734000D01*
X44291000Y-12269000D02*
X44291000Y-12439000D01*
X44206000Y-12354000D02*
X44376000Y-12354000D01*
X44291000Y-19379000D02*
X44291000Y-19549000D01*
X44206000Y-19464000D02*
X44376000Y-19464000D01*
X45165000Y-7509000D02*
X45165000Y-7679000D01*
X45080000Y-7594000D02*
X45250000Y-7594000D01*
X45625000Y-19649000D02*
X45625000Y-19819000D01*
X45540000Y-19734000D02*
X45710000Y-19734000D01*
X45645000Y-12729000D02*
X45645000Y-12899000D01*
X45560000Y-12814000D02*
X45730000Y-12814000D01*
X45655000Y-10349000D02*
X45655000Y-10519000D01*
X45570000Y-10434000D02*
X45740000Y-10434000D01*
X45655000Y-14879000D02*
X45655000Y-15049000D01*
X45570000Y-14964000D02*
X45740000Y-14964000D01*
X45685000Y-17269000D02*
X45685000Y-17439000D01*
X45600000Y-17354000D02*
X45770000Y-17354000D01*
X46181000Y-7509000D02*
X46181000Y-7679000D01*
X46096000Y-7594000D02*
X46266000Y-7594000D01*
X46641000Y-19649000D02*
X46641000Y-19819000D01*
X46556000Y-19734000D02*
X46726000Y-19734000D01*
X46661000Y-12729000D02*
X46661000Y-12899000D01*
X46576000Y-12814000D02*
X46746000Y-12814000D01*
X46671000Y-10349000D02*
X46671000Y-10519000D01*
X46586000Y-10434000D02*
X46756000Y-10434000D01*
X46671000Y-14879000D02*
X46671000Y-15049000D01*
X46586000Y-14964000D02*
X46756000Y-14964000D01*
X46701000Y-17269000D02*
X46701000Y-17439000D01*
X46616000Y-17354000D02*
X46786000Y-17354000D01*
X48005000Y-15349000D02*
X48005000Y-15519000D01*
X47920000Y-15434000D02*
X48090000Y-15434000D01*
X48005000Y-20129000D02*
X48005000Y-20299000D01*
X47920000Y-20214000D02*
X48090000Y-20214000D01*
X48015000Y-10599000D02*
X48015000Y-10769000D01*
X47930000Y-10684000D02*
X48100000Y-10684000D01*
X48015000Y-17719000D02*
X48015000Y-17889000D01*
X47930000Y-17804000D02*
X48100000Y-17804000D01*
X48025000Y-7489000D02*
X48025000Y-7659000D01*
X47940000Y-7574000D02*
X48110000Y-7574000D01*
X48035000Y-12979000D02*
X48035000Y-13149000D01*
X47950000Y-13064000D02*
X48120000Y-13064000D01*
X49021000Y-15349000D02*
X49021000Y-15519000D01*
X48936000Y-15434000D02*
X49106000Y-15434000D01*
X49021000Y-20129000D02*
X49021000Y-20299000D01*
X48936000Y-20214000D02*
X49106000Y-20214000D01*
X49031000Y-10599000D02*
X49031000Y-10769000D01*
X48946000Y-10684000D02*
X49116000Y-10684000D01*
X49031000Y-17719000D02*
X49031000Y-17889000D01*
X48946000Y-17804000D02*
X49116000Y-17804000D01*
X49041000Y-7489000D02*
X49041000Y-7659000D01*
X48956000Y-7574000D02*
X49126000Y-7574000D01*
X49051000Y-12979000D02*
X49051000Y-13149000D01*
X48966000Y-13064000D02*
X49136000Y-13064000D01*
X50395000Y-20139000D02*
X50395000Y-20309000D01*
X50310000Y-20224000D02*
X50480000Y-20224000D01*
X50875000Y-15359000D02*
X50875000Y-15529000D01*
X50790000Y-15444000D02*
X50960000Y-15444000D01*
X50885000Y-10589000D02*
X50885000Y-10759000D01*
X50800000Y-10674000D02*
X50970000Y-10674000D01*
X50885000Y-12969000D02*
X50885000Y-13139000D01*
X50800000Y-13054000D02*
X50970000Y-13054000D01*
X50895000Y-7499000D02*
X50895000Y-7669000D01*
X50810000Y-7584000D02*
X50980000Y-7584000D01*
X50905000Y-17729000D02*
X50905000Y-17899000D01*
X50820000Y-17814000D02*
X50990000Y-17814000D01*
X51411000Y-20139000D02*
X51411000Y-20309000D01*
X51326000Y-20224000D02*
X51496000Y-20224000D01*
X51891000Y-15359000D02*
X51891000Y-15529000D01*
X51806000Y-15444000D02*
X51976000Y-15444000D01*
X51901000Y-10589000D02*
X51901000Y-10759000D01*
X51816000Y-10674000D02*
X51986000Y-10674000D01*
X51901000Y-12969000D02*
X51901000Y-13139000D01*
X51816000Y-13054000D02*
X51986000Y-13054000D01*
X51911000Y-7499000D02*
X51911000Y-7669000D01*
X51826000Y-7584000D02*
X51996000Y-7584000D01*
X51921000Y-17729000D02*
X51921000Y-17899000D01*
X51836000Y-17814000D02*
X52006000Y-17814000D01*
D15*
X30463640Y-5063640D02*
X30463640Y-4936360D01*
X30336360Y-4936360D01*
X30336360Y-5063640D01*
X30463640Y-5063640D01*
X30463640Y-5608640D02*
X30463640Y-5481360D01*
X30336360Y-5481360D01*
X30336360Y-5608640D01*
X30463640Y-5608640D01*
X32118640Y-5063640D02*
X32118640Y-4936360D01*
X31991360Y-4936360D01*
X31991360Y-5063640D01*
X32118640Y-5063640D01*
X32118640Y-5608640D02*
X32118640Y-5481360D01*
X31991360Y-5481360D01*
X31991360Y-5608640D01*
X32118640Y-5608640D01*
D16*
X11120000Y-7760000D02*
X11320000Y-7560000D01*
X11120000Y-7360000D01*
X10920000Y-7560000D01*
X11120000Y-7760000D01*
X11130000Y-18010000D02*
X11330000Y-17810000D01*
X11130000Y-17610000D01*
X10930000Y-17810000D01*
X11130000Y-18010000D01*
X11140000Y-10860000D02*
X11340000Y-10660000D01*
X11140000Y-10460000D01*
X10940000Y-10660000D01*
X11140000Y-10860000D01*
X11140000Y-15630000D02*
X11340000Y-15430000D01*
X11140000Y-15230000D01*
X10940000Y-15430000D01*
X11140000Y-15630000D01*
X11160000Y-13250000D02*
X11360000Y-13050000D01*
X11160000Y-12850000D01*
X10960000Y-13050000D01*
X11160000Y-13250000D01*
X11610000Y-20400000D02*
X11810000Y-20200000D01*
X11610000Y-20000000D01*
X11410000Y-20200000D01*
X11610000Y-20400000D01*
X13980000Y-7770000D02*
X14180000Y-7570000D01*
X13980000Y-7370000D01*
X13780000Y-7570000D01*
X13980000Y-7770000D01*
X13980000Y-20390000D02*
X14180000Y-20190000D01*
X13980000Y-19990000D01*
X13780000Y-20190000D01*
X13980000Y-20390000D01*
X13990000Y-13250000D02*
X14190000Y-13050000D01*
X13990000Y-12850000D01*
X13790000Y-13050000D01*
X13990000Y-13250000D01*
X14000000Y-10880000D02*
X14200000Y-10680000D01*
X14000000Y-10480000D01*
X13800000Y-10680000D01*
X14000000Y-10880000D01*
X14000000Y-17990000D02*
X14200000Y-17790000D01*
X14000000Y-17590000D01*
X13800000Y-17790000D01*
X14000000Y-17990000D01*
X14030000Y-15620000D02*
X14230000Y-15420000D01*
X14030000Y-15220000D01*
X13830000Y-15420000D01*
X14030000Y-15620000D01*
X16370000Y-12780000D02*
X16570000Y-12580000D01*
X16370000Y-12380000D01*
X16170000Y-12580000D01*
X16370000Y-12780000D01*
X16370000Y-17530000D02*
X16570000Y-17330000D01*
X16370000Y-17130000D01*
X16170000Y-17330000D01*
X16370000Y-17530000D01*
X16380000Y-19910000D02*
X16580000Y-19710000D01*
X16380000Y-19510000D01*
X16180000Y-19710000D01*
X16380000Y-19910000D01*
X16390000Y-15150000D02*
X16590000Y-14950000D01*
X16390000Y-14750000D01*
X16190000Y-14950000D01*
X16390000Y-15150000D01*
X16400000Y-10400000D02*
X16600000Y-10200000D01*
X16400000Y-10000000D01*
X16200000Y-10200000D01*
X16400000Y-10400000D01*
X16860000Y-7770000D02*
X17060000Y-7570000D01*
X16860000Y-7370000D01*
X16660000Y-7570000D01*
X16860000Y-7770000D01*
X18750000Y-14910000D02*
X18950000Y-14710000D01*
X18750000Y-14510000D01*
X18550000Y-14710000D01*
X18750000Y-14910000D01*
X18750000Y-17280000D02*
X18950000Y-17080000D01*
X18750000Y-16880000D01*
X18550000Y-17080000D01*
X18750000Y-17280000D01*
X18750000Y-19680000D02*
X18950000Y-19480000D01*
X18750000Y-19280000D01*
X18550000Y-19480000D01*
X18750000Y-19680000D01*
X18760000Y-10140000D02*
X18960000Y-9940000D01*
X18760000Y-9740000D01*
X18560000Y-9940000D01*
X18760000Y-10140000D01*
X18760000Y-12520000D02*
X18960000Y-12320000D01*
X18760000Y-12120000D01*
X18560000Y-12320000D01*
X18760000Y-12520000D01*
X19720000Y-7760000D02*
X19920000Y-7560000D01*
X19720000Y-7360000D01*
X19520000Y-7560000D01*
X19720000Y-7760000D01*
X21120000Y-15150000D02*
X21320000Y-14950000D01*
X21120000Y-14750000D01*
X20920000Y-14950000D01*
X21120000Y-15150000D01*
X21140000Y-12770000D02*
X21340000Y-12570000D01*
X21140000Y-12370000D01*
X20940000Y-12570000D01*
X21140000Y-12770000D01*
X21140000Y-17540000D02*
X21340000Y-17340000D01*
X21140000Y-17140000D01*
X20940000Y-17340000D01*
X21140000Y-17540000D01*
X21150000Y-10390000D02*
X21350000Y-10190000D01*
X21150000Y-9990000D01*
X20950000Y-10190000D01*
X21150000Y-10390000D01*
X21150000Y-19920000D02*
X21350000Y-19720000D01*
X21150000Y-19520000D01*
X20950000Y-19720000D01*
X21150000Y-19920000D01*
X22590000Y-7750000D02*
X22790000Y-7550000D01*
X22590000Y-7350000D01*
X22390000Y-7550000D01*
X22590000Y-7750000D01*
X23500000Y-17770000D02*
X23700000Y-17570000D01*
X23500000Y-17370000D01*
X23300000Y-17570000D01*
X23500000Y-17770000D01*
X23510000Y-10610000D02*
X23710000Y-10410000D01*
X23510000Y-10210000D01*
X23310000Y-10410000D01*
X23510000Y-10610000D01*
X23510000Y-15380000D02*
X23710000Y-15180000D01*
X23510000Y-14980000D01*
X23310000Y-15180000D01*
X23510000Y-15380000D01*
X23530000Y-13000000D02*
X23730000Y-12800000D01*
X23530000Y-12600000D01*
X23330000Y-12800000D01*
X23530000Y-13000000D01*
X24483999Y-21592001D02*
X24683999Y-21392001D01*
X24483999Y-21192001D01*
X24283999Y-21392001D01*
X24483999Y-21592001D01*
X25410000Y-7780000D02*
X25610000Y-7580000D01*
X25410000Y-7380000D01*
X25210000Y-7580000D01*
X25410000Y-7780000D01*
X25890000Y-15390000D02*
X26090000Y-15190000D01*
X25890000Y-14990000D01*
X25690000Y-15190000D01*
X25890000Y-15390000D01*
X25900000Y-13000000D02*
X26100000Y-12800000D01*
X25900000Y-12600000D01*
X25700000Y-12800000D01*
X25900000Y-13000000D01*
X25910000Y-10620000D02*
X26110000Y-10420000D01*
X25910000Y-10220000D01*
X25710000Y-10420000D01*
X25910000Y-10620000D01*
X25910000Y-17770000D02*
X26110000Y-17570000D01*
X25910000Y-17370000D01*
X25710000Y-17570000D01*
X25910000Y-17770000D01*
X26553999Y-22772001D02*
X26753999Y-22572001D01*
X26553999Y-22372001D01*
X26353999Y-22572001D01*
X26553999Y-22772001D01*
X27733999Y-20712001D02*
X27933999Y-20512001D01*
X27733999Y-20312001D01*
X27533999Y-20512001D01*
X27733999Y-20712001D01*
X28280000Y-7770000D02*
X28480000Y-7570000D01*
X28280000Y-7370000D01*
X28080000Y-7570000D01*
X28280000Y-7770000D01*
X28280000Y-10620000D02*
X28480000Y-10420000D01*
X28280000Y-10220000D01*
X28080000Y-10420000D01*
X28280000Y-10620000D01*
X28282000Y-13946000D02*
X28482000Y-13746000D01*
X28282000Y-13546000D01*
X28082000Y-13746000D01*
X28282000Y-13946000D01*
X28304000Y-17272000D02*
X28504000Y-17072000D01*
X28304000Y-16872000D01*
X28104000Y-17072000D01*
X28304000Y-17272000D01*
X28613999Y-23982001D02*
X28813999Y-23782001D01*
X28613999Y-23582001D01*
X28413999Y-23782001D01*
X28613999Y-23982001D01*
X34077000Y-23966001D02*
X34277000Y-23766001D01*
X34077000Y-23566001D01*
X33877000Y-23766001D01*
X34077000Y-23966001D01*
X34213000Y-7784000D02*
X34413000Y-7584000D01*
X34213000Y-7384000D01*
X34013000Y-7584000D01*
X34213000Y-7784000D01*
X34233000Y-10634000D02*
X34433000Y-10434000D01*
X34233000Y-10234000D01*
X34033000Y-10434000D01*
X34233000Y-10634000D01*
X34245000Y-13970000D02*
X34445000Y-13770000D01*
X34245000Y-13570000D01*
X34045000Y-13770000D01*
X34245000Y-13970000D01*
X34255000Y-17300000D02*
X34455000Y-17100000D01*
X34255000Y-16900000D01*
X34055000Y-17100000D01*
X34255000Y-17300000D01*
X35282000Y-20702941D02*
X35482000Y-20502941D01*
X35282000Y-20302941D01*
X35082000Y-20502941D01*
X35282000Y-20702941D01*
X36147000Y-22776001D02*
X36347000Y-22576001D01*
X36147000Y-22376001D01*
X35947000Y-22576001D01*
X36147000Y-22776001D01*
X36613000Y-15404000D02*
X36813000Y-15204000D01*
X36613000Y-15004000D01*
X36413000Y-15204000D01*
X36613000Y-15404000D01*
X36623000Y-10624000D02*
X36823000Y-10424000D01*
X36623000Y-10224000D01*
X36423000Y-10424000D01*
X36623000Y-10624000D01*
X36633000Y-17774000D02*
X36833000Y-17574000D01*
X36633000Y-17374000D01*
X36433000Y-17574000D01*
X36633000Y-17774000D01*
X36643000Y-13024000D02*
X36843000Y-12824000D01*
X36643000Y-12624000D01*
X36443000Y-12824000D01*
X36643000Y-13024000D01*
X37093000Y-7774000D02*
X37293000Y-7574000D01*
X37093000Y-7374000D01*
X36893000Y-7574000D01*
X37093000Y-7774000D01*
X38207000Y-21576001D02*
X38407000Y-21376001D01*
X38207000Y-21176001D01*
X38007000Y-21376001D01*
X38207000Y-21576001D01*
X39003000Y-10644000D02*
X39203000Y-10444000D01*
X39003000Y-10244000D01*
X38803000Y-10444000D01*
X39003000Y-10644000D01*
X39003000Y-13014000D02*
X39203000Y-12814000D01*
X39003000Y-12614000D01*
X38803000Y-12814000D01*
X39003000Y-13014000D01*
X39013000Y-15394000D02*
X39213000Y-15194000D01*
X39013000Y-14994000D01*
X38813000Y-15194000D01*
X39013000Y-15394000D01*
X39013000Y-17754000D02*
X39213000Y-17554000D01*
X39013000Y-17354000D01*
X38813000Y-17554000D01*
X39013000Y-17754000D01*
X39953000Y-7784000D02*
X40153000Y-7584000D01*
X39953000Y-7384000D01*
X39753000Y-7584000D01*
X39953000Y-7784000D01*
X41383000Y-17544000D02*
X41583000Y-17344000D01*
X41383000Y-17144000D01*
X41183000Y-17344000D01*
X41383000Y-17544000D01*
X41393000Y-10404000D02*
X41593000Y-10204000D01*
X41393000Y-10004000D01*
X41193000Y-10204000D01*
X41393000Y-10404000D01*
X41393000Y-19924000D02*
X41593000Y-19724000D01*
X41393000Y-19524000D01*
X41193000Y-19724000D01*
X41393000Y-19924000D01*
X41403000Y-12774000D02*
X41603000Y-12574000D01*
X41403000Y-12374000D01*
X41203000Y-12574000D01*
X41403000Y-12774000D01*
X41403000Y-15174000D02*
X41603000Y-14974000D01*
X41403000Y-14774000D01*
X41203000Y-14974000D01*
X41403000Y-15174000D01*
X42807000Y-7786000D02*
X43007000Y-7586000D01*
X42807000Y-7386000D01*
X42607000Y-7586000D01*
X42807000Y-7786000D01*
X43753000Y-10174000D02*
X43953000Y-9974000D01*
X43753000Y-9774000D01*
X43553000Y-9974000D01*
X43753000Y-10174000D01*
X43769000Y-17296000D02*
X43969000Y-17096000D01*
X43769000Y-16896000D01*
X43569000Y-17096000D01*
X43769000Y-17296000D01*
X43773000Y-14934000D02*
X43973000Y-14734000D01*
X43773000Y-14534000D01*
X43573000Y-14734000D01*
X43773000Y-14934000D01*
X43783000Y-12554000D02*
X43983000Y-12354000D01*
X43783000Y-12154000D01*
X43583000Y-12354000D01*
X43783000Y-12554000D01*
X43783000Y-19664000D02*
X43983000Y-19464000D01*
X43783000Y-19264000D01*
X43583000Y-19464000D01*
X43783000Y-19664000D01*
X45673000Y-7794000D02*
X45873000Y-7594000D01*
X45673000Y-7394000D01*
X45473000Y-7594000D01*
X45673000Y-7794000D01*
X46133000Y-19934000D02*
X46333000Y-19734000D01*
X46133000Y-19534000D01*
X45933000Y-19734000D01*
X46133000Y-19934000D01*
X46153000Y-13014000D02*
X46353000Y-12814000D01*
X46153000Y-12614000D01*
X45953000Y-12814000D01*
X46153000Y-13014000D01*
X46163000Y-10634000D02*
X46363000Y-10434000D01*
X46163000Y-10234000D01*
X45963000Y-10434000D01*
X46163000Y-10634000D01*
X46163000Y-15164000D02*
X46363000Y-14964000D01*
X46163000Y-14764000D01*
X45963000Y-14964000D01*
X46163000Y-15164000D01*
X46193000Y-17554000D02*
X46393000Y-17354000D01*
X46193000Y-17154000D01*
X45993000Y-17354000D01*
X46193000Y-17554000D01*
X48513000Y-15634000D02*
X48713000Y-15434000D01*
X48513000Y-15234000D01*
X48313000Y-15434000D01*
X48513000Y-15634000D01*
X48513000Y-20414000D02*
X48713000Y-20214000D01*
X48513000Y-20014000D01*
X48313000Y-20214000D01*
X48513000Y-20414000D01*
X48523000Y-10884000D02*
X48723000Y-10684000D01*
X48523000Y-10484000D01*
X48323000Y-10684000D01*
X48523000Y-10884000D01*
X48523000Y-18004000D02*
X48723000Y-17804000D01*
X48523000Y-17604000D01*
X48323000Y-17804000D01*
X48523000Y-18004000D01*
X48533000Y-7774000D02*
X48733000Y-7574000D01*
X48533000Y-7374000D01*
X48333000Y-7574000D01*
X48533000Y-7774000D01*
X48543000Y-13264000D02*
X48743000Y-13064000D01*
X48543000Y-12864000D01*
X48343000Y-13064000D01*
X48543000Y-13264000D01*
X50903000Y-20424000D02*
X51103000Y-20224000D01*
X50903000Y-20024000D01*
X50703000Y-20224000D01*
X50903000Y-20424000D01*
X51383000Y-15644000D02*
X51583000Y-15444000D01*
X51383000Y-15244000D01*
X51183000Y-15444000D01*
X51383000Y-15644000D01*
X51393000Y-10874000D02*
X51593000Y-10674000D01*
X51393000Y-10474000D01*
X51193000Y-10674000D01*
X51393000Y-10874000D01*
X51393000Y-13254000D02*
X51593000Y-13054000D01*
X51393000Y-12854000D01*
X51193000Y-13054000D01*
X51393000Y-13254000D01*
X51403000Y-7784000D02*
X51603000Y-7584000D01*
X51403000Y-7384000D01*
X51203000Y-7584000D01*
X51403000Y-7784000D01*
X51413000Y-18014000D02*
X51613000Y-17814000D01*
X51413000Y-17614000D01*
X51213000Y-17814000D01*
X51413000Y-18014000D01*
D11*
X8752619Y-26615476D02*
X8752619Y-26415476D01*
X8800238Y-26415476D01*
X8828810Y-26425000D01*
X8847857Y-26444048D01*
X8857381Y-26463095D01*
X8866905Y-26501190D01*
X8866905Y-26529762D01*
X8857381Y-26567857D01*
X8847857Y-26586905D01*
X8828810Y-26605952D01*
X8800238Y-26615476D01*
X8752619Y-26615476D01*
X8952619Y-26615476D02*
X8952619Y-26482143D01*
X8952619Y-26520238D02*
X8962143Y-26501190D01*
X8971667Y-26491667D01*
X8990714Y-26482143D01*
X9009762Y-26482143D01*
X9076429Y-26615476D02*
X9076429Y-26482143D01*
X9076429Y-26415476D02*
X9066905Y-26425000D01*
X9076429Y-26434524D01*
X9085952Y-26425000D01*
X9076429Y-26415476D01*
X9076429Y-26434524D01*
X9200238Y-26615476D02*
X9181190Y-26605952D01*
X9171667Y-26586905D01*
X9171667Y-26415476D01*
X9305000Y-26615476D02*
X9285952Y-26605952D01*
X9276429Y-26586905D01*
X9276429Y-26415476D01*
X9533571Y-26615476D02*
X9533571Y-26415476D01*
X9600238Y-26558333D01*
X9666905Y-26415476D01*
X9666905Y-26615476D01*
X9847857Y-26615476D02*
X9847857Y-26510714D01*
X9838333Y-26491667D01*
X9819286Y-26482143D01*
X9781190Y-26482143D01*
X9762143Y-26491667D01*
X9847857Y-26605952D02*
X9828810Y-26615476D01*
X9781190Y-26615476D01*
X9762143Y-26605952D01*
X9752619Y-26586905D01*
X9752619Y-26567857D01*
X9762143Y-26548809D01*
X9781190Y-26539286D01*
X9828810Y-26539286D01*
X9847857Y-26529762D01*
X9943095Y-26482143D02*
X9943095Y-26682143D01*
X9943095Y-26491667D02*
X9962143Y-26482143D01*
X10000238Y-26482143D01*
X10019286Y-26491667D01*
X10028810Y-26501190D01*
X10038333Y-26520238D01*
X10038333Y-26577381D01*
X10028810Y-26596428D01*
X10019286Y-26605952D01*
X10000238Y-26615476D01*
X9962143Y-26615476D01*
X9943095Y-26605952D01*
X10124048Y-26596428D02*
X10133571Y-26605952D01*
X10124048Y-26615476D01*
X10114524Y-26605952D01*
X10124048Y-26596428D01*
X10124048Y-26615476D01*
X10124048Y-26491667D02*
X10133571Y-26501190D01*
X10124048Y-26510714D01*
X10114524Y-26501190D01*
X10124048Y-26491667D01*
X10124048Y-26510714D01*
D12*
X8385000Y-26890000D02*
X8495000Y-27000000D01*
X8495000Y-26890000D02*
X8385000Y-27000000D01*
D11*
X8857381Y-27035476D02*
X8743095Y-27035476D01*
X8800238Y-27035476D02*
X8800238Y-26835476D01*
X8781190Y-26864048D01*
X8762143Y-26883095D01*
X8743095Y-26892619D01*
X8943095Y-27016428D02*
X8952619Y-27025952D01*
X8943095Y-27035476D01*
X8933571Y-27025952D01*
X8943095Y-27016428D01*
X8943095Y-27035476D01*
X9143095Y-27035476D02*
X9028810Y-27035476D01*
X9085952Y-27035476D02*
X9085952Y-26835476D01*
X9066905Y-26864048D01*
X9047857Y-26883095D01*
X9028810Y-26892619D01*
X9266905Y-26835476D02*
X9285952Y-26835476D01*
X9305000Y-26845000D01*
X9314524Y-26854524D01*
X9324048Y-26873571D01*
X9333571Y-26911667D01*
X9333571Y-26959286D01*
X9324048Y-26997381D01*
X9314524Y-27016428D01*
X9305000Y-27025952D01*
X9285952Y-27035476D01*
X9266905Y-27035476D01*
X9247857Y-27025952D01*
X9238333Y-27016428D01*
X9228810Y-26997381D01*
X9219286Y-26959286D01*
X9219286Y-26911667D01*
X9228810Y-26873571D01*
X9238333Y-26854524D01*
X9247857Y-26845000D01*
X9266905Y-26835476D01*
X9457381Y-26835476D02*
X9476429Y-26835476D01*
X9495476Y-26845000D01*
X9505000Y-26854524D01*
X9514524Y-26873571D01*
X9524048Y-26911667D01*
X9524048Y-26959286D01*
X9514524Y-26997381D01*
X9505000Y-27016428D01*
X9495476Y-27025952D01*
X9476429Y-27035476D01*
X9457381Y-27035476D01*
X9438333Y-27025952D01*
X9428810Y-27016428D01*
X9419286Y-26997381D01*
X9409762Y-26959286D01*
X9409762Y-26911667D01*
X9419286Y-26873571D01*
X9428810Y-26854524D01*
X9438333Y-26845000D01*
X9457381Y-26835476D01*
X9609762Y-27035476D02*
X9609762Y-26902143D01*
X9609762Y-26921190D02*
X9619286Y-26911667D01*
X9638333Y-26902143D01*
X9666905Y-26902143D01*
X9685952Y-26911667D01*
X9695476Y-26930714D01*
X9695476Y-27035476D01*
X9695476Y-26930714D02*
X9705000Y-26911667D01*
X9724048Y-26902143D01*
X9752619Y-26902143D01*
X9771667Y-26911667D01*
X9781190Y-26930714D01*
X9781190Y-27035476D01*
X9876429Y-27035476D02*
X9876429Y-26902143D01*
X9876429Y-26921190D02*
X9885952Y-26911667D01*
X9905000Y-26902143D01*
X9933571Y-26902143D01*
X9952619Y-26911667D01*
X9962143Y-26930714D01*
X9962143Y-27035476D01*
X9962143Y-26930714D02*
X9971667Y-26911667D01*
X9990714Y-26902143D01*
X10019286Y-26902143D01*
X10038333Y-26911667D01*
X10047857Y-26930714D01*
X10047857Y-27035476D01*
X10438333Y-26825952D02*
X10266905Y-27083095D01*
X10695476Y-26835476D02*
X10714524Y-26835476D01*
X10733571Y-26845000D01*
X10743095Y-26854524D01*
X10752619Y-26873571D01*
X10762143Y-26911667D01*
X10762143Y-26959286D01*
X10752619Y-26997381D01*
X10743095Y-27016428D01*
X10733571Y-27025952D01*
X10714524Y-27035476D01*
X10695476Y-27035476D01*
X10676429Y-27025952D01*
X10666905Y-27016428D01*
X10657381Y-26997381D01*
X10647857Y-26959286D01*
X10647857Y-26911667D01*
X10657381Y-26873571D01*
X10666905Y-26854524D01*
X10676429Y-26845000D01*
X10695476Y-26835476D01*
X10847857Y-27016428D02*
X10857381Y-27025952D01*
X10847857Y-27035476D01*
X10838333Y-27025952D01*
X10847857Y-27016428D01*
X10847857Y-27035476D01*
X10981190Y-26835476D02*
X11000238Y-26835476D01*
X11019286Y-26845000D01*
X11028810Y-26854524D01*
X11038333Y-26873571D01*
X11047857Y-26911667D01*
X11047857Y-26959286D01*
X11038333Y-26997381D01*
X11028810Y-27016428D01*
X11019286Y-27025952D01*
X11000238Y-27035476D01*
X10981190Y-27035476D01*
X10962143Y-27025952D01*
X10952619Y-27016428D01*
X10943095Y-26997381D01*
X10933571Y-26959286D01*
X10933571Y-26911667D01*
X10943095Y-26873571D01*
X10952619Y-26854524D01*
X10962143Y-26845000D01*
X10981190Y-26835476D01*
X11219286Y-26902143D02*
X11219286Y-27035476D01*
X11171667Y-26825952D02*
X11124048Y-26968809D01*
X11247857Y-26968809D01*
X11305000Y-26835476D02*
X11428809Y-26835476D01*
X11362143Y-26911667D01*
X11390714Y-26911667D01*
X11409762Y-26921190D01*
X11419286Y-26930714D01*
X11428809Y-26949762D01*
X11428809Y-26997381D01*
X11419286Y-27016428D01*
X11409762Y-27025952D01*
X11390714Y-27035476D01*
X11333571Y-27035476D01*
X11314524Y-27025952D01*
X11305000Y-27016428D01*
X11495476Y-26835476D02*
X11619286Y-26835476D01*
X11552619Y-26911667D01*
X11581190Y-26911667D01*
X11600238Y-26921190D01*
X11609762Y-26930714D01*
X11619286Y-26949762D01*
X11619286Y-26997381D01*
X11609762Y-27016428D01*
X11600238Y-27025952D01*
X11581190Y-27035476D01*
X11524048Y-27035476D01*
X11505000Y-27025952D01*
X11495476Y-27016428D01*
X11695476Y-26835476D02*
X11695476Y-26873571D01*
X11771667Y-26835476D02*
X11771667Y-26873571D01*
X12066905Y-27111667D02*
X12057381Y-27102143D01*
X12038333Y-27073571D01*
X12028809Y-27054524D01*
X12019286Y-27025952D01*
X12009762Y-26978333D01*
X12009762Y-26940238D01*
X12019286Y-26892619D01*
X12028809Y-26864048D01*
X12038333Y-26845000D01*
X12057381Y-26816428D01*
X12066905Y-26806905D01*
X12228809Y-26902143D02*
X12228809Y-27035476D01*
X12181190Y-26825952D02*
X12133571Y-26968809D01*
X12257381Y-26968809D01*
X12485952Y-27035476D02*
X12485952Y-26835476D01*
X12571667Y-27035476D02*
X12571667Y-26930714D01*
X12562143Y-26911667D01*
X12543095Y-26902143D01*
X12514524Y-26902143D01*
X12495476Y-26911667D01*
X12485952Y-26921190D01*
X12695476Y-27035476D02*
X12676428Y-27025952D01*
X12666905Y-27016428D01*
X12657381Y-26997381D01*
X12657381Y-26940238D01*
X12666905Y-26921190D01*
X12676428Y-26911667D01*
X12695476Y-26902143D01*
X12724048Y-26902143D01*
X12743095Y-26911667D01*
X12752619Y-26921190D01*
X12762143Y-26940238D01*
X12762143Y-26997381D01*
X12752619Y-27016428D01*
X12743095Y-27025952D01*
X12724048Y-27035476D01*
X12695476Y-27035476D01*
X12876428Y-27035476D02*
X12857381Y-27025952D01*
X12847857Y-27006905D01*
X12847857Y-26835476D01*
X13028809Y-27025952D02*
X13009762Y-27035476D01*
X12971667Y-27035476D01*
X12952619Y-27025952D01*
X12943095Y-27006905D01*
X12943095Y-26930714D01*
X12952619Y-26911667D01*
X12971667Y-26902143D01*
X13009762Y-26902143D01*
X13028809Y-26911667D01*
X13038333Y-26930714D01*
X13038333Y-26949762D01*
X12943095Y-26968809D01*
X13114524Y-27025952D02*
X13133571Y-27035476D01*
X13171667Y-27035476D01*
X13190714Y-27025952D01*
X13200238Y-27006905D01*
X13200238Y-26997381D01*
X13190714Y-26978333D01*
X13171667Y-26968809D01*
X13143095Y-26968809D01*
X13124048Y-26959286D01*
X13114524Y-26940238D01*
X13114524Y-26930714D01*
X13124048Y-26911667D01*
X13143095Y-26902143D01*
X13171667Y-26902143D01*
X13190714Y-26911667D01*
X13266905Y-27111667D02*
X13276428Y-27102143D01*
X13295476Y-27073571D01*
X13305000Y-27054524D01*
X13314524Y-27025952D01*
X13324048Y-26978333D01*
X13324048Y-26940238D01*
X13314524Y-26892619D01*
X13305000Y-26864048D01*
X13295476Y-26845000D01*
X13276428Y-26816428D01*
X13266905Y-26806905D01*
X13628809Y-27111667D02*
X13619286Y-27102143D01*
X13600238Y-27073571D01*
X13590714Y-27054524D01*
X13581190Y-27025952D01*
X13571667Y-26978333D01*
X13571667Y-26940238D01*
X13581190Y-26892619D01*
X13590714Y-26864048D01*
X13600238Y-26845000D01*
X13619286Y-26816428D01*
X13628809Y-26806905D01*
X13705000Y-26902143D02*
X13705000Y-27035476D01*
X13705000Y-26921190D02*
X13714524Y-26911667D01*
X13733571Y-26902143D01*
X13762143Y-26902143D01*
X13781190Y-26911667D01*
X13790714Y-26930714D01*
X13790714Y-27035476D01*
X13914524Y-27035476D02*
X13895476Y-27025952D01*
X13885952Y-27016428D01*
X13876428Y-26997381D01*
X13876428Y-26940238D01*
X13885952Y-26921190D01*
X13895476Y-26911667D01*
X13914524Y-26902143D01*
X13943095Y-26902143D01*
X13962143Y-26911667D01*
X13971667Y-26921190D01*
X13981190Y-26940238D01*
X13981190Y-26997381D01*
X13971667Y-27016428D01*
X13962143Y-27025952D01*
X13943095Y-27035476D01*
X13914524Y-27035476D01*
X14038333Y-26902143D02*
X14114524Y-26902143D01*
X14066905Y-26835476D02*
X14066905Y-27006905D01*
X14076428Y-27025952D01*
X14095476Y-27035476D01*
X14114524Y-27035476D01*
X14333571Y-26902143D02*
X14333571Y-27102143D01*
X14333571Y-26911667D02*
X14352619Y-26902143D01*
X14390714Y-26902143D01*
X14409762Y-26911667D01*
X14419286Y-26921190D01*
X14428809Y-26940238D01*
X14428809Y-26997381D01*
X14419286Y-27016428D01*
X14409762Y-27025952D01*
X14390714Y-27035476D01*
X14352619Y-27035476D01*
X14333571Y-27025952D01*
X14543095Y-27035476D02*
X14524048Y-27025952D01*
X14514524Y-27006905D01*
X14514524Y-26835476D01*
X14705000Y-27035476D02*
X14705000Y-26930714D01*
X14695476Y-26911667D01*
X14676428Y-26902143D01*
X14638333Y-26902143D01*
X14619286Y-26911667D01*
X14705000Y-27025952D02*
X14685952Y-27035476D01*
X14638333Y-27035476D01*
X14619286Y-27025952D01*
X14609762Y-27006905D01*
X14609762Y-26987857D01*
X14619286Y-26968809D01*
X14638333Y-26959286D01*
X14685952Y-26959286D01*
X14705000Y-26949762D01*
X14771667Y-26902143D02*
X14847857Y-26902143D01*
X14800238Y-26835476D02*
X14800238Y-27006905D01*
X14809762Y-27025952D01*
X14828809Y-27035476D01*
X14847857Y-27035476D01*
X14990714Y-27025952D02*
X14971667Y-27035476D01*
X14933571Y-27035476D01*
X14914524Y-27025952D01*
X14905000Y-27006905D01*
X14905000Y-26930714D01*
X14914524Y-26911667D01*
X14933571Y-26902143D01*
X14971667Y-26902143D01*
X14990714Y-26911667D01*
X15000238Y-26930714D01*
X15000238Y-26949762D01*
X14905000Y-26968809D01*
X15171667Y-27035476D02*
X15171667Y-26835476D01*
X15171667Y-27025952D02*
X15152619Y-27035476D01*
X15114524Y-27035476D01*
X15095476Y-27025952D01*
X15085952Y-27016428D01*
X15076428Y-26997381D01*
X15076428Y-26940238D01*
X15085952Y-26921190D01*
X15095476Y-26911667D01*
X15114524Y-26902143D01*
X15152619Y-26902143D01*
X15171667Y-26911667D01*
X15247857Y-27111667D02*
X15257381Y-27102143D01*
X15276428Y-27073571D01*
X15285952Y-27054524D01*
X15295476Y-27025952D01*
X15305000Y-26978333D01*
X15305000Y-26940238D01*
X15295476Y-26892619D01*
X15285952Y-26864048D01*
X15276428Y-26845000D01*
X15257381Y-26816428D01*
X15247857Y-26806905D01*
D13*
X8495000Y-27209000D02*
G75*
G03*
X8495000Y-27209000I-75000J0D01*
G01*
D11*
X8857381Y-27299476D02*
X8743095Y-27299476D01*
X8800238Y-27299476D02*
X8800238Y-27099476D01*
X8781190Y-27128048D01*
X8762143Y-27147095D01*
X8743095Y-27156619D01*
X8943095Y-27280428D02*
X8952619Y-27289952D01*
X8943095Y-27299476D01*
X8933571Y-27289952D01*
X8943095Y-27280428D01*
X8943095Y-27299476D01*
X9133571Y-27099476D02*
X9038333Y-27099476D01*
X9028810Y-27194714D01*
X9038333Y-27185190D01*
X9057381Y-27175667D01*
X9105000Y-27175667D01*
X9124048Y-27185190D01*
X9133571Y-27194714D01*
X9143095Y-27213762D01*
X9143095Y-27261381D01*
X9133571Y-27280428D01*
X9124048Y-27289952D01*
X9105000Y-27299476D01*
X9057381Y-27299476D01*
X9038333Y-27289952D01*
X9028810Y-27280428D01*
X9266905Y-27099476D02*
X9285952Y-27099476D01*
X9305000Y-27109000D01*
X9314524Y-27118524D01*
X9324048Y-27137571D01*
X9333571Y-27175667D01*
X9333571Y-27223286D01*
X9324048Y-27261381D01*
X9314524Y-27280428D01*
X9305000Y-27289952D01*
X9285952Y-27299476D01*
X9266905Y-27299476D01*
X9247857Y-27289952D01*
X9238333Y-27280428D01*
X9228810Y-27261381D01*
X9219286Y-27223286D01*
X9219286Y-27175667D01*
X9228810Y-27137571D01*
X9238333Y-27118524D01*
X9247857Y-27109000D01*
X9266905Y-27099476D01*
X9457381Y-27099476D02*
X9476429Y-27099476D01*
X9495476Y-27109000D01*
X9505000Y-27118524D01*
X9514524Y-27137571D01*
X9524048Y-27175667D01*
X9524048Y-27223286D01*
X9514524Y-27261381D01*
X9505000Y-27280428D01*
X9495476Y-27289952D01*
X9476429Y-27299476D01*
X9457381Y-27299476D01*
X9438333Y-27289952D01*
X9428810Y-27280428D01*
X9419286Y-27261381D01*
X9409762Y-27223286D01*
X9409762Y-27175667D01*
X9419286Y-27137571D01*
X9428810Y-27118524D01*
X9438333Y-27109000D01*
X9457381Y-27099476D01*
X9609762Y-27299476D02*
X9609762Y-27166143D01*
X9609762Y-27185190D02*
X9619286Y-27175667D01*
X9638333Y-27166143D01*
X9666905Y-27166143D01*
X9685952Y-27175667D01*
X9695476Y-27194714D01*
X9695476Y-27299476D01*
X9695476Y-27194714D02*
X9705000Y-27175667D01*
X9724048Y-27166143D01*
X9752619Y-27166143D01*
X9771667Y-27175667D01*
X9781190Y-27194714D01*
X9781190Y-27299476D01*
X9876429Y-27299476D02*
X9876429Y-27166143D01*
X9876429Y-27185190D02*
X9885952Y-27175667D01*
X9905000Y-27166143D01*
X9933571Y-27166143D01*
X9952619Y-27175667D01*
X9962143Y-27194714D01*
X9962143Y-27299476D01*
X9962143Y-27194714D02*
X9971667Y-27175667D01*
X9990714Y-27166143D01*
X10019286Y-27166143D01*
X10038333Y-27175667D01*
X10047857Y-27194714D01*
X10047857Y-27299476D01*
X10438333Y-27089952D02*
X10266905Y-27347095D01*
X10695476Y-27099476D02*
X10714524Y-27099476D01*
X10733571Y-27109000D01*
X10743095Y-27118524D01*
X10752619Y-27137571D01*
X10762143Y-27175667D01*
X10762143Y-27223286D01*
X10752619Y-27261381D01*
X10743095Y-27280428D01*
X10733571Y-27289952D01*
X10714524Y-27299476D01*
X10695476Y-27299476D01*
X10676429Y-27289952D01*
X10666905Y-27280428D01*
X10657381Y-27261381D01*
X10647857Y-27223286D01*
X10647857Y-27175667D01*
X10657381Y-27137571D01*
X10666905Y-27118524D01*
X10676429Y-27109000D01*
X10695476Y-27099476D01*
X10847857Y-27280428D02*
X10857381Y-27289952D01*
X10847857Y-27299476D01*
X10838333Y-27289952D01*
X10847857Y-27280428D01*
X10847857Y-27299476D01*
X10981190Y-27099476D02*
X11000238Y-27099476D01*
X11019286Y-27109000D01*
X11028810Y-27118524D01*
X11038333Y-27137571D01*
X11047857Y-27175667D01*
X11047857Y-27223286D01*
X11038333Y-27261381D01*
X11028810Y-27280428D01*
X11019286Y-27289952D01*
X11000238Y-27299476D01*
X10981190Y-27299476D01*
X10962143Y-27289952D01*
X10952619Y-27280428D01*
X10943095Y-27261381D01*
X10933571Y-27223286D01*
X10933571Y-27175667D01*
X10943095Y-27137571D01*
X10952619Y-27118524D01*
X10962143Y-27109000D01*
X10981190Y-27099476D01*
X11228809Y-27099476D02*
X11133571Y-27099476D01*
X11124048Y-27194714D01*
X11133571Y-27185190D01*
X11152619Y-27175667D01*
X11200238Y-27175667D01*
X11219286Y-27185190D01*
X11228809Y-27194714D01*
X11238333Y-27213762D01*
X11238333Y-27261381D01*
X11228809Y-27280428D01*
X11219286Y-27289952D01*
X11200238Y-27299476D01*
X11152619Y-27299476D01*
X11133571Y-27289952D01*
X11124048Y-27280428D01*
X11333571Y-27299476D02*
X11371667Y-27299476D01*
X11390714Y-27289952D01*
X11400238Y-27280428D01*
X11419286Y-27251857D01*
X11428809Y-27213762D01*
X11428809Y-27137571D01*
X11419286Y-27118524D01*
X11409762Y-27109000D01*
X11390714Y-27099476D01*
X11352619Y-27099476D01*
X11333571Y-27109000D01*
X11324048Y-27118524D01*
X11314524Y-27137571D01*
X11314524Y-27185190D01*
X11324048Y-27204238D01*
X11333571Y-27213762D01*
X11352619Y-27223286D01*
X11390714Y-27223286D01*
X11409762Y-27213762D01*
X11419286Y-27204238D01*
X11428809Y-27185190D01*
X11619286Y-27299476D02*
X11505000Y-27299476D01*
X11562143Y-27299476D02*
X11562143Y-27099476D01*
X11543095Y-27128048D01*
X11524048Y-27147095D01*
X11505000Y-27156619D01*
X11695476Y-27099476D02*
X11695476Y-27137571D01*
X11771667Y-27099476D02*
X11771667Y-27137571D01*
X12066905Y-27375667D02*
X12057381Y-27366143D01*
X12038333Y-27337571D01*
X12028809Y-27318524D01*
X12019286Y-27289952D01*
X12009762Y-27242333D01*
X12009762Y-27204238D01*
X12019286Y-27156619D01*
X12028809Y-27128048D01*
X12038333Y-27109000D01*
X12057381Y-27080428D01*
X12066905Y-27070905D01*
X12228809Y-27166143D02*
X12228809Y-27299476D01*
X12181190Y-27089952D02*
X12133571Y-27232809D01*
X12257381Y-27232809D01*
X12485952Y-27299476D02*
X12485952Y-27099476D01*
X12571667Y-27299476D02*
X12571667Y-27194714D01*
X12562143Y-27175667D01*
X12543095Y-27166143D01*
X12514524Y-27166143D01*
X12495476Y-27175667D01*
X12485952Y-27185190D01*
X12695476Y-27299476D02*
X12676428Y-27289952D01*
X12666905Y-27280428D01*
X12657381Y-27261381D01*
X12657381Y-27204238D01*
X12666905Y-27185190D01*
X12676428Y-27175667D01*
X12695476Y-27166143D01*
X12724048Y-27166143D01*
X12743095Y-27175667D01*
X12752619Y-27185190D01*
X12762143Y-27204238D01*
X12762143Y-27261381D01*
X12752619Y-27280428D01*
X12743095Y-27289952D01*
X12724048Y-27299476D01*
X12695476Y-27299476D01*
X12876428Y-27299476D02*
X12857381Y-27289952D01*
X12847857Y-27270905D01*
X12847857Y-27099476D01*
X13028809Y-27289952D02*
X13009762Y-27299476D01*
X12971667Y-27299476D01*
X12952619Y-27289952D01*
X12943095Y-27270905D01*
X12943095Y-27194714D01*
X12952619Y-27175667D01*
X12971667Y-27166143D01*
X13009762Y-27166143D01*
X13028809Y-27175667D01*
X13038333Y-27194714D01*
X13038333Y-27213762D01*
X12943095Y-27232809D01*
X13114524Y-27289952D02*
X13133571Y-27299476D01*
X13171667Y-27299476D01*
X13190714Y-27289952D01*
X13200238Y-27270905D01*
X13200238Y-27261381D01*
X13190714Y-27242333D01*
X13171667Y-27232809D01*
X13143095Y-27232809D01*
X13124048Y-27223286D01*
X13114524Y-27204238D01*
X13114524Y-27194714D01*
X13124048Y-27175667D01*
X13143095Y-27166143D01*
X13171667Y-27166143D01*
X13190714Y-27175667D01*
X13266905Y-27375667D02*
X13276428Y-27366143D01*
X13295476Y-27337571D01*
X13305000Y-27318524D01*
X13314524Y-27289952D01*
X13324048Y-27242333D01*
X13324048Y-27204238D01*
X13314524Y-27156619D01*
X13305000Y-27128048D01*
X13295476Y-27109000D01*
X13276428Y-27080428D01*
X13266905Y-27070905D01*
X13628809Y-27375667D02*
X13619286Y-27366143D01*
X13600238Y-27337571D01*
X13590714Y-27318524D01*
X13581190Y-27289952D01*
X13571667Y-27242333D01*
X13571667Y-27204238D01*
X13581190Y-27156619D01*
X13590714Y-27128048D01*
X13600238Y-27109000D01*
X13619286Y-27080428D01*
X13628809Y-27070905D01*
X13705000Y-27166143D02*
X13705000Y-27299476D01*
X13705000Y-27185190D02*
X13714524Y-27175667D01*
X13733571Y-27166143D01*
X13762143Y-27166143D01*
X13781190Y-27175667D01*
X13790714Y-27194714D01*
X13790714Y-27299476D01*
X13914524Y-27299476D02*
X13895476Y-27289952D01*
X13885952Y-27280428D01*
X13876428Y-27261381D01*
X13876428Y-27204238D01*
X13885952Y-27185190D01*
X13895476Y-27175667D01*
X13914524Y-27166143D01*
X13943095Y-27166143D01*
X13962143Y-27175667D01*
X13971667Y-27185190D01*
X13981190Y-27204238D01*
X13981190Y-27261381D01*
X13971667Y-27280428D01*
X13962143Y-27289952D01*
X13943095Y-27299476D01*
X13914524Y-27299476D01*
X14038333Y-27166143D02*
X14114524Y-27166143D01*
X14066905Y-27099476D02*
X14066905Y-27270905D01*
X14076428Y-27289952D01*
X14095476Y-27299476D01*
X14114524Y-27299476D01*
X14333571Y-27166143D02*
X14333571Y-27366143D01*
X14333571Y-27175667D02*
X14352619Y-27166143D01*
X14390714Y-27166143D01*
X14409762Y-27175667D01*
X14419286Y-27185190D01*
X14428809Y-27204238D01*
X14428809Y-27261381D01*
X14419286Y-27280428D01*
X14409762Y-27289952D01*
X14390714Y-27299476D01*
X14352619Y-27299476D01*
X14333571Y-27289952D01*
X14543095Y-27299476D02*
X14524048Y-27289952D01*
X14514524Y-27270905D01*
X14514524Y-27099476D01*
X14705000Y-27299476D02*
X14705000Y-27194714D01*
X14695476Y-27175667D01*
X14676428Y-27166143D01*
X14638333Y-27166143D01*
X14619286Y-27175667D01*
X14705000Y-27289952D02*
X14685952Y-27299476D01*
X14638333Y-27299476D01*
X14619286Y-27289952D01*
X14609762Y-27270905D01*
X14609762Y-27251857D01*
X14619286Y-27232809D01*
X14638333Y-27223286D01*
X14685952Y-27223286D01*
X14705000Y-27213762D01*
X14771667Y-27166143D02*
X14847857Y-27166143D01*
X14800238Y-27099476D02*
X14800238Y-27270905D01*
X14809762Y-27289952D01*
X14828809Y-27299476D01*
X14847857Y-27299476D01*
X14990714Y-27289952D02*
X14971667Y-27299476D01*
X14933571Y-27299476D01*
X14914524Y-27289952D01*
X14905000Y-27270905D01*
X14905000Y-27194714D01*
X14914524Y-27175667D01*
X14933571Y-27166143D01*
X14971667Y-27166143D01*
X14990714Y-27175667D01*
X15000238Y-27194714D01*
X15000238Y-27213762D01*
X14905000Y-27232809D01*
X15171667Y-27299476D02*
X15171667Y-27099476D01*
X15171667Y-27289952D02*
X15152619Y-27299476D01*
X15114524Y-27299476D01*
X15095476Y-27289952D01*
X15085952Y-27280428D01*
X15076428Y-27261381D01*
X15076428Y-27204238D01*
X15085952Y-27185190D01*
X15095476Y-27175667D01*
X15114524Y-27166143D01*
X15152619Y-27166143D01*
X15171667Y-27175667D01*
X15247857Y-27375667D02*
X15257381Y-27366143D01*
X15276428Y-27337571D01*
X15285952Y-27318524D01*
X15295476Y-27289952D01*
X15305000Y-27242333D01*
X15305000Y-27204238D01*
X15295476Y-27156619D01*
X15285952Y-27128048D01*
X15276428Y-27109000D01*
X15257381Y-27080428D01*
X15247857Y-27070905D01*
D14*
X8410000Y-27394000D02*
X8410000Y-27564000D01*
X8325000Y-27479000D02*
X8495000Y-27479000D01*
D11*
X8857381Y-27569476D02*
X8743095Y-27569476D01*
X8800238Y-27569476D02*
X8800238Y-27369476D01*
X8781190Y-27398048D01*
X8762143Y-27417095D01*
X8743095Y-27426619D01*
X8943095Y-27550428D02*
X8952619Y-27559952D01*
X8943095Y-27569476D01*
X8933571Y-27559952D01*
X8943095Y-27550428D01*
X8943095Y-27569476D01*
X9019286Y-27369476D02*
X9152619Y-27369476D01*
X9066905Y-27569476D01*
X9266905Y-27369476D02*
X9285952Y-27369476D01*
X9305000Y-27379000D01*
X9314524Y-27388524D01*
X9324048Y-27407571D01*
X9333571Y-27445667D01*
X9333571Y-27493286D01*
X9324048Y-27531381D01*
X9314524Y-27550428D01*
X9305000Y-27559952D01*
X9285952Y-27569476D01*
X9266905Y-27569476D01*
X9247857Y-27559952D01*
X9238333Y-27550428D01*
X9228810Y-27531381D01*
X9219286Y-27493286D01*
X9219286Y-27445667D01*
X9228810Y-27407571D01*
X9238333Y-27388524D01*
X9247857Y-27379000D01*
X9266905Y-27369476D01*
X9457381Y-27369476D02*
X9476429Y-27369476D01*
X9495476Y-27379000D01*
X9505000Y-27388524D01*
X9514524Y-27407571D01*
X9524048Y-27445667D01*
X9524048Y-27493286D01*
X9514524Y-27531381D01*
X9505000Y-27550428D01*
X9495476Y-27559952D01*
X9476429Y-27569476D01*
X9457381Y-27569476D01*
X9438333Y-27559952D01*
X9428810Y-27550428D01*
X9419286Y-27531381D01*
X9409762Y-27493286D01*
X9409762Y-27445667D01*
X9419286Y-27407571D01*
X9428810Y-27388524D01*
X9438333Y-27379000D01*
X9457381Y-27369476D01*
X9609762Y-27569476D02*
X9609762Y-27436143D01*
X9609762Y-27455190D02*
X9619286Y-27445667D01*
X9638333Y-27436143D01*
X9666905Y-27436143D01*
X9685952Y-27445667D01*
X9695476Y-27464714D01*
X9695476Y-27569476D01*
X9695476Y-27464714D02*
X9705000Y-27445667D01*
X9724048Y-27436143D01*
X9752619Y-27436143D01*
X9771667Y-27445667D01*
X9781190Y-27464714D01*
X9781190Y-27569476D01*
X9876429Y-27569476D02*
X9876429Y-27436143D01*
X9876429Y-27455190D02*
X9885952Y-27445667D01*
X9905000Y-27436143D01*
X9933571Y-27436143D01*
X9952619Y-27445667D01*
X9962143Y-27464714D01*
X9962143Y-27569476D01*
X9962143Y-27464714D02*
X9971667Y-27445667D01*
X9990714Y-27436143D01*
X10019286Y-27436143D01*
X10038333Y-27445667D01*
X10047857Y-27464714D01*
X10047857Y-27569476D01*
X10438333Y-27359952D02*
X10266905Y-27617095D01*
X10695476Y-27369476D02*
X10714524Y-27369476D01*
X10733571Y-27379000D01*
X10743095Y-27388524D01*
X10752619Y-27407571D01*
X10762143Y-27445667D01*
X10762143Y-27493286D01*
X10752619Y-27531381D01*
X10743095Y-27550428D01*
X10733571Y-27559952D01*
X10714524Y-27569476D01*
X10695476Y-27569476D01*
X10676429Y-27559952D01*
X10666905Y-27550428D01*
X10657381Y-27531381D01*
X10647857Y-27493286D01*
X10647857Y-27445667D01*
X10657381Y-27407571D01*
X10666905Y-27388524D01*
X10676429Y-27379000D01*
X10695476Y-27369476D01*
X10847857Y-27550428D02*
X10857381Y-27559952D01*
X10847857Y-27569476D01*
X10838333Y-27559952D01*
X10847857Y-27550428D01*
X10847857Y-27569476D01*
X10981190Y-27369476D02*
X11000238Y-27369476D01*
X11019286Y-27379000D01*
X11028810Y-27388524D01*
X11038333Y-27407571D01*
X11047857Y-27445667D01*
X11047857Y-27493286D01*
X11038333Y-27531381D01*
X11028810Y-27550428D01*
X11019286Y-27559952D01*
X11000238Y-27569476D01*
X10981190Y-27569476D01*
X10962143Y-27559952D01*
X10952619Y-27550428D01*
X10943095Y-27531381D01*
X10933571Y-27493286D01*
X10933571Y-27445667D01*
X10943095Y-27407571D01*
X10952619Y-27388524D01*
X10962143Y-27379000D01*
X10981190Y-27369476D01*
X11219286Y-27369476D02*
X11181190Y-27369476D01*
X11162143Y-27379000D01*
X11152619Y-27388524D01*
X11133571Y-27417095D01*
X11124048Y-27455190D01*
X11124048Y-27531381D01*
X11133571Y-27550428D01*
X11143095Y-27559952D01*
X11162143Y-27569476D01*
X11200238Y-27569476D01*
X11219286Y-27559952D01*
X11228809Y-27550428D01*
X11238333Y-27531381D01*
X11238333Y-27483762D01*
X11228809Y-27464714D01*
X11219286Y-27455190D01*
X11200238Y-27445667D01*
X11162143Y-27445667D01*
X11143095Y-27455190D01*
X11133571Y-27464714D01*
X11124048Y-27483762D01*
X11409762Y-27369476D02*
X11371667Y-27369476D01*
X11352619Y-27379000D01*
X11343095Y-27388524D01*
X11324048Y-27417095D01*
X11314524Y-27455190D01*
X11314524Y-27531381D01*
X11324048Y-27550428D01*
X11333571Y-27559952D01*
X11352619Y-27569476D01*
X11390714Y-27569476D01*
X11409762Y-27559952D01*
X11419286Y-27550428D01*
X11428809Y-27531381D01*
X11428809Y-27483762D01*
X11419286Y-27464714D01*
X11409762Y-27455190D01*
X11390714Y-27445667D01*
X11352619Y-27445667D01*
X11333571Y-27455190D01*
X11324048Y-27464714D01*
X11314524Y-27483762D01*
X11524048Y-27569476D02*
X11562143Y-27569476D01*
X11581190Y-27559952D01*
X11590714Y-27550428D01*
X11609762Y-27521857D01*
X11619286Y-27483762D01*
X11619286Y-27407571D01*
X11609762Y-27388524D01*
X11600238Y-27379000D01*
X11581190Y-27369476D01*
X11543095Y-27369476D01*
X11524048Y-27379000D01*
X11514524Y-27388524D01*
X11505000Y-27407571D01*
X11505000Y-27455190D01*
X11514524Y-27474238D01*
X11524048Y-27483762D01*
X11543095Y-27493286D01*
X11581190Y-27493286D01*
X11600238Y-27483762D01*
X11609762Y-27474238D01*
X11619286Y-27455190D01*
X11695476Y-27369476D02*
X11695476Y-27407571D01*
X11771667Y-27369476D02*
X11771667Y-27407571D01*
X12066905Y-27645667D02*
X12057381Y-27636143D01*
X12038333Y-27607571D01*
X12028809Y-27588524D01*
X12019286Y-27559952D01*
X12009762Y-27512333D01*
X12009762Y-27474238D01*
X12019286Y-27426619D01*
X12028809Y-27398048D01*
X12038333Y-27379000D01*
X12057381Y-27350428D01*
X12066905Y-27340905D01*
X12247857Y-27569476D02*
X12133571Y-27569476D01*
X12190714Y-27569476D02*
X12190714Y-27369476D01*
X12171667Y-27398048D01*
X12152619Y-27417095D01*
X12133571Y-27426619D01*
X12362143Y-27455190D02*
X12343095Y-27445667D01*
X12333571Y-27436143D01*
X12324048Y-27417095D01*
X12324048Y-27407571D01*
X12333571Y-27388524D01*
X12343095Y-27379000D01*
X12362143Y-27369476D01*
X12400238Y-27369476D01*
X12419286Y-27379000D01*
X12428809Y-27388524D01*
X12438333Y-27407571D01*
X12438333Y-27417095D01*
X12428809Y-27436143D01*
X12419286Y-27445667D01*
X12400238Y-27455190D01*
X12362143Y-27455190D01*
X12343095Y-27464714D01*
X12333571Y-27474238D01*
X12324048Y-27493286D01*
X12324048Y-27531381D01*
X12333571Y-27550428D01*
X12343095Y-27559952D01*
X12362143Y-27569476D01*
X12400238Y-27569476D01*
X12419286Y-27559952D01*
X12428809Y-27550428D01*
X12438333Y-27531381D01*
X12438333Y-27493286D01*
X12428809Y-27474238D01*
X12419286Y-27464714D01*
X12400238Y-27455190D01*
X12552619Y-27455190D02*
X12533571Y-27445667D01*
X12524048Y-27436143D01*
X12514524Y-27417095D01*
X12514524Y-27407571D01*
X12524048Y-27388524D01*
X12533571Y-27379000D01*
X12552619Y-27369476D01*
X12590714Y-27369476D01*
X12609762Y-27379000D01*
X12619286Y-27388524D01*
X12628809Y-27407571D01*
X12628809Y-27417095D01*
X12619286Y-27436143D01*
X12609762Y-27445667D01*
X12590714Y-27455190D01*
X12552619Y-27455190D01*
X12533571Y-27464714D01*
X12524048Y-27474238D01*
X12514524Y-27493286D01*
X12514524Y-27531381D01*
X12524048Y-27550428D01*
X12533571Y-27559952D01*
X12552619Y-27569476D01*
X12590714Y-27569476D01*
X12609762Y-27559952D01*
X12619286Y-27550428D01*
X12628809Y-27531381D01*
X12628809Y-27493286D01*
X12619286Y-27474238D01*
X12609762Y-27464714D01*
X12590714Y-27455190D01*
X12866905Y-27569476D02*
X12866905Y-27369476D01*
X12952619Y-27569476D02*
X12952619Y-27464714D01*
X12943095Y-27445667D01*
X12924048Y-27436143D01*
X12895476Y-27436143D01*
X12876428Y-27445667D01*
X12866905Y-27455190D01*
X13076428Y-27569476D02*
X13057381Y-27559952D01*
X13047857Y-27550428D01*
X13038333Y-27531381D01*
X13038333Y-27474238D01*
X13047857Y-27455190D01*
X13057381Y-27445667D01*
X13076428Y-27436143D01*
X13105000Y-27436143D01*
X13124048Y-27445667D01*
X13133571Y-27455190D01*
X13143095Y-27474238D01*
X13143095Y-27531381D01*
X13133571Y-27550428D01*
X13124048Y-27559952D01*
X13105000Y-27569476D01*
X13076428Y-27569476D01*
X13257381Y-27569476D02*
X13238333Y-27559952D01*
X13228809Y-27540905D01*
X13228809Y-27369476D01*
X13409762Y-27559952D02*
X13390714Y-27569476D01*
X13352619Y-27569476D01*
X13333571Y-27559952D01*
X13324048Y-27540905D01*
X13324048Y-27464714D01*
X13333571Y-27445667D01*
X13352619Y-27436143D01*
X13390714Y-27436143D01*
X13409762Y-27445667D01*
X13419286Y-27464714D01*
X13419286Y-27483762D01*
X13324048Y-27502809D01*
X13495476Y-27559952D02*
X13514524Y-27569476D01*
X13552619Y-27569476D01*
X13571667Y-27559952D01*
X13581190Y-27540905D01*
X13581190Y-27531381D01*
X13571667Y-27512333D01*
X13552619Y-27502809D01*
X13524048Y-27502809D01*
X13505000Y-27493286D01*
X13495476Y-27474238D01*
X13495476Y-27464714D01*
X13505000Y-27445667D01*
X13524048Y-27436143D01*
X13552619Y-27436143D01*
X13571667Y-27445667D01*
X13647857Y-27645667D02*
X13657381Y-27636143D01*
X13676428Y-27607571D01*
X13685952Y-27588524D01*
X13695476Y-27559952D01*
X13705000Y-27512333D01*
X13705000Y-27474238D01*
X13695476Y-27426619D01*
X13685952Y-27398048D01*
X13676428Y-27379000D01*
X13657381Y-27350428D01*
X13647857Y-27340905D01*
X14009762Y-27645667D02*
X14000238Y-27636143D01*
X13981190Y-27607571D01*
X13971667Y-27588524D01*
X13962143Y-27559952D01*
X13952619Y-27512333D01*
X13952619Y-27474238D01*
X13962143Y-27426619D01*
X13971667Y-27398048D01*
X13981190Y-27379000D01*
X14000238Y-27350428D01*
X14009762Y-27340905D01*
X14085952Y-27436143D02*
X14085952Y-27569476D01*
X14085952Y-27455190D02*
X14095476Y-27445667D01*
X14114524Y-27436143D01*
X14143095Y-27436143D01*
X14162143Y-27445667D01*
X14171667Y-27464714D01*
X14171667Y-27569476D01*
X14295476Y-27569476D02*
X14276428Y-27559952D01*
X14266905Y-27550428D01*
X14257381Y-27531381D01*
X14257381Y-27474238D01*
X14266905Y-27455190D01*
X14276428Y-27445667D01*
X14295476Y-27436143D01*
X14324048Y-27436143D01*
X14343095Y-27445667D01*
X14352619Y-27455190D01*
X14362143Y-27474238D01*
X14362143Y-27531381D01*
X14352619Y-27550428D01*
X14343095Y-27559952D01*
X14324048Y-27569476D01*
X14295476Y-27569476D01*
X14419286Y-27436143D02*
X14495476Y-27436143D01*
X14447857Y-27369476D02*
X14447857Y-27540905D01*
X14457381Y-27559952D01*
X14476428Y-27569476D01*
X14495476Y-27569476D01*
X14714524Y-27436143D02*
X14714524Y-27636143D01*
X14714524Y-27445667D02*
X14733571Y-27436143D01*
X14771667Y-27436143D01*
X14790714Y-27445667D01*
X14800238Y-27455190D01*
X14809762Y-27474238D01*
X14809762Y-27531381D01*
X14800238Y-27550428D01*
X14790714Y-27559952D01*
X14771667Y-27569476D01*
X14733571Y-27569476D01*
X14714524Y-27559952D01*
X14924048Y-27569476D02*
X14905000Y-27559952D01*
X14895476Y-27540905D01*
X14895476Y-27369476D01*
X15085952Y-27569476D02*
X15085952Y-27464714D01*
X15076428Y-27445667D01*
X15057381Y-27436143D01*
X15019286Y-27436143D01*
X15000238Y-27445667D01*
X15085952Y-27559952D02*
X15066905Y-27569476D01*
X15019286Y-27569476D01*
X15000238Y-27559952D01*
X14990714Y-27540905D01*
X14990714Y-27521857D01*
X15000238Y-27502809D01*
X15019286Y-27493286D01*
X15066905Y-27493286D01*
X15085952Y-27483762D01*
X15152619Y-27436143D02*
X15228809Y-27436143D01*
X15181190Y-27369476D02*
X15181190Y-27540905D01*
X15190714Y-27559952D01*
X15209762Y-27569476D01*
X15228809Y-27569476D01*
X15371667Y-27559952D02*
X15352619Y-27569476D01*
X15314524Y-27569476D01*
X15295476Y-27559952D01*
X15285952Y-27540905D01*
X15285952Y-27464714D01*
X15295476Y-27445667D01*
X15314524Y-27436143D01*
X15352619Y-27436143D01*
X15371667Y-27445667D01*
X15381190Y-27464714D01*
X15381190Y-27483762D01*
X15285952Y-27502809D01*
X15552619Y-27569476D02*
X15552619Y-27369476D01*
X15552619Y-27559952D02*
X15533571Y-27569476D01*
X15495476Y-27569476D01*
X15476428Y-27559952D01*
X15466905Y-27550428D01*
X15457381Y-27531381D01*
X15457381Y-27474238D01*
X15466905Y-27455190D01*
X15476428Y-27445667D01*
X15495476Y-27436143D01*
X15533571Y-27436143D01*
X15552619Y-27445667D01*
X15628809Y-27645667D02*
X15638333Y-27636143D01*
X15657381Y-27607571D01*
X15666905Y-27588524D01*
X15676428Y-27559952D01*
X15685952Y-27512333D01*
X15685952Y-27474238D01*
X15676428Y-27426619D01*
X15666905Y-27398048D01*
X15657381Y-27379000D01*
X15638333Y-27350428D01*
X15628809Y-27340905D01*
D15*
X8468640Y-27832640D02*
X8468640Y-27705360D01*
X8341360Y-27705360D01*
X8341360Y-27832640D01*
X8468640Y-27832640D01*
D11*
X8857381Y-27859476D02*
X8743095Y-27859476D01*
X8800238Y-27859476D02*
X8800238Y-27659476D01*
X8781190Y-27688048D01*
X8762143Y-27707095D01*
X8743095Y-27716619D01*
X8943095Y-27840428D02*
X8952619Y-27849952D01*
X8943095Y-27859476D01*
X8933571Y-27849952D01*
X8943095Y-27840428D01*
X8943095Y-27859476D01*
X9066905Y-27745190D02*
X9047857Y-27735667D01*
X9038333Y-27726143D01*
X9028810Y-27707095D01*
X9028810Y-27697571D01*
X9038333Y-27678524D01*
X9047857Y-27669000D01*
X9066905Y-27659476D01*
X9105000Y-27659476D01*
X9124048Y-27669000D01*
X9133571Y-27678524D01*
X9143095Y-27697571D01*
X9143095Y-27707095D01*
X9133571Y-27726143D01*
X9124048Y-27735667D01*
X9105000Y-27745190D01*
X9066905Y-27745190D01*
X9047857Y-27754714D01*
X9038333Y-27764238D01*
X9028810Y-27783286D01*
X9028810Y-27821381D01*
X9038333Y-27840428D01*
X9047857Y-27849952D01*
X9066905Y-27859476D01*
X9105000Y-27859476D01*
X9124048Y-27849952D01*
X9133571Y-27840428D01*
X9143095Y-27821381D01*
X9143095Y-27783286D01*
X9133571Y-27764238D01*
X9124048Y-27754714D01*
X9105000Y-27745190D01*
X9266905Y-27659476D02*
X9285952Y-27659476D01*
X9305000Y-27669000D01*
X9314524Y-27678524D01*
X9324048Y-27697571D01*
X9333571Y-27735667D01*
X9333571Y-27783286D01*
X9324048Y-27821381D01*
X9314524Y-27840428D01*
X9305000Y-27849952D01*
X9285952Y-27859476D01*
X9266905Y-27859476D01*
X9247857Y-27849952D01*
X9238333Y-27840428D01*
X9228810Y-27821381D01*
X9219286Y-27783286D01*
X9219286Y-27735667D01*
X9228810Y-27697571D01*
X9238333Y-27678524D01*
X9247857Y-27669000D01*
X9266905Y-27659476D01*
X9457381Y-27659476D02*
X9476429Y-27659476D01*
X9495476Y-27669000D01*
X9505000Y-27678524D01*
X9514524Y-27697571D01*
X9524048Y-27735667D01*
X9524048Y-27783286D01*
X9514524Y-27821381D01*
X9505000Y-27840428D01*
X9495476Y-27849952D01*
X9476429Y-27859476D01*
X9457381Y-27859476D01*
X9438333Y-27849952D01*
X9428810Y-27840428D01*
X9419286Y-27821381D01*
X9409762Y-27783286D01*
X9409762Y-27735667D01*
X9419286Y-27697571D01*
X9428810Y-27678524D01*
X9438333Y-27669000D01*
X9457381Y-27659476D01*
X9609762Y-27859476D02*
X9609762Y-27726143D01*
X9609762Y-27745190D02*
X9619286Y-27735667D01*
X9638333Y-27726143D01*
X9666905Y-27726143D01*
X9685952Y-27735667D01*
X9695476Y-27754714D01*
X9695476Y-27859476D01*
X9695476Y-27754714D02*
X9705000Y-27735667D01*
X9724048Y-27726143D01*
X9752619Y-27726143D01*
X9771667Y-27735667D01*
X9781190Y-27754714D01*
X9781190Y-27859476D01*
X9876429Y-27859476D02*
X9876429Y-27726143D01*
X9876429Y-27745190D02*
X9885952Y-27735667D01*
X9905000Y-27726143D01*
X9933571Y-27726143D01*
X9952619Y-27735667D01*
X9962143Y-27754714D01*
X9962143Y-27859476D01*
X9962143Y-27754714D02*
X9971667Y-27735667D01*
X9990714Y-27726143D01*
X10019286Y-27726143D01*
X10038333Y-27735667D01*
X10047857Y-27754714D01*
X10047857Y-27859476D01*
X10438333Y-27649952D02*
X10266905Y-27907095D01*
X10695476Y-27659476D02*
X10714524Y-27659476D01*
X10733571Y-27669000D01*
X10743095Y-27678524D01*
X10752619Y-27697571D01*
X10762143Y-27735667D01*
X10762143Y-27783286D01*
X10752619Y-27821381D01*
X10743095Y-27840428D01*
X10733571Y-27849952D01*
X10714524Y-27859476D01*
X10695476Y-27859476D01*
X10676429Y-27849952D01*
X10666905Y-27840428D01*
X10657381Y-27821381D01*
X10647857Y-27783286D01*
X10647857Y-27735667D01*
X10657381Y-27697571D01*
X10666905Y-27678524D01*
X10676429Y-27669000D01*
X10695476Y-27659476D01*
X10847857Y-27840428D02*
X10857381Y-27849952D01*
X10847857Y-27859476D01*
X10838333Y-27849952D01*
X10847857Y-27840428D01*
X10847857Y-27859476D01*
X10981190Y-27659476D02*
X11000238Y-27659476D01*
X11019286Y-27669000D01*
X11028810Y-27678524D01*
X11038333Y-27697571D01*
X11047857Y-27735667D01*
X11047857Y-27783286D01*
X11038333Y-27821381D01*
X11028810Y-27840428D01*
X11019286Y-27849952D01*
X11000238Y-27859476D01*
X10981190Y-27859476D01*
X10962143Y-27849952D01*
X10952619Y-27840428D01*
X10943095Y-27821381D01*
X10933571Y-27783286D01*
X10933571Y-27735667D01*
X10943095Y-27697571D01*
X10952619Y-27678524D01*
X10962143Y-27669000D01*
X10981190Y-27659476D01*
X11114524Y-27659476D02*
X11247857Y-27659476D01*
X11162143Y-27859476D01*
X11362143Y-27659476D02*
X11381190Y-27659476D01*
X11400238Y-27669000D01*
X11409762Y-27678524D01*
X11419286Y-27697571D01*
X11428809Y-27735667D01*
X11428809Y-27783286D01*
X11419286Y-27821381D01*
X11409762Y-27840428D01*
X11400238Y-27849952D01*
X11381190Y-27859476D01*
X11362143Y-27859476D01*
X11343095Y-27849952D01*
X11333571Y-27840428D01*
X11324048Y-27821381D01*
X11314524Y-27783286D01*
X11314524Y-27735667D01*
X11324048Y-27697571D01*
X11333571Y-27678524D01*
X11343095Y-27669000D01*
X11362143Y-27659476D01*
X11524048Y-27859476D02*
X11562143Y-27859476D01*
X11581190Y-27849952D01*
X11590714Y-27840428D01*
X11609762Y-27811857D01*
X11619286Y-27773762D01*
X11619286Y-27697571D01*
X11609762Y-27678524D01*
X11600238Y-27669000D01*
X11581190Y-27659476D01*
X11543095Y-27659476D01*
X11524048Y-27669000D01*
X11514524Y-27678524D01*
X11505000Y-27697571D01*
X11505000Y-27745190D01*
X11514524Y-27764238D01*
X11524048Y-27773762D01*
X11543095Y-27783286D01*
X11581190Y-27783286D01*
X11600238Y-27773762D01*
X11609762Y-27764238D01*
X11619286Y-27745190D01*
X11695476Y-27659476D02*
X11695476Y-27697571D01*
X11771667Y-27659476D02*
X11771667Y-27697571D01*
X12066905Y-27935667D02*
X12057381Y-27926143D01*
X12038333Y-27897571D01*
X12028809Y-27878524D01*
X12019286Y-27849952D01*
X12009762Y-27802333D01*
X12009762Y-27764238D01*
X12019286Y-27716619D01*
X12028809Y-27688048D01*
X12038333Y-27669000D01*
X12057381Y-27640428D01*
X12066905Y-27630905D01*
X12228809Y-27726143D02*
X12228809Y-27859476D01*
X12181190Y-27649952D02*
X12133571Y-27792809D01*
X12257381Y-27792809D01*
X12485952Y-27859476D02*
X12485952Y-27659476D01*
X12571667Y-27859476D02*
X12571667Y-27754714D01*
X12562143Y-27735667D01*
X12543095Y-27726143D01*
X12514524Y-27726143D01*
X12495476Y-27735667D01*
X12485952Y-27745190D01*
X12695476Y-27859476D02*
X12676428Y-27849952D01*
X12666905Y-27840428D01*
X12657381Y-27821381D01*
X12657381Y-27764238D01*
X12666905Y-27745190D01*
X12676428Y-27735667D01*
X12695476Y-27726143D01*
X12724048Y-27726143D01*
X12743095Y-27735667D01*
X12752619Y-27745190D01*
X12762143Y-27764238D01*
X12762143Y-27821381D01*
X12752619Y-27840428D01*
X12743095Y-27849952D01*
X12724048Y-27859476D01*
X12695476Y-27859476D01*
X12876428Y-27859476D02*
X12857381Y-27849952D01*
X12847857Y-27830905D01*
X12847857Y-27659476D01*
X13028809Y-27849952D02*
X13009762Y-27859476D01*
X12971667Y-27859476D01*
X12952619Y-27849952D01*
X12943095Y-27830905D01*
X12943095Y-27754714D01*
X12952619Y-27735667D01*
X12971667Y-27726143D01*
X13009762Y-27726143D01*
X13028809Y-27735667D01*
X13038333Y-27754714D01*
X13038333Y-27773762D01*
X12943095Y-27792809D01*
X13114524Y-27849952D02*
X13133571Y-27859476D01*
X13171667Y-27859476D01*
X13190714Y-27849952D01*
X13200238Y-27830905D01*
X13200238Y-27821381D01*
X13190714Y-27802333D01*
X13171667Y-27792809D01*
X13143095Y-27792809D01*
X13124048Y-27783286D01*
X13114524Y-27764238D01*
X13114524Y-27754714D01*
X13124048Y-27735667D01*
X13143095Y-27726143D01*
X13171667Y-27726143D01*
X13190714Y-27735667D01*
X13266905Y-27935667D02*
X13276428Y-27926143D01*
X13295476Y-27897571D01*
X13305000Y-27878524D01*
X13314524Y-27849952D01*
X13324048Y-27802333D01*
X13324048Y-27764238D01*
X13314524Y-27716619D01*
X13305000Y-27688048D01*
X13295476Y-27669000D01*
X13276428Y-27640428D01*
X13266905Y-27630905D01*
X13628809Y-27935667D02*
X13619286Y-27926143D01*
X13600238Y-27897571D01*
X13590714Y-27878524D01*
X13581190Y-27849952D01*
X13571667Y-27802333D01*
X13571667Y-27764238D01*
X13581190Y-27716619D01*
X13590714Y-27688048D01*
X13600238Y-27669000D01*
X13619286Y-27640428D01*
X13628809Y-27630905D01*
X13705000Y-27726143D02*
X13705000Y-27859476D01*
X13705000Y-27745190D02*
X13714524Y-27735667D01*
X13733571Y-27726143D01*
X13762143Y-27726143D01*
X13781190Y-27735667D01*
X13790714Y-27754714D01*
X13790714Y-27859476D01*
X13914524Y-27859476D02*
X13895476Y-27849952D01*
X13885952Y-27840428D01*
X13876428Y-27821381D01*
X13876428Y-27764238D01*
X13885952Y-27745190D01*
X13895476Y-27735667D01*
X13914524Y-27726143D01*
X13943095Y-27726143D01*
X13962143Y-27735667D01*
X13971667Y-27745190D01*
X13981190Y-27764238D01*
X13981190Y-27821381D01*
X13971667Y-27840428D01*
X13962143Y-27849952D01*
X13943095Y-27859476D01*
X13914524Y-27859476D01*
X14038333Y-27726143D02*
X14114524Y-27726143D01*
X14066905Y-27659476D02*
X14066905Y-27830905D01*
X14076428Y-27849952D01*
X14095476Y-27859476D01*
X14114524Y-27859476D01*
X14333571Y-27726143D02*
X14333571Y-27926143D01*
X14333571Y-27735667D02*
X14352619Y-27726143D01*
X14390714Y-27726143D01*
X14409762Y-27735667D01*
X14419286Y-27745190D01*
X14428809Y-27764238D01*
X14428809Y-27821381D01*
X14419286Y-27840428D01*
X14409762Y-27849952D01*
X14390714Y-27859476D01*
X14352619Y-27859476D01*
X14333571Y-27849952D01*
X14543095Y-27859476D02*
X14524048Y-27849952D01*
X14514524Y-27830905D01*
X14514524Y-27659476D01*
X14705000Y-27859476D02*
X14705000Y-27754714D01*
X14695476Y-27735667D01*
X14676428Y-27726143D01*
X14638333Y-27726143D01*
X14619286Y-27735667D01*
X14705000Y-27849952D02*
X14685952Y-27859476D01*
X14638333Y-27859476D01*
X14619286Y-27849952D01*
X14609762Y-27830905D01*
X14609762Y-27811857D01*
X14619286Y-27792809D01*
X14638333Y-27783286D01*
X14685952Y-27783286D01*
X14705000Y-27773762D01*
X14771667Y-27726143D02*
X14847857Y-27726143D01*
X14800238Y-27659476D02*
X14800238Y-27830905D01*
X14809762Y-27849952D01*
X14828809Y-27859476D01*
X14847857Y-27859476D01*
X14990714Y-27849952D02*
X14971667Y-27859476D01*
X14933571Y-27859476D01*
X14914524Y-27849952D01*
X14905000Y-27830905D01*
X14905000Y-27754714D01*
X14914524Y-27735667D01*
X14933571Y-27726143D01*
X14971667Y-27726143D01*
X14990714Y-27735667D01*
X15000238Y-27754714D01*
X15000238Y-27773762D01*
X14905000Y-27792809D01*
X15171667Y-27859476D02*
X15171667Y-27659476D01*
X15171667Y-27849952D02*
X15152619Y-27859476D01*
X15114524Y-27859476D01*
X15095476Y-27849952D01*
X15085952Y-27840428D01*
X15076428Y-27821381D01*
X15076428Y-27764238D01*
X15085952Y-27745190D01*
X15095476Y-27735667D01*
X15114524Y-27726143D01*
X15152619Y-27726143D01*
X15171667Y-27735667D01*
X15247857Y-27935667D02*
X15257381Y-27926143D01*
X15276428Y-27897571D01*
X15285952Y-27878524D01*
X15295476Y-27849952D01*
X15305000Y-27802333D01*
X15305000Y-27764238D01*
X15295476Y-27716619D01*
X15285952Y-27688048D01*
X15276428Y-27669000D01*
X15257381Y-27640428D01*
X15247857Y-27630905D01*
X8395000Y-28169000D02*
X8495000Y-28069000D01*
X8395000Y-27969000D01*
X8295000Y-28069000D01*
X8395000Y-28169000D01*
X8838333Y-28026143D02*
X8838333Y-28159476D01*
X8790714Y-27949952D02*
X8743095Y-28092809D01*
X8866905Y-28092809D01*
X8943095Y-28140428D02*
X8952619Y-28149952D01*
X8943095Y-28159476D01*
X8933571Y-28149952D01*
X8943095Y-28140428D01*
X8943095Y-28159476D01*
X9076429Y-27959476D02*
X9095476Y-27959476D01*
X9114524Y-27969000D01*
X9124048Y-27978524D01*
X9133571Y-27997571D01*
X9143095Y-28035667D01*
X9143095Y-28083286D01*
X9133571Y-28121381D01*
X9124048Y-28140428D01*
X9114524Y-28149952D01*
X9095476Y-28159476D01*
X9076429Y-28159476D01*
X9057381Y-28149952D01*
X9047857Y-28140428D01*
X9038333Y-28121381D01*
X9028810Y-28083286D01*
X9028810Y-28035667D01*
X9038333Y-27997571D01*
X9047857Y-27978524D01*
X9057381Y-27969000D01*
X9076429Y-27959476D01*
X9266905Y-27959476D02*
X9285952Y-27959476D01*
X9305000Y-27969000D01*
X9314524Y-27978524D01*
X9324048Y-27997571D01*
X9333571Y-28035667D01*
X9333571Y-28083286D01*
X9324048Y-28121381D01*
X9314524Y-28140428D01*
X9305000Y-28149952D01*
X9285952Y-28159476D01*
X9266905Y-28159476D01*
X9247857Y-28149952D01*
X9238333Y-28140428D01*
X9228810Y-28121381D01*
X9219286Y-28083286D01*
X9219286Y-28035667D01*
X9228810Y-27997571D01*
X9238333Y-27978524D01*
X9247857Y-27969000D01*
X9266905Y-27959476D01*
X9457381Y-27959476D02*
X9476429Y-27959476D01*
X9495476Y-27969000D01*
X9505000Y-27978524D01*
X9514524Y-27997571D01*
X9524048Y-28035667D01*
X9524048Y-28083286D01*
X9514524Y-28121381D01*
X9505000Y-28140428D01*
X9495476Y-28149952D01*
X9476429Y-28159476D01*
X9457381Y-28159476D01*
X9438333Y-28149952D01*
X9428810Y-28140428D01*
X9419286Y-28121381D01*
X9409762Y-28083286D01*
X9409762Y-28035667D01*
X9419286Y-27997571D01*
X9428810Y-27978524D01*
X9438333Y-27969000D01*
X9457381Y-27959476D01*
X9609762Y-28159476D02*
X9609762Y-28026143D01*
X9609762Y-28045190D02*
X9619286Y-28035667D01*
X9638333Y-28026143D01*
X9666905Y-28026143D01*
X9685952Y-28035667D01*
X9695476Y-28054714D01*
X9695476Y-28159476D01*
X9695476Y-28054714D02*
X9705000Y-28035667D01*
X9724048Y-28026143D01*
X9752619Y-28026143D01*
X9771667Y-28035667D01*
X9781190Y-28054714D01*
X9781190Y-28159476D01*
X9876429Y-28159476D02*
X9876429Y-28026143D01*
X9876429Y-28045190D02*
X9885952Y-28035667D01*
X9905000Y-28026143D01*
X9933571Y-28026143D01*
X9952619Y-28035667D01*
X9962143Y-28054714D01*
X9962143Y-28159476D01*
X9962143Y-28054714D02*
X9971667Y-28035667D01*
X9990714Y-28026143D01*
X10019286Y-28026143D01*
X10038333Y-28035667D01*
X10047857Y-28054714D01*
X10047857Y-28159476D01*
X10438333Y-27949952D02*
X10266905Y-28207095D01*
X10695476Y-27959476D02*
X10714524Y-27959476D01*
X10733571Y-27969000D01*
X10743095Y-27978524D01*
X10752619Y-27997571D01*
X10762143Y-28035667D01*
X10762143Y-28083286D01*
X10752619Y-28121381D01*
X10743095Y-28140428D01*
X10733571Y-28149952D01*
X10714524Y-28159476D01*
X10695476Y-28159476D01*
X10676429Y-28149952D01*
X10666905Y-28140428D01*
X10657381Y-28121381D01*
X10647857Y-28083286D01*
X10647857Y-28035667D01*
X10657381Y-27997571D01*
X10666905Y-27978524D01*
X10676429Y-27969000D01*
X10695476Y-27959476D01*
X10847857Y-28140428D02*
X10857381Y-28149952D01*
X10847857Y-28159476D01*
X10838333Y-28149952D01*
X10847857Y-28140428D01*
X10847857Y-28159476D01*
X11047857Y-28159476D02*
X10933571Y-28159476D01*
X10990714Y-28159476D02*
X10990714Y-27959476D01*
X10971667Y-27988048D01*
X10952619Y-28007095D01*
X10933571Y-28016619D01*
X11228809Y-27959476D02*
X11133571Y-27959476D01*
X11124048Y-28054714D01*
X11133571Y-28045190D01*
X11152619Y-28035667D01*
X11200238Y-28035667D01*
X11219286Y-28045190D01*
X11228809Y-28054714D01*
X11238333Y-28073762D01*
X11238333Y-28121381D01*
X11228809Y-28140428D01*
X11219286Y-28149952D01*
X11200238Y-28159476D01*
X11152619Y-28159476D01*
X11133571Y-28149952D01*
X11124048Y-28140428D01*
X11305000Y-27959476D02*
X11438333Y-27959476D01*
X11352619Y-28159476D01*
X11609762Y-27959476D02*
X11514524Y-27959476D01*
X11505000Y-28054714D01*
X11514524Y-28045190D01*
X11533571Y-28035667D01*
X11581190Y-28035667D01*
X11600238Y-28045190D01*
X11609762Y-28054714D01*
X11619286Y-28073762D01*
X11619286Y-28121381D01*
X11609762Y-28140428D01*
X11600238Y-28149952D01*
X11581190Y-28159476D01*
X11533571Y-28159476D01*
X11514524Y-28149952D01*
X11505000Y-28140428D01*
X11695476Y-27959476D02*
X11695476Y-27997571D01*
X11771667Y-27959476D02*
X11771667Y-27997571D01*
X12066905Y-28235667D02*
X12057381Y-28226143D01*
X12038333Y-28197571D01*
X12028809Y-28178524D01*
X12019286Y-28149952D01*
X12009762Y-28102333D01*
X12009762Y-28064238D01*
X12019286Y-28016619D01*
X12028809Y-27988048D01*
X12038333Y-27969000D01*
X12057381Y-27940428D01*
X12066905Y-27930905D01*
X12152619Y-28159476D02*
X12190714Y-28159476D01*
X12209762Y-28149952D01*
X12219286Y-28140428D01*
X12238333Y-28111857D01*
X12247857Y-28073762D01*
X12247857Y-27997571D01*
X12238333Y-27978524D01*
X12228809Y-27969000D01*
X12209762Y-27959476D01*
X12171667Y-27959476D01*
X12152619Y-27969000D01*
X12143095Y-27978524D01*
X12133571Y-27997571D01*
X12133571Y-28045190D01*
X12143095Y-28064238D01*
X12152619Y-28073762D01*
X12171667Y-28083286D01*
X12209762Y-28083286D01*
X12228809Y-28073762D01*
X12238333Y-28064238D01*
X12247857Y-28045190D01*
X12419286Y-28026143D02*
X12419286Y-28159476D01*
X12371667Y-27949952D02*
X12324048Y-28092809D01*
X12447857Y-28092809D01*
X12676428Y-28159476D02*
X12676428Y-27959476D01*
X12762143Y-28159476D02*
X12762143Y-28054714D01*
X12752619Y-28035667D01*
X12733571Y-28026143D01*
X12705000Y-28026143D01*
X12685952Y-28035667D01*
X12676428Y-28045190D01*
X12885952Y-28159476D02*
X12866905Y-28149952D01*
X12857381Y-28140428D01*
X12847857Y-28121381D01*
X12847857Y-28064238D01*
X12857381Y-28045190D01*
X12866905Y-28035667D01*
X12885952Y-28026143D01*
X12914524Y-28026143D01*
X12933571Y-28035667D01*
X12943095Y-28045190D01*
X12952619Y-28064238D01*
X12952619Y-28121381D01*
X12943095Y-28140428D01*
X12933571Y-28149952D01*
X12914524Y-28159476D01*
X12885952Y-28159476D01*
X13066905Y-28159476D02*
X13047857Y-28149952D01*
X13038333Y-28130905D01*
X13038333Y-27959476D01*
X13219286Y-28149952D02*
X13200238Y-28159476D01*
X13162143Y-28159476D01*
X13143095Y-28149952D01*
X13133571Y-28130905D01*
X13133571Y-28054714D01*
X13143095Y-28035667D01*
X13162143Y-28026143D01*
X13200238Y-28026143D01*
X13219286Y-28035667D01*
X13228809Y-28054714D01*
X13228809Y-28073762D01*
X13133571Y-28092809D01*
X13305000Y-28149952D02*
X13324048Y-28159476D01*
X13362143Y-28159476D01*
X13381190Y-28149952D01*
X13390714Y-28130905D01*
X13390714Y-28121381D01*
X13381190Y-28102333D01*
X13362143Y-28092809D01*
X13333571Y-28092809D01*
X13314524Y-28083286D01*
X13305000Y-28064238D01*
X13305000Y-28054714D01*
X13314524Y-28035667D01*
X13333571Y-28026143D01*
X13362143Y-28026143D01*
X13381190Y-28035667D01*
X13457381Y-28235667D02*
X13466905Y-28226143D01*
X13485952Y-28197571D01*
X13495476Y-28178524D01*
X13505000Y-28149952D01*
X13514524Y-28102333D01*
X13514524Y-28064238D01*
X13505000Y-28016619D01*
X13495476Y-27988048D01*
X13485952Y-27969000D01*
X13466905Y-27940428D01*
X13457381Y-27930905D01*
X13819286Y-28235667D02*
X13809762Y-28226143D01*
X13790714Y-28197571D01*
X13781190Y-28178524D01*
X13771667Y-28149952D01*
X13762143Y-28102333D01*
X13762143Y-28064238D01*
X13771667Y-28016619D01*
X13781190Y-27988048D01*
X13790714Y-27969000D01*
X13809762Y-27940428D01*
X13819286Y-27930905D01*
X13895476Y-28026143D02*
X13895476Y-28159476D01*
X13895476Y-28045190D02*
X13905000Y-28035667D01*
X13924048Y-28026143D01*
X13952619Y-28026143D01*
X13971667Y-28035667D01*
X13981190Y-28054714D01*
X13981190Y-28159476D01*
X14105000Y-28159476D02*
X14085952Y-28149952D01*
X14076428Y-28140428D01*
X14066905Y-28121381D01*
X14066905Y-28064238D01*
X14076428Y-28045190D01*
X14085952Y-28035667D01*
X14105000Y-28026143D01*
X14133571Y-28026143D01*
X14152619Y-28035667D01*
X14162143Y-28045190D01*
X14171667Y-28064238D01*
X14171667Y-28121381D01*
X14162143Y-28140428D01*
X14152619Y-28149952D01*
X14133571Y-28159476D01*
X14105000Y-28159476D01*
X14228809Y-28026143D02*
X14305000Y-28026143D01*
X14257381Y-27959476D02*
X14257381Y-28130905D01*
X14266905Y-28149952D01*
X14285952Y-28159476D01*
X14305000Y-28159476D01*
X14524048Y-28026143D02*
X14524048Y-28226143D01*
X14524048Y-28035667D02*
X14543095Y-28026143D01*
X14581190Y-28026143D01*
X14600238Y-28035667D01*
X14609762Y-28045190D01*
X14619286Y-28064238D01*
X14619286Y-28121381D01*
X14609762Y-28140428D01*
X14600238Y-28149952D01*
X14581190Y-28159476D01*
X14543095Y-28159476D01*
X14524048Y-28149952D01*
X14733571Y-28159476D02*
X14714524Y-28149952D01*
X14705000Y-28130905D01*
X14705000Y-27959476D01*
X14895476Y-28159476D02*
X14895476Y-28054714D01*
X14885952Y-28035667D01*
X14866905Y-28026143D01*
X14828809Y-28026143D01*
X14809762Y-28035667D01*
X14895476Y-28149952D02*
X14876428Y-28159476D01*
X14828809Y-28159476D01*
X14809762Y-28149952D01*
X14800238Y-28130905D01*
X14800238Y-28111857D01*
X14809762Y-28092809D01*
X14828809Y-28083286D01*
X14876428Y-28083286D01*
X14895476Y-28073762D01*
X14962143Y-28026143D02*
X15038333Y-28026143D01*
X14990714Y-27959476D02*
X14990714Y-28130905D01*
X15000238Y-28149952D01*
X15019286Y-28159476D01*
X15038333Y-28159476D01*
X15181190Y-28149952D02*
X15162143Y-28159476D01*
X15124048Y-28159476D01*
X15105000Y-28149952D01*
X15095476Y-28130905D01*
X15095476Y-28054714D01*
X15105000Y-28035667D01*
X15124048Y-28026143D01*
X15162143Y-28026143D01*
X15181190Y-28035667D01*
X15190714Y-28054714D01*
X15190714Y-28073762D01*
X15095476Y-28092809D01*
X15362143Y-28159476D02*
X15362143Y-27959476D01*
X15362143Y-28149952D02*
X15343095Y-28159476D01*
X15305000Y-28159476D01*
X15285952Y-28149952D01*
X15276428Y-28140428D01*
X15266905Y-28121381D01*
X15266905Y-28064238D01*
X15276428Y-28045190D01*
X15285952Y-28035667D01*
X15305000Y-28026143D01*
X15343095Y-28026143D01*
X15362143Y-28035667D01*
X15438333Y-28235667D02*
X15447857Y-28226143D01*
X15466905Y-28197571D01*
X15476428Y-28178524D01*
X15485952Y-28149952D01*
X15495476Y-28102333D01*
X15495476Y-28064238D01*
X15485952Y-28016619D01*
X15476428Y-27988048D01*
X15466905Y-27969000D01*
X15447857Y-27940428D01*
X15438333Y-27930905D01*
M02*
