%TF.GenerationSoftware,KiCad,Pcbnew,6.0.10-86aedd382b~118~ubuntu22.04.1*%
%TF.CreationDate,2023-02-01T13:13:36+01:00*%
%TF.ProjectId,europe-ergo-smd,6575726f-7065-42d6-9572-676f2d736d64,rev?*%
%TF.SameCoordinates,Original*%
%TF.FileFunction,Profile,NP*%
%FSLAX46Y46*%
G04 Gerber Fmt 4.6, Leading zero omitted, Abs format (unit mm)*
G04 Created by KiCad (PCBNEW 6.0.10-86aedd382b~118~ubuntu22.04.1) date 2023-02-01 13:13:36*
%MOMM*%
%LPD*%
G01*
G04 APERTURE LIST*
%TA.AperFunction,Profile*%
%ADD10C,0.100000*%
%TD*%
%TA.AperFunction,Profile*%
%ADD11C,0.010000*%
%TD*%
G04 APERTURE END LIST*
D10*
X308570000Y-83880000D02*
X308500000Y-31250000D01*
X316075000Y-83400000D02*
X316050000Y-31250000D01*
X312550000Y-254750000D02*
X316550000Y-254750000D01*
X85000000Y-27000000D02*
X308500000Y-27000000D01*
X535550000Y-263000000D02*
X535550000Y-27000000D01*
X312550000Y-263000000D02*
X316550000Y-263000000D01*
X85000000Y-263000000D02*
X85000000Y-27000000D01*
X312550000Y-263000000D02*
X309000000Y-263000000D01*
X312550000Y-254750000D02*
X309000000Y-254750000D01*
X316050000Y-31250000D02*
X308500000Y-31250000D01*
X535550000Y-27000000D02*
X316050000Y-27000000D01*
X316550000Y-263000000D02*
X535550000Y-263000000D01*
X308570000Y-101080000D02*
X309000000Y-254750000D01*
X308500000Y-27000000D02*
X316050000Y-27000000D01*
X316075000Y-100600000D02*
X316550000Y-254750000D01*
X309000000Y-263000000D02*
X85000000Y-263000000D01*
D11*
%TO.C,J1*%
X317375000Y-90000000D02*
X316075000Y-90000000D01*
X317375000Y-94500000D02*
X317375000Y-90000000D01*
X316075000Y-90000000D02*
X316075000Y-83400000D01*
X316075000Y-100600000D02*
X316075000Y-94500000D01*
X316075000Y-94500000D02*
X317375000Y-94500000D01*
%TO.C,J2*%
X308570000Y-83880000D02*
X308570000Y-89980000D01*
X308570000Y-94480000D02*
X308570000Y-101080000D01*
X308570000Y-89980000D02*
X307270000Y-89980000D01*
X307270000Y-89980000D02*
X307270000Y-94480000D01*
X307270000Y-94480000D02*
X308570000Y-94480000D01*
%TD*%
M02*
