%TF.GenerationSoftware,KiCad,Pcbnew,6.0.10-86aedd382b~118~ubuntu22.04.1*%
%TF.CreationDate,2023-02-01T13:13:36+01:00*%
%TF.ProjectId,europe-ergo-smd,6575726f-7065-42d6-9572-676f2d736d64,rev?*%
%TF.SameCoordinates,Original*%
%TF.FileFunction,Soldermask,Top*%
%TF.FilePolarity,Negative*%
%FSLAX46Y46*%
G04 Gerber Fmt 4.6, Leading zero omitted, Abs format (unit mm)*
G04 Created by KiCad (PCBNEW 6.0.10-86aedd382b~118~ubuntu22.04.1) date 2023-02-01 13:13:36*
%MOMM*%
%LPD*%
G01*
G04 APERTURE LIST*
G04 Aperture macros list*
%AMRoundRect*
0 Rectangle with rounded corners*
0 $1 Rounding radius*
0 $2 $3 $4 $5 $6 $7 $8 $9 X,Y pos of 4 corners*
0 Add a 4 corners polygon primitive as box body*
4,1,4,$2,$3,$4,$5,$6,$7,$8,$9,$2,$3,0*
0 Add four circle primitives for the rounded corners*
1,1,$1+$1,$2,$3*
1,1,$1+$1,$4,$5*
1,1,$1+$1,$6,$7*
1,1,$1+$1,$8,$9*
0 Add four rect primitives between the rounded corners*
20,1,$1+$1,$2,$3,$4,$5,0*
20,1,$1+$1,$4,$5,$6,$7,0*
20,1,$1+$1,$6,$7,$8,$9,0*
20,1,$1+$1,$8,$9,$2,$3,0*%
G04 Aperture macros list end*
%ADD10RoundRect,0.250000X-0.362500X-1.425000X0.362500X-1.425000X0.362500X1.425000X-0.362500X1.425000X0*%
%ADD11RoundRect,0.250000X0.362500X1.425000X-0.362500X1.425000X-0.362500X-1.425000X0.362500X-1.425000X0*%
%ADD12R,0.900000X1.200000*%
%ADD13C,7.500000*%
%ADD14C,1.700000*%
%ADD15C,4.000000*%
%ADD16C,2.200000*%
%ADD17R,1.500000X1.500000*%
%ADD18O,1.500000X1.500000*%
%ADD19R,1.800000X1.800000*%
%ADD20O,1.800000X1.800000*%
%ADD21C,1.100000*%
%ADD22R,1.650000X1.650000*%
%ADD23C,1.650000*%
%ADD24O,1.700000X1.700000*%
%ADD25R,1.700000X1.700000*%
G04 APERTURE END LIST*
D10*
%TO.C,R12*%
X108537500Y-56000000D03*
X114462500Y-56000000D03*
%TD*%
%TO.C,R11*%
X295075000Y-85000000D03*
X301000000Y-85000000D03*
%TD*%
%TO.C,R10*%
X136537500Y-56000000D03*
X142462500Y-56000000D03*
%TD*%
%TO.C,R9*%
X295577500Y-99500000D03*
X301502500Y-99500000D03*
%TD*%
D11*
%TO.C,R8*%
X171425000Y-56000000D03*
X165500000Y-56000000D03*
%TD*%
%TO.C,R7*%
X199425000Y-56000000D03*
X193500000Y-56000000D03*
%TD*%
D10*
%TO.C,R6*%
X511000000Y-54000000D03*
X516925000Y-54000000D03*
%TD*%
D11*
%TO.C,R5*%
X328925000Y-85000000D03*
X323000000Y-85000000D03*
%TD*%
%TO.C,R4*%
X489000000Y-54000000D03*
X483075000Y-54000000D03*
%TD*%
%TO.C,R3*%
X329132500Y-99500000D03*
X323207500Y-99500000D03*
%TD*%
%TO.C,R2*%
X459925000Y-54000000D03*
X454000000Y-54000000D03*
%TD*%
D10*
%TO.C,R1*%
X425075000Y-54000000D03*
X431000000Y-54000000D03*
%TD*%
D12*
%TO.C,D102*%
X109470000Y-89000000D03*
X112770000Y-89000000D03*
%TD*%
%TO.C,D101*%
X107850000Y-142000000D03*
X111150000Y-142000000D03*
%TD*%
%TO.C,D100*%
X109470000Y-118000000D03*
X112770000Y-118000000D03*
%TD*%
%TO.C,D99*%
X109470000Y-188000000D03*
X112770000Y-188000000D03*
%TD*%
%TO.C,D98*%
X109470000Y-165000000D03*
X112770000Y-165000000D03*
%TD*%
%TO.C,D97*%
X113470000Y-212000000D03*
X116770000Y-212000000D03*
%TD*%
%TO.C,D96*%
X136850000Y-89000000D03*
X140150000Y-89000000D03*
%TD*%
%TO.C,D95*%
X137470000Y-188000000D03*
X140770000Y-188000000D03*
%TD*%
%TO.C,D94*%
X138470000Y-165000000D03*
X141770000Y-165000000D03*
%TD*%
%TO.C,D93*%
X137470000Y-142000000D03*
X140770000Y-142000000D03*
%TD*%
%TO.C,D92*%
X138470000Y-118000000D03*
X141770000Y-118000000D03*
%TD*%
%TO.C,D91*%
X137470000Y-212000000D03*
X140770000Y-212000000D03*
%TD*%
%TO.C,D90*%
X166470000Y-88000000D03*
X169770000Y-88000000D03*
%TD*%
%TO.C,D89*%
X161470000Y-183000000D03*
X164770000Y-183000000D03*
%TD*%
%TO.C,D88*%
X161660000Y-138000000D03*
X164960000Y-138000000D03*
%TD*%
%TO.C,D87*%
X162470000Y-113000000D03*
X165770000Y-113000000D03*
%TD*%
%TO.C,D86*%
X161470000Y-207000000D03*
X164770000Y-207000000D03*
%TD*%
%TO.C,D85*%
X161850000Y-161000000D03*
X165150000Y-161000000D03*
%TD*%
%TO.C,D84*%
X195470000Y-87000000D03*
X198770000Y-87000000D03*
%TD*%
%TO.C,D83*%
X185470000Y-205000000D03*
X188770000Y-205000000D03*
%TD*%
%TO.C,D82*%
X185470000Y-181000000D03*
X188770000Y-181000000D03*
%TD*%
%TO.C,D81*%
X185470000Y-159000000D03*
X188770000Y-159000000D03*
%TD*%
%TO.C,D80*%
X185280000Y-135000000D03*
X188580000Y-135000000D03*
%TD*%
%TO.C,D79*%
X184850000Y-111000000D03*
X188150000Y-111000000D03*
%TD*%
%TO.C,D78*%
X222470000Y-87000000D03*
X225770000Y-87000000D03*
%TD*%
%TO.C,D77*%
X209470000Y-137000000D03*
X212770000Y-137000000D03*
%TD*%
%TO.C,D76*%
X209470000Y-207000000D03*
X212770000Y-207000000D03*
%TD*%
%TO.C,D75*%
X209470000Y-183000000D03*
X212770000Y-183000000D03*
%TD*%
%TO.C,D74*%
X208850000Y-161000000D03*
X212150000Y-161000000D03*
%TD*%
%TO.C,D73*%
X209470000Y-113000000D03*
X212770000Y-113000000D03*
%TD*%
%TO.C,D72*%
X252470000Y-87000000D03*
X255770000Y-87000000D03*
%TD*%
%TO.C,D71*%
X232850000Y-186000000D03*
X236150000Y-186000000D03*
%TD*%
%TO.C,D70*%
X232850000Y-163000000D03*
X236150000Y-163000000D03*
%TD*%
%TO.C,D69*%
X233470000Y-139000000D03*
X236770000Y-139000000D03*
%TD*%
%TO.C,D68*%
X233470000Y-114000000D03*
X236770000Y-114000000D03*
%TD*%
%TO.C,D67*%
X247850000Y-203000000D03*
X251150000Y-203000000D03*
%TD*%
%TO.C,D66*%
X281470000Y-87000000D03*
X284770000Y-87000000D03*
%TD*%
%TO.C,D65*%
X257470000Y-186000000D03*
X260770000Y-186000000D03*
%TD*%
%TO.C,D64*%
X256850000Y-115000000D03*
X260150000Y-115000000D03*
%TD*%
%TO.C,D63*%
X256470000Y-163000000D03*
X259770000Y-163000000D03*
%TD*%
%TO.C,D62*%
X257470000Y-140000000D03*
X260770000Y-140000000D03*
%TD*%
%TO.C,D61*%
X268850000Y-216000000D03*
X272150000Y-216000000D03*
%TD*%
%TO.C,D60*%
X281470000Y-116000000D03*
X284770000Y-116000000D03*
%TD*%
%TO.C,D59*%
X279850000Y-148000000D03*
X283150000Y-148000000D03*
%TD*%
%TO.C,D58*%
X279850000Y-182000000D03*
X283150000Y-182000000D03*
%TD*%
%TO.C,D57*%
X279470000Y-193000000D03*
X282770000Y-193000000D03*
%TD*%
%TO.C,D56*%
X287470000Y-226000000D03*
X290770000Y-226000000D03*
%TD*%
%TO.C,D47*%
X334350000Y-227000000D03*
X337650000Y-227000000D03*
%TD*%
%TO.C,D46*%
X342730000Y-195000000D03*
X346030000Y-195000000D03*
%TD*%
%TO.C,D45*%
X341350000Y-181000000D03*
X344650000Y-181000000D03*
%TD*%
%TO.C,D44*%
X355350000Y-215000000D03*
X358650000Y-215000000D03*
%TD*%
%TO.C,D43*%
X341350000Y-148000000D03*
X344650000Y-148000000D03*
%TD*%
%TO.C,D42*%
X340350000Y-115000000D03*
X343650000Y-115000000D03*
%TD*%
%TO.C,D41*%
X363730000Y-162000000D03*
X367030000Y-162000000D03*
%TD*%
%TO.C,D40*%
X364350000Y-139000000D03*
X367650000Y-139000000D03*
%TD*%
%TO.C,D39*%
X364730000Y-186000000D03*
X368030000Y-186000000D03*
%TD*%
%TO.C,D38*%
X364730000Y-115000000D03*
X368030000Y-115000000D03*
%TD*%
%TO.C,D37*%
X340350000Y-86000000D03*
X343650000Y-86000000D03*
%TD*%
%TO.C,D36*%
X374730000Y-204000000D03*
X378030000Y-204000000D03*
%TD*%
%TO.C,D35*%
X388730000Y-186000000D03*
X392030000Y-186000000D03*
%TD*%
%TO.C,D34*%
X388730000Y-162000000D03*
X392030000Y-162000000D03*
%TD*%
%TO.C,D33*%
X388350000Y-138000000D03*
X391650000Y-138000000D03*
%TD*%
%TO.C,D32*%
X388730000Y-115000000D03*
X392030000Y-115000000D03*
%TD*%
%TO.C,D31*%
X369350000Y-86000000D03*
X372650000Y-86000000D03*
%TD*%
%TO.C,D30*%
X412350000Y-207000000D03*
X415650000Y-207000000D03*
%TD*%
%TO.C,D29*%
X412350000Y-183000000D03*
X415650000Y-183000000D03*
%TD*%
%TO.C,D28*%
X412730000Y-160000000D03*
X416030000Y-160000000D03*
%TD*%
%TO.C,D27*%
X411730000Y-112000000D03*
X415030000Y-112000000D03*
%TD*%
%TO.C,D26*%
X412350000Y-136000000D03*
X415650000Y-136000000D03*
%TD*%
%TO.C,D25*%
X398350000Y-86000000D03*
X401650000Y-86000000D03*
%TD*%
%TO.C,D24*%
X435730000Y-205000000D03*
X439030000Y-205000000D03*
%TD*%
%TO.C,D23*%
X436350000Y-181000000D03*
X439650000Y-181000000D03*
%TD*%
%TO.C,D22*%
X435730000Y-157000000D03*
X439030000Y-157000000D03*
%TD*%
%TO.C,D21*%
X436730000Y-134000000D03*
X440030000Y-134000000D03*
%TD*%
%TO.C,D20*%
X435730000Y-110000000D03*
X439030000Y-110000000D03*
%TD*%
%TO.C,D19*%
X425730000Y-86000000D03*
X429030000Y-86000000D03*
%TD*%
%TO.C,D18*%
X459350000Y-207000000D03*
X462650000Y-207000000D03*
%TD*%
%TO.C,D17*%
X459730000Y-160000000D03*
X463030000Y-160000000D03*
%TD*%
%TO.C,D16*%
X460350000Y-184000000D03*
X463650000Y-184000000D03*
%TD*%
%TO.C,D15*%
X460350000Y-138000000D03*
X463650000Y-138000000D03*
%TD*%
%TO.C,D14*%
X459730000Y-115000000D03*
X463030000Y-115000000D03*
%TD*%
%TO.C,D13*%
X454730000Y-86000000D03*
X458030000Y-86000000D03*
%TD*%
%TO.C,D12*%
X483350000Y-213000000D03*
X486650000Y-213000000D03*
%TD*%
%TO.C,D11*%
X483350000Y-188000000D03*
X486650000Y-188000000D03*
%TD*%
%TO.C,D10*%
X483730000Y-165000000D03*
X487030000Y-165000000D03*
%TD*%
%TO.C,D9*%
X483730000Y-141000000D03*
X487030000Y-141000000D03*
%TD*%
%TO.C,D8*%
X483730000Y-117000000D03*
X487030000Y-117000000D03*
%TD*%
%TO.C,D7*%
X483730000Y-86000000D03*
X487030000Y-86000000D03*
%TD*%
%TO.C,D6*%
X507730000Y-212000000D03*
X511030000Y-212000000D03*
%TD*%
%TO.C,D5*%
X512350000Y-188000000D03*
X515650000Y-188000000D03*
%TD*%
%TO.C,D4*%
X512350000Y-165000000D03*
X515650000Y-165000000D03*
%TD*%
%TO.C,D3*%
X512730000Y-140000000D03*
X516030000Y-140000000D03*
%TD*%
%TO.C,D2*%
X512730000Y-117000000D03*
X516030000Y-117000000D03*
%TD*%
%TO.C,D1*%
X512350000Y-86000000D03*
X515650000Y-86000000D03*
%TD*%
D13*
%TO.C,H15*%
X302750000Y-32600000D03*
%TD*%
D14*
%TO.C,SW43*%
X342450000Y-142780000D03*
D15*
X342450000Y-137700000D03*
D14*
X342450000Y-132620000D03*
D16*
X337370000Y-135160000D03*
X339910000Y-141510000D03*
%TD*%
D15*
%TO.C,SW89*%
X140000000Y-177900000D03*
D14*
X145080000Y-177900000D03*
X134920000Y-177900000D03*
D16*
X142540000Y-172820000D03*
X136190000Y-175360000D03*
%TD*%
D15*
%TO.C,SW3*%
X513930000Y-130540000D03*
D14*
X508850000Y-130540000D03*
X519010000Y-130540000D03*
D16*
X516470000Y-125460000D03*
X510120000Y-128000000D03*
%TD*%
D13*
%TO.C,H3*%
X529850000Y-32600000D03*
%TD*%
D17*
%TO.C,D51*%
X512730000Y-50440000D03*
D18*
X515270000Y-50440000D03*
%TD*%
D14*
%TO.C,SW21*%
X442910000Y-123540000D03*
D15*
X437830000Y-123540000D03*
D14*
X432750000Y-123540000D03*
D16*
X440370000Y-118460000D03*
X434020000Y-121000000D03*
%TD*%
D14*
%TO.C,SW28*%
X418910000Y-173440000D03*
D15*
X413830000Y-173440000D03*
D14*
X408750000Y-173440000D03*
D16*
X416370000Y-168360000D03*
X410020000Y-170900000D03*
%TD*%
D14*
%TO.C,SW80*%
X158720000Y-197100000D03*
X168880000Y-197100000D03*
D15*
X163800000Y-197100000D03*
D16*
X166340000Y-192020000D03*
X159990000Y-194560000D03*
%TD*%
D14*
%TO.C,SW5*%
X508750000Y-154440000D03*
X518910000Y-154440000D03*
D15*
X513830000Y-154440000D03*
D16*
X516370000Y-149360000D03*
X510020000Y-151900000D03*
%TD*%
D15*
%TO.C,SW9*%
X485430000Y-130640000D03*
D14*
X490510000Y-130640000D03*
X480350000Y-130640000D03*
D16*
X487970000Y-125560000D03*
X481620000Y-128100000D03*
%TD*%
D13*
%TO.C,H11*%
X92100000Y-255900000D03*
%TD*%
D14*
%TO.C,SW35*%
X386469405Y-211220009D03*
X377670586Y-216300009D03*
D15*
X382069995Y-213760009D03*
D16*
X381729700Y-208090600D03*
X377500439Y-213465305D03*
%TD*%
D15*
%TO.C,SW34*%
X390130000Y-175540000D03*
D14*
X385050000Y-175540000D03*
X395210000Y-175540000D03*
D16*
X392670000Y-170460000D03*
X386320000Y-173000000D03*
%TD*%
D13*
%TO.C,H9*%
X92200000Y-34100000D03*
%TD*%
D15*
%TO.C,SW53*%
X282820000Y-137460000D03*
D14*
X282820000Y-132380000D03*
X282820000Y-142540000D03*
D16*
X277740000Y-134920000D03*
X280280000Y-141270000D03*
%TD*%
D14*
%TO.C,SW11*%
X480050000Y-154340000D03*
D15*
X485130000Y-154340000D03*
D14*
X490210000Y-154340000D03*
D16*
X487670000Y-149260000D03*
X481320000Y-151800000D03*
%TD*%
D15*
%TO.C,SW7*%
X485330000Y-75740000D03*
D14*
X480250000Y-75740000D03*
X490410000Y-75740000D03*
D16*
X487870000Y-70660000D03*
X481520000Y-73200000D03*
%TD*%
D14*
%TO.C,SW58*%
X264080000Y-128000000D03*
X253920000Y-128000000D03*
D15*
X259000000Y-128000000D03*
D16*
X261540000Y-122920000D03*
X255190000Y-125460000D03*
%TD*%
D14*
%TO.C,SW76*%
X182520000Y-123200000D03*
D15*
X187600000Y-123200000D03*
D14*
X192680000Y-123200000D03*
D16*
X190140000Y-118120000D03*
X183790000Y-120660000D03*
%TD*%
D13*
%TO.C,H8*%
X426500000Y-257350000D03*
%TD*%
D15*
%TO.C,SW20*%
X437530000Y-99740000D03*
D14*
X432450000Y-99740000D03*
X442610000Y-99740000D03*
D16*
X440070000Y-94660000D03*
X433720000Y-97200000D03*
%TD*%
D14*
%TO.C,SW29*%
X419110000Y-149740000D03*
D15*
X414030000Y-149740000D03*
D14*
X408950000Y-149740000D03*
D16*
X416570000Y-144660000D03*
X410220000Y-147200000D03*
%TD*%
D15*
%TO.C,SW17*%
X461630000Y-149640000D03*
D14*
X466710000Y-149640000D03*
X456550000Y-149640000D03*
D16*
X464170000Y-144560000D03*
X457820000Y-147100000D03*
%TD*%
D14*
%TO.C,SW74*%
X192580000Y-194800000D03*
X182420000Y-194800000D03*
D15*
X187500000Y-194800000D03*
D16*
X190040000Y-189720000D03*
X183690000Y-192260000D03*
%TD*%
D13*
%TO.C,H1*%
X529850000Y-257350000D03*
%TD*%
D14*
%TO.C,SW66*%
X259180000Y-75800000D03*
D15*
X254100000Y-75800000D03*
D14*
X249020000Y-75800000D03*
D16*
X256640000Y-70720000D03*
X250290000Y-73260000D03*
%TD*%
D14*
%TO.C,SW85*%
X135220000Y-154200000D03*
D15*
X140300000Y-154200000D03*
D14*
X145380000Y-154200000D03*
D16*
X142840000Y-149120000D03*
X136490000Y-151660000D03*
%TD*%
D15*
%TO.C,SW15*%
X461530000Y-128140000D03*
D14*
X456450000Y-128140000D03*
X466610000Y-128140000D03*
D16*
X464070000Y-123060000D03*
X457720000Y-125600000D03*
%TD*%
D14*
%TO.C,SW6*%
X514110000Y-202240000D03*
D15*
X509030000Y-202240000D03*
D14*
X503950000Y-202240000D03*
D16*
X511570000Y-197160000D03*
X505220000Y-199700000D03*
%TD*%
D15*
%TO.C,SW27*%
X414030000Y-125740000D03*
D14*
X408950000Y-125740000D03*
X419110000Y-125740000D03*
D16*
X416570000Y-120660000D03*
X410220000Y-123200000D03*
%TD*%
D14*
%TO.C,SW88*%
X144980000Y-130500000D03*
D15*
X139900000Y-130500000D03*
D14*
X134820000Y-130500000D03*
D16*
X142440000Y-125420000D03*
X136090000Y-127960000D03*
%TD*%
D15*
%TO.C,SW62*%
X235100000Y-104100000D03*
D14*
X240180000Y-104100000D03*
X230020000Y-104100000D03*
D16*
X237640000Y-99020000D03*
X231290000Y-101560000D03*
%TD*%
D14*
%TO.C,SW87*%
X134920000Y-106800000D03*
X145080000Y-106800000D03*
D15*
X140000000Y-106800000D03*
D16*
X142540000Y-101720000D03*
X136190000Y-104260000D03*
%TD*%
%TO.C,SW4*%
X510320000Y-175600000D03*
X516670000Y-173060000D03*
D15*
X514130000Y-178140000D03*
D14*
X519210000Y-178140000D03*
X509050000Y-178140000D03*
%TD*%
D15*
%TO.C,SW93*%
X111400000Y-106600000D03*
D14*
X106320000Y-106600000D03*
X116480000Y-106600000D03*
D16*
X113940000Y-101520000D03*
X107590000Y-104060000D03*
%TD*%
D15*
%TO.C,SW90*%
X139800000Y-75700000D03*
D14*
X134720000Y-75700000D03*
X144880000Y-75700000D03*
D16*
X142340000Y-70620000D03*
X135990000Y-73160000D03*
%TD*%
D14*
%TO.C,SW39*%
X361350000Y-128240000D03*
X371510000Y-128240000D03*
D15*
X366430000Y-128240000D03*
D16*
X368970000Y-123160000D03*
X362620000Y-125700000D03*
%TD*%
D14*
%TO.C,SW31*%
X365850000Y-75740000D03*
X376010000Y-75740000D03*
D15*
X370930000Y-75740000D03*
D16*
X373470000Y-70660000D03*
X367120000Y-73200000D03*
%TD*%
D14*
%TO.C,SW81*%
X169080000Y-102000000D03*
X158920000Y-102000000D03*
D15*
X164000000Y-102000000D03*
D16*
X166540000Y-96920000D03*
X160190000Y-99460000D03*
%TD*%
D13*
%TO.C,H5*%
X322000000Y-32650000D03*
%TD*%
D15*
%TO.C,SW54*%
X283040000Y-170720000D03*
D14*
X283040000Y-165640000D03*
X283040000Y-175800000D03*
D16*
X277960000Y-168180000D03*
X280500000Y-174530000D03*
%TD*%
D14*
%TO.C,SW19*%
X433150000Y-75860000D03*
X422990000Y-75860000D03*
D15*
X428070000Y-75860000D03*
D16*
X430610000Y-70780000D03*
X424260000Y-73320000D03*
%TD*%
D14*
%TO.C,SW47*%
X336370586Y-240200009D03*
D15*
X340769995Y-237660009D03*
D14*
X345169405Y-235120009D03*
D16*
X340429700Y-231990600D03*
X336200439Y-237365305D03*
%TD*%
D17*
%TO.C,D49*%
X455614700Y-50440000D03*
D18*
X458154700Y-50440000D03*
%TD*%
D15*
%TO.C,SW18*%
X461330000Y-197340000D03*
D14*
X456250000Y-197340000D03*
X466410000Y-197340000D03*
D16*
X463870000Y-192260000D03*
X457520000Y-194800000D03*
%TD*%
D14*
%TO.C,SW96*%
X116280000Y-75600000D03*
D15*
X111200000Y-75600000D03*
D14*
X106120000Y-75600000D03*
D16*
X113740000Y-70520000D03*
X107390000Y-73060000D03*
%TD*%
D13*
%TO.C,H4*%
X426550000Y-32650000D03*
%TD*%
D15*
%TO.C,SW67*%
X211200000Y-149500000D03*
D14*
X206120000Y-149500000D03*
X216280000Y-149500000D03*
D16*
X213740000Y-144420000D03*
X207390000Y-146960000D03*
%TD*%
D14*
%TO.C,SW41*%
X361050000Y-152040000D03*
D15*
X366130000Y-152040000D03*
D14*
X371210000Y-152040000D03*
D16*
X368670000Y-146960000D03*
X362320000Y-149500000D03*
%TD*%
D14*
%TO.C,SW46*%
X348420586Y-207569409D03*
X357219405Y-202489409D03*
D15*
X352819995Y-205029409D03*
D16*
X352479700Y-199360000D03*
X348250439Y-204734705D03*
%TD*%
D15*
%TO.C,SW16*%
X461930000Y-173540000D03*
D14*
X467010000Y-173540000D03*
X456850000Y-173540000D03*
D16*
X464470000Y-168460000D03*
X458120000Y-171000000D03*
%TD*%
D14*
%TO.C,SW22*%
X432610000Y-170960000D03*
X442770000Y-170960000D03*
D15*
X437690000Y-170960000D03*
D16*
X440230000Y-165880000D03*
X433880000Y-168420000D03*
%TD*%
D15*
%TO.C,SW26*%
X413930000Y-102040000D03*
D14*
X408850000Y-102040000D03*
X419010000Y-102040000D03*
D16*
X416470000Y-96960000D03*
X410120000Y-99500000D03*
%TD*%
D19*
%TO.C,D54*%
X138100000Y-51200000D03*
D20*
X140640000Y-51200000D03*
%TD*%
D14*
%TO.C,SW12*%
X480050000Y-202140000D03*
D15*
X485130000Y-202140000D03*
D14*
X490210000Y-202140000D03*
D16*
X487670000Y-197060000D03*
X481320000Y-199600000D03*
%TD*%
D14*
%TO.C,SW84*%
X163520000Y-75700000D03*
X173680000Y-75700000D03*
D15*
X168600000Y-75700000D03*
D16*
X171140000Y-70620000D03*
X164790000Y-73160000D03*
%TD*%
D14*
%TO.C,SW60*%
X277720000Y-75700000D03*
D15*
X282800000Y-75700000D03*
D14*
X287880000Y-75700000D03*
D16*
X285340000Y-70620000D03*
X278990000Y-73160000D03*
%TD*%
D14*
%TO.C,SW56*%
X263980000Y-151900000D03*
D15*
X258900000Y-151900000D03*
D14*
X253820000Y-151900000D03*
D16*
X261440000Y-146820000D03*
X255090000Y-149360000D03*
%TD*%
D14*
%TO.C,SW36*%
X385050000Y-151940000D03*
D15*
X390130000Y-151940000D03*
D14*
X395210000Y-151940000D03*
D16*
X392670000Y-146860000D03*
X386320000Y-149400000D03*
%TD*%
D13*
%TO.C,H16*%
X301300000Y-255700000D03*
%TD*%
%TO.C,H13*%
X300900000Y-145900000D03*
%TD*%
%TO.C,H12*%
X92100000Y-146100000D03*
%TD*%
%TO.C,H2*%
X529800000Y-145950000D03*
%TD*%
D14*
%TO.C,SW1*%
X519110000Y-75840000D03*
D15*
X514030000Y-75840000D03*
D14*
X508950000Y-75840000D03*
D16*
X516570000Y-70760000D03*
X510220000Y-73300000D03*
%TD*%
D15*
%TO.C,SW73*%
X187500000Y-147100000D03*
D14*
X192580000Y-147100000D03*
X182420000Y-147100000D03*
D16*
X190040000Y-142020000D03*
X183690000Y-144560000D03*
%TD*%
D17*
%TO.C,D48*%
X426914700Y-50340000D03*
D18*
X429454700Y-50340000D03*
%TD*%
D14*
%TO.C,SW51*%
X281739405Y-207660009D03*
D15*
X277339995Y-205120009D03*
D14*
X272940586Y-202580009D03*
D16*
X282079700Y-201990600D03*
X275310439Y-201015305D03*
%TD*%
D15*
%TO.C,SW71*%
X211400000Y-173400000D03*
D14*
X206320000Y-173400000D03*
X216480000Y-173400000D03*
D16*
X213940000Y-168320000D03*
X207590000Y-170860000D03*
%TD*%
D14*
%TO.C,SW91*%
X116480000Y-154300000D03*
X106320000Y-154300000D03*
D15*
X111400000Y-154300000D03*
D16*
X113940000Y-149220000D03*
X107590000Y-151760000D03*
%TD*%
D15*
%TO.C,SW69*%
X211500000Y-101900000D03*
D14*
X206420000Y-101900000D03*
X216580000Y-101900000D03*
D16*
X214040000Y-96820000D03*
X207690000Y-99360000D03*
%TD*%
D14*
%TO.C,SW86*%
X134720000Y-201900000D03*
D15*
X139800000Y-201900000D03*
D14*
X144880000Y-201900000D03*
D16*
X142340000Y-196820000D03*
X135990000Y-199360000D03*
%TD*%
D13*
%TO.C,H7*%
X323850000Y-255900000D03*
%TD*%
D14*
%TO.C,SW32*%
X384950000Y-104440000D03*
D15*
X390030000Y-104440000D03*
D14*
X395110000Y-104440000D03*
D16*
X392570000Y-99360000D03*
X386220000Y-101900000D03*
%TD*%
D19*
%TO.C,D55*%
X109900000Y-50700000D03*
D20*
X112440000Y-50700000D03*
%TD*%
D15*
%TO.C,SW2*%
X513930000Y-106740000D03*
D14*
X508850000Y-106740000D03*
X519010000Y-106740000D03*
D16*
X516470000Y-101660000D03*
X510120000Y-104200000D03*
%TD*%
D14*
%TO.C,SW10*%
X480150000Y-178040000D03*
X490310000Y-178040000D03*
D15*
X485230000Y-178040000D03*
D16*
X487770000Y-172960000D03*
X481420000Y-175500000D03*
%TD*%
D14*
%TO.C,SW77*%
X182420000Y-170800000D03*
D15*
X187500000Y-170800000D03*
D14*
X192580000Y-170800000D03*
D16*
X190040000Y-165720000D03*
X183690000Y-168260000D03*
%TD*%
D14*
%TO.C,SW95*%
X116380000Y-178100000D03*
X106220000Y-178100000D03*
D15*
X111300000Y-178100000D03*
D16*
X113840000Y-173020000D03*
X107490000Y-175560000D03*
%TD*%
D14*
%TO.C,SW45*%
X365869405Y-223220009D03*
D15*
X361469995Y-225760009D03*
D14*
X357070586Y-228300009D03*
D16*
X361129700Y-220090600D03*
X356900439Y-225465305D03*
%TD*%
D14*
%TO.C,SW30*%
X408850000Y-197240000D03*
X419010000Y-197240000D03*
D15*
X413930000Y-197240000D03*
D16*
X416470000Y-192160000D03*
X410120000Y-194700000D03*
%TD*%
D14*
%TO.C,SW55*%
X269939405Y-228260009D03*
X261140586Y-223180009D03*
D15*
X265539995Y-225720009D03*
D16*
X270279700Y-222590600D03*
X263510439Y-221615305D03*
%TD*%
D15*
%TO.C,SW78*%
X197200000Y-75600000D03*
D14*
X202280000Y-75600000D03*
X192120000Y-75600000D03*
D16*
X199740000Y-70520000D03*
X193390000Y-73060000D03*
%TD*%
D14*
%TO.C,SW70*%
X206320000Y-125700000D03*
D15*
X211400000Y-125700000D03*
D14*
X216480000Y-125700000D03*
D16*
X213940000Y-120620000D03*
X207590000Y-123160000D03*
%TD*%
D14*
%TO.C,SW94*%
X116680000Y-130500000D03*
X106520000Y-130500000D03*
D15*
X111600000Y-130500000D03*
D16*
X114140000Y-125420000D03*
X107790000Y-127960000D03*
%TD*%
D14*
%TO.C,SW79*%
X168980000Y-149500000D03*
D15*
X163900000Y-149500000D03*
D14*
X158820000Y-149500000D03*
D16*
X166440000Y-144420000D03*
X160090000Y-146960000D03*
%TD*%
D14*
%TO.C,SW72*%
X230980000Y-75500000D03*
X220820000Y-75500000D03*
D15*
X225900000Y-75500000D03*
D16*
X228440000Y-70420000D03*
X222090000Y-72960000D03*
%TD*%
D14*
%TO.C,SW13*%
X451650000Y-75940000D03*
D15*
X456730000Y-75940000D03*
D14*
X461810000Y-75940000D03*
D16*
X459270000Y-70860000D03*
X452920000Y-73400000D03*
%TD*%
D13*
%TO.C,H14*%
X197500000Y-255900000D03*
%TD*%
D14*
%TO.C,SW8*%
X480150000Y-106840000D03*
D15*
X485230000Y-106840000D03*
D14*
X490310000Y-106840000D03*
D16*
X487770000Y-101760000D03*
X481420000Y-104300000D03*
%TD*%
D13*
%TO.C,H6*%
X327000000Y-146000000D03*
%TD*%
D14*
%TO.C,SW33*%
X384950000Y-128140000D03*
X395110000Y-128140000D03*
D15*
X390030000Y-128140000D03*
D16*
X392570000Y-123060000D03*
X386220000Y-125600000D03*
%TD*%
D14*
%TO.C,SW68*%
X206420000Y-197200000D03*
X216580000Y-197200000D03*
D15*
X211500000Y-197200000D03*
D16*
X214040000Y-192120000D03*
X207690000Y-194660000D03*
%TD*%
D19*
%TO.C,D52*%
X195200000Y-51200000D03*
D20*
X197740000Y-51200000D03*
%TD*%
D14*
%TO.C,SW37*%
X347210000Y-75840000D03*
X337050000Y-75840000D03*
D15*
X342130000Y-75840000D03*
D16*
X344670000Y-70760000D03*
X338320000Y-73300000D03*
%TD*%
D15*
%TO.C,SW25*%
X399530000Y-75840000D03*
D14*
X394450000Y-75840000D03*
X404610000Y-75840000D03*
D16*
X402070000Y-70760000D03*
X395720000Y-73300000D03*
%TD*%
D14*
%TO.C,SW64*%
X229920000Y-175700000D03*
D15*
X235000000Y-175700000D03*
D14*
X240080000Y-175700000D03*
D16*
X237540000Y-170620000D03*
X231190000Y-173160000D03*
%TD*%
D14*
%TO.C,SW38*%
X361150000Y-104240000D03*
X371310000Y-104240000D03*
D15*
X366230000Y-104240000D03*
D16*
X368770000Y-99160000D03*
X362420000Y-101700000D03*
%TD*%
D14*
%TO.C,SW52*%
X287880000Y-104200000D03*
X277720000Y-104200000D03*
D15*
X282800000Y-104200000D03*
D16*
X285340000Y-99120000D03*
X278990000Y-101660000D03*
%TD*%
D14*
%TO.C,SW63*%
X230220000Y-128000000D03*
D15*
X235300000Y-128000000D03*
D14*
X240380000Y-128000000D03*
D16*
X237840000Y-122920000D03*
X231490000Y-125460000D03*
%TD*%
D14*
%TO.C,SW82*%
X158620000Y-125800000D03*
X168780000Y-125800000D03*
D15*
X163700000Y-125800000D03*
D16*
X166240000Y-120720000D03*
X159890000Y-123260000D03*
%TD*%
D15*
%TO.C,SW92*%
X116100000Y-202000000D03*
D14*
X121180000Y-202000000D03*
X111020000Y-202000000D03*
D16*
X118640000Y-196920000D03*
X112290000Y-199460000D03*
%TD*%
D13*
%TO.C,H10*%
X197600000Y-34100000D03*
%TD*%
D15*
%TO.C,SW75*%
X187600000Y-99400000D03*
D14*
X192680000Y-99400000D03*
X182520000Y-99400000D03*
D16*
X190140000Y-94320000D03*
X183790000Y-96860000D03*
%TD*%
D15*
%TO.C,SW50*%
X286139995Y-237820009D03*
D14*
X281740586Y-235280009D03*
X290539405Y-240360009D03*
D16*
X290879700Y-234690600D03*
X284110439Y-233715305D03*
%TD*%
D14*
%TO.C,SW65*%
X240440586Y-211380009D03*
D15*
X244839995Y-213920009D03*
D14*
X249239405Y-216460009D03*
D16*
X249579700Y-210790600D03*
X242810439Y-209815305D03*
%TD*%
D14*
%TO.C,SW57*%
X264180000Y-104200000D03*
X254020000Y-104200000D03*
D15*
X259100000Y-104200000D03*
D16*
X261640000Y-99120000D03*
X255290000Y-101660000D03*
%TD*%
D15*
%TO.C,SW44*%
X342550000Y-171000000D03*
D14*
X342550000Y-176080000D03*
X342550000Y-165920000D03*
D16*
X337470000Y-168460000D03*
X340010000Y-174810000D03*
%TD*%
D14*
%TO.C,SW61*%
X240180000Y-151800000D03*
X230020000Y-151800000D03*
D15*
X235100000Y-151800000D03*
D16*
X237640000Y-146720000D03*
X231290000Y-149260000D03*
%TD*%
D14*
%TO.C,SW59*%
X264180000Y-175700000D03*
X254020000Y-175700000D03*
D15*
X259100000Y-175700000D03*
D16*
X261640000Y-170620000D03*
X255290000Y-173160000D03*
%TD*%
D15*
%TO.C,SW40*%
X366330000Y-175740000D03*
D14*
X371410000Y-175740000D03*
X361250000Y-175740000D03*
D16*
X368870000Y-170660000D03*
X362520000Y-173200000D03*
%TD*%
D14*
%TO.C,SW24*%
X432750000Y-194640000D03*
X442910000Y-194640000D03*
D15*
X437830000Y-194640000D03*
D16*
X440370000Y-189560000D03*
X434020000Y-192100000D03*
%TD*%
D14*
%TO.C,SW83*%
X168780000Y-173300000D03*
X158620000Y-173300000D03*
D15*
X163700000Y-173300000D03*
D16*
X166240000Y-168220000D03*
X159890000Y-170760000D03*
%TD*%
D19*
%TO.C,D53*%
X167400000Y-51000000D03*
D20*
X169940000Y-51000000D03*
%TD*%
D14*
%TO.C,SW14*%
X466710000Y-104340000D03*
X456550000Y-104340000D03*
D15*
X461630000Y-104340000D03*
D16*
X464170000Y-99260000D03*
X457820000Y-101800000D03*
%TD*%
D17*
%TO.C,D50*%
X485114700Y-50240000D03*
D18*
X487654700Y-50240000D03*
%TD*%
D14*
%TO.C,SW23*%
X432650000Y-147340000D03*
D15*
X437730000Y-147340000D03*
D14*
X442810000Y-147340000D03*
D16*
X440270000Y-142260000D03*
X433920000Y-144800000D03*
%TD*%
D15*
%TO.C,SW42*%
X342330000Y-104340000D03*
D14*
X337250000Y-104340000D03*
X347410000Y-104340000D03*
D16*
X344870000Y-99260000D03*
X338520000Y-101800000D03*
%TD*%
D14*
%TO.C,SW48*%
X397010000Y-53000000D03*
X402090000Y-53000000D03*
%TD*%
D21*
%TO.C,J1*%
X318975000Y-92250000D03*
X323975000Y-92250000D03*
D22*
X318975000Y-97050000D03*
D23*
X323975000Y-88650000D03*
X327075000Y-93850000D03*
X318975000Y-87750000D03*
%TD*%
D18*
%TO.C,U2*%
X300970000Y-50300000D03*
D20*
X304000000Y-50000000D03*
X304000000Y-55450000D03*
D18*
X300970000Y-55150000D03*
D24*
X304130000Y-61615000D03*
X301590000Y-61615000D03*
D25*
X299050000Y-61615000D03*
D24*
X296510000Y-61615000D03*
X293970000Y-61615000D03*
X291430000Y-61615000D03*
X288890000Y-61615000D03*
D25*
X286350000Y-61615000D03*
D24*
X283810000Y-61615000D03*
X281270000Y-61615000D03*
X278730000Y-61615000D03*
X276190000Y-61615000D03*
D25*
X273650000Y-61615000D03*
D24*
X271110000Y-61615000D03*
X268570000Y-61615000D03*
X266030000Y-61615000D03*
X263490000Y-61615000D03*
D25*
X260950000Y-61615000D03*
D24*
X258410000Y-61615000D03*
X255870000Y-61615000D03*
X255870000Y-43835000D03*
X258410000Y-43835000D03*
D25*
X260950000Y-43835000D03*
D24*
X263490000Y-43835000D03*
X266030000Y-43835000D03*
X268570000Y-43835000D03*
X271110000Y-43835000D03*
D25*
X273650000Y-43835000D03*
D24*
X276190000Y-43835000D03*
X278730000Y-43835000D03*
X281270000Y-43835000D03*
X283810000Y-43835000D03*
D25*
X286350000Y-43835000D03*
D24*
X288890000Y-43835000D03*
X291430000Y-43835000D03*
X293970000Y-43835000D03*
X296510000Y-43835000D03*
D25*
X299050000Y-43835000D03*
D24*
X301590000Y-43835000D03*
X304130000Y-43835000D03*
X256100000Y-55265000D03*
D25*
X256100000Y-52725000D03*
D24*
X256100000Y-50185000D03*
%TD*%
D20*
%TO.C,U1*%
X320550000Y-55450000D03*
D18*
X323580000Y-55150000D03*
D20*
X320550000Y-50000000D03*
D18*
X323580000Y-50300000D03*
D24*
X320420000Y-43835000D03*
X322960000Y-43835000D03*
D25*
X325500000Y-43835000D03*
D24*
X328040000Y-43835000D03*
X330580000Y-43835000D03*
X333120000Y-43835000D03*
X335660000Y-43835000D03*
D25*
X338200000Y-43835000D03*
D24*
X340740000Y-43835000D03*
X343280000Y-43835000D03*
X345820000Y-43835000D03*
X348360000Y-43835000D03*
D25*
X350900000Y-43835000D03*
D24*
X353440000Y-43835000D03*
X355980000Y-43835000D03*
X358520000Y-43835000D03*
X361060000Y-43835000D03*
D25*
X363600000Y-43835000D03*
D24*
X366140000Y-43835000D03*
X368680000Y-43835000D03*
X368680000Y-61615000D03*
X366140000Y-61615000D03*
D25*
X363600000Y-61615000D03*
D24*
X361060000Y-61615000D03*
X358520000Y-61615000D03*
X355980000Y-61615000D03*
X353440000Y-61615000D03*
D25*
X350900000Y-61615000D03*
D24*
X348360000Y-61615000D03*
X345820000Y-61615000D03*
X343280000Y-61615000D03*
X340740000Y-61615000D03*
D25*
X338200000Y-61615000D03*
D24*
X335660000Y-61615000D03*
X333120000Y-61615000D03*
X330580000Y-61615000D03*
X328040000Y-61615000D03*
D25*
X325500000Y-61615000D03*
D24*
X322960000Y-61615000D03*
X320420000Y-61615000D03*
X368450000Y-50185000D03*
D25*
X368450000Y-52725000D03*
D24*
X368450000Y-55265000D03*
%TD*%
D14*
%TO.C,SW49*%
X229000000Y-53000000D03*
X223920000Y-53000000D03*
%TD*%
D21*
%TO.C,J2*%
X300670000Y-92230000D03*
X305670000Y-92230000D03*
D22*
X305670000Y-87430000D03*
D23*
X300670000Y-95830000D03*
X297570000Y-90630000D03*
X305670000Y-96730000D03*
%TD*%
M02*
