%TF.GenerationSoftware,KiCad,Pcbnew,6.0.10-86aedd382b~118~ubuntu22.04.1*%
%TF.CreationDate,2023-02-01T13:13:33+01:00*%
%TF.ProjectId,europe-ergo-smd,6575726f-7065-42d6-9572-676f2d736d64,rev?*%
%TF.SameCoordinates,Original*%
%TF.FileFunction,Drillmap*%
%TF.FilePolarity,Positive*%
%FSLAX45Y45*%
G04 Gerber Fmt 4.5, Leading zero omitted, Abs format (unit mm)*
G04 Created by KiCad (PCBNEW 6.0.10-86aedd382b~118~ubuntu22.04.1) date 2023-02-01 13:13:33*
%MOMM*%
%LPD*%
G01*
G04 APERTURE LIST*
%ADD10C,0.100000*%
%ADD11C,0.200000*%
%ADD12C,0.040000*%
%ADD13C,0.075000*%
%ADD14C,0.090000*%
%ADD15C,0.102000*%
%ADD16C,0.110000*%
%ADD17C,0.150000*%
%ADD18C,0.430000*%
G04 APERTURE END LIST*
D10*
X30857000Y-8388000D02*
X30850000Y-3125000D01*
X31607500Y-8340000D02*
X31605000Y-3125000D01*
X31255000Y-25475000D02*
X31655000Y-25475000D01*
X8500000Y-2700000D02*
X30850000Y-2700000D01*
X53555000Y-26300000D02*
X53555000Y-2700000D01*
X31255000Y-26300000D02*
X31655000Y-26300000D01*
X8500000Y-26300000D02*
X8500000Y-2700000D01*
X31255000Y-26300000D02*
X30900000Y-26300000D01*
X31255000Y-25475000D02*
X30900000Y-25475000D01*
X31605000Y-3125000D02*
X30850000Y-3125000D01*
X53555000Y-2700000D02*
X31605000Y-2700000D01*
X31655000Y-26300000D02*
X53555000Y-26300000D01*
X30857000Y-10108000D02*
X30900000Y-25475000D01*
X30850000Y-2700000D02*
X31605000Y-2700000D01*
X31607500Y-10060000D02*
X31655000Y-25475000D01*
X30900000Y-26300000D02*
X8500000Y-26300000D01*
D11*
D12*
X10580000Y-8080000D02*
X10620000Y-8120000D01*
X10620000Y-8080000D02*
X10580000Y-8120000D01*
X11030000Y-12580000D02*
X11070000Y-12620000D01*
X11070000Y-12580000D02*
X11030000Y-12620000D01*
X11030000Y-20780000D02*
X11070000Y-20820000D01*
X11070000Y-20780000D02*
X11030000Y-20820000D01*
X11080000Y-11080000D02*
X11120000Y-11120000D01*
X11120000Y-11080000D02*
X11080000Y-11120000D01*
X12380000Y-10730000D02*
X12420000Y-10770000D01*
X12420000Y-10730000D02*
X12380000Y-10770000D01*
X13821500Y-8894260D02*
X13861500Y-8934260D01*
X13861500Y-8894260D02*
X13821500Y-8934260D01*
X13830000Y-19830000D02*
X13870000Y-19870000D01*
X13870000Y-19830000D02*
X13830000Y-19870000D01*
X13987500Y-11780000D02*
X14027500Y-11820000D01*
X14027500Y-11780000D02*
X13987500Y-11820000D01*
X14080000Y-20530000D02*
X14120000Y-20570000D01*
X14120000Y-20530000D02*
X14080000Y-20570000D01*
X15280000Y-11180000D02*
X15320000Y-11220000D01*
X15320000Y-11180000D02*
X15280000Y-11220000D01*
X15849650Y-13889390D02*
X15889650Y-13929390D01*
X15889650Y-13889390D02*
X15849650Y-13929390D01*
X15859080Y-11536800D02*
X15899080Y-11576800D01*
X15899080Y-11536800D02*
X15859080Y-11576800D01*
X15995500Y-16080000D02*
X16035500Y-16120000D01*
X16035500Y-16080000D02*
X15995500Y-16120000D01*
X16557000Y-11095500D02*
X16597000Y-11135500D01*
X16597000Y-11095500D02*
X16557000Y-11135500D01*
X17430000Y-15780000D02*
X17470000Y-15820000D01*
X17470000Y-15780000D02*
X17430000Y-15820000D01*
X17480000Y-13530000D02*
X17520000Y-13570000D01*
X17520000Y-13530000D02*
X17480000Y-13570000D01*
X18630000Y-14330000D02*
X18670000Y-14370000D01*
X18670000Y-14330000D02*
X18630000Y-14370000D01*
X18680000Y-11980000D02*
X18720000Y-12020000D01*
X18720000Y-11980000D02*
X18680000Y-12020000D01*
X18680000Y-16730000D02*
X18720000Y-16770000D01*
X18720000Y-16730000D02*
X18680000Y-16770000D01*
X18830000Y-12630000D02*
X18870000Y-12670000D01*
X18870000Y-12630000D02*
X18830000Y-12670000D01*
X18880000Y-15030000D02*
X18920000Y-15070000D01*
X18920000Y-15030000D02*
X18880000Y-15070000D01*
X21030000Y-8330000D02*
X21070000Y-8370000D01*
X21070000Y-8330000D02*
X21030000Y-8370000D01*
X21080000Y-19330000D02*
X21120000Y-19370000D01*
X21120000Y-19330000D02*
X21080000Y-19370000D01*
X22080000Y-10030000D02*
X22120000Y-10070000D01*
X22120000Y-10030000D02*
X22080000Y-10070000D01*
X24680000Y-10930000D02*
X24720000Y-10970000D01*
X24720000Y-10930000D02*
X24680000Y-10970000D01*
X24830000Y-15030000D02*
X24870000Y-15070000D01*
X24870000Y-15030000D02*
X24830000Y-15070000D01*
X25080000Y-8030000D02*
X25120000Y-8070000D01*
X25120000Y-8030000D02*
X25080000Y-8070000D01*
X25230000Y-7080000D02*
X25270000Y-7120000D01*
X25270000Y-7080000D02*
X25230000Y-7120000D01*
X25390450Y-10741530D02*
X25430450Y-10781530D01*
X25430450Y-10741530D02*
X25390450Y-10781530D01*
X25421900Y-11527370D02*
X25461900Y-11567370D01*
X25461900Y-11527370D02*
X25421900Y-11567370D01*
X25767930Y-13847200D02*
X25807930Y-13887200D01*
X25807930Y-13847200D02*
X25767930Y-13887200D01*
X25930000Y-17980000D02*
X25970000Y-18020000D01*
X25970000Y-17980000D02*
X25930000Y-18020000D01*
X26182140Y-8930850D02*
X26222140Y-8970850D01*
X26222140Y-8930850D02*
X26182140Y-8970850D01*
X26296210Y-8831180D02*
X26336210Y-8871180D01*
X26336210Y-8831180D02*
X26296210Y-8871180D01*
X27394940Y-7096070D02*
X27434940Y-7136070D01*
X27434940Y-7096070D02*
X27394940Y-7136070D01*
X27394940Y-7317060D02*
X27434940Y-7357060D01*
X27434940Y-7317060D02*
X27394940Y-7357060D01*
X27680000Y-12330000D02*
X27720000Y-12370000D01*
X27720000Y-12330000D02*
X27680000Y-12370000D01*
X27982190Y-18451840D02*
X28022190Y-18491840D01*
X28022190Y-18451840D02*
X27982190Y-18491840D01*
X28141500Y-19464500D02*
X28181500Y-19504500D01*
X28181500Y-19464500D02*
X28141500Y-19504500D01*
X28530000Y-10830000D02*
X28570000Y-10870000D01*
X28570000Y-10830000D02*
X28530000Y-10870000D01*
X28848290Y-7984340D02*
X28888290Y-8024340D01*
X28888290Y-7984340D02*
X28848290Y-8024340D01*
X29680000Y-9580000D02*
X29720000Y-9620000D01*
X29720000Y-9580000D02*
X29680000Y-9620000D01*
X29880000Y-9980000D02*
X29920000Y-10020000D01*
X29920000Y-9980000D02*
X29880000Y-10020000D01*
X29980000Y-8030000D02*
X30020000Y-8070000D01*
X30020000Y-8030000D02*
X29980000Y-8070000D01*
X34253000Y-19295500D02*
X34293000Y-19335500D01*
X34293000Y-19295500D02*
X34253000Y-19335500D01*
X34680000Y-14030000D02*
X34720000Y-14070000D01*
X34720000Y-14030000D02*
X34680000Y-14070000D01*
X34880000Y-8630000D02*
X34920000Y-8670000D01*
X34920000Y-8630000D02*
X34880000Y-8670000D01*
X35881630Y-13621480D02*
X35921630Y-13661480D01*
X35921630Y-13621480D02*
X35881630Y-13661480D01*
X35980000Y-11280000D02*
X36020000Y-11320000D01*
X36020000Y-11280000D02*
X35980000Y-11320000D01*
X35980120Y-9153830D02*
X36020120Y-9193830D01*
X36020120Y-9153830D02*
X35980120Y-9193830D01*
X36130000Y-17930000D02*
X36170000Y-17970000D01*
X36170000Y-17930000D02*
X36130000Y-17970000D01*
X36193550Y-5228650D02*
X36233550Y-5268650D01*
X36233550Y-5228650D02*
X36193550Y-5268650D01*
X36595520Y-6507630D02*
X36635520Y-6547630D01*
X36635520Y-6507630D02*
X36595520Y-6547630D01*
X36780000Y-9180000D02*
X36820000Y-9220000D01*
X36820000Y-9180000D02*
X36780000Y-9220000D01*
X37330000Y-11730000D02*
X37370000Y-11770000D01*
X37370000Y-11730000D02*
X37330000Y-11770000D01*
X37680000Y-15230000D02*
X37720000Y-15270000D01*
X37720000Y-15230000D02*
X37680000Y-15270000D01*
X37903890Y-9559020D02*
X37943890Y-9599020D01*
X37943890Y-9559020D02*
X37903890Y-9599020D01*
X37980000Y-17330000D02*
X38020000Y-17370000D01*
X38020000Y-17330000D02*
X37980000Y-17370000D01*
X38007750Y-4187680D02*
X38047750Y-4227680D01*
X38047750Y-4187680D02*
X38007750Y-4227680D01*
X38188050Y-5587990D02*
X38228050Y-5627990D01*
X38228050Y-5587990D02*
X38188050Y-5627990D01*
X38188050Y-13889390D02*
X38228050Y-13929390D01*
X38228050Y-13889390D02*
X38188050Y-13929390D01*
X38188050Y-15070400D02*
X38228050Y-15110400D01*
X38228050Y-15070400D02*
X38188050Y-15110400D01*
X39030000Y-10830000D02*
X39070000Y-10870000D01*
X39070000Y-10830000D02*
X39030000Y-10870000D01*
X39698520Y-8601420D02*
X39738520Y-8641420D01*
X39738520Y-8601420D02*
X39698520Y-8641420D01*
X40697560Y-13580000D02*
X40737560Y-13620000D01*
X40737560Y-13580000D02*
X40697560Y-13620000D01*
X40975450Y-18219760D02*
X41015450Y-18259760D01*
X41015450Y-18219760D02*
X40975450Y-18259760D01*
X40983500Y-11180000D02*
X41023500Y-11220000D01*
X41023500Y-11180000D02*
X40983500Y-11220000D01*
X41083500Y-15980000D02*
X41123500Y-16020000D01*
X41123500Y-15980000D02*
X41083500Y-16020000D01*
X42186360Y-8762370D02*
X42226360Y-8802370D01*
X42226360Y-8762370D02*
X42186360Y-8802370D01*
X43383500Y-10980000D02*
X43423500Y-11020000D01*
X43423500Y-10980000D02*
X43383500Y-11020000D01*
X43425630Y-15495500D02*
X43465630Y-15535500D01*
X43465630Y-15495500D02*
X43425630Y-15535500D01*
X43445500Y-18080000D02*
X43485500Y-18120000D01*
X43485500Y-18080000D02*
X43445500Y-18120000D01*
X43483500Y-13380000D02*
X43523500Y-13420000D01*
X43523500Y-13380000D02*
X43483500Y-13420000D01*
X43730000Y-19130000D02*
X43770000Y-19170000D01*
X43770000Y-19130000D02*
X43730000Y-19170000D01*
X43780000Y-19880000D02*
X43820000Y-19920000D01*
X43820000Y-19880000D02*
X43780000Y-19920000D01*
X45349570Y-8790370D02*
X45389570Y-8830370D01*
X45389570Y-8790370D02*
X45349570Y-8830370D01*
X45785220Y-11480000D02*
X45825220Y-11520000D01*
X45825220Y-11480000D02*
X45785220Y-11520000D01*
X45845500Y-13811040D02*
X45885500Y-13851040D01*
X45885500Y-13811040D02*
X45845500Y-13851040D01*
X45864000Y-5579900D02*
X45904000Y-5619900D01*
X45904000Y-5579900D02*
X45864000Y-5619900D01*
X45929980Y-15849490D02*
X45969980Y-15889490D01*
X45969980Y-15849490D02*
X45929980Y-15889490D01*
X46208130Y-20539340D02*
X46248130Y-20579340D01*
X46248130Y-20539340D02*
X46208130Y-20579340D01*
X46630000Y-17080000D02*
X46670000Y-17120000D01*
X46670000Y-17080000D02*
X46630000Y-17120000D01*
X46630000Y-17730000D02*
X46670000Y-17770000D01*
X46670000Y-17730000D02*
X46630000Y-17770000D01*
X46963850Y-7590670D02*
X47003850Y-7630670D01*
X47003850Y-7590670D02*
X46963850Y-7630670D01*
X47745380Y-12298440D02*
X47785380Y-12338440D01*
X47785380Y-12298440D02*
X47745380Y-12338440D01*
X49830000Y-18680000D02*
X49870000Y-18720000D01*
X49870000Y-18680000D02*
X49830000Y-18720000D01*
X50780000Y-19880000D02*
X50820000Y-19920000D01*
X50820000Y-19880000D02*
X50780000Y-19920000D01*
X50930000Y-20630000D02*
X50970000Y-20670000D01*
X50970000Y-20630000D02*
X50930000Y-20670000D01*
X51045500Y-8580000D02*
X51085500Y-8620000D01*
X51085500Y-8580000D02*
X51045500Y-8620000D01*
D13*
X42728970Y-5034000D02*
G75*
G03*
X42728970Y-5034000I-37500J0D01*
G01*
X42982970Y-5034000D02*
G75*
G03*
X42982970Y-5034000I-37500J0D01*
G01*
X45598970Y-5044000D02*
G75*
G03*
X45598970Y-5044000I-37500J0D01*
G01*
X45852970Y-5044000D02*
G75*
G03*
X45852970Y-5044000I-37500J0D01*
G01*
X48548970Y-5024000D02*
G75*
G03*
X48548970Y-5024000I-37500J0D01*
G01*
X48802970Y-5024000D02*
G75*
G03*
X48802970Y-5024000I-37500J0D01*
G01*
X51310500Y-5044000D02*
G75*
G03*
X51310500Y-5044000I-37500J0D01*
G01*
X51564500Y-5044000D02*
G75*
G03*
X51564500Y-5044000I-37500J0D01*
G01*
D14*
X10990000Y-5025000D02*
X10990000Y-5115000D01*
X10945000Y-5070000D02*
X11035000Y-5070000D01*
X11244000Y-5025000D02*
X11244000Y-5115000D01*
X11199000Y-5070000D02*
X11289000Y-5070000D01*
X13810000Y-5075000D02*
X13810000Y-5165000D01*
X13765000Y-5120000D02*
X13855000Y-5120000D01*
X14064000Y-5075000D02*
X14064000Y-5165000D01*
X14019000Y-5120000D02*
X14109000Y-5120000D01*
X16740000Y-5055000D02*
X16740000Y-5145000D01*
X16695000Y-5100000D02*
X16785000Y-5100000D01*
X16994000Y-5055000D02*
X16994000Y-5145000D01*
X16949000Y-5100000D02*
X17039000Y-5100000D01*
X19520000Y-5075000D02*
X19520000Y-5165000D01*
X19475000Y-5120000D02*
X19565000Y-5120000D01*
X19774000Y-5075000D02*
X19774000Y-5165000D01*
X19729000Y-5120000D02*
X19819000Y-5120000D01*
D10*
X22427356Y-5335356D02*
X22427356Y-5264644D01*
X22356644Y-5264644D01*
X22356644Y-5335356D01*
X22427356Y-5335356D01*
X22935356Y-5335356D02*
X22935356Y-5264644D01*
X22864644Y-5264644D01*
X22864644Y-5335356D01*
X22935356Y-5335356D01*
X39736356Y-5335356D02*
X39736356Y-5264644D01*
X39665644Y-5264644D01*
X39665644Y-5335356D01*
X39736356Y-5335356D01*
X40244356Y-5335356D02*
X40244356Y-5264644D01*
X40173644Y-5264644D01*
X40173644Y-5335356D01*
X40244356Y-5335356D01*
D15*
X25587000Y-4434500D02*
X25638000Y-4383500D01*
X25587000Y-4332500D01*
X25536000Y-4383500D01*
X25587000Y-4434500D01*
X25587000Y-6212500D02*
X25638000Y-6161500D01*
X25587000Y-6110500D01*
X25536000Y-6161500D01*
X25587000Y-6212500D01*
X25610000Y-5069500D02*
X25661000Y-5018500D01*
X25610000Y-4967500D01*
X25559000Y-5018500D01*
X25610000Y-5069500D01*
X25610000Y-5323500D02*
X25661000Y-5272500D01*
X25610000Y-5221500D01*
X25559000Y-5272500D01*
X25610000Y-5323500D01*
X25610000Y-5577500D02*
X25661000Y-5526500D01*
X25610000Y-5475500D01*
X25559000Y-5526500D01*
X25610000Y-5577500D01*
X25841000Y-4434500D02*
X25892000Y-4383500D01*
X25841000Y-4332500D01*
X25790000Y-4383500D01*
X25841000Y-4434500D01*
X25841000Y-6212500D02*
X25892000Y-6161500D01*
X25841000Y-6110500D01*
X25790000Y-6161500D01*
X25841000Y-6212500D01*
X26095000Y-4434500D02*
X26146000Y-4383500D01*
X26095000Y-4332500D01*
X26044000Y-4383500D01*
X26095000Y-4434500D01*
X26095000Y-6212500D02*
X26146000Y-6161500D01*
X26095000Y-6110500D01*
X26044000Y-6161500D01*
X26095000Y-6212500D01*
X26349000Y-4434500D02*
X26400000Y-4383500D01*
X26349000Y-4332500D01*
X26298000Y-4383500D01*
X26349000Y-4434500D01*
X26349000Y-6212500D02*
X26400000Y-6161500D01*
X26349000Y-6110500D01*
X26298000Y-6161500D01*
X26349000Y-6212500D01*
X26603000Y-4434500D02*
X26654000Y-4383500D01*
X26603000Y-4332500D01*
X26552000Y-4383500D01*
X26603000Y-4434500D01*
X26603000Y-6212500D02*
X26654000Y-6161500D01*
X26603000Y-6110500D01*
X26552000Y-6161500D01*
X26603000Y-6212500D01*
X26857000Y-4434500D02*
X26908000Y-4383500D01*
X26857000Y-4332500D01*
X26806000Y-4383500D01*
X26857000Y-4434500D01*
X26857000Y-6212500D02*
X26908000Y-6161500D01*
X26857000Y-6110500D01*
X26806000Y-6161500D01*
X26857000Y-6212500D01*
X27111000Y-4434500D02*
X27162000Y-4383500D01*
X27111000Y-4332500D01*
X27060000Y-4383500D01*
X27111000Y-4434500D01*
X27111000Y-6212500D02*
X27162000Y-6161500D01*
X27111000Y-6110500D01*
X27060000Y-6161500D01*
X27111000Y-6212500D01*
X27365000Y-4434500D02*
X27416000Y-4383500D01*
X27365000Y-4332500D01*
X27314000Y-4383500D01*
X27365000Y-4434500D01*
X27365000Y-6212500D02*
X27416000Y-6161500D01*
X27365000Y-6110500D01*
X27314000Y-6161500D01*
X27365000Y-6212500D01*
X27619000Y-4434500D02*
X27670000Y-4383500D01*
X27619000Y-4332500D01*
X27568000Y-4383500D01*
X27619000Y-4434500D01*
X27619000Y-6212500D02*
X27670000Y-6161500D01*
X27619000Y-6110500D01*
X27568000Y-6161500D01*
X27619000Y-6212500D01*
X27873000Y-4434500D02*
X27924000Y-4383500D01*
X27873000Y-4332500D01*
X27822000Y-4383500D01*
X27873000Y-4434500D01*
X27873000Y-6212500D02*
X27924000Y-6161500D01*
X27873000Y-6110500D01*
X27822000Y-6161500D01*
X27873000Y-6212500D01*
X28127000Y-4434500D02*
X28178000Y-4383500D01*
X28127000Y-4332500D01*
X28076000Y-4383500D01*
X28127000Y-4434500D01*
X28127000Y-6212500D02*
X28178000Y-6161500D01*
X28127000Y-6110500D01*
X28076000Y-6161500D01*
X28127000Y-6212500D01*
X28381000Y-4434500D02*
X28432000Y-4383500D01*
X28381000Y-4332500D01*
X28330000Y-4383500D01*
X28381000Y-4434500D01*
X28381000Y-6212500D02*
X28432000Y-6161500D01*
X28381000Y-6110500D01*
X28330000Y-6161500D01*
X28381000Y-6212500D01*
X28635000Y-4434500D02*
X28686000Y-4383500D01*
X28635000Y-4332500D01*
X28584000Y-4383500D01*
X28635000Y-4434500D01*
X28635000Y-6212500D02*
X28686000Y-6161500D01*
X28635000Y-6110500D01*
X28584000Y-6161500D01*
X28635000Y-6212500D01*
X28889000Y-4434500D02*
X28940000Y-4383500D01*
X28889000Y-4332500D01*
X28838000Y-4383500D01*
X28889000Y-4434500D01*
X28889000Y-6212500D02*
X28940000Y-6161500D01*
X28889000Y-6110500D01*
X28838000Y-6161500D01*
X28889000Y-6212500D01*
X29143000Y-4434500D02*
X29194000Y-4383500D01*
X29143000Y-4332500D01*
X29092000Y-4383500D01*
X29143000Y-4434500D01*
X29143000Y-6212500D02*
X29194000Y-6161500D01*
X29143000Y-6110500D01*
X29092000Y-6161500D01*
X29143000Y-6212500D01*
X29397000Y-4434500D02*
X29448000Y-4383500D01*
X29397000Y-4332500D01*
X29346000Y-4383500D01*
X29397000Y-4434500D01*
X29397000Y-6212500D02*
X29448000Y-6161500D01*
X29397000Y-6110500D01*
X29346000Y-6161500D01*
X29397000Y-6212500D01*
X29651000Y-4434500D02*
X29702000Y-4383500D01*
X29651000Y-4332500D01*
X29600000Y-4383500D01*
X29651000Y-4434500D01*
X29651000Y-6212500D02*
X29702000Y-6161500D01*
X29651000Y-6110500D01*
X29600000Y-6161500D01*
X29651000Y-6212500D01*
X29905000Y-4434500D02*
X29956000Y-4383500D01*
X29905000Y-4332500D01*
X29854000Y-4383500D01*
X29905000Y-4434500D01*
X29905000Y-6212500D02*
X29956000Y-6161500D01*
X29905000Y-6110500D01*
X29854000Y-6161500D01*
X29905000Y-6212500D01*
X30159000Y-4434500D02*
X30210000Y-4383500D01*
X30159000Y-4332500D01*
X30108000Y-4383500D01*
X30159000Y-4434500D01*
X30159000Y-6212500D02*
X30210000Y-6161500D01*
X30159000Y-6110500D01*
X30108000Y-6161500D01*
X30159000Y-6212500D01*
X30413000Y-4434500D02*
X30464000Y-4383500D01*
X30413000Y-4332500D01*
X30362000Y-4383500D01*
X30413000Y-4434500D01*
X30413000Y-6212500D02*
X30464000Y-6161500D01*
X30413000Y-6110500D01*
X30362000Y-6161500D01*
X30413000Y-6212500D01*
X32042000Y-4434500D02*
X32093000Y-4383500D01*
X32042000Y-4332500D01*
X31991000Y-4383500D01*
X32042000Y-4434500D01*
X32042000Y-6212500D02*
X32093000Y-6161500D01*
X32042000Y-6110500D01*
X31991000Y-6161500D01*
X32042000Y-6212500D01*
X32296000Y-4434500D02*
X32347000Y-4383500D01*
X32296000Y-4332500D01*
X32245000Y-4383500D01*
X32296000Y-4434500D01*
X32296000Y-6212500D02*
X32347000Y-6161500D01*
X32296000Y-6110500D01*
X32245000Y-6161500D01*
X32296000Y-6212500D01*
X32550000Y-4434500D02*
X32601000Y-4383500D01*
X32550000Y-4332500D01*
X32499000Y-4383500D01*
X32550000Y-4434500D01*
X32550000Y-6212500D02*
X32601000Y-6161500D01*
X32550000Y-6110500D01*
X32499000Y-6161500D01*
X32550000Y-6212500D01*
X32804000Y-4434500D02*
X32855000Y-4383500D01*
X32804000Y-4332500D01*
X32753000Y-4383500D01*
X32804000Y-4434500D01*
X32804000Y-6212500D02*
X32855000Y-6161500D01*
X32804000Y-6110500D01*
X32753000Y-6161500D01*
X32804000Y-6212500D01*
X33058000Y-4434500D02*
X33109000Y-4383500D01*
X33058000Y-4332500D01*
X33007000Y-4383500D01*
X33058000Y-4434500D01*
X33058000Y-6212500D02*
X33109000Y-6161500D01*
X33058000Y-6110500D01*
X33007000Y-6161500D01*
X33058000Y-6212500D01*
X33312000Y-4434500D02*
X33363000Y-4383500D01*
X33312000Y-4332500D01*
X33261000Y-4383500D01*
X33312000Y-4434500D01*
X33312000Y-6212500D02*
X33363000Y-6161500D01*
X33312000Y-6110500D01*
X33261000Y-6161500D01*
X33312000Y-6212500D01*
X33566000Y-4434500D02*
X33617000Y-4383500D01*
X33566000Y-4332500D01*
X33515000Y-4383500D01*
X33566000Y-4434500D01*
X33566000Y-6212500D02*
X33617000Y-6161500D01*
X33566000Y-6110500D01*
X33515000Y-6161500D01*
X33566000Y-6212500D01*
X33820000Y-4434500D02*
X33871000Y-4383500D01*
X33820000Y-4332500D01*
X33769000Y-4383500D01*
X33820000Y-4434500D01*
X33820000Y-6212500D02*
X33871000Y-6161500D01*
X33820000Y-6110500D01*
X33769000Y-6161500D01*
X33820000Y-6212500D01*
X34074000Y-4434500D02*
X34125000Y-4383500D01*
X34074000Y-4332500D01*
X34023000Y-4383500D01*
X34074000Y-4434500D01*
X34074000Y-6212500D02*
X34125000Y-6161500D01*
X34074000Y-6110500D01*
X34023000Y-6161500D01*
X34074000Y-6212500D01*
X34328000Y-4434500D02*
X34379000Y-4383500D01*
X34328000Y-4332500D01*
X34277000Y-4383500D01*
X34328000Y-4434500D01*
X34328000Y-6212500D02*
X34379000Y-6161500D01*
X34328000Y-6110500D01*
X34277000Y-6161500D01*
X34328000Y-6212500D01*
X34582000Y-4434500D02*
X34633000Y-4383500D01*
X34582000Y-4332500D01*
X34531000Y-4383500D01*
X34582000Y-4434500D01*
X34582000Y-6212500D02*
X34633000Y-6161500D01*
X34582000Y-6110500D01*
X34531000Y-6161500D01*
X34582000Y-6212500D01*
X34836000Y-4434500D02*
X34887000Y-4383500D01*
X34836000Y-4332500D01*
X34785000Y-4383500D01*
X34836000Y-4434500D01*
X34836000Y-6212500D02*
X34887000Y-6161500D01*
X34836000Y-6110500D01*
X34785000Y-6161500D01*
X34836000Y-6212500D01*
X35090000Y-4434500D02*
X35141000Y-4383500D01*
X35090000Y-4332500D01*
X35039000Y-4383500D01*
X35090000Y-4434500D01*
X35090000Y-6212500D02*
X35141000Y-6161500D01*
X35090000Y-6110500D01*
X35039000Y-6161500D01*
X35090000Y-6212500D01*
X35344000Y-4434500D02*
X35395000Y-4383500D01*
X35344000Y-4332500D01*
X35293000Y-4383500D01*
X35344000Y-4434500D01*
X35344000Y-6212500D02*
X35395000Y-6161500D01*
X35344000Y-6110500D01*
X35293000Y-6161500D01*
X35344000Y-6212500D01*
X35598000Y-4434500D02*
X35649000Y-4383500D01*
X35598000Y-4332500D01*
X35547000Y-4383500D01*
X35598000Y-4434500D01*
X35598000Y-6212500D02*
X35649000Y-6161500D01*
X35598000Y-6110500D01*
X35547000Y-6161500D01*
X35598000Y-6212500D01*
X35852000Y-4434500D02*
X35903000Y-4383500D01*
X35852000Y-4332500D01*
X35801000Y-4383500D01*
X35852000Y-4434500D01*
X35852000Y-6212500D02*
X35903000Y-6161500D01*
X35852000Y-6110500D01*
X35801000Y-6161500D01*
X35852000Y-6212500D01*
X36106000Y-4434500D02*
X36157000Y-4383500D01*
X36106000Y-4332500D01*
X36055000Y-4383500D01*
X36106000Y-4434500D01*
X36106000Y-6212500D02*
X36157000Y-6161500D01*
X36106000Y-6110500D01*
X36055000Y-6161500D01*
X36106000Y-6212500D01*
X36360000Y-4434500D02*
X36411000Y-4383500D01*
X36360000Y-4332500D01*
X36309000Y-4383500D01*
X36360000Y-4434500D01*
X36360000Y-6212500D02*
X36411000Y-6161500D01*
X36360000Y-6110500D01*
X36309000Y-6161500D01*
X36360000Y-6212500D01*
X36614000Y-4434500D02*
X36665000Y-4383500D01*
X36614000Y-4332500D01*
X36563000Y-4383500D01*
X36614000Y-4434500D01*
X36614000Y-6212500D02*
X36665000Y-6161500D01*
X36614000Y-6110500D01*
X36563000Y-6161500D01*
X36614000Y-6212500D01*
X36845000Y-5069500D02*
X36896000Y-5018500D01*
X36845000Y-4967500D01*
X36794000Y-5018500D01*
X36845000Y-5069500D01*
X36845000Y-5323500D02*
X36896000Y-5272500D01*
X36845000Y-5221500D01*
X36794000Y-5272500D01*
X36845000Y-5323500D01*
X36845000Y-5577500D02*
X36896000Y-5526500D01*
X36845000Y-5475500D01*
X36794000Y-5526500D01*
X36845000Y-5577500D01*
X36868000Y-4434500D02*
X36919000Y-4383500D01*
X36868000Y-4332500D01*
X36817000Y-4383500D01*
X36868000Y-4434500D01*
X36868000Y-6212500D02*
X36919000Y-6161500D01*
X36868000Y-6110500D01*
X36817000Y-6161500D01*
X36868000Y-6212500D01*
D16*
X29702000Y-9008000D02*
X29812000Y-9118000D01*
X29812000Y-9008000D02*
X29702000Y-9118000D01*
X29812000Y-9063000D02*
G75*
G03*
X29812000Y-9063000I-55000J0D01*
G01*
X30012000Y-9528000D02*
X30122000Y-9638000D01*
X30122000Y-9528000D02*
X30012000Y-9638000D01*
X30122000Y-9583000D02*
G75*
G03*
X30122000Y-9583000I-55000J0D01*
G01*
X30512000Y-8688000D02*
X30622000Y-8798000D01*
X30622000Y-8688000D02*
X30512000Y-8798000D01*
X30622000Y-8743000D02*
G75*
G03*
X30622000Y-8743000I-55000J0D01*
G01*
X30512000Y-9618000D02*
X30622000Y-9728000D01*
X30622000Y-9618000D02*
X30512000Y-9728000D01*
X30622000Y-9673000D02*
G75*
G03*
X30622000Y-9673000I-55000J0D01*
G01*
X31842500Y-8720000D02*
X31952500Y-8830000D01*
X31952500Y-8720000D02*
X31842500Y-8830000D01*
X31952500Y-8775000D02*
G75*
G03*
X31952500Y-8775000I-55000J0D01*
G01*
X31842500Y-9650000D02*
X31952500Y-9760000D01*
X31952500Y-9650000D02*
X31842500Y-9760000D01*
X31952500Y-9705000D02*
G75*
G03*
X31952500Y-9705000I-55000J0D01*
G01*
X32342500Y-8810000D02*
X32452500Y-8920000D01*
X32452500Y-8810000D02*
X32342500Y-8920000D01*
X32452500Y-8865000D02*
G75*
G03*
X32452500Y-8865000I-55000J0D01*
G01*
X32652500Y-9330000D02*
X32762500Y-9440000D01*
X32762500Y-9330000D02*
X32652500Y-9440000D01*
X32762500Y-9385000D02*
G75*
G03*
X32762500Y-9385000I-55000J0D01*
G01*
D17*
X10664000Y-7231000D02*
X10814000Y-7381000D01*
X10814000Y-7231000D02*
X10664000Y-7381000D01*
X10739000Y-7231000D02*
X10739000Y-7381000D01*
X10664000Y-7306000D02*
X10814000Y-7306000D01*
X10674000Y-17481000D02*
X10824000Y-17631000D01*
X10824000Y-17481000D02*
X10674000Y-17631000D01*
X10749000Y-17481000D02*
X10749000Y-17631000D01*
X10674000Y-17556000D02*
X10824000Y-17556000D01*
X10684000Y-10331000D02*
X10834000Y-10481000D01*
X10834000Y-10331000D02*
X10684000Y-10481000D01*
X10759000Y-10331000D02*
X10759000Y-10481000D01*
X10684000Y-10406000D02*
X10834000Y-10406000D01*
X10684000Y-15101000D02*
X10834000Y-15251000D01*
X10834000Y-15101000D02*
X10684000Y-15251000D01*
X10759000Y-15101000D02*
X10759000Y-15251000D01*
X10684000Y-15176000D02*
X10834000Y-15176000D01*
X10704000Y-12721000D02*
X10854000Y-12871000D01*
X10854000Y-12721000D02*
X10704000Y-12871000D01*
X10779000Y-12721000D02*
X10779000Y-12871000D01*
X10704000Y-12796000D02*
X10854000Y-12796000D01*
X11154000Y-19871000D02*
X11304000Y-20021000D01*
X11304000Y-19871000D02*
X11154000Y-20021000D01*
X11229000Y-19871000D02*
X11229000Y-20021000D01*
X11154000Y-19946000D02*
X11304000Y-19946000D01*
X11299000Y-6977000D02*
X11449000Y-7127000D01*
X11449000Y-6977000D02*
X11299000Y-7127000D01*
X11374000Y-6977000D02*
X11374000Y-7127000D01*
X11299000Y-7052000D02*
X11449000Y-7052000D01*
X11309000Y-17227000D02*
X11459000Y-17377000D01*
X11459000Y-17227000D02*
X11309000Y-17377000D01*
X11384000Y-17227000D02*
X11384000Y-17377000D01*
X11309000Y-17302000D02*
X11459000Y-17302000D01*
X11319000Y-10077000D02*
X11469000Y-10227000D01*
X11469000Y-10077000D02*
X11319000Y-10227000D01*
X11394000Y-10077000D02*
X11394000Y-10227000D01*
X11319000Y-10152000D02*
X11469000Y-10152000D01*
X11319000Y-14847000D02*
X11469000Y-14997000D01*
X11469000Y-14847000D02*
X11319000Y-14997000D01*
X11394000Y-14847000D02*
X11394000Y-14997000D01*
X11319000Y-14922000D02*
X11469000Y-14922000D01*
X11339000Y-12467000D02*
X11489000Y-12617000D01*
X11489000Y-12467000D02*
X11339000Y-12617000D01*
X11414000Y-12467000D02*
X11414000Y-12617000D01*
X11339000Y-12542000D02*
X11489000Y-12542000D01*
X11789000Y-19617000D02*
X11939000Y-19767000D01*
X11939000Y-19617000D02*
X11789000Y-19767000D01*
X11864000Y-19617000D02*
X11864000Y-19767000D01*
X11789000Y-19692000D02*
X11939000Y-19692000D01*
X13524000Y-7241000D02*
X13674000Y-7391000D01*
X13674000Y-7241000D02*
X13524000Y-7391000D01*
X13599000Y-7241000D02*
X13599000Y-7391000D01*
X13524000Y-7316000D02*
X13674000Y-7316000D01*
X13524000Y-19861000D02*
X13674000Y-20011000D01*
X13674000Y-19861000D02*
X13524000Y-20011000D01*
X13599000Y-19861000D02*
X13599000Y-20011000D01*
X13524000Y-19936000D02*
X13674000Y-19936000D01*
X13534000Y-12721000D02*
X13684000Y-12871000D01*
X13684000Y-12721000D02*
X13534000Y-12871000D01*
X13609000Y-12721000D02*
X13609000Y-12871000D01*
X13534000Y-12796000D02*
X13684000Y-12796000D01*
X13544000Y-10351000D02*
X13694000Y-10501000D01*
X13694000Y-10351000D02*
X13544000Y-10501000D01*
X13619000Y-10351000D02*
X13619000Y-10501000D01*
X13544000Y-10426000D02*
X13694000Y-10426000D01*
X13544000Y-17461000D02*
X13694000Y-17611000D01*
X13694000Y-17461000D02*
X13544000Y-17611000D01*
X13619000Y-17461000D02*
X13619000Y-17611000D01*
X13544000Y-17536000D02*
X13694000Y-17536000D01*
X13574000Y-15091000D02*
X13724000Y-15241000D01*
X13724000Y-15091000D02*
X13574000Y-15241000D01*
X13649000Y-15091000D02*
X13649000Y-15241000D01*
X13574000Y-15166000D02*
X13724000Y-15166000D01*
X14159000Y-6987000D02*
X14309000Y-7137000D01*
X14309000Y-6987000D02*
X14159000Y-7137000D01*
X14234000Y-6987000D02*
X14234000Y-7137000D01*
X14159000Y-7062000D02*
X14309000Y-7062000D01*
X14159000Y-19607000D02*
X14309000Y-19757000D01*
X14309000Y-19607000D02*
X14159000Y-19757000D01*
X14234000Y-19607000D02*
X14234000Y-19757000D01*
X14159000Y-19682000D02*
X14309000Y-19682000D01*
X14169000Y-12467000D02*
X14319000Y-12617000D01*
X14319000Y-12467000D02*
X14169000Y-12617000D01*
X14244000Y-12467000D02*
X14244000Y-12617000D01*
X14169000Y-12542000D02*
X14319000Y-12542000D01*
X14179000Y-10097000D02*
X14329000Y-10247000D01*
X14329000Y-10097000D02*
X14179000Y-10247000D01*
X14254000Y-10097000D02*
X14254000Y-10247000D01*
X14179000Y-10172000D02*
X14329000Y-10172000D01*
X14179000Y-17207000D02*
X14329000Y-17357000D01*
X14329000Y-17207000D02*
X14179000Y-17357000D01*
X14254000Y-17207000D02*
X14254000Y-17357000D01*
X14179000Y-17282000D02*
X14329000Y-17282000D01*
X14209000Y-14837000D02*
X14359000Y-14987000D01*
X14359000Y-14837000D02*
X14209000Y-14987000D01*
X14284000Y-14837000D02*
X14284000Y-14987000D01*
X14209000Y-14912000D02*
X14359000Y-14912000D01*
X15914000Y-12251000D02*
X16064000Y-12401000D01*
X16064000Y-12251000D02*
X15914000Y-12401000D01*
X15989000Y-12251000D02*
X15989000Y-12401000D01*
X15914000Y-12326000D02*
X16064000Y-12326000D01*
X15914000Y-17001000D02*
X16064000Y-17151000D01*
X16064000Y-17001000D02*
X15914000Y-17151000D01*
X15989000Y-17001000D02*
X15989000Y-17151000D01*
X15914000Y-17076000D02*
X16064000Y-17076000D01*
X15924000Y-19381000D02*
X16074000Y-19531000D01*
X16074000Y-19381000D02*
X15924000Y-19531000D01*
X15999000Y-19381000D02*
X15999000Y-19531000D01*
X15924000Y-19456000D02*
X16074000Y-19456000D01*
X15934000Y-14621000D02*
X16084000Y-14771000D01*
X16084000Y-14621000D02*
X15934000Y-14771000D01*
X16009000Y-14621000D02*
X16009000Y-14771000D01*
X15934000Y-14696000D02*
X16084000Y-14696000D01*
X15944000Y-9871000D02*
X16094000Y-10021000D01*
X16094000Y-9871000D02*
X15944000Y-10021000D01*
X16019000Y-9871000D02*
X16019000Y-10021000D01*
X15944000Y-9946000D02*
X16094000Y-9946000D01*
X16404000Y-7241000D02*
X16554000Y-7391000D01*
X16554000Y-7241000D02*
X16404000Y-7391000D01*
X16479000Y-7241000D02*
X16479000Y-7391000D01*
X16404000Y-7316000D02*
X16554000Y-7316000D01*
X16549000Y-11997000D02*
X16699000Y-12147000D01*
X16699000Y-11997000D02*
X16549000Y-12147000D01*
X16624000Y-11997000D02*
X16624000Y-12147000D01*
X16549000Y-12072000D02*
X16699000Y-12072000D01*
X16549000Y-16747000D02*
X16699000Y-16897000D01*
X16699000Y-16747000D02*
X16549000Y-16897000D01*
X16624000Y-16747000D02*
X16624000Y-16897000D01*
X16549000Y-16822000D02*
X16699000Y-16822000D01*
X16559000Y-19127000D02*
X16709000Y-19277000D01*
X16709000Y-19127000D02*
X16559000Y-19277000D01*
X16634000Y-19127000D02*
X16634000Y-19277000D01*
X16559000Y-19202000D02*
X16709000Y-19202000D01*
X16569000Y-14367000D02*
X16719000Y-14517000D01*
X16719000Y-14367000D02*
X16569000Y-14517000D01*
X16644000Y-14367000D02*
X16644000Y-14517000D01*
X16569000Y-14442000D02*
X16719000Y-14442000D01*
X16579000Y-9617000D02*
X16729000Y-9767000D01*
X16729000Y-9617000D02*
X16579000Y-9767000D01*
X16654000Y-9617000D02*
X16654000Y-9767000D01*
X16579000Y-9692000D02*
X16729000Y-9692000D01*
X17039000Y-6987000D02*
X17189000Y-7137000D01*
X17189000Y-6987000D02*
X17039000Y-7137000D01*
X17114000Y-6987000D02*
X17114000Y-7137000D01*
X17039000Y-7062000D02*
X17189000Y-7062000D01*
X18294000Y-14381000D02*
X18444000Y-14531000D01*
X18444000Y-14381000D02*
X18294000Y-14531000D01*
X18369000Y-14381000D02*
X18369000Y-14531000D01*
X18294000Y-14456000D02*
X18444000Y-14456000D01*
X18294000Y-16751000D02*
X18444000Y-16901000D01*
X18444000Y-16751000D02*
X18294000Y-16901000D01*
X18369000Y-16751000D02*
X18369000Y-16901000D01*
X18294000Y-16826000D02*
X18444000Y-16826000D01*
X18294000Y-19151000D02*
X18444000Y-19301000D01*
X18444000Y-19151000D02*
X18294000Y-19301000D01*
X18369000Y-19151000D02*
X18369000Y-19301000D01*
X18294000Y-19226000D02*
X18444000Y-19226000D01*
X18304000Y-9611000D02*
X18454000Y-9761000D01*
X18454000Y-9611000D02*
X18304000Y-9761000D01*
X18379000Y-9611000D02*
X18379000Y-9761000D01*
X18304000Y-9686000D02*
X18454000Y-9686000D01*
X18304000Y-11991000D02*
X18454000Y-12141000D01*
X18454000Y-11991000D02*
X18304000Y-12141000D01*
X18379000Y-11991000D02*
X18379000Y-12141000D01*
X18304000Y-12066000D02*
X18454000Y-12066000D01*
X18929000Y-14127000D02*
X19079000Y-14277000D01*
X19079000Y-14127000D02*
X18929000Y-14277000D01*
X19004000Y-14127000D02*
X19004000Y-14277000D01*
X18929000Y-14202000D02*
X19079000Y-14202000D01*
X18929000Y-16497000D02*
X19079000Y-16647000D01*
X19079000Y-16497000D02*
X18929000Y-16647000D01*
X19004000Y-16497000D02*
X19004000Y-16647000D01*
X18929000Y-16572000D02*
X19079000Y-16572000D01*
X18929000Y-18897000D02*
X19079000Y-19047000D01*
X19079000Y-18897000D02*
X18929000Y-19047000D01*
X19004000Y-18897000D02*
X19004000Y-19047000D01*
X18929000Y-18972000D02*
X19079000Y-18972000D01*
X18939000Y-9357000D02*
X19089000Y-9507000D01*
X19089000Y-9357000D02*
X18939000Y-9507000D01*
X19014000Y-9357000D02*
X19014000Y-9507000D01*
X18939000Y-9432000D02*
X19089000Y-9432000D01*
X18939000Y-11737000D02*
X19089000Y-11887000D01*
X19089000Y-11737000D02*
X18939000Y-11887000D01*
X19014000Y-11737000D02*
X19014000Y-11887000D01*
X18939000Y-11812000D02*
X19089000Y-11812000D01*
X19264000Y-7231000D02*
X19414000Y-7381000D01*
X19414000Y-7231000D02*
X19264000Y-7381000D01*
X19339000Y-7231000D02*
X19339000Y-7381000D01*
X19264000Y-7306000D02*
X19414000Y-7306000D01*
X19899000Y-6977000D02*
X20049000Y-7127000D01*
X20049000Y-6977000D02*
X19899000Y-7127000D01*
X19974000Y-6977000D02*
X19974000Y-7127000D01*
X19899000Y-7052000D02*
X20049000Y-7052000D01*
X20664000Y-14621000D02*
X20814000Y-14771000D01*
X20814000Y-14621000D02*
X20664000Y-14771000D01*
X20739000Y-14621000D02*
X20739000Y-14771000D01*
X20664000Y-14696000D02*
X20814000Y-14696000D01*
X20684000Y-12241000D02*
X20834000Y-12391000D01*
X20834000Y-12241000D02*
X20684000Y-12391000D01*
X20759000Y-12241000D02*
X20759000Y-12391000D01*
X20684000Y-12316000D02*
X20834000Y-12316000D01*
X20684000Y-17011000D02*
X20834000Y-17161000D01*
X20834000Y-17011000D02*
X20684000Y-17161000D01*
X20759000Y-17011000D02*
X20759000Y-17161000D01*
X20684000Y-17086000D02*
X20834000Y-17086000D01*
X20694000Y-9861000D02*
X20844000Y-10011000D01*
X20844000Y-9861000D02*
X20694000Y-10011000D01*
X20769000Y-9861000D02*
X20769000Y-10011000D01*
X20694000Y-9936000D02*
X20844000Y-9936000D01*
X20694000Y-19391000D02*
X20844000Y-19541000D01*
X20844000Y-19391000D02*
X20694000Y-19541000D01*
X20769000Y-19391000D02*
X20769000Y-19541000D01*
X20694000Y-19466000D02*
X20844000Y-19466000D01*
X21299000Y-14367000D02*
X21449000Y-14517000D01*
X21449000Y-14367000D02*
X21299000Y-14517000D01*
X21374000Y-14367000D02*
X21374000Y-14517000D01*
X21299000Y-14442000D02*
X21449000Y-14442000D01*
X21319000Y-11987000D02*
X21469000Y-12137000D01*
X21469000Y-11987000D02*
X21319000Y-12137000D01*
X21394000Y-11987000D02*
X21394000Y-12137000D01*
X21319000Y-12062000D02*
X21469000Y-12062000D01*
X21319000Y-16757000D02*
X21469000Y-16907000D01*
X21469000Y-16757000D02*
X21319000Y-16907000D01*
X21394000Y-16757000D02*
X21394000Y-16907000D01*
X21319000Y-16832000D02*
X21469000Y-16832000D01*
X21329000Y-9607000D02*
X21479000Y-9757000D01*
X21479000Y-9607000D02*
X21329000Y-9757000D01*
X21404000Y-9607000D02*
X21404000Y-9757000D01*
X21329000Y-9682000D02*
X21479000Y-9682000D01*
X21329000Y-19137000D02*
X21479000Y-19287000D01*
X21479000Y-19137000D02*
X21329000Y-19287000D01*
X21404000Y-19137000D02*
X21404000Y-19287000D01*
X21329000Y-19212000D02*
X21479000Y-19212000D01*
X22134000Y-7221000D02*
X22284000Y-7371000D01*
X22284000Y-7221000D02*
X22134000Y-7371000D01*
X22209000Y-7221000D02*
X22209000Y-7371000D01*
X22134000Y-7296000D02*
X22284000Y-7296000D01*
X22769000Y-6967000D02*
X22919000Y-7117000D01*
X22919000Y-6967000D02*
X22769000Y-7117000D01*
X22844000Y-6967000D02*
X22844000Y-7117000D01*
X22769000Y-7042000D02*
X22919000Y-7042000D01*
X23044000Y-17241000D02*
X23194000Y-17391000D01*
X23194000Y-17241000D02*
X23044000Y-17391000D01*
X23119000Y-17241000D02*
X23119000Y-17391000D01*
X23044000Y-17316000D02*
X23194000Y-17316000D01*
X23054000Y-10081000D02*
X23204000Y-10231000D01*
X23204000Y-10081000D02*
X23054000Y-10231000D01*
X23129000Y-10081000D02*
X23129000Y-10231000D01*
X23054000Y-10156000D02*
X23204000Y-10156000D01*
X23054000Y-14851000D02*
X23204000Y-15001000D01*
X23204000Y-14851000D02*
X23054000Y-15001000D01*
X23129000Y-14851000D02*
X23129000Y-15001000D01*
X23054000Y-14926000D02*
X23204000Y-14926000D01*
X23074000Y-12471000D02*
X23224000Y-12621000D01*
X23224000Y-12471000D02*
X23074000Y-12621000D01*
X23149000Y-12471000D02*
X23149000Y-12621000D01*
X23074000Y-12546000D02*
X23224000Y-12546000D01*
X23679000Y-16987000D02*
X23829000Y-17137000D01*
X23829000Y-16987000D02*
X23679000Y-17137000D01*
X23754000Y-16987000D02*
X23754000Y-17137000D01*
X23679000Y-17062000D02*
X23829000Y-17062000D01*
X23689000Y-9827000D02*
X23839000Y-9977000D01*
X23839000Y-9827000D02*
X23689000Y-9977000D01*
X23764000Y-9827000D02*
X23764000Y-9977000D01*
X23689000Y-9902000D02*
X23839000Y-9902000D01*
X23689000Y-14597000D02*
X23839000Y-14747000D01*
X23839000Y-14597000D02*
X23689000Y-14747000D01*
X23764000Y-14597000D02*
X23764000Y-14747000D01*
X23689000Y-14672000D02*
X23839000Y-14672000D01*
X23709000Y-12217000D02*
X23859000Y-12367000D01*
X23859000Y-12217000D02*
X23709000Y-12367000D01*
X23784000Y-12217000D02*
X23784000Y-12367000D01*
X23709000Y-12292000D02*
X23859000Y-12292000D01*
X24206044Y-20906531D02*
X24356044Y-21056531D01*
X24356044Y-20906531D02*
X24206044Y-21056531D01*
X24281044Y-20906531D02*
X24281044Y-21056531D01*
X24206044Y-20981531D02*
X24356044Y-20981531D01*
X24882970Y-21004060D02*
X25032970Y-21154060D01*
X25032970Y-21004060D02*
X24882970Y-21154060D01*
X24957970Y-21004060D02*
X24957970Y-21154060D01*
X24882970Y-21079060D02*
X25032970Y-21079060D01*
X24954000Y-7251000D02*
X25104000Y-7401000D01*
X25104000Y-7251000D02*
X24954000Y-7401000D01*
X25029000Y-7251000D02*
X25029000Y-7401000D01*
X24954000Y-7326000D02*
X25104000Y-7326000D01*
X25434000Y-14861000D02*
X25584000Y-15011000D01*
X25584000Y-14861000D02*
X25434000Y-15011000D01*
X25509000Y-14861000D02*
X25509000Y-15011000D01*
X25434000Y-14936000D02*
X25584000Y-14936000D01*
X25444000Y-12471000D02*
X25594000Y-12621000D01*
X25594000Y-12471000D02*
X25444000Y-12621000D01*
X25519000Y-12471000D02*
X25519000Y-12621000D01*
X25444000Y-12546000D02*
X25594000Y-12546000D01*
X25454000Y-10091000D02*
X25604000Y-10241000D01*
X25604000Y-10091000D02*
X25454000Y-10241000D01*
X25529000Y-10091000D02*
X25529000Y-10241000D01*
X25454000Y-10166000D02*
X25604000Y-10166000D01*
X25454000Y-17241000D02*
X25604000Y-17391000D01*
X25604000Y-17241000D02*
X25454000Y-17391000D01*
X25529000Y-17241000D02*
X25529000Y-17391000D01*
X25454000Y-17316000D02*
X25604000Y-17316000D01*
X25589000Y-6997000D02*
X25739000Y-7147000D01*
X25739000Y-6997000D02*
X25589000Y-7147000D01*
X25664000Y-6997000D02*
X25664000Y-7147000D01*
X25589000Y-7072000D02*
X25739000Y-7072000D01*
X26069000Y-14607000D02*
X26219000Y-14757000D01*
X26219000Y-14607000D02*
X26069000Y-14757000D01*
X26144000Y-14607000D02*
X26144000Y-14757000D01*
X26069000Y-14682000D02*
X26219000Y-14682000D01*
X26079000Y-12217000D02*
X26229000Y-12367000D01*
X26229000Y-12217000D02*
X26079000Y-12367000D01*
X26154000Y-12217000D02*
X26154000Y-12367000D01*
X26079000Y-12292000D02*
X26229000Y-12292000D01*
X26089000Y-9837000D02*
X26239000Y-9987000D01*
X26239000Y-9837000D02*
X26089000Y-9987000D01*
X26164000Y-9837000D02*
X26164000Y-9987000D01*
X26089000Y-9912000D02*
X26239000Y-9912000D01*
X26089000Y-16987000D02*
X26239000Y-17137000D01*
X26239000Y-16987000D02*
X26089000Y-17137000D01*
X26164000Y-16987000D02*
X26164000Y-17137000D01*
X26089000Y-17062000D02*
X26239000Y-17062000D01*
X26276044Y-22086531D02*
X26426044Y-22236531D01*
X26426044Y-22086531D02*
X26276044Y-22236531D01*
X26351044Y-22086531D02*
X26351044Y-22236531D01*
X26276044Y-22161531D02*
X26426044Y-22161531D01*
X26952970Y-22184060D02*
X27102970Y-22334060D01*
X27102970Y-22184060D02*
X26952970Y-22334060D01*
X27027970Y-22184060D02*
X27027970Y-22334060D01*
X26952970Y-22259060D02*
X27102970Y-22259060D01*
X27456044Y-20026531D02*
X27606044Y-20176531D01*
X27606044Y-20026531D02*
X27456044Y-20176531D01*
X27531044Y-20026531D02*
X27531044Y-20176531D01*
X27456044Y-20101531D02*
X27606044Y-20101531D01*
X27699000Y-13417000D02*
X27849000Y-13567000D01*
X27849000Y-13417000D02*
X27699000Y-13567000D01*
X27774000Y-13417000D02*
X27774000Y-13567000D01*
X27699000Y-13492000D02*
X27849000Y-13492000D01*
X27721000Y-16743000D02*
X27871000Y-16893000D01*
X27871000Y-16743000D02*
X27721000Y-16893000D01*
X27796000Y-16743000D02*
X27796000Y-16893000D01*
X27721000Y-16818000D02*
X27871000Y-16818000D01*
X27824000Y-7241000D02*
X27974000Y-7391000D01*
X27974000Y-7241000D02*
X27824000Y-7391000D01*
X27899000Y-7241000D02*
X27899000Y-7391000D01*
X27824000Y-7316000D02*
X27974000Y-7316000D01*
X27824000Y-10091000D02*
X27974000Y-10241000D01*
X27974000Y-10091000D02*
X27824000Y-10241000D01*
X27899000Y-10091000D02*
X27899000Y-10241000D01*
X27824000Y-10166000D02*
X27974000Y-10166000D01*
X27953000Y-14052000D02*
X28103000Y-14202000D01*
X28103000Y-14052000D02*
X27953000Y-14202000D01*
X28028000Y-14052000D02*
X28028000Y-14202000D01*
X27953000Y-14127000D02*
X28103000Y-14127000D01*
X27975000Y-17378000D02*
X28125000Y-17528000D01*
X28125000Y-17378000D02*
X27975000Y-17528000D01*
X28050000Y-17378000D02*
X28050000Y-17528000D01*
X27975000Y-17453000D02*
X28125000Y-17453000D01*
X28132970Y-20124060D02*
X28282970Y-20274060D01*
X28282970Y-20124060D02*
X28132970Y-20274060D01*
X28207970Y-20124060D02*
X28207970Y-20274060D01*
X28132970Y-20199060D02*
X28282970Y-20199060D01*
X28336044Y-23296530D02*
X28486044Y-23446530D01*
X28486044Y-23296530D02*
X28336044Y-23446530D01*
X28411044Y-23296530D02*
X28411044Y-23446530D01*
X28336044Y-23371530D02*
X28486044Y-23371530D01*
X28459000Y-6987000D02*
X28609000Y-7137000D01*
X28609000Y-6987000D02*
X28459000Y-7137000D01*
X28534000Y-6987000D02*
X28534000Y-7137000D01*
X28459000Y-7062000D02*
X28609000Y-7062000D01*
X28459000Y-9837000D02*
X28609000Y-9987000D01*
X28609000Y-9837000D02*
X28459000Y-9987000D01*
X28534000Y-9837000D02*
X28534000Y-9987000D01*
X28459000Y-9912000D02*
X28609000Y-9912000D01*
X29012970Y-23394060D02*
X29162970Y-23544060D01*
X29162970Y-23394060D02*
X29012970Y-23544060D01*
X29087970Y-23394060D02*
X29087970Y-23544060D01*
X29012970Y-23469060D02*
X29162970Y-23469060D01*
X33545044Y-23661530D02*
X33695044Y-23811530D01*
X33695044Y-23661530D02*
X33545044Y-23811530D01*
X33620044Y-23661530D02*
X33620044Y-23811530D01*
X33545044Y-23736530D02*
X33695044Y-23736530D01*
X33662000Y-13441000D02*
X33812000Y-13591000D01*
X33812000Y-13441000D02*
X33662000Y-13591000D01*
X33737000Y-13441000D02*
X33737000Y-13591000D01*
X33662000Y-13516000D02*
X33812000Y-13516000D01*
X33672000Y-16771000D02*
X33822000Y-16921000D01*
X33822000Y-16771000D02*
X33672000Y-16921000D01*
X33747000Y-16771000D02*
X33747000Y-16921000D01*
X33672000Y-16846000D02*
X33822000Y-16846000D01*
X33757000Y-7255000D02*
X33907000Y-7405000D01*
X33907000Y-7255000D02*
X33757000Y-7405000D01*
X33832000Y-7255000D02*
X33832000Y-7405000D01*
X33757000Y-7330000D02*
X33907000Y-7330000D01*
X33777000Y-10105000D02*
X33927000Y-10255000D01*
X33927000Y-10105000D02*
X33777000Y-10255000D01*
X33852000Y-10105000D02*
X33852000Y-10255000D01*
X33777000Y-10180000D02*
X33927000Y-10180000D01*
X33916000Y-14076000D02*
X34066000Y-14226000D01*
X34066000Y-14076000D02*
X33916000Y-14226000D01*
X33991000Y-14076000D02*
X33991000Y-14226000D01*
X33916000Y-14151000D02*
X34066000Y-14151000D01*
X33926000Y-17406000D02*
X34076000Y-17556000D01*
X34076000Y-17406000D02*
X33926000Y-17556000D01*
X34001000Y-17406000D02*
X34001000Y-17556000D01*
X33926000Y-17481000D02*
X34076000Y-17481000D01*
X33967970Y-23124060D02*
X34117970Y-23274060D01*
X34117970Y-23124060D02*
X33967970Y-23274060D01*
X34042970Y-23124060D02*
X34042970Y-23274060D01*
X33967970Y-23199060D02*
X34117970Y-23199060D01*
X34392000Y-7001000D02*
X34542000Y-7151000D01*
X34542000Y-7001000D02*
X34392000Y-7151000D01*
X34467000Y-7001000D02*
X34467000Y-7151000D01*
X34392000Y-7076000D02*
X34542000Y-7076000D01*
X34412000Y-9851000D02*
X34562000Y-10001000D01*
X34562000Y-9851000D02*
X34412000Y-10001000D01*
X34487000Y-9851000D02*
X34487000Y-10001000D01*
X34412000Y-9926000D02*
X34562000Y-9926000D01*
X34750044Y-20398471D02*
X34900044Y-20548471D01*
X34900044Y-20398471D02*
X34750044Y-20548471D01*
X34825044Y-20398471D02*
X34825044Y-20548471D01*
X34750044Y-20473471D02*
X34900044Y-20473471D01*
X35172970Y-19861000D02*
X35322970Y-20011000D01*
X35322970Y-19861000D02*
X35172970Y-20011000D01*
X35247970Y-19861000D02*
X35247970Y-20011000D01*
X35172970Y-19936000D02*
X35322970Y-19936000D01*
X35615044Y-22471530D02*
X35765044Y-22621530D01*
X35765044Y-22471530D02*
X35615044Y-22621530D01*
X35690044Y-22471530D02*
X35690044Y-22621530D01*
X35615044Y-22546530D02*
X35765044Y-22546530D01*
X36037970Y-21934060D02*
X36187970Y-22084060D01*
X36187970Y-21934060D02*
X36037970Y-22084060D01*
X36112970Y-21934060D02*
X36112970Y-22084060D01*
X36037970Y-22009060D02*
X36187970Y-22009060D01*
X36157000Y-14875000D02*
X36307000Y-15025000D01*
X36307000Y-14875000D02*
X36157000Y-15025000D01*
X36232000Y-14875000D02*
X36232000Y-15025000D01*
X36157000Y-14950000D02*
X36307000Y-14950000D01*
X36167000Y-10095000D02*
X36317000Y-10245000D01*
X36317000Y-10095000D02*
X36167000Y-10245000D01*
X36242000Y-10095000D02*
X36242000Y-10245000D01*
X36167000Y-10170000D02*
X36317000Y-10170000D01*
X36177000Y-17245000D02*
X36327000Y-17395000D01*
X36327000Y-17245000D02*
X36177000Y-17395000D01*
X36252000Y-17245000D02*
X36252000Y-17395000D01*
X36177000Y-17320000D02*
X36327000Y-17320000D01*
X36187000Y-12495000D02*
X36337000Y-12645000D01*
X36337000Y-12495000D02*
X36187000Y-12645000D01*
X36262000Y-12495000D02*
X36262000Y-12645000D01*
X36187000Y-12570000D02*
X36337000Y-12570000D01*
X36637000Y-7245000D02*
X36787000Y-7395000D01*
X36787000Y-7245000D02*
X36637000Y-7395000D01*
X36712000Y-7245000D02*
X36712000Y-7395000D01*
X36637000Y-7320000D02*
X36787000Y-7320000D01*
X36792000Y-14621000D02*
X36942000Y-14771000D01*
X36942000Y-14621000D02*
X36792000Y-14771000D01*
X36867000Y-14621000D02*
X36867000Y-14771000D01*
X36792000Y-14696000D02*
X36942000Y-14696000D01*
X36802000Y-9841000D02*
X36952000Y-9991000D01*
X36952000Y-9841000D02*
X36802000Y-9991000D01*
X36877000Y-9841000D02*
X36877000Y-9991000D01*
X36802000Y-9916000D02*
X36952000Y-9916000D01*
X36812000Y-16991000D02*
X36962000Y-17141000D01*
X36962000Y-16991000D02*
X36812000Y-17141000D01*
X36887000Y-16991000D02*
X36887000Y-17141000D01*
X36812000Y-17066000D02*
X36962000Y-17066000D01*
X36822000Y-12241000D02*
X36972000Y-12391000D01*
X36972000Y-12241000D02*
X36822000Y-12391000D01*
X36897000Y-12241000D02*
X36897000Y-12391000D01*
X36822000Y-12316000D02*
X36972000Y-12316000D01*
X37272000Y-6991000D02*
X37422000Y-7141000D01*
X37422000Y-6991000D02*
X37272000Y-7141000D01*
X37347000Y-6991000D02*
X37347000Y-7141000D01*
X37272000Y-7066000D02*
X37422000Y-7066000D01*
X37675044Y-21271531D02*
X37825044Y-21421531D01*
X37825044Y-21271531D02*
X37675044Y-21421531D01*
X37750044Y-21271531D02*
X37750044Y-21421531D01*
X37675044Y-21346531D02*
X37825044Y-21346531D01*
X38097970Y-20734060D02*
X38247970Y-20884060D01*
X38247970Y-20734060D02*
X38097970Y-20884060D01*
X38172970Y-20734060D02*
X38172970Y-20884060D01*
X38097970Y-20809060D02*
X38247970Y-20809060D01*
X38547000Y-10115000D02*
X38697000Y-10265000D01*
X38697000Y-10115000D02*
X38547000Y-10265000D01*
X38622000Y-10115000D02*
X38622000Y-10265000D01*
X38547000Y-10190000D02*
X38697000Y-10190000D01*
X38547000Y-12485000D02*
X38697000Y-12635000D01*
X38697000Y-12485000D02*
X38547000Y-12635000D01*
X38622000Y-12485000D02*
X38622000Y-12635000D01*
X38547000Y-12560000D02*
X38697000Y-12560000D01*
X38557000Y-14865000D02*
X38707000Y-15015000D01*
X38707000Y-14865000D02*
X38557000Y-15015000D01*
X38632000Y-14865000D02*
X38632000Y-15015000D01*
X38557000Y-14940000D02*
X38707000Y-14940000D01*
X38557000Y-17225000D02*
X38707000Y-17375000D01*
X38707000Y-17225000D02*
X38557000Y-17375000D01*
X38632000Y-17225000D02*
X38632000Y-17375000D01*
X38557000Y-17300000D02*
X38707000Y-17300000D01*
X39182000Y-9861000D02*
X39332000Y-10011000D01*
X39332000Y-9861000D02*
X39182000Y-10011000D01*
X39257000Y-9861000D02*
X39257000Y-10011000D01*
X39182000Y-9936000D02*
X39332000Y-9936000D01*
X39182000Y-12231000D02*
X39332000Y-12381000D01*
X39332000Y-12231000D02*
X39182000Y-12381000D01*
X39257000Y-12231000D02*
X39257000Y-12381000D01*
X39182000Y-12306000D02*
X39332000Y-12306000D01*
X39192000Y-14611000D02*
X39342000Y-14761000D01*
X39342000Y-14611000D02*
X39192000Y-14761000D01*
X39267000Y-14611000D02*
X39267000Y-14761000D01*
X39192000Y-14686000D02*
X39342000Y-14686000D01*
X39192000Y-16971000D02*
X39342000Y-17121000D01*
X39342000Y-16971000D02*
X39192000Y-17121000D01*
X39267000Y-16971000D02*
X39267000Y-17121000D01*
X39192000Y-17046000D02*
X39342000Y-17046000D01*
X39497000Y-7255000D02*
X39647000Y-7405000D01*
X39647000Y-7255000D02*
X39497000Y-7405000D01*
X39572000Y-7255000D02*
X39572000Y-7405000D01*
X39497000Y-7330000D02*
X39647000Y-7330000D01*
X40132000Y-7001000D02*
X40282000Y-7151000D01*
X40282000Y-7001000D02*
X40132000Y-7151000D01*
X40207000Y-7001000D02*
X40207000Y-7151000D01*
X40132000Y-7076000D02*
X40282000Y-7076000D01*
X40927000Y-17015000D02*
X41077000Y-17165000D01*
X41077000Y-17015000D02*
X40927000Y-17165000D01*
X41002000Y-17015000D02*
X41002000Y-17165000D01*
X40927000Y-17090000D02*
X41077000Y-17090000D01*
X40937000Y-9875000D02*
X41087000Y-10025000D01*
X41087000Y-9875000D02*
X40937000Y-10025000D01*
X41012000Y-9875000D02*
X41012000Y-10025000D01*
X40937000Y-9950000D02*
X41087000Y-9950000D01*
X40937000Y-19395000D02*
X41087000Y-19545000D01*
X41087000Y-19395000D02*
X40937000Y-19545000D01*
X41012000Y-19395000D02*
X41012000Y-19545000D01*
X40937000Y-19470000D02*
X41087000Y-19470000D01*
X40947000Y-12245000D02*
X41097000Y-12395000D01*
X41097000Y-12245000D02*
X40947000Y-12395000D01*
X41022000Y-12245000D02*
X41022000Y-12395000D01*
X40947000Y-12320000D02*
X41097000Y-12320000D01*
X40947000Y-14645000D02*
X41097000Y-14795000D01*
X41097000Y-14645000D02*
X40947000Y-14795000D01*
X41022000Y-14645000D02*
X41022000Y-14795000D01*
X40947000Y-14720000D02*
X41097000Y-14720000D01*
X41562000Y-16761000D02*
X41712000Y-16911000D01*
X41712000Y-16761000D02*
X41562000Y-16911000D01*
X41637000Y-16761000D02*
X41637000Y-16911000D01*
X41562000Y-16836000D02*
X41712000Y-16836000D01*
X41572000Y-9621000D02*
X41722000Y-9771000D01*
X41722000Y-9621000D02*
X41572000Y-9771000D01*
X41647000Y-9621000D02*
X41647000Y-9771000D01*
X41572000Y-9696000D02*
X41722000Y-9696000D01*
X41572000Y-19141000D02*
X41722000Y-19291000D01*
X41722000Y-19141000D02*
X41572000Y-19291000D01*
X41647000Y-19141000D02*
X41647000Y-19291000D01*
X41572000Y-19216000D02*
X41722000Y-19216000D01*
X41582000Y-11991000D02*
X41732000Y-12141000D01*
X41732000Y-11991000D02*
X41582000Y-12141000D01*
X41657000Y-11991000D02*
X41657000Y-12141000D01*
X41582000Y-12066000D02*
X41732000Y-12066000D01*
X41582000Y-14391000D02*
X41732000Y-14541000D01*
X41732000Y-14391000D02*
X41582000Y-14541000D01*
X41657000Y-14391000D02*
X41657000Y-14541000D01*
X41582000Y-14466000D02*
X41732000Y-14466000D01*
X42351000Y-7257000D02*
X42501000Y-7407000D01*
X42501000Y-7257000D02*
X42351000Y-7407000D01*
X42426000Y-7257000D02*
X42426000Y-7407000D01*
X42351000Y-7332000D02*
X42501000Y-7332000D01*
X42986000Y-7003000D02*
X43136000Y-7153000D01*
X43136000Y-7003000D02*
X42986000Y-7153000D01*
X43061000Y-7003000D02*
X43061000Y-7153000D01*
X42986000Y-7078000D02*
X43136000Y-7078000D01*
X43297000Y-9645000D02*
X43447000Y-9795000D01*
X43447000Y-9645000D02*
X43297000Y-9795000D01*
X43372000Y-9645000D02*
X43372000Y-9795000D01*
X43297000Y-9720000D02*
X43447000Y-9720000D01*
X43313000Y-16767000D02*
X43463000Y-16917000D01*
X43463000Y-16767000D02*
X43313000Y-16917000D01*
X43388000Y-16767000D02*
X43388000Y-16917000D01*
X43313000Y-16842000D02*
X43463000Y-16842000D01*
X43317000Y-14405000D02*
X43467000Y-14555000D01*
X43467000Y-14405000D02*
X43317000Y-14555000D01*
X43392000Y-14405000D02*
X43392000Y-14555000D01*
X43317000Y-14480000D02*
X43467000Y-14480000D01*
X43327000Y-12025000D02*
X43477000Y-12175000D01*
X43477000Y-12025000D02*
X43327000Y-12175000D01*
X43402000Y-12025000D02*
X43402000Y-12175000D01*
X43327000Y-12100000D02*
X43477000Y-12100000D01*
X43327000Y-19135000D02*
X43477000Y-19285000D01*
X43477000Y-19135000D02*
X43327000Y-19285000D01*
X43402000Y-19135000D02*
X43402000Y-19285000D01*
X43327000Y-19210000D02*
X43477000Y-19210000D01*
X43932000Y-9391000D02*
X44082000Y-9541000D01*
X44082000Y-9391000D02*
X43932000Y-9541000D01*
X44007000Y-9391000D02*
X44007000Y-9541000D01*
X43932000Y-9466000D02*
X44082000Y-9466000D01*
X43948000Y-16513000D02*
X44098000Y-16663000D01*
X44098000Y-16513000D02*
X43948000Y-16663000D01*
X44023000Y-16513000D02*
X44023000Y-16663000D01*
X43948000Y-16588000D02*
X44098000Y-16588000D01*
X43952000Y-14151000D02*
X44102000Y-14301000D01*
X44102000Y-14151000D02*
X43952000Y-14301000D01*
X44027000Y-14151000D02*
X44027000Y-14301000D01*
X43952000Y-14226000D02*
X44102000Y-14226000D01*
X43962000Y-11771000D02*
X44112000Y-11921000D01*
X44112000Y-11771000D02*
X43962000Y-11921000D01*
X44037000Y-11771000D02*
X44037000Y-11921000D01*
X43962000Y-11846000D02*
X44112000Y-11846000D01*
X43962000Y-18881000D02*
X44112000Y-19031000D01*
X44112000Y-18881000D02*
X43962000Y-19031000D01*
X44037000Y-18881000D02*
X44037000Y-19031000D01*
X43962000Y-18956000D02*
X44112000Y-18956000D01*
X45217000Y-7265000D02*
X45367000Y-7415000D01*
X45367000Y-7265000D02*
X45217000Y-7415000D01*
X45292000Y-7265000D02*
X45292000Y-7415000D01*
X45217000Y-7340000D02*
X45367000Y-7340000D01*
X45677000Y-19405000D02*
X45827000Y-19555000D01*
X45827000Y-19405000D02*
X45677000Y-19555000D01*
X45752000Y-19405000D02*
X45752000Y-19555000D01*
X45677000Y-19480000D02*
X45827000Y-19480000D01*
X45697000Y-12485000D02*
X45847000Y-12635000D01*
X45847000Y-12485000D02*
X45697000Y-12635000D01*
X45772000Y-12485000D02*
X45772000Y-12635000D01*
X45697000Y-12560000D02*
X45847000Y-12560000D01*
X45707000Y-10105000D02*
X45857000Y-10255000D01*
X45857000Y-10105000D02*
X45707000Y-10255000D01*
X45782000Y-10105000D02*
X45782000Y-10255000D01*
X45707000Y-10180000D02*
X45857000Y-10180000D01*
X45707000Y-14635000D02*
X45857000Y-14785000D01*
X45857000Y-14635000D02*
X45707000Y-14785000D01*
X45782000Y-14635000D02*
X45782000Y-14785000D01*
X45707000Y-14710000D02*
X45857000Y-14710000D01*
X45737000Y-17025000D02*
X45887000Y-17175000D01*
X45887000Y-17025000D02*
X45737000Y-17175000D01*
X45812000Y-17025000D02*
X45812000Y-17175000D01*
X45737000Y-17100000D02*
X45887000Y-17100000D01*
X45852000Y-7011000D02*
X46002000Y-7161000D01*
X46002000Y-7011000D02*
X45852000Y-7161000D01*
X45927000Y-7011000D02*
X45927000Y-7161000D01*
X45852000Y-7086000D02*
X46002000Y-7086000D01*
X46312000Y-19151000D02*
X46462000Y-19301000D01*
X46462000Y-19151000D02*
X46312000Y-19301000D01*
X46387000Y-19151000D02*
X46387000Y-19301000D01*
X46312000Y-19226000D02*
X46462000Y-19226000D01*
X46332000Y-12231000D02*
X46482000Y-12381000D01*
X46482000Y-12231000D02*
X46332000Y-12381000D01*
X46407000Y-12231000D02*
X46407000Y-12381000D01*
X46332000Y-12306000D02*
X46482000Y-12306000D01*
X46342000Y-9851000D02*
X46492000Y-10001000D01*
X46492000Y-9851000D02*
X46342000Y-10001000D01*
X46417000Y-9851000D02*
X46417000Y-10001000D01*
X46342000Y-9926000D02*
X46492000Y-9926000D01*
X46342000Y-14381000D02*
X46492000Y-14531000D01*
X46492000Y-14381000D02*
X46342000Y-14531000D01*
X46417000Y-14381000D02*
X46417000Y-14531000D01*
X46342000Y-14456000D02*
X46492000Y-14456000D01*
X46372000Y-16771000D02*
X46522000Y-16921000D01*
X46522000Y-16771000D02*
X46372000Y-16921000D01*
X46447000Y-16771000D02*
X46447000Y-16921000D01*
X46372000Y-16846000D02*
X46522000Y-16846000D01*
X48057000Y-15105000D02*
X48207000Y-15255000D01*
X48207000Y-15105000D02*
X48057000Y-15255000D01*
X48132000Y-15105000D02*
X48132000Y-15255000D01*
X48057000Y-15180000D02*
X48207000Y-15180000D01*
X48057000Y-19885000D02*
X48207000Y-20035000D01*
X48207000Y-19885000D02*
X48057000Y-20035000D01*
X48132000Y-19885000D02*
X48132000Y-20035000D01*
X48057000Y-19960000D02*
X48207000Y-19960000D01*
X48067000Y-10355000D02*
X48217000Y-10505000D01*
X48217000Y-10355000D02*
X48067000Y-10505000D01*
X48142000Y-10355000D02*
X48142000Y-10505000D01*
X48067000Y-10430000D02*
X48217000Y-10430000D01*
X48067000Y-17475000D02*
X48217000Y-17625000D01*
X48217000Y-17475000D02*
X48067000Y-17625000D01*
X48142000Y-17475000D02*
X48142000Y-17625000D01*
X48067000Y-17550000D02*
X48217000Y-17550000D01*
X48077000Y-7245000D02*
X48227000Y-7395000D01*
X48227000Y-7245000D02*
X48077000Y-7395000D01*
X48152000Y-7245000D02*
X48152000Y-7395000D01*
X48077000Y-7320000D02*
X48227000Y-7320000D01*
X48087000Y-12735000D02*
X48237000Y-12885000D01*
X48237000Y-12735000D02*
X48087000Y-12885000D01*
X48162000Y-12735000D02*
X48162000Y-12885000D01*
X48087000Y-12810000D02*
X48237000Y-12810000D01*
X48692000Y-14851000D02*
X48842000Y-15001000D01*
X48842000Y-14851000D02*
X48692000Y-15001000D01*
X48767000Y-14851000D02*
X48767000Y-15001000D01*
X48692000Y-14926000D02*
X48842000Y-14926000D01*
X48692000Y-19631000D02*
X48842000Y-19781000D01*
X48842000Y-19631000D02*
X48692000Y-19781000D01*
X48767000Y-19631000D02*
X48767000Y-19781000D01*
X48692000Y-19706000D02*
X48842000Y-19706000D01*
X48702000Y-10101000D02*
X48852000Y-10251000D01*
X48852000Y-10101000D02*
X48702000Y-10251000D01*
X48777000Y-10101000D02*
X48777000Y-10251000D01*
X48702000Y-10176000D02*
X48852000Y-10176000D01*
X48702000Y-17221000D02*
X48852000Y-17371000D01*
X48852000Y-17221000D02*
X48702000Y-17371000D01*
X48777000Y-17221000D02*
X48777000Y-17371000D01*
X48702000Y-17296000D02*
X48852000Y-17296000D01*
X48712000Y-6991000D02*
X48862000Y-7141000D01*
X48862000Y-6991000D02*
X48712000Y-7141000D01*
X48787000Y-6991000D02*
X48787000Y-7141000D01*
X48712000Y-7066000D02*
X48862000Y-7066000D01*
X48722000Y-12481000D02*
X48872000Y-12631000D01*
X48872000Y-12481000D02*
X48722000Y-12631000D01*
X48797000Y-12481000D02*
X48797000Y-12631000D01*
X48722000Y-12556000D02*
X48872000Y-12556000D01*
X50447000Y-19895000D02*
X50597000Y-20045000D01*
X50597000Y-19895000D02*
X50447000Y-20045000D01*
X50522000Y-19895000D02*
X50522000Y-20045000D01*
X50447000Y-19970000D02*
X50597000Y-19970000D01*
X50927000Y-15115000D02*
X51077000Y-15265000D01*
X51077000Y-15115000D02*
X50927000Y-15265000D01*
X51002000Y-15115000D02*
X51002000Y-15265000D01*
X50927000Y-15190000D02*
X51077000Y-15190000D01*
X50937000Y-10345000D02*
X51087000Y-10495000D01*
X51087000Y-10345000D02*
X50937000Y-10495000D01*
X51012000Y-10345000D02*
X51012000Y-10495000D01*
X50937000Y-10420000D02*
X51087000Y-10420000D01*
X50937000Y-12725000D02*
X51087000Y-12875000D01*
X51087000Y-12725000D02*
X50937000Y-12875000D01*
X51012000Y-12725000D02*
X51012000Y-12875000D01*
X50937000Y-12800000D02*
X51087000Y-12800000D01*
X50947000Y-7255000D02*
X51097000Y-7405000D01*
X51097000Y-7255000D02*
X50947000Y-7405000D01*
X51022000Y-7255000D02*
X51022000Y-7405000D01*
X50947000Y-7330000D02*
X51097000Y-7330000D01*
X50957000Y-17485000D02*
X51107000Y-17635000D01*
X51107000Y-17485000D02*
X50957000Y-17635000D01*
X51032000Y-17485000D02*
X51032000Y-17635000D01*
X50957000Y-17560000D02*
X51107000Y-17560000D01*
X51082000Y-19641000D02*
X51232000Y-19791000D01*
X51232000Y-19641000D02*
X51082000Y-19791000D01*
X51157000Y-19641000D02*
X51157000Y-19791000D01*
X51082000Y-19716000D02*
X51232000Y-19716000D01*
X51562000Y-14861000D02*
X51712000Y-15011000D01*
X51712000Y-14861000D02*
X51562000Y-15011000D01*
X51637000Y-14861000D02*
X51637000Y-15011000D01*
X51562000Y-14936000D02*
X51712000Y-14936000D01*
X51572000Y-10091000D02*
X51722000Y-10241000D01*
X51722000Y-10091000D02*
X51572000Y-10241000D01*
X51647000Y-10091000D02*
X51647000Y-10241000D01*
X51572000Y-10166000D02*
X51722000Y-10166000D01*
X51572000Y-12471000D02*
X51722000Y-12621000D01*
X51722000Y-12471000D02*
X51572000Y-12621000D01*
X51647000Y-12471000D02*
X51647000Y-12621000D01*
X51572000Y-12546000D02*
X51722000Y-12546000D01*
X51582000Y-7001000D02*
X51732000Y-7151000D01*
X51732000Y-7001000D02*
X51582000Y-7151000D01*
X51657000Y-7001000D02*
X51657000Y-7151000D01*
X51582000Y-7076000D02*
X51732000Y-7076000D01*
X51592000Y-17231000D02*
X51742000Y-17381000D01*
X51742000Y-17231000D02*
X51592000Y-17381000D01*
X51667000Y-17231000D02*
X51667000Y-17381000D01*
X51592000Y-17306000D02*
X51742000Y-17306000D01*
D18*
X8995000Y-14395000D02*
X9425000Y-14825000D01*
X9425000Y-14395000D02*
X8995000Y-14825000D01*
X9362029Y-14762029D02*
X9362029Y-14457971D01*
X9057971Y-14457971D01*
X9057971Y-14762029D01*
X9362029Y-14762029D01*
X8995000Y-25375000D02*
X9425000Y-25805000D01*
X9425000Y-25375000D02*
X8995000Y-25805000D01*
X9362029Y-25742029D02*
X9362029Y-25437971D01*
X9057971Y-25437971D01*
X9057971Y-25742029D01*
X9362029Y-25742029D01*
X9005000Y-3195000D02*
X9435000Y-3625000D01*
X9435000Y-3195000D02*
X9005000Y-3625000D01*
X9372029Y-3562029D02*
X9372029Y-3257971D01*
X9067971Y-3257971D01*
X9067971Y-3562029D01*
X9372029Y-3562029D01*
X19535000Y-25375000D02*
X19965000Y-25805000D01*
X19965000Y-25375000D02*
X19535000Y-25805000D01*
X19902029Y-25742029D02*
X19902029Y-25437971D01*
X19597971Y-25437971D01*
X19597971Y-25742029D01*
X19902029Y-25742029D01*
X19545000Y-3195000D02*
X19975000Y-3625000D01*
X19975000Y-3195000D02*
X19545000Y-3625000D01*
X19912029Y-3562029D02*
X19912029Y-3257971D01*
X19607971Y-3257971D01*
X19607971Y-3562029D01*
X19912029Y-3562029D01*
X29875000Y-14375000D02*
X30305000Y-14805000D01*
X30305000Y-14375000D02*
X29875000Y-14805000D01*
X30242029Y-14742029D02*
X30242029Y-14437971D01*
X29937971Y-14437971D01*
X29937971Y-14742029D01*
X30242029Y-14742029D01*
X29915000Y-25355000D02*
X30345000Y-25785000D01*
X30345000Y-25355000D02*
X29915000Y-25785000D01*
X30282029Y-25722029D02*
X30282029Y-25417971D01*
X29977971Y-25417971D01*
X29977971Y-25722029D01*
X30282029Y-25722029D01*
X30060000Y-3045000D02*
X30490000Y-3475000D01*
X30490000Y-3045000D02*
X30060000Y-3475000D01*
X30427029Y-3412029D02*
X30427029Y-3107971D01*
X30122971Y-3107971D01*
X30122971Y-3412029D01*
X30427029Y-3412029D01*
X31985000Y-3050000D02*
X32415000Y-3480000D01*
X32415000Y-3050000D02*
X31985000Y-3480000D01*
X32352029Y-3417029D02*
X32352029Y-3112971D01*
X32047971Y-3112971D01*
X32047971Y-3417029D01*
X32352029Y-3417029D01*
X32170000Y-25375000D02*
X32600000Y-25805000D01*
X32600000Y-25375000D02*
X32170000Y-25805000D01*
X32537029Y-25742029D02*
X32537029Y-25437971D01*
X32232971Y-25437971D01*
X32232971Y-25742029D01*
X32537029Y-25742029D01*
X32485000Y-14385000D02*
X32915000Y-14815000D01*
X32915000Y-14385000D02*
X32485000Y-14815000D01*
X32852029Y-14752029D02*
X32852029Y-14447971D01*
X32547971Y-14447971D01*
X32547971Y-14752029D01*
X32852029Y-14752029D01*
X42435000Y-25520000D02*
X42865000Y-25950000D01*
X42865000Y-25520000D02*
X42435000Y-25950000D01*
X42802029Y-25887029D02*
X42802029Y-25582971D01*
X42497971Y-25582971D01*
X42497971Y-25887029D01*
X42802029Y-25887029D01*
X42440000Y-3050000D02*
X42870000Y-3480000D01*
X42870000Y-3050000D02*
X42440000Y-3480000D01*
X42807029Y-3417029D02*
X42807029Y-3112971D01*
X42502971Y-3112971D01*
X42502971Y-3417029D01*
X42807029Y-3417029D01*
X52765000Y-14380000D02*
X53195000Y-14810000D01*
X53195000Y-14380000D02*
X52765000Y-14810000D01*
X53132029Y-14747029D02*
X53132029Y-14442971D01*
X52827971Y-14442971D01*
X52827971Y-14747029D01*
X53132029Y-14747029D01*
X52770000Y-3045000D02*
X53200000Y-3475000D01*
X53200000Y-3045000D02*
X52770000Y-3475000D01*
X53137029Y-3412029D02*
X53137029Y-3107971D01*
X52832971Y-3107971D01*
X52832971Y-3412029D01*
X53137029Y-3412029D01*
X52770000Y-25520000D02*
X53200000Y-25950000D01*
X53200000Y-25520000D02*
X52770000Y-25950000D01*
X53137029Y-25887029D02*
X53137029Y-25582971D01*
X52832971Y-25582971D01*
X52832971Y-25887029D01*
X53137029Y-25887029D01*
D11*
X8752619Y-26615476D02*
X8752619Y-26415476D01*
X8800238Y-26415476D01*
X8828810Y-26425000D01*
X8847857Y-26444048D01*
X8857381Y-26463095D01*
X8866905Y-26501190D01*
X8866905Y-26529762D01*
X8857381Y-26567857D01*
X8847857Y-26586905D01*
X8828810Y-26605952D01*
X8800238Y-26615476D01*
X8752619Y-26615476D01*
X8952619Y-26615476D02*
X8952619Y-26482143D01*
X8952619Y-26520238D02*
X8962143Y-26501190D01*
X8971667Y-26491667D01*
X8990714Y-26482143D01*
X9009762Y-26482143D01*
X9076429Y-26615476D02*
X9076429Y-26482143D01*
X9076429Y-26415476D02*
X9066905Y-26425000D01*
X9076429Y-26434524D01*
X9085952Y-26425000D01*
X9076429Y-26415476D01*
X9076429Y-26434524D01*
X9200238Y-26615476D02*
X9181190Y-26605952D01*
X9171667Y-26586905D01*
X9171667Y-26415476D01*
X9305000Y-26615476D02*
X9285952Y-26605952D01*
X9276429Y-26586905D01*
X9276429Y-26415476D01*
X9533571Y-26615476D02*
X9533571Y-26415476D01*
X9600238Y-26558333D01*
X9666905Y-26415476D01*
X9666905Y-26615476D01*
X9847857Y-26615476D02*
X9847857Y-26510714D01*
X9838333Y-26491667D01*
X9819286Y-26482143D01*
X9781190Y-26482143D01*
X9762143Y-26491667D01*
X9847857Y-26605952D02*
X9828810Y-26615476D01*
X9781190Y-26615476D01*
X9762143Y-26605952D01*
X9752619Y-26586905D01*
X9752619Y-26567857D01*
X9762143Y-26548809D01*
X9781190Y-26539286D01*
X9828810Y-26539286D01*
X9847857Y-26529762D01*
X9943095Y-26482143D02*
X9943095Y-26682143D01*
X9943095Y-26491667D02*
X9962143Y-26482143D01*
X10000238Y-26482143D01*
X10019286Y-26491667D01*
X10028810Y-26501190D01*
X10038333Y-26520238D01*
X10038333Y-26577381D01*
X10028810Y-26596428D01*
X10019286Y-26605952D01*
X10000238Y-26615476D01*
X9962143Y-26615476D01*
X9943095Y-26605952D01*
X10124048Y-26596428D02*
X10133571Y-26605952D01*
X10124048Y-26615476D01*
X10114524Y-26605952D01*
X10124048Y-26596428D01*
X10124048Y-26615476D01*
X10124048Y-26491667D02*
X10133571Y-26501190D01*
X10124048Y-26510714D01*
X10114524Y-26501190D01*
X10124048Y-26491667D01*
X10124048Y-26510714D01*
D12*
X8455000Y-26925000D02*
X8495000Y-26965000D01*
X8495000Y-26925000D02*
X8455000Y-26965000D01*
D11*
X8790714Y-26835476D02*
X8809762Y-26835476D01*
X8828810Y-26845000D01*
X8838333Y-26854524D01*
X8847857Y-26873571D01*
X8857381Y-26911667D01*
X8857381Y-26959286D01*
X8847857Y-26997381D01*
X8838333Y-27016428D01*
X8828810Y-27025952D01*
X8809762Y-27035476D01*
X8790714Y-27035476D01*
X8771667Y-27025952D01*
X8762143Y-27016428D01*
X8752619Y-26997381D01*
X8743095Y-26959286D01*
X8743095Y-26911667D01*
X8752619Y-26873571D01*
X8762143Y-26854524D01*
X8771667Y-26845000D01*
X8790714Y-26835476D01*
X8943095Y-27016428D02*
X8952619Y-27025952D01*
X8943095Y-27035476D01*
X8933571Y-27025952D01*
X8943095Y-27016428D01*
X8943095Y-27035476D01*
X9124048Y-26902143D02*
X9124048Y-27035476D01*
X9076429Y-26825952D02*
X9028810Y-26968809D01*
X9152619Y-26968809D01*
X9266905Y-26835476D02*
X9285952Y-26835476D01*
X9305000Y-26845000D01*
X9314524Y-26854524D01*
X9324048Y-26873571D01*
X9333571Y-26911667D01*
X9333571Y-26959286D01*
X9324048Y-26997381D01*
X9314524Y-27016428D01*
X9305000Y-27025952D01*
X9285952Y-27035476D01*
X9266905Y-27035476D01*
X9247857Y-27025952D01*
X9238333Y-27016428D01*
X9228810Y-26997381D01*
X9219286Y-26959286D01*
X9219286Y-26911667D01*
X9228810Y-26873571D01*
X9238333Y-26854524D01*
X9247857Y-26845000D01*
X9266905Y-26835476D01*
X9457381Y-26835476D02*
X9476429Y-26835476D01*
X9495476Y-26845000D01*
X9505000Y-26854524D01*
X9514524Y-26873571D01*
X9524048Y-26911667D01*
X9524048Y-26959286D01*
X9514524Y-26997381D01*
X9505000Y-27016428D01*
X9495476Y-27025952D01*
X9476429Y-27035476D01*
X9457381Y-27035476D01*
X9438333Y-27025952D01*
X9428810Y-27016428D01*
X9419286Y-26997381D01*
X9409762Y-26959286D01*
X9409762Y-26911667D01*
X9419286Y-26873571D01*
X9428810Y-26854524D01*
X9438333Y-26845000D01*
X9457381Y-26835476D01*
X9609762Y-27035476D02*
X9609762Y-26902143D01*
X9609762Y-26921190D02*
X9619286Y-26911667D01*
X9638333Y-26902143D01*
X9666905Y-26902143D01*
X9685952Y-26911667D01*
X9695476Y-26930714D01*
X9695476Y-27035476D01*
X9695476Y-26930714D02*
X9705000Y-26911667D01*
X9724048Y-26902143D01*
X9752619Y-26902143D01*
X9771667Y-26911667D01*
X9781190Y-26930714D01*
X9781190Y-27035476D01*
X9876429Y-27035476D02*
X9876429Y-26902143D01*
X9876429Y-26921190D02*
X9885952Y-26911667D01*
X9905000Y-26902143D01*
X9933571Y-26902143D01*
X9952619Y-26911667D01*
X9962143Y-26930714D01*
X9962143Y-27035476D01*
X9962143Y-26930714D02*
X9971667Y-26911667D01*
X9990714Y-26902143D01*
X10019286Y-26902143D01*
X10038333Y-26911667D01*
X10047857Y-26930714D01*
X10047857Y-27035476D01*
X10438333Y-26825952D02*
X10266905Y-27083095D01*
X10695476Y-26835476D02*
X10714524Y-26835476D01*
X10733571Y-26845000D01*
X10743095Y-26854524D01*
X10752619Y-26873571D01*
X10762143Y-26911667D01*
X10762143Y-26959286D01*
X10752619Y-26997381D01*
X10743095Y-27016428D01*
X10733571Y-27025952D01*
X10714524Y-27035476D01*
X10695476Y-27035476D01*
X10676429Y-27025952D01*
X10666905Y-27016428D01*
X10657381Y-26997381D01*
X10647857Y-26959286D01*
X10647857Y-26911667D01*
X10657381Y-26873571D01*
X10666905Y-26854524D01*
X10676429Y-26845000D01*
X10695476Y-26835476D01*
X10847857Y-27016428D02*
X10857381Y-27025952D01*
X10847857Y-27035476D01*
X10838333Y-27025952D01*
X10847857Y-27016428D01*
X10847857Y-27035476D01*
X10981190Y-26835476D02*
X11000238Y-26835476D01*
X11019286Y-26845000D01*
X11028810Y-26854524D01*
X11038333Y-26873571D01*
X11047857Y-26911667D01*
X11047857Y-26959286D01*
X11038333Y-26997381D01*
X11028810Y-27016428D01*
X11019286Y-27025952D01*
X11000238Y-27035476D01*
X10981190Y-27035476D01*
X10962143Y-27025952D01*
X10952619Y-27016428D01*
X10943095Y-26997381D01*
X10933571Y-26959286D01*
X10933571Y-26911667D01*
X10943095Y-26873571D01*
X10952619Y-26854524D01*
X10962143Y-26845000D01*
X10981190Y-26835476D01*
X11238333Y-27035476D02*
X11124048Y-27035476D01*
X11181190Y-27035476D02*
X11181190Y-26835476D01*
X11162143Y-26864048D01*
X11143095Y-26883095D01*
X11124048Y-26892619D01*
X11419286Y-26835476D02*
X11324048Y-26835476D01*
X11314524Y-26930714D01*
X11324048Y-26921190D01*
X11343095Y-26911667D01*
X11390714Y-26911667D01*
X11409762Y-26921190D01*
X11419286Y-26930714D01*
X11428809Y-26949762D01*
X11428809Y-26997381D01*
X11419286Y-27016428D01*
X11409762Y-27025952D01*
X11390714Y-27035476D01*
X11343095Y-27035476D01*
X11324048Y-27025952D01*
X11314524Y-27016428D01*
X11495476Y-26835476D02*
X11628809Y-26835476D01*
X11543095Y-27035476D01*
X11695476Y-26835476D02*
X11695476Y-26873571D01*
X11771667Y-26835476D02*
X11771667Y-26873571D01*
X12066905Y-27111667D02*
X12057381Y-27102143D01*
X12038333Y-27073571D01*
X12028809Y-27054524D01*
X12019286Y-27025952D01*
X12009762Y-26978333D01*
X12009762Y-26940238D01*
X12019286Y-26892619D01*
X12028809Y-26864048D01*
X12038333Y-26845000D01*
X12057381Y-26816428D01*
X12066905Y-26806905D01*
X12171667Y-26921190D02*
X12152619Y-26911667D01*
X12143095Y-26902143D01*
X12133571Y-26883095D01*
X12133571Y-26873571D01*
X12143095Y-26854524D01*
X12152619Y-26845000D01*
X12171667Y-26835476D01*
X12209762Y-26835476D01*
X12228809Y-26845000D01*
X12238333Y-26854524D01*
X12247857Y-26873571D01*
X12247857Y-26883095D01*
X12238333Y-26902143D01*
X12228809Y-26911667D01*
X12209762Y-26921190D01*
X12171667Y-26921190D01*
X12152619Y-26930714D01*
X12143095Y-26940238D01*
X12133571Y-26959286D01*
X12133571Y-26997381D01*
X12143095Y-27016428D01*
X12152619Y-27025952D01*
X12171667Y-27035476D01*
X12209762Y-27035476D01*
X12228809Y-27025952D01*
X12238333Y-27016428D01*
X12247857Y-26997381D01*
X12247857Y-26959286D01*
X12238333Y-26940238D01*
X12228809Y-26930714D01*
X12209762Y-26921190D01*
X12343095Y-27035476D02*
X12381190Y-27035476D01*
X12400238Y-27025952D01*
X12409762Y-27016428D01*
X12428809Y-26987857D01*
X12438333Y-26949762D01*
X12438333Y-26873571D01*
X12428809Y-26854524D01*
X12419286Y-26845000D01*
X12400238Y-26835476D01*
X12362143Y-26835476D01*
X12343095Y-26845000D01*
X12333571Y-26854524D01*
X12324048Y-26873571D01*
X12324048Y-26921190D01*
X12333571Y-26940238D01*
X12343095Y-26949762D01*
X12362143Y-26959286D01*
X12400238Y-26959286D01*
X12419286Y-26949762D01*
X12428809Y-26940238D01*
X12438333Y-26921190D01*
X12676428Y-27035476D02*
X12676428Y-26835476D01*
X12762143Y-27035476D02*
X12762143Y-26930714D01*
X12752619Y-26911667D01*
X12733571Y-26902143D01*
X12705000Y-26902143D01*
X12685952Y-26911667D01*
X12676428Y-26921190D01*
X12885952Y-27035476D02*
X12866905Y-27025952D01*
X12857381Y-27016428D01*
X12847857Y-26997381D01*
X12847857Y-26940238D01*
X12857381Y-26921190D01*
X12866905Y-26911667D01*
X12885952Y-26902143D01*
X12914524Y-26902143D01*
X12933571Y-26911667D01*
X12943095Y-26921190D01*
X12952619Y-26940238D01*
X12952619Y-26997381D01*
X12943095Y-27016428D01*
X12933571Y-27025952D01*
X12914524Y-27035476D01*
X12885952Y-27035476D01*
X13066905Y-27035476D02*
X13047857Y-27025952D01*
X13038333Y-27006905D01*
X13038333Y-26835476D01*
X13219286Y-27025952D02*
X13200238Y-27035476D01*
X13162143Y-27035476D01*
X13143095Y-27025952D01*
X13133571Y-27006905D01*
X13133571Y-26930714D01*
X13143095Y-26911667D01*
X13162143Y-26902143D01*
X13200238Y-26902143D01*
X13219286Y-26911667D01*
X13228809Y-26930714D01*
X13228809Y-26949762D01*
X13133571Y-26968809D01*
X13305000Y-27025952D02*
X13324048Y-27035476D01*
X13362143Y-27035476D01*
X13381190Y-27025952D01*
X13390714Y-27006905D01*
X13390714Y-26997381D01*
X13381190Y-26978333D01*
X13362143Y-26968809D01*
X13333571Y-26968809D01*
X13314524Y-26959286D01*
X13305000Y-26940238D01*
X13305000Y-26930714D01*
X13314524Y-26911667D01*
X13333571Y-26902143D01*
X13362143Y-26902143D01*
X13381190Y-26911667D01*
X13457381Y-27111667D02*
X13466905Y-27102143D01*
X13485952Y-27073571D01*
X13495476Y-27054524D01*
X13505000Y-27025952D01*
X13514524Y-26978333D01*
X13514524Y-26940238D01*
X13505000Y-26892619D01*
X13495476Y-26864048D01*
X13485952Y-26845000D01*
X13466905Y-26816428D01*
X13457381Y-26806905D01*
D13*
X8495000Y-27209000D02*
G75*
G03*
X8495000Y-27209000I-37500J0D01*
G01*
D11*
X8790714Y-27099476D02*
X8809762Y-27099476D01*
X8828810Y-27109000D01*
X8838333Y-27118524D01*
X8847857Y-27137571D01*
X8857381Y-27175667D01*
X8857381Y-27223286D01*
X8847857Y-27261381D01*
X8838333Y-27280428D01*
X8828810Y-27289952D01*
X8809762Y-27299476D01*
X8790714Y-27299476D01*
X8771667Y-27289952D01*
X8762143Y-27280428D01*
X8752619Y-27261381D01*
X8743095Y-27223286D01*
X8743095Y-27175667D01*
X8752619Y-27137571D01*
X8762143Y-27118524D01*
X8771667Y-27109000D01*
X8790714Y-27099476D01*
X8943095Y-27280428D02*
X8952619Y-27289952D01*
X8943095Y-27299476D01*
X8933571Y-27289952D01*
X8943095Y-27280428D01*
X8943095Y-27299476D01*
X9019286Y-27099476D02*
X9152619Y-27099476D01*
X9066905Y-27299476D01*
X9324048Y-27099476D02*
X9228810Y-27099476D01*
X9219286Y-27194714D01*
X9228810Y-27185190D01*
X9247857Y-27175667D01*
X9295476Y-27175667D01*
X9314524Y-27185190D01*
X9324048Y-27194714D01*
X9333571Y-27213762D01*
X9333571Y-27261381D01*
X9324048Y-27280428D01*
X9314524Y-27289952D01*
X9295476Y-27299476D01*
X9247857Y-27299476D01*
X9228810Y-27289952D01*
X9219286Y-27280428D01*
X9457381Y-27099476D02*
X9476429Y-27099476D01*
X9495476Y-27109000D01*
X9505000Y-27118524D01*
X9514524Y-27137571D01*
X9524048Y-27175667D01*
X9524048Y-27223286D01*
X9514524Y-27261381D01*
X9505000Y-27280428D01*
X9495476Y-27289952D01*
X9476429Y-27299476D01*
X9457381Y-27299476D01*
X9438333Y-27289952D01*
X9428810Y-27280428D01*
X9419286Y-27261381D01*
X9409762Y-27223286D01*
X9409762Y-27175667D01*
X9419286Y-27137571D01*
X9428810Y-27118524D01*
X9438333Y-27109000D01*
X9457381Y-27099476D01*
X9609762Y-27299476D02*
X9609762Y-27166143D01*
X9609762Y-27185190D02*
X9619286Y-27175667D01*
X9638333Y-27166143D01*
X9666905Y-27166143D01*
X9685952Y-27175667D01*
X9695476Y-27194714D01*
X9695476Y-27299476D01*
X9695476Y-27194714D02*
X9705000Y-27175667D01*
X9724048Y-27166143D01*
X9752619Y-27166143D01*
X9771667Y-27175667D01*
X9781190Y-27194714D01*
X9781190Y-27299476D01*
X9876429Y-27299476D02*
X9876429Y-27166143D01*
X9876429Y-27185190D02*
X9885952Y-27175667D01*
X9905000Y-27166143D01*
X9933571Y-27166143D01*
X9952619Y-27175667D01*
X9962143Y-27194714D01*
X9962143Y-27299476D01*
X9962143Y-27194714D02*
X9971667Y-27175667D01*
X9990714Y-27166143D01*
X10019286Y-27166143D01*
X10038333Y-27175667D01*
X10047857Y-27194714D01*
X10047857Y-27299476D01*
X10438333Y-27089952D02*
X10266905Y-27347095D01*
X10695476Y-27099476D02*
X10714524Y-27099476D01*
X10733571Y-27109000D01*
X10743095Y-27118524D01*
X10752619Y-27137571D01*
X10762143Y-27175667D01*
X10762143Y-27223286D01*
X10752619Y-27261381D01*
X10743095Y-27280428D01*
X10733571Y-27289952D01*
X10714524Y-27299476D01*
X10695476Y-27299476D01*
X10676429Y-27289952D01*
X10666905Y-27280428D01*
X10657381Y-27261381D01*
X10647857Y-27223286D01*
X10647857Y-27175667D01*
X10657381Y-27137571D01*
X10666905Y-27118524D01*
X10676429Y-27109000D01*
X10695476Y-27099476D01*
X10847857Y-27280428D02*
X10857381Y-27289952D01*
X10847857Y-27299476D01*
X10838333Y-27289952D01*
X10847857Y-27280428D01*
X10847857Y-27299476D01*
X10981190Y-27099476D02*
X11000238Y-27099476D01*
X11019286Y-27109000D01*
X11028810Y-27118524D01*
X11038333Y-27137571D01*
X11047857Y-27175667D01*
X11047857Y-27223286D01*
X11038333Y-27261381D01*
X11028810Y-27280428D01*
X11019286Y-27289952D01*
X11000238Y-27299476D01*
X10981190Y-27299476D01*
X10962143Y-27289952D01*
X10952619Y-27280428D01*
X10943095Y-27261381D01*
X10933571Y-27223286D01*
X10933571Y-27175667D01*
X10943095Y-27137571D01*
X10952619Y-27118524D01*
X10962143Y-27109000D01*
X10981190Y-27099476D01*
X11124048Y-27118524D02*
X11133571Y-27109000D01*
X11152619Y-27099476D01*
X11200238Y-27099476D01*
X11219286Y-27109000D01*
X11228809Y-27118524D01*
X11238333Y-27137571D01*
X11238333Y-27156619D01*
X11228809Y-27185190D01*
X11114524Y-27299476D01*
X11238333Y-27299476D01*
X11333571Y-27299476D02*
X11371667Y-27299476D01*
X11390714Y-27289952D01*
X11400238Y-27280428D01*
X11419286Y-27251857D01*
X11428809Y-27213762D01*
X11428809Y-27137571D01*
X11419286Y-27118524D01*
X11409762Y-27109000D01*
X11390714Y-27099476D01*
X11352619Y-27099476D01*
X11333571Y-27109000D01*
X11324048Y-27118524D01*
X11314524Y-27137571D01*
X11314524Y-27185190D01*
X11324048Y-27204238D01*
X11333571Y-27213762D01*
X11352619Y-27223286D01*
X11390714Y-27223286D01*
X11409762Y-27213762D01*
X11419286Y-27204238D01*
X11428809Y-27185190D01*
X11609762Y-27099476D02*
X11514524Y-27099476D01*
X11505000Y-27194714D01*
X11514524Y-27185190D01*
X11533571Y-27175667D01*
X11581190Y-27175667D01*
X11600238Y-27185190D01*
X11609762Y-27194714D01*
X11619286Y-27213762D01*
X11619286Y-27261381D01*
X11609762Y-27280428D01*
X11600238Y-27289952D01*
X11581190Y-27299476D01*
X11533571Y-27299476D01*
X11514524Y-27289952D01*
X11505000Y-27280428D01*
X11695476Y-27099476D02*
X11695476Y-27137571D01*
X11771667Y-27099476D02*
X11771667Y-27137571D01*
X12066905Y-27375667D02*
X12057381Y-27366143D01*
X12038333Y-27337571D01*
X12028809Y-27318524D01*
X12019286Y-27289952D01*
X12009762Y-27242333D01*
X12009762Y-27204238D01*
X12019286Y-27156619D01*
X12028809Y-27128048D01*
X12038333Y-27109000D01*
X12057381Y-27080428D01*
X12066905Y-27070905D01*
X12171667Y-27185190D02*
X12152619Y-27175667D01*
X12143095Y-27166143D01*
X12133571Y-27147095D01*
X12133571Y-27137571D01*
X12143095Y-27118524D01*
X12152619Y-27109000D01*
X12171667Y-27099476D01*
X12209762Y-27099476D01*
X12228809Y-27109000D01*
X12238333Y-27118524D01*
X12247857Y-27137571D01*
X12247857Y-27147095D01*
X12238333Y-27166143D01*
X12228809Y-27175667D01*
X12209762Y-27185190D01*
X12171667Y-27185190D01*
X12152619Y-27194714D01*
X12143095Y-27204238D01*
X12133571Y-27223286D01*
X12133571Y-27261381D01*
X12143095Y-27280428D01*
X12152619Y-27289952D01*
X12171667Y-27299476D01*
X12209762Y-27299476D01*
X12228809Y-27289952D01*
X12238333Y-27280428D01*
X12247857Y-27261381D01*
X12247857Y-27223286D01*
X12238333Y-27204238D01*
X12228809Y-27194714D01*
X12209762Y-27185190D01*
X12485952Y-27299476D02*
X12485952Y-27099476D01*
X12571667Y-27299476D02*
X12571667Y-27194714D01*
X12562143Y-27175667D01*
X12543095Y-27166143D01*
X12514524Y-27166143D01*
X12495476Y-27175667D01*
X12485952Y-27185190D01*
X12695476Y-27299476D02*
X12676428Y-27289952D01*
X12666905Y-27280428D01*
X12657381Y-27261381D01*
X12657381Y-27204238D01*
X12666905Y-27185190D01*
X12676428Y-27175667D01*
X12695476Y-27166143D01*
X12724048Y-27166143D01*
X12743095Y-27175667D01*
X12752619Y-27185190D01*
X12762143Y-27204238D01*
X12762143Y-27261381D01*
X12752619Y-27280428D01*
X12743095Y-27289952D01*
X12724048Y-27299476D01*
X12695476Y-27299476D01*
X12876428Y-27299476D02*
X12857381Y-27289952D01*
X12847857Y-27270905D01*
X12847857Y-27099476D01*
X13028809Y-27289952D02*
X13009762Y-27299476D01*
X12971667Y-27299476D01*
X12952619Y-27289952D01*
X12943095Y-27270905D01*
X12943095Y-27194714D01*
X12952619Y-27175667D01*
X12971667Y-27166143D01*
X13009762Y-27166143D01*
X13028809Y-27175667D01*
X13038333Y-27194714D01*
X13038333Y-27213762D01*
X12943095Y-27232809D01*
X13114524Y-27289952D02*
X13133571Y-27299476D01*
X13171667Y-27299476D01*
X13190714Y-27289952D01*
X13200238Y-27270905D01*
X13200238Y-27261381D01*
X13190714Y-27242333D01*
X13171667Y-27232809D01*
X13143095Y-27232809D01*
X13124048Y-27223286D01*
X13114524Y-27204238D01*
X13114524Y-27194714D01*
X13124048Y-27175667D01*
X13143095Y-27166143D01*
X13171667Y-27166143D01*
X13190714Y-27175667D01*
X13266905Y-27375667D02*
X13276428Y-27366143D01*
X13295476Y-27337571D01*
X13305000Y-27318524D01*
X13314524Y-27289952D01*
X13324048Y-27242333D01*
X13324048Y-27204238D01*
X13314524Y-27156619D01*
X13305000Y-27128048D01*
X13295476Y-27109000D01*
X13276428Y-27080428D01*
X13266905Y-27070905D01*
D14*
X8450000Y-27428000D02*
X8450000Y-27518000D01*
X8405000Y-27473000D02*
X8495000Y-27473000D01*
D11*
X8790714Y-27363476D02*
X8809762Y-27363476D01*
X8828810Y-27373000D01*
X8838333Y-27382524D01*
X8847857Y-27401571D01*
X8857381Y-27439667D01*
X8857381Y-27487286D01*
X8847857Y-27525381D01*
X8838333Y-27544428D01*
X8828810Y-27553952D01*
X8809762Y-27563476D01*
X8790714Y-27563476D01*
X8771667Y-27553952D01*
X8762143Y-27544428D01*
X8752619Y-27525381D01*
X8743095Y-27487286D01*
X8743095Y-27439667D01*
X8752619Y-27401571D01*
X8762143Y-27382524D01*
X8771667Y-27373000D01*
X8790714Y-27363476D01*
X8943095Y-27544428D02*
X8952619Y-27553952D01*
X8943095Y-27563476D01*
X8933571Y-27553952D01*
X8943095Y-27544428D01*
X8943095Y-27563476D01*
X9047857Y-27563476D02*
X9085952Y-27563476D01*
X9105000Y-27553952D01*
X9114524Y-27544428D01*
X9133571Y-27515857D01*
X9143095Y-27477762D01*
X9143095Y-27401571D01*
X9133571Y-27382524D01*
X9124048Y-27373000D01*
X9105000Y-27363476D01*
X9066905Y-27363476D01*
X9047857Y-27373000D01*
X9038333Y-27382524D01*
X9028810Y-27401571D01*
X9028810Y-27449190D01*
X9038333Y-27468238D01*
X9047857Y-27477762D01*
X9066905Y-27487286D01*
X9105000Y-27487286D01*
X9124048Y-27477762D01*
X9133571Y-27468238D01*
X9143095Y-27449190D01*
X9266905Y-27363476D02*
X9285952Y-27363476D01*
X9305000Y-27373000D01*
X9314524Y-27382524D01*
X9324048Y-27401571D01*
X9333571Y-27439667D01*
X9333571Y-27487286D01*
X9324048Y-27525381D01*
X9314524Y-27544428D01*
X9305000Y-27553952D01*
X9285952Y-27563476D01*
X9266905Y-27563476D01*
X9247857Y-27553952D01*
X9238333Y-27544428D01*
X9228810Y-27525381D01*
X9219286Y-27487286D01*
X9219286Y-27439667D01*
X9228810Y-27401571D01*
X9238333Y-27382524D01*
X9247857Y-27373000D01*
X9266905Y-27363476D01*
X9457381Y-27363476D02*
X9476429Y-27363476D01*
X9495476Y-27373000D01*
X9505000Y-27382524D01*
X9514524Y-27401571D01*
X9524048Y-27439667D01*
X9524048Y-27487286D01*
X9514524Y-27525381D01*
X9505000Y-27544428D01*
X9495476Y-27553952D01*
X9476429Y-27563476D01*
X9457381Y-27563476D01*
X9438333Y-27553952D01*
X9428810Y-27544428D01*
X9419286Y-27525381D01*
X9409762Y-27487286D01*
X9409762Y-27439667D01*
X9419286Y-27401571D01*
X9428810Y-27382524D01*
X9438333Y-27373000D01*
X9457381Y-27363476D01*
X9609762Y-27563476D02*
X9609762Y-27430143D01*
X9609762Y-27449190D02*
X9619286Y-27439667D01*
X9638333Y-27430143D01*
X9666905Y-27430143D01*
X9685952Y-27439667D01*
X9695476Y-27458714D01*
X9695476Y-27563476D01*
X9695476Y-27458714D02*
X9705000Y-27439667D01*
X9724048Y-27430143D01*
X9752619Y-27430143D01*
X9771667Y-27439667D01*
X9781190Y-27458714D01*
X9781190Y-27563476D01*
X9876429Y-27563476D02*
X9876429Y-27430143D01*
X9876429Y-27449190D02*
X9885952Y-27439667D01*
X9905000Y-27430143D01*
X9933571Y-27430143D01*
X9952619Y-27439667D01*
X9962143Y-27458714D01*
X9962143Y-27563476D01*
X9962143Y-27458714D02*
X9971667Y-27439667D01*
X9990714Y-27430143D01*
X10019286Y-27430143D01*
X10038333Y-27439667D01*
X10047857Y-27458714D01*
X10047857Y-27563476D01*
X10438333Y-27353952D02*
X10266905Y-27611095D01*
X10695476Y-27363476D02*
X10714524Y-27363476D01*
X10733571Y-27373000D01*
X10743095Y-27382524D01*
X10752619Y-27401571D01*
X10762143Y-27439667D01*
X10762143Y-27487286D01*
X10752619Y-27525381D01*
X10743095Y-27544428D01*
X10733571Y-27553952D01*
X10714524Y-27563476D01*
X10695476Y-27563476D01*
X10676429Y-27553952D01*
X10666905Y-27544428D01*
X10657381Y-27525381D01*
X10647857Y-27487286D01*
X10647857Y-27439667D01*
X10657381Y-27401571D01*
X10666905Y-27382524D01*
X10676429Y-27373000D01*
X10695476Y-27363476D01*
X10847857Y-27544428D02*
X10857381Y-27553952D01*
X10847857Y-27563476D01*
X10838333Y-27553952D01*
X10847857Y-27544428D01*
X10847857Y-27563476D01*
X10981190Y-27363476D02*
X11000238Y-27363476D01*
X11019286Y-27373000D01*
X11028810Y-27382524D01*
X11038333Y-27401571D01*
X11047857Y-27439667D01*
X11047857Y-27487286D01*
X11038333Y-27525381D01*
X11028810Y-27544428D01*
X11019286Y-27553952D01*
X11000238Y-27563476D01*
X10981190Y-27563476D01*
X10962143Y-27553952D01*
X10952619Y-27544428D01*
X10943095Y-27525381D01*
X10933571Y-27487286D01*
X10933571Y-27439667D01*
X10943095Y-27401571D01*
X10952619Y-27382524D01*
X10962143Y-27373000D01*
X10981190Y-27363476D01*
X11114524Y-27363476D02*
X11238333Y-27363476D01*
X11171667Y-27439667D01*
X11200238Y-27439667D01*
X11219286Y-27449190D01*
X11228809Y-27458714D01*
X11238333Y-27477762D01*
X11238333Y-27525381D01*
X11228809Y-27544428D01*
X11219286Y-27553952D01*
X11200238Y-27563476D01*
X11143095Y-27563476D01*
X11124048Y-27553952D01*
X11114524Y-27544428D01*
X11419286Y-27363476D02*
X11324048Y-27363476D01*
X11314524Y-27458714D01*
X11324048Y-27449190D01*
X11343095Y-27439667D01*
X11390714Y-27439667D01*
X11409762Y-27449190D01*
X11419286Y-27458714D01*
X11428809Y-27477762D01*
X11428809Y-27525381D01*
X11419286Y-27544428D01*
X11409762Y-27553952D01*
X11390714Y-27563476D01*
X11343095Y-27563476D01*
X11324048Y-27553952D01*
X11314524Y-27544428D01*
X11600238Y-27430143D02*
X11600238Y-27563476D01*
X11552619Y-27353952D02*
X11505000Y-27496809D01*
X11628809Y-27496809D01*
X11695476Y-27363476D02*
X11695476Y-27401571D01*
X11771667Y-27363476D02*
X11771667Y-27401571D01*
X12066905Y-27639667D02*
X12057381Y-27630143D01*
X12038333Y-27601571D01*
X12028809Y-27582524D01*
X12019286Y-27553952D01*
X12009762Y-27506333D01*
X12009762Y-27468238D01*
X12019286Y-27420619D01*
X12028809Y-27392048D01*
X12038333Y-27373000D01*
X12057381Y-27344428D01*
X12066905Y-27334905D01*
X12171667Y-27449190D02*
X12152619Y-27439667D01*
X12143095Y-27430143D01*
X12133571Y-27411095D01*
X12133571Y-27401571D01*
X12143095Y-27382524D01*
X12152619Y-27373000D01*
X12171667Y-27363476D01*
X12209762Y-27363476D01*
X12228809Y-27373000D01*
X12238333Y-27382524D01*
X12247857Y-27401571D01*
X12247857Y-27411095D01*
X12238333Y-27430143D01*
X12228809Y-27439667D01*
X12209762Y-27449190D01*
X12171667Y-27449190D01*
X12152619Y-27458714D01*
X12143095Y-27468238D01*
X12133571Y-27487286D01*
X12133571Y-27525381D01*
X12143095Y-27544428D01*
X12152619Y-27553952D01*
X12171667Y-27563476D01*
X12209762Y-27563476D01*
X12228809Y-27553952D01*
X12238333Y-27544428D01*
X12247857Y-27525381D01*
X12247857Y-27487286D01*
X12238333Y-27468238D01*
X12228809Y-27458714D01*
X12209762Y-27449190D01*
X12485952Y-27563476D02*
X12485952Y-27363476D01*
X12571667Y-27563476D02*
X12571667Y-27458714D01*
X12562143Y-27439667D01*
X12543095Y-27430143D01*
X12514524Y-27430143D01*
X12495476Y-27439667D01*
X12485952Y-27449190D01*
X12695476Y-27563476D02*
X12676428Y-27553952D01*
X12666905Y-27544428D01*
X12657381Y-27525381D01*
X12657381Y-27468238D01*
X12666905Y-27449190D01*
X12676428Y-27439667D01*
X12695476Y-27430143D01*
X12724048Y-27430143D01*
X12743095Y-27439667D01*
X12752619Y-27449190D01*
X12762143Y-27468238D01*
X12762143Y-27525381D01*
X12752619Y-27544428D01*
X12743095Y-27553952D01*
X12724048Y-27563476D01*
X12695476Y-27563476D01*
X12876428Y-27563476D02*
X12857381Y-27553952D01*
X12847857Y-27534905D01*
X12847857Y-27363476D01*
X13028809Y-27553952D02*
X13009762Y-27563476D01*
X12971667Y-27563476D01*
X12952619Y-27553952D01*
X12943095Y-27534905D01*
X12943095Y-27458714D01*
X12952619Y-27439667D01*
X12971667Y-27430143D01*
X13009762Y-27430143D01*
X13028809Y-27439667D01*
X13038333Y-27458714D01*
X13038333Y-27477762D01*
X12943095Y-27496809D01*
X13114524Y-27553952D02*
X13133571Y-27563476D01*
X13171667Y-27563476D01*
X13190714Y-27553952D01*
X13200238Y-27534905D01*
X13200238Y-27525381D01*
X13190714Y-27506333D01*
X13171667Y-27496809D01*
X13143095Y-27496809D01*
X13124048Y-27487286D01*
X13114524Y-27468238D01*
X13114524Y-27458714D01*
X13124048Y-27439667D01*
X13143095Y-27430143D01*
X13171667Y-27430143D01*
X13190714Y-27439667D01*
X13266905Y-27639667D02*
X13276428Y-27630143D01*
X13295476Y-27601571D01*
X13305000Y-27582524D01*
X13314524Y-27553952D01*
X13324048Y-27506333D01*
X13324048Y-27468238D01*
X13314524Y-27420619D01*
X13305000Y-27392048D01*
X13295476Y-27373000D01*
X13276428Y-27344428D01*
X13266905Y-27334905D01*
D10*
X8480356Y-27772356D02*
X8480356Y-27701644D01*
X8409644Y-27701644D01*
X8409644Y-27772356D01*
X8480356Y-27772356D01*
D11*
X8857381Y-27827476D02*
X8743095Y-27827476D01*
X8800238Y-27827476D02*
X8800238Y-27627476D01*
X8781190Y-27656048D01*
X8762143Y-27675095D01*
X8743095Y-27684619D01*
X8943095Y-27808428D02*
X8952619Y-27817952D01*
X8943095Y-27827476D01*
X8933571Y-27817952D01*
X8943095Y-27808428D01*
X8943095Y-27827476D01*
X9076429Y-27627476D02*
X9095476Y-27627476D01*
X9114524Y-27637000D01*
X9124048Y-27646524D01*
X9133571Y-27665571D01*
X9143095Y-27703667D01*
X9143095Y-27751286D01*
X9133571Y-27789381D01*
X9124048Y-27808428D01*
X9114524Y-27817952D01*
X9095476Y-27827476D01*
X9076429Y-27827476D01*
X9057381Y-27817952D01*
X9047857Y-27808428D01*
X9038333Y-27789381D01*
X9028810Y-27751286D01*
X9028810Y-27703667D01*
X9038333Y-27665571D01*
X9047857Y-27646524D01*
X9057381Y-27637000D01*
X9076429Y-27627476D01*
X9266905Y-27627476D02*
X9285952Y-27627476D01*
X9305000Y-27637000D01*
X9314524Y-27646524D01*
X9324048Y-27665571D01*
X9333571Y-27703667D01*
X9333571Y-27751286D01*
X9324048Y-27789381D01*
X9314524Y-27808428D01*
X9305000Y-27817952D01*
X9285952Y-27827476D01*
X9266905Y-27827476D01*
X9247857Y-27817952D01*
X9238333Y-27808428D01*
X9228810Y-27789381D01*
X9219286Y-27751286D01*
X9219286Y-27703667D01*
X9228810Y-27665571D01*
X9238333Y-27646524D01*
X9247857Y-27637000D01*
X9266905Y-27627476D01*
X9457381Y-27627476D02*
X9476429Y-27627476D01*
X9495476Y-27637000D01*
X9505000Y-27646524D01*
X9514524Y-27665571D01*
X9524048Y-27703667D01*
X9524048Y-27751286D01*
X9514524Y-27789381D01*
X9505000Y-27808428D01*
X9495476Y-27817952D01*
X9476429Y-27827476D01*
X9457381Y-27827476D01*
X9438333Y-27817952D01*
X9428810Y-27808428D01*
X9419286Y-27789381D01*
X9409762Y-27751286D01*
X9409762Y-27703667D01*
X9419286Y-27665571D01*
X9428810Y-27646524D01*
X9438333Y-27637000D01*
X9457381Y-27627476D01*
X9609762Y-27827476D02*
X9609762Y-27694143D01*
X9609762Y-27713190D02*
X9619286Y-27703667D01*
X9638333Y-27694143D01*
X9666905Y-27694143D01*
X9685952Y-27703667D01*
X9695476Y-27722714D01*
X9695476Y-27827476D01*
X9695476Y-27722714D02*
X9705000Y-27703667D01*
X9724048Y-27694143D01*
X9752619Y-27694143D01*
X9771667Y-27703667D01*
X9781190Y-27722714D01*
X9781190Y-27827476D01*
X9876429Y-27827476D02*
X9876429Y-27694143D01*
X9876429Y-27713190D02*
X9885952Y-27703667D01*
X9905000Y-27694143D01*
X9933571Y-27694143D01*
X9952619Y-27703667D01*
X9962143Y-27722714D01*
X9962143Y-27827476D01*
X9962143Y-27722714D02*
X9971667Y-27703667D01*
X9990714Y-27694143D01*
X10019286Y-27694143D01*
X10038333Y-27703667D01*
X10047857Y-27722714D01*
X10047857Y-27827476D01*
X10438333Y-27617952D02*
X10266905Y-27875095D01*
X10695476Y-27627476D02*
X10714524Y-27627476D01*
X10733571Y-27637000D01*
X10743095Y-27646524D01*
X10752619Y-27665571D01*
X10762143Y-27703667D01*
X10762143Y-27751286D01*
X10752619Y-27789381D01*
X10743095Y-27808428D01*
X10733571Y-27817952D01*
X10714524Y-27827476D01*
X10695476Y-27827476D01*
X10676429Y-27817952D01*
X10666905Y-27808428D01*
X10657381Y-27789381D01*
X10647857Y-27751286D01*
X10647857Y-27703667D01*
X10657381Y-27665571D01*
X10666905Y-27646524D01*
X10676429Y-27637000D01*
X10695476Y-27627476D01*
X10847857Y-27808428D02*
X10857381Y-27817952D01*
X10847857Y-27827476D01*
X10838333Y-27817952D01*
X10847857Y-27808428D01*
X10847857Y-27827476D01*
X10981190Y-27627476D02*
X11000238Y-27627476D01*
X11019286Y-27637000D01*
X11028810Y-27646524D01*
X11038333Y-27665571D01*
X11047857Y-27703667D01*
X11047857Y-27751286D01*
X11038333Y-27789381D01*
X11028810Y-27808428D01*
X11019286Y-27817952D01*
X11000238Y-27827476D01*
X10981190Y-27827476D01*
X10962143Y-27817952D01*
X10952619Y-27808428D01*
X10943095Y-27789381D01*
X10933571Y-27751286D01*
X10933571Y-27703667D01*
X10943095Y-27665571D01*
X10952619Y-27646524D01*
X10962143Y-27637000D01*
X10981190Y-27627476D01*
X11114524Y-27627476D02*
X11238333Y-27627476D01*
X11171667Y-27703667D01*
X11200238Y-27703667D01*
X11219286Y-27713190D01*
X11228809Y-27722714D01*
X11238333Y-27741762D01*
X11238333Y-27789381D01*
X11228809Y-27808428D01*
X11219286Y-27817952D01*
X11200238Y-27827476D01*
X11143095Y-27827476D01*
X11124048Y-27817952D01*
X11114524Y-27808428D01*
X11333571Y-27827476D02*
X11371667Y-27827476D01*
X11390714Y-27817952D01*
X11400238Y-27808428D01*
X11419286Y-27779857D01*
X11428809Y-27741762D01*
X11428809Y-27665571D01*
X11419286Y-27646524D01*
X11409762Y-27637000D01*
X11390714Y-27627476D01*
X11352619Y-27627476D01*
X11333571Y-27637000D01*
X11324048Y-27646524D01*
X11314524Y-27665571D01*
X11314524Y-27713190D01*
X11324048Y-27732238D01*
X11333571Y-27741762D01*
X11352619Y-27751286D01*
X11390714Y-27751286D01*
X11409762Y-27741762D01*
X11419286Y-27732238D01*
X11428809Y-27713190D01*
X11600238Y-27694143D02*
X11600238Y-27827476D01*
X11552619Y-27617952D02*
X11505000Y-27760809D01*
X11628809Y-27760809D01*
X11695476Y-27627476D02*
X11695476Y-27665571D01*
X11771667Y-27627476D02*
X11771667Y-27665571D01*
X12066905Y-27903667D02*
X12057381Y-27894143D01*
X12038333Y-27865571D01*
X12028809Y-27846524D01*
X12019286Y-27817952D01*
X12009762Y-27770333D01*
X12009762Y-27732238D01*
X12019286Y-27684619D01*
X12028809Y-27656048D01*
X12038333Y-27637000D01*
X12057381Y-27608428D01*
X12066905Y-27598905D01*
X12228809Y-27694143D02*
X12228809Y-27827476D01*
X12181190Y-27617952D02*
X12133571Y-27760809D01*
X12257381Y-27760809D01*
X12485952Y-27827476D02*
X12485952Y-27627476D01*
X12571667Y-27827476D02*
X12571667Y-27722714D01*
X12562143Y-27703667D01*
X12543095Y-27694143D01*
X12514524Y-27694143D01*
X12495476Y-27703667D01*
X12485952Y-27713190D01*
X12695476Y-27827476D02*
X12676428Y-27817952D01*
X12666905Y-27808428D01*
X12657381Y-27789381D01*
X12657381Y-27732238D01*
X12666905Y-27713190D01*
X12676428Y-27703667D01*
X12695476Y-27694143D01*
X12724048Y-27694143D01*
X12743095Y-27703667D01*
X12752619Y-27713190D01*
X12762143Y-27732238D01*
X12762143Y-27789381D01*
X12752619Y-27808428D01*
X12743095Y-27817952D01*
X12724048Y-27827476D01*
X12695476Y-27827476D01*
X12876428Y-27827476D02*
X12857381Y-27817952D01*
X12847857Y-27798905D01*
X12847857Y-27627476D01*
X13028809Y-27817952D02*
X13009762Y-27827476D01*
X12971667Y-27827476D01*
X12952619Y-27817952D01*
X12943095Y-27798905D01*
X12943095Y-27722714D01*
X12952619Y-27703667D01*
X12971667Y-27694143D01*
X13009762Y-27694143D01*
X13028809Y-27703667D01*
X13038333Y-27722714D01*
X13038333Y-27741762D01*
X12943095Y-27760809D01*
X13114524Y-27817952D02*
X13133571Y-27827476D01*
X13171667Y-27827476D01*
X13190714Y-27817952D01*
X13200238Y-27798905D01*
X13200238Y-27789381D01*
X13190714Y-27770333D01*
X13171667Y-27760809D01*
X13143095Y-27760809D01*
X13124048Y-27751286D01*
X13114524Y-27732238D01*
X13114524Y-27722714D01*
X13124048Y-27703667D01*
X13143095Y-27694143D01*
X13171667Y-27694143D01*
X13190714Y-27703667D01*
X13266905Y-27903667D02*
X13276428Y-27894143D01*
X13295476Y-27865571D01*
X13305000Y-27846524D01*
X13314524Y-27817952D01*
X13324048Y-27770333D01*
X13324048Y-27732238D01*
X13314524Y-27684619D01*
X13305000Y-27656048D01*
X13295476Y-27637000D01*
X13276428Y-27608428D01*
X13266905Y-27598905D01*
D15*
X8444000Y-28052000D02*
X8495000Y-28001000D01*
X8444000Y-27950000D01*
X8393000Y-28001000D01*
X8444000Y-28052000D01*
D11*
X8857381Y-28091476D02*
X8743095Y-28091476D01*
X8800238Y-28091476D02*
X8800238Y-27891476D01*
X8781190Y-27920048D01*
X8762143Y-27939095D01*
X8743095Y-27948619D01*
X8943095Y-28072428D02*
X8952619Y-28081952D01*
X8943095Y-28091476D01*
X8933571Y-28081952D01*
X8943095Y-28072428D01*
X8943095Y-28091476D01*
X9076429Y-27891476D02*
X9095476Y-27891476D01*
X9114524Y-27901000D01*
X9124048Y-27910524D01*
X9133571Y-27929571D01*
X9143095Y-27967667D01*
X9143095Y-28015286D01*
X9133571Y-28053381D01*
X9124048Y-28072428D01*
X9114524Y-28081952D01*
X9095476Y-28091476D01*
X9076429Y-28091476D01*
X9057381Y-28081952D01*
X9047857Y-28072428D01*
X9038333Y-28053381D01*
X9028810Y-28015286D01*
X9028810Y-27967667D01*
X9038333Y-27929571D01*
X9047857Y-27910524D01*
X9057381Y-27901000D01*
X9076429Y-27891476D01*
X9219286Y-27910524D02*
X9228810Y-27901000D01*
X9247857Y-27891476D01*
X9295476Y-27891476D01*
X9314524Y-27901000D01*
X9324048Y-27910524D01*
X9333571Y-27929571D01*
X9333571Y-27948619D01*
X9324048Y-27977190D01*
X9209762Y-28091476D01*
X9333571Y-28091476D01*
X9457381Y-27891476D02*
X9476429Y-27891476D01*
X9495476Y-27901000D01*
X9505000Y-27910524D01*
X9514524Y-27929571D01*
X9524048Y-27967667D01*
X9524048Y-28015286D01*
X9514524Y-28053381D01*
X9505000Y-28072428D01*
X9495476Y-28081952D01*
X9476429Y-28091476D01*
X9457381Y-28091476D01*
X9438333Y-28081952D01*
X9428810Y-28072428D01*
X9419286Y-28053381D01*
X9409762Y-28015286D01*
X9409762Y-27967667D01*
X9419286Y-27929571D01*
X9428810Y-27910524D01*
X9438333Y-27901000D01*
X9457381Y-27891476D01*
X9609762Y-28091476D02*
X9609762Y-27958143D01*
X9609762Y-27977190D02*
X9619286Y-27967667D01*
X9638333Y-27958143D01*
X9666905Y-27958143D01*
X9685952Y-27967667D01*
X9695476Y-27986714D01*
X9695476Y-28091476D01*
X9695476Y-27986714D02*
X9705000Y-27967667D01*
X9724048Y-27958143D01*
X9752619Y-27958143D01*
X9771667Y-27967667D01*
X9781190Y-27986714D01*
X9781190Y-28091476D01*
X9876429Y-28091476D02*
X9876429Y-27958143D01*
X9876429Y-27977190D02*
X9885952Y-27967667D01*
X9905000Y-27958143D01*
X9933571Y-27958143D01*
X9952619Y-27967667D01*
X9962143Y-27986714D01*
X9962143Y-28091476D01*
X9962143Y-27986714D02*
X9971667Y-27967667D01*
X9990714Y-27958143D01*
X10019286Y-27958143D01*
X10038333Y-27967667D01*
X10047857Y-27986714D01*
X10047857Y-28091476D01*
X10438333Y-27881952D02*
X10266905Y-28139095D01*
X10695476Y-27891476D02*
X10714524Y-27891476D01*
X10733571Y-27901000D01*
X10743095Y-27910524D01*
X10752619Y-27929571D01*
X10762143Y-27967667D01*
X10762143Y-28015286D01*
X10752619Y-28053381D01*
X10743095Y-28072428D01*
X10733571Y-28081952D01*
X10714524Y-28091476D01*
X10695476Y-28091476D01*
X10676429Y-28081952D01*
X10666905Y-28072428D01*
X10657381Y-28053381D01*
X10647857Y-28015286D01*
X10647857Y-27967667D01*
X10657381Y-27929571D01*
X10666905Y-27910524D01*
X10676429Y-27901000D01*
X10695476Y-27891476D01*
X10847857Y-28072428D02*
X10857381Y-28081952D01*
X10847857Y-28091476D01*
X10838333Y-28081952D01*
X10847857Y-28072428D01*
X10847857Y-28091476D01*
X10981190Y-27891476D02*
X11000238Y-27891476D01*
X11019286Y-27901000D01*
X11028810Y-27910524D01*
X11038333Y-27929571D01*
X11047857Y-27967667D01*
X11047857Y-28015286D01*
X11038333Y-28053381D01*
X11028810Y-28072428D01*
X11019286Y-28081952D01*
X11000238Y-28091476D01*
X10981190Y-28091476D01*
X10962143Y-28081952D01*
X10952619Y-28072428D01*
X10943095Y-28053381D01*
X10933571Y-28015286D01*
X10933571Y-27967667D01*
X10943095Y-27929571D01*
X10952619Y-27910524D01*
X10962143Y-27901000D01*
X10981190Y-27891476D01*
X11219286Y-27958143D02*
X11219286Y-28091476D01*
X11171667Y-27881952D02*
X11124048Y-28024809D01*
X11247857Y-28024809D01*
X11362143Y-27891476D02*
X11381190Y-27891476D01*
X11400238Y-27901000D01*
X11409762Y-27910524D01*
X11419286Y-27929571D01*
X11428809Y-27967667D01*
X11428809Y-28015286D01*
X11419286Y-28053381D01*
X11409762Y-28072428D01*
X11400238Y-28081952D01*
X11381190Y-28091476D01*
X11362143Y-28091476D01*
X11343095Y-28081952D01*
X11333571Y-28072428D01*
X11324048Y-28053381D01*
X11314524Y-28015286D01*
X11314524Y-27967667D01*
X11324048Y-27929571D01*
X11333571Y-27910524D01*
X11343095Y-27901000D01*
X11362143Y-27891476D01*
X11505000Y-27910524D02*
X11514524Y-27901000D01*
X11533571Y-27891476D01*
X11581190Y-27891476D01*
X11600238Y-27901000D01*
X11609762Y-27910524D01*
X11619286Y-27929571D01*
X11619286Y-27948619D01*
X11609762Y-27977190D01*
X11495476Y-28091476D01*
X11619286Y-28091476D01*
X11695476Y-27891476D02*
X11695476Y-27929571D01*
X11771667Y-27891476D02*
X11771667Y-27929571D01*
X12066905Y-28167667D02*
X12057381Y-28158143D01*
X12038333Y-28129571D01*
X12028809Y-28110524D01*
X12019286Y-28081952D01*
X12009762Y-28034333D01*
X12009762Y-27996238D01*
X12019286Y-27948619D01*
X12028809Y-27920048D01*
X12038333Y-27901000D01*
X12057381Y-27872428D01*
X12066905Y-27862905D01*
X12171667Y-27977190D02*
X12152619Y-27967667D01*
X12143095Y-27958143D01*
X12133571Y-27939095D01*
X12133571Y-27929571D01*
X12143095Y-27910524D01*
X12152619Y-27901000D01*
X12171667Y-27891476D01*
X12209762Y-27891476D01*
X12228809Y-27901000D01*
X12238333Y-27910524D01*
X12247857Y-27929571D01*
X12247857Y-27939095D01*
X12238333Y-27958143D01*
X12228809Y-27967667D01*
X12209762Y-27977190D01*
X12171667Y-27977190D01*
X12152619Y-27986714D01*
X12143095Y-27996238D01*
X12133571Y-28015286D01*
X12133571Y-28053381D01*
X12143095Y-28072428D01*
X12152619Y-28081952D01*
X12171667Y-28091476D01*
X12209762Y-28091476D01*
X12228809Y-28081952D01*
X12238333Y-28072428D01*
X12247857Y-28053381D01*
X12247857Y-28015286D01*
X12238333Y-27996238D01*
X12228809Y-27986714D01*
X12209762Y-27977190D01*
X12419286Y-27891476D02*
X12381190Y-27891476D01*
X12362143Y-27901000D01*
X12352619Y-27910524D01*
X12333571Y-27939095D01*
X12324048Y-27977190D01*
X12324048Y-28053381D01*
X12333571Y-28072428D01*
X12343095Y-28081952D01*
X12362143Y-28091476D01*
X12400238Y-28091476D01*
X12419286Y-28081952D01*
X12428809Y-28072428D01*
X12438333Y-28053381D01*
X12438333Y-28005762D01*
X12428809Y-27986714D01*
X12419286Y-27977190D01*
X12400238Y-27967667D01*
X12362143Y-27967667D01*
X12343095Y-27977190D01*
X12333571Y-27986714D01*
X12324048Y-28005762D01*
X12676428Y-28091476D02*
X12676428Y-27891476D01*
X12762143Y-28091476D02*
X12762143Y-27986714D01*
X12752619Y-27967667D01*
X12733571Y-27958143D01*
X12705000Y-27958143D01*
X12685952Y-27967667D01*
X12676428Y-27977190D01*
X12885952Y-28091476D02*
X12866905Y-28081952D01*
X12857381Y-28072428D01*
X12847857Y-28053381D01*
X12847857Y-27996238D01*
X12857381Y-27977190D01*
X12866905Y-27967667D01*
X12885952Y-27958143D01*
X12914524Y-27958143D01*
X12933571Y-27967667D01*
X12943095Y-27977190D01*
X12952619Y-27996238D01*
X12952619Y-28053381D01*
X12943095Y-28072428D01*
X12933571Y-28081952D01*
X12914524Y-28091476D01*
X12885952Y-28091476D01*
X13066905Y-28091476D02*
X13047857Y-28081952D01*
X13038333Y-28062905D01*
X13038333Y-27891476D01*
X13219286Y-28081952D02*
X13200238Y-28091476D01*
X13162143Y-28091476D01*
X13143095Y-28081952D01*
X13133571Y-28062905D01*
X13133571Y-27986714D01*
X13143095Y-27967667D01*
X13162143Y-27958143D01*
X13200238Y-27958143D01*
X13219286Y-27967667D01*
X13228809Y-27986714D01*
X13228809Y-28005762D01*
X13133571Y-28024809D01*
X13305000Y-28081952D02*
X13324048Y-28091476D01*
X13362143Y-28091476D01*
X13381190Y-28081952D01*
X13390714Y-28062905D01*
X13390714Y-28053381D01*
X13381190Y-28034333D01*
X13362143Y-28024809D01*
X13333571Y-28024809D01*
X13314524Y-28015286D01*
X13305000Y-27996238D01*
X13305000Y-27986714D01*
X13314524Y-27967667D01*
X13333571Y-27958143D01*
X13362143Y-27958143D01*
X13381190Y-27967667D01*
X13457381Y-28167667D02*
X13466905Y-28158143D01*
X13485952Y-28129571D01*
X13495476Y-28110524D01*
X13505000Y-28081952D01*
X13514524Y-28034333D01*
X13514524Y-27996238D01*
X13505000Y-27948619D01*
X13495476Y-27920048D01*
X13485952Y-27901000D01*
X13466905Y-27872428D01*
X13457381Y-27862905D01*
D16*
X8385000Y-28210000D02*
X8495000Y-28320000D01*
X8495000Y-28210000D02*
X8385000Y-28320000D01*
X8495000Y-28265000D02*
G75*
G03*
X8495000Y-28265000I-55000J0D01*
G01*
D11*
X8857381Y-28355476D02*
X8743095Y-28355476D01*
X8800238Y-28355476D02*
X8800238Y-28155476D01*
X8781190Y-28184048D01*
X8762143Y-28203095D01*
X8743095Y-28212619D01*
X8943095Y-28336428D02*
X8952619Y-28345952D01*
X8943095Y-28355476D01*
X8933571Y-28345952D01*
X8943095Y-28336428D01*
X8943095Y-28355476D01*
X9143095Y-28355476D02*
X9028810Y-28355476D01*
X9085952Y-28355476D02*
X9085952Y-28155476D01*
X9066905Y-28184048D01*
X9047857Y-28203095D01*
X9028810Y-28212619D01*
X9266905Y-28155476D02*
X9285952Y-28155476D01*
X9305000Y-28165000D01*
X9314524Y-28174524D01*
X9324048Y-28193571D01*
X9333571Y-28231667D01*
X9333571Y-28279286D01*
X9324048Y-28317381D01*
X9314524Y-28336428D01*
X9305000Y-28345952D01*
X9285952Y-28355476D01*
X9266905Y-28355476D01*
X9247857Y-28345952D01*
X9238333Y-28336428D01*
X9228810Y-28317381D01*
X9219286Y-28279286D01*
X9219286Y-28231667D01*
X9228810Y-28193571D01*
X9238333Y-28174524D01*
X9247857Y-28165000D01*
X9266905Y-28155476D01*
X9457381Y-28155476D02*
X9476429Y-28155476D01*
X9495476Y-28165000D01*
X9505000Y-28174524D01*
X9514524Y-28193571D01*
X9524048Y-28231667D01*
X9524048Y-28279286D01*
X9514524Y-28317381D01*
X9505000Y-28336428D01*
X9495476Y-28345952D01*
X9476429Y-28355476D01*
X9457381Y-28355476D01*
X9438333Y-28345952D01*
X9428810Y-28336428D01*
X9419286Y-28317381D01*
X9409762Y-28279286D01*
X9409762Y-28231667D01*
X9419286Y-28193571D01*
X9428810Y-28174524D01*
X9438333Y-28165000D01*
X9457381Y-28155476D01*
X9609762Y-28355476D02*
X9609762Y-28222143D01*
X9609762Y-28241190D02*
X9619286Y-28231667D01*
X9638333Y-28222143D01*
X9666905Y-28222143D01*
X9685952Y-28231667D01*
X9695476Y-28250714D01*
X9695476Y-28355476D01*
X9695476Y-28250714D02*
X9705000Y-28231667D01*
X9724048Y-28222143D01*
X9752619Y-28222143D01*
X9771667Y-28231667D01*
X9781190Y-28250714D01*
X9781190Y-28355476D01*
X9876429Y-28355476D02*
X9876429Y-28222143D01*
X9876429Y-28241190D02*
X9885952Y-28231667D01*
X9905000Y-28222143D01*
X9933571Y-28222143D01*
X9952619Y-28231667D01*
X9962143Y-28250714D01*
X9962143Y-28355476D01*
X9962143Y-28250714D02*
X9971667Y-28231667D01*
X9990714Y-28222143D01*
X10019286Y-28222143D01*
X10038333Y-28231667D01*
X10047857Y-28250714D01*
X10047857Y-28355476D01*
X10438333Y-28145952D02*
X10266905Y-28403095D01*
X10695476Y-28155476D02*
X10714524Y-28155476D01*
X10733571Y-28165000D01*
X10743095Y-28174524D01*
X10752619Y-28193571D01*
X10762143Y-28231667D01*
X10762143Y-28279286D01*
X10752619Y-28317381D01*
X10743095Y-28336428D01*
X10733571Y-28345952D01*
X10714524Y-28355476D01*
X10695476Y-28355476D01*
X10676429Y-28345952D01*
X10666905Y-28336428D01*
X10657381Y-28317381D01*
X10647857Y-28279286D01*
X10647857Y-28231667D01*
X10657381Y-28193571D01*
X10666905Y-28174524D01*
X10676429Y-28165000D01*
X10695476Y-28155476D01*
X10847857Y-28336428D02*
X10857381Y-28345952D01*
X10847857Y-28355476D01*
X10838333Y-28345952D01*
X10847857Y-28336428D01*
X10847857Y-28355476D01*
X10981190Y-28155476D02*
X11000238Y-28155476D01*
X11019286Y-28165000D01*
X11028810Y-28174524D01*
X11038333Y-28193571D01*
X11047857Y-28231667D01*
X11047857Y-28279286D01*
X11038333Y-28317381D01*
X11028810Y-28336428D01*
X11019286Y-28345952D01*
X11000238Y-28355476D01*
X10981190Y-28355476D01*
X10962143Y-28345952D01*
X10952619Y-28336428D01*
X10943095Y-28317381D01*
X10933571Y-28279286D01*
X10933571Y-28231667D01*
X10943095Y-28193571D01*
X10952619Y-28174524D01*
X10962143Y-28165000D01*
X10981190Y-28155476D01*
X11219286Y-28222143D02*
X11219286Y-28355476D01*
X11171667Y-28145952D02*
X11124048Y-28288809D01*
X11247857Y-28288809D01*
X11305000Y-28155476D02*
X11428809Y-28155476D01*
X11362143Y-28231667D01*
X11390714Y-28231667D01*
X11409762Y-28241190D01*
X11419286Y-28250714D01*
X11428809Y-28269762D01*
X11428809Y-28317381D01*
X11419286Y-28336428D01*
X11409762Y-28345952D01*
X11390714Y-28355476D01*
X11333571Y-28355476D01*
X11314524Y-28345952D01*
X11305000Y-28336428D01*
X11495476Y-28155476D02*
X11619286Y-28155476D01*
X11552619Y-28231667D01*
X11581190Y-28231667D01*
X11600238Y-28241190D01*
X11609762Y-28250714D01*
X11619286Y-28269762D01*
X11619286Y-28317381D01*
X11609762Y-28336428D01*
X11600238Y-28345952D01*
X11581190Y-28355476D01*
X11524048Y-28355476D01*
X11505000Y-28345952D01*
X11495476Y-28336428D01*
X11695476Y-28155476D02*
X11695476Y-28193571D01*
X11771667Y-28155476D02*
X11771667Y-28193571D01*
X12066905Y-28431667D02*
X12057381Y-28422143D01*
X12038333Y-28393571D01*
X12028809Y-28374524D01*
X12019286Y-28345952D01*
X12009762Y-28298333D01*
X12009762Y-28260238D01*
X12019286Y-28212619D01*
X12028809Y-28184048D01*
X12038333Y-28165000D01*
X12057381Y-28136428D01*
X12066905Y-28126905D01*
X12171667Y-28241190D02*
X12152619Y-28231667D01*
X12143095Y-28222143D01*
X12133571Y-28203095D01*
X12133571Y-28193571D01*
X12143095Y-28174524D01*
X12152619Y-28165000D01*
X12171667Y-28155476D01*
X12209762Y-28155476D01*
X12228809Y-28165000D01*
X12238333Y-28174524D01*
X12247857Y-28193571D01*
X12247857Y-28203095D01*
X12238333Y-28222143D01*
X12228809Y-28231667D01*
X12209762Y-28241190D01*
X12171667Y-28241190D01*
X12152619Y-28250714D01*
X12143095Y-28260238D01*
X12133571Y-28279286D01*
X12133571Y-28317381D01*
X12143095Y-28336428D01*
X12152619Y-28345952D01*
X12171667Y-28355476D01*
X12209762Y-28355476D01*
X12228809Y-28345952D01*
X12238333Y-28336428D01*
X12247857Y-28317381D01*
X12247857Y-28279286D01*
X12238333Y-28260238D01*
X12228809Y-28250714D01*
X12209762Y-28241190D01*
X12485952Y-28355476D02*
X12485952Y-28155476D01*
X12571667Y-28355476D02*
X12571667Y-28250714D01*
X12562143Y-28231667D01*
X12543095Y-28222143D01*
X12514524Y-28222143D01*
X12495476Y-28231667D01*
X12485952Y-28241190D01*
X12695476Y-28355476D02*
X12676428Y-28345952D01*
X12666905Y-28336428D01*
X12657381Y-28317381D01*
X12657381Y-28260238D01*
X12666905Y-28241190D01*
X12676428Y-28231667D01*
X12695476Y-28222143D01*
X12724048Y-28222143D01*
X12743095Y-28231667D01*
X12752619Y-28241190D01*
X12762143Y-28260238D01*
X12762143Y-28317381D01*
X12752619Y-28336428D01*
X12743095Y-28345952D01*
X12724048Y-28355476D01*
X12695476Y-28355476D01*
X12876428Y-28355476D02*
X12857381Y-28345952D01*
X12847857Y-28326905D01*
X12847857Y-28155476D01*
X13028809Y-28345952D02*
X13009762Y-28355476D01*
X12971667Y-28355476D01*
X12952619Y-28345952D01*
X12943095Y-28326905D01*
X12943095Y-28250714D01*
X12952619Y-28231667D01*
X12971667Y-28222143D01*
X13009762Y-28222143D01*
X13028809Y-28231667D01*
X13038333Y-28250714D01*
X13038333Y-28269762D01*
X12943095Y-28288809D01*
X13114524Y-28345952D02*
X13133571Y-28355476D01*
X13171667Y-28355476D01*
X13190714Y-28345952D01*
X13200238Y-28326905D01*
X13200238Y-28317381D01*
X13190714Y-28298333D01*
X13171667Y-28288809D01*
X13143095Y-28288809D01*
X13124048Y-28279286D01*
X13114524Y-28260238D01*
X13114524Y-28250714D01*
X13124048Y-28231667D01*
X13143095Y-28222143D01*
X13171667Y-28222143D01*
X13190714Y-28231667D01*
X13266905Y-28431667D02*
X13276428Y-28422143D01*
X13295476Y-28393571D01*
X13305000Y-28374524D01*
X13314524Y-28345952D01*
X13324048Y-28298333D01*
X13324048Y-28260238D01*
X13314524Y-28212619D01*
X13305000Y-28184048D01*
X13295476Y-28165000D01*
X13276428Y-28136428D01*
X13266905Y-28126905D01*
D17*
X8345000Y-28454000D02*
X8495000Y-28604000D01*
X8495000Y-28454000D02*
X8345000Y-28604000D01*
X8420000Y-28454000D02*
X8420000Y-28604000D01*
X8345000Y-28529000D02*
X8495000Y-28529000D01*
D11*
X8857381Y-28619476D02*
X8743095Y-28619476D01*
X8800238Y-28619476D02*
X8800238Y-28419476D01*
X8781190Y-28448048D01*
X8762143Y-28467095D01*
X8743095Y-28476619D01*
X8943095Y-28600428D02*
X8952619Y-28609952D01*
X8943095Y-28619476D01*
X8933571Y-28609952D01*
X8943095Y-28600428D01*
X8943095Y-28619476D01*
X9133571Y-28419476D02*
X9038333Y-28419476D01*
X9028810Y-28514714D01*
X9038333Y-28505190D01*
X9057381Y-28495667D01*
X9105000Y-28495667D01*
X9124048Y-28505190D01*
X9133571Y-28514714D01*
X9143095Y-28533762D01*
X9143095Y-28581381D01*
X9133571Y-28600428D01*
X9124048Y-28609952D01*
X9105000Y-28619476D01*
X9057381Y-28619476D01*
X9038333Y-28609952D01*
X9028810Y-28600428D01*
X9266905Y-28419476D02*
X9285952Y-28419476D01*
X9305000Y-28429000D01*
X9314524Y-28438524D01*
X9324048Y-28457571D01*
X9333571Y-28495667D01*
X9333571Y-28543286D01*
X9324048Y-28581381D01*
X9314524Y-28600428D01*
X9305000Y-28609952D01*
X9285952Y-28619476D01*
X9266905Y-28619476D01*
X9247857Y-28609952D01*
X9238333Y-28600428D01*
X9228810Y-28581381D01*
X9219286Y-28543286D01*
X9219286Y-28495667D01*
X9228810Y-28457571D01*
X9238333Y-28438524D01*
X9247857Y-28429000D01*
X9266905Y-28419476D01*
X9457381Y-28419476D02*
X9476429Y-28419476D01*
X9495476Y-28429000D01*
X9505000Y-28438524D01*
X9514524Y-28457571D01*
X9524048Y-28495667D01*
X9524048Y-28543286D01*
X9514524Y-28581381D01*
X9505000Y-28600428D01*
X9495476Y-28609952D01*
X9476429Y-28619476D01*
X9457381Y-28619476D01*
X9438333Y-28609952D01*
X9428810Y-28600428D01*
X9419286Y-28581381D01*
X9409762Y-28543286D01*
X9409762Y-28495667D01*
X9419286Y-28457571D01*
X9428810Y-28438524D01*
X9438333Y-28429000D01*
X9457381Y-28419476D01*
X9609762Y-28619476D02*
X9609762Y-28486143D01*
X9609762Y-28505190D02*
X9619286Y-28495667D01*
X9638333Y-28486143D01*
X9666905Y-28486143D01*
X9685952Y-28495667D01*
X9695476Y-28514714D01*
X9695476Y-28619476D01*
X9695476Y-28514714D02*
X9705000Y-28495667D01*
X9724048Y-28486143D01*
X9752619Y-28486143D01*
X9771667Y-28495667D01*
X9781190Y-28514714D01*
X9781190Y-28619476D01*
X9876429Y-28619476D02*
X9876429Y-28486143D01*
X9876429Y-28505190D02*
X9885952Y-28495667D01*
X9905000Y-28486143D01*
X9933571Y-28486143D01*
X9952619Y-28495667D01*
X9962143Y-28514714D01*
X9962143Y-28619476D01*
X9962143Y-28514714D02*
X9971667Y-28495667D01*
X9990714Y-28486143D01*
X10019286Y-28486143D01*
X10038333Y-28495667D01*
X10047857Y-28514714D01*
X10047857Y-28619476D01*
X10438333Y-28409952D02*
X10266905Y-28667095D01*
X10695476Y-28419476D02*
X10714524Y-28419476D01*
X10733571Y-28429000D01*
X10743095Y-28438524D01*
X10752619Y-28457571D01*
X10762143Y-28495667D01*
X10762143Y-28543286D01*
X10752619Y-28581381D01*
X10743095Y-28600428D01*
X10733571Y-28609952D01*
X10714524Y-28619476D01*
X10695476Y-28619476D01*
X10676429Y-28609952D01*
X10666905Y-28600428D01*
X10657381Y-28581381D01*
X10647857Y-28543286D01*
X10647857Y-28495667D01*
X10657381Y-28457571D01*
X10666905Y-28438524D01*
X10676429Y-28429000D01*
X10695476Y-28419476D01*
X10847857Y-28600428D02*
X10857381Y-28609952D01*
X10847857Y-28619476D01*
X10838333Y-28609952D01*
X10847857Y-28600428D01*
X10847857Y-28619476D01*
X10981190Y-28419476D02*
X11000238Y-28419476D01*
X11019286Y-28429000D01*
X11028810Y-28438524D01*
X11038333Y-28457571D01*
X11047857Y-28495667D01*
X11047857Y-28543286D01*
X11038333Y-28581381D01*
X11028810Y-28600428D01*
X11019286Y-28609952D01*
X11000238Y-28619476D01*
X10981190Y-28619476D01*
X10962143Y-28609952D01*
X10952619Y-28600428D01*
X10943095Y-28581381D01*
X10933571Y-28543286D01*
X10933571Y-28495667D01*
X10943095Y-28457571D01*
X10952619Y-28438524D01*
X10962143Y-28429000D01*
X10981190Y-28419476D01*
X11228809Y-28419476D02*
X11133571Y-28419476D01*
X11124048Y-28514714D01*
X11133571Y-28505190D01*
X11152619Y-28495667D01*
X11200238Y-28495667D01*
X11219286Y-28505190D01*
X11228809Y-28514714D01*
X11238333Y-28533762D01*
X11238333Y-28581381D01*
X11228809Y-28600428D01*
X11219286Y-28609952D01*
X11200238Y-28619476D01*
X11152619Y-28619476D01*
X11133571Y-28609952D01*
X11124048Y-28600428D01*
X11333571Y-28619476D02*
X11371667Y-28619476D01*
X11390714Y-28609952D01*
X11400238Y-28600428D01*
X11419286Y-28571857D01*
X11428809Y-28533762D01*
X11428809Y-28457571D01*
X11419286Y-28438524D01*
X11409762Y-28429000D01*
X11390714Y-28419476D01*
X11352619Y-28419476D01*
X11333571Y-28429000D01*
X11324048Y-28438524D01*
X11314524Y-28457571D01*
X11314524Y-28505190D01*
X11324048Y-28524238D01*
X11333571Y-28533762D01*
X11352619Y-28543286D01*
X11390714Y-28543286D01*
X11409762Y-28533762D01*
X11419286Y-28524238D01*
X11428809Y-28505190D01*
X11619286Y-28619476D02*
X11505000Y-28619476D01*
X11562143Y-28619476D02*
X11562143Y-28419476D01*
X11543095Y-28448048D01*
X11524048Y-28467095D01*
X11505000Y-28476619D01*
X11695476Y-28419476D02*
X11695476Y-28457571D01*
X11771667Y-28419476D02*
X11771667Y-28457571D01*
X12066905Y-28695667D02*
X12057381Y-28686143D01*
X12038333Y-28657571D01*
X12028809Y-28638524D01*
X12019286Y-28609952D01*
X12009762Y-28562333D01*
X12009762Y-28524238D01*
X12019286Y-28476619D01*
X12028809Y-28448048D01*
X12038333Y-28429000D01*
X12057381Y-28400428D01*
X12066905Y-28390905D01*
X12247857Y-28619476D02*
X12133571Y-28619476D01*
X12190714Y-28619476D02*
X12190714Y-28419476D01*
X12171667Y-28448048D01*
X12152619Y-28467095D01*
X12133571Y-28476619D01*
X12362143Y-28505190D02*
X12343095Y-28495667D01*
X12333571Y-28486143D01*
X12324048Y-28467095D01*
X12324048Y-28457571D01*
X12333571Y-28438524D01*
X12343095Y-28429000D01*
X12362143Y-28419476D01*
X12400238Y-28419476D01*
X12419286Y-28429000D01*
X12428809Y-28438524D01*
X12438333Y-28457571D01*
X12438333Y-28467095D01*
X12428809Y-28486143D01*
X12419286Y-28495667D01*
X12400238Y-28505190D01*
X12362143Y-28505190D01*
X12343095Y-28514714D01*
X12333571Y-28524238D01*
X12324048Y-28543286D01*
X12324048Y-28581381D01*
X12333571Y-28600428D01*
X12343095Y-28609952D01*
X12362143Y-28619476D01*
X12400238Y-28619476D01*
X12419286Y-28609952D01*
X12428809Y-28600428D01*
X12438333Y-28581381D01*
X12438333Y-28543286D01*
X12428809Y-28524238D01*
X12419286Y-28514714D01*
X12400238Y-28505190D01*
X12552619Y-28505190D02*
X12533571Y-28495667D01*
X12524048Y-28486143D01*
X12514524Y-28467095D01*
X12514524Y-28457571D01*
X12524048Y-28438524D01*
X12533571Y-28429000D01*
X12552619Y-28419476D01*
X12590714Y-28419476D01*
X12609762Y-28429000D01*
X12619286Y-28438524D01*
X12628809Y-28457571D01*
X12628809Y-28467095D01*
X12619286Y-28486143D01*
X12609762Y-28495667D01*
X12590714Y-28505190D01*
X12552619Y-28505190D01*
X12533571Y-28514714D01*
X12524048Y-28524238D01*
X12514524Y-28543286D01*
X12514524Y-28581381D01*
X12524048Y-28600428D01*
X12533571Y-28609952D01*
X12552619Y-28619476D01*
X12590714Y-28619476D01*
X12609762Y-28609952D01*
X12619286Y-28600428D01*
X12628809Y-28581381D01*
X12628809Y-28543286D01*
X12619286Y-28524238D01*
X12609762Y-28514714D01*
X12590714Y-28505190D01*
X12866905Y-28619476D02*
X12866905Y-28419476D01*
X12952619Y-28619476D02*
X12952619Y-28514714D01*
X12943095Y-28495667D01*
X12924048Y-28486143D01*
X12895476Y-28486143D01*
X12876428Y-28495667D01*
X12866905Y-28505190D01*
X13076428Y-28619476D02*
X13057381Y-28609952D01*
X13047857Y-28600428D01*
X13038333Y-28581381D01*
X13038333Y-28524238D01*
X13047857Y-28505190D01*
X13057381Y-28495667D01*
X13076428Y-28486143D01*
X13105000Y-28486143D01*
X13124048Y-28495667D01*
X13133571Y-28505190D01*
X13143095Y-28524238D01*
X13143095Y-28581381D01*
X13133571Y-28600428D01*
X13124048Y-28609952D01*
X13105000Y-28619476D01*
X13076428Y-28619476D01*
X13257381Y-28619476D02*
X13238333Y-28609952D01*
X13228809Y-28590905D01*
X13228809Y-28419476D01*
X13409762Y-28609952D02*
X13390714Y-28619476D01*
X13352619Y-28619476D01*
X13333571Y-28609952D01*
X13324048Y-28590905D01*
X13324048Y-28514714D01*
X13333571Y-28495667D01*
X13352619Y-28486143D01*
X13390714Y-28486143D01*
X13409762Y-28495667D01*
X13419286Y-28514714D01*
X13419286Y-28533762D01*
X13324048Y-28552809D01*
X13495476Y-28609952D02*
X13514524Y-28619476D01*
X13552619Y-28619476D01*
X13571667Y-28609952D01*
X13581190Y-28590905D01*
X13581190Y-28581381D01*
X13571667Y-28562333D01*
X13552619Y-28552809D01*
X13524048Y-28552809D01*
X13505000Y-28543286D01*
X13495476Y-28524238D01*
X13495476Y-28514714D01*
X13505000Y-28495667D01*
X13524048Y-28486143D01*
X13552619Y-28486143D01*
X13571667Y-28495667D01*
X13647857Y-28695667D02*
X13657381Y-28686143D01*
X13676428Y-28657571D01*
X13685952Y-28638524D01*
X13695476Y-28609952D01*
X13705000Y-28562333D01*
X13705000Y-28524238D01*
X13695476Y-28476619D01*
X13685952Y-28448048D01*
X13676428Y-28429000D01*
X13657381Y-28400428D01*
X13647857Y-28390905D01*
X8295000Y-28699000D02*
X8495000Y-28899000D01*
X8495000Y-28699000D02*
X8295000Y-28899000D01*
X8465711Y-28869711D02*
X8465711Y-28728289D01*
X8324289Y-28728289D01*
X8324289Y-28869711D01*
X8465711Y-28869711D01*
X8838333Y-28756143D02*
X8838333Y-28889476D01*
X8790714Y-28679952D02*
X8743095Y-28822809D01*
X8866905Y-28822809D01*
X8943095Y-28870428D02*
X8952619Y-28879952D01*
X8943095Y-28889476D01*
X8933571Y-28879952D01*
X8943095Y-28870428D01*
X8943095Y-28889476D01*
X9019286Y-28689476D02*
X9143095Y-28689476D01*
X9076429Y-28765667D01*
X9105000Y-28765667D01*
X9124048Y-28775190D01*
X9133571Y-28784714D01*
X9143095Y-28803762D01*
X9143095Y-28851381D01*
X9133571Y-28870428D01*
X9124048Y-28879952D01*
X9105000Y-28889476D01*
X9047857Y-28889476D01*
X9028810Y-28879952D01*
X9019286Y-28870428D01*
X9266905Y-28689476D02*
X9285952Y-28689476D01*
X9305000Y-28699000D01*
X9314524Y-28708524D01*
X9324048Y-28727571D01*
X9333571Y-28765667D01*
X9333571Y-28813286D01*
X9324048Y-28851381D01*
X9314524Y-28870428D01*
X9305000Y-28879952D01*
X9285952Y-28889476D01*
X9266905Y-28889476D01*
X9247857Y-28879952D01*
X9238333Y-28870428D01*
X9228810Y-28851381D01*
X9219286Y-28813286D01*
X9219286Y-28765667D01*
X9228810Y-28727571D01*
X9238333Y-28708524D01*
X9247857Y-28699000D01*
X9266905Y-28689476D01*
X9457381Y-28689476D02*
X9476429Y-28689476D01*
X9495476Y-28699000D01*
X9505000Y-28708524D01*
X9514524Y-28727571D01*
X9524048Y-28765667D01*
X9524048Y-28813286D01*
X9514524Y-28851381D01*
X9505000Y-28870428D01*
X9495476Y-28879952D01*
X9476429Y-28889476D01*
X9457381Y-28889476D01*
X9438333Y-28879952D01*
X9428810Y-28870428D01*
X9419286Y-28851381D01*
X9409762Y-28813286D01*
X9409762Y-28765667D01*
X9419286Y-28727571D01*
X9428810Y-28708524D01*
X9438333Y-28699000D01*
X9457381Y-28689476D01*
X9609762Y-28889476D02*
X9609762Y-28756143D01*
X9609762Y-28775190D02*
X9619286Y-28765667D01*
X9638333Y-28756143D01*
X9666905Y-28756143D01*
X9685952Y-28765667D01*
X9695476Y-28784714D01*
X9695476Y-28889476D01*
X9695476Y-28784714D02*
X9705000Y-28765667D01*
X9724048Y-28756143D01*
X9752619Y-28756143D01*
X9771667Y-28765667D01*
X9781190Y-28784714D01*
X9781190Y-28889476D01*
X9876429Y-28889476D02*
X9876429Y-28756143D01*
X9876429Y-28775190D02*
X9885952Y-28765667D01*
X9905000Y-28756143D01*
X9933571Y-28756143D01*
X9952619Y-28765667D01*
X9962143Y-28784714D01*
X9962143Y-28889476D01*
X9962143Y-28784714D02*
X9971667Y-28765667D01*
X9990714Y-28756143D01*
X10019286Y-28756143D01*
X10038333Y-28765667D01*
X10047857Y-28784714D01*
X10047857Y-28889476D01*
X10438333Y-28679952D02*
X10266905Y-28937095D01*
X10695476Y-28689476D02*
X10714524Y-28689476D01*
X10733571Y-28699000D01*
X10743095Y-28708524D01*
X10752619Y-28727571D01*
X10762143Y-28765667D01*
X10762143Y-28813286D01*
X10752619Y-28851381D01*
X10743095Y-28870428D01*
X10733571Y-28879952D01*
X10714524Y-28889476D01*
X10695476Y-28889476D01*
X10676429Y-28879952D01*
X10666905Y-28870428D01*
X10657381Y-28851381D01*
X10647857Y-28813286D01*
X10647857Y-28765667D01*
X10657381Y-28727571D01*
X10666905Y-28708524D01*
X10676429Y-28699000D01*
X10695476Y-28689476D01*
X10847857Y-28870428D02*
X10857381Y-28879952D01*
X10847857Y-28889476D01*
X10838333Y-28879952D01*
X10847857Y-28870428D01*
X10847857Y-28889476D01*
X11047857Y-28889476D02*
X10933571Y-28889476D01*
X10990714Y-28889476D02*
X10990714Y-28689476D01*
X10971667Y-28718048D01*
X10952619Y-28737095D01*
X10933571Y-28746619D01*
X11219286Y-28689476D02*
X11181190Y-28689476D01*
X11162143Y-28699000D01*
X11152619Y-28708524D01*
X11133571Y-28737095D01*
X11124048Y-28775190D01*
X11124048Y-28851381D01*
X11133571Y-28870428D01*
X11143095Y-28879952D01*
X11162143Y-28889476D01*
X11200238Y-28889476D01*
X11219286Y-28879952D01*
X11228809Y-28870428D01*
X11238333Y-28851381D01*
X11238333Y-28803762D01*
X11228809Y-28784714D01*
X11219286Y-28775190D01*
X11200238Y-28765667D01*
X11162143Y-28765667D01*
X11143095Y-28775190D01*
X11133571Y-28784714D01*
X11124048Y-28803762D01*
X11333571Y-28889476D02*
X11371667Y-28889476D01*
X11390714Y-28879952D01*
X11400238Y-28870428D01*
X11419286Y-28841857D01*
X11428809Y-28803762D01*
X11428809Y-28727571D01*
X11419286Y-28708524D01*
X11409762Y-28699000D01*
X11390714Y-28689476D01*
X11352619Y-28689476D01*
X11333571Y-28699000D01*
X11324048Y-28708524D01*
X11314524Y-28727571D01*
X11314524Y-28775190D01*
X11324048Y-28794238D01*
X11333571Y-28803762D01*
X11352619Y-28813286D01*
X11390714Y-28813286D01*
X11409762Y-28803762D01*
X11419286Y-28794238D01*
X11428809Y-28775190D01*
X11495476Y-28689476D02*
X11619286Y-28689476D01*
X11552619Y-28765667D01*
X11581190Y-28765667D01*
X11600238Y-28775190D01*
X11609762Y-28784714D01*
X11619286Y-28803762D01*
X11619286Y-28851381D01*
X11609762Y-28870428D01*
X11600238Y-28879952D01*
X11581190Y-28889476D01*
X11524048Y-28889476D01*
X11505000Y-28879952D01*
X11495476Y-28870428D01*
X11695476Y-28689476D02*
X11695476Y-28727571D01*
X11771667Y-28689476D02*
X11771667Y-28727571D01*
X12066905Y-28965667D02*
X12057381Y-28956143D01*
X12038333Y-28927571D01*
X12028809Y-28908524D01*
X12019286Y-28879952D01*
X12009762Y-28832333D01*
X12009762Y-28794238D01*
X12019286Y-28746619D01*
X12028809Y-28718048D01*
X12038333Y-28699000D01*
X12057381Y-28670428D01*
X12066905Y-28660905D01*
X12247857Y-28889476D02*
X12133571Y-28889476D01*
X12190714Y-28889476D02*
X12190714Y-28689476D01*
X12171667Y-28718048D01*
X12152619Y-28737095D01*
X12133571Y-28746619D01*
X12419286Y-28689476D02*
X12381190Y-28689476D01*
X12362143Y-28699000D01*
X12352619Y-28708524D01*
X12333571Y-28737095D01*
X12324048Y-28775190D01*
X12324048Y-28851381D01*
X12333571Y-28870428D01*
X12343095Y-28879952D01*
X12362143Y-28889476D01*
X12400238Y-28889476D01*
X12419286Y-28879952D01*
X12428809Y-28870428D01*
X12438333Y-28851381D01*
X12438333Y-28803762D01*
X12428809Y-28784714D01*
X12419286Y-28775190D01*
X12400238Y-28765667D01*
X12362143Y-28765667D01*
X12343095Y-28775190D01*
X12333571Y-28784714D01*
X12324048Y-28803762D01*
X12676428Y-28889476D02*
X12676428Y-28689476D01*
X12762143Y-28889476D02*
X12762143Y-28784714D01*
X12752619Y-28765667D01*
X12733571Y-28756143D01*
X12705000Y-28756143D01*
X12685952Y-28765667D01*
X12676428Y-28775190D01*
X12885952Y-28889476D02*
X12866905Y-28879952D01*
X12857381Y-28870428D01*
X12847857Y-28851381D01*
X12847857Y-28794238D01*
X12857381Y-28775190D01*
X12866905Y-28765667D01*
X12885952Y-28756143D01*
X12914524Y-28756143D01*
X12933571Y-28765667D01*
X12943095Y-28775190D01*
X12952619Y-28794238D01*
X12952619Y-28851381D01*
X12943095Y-28870428D01*
X12933571Y-28879952D01*
X12914524Y-28889476D01*
X12885952Y-28889476D01*
X13066905Y-28889476D02*
X13047857Y-28879952D01*
X13038333Y-28860905D01*
X13038333Y-28689476D01*
X13219286Y-28879952D02*
X13200238Y-28889476D01*
X13162143Y-28889476D01*
X13143095Y-28879952D01*
X13133571Y-28860905D01*
X13133571Y-28784714D01*
X13143095Y-28765667D01*
X13162143Y-28756143D01*
X13200238Y-28756143D01*
X13219286Y-28765667D01*
X13228809Y-28784714D01*
X13228809Y-28803762D01*
X13133571Y-28822809D01*
X13305000Y-28879952D02*
X13324048Y-28889476D01*
X13362143Y-28889476D01*
X13381190Y-28879952D01*
X13390714Y-28860905D01*
X13390714Y-28851381D01*
X13381190Y-28832333D01*
X13362143Y-28822809D01*
X13333571Y-28822809D01*
X13314524Y-28813286D01*
X13305000Y-28794238D01*
X13305000Y-28784714D01*
X13314524Y-28765667D01*
X13333571Y-28756143D01*
X13362143Y-28756143D01*
X13381190Y-28765667D01*
X13457381Y-28965667D02*
X13466905Y-28956143D01*
X13485952Y-28927571D01*
X13495476Y-28908524D01*
X13505000Y-28879952D01*
X13514524Y-28832333D01*
X13514524Y-28794238D01*
X13505000Y-28746619D01*
X13495476Y-28718048D01*
X13485952Y-28699000D01*
X13466905Y-28670428D01*
X13457381Y-28660905D01*
M02*
