M48
; DRILL file {KiCad 6.0.10-86aedd382b~118~ubuntu22.04.1} date on. 01. feb. 2023 kl. 13.13 +0100
; FORMAT={-:-/ absolute / metric / decimal}
; #@! TF.CreationDate,2023-02-01T13:13:32+01:00
; #@! TF.GenerationSoftware,Kicad,Pcbnew,6.0.10-86aedd382b~118~ubuntu22.04.1
; #@! TF.FileFunction,Plated,1,2,PTH
FMAT,2
METRIC
; #@! TA.AperFunction,Plated,PTH,ViaDrill
T1C0.400
; #@! TA.AperFunction,Plated,PTH,ComponentDrill
T2C0.750
; #@! TA.AperFunction,Plated,PTH,ComponentDrill
T3C0.900
; #@! TA.AperFunction,Plated,PTH,ComponentDrill
T4C1.000
; #@! TA.AperFunction,Plated,PTH,ComponentDrill
T5C1.020
; #@! TA.AperFunction,Plated,PTH,ComponentDrill
T6C1.100
; #@! TA.AperFunction,Plated,PTH,ComponentDrill
T7C1.500
; #@! TA.AperFunction,Plated,PTH,ComponentDrill
T8C4.300
%
G90
G05
T1
X106.0Y-81.0
X110.5Y-126.0
X110.5Y-208.0
X111.0Y-111.0
X124.0Y-107.5
X138.415Y-89.143
X138.5Y-198.5
X140.075Y-118.0
X141.0Y-205.5
X153.0Y-112.0
X158.696Y-139.094
X158.791Y-115.568
X160.155Y-161.0
X165.77Y-111.155
X174.5Y-158.0
X175.0Y-135.5
X186.5Y-143.5
X187.0Y-120.0
X187.0Y-167.5
X188.5Y-126.5
X189.0Y-150.5
X210.5Y-83.5
X211.0Y-193.5
X221.0Y-100.5
X247.0Y-109.5
X248.5Y-150.5
X251.0Y-80.5
X252.5Y-71.0
X254.105Y-107.615
X254.419Y-115.474
X257.879Y-138.672
X259.5Y-180.0
X262.021Y-89.508
X263.162Y-88.512
X274.149Y-71.161
X274.149Y-73.371
X277.0Y-123.5
X280.022Y-184.718
X281.615Y-194.845
X285.5Y-108.5
X288.683Y-80.043
X297.0Y-96.0
X299.0Y-100.0
X300.0Y-80.5
X342.73Y-193.155
X347.0Y-140.5
X349.0Y-86.5
X359.016Y-136.415
X360.0Y-113.0
X360.001Y-91.738
X361.5Y-179.5
X362.135Y-52.486
X366.155Y-65.276
X368.0Y-92.0
X373.5Y-117.5
X377.0Y-152.5
X379.239Y-95.79
X380.0Y-173.5
X380.277Y-42.077
X382.08Y-56.08
X382.08Y-139.094
X382.08Y-150.904
X390.5Y-108.5
X397.185Y-86.214
X407.176Y-136.0
X409.954Y-182.398
X410.035Y-112.0
X411.035Y-160.0
X422.064Y-87.824
X434.035Y-110.0
X434.456Y-155.155
X434.655Y-181.0
X435.035Y-134.0
X437.5Y-191.5
X438.0Y-199.0
X453.696Y-88.104
X458.052Y-115.0
X458.655Y-138.31
X458.84Y-55.999
X459.5Y-158.695
X462.281Y-205.593
X466.5Y-171.0
X466.5Y-177.5
X469.838Y-76.107
X477.654Y-123.184
X498.5Y-187.0
X508.0Y-199.0
X509.5Y-206.5
X510.655Y-86.0
T2
X426.915Y-50.34
X429.455Y-50.34
X455.615Y-50.44
X458.155Y-50.44
X485.115Y-50.24
X487.655Y-50.24
X512.73Y-50.44
X515.27Y-50.44
T3
X109.9Y-50.7
X112.44Y-50.7
X138.1Y-51.2
X140.64Y-51.2
X167.4Y-51.0
X169.94Y-51.0
X195.2Y-51.2
X197.74Y-51.2
T4
X223.92Y-53.0
X229.0Y-53.0
X397.01Y-53.0
X402.09Y-53.0
T5
X255.87Y-43.835
X255.87Y-61.615
X256.1Y-50.185
X256.1Y-52.725
X256.1Y-55.265
X258.41Y-43.835
X258.41Y-61.615
X260.95Y-43.835
X260.95Y-61.615
X263.49Y-43.835
X263.49Y-61.615
X266.03Y-43.835
X266.03Y-61.615
X268.57Y-43.835
X268.57Y-61.615
X271.11Y-43.835
X271.11Y-61.615
X273.65Y-43.835
X273.65Y-61.615
X276.19Y-43.835
X276.19Y-61.615
X278.73Y-43.835
X278.73Y-61.615
X281.27Y-43.835
X281.27Y-61.615
X283.81Y-43.835
X283.81Y-61.615
X286.35Y-43.835
X286.35Y-61.615
X288.89Y-43.835
X288.89Y-61.615
X291.43Y-43.835
X291.43Y-61.615
X293.97Y-43.835
X293.97Y-61.615
X296.51Y-43.835
X296.51Y-61.615
X299.05Y-43.835
X299.05Y-61.615
X301.59Y-43.835
X301.59Y-61.615
X304.13Y-43.835
X304.13Y-61.615
X320.42Y-43.835
X320.42Y-61.615
X322.96Y-43.835
X322.96Y-61.615
X325.5Y-43.835
X325.5Y-61.615
X328.04Y-43.835
X328.04Y-61.615
X330.58Y-43.835
X330.58Y-61.615
X333.12Y-43.835
X333.12Y-61.615
X335.66Y-43.835
X335.66Y-61.615
X338.2Y-43.835
X338.2Y-61.615
X340.74Y-43.835
X340.74Y-61.615
X343.28Y-43.835
X343.28Y-61.615
X345.82Y-43.835
X345.82Y-61.615
X348.36Y-43.835
X348.36Y-61.615
X350.9Y-43.835
X350.9Y-61.615
X353.44Y-43.835
X353.44Y-61.615
X355.98Y-43.835
X355.98Y-61.615
X358.52Y-43.835
X358.52Y-61.615
X361.06Y-43.835
X361.06Y-61.615
X363.6Y-43.835
X363.6Y-61.615
X366.14Y-43.835
X366.14Y-61.615
X368.45Y-50.185
X368.45Y-52.725
X368.45Y-55.265
X368.68Y-43.835
X368.68Y-61.615
T6
X297.57Y-90.63
X300.67Y-95.83
X305.67Y-87.43
X305.67Y-96.73
X318.975Y-87.75
X318.975Y-97.05
X323.975Y-88.65
X327.075Y-93.85
T7
X107.39Y-73.06
X107.49Y-175.56
X107.59Y-104.06
X107.59Y-151.76
X107.79Y-127.96
X112.29Y-199.46
X113.74Y-70.52
X113.84Y-173.02
X113.94Y-101.52
X113.94Y-149.22
X114.14Y-125.42
X118.64Y-196.92
X135.99Y-73.16
X135.99Y-199.36
X136.09Y-127.96
X136.19Y-104.26
X136.19Y-175.36
X136.49Y-151.66
X142.34Y-70.62
X142.34Y-196.82
X142.44Y-125.42
X142.54Y-101.72
X142.54Y-172.82
X142.84Y-149.12
X159.89Y-123.26
X159.89Y-170.76
X159.99Y-194.56
X160.09Y-146.96
X160.19Y-99.46
X164.79Y-73.16
X166.24Y-120.72
X166.24Y-168.22
X166.34Y-192.02
X166.44Y-144.42
X166.54Y-96.92
X171.14Y-70.62
X183.69Y-144.56
X183.69Y-168.26
X183.69Y-192.26
X183.79Y-96.86
X183.79Y-120.66
X190.04Y-142.02
X190.04Y-165.72
X190.04Y-189.72
X190.14Y-94.32
X190.14Y-118.12
X193.39Y-73.06
X199.74Y-70.52
X207.39Y-146.96
X207.59Y-123.16
X207.59Y-170.86
X207.69Y-99.36
X207.69Y-194.66
X213.74Y-144.42
X213.94Y-120.62
X213.94Y-168.32
X214.04Y-96.82
X214.04Y-192.12
X222.09Y-72.96
X228.44Y-70.42
X231.19Y-173.16
X231.29Y-101.56
X231.29Y-149.26
X231.49Y-125.46
X237.54Y-170.62
X237.64Y-99.02
X237.64Y-146.72
X237.84Y-122.92
X242.81Y-209.815
X249.58Y-210.791
X250.29Y-73.26
X255.09Y-149.36
X255.19Y-125.46
X255.29Y-101.66
X255.29Y-173.16
X256.64Y-70.72
X261.44Y-146.82
X261.54Y-122.92
X261.64Y-99.12
X261.64Y-170.62
X263.51Y-221.615
X270.28Y-222.591
X275.31Y-201.015
X277.74Y-134.92
X277.96Y-168.18
X278.99Y-73.16
X278.99Y-101.66
X280.28Y-141.27
X280.5Y-174.53
X282.08Y-201.991
X284.11Y-233.715
X285.34Y-70.62
X285.34Y-99.12
X290.88Y-234.691
X336.2Y-237.365
X337.37Y-135.16
X337.47Y-168.46
X338.32Y-73.3
X338.52Y-101.8
X339.91Y-141.51
X340.01Y-174.81
X340.43Y-231.991
X344.67Y-70.76
X344.87Y-99.26
X348.25Y-204.735
X352.48Y-199.36
X356.9Y-225.465
X361.13Y-220.091
X362.32Y-149.5
X362.42Y-101.7
X362.52Y-173.2
X362.62Y-125.7
X367.12Y-73.2
X368.67Y-146.96
X368.77Y-99.16
X368.87Y-170.66
X368.97Y-123.16
X373.47Y-70.66
X377.5Y-213.465
X381.73Y-208.091
X386.22Y-101.9
X386.22Y-125.6
X386.32Y-149.4
X386.32Y-173.0
X392.57Y-99.36
X392.57Y-123.06
X392.67Y-146.86
X392.67Y-170.46
X395.72Y-73.3
X402.07Y-70.76
X410.02Y-170.9
X410.12Y-99.5
X410.12Y-194.7
X410.22Y-123.2
X410.22Y-147.2
X416.37Y-168.36
X416.47Y-96.96
X416.47Y-192.16
X416.57Y-120.66
X416.57Y-144.66
X424.26Y-73.32
X430.61Y-70.78
X433.72Y-97.2
X433.88Y-168.42
X433.92Y-144.8
X434.02Y-121.0
X434.02Y-192.1
X440.07Y-94.66
X440.23Y-165.88
X440.27Y-142.26
X440.37Y-118.46
X440.37Y-189.56
X452.92Y-73.4
X457.52Y-194.8
X457.72Y-125.6
X457.82Y-101.8
X457.82Y-147.1
X458.12Y-171.0
X459.27Y-70.86
X463.87Y-192.26
X464.07Y-123.06
X464.17Y-99.26
X464.17Y-144.56
X464.47Y-168.46
X481.32Y-151.8
X481.32Y-199.6
X481.42Y-104.3
X481.42Y-175.5
X481.52Y-73.2
X481.62Y-128.1
X487.67Y-149.26
X487.67Y-197.06
X487.77Y-101.76
X487.77Y-172.96
X487.87Y-70.66
X487.97Y-125.56
X505.22Y-199.7
X510.02Y-151.9
X510.12Y-104.2
X510.12Y-128.0
X510.22Y-73.3
X510.32Y-175.6
X511.57Y-197.16
X516.37Y-149.36
X516.47Y-101.66
X516.47Y-125.46
X516.57Y-70.76
X516.67Y-173.06
T8
X92.1Y-146.1
X92.1Y-255.9
X92.2Y-34.1
X197.5Y-255.9
X197.6Y-34.1
X300.9Y-145.9
X301.3Y-255.7
X302.75Y-32.6
X322.0Y-32.65
X323.85Y-255.9
X327.0Y-146.0
X426.5Y-257.35
X426.55Y-32.65
X529.8Y-145.95
X529.85Y-32.6
X529.85Y-257.35
T0
M30
