%TF.GenerationSoftware,KiCad,Pcbnew,7.0.0-da2b9df05c~163~ubuntu22.04.1*%
%TF.CreationDate,2023-02-19T11:58:47+01:00*%
%TF.ProjectId,Europe-ergo,4575726f-7065-42d6-9572-676f2e6b6963,rev?*%
%TF.SameCoordinates,Original*%
%TF.FileFunction,Drillmap*%
%TF.FilePolarity,Positive*%
%FSLAX45Y45*%
G04 Gerber Fmt 4.5, Leading zero omitted, Abs format (unit mm)*
G04 Created by KiCad (PCBNEW 7.0.0-da2b9df05c~163~ubuntu22.04.1) date 2023-02-19 11:58:47*
%MOMM*%
%LPD*%
G01*
G04 APERTURE LIST*
%ADD10C,0.100000*%
%ADD11C,0.200000*%
%ADD12C,0.110000*%
%ADD13C,0.150000*%
%ADD14C,0.170000*%
%ADD15C,0.180000*%
%ADD16C,0.400000*%
G04 APERTURE END LIST*
D10*
X30857000Y-8388000D02*
X30850000Y-3125000D01*
X31607500Y-8340000D02*
X31605000Y-3125000D01*
X31345000Y-22685000D02*
X31745000Y-22685000D01*
X9400000Y-2700000D02*
X30850000Y-2700000D01*
X52800000Y-23500000D02*
X52855000Y-2690000D01*
X9490000Y-23510000D02*
X9400000Y-2700000D01*
X31345000Y-22685000D02*
X30900000Y-22685000D01*
X31605000Y-3125000D02*
X30850000Y-3125000D01*
X52855000Y-2690000D02*
X30850000Y-2700000D01*
X30990000Y-23510000D02*
X52800000Y-23500000D01*
X30857000Y-10108000D02*
X30900000Y-22685000D01*
X31607500Y-10060000D02*
X31745000Y-22685000D01*
X30990000Y-23510000D02*
X9490000Y-23510000D01*
D11*
D12*
X30012000Y-9168000D02*
X30122000Y-9278000D01*
X30122000Y-9168000D02*
X30012000Y-9278000D01*
X30512000Y-9168000D02*
X30622000Y-9278000D01*
X30622000Y-9168000D02*
X30512000Y-9278000D01*
X31842500Y-9170000D02*
X31952500Y-9280000D01*
X31952500Y-9170000D02*
X31842500Y-9280000D01*
X32342500Y-9170000D02*
X32452500Y-9280000D01*
X32452500Y-9170000D02*
X32342500Y-9280000D01*
D13*
X30172000Y-5030000D02*
G75*
G03*
X30172000Y-5030000I-75000J0D01*
G01*
X30172000Y-5515000D02*
G75*
G03*
X30172000Y-5515000I-75000J0D01*
G01*
X32433000Y-5030000D02*
G75*
G03*
X32433000Y-5030000I-75000J0D01*
G01*
X32433000Y-5515000D02*
G75*
G03*
X32433000Y-5515000I-75000J0D01*
G01*
D14*
X12392000Y-9875000D02*
X12392000Y-10045000D01*
X12307000Y-9960000D02*
X12477000Y-9960000D01*
X12424000Y-11965000D02*
X12424000Y-12135000D01*
X12339000Y-12050000D02*
X12509000Y-12050000D01*
X12551000Y-14055000D02*
X12551000Y-14225000D01*
X12466000Y-14140000D02*
X12636000Y-14140000D01*
X12592000Y-16163000D02*
X12592000Y-16333000D01*
X12507000Y-16248000D02*
X12677000Y-16248000D01*
X13038000Y-18283000D02*
X13038000Y-18453000D01*
X12953000Y-18368000D02*
X13123000Y-18368000D01*
X13408000Y-9875000D02*
X13408000Y-10045000D01*
X13323000Y-9960000D02*
X13493000Y-9960000D01*
X13440000Y-11965000D02*
X13440000Y-12135000D01*
X13355000Y-12050000D02*
X13525000Y-12050000D01*
X13567000Y-14055000D02*
X13567000Y-14225000D01*
X13482000Y-14140000D02*
X13652000Y-14140000D01*
X13608000Y-16163000D02*
X13608000Y-16333000D01*
X13523000Y-16248000D02*
X13693000Y-16248000D01*
X14054000Y-18283000D02*
X14054000Y-18453000D01*
X13969000Y-18368000D02*
X14139000Y-18368000D01*
X14992000Y-7475000D02*
X14992000Y-7645000D01*
X14907000Y-7560000D02*
X15077000Y-7560000D01*
X15000000Y-9895000D02*
X15000000Y-10065000D01*
X14915000Y-9980000D02*
X15085000Y-9980000D01*
X15022000Y-11965000D02*
X15022000Y-12135000D01*
X14937000Y-12050000D02*
X15107000Y-12050000D01*
X15135000Y-14045000D02*
X15135000Y-14215000D01*
X15050000Y-14130000D02*
X15220000Y-14130000D01*
X15188000Y-16143000D02*
X15188000Y-16313000D01*
X15103000Y-16228000D02*
X15273000Y-16228000D01*
X15192000Y-18273000D02*
X15192000Y-18443000D01*
X15107000Y-18358000D02*
X15277000Y-18358000D01*
X16008000Y-7475000D02*
X16008000Y-7645000D01*
X15923000Y-7560000D02*
X16093000Y-7560000D01*
X16016000Y-9895000D02*
X16016000Y-10065000D01*
X15931000Y-9980000D02*
X16101000Y-9980000D01*
X16038000Y-11965000D02*
X16038000Y-12135000D01*
X15953000Y-12050000D02*
X16123000Y-12050000D01*
X16151000Y-14045000D02*
X16151000Y-14215000D01*
X16066000Y-14130000D02*
X16236000Y-14130000D01*
X16204000Y-16143000D02*
X16204000Y-16313000D01*
X16119000Y-16228000D02*
X16289000Y-16228000D01*
X16208000Y-18273000D02*
X16208000Y-18443000D01*
X16123000Y-18358000D02*
X16293000Y-18358000D01*
X17054000Y-9395000D02*
X17054000Y-9565000D01*
X16969000Y-9480000D02*
X17139000Y-9480000D01*
X17072000Y-7485000D02*
X17072000Y-7655000D01*
X16987000Y-7570000D02*
X17157000Y-7570000D01*
X17184000Y-11495000D02*
X17184000Y-11665000D01*
X17099000Y-11580000D02*
X17269000Y-11580000D01*
X17225000Y-13575000D02*
X17225000Y-13745000D01*
X17140000Y-13660000D02*
X17310000Y-13660000D01*
X17284000Y-15683000D02*
X17284000Y-15853000D01*
X17199000Y-15768000D02*
X17369000Y-15768000D01*
X17292000Y-17975000D02*
X17292000Y-18145000D01*
X17207000Y-18060000D02*
X17377000Y-18060000D01*
X18070000Y-9395000D02*
X18070000Y-9565000D01*
X17985000Y-9480000D02*
X18155000Y-9480000D01*
X18088000Y-7485000D02*
X18088000Y-7655000D01*
X18003000Y-7570000D02*
X18173000Y-7570000D01*
X18200000Y-11495000D02*
X18200000Y-11665000D01*
X18115000Y-11580000D02*
X18285000Y-11580000D01*
X18241000Y-13575000D02*
X18241000Y-13745000D01*
X18156000Y-13660000D02*
X18326000Y-13660000D01*
X18300000Y-15683000D02*
X18300000Y-15853000D01*
X18215000Y-15768000D02*
X18385000Y-15768000D01*
X18308000Y-17975000D02*
X18308000Y-18145000D01*
X18223000Y-18060000D02*
X18393000Y-18060000D01*
X19122000Y-9135000D02*
X19122000Y-9305000D01*
X19037000Y-9220000D02*
X19207000Y-9220000D01*
X19192000Y-7485000D02*
X19192000Y-7655000D01*
X19107000Y-7570000D02*
X19277000Y-7570000D01*
X19306000Y-11235000D02*
X19306000Y-11405000D01*
X19221000Y-11320000D02*
X19391000Y-11320000D01*
X19356000Y-13335000D02*
X19356000Y-13505000D01*
X19271000Y-13420000D02*
X19441000Y-13420000D01*
X19384000Y-15433000D02*
X19384000Y-15603000D01*
X19299000Y-15518000D02*
X19469000Y-15518000D01*
X19392000Y-17575000D02*
X19392000Y-17745000D01*
X19307000Y-17660000D02*
X19477000Y-17660000D01*
X20138000Y-9135000D02*
X20138000Y-9305000D01*
X20053000Y-9220000D02*
X20223000Y-9220000D01*
X20208000Y-7485000D02*
X20208000Y-7655000D01*
X20123000Y-7570000D02*
X20293000Y-7570000D01*
X20322000Y-11235000D02*
X20322000Y-11405000D01*
X20237000Y-11320000D02*
X20407000Y-11320000D01*
X20372000Y-13335000D02*
X20372000Y-13505000D01*
X20287000Y-13420000D02*
X20457000Y-13420000D01*
X20400000Y-15433000D02*
X20400000Y-15603000D01*
X20315000Y-15518000D02*
X20485000Y-15518000D01*
X20408000Y-17575000D02*
X20408000Y-17745000D01*
X20323000Y-17660000D02*
X20493000Y-17660000D01*
X21272000Y-9385000D02*
X21272000Y-9555000D01*
X21187000Y-9470000D02*
X21357000Y-9470000D01*
X21292000Y-7475000D02*
X21292000Y-7645000D01*
X21207000Y-7560000D02*
X21377000Y-7560000D01*
X21446000Y-11485000D02*
X21446000Y-11655000D01*
X21361000Y-11570000D02*
X21531000Y-11570000D01*
X21476000Y-13575000D02*
X21476000Y-13745000D01*
X21391000Y-13660000D02*
X21561000Y-13660000D01*
X21492000Y-15693000D02*
X21492000Y-15863000D01*
X21407000Y-15778000D02*
X21577000Y-15778000D01*
X21492000Y-17815000D02*
X21492000Y-17985000D01*
X21407000Y-17900000D02*
X21577000Y-17900000D01*
X22288000Y-9385000D02*
X22288000Y-9555000D01*
X22203000Y-9470000D02*
X22373000Y-9470000D01*
X22308000Y-7475000D02*
X22308000Y-7645000D01*
X22223000Y-7560000D02*
X22393000Y-7560000D01*
X22462000Y-11485000D02*
X22462000Y-11655000D01*
X22377000Y-11570000D02*
X22547000Y-11570000D01*
X22492000Y-13575000D02*
X22492000Y-13745000D01*
X22407000Y-13660000D02*
X22577000Y-13660000D01*
X22508000Y-15693000D02*
X22508000Y-15863000D01*
X22423000Y-15778000D02*
X22593000Y-15778000D01*
X22508000Y-17815000D02*
X22508000Y-17985000D01*
X22423000Y-17900000D02*
X22593000Y-17900000D01*
X23382000Y-9605000D02*
X23382000Y-9775000D01*
X23297000Y-9690000D02*
X23467000Y-9690000D01*
X23392000Y-7465000D02*
X23392000Y-7635000D01*
X23307000Y-7550000D02*
X23477000Y-7550000D01*
X23576000Y-11715000D02*
X23576000Y-11885000D01*
X23491000Y-11800000D02*
X23661000Y-11800000D01*
X23592000Y-15923000D02*
X23592000Y-16093000D01*
X23507000Y-16008000D02*
X23677000Y-16008000D01*
X23594000Y-13805000D02*
X23594000Y-13975000D01*
X23509000Y-13890000D02*
X23679000Y-13890000D01*
X24306059Y-18778001D02*
X24306059Y-18948001D01*
X24221059Y-18863001D02*
X24391059Y-18863001D01*
X24398000Y-9605000D02*
X24398000Y-9775000D01*
X24313000Y-9690000D02*
X24483000Y-9690000D01*
X24408000Y-7465000D02*
X24408000Y-7635000D01*
X24323000Y-7550000D02*
X24493000Y-7550000D01*
X24592000Y-11715000D02*
X24592000Y-11885000D01*
X24507000Y-11800000D02*
X24677000Y-11800000D01*
X24608000Y-15923000D02*
X24608000Y-16093000D01*
X24523000Y-16008000D02*
X24693000Y-16008000D01*
X24610000Y-13805000D02*
X24610000Y-13975000D01*
X24525000Y-13890000D02*
X24695000Y-13890000D01*
X25185940Y-19286001D02*
X25185940Y-19456001D01*
X25100940Y-19371001D02*
X25270940Y-19371001D01*
X25492000Y-9615000D02*
X25492000Y-9785000D01*
X25407000Y-9700000D02*
X25577000Y-9700000D01*
X25592000Y-7495000D02*
X25592000Y-7665000D01*
X25507000Y-7580000D02*
X25677000Y-7580000D01*
X25684000Y-11715000D02*
X25684000Y-11885000D01*
X25599000Y-11800000D02*
X25769000Y-11800000D01*
X25692000Y-13815000D02*
X25692000Y-13985000D01*
X25607000Y-13900000D02*
X25777000Y-13900000D01*
X25692000Y-15923000D02*
X25692000Y-16093000D01*
X25607000Y-16008000D02*
X25777000Y-16008000D01*
X26114059Y-19833001D02*
X26114059Y-20003001D01*
X26029059Y-19918001D02*
X26199059Y-19918001D01*
X26508000Y-9615000D02*
X26508000Y-9785000D01*
X26423000Y-9700000D02*
X26593000Y-9700000D01*
X26608000Y-7495000D02*
X26608000Y-7665000D01*
X26523000Y-7580000D02*
X26693000Y-7580000D01*
X26700000Y-11715000D02*
X26700000Y-11885000D01*
X26615000Y-11800000D02*
X26785000Y-11800000D01*
X26708000Y-13815000D02*
X26708000Y-13985000D01*
X26623000Y-13900000D02*
X26793000Y-13900000D01*
X26708000Y-15923000D02*
X26708000Y-16093000D01*
X26623000Y-16008000D02*
X26793000Y-16008000D01*
X26993940Y-20341001D02*
X26993940Y-20511001D01*
X26908940Y-20426001D02*
X27078940Y-20426001D01*
X27160059Y-18061001D02*
X27160059Y-18231001D01*
X27075059Y-18146001D02*
X27245059Y-18146001D01*
X27772000Y-7485000D02*
X27772000Y-7655000D01*
X27687000Y-7570000D02*
X27857000Y-7570000D01*
X27792000Y-9615000D02*
X27792000Y-9785000D01*
X27707000Y-9700000D02*
X27877000Y-9700000D01*
X27963019Y-20871471D02*
X27963019Y-21041471D01*
X27878019Y-20956471D02*
X28048019Y-20956471D01*
X28039940Y-18569001D02*
X28039940Y-18739001D01*
X27954940Y-18654001D02*
X28124940Y-18654001D01*
X28300000Y-11707000D02*
X28300000Y-11877000D01*
X28215000Y-11792000D02*
X28385000Y-11792000D01*
X28300000Y-12723000D02*
X28300000Y-12893000D01*
X28215000Y-12808000D02*
X28385000Y-12808000D01*
X28318000Y-14807000D02*
X28318000Y-14977000D01*
X28233000Y-14892000D02*
X28403000Y-14892000D01*
X28318000Y-15823000D02*
X28318000Y-15993000D01*
X28233000Y-15908000D02*
X28403000Y-15908000D01*
X28788000Y-7485000D02*
X28788000Y-7655000D01*
X28703000Y-7570000D02*
X28873000Y-7570000D01*
X28808000Y-9615000D02*
X28808000Y-9785000D01*
X28723000Y-9700000D02*
X28893000Y-9700000D01*
X28842900Y-21379471D02*
X28842900Y-21549471D01*
X28757900Y-21464471D02*
X28927900Y-21464471D01*
X33705000Y-7499000D02*
X33705000Y-7669000D01*
X33620000Y-7584000D02*
X33790000Y-7584000D01*
X33892000Y-9623000D02*
X33892000Y-9793000D01*
X33807000Y-9708000D02*
X33977000Y-9708000D01*
X33901059Y-21435001D02*
X33901059Y-21605001D01*
X33816059Y-21520001D02*
X33986059Y-21520001D01*
X34390000Y-11769000D02*
X34390000Y-11939000D01*
X34305000Y-11854000D02*
X34475000Y-11854000D01*
X34390000Y-12785000D02*
X34390000Y-12955000D01*
X34305000Y-12870000D02*
X34475000Y-12870000D01*
X34400000Y-14807000D02*
X34400000Y-14977000D01*
X34315000Y-14892000D02*
X34485000Y-14892000D01*
X34400000Y-15823000D02*
X34400000Y-15993000D01*
X34315000Y-15908000D02*
X34485000Y-15908000D01*
X34660059Y-18569001D02*
X34660059Y-18739001D01*
X34575059Y-18654001D02*
X34745059Y-18654001D01*
X34721000Y-7499000D02*
X34721000Y-7669000D01*
X34636000Y-7584000D02*
X34806000Y-7584000D01*
X34780941Y-20927001D02*
X34780941Y-21097001D01*
X34695941Y-21012001D02*
X34865941Y-21012001D01*
X34908000Y-9623000D02*
X34908000Y-9793000D01*
X34823000Y-9708000D02*
X34993000Y-9708000D01*
X35539941Y-18061001D02*
X35539941Y-18231001D01*
X35454941Y-18146001D02*
X35624941Y-18146001D01*
X35707059Y-20345001D02*
X35707059Y-20515001D01*
X35622059Y-20430001D02*
X35792059Y-20430001D01*
X35792000Y-7489000D02*
X35792000Y-7659000D01*
X35707000Y-7574000D02*
X35877000Y-7574000D01*
X35959000Y-9613000D02*
X35959000Y-9783000D01*
X35874000Y-9698000D02*
X36044000Y-9698000D01*
X36105000Y-14023000D02*
X36105000Y-14193000D01*
X36020000Y-14108000D02*
X36190000Y-14108000D01*
X36125000Y-16115000D02*
X36125000Y-16285000D01*
X36040000Y-16200000D02*
X36210000Y-16200000D01*
X36135000Y-11823000D02*
X36135000Y-11993000D01*
X36050000Y-11908000D02*
X36220000Y-11908000D01*
X36586941Y-19837001D02*
X36586941Y-20007001D01*
X36501941Y-19922001D02*
X36671941Y-19922001D01*
X36808000Y-7489000D02*
X36808000Y-7659000D01*
X36723000Y-7574000D02*
X36893000Y-7574000D01*
X36975000Y-9613000D02*
X36975000Y-9783000D01*
X36890000Y-9698000D02*
X37060000Y-9698000D01*
X37121000Y-14023000D02*
X37121000Y-14193000D01*
X37036000Y-14108000D02*
X37206000Y-14108000D01*
X37141000Y-16115000D02*
X37141000Y-16285000D01*
X37056000Y-16200000D02*
X37226000Y-16200000D01*
X37151000Y-11823000D02*
X37151000Y-11993000D01*
X37066000Y-11908000D02*
X37236000Y-11908000D01*
X37560059Y-19269001D02*
X37560059Y-19439001D01*
X37475059Y-19354001D02*
X37645059Y-19354001D01*
X37926000Y-7499000D02*
X37926000Y-7669000D01*
X37841000Y-7584000D02*
X38011000Y-7584000D01*
X38059000Y-9589000D02*
X38059000Y-9759000D01*
X37974000Y-9674000D02*
X38144000Y-9674000D01*
X38192000Y-14013000D02*
X38192000Y-14183000D01*
X38107000Y-14098000D02*
X38277000Y-14098000D01*
X38292000Y-11799000D02*
X38292000Y-11969000D01*
X38207000Y-11884000D02*
X38377000Y-11884000D01*
X38292000Y-16095000D02*
X38292000Y-16265000D01*
X38207000Y-16180000D02*
X38377000Y-16180000D01*
X38439941Y-18761001D02*
X38439941Y-18931001D01*
X38354941Y-18846001D02*
X38524941Y-18846001D01*
X38942000Y-7499000D02*
X38942000Y-7669000D01*
X38857000Y-7584000D02*
X39027000Y-7584000D01*
X39075000Y-9589000D02*
X39075000Y-9759000D01*
X38990000Y-9674000D02*
X39160000Y-9674000D01*
X39208000Y-14013000D02*
X39208000Y-14183000D01*
X39123000Y-14098000D02*
X39293000Y-14098000D01*
X39308000Y-11799000D02*
X39308000Y-11969000D01*
X39223000Y-11884000D02*
X39393000Y-11884000D01*
X39308000Y-16095000D02*
X39308000Y-16265000D01*
X39223000Y-16180000D02*
X39393000Y-16180000D01*
X40100000Y-7501000D02*
X40100000Y-7671000D01*
X40015000Y-7586000D02*
X40185000Y-7586000D01*
X40159000Y-9389000D02*
X40159000Y-9559000D01*
X40074000Y-9474000D02*
X40244000Y-9474000D01*
X40273000Y-13773000D02*
X40273000Y-13943000D01*
X40188000Y-13858000D02*
X40358000Y-13858000D01*
X40392000Y-11499000D02*
X40392000Y-11669000D01*
X40307000Y-11584000D02*
X40477000Y-11584000D01*
X40392000Y-15885000D02*
X40392000Y-16055000D01*
X40307000Y-15970000D02*
X40477000Y-15970000D01*
X40392000Y-18023000D02*
X40392000Y-18193000D01*
X40307000Y-18108000D02*
X40477000Y-18108000D01*
X41116000Y-7501000D02*
X41116000Y-7671000D01*
X41031000Y-7586000D02*
X41201000Y-7586000D01*
X41175000Y-9389000D02*
X41175000Y-9559000D01*
X41090000Y-9474000D02*
X41260000Y-9474000D01*
X41289000Y-13773000D02*
X41289000Y-13943000D01*
X41204000Y-13858000D02*
X41374000Y-13858000D01*
X41408000Y-11499000D02*
X41408000Y-11669000D01*
X41323000Y-11584000D02*
X41493000Y-11584000D01*
X41408000Y-15885000D02*
X41408000Y-16055000D01*
X41323000Y-15970000D02*
X41493000Y-15970000D01*
X41408000Y-18023000D02*
X41408000Y-18193000D01*
X41323000Y-18108000D02*
X41493000Y-18108000D01*
X42259000Y-9163000D02*
X42259000Y-9333000D01*
X42174000Y-9248000D02*
X42344000Y-9248000D01*
X42292000Y-7509000D02*
X42292000Y-7679000D01*
X42207000Y-7594000D02*
X42377000Y-7594000D01*
X42392000Y-13553000D02*
X42392000Y-13723000D01*
X42307000Y-13638000D02*
X42477000Y-13638000D01*
X42492000Y-11353000D02*
X42492000Y-11523000D01*
X42407000Y-11438000D02*
X42577000Y-11438000D01*
X42492000Y-15637000D02*
X42492000Y-15807000D01*
X42407000Y-15722000D02*
X42577000Y-15722000D01*
X42499000Y-17763000D02*
X42499000Y-17933000D01*
X42414000Y-17848000D02*
X42584000Y-17848000D01*
X43275000Y-9163000D02*
X43275000Y-9333000D01*
X43190000Y-9248000D02*
X43360000Y-9248000D01*
X43308000Y-7509000D02*
X43308000Y-7679000D01*
X43223000Y-7594000D02*
X43393000Y-7594000D01*
X43408000Y-13553000D02*
X43408000Y-13723000D01*
X43323000Y-13638000D02*
X43493000Y-13638000D01*
X43508000Y-11353000D02*
X43508000Y-11523000D01*
X43423000Y-11438000D02*
X43593000Y-11438000D01*
X43508000Y-15637000D02*
X43508000Y-15807000D01*
X43423000Y-15722000D02*
X43593000Y-15722000D01*
X43515000Y-17763000D02*
X43515000Y-17933000D01*
X43430000Y-17848000D02*
X43600000Y-17848000D01*
X44359000Y-9623000D02*
X44359000Y-9793000D01*
X44274000Y-9708000D02*
X44444000Y-9708000D01*
X44392000Y-7515000D02*
X44392000Y-7685000D01*
X44307000Y-7600000D02*
X44477000Y-7600000D01*
X44492000Y-13819000D02*
X44492000Y-13989000D01*
X44407000Y-13904000D02*
X44577000Y-13904000D01*
X44592000Y-11813000D02*
X44592000Y-11983000D01*
X44507000Y-11898000D02*
X44677000Y-11898000D01*
X44592000Y-15895000D02*
X44592000Y-16065000D01*
X44507000Y-15980000D02*
X44677000Y-15980000D01*
X44599000Y-18033000D02*
X44599000Y-18203000D01*
X44514000Y-18118000D02*
X44684000Y-18118000D01*
X45375000Y-9623000D02*
X45375000Y-9793000D01*
X45290000Y-9708000D02*
X45460000Y-9708000D01*
X45408000Y-7515000D02*
X45408000Y-7685000D01*
X45323000Y-7600000D02*
X45493000Y-7600000D01*
X45508000Y-13819000D02*
X45508000Y-13989000D01*
X45423000Y-13904000D02*
X45593000Y-13904000D01*
X45608000Y-11813000D02*
X45608000Y-11983000D01*
X45523000Y-11898000D02*
X45693000Y-11898000D01*
X45608000Y-15895000D02*
X45608000Y-16065000D01*
X45523000Y-15980000D02*
X45693000Y-15980000D01*
X45615000Y-18033000D02*
X45615000Y-18203000D01*
X45530000Y-18118000D02*
X45700000Y-18118000D01*
X46459000Y-9873000D02*
X46459000Y-10043000D01*
X46374000Y-9958000D02*
X46544000Y-9958000D01*
X46492000Y-7499000D02*
X46492000Y-7669000D01*
X46407000Y-7584000D02*
X46577000Y-7584000D01*
X46592000Y-14253000D02*
X46592000Y-14423000D01*
X46507000Y-14338000D02*
X46677000Y-14338000D01*
X46692000Y-12099000D02*
X46692000Y-12269000D01*
X46607000Y-12184000D02*
X46777000Y-12184000D01*
X46692000Y-16241000D02*
X46692000Y-16411000D01*
X46607000Y-16326000D02*
X46777000Y-16326000D01*
X46699000Y-18423000D02*
X46699000Y-18593000D01*
X46614000Y-18508000D02*
X46784000Y-18508000D01*
X47475000Y-9873000D02*
X47475000Y-10043000D01*
X47390000Y-9958000D02*
X47560000Y-9958000D01*
X47508000Y-7499000D02*
X47508000Y-7669000D01*
X47423000Y-7584000D02*
X47593000Y-7584000D01*
X47608000Y-14253000D02*
X47608000Y-14423000D01*
X47523000Y-14338000D02*
X47693000Y-14338000D01*
X47708000Y-12099000D02*
X47708000Y-12269000D01*
X47623000Y-12184000D02*
X47793000Y-12184000D01*
X47708000Y-16241000D02*
X47708000Y-16411000D01*
X47623000Y-16326000D02*
X47793000Y-16326000D01*
X47715000Y-18423000D02*
X47715000Y-18593000D01*
X47630000Y-18508000D02*
X47800000Y-18508000D01*
X48899000Y-18423000D02*
X48899000Y-18593000D01*
X48814000Y-18508000D02*
X48984000Y-18508000D01*
X49267500Y-14095000D02*
X49267500Y-14265000D01*
X49182500Y-14180000D02*
X49352500Y-14180000D01*
X49277500Y-9869000D02*
X49277500Y-10039000D01*
X49192500Y-9954000D02*
X49362500Y-9954000D01*
X49277500Y-12003000D02*
X49277500Y-12173000D01*
X49192500Y-12088000D02*
X49362500Y-12088000D01*
X49297500Y-16195000D02*
X49297500Y-16365000D01*
X49212500Y-16280000D02*
X49382500Y-16280000D01*
X49915000Y-18423000D02*
X49915000Y-18593000D01*
X49830000Y-18508000D02*
X50000000Y-18508000D01*
X50283500Y-14095000D02*
X50283500Y-14265000D01*
X50198500Y-14180000D02*
X50368500Y-14180000D01*
X50293500Y-9869000D02*
X50293500Y-10039000D01*
X50208500Y-9954000D02*
X50378500Y-9954000D01*
X50293500Y-12003000D02*
X50293500Y-12173000D01*
X50208500Y-12088000D02*
X50378500Y-12088000D01*
X50313500Y-16195000D02*
X50313500Y-16365000D01*
X50228500Y-16280000D02*
X50398500Y-16280000D01*
D15*
X30463640Y-5063640D02*
X30463640Y-4936360D01*
X30336360Y-4936360D01*
X30336360Y-5063640D01*
X30463640Y-5063640D01*
X30463640Y-5608640D02*
X30463640Y-5481360D01*
X30336360Y-5481360D01*
X30336360Y-5608640D01*
X30463640Y-5608640D01*
X32118640Y-5063640D02*
X32118640Y-4936360D01*
X31991360Y-4936360D01*
X31991360Y-5063640D01*
X32118640Y-5063640D01*
X32118640Y-5608640D02*
X32118640Y-5481360D01*
X31991360Y-5481360D01*
X31991360Y-5608640D01*
X32118640Y-5608640D01*
D16*
X12900000Y-10160000D02*
X13100000Y-9960000D01*
X12900000Y-9760000D01*
X12700000Y-9960000D01*
X12900000Y-10160000D01*
X12932000Y-12250000D02*
X13132000Y-12050000D01*
X12932000Y-11850000D01*
X12732000Y-12050000D01*
X12932000Y-12250000D01*
X13059000Y-14340000D02*
X13259000Y-14140000D01*
X13059000Y-13940000D01*
X12859000Y-14140000D01*
X13059000Y-14340000D01*
X13100000Y-16448000D02*
X13300000Y-16248000D01*
X13100000Y-16048000D01*
X12900000Y-16248000D01*
X13100000Y-16448000D01*
X13546000Y-18568000D02*
X13746000Y-18368000D01*
X13546000Y-18168000D01*
X13346000Y-18368000D01*
X13546000Y-18568000D01*
X15500000Y-7760000D02*
X15700000Y-7560000D01*
X15500000Y-7360000D01*
X15300000Y-7560000D01*
X15500000Y-7760000D01*
X15508000Y-10180000D02*
X15708000Y-9980000D01*
X15508000Y-9780000D01*
X15308000Y-9980000D01*
X15508000Y-10180000D01*
X15530000Y-12250000D02*
X15730000Y-12050000D01*
X15530000Y-11850000D01*
X15330000Y-12050000D01*
X15530000Y-12250000D01*
X15643000Y-14330000D02*
X15843000Y-14130000D01*
X15643000Y-13930000D01*
X15443000Y-14130000D01*
X15643000Y-14330000D01*
X15696000Y-16428000D02*
X15896000Y-16228000D01*
X15696000Y-16028000D01*
X15496000Y-16228000D01*
X15696000Y-16428000D01*
X15700000Y-18558000D02*
X15900000Y-18358000D01*
X15700000Y-18158000D01*
X15500000Y-18358000D01*
X15700000Y-18558000D01*
X17562000Y-9680000D02*
X17762000Y-9480000D01*
X17562000Y-9280000D01*
X17362000Y-9480000D01*
X17562000Y-9680000D01*
X17580000Y-7770000D02*
X17780000Y-7570000D01*
X17580000Y-7370000D01*
X17380000Y-7570000D01*
X17580000Y-7770000D01*
X17692000Y-11780000D02*
X17892000Y-11580000D01*
X17692000Y-11380000D01*
X17492000Y-11580000D01*
X17692000Y-11780000D01*
X17733000Y-13860000D02*
X17933000Y-13660000D01*
X17733000Y-13460000D01*
X17533000Y-13660000D01*
X17733000Y-13860000D01*
X17792000Y-15968000D02*
X17992000Y-15768000D01*
X17792000Y-15568000D01*
X17592000Y-15768000D01*
X17792000Y-15968000D01*
X17800000Y-18260000D02*
X18000000Y-18060000D01*
X17800000Y-17860000D01*
X17600000Y-18060000D01*
X17800000Y-18260000D01*
X19630000Y-9420000D02*
X19830000Y-9220000D01*
X19630000Y-9020000D01*
X19430000Y-9220000D01*
X19630000Y-9420000D01*
X19700000Y-7770000D02*
X19900000Y-7570000D01*
X19700000Y-7370000D01*
X19500000Y-7570000D01*
X19700000Y-7770000D01*
X19814000Y-11520000D02*
X20014000Y-11320000D01*
X19814000Y-11120000D01*
X19614000Y-11320000D01*
X19814000Y-11520000D01*
X19864000Y-13620000D02*
X20064000Y-13420000D01*
X19864000Y-13220000D01*
X19664000Y-13420000D01*
X19864000Y-13620000D01*
X19892000Y-15718000D02*
X20092000Y-15518000D01*
X19892000Y-15318000D01*
X19692000Y-15518000D01*
X19892000Y-15718000D01*
X19900000Y-17860000D02*
X20100000Y-17660000D01*
X19900000Y-17460000D01*
X19700000Y-17660000D01*
X19900000Y-17860000D01*
X21780000Y-9670000D02*
X21980000Y-9470000D01*
X21780000Y-9270000D01*
X21580000Y-9470000D01*
X21780000Y-9670000D01*
X21800000Y-7760000D02*
X22000000Y-7560000D01*
X21800000Y-7360000D01*
X21600000Y-7560000D01*
X21800000Y-7760000D01*
X21954000Y-11770000D02*
X22154000Y-11570000D01*
X21954000Y-11370000D01*
X21754000Y-11570000D01*
X21954000Y-11770000D01*
X21984000Y-13860000D02*
X22184000Y-13660000D01*
X21984000Y-13460000D01*
X21784000Y-13660000D01*
X21984000Y-13860000D01*
X22000000Y-15978000D02*
X22200000Y-15778000D01*
X22000000Y-15578000D01*
X21800000Y-15778000D01*
X22000000Y-15978000D01*
X22000000Y-18100000D02*
X22200000Y-17900000D01*
X22000000Y-17700000D01*
X21800000Y-17900000D01*
X22000000Y-18100000D01*
X23890000Y-9890000D02*
X24090000Y-9690000D01*
X23890000Y-9490000D01*
X23690000Y-9690000D01*
X23890000Y-9890000D01*
X23900000Y-7750000D02*
X24100000Y-7550000D01*
X23900000Y-7350000D01*
X23700000Y-7550000D01*
X23900000Y-7750000D01*
X24084000Y-12000000D02*
X24284000Y-11800000D01*
X24084000Y-11600000D01*
X23884000Y-11800000D01*
X24084000Y-12000000D01*
X24100000Y-16208000D02*
X24300000Y-16008000D01*
X24100000Y-15808000D01*
X23900000Y-16008000D01*
X24100000Y-16208000D01*
X24102000Y-14090000D02*
X24302000Y-13890000D01*
X24102000Y-13690000D01*
X23902000Y-13890000D01*
X24102000Y-14090000D01*
X24745999Y-19317001D02*
X24945999Y-19117001D01*
X24745999Y-18917001D01*
X24545999Y-19117001D01*
X24745999Y-19317001D01*
X26000000Y-9900000D02*
X26200000Y-9700000D01*
X26000000Y-9500000D01*
X25800000Y-9700000D01*
X26000000Y-9900000D01*
X26100000Y-7780000D02*
X26300000Y-7580000D01*
X26100000Y-7380000D01*
X25900000Y-7580000D01*
X26100000Y-7780000D01*
X26192000Y-12000000D02*
X26392000Y-11800000D01*
X26192000Y-11600000D01*
X25992000Y-11800000D01*
X26192000Y-12000000D01*
X26200000Y-14100000D02*
X26400000Y-13900000D01*
X26200000Y-13700000D01*
X26000000Y-13900000D01*
X26200000Y-14100000D01*
X26200000Y-16208000D02*
X26400000Y-16008000D01*
X26200000Y-15808000D01*
X26000000Y-16008000D01*
X26200000Y-16208000D01*
X26553999Y-20372001D02*
X26753999Y-20172001D01*
X26553999Y-19972001D01*
X26353999Y-20172001D01*
X26553999Y-20372001D01*
X27599999Y-18600001D02*
X27799999Y-18400001D01*
X27599999Y-18200001D01*
X27399999Y-18400001D01*
X27599999Y-18600001D01*
X28280000Y-7770000D02*
X28480000Y-7570000D01*
X28280000Y-7370000D01*
X28080000Y-7570000D01*
X28280000Y-7770000D01*
X28300000Y-9900000D02*
X28500000Y-9700000D01*
X28300000Y-9500000D01*
X28100000Y-9700000D01*
X28300000Y-9900000D01*
X28300000Y-12500000D02*
X28500000Y-12300000D01*
X28300000Y-12100000D01*
X28100000Y-12300000D01*
X28300000Y-12500000D01*
X28318000Y-15600000D02*
X28518000Y-15400000D01*
X28318000Y-15200000D01*
X28118000Y-15400000D01*
X28318000Y-15600000D01*
X28402959Y-21410471D02*
X28602959Y-21210471D01*
X28402959Y-21010471D01*
X28202959Y-21210471D01*
X28402959Y-21410471D01*
X34213000Y-7784000D02*
X34413000Y-7584000D01*
X34213000Y-7384000D01*
X34013000Y-7584000D01*
X34213000Y-7784000D01*
X34341000Y-21466001D02*
X34541000Y-21266001D01*
X34341000Y-21066001D01*
X34141000Y-21266001D01*
X34341000Y-21466001D01*
X34390000Y-12562000D02*
X34590000Y-12362000D01*
X34390000Y-12162000D01*
X34190000Y-12362000D01*
X34390000Y-12562000D01*
X34400000Y-9908000D02*
X34600000Y-9708000D01*
X34400000Y-9508000D01*
X34200000Y-9708000D01*
X34400000Y-9908000D01*
X34400000Y-15600000D02*
X34600000Y-15400000D01*
X34400000Y-15200000D01*
X34200000Y-15400000D01*
X34400000Y-15600000D01*
X35100000Y-18600001D02*
X35300000Y-18400001D01*
X35100000Y-18200001D01*
X34900000Y-18400001D01*
X35100000Y-18600001D01*
X36147000Y-20376001D02*
X36347000Y-20176001D01*
X36147000Y-19976001D01*
X35947000Y-20176001D01*
X36147000Y-20376001D01*
X36300000Y-7774000D02*
X36500000Y-7574000D01*
X36300000Y-7374000D01*
X36100000Y-7574000D01*
X36300000Y-7774000D01*
X36467000Y-9898000D02*
X36667000Y-9698000D01*
X36467000Y-9498000D01*
X36267000Y-9698000D01*
X36467000Y-9898000D01*
X36613000Y-14308000D02*
X36813000Y-14108000D01*
X36613000Y-13908000D01*
X36413000Y-14108000D01*
X36613000Y-14308000D01*
X36633000Y-16400000D02*
X36833000Y-16200000D01*
X36633000Y-16000000D01*
X36433000Y-16200000D01*
X36633000Y-16400000D01*
X36643000Y-12108000D02*
X36843000Y-11908000D01*
X36643000Y-11708000D01*
X36443000Y-11908000D01*
X36643000Y-12108000D01*
X38000000Y-19300001D02*
X38200000Y-19100001D01*
X38000000Y-18900001D01*
X37800000Y-19100001D01*
X38000000Y-19300001D01*
X38434000Y-7784000D02*
X38634000Y-7584000D01*
X38434000Y-7384000D01*
X38234000Y-7584000D01*
X38434000Y-7784000D01*
X38567000Y-9874000D02*
X38767000Y-9674000D01*
X38567000Y-9474000D01*
X38367000Y-9674000D01*
X38567000Y-9874000D01*
X38700000Y-14298000D02*
X38900000Y-14098000D01*
X38700000Y-13898000D01*
X38500000Y-14098000D01*
X38700000Y-14298000D01*
X38800000Y-12084000D02*
X39000000Y-11884000D01*
X38800000Y-11684000D01*
X38600000Y-11884000D01*
X38800000Y-12084000D01*
X38800000Y-16380000D02*
X39000000Y-16180000D01*
X38800000Y-15980000D01*
X38600000Y-16180000D01*
X38800000Y-16380000D01*
X40608000Y-7786000D02*
X40808000Y-7586000D01*
X40608000Y-7386000D01*
X40408000Y-7586000D01*
X40608000Y-7786000D01*
X40667000Y-9674000D02*
X40867000Y-9474000D01*
X40667000Y-9274000D01*
X40467000Y-9474000D01*
X40667000Y-9674000D01*
X40781000Y-14058000D02*
X40981000Y-13858000D01*
X40781000Y-13658000D01*
X40581000Y-13858000D01*
X40781000Y-14058000D01*
X40900000Y-11784000D02*
X41100000Y-11584000D01*
X40900000Y-11384000D01*
X40700000Y-11584000D01*
X40900000Y-11784000D01*
X40900000Y-16170000D02*
X41100000Y-15970000D01*
X40900000Y-15770000D01*
X40700000Y-15970000D01*
X40900000Y-16170000D01*
X40900000Y-18308000D02*
X41100000Y-18108000D01*
X40900000Y-17908000D01*
X40700000Y-18108000D01*
X40900000Y-18308000D01*
X42767000Y-9448000D02*
X42967000Y-9248000D01*
X42767000Y-9048000D01*
X42567000Y-9248000D01*
X42767000Y-9448000D01*
X42800000Y-7794000D02*
X43000000Y-7594000D01*
X42800000Y-7394000D01*
X42600000Y-7594000D01*
X42800000Y-7794000D01*
X42900000Y-13838000D02*
X43100000Y-13638000D01*
X42900000Y-13438000D01*
X42700000Y-13638000D01*
X42900000Y-13838000D01*
X43000000Y-11638000D02*
X43200000Y-11438000D01*
X43000000Y-11238000D01*
X42800000Y-11438000D01*
X43000000Y-11638000D01*
X43000000Y-15922000D02*
X43200000Y-15722000D01*
X43000000Y-15522000D01*
X42800000Y-15722000D01*
X43000000Y-15922000D01*
X43007000Y-18048000D02*
X43207000Y-17848000D01*
X43007000Y-17648000D01*
X42807000Y-17848000D01*
X43007000Y-18048000D01*
X44867000Y-9908000D02*
X45067000Y-9708000D01*
X44867000Y-9508000D01*
X44667000Y-9708000D01*
X44867000Y-9908000D01*
X44900000Y-7800000D02*
X45100000Y-7600000D01*
X44900000Y-7400000D01*
X44700000Y-7600000D01*
X44900000Y-7800000D01*
X45000000Y-14104000D02*
X45200000Y-13904000D01*
X45000000Y-13704000D01*
X44800000Y-13904000D01*
X45000000Y-14104000D01*
X45100000Y-12098000D02*
X45300000Y-11898000D01*
X45100000Y-11698000D01*
X44900000Y-11898000D01*
X45100000Y-12098000D01*
X45100000Y-16180000D02*
X45300000Y-15980000D01*
X45100000Y-15780000D01*
X44900000Y-15980000D01*
X45100000Y-16180000D01*
X45107000Y-18318000D02*
X45307000Y-18118000D01*
X45107000Y-17918000D01*
X44907000Y-18118000D01*
X45107000Y-18318000D01*
X46967000Y-10158000D02*
X47167000Y-9958000D01*
X46967000Y-9758000D01*
X46767000Y-9958000D01*
X46967000Y-10158000D01*
X47000000Y-7784000D02*
X47200000Y-7584000D01*
X47000000Y-7384000D01*
X46800000Y-7584000D01*
X47000000Y-7784000D01*
X47100000Y-14538000D02*
X47300000Y-14338000D01*
X47100000Y-14138000D01*
X46900000Y-14338000D01*
X47100000Y-14538000D01*
X47200000Y-12384000D02*
X47400000Y-12184000D01*
X47200000Y-11984000D01*
X47000000Y-12184000D01*
X47200000Y-12384000D01*
X47200000Y-16526000D02*
X47400000Y-16326000D01*
X47200000Y-16126000D01*
X47000000Y-16326000D01*
X47200000Y-16526000D01*
X47207000Y-18708000D02*
X47407000Y-18508000D01*
X47207000Y-18308000D01*
X47007000Y-18508000D01*
X47207000Y-18708000D01*
X49407000Y-18708000D02*
X49607000Y-18508000D01*
X49407000Y-18308000D01*
X49207000Y-18508000D01*
X49407000Y-18708000D01*
X49775500Y-14380000D02*
X49975500Y-14180000D01*
X49775500Y-13980000D01*
X49575500Y-14180000D01*
X49775500Y-14380000D01*
X49785500Y-10154000D02*
X49985500Y-9954000D01*
X49785500Y-9754000D01*
X49585500Y-9954000D01*
X49785500Y-10154000D01*
X49785500Y-12288000D02*
X49985500Y-12088000D01*
X49785500Y-11888000D01*
X49585500Y-12088000D01*
X49785500Y-12288000D01*
X49805500Y-16480000D02*
X50005500Y-16280000D01*
X49805500Y-16080000D01*
X49605500Y-16280000D01*
X49805500Y-16480000D01*
D11*
X9642619Y-23808476D02*
X9642619Y-23608476D01*
X9642619Y-23608476D02*
X9690238Y-23608476D01*
X9690238Y-23608476D02*
X9718810Y-23618000D01*
X9718810Y-23618000D02*
X9737857Y-23637048D01*
X9737857Y-23637048D02*
X9747381Y-23656095D01*
X9747381Y-23656095D02*
X9756905Y-23694190D01*
X9756905Y-23694190D02*
X9756905Y-23722762D01*
X9756905Y-23722762D02*
X9747381Y-23760857D01*
X9747381Y-23760857D02*
X9737857Y-23779905D01*
X9737857Y-23779905D02*
X9718810Y-23798952D01*
X9718810Y-23798952D02*
X9690238Y-23808476D01*
X9690238Y-23808476D02*
X9642619Y-23808476D01*
X9842619Y-23808476D02*
X9842619Y-23675143D01*
X9842619Y-23713238D02*
X9852143Y-23694190D01*
X9852143Y-23694190D02*
X9861667Y-23684667D01*
X9861667Y-23684667D02*
X9880714Y-23675143D01*
X9880714Y-23675143D02*
X9899762Y-23675143D01*
X9966429Y-23808476D02*
X9966429Y-23675143D01*
X9966429Y-23608476D02*
X9956905Y-23618000D01*
X9956905Y-23618000D02*
X9966429Y-23627524D01*
X9966429Y-23627524D02*
X9975952Y-23618000D01*
X9975952Y-23618000D02*
X9966429Y-23608476D01*
X9966429Y-23608476D02*
X9966429Y-23627524D01*
X10090238Y-23808476D02*
X10071190Y-23798952D01*
X10071190Y-23798952D02*
X10061667Y-23779905D01*
X10061667Y-23779905D02*
X10061667Y-23608476D01*
X10195000Y-23808476D02*
X10175952Y-23798952D01*
X10175952Y-23798952D02*
X10166429Y-23779905D01*
X10166429Y-23779905D02*
X10166429Y-23608476D01*
X10391190Y-23808476D02*
X10391190Y-23608476D01*
X10391190Y-23608476D02*
X10457857Y-23751333D01*
X10457857Y-23751333D02*
X10524524Y-23608476D01*
X10524524Y-23608476D02*
X10524524Y-23808476D01*
X10705476Y-23808476D02*
X10705476Y-23703714D01*
X10705476Y-23703714D02*
X10695952Y-23684667D01*
X10695952Y-23684667D02*
X10676905Y-23675143D01*
X10676905Y-23675143D02*
X10638809Y-23675143D01*
X10638809Y-23675143D02*
X10619762Y-23684667D01*
X10705476Y-23798952D02*
X10686429Y-23808476D01*
X10686429Y-23808476D02*
X10638809Y-23808476D01*
X10638809Y-23808476D02*
X10619762Y-23798952D01*
X10619762Y-23798952D02*
X10610238Y-23779905D01*
X10610238Y-23779905D02*
X10610238Y-23760857D01*
X10610238Y-23760857D02*
X10619762Y-23741809D01*
X10619762Y-23741809D02*
X10638809Y-23732286D01*
X10638809Y-23732286D02*
X10686429Y-23732286D01*
X10686429Y-23732286D02*
X10705476Y-23722762D01*
X10800714Y-23675143D02*
X10800714Y-23875143D01*
X10800714Y-23684667D02*
X10819762Y-23675143D01*
X10819762Y-23675143D02*
X10857857Y-23675143D01*
X10857857Y-23675143D02*
X10876905Y-23684667D01*
X10876905Y-23684667D02*
X10886429Y-23694190D01*
X10886429Y-23694190D02*
X10895952Y-23713238D01*
X10895952Y-23713238D02*
X10895952Y-23770381D01*
X10895952Y-23770381D02*
X10886429Y-23789428D01*
X10886429Y-23789428D02*
X10876905Y-23798952D01*
X10876905Y-23798952D02*
X10857857Y-23808476D01*
X10857857Y-23808476D02*
X10819762Y-23808476D01*
X10819762Y-23808476D02*
X10800714Y-23798952D01*
X10981667Y-23789428D02*
X10991190Y-23798952D01*
X10991190Y-23798952D02*
X10981667Y-23808476D01*
X10981667Y-23808476D02*
X10972143Y-23798952D01*
X10972143Y-23798952D02*
X10981667Y-23789428D01*
X10981667Y-23789428D02*
X10981667Y-23808476D01*
X10981667Y-23684667D02*
X10991190Y-23694190D01*
X10991190Y-23694190D02*
X10981667Y-23703714D01*
X10981667Y-23703714D02*
X10972143Y-23694190D01*
X10972143Y-23694190D02*
X10981667Y-23684667D01*
X10981667Y-23684667D02*
X10981667Y-23703714D01*
D12*
X9285000Y-24100000D02*
X9395000Y-24210000D01*
X9395000Y-24100000D02*
X9285000Y-24210000D01*
D11*
X9747381Y-24228476D02*
X9633095Y-24228476D01*
X9690238Y-24228476D02*
X9690238Y-24028476D01*
X9690238Y-24028476D02*
X9671190Y-24057048D01*
X9671190Y-24057048D02*
X9652143Y-24076095D01*
X9652143Y-24076095D02*
X9633095Y-24085619D01*
X9833095Y-24209428D02*
X9842619Y-24218952D01*
X9842619Y-24218952D02*
X9833095Y-24228476D01*
X9833095Y-24228476D02*
X9823571Y-24218952D01*
X9823571Y-24218952D02*
X9833095Y-24209428D01*
X9833095Y-24209428D02*
X9833095Y-24228476D01*
X10033095Y-24228476D02*
X9918810Y-24228476D01*
X9975952Y-24228476D02*
X9975952Y-24028476D01*
X9975952Y-24028476D02*
X9956905Y-24057048D01*
X9956905Y-24057048D02*
X9937857Y-24076095D01*
X9937857Y-24076095D02*
X9918810Y-24085619D01*
X10156905Y-24028476D02*
X10175952Y-24028476D01*
X10175952Y-24028476D02*
X10195000Y-24038000D01*
X10195000Y-24038000D02*
X10204524Y-24047524D01*
X10204524Y-24047524D02*
X10214048Y-24066571D01*
X10214048Y-24066571D02*
X10223571Y-24104667D01*
X10223571Y-24104667D02*
X10223571Y-24152286D01*
X10223571Y-24152286D02*
X10214048Y-24190381D01*
X10214048Y-24190381D02*
X10204524Y-24209428D01*
X10204524Y-24209428D02*
X10195000Y-24218952D01*
X10195000Y-24218952D02*
X10175952Y-24228476D01*
X10175952Y-24228476D02*
X10156905Y-24228476D01*
X10156905Y-24228476D02*
X10137857Y-24218952D01*
X10137857Y-24218952D02*
X10128333Y-24209428D01*
X10128333Y-24209428D02*
X10118810Y-24190381D01*
X10118810Y-24190381D02*
X10109286Y-24152286D01*
X10109286Y-24152286D02*
X10109286Y-24104667D01*
X10109286Y-24104667D02*
X10118810Y-24066571D01*
X10118810Y-24066571D02*
X10128333Y-24047524D01*
X10128333Y-24047524D02*
X10137857Y-24038000D01*
X10137857Y-24038000D02*
X10156905Y-24028476D01*
X10347381Y-24028476D02*
X10366429Y-24028476D01*
X10366429Y-24028476D02*
X10385476Y-24038000D01*
X10385476Y-24038000D02*
X10395000Y-24047524D01*
X10395000Y-24047524D02*
X10404524Y-24066571D01*
X10404524Y-24066571D02*
X10414048Y-24104667D01*
X10414048Y-24104667D02*
X10414048Y-24152286D01*
X10414048Y-24152286D02*
X10404524Y-24190381D01*
X10404524Y-24190381D02*
X10395000Y-24209428D01*
X10395000Y-24209428D02*
X10385476Y-24218952D01*
X10385476Y-24218952D02*
X10366429Y-24228476D01*
X10366429Y-24228476D02*
X10347381Y-24228476D01*
X10347381Y-24228476D02*
X10328333Y-24218952D01*
X10328333Y-24218952D02*
X10318810Y-24209428D01*
X10318810Y-24209428D02*
X10309286Y-24190381D01*
X10309286Y-24190381D02*
X10299762Y-24152286D01*
X10299762Y-24152286D02*
X10299762Y-24104667D01*
X10299762Y-24104667D02*
X10309286Y-24066571D01*
X10309286Y-24066571D02*
X10318810Y-24047524D01*
X10318810Y-24047524D02*
X10328333Y-24038000D01*
X10328333Y-24038000D02*
X10347381Y-24028476D01*
X10499762Y-24228476D02*
X10499762Y-24095143D01*
X10499762Y-24114190D02*
X10509286Y-24104667D01*
X10509286Y-24104667D02*
X10528333Y-24095143D01*
X10528333Y-24095143D02*
X10556905Y-24095143D01*
X10556905Y-24095143D02*
X10575952Y-24104667D01*
X10575952Y-24104667D02*
X10585476Y-24123714D01*
X10585476Y-24123714D02*
X10585476Y-24228476D01*
X10585476Y-24123714D02*
X10595000Y-24104667D01*
X10595000Y-24104667D02*
X10614048Y-24095143D01*
X10614048Y-24095143D02*
X10642619Y-24095143D01*
X10642619Y-24095143D02*
X10661667Y-24104667D01*
X10661667Y-24104667D02*
X10671191Y-24123714D01*
X10671191Y-24123714D02*
X10671191Y-24228476D01*
X10766429Y-24228476D02*
X10766429Y-24095143D01*
X10766429Y-24114190D02*
X10775952Y-24104667D01*
X10775952Y-24104667D02*
X10795000Y-24095143D01*
X10795000Y-24095143D02*
X10823572Y-24095143D01*
X10823572Y-24095143D02*
X10842619Y-24104667D01*
X10842619Y-24104667D02*
X10852143Y-24123714D01*
X10852143Y-24123714D02*
X10852143Y-24228476D01*
X10852143Y-24123714D02*
X10861667Y-24104667D01*
X10861667Y-24104667D02*
X10880714Y-24095143D01*
X10880714Y-24095143D02*
X10909286Y-24095143D01*
X10909286Y-24095143D02*
X10928333Y-24104667D01*
X10928333Y-24104667D02*
X10937857Y-24123714D01*
X10937857Y-24123714D02*
X10937857Y-24228476D01*
X11295952Y-24018952D02*
X11124524Y-24276095D01*
X11520714Y-24028476D02*
X11539762Y-24028476D01*
X11539762Y-24028476D02*
X11558810Y-24038000D01*
X11558810Y-24038000D02*
X11568333Y-24047524D01*
X11568333Y-24047524D02*
X11577857Y-24066571D01*
X11577857Y-24066571D02*
X11587381Y-24104667D01*
X11587381Y-24104667D02*
X11587381Y-24152286D01*
X11587381Y-24152286D02*
X11577857Y-24190381D01*
X11577857Y-24190381D02*
X11568333Y-24209428D01*
X11568333Y-24209428D02*
X11558810Y-24218952D01*
X11558810Y-24218952D02*
X11539762Y-24228476D01*
X11539762Y-24228476D02*
X11520714Y-24228476D01*
X11520714Y-24228476D02*
X11501667Y-24218952D01*
X11501667Y-24218952D02*
X11492143Y-24209428D01*
X11492143Y-24209428D02*
X11482619Y-24190381D01*
X11482619Y-24190381D02*
X11473095Y-24152286D01*
X11473095Y-24152286D02*
X11473095Y-24104667D01*
X11473095Y-24104667D02*
X11482619Y-24066571D01*
X11482619Y-24066571D02*
X11492143Y-24047524D01*
X11492143Y-24047524D02*
X11501667Y-24038000D01*
X11501667Y-24038000D02*
X11520714Y-24028476D01*
X11673095Y-24209428D02*
X11682619Y-24218952D01*
X11682619Y-24218952D02*
X11673095Y-24228476D01*
X11673095Y-24228476D02*
X11663571Y-24218952D01*
X11663571Y-24218952D02*
X11673095Y-24209428D01*
X11673095Y-24209428D02*
X11673095Y-24228476D01*
X11806429Y-24028476D02*
X11825476Y-24028476D01*
X11825476Y-24028476D02*
X11844524Y-24038000D01*
X11844524Y-24038000D02*
X11854048Y-24047524D01*
X11854048Y-24047524D02*
X11863571Y-24066571D01*
X11863571Y-24066571D02*
X11873095Y-24104667D01*
X11873095Y-24104667D02*
X11873095Y-24152286D01*
X11873095Y-24152286D02*
X11863571Y-24190381D01*
X11863571Y-24190381D02*
X11854048Y-24209428D01*
X11854048Y-24209428D02*
X11844524Y-24218952D01*
X11844524Y-24218952D02*
X11825476Y-24228476D01*
X11825476Y-24228476D02*
X11806429Y-24228476D01*
X11806429Y-24228476D02*
X11787381Y-24218952D01*
X11787381Y-24218952D02*
X11777857Y-24209428D01*
X11777857Y-24209428D02*
X11768333Y-24190381D01*
X11768333Y-24190381D02*
X11758810Y-24152286D01*
X11758810Y-24152286D02*
X11758810Y-24104667D01*
X11758810Y-24104667D02*
X11768333Y-24066571D01*
X11768333Y-24066571D02*
X11777857Y-24047524D01*
X11777857Y-24047524D02*
X11787381Y-24038000D01*
X11787381Y-24038000D02*
X11806429Y-24028476D01*
X12044524Y-24095143D02*
X12044524Y-24228476D01*
X11996905Y-24018952D02*
X11949286Y-24161809D01*
X11949286Y-24161809D02*
X12073095Y-24161809D01*
X12130238Y-24028476D02*
X12254048Y-24028476D01*
X12254048Y-24028476D02*
X12187381Y-24104667D01*
X12187381Y-24104667D02*
X12215952Y-24104667D01*
X12215952Y-24104667D02*
X12235000Y-24114190D01*
X12235000Y-24114190D02*
X12244524Y-24123714D01*
X12244524Y-24123714D02*
X12254048Y-24142762D01*
X12254048Y-24142762D02*
X12254048Y-24190381D01*
X12254048Y-24190381D02*
X12244524Y-24209428D01*
X12244524Y-24209428D02*
X12235000Y-24218952D01*
X12235000Y-24218952D02*
X12215952Y-24228476D01*
X12215952Y-24228476D02*
X12158810Y-24228476D01*
X12158810Y-24228476D02*
X12139762Y-24218952D01*
X12139762Y-24218952D02*
X12130238Y-24209428D01*
X12320714Y-24028476D02*
X12444524Y-24028476D01*
X12444524Y-24028476D02*
X12377857Y-24104667D01*
X12377857Y-24104667D02*
X12406429Y-24104667D01*
X12406429Y-24104667D02*
X12425476Y-24114190D01*
X12425476Y-24114190D02*
X12435000Y-24123714D01*
X12435000Y-24123714D02*
X12444524Y-24142762D01*
X12444524Y-24142762D02*
X12444524Y-24190381D01*
X12444524Y-24190381D02*
X12435000Y-24209428D01*
X12435000Y-24209428D02*
X12425476Y-24218952D01*
X12425476Y-24218952D02*
X12406429Y-24228476D01*
X12406429Y-24228476D02*
X12349286Y-24228476D01*
X12349286Y-24228476D02*
X12330238Y-24218952D01*
X12330238Y-24218952D02*
X12320714Y-24209428D01*
X12520714Y-24028476D02*
X12520714Y-24066571D01*
X12596905Y-24028476D02*
X12596905Y-24066571D01*
X12859762Y-24304667D02*
X12850238Y-24295143D01*
X12850238Y-24295143D02*
X12831191Y-24266571D01*
X12831191Y-24266571D02*
X12821667Y-24247524D01*
X12821667Y-24247524D02*
X12812143Y-24218952D01*
X12812143Y-24218952D02*
X12802619Y-24171333D01*
X12802619Y-24171333D02*
X12802619Y-24133238D01*
X12802619Y-24133238D02*
X12812143Y-24085619D01*
X12812143Y-24085619D02*
X12821667Y-24057048D01*
X12821667Y-24057048D02*
X12831191Y-24038000D01*
X12831191Y-24038000D02*
X12850238Y-24009428D01*
X12850238Y-24009428D02*
X12859762Y-23999905D01*
X13021667Y-24095143D02*
X13021667Y-24228476D01*
X12974048Y-24018952D02*
X12926429Y-24161809D01*
X12926429Y-24161809D02*
X13050238Y-24161809D01*
X13246429Y-24228476D02*
X13246429Y-24028476D01*
X13332143Y-24228476D02*
X13332143Y-24123714D01*
X13332143Y-24123714D02*
X13322619Y-24104667D01*
X13322619Y-24104667D02*
X13303572Y-24095143D01*
X13303572Y-24095143D02*
X13275000Y-24095143D01*
X13275000Y-24095143D02*
X13255952Y-24104667D01*
X13255952Y-24104667D02*
X13246429Y-24114190D01*
X13455952Y-24228476D02*
X13436905Y-24218952D01*
X13436905Y-24218952D02*
X13427381Y-24209428D01*
X13427381Y-24209428D02*
X13417857Y-24190381D01*
X13417857Y-24190381D02*
X13417857Y-24133238D01*
X13417857Y-24133238D02*
X13427381Y-24114190D01*
X13427381Y-24114190D02*
X13436905Y-24104667D01*
X13436905Y-24104667D02*
X13455952Y-24095143D01*
X13455952Y-24095143D02*
X13484524Y-24095143D01*
X13484524Y-24095143D02*
X13503572Y-24104667D01*
X13503572Y-24104667D02*
X13513095Y-24114190D01*
X13513095Y-24114190D02*
X13522619Y-24133238D01*
X13522619Y-24133238D02*
X13522619Y-24190381D01*
X13522619Y-24190381D02*
X13513095Y-24209428D01*
X13513095Y-24209428D02*
X13503572Y-24218952D01*
X13503572Y-24218952D02*
X13484524Y-24228476D01*
X13484524Y-24228476D02*
X13455952Y-24228476D01*
X13636905Y-24228476D02*
X13617857Y-24218952D01*
X13617857Y-24218952D02*
X13608333Y-24199905D01*
X13608333Y-24199905D02*
X13608333Y-24028476D01*
X13789286Y-24218952D02*
X13770238Y-24228476D01*
X13770238Y-24228476D02*
X13732143Y-24228476D01*
X13732143Y-24228476D02*
X13713095Y-24218952D01*
X13713095Y-24218952D02*
X13703572Y-24199905D01*
X13703572Y-24199905D02*
X13703572Y-24123714D01*
X13703572Y-24123714D02*
X13713095Y-24104667D01*
X13713095Y-24104667D02*
X13732143Y-24095143D01*
X13732143Y-24095143D02*
X13770238Y-24095143D01*
X13770238Y-24095143D02*
X13789286Y-24104667D01*
X13789286Y-24104667D02*
X13798810Y-24123714D01*
X13798810Y-24123714D02*
X13798810Y-24142762D01*
X13798810Y-24142762D02*
X13703572Y-24161809D01*
X13875000Y-24218952D02*
X13894048Y-24228476D01*
X13894048Y-24228476D02*
X13932143Y-24228476D01*
X13932143Y-24228476D02*
X13951191Y-24218952D01*
X13951191Y-24218952D02*
X13960714Y-24199905D01*
X13960714Y-24199905D02*
X13960714Y-24190381D01*
X13960714Y-24190381D02*
X13951191Y-24171333D01*
X13951191Y-24171333D02*
X13932143Y-24161809D01*
X13932143Y-24161809D02*
X13903572Y-24161809D01*
X13903572Y-24161809D02*
X13884524Y-24152286D01*
X13884524Y-24152286D02*
X13875000Y-24133238D01*
X13875000Y-24133238D02*
X13875000Y-24123714D01*
X13875000Y-24123714D02*
X13884524Y-24104667D01*
X13884524Y-24104667D02*
X13903572Y-24095143D01*
X13903572Y-24095143D02*
X13932143Y-24095143D01*
X13932143Y-24095143D02*
X13951191Y-24104667D01*
X14027381Y-24304667D02*
X14036905Y-24295143D01*
X14036905Y-24295143D02*
X14055953Y-24266571D01*
X14055953Y-24266571D02*
X14065476Y-24247524D01*
X14065476Y-24247524D02*
X14075000Y-24218952D01*
X14075000Y-24218952D02*
X14084524Y-24171333D01*
X14084524Y-24171333D02*
X14084524Y-24133238D01*
X14084524Y-24133238D02*
X14075000Y-24085619D01*
X14075000Y-24085619D02*
X14065476Y-24057048D01*
X14065476Y-24057048D02*
X14055953Y-24038000D01*
X14055953Y-24038000D02*
X14036905Y-24009428D01*
X14036905Y-24009428D02*
X14027381Y-23999905D01*
X14356905Y-24304667D02*
X14347381Y-24295143D01*
X14347381Y-24295143D02*
X14328333Y-24266571D01*
X14328333Y-24266571D02*
X14318810Y-24247524D01*
X14318810Y-24247524D02*
X14309286Y-24218952D01*
X14309286Y-24218952D02*
X14299762Y-24171333D01*
X14299762Y-24171333D02*
X14299762Y-24133238D01*
X14299762Y-24133238D02*
X14309286Y-24085619D01*
X14309286Y-24085619D02*
X14318810Y-24057048D01*
X14318810Y-24057048D02*
X14328333Y-24038000D01*
X14328333Y-24038000D02*
X14347381Y-24009428D01*
X14347381Y-24009428D02*
X14356905Y-23999905D01*
X14433095Y-24095143D02*
X14433095Y-24228476D01*
X14433095Y-24114190D02*
X14442619Y-24104667D01*
X14442619Y-24104667D02*
X14461667Y-24095143D01*
X14461667Y-24095143D02*
X14490238Y-24095143D01*
X14490238Y-24095143D02*
X14509286Y-24104667D01*
X14509286Y-24104667D02*
X14518810Y-24123714D01*
X14518810Y-24123714D02*
X14518810Y-24228476D01*
X14642619Y-24228476D02*
X14623572Y-24218952D01*
X14623572Y-24218952D02*
X14614048Y-24209428D01*
X14614048Y-24209428D02*
X14604524Y-24190381D01*
X14604524Y-24190381D02*
X14604524Y-24133238D01*
X14604524Y-24133238D02*
X14614048Y-24114190D01*
X14614048Y-24114190D02*
X14623572Y-24104667D01*
X14623572Y-24104667D02*
X14642619Y-24095143D01*
X14642619Y-24095143D02*
X14671191Y-24095143D01*
X14671191Y-24095143D02*
X14690238Y-24104667D01*
X14690238Y-24104667D02*
X14699762Y-24114190D01*
X14699762Y-24114190D02*
X14709286Y-24133238D01*
X14709286Y-24133238D02*
X14709286Y-24190381D01*
X14709286Y-24190381D02*
X14699762Y-24209428D01*
X14699762Y-24209428D02*
X14690238Y-24218952D01*
X14690238Y-24218952D02*
X14671191Y-24228476D01*
X14671191Y-24228476D02*
X14642619Y-24228476D01*
X14766429Y-24095143D02*
X14842619Y-24095143D01*
X14795000Y-24028476D02*
X14795000Y-24199905D01*
X14795000Y-24199905D02*
X14804524Y-24218952D01*
X14804524Y-24218952D02*
X14823572Y-24228476D01*
X14823572Y-24228476D02*
X14842619Y-24228476D01*
X15029286Y-24095143D02*
X15029286Y-24295143D01*
X15029286Y-24104667D02*
X15048333Y-24095143D01*
X15048333Y-24095143D02*
X15086429Y-24095143D01*
X15086429Y-24095143D02*
X15105476Y-24104667D01*
X15105476Y-24104667D02*
X15115000Y-24114190D01*
X15115000Y-24114190D02*
X15124524Y-24133238D01*
X15124524Y-24133238D02*
X15124524Y-24190381D01*
X15124524Y-24190381D02*
X15115000Y-24209428D01*
X15115000Y-24209428D02*
X15105476Y-24218952D01*
X15105476Y-24218952D02*
X15086429Y-24228476D01*
X15086429Y-24228476D02*
X15048333Y-24228476D01*
X15048333Y-24228476D02*
X15029286Y-24218952D01*
X15238810Y-24228476D02*
X15219762Y-24218952D01*
X15219762Y-24218952D02*
X15210238Y-24199905D01*
X15210238Y-24199905D02*
X15210238Y-24028476D01*
X15400714Y-24228476D02*
X15400714Y-24123714D01*
X15400714Y-24123714D02*
X15391191Y-24104667D01*
X15391191Y-24104667D02*
X15372143Y-24095143D01*
X15372143Y-24095143D02*
X15334048Y-24095143D01*
X15334048Y-24095143D02*
X15315000Y-24104667D01*
X15400714Y-24218952D02*
X15381667Y-24228476D01*
X15381667Y-24228476D02*
X15334048Y-24228476D01*
X15334048Y-24228476D02*
X15315000Y-24218952D01*
X15315000Y-24218952D02*
X15305476Y-24199905D01*
X15305476Y-24199905D02*
X15305476Y-24180857D01*
X15305476Y-24180857D02*
X15315000Y-24161809D01*
X15315000Y-24161809D02*
X15334048Y-24152286D01*
X15334048Y-24152286D02*
X15381667Y-24152286D01*
X15381667Y-24152286D02*
X15400714Y-24142762D01*
X15467381Y-24095143D02*
X15543572Y-24095143D01*
X15495953Y-24028476D02*
X15495953Y-24199905D01*
X15495953Y-24199905D02*
X15505476Y-24218952D01*
X15505476Y-24218952D02*
X15524524Y-24228476D01*
X15524524Y-24228476D02*
X15543572Y-24228476D01*
X15686429Y-24218952D02*
X15667381Y-24228476D01*
X15667381Y-24228476D02*
X15629286Y-24228476D01*
X15629286Y-24228476D02*
X15610238Y-24218952D01*
X15610238Y-24218952D02*
X15600714Y-24199905D01*
X15600714Y-24199905D02*
X15600714Y-24123714D01*
X15600714Y-24123714D02*
X15610238Y-24104667D01*
X15610238Y-24104667D02*
X15629286Y-24095143D01*
X15629286Y-24095143D02*
X15667381Y-24095143D01*
X15667381Y-24095143D02*
X15686429Y-24104667D01*
X15686429Y-24104667D02*
X15695953Y-24123714D01*
X15695953Y-24123714D02*
X15695953Y-24142762D01*
X15695953Y-24142762D02*
X15600714Y-24161809D01*
X15867381Y-24228476D02*
X15867381Y-24028476D01*
X15867381Y-24218952D02*
X15848334Y-24228476D01*
X15848334Y-24228476D02*
X15810238Y-24228476D01*
X15810238Y-24228476D02*
X15791191Y-24218952D01*
X15791191Y-24218952D02*
X15781667Y-24209428D01*
X15781667Y-24209428D02*
X15772143Y-24190381D01*
X15772143Y-24190381D02*
X15772143Y-24133238D01*
X15772143Y-24133238D02*
X15781667Y-24114190D01*
X15781667Y-24114190D02*
X15791191Y-24104667D01*
X15791191Y-24104667D02*
X15810238Y-24095143D01*
X15810238Y-24095143D02*
X15848334Y-24095143D01*
X15848334Y-24095143D02*
X15867381Y-24104667D01*
X15943572Y-24304667D02*
X15953095Y-24295143D01*
X15953095Y-24295143D02*
X15972143Y-24266571D01*
X15972143Y-24266571D02*
X15981667Y-24247524D01*
X15981667Y-24247524D02*
X15991191Y-24218952D01*
X15991191Y-24218952D02*
X16000714Y-24171333D01*
X16000714Y-24171333D02*
X16000714Y-24133238D01*
X16000714Y-24133238D02*
X15991191Y-24085619D01*
X15991191Y-24085619D02*
X15981667Y-24057048D01*
X15981667Y-24057048D02*
X15972143Y-24038000D01*
X15972143Y-24038000D02*
X15953095Y-24009428D01*
X15953095Y-24009428D02*
X15943572Y-23999905D01*
D13*
X9395000Y-24419000D02*
G75*
G03*
X9395000Y-24419000I-75000J0D01*
G01*
D11*
X9747381Y-24492476D02*
X9633095Y-24492476D01*
X9690238Y-24492476D02*
X9690238Y-24292476D01*
X9690238Y-24292476D02*
X9671190Y-24321048D01*
X9671190Y-24321048D02*
X9652143Y-24340095D01*
X9652143Y-24340095D02*
X9633095Y-24349619D01*
X9833095Y-24473428D02*
X9842619Y-24482952D01*
X9842619Y-24482952D02*
X9833095Y-24492476D01*
X9833095Y-24492476D02*
X9823571Y-24482952D01*
X9823571Y-24482952D02*
X9833095Y-24473428D01*
X9833095Y-24473428D02*
X9833095Y-24492476D01*
X10023571Y-24292476D02*
X9928333Y-24292476D01*
X9928333Y-24292476D02*
X9918810Y-24387714D01*
X9918810Y-24387714D02*
X9928333Y-24378190D01*
X9928333Y-24378190D02*
X9947381Y-24368667D01*
X9947381Y-24368667D02*
X9995000Y-24368667D01*
X9995000Y-24368667D02*
X10014048Y-24378190D01*
X10014048Y-24378190D02*
X10023571Y-24387714D01*
X10023571Y-24387714D02*
X10033095Y-24406762D01*
X10033095Y-24406762D02*
X10033095Y-24454381D01*
X10033095Y-24454381D02*
X10023571Y-24473428D01*
X10023571Y-24473428D02*
X10014048Y-24482952D01*
X10014048Y-24482952D02*
X9995000Y-24492476D01*
X9995000Y-24492476D02*
X9947381Y-24492476D01*
X9947381Y-24492476D02*
X9928333Y-24482952D01*
X9928333Y-24482952D02*
X9918810Y-24473428D01*
X10156905Y-24292476D02*
X10175952Y-24292476D01*
X10175952Y-24292476D02*
X10195000Y-24302000D01*
X10195000Y-24302000D02*
X10204524Y-24311524D01*
X10204524Y-24311524D02*
X10214048Y-24330571D01*
X10214048Y-24330571D02*
X10223571Y-24368667D01*
X10223571Y-24368667D02*
X10223571Y-24416286D01*
X10223571Y-24416286D02*
X10214048Y-24454381D01*
X10214048Y-24454381D02*
X10204524Y-24473428D01*
X10204524Y-24473428D02*
X10195000Y-24482952D01*
X10195000Y-24482952D02*
X10175952Y-24492476D01*
X10175952Y-24492476D02*
X10156905Y-24492476D01*
X10156905Y-24492476D02*
X10137857Y-24482952D01*
X10137857Y-24482952D02*
X10128333Y-24473428D01*
X10128333Y-24473428D02*
X10118810Y-24454381D01*
X10118810Y-24454381D02*
X10109286Y-24416286D01*
X10109286Y-24416286D02*
X10109286Y-24368667D01*
X10109286Y-24368667D02*
X10118810Y-24330571D01*
X10118810Y-24330571D02*
X10128333Y-24311524D01*
X10128333Y-24311524D02*
X10137857Y-24302000D01*
X10137857Y-24302000D02*
X10156905Y-24292476D01*
X10347381Y-24292476D02*
X10366429Y-24292476D01*
X10366429Y-24292476D02*
X10385476Y-24302000D01*
X10385476Y-24302000D02*
X10395000Y-24311524D01*
X10395000Y-24311524D02*
X10404524Y-24330571D01*
X10404524Y-24330571D02*
X10414048Y-24368667D01*
X10414048Y-24368667D02*
X10414048Y-24416286D01*
X10414048Y-24416286D02*
X10404524Y-24454381D01*
X10404524Y-24454381D02*
X10395000Y-24473428D01*
X10395000Y-24473428D02*
X10385476Y-24482952D01*
X10385476Y-24482952D02*
X10366429Y-24492476D01*
X10366429Y-24492476D02*
X10347381Y-24492476D01*
X10347381Y-24492476D02*
X10328333Y-24482952D01*
X10328333Y-24482952D02*
X10318810Y-24473428D01*
X10318810Y-24473428D02*
X10309286Y-24454381D01*
X10309286Y-24454381D02*
X10299762Y-24416286D01*
X10299762Y-24416286D02*
X10299762Y-24368667D01*
X10299762Y-24368667D02*
X10309286Y-24330571D01*
X10309286Y-24330571D02*
X10318810Y-24311524D01*
X10318810Y-24311524D02*
X10328333Y-24302000D01*
X10328333Y-24302000D02*
X10347381Y-24292476D01*
X10499762Y-24492476D02*
X10499762Y-24359143D01*
X10499762Y-24378190D02*
X10509286Y-24368667D01*
X10509286Y-24368667D02*
X10528333Y-24359143D01*
X10528333Y-24359143D02*
X10556905Y-24359143D01*
X10556905Y-24359143D02*
X10575952Y-24368667D01*
X10575952Y-24368667D02*
X10585476Y-24387714D01*
X10585476Y-24387714D02*
X10585476Y-24492476D01*
X10585476Y-24387714D02*
X10595000Y-24368667D01*
X10595000Y-24368667D02*
X10614048Y-24359143D01*
X10614048Y-24359143D02*
X10642619Y-24359143D01*
X10642619Y-24359143D02*
X10661667Y-24368667D01*
X10661667Y-24368667D02*
X10671191Y-24387714D01*
X10671191Y-24387714D02*
X10671191Y-24492476D01*
X10766429Y-24492476D02*
X10766429Y-24359143D01*
X10766429Y-24378190D02*
X10775952Y-24368667D01*
X10775952Y-24368667D02*
X10795000Y-24359143D01*
X10795000Y-24359143D02*
X10823572Y-24359143D01*
X10823572Y-24359143D02*
X10842619Y-24368667D01*
X10842619Y-24368667D02*
X10852143Y-24387714D01*
X10852143Y-24387714D02*
X10852143Y-24492476D01*
X10852143Y-24387714D02*
X10861667Y-24368667D01*
X10861667Y-24368667D02*
X10880714Y-24359143D01*
X10880714Y-24359143D02*
X10909286Y-24359143D01*
X10909286Y-24359143D02*
X10928333Y-24368667D01*
X10928333Y-24368667D02*
X10937857Y-24387714D01*
X10937857Y-24387714D02*
X10937857Y-24492476D01*
X11295952Y-24282952D02*
X11124524Y-24540095D01*
X11520714Y-24292476D02*
X11539762Y-24292476D01*
X11539762Y-24292476D02*
X11558810Y-24302000D01*
X11558810Y-24302000D02*
X11568333Y-24311524D01*
X11568333Y-24311524D02*
X11577857Y-24330571D01*
X11577857Y-24330571D02*
X11587381Y-24368667D01*
X11587381Y-24368667D02*
X11587381Y-24416286D01*
X11587381Y-24416286D02*
X11577857Y-24454381D01*
X11577857Y-24454381D02*
X11568333Y-24473428D01*
X11568333Y-24473428D02*
X11558810Y-24482952D01*
X11558810Y-24482952D02*
X11539762Y-24492476D01*
X11539762Y-24492476D02*
X11520714Y-24492476D01*
X11520714Y-24492476D02*
X11501667Y-24482952D01*
X11501667Y-24482952D02*
X11492143Y-24473428D01*
X11492143Y-24473428D02*
X11482619Y-24454381D01*
X11482619Y-24454381D02*
X11473095Y-24416286D01*
X11473095Y-24416286D02*
X11473095Y-24368667D01*
X11473095Y-24368667D02*
X11482619Y-24330571D01*
X11482619Y-24330571D02*
X11492143Y-24311524D01*
X11492143Y-24311524D02*
X11501667Y-24302000D01*
X11501667Y-24302000D02*
X11520714Y-24292476D01*
X11673095Y-24473428D02*
X11682619Y-24482952D01*
X11682619Y-24482952D02*
X11673095Y-24492476D01*
X11673095Y-24492476D02*
X11663571Y-24482952D01*
X11663571Y-24482952D02*
X11673095Y-24473428D01*
X11673095Y-24473428D02*
X11673095Y-24492476D01*
X11806429Y-24292476D02*
X11825476Y-24292476D01*
X11825476Y-24292476D02*
X11844524Y-24302000D01*
X11844524Y-24302000D02*
X11854048Y-24311524D01*
X11854048Y-24311524D02*
X11863571Y-24330571D01*
X11863571Y-24330571D02*
X11873095Y-24368667D01*
X11873095Y-24368667D02*
X11873095Y-24416286D01*
X11873095Y-24416286D02*
X11863571Y-24454381D01*
X11863571Y-24454381D02*
X11854048Y-24473428D01*
X11854048Y-24473428D02*
X11844524Y-24482952D01*
X11844524Y-24482952D02*
X11825476Y-24492476D01*
X11825476Y-24492476D02*
X11806429Y-24492476D01*
X11806429Y-24492476D02*
X11787381Y-24482952D01*
X11787381Y-24482952D02*
X11777857Y-24473428D01*
X11777857Y-24473428D02*
X11768333Y-24454381D01*
X11768333Y-24454381D02*
X11758810Y-24416286D01*
X11758810Y-24416286D02*
X11758810Y-24368667D01*
X11758810Y-24368667D02*
X11768333Y-24330571D01*
X11768333Y-24330571D02*
X11777857Y-24311524D01*
X11777857Y-24311524D02*
X11787381Y-24302000D01*
X11787381Y-24302000D02*
X11806429Y-24292476D01*
X12054048Y-24292476D02*
X11958810Y-24292476D01*
X11958810Y-24292476D02*
X11949286Y-24387714D01*
X11949286Y-24387714D02*
X11958810Y-24378190D01*
X11958810Y-24378190D02*
X11977857Y-24368667D01*
X11977857Y-24368667D02*
X12025476Y-24368667D01*
X12025476Y-24368667D02*
X12044524Y-24378190D01*
X12044524Y-24378190D02*
X12054048Y-24387714D01*
X12054048Y-24387714D02*
X12063571Y-24406762D01*
X12063571Y-24406762D02*
X12063571Y-24454381D01*
X12063571Y-24454381D02*
X12054048Y-24473428D01*
X12054048Y-24473428D02*
X12044524Y-24482952D01*
X12044524Y-24482952D02*
X12025476Y-24492476D01*
X12025476Y-24492476D02*
X11977857Y-24492476D01*
X11977857Y-24492476D02*
X11958810Y-24482952D01*
X11958810Y-24482952D02*
X11949286Y-24473428D01*
X12158810Y-24492476D02*
X12196905Y-24492476D01*
X12196905Y-24492476D02*
X12215952Y-24482952D01*
X12215952Y-24482952D02*
X12225476Y-24473428D01*
X12225476Y-24473428D02*
X12244524Y-24444857D01*
X12244524Y-24444857D02*
X12254048Y-24406762D01*
X12254048Y-24406762D02*
X12254048Y-24330571D01*
X12254048Y-24330571D02*
X12244524Y-24311524D01*
X12244524Y-24311524D02*
X12235000Y-24302000D01*
X12235000Y-24302000D02*
X12215952Y-24292476D01*
X12215952Y-24292476D02*
X12177857Y-24292476D01*
X12177857Y-24292476D02*
X12158810Y-24302000D01*
X12158810Y-24302000D02*
X12149286Y-24311524D01*
X12149286Y-24311524D02*
X12139762Y-24330571D01*
X12139762Y-24330571D02*
X12139762Y-24378190D01*
X12139762Y-24378190D02*
X12149286Y-24397238D01*
X12149286Y-24397238D02*
X12158810Y-24406762D01*
X12158810Y-24406762D02*
X12177857Y-24416286D01*
X12177857Y-24416286D02*
X12215952Y-24416286D01*
X12215952Y-24416286D02*
X12235000Y-24406762D01*
X12235000Y-24406762D02*
X12244524Y-24397238D01*
X12244524Y-24397238D02*
X12254048Y-24378190D01*
X12444524Y-24492476D02*
X12330238Y-24492476D01*
X12387381Y-24492476D02*
X12387381Y-24292476D01*
X12387381Y-24292476D02*
X12368333Y-24321048D01*
X12368333Y-24321048D02*
X12349286Y-24340095D01*
X12349286Y-24340095D02*
X12330238Y-24349619D01*
X12520714Y-24292476D02*
X12520714Y-24330571D01*
X12596905Y-24292476D02*
X12596905Y-24330571D01*
X12859762Y-24568667D02*
X12850238Y-24559143D01*
X12850238Y-24559143D02*
X12831191Y-24530571D01*
X12831191Y-24530571D02*
X12821667Y-24511524D01*
X12821667Y-24511524D02*
X12812143Y-24482952D01*
X12812143Y-24482952D02*
X12802619Y-24435333D01*
X12802619Y-24435333D02*
X12802619Y-24397238D01*
X12802619Y-24397238D02*
X12812143Y-24349619D01*
X12812143Y-24349619D02*
X12821667Y-24321048D01*
X12821667Y-24321048D02*
X12831191Y-24302000D01*
X12831191Y-24302000D02*
X12850238Y-24273428D01*
X12850238Y-24273428D02*
X12859762Y-24263905D01*
X13021667Y-24359143D02*
X13021667Y-24492476D01*
X12974048Y-24282952D02*
X12926429Y-24425809D01*
X12926429Y-24425809D02*
X13050238Y-24425809D01*
X13246429Y-24492476D02*
X13246429Y-24292476D01*
X13332143Y-24492476D02*
X13332143Y-24387714D01*
X13332143Y-24387714D02*
X13322619Y-24368667D01*
X13322619Y-24368667D02*
X13303572Y-24359143D01*
X13303572Y-24359143D02*
X13275000Y-24359143D01*
X13275000Y-24359143D02*
X13255952Y-24368667D01*
X13255952Y-24368667D02*
X13246429Y-24378190D01*
X13455952Y-24492476D02*
X13436905Y-24482952D01*
X13436905Y-24482952D02*
X13427381Y-24473428D01*
X13427381Y-24473428D02*
X13417857Y-24454381D01*
X13417857Y-24454381D02*
X13417857Y-24397238D01*
X13417857Y-24397238D02*
X13427381Y-24378190D01*
X13427381Y-24378190D02*
X13436905Y-24368667D01*
X13436905Y-24368667D02*
X13455952Y-24359143D01*
X13455952Y-24359143D02*
X13484524Y-24359143D01*
X13484524Y-24359143D02*
X13503572Y-24368667D01*
X13503572Y-24368667D02*
X13513095Y-24378190D01*
X13513095Y-24378190D02*
X13522619Y-24397238D01*
X13522619Y-24397238D02*
X13522619Y-24454381D01*
X13522619Y-24454381D02*
X13513095Y-24473428D01*
X13513095Y-24473428D02*
X13503572Y-24482952D01*
X13503572Y-24482952D02*
X13484524Y-24492476D01*
X13484524Y-24492476D02*
X13455952Y-24492476D01*
X13636905Y-24492476D02*
X13617857Y-24482952D01*
X13617857Y-24482952D02*
X13608333Y-24463905D01*
X13608333Y-24463905D02*
X13608333Y-24292476D01*
X13789286Y-24482952D02*
X13770238Y-24492476D01*
X13770238Y-24492476D02*
X13732143Y-24492476D01*
X13732143Y-24492476D02*
X13713095Y-24482952D01*
X13713095Y-24482952D02*
X13703572Y-24463905D01*
X13703572Y-24463905D02*
X13703572Y-24387714D01*
X13703572Y-24387714D02*
X13713095Y-24368667D01*
X13713095Y-24368667D02*
X13732143Y-24359143D01*
X13732143Y-24359143D02*
X13770238Y-24359143D01*
X13770238Y-24359143D02*
X13789286Y-24368667D01*
X13789286Y-24368667D02*
X13798810Y-24387714D01*
X13798810Y-24387714D02*
X13798810Y-24406762D01*
X13798810Y-24406762D02*
X13703572Y-24425809D01*
X13875000Y-24482952D02*
X13894048Y-24492476D01*
X13894048Y-24492476D02*
X13932143Y-24492476D01*
X13932143Y-24492476D02*
X13951191Y-24482952D01*
X13951191Y-24482952D02*
X13960714Y-24463905D01*
X13960714Y-24463905D02*
X13960714Y-24454381D01*
X13960714Y-24454381D02*
X13951191Y-24435333D01*
X13951191Y-24435333D02*
X13932143Y-24425809D01*
X13932143Y-24425809D02*
X13903572Y-24425809D01*
X13903572Y-24425809D02*
X13884524Y-24416286D01*
X13884524Y-24416286D02*
X13875000Y-24397238D01*
X13875000Y-24397238D02*
X13875000Y-24387714D01*
X13875000Y-24387714D02*
X13884524Y-24368667D01*
X13884524Y-24368667D02*
X13903572Y-24359143D01*
X13903572Y-24359143D02*
X13932143Y-24359143D01*
X13932143Y-24359143D02*
X13951191Y-24368667D01*
X14027381Y-24568667D02*
X14036905Y-24559143D01*
X14036905Y-24559143D02*
X14055953Y-24530571D01*
X14055953Y-24530571D02*
X14065476Y-24511524D01*
X14065476Y-24511524D02*
X14075000Y-24482952D01*
X14075000Y-24482952D02*
X14084524Y-24435333D01*
X14084524Y-24435333D02*
X14084524Y-24397238D01*
X14084524Y-24397238D02*
X14075000Y-24349619D01*
X14075000Y-24349619D02*
X14065476Y-24321048D01*
X14065476Y-24321048D02*
X14055953Y-24302000D01*
X14055953Y-24302000D02*
X14036905Y-24273428D01*
X14036905Y-24273428D02*
X14027381Y-24263905D01*
X14356905Y-24568667D02*
X14347381Y-24559143D01*
X14347381Y-24559143D02*
X14328333Y-24530571D01*
X14328333Y-24530571D02*
X14318810Y-24511524D01*
X14318810Y-24511524D02*
X14309286Y-24482952D01*
X14309286Y-24482952D02*
X14299762Y-24435333D01*
X14299762Y-24435333D02*
X14299762Y-24397238D01*
X14299762Y-24397238D02*
X14309286Y-24349619D01*
X14309286Y-24349619D02*
X14318810Y-24321048D01*
X14318810Y-24321048D02*
X14328333Y-24302000D01*
X14328333Y-24302000D02*
X14347381Y-24273428D01*
X14347381Y-24273428D02*
X14356905Y-24263905D01*
X14433095Y-24359143D02*
X14433095Y-24492476D01*
X14433095Y-24378190D02*
X14442619Y-24368667D01*
X14442619Y-24368667D02*
X14461667Y-24359143D01*
X14461667Y-24359143D02*
X14490238Y-24359143D01*
X14490238Y-24359143D02*
X14509286Y-24368667D01*
X14509286Y-24368667D02*
X14518810Y-24387714D01*
X14518810Y-24387714D02*
X14518810Y-24492476D01*
X14642619Y-24492476D02*
X14623572Y-24482952D01*
X14623572Y-24482952D02*
X14614048Y-24473428D01*
X14614048Y-24473428D02*
X14604524Y-24454381D01*
X14604524Y-24454381D02*
X14604524Y-24397238D01*
X14604524Y-24397238D02*
X14614048Y-24378190D01*
X14614048Y-24378190D02*
X14623572Y-24368667D01*
X14623572Y-24368667D02*
X14642619Y-24359143D01*
X14642619Y-24359143D02*
X14671191Y-24359143D01*
X14671191Y-24359143D02*
X14690238Y-24368667D01*
X14690238Y-24368667D02*
X14699762Y-24378190D01*
X14699762Y-24378190D02*
X14709286Y-24397238D01*
X14709286Y-24397238D02*
X14709286Y-24454381D01*
X14709286Y-24454381D02*
X14699762Y-24473428D01*
X14699762Y-24473428D02*
X14690238Y-24482952D01*
X14690238Y-24482952D02*
X14671191Y-24492476D01*
X14671191Y-24492476D02*
X14642619Y-24492476D01*
X14766429Y-24359143D02*
X14842619Y-24359143D01*
X14795000Y-24292476D02*
X14795000Y-24463905D01*
X14795000Y-24463905D02*
X14804524Y-24482952D01*
X14804524Y-24482952D02*
X14823572Y-24492476D01*
X14823572Y-24492476D02*
X14842619Y-24492476D01*
X15029286Y-24359143D02*
X15029286Y-24559143D01*
X15029286Y-24368667D02*
X15048333Y-24359143D01*
X15048333Y-24359143D02*
X15086429Y-24359143D01*
X15086429Y-24359143D02*
X15105476Y-24368667D01*
X15105476Y-24368667D02*
X15115000Y-24378190D01*
X15115000Y-24378190D02*
X15124524Y-24397238D01*
X15124524Y-24397238D02*
X15124524Y-24454381D01*
X15124524Y-24454381D02*
X15115000Y-24473428D01*
X15115000Y-24473428D02*
X15105476Y-24482952D01*
X15105476Y-24482952D02*
X15086429Y-24492476D01*
X15086429Y-24492476D02*
X15048333Y-24492476D01*
X15048333Y-24492476D02*
X15029286Y-24482952D01*
X15238810Y-24492476D02*
X15219762Y-24482952D01*
X15219762Y-24482952D02*
X15210238Y-24463905D01*
X15210238Y-24463905D02*
X15210238Y-24292476D01*
X15400714Y-24492476D02*
X15400714Y-24387714D01*
X15400714Y-24387714D02*
X15391191Y-24368667D01*
X15391191Y-24368667D02*
X15372143Y-24359143D01*
X15372143Y-24359143D02*
X15334048Y-24359143D01*
X15334048Y-24359143D02*
X15315000Y-24368667D01*
X15400714Y-24482952D02*
X15381667Y-24492476D01*
X15381667Y-24492476D02*
X15334048Y-24492476D01*
X15334048Y-24492476D02*
X15315000Y-24482952D01*
X15315000Y-24482952D02*
X15305476Y-24463905D01*
X15305476Y-24463905D02*
X15305476Y-24444857D01*
X15305476Y-24444857D02*
X15315000Y-24425809D01*
X15315000Y-24425809D02*
X15334048Y-24416286D01*
X15334048Y-24416286D02*
X15381667Y-24416286D01*
X15381667Y-24416286D02*
X15400714Y-24406762D01*
X15467381Y-24359143D02*
X15543572Y-24359143D01*
X15495953Y-24292476D02*
X15495953Y-24463905D01*
X15495953Y-24463905D02*
X15505476Y-24482952D01*
X15505476Y-24482952D02*
X15524524Y-24492476D01*
X15524524Y-24492476D02*
X15543572Y-24492476D01*
X15686429Y-24482952D02*
X15667381Y-24492476D01*
X15667381Y-24492476D02*
X15629286Y-24492476D01*
X15629286Y-24492476D02*
X15610238Y-24482952D01*
X15610238Y-24482952D02*
X15600714Y-24463905D01*
X15600714Y-24463905D02*
X15600714Y-24387714D01*
X15600714Y-24387714D02*
X15610238Y-24368667D01*
X15610238Y-24368667D02*
X15629286Y-24359143D01*
X15629286Y-24359143D02*
X15667381Y-24359143D01*
X15667381Y-24359143D02*
X15686429Y-24368667D01*
X15686429Y-24368667D02*
X15695953Y-24387714D01*
X15695953Y-24387714D02*
X15695953Y-24406762D01*
X15695953Y-24406762D02*
X15600714Y-24425809D01*
X15867381Y-24492476D02*
X15867381Y-24292476D01*
X15867381Y-24482952D02*
X15848334Y-24492476D01*
X15848334Y-24492476D02*
X15810238Y-24492476D01*
X15810238Y-24492476D02*
X15791191Y-24482952D01*
X15791191Y-24482952D02*
X15781667Y-24473428D01*
X15781667Y-24473428D02*
X15772143Y-24454381D01*
X15772143Y-24454381D02*
X15772143Y-24397238D01*
X15772143Y-24397238D02*
X15781667Y-24378190D01*
X15781667Y-24378190D02*
X15791191Y-24368667D01*
X15791191Y-24368667D02*
X15810238Y-24359143D01*
X15810238Y-24359143D02*
X15848334Y-24359143D01*
X15848334Y-24359143D02*
X15867381Y-24368667D01*
X15943572Y-24568667D02*
X15953095Y-24559143D01*
X15953095Y-24559143D02*
X15972143Y-24530571D01*
X15972143Y-24530571D02*
X15981667Y-24511524D01*
X15981667Y-24511524D02*
X15991191Y-24482952D01*
X15991191Y-24482952D02*
X16000714Y-24435333D01*
X16000714Y-24435333D02*
X16000714Y-24397238D01*
X16000714Y-24397238D02*
X15991191Y-24349619D01*
X15991191Y-24349619D02*
X15981667Y-24321048D01*
X15981667Y-24321048D02*
X15972143Y-24302000D01*
X15972143Y-24302000D02*
X15953095Y-24273428D01*
X15953095Y-24273428D02*
X15943572Y-24263905D01*
D14*
X9310000Y-24604000D02*
X9310000Y-24774000D01*
X9225000Y-24689000D02*
X9395000Y-24689000D01*
D11*
X9747381Y-24762476D02*
X9633095Y-24762476D01*
X9690238Y-24762476D02*
X9690238Y-24562476D01*
X9690238Y-24562476D02*
X9671190Y-24591048D01*
X9671190Y-24591048D02*
X9652143Y-24610095D01*
X9652143Y-24610095D02*
X9633095Y-24619619D01*
X9833095Y-24743428D02*
X9842619Y-24752952D01*
X9842619Y-24752952D02*
X9833095Y-24762476D01*
X9833095Y-24762476D02*
X9823571Y-24752952D01*
X9823571Y-24752952D02*
X9833095Y-24743428D01*
X9833095Y-24743428D02*
X9833095Y-24762476D01*
X9909286Y-24562476D02*
X10042619Y-24562476D01*
X10042619Y-24562476D02*
X9956905Y-24762476D01*
X10156905Y-24562476D02*
X10175952Y-24562476D01*
X10175952Y-24562476D02*
X10195000Y-24572000D01*
X10195000Y-24572000D02*
X10204524Y-24581524D01*
X10204524Y-24581524D02*
X10214048Y-24600571D01*
X10214048Y-24600571D02*
X10223571Y-24638667D01*
X10223571Y-24638667D02*
X10223571Y-24686286D01*
X10223571Y-24686286D02*
X10214048Y-24724381D01*
X10214048Y-24724381D02*
X10204524Y-24743428D01*
X10204524Y-24743428D02*
X10195000Y-24752952D01*
X10195000Y-24752952D02*
X10175952Y-24762476D01*
X10175952Y-24762476D02*
X10156905Y-24762476D01*
X10156905Y-24762476D02*
X10137857Y-24752952D01*
X10137857Y-24752952D02*
X10128333Y-24743428D01*
X10128333Y-24743428D02*
X10118810Y-24724381D01*
X10118810Y-24724381D02*
X10109286Y-24686286D01*
X10109286Y-24686286D02*
X10109286Y-24638667D01*
X10109286Y-24638667D02*
X10118810Y-24600571D01*
X10118810Y-24600571D02*
X10128333Y-24581524D01*
X10128333Y-24581524D02*
X10137857Y-24572000D01*
X10137857Y-24572000D02*
X10156905Y-24562476D01*
X10347381Y-24562476D02*
X10366429Y-24562476D01*
X10366429Y-24562476D02*
X10385476Y-24572000D01*
X10385476Y-24572000D02*
X10395000Y-24581524D01*
X10395000Y-24581524D02*
X10404524Y-24600571D01*
X10404524Y-24600571D02*
X10414048Y-24638667D01*
X10414048Y-24638667D02*
X10414048Y-24686286D01*
X10414048Y-24686286D02*
X10404524Y-24724381D01*
X10404524Y-24724381D02*
X10395000Y-24743428D01*
X10395000Y-24743428D02*
X10385476Y-24752952D01*
X10385476Y-24752952D02*
X10366429Y-24762476D01*
X10366429Y-24762476D02*
X10347381Y-24762476D01*
X10347381Y-24762476D02*
X10328333Y-24752952D01*
X10328333Y-24752952D02*
X10318810Y-24743428D01*
X10318810Y-24743428D02*
X10309286Y-24724381D01*
X10309286Y-24724381D02*
X10299762Y-24686286D01*
X10299762Y-24686286D02*
X10299762Y-24638667D01*
X10299762Y-24638667D02*
X10309286Y-24600571D01*
X10309286Y-24600571D02*
X10318810Y-24581524D01*
X10318810Y-24581524D02*
X10328333Y-24572000D01*
X10328333Y-24572000D02*
X10347381Y-24562476D01*
X10499762Y-24762476D02*
X10499762Y-24629143D01*
X10499762Y-24648190D02*
X10509286Y-24638667D01*
X10509286Y-24638667D02*
X10528333Y-24629143D01*
X10528333Y-24629143D02*
X10556905Y-24629143D01*
X10556905Y-24629143D02*
X10575952Y-24638667D01*
X10575952Y-24638667D02*
X10585476Y-24657714D01*
X10585476Y-24657714D02*
X10585476Y-24762476D01*
X10585476Y-24657714D02*
X10595000Y-24638667D01*
X10595000Y-24638667D02*
X10614048Y-24629143D01*
X10614048Y-24629143D02*
X10642619Y-24629143D01*
X10642619Y-24629143D02*
X10661667Y-24638667D01*
X10661667Y-24638667D02*
X10671191Y-24657714D01*
X10671191Y-24657714D02*
X10671191Y-24762476D01*
X10766429Y-24762476D02*
X10766429Y-24629143D01*
X10766429Y-24648190D02*
X10775952Y-24638667D01*
X10775952Y-24638667D02*
X10795000Y-24629143D01*
X10795000Y-24629143D02*
X10823572Y-24629143D01*
X10823572Y-24629143D02*
X10842619Y-24638667D01*
X10842619Y-24638667D02*
X10852143Y-24657714D01*
X10852143Y-24657714D02*
X10852143Y-24762476D01*
X10852143Y-24657714D02*
X10861667Y-24638667D01*
X10861667Y-24638667D02*
X10880714Y-24629143D01*
X10880714Y-24629143D02*
X10909286Y-24629143D01*
X10909286Y-24629143D02*
X10928333Y-24638667D01*
X10928333Y-24638667D02*
X10937857Y-24657714D01*
X10937857Y-24657714D02*
X10937857Y-24762476D01*
X11295952Y-24552952D02*
X11124524Y-24810095D01*
X11520714Y-24562476D02*
X11539762Y-24562476D01*
X11539762Y-24562476D02*
X11558810Y-24572000D01*
X11558810Y-24572000D02*
X11568333Y-24581524D01*
X11568333Y-24581524D02*
X11577857Y-24600571D01*
X11577857Y-24600571D02*
X11587381Y-24638667D01*
X11587381Y-24638667D02*
X11587381Y-24686286D01*
X11587381Y-24686286D02*
X11577857Y-24724381D01*
X11577857Y-24724381D02*
X11568333Y-24743428D01*
X11568333Y-24743428D02*
X11558810Y-24752952D01*
X11558810Y-24752952D02*
X11539762Y-24762476D01*
X11539762Y-24762476D02*
X11520714Y-24762476D01*
X11520714Y-24762476D02*
X11501667Y-24752952D01*
X11501667Y-24752952D02*
X11492143Y-24743428D01*
X11492143Y-24743428D02*
X11482619Y-24724381D01*
X11482619Y-24724381D02*
X11473095Y-24686286D01*
X11473095Y-24686286D02*
X11473095Y-24638667D01*
X11473095Y-24638667D02*
X11482619Y-24600571D01*
X11482619Y-24600571D02*
X11492143Y-24581524D01*
X11492143Y-24581524D02*
X11501667Y-24572000D01*
X11501667Y-24572000D02*
X11520714Y-24562476D01*
X11673095Y-24743428D02*
X11682619Y-24752952D01*
X11682619Y-24752952D02*
X11673095Y-24762476D01*
X11673095Y-24762476D02*
X11663571Y-24752952D01*
X11663571Y-24752952D02*
X11673095Y-24743428D01*
X11673095Y-24743428D02*
X11673095Y-24762476D01*
X11806429Y-24562476D02*
X11825476Y-24562476D01*
X11825476Y-24562476D02*
X11844524Y-24572000D01*
X11844524Y-24572000D02*
X11854048Y-24581524D01*
X11854048Y-24581524D02*
X11863571Y-24600571D01*
X11863571Y-24600571D02*
X11873095Y-24638667D01*
X11873095Y-24638667D02*
X11873095Y-24686286D01*
X11873095Y-24686286D02*
X11863571Y-24724381D01*
X11863571Y-24724381D02*
X11854048Y-24743428D01*
X11854048Y-24743428D02*
X11844524Y-24752952D01*
X11844524Y-24752952D02*
X11825476Y-24762476D01*
X11825476Y-24762476D02*
X11806429Y-24762476D01*
X11806429Y-24762476D02*
X11787381Y-24752952D01*
X11787381Y-24752952D02*
X11777857Y-24743428D01*
X11777857Y-24743428D02*
X11768333Y-24724381D01*
X11768333Y-24724381D02*
X11758810Y-24686286D01*
X11758810Y-24686286D02*
X11758810Y-24638667D01*
X11758810Y-24638667D02*
X11768333Y-24600571D01*
X11768333Y-24600571D02*
X11777857Y-24581524D01*
X11777857Y-24581524D02*
X11787381Y-24572000D01*
X11787381Y-24572000D02*
X11806429Y-24562476D01*
X12044524Y-24562476D02*
X12006429Y-24562476D01*
X12006429Y-24562476D02*
X11987381Y-24572000D01*
X11987381Y-24572000D02*
X11977857Y-24581524D01*
X11977857Y-24581524D02*
X11958810Y-24610095D01*
X11958810Y-24610095D02*
X11949286Y-24648190D01*
X11949286Y-24648190D02*
X11949286Y-24724381D01*
X11949286Y-24724381D02*
X11958810Y-24743428D01*
X11958810Y-24743428D02*
X11968333Y-24752952D01*
X11968333Y-24752952D02*
X11987381Y-24762476D01*
X11987381Y-24762476D02*
X12025476Y-24762476D01*
X12025476Y-24762476D02*
X12044524Y-24752952D01*
X12044524Y-24752952D02*
X12054048Y-24743428D01*
X12054048Y-24743428D02*
X12063571Y-24724381D01*
X12063571Y-24724381D02*
X12063571Y-24676762D01*
X12063571Y-24676762D02*
X12054048Y-24657714D01*
X12054048Y-24657714D02*
X12044524Y-24648190D01*
X12044524Y-24648190D02*
X12025476Y-24638667D01*
X12025476Y-24638667D02*
X11987381Y-24638667D01*
X11987381Y-24638667D02*
X11968333Y-24648190D01*
X11968333Y-24648190D02*
X11958810Y-24657714D01*
X11958810Y-24657714D02*
X11949286Y-24676762D01*
X12235000Y-24562476D02*
X12196905Y-24562476D01*
X12196905Y-24562476D02*
X12177857Y-24572000D01*
X12177857Y-24572000D02*
X12168333Y-24581524D01*
X12168333Y-24581524D02*
X12149286Y-24610095D01*
X12149286Y-24610095D02*
X12139762Y-24648190D01*
X12139762Y-24648190D02*
X12139762Y-24724381D01*
X12139762Y-24724381D02*
X12149286Y-24743428D01*
X12149286Y-24743428D02*
X12158810Y-24752952D01*
X12158810Y-24752952D02*
X12177857Y-24762476D01*
X12177857Y-24762476D02*
X12215952Y-24762476D01*
X12215952Y-24762476D02*
X12235000Y-24752952D01*
X12235000Y-24752952D02*
X12244524Y-24743428D01*
X12244524Y-24743428D02*
X12254048Y-24724381D01*
X12254048Y-24724381D02*
X12254048Y-24676762D01*
X12254048Y-24676762D02*
X12244524Y-24657714D01*
X12244524Y-24657714D02*
X12235000Y-24648190D01*
X12235000Y-24648190D02*
X12215952Y-24638667D01*
X12215952Y-24638667D02*
X12177857Y-24638667D01*
X12177857Y-24638667D02*
X12158810Y-24648190D01*
X12158810Y-24648190D02*
X12149286Y-24657714D01*
X12149286Y-24657714D02*
X12139762Y-24676762D01*
X12349286Y-24762476D02*
X12387381Y-24762476D01*
X12387381Y-24762476D02*
X12406429Y-24752952D01*
X12406429Y-24752952D02*
X12415952Y-24743428D01*
X12415952Y-24743428D02*
X12435000Y-24714857D01*
X12435000Y-24714857D02*
X12444524Y-24676762D01*
X12444524Y-24676762D02*
X12444524Y-24600571D01*
X12444524Y-24600571D02*
X12435000Y-24581524D01*
X12435000Y-24581524D02*
X12425476Y-24572000D01*
X12425476Y-24572000D02*
X12406429Y-24562476D01*
X12406429Y-24562476D02*
X12368333Y-24562476D01*
X12368333Y-24562476D02*
X12349286Y-24572000D01*
X12349286Y-24572000D02*
X12339762Y-24581524D01*
X12339762Y-24581524D02*
X12330238Y-24600571D01*
X12330238Y-24600571D02*
X12330238Y-24648190D01*
X12330238Y-24648190D02*
X12339762Y-24667238D01*
X12339762Y-24667238D02*
X12349286Y-24676762D01*
X12349286Y-24676762D02*
X12368333Y-24686286D01*
X12368333Y-24686286D02*
X12406429Y-24686286D01*
X12406429Y-24686286D02*
X12425476Y-24676762D01*
X12425476Y-24676762D02*
X12435000Y-24667238D01*
X12435000Y-24667238D02*
X12444524Y-24648190D01*
X12520714Y-24562476D02*
X12520714Y-24600571D01*
X12596905Y-24562476D02*
X12596905Y-24600571D01*
X12859762Y-24838667D02*
X12850238Y-24829143D01*
X12850238Y-24829143D02*
X12831191Y-24800571D01*
X12831191Y-24800571D02*
X12821667Y-24781524D01*
X12821667Y-24781524D02*
X12812143Y-24752952D01*
X12812143Y-24752952D02*
X12802619Y-24705333D01*
X12802619Y-24705333D02*
X12802619Y-24667238D01*
X12802619Y-24667238D02*
X12812143Y-24619619D01*
X12812143Y-24619619D02*
X12821667Y-24591048D01*
X12821667Y-24591048D02*
X12831191Y-24572000D01*
X12831191Y-24572000D02*
X12850238Y-24543428D01*
X12850238Y-24543428D02*
X12859762Y-24533905D01*
X13040714Y-24762476D02*
X12926429Y-24762476D01*
X12983571Y-24762476D02*
X12983571Y-24562476D01*
X12983571Y-24562476D02*
X12964524Y-24591048D01*
X12964524Y-24591048D02*
X12945476Y-24610095D01*
X12945476Y-24610095D02*
X12926429Y-24619619D01*
X13155000Y-24648190D02*
X13135952Y-24638667D01*
X13135952Y-24638667D02*
X13126429Y-24629143D01*
X13126429Y-24629143D02*
X13116905Y-24610095D01*
X13116905Y-24610095D02*
X13116905Y-24600571D01*
X13116905Y-24600571D02*
X13126429Y-24581524D01*
X13126429Y-24581524D02*
X13135952Y-24572000D01*
X13135952Y-24572000D02*
X13155000Y-24562476D01*
X13155000Y-24562476D02*
X13193095Y-24562476D01*
X13193095Y-24562476D02*
X13212143Y-24572000D01*
X13212143Y-24572000D02*
X13221667Y-24581524D01*
X13221667Y-24581524D02*
X13231191Y-24600571D01*
X13231191Y-24600571D02*
X13231191Y-24610095D01*
X13231191Y-24610095D02*
X13221667Y-24629143D01*
X13221667Y-24629143D02*
X13212143Y-24638667D01*
X13212143Y-24638667D02*
X13193095Y-24648190D01*
X13193095Y-24648190D02*
X13155000Y-24648190D01*
X13155000Y-24648190D02*
X13135952Y-24657714D01*
X13135952Y-24657714D02*
X13126429Y-24667238D01*
X13126429Y-24667238D02*
X13116905Y-24686286D01*
X13116905Y-24686286D02*
X13116905Y-24724381D01*
X13116905Y-24724381D02*
X13126429Y-24743428D01*
X13126429Y-24743428D02*
X13135952Y-24752952D01*
X13135952Y-24752952D02*
X13155000Y-24762476D01*
X13155000Y-24762476D02*
X13193095Y-24762476D01*
X13193095Y-24762476D02*
X13212143Y-24752952D01*
X13212143Y-24752952D02*
X13221667Y-24743428D01*
X13221667Y-24743428D02*
X13231191Y-24724381D01*
X13231191Y-24724381D02*
X13231191Y-24686286D01*
X13231191Y-24686286D02*
X13221667Y-24667238D01*
X13221667Y-24667238D02*
X13212143Y-24657714D01*
X13212143Y-24657714D02*
X13193095Y-24648190D01*
X13345476Y-24648190D02*
X13326429Y-24638667D01*
X13326429Y-24638667D02*
X13316905Y-24629143D01*
X13316905Y-24629143D02*
X13307381Y-24610095D01*
X13307381Y-24610095D02*
X13307381Y-24600571D01*
X13307381Y-24600571D02*
X13316905Y-24581524D01*
X13316905Y-24581524D02*
X13326429Y-24572000D01*
X13326429Y-24572000D02*
X13345476Y-24562476D01*
X13345476Y-24562476D02*
X13383572Y-24562476D01*
X13383572Y-24562476D02*
X13402619Y-24572000D01*
X13402619Y-24572000D02*
X13412143Y-24581524D01*
X13412143Y-24581524D02*
X13421667Y-24600571D01*
X13421667Y-24600571D02*
X13421667Y-24610095D01*
X13421667Y-24610095D02*
X13412143Y-24629143D01*
X13412143Y-24629143D02*
X13402619Y-24638667D01*
X13402619Y-24638667D02*
X13383572Y-24648190D01*
X13383572Y-24648190D02*
X13345476Y-24648190D01*
X13345476Y-24648190D02*
X13326429Y-24657714D01*
X13326429Y-24657714D02*
X13316905Y-24667238D01*
X13316905Y-24667238D02*
X13307381Y-24686286D01*
X13307381Y-24686286D02*
X13307381Y-24724381D01*
X13307381Y-24724381D02*
X13316905Y-24743428D01*
X13316905Y-24743428D02*
X13326429Y-24752952D01*
X13326429Y-24752952D02*
X13345476Y-24762476D01*
X13345476Y-24762476D02*
X13383572Y-24762476D01*
X13383572Y-24762476D02*
X13402619Y-24752952D01*
X13402619Y-24752952D02*
X13412143Y-24743428D01*
X13412143Y-24743428D02*
X13421667Y-24724381D01*
X13421667Y-24724381D02*
X13421667Y-24686286D01*
X13421667Y-24686286D02*
X13412143Y-24667238D01*
X13412143Y-24667238D02*
X13402619Y-24657714D01*
X13402619Y-24657714D02*
X13383572Y-24648190D01*
X13627381Y-24762476D02*
X13627381Y-24562476D01*
X13713095Y-24762476D02*
X13713095Y-24657714D01*
X13713095Y-24657714D02*
X13703572Y-24638667D01*
X13703572Y-24638667D02*
X13684524Y-24629143D01*
X13684524Y-24629143D02*
X13655952Y-24629143D01*
X13655952Y-24629143D02*
X13636905Y-24638667D01*
X13636905Y-24638667D02*
X13627381Y-24648190D01*
X13836905Y-24762476D02*
X13817857Y-24752952D01*
X13817857Y-24752952D02*
X13808333Y-24743428D01*
X13808333Y-24743428D02*
X13798810Y-24724381D01*
X13798810Y-24724381D02*
X13798810Y-24667238D01*
X13798810Y-24667238D02*
X13808333Y-24648190D01*
X13808333Y-24648190D02*
X13817857Y-24638667D01*
X13817857Y-24638667D02*
X13836905Y-24629143D01*
X13836905Y-24629143D02*
X13865476Y-24629143D01*
X13865476Y-24629143D02*
X13884524Y-24638667D01*
X13884524Y-24638667D02*
X13894048Y-24648190D01*
X13894048Y-24648190D02*
X13903572Y-24667238D01*
X13903572Y-24667238D02*
X13903572Y-24724381D01*
X13903572Y-24724381D02*
X13894048Y-24743428D01*
X13894048Y-24743428D02*
X13884524Y-24752952D01*
X13884524Y-24752952D02*
X13865476Y-24762476D01*
X13865476Y-24762476D02*
X13836905Y-24762476D01*
X14017857Y-24762476D02*
X13998810Y-24752952D01*
X13998810Y-24752952D02*
X13989286Y-24733905D01*
X13989286Y-24733905D02*
X13989286Y-24562476D01*
X14170238Y-24752952D02*
X14151191Y-24762476D01*
X14151191Y-24762476D02*
X14113095Y-24762476D01*
X14113095Y-24762476D02*
X14094048Y-24752952D01*
X14094048Y-24752952D02*
X14084524Y-24733905D01*
X14084524Y-24733905D02*
X14084524Y-24657714D01*
X14084524Y-24657714D02*
X14094048Y-24638667D01*
X14094048Y-24638667D02*
X14113095Y-24629143D01*
X14113095Y-24629143D02*
X14151191Y-24629143D01*
X14151191Y-24629143D02*
X14170238Y-24638667D01*
X14170238Y-24638667D02*
X14179762Y-24657714D01*
X14179762Y-24657714D02*
X14179762Y-24676762D01*
X14179762Y-24676762D02*
X14084524Y-24695809D01*
X14255953Y-24752952D02*
X14275000Y-24762476D01*
X14275000Y-24762476D02*
X14313095Y-24762476D01*
X14313095Y-24762476D02*
X14332143Y-24752952D01*
X14332143Y-24752952D02*
X14341667Y-24733905D01*
X14341667Y-24733905D02*
X14341667Y-24724381D01*
X14341667Y-24724381D02*
X14332143Y-24705333D01*
X14332143Y-24705333D02*
X14313095Y-24695809D01*
X14313095Y-24695809D02*
X14284524Y-24695809D01*
X14284524Y-24695809D02*
X14265476Y-24686286D01*
X14265476Y-24686286D02*
X14255953Y-24667238D01*
X14255953Y-24667238D02*
X14255953Y-24657714D01*
X14255953Y-24657714D02*
X14265476Y-24638667D01*
X14265476Y-24638667D02*
X14284524Y-24629143D01*
X14284524Y-24629143D02*
X14313095Y-24629143D01*
X14313095Y-24629143D02*
X14332143Y-24638667D01*
X14408334Y-24838667D02*
X14417857Y-24829143D01*
X14417857Y-24829143D02*
X14436905Y-24800571D01*
X14436905Y-24800571D02*
X14446429Y-24781524D01*
X14446429Y-24781524D02*
X14455953Y-24752952D01*
X14455953Y-24752952D02*
X14465476Y-24705333D01*
X14465476Y-24705333D02*
X14465476Y-24667238D01*
X14465476Y-24667238D02*
X14455953Y-24619619D01*
X14455953Y-24619619D02*
X14446429Y-24591048D01*
X14446429Y-24591048D02*
X14436905Y-24572000D01*
X14436905Y-24572000D02*
X14417857Y-24543428D01*
X14417857Y-24543428D02*
X14408334Y-24533905D01*
X14737857Y-24838667D02*
X14728333Y-24829143D01*
X14728333Y-24829143D02*
X14709286Y-24800571D01*
X14709286Y-24800571D02*
X14699762Y-24781524D01*
X14699762Y-24781524D02*
X14690238Y-24752952D01*
X14690238Y-24752952D02*
X14680714Y-24705333D01*
X14680714Y-24705333D02*
X14680714Y-24667238D01*
X14680714Y-24667238D02*
X14690238Y-24619619D01*
X14690238Y-24619619D02*
X14699762Y-24591048D01*
X14699762Y-24591048D02*
X14709286Y-24572000D01*
X14709286Y-24572000D02*
X14728333Y-24543428D01*
X14728333Y-24543428D02*
X14737857Y-24533905D01*
X14814048Y-24629143D02*
X14814048Y-24762476D01*
X14814048Y-24648190D02*
X14823572Y-24638667D01*
X14823572Y-24638667D02*
X14842619Y-24629143D01*
X14842619Y-24629143D02*
X14871191Y-24629143D01*
X14871191Y-24629143D02*
X14890238Y-24638667D01*
X14890238Y-24638667D02*
X14899762Y-24657714D01*
X14899762Y-24657714D02*
X14899762Y-24762476D01*
X15023572Y-24762476D02*
X15004524Y-24752952D01*
X15004524Y-24752952D02*
X14995000Y-24743428D01*
X14995000Y-24743428D02*
X14985476Y-24724381D01*
X14985476Y-24724381D02*
X14985476Y-24667238D01*
X14985476Y-24667238D02*
X14995000Y-24648190D01*
X14995000Y-24648190D02*
X15004524Y-24638667D01*
X15004524Y-24638667D02*
X15023572Y-24629143D01*
X15023572Y-24629143D02*
X15052143Y-24629143D01*
X15052143Y-24629143D02*
X15071191Y-24638667D01*
X15071191Y-24638667D02*
X15080714Y-24648190D01*
X15080714Y-24648190D02*
X15090238Y-24667238D01*
X15090238Y-24667238D02*
X15090238Y-24724381D01*
X15090238Y-24724381D02*
X15080714Y-24743428D01*
X15080714Y-24743428D02*
X15071191Y-24752952D01*
X15071191Y-24752952D02*
X15052143Y-24762476D01*
X15052143Y-24762476D02*
X15023572Y-24762476D01*
X15147381Y-24629143D02*
X15223572Y-24629143D01*
X15175953Y-24562476D02*
X15175953Y-24733905D01*
X15175953Y-24733905D02*
X15185476Y-24752952D01*
X15185476Y-24752952D02*
X15204524Y-24762476D01*
X15204524Y-24762476D02*
X15223572Y-24762476D01*
X15410238Y-24629143D02*
X15410238Y-24829143D01*
X15410238Y-24638667D02*
X15429286Y-24629143D01*
X15429286Y-24629143D02*
X15467381Y-24629143D01*
X15467381Y-24629143D02*
X15486429Y-24638667D01*
X15486429Y-24638667D02*
X15495953Y-24648190D01*
X15495953Y-24648190D02*
X15505476Y-24667238D01*
X15505476Y-24667238D02*
X15505476Y-24724381D01*
X15505476Y-24724381D02*
X15495953Y-24743428D01*
X15495953Y-24743428D02*
X15486429Y-24752952D01*
X15486429Y-24752952D02*
X15467381Y-24762476D01*
X15467381Y-24762476D02*
X15429286Y-24762476D01*
X15429286Y-24762476D02*
X15410238Y-24752952D01*
X15619762Y-24762476D02*
X15600714Y-24752952D01*
X15600714Y-24752952D02*
X15591191Y-24733905D01*
X15591191Y-24733905D02*
X15591191Y-24562476D01*
X15781667Y-24762476D02*
X15781667Y-24657714D01*
X15781667Y-24657714D02*
X15772143Y-24638667D01*
X15772143Y-24638667D02*
X15753095Y-24629143D01*
X15753095Y-24629143D02*
X15715000Y-24629143D01*
X15715000Y-24629143D02*
X15695953Y-24638667D01*
X15781667Y-24752952D02*
X15762619Y-24762476D01*
X15762619Y-24762476D02*
X15715000Y-24762476D01*
X15715000Y-24762476D02*
X15695953Y-24752952D01*
X15695953Y-24752952D02*
X15686429Y-24733905D01*
X15686429Y-24733905D02*
X15686429Y-24714857D01*
X15686429Y-24714857D02*
X15695953Y-24695809D01*
X15695953Y-24695809D02*
X15715000Y-24686286D01*
X15715000Y-24686286D02*
X15762619Y-24686286D01*
X15762619Y-24686286D02*
X15781667Y-24676762D01*
X15848334Y-24629143D02*
X15924524Y-24629143D01*
X15876905Y-24562476D02*
X15876905Y-24733905D01*
X15876905Y-24733905D02*
X15886429Y-24752952D01*
X15886429Y-24752952D02*
X15905476Y-24762476D01*
X15905476Y-24762476D02*
X15924524Y-24762476D01*
X16067381Y-24752952D02*
X16048334Y-24762476D01*
X16048334Y-24762476D02*
X16010238Y-24762476D01*
X16010238Y-24762476D02*
X15991191Y-24752952D01*
X15991191Y-24752952D02*
X15981667Y-24733905D01*
X15981667Y-24733905D02*
X15981667Y-24657714D01*
X15981667Y-24657714D02*
X15991191Y-24638667D01*
X15991191Y-24638667D02*
X16010238Y-24629143D01*
X16010238Y-24629143D02*
X16048334Y-24629143D01*
X16048334Y-24629143D02*
X16067381Y-24638667D01*
X16067381Y-24638667D02*
X16076905Y-24657714D01*
X16076905Y-24657714D02*
X16076905Y-24676762D01*
X16076905Y-24676762D02*
X15981667Y-24695809D01*
X16248334Y-24762476D02*
X16248334Y-24562476D01*
X16248334Y-24752952D02*
X16229286Y-24762476D01*
X16229286Y-24762476D02*
X16191191Y-24762476D01*
X16191191Y-24762476D02*
X16172143Y-24752952D01*
X16172143Y-24752952D02*
X16162619Y-24743428D01*
X16162619Y-24743428D02*
X16153095Y-24724381D01*
X16153095Y-24724381D02*
X16153095Y-24667238D01*
X16153095Y-24667238D02*
X16162619Y-24648190D01*
X16162619Y-24648190D02*
X16172143Y-24638667D01*
X16172143Y-24638667D02*
X16191191Y-24629143D01*
X16191191Y-24629143D02*
X16229286Y-24629143D01*
X16229286Y-24629143D02*
X16248334Y-24638667D01*
X16324524Y-24838667D02*
X16334048Y-24829143D01*
X16334048Y-24829143D02*
X16353095Y-24800571D01*
X16353095Y-24800571D02*
X16362619Y-24781524D01*
X16362619Y-24781524D02*
X16372143Y-24752952D01*
X16372143Y-24752952D02*
X16381667Y-24705333D01*
X16381667Y-24705333D02*
X16381667Y-24667238D01*
X16381667Y-24667238D02*
X16372143Y-24619619D01*
X16372143Y-24619619D02*
X16362619Y-24591048D01*
X16362619Y-24591048D02*
X16353095Y-24572000D01*
X16353095Y-24572000D02*
X16334048Y-24543428D01*
X16334048Y-24543428D02*
X16324524Y-24533905D01*
D15*
X9368640Y-25042640D02*
X9368640Y-24915360D01*
X9241360Y-24915360D01*
X9241360Y-25042640D01*
X9368640Y-25042640D01*
D11*
X9747381Y-25052476D02*
X9633095Y-25052476D01*
X9690238Y-25052476D02*
X9690238Y-24852476D01*
X9690238Y-24852476D02*
X9671190Y-24881048D01*
X9671190Y-24881048D02*
X9652143Y-24900095D01*
X9652143Y-24900095D02*
X9633095Y-24909619D01*
X9833095Y-25033428D02*
X9842619Y-25042952D01*
X9842619Y-25042952D02*
X9833095Y-25052476D01*
X9833095Y-25052476D02*
X9823571Y-25042952D01*
X9823571Y-25042952D02*
X9833095Y-25033428D01*
X9833095Y-25033428D02*
X9833095Y-25052476D01*
X9956905Y-24938190D02*
X9937857Y-24928667D01*
X9937857Y-24928667D02*
X9928333Y-24919143D01*
X9928333Y-24919143D02*
X9918810Y-24900095D01*
X9918810Y-24900095D02*
X9918810Y-24890571D01*
X9918810Y-24890571D02*
X9928333Y-24871524D01*
X9928333Y-24871524D02*
X9937857Y-24862000D01*
X9937857Y-24862000D02*
X9956905Y-24852476D01*
X9956905Y-24852476D02*
X9995000Y-24852476D01*
X9995000Y-24852476D02*
X10014048Y-24862000D01*
X10014048Y-24862000D02*
X10023571Y-24871524D01*
X10023571Y-24871524D02*
X10033095Y-24890571D01*
X10033095Y-24890571D02*
X10033095Y-24900095D01*
X10033095Y-24900095D02*
X10023571Y-24919143D01*
X10023571Y-24919143D02*
X10014048Y-24928667D01*
X10014048Y-24928667D02*
X9995000Y-24938190D01*
X9995000Y-24938190D02*
X9956905Y-24938190D01*
X9956905Y-24938190D02*
X9937857Y-24947714D01*
X9937857Y-24947714D02*
X9928333Y-24957238D01*
X9928333Y-24957238D02*
X9918810Y-24976286D01*
X9918810Y-24976286D02*
X9918810Y-25014381D01*
X9918810Y-25014381D02*
X9928333Y-25033428D01*
X9928333Y-25033428D02*
X9937857Y-25042952D01*
X9937857Y-25042952D02*
X9956905Y-25052476D01*
X9956905Y-25052476D02*
X9995000Y-25052476D01*
X9995000Y-25052476D02*
X10014048Y-25042952D01*
X10014048Y-25042952D02*
X10023571Y-25033428D01*
X10023571Y-25033428D02*
X10033095Y-25014381D01*
X10033095Y-25014381D02*
X10033095Y-24976286D01*
X10033095Y-24976286D02*
X10023571Y-24957238D01*
X10023571Y-24957238D02*
X10014048Y-24947714D01*
X10014048Y-24947714D02*
X9995000Y-24938190D01*
X10156905Y-24852476D02*
X10175952Y-24852476D01*
X10175952Y-24852476D02*
X10195000Y-24862000D01*
X10195000Y-24862000D02*
X10204524Y-24871524D01*
X10204524Y-24871524D02*
X10214048Y-24890571D01*
X10214048Y-24890571D02*
X10223571Y-24928667D01*
X10223571Y-24928667D02*
X10223571Y-24976286D01*
X10223571Y-24976286D02*
X10214048Y-25014381D01*
X10214048Y-25014381D02*
X10204524Y-25033428D01*
X10204524Y-25033428D02*
X10195000Y-25042952D01*
X10195000Y-25042952D02*
X10175952Y-25052476D01*
X10175952Y-25052476D02*
X10156905Y-25052476D01*
X10156905Y-25052476D02*
X10137857Y-25042952D01*
X10137857Y-25042952D02*
X10128333Y-25033428D01*
X10128333Y-25033428D02*
X10118810Y-25014381D01*
X10118810Y-25014381D02*
X10109286Y-24976286D01*
X10109286Y-24976286D02*
X10109286Y-24928667D01*
X10109286Y-24928667D02*
X10118810Y-24890571D01*
X10118810Y-24890571D02*
X10128333Y-24871524D01*
X10128333Y-24871524D02*
X10137857Y-24862000D01*
X10137857Y-24862000D02*
X10156905Y-24852476D01*
X10347381Y-24852476D02*
X10366429Y-24852476D01*
X10366429Y-24852476D02*
X10385476Y-24862000D01*
X10385476Y-24862000D02*
X10395000Y-24871524D01*
X10395000Y-24871524D02*
X10404524Y-24890571D01*
X10404524Y-24890571D02*
X10414048Y-24928667D01*
X10414048Y-24928667D02*
X10414048Y-24976286D01*
X10414048Y-24976286D02*
X10404524Y-25014381D01*
X10404524Y-25014381D02*
X10395000Y-25033428D01*
X10395000Y-25033428D02*
X10385476Y-25042952D01*
X10385476Y-25042952D02*
X10366429Y-25052476D01*
X10366429Y-25052476D02*
X10347381Y-25052476D01*
X10347381Y-25052476D02*
X10328333Y-25042952D01*
X10328333Y-25042952D02*
X10318810Y-25033428D01*
X10318810Y-25033428D02*
X10309286Y-25014381D01*
X10309286Y-25014381D02*
X10299762Y-24976286D01*
X10299762Y-24976286D02*
X10299762Y-24928667D01*
X10299762Y-24928667D02*
X10309286Y-24890571D01*
X10309286Y-24890571D02*
X10318810Y-24871524D01*
X10318810Y-24871524D02*
X10328333Y-24862000D01*
X10328333Y-24862000D02*
X10347381Y-24852476D01*
X10499762Y-25052476D02*
X10499762Y-24919143D01*
X10499762Y-24938190D02*
X10509286Y-24928667D01*
X10509286Y-24928667D02*
X10528333Y-24919143D01*
X10528333Y-24919143D02*
X10556905Y-24919143D01*
X10556905Y-24919143D02*
X10575952Y-24928667D01*
X10575952Y-24928667D02*
X10585476Y-24947714D01*
X10585476Y-24947714D02*
X10585476Y-25052476D01*
X10585476Y-24947714D02*
X10595000Y-24928667D01*
X10595000Y-24928667D02*
X10614048Y-24919143D01*
X10614048Y-24919143D02*
X10642619Y-24919143D01*
X10642619Y-24919143D02*
X10661667Y-24928667D01*
X10661667Y-24928667D02*
X10671191Y-24947714D01*
X10671191Y-24947714D02*
X10671191Y-25052476D01*
X10766429Y-25052476D02*
X10766429Y-24919143D01*
X10766429Y-24938190D02*
X10775952Y-24928667D01*
X10775952Y-24928667D02*
X10795000Y-24919143D01*
X10795000Y-24919143D02*
X10823572Y-24919143D01*
X10823572Y-24919143D02*
X10842619Y-24928667D01*
X10842619Y-24928667D02*
X10852143Y-24947714D01*
X10852143Y-24947714D02*
X10852143Y-25052476D01*
X10852143Y-24947714D02*
X10861667Y-24928667D01*
X10861667Y-24928667D02*
X10880714Y-24919143D01*
X10880714Y-24919143D02*
X10909286Y-24919143D01*
X10909286Y-24919143D02*
X10928333Y-24928667D01*
X10928333Y-24928667D02*
X10937857Y-24947714D01*
X10937857Y-24947714D02*
X10937857Y-25052476D01*
X11295952Y-24842952D02*
X11124524Y-25100095D01*
X11520714Y-24852476D02*
X11539762Y-24852476D01*
X11539762Y-24852476D02*
X11558810Y-24862000D01*
X11558810Y-24862000D02*
X11568333Y-24871524D01*
X11568333Y-24871524D02*
X11577857Y-24890571D01*
X11577857Y-24890571D02*
X11587381Y-24928667D01*
X11587381Y-24928667D02*
X11587381Y-24976286D01*
X11587381Y-24976286D02*
X11577857Y-25014381D01*
X11577857Y-25014381D02*
X11568333Y-25033428D01*
X11568333Y-25033428D02*
X11558810Y-25042952D01*
X11558810Y-25042952D02*
X11539762Y-25052476D01*
X11539762Y-25052476D02*
X11520714Y-25052476D01*
X11520714Y-25052476D02*
X11501667Y-25042952D01*
X11501667Y-25042952D02*
X11492143Y-25033428D01*
X11492143Y-25033428D02*
X11482619Y-25014381D01*
X11482619Y-25014381D02*
X11473095Y-24976286D01*
X11473095Y-24976286D02*
X11473095Y-24928667D01*
X11473095Y-24928667D02*
X11482619Y-24890571D01*
X11482619Y-24890571D02*
X11492143Y-24871524D01*
X11492143Y-24871524D02*
X11501667Y-24862000D01*
X11501667Y-24862000D02*
X11520714Y-24852476D01*
X11673095Y-25033428D02*
X11682619Y-25042952D01*
X11682619Y-25042952D02*
X11673095Y-25052476D01*
X11673095Y-25052476D02*
X11663571Y-25042952D01*
X11663571Y-25042952D02*
X11673095Y-25033428D01*
X11673095Y-25033428D02*
X11673095Y-25052476D01*
X11806429Y-24852476D02*
X11825476Y-24852476D01*
X11825476Y-24852476D02*
X11844524Y-24862000D01*
X11844524Y-24862000D02*
X11854048Y-24871524D01*
X11854048Y-24871524D02*
X11863571Y-24890571D01*
X11863571Y-24890571D02*
X11873095Y-24928667D01*
X11873095Y-24928667D02*
X11873095Y-24976286D01*
X11873095Y-24976286D02*
X11863571Y-25014381D01*
X11863571Y-25014381D02*
X11854048Y-25033428D01*
X11854048Y-25033428D02*
X11844524Y-25042952D01*
X11844524Y-25042952D02*
X11825476Y-25052476D01*
X11825476Y-25052476D02*
X11806429Y-25052476D01*
X11806429Y-25052476D02*
X11787381Y-25042952D01*
X11787381Y-25042952D02*
X11777857Y-25033428D01*
X11777857Y-25033428D02*
X11768333Y-25014381D01*
X11768333Y-25014381D02*
X11758810Y-24976286D01*
X11758810Y-24976286D02*
X11758810Y-24928667D01*
X11758810Y-24928667D02*
X11768333Y-24890571D01*
X11768333Y-24890571D02*
X11777857Y-24871524D01*
X11777857Y-24871524D02*
X11787381Y-24862000D01*
X11787381Y-24862000D02*
X11806429Y-24852476D01*
X11939762Y-24852476D02*
X12073095Y-24852476D01*
X12073095Y-24852476D02*
X11987381Y-25052476D01*
X12187381Y-24852476D02*
X12206429Y-24852476D01*
X12206429Y-24852476D02*
X12225476Y-24862000D01*
X12225476Y-24862000D02*
X12235000Y-24871524D01*
X12235000Y-24871524D02*
X12244524Y-24890571D01*
X12244524Y-24890571D02*
X12254048Y-24928667D01*
X12254048Y-24928667D02*
X12254048Y-24976286D01*
X12254048Y-24976286D02*
X12244524Y-25014381D01*
X12244524Y-25014381D02*
X12235000Y-25033428D01*
X12235000Y-25033428D02*
X12225476Y-25042952D01*
X12225476Y-25042952D02*
X12206429Y-25052476D01*
X12206429Y-25052476D02*
X12187381Y-25052476D01*
X12187381Y-25052476D02*
X12168333Y-25042952D01*
X12168333Y-25042952D02*
X12158810Y-25033428D01*
X12158810Y-25033428D02*
X12149286Y-25014381D01*
X12149286Y-25014381D02*
X12139762Y-24976286D01*
X12139762Y-24976286D02*
X12139762Y-24928667D01*
X12139762Y-24928667D02*
X12149286Y-24890571D01*
X12149286Y-24890571D02*
X12158810Y-24871524D01*
X12158810Y-24871524D02*
X12168333Y-24862000D01*
X12168333Y-24862000D02*
X12187381Y-24852476D01*
X12349286Y-25052476D02*
X12387381Y-25052476D01*
X12387381Y-25052476D02*
X12406429Y-25042952D01*
X12406429Y-25042952D02*
X12415952Y-25033428D01*
X12415952Y-25033428D02*
X12435000Y-25004857D01*
X12435000Y-25004857D02*
X12444524Y-24966762D01*
X12444524Y-24966762D02*
X12444524Y-24890571D01*
X12444524Y-24890571D02*
X12435000Y-24871524D01*
X12435000Y-24871524D02*
X12425476Y-24862000D01*
X12425476Y-24862000D02*
X12406429Y-24852476D01*
X12406429Y-24852476D02*
X12368333Y-24852476D01*
X12368333Y-24852476D02*
X12349286Y-24862000D01*
X12349286Y-24862000D02*
X12339762Y-24871524D01*
X12339762Y-24871524D02*
X12330238Y-24890571D01*
X12330238Y-24890571D02*
X12330238Y-24938190D01*
X12330238Y-24938190D02*
X12339762Y-24957238D01*
X12339762Y-24957238D02*
X12349286Y-24966762D01*
X12349286Y-24966762D02*
X12368333Y-24976286D01*
X12368333Y-24976286D02*
X12406429Y-24976286D01*
X12406429Y-24976286D02*
X12425476Y-24966762D01*
X12425476Y-24966762D02*
X12435000Y-24957238D01*
X12435000Y-24957238D02*
X12444524Y-24938190D01*
X12520714Y-24852476D02*
X12520714Y-24890571D01*
X12596905Y-24852476D02*
X12596905Y-24890571D01*
X12859762Y-25128667D02*
X12850238Y-25119143D01*
X12850238Y-25119143D02*
X12831191Y-25090571D01*
X12831191Y-25090571D02*
X12821667Y-25071524D01*
X12821667Y-25071524D02*
X12812143Y-25042952D01*
X12812143Y-25042952D02*
X12802619Y-24995333D01*
X12802619Y-24995333D02*
X12802619Y-24957238D01*
X12802619Y-24957238D02*
X12812143Y-24909619D01*
X12812143Y-24909619D02*
X12821667Y-24881048D01*
X12821667Y-24881048D02*
X12831191Y-24862000D01*
X12831191Y-24862000D02*
X12850238Y-24833428D01*
X12850238Y-24833428D02*
X12859762Y-24823905D01*
X13021667Y-24919143D02*
X13021667Y-25052476D01*
X12974048Y-24842952D02*
X12926429Y-24985809D01*
X12926429Y-24985809D02*
X13050238Y-24985809D01*
X13246429Y-25052476D02*
X13246429Y-24852476D01*
X13332143Y-25052476D02*
X13332143Y-24947714D01*
X13332143Y-24947714D02*
X13322619Y-24928667D01*
X13322619Y-24928667D02*
X13303572Y-24919143D01*
X13303572Y-24919143D02*
X13275000Y-24919143D01*
X13275000Y-24919143D02*
X13255952Y-24928667D01*
X13255952Y-24928667D02*
X13246429Y-24938190D01*
X13455952Y-25052476D02*
X13436905Y-25042952D01*
X13436905Y-25042952D02*
X13427381Y-25033428D01*
X13427381Y-25033428D02*
X13417857Y-25014381D01*
X13417857Y-25014381D02*
X13417857Y-24957238D01*
X13417857Y-24957238D02*
X13427381Y-24938190D01*
X13427381Y-24938190D02*
X13436905Y-24928667D01*
X13436905Y-24928667D02*
X13455952Y-24919143D01*
X13455952Y-24919143D02*
X13484524Y-24919143D01*
X13484524Y-24919143D02*
X13503572Y-24928667D01*
X13503572Y-24928667D02*
X13513095Y-24938190D01*
X13513095Y-24938190D02*
X13522619Y-24957238D01*
X13522619Y-24957238D02*
X13522619Y-25014381D01*
X13522619Y-25014381D02*
X13513095Y-25033428D01*
X13513095Y-25033428D02*
X13503572Y-25042952D01*
X13503572Y-25042952D02*
X13484524Y-25052476D01*
X13484524Y-25052476D02*
X13455952Y-25052476D01*
X13636905Y-25052476D02*
X13617857Y-25042952D01*
X13617857Y-25042952D02*
X13608333Y-25023905D01*
X13608333Y-25023905D02*
X13608333Y-24852476D01*
X13789286Y-25042952D02*
X13770238Y-25052476D01*
X13770238Y-25052476D02*
X13732143Y-25052476D01*
X13732143Y-25052476D02*
X13713095Y-25042952D01*
X13713095Y-25042952D02*
X13703572Y-25023905D01*
X13703572Y-25023905D02*
X13703572Y-24947714D01*
X13703572Y-24947714D02*
X13713095Y-24928667D01*
X13713095Y-24928667D02*
X13732143Y-24919143D01*
X13732143Y-24919143D02*
X13770238Y-24919143D01*
X13770238Y-24919143D02*
X13789286Y-24928667D01*
X13789286Y-24928667D02*
X13798810Y-24947714D01*
X13798810Y-24947714D02*
X13798810Y-24966762D01*
X13798810Y-24966762D02*
X13703572Y-24985809D01*
X13875000Y-25042952D02*
X13894048Y-25052476D01*
X13894048Y-25052476D02*
X13932143Y-25052476D01*
X13932143Y-25052476D02*
X13951191Y-25042952D01*
X13951191Y-25042952D02*
X13960714Y-25023905D01*
X13960714Y-25023905D02*
X13960714Y-25014381D01*
X13960714Y-25014381D02*
X13951191Y-24995333D01*
X13951191Y-24995333D02*
X13932143Y-24985809D01*
X13932143Y-24985809D02*
X13903572Y-24985809D01*
X13903572Y-24985809D02*
X13884524Y-24976286D01*
X13884524Y-24976286D02*
X13875000Y-24957238D01*
X13875000Y-24957238D02*
X13875000Y-24947714D01*
X13875000Y-24947714D02*
X13884524Y-24928667D01*
X13884524Y-24928667D02*
X13903572Y-24919143D01*
X13903572Y-24919143D02*
X13932143Y-24919143D01*
X13932143Y-24919143D02*
X13951191Y-24928667D01*
X14027381Y-25128667D02*
X14036905Y-25119143D01*
X14036905Y-25119143D02*
X14055953Y-25090571D01*
X14055953Y-25090571D02*
X14065476Y-25071524D01*
X14065476Y-25071524D02*
X14075000Y-25042952D01*
X14075000Y-25042952D02*
X14084524Y-24995333D01*
X14084524Y-24995333D02*
X14084524Y-24957238D01*
X14084524Y-24957238D02*
X14075000Y-24909619D01*
X14075000Y-24909619D02*
X14065476Y-24881048D01*
X14065476Y-24881048D02*
X14055953Y-24862000D01*
X14055953Y-24862000D02*
X14036905Y-24833428D01*
X14036905Y-24833428D02*
X14027381Y-24823905D01*
X14356905Y-25128667D02*
X14347381Y-25119143D01*
X14347381Y-25119143D02*
X14328333Y-25090571D01*
X14328333Y-25090571D02*
X14318810Y-25071524D01*
X14318810Y-25071524D02*
X14309286Y-25042952D01*
X14309286Y-25042952D02*
X14299762Y-24995333D01*
X14299762Y-24995333D02*
X14299762Y-24957238D01*
X14299762Y-24957238D02*
X14309286Y-24909619D01*
X14309286Y-24909619D02*
X14318810Y-24881048D01*
X14318810Y-24881048D02*
X14328333Y-24862000D01*
X14328333Y-24862000D02*
X14347381Y-24833428D01*
X14347381Y-24833428D02*
X14356905Y-24823905D01*
X14433095Y-24919143D02*
X14433095Y-25052476D01*
X14433095Y-24938190D02*
X14442619Y-24928667D01*
X14442619Y-24928667D02*
X14461667Y-24919143D01*
X14461667Y-24919143D02*
X14490238Y-24919143D01*
X14490238Y-24919143D02*
X14509286Y-24928667D01*
X14509286Y-24928667D02*
X14518810Y-24947714D01*
X14518810Y-24947714D02*
X14518810Y-25052476D01*
X14642619Y-25052476D02*
X14623572Y-25042952D01*
X14623572Y-25042952D02*
X14614048Y-25033428D01*
X14614048Y-25033428D02*
X14604524Y-25014381D01*
X14604524Y-25014381D02*
X14604524Y-24957238D01*
X14604524Y-24957238D02*
X14614048Y-24938190D01*
X14614048Y-24938190D02*
X14623572Y-24928667D01*
X14623572Y-24928667D02*
X14642619Y-24919143D01*
X14642619Y-24919143D02*
X14671191Y-24919143D01*
X14671191Y-24919143D02*
X14690238Y-24928667D01*
X14690238Y-24928667D02*
X14699762Y-24938190D01*
X14699762Y-24938190D02*
X14709286Y-24957238D01*
X14709286Y-24957238D02*
X14709286Y-25014381D01*
X14709286Y-25014381D02*
X14699762Y-25033428D01*
X14699762Y-25033428D02*
X14690238Y-25042952D01*
X14690238Y-25042952D02*
X14671191Y-25052476D01*
X14671191Y-25052476D02*
X14642619Y-25052476D01*
X14766429Y-24919143D02*
X14842619Y-24919143D01*
X14795000Y-24852476D02*
X14795000Y-25023905D01*
X14795000Y-25023905D02*
X14804524Y-25042952D01*
X14804524Y-25042952D02*
X14823572Y-25052476D01*
X14823572Y-25052476D02*
X14842619Y-25052476D01*
X15029286Y-24919143D02*
X15029286Y-25119143D01*
X15029286Y-24928667D02*
X15048333Y-24919143D01*
X15048333Y-24919143D02*
X15086429Y-24919143D01*
X15086429Y-24919143D02*
X15105476Y-24928667D01*
X15105476Y-24928667D02*
X15115000Y-24938190D01*
X15115000Y-24938190D02*
X15124524Y-24957238D01*
X15124524Y-24957238D02*
X15124524Y-25014381D01*
X15124524Y-25014381D02*
X15115000Y-25033428D01*
X15115000Y-25033428D02*
X15105476Y-25042952D01*
X15105476Y-25042952D02*
X15086429Y-25052476D01*
X15086429Y-25052476D02*
X15048333Y-25052476D01*
X15048333Y-25052476D02*
X15029286Y-25042952D01*
X15238810Y-25052476D02*
X15219762Y-25042952D01*
X15219762Y-25042952D02*
X15210238Y-25023905D01*
X15210238Y-25023905D02*
X15210238Y-24852476D01*
X15400714Y-25052476D02*
X15400714Y-24947714D01*
X15400714Y-24947714D02*
X15391191Y-24928667D01*
X15391191Y-24928667D02*
X15372143Y-24919143D01*
X15372143Y-24919143D02*
X15334048Y-24919143D01*
X15334048Y-24919143D02*
X15315000Y-24928667D01*
X15400714Y-25042952D02*
X15381667Y-25052476D01*
X15381667Y-25052476D02*
X15334048Y-25052476D01*
X15334048Y-25052476D02*
X15315000Y-25042952D01*
X15315000Y-25042952D02*
X15305476Y-25023905D01*
X15305476Y-25023905D02*
X15305476Y-25004857D01*
X15305476Y-25004857D02*
X15315000Y-24985809D01*
X15315000Y-24985809D02*
X15334048Y-24976286D01*
X15334048Y-24976286D02*
X15381667Y-24976286D01*
X15381667Y-24976286D02*
X15400714Y-24966762D01*
X15467381Y-24919143D02*
X15543572Y-24919143D01*
X15495953Y-24852476D02*
X15495953Y-25023905D01*
X15495953Y-25023905D02*
X15505476Y-25042952D01*
X15505476Y-25042952D02*
X15524524Y-25052476D01*
X15524524Y-25052476D02*
X15543572Y-25052476D01*
X15686429Y-25042952D02*
X15667381Y-25052476D01*
X15667381Y-25052476D02*
X15629286Y-25052476D01*
X15629286Y-25052476D02*
X15610238Y-25042952D01*
X15610238Y-25042952D02*
X15600714Y-25023905D01*
X15600714Y-25023905D02*
X15600714Y-24947714D01*
X15600714Y-24947714D02*
X15610238Y-24928667D01*
X15610238Y-24928667D02*
X15629286Y-24919143D01*
X15629286Y-24919143D02*
X15667381Y-24919143D01*
X15667381Y-24919143D02*
X15686429Y-24928667D01*
X15686429Y-24928667D02*
X15695953Y-24947714D01*
X15695953Y-24947714D02*
X15695953Y-24966762D01*
X15695953Y-24966762D02*
X15600714Y-24985809D01*
X15867381Y-25052476D02*
X15867381Y-24852476D01*
X15867381Y-25042952D02*
X15848334Y-25052476D01*
X15848334Y-25052476D02*
X15810238Y-25052476D01*
X15810238Y-25052476D02*
X15791191Y-25042952D01*
X15791191Y-25042952D02*
X15781667Y-25033428D01*
X15781667Y-25033428D02*
X15772143Y-25014381D01*
X15772143Y-25014381D02*
X15772143Y-24957238D01*
X15772143Y-24957238D02*
X15781667Y-24938190D01*
X15781667Y-24938190D02*
X15791191Y-24928667D01*
X15791191Y-24928667D02*
X15810238Y-24919143D01*
X15810238Y-24919143D02*
X15848334Y-24919143D01*
X15848334Y-24919143D02*
X15867381Y-24928667D01*
X15943572Y-25128667D02*
X15953095Y-25119143D01*
X15953095Y-25119143D02*
X15972143Y-25090571D01*
X15972143Y-25090571D02*
X15981667Y-25071524D01*
X15981667Y-25071524D02*
X15991191Y-25042952D01*
X15991191Y-25042952D02*
X16000714Y-24995333D01*
X16000714Y-24995333D02*
X16000714Y-24957238D01*
X16000714Y-24957238D02*
X15991191Y-24909619D01*
X15991191Y-24909619D02*
X15981667Y-24881048D01*
X15981667Y-24881048D02*
X15972143Y-24862000D01*
X15972143Y-24862000D02*
X15953095Y-24833428D01*
X15953095Y-24833428D02*
X15943572Y-24823905D01*
X9295000Y-25379000D02*
X9395000Y-25279000D01*
X9295000Y-25179000D01*
X9195000Y-25279000D01*
X9295000Y-25379000D01*
X9728333Y-25219143D02*
X9728333Y-25352476D01*
X9680714Y-25142952D02*
X9633095Y-25285809D01*
X9633095Y-25285809D02*
X9756905Y-25285809D01*
X9833095Y-25333428D02*
X9842619Y-25342952D01*
X9842619Y-25342952D02*
X9833095Y-25352476D01*
X9833095Y-25352476D02*
X9823571Y-25342952D01*
X9823571Y-25342952D02*
X9833095Y-25333428D01*
X9833095Y-25333428D02*
X9833095Y-25352476D01*
X9966429Y-25152476D02*
X9985476Y-25152476D01*
X9985476Y-25152476D02*
X10004524Y-25162000D01*
X10004524Y-25162000D02*
X10014048Y-25171524D01*
X10014048Y-25171524D02*
X10023571Y-25190571D01*
X10023571Y-25190571D02*
X10033095Y-25228667D01*
X10033095Y-25228667D02*
X10033095Y-25276286D01*
X10033095Y-25276286D02*
X10023571Y-25314381D01*
X10023571Y-25314381D02*
X10014048Y-25333428D01*
X10014048Y-25333428D02*
X10004524Y-25342952D01*
X10004524Y-25342952D02*
X9985476Y-25352476D01*
X9985476Y-25352476D02*
X9966429Y-25352476D01*
X9966429Y-25352476D02*
X9947381Y-25342952D01*
X9947381Y-25342952D02*
X9937857Y-25333428D01*
X9937857Y-25333428D02*
X9928333Y-25314381D01*
X9928333Y-25314381D02*
X9918810Y-25276286D01*
X9918810Y-25276286D02*
X9918810Y-25228667D01*
X9918810Y-25228667D02*
X9928333Y-25190571D01*
X9928333Y-25190571D02*
X9937857Y-25171524D01*
X9937857Y-25171524D02*
X9947381Y-25162000D01*
X9947381Y-25162000D02*
X9966429Y-25152476D01*
X10156905Y-25152476D02*
X10175952Y-25152476D01*
X10175952Y-25152476D02*
X10195000Y-25162000D01*
X10195000Y-25162000D02*
X10204524Y-25171524D01*
X10204524Y-25171524D02*
X10214048Y-25190571D01*
X10214048Y-25190571D02*
X10223571Y-25228667D01*
X10223571Y-25228667D02*
X10223571Y-25276286D01*
X10223571Y-25276286D02*
X10214048Y-25314381D01*
X10214048Y-25314381D02*
X10204524Y-25333428D01*
X10204524Y-25333428D02*
X10195000Y-25342952D01*
X10195000Y-25342952D02*
X10175952Y-25352476D01*
X10175952Y-25352476D02*
X10156905Y-25352476D01*
X10156905Y-25352476D02*
X10137857Y-25342952D01*
X10137857Y-25342952D02*
X10128333Y-25333428D01*
X10128333Y-25333428D02*
X10118810Y-25314381D01*
X10118810Y-25314381D02*
X10109286Y-25276286D01*
X10109286Y-25276286D02*
X10109286Y-25228667D01*
X10109286Y-25228667D02*
X10118810Y-25190571D01*
X10118810Y-25190571D02*
X10128333Y-25171524D01*
X10128333Y-25171524D02*
X10137857Y-25162000D01*
X10137857Y-25162000D02*
X10156905Y-25152476D01*
X10347381Y-25152476D02*
X10366429Y-25152476D01*
X10366429Y-25152476D02*
X10385476Y-25162000D01*
X10385476Y-25162000D02*
X10395000Y-25171524D01*
X10395000Y-25171524D02*
X10404524Y-25190571D01*
X10404524Y-25190571D02*
X10414048Y-25228667D01*
X10414048Y-25228667D02*
X10414048Y-25276286D01*
X10414048Y-25276286D02*
X10404524Y-25314381D01*
X10404524Y-25314381D02*
X10395000Y-25333428D01*
X10395000Y-25333428D02*
X10385476Y-25342952D01*
X10385476Y-25342952D02*
X10366429Y-25352476D01*
X10366429Y-25352476D02*
X10347381Y-25352476D01*
X10347381Y-25352476D02*
X10328333Y-25342952D01*
X10328333Y-25342952D02*
X10318810Y-25333428D01*
X10318810Y-25333428D02*
X10309286Y-25314381D01*
X10309286Y-25314381D02*
X10299762Y-25276286D01*
X10299762Y-25276286D02*
X10299762Y-25228667D01*
X10299762Y-25228667D02*
X10309286Y-25190571D01*
X10309286Y-25190571D02*
X10318810Y-25171524D01*
X10318810Y-25171524D02*
X10328333Y-25162000D01*
X10328333Y-25162000D02*
X10347381Y-25152476D01*
X10499762Y-25352476D02*
X10499762Y-25219143D01*
X10499762Y-25238190D02*
X10509286Y-25228667D01*
X10509286Y-25228667D02*
X10528333Y-25219143D01*
X10528333Y-25219143D02*
X10556905Y-25219143D01*
X10556905Y-25219143D02*
X10575952Y-25228667D01*
X10575952Y-25228667D02*
X10585476Y-25247714D01*
X10585476Y-25247714D02*
X10585476Y-25352476D01*
X10585476Y-25247714D02*
X10595000Y-25228667D01*
X10595000Y-25228667D02*
X10614048Y-25219143D01*
X10614048Y-25219143D02*
X10642619Y-25219143D01*
X10642619Y-25219143D02*
X10661667Y-25228667D01*
X10661667Y-25228667D02*
X10671191Y-25247714D01*
X10671191Y-25247714D02*
X10671191Y-25352476D01*
X10766429Y-25352476D02*
X10766429Y-25219143D01*
X10766429Y-25238190D02*
X10775952Y-25228667D01*
X10775952Y-25228667D02*
X10795000Y-25219143D01*
X10795000Y-25219143D02*
X10823572Y-25219143D01*
X10823572Y-25219143D02*
X10842619Y-25228667D01*
X10842619Y-25228667D02*
X10852143Y-25247714D01*
X10852143Y-25247714D02*
X10852143Y-25352476D01*
X10852143Y-25247714D02*
X10861667Y-25228667D01*
X10861667Y-25228667D02*
X10880714Y-25219143D01*
X10880714Y-25219143D02*
X10909286Y-25219143D01*
X10909286Y-25219143D02*
X10928333Y-25228667D01*
X10928333Y-25228667D02*
X10937857Y-25247714D01*
X10937857Y-25247714D02*
X10937857Y-25352476D01*
X11295952Y-25142952D02*
X11124524Y-25400095D01*
X11520714Y-25152476D02*
X11539762Y-25152476D01*
X11539762Y-25152476D02*
X11558810Y-25162000D01*
X11558810Y-25162000D02*
X11568333Y-25171524D01*
X11568333Y-25171524D02*
X11577857Y-25190571D01*
X11577857Y-25190571D02*
X11587381Y-25228667D01*
X11587381Y-25228667D02*
X11587381Y-25276286D01*
X11587381Y-25276286D02*
X11577857Y-25314381D01*
X11577857Y-25314381D02*
X11568333Y-25333428D01*
X11568333Y-25333428D02*
X11558810Y-25342952D01*
X11558810Y-25342952D02*
X11539762Y-25352476D01*
X11539762Y-25352476D02*
X11520714Y-25352476D01*
X11520714Y-25352476D02*
X11501667Y-25342952D01*
X11501667Y-25342952D02*
X11492143Y-25333428D01*
X11492143Y-25333428D02*
X11482619Y-25314381D01*
X11482619Y-25314381D02*
X11473095Y-25276286D01*
X11473095Y-25276286D02*
X11473095Y-25228667D01*
X11473095Y-25228667D02*
X11482619Y-25190571D01*
X11482619Y-25190571D02*
X11492143Y-25171524D01*
X11492143Y-25171524D02*
X11501667Y-25162000D01*
X11501667Y-25162000D02*
X11520714Y-25152476D01*
X11673095Y-25333428D02*
X11682619Y-25342952D01*
X11682619Y-25342952D02*
X11673095Y-25352476D01*
X11673095Y-25352476D02*
X11663571Y-25342952D01*
X11663571Y-25342952D02*
X11673095Y-25333428D01*
X11673095Y-25333428D02*
X11673095Y-25352476D01*
X11873095Y-25352476D02*
X11758810Y-25352476D01*
X11815952Y-25352476D02*
X11815952Y-25152476D01*
X11815952Y-25152476D02*
X11796905Y-25181048D01*
X11796905Y-25181048D02*
X11777857Y-25200095D01*
X11777857Y-25200095D02*
X11758810Y-25209619D01*
X12054048Y-25152476D02*
X11958810Y-25152476D01*
X11958810Y-25152476D02*
X11949286Y-25247714D01*
X11949286Y-25247714D02*
X11958810Y-25238190D01*
X11958810Y-25238190D02*
X11977857Y-25228667D01*
X11977857Y-25228667D02*
X12025476Y-25228667D01*
X12025476Y-25228667D02*
X12044524Y-25238190D01*
X12044524Y-25238190D02*
X12054048Y-25247714D01*
X12054048Y-25247714D02*
X12063571Y-25266762D01*
X12063571Y-25266762D02*
X12063571Y-25314381D01*
X12063571Y-25314381D02*
X12054048Y-25333428D01*
X12054048Y-25333428D02*
X12044524Y-25342952D01*
X12044524Y-25342952D02*
X12025476Y-25352476D01*
X12025476Y-25352476D02*
X11977857Y-25352476D01*
X11977857Y-25352476D02*
X11958810Y-25342952D01*
X11958810Y-25342952D02*
X11949286Y-25333428D01*
X12130238Y-25152476D02*
X12263571Y-25152476D01*
X12263571Y-25152476D02*
X12177857Y-25352476D01*
X12435000Y-25152476D02*
X12339762Y-25152476D01*
X12339762Y-25152476D02*
X12330238Y-25247714D01*
X12330238Y-25247714D02*
X12339762Y-25238190D01*
X12339762Y-25238190D02*
X12358810Y-25228667D01*
X12358810Y-25228667D02*
X12406429Y-25228667D01*
X12406429Y-25228667D02*
X12425476Y-25238190D01*
X12425476Y-25238190D02*
X12435000Y-25247714D01*
X12435000Y-25247714D02*
X12444524Y-25266762D01*
X12444524Y-25266762D02*
X12444524Y-25314381D01*
X12444524Y-25314381D02*
X12435000Y-25333428D01*
X12435000Y-25333428D02*
X12425476Y-25342952D01*
X12425476Y-25342952D02*
X12406429Y-25352476D01*
X12406429Y-25352476D02*
X12358810Y-25352476D01*
X12358810Y-25352476D02*
X12339762Y-25342952D01*
X12339762Y-25342952D02*
X12330238Y-25333428D01*
X12520714Y-25152476D02*
X12520714Y-25190571D01*
X12596905Y-25152476D02*
X12596905Y-25190571D01*
X12859762Y-25428667D02*
X12850238Y-25419143D01*
X12850238Y-25419143D02*
X12831191Y-25390571D01*
X12831191Y-25390571D02*
X12821667Y-25371524D01*
X12821667Y-25371524D02*
X12812143Y-25342952D01*
X12812143Y-25342952D02*
X12802619Y-25295333D01*
X12802619Y-25295333D02*
X12802619Y-25257238D01*
X12802619Y-25257238D02*
X12812143Y-25209619D01*
X12812143Y-25209619D02*
X12821667Y-25181048D01*
X12821667Y-25181048D02*
X12831191Y-25162000D01*
X12831191Y-25162000D02*
X12850238Y-25133428D01*
X12850238Y-25133428D02*
X12859762Y-25123905D01*
X12945476Y-25352476D02*
X12983571Y-25352476D01*
X12983571Y-25352476D02*
X13002619Y-25342952D01*
X13002619Y-25342952D02*
X13012143Y-25333428D01*
X13012143Y-25333428D02*
X13031191Y-25304857D01*
X13031191Y-25304857D02*
X13040714Y-25266762D01*
X13040714Y-25266762D02*
X13040714Y-25190571D01*
X13040714Y-25190571D02*
X13031191Y-25171524D01*
X13031191Y-25171524D02*
X13021667Y-25162000D01*
X13021667Y-25162000D02*
X13002619Y-25152476D01*
X13002619Y-25152476D02*
X12964524Y-25152476D01*
X12964524Y-25152476D02*
X12945476Y-25162000D01*
X12945476Y-25162000D02*
X12935952Y-25171524D01*
X12935952Y-25171524D02*
X12926429Y-25190571D01*
X12926429Y-25190571D02*
X12926429Y-25238190D01*
X12926429Y-25238190D02*
X12935952Y-25257238D01*
X12935952Y-25257238D02*
X12945476Y-25266762D01*
X12945476Y-25266762D02*
X12964524Y-25276286D01*
X12964524Y-25276286D02*
X13002619Y-25276286D01*
X13002619Y-25276286D02*
X13021667Y-25266762D01*
X13021667Y-25266762D02*
X13031191Y-25257238D01*
X13031191Y-25257238D02*
X13040714Y-25238190D01*
X13212143Y-25219143D02*
X13212143Y-25352476D01*
X13164524Y-25142952D02*
X13116905Y-25285809D01*
X13116905Y-25285809D02*
X13240714Y-25285809D01*
X13436905Y-25352476D02*
X13436905Y-25152476D01*
X13522619Y-25352476D02*
X13522619Y-25247714D01*
X13522619Y-25247714D02*
X13513095Y-25228667D01*
X13513095Y-25228667D02*
X13494048Y-25219143D01*
X13494048Y-25219143D02*
X13465476Y-25219143D01*
X13465476Y-25219143D02*
X13446429Y-25228667D01*
X13446429Y-25228667D02*
X13436905Y-25238190D01*
X13646429Y-25352476D02*
X13627381Y-25342952D01*
X13627381Y-25342952D02*
X13617857Y-25333428D01*
X13617857Y-25333428D02*
X13608333Y-25314381D01*
X13608333Y-25314381D02*
X13608333Y-25257238D01*
X13608333Y-25257238D02*
X13617857Y-25238190D01*
X13617857Y-25238190D02*
X13627381Y-25228667D01*
X13627381Y-25228667D02*
X13646429Y-25219143D01*
X13646429Y-25219143D02*
X13675000Y-25219143D01*
X13675000Y-25219143D02*
X13694048Y-25228667D01*
X13694048Y-25228667D02*
X13703572Y-25238190D01*
X13703572Y-25238190D02*
X13713095Y-25257238D01*
X13713095Y-25257238D02*
X13713095Y-25314381D01*
X13713095Y-25314381D02*
X13703572Y-25333428D01*
X13703572Y-25333428D02*
X13694048Y-25342952D01*
X13694048Y-25342952D02*
X13675000Y-25352476D01*
X13675000Y-25352476D02*
X13646429Y-25352476D01*
X13827381Y-25352476D02*
X13808333Y-25342952D01*
X13808333Y-25342952D02*
X13798810Y-25323905D01*
X13798810Y-25323905D02*
X13798810Y-25152476D01*
X13979762Y-25342952D02*
X13960714Y-25352476D01*
X13960714Y-25352476D02*
X13922619Y-25352476D01*
X13922619Y-25352476D02*
X13903572Y-25342952D01*
X13903572Y-25342952D02*
X13894048Y-25323905D01*
X13894048Y-25323905D02*
X13894048Y-25247714D01*
X13894048Y-25247714D02*
X13903572Y-25228667D01*
X13903572Y-25228667D02*
X13922619Y-25219143D01*
X13922619Y-25219143D02*
X13960714Y-25219143D01*
X13960714Y-25219143D02*
X13979762Y-25228667D01*
X13979762Y-25228667D02*
X13989286Y-25247714D01*
X13989286Y-25247714D02*
X13989286Y-25266762D01*
X13989286Y-25266762D02*
X13894048Y-25285809D01*
X14065476Y-25342952D02*
X14084524Y-25352476D01*
X14084524Y-25352476D02*
X14122619Y-25352476D01*
X14122619Y-25352476D02*
X14141667Y-25342952D01*
X14141667Y-25342952D02*
X14151191Y-25323905D01*
X14151191Y-25323905D02*
X14151191Y-25314381D01*
X14151191Y-25314381D02*
X14141667Y-25295333D01*
X14141667Y-25295333D02*
X14122619Y-25285809D01*
X14122619Y-25285809D02*
X14094048Y-25285809D01*
X14094048Y-25285809D02*
X14075000Y-25276286D01*
X14075000Y-25276286D02*
X14065476Y-25257238D01*
X14065476Y-25257238D02*
X14065476Y-25247714D01*
X14065476Y-25247714D02*
X14075000Y-25228667D01*
X14075000Y-25228667D02*
X14094048Y-25219143D01*
X14094048Y-25219143D02*
X14122619Y-25219143D01*
X14122619Y-25219143D02*
X14141667Y-25228667D01*
X14217857Y-25428667D02*
X14227381Y-25419143D01*
X14227381Y-25419143D02*
X14246429Y-25390571D01*
X14246429Y-25390571D02*
X14255953Y-25371524D01*
X14255953Y-25371524D02*
X14265476Y-25342952D01*
X14265476Y-25342952D02*
X14275000Y-25295333D01*
X14275000Y-25295333D02*
X14275000Y-25257238D01*
X14275000Y-25257238D02*
X14265476Y-25209619D01*
X14265476Y-25209619D02*
X14255953Y-25181048D01*
X14255953Y-25181048D02*
X14246429Y-25162000D01*
X14246429Y-25162000D02*
X14227381Y-25133428D01*
X14227381Y-25133428D02*
X14217857Y-25123905D01*
X14547381Y-25428667D02*
X14537857Y-25419143D01*
X14537857Y-25419143D02*
X14518810Y-25390571D01*
X14518810Y-25390571D02*
X14509286Y-25371524D01*
X14509286Y-25371524D02*
X14499762Y-25342952D01*
X14499762Y-25342952D02*
X14490238Y-25295333D01*
X14490238Y-25295333D02*
X14490238Y-25257238D01*
X14490238Y-25257238D02*
X14499762Y-25209619D01*
X14499762Y-25209619D02*
X14509286Y-25181048D01*
X14509286Y-25181048D02*
X14518810Y-25162000D01*
X14518810Y-25162000D02*
X14537857Y-25133428D01*
X14537857Y-25133428D02*
X14547381Y-25123905D01*
X14623572Y-25219143D02*
X14623572Y-25352476D01*
X14623572Y-25238190D02*
X14633095Y-25228667D01*
X14633095Y-25228667D02*
X14652143Y-25219143D01*
X14652143Y-25219143D02*
X14680714Y-25219143D01*
X14680714Y-25219143D02*
X14699762Y-25228667D01*
X14699762Y-25228667D02*
X14709286Y-25247714D01*
X14709286Y-25247714D02*
X14709286Y-25352476D01*
X14833095Y-25352476D02*
X14814048Y-25342952D01*
X14814048Y-25342952D02*
X14804524Y-25333428D01*
X14804524Y-25333428D02*
X14795000Y-25314381D01*
X14795000Y-25314381D02*
X14795000Y-25257238D01*
X14795000Y-25257238D02*
X14804524Y-25238190D01*
X14804524Y-25238190D02*
X14814048Y-25228667D01*
X14814048Y-25228667D02*
X14833095Y-25219143D01*
X14833095Y-25219143D02*
X14861667Y-25219143D01*
X14861667Y-25219143D02*
X14880714Y-25228667D01*
X14880714Y-25228667D02*
X14890238Y-25238190D01*
X14890238Y-25238190D02*
X14899762Y-25257238D01*
X14899762Y-25257238D02*
X14899762Y-25314381D01*
X14899762Y-25314381D02*
X14890238Y-25333428D01*
X14890238Y-25333428D02*
X14880714Y-25342952D01*
X14880714Y-25342952D02*
X14861667Y-25352476D01*
X14861667Y-25352476D02*
X14833095Y-25352476D01*
X14956905Y-25219143D02*
X15033095Y-25219143D01*
X14985476Y-25152476D02*
X14985476Y-25323905D01*
X14985476Y-25323905D02*
X14995000Y-25342952D01*
X14995000Y-25342952D02*
X15014048Y-25352476D01*
X15014048Y-25352476D02*
X15033095Y-25352476D01*
X15219762Y-25219143D02*
X15219762Y-25419143D01*
X15219762Y-25228667D02*
X15238810Y-25219143D01*
X15238810Y-25219143D02*
X15276905Y-25219143D01*
X15276905Y-25219143D02*
X15295953Y-25228667D01*
X15295953Y-25228667D02*
X15305476Y-25238190D01*
X15305476Y-25238190D02*
X15315000Y-25257238D01*
X15315000Y-25257238D02*
X15315000Y-25314381D01*
X15315000Y-25314381D02*
X15305476Y-25333428D01*
X15305476Y-25333428D02*
X15295953Y-25342952D01*
X15295953Y-25342952D02*
X15276905Y-25352476D01*
X15276905Y-25352476D02*
X15238810Y-25352476D01*
X15238810Y-25352476D02*
X15219762Y-25342952D01*
X15429286Y-25352476D02*
X15410238Y-25342952D01*
X15410238Y-25342952D02*
X15400714Y-25323905D01*
X15400714Y-25323905D02*
X15400714Y-25152476D01*
X15591191Y-25352476D02*
X15591191Y-25247714D01*
X15591191Y-25247714D02*
X15581667Y-25228667D01*
X15581667Y-25228667D02*
X15562619Y-25219143D01*
X15562619Y-25219143D02*
X15524524Y-25219143D01*
X15524524Y-25219143D02*
X15505476Y-25228667D01*
X15591191Y-25342952D02*
X15572143Y-25352476D01*
X15572143Y-25352476D02*
X15524524Y-25352476D01*
X15524524Y-25352476D02*
X15505476Y-25342952D01*
X15505476Y-25342952D02*
X15495953Y-25323905D01*
X15495953Y-25323905D02*
X15495953Y-25304857D01*
X15495953Y-25304857D02*
X15505476Y-25285809D01*
X15505476Y-25285809D02*
X15524524Y-25276286D01*
X15524524Y-25276286D02*
X15572143Y-25276286D01*
X15572143Y-25276286D02*
X15591191Y-25266762D01*
X15657857Y-25219143D02*
X15734048Y-25219143D01*
X15686429Y-25152476D02*
X15686429Y-25323905D01*
X15686429Y-25323905D02*
X15695953Y-25342952D01*
X15695953Y-25342952D02*
X15715000Y-25352476D01*
X15715000Y-25352476D02*
X15734048Y-25352476D01*
X15876905Y-25342952D02*
X15857857Y-25352476D01*
X15857857Y-25352476D02*
X15819762Y-25352476D01*
X15819762Y-25352476D02*
X15800714Y-25342952D01*
X15800714Y-25342952D02*
X15791191Y-25323905D01*
X15791191Y-25323905D02*
X15791191Y-25247714D01*
X15791191Y-25247714D02*
X15800714Y-25228667D01*
X15800714Y-25228667D02*
X15819762Y-25219143D01*
X15819762Y-25219143D02*
X15857857Y-25219143D01*
X15857857Y-25219143D02*
X15876905Y-25228667D01*
X15876905Y-25228667D02*
X15886429Y-25247714D01*
X15886429Y-25247714D02*
X15886429Y-25266762D01*
X15886429Y-25266762D02*
X15791191Y-25285809D01*
X16057857Y-25352476D02*
X16057857Y-25152476D01*
X16057857Y-25342952D02*
X16038810Y-25352476D01*
X16038810Y-25352476D02*
X16000714Y-25352476D01*
X16000714Y-25352476D02*
X15981667Y-25342952D01*
X15981667Y-25342952D02*
X15972143Y-25333428D01*
X15972143Y-25333428D02*
X15962619Y-25314381D01*
X15962619Y-25314381D02*
X15962619Y-25257238D01*
X15962619Y-25257238D02*
X15972143Y-25238190D01*
X15972143Y-25238190D02*
X15981667Y-25228667D01*
X15981667Y-25228667D02*
X16000714Y-25219143D01*
X16000714Y-25219143D02*
X16038810Y-25219143D01*
X16038810Y-25219143D02*
X16057857Y-25228667D01*
X16134048Y-25428667D02*
X16143572Y-25419143D01*
X16143572Y-25419143D02*
X16162619Y-25390571D01*
X16162619Y-25390571D02*
X16172143Y-25371524D01*
X16172143Y-25371524D02*
X16181667Y-25342952D01*
X16181667Y-25342952D02*
X16191191Y-25295333D01*
X16191191Y-25295333D02*
X16191191Y-25257238D01*
X16191191Y-25257238D02*
X16181667Y-25209619D01*
X16181667Y-25209619D02*
X16172143Y-25181048D01*
X16172143Y-25181048D02*
X16162619Y-25162000D01*
X16162619Y-25162000D02*
X16143572Y-25133428D01*
X16143572Y-25133428D02*
X16134048Y-25123905D01*
M02*
