%TF.GenerationSoftware,KiCad,Pcbnew,7.0.1-3b83917a11~172~ubuntu22.04.1*%
%TF.CreationDate,2023-03-20T17:17:28+01:00*%
%TF.ProjectId,Europe-ergo,4575726f-7065-42d6-9572-676f2e6b6963,rev?*%
%TF.SameCoordinates,Original*%
%TF.FileFunction,AssemblyDrawing,Bot*%
%FSLAX46Y46*%
G04 Gerber Fmt 4.6, Leading zero omitted, Abs format (unit mm)*
G04 Created by KiCad (PCBNEW 7.0.1-3b83917a11~172~ubuntu22.04.1) date 2023-03-20 17:17:28*
%MOMM*%
%LPD*%
G01*
G04 APERTURE LIST*
%ADD10C,0.150000*%
%ADD11C,0.120211*%
%ADD12C,0.120069*%
%ADD13C,0.127000*%
%ADD14C,0.120000*%
G04 APERTURE END LIST*
D10*
%TO.C,SW16*%
X395089809Y-49298809D02*
X394994571Y-49346428D01*
X394994571Y-49346428D02*
X394946952Y-49394047D01*
X394946952Y-49394047D02*
X394899333Y-49489285D01*
X394899333Y-49489285D02*
X394899333Y-49536904D01*
X394899333Y-49536904D02*
X394946952Y-49632142D01*
X394946952Y-49632142D02*
X394994571Y-49679761D01*
X394994571Y-49679761D02*
X395089809Y-49727380D01*
X395089809Y-49727380D02*
X395280285Y-49727380D01*
X395280285Y-49727380D02*
X395375523Y-49679761D01*
X395375523Y-49679761D02*
X395423142Y-49632142D01*
X395423142Y-49632142D02*
X395470761Y-49536904D01*
X395470761Y-49536904D02*
X395470761Y-49489285D01*
X395470761Y-49489285D02*
X395423142Y-49394047D01*
X395423142Y-49394047D02*
X395375523Y-49346428D01*
X395375523Y-49346428D02*
X395280285Y-49298809D01*
X395280285Y-49298809D02*
X395089809Y-49298809D01*
X395089809Y-49298809D02*
X394994571Y-49251190D01*
X394994571Y-49251190D02*
X394946952Y-49203571D01*
X394946952Y-49203571D02*
X394899333Y-49108333D01*
X394899333Y-49108333D02*
X394899333Y-48917857D01*
X394899333Y-48917857D02*
X394946952Y-48822619D01*
X394946952Y-48822619D02*
X394994571Y-48775000D01*
X394994571Y-48775000D02*
X395089809Y-48727380D01*
X395089809Y-48727380D02*
X395280285Y-48727380D01*
X395280285Y-48727380D02*
X395375523Y-48775000D01*
X395375523Y-48775000D02*
X395423142Y-48822619D01*
X395423142Y-48822619D02*
X395470761Y-48917857D01*
X395470761Y-48917857D02*
X395470761Y-49108333D01*
X395470761Y-49108333D02*
X395423142Y-49203571D01*
X395423142Y-49203571D02*
X395375523Y-49251190D01*
X395375523Y-49251190D02*
X395280285Y-49298809D01*
X396089809Y-49727380D02*
X396185047Y-49727380D01*
X396185047Y-49727380D02*
X396280285Y-49679761D01*
X396280285Y-49679761D02*
X396327904Y-49632142D01*
X396327904Y-49632142D02*
X396375523Y-49536904D01*
X396375523Y-49536904D02*
X396423142Y-49346428D01*
X396423142Y-49346428D02*
X396423142Y-49108333D01*
X396423142Y-49108333D02*
X396375523Y-48917857D01*
X396375523Y-48917857D02*
X396327904Y-48822619D01*
X396327904Y-48822619D02*
X396280285Y-48775000D01*
X396280285Y-48775000D02*
X396185047Y-48727380D01*
X396185047Y-48727380D02*
X396089809Y-48727380D01*
X396089809Y-48727380D02*
X395994571Y-48775000D01*
X395994571Y-48775000D02*
X395946952Y-48822619D01*
X395946952Y-48822619D02*
X395899333Y-48917857D01*
X395899333Y-48917857D02*
X395851714Y-49108333D01*
X395851714Y-49108333D02*
X395851714Y-49346428D01*
X395851714Y-49346428D02*
X395899333Y-49536904D01*
X395899333Y-49536904D02*
X395946952Y-49632142D01*
X395946952Y-49632142D02*
X395994571Y-49679761D01*
X395994571Y-49679761D02*
X396089809Y-49727380D01*
X397042190Y-49727380D02*
X397137428Y-49727380D01*
X397137428Y-49727380D02*
X397232666Y-49679761D01*
X397232666Y-49679761D02*
X397280285Y-49632142D01*
X397280285Y-49632142D02*
X397327904Y-49536904D01*
X397327904Y-49536904D02*
X397375523Y-49346428D01*
X397375523Y-49346428D02*
X397375523Y-49108333D01*
X397375523Y-49108333D02*
X397327904Y-48917857D01*
X397327904Y-48917857D02*
X397280285Y-48822619D01*
X397280285Y-48822619D02*
X397232666Y-48775000D01*
X397232666Y-48775000D02*
X397137428Y-48727380D01*
X397137428Y-48727380D02*
X397042190Y-48727380D01*
X397042190Y-48727380D02*
X396946952Y-48775000D01*
X396946952Y-48775000D02*
X396899333Y-48822619D01*
X396899333Y-48822619D02*
X396851714Y-48917857D01*
X396851714Y-48917857D02*
X396804095Y-49108333D01*
X396804095Y-49108333D02*
X396804095Y-49346428D01*
X396804095Y-49346428D02*
X396851714Y-49536904D01*
X396851714Y-49536904D02*
X396899333Y-49632142D01*
X396899333Y-49632142D02*
X396946952Y-49679761D01*
X396946952Y-49679761D02*
X397042190Y-49727380D01*
X397756476Y-48775000D02*
X397899333Y-48727380D01*
X397899333Y-48727380D02*
X398137428Y-48727380D01*
X398137428Y-48727380D02*
X398232666Y-48775000D01*
X398232666Y-48775000D02*
X398280285Y-48822619D01*
X398280285Y-48822619D02*
X398327904Y-48917857D01*
X398327904Y-48917857D02*
X398327904Y-49013095D01*
X398327904Y-49013095D02*
X398280285Y-49108333D01*
X398280285Y-49108333D02*
X398232666Y-49155952D01*
X398232666Y-49155952D02*
X398137428Y-49203571D01*
X398137428Y-49203571D02*
X397946952Y-49251190D01*
X397946952Y-49251190D02*
X397851714Y-49298809D01*
X397851714Y-49298809D02*
X397804095Y-49346428D01*
X397804095Y-49346428D02*
X397756476Y-49441666D01*
X397756476Y-49441666D02*
X397756476Y-49536904D01*
X397756476Y-49536904D02*
X397804095Y-49632142D01*
X397804095Y-49632142D02*
X397851714Y-49679761D01*
X397851714Y-49679761D02*
X397946952Y-49727380D01*
X397946952Y-49727380D02*
X398185047Y-49727380D01*
X398185047Y-49727380D02*
X398327904Y-49679761D01*
X398756476Y-48727380D02*
X398756476Y-49727380D01*
X398756476Y-49727380D02*
X399137428Y-49727380D01*
X399137428Y-49727380D02*
X399232666Y-49679761D01*
X399232666Y-49679761D02*
X399280285Y-49632142D01*
X399280285Y-49632142D02*
X399327904Y-49536904D01*
X399327904Y-49536904D02*
X399327904Y-49394047D01*
X399327904Y-49394047D02*
X399280285Y-49298809D01*
X399280285Y-49298809D02*
X399232666Y-49251190D01*
X399232666Y-49251190D02*
X399137428Y-49203571D01*
X399137428Y-49203571D02*
X398756476Y-49203571D01*
X399804095Y-48727380D02*
X399994571Y-48727380D01*
X399994571Y-48727380D02*
X400089809Y-48775000D01*
X400089809Y-48775000D02*
X400137428Y-48822619D01*
X400137428Y-48822619D02*
X400232666Y-48965476D01*
X400232666Y-48965476D02*
X400280285Y-49155952D01*
X400280285Y-49155952D02*
X400280285Y-49536904D01*
X400280285Y-49536904D02*
X400232666Y-49632142D01*
X400232666Y-49632142D02*
X400185047Y-49679761D01*
X400185047Y-49679761D02*
X400089809Y-49727380D01*
X400089809Y-49727380D02*
X399899333Y-49727380D01*
X399899333Y-49727380D02*
X399804095Y-49679761D01*
X399804095Y-49679761D02*
X399756476Y-49632142D01*
X399756476Y-49632142D02*
X399708857Y-49536904D01*
X399708857Y-49536904D02*
X399708857Y-49298809D01*
X399708857Y-49298809D02*
X399756476Y-49203571D01*
X399756476Y-49203571D02*
X399804095Y-49155952D01*
X399804095Y-49155952D02*
X399899333Y-49108333D01*
X399899333Y-49108333D02*
X400089809Y-49108333D01*
X400089809Y-49108333D02*
X400185047Y-49155952D01*
X400185047Y-49155952D02*
X400232666Y-49203571D01*
X400232666Y-49203571D02*
X400280285Y-49298809D01*
X401042190Y-49251190D02*
X401185047Y-49203571D01*
X401185047Y-49203571D02*
X401232666Y-49155952D01*
X401232666Y-49155952D02*
X401280285Y-49060714D01*
X401280285Y-49060714D02*
X401280285Y-48917857D01*
X401280285Y-48917857D02*
X401232666Y-48822619D01*
X401232666Y-48822619D02*
X401185047Y-48775000D01*
X401185047Y-48775000D02*
X401089809Y-48727380D01*
X401089809Y-48727380D02*
X400708857Y-48727380D01*
X400708857Y-48727380D02*
X400708857Y-49727380D01*
X400708857Y-49727380D02*
X401042190Y-49727380D01*
X401042190Y-49727380D02*
X401137428Y-49679761D01*
X401137428Y-49679761D02*
X401185047Y-49632142D01*
X401185047Y-49632142D02*
X401232666Y-49536904D01*
X401232666Y-49536904D02*
X401232666Y-49441666D01*
X401232666Y-49441666D02*
X401185047Y-49346428D01*
X401185047Y-49346428D02*
X401137428Y-49298809D01*
X401137428Y-49298809D02*
X401042190Y-49251190D01*
X401042190Y-49251190D02*
X400708857Y-49251190D01*
X402137428Y-49727380D02*
X401946952Y-49727380D01*
X401946952Y-49727380D02*
X401851714Y-49679761D01*
X401851714Y-49679761D02*
X401804095Y-49632142D01*
X401804095Y-49632142D02*
X401708857Y-49489285D01*
X401708857Y-49489285D02*
X401661238Y-49298809D01*
X401661238Y-49298809D02*
X401661238Y-48917857D01*
X401661238Y-48917857D02*
X401708857Y-48822619D01*
X401708857Y-48822619D02*
X401756476Y-48775000D01*
X401756476Y-48775000D02*
X401851714Y-48727380D01*
X401851714Y-48727380D02*
X402042190Y-48727380D01*
X402042190Y-48727380D02*
X402137428Y-48775000D01*
X402137428Y-48775000D02*
X402185047Y-48822619D01*
X402185047Y-48822619D02*
X402232666Y-48917857D01*
X402232666Y-48917857D02*
X402232666Y-49155952D01*
X402232666Y-49155952D02*
X402185047Y-49251190D01*
X402185047Y-49251190D02*
X402137428Y-49298809D01*
X402137428Y-49298809D02*
X402042190Y-49346428D01*
X402042190Y-49346428D02*
X401851714Y-49346428D01*
X401851714Y-49346428D02*
X401756476Y-49298809D01*
X401756476Y-49298809D02*
X401708857Y-49251190D01*
X401708857Y-49251190D02*
X401661238Y-49155952D01*
X402661238Y-48727380D02*
X402661238Y-49727380D01*
X402661238Y-49727380D02*
X402994571Y-49013095D01*
X402994571Y-49013095D02*
X403327904Y-49727380D01*
X403327904Y-49727380D02*
X403327904Y-48727380D01*
X403756476Y-49632142D02*
X403804095Y-49679761D01*
X403804095Y-49679761D02*
X403899333Y-49727380D01*
X403899333Y-49727380D02*
X404137428Y-49727380D01*
X404137428Y-49727380D02*
X404232666Y-49679761D01*
X404232666Y-49679761D02*
X404280285Y-49632142D01*
X404280285Y-49632142D02*
X404327904Y-49536904D01*
X404327904Y-49536904D02*
X404327904Y-49441666D01*
X404327904Y-49441666D02*
X404280285Y-49298809D01*
X404280285Y-49298809D02*
X403708857Y-48727380D01*
X403708857Y-48727380D02*
X404327904Y-48727380D01*
X405327904Y-48727380D02*
X404994571Y-49203571D01*
X404756476Y-48727380D02*
X404756476Y-49727380D01*
X404756476Y-49727380D02*
X405137428Y-49727380D01*
X405137428Y-49727380D02*
X405232666Y-49679761D01*
X405232666Y-49679761D02*
X405280285Y-49632142D01*
X405280285Y-49632142D02*
X405327904Y-49536904D01*
X405327904Y-49536904D02*
X405327904Y-49394047D01*
X405327904Y-49394047D02*
X405280285Y-49298809D01*
X405280285Y-49298809D02*
X405232666Y-49251190D01*
X405232666Y-49251190D02*
X405137428Y-49203571D01*
X405137428Y-49203571D02*
X404756476Y-49203571D01*
X405756476Y-49251190D02*
X406089809Y-49251190D01*
X406232666Y-48727380D02*
X405756476Y-48727380D01*
X405756476Y-48727380D02*
X405756476Y-49727380D01*
X405756476Y-49727380D02*
X406232666Y-49727380D01*
X398248476Y-50299000D02*
X398391333Y-50251380D01*
X398391333Y-50251380D02*
X398629428Y-50251380D01*
X398629428Y-50251380D02*
X398724666Y-50299000D01*
X398724666Y-50299000D02*
X398772285Y-50346619D01*
X398772285Y-50346619D02*
X398819904Y-50441857D01*
X398819904Y-50441857D02*
X398819904Y-50537095D01*
X398819904Y-50537095D02*
X398772285Y-50632333D01*
X398772285Y-50632333D02*
X398724666Y-50679952D01*
X398724666Y-50679952D02*
X398629428Y-50727571D01*
X398629428Y-50727571D02*
X398438952Y-50775190D01*
X398438952Y-50775190D02*
X398343714Y-50822809D01*
X398343714Y-50822809D02*
X398296095Y-50870428D01*
X398296095Y-50870428D02*
X398248476Y-50965666D01*
X398248476Y-50965666D02*
X398248476Y-51060904D01*
X398248476Y-51060904D02*
X398296095Y-51156142D01*
X398296095Y-51156142D02*
X398343714Y-51203761D01*
X398343714Y-51203761D02*
X398438952Y-51251380D01*
X398438952Y-51251380D02*
X398677047Y-51251380D01*
X398677047Y-51251380D02*
X398819904Y-51203761D01*
X399153238Y-51251380D02*
X399391333Y-50251380D01*
X399391333Y-50251380D02*
X399581809Y-50965666D01*
X399581809Y-50965666D02*
X399772285Y-50251380D01*
X399772285Y-50251380D02*
X400010381Y-51251380D01*
X400915142Y-50251380D02*
X400343714Y-50251380D01*
X400629428Y-50251380D02*
X400629428Y-51251380D01*
X400629428Y-51251380D02*
X400534190Y-51108523D01*
X400534190Y-51108523D02*
X400438952Y-51013285D01*
X400438952Y-51013285D02*
X400343714Y-50965666D01*
X401772285Y-51251380D02*
X401581809Y-51251380D01*
X401581809Y-51251380D02*
X401486571Y-51203761D01*
X401486571Y-51203761D02*
X401438952Y-51156142D01*
X401438952Y-51156142D02*
X401343714Y-51013285D01*
X401343714Y-51013285D02*
X401296095Y-50822809D01*
X401296095Y-50822809D02*
X401296095Y-50441857D01*
X401296095Y-50441857D02*
X401343714Y-50346619D01*
X401343714Y-50346619D02*
X401391333Y-50299000D01*
X401391333Y-50299000D02*
X401486571Y-50251380D01*
X401486571Y-50251380D02*
X401677047Y-50251380D01*
X401677047Y-50251380D02*
X401772285Y-50299000D01*
X401772285Y-50299000D02*
X401819904Y-50346619D01*
X401819904Y-50346619D02*
X401867523Y-50441857D01*
X401867523Y-50441857D02*
X401867523Y-50679952D01*
X401867523Y-50679952D02*
X401819904Y-50775190D01*
X401819904Y-50775190D02*
X401772285Y-50822809D01*
X401772285Y-50822809D02*
X401677047Y-50870428D01*
X401677047Y-50870428D02*
X401486571Y-50870428D01*
X401486571Y-50870428D02*
X401391333Y-50822809D01*
X401391333Y-50822809D02*
X401343714Y-50775190D01*
X401343714Y-50775190D02*
X401296095Y-50679952D01*
D11*
%TO.C,J2*%
X322060598Y-86243457D02*
X321991906Y-86266354D01*
X321991906Y-86266354D02*
X321877420Y-86266354D01*
X321877420Y-86266354D02*
X321831625Y-86243457D01*
X321831625Y-86243457D02*
X321808728Y-86220559D01*
X321808728Y-86220559D02*
X321785830Y-86174765D01*
X321785830Y-86174765D02*
X321785830Y-86128970D01*
X321785830Y-86128970D02*
X321808728Y-86083175D01*
X321808728Y-86083175D02*
X321831625Y-86060278D01*
X321831625Y-86060278D02*
X321877420Y-86037381D01*
X321877420Y-86037381D02*
X321969009Y-86014483D01*
X321969009Y-86014483D02*
X322014804Y-85991586D01*
X322014804Y-85991586D02*
X322037701Y-85968689D01*
X322037701Y-85968689D02*
X322060598Y-85922894D01*
X322060598Y-85922894D02*
X322060598Y-85877099D01*
X322060598Y-85877099D02*
X322037701Y-85831305D01*
X322037701Y-85831305D02*
X322014804Y-85808407D01*
X322014804Y-85808407D02*
X321969009Y-85785510D01*
X321969009Y-85785510D02*
X321854522Y-85785510D01*
X321854522Y-85785510D02*
X321785830Y-85808407D01*
X321442370Y-85785510D02*
X321442370Y-86128970D01*
X321442370Y-86128970D02*
X321465267Y-86197662D01*
X321465267Y-86197662D02*
X321511062Y-86243457D01*
X321511062Y-86243457D02*
X321579754Y-86266354D01*
X321579754Y-86266354D02*
X321625549Y-86266354D01*
X321213397Y-86083175D02*
X320847040Y-86083175D01*
X320411990Y-85945791D02*
X320411990Y-86266354D01*
X320526477Y-85762613D02*
X320640963Y-86106073D01*
X320640963Y-86106073D02*
X320343298Y-86106073D01*
X320205914Y-85785510D02*
X319908248Y-85785510D01*
X319908248Y-85785510D02*
X320068530Y-85968689D01*
X320068530Y-85968689D02*
X319999838Y-85968689D01*
X319999838Y-85968689D02*
X319954043Y-85991586D01*
X319954043Y-85991586D02*
X319931146Y-86014483D01*
X319931146Y-86014483D02*
X319908248Y-86060278D01*
X319908248Y-86060278D02*
X319908248Y-86174765D01*
X319908248Y-86174765D02*
X319931146Y-86220559D01*
X319931146Y-86220559D02*
X319954043Y-86243457D01*
X319954043Y-86243457D02*
X319999838Y-86266354D01*
X319999838Y-86266354D02*
X320137222Y-86266354D01*
X320137222Y-86266354D02*
X320183016Y-86243457D01*
X320183016Y-86243457D02*
X320205914Y-86220559D01*
X319473199Y-85785510D02*
X319702172Y-85785510D01*
X319702172Y-85785510D02*
X319725069Y-86014483D01*
X319725069Y-86014483D02*
X319702172Y-85991586D01*
X319702172Y-85991586D02*
X319656377Y-85968689D01*
X319656377Y-85968689D02*
X319541891Y-85968689D01*
X319541891Y-85968689D02*
X319496096Y-85991586D01*
X319496096Y-85991586D02*
X319473199Y-86014483D01*
X319473199Y-86014483D02*
X319450301Y-86060278D01*
X319450301Y-86060278D02*
X319450301Y-86174765D01*
X319450301Y-86174765D02*
X319473199Y-86220559D01*
X319473199Y-86220559D02*
X319496096Y-86243457D01*
X319496096Y-86243457D02*
X319541891Y-86266354D01*
X319541891Y-86266354D02*
X319656377Y-86266354D01*
X319656377Y-86266354D02*
X319702172Y-86243457D01*
X319702172Y-86243457D02*
X319725069Y-86220559D01*
X318992354Y-86266354D02*
X319267122Y-86266354D01*
X319129738Y-86266354D02*
X319129738Y-85785510D01*
X319129738Y-85785510D02*
X319175533Y-85854202D01*
X319175533Y-85854202D02*
X319221328Y-85899997D01*
X319221328Y-85899997D02*
X319267122Y-85922894D01*
X318580202Y-85945791D02*
X318580202Y-86266354D01*
X318694689Y-85762613D02*
X318809175Y-86106073D01*
X318809175Y-86106073D02*
X318511510Y-86106073D01*
D12*
X317525519Y-83967285D02*
X317525519Y-83487008D01*
X317525519Y-83487008D02*
X317342556Y-83487008D01*
X317342556Y-83487008D02*
X317296816Y-83509878D01*
X317296816Y-83509878D02*
X317273945Y-83532749D01*
X317273945Y-83532749D02*
X317251075Y-83578489D01*
X317251075Y-83578489D02*
X317251075Y-83647100D01*
X317251075Y-83647100D02*
X317273945Y-83692841D01*
X317273945Y-83692841D02*
X317296816Y-83715711D01*
X317296816Y-83715711D02*
X317342556Y-83738582D01*
X317342556Y-83738582D02*
X317525519Y-83738582D01*
X316770798Y-83921544D02*
X316793668Y-83944415D01*
X316793668Y-83944415D02*
X316862279Y-83967285D01*
X316862279Y-83967285D02*
X316908020Y-83967285D01*
X316908020Y-83967285D02*
X316976631Y-83944415D01*
X316976631Y-83944415D02*
X317022372Y-83898674D01*
X317022372Y-83898674D02*
X317045242Y-83852933D01*
X317045242Y-83852933D02*
X317068112Y-83761452D01*
X317068112Y-83761452D02*
X317068112Y-83692841D01*
X317068112Y-83692841D02*
X317045242Y-83601360D01*
X317045242Y-83601360D02*
X317022372Y-83555619D01*
X317022372Y-83555619D02*
X316976631Y-83509878D01*
X316976631Y-83509878D02*
X316908020Y-83487008D01*
X316908020Y-83487008D02*
X316862279Y-83487008D01*
X316862279Y-83487008D02*
X316793668Y-83509878D01*
X316793668Y-83509878D02*
X316770798Y-83532749D01*
X316404873Y-83715711D02*
X316336262Y-83738582D01*
X316336262Y-83738582D02*
X316313391Y-83761452D01*
X316313391Y-83761452D02*
X316290521Y-83807193D01*
X316290521Y-83807193D02*
X316290521Y-83875804D01*
X316290521Y-83875804D02*
X316313391Y-83921544D01*
X316313391Y-83921544D02*
X316336262Y-83944415D01*
X316336262Y-83944415D02*
X316382002Y-83967285D01*
X316382002Y-83967285D02*
X316564965Y-83967285D01*
X316564965Y-83967285D02*
X316564965Y-83487008D01*
X316564965Y-83487008D02*
X316404873Y-83487008D01*
X316404873Y-83487008D02*
X316359132Y-83509878D01*
X316359132Y-83509878D02*
X316336262Y-83532749D01*
X316336262Y-83532749D02*
X316313391Y-83578489D01*
X316313391Y-83578489D02*
X316313391Y-83624230D01*
X316313391Y-83624230D02*
X316336262Y-83669971D01*
X316336262Y-83669971D02*
X316359132Y-83692841D01*
X316359132Y-83692841D02*
X316404873Y-83715711D01*
X316404873Y-83715711D02*
X316564965Y-83715711D01*
X315718763Y-83715711D02*
X315558671Y-83715711D01*
X315490060Y-83967285D02*
X315718763Y-83967285D01*
X315718763Y-83967285D02*
X315718763Y-83487008D01*
X315718763Y-83487008D02*
X315490060Y-83487008D01*
X315284227Y-83967285D02*
X315284227Y-83487008D01*
X315284227Y-83487008D02*
X315169875Y-83487008D01*
X315169875Y-83487008D02*
X315101264Y-83509878D01*
X315101264Y-83509878D02*
X315055524Y-83555619D01*
X315055524Y-83555619D02*
X315032653Y-83601360D01*
X315032653Y-83601360D02*
X315009783Y-83692841D01*
X315009783Y-83692841D02*
X315009783Y-83761452D01*
X315009783Y-83761452D02*
X315032653Y-83852933D01*
X315032653Y-83852933D02*
X315055524Y-83898674D01*
X315055524Y-83898674D02*
X315101264Y-83944415D01*
X315101264Y-83944415D02*
X315169875Y-83967285D01*
X315169875Y-83967285D02*
X315284227Y-83967285D01*
X314552376Y-83509878D02*
X314598117Y-83487008D01*
X314598117Y-83487008D02*
X314666728Y-83487008D01*
X314666728Y-83487008D02*
X314735339Y-83509878D01*
X314735339Y-83509878D02*
X314781080Y-83555619D01*
X314781080Y-83555619D02*
X314803950Y-83601360D01*
X314803950Y-83601360D02*
X314826820Y-83692841D01*
X314826820Y-83692841D02*
X314826820Y-83761452D01*
X314826820Y-83761452D02*
X314803950Y-83852933D01*
X314803950Y-83852933D02*
X314781080Y-83898674D01*
X314781080Y-83898674D02*
X314735339Y-83944415D01*
X314735339Y-83944415D02*
X314666728Y-83967285D01*
X314666728Y-83967285D02*
X314620987Y-83967285D01*
X314620987Y-83967285D02*
X314552376Y-83944415D01*
X314552376Y-83944415D02*
X314529506Y-83921544D01*
X314529506Y-83921544D02*
X314529506Y-83761452D01*
X314529506Y-83761452D02*
X314620987Y-83761452D01*
X314323673Y-83715711D02*
X314163581Y-83715711D01*
X314094970Y-83967285D02*
X314323673Y-83967285D01*
X314323673Y-83967285D02*
X314323673Y-83487008D01*
X314323673Y-83487008D02*
X314094970Y-83487008D01*
D10*
%TO.C,U1*%
X278256000Y-50034524D02*
X278303619Y-50177381D01*
X278303619Y-50177381D02*
X278303619Y-50415476D01*
X278303619Y-50415476D02*
X278256000Y-50510714D01*
X278256000Y-50510714D02*
X278208380Y-50558333D01*
X278208380Y-50558333D02*
X278113142Y-50605952D01*
X278113142Y-50605952D02*
X278017904Y-50605952D01*
X278017904Y-50605952D02*
X277922666Y-50558333D01*
X277922666Y-50558333D02*
X277875047Y-50510714D01*
X277875047Y-50510714D02*
X277827428Y-50415476D01*
X277827428Y-50415476D02*
X277779809Y-50225000D01*
X277779809Y-50225000D02*
X277732190Y-50129762D01*
X277732190Y-50129762D02*
X277684571Y-50082143D01*
X277684571Y-50082143D02*
X277589333Y-50034524D01*
X277589333Y-50034524D02*
X277494095Y-50034524D01*
X277494095Y-50034524D02*
X277398857Y-50082143D01*
X277398857Y-50082143D02*
X277351238Y-50129762D01*
X277351238Y-50129762D02*
X277303619Y-50225000D01*
X277303619Y-50225000D02*
X277303619Y-50463095D01*
X277303619Y-50463095D02*
X277351238Y-50605952D01*
X278208380Y-51605952D02*
X278256000Y-51558333D01*
X278256000Y-51558333D02*
X278303619Y-51415476D01*
X278303619Y-51415476D02*
X278303619Y-51320238D01*
X278303619Y-51320238D02*
X278256000Y-51177381D01*
X278256000Y-51177381D02*
X278160761Y-51082143D01*
X278160761Y-51082143D02*
X278065523Y-51034524D01*
X278065523Y-51034524D02*
X277875047Y-50986905D01*
X277875047Y-50986905D02*
X277732190Y-50986905D01*
X277732190Y-50986905D02*
X277541714Y-51034524D01*
X277541714Y-51034524D02*
X277446476Y-51082143D01*
X277446476Y-51082143D02*
X277351238Y-51177381D01*
X277351238Y-51177381D02*
X277303619Y-51320238D01*
X277303619Y-51320238D02*
X277303619Y-51415476D01*
X277303619Y-51415476D02*
X277351238Y-51558333D01*
X277351238Y-51558333D02*
X277398857Y-51605952D01*
X277303619Y-52225000D02*
X277303619Y-52320238D01*
X277303619Y-52320238D02*
X277351238Y-52415476D01*
X277351238Y-52415476D02*
X277398857Y-52463095D01*
X277398857Y-52463095D02*
X277494095Y-52510714D01*
X277494095Y-52510714D02*
X277684571Y-52558333D01*
X277684571Y-52558333D02*
X277922666Y-52558333D01*
X277922666Y-52558333D02*
X278113142Y-52510714D01*
X278113142Y-52510714D02*
X278208380Y-52463095D01*
X278208380Y-52463095D02*
X278256000Y-52415476D01*
X278256000Y-52415476D02*
X278303619Y-52320238D01*
X278303619Y-52320238D02*
X278303619Y-52225000D01*
X278303619Y-52225000D02*
X278256000Y-52129762D01*
X278256000Y-52129762D02*
X278208380Y-52082143D01*
X278208380Y-52082143D02*
X278113142Y-52034524D01*
X278113142Y-52034524D02*
X277922666Y-51986905D01*
X277922666Y-51986905D02*
X277684571Y-51986905D01*
X277684571Y-51986905D02*
X277494095Y-52034524D01*
X277494095Y-52034524D02*
X277398857Y-52082143D01*
X277398857Y-52082143D02*
X277351238Y-52129762D01*
X277351238Y-52129762D02*
X277303619Y-52225000D01*
X278303619Y-53034524D02*
X278303619Y-53225000D01*
X278303619Y-53225000D02*
X278256000Y-53320238D01*
X278256000Y-53320238D02*
X278208380Y-53367857D01*
X278208380Y-53367857D02*
X278065523Y-53463095D01*
X278065523Y-53463095D02*
X277875047Y-53510714D01*
X277875047Y-53510714D02*
X277494095Y-53510714D01*
X277494095Y-53510714D02*
X277398857Y-53463095D01*
X277398857Y-53463095D02*
X277351238Y-53415476D01*
X277351238Y-53415476D02*
X277303619Y-53320238D01*
X277303619Y-53320238D02*
X277303619Y-53129762D01*
X277303619Y-53129762D02*
X277351238Y-53034524D01*
X277351238Y-53034524D02*
X277398857Y-52986905D01*
X277398857Y-52986905D02*
X277494095Y-52939286D01*
X277494095Y-52939286D02*
X277732190Y-52939286D01*
X277732190Y-52939286D02*
X277827428Y-52986905D01*
X277827428Y-52986905D02*
X277875047Y-53034524D01*
X277875047Y-53034524D02*
X277922666Y-53129762D01*
X277922666Y-53129762D02*
X277922666Y-53320238D01*
X277922666Y-53320238D02*
X277875047Y-53415476D01*
X277875047Y-53415476D02*
X277827428Y-53463095D01*
X277827428Y-53463095D02*
X277732190Y-53510714D01*
X278303619Y-54463095D02*
X278303619Y-53891667D01*
X278303619Y-54177381D02*
X277303619Y-54177381D01*
X277303619Y-54177381D02*
X277446476Y-54082143D01*
X277446476Y-54082143D02*
X277541714Y-53986905D01*
X277541714Y-53986905D02*
X277589333Y-53891667D01*
X277303619Y-55367857D02*
X277303619Y-54891667D01*
X277303619Y-54891667D02*
X277779809Y-54844048D01*
X277779809Y-54844048D02*
X277732190Y-54891667D01*
X277732190Y-54891667D02*
X277684571Y-54986905D01*
X277684571Y-54986905D02*
X277684571Y-55225000D01*
X277684571Y-55225000D02*
X277732190Y-55320238D01*
X277732190Y-55320238D02*
X277779809Y-55367857D01*
X277779809Y-55367857D02*
X277875047Y-55415476D01*
X277875047Y-55415476D02*
X278113142Y-55415476D01*
X278113142Y-55415476D02*
X278208380Y-55367857D01*
X278208380Y-55367857D02*
X278256000Y-55320238D01*
X278256000Y-55320238D02*
X278303619Y-55225000D01*
X278303619Y-55225000D02*
X278303619Y-54986905D01*
X278303619Y-54986905D02*
X278256000Y-54891667D01*
X278256000Y-54891667D02*
X278208380Y-54844048D01*
X279462619Y-51963095D02*
X280272142Y-51963095D01*
X280272142Y-51963095D02*
X280367380Y-52010714D01*
X280367380Y-52010714D02*
X280415000Y-52058333D01*
X280415000Y-52058333D02*
X280462619Y-52153571D01*
X280462619Y-52153571D02*
X280462619Y-52344047D01*
X280462619Y-52344047D02*
X280415000Y-52439285D01*
X280415000Y-52439285D02*
X280367380Y-52486904D01*
X280367380Y-52486904D02*
X280272142Y-52534523D01*
X280272142Y-52534523D02*
X279462619Y-52534523D01*
X280462619Y-53534523D02*
X280462619Y-52963095D01*
X280462619Y-53248809D02*
X279462619Y-53248809D01*
X279462619Y-53248809D02*
X279605476Y-53153571D01*
X279605476Y-53153571D02*
X279700714Y-53058333D01*
X279700714Y-53058333D02*
X279748333Y-52963095D01*
%TO.C,U2*%
X347124000Y-50034524D02*
X347171619Y-50177381D01*
X347171619Y-50177381D02*
X347171619Y-50415476D01*
X347171619Y-50415476D02*
X347124000Y-50510714D01*
X347124000Y-50510714D02*
X347076380Y-50558333D01*
X347076380Y-50558333D02*
X346981142Y-50605952D01*
X346981142Y-50605952D02*
X346885904Y-50605952D01*
X346885904Y-50605952D02*
X346790666Y-50558333D01*
X346790666Y-50558333D02*
X346743047Y-50510714D01*
X346743047Y-50510714D02*
X346695428Y-50415476D01*
X346695428Y-50415476D02*
X346647809Y-50225000D01*
X346647809Y-50225000D02*
X346600190Y-50129762D01*
X346600190Y-50129762D02*
X346552571Y-50082143D01*
X346552571Y-50082143D02*
X346457333Y-50034524D01*
X346457333Y-50034524D02*
X346362095Y-50034524D01*
X346362095Y-50034524D02*
X346266857Y-50082143D01*
X346266857Y-50082143D02*
X346219238Y-50129762D01*
X346219238Y-50129762D02*
X346171619Y-50225000D01*
X346171619Y-50225000D02*
X346171619Y-50463095D01*
X346171619Y-50463095D02*
X346219238Y-50605952D01*
X347076380Y-51605952D02*
X347124000Y-51558333D01*
X347124000Y-51558333D02*
X347171619Y-51415476D01*
X347171619Y-51415476D02*
X347171619Y-51320238D01*
X347171619Y-51320238D02*
X347124000Y-51177381D01*
X347124000Y-51177381D02*
X347028761Y-51082143D01*
X347028761Y-51082143D02*
X346933523Y-51034524D01*
X346933523Y-51034524D02*
X346743047Y-50986905D01*
X346743047Y-50986905D02*
X346600190Y-50986905D01*
X346600190Y-50986905D02*
X346409714Y-51034524D01*
X346409714Y-51034524D02*
X346314476Y-51082143D01*
X346314476Y-51082143D02*
X346219238Y-51177381D01*
X346219238Y-51177381D02*
X346171619Y-51320238D01*
X346171619Y-51320238D02*
X346171619Y-51415476D01*
X346171619Y-51415476D02*
X346219238Y-51558333D01*
X346219238Y-51558333D02*
X346266857Y-51605952D01*
X346171619Y-52225000D02*
X346171619Y-52320238D01*
X346171619Y-52320238D02*
X346219238Y-52415476D01*
X346219238Y-52415476D02*
X346266857Y-52463095D01*
X346266857Y-52463095D02*
X346362095Y-52510714D01*
X346362095Y-52510714D02*
X346552571Y-52558333D01*
X346552571Y-52558333D02*
X346790666Y-52558333D01*
X346790666Y-52558333D02*
X346981142Y-52510714D01*
X346981142Y-52510714D02*
X347076380Y-52463095D01*
X347076380Y-52463095D02*
X347124000Y-52415476D01*
X347124000Y-52415476D02*
X347171619Y-52320238D01*
X347171619Y-52320238D02*
X347171619Y-52225000D01*
X347171619Y-52225000D02*
X347124000Y-52129762D01*
X347124000Y-52129762D02*
X347076380Y-52082143D01*
X347076380Y-52082143D02*
X346981142Y-52034524D01*
X346981142Y-52034524D02*
X346790666Y-51986905D01*
X346790666Y-51986905D02*
X346552571Y-51986905D01*
X346552571Y-51986905D02*
X346362095Y-52034524D01*
X346362095Y-52034524D02*
X346266857Y-52082143D01*
X346266857Y-52082143D02*
X346219238Y-52129762D01*
X346219238Y-52129762D02*
X346171619Y-52225000D01*
X347171619Y-53034524D02*
X347171619Y-53225000D01*
X347171619Y-53225000D02*
X347124000Y-53320238D01*
X347124000Y-53320238D02*
X347076380Y-53367857D01*
X347076380Y-53367857D02*
X346933523Y-53463095D01*
X346933523Y-53463095D02*
X346743047Y-53510714D01*
X346743047Y-53510714D02*
X346362095Y-53510714D01*
X346362095Y-53510714D02*
X346266857Y-53463095D01*
X346266857Y-53463095D02*
X346219238Y-53415476D01*
X346219238Y-53415476D02*
X346171619Y-53320238D01*
X346171619Y-53320238D02*
X346171619Y-53129762D01*
X346171619Y-53129762D02*
X346219238Y-53034524D01*
X346219238Y-53034524D02*
X346266857Y-52986905D01*
X346266857Y-52986905D02*
X346362095Y-52939286D01*
X346362095Y-52939286D02*
X346600190Y-52939286D01*
X346600190Y-52939286D02*
X346695428Y-52986905D01*
X346695428Y-52986905D02*
X346743047Y-53034524D01*
X346743047Y-53034524D02*
X346790666Y-53129762D01*
X346790666Y-53129762D02*
X346790666Y-53320238D01*
X346790666Y-53320238D02*
X346743047Y-53415476D01*
X346743047Y-53415476D02*
X346695428Y-53463095D01*
X346695428Y-53463095D02*
X346600190Y-53510714D01*
X347171619Y-54463095D02*
X347171619Y-53891667D01*
X347171619Y-54177381D02*
X346171619Y-54177381D01*
X346171619Y-54177381D02*
X346314476Y-54082143D01*
X346314476Y-54082143D02*
X346409714Y-53986905D01*
X346409714Y-53986905D02*
X346457333Y-53891667D01*
X346171619Y-55367857D02*
X346171619Y-54891667D01*
X346171619Y-54891667D02*
X346647809Y-54844048D01*
X346647809Y-54844048D02*
X346600190Y-54891667D01*
X346600190Y-54891667D02*
X346552571Y-54986905D01*
X346552571Y-54986905D02*
X346552571Y-55225000D01*
X346552571Y-55225000D02*
X346600190Y-55320238D01*
X346600190Y-55320238D02*
X346647809Y-55367857D01*
X346647809Y-55367857D02*
X346743047Y-55415476D01*
X346743047Y-55415476D02*
X346981142Y-55415476D01*
X346981142Y-55415476D02*
X347076380Y-55367857D01*
X347076380Y-55367857D02*
X347124000Y-55320238D01*
X347124000Y-55320238D02*
X347171619Y-55225000D01*
X347171619Y-55225000D02*
X347171619Y-54986905D01*
X347171619Y-54986905D02*
X347124000Y-54891667D01*
X347124000Y-54891667D02*
X347076380Y-54844048D01*
X344012619Y-51963095D02*
X344822142Y-51963095D01*
X344822142Y-51963095D02*
X344917380Y-52010714D01*
X344917380Y-52010714D02*
X344965000Y-52058333D01*
X344965000Y-52058333D02*
X345012619Y-52153571D01*
X345012619Y-52153571D02*
X345012619Y-52344047D01*
X345012619Y-52344047D02*
X344965000Y-52439285D01*
X344965000Y-52439285D02*
X344917380Y-52486904D01*
X344917380Y-52486904D02*
X344822142Y-52534523D01*
X344822142Y-52534523D02*
X344012619Y-52534523D01*
X344107857Y-52963095D02*
X344060238Y-53010714D01*
X344060238Y-53010714D02*
X344012619Y-53105952D01*
X344012619Y-53105952D02*
X344012619Y-53344047D01*
X344012619Y-53344047D02*
X344060238Y-53439285D01*
X344060238Y-53439285D02*
X344107857Y-53486904D01*
X344107857Y-53486904D02*
X344203095Y-53534523D01*
X344203095Y-53534523D02*
X344298333Y-53534523D01*
X344298333Y-53534523D02*
X344441190Y-53486904D01*
X344441190Y-53486904D02*
X345012619Y-52915476D01*
X345012619Y-52915476D02*
X345012619Y-53534523D01*
%TO.C,SW15*%
X230920190Y-56701190D02*
X231015428Y-56653571D01*
X231015428Y-56653571D02*
X231063047Y-56605952D01*
X231063047Y-56605952D02*
X231110666Y-56510714D01*
X231110666Y-56510714D02*
X231110666Y-56463095D01*
X231110666Y-56463095D02*
X231063047Y-56367857D01*
X231063047Y-56367857D02*
X231015428Y-56320238D01*
X231015428Y-56320238D02*
X230920190Y-56272619D01*
X230920190Y-56272619D02*
X230729714Y-56272619D01*
X230729714Y-56272619D02*
X230634476Y-56320238D01*
X230634476Y-56320238D02*
X230586857Y-56367857D01*
X230586857Y-56367857D02*
X230539238Y-56463095D01*
X230539238Y-56463095D02*
X230539238Y-56510714D01*
X230539238Y-56510714D02*
X230586857Y-56605952D01*
X230586857Y-56605952D02*
X230634476Y-56653571D01*
X230634476Y-56653571D02*
X230729714Y-56701190D01*
X230729714Y-56701190D02*
X230920190Y-56701190D01*
X230920190Y-56701190D02*
X231015428Y-56748809D01*
X231015428Y-56748809D02*
X231063047Y-56796428D01*
X231063047Y-56796428D02*
X231110666Y-56891666D01*
X231110666Y-56891666D02*
X231110666Y-57082142D01*
X231110666Y-57082142D02*
X231063047Y-57177380D01*
X231063047Y-57177380D02*
X231015428Y-57225000D01*
X231015428Y-57225000D02*
X230920190Y-57272619D01*
X230920190Y-57272619D02*
X230729714Y-57272619D01*
X230729714Y-57272619D02*
X230634476Y-57225000D01*
X230634476Y-57225000D02*
X230586857Y-57177380D01*
X230586857Y-57177380D02*
X230539238Y-57082142D01*
X230539238Y-57082142D02*
X230539238Y-56891666D01*
X230539238Y-56891666D02*
X230586857Y-56796428D01*
X230586857Y-56796428D02*
X230634476Y-56748809D01*
X230634476Y-56748809D02*
X230729714Y-56701190D01*
X229920190Y-56272619D02*
X229824952Y-56272619D01*
X229824952Y-56272619D02*
X229729714Y-56320238D01*
X229729714Y-56320238D02*
X229682095Y-56367857D01*
X229682095Y-56367857D02*
X229634476Y-56463095D01*
X229634476Y-56463095D02*
X229586857Y-56653571D01*
X229586857Y-56653571D02*
X229586857Y-56891666D01*
X229586857Y-56891666D02*
X229634476Y-57082142D01*
X229634476Y-57082142D02*
X229682095Y-57177380D01*
X229682095Y-57177380D02*
X229729714Y-57225000D01*
X229729714Y-57225000D02*
X229824952Y-57272619D01*
X229824952Y-57272619D02*
X229920190Y-57272619D01*
X229920190Y-57272619D02*
X230015428Y-57225000D01*
X230015428Y-57225000D02*
X230063047Y-57177380D01*
X230063047Y-57177380D02*
X230110666Y-57082142D01*
X230110666Y-57082142D02*
X230158285Y-56891666D01*
X230158285Y-56891666D02*
X230158285Y-56653571D01*
X230158285Y-56653571D02*
X230110666Y-56463095D01*
X230110666Y-56463095D02*
X230063047Y-56367857D01*
X230063047Y-56367857D02*
X230015428Y-56320238D01*
X230015428Y-56320238D02*
X229920190Y-56272619D01*
X228967809Y-56272619D02*
X228872571Y-56272619D01*
X228872571Y-56272619D02*
X228777333Y-56320238D01*
X228777333Y-56320238D02*
X228729714Y-56367857D01*
X228729714Y-56367857D02*
X228682095Y-56463095D01*
X228682095Y-56463095D02*
X228634476Y-56653571D01*
X228634476Y-56653571D02*
X228634476Y-56891666D01*
X228634476Y-56891666D02*
X228682095Y-57082142D01*
X228682095Y-57082142D02*
X228729714Y-57177380D01*
X228729714Y-57177380D02*
X228777333Y-57225000D01*
X228777333Y-57225000D02*
X228872571Y-57272619D01*
X228872571Y-57272619D02*
X228967809Y-57272619D01*
X228967809Y-57272619D02*
X229063047Y-57225000D01*
X229063047Y-57225000D02*
X229110666Y-57177380D01*
X229110666Y-57177380D02*
X229158285Y-57082142D01*
X229158285Y-57082142D02*
X229205904Y-56891666D01*
X229205904Y-56891666D02*
X229205904Y-56653571D01*
X229205904Y-56653571D02*
X229158285Y-56463095D01*
X229158285Y-56463095D02*
X229110666Y-56367857D01*
X229110666Y-56367857D02*
X229063047Y-56320238D01*
X229063047Y-56320238D02*
X228967809Y-56272619D01*
X228253523Y-57225000D02*
X228110666Y-57272619D01*
X228110666Y-57272619D02*
X227872571Y-57272619D01*
X227872571Y-57272619D02*
X227777333Y-57225000D01*
X227777333Y-57225000D02*
X227729714Y-57177380D01*
X227729714Y-57177380D02*
X227682095Y-57082142D01*
X227682095Y-57082142D02*
X227682095Y-56986904D01*
X227682095Y-56986904D02*
X227729714Y-56891666D01*
X227729714Y-56891666D02*
X227777333Y-56844047D01*
X227777333Y-56844047D02*
X227872571Y-56796428D01*
X227872571Y-56796428D02*
X228063047Y-56748809D01*
X228063047Y-56748809D02*
X228158285Y-56701190D01*
X228158285Y-56701190D02*
X228205904Y-56653571D01*
X228205904Y-56653571D02*
X228253523Y-56558333D01*
X228253523Y-56558333D02*
X228253523Y-56463095D01*
X228253523Y-56463095D02*
X228205904Y-56367857D01*
X228205904Y-56367857D02*
X228158285Y-56320238D01*
X228158285Y-56320238D02*
X228063047Y-56272619D01*
X228063047Y-56272619D02*
X227824952Y-56272619D01*
X227824952Y-56272619D02*
X227682095Y-56320238D01*
X227253523Y-57272619D02*
X227253523Y-56272619D01*
X227253523Y-56272619D02*
X226872571Y-56272619D01*
X226872571Y-56272619D02*
X226777333Y-56320238D01*
X226777333Y-56320238D02*
X226729714Y-56367857D01*
X226729714Y-56367857D02*
X226682095Y-56463095D01*
X226682095Y-56463095D02*
X226682095Y-56605952D01*
X226682095Y-56605952D02*
X226729714Y-56701190D01*
X226729714Y-56701190D02*
X226777333Y-56748809D01*
X226777333Y-56748809D02*
X226872571Y-56796428D01*
X226872571Y-56796428D02*
X227253523Y-56796428D01*
X226205904Y-57272619D02*
X226015428Y-57272619D01*
X226015428Y-57272619D02*
X225920190Y-57225000D01*
X225920190Y-57225000D02*
X225872571Y-57177380D01*
X225872571Y-57177380D02*
X225777333Y-57034523D01*
X225777333Y-57034523D02*
X225729714Y-56844047D01*
X225729714Y-56844047D02*
X225729714Y-56463095D01*
X225729714Y-56463095D02*
X225777333Y-56367857D01*
X225777333Y-56367857D02*
X225824952Y-56320238D01*
X225824952Y-56320238D02*
X225920190Y-56272619D01*
X225920190Y-56272619D02*
X226110666Y-56272619D01*
X226110666Y-56272619D02*
X226205904Y-56320238D01*
X226205904Y-56320238D02*
X226253523Y-56367857D01*
X226253523Y-56367857D02*
X226301142Y-56463095D01*
X226301142Y-56463095D02*
X226301142Y-56701190D01*
X226301142Y-56701190D02*
X226253523Y-56796428D01*
X226253523Y-56796428D02*
X226205904Y-56844047D01*
X226205904Y-56844047D02*
X226110666Y-56891666D01*
X226110666Y-56891666D02*
X225920190Y-56891666D01*
X225920190Y-56891666D02*
X225824952Y-56844047D01*
X225824952Y-56844047D02*
X225777333Y-56796428D01*
X225777333Y-56796428D02*
X225729714Y-56701190D01*
X224967809Y-56748809D02*
X224824952Y-56796428D01*
X224824952Y-56796428D02*
X224777333Y-56844047D01*
X224777333Y-56844047D02*
X224729714Y-56939285D01*
X224729714Y-56939285D02*
X224729714Y-57082142D01*
X224729714Y-57082142D02*
X224777333Y-57177380D01*
X224777333Y-57177380D02*
X224824952Y-57225000D01*
X224824952Y-57225000D02*
X224920190Y-57272619D01*
X224920190Y-57272619D02*
X225301142Y-57272619D01*
X225301142Y-57272619D02*
X225301142Y-56272619D01*
X225301142Y-56272619D02*
X224967809Y-56272619D01*
X224967809Y-56272619D02*
X224872571Y-56320238D01*
X224872571Y-56320238D02*
X224824952Y-56367857D01*
X224824952Y-56367857D02*
X224777333Y-56463095D01*
X224777333Y-56463095D02*
X224777333Y-56558333D01*
X224777333Y-56558333D02*
X224824952Y-56653571D01*
X224824952Y-56653571D02*
X224872571Y-56701190D01*
X224872571Y-56701190D02*
X224967809Y-56748809D01*
X224967809Y-56748809D02*
X225301142Y-56748809D01*
X223872571Y-56272619D02*
X224063047Y-56272619D01*
X224063047Y-56272619D02*
X224158285Y-56320238D01*
X224158285Y-56320238D02*
X224205904Y-56367857D01*
X224205904Y-56367857D02*
X224301142Y-56510714D01*
X224301142Y-56510714D02*
X224348761Y-56701190D01*
X224348761Y-56701190D02*
X224348761Y-57082142D01*
X224348761Y-57082142D02*
X224301142Y-57177380D01*
X224301142Y-57177380D02*
X224253523Y-57225000D01*
X224253523Y-57225000D02*
X224158285Y-57272619D01*
X224158285Y-57272619D02*
X223967809Y-57272619D01*
X223967809Y-57272619D02*
X223872571Y-57225000D01*
X223872571Y-57225000D02*
X223824952Y-57177380D01*
X223824952Y-57177380D02*
X223777333Y-57082142D01*
X223777333Y-57082142D02*
X223777333Y-56844047D01*
X223777333Y-56844047D02*
X223824952Y-56748809D01*
X223824952Y-56748809D02*
X223872571Y-56701190D01*
X223872571Y-56701190D02*
X223967809Y-56653571D01*
X223967809Y-56653571D02*
X224158285Y-56653571D01*
X224158285Y-56653571D02*
X224253523Y-56701190D01*
X224253523Y-56701190D02*
X224301142Y-56748809D01*
X224301142Y-56748809D02*
X224348761Y-56844047D01*
X223348761Y-57272619D02*
X223348761Y-56272619D01*
X223348761Y-56272619D02*
X223015428Y-56986904D01*
X223015428Y-56986904D02*
X222682095Y-56272619D01*
X222682095Y-56272619D02*
X222682095Y-57272619D01*
X222253523Y-56367857D02*
X222205904Y-56320238D01*
X222205904Y-56320238D02*
X222110666Y-56272619D01*
X222110666Y-56272619D02*
X221872571Y-56272619D01*
X221872571Y-56272619D02*
X221777333Y-56320238D01*
X221777333Y-56320238D02*
X221729714Y-56367857D01*
X221729714Y-56367857D02*
X221682095Y-56463095D01*
X221682095Y-56463095D02*
X221682095Y-56558333D01*
X221682095Y-56558333D02*
X221729714Y-56701190D01*
X221729714Y-56701190D02*
X222301142Y-57272619D01*
X222301142Y-57272619D02*
X221682095Y-57272619D01*
X220682095Y-57272619D02*
X221015428Y-56796428D01*
X221253523Y-57272619D02*
X221253523Y-56272619D01*
X221253523Y-56272619D02*
X220872571Y-56272619D01*
X220872571Y-56272619D02*
X220777333Y-56320238D01*
X220777333Y-56320238D02*
X220729714Y-56367857D01*
X220729714Y-56367857D02*
X220682095Y-56463095D01*
X220682095Y-56463095D02*
X220682095Y-56605952D01*
X220682095Y-56605952D02*
X220729714Y-56701190D01*
X220729714Y-56701190D02*
X220777333Y-56748809D01*
X220777333Y-56748809D02*
X220872571Y-56796428D01*
X220872571Y-56796428D02*
X221253523Y-56796428D01*
X220253523Y-56748809D02*
X219920190Y-56748809D01*
X219777333Y-57272619D02*
X220253523Y-57272619D01*
X220253523Y-57272619D02*
X220253523Y-56272619D01*
X220253523Y-56272619D02*
X219777333Y-56272619D01*
X227761523Y-55701000D02*
X227618666Y-55748619D01*
X227618666Y-55748619D02*
X227380571Y-55748619D01*
X227380571Y-55748619D02*
X227285333Y-55701000D01*
X227285333Y-55701000D02*
X227237714Y-55653380D01*
X227237714Y-55653380D02*
X227190095Y-55558142D01*
X227190095Y-55558142D02*
X227190095Y-55462904D01*
X227190095Y-55462904D02*
X227237714Y-55367666D01*
X227237714Y-55367666D02*
X227285333Y-55320047D01*
X227285333Y-55320047D02*
X227380571Y-55272428D01*
X227380571Y-55272428D02*
X227571047Y-55224809D01*
X227571047Y-55224809D02*
X227666285Y-55177190D01*
X227666285Y-55177190D02*
X227713904Y-55129571D01*
X227713904Y-55129571D02*
X227761523Y-55034333D01*
X227761523Y-55034333D02*
X227761523Y-54939095D01*
X227761523Y-54939095D02*
X227713904Y-54843857D01*
X227713904Y-54843857D02*
X227666285Y-54796238D01*
X227666285Y-54796238D02*
X227571047Y-54748619D01*
X227571047Y-54748619D02*
X227332952Y-54748619D01*
X227332952Y-54748619D02*
X227190095Y-54796238D01*
X226856761Y-54748619D02*
X226618666Y-55748619D01*
X226618666Y-55748619D02*
X226428190Y-55034333D01*
X226428190Y-55034333D02*
X226237714Y-55748619D01*
X226237714Y-55748619D02*
X225999619Y-54748619D01*
X225094857Y-55748619D02*
X225666285Y-55748619D01*
X225380571Y-55748619D02*
X225380571Y-54748619D01*
X225380571Y-54748619D02*
X225475809Y-54891476D01*
X225475809Y-54891476D02*
X225571047Y-54986714D01*
X225571047Y-54986714D02*
X225666285Y-55034333D01*
X224190095Y-54748619D02*
X224666285Y-54748619D01*
X224666285Y-54748619D02*
X224713904Y-55224809D01*
X224713904Y-55224809D02*
X224666285Y-55177190D01*
X224666285Y-55177190D02*
X224571047Y-55129571D01*
X224571047Y-55129571D02*
X224332952Y-55129571D01*
X224332952Y-55129571D02*
X224237714Y-55177190D01*
X224237714Y-55177190D02*
X224190095Y-55224809D01*
X224190095Y-55224809D02*
X224142476Y-55320047D01*
X224142476Y-55320047D02*
X224142476Y-55558142D01*
X224142476Y-55558142D02*
X224190095Y-55653380D01*
X224190095Y-55653380D02*
X224237714Y-55701000D01*
X224237714Y-55701000D02*
X224332952Y-55748619D01*
X224332952Y-55748619D02*
X224571047Y-55748619D01*
X224571047Y-55748619D02*
X224666285Y-55701000D01*
X224666285Y-55701000D02*
X224713904Y-55653380D01*
D11*
%TO.C,J1*%
X305744234Y-98635645D02*
X305675542Y-98658542D01*
X305675542Y-98658542D02*
X305561056Y-98658542D01*
X305561056Y-98658542D02*
X305515261Y-98635645D01*
X305515261Y-98635645D02*
X305492364Y-98612747D01*
X305492364Y-98612747D02*
X305469466Y-98566953D01*
X305469466Y-98566953D02*
X305469466Y-98521158D01*
X305469466Y-98521158D02*
X305492364Y-98475363D01*
X305492364Y-98475363D02*
X305515261Y-98452466D01*
X305515261Y-98452466D02*
X305561056Y-98429569D01*
X305561056Y-98429569D02*
X305652645Y-98406671D01*
X305652645Y-98406671D02*
X305698440Y-98383774D01*
X305698440Y-98383774D02*
X305721337Y-98360877D01*
X305721337Y-98360877D02*
X305744234Y-98315082D01*
X305744234Y-98315082D02*
X305744234Y-98269287D01*
X305744234Y-98269287D02*
X305721337Y-98223493D01*
X305721337Y-98223493D02*
X305698440Y-98200595D01*
X305698440Y-98200595D02*
X305652645Y-98177698D01*
X305652645Y-98177698D02*
X305538158Y-98177698D01*
X305538158Y-98177698D02*
X305469466Y-98200595D01*
X305126006Y-98177698D02*
X305126006Y-98521158D01*
X305126006Y-98521158D02*
X305148903Y-98589850D01*
X305148903Y-98589850D02*
X305194698Y-98635645D01*
X305194698Y-98635645D02*
X305263390Y-98658542D01*
X305263390Y-98658542D02*
X305309185Y-98658542D01*
X304897033Y-98475363D02*
X304530676Y-98475363D01*
X304095626Y-98337979D02*
X304095626Y-98658542D01*
X304210113Y-98154801D02*
X304324599Y-98498261D01*
X304324599Y-98498261D02*
X304026934Y-98498261D01*
X303889550Y-98177698D02*
X303591884Y-98177698D01*
X303591884Y-98177698D02*
X303752166Y-98360877D01*
X303752166Y-98360877D02*
X303683474Y-98360877D01*
X303683474Y-98360877D02*
X303637679Y-98383774D01*
X303637679Y-98383774D02*
X303614782Y-98406671D01*
X303614782Y-98406671D02*
X303591884Y-98452466D01*
X303591884Y-98452466D02*
X303591884Y-98566953D01*
X303591884Y-98566953D02*
X303614782Y-98612747D01*
X303614782Y-98612747D02*
X303637679Y-98635645D01*
X303637679Y-98635645D02*
X303683474Y-98658542D01*
X303683474Y-98658542D02*
X303820858Y-98658542D01*
X303820858Y-98658542D02*
X303866652Y-98635645D01*
X303866652Y-98635645D02*
X303889550Y-98612747D01*
X303156835Y-98177698D02*
X303385808Y-98177698D01*
X303385808Y-98177698D02*
X303408705Y-98406671D01*
X303408705Y-98406671D02*
X303385808Y-98383774D01*
X303385808Y-98383774D02*
X303340013Y-98360877D01*
X303340013Y-98360877D02*
X303225527Y-98360877D01*
X303225527Y-98360877D02*
X303179732Y-98383774D01*
X303179732Y-98383774D02*
X303156835Y-98406671D01*
X303156835Y-98406671D02*
X303133937Y-98452466D01*
X303133937Y-98452466D02*
X303133937Y-98566953D01*
X303133937Y-98566953D02*
X303156835Y-98612747D01*
X303156835Y-98612747D02*
X303179732Y-98635645D01*
X303179732Y-98635645D02*
X303225527Y-98658542D01*
X303225527Y-98658542D02*
X303340013Y-98658542D01*
X303340013Y-98658542D02*
X303385808Y-98635645D01*
X303385808Y-98635645D02*
X303408705Y-98612747D01*
X302675990Y-98658542D02*
X302950758Y-98658542D01*
X302813374Y-98658542D02*
X302813374Y-98177698D01*
X302813374Y-98177698D02*
X302859169Y-98246390D01*
X302859169Y-98246390D02*
X302904964Y-98292185D01*
X302904964Y-98292185D02*
X302950758Y-98315082D01*
X302263838Y-98337979D02*
X302263838Y-98658542D01*
X302378325Y-98154801D02*
X302492811Y-98498261D01*
X302492811Y-98498261D02*
X302195146Y-98498261D01*
D12*
X310527159Y-100957085D02*
X310527159Y-100476808D01*
X310527159Y-100476808D02*
X310344196Y-100476808D01*
X310344196Y-100476808D02*
X310298456Y-100499678D01*
X310298456Y-100499678D02*
X310275585Y-100522549D01*
X310275585Y-100522549D02*
X310252715Y-100568289D01*
X310252715Y-100568289D02*
X310252715Y-100636900D01*
X310252715Y-100636900D02*
X310275585Y-100682641D01*
X310275585Y-100682641D02*
X310298456Y-100705511D01*
X310298456Y-100705511D02*
X310344196Y-100728382D01*
X310344196Y-100728382D02*
X310527159Y-100728382D01*
X309772438Y-100911344D02*
X309795308Y-100934215D01*
X309795308Y-100934215D02*
X309863919Y-100957085D01*
X309863919Y-100957085D02*
X309909660Y-100957085D01*
X309909660Y-100957085D02*
X309978271Y-100934215D01*
X309978271Y-100934215D02*
X310024012Y-100888474D01*
X310024012Y-100888474D02*
X310046882Y-100842733D01*
X310046882Y-100842733D02*
X310069752Y-100751252D01*
X310069752Y-100751252D02*
X310069752Y-100682641D01*
X310069752Y-100682641D02*
X310046882Y-100591160D01*
X310046882Y-100591160D02*
X310024012Y-100545419D01*
X310024012Y-100545419D02*
X309978271Y-100499678D01*
X309978271Y-100499678D02*
X309909660Y-100476808D01*
X309909660Y-100476808D02*
X309863919Y-100476808D01*
X309863919Y-100476808D02*
X309795308Y-100499678D01*
X309795308Y-100499678D02*
X309772438Y-100522549D01*
X309406513Y-100705511D02*
X309337902Y-100728382D01*
X309337902Y-100728382D02*
X309315031Y-100751252D01*
X309315031Y-100751252D02*
X309292161Y-100796993D01*
X309292161Y-100796993D02*
X309292161Y-100865604D01*
X309292161Y-100865604D02*
X309315031Y-100911344D01*
X309315031Y-100911344D02*
X309337902Y-100934215D01*
X309337902Y-100934215D02*
X309383642Y-100957085D01*
X309383642Y-100957085D02*
X309566605Y-100957085D01*
X309566605Y-100957085D02*
X309566605Y-100476808D01*
X309566605Y-100476808D02*
X309406513Y-100476808D01*
X309406513Y-100476808D02*
X309360772Y-100499678D01*
X309360772Y-100499678D02*
X309337902Y-100522549D01*
X309337902Y-100522549D02*
X309315031Y-100568289D01*
X309315031Y-100568289D02*
X309315031Y-100614030D01*
X309315031Y-100614030D02*
X309337902Y-100659771D01*
X309337902Y-100659771D02*
X309360772Y-100682641D01*
X309360772Y-100682641D02*
X309406513Y-100705511D01*
X309406513Y-100705511D02*
X309566605Y-100705511D01*
X308720403Y-100705511D02*
X308560311Y-100705511D01*
X308491700Y-100957085D02*
X308720403Y-100957085D01*
X308720403Y-100957085D02*
X308720403Y-100476808D01*
X308720403Y-100476808D02*
X308491700Y-100476808D01*
X308285867Y-100957085D02*
X308285867Y-100476808D01*
X308285867Y-100476808D02*
X308171515Y-100476808D01*
X308171515Y-100476808D02*
X308102904Y-100499678D01*
X308102904Y-100499678D02*
X308057164Y-100545419D01*
X308057164Y-100545419D02*
X308034293Y-100591160D01*
X308034293Y-100591160D02*
X308011423Y-100682641D01*
X308011423Y-100682641D02*
X308011423Y-100751252D01*
X308011423Y-100751252D02*
X308034293Y-100842733D01*
X308034293Y-100842733D02*
X308057164Y-100888474D01*
X308057164Y-100888474D02*
X308102904Y-100934215D01*
X308102904Y-100934215D02*
X308171515Y-100957085D01*
X308171515Y-100957085D02*
X308285867Y-100957085D01*
X307554016Y-100499678D02*
X307599757Y-100476808D01*
X307599757Y-100476808D02*
X307668368Y-100476808D01*
X307668368Y-100476808D02*
X307736979Y-100499678D01*
X307736979Y-100499678D02*
X307782720Y-100545419D01*
X307782720Y-100545419D02*
X307805590Y-100591160D01*
X307805590Y-100591160D02*
X307828460Y-100682641D01*
X307828460Y-100682641D02*
X307828460Y-100751252D01*
X307828460Y-100751252D02*
X307805590Y-100842733D01*
X307805590Y-100842733D02*
X307782720Y-100888474D01*
X307782720Y-100888474D02*
X307736979Y-100934215D01*
X307736979Y-100934215D02*
X307668368Y-100957085D01*
X307668368Y-100957085D02*
X307622627Y-100957085D01*
X307622627Y-100957085D02*
X307554016Y-100934215D01*
X307554016Y-100934215D02*
X307531146Y-100911344D01*
X307531146Y-100911344D02*
X307531146Y-100751252D01*
X307531146Y-100751252D02*
X307622627Y-100751252D01*
X307325313Y-100705511D02*
X307165221Y-100705511D01*
X307096610Y-100957085D02*
X307325313Y-100957085D01*
X307325313Y-100957085D02*
X307325313Y-100476808D01*
X307325313Y-100476808D02*
X307096610Y-100476808D01*
D13*
%TO.C,J2*%
X313075000Y-89250000D02*
X316075000Y-89250000D01*
X313075000Y-95250000D02*
X313075000Y-89250000D01*
X316075000Y-87950000D02*
X327075000Y-87950000D01*
X316075000Y-89250000D02*
X316075000Y-87950000D01*
X316075000Y-90000000D02*
X316075000Y-89250000D01*
X316075000Y-94500000D02*
X317375000Y-94500000D01*
X316075000Y-95250000D02*
X313075000Y-95250000D01*
X316075000Y-95250000D02*
X316075000Y-94500000D01*
X316075000Y-96950000D02*
X316075000Y-95250000D01*
X316075000Y-96950000D02*
X327075000Y-96950000D01*
X317375000Y-90000000D02*
X316075000Y-90000000D01*
X317375000Y-94500000D02*
X317375000Y-90000000D01*
X327075000Y-96950000D02*
X327075000Y-87950000D01*
D14*
%TO.C,U1*%
X254500000Y-63225000D02*
X305500000Y-63225000D01*
X304200000Y-63225000D02*
X305500000Y-61925000D01*
X305500000Y-63225000D02*
X305500000Y-42225000D01*
X254500000Y-42225000D02*
X254500000Y-63225000D01*
X305500000Y-42225000D02*
X254500000Y-42225000D01*
%TO.C,U2*%
X370050000Y-42225000D02*
X319050000Y-42225000D01*
X320350000Y-42225000D02*
X319050000Y-43525000D01*
X319050000Y-42225000D02*
X319050000Y-63225000D01*
X370050000Y-63225000D02*
X370050000Y-42225000D01*
X319050000Y-63225000D02*
X370050000Y-63225000D01*
D13*
%TO.C,J1*%
X311570000Y-95230000D02*
X308570000Y-95230000D01*
X311570000Y-89230000D02*
X311570000Y-95230000D01*
X308570000Y-96530000D02*
X297570000Y-96530000D01*
X308570000Y-95230000D02*
X308570000Y-96530000D01*
X308570000Y-94480000D02*
X308570000Y-95230000D01*
X308570000Y-89980000D02*
X307270000Y-89980000D01*
X308570000Y-89230000D02*
X311570000Y-89230000D01*
X308570000Y-89230000D02*
X308570000Y-89980000D01*
X308570000Y-87530000D02*
X308570000Y-89230000D01*
X308570000Y-87530000D02*
X297570000Y-87530000D01*
X307270000Y-94480000D02*
X308570000Y-94480000D01*
X307270000Y-89980000D02*
X307270000Y-94480000D01*
X297570000Y-87530000D02*
X297570000Y-96530000D01*
%TD*%
M02*
