M48
; DRILL file {KiCad 6.0.11-2627ca5db0~126~ubuntu22.04.1} date to. 16. feb. 2023 kl. 13.48 +0100
; FORMAT={-:-/ absolute / metric / decimal}
; #@! TF.CreationDate,2023-02-16T13:48:54+01:00
; #@! TF.GenerationSoftware,Kicad,Pcbnew,6.0.11-2627ca5db0~126~ubuntu22.04.1
; #@! TF.FileFunction,Plated,1,2,PTH
FMAT,2
METRIC
; #@! TA.AperFunction,Plated,PTH,ViaDrill
T1C0.400
; #@! TA.AperFunction,Plated,PTH,ComponentDrill
T2C0.700
; #@! TA.AperFunction,Plated,PTH,ComponentDrill
T3C0.750
; #@! TA.AperFunction,Plated,PTH,ComponentDrill
T4C0.800
; #@! TA.AperFunction,Plated,PTH,ComponentDrill
T5C0.900
; #@! TA.AperFunction,Plated,PTH,ComponentDrill
T6C1.000
; #@! TA.AperFunction,Plated,PTH,ComponentDrill
T7C1.020
; #@! TA.AperFunction,Plated,PTH,ComponentDrill
T8C1.100
; #@! TA.AperFunction,Plated,PTH,ComponentDrill
T9C1.500
; #@! TA.AperFunction,Plated,PTH,ComponentDrill
T10C4.300
%
G90
G05
T1
X184.0Y-89.0
X201.0Y-95.0
X209.0Y-98.0
X228.0Y-89.0
X228.0Y-96.0
X238.0Y-93.0
X248.0Y-74.0
X250.0Y-84.0
X257.0Y-102.0
X260.735Y-68.462
X264.0Y-95.0
X266.329Y-66.288
X270.0Y-177.0
X271.0Y-104.0
X273.52Y-88.649
X276.0Y-132.0
X278.0Y-144.0
X279.0Y-101.0
X285.0Y-169.0
X286.0Y-158.0
X287.0Y-113.0
X287.0Y-142.0
X287.779Y-54.965
X287.864Y-150.838
X288.0Y-100.0
X289.628Y-73.373
X294.048Y-90.914
X294.048Y-94.13
X297.459Y-65.265
X303.481Y-78.879
X348.0Y-151.0
X351.0Y-166.0
X352.0Y-144.0
X360.0Y-130.0
X361.0Y-102.0
X362.0Y-98.0
X362.0Y-154.0
X363.0Y-146.0
X366.342Y-56.24
X368.881Y-100.338
X369.798Y-88.108
X370.0Y-164.0
X374.97Y-87.458
X378.31Y-45.366
X381.947Y-48.539
X383.0Y-55.0
X392.0Y-67.0
X394.602Y-87.494
X397.0Y-93.0
X398.0Y-68.0
X398.0Y-81.0
X403.0Y-80.0
X405.281Y-72.813
X412.0Y-84.0
X417.0Y-92.0
X426.0Y-106.0
X426.0Y-119.0
X432.0Y-139.0
X432.938Y-39.624
X434.0Y-161.0
X437.0Y-59.0
T2
X107.92Y-56.0
X113.0Y-56.0
X136.92Y-56.0
X142.0Y-56.0
X165.92Y-56.0
X171.0Y-56.0
X193.92Y-56.0
X199.0Y-56.0
X298.46Y-82.5
X298.54Y-99.5
X303.54Y-82.5
X303.62Y-99.5
X320.01Y-82.5
X321.09Y-99.5
X325.09Y-82.5
X326.17Y-99.5
X425.47Y-54.0
X430.55Y-54.0
X454.47Y-54.0
X459.55Y-54.0
X484.55Y-54.0
X489.63Y-54.0
X513.01Y-54.0
X518.09Y-54.0
T3
X426.915Y-50.34
X429.455Y-50.34
X455.615Y-50.44
X458.155Y-50.44
X485.115Y-50.24
X487.655Y-50.24
X512.73Y-50.44
X515.27Y-50.44
T4
X125.1Y-130.0
X127.11Y-112.0
X127.41Y-149.1
X127.7Y-171.38
X131.36Y-192.68
X132.72Y-130.0
X134.73Y-112.0
X135.03Y-149.1
X135.32Y-171.38
X138.98Y-192.68
X151.38Y-84.0
X151.4Y-130.0
X152.96Y-171.38
X153.19Y-192.68
X153.22Y-149.1
X153.38Y-112.0
X159.0Y-84.0
X159.02Y-130.0
X160.58Y-171.38
X160.81Y-192.68
X160.84Y-149.1
X161.0Y-112.0
X172.62Y-103.8
X173.0Y-84.0
X173.41Y-125.0
X173.9Y-145.1
X174.11Y-166.38
X174.2Y-189.5
X180.24Y-103.8
X180.62Y-84.0
X181.03Y-125.0
X181.52Y-145.1
X181.73Y-166.38
X181.82Y-189.5
X192.08Y-100.8
X193.4Y-84.0
X194.35Y-122.0
X195.23Y-143.1
X195.42Y-163.38
X195.5Y-185.8
X199.7Y-100.8
X201.02Y-84.0
X201.97Y-122.0
X202.85Y-143.1
X203.04Y-163.38
X203.12Y-185.8
X214.3Y-102.8
X214.8Y-84.0
X216.11Y-145.1
X216.14Y-125.0
X216.19Y-166.38
X216.5Y-188.8
X221.92Y-102.8
X222.42Y-84.0
X223.73Y-145.1
X223.76Y-125.0
X223.81Y-166.38
X224.12Y-188.8
X234.38Y-84.0
X235.8Y-105.8
X237.38Y-168.38
X237.39Y-147.1
X237.54Y-127.0
X242.0Y-84.0
X243.42Y-105.8
X245.0Y-168.38
X245.01Y-147.1
X245.16Y-127.0
X249.0Y-180.25
X256.28Y-105.8
X256.62Y-180.25
X257.38Y-84.0
X258.19Y-147.1
X258.28Y-168.38
X258.92Y-128.0
X263.9Y-105.8
X265.0Y-84.0
X265.81Y-147.1
X265.9Y-168.38
X266.54Y-128.0
X267.38Y-192.0
X275.0Y-192.0
X276.66Y-171.88
X278.08Y-105.8
X278.52Y-164.28
X278.56Y-132.54
X279.38Y-84.0
X283.89Y-200.285
X284.28Y-171.88
X285.7Y-105.8
X286.14Y-164.28
X286.18Y-132.54
X287.0Y-84.0
X291.51Y-200.285
X335.19Y-202.0
X338.55Y-84.0
X339.41Y-106.005
X340.64Y-163.0
X341.0Y-132.92
X342.56Y-173.971
X342.81Y-202.0
X346.17Y-84.0
X347.03Y-106.005
X348.26Y-163.0
X348.62Y-132.92
X350.18Y-173.971
X353.55Y-191.0
X359.19Y-84.0
X360.56Y-106.005
X361.17Y-191.0
X361.93Y-151.04
X362.52Y-170.525
X362.55Y-129.84
X366.81Y-84.0
X368.18Y-106.005
X369.55Y-151.04
X370.14Y-170.525
X370.17Y-129.84
X370.86Y-181.24
X378.48Y-181.24
X381.0Y-84.0
X381.76Y-105.565
X383.8Y-151.04
X384.52Y-128.7
X384.8Y-171.26
X388.62Y-84.0
X389.38Y-105.565
X391.42Y-151.04
X392.14Y-128.7
X392.42Y-171.26
X401.39Y-84.0
X401.86Y-102.965
X404.71Y-148.84
X405.52Y-126.1
X405.62Y-190.84
X405.72Y-169.26
X409.01Y-84.0
X409.48Y-102.965
X412.33Y-148.84
X413.14Y-126.1
X413.24Y-190.84
X413.34Y-169.26
X423.26Y-101.005
X424.65Y-84.0
X425.2Y-146.04
X426.17Y-188.84
X426.86Y-167.26
X427.1Y-124.84
X430.88Y-101.005
X432.27Y-84.0
X432.82Y-146.04
X433.79Y-188.84
X434.48Y-167.26
X434.72Y-124.84
X444.86Y-105.74
X445.05Y-84.26
X446.19Y-148.565
X447.29Y-190.84
X447.62Y-170.26
X448.02Y-128.84
X452.48Y-105.74
X452.67Y-84.26
X453.81Y-148.565
X454.91Y-190.84
X455.24Y-170.26
X455.64Y-128.84
X465.56Y-108.005
X466.52Y-84.0
X467.19Y-152.04
X468.32Y-173.22
X468.49Y-196.7
X468.5Y-132.2
X473.18Y-108.005
X474.14Y-84.0
X474.81Y-152.04
X475.94Y-173.22
X476.11Y-196.7
X476.12Y-132.2
X490.97Y-195.84
X493.945Y-150.205
X494.045Y-108.065
X494.475Y-172.66
X494.855Y-128.8
X498.59Y-195.84
X501.565Y-150.205
X501.665Y-108.065
X502.095Y-172.66
X502.475Y-128.8
T5
X109.9Y-50.7
X112.44Y-50.7
X138.1Y-51.2
X140.64Y-51.2
X167.4Y-51.0
X169.94Y-51.0
X195.2Y-51.2
X197.74Y-51.2
T6
X223.92Y-53.0
X229.0Y-53.0
X397.01Y-53.0
X402.09Y-53.0
T7
X255.87Y-43.835
X255.87Y-61.615
X256.1Y-50.185
X256.1Y-52.725
X256.1Y-55.265
X258.41Y-43.835
X258.41Y-61.615
X260.95Y-43.835
X260.95Y-61.615
X263.49Y-43.835
X263.49Y-61.615
X266.03Y-43.835
X266.03Y-61.615
X268.57Y-43.835
X268.57Y-61.615
X271.11Y-43.835
X271.11Y-61.615
X273.65Y-43.835
X273.65Y-61.615
X276.19Y-43.835
X276.19Y-61.615
X278.73Y-43.835
X278.73Y-61.615
X281.27Y-43.835
X281.27Y-61.615
X283.81Y-43.835
X283.81Y-61.615
X286.35Y-43.835
X286.35Y-61.615
X288.89Y-43.835
X288.89Y-61.615
X291.43Y-43.835
X291.43Y-61.615
X293.97Y-43.835
X293.97Y-61.615
X296.51Y-43.835
X296.51Y-61.615
X299.05Y-43.835
X299.05Y-61.615
X301.59Y-43.835
X301.59Y-61.615
X304.13Y-43.835
X304.13Y-61.615
X320.42Y-43.835
X320.42Y-61.615
X322.96Y-43.835
X322.96Y-61.615
X325.5Y-43.835
X325.5Y-61.615
X328.04Y-43.835
X328.04Y-61.615
X330.58Y-43.835
X330.58Y-61.615
X333.12Y-43.835
X333.12Y-61.615
X335.66Y-43.835
X335.66Y-61.615
X338.2Y-43.835
X338.2Y-61.615
X340.74Y-43.835
X340.74Y-61.615
X343.28Y-43.835
X343.28Y-61.615
X345.82Y-43.835
X345.82Y-61.615
X348.36Y-43.835
X348.36Y-61.615
X350.9Y-43.835
X350.9Y-61.615
X353.44Y-43.835
X353.44Y-61.615
X355.98Y-43.835
X355.98Y-61.615
X358.52Y-43.835
X358.52Y-61.615
X361.06Y-43.835
X361.06Y-61.615
X363.6Y-43.835
X363.6Y-61.615
X366.14Y-43.835
X366.14Y-61.615
X368.45Y-50.185
X368.45Y-52.725
X368.45Y-55.265
X368.68Y-43.835
X368.68Y-61.615
T8
X297.57Y-90.63
X300.67Y-95.83
X305.67Y-87.43
X305.67Y-96.73
X318.975Y-87.75
X318.975Y-97.05
X323.975Y-88.65
X327.075Y-93.85
T9
X125.19Y-97.06
X125.51Y-117.96
X126.78Y-138.86
X127.19Y-159.94
X131.54Y-94.52
X131.65Y-181.14
X131.86Y-115.42
X133.13Y-136.32
X133.54Y-157.4
X138.0Y-178.6
X151.19Y-73.06
X151.27Y-97.26
X151.49Y-117.96
X152.62Y-138.76
X153.15Y-159.74
X153.19Y-181.04
X157.54Y-70.52
X157.62Y-94.72
X157.84Y-115.42
X158.97Y-136.22
X159.5Y-157.2
X159.54Y-178.5
X171.81Y-92.26
X171.99Y-73.16
X173.11Y-113.26
X173.52Y-134.06
X174.11Y-155.14
X174.19Y-178.06
X178.16Y-89.72
X178.34Y-70.62
X179.46Y-110.72
X179.87Y-131.52
X180.46Y-152.6
X180.54Y-175.52
X192.49Y-89.66
X193.19Y-73.16
X194.33Y-110.66
X194.83Y-131.66
X195.11Y-152.64
X195.19Y-174.06
X198.84Y-87.12
X199.54Y-70.62
X200.68Y-108.12
X201.18Y-129.12
X201.46Y-150.1
X201.54Y-171.52
X213.99Y-92.16
X214.19Y-73.06
X215.73Y-113.16
X216.03Y-134.06
X216.19Y-155.24
X216.19Y-176.46
X220.34Y-89.62
X220.54Y-70.52
X222.08Y-110.62
X222.38Y-131.52
X222.54Y-152.7
X222.54Y-173.92
X235.09Y-94.36
X235.19Y-72.96
X237.03Y-115.46
X237.19Y-157.54
X237.21Y-136.36
X241.44Y-91.82
X241.54Y-70.42
X243.38Y-112.92
X243.54Y-155.0
X243.56Y-133.82
X245.43Y-187.065
X252.2Y-188.041
X256.19Y-94.46
X257.19Y-73.26
X258.11Y-115.46
X258.19Y-136.46
X258.19Y-157.54
X262.54Y-91.92
X263.51Y-197.615
X263.54Y-70.72
X264.46Y-112.92
X264.54Y-133.92
X264.54Y-155.0
X270.28Y-198.591
X273.97Y-179.895
X277.92Y-120.46
X278.1Y-151.46
X278.99Y-73.16
X279.19Y-94.46
X280.46Y-126.81
X280.64Y-157.81
X280.74Y-180.871
X282.0Y-208.0
X285.34Y-70.62
X285.54Y-91.92
X288.769Y-208.975
X338.32Y-73.3
X338.82Y-121.08
X338.84Y-212.365
X338.92Y-151.46
X340.19Y-94.54
X341.36Y-127.43
X341.46Y-157.81
X343.07Y-206.991
X344.67Y-70.76
X346.43Y-183.705
X346.54Y-92.0
X350.66Y-178.331
X356.9Y-201.465
X359.19Y-73.2
X360.86Y-94.44
X361.13Y-196.091
X362.32Y-138.54
X362.52Y-159.46
X362.62Y-116.54
X365.54Y-70.66
X367.21Y-91.9
X368.67Y-136.0
X368.87Y-156.92
X368.97Y-114.0
X375.43Y-190.705
X379.66Y-185.331
X380.53Y-73.3
X381.86Y-94.2
X383.19Y-138.44
X384.19Y-116.3
X384.19Y-159.26
X386.88Y-70.76
X388.21Y-91.66
X389.54Y-135.9
X390.54Y-113.76
X390.54Y-156.72
X402.27Y-73.32
X402.86Y-92.2
X404.0Y-136.04
X405.19Y-113.3
X405.19Y-157.16
X405.19Y-178.54
X408.62Y-70.78
X409.21Y-89.66
X410.35Y-133.5
X411.54Y-110.76
X411.54Y-154.62
X411.54Y-176.0
X423.86Y-89.94
X424.19Y-73.4
X425.19Y-133.84
X426.19Y-111.84
X426.19Y-154.68
X426.26Y-175.94
X430.21Y-87.4
X430.54Y-70.86
X431.54Y-131.3
X432.54Y-109.3
X432.54Y-152.14
X432.61Y-173.4
X444.86Y-94.54
X445.19Y-73.46
X446.19Y-136.5
X447.19Y-116.44
X447.19Y-157.26
X447.26Y-178.64
X451.21Y-92.0
X451.54Y-70.92
X452.54Y-133.96
X453.54Y-113.9
X453.54Y-154.72
X453.61Y-176.1
X465.86Y-97.04
X466.19Y-73.3
X467.19Y-140.84
X468.19Y-119.3
X468.19Y-160.72
X468.26Y-183.3
X472.21Y-94.5
X472.54Y-70.76
X473.54Y-138.3
X474.54Y-116.76
X474.54Y-158.18
X474.61Y-180.76
X490.26Y-183.54
X493.945Y-139.26
X494.045Y-97.0
X494.045Y-118.34
X494.245Y-160.26
X496.61Y-181.0
X500.295Y-136.72
X500.395Y-94.46
X500.395Y-115.8
X500.595Y-157.72
T10
X92.1Y-129.0
X92.2Y-34.1
X93.0Y-228.0
X197.6Y-34.1
X198.4Y-228.0
X300.9Y-128.8
X302.2Y-227.8
X302.75Y-32.6
X322.0Y-32.65
X323.55Y-128.9
X324.75Y-228.0
X426.55Y-32.65
X427.4Y-229.45
X529.0Y-129.0
X529.85Y-32.6
X530.75Y-229.45
T0
M30
