%TF.GenerationSoftware,KiCad,Pcbnew,6.0.11-2627ca5db0~126~ubuntu22.04.1*%
%TF.CreationDate,2023-02-16T13:48:58+01:00*%
%TF.ProjectId,Europe-ergo,4575726f-7065-42d6-9572-676f2e6b6963,rev?*%
%TF.SameCoordinates,Original*%
%TF.FileFunction,Legend,Bot*%
%TF.FilePolarity,Positive*%
%FSLAX46Y46*%
G04 Gerber Fmt 4.6, Leading zero omitted, Abs format (unit mm)*
G04 Created by KiCad (PCBNEW 6.0.11-2627ca5db0~126~ubuntu22.04.1) date 2023-02-16 13:48:58*
%MOMM*%
%LPD*%
G01*
G04 APERTURE LIST*
%ADD10C,0.150000*%
%ADD11C,0.120150*%
%ADD12C,0.127000*%
%ADD13C,0.400000*%
%ADD14C,0.120000*%
%ADD15R,1.600000X1.600000*%
%ADD16O,1.600000X1.600000*%
%ADD17C,7.500000*%
%ADD18C,1.700000*%
%ADD19C,4.000000*%
%ADD20C,2.200000*%
%ADD21R,1.500000X1.500000*%
%ADD22O,1.500000X1.500000*%
%ADD23C,1.400000*%
%ADD24O,1.400000X1.400000*%
%ADD25R,1.800000X1.800000*%
%ADD26O,1.800000X1.800000*%
%ADD27C,1.100000*%
%ADD28R,1.650000X1.650000*%
%ADD29C,1.650000*%
%ADD30O,1.700000X1.700000*%
%ADD31R,1.700000X3.500000*%
%ADD32R,1.700000X1.700000*%
%ADD33R,3.500000X1.700000*%
G04 APERTURE END LIST*
D10*
%TO.C,SW48*%
X397994476Y-54627238D02*
X398137333Y-54579619D01*
X398375428Y-54579619D01*
X398470666Y-54627238D01*
X398518285Y-54674857D01*
X398565904Y-54770095D01*
X398565904Y-54865333D01*
X398518285Y-54960571D01*
X398470666Y-55008190D01*
X398375428Y-55055809D01*
X398184952Y-55103428D01*
X398089714Y-55151047D01*
X398042095Y-55198666D01*
X397994476Y-55293904D01*
X397994476Y-55389142D01*
X398042095Y-55484380D01*
X398089714Y-55532000D01*
X398184952Y-55579619D01*
X398423047Y-55579619D01*
X398565904Y-55532000D01*
X398899238Y-55579619D02*
X399137333Y-54579619D01*
X399327809Y-55293904D01*
X399518285Y-54579619D01*
X399756380Y-55579619D01*
X400565904Y-55246285D02*
X400565904Y-54579619D01*
X400327809Y-55627238D02*
X400089714Y-54912952D01*
X400708761Y-54912952D01*
X401232571Y-55151047D02*
X401137333Y-55198666D01*
X401089714Y-55246285D01*
X401042095Y-55341523D01*
X401042095Y-55389142D01*
X401089714Y-55484380D01*
X401137333Y-55532000D01*
X401232571Y-55579619D01*
X401423047Y-55579619D01*
X401518285Y-55532000D01*
X401565904Y-55484380D01*
X401613523Y-55389142D01*
X401613523Y-55341523D01*
X401565904Y-55246285D01*
X401518285Y-55198666D01*
X401423047Y-55151047D01*
X401232571Y-55151047D01*
X401137333Y-55103428D01*
X401089714Y-55055809D01*
X401042095Y-54960571D01*
X401042095Y-54770095D01*
X401089714Y-54674857D01*
X401137333Y-54627238D01*
X401232571Y-54579619D01*
X401423047Y-54579619D01*
X401518285Y-54627238D01*
X401565904Y-54674857D01*
X401613523Y-54770095D01*
X401613523Y-54960571D01*
X401565904Y-55055809D01*
X401518285Y-55103428D01*
X401423047Y-55151047D01*
D11*
%TO.C,J1*%
X318755496Y-98800085D02*
X318755496Y-99143369D01*
X318778381Y-99212026D01*
X318824153Y-99257797D01*
X318892810Y-99280683D01*
X318938581Y-99280683D01*
X318274898Y-99280683D02*
X318549525Y-99280683D01*
X318412212Y-99280683D02*
X318412212Y-98800085D01*
X318457983Y-98868742D01*
X318503754Y-98914513D01*
X318549525Y-98937399D01*
D10*
%TO.C,U2*%
X279452380Y-51963095D02*
X280261904Y-51963095D01*
X280357142Y-52010714D01*
X280404761Y-52058333D01*
X280452380Y-52153571D01*
X280452380Y-52344047D01*
X280404761Y-52439285D01*
X280357142Y-52486904D01*
X280261904Y-52534523D01*
X279452380Y-52534523D01*
X279547619Y-52963095D02*
X279500000Y-53010714D01*
X279452380Y-53105952D01*
X279452380Y-53344047D01*
X279500000Y-53439285D01*
X279547619Y-53486904D01*
X279642857Y-53534523D01*
X279738095Y-53534523D01*
X279880952Y-53486904D01*
X280452380Y-52915476D01*
X280452380Y-53534523D01*
X287440964Y-38768597D02*
X287171590Y-39037971D01*
X287656463Y-38876346D02*
X286902216Y-38499223D01*
X287279340Y-39253470D01*
X286255719Y-39199595D02*
X286282656Y-39118783D01*
X286363468Y-39037971D01*
X286471218Y-38984096D01*
X286578967Y-38984096D01*
X286659780Y-39011033D01*
X286794467Y-39091845D01*
X286875279Y-39172658D01*
X286956091Y-39307345D01*
X286983028Y-39388157D01*
X286983028Y-39495906D01*
X286929154Y-39603656D01*
X286875279Y-39657531D01*
X286767529Y-39711406D01*
X286713654Y-39711406D01*
X286525093Y-39522844D01*
X286632842Y-39415094D01*
X286525093Y-40007717D02*
X285959407Y-39442032D01*
X286201844Y-40330966D01*
X285636158Y-39765280D01*
X285932470Y-40600340D02*
X285366784Y-40034654D01*
X285232097Y-40169341D01*
X285178223Y-40277091D01*
X285178223Y-40384841D01*
X285205160Y-40465653D01*
X285285972Y-40600340D01*
X285366784Y-40681152D01*
X285501471Y-40761964D01*
X285582284Y-40788902D01*
X285690033Y-40788902D01*
X285797783Y-40735027D01*
X285932470Y-40600340D01*
X291551218Y-64838096D02*
X291578155Y-64757284D01*
X291658967Y-64676471D01*
X291766717Y-64622597D01*
X291874467Y-64622597D01*
X291955279Y-64649534D01*
X292089966Y-64730346D01*
X292170778Y-64811158D01*
X292251590Y-64945845D01*
X292278528Y-65026658D01*
X292278528Y-65134407D01*
X292224653Y-65242157D01*
X292170778Y-65296032D01*
X292063028Y-65349906D01*
X292009154Y-65349906D01*
X291820592Y-65161345D01*
X291928341Y-65053595D01*
X291820592Y-65646218D02*
X291254906Y-65080532D01*
X291039407Y-65296032D01*
X291012470Y-65376844D01*
X291012470Y-65430719D01*
X291039407Y-65511531D01*
X291120219Y-65592343D01*
X291201032Y-65619280D01*
X291254906Y-65619280D01*
X291335719Y-65592343D01*
X291551218Y-65376844D01*
X290635346Y-66077216D02*
X291012470Y-66454340D01*
X290554534Y-65727030D02*
X291093282Y-65996404D01*
X290743096Y-66346590D01*
X283931218Y-64838096D02*
X283958155Y-64757284D01*
X284038967Y-64676471D01*
X284146717Y-64622597D01*
X284254467Y-64622597D01*
X284335279Y-64649534D01*
X284469966Y-64730346D01*
X284550778Y-64811158D01*
X284631590Y-64945845D01*
X284658528Y-65026658D01*
X284658528Y-65134407D01*
X284604653Y-65242157D01*
X284550778Y-65296032D01*
X284443028Y-65349906D01*
X284389154Y-65349906D01*
X284200592Y-65161345D01*
X284308341Y-65053595D01*
X284200592Y-65646218D02*
X283634906Y-65080532D01*
X283419407Y-65296032D01*
X283392470Y-65376844D01*
X283392470Y-65430719D01*
X283419407Y-65511531D01*
X283500219Y-65592343D01*
X283581032Y-65619280D01*
X283634906Y-65619280D01*
X283715719Y-65592343D01*
X283931218Y-65376844D01*
X282826784Y-65888654D02*
X282934534Y-65780905D01*
X283015346Y-65753967D01*
X283069221Y-65753967D01*
X283203908Y-65780905D01*
X283338595Y-65861717D01*
X283554094Y-66077216D01*
X283581032Y-66158028D01*
X283581032Y-66211903D01*
X283554094Y-66292715D01*
X283446345Y-66400465D01*
X283365532Y-66427402D01*
X283311658Y-66427402D01*
X283230845Y-66400465D01*
X283096158Y-66265778D01*
X283069221Y-66184966D01*
X283069221Y-66131091D01*
X283096158Y-66050279D01*
X283203908Y-65942529D01*
X283284720Y-65915592D01*
X283338595Y-65915592D01*
X283419407Y-65942529D01*
X286498155Y-64811158D02*
X286525093Y-64730346D01*
X286605905Y-64649534D01*
X286713654Y-64595659D01*
X286821404Y-64595659D01*
X286902216Y-64622597D01*
X287036903Y-64703409D01*
X287117715Y-64784221D01*
X287198528Y-64918908D01*
X287225465Y-64999720D01*
X287225465Y-65107470D01*
X287171590Y-65215219D01*
X287117715Y-65269094D01*
X287009966Y-65322969D01*
X286956091Y-65322969D01*
X286767529Y-65134407D01*
X286875279Y-65026658D01*
X286767529Y-65619280D02*
X286201844Y-65053595D01*
X286444280Y-65942529D01*
X285878595Y-65376844D01*
X286174906Y-66211903D02*
X285609221Y-65646218D01*
X285474534Y-65780905D01*
X285420659Y-65888654D01*
X285420659Y-65996404D01*
X285447597Y-66077216D01*
X285528409Y-66211903D01*
X285609221Y-66292715D01*
X285743908Y-66373528D01*
X285824720Y-66400465D01*
X285932470Y-66400465D01*
X286040219Y-66346590D01*
X286174906Y-66211903D01*
X268960592Y-64968722D02*
X268987529Y-64887910D01*
X269068341Y-64807097D01*
X269176091Y-64753223D01*
X269283841Y-64753223D01*
X269364653Y-64780160D01*
X269499340Y-64860972D01*
X269580152Y-64941784D01*
X269660964Y-65076471D01*
X269687902Y-65157284D01*
X269687902Y-65265033D01*
X269634027Y-65372783D01*
X269580152Y-65426658D01*
X269472402Y-65480532D01*
X269418528Y-65480532D01*
X269229966Y-65291971D01*
X269337715Y-65184221D01*
X269229966Y-65776844D02*
X268664280Y-65211158D01*
X268448781Y-65426658D01*
X268421844Y-65507470D01*
X268421844Y-65561345D01*
X268448781Y-65642157D01*
X268529593Y-65722969D01*
X268610406Y-65749906D01*
X268664280Y-65749906D01*
X268745093Y-65722969D01*
X268960592Y-65507470D01*
X268367969Y-66638841D02*
X268691218Y-66315592D01*
X268529593Y-66477216D02*
X267963908Y-65911531D01*
X268098595Y-65938468D01*
X268206345Y-65938468D01*
X268287157Y-65911531D01*
X267829221Y-67177589D02*
X268152470Y-66854340D01*
X267990845Y-67015964D02*
X267425160Y-66450279D01*
X267559847Y-66477216D01*
X267667597Y-66477216D01*
X267748409Y-66450279D01*
X299198155Y-64811158D02*
X299225093Y-64730346D01*
X299305905Y-64649534D01*
X299413654Y-64595659D01*
X299521404Y-64595659D01*
X299602216Y-64622597D01*
X299736903Y-64703409D01*
X299817715Y-64784221D01*
X299898528Y-64918908D01*
X299925465Y-64999720D01*
X299925465Y-65107470D01*
X299871590Y-65215219D01*
X299817715Y-65269094D01*
X299709966Y-65322969D01*
X299656091Y-65322969D01*
X299467529Y-65134407D01*
X299575279Y-65026658D01*
X299467529Y-65619280D02*
X298901844Y-65053595D01*
X299144280Y-65942529D01*
X298578595Y-65376844D01*
X298874906Y-66211903D02*
X298309221Y-65646218D01*
X298174534Y-65780905D01*
X298120659Y-65888654D01*
X298120659Y-65996404D01*
X298147597Y-66077216D01*
X298228409Y-66211903D01*
X298309221Y-66292715D01*
X298443908Y-66373528D01*
X298524720Y-66400465D01*
X298632470Y-66400465D01*
X298740219Y-66346590D01*
X298874906Y-66211903D01*
X258800592Y-38714722D02*
X258827529Y-38633910D01*
X258908341Y-38553097D01*
X259016091Y-38499223D01*
X259123841Y-38499223D01*
X259204653Y-38526160D01*
X259339340Y-38606972D01*
X259420152Y-38687784D01*
X259500964Y-38822471D01*
X259527902Y-38903284D01*
X259527902Y-39011033D01*
X259474027Y-39118783D01*
X259420152Y-39172658D01*
X259312402Y-39226532D01*
X259258528Y-39226532D01*
X259069966Y-39037971D01*
X259177715Y-38930221D01*
X259069966Y-39522844D02*
X258504280Y-38957158D01*
X258288781Y-39172658D01*
X258261844Y-39253470D01*
X258261844Y-39307345D01*
X258288781Y-39388157D01*
X258369593Y-39468969D01*
X258450406Y-39495906D01*
X258504280Y-39495906D01*
X258585093Y-39468969D01*
X258800592Y-39253470D01*
X258207969Y-40384841D02*
X258531218Y-40061592D01*
X258369593Y-40223216D02*
X257803908Y-39657531D01*
X257938595Y-39684468D01*
X258046345Y-39684468D01*
X258127157Y-39657531D01*
X257453722Y-40007717D02*
X257076598Y-40384841D01*
X257884720Y-40708089D01*
X304927309Y-38078129D02*
X305304433Y-38832377D01*
X304550186Y-38455253D01*
X304442436Y-39101751D02*
X304388561Y-39209500D01*
X304388561Y-39263375D01*
X304415499Y-39344187D01*
X304496311Y-39424999D01*
X304577123Y-39451937D01*
X304630998Y-39451937D01*
X304711810Y-39424999D01*
X304927309Y-39209500D01*
X304361624Y-38643815D01*
X304173062Y-38832377D01*
X304146125Y-38913189D01*
X304146125Y-38967064D01*
X304173062Y-39047876D01*
X304226937Y-39101751D01*
X304307749Y-39128688D01*
X304361624Y-39128688D01*
X304442436Y-39101751D01*
X304630998Y-38913189D01*
X303795938Y-39209500D02*
X304253874Y-39667436D01*
X304280812Y-39748248D01*
X304280812Y-39802123D01*
X304253874Y-39882935D01*
X304146125Y-39990685D01*
X304065312Y-40017622D01*
X304011438Y-40017622D01*
X303930625Y-39990685D01*
X303472690Y-39532749D01*
X303769001Y-40313934D02*
X303715126Y-40421683D01*
X303580439Y-40556370D01*
X303499627Y-40583308D01*
X303445752Y-40583308D01*
X303364940Y-40556370D01*
X303311065Y-40502496D01*
X303284128Y-40421683D01*
X303284128Y-40367809D01*
X303311065Y-40286996D01*
X303391877Y-40152309D01*
X303418815Y-40071497D01*
X303418815Y-40017622D01*
X303391877Y-39936810D01*
X303338003Y-39882935D01*
X303257190Y-39855998D01*
X303203316Y-39855998D01*
X303122503Y-39882935D01*
X302987816Y-40017622D01*
X302933942Y-40125372D01*
X289534592Y-38714722D02*
X289561529Y-38633910D01*
X289642341Y-38553097D01*
X289750091Y-38499223D01*
X289857841Y-38499223D01*
X289938653Y-38526160D01*
X290073340Y-38606972D01*
X290154152Y-38687784D01*
X290234964Y-38822471D01*
X290261902Y-38903284D01*
X290261902Y-39011033D01*
X290208027Y-39118783D01*
X290154152Y-39172658D01*
X290046402Y-39226532D01*
X289992528Y-39226532D01*
X289803966Y-39037971D01*
X289911715Y-38930221D01*
X289803966Y-39522844D02*
X289238280Y-38957158D01*
X289022781Y-39172658D01*
X288995844Y-39253470D01*
X288995844Y-39307345D01*
X289022781Y-39388157D01*
X289103593Y-39468969D01*
X289184406Y-39495906D01*
X289238280Y-39495906D01*
X289319093Y-39468969D01*
X289534592Y-39253470D01*
X288753407Y-39549781D02*
X288699532Y-39549781D01*
X288618720Y-39576719D01*
X288484033Y-39711406D01*
X288457096Y-39792218D01*
X288457096Y-39846093D01*
X288484033Y-39926905D01*
X288537908Y-39980780D01*
X288645658Y-40034654D01*
X289292155Y-40034654D01*
X288941969Y-40384841D01*
X288295471Y-40384841D02*
X288322409Y-40304028D01*
X288322409Y-40250154D01*
X288295471Y-40169341D01*
X288268534Y-40142404D01*
X288187722Y-40115467D01*
X288133847Y-40115467D01*
X288053035Y-40142404D01*
X287945285Y-40250154D01*
X287918348Y-40330966D01*
X287918348Y-40384841D01*
X287945285Y-40465653D01*
X287972223Y-40492590D01*
X288053035Y-40519528D01*
X288106910Y-40519528D01*
X288187722Y-40492590D01*
X288295471Y-40384841D01*
X288376284Y-40357903D01*
X288430158Y-40357903D01*
X288510971Y-40384841D01*
X288618720Y-40492590D01*
X288645658Y-40573402D01*
X288645658Y-40627277D01*
X288618720Y-40708089D01*
X288510971Y-40815839D01*
X288430158Y-40842776D01*
X288376284Y-40842776D01*
X288295471Y-40815839D01*
X288187722Y-40708089D01*
X288160784Y-40627277D01*
X288160784Y-40573402D01*
X288187722Y-40492590D01*
X273798155Y-64811158D02*
X273825093Y-64730346D01*
X273905905Y-64649534D01*
X274013654Y-64595659D01*
X274121404Y-64595659D01*
X274202216Y-64622597D01*
X274336903Y-64703409D01*
X274417715Y-64784221D01*
X274498528Y-64918908D01*
X274525465Y-64999720D01*
X274525465Y-65107470D01*
X274471590Y-65215219D01*
X274417715Y-65269094D01*
X274309966Y-65322969D01*
X274256091Y-65322969D01*
X274067529Y-65134407D01*
X274175279Y-65026658D01*
X274067529Y-65619280D02*
X273501844Y-65053595D01*
X273744280Y-65942529D01*
X273178595Y-65376844D01*
X273474906Y-66211903D02*
X272909221Y-65646218D01*
X272774534Y-65780905D01*
X272720659Y-65888654D01*
X272720659Y-65996404D01*
X272747597Y-66077216D01*
X272828409Y-66211903D01*
X272909221Y-66292715D01*
X273043908Y-66373528D01*
X273124720Y-66400465D01*
X273232470Y-66400465D01*
X273340219Y-66346590D01*
X273474906Y-66211903D01*
X289011218Y-64838096D02*
X289038155Y-64757284D01*
X289118967Y-64676471D01*
X289226717Y-64622597D01*
X289334467Y-64622597D01*
X289415279Y-64649534D01*
X289549966Y-64730346D01*
X289630778Y-64811158D01*
X289711590Y-64945845D01*
X289738528Y-65026658D01*
X289738528Y-65134407D01*
X289684653Y-65242157D01*
X289630778Y-65296032D01*
X289523028Y-65349906D01*
X289469154Y-65349906D01*
X289280592Y-65161345D01*
X289388341Y-65053595D01*
X289280592Y-65646218D02*
X288714906Y-65080532D01*
X288499407Y-65296032D01*
X288472470Y-65376844D01*
X288472470Y-65430719D01*
X288499407Y-65511531D01*
X288580219Y-65592343D01*
X288661032Y-65619280D01*
X288714906Y-65619280D01*
X288795719Y-65592343D01*
X289011218Y-65376844D01*
X287879847Y-65915592D02*
X288149221Y-65646218D01*
X288445532Y-65888654D01*
X288391658Y-65888654D01*
X288310845Y-65915592D01*
X288176158Y-66050279D01*
X288149221Y-66131091D01*
X288149221Y-66184966D01*
X288176158Y-66265778D01*
X288310845Y-66400465D01*
X288391658Y-66427402D01*
X288445532Y-66427402D01*
X288526345Y-66400465D01*
X288661032Y-66265778D01*
X288687969Y-66184966D01*
X288687969Y-66131091D01*
X294290592Y-38814847D02*
X293940406Y-39165033D01*
X294344467Y-39191971D01*
X294263654Y-39272783D01*
X294236717Y-39353595D01*
X294236717Y-39407470D01*
X294263654Y-39488282D01*
X294398341Y-39622969D01*
X294479154Y-39649906D01*
X294533028Y-39649906D01*
X294613841Y-39622969D01*
X294775465Y-39461345D01*
X294802402Y-39380532D01*
X294802402Y-39326658D01*
X293778781Y-39326658D02*
X294155905Y-40080905D01*
X293401658Y-39703781D01*
X293266971Y-39838468D02*
X292916784Y-40188654D01*
X293320845Y-40215592D01*
X293240033Y-40296404D01*
X293213096Y-40377216D01*
X293213096Y-40431091D01*
X293240033Y-40511903D01*
X293374720Y-40646590D01*
X293455532Y-40673528D01*
X293509407Y-40673528D01*
X293590219Y-40646590D01*
X293751844Y-40484966D01*
X293778781Y-40404154D01*
X293778781Y-40350279D01*
X301721218Y-64938096D02*
X301748155Y-64857284D01*
X301828967Y-64776471D01*
X301936717Y-64722597D01*
X302044467Y-64722597D01*
X302125279Y-64749534D01*
X302259966Y-64830346D01*
X302340778Y-64911158D01*
X302421590Y-65045845D01*
X302448528Y-65126658D01*
X302448528Y-65234407D01*
X302394653Y-65342157D01*
X302340778Y-65396032D01*
X302233028Y-65449906D01*
X302179154Y-65449906D01*
X301990592Y-65261345D01*
X302098341Y-65153595D01*
X301990592Y-65746218D02*
X301424906Y-65180532D01*
X301209407Y-65396032D01*
X301182470Y-65476844D01*
X301182470Y-65530719D01*
X301209407Y-65611531D01*
X301290219Y-65692343D01*
X301371032Y-65719280D01*
X301424906Y-65719280D01*
X301505719Y-65692343D01*
X301721218Y-65476844D01*
X301128595Y-66608215D02*
X301451844Y-66284966D01*
X301290219Y-66446590D02*
X300724534Y-65880905D01*
X300859221Y-65907842D01*
X300966971Y-65907842D01*
X301047783Y-65880905D01*
X281660592Y-38714722D02*
X281687529Y-38633910D01*
X281768341Y-38553097D01*
X281876091Y-38499223D01*
X281983841Y-38499223D01*
X282064653Y-38526160D01*
X282199340Y-38606972D01*
X282280152Y-38687784D01*
X282360964Y-38822471D01*
X282387902Y-38903284D01*
X282387902Y-39011033D01*
X282334027Y-39118783D01*
X282280152Y-39172658D01*
X282172402Y-39226532D01*
X282118528Y-39226532D01*
X281929966Y-39037971D01*
X282037715Y-38930221D01*
X281929966Y-39522844D02*
X281364280Y-38957158D01*
X281148781Y-39172658D01*
X281121844Y-39253470D01*
X281121844Y-39307345D01*
X281148781Y-39388157D01*
X281229593Y-39468969D01*
X281310406Y-39495906D01*
X281364280Y-39495906D01*
X281445093Y-39468969D01*
X281660592Y-39253470D01*
X280879407Y-39549781D02*
X280825532Y-39549781D01*
X280744720Y-39576719D01*
X280610033Y-39711406D01*
X280583096Y-39792218D01*
X280583096Y-39846093D01*
X280610033Y-39926905D01*
X280663908Y-39980780D01*
X280771658Y-40034654D01*
X281418155Y-40034654D01*
X281067969Y-40384841D01*
X280017410Y-40304028D02*
X280125160Y-40196279D01*
X280205972Y-40169341D01*
X280259847Y-40169341D01*
X280394534Y-40196279D01*
X280529221Y-40277091D01*
X280744720Y-40492590D01*
X280771658Y-40573402D01*
X280771658Y-40627277D01*
X280744720Y-40708089D01*
X280636971Y-40815839D01*
X280556158Y-40842776D01*
X280502284Y-40842776D01*
X280421471Y-40815839D01*
X280286784Y-40681152D01*
X280259847Y-40600340D01*
X280259847Y-40546465D01*
X280286784Y-40465653D01*
X280394534Y-40357903D01*
X280475346Y-40330966D01*
X280529221Y-40330966D01*
X280610033Y-40357903D01*
X254123809Y-45429761D02*
X254161904Y-45544047D01*
X254161904Y-45734523D01*
X254123809Y-45810714D01*
X254085714Y-45848809D01*
X254009523Y-45886904D01*
X253933333Y-45886904D01*
X253857142Y-45848809D01*
X253819047Y-45810714D01*
X253780952Y-45734523D01*
X253742857Y-45582142D01*
X253704761Y-45505952D01*
X253666666Y-45467857D01*
X253590476Y-45429761D01*
X253514285Y-45429761D01*
X253438095Y-45467857D01*
X253400000Y-45505952D01*
X253361904Y-45582142D01*
X253361904Y-45772619D01*
X253400000Y-45886904D01*
X253361904Y-46153571D02*
X254161904Y-46344047D01*
X253590476Y-46496428D01*
X254161904Y-46648809D01*
X253361904Y-46839285D01*
X254161904Y-47144047D02*
X253361904Y-47144047D01*
X253361904Y-47334523D01*
X253400000Y-47448809D01*
X253476190Y-47525000D01*
X253552380Y-47563095D01*
X253704761Y-47601190D01*
X253819047Y-47601190D01*
X253971428Y-47563095D01*
X254047619Y-47525000D01*
X254123809Y-47448809D01*
X254161904Y-47334523D01*
X254161904Y-47144047D01*
X254161904Y-47944047D02*
X253361904Y-47944047D01*
X253361904Y-48477380D02*
X253361904Y-48629761D01*
X253400000Y-48705952D01*
X253476190Y-48782142D01*
X253628571Y-48820238D01*
X253895238Y-48820238D01*
X254047619Y-48782142D01*
X254123809Y-48705952D01*
X254161904Y-48629761D01*
X254161904Y-48477380D01*
X254123809Y-48401190D01*
X254047619Y-48325000D01*
X253895238Y-48286904D01*
X253628571Y-48286904D01*
X253476190Y-48325000D01*
X253400000Y-48401190D01*
X253361904Y-48477380D01*
X298358308Y-37247131D02*
X298008122Y-37597317D01*
X298412183Y-37624255D01*
X298331370Y-37705067D01*
X298304433Y-37785879D01*
X298304433Y-37839754D01*
X298331370Y-37920566D01*
X298466057Y-38055253D01*
X298546870Y-38082190D01*
X298600744Y-38082190D01*
X298681557Y-38055253D01*
X298843181Y-37893629D01*
X298870118Y-37812816D01*
X298870118Y-37758942D01*
X297846497Y-37758942D02*
X298223621Y-38513189D01*
X297469374Y-38136065D01*
X297334687Y-38270752D02*
X296984500Y-38620938D01*
X297388561Y-38647876D01*
X297307749Y-38728688D01*
X297280812Y-38809500D01*
X297280812Y-38863375D01*
X297307749Y-38944187D01*
X297442436Y-39078874D01*
X297523248Y-39105812D01*
X297577123Y-39105812D01*
X297657935Y-39078874D01*
X297819560Y-38917250D01*
X297846497Y-38836438D01*
X297846497Y-38782563D01*
X297496311Y-39348248D02*
X297065312Y-39779247D01*
X296580439Y-39563748D02*
X296391877Y-39752309D01*
X296607377Y-40129433D02*
X296876751Y-39860059D01*
X296311065Y-39294374D01*
X296041691Y-39563748D01*
X296364940Y-40371870D02*
X295799255Y-39806184D01*
X296041691Y-40695118D01*
X295476006Y-40129433D01*
X271490592Y-38714722D02*
X271517529Y-38633910D01*
X271598341Y-38553097D01*
X271706091Y-38499223D01*
X271813841Y-38499223D01*
X271894653Y-38526160D01*
X272029340Y-38606972D01*
X272110152Y-38687784D01*
X272190964Y-38822471D01*
X272217902Y-38903284D01*
X272217902Y-39011033D01*
X272164027Y-39118783D01*
X272110152Y-39172658D01*
X272002402Y-39226532D01*
X271948528Y-39226532D01*
X271759966Y-39037971D01*
X271867715Y-38930221D01*
X271759966Y-39522844D02*
X271194280Y-38957158D01*
X270978781Y-39172658D01*
X270951844Y-39253470D01*
X270951844Y-39307345D01*
X270978781Y-39388157D01*
X271059593Y-39468969D01*
X271140406Y-39495906D01*
X271194280Y-39495906D01*
X271275093Y-39468969D01*
X271490592Y-39253470D01*
X270709407Y-39549781D02*
X270655532Y-39549781D01*
X270574720Y-39576719D01*
X270440033Y-39711406D01*
X270413096Y-39792218D01*
X270413096Y-39846093D01*
X270440033Y-39926905D01*
X270493908Y-39980780D01*
X270601658Y-40034654D01*
X271248155Y-40034654D01*
X270897969Y-40384841D01*
X270359221Y-40923589D02*
X270682470Y-40600340D01*
X270520845Y-40761964D02*
X269955160Y-40196279D01*
X270089847Y-40223216D01*
X270197597Y-40223216D01*
X270278409Y-40196279D01*
X266420592Y-38714722D02*
X266447529Y-38633910D01*
X266528341Y-38553097D01*
X266636091Y-38499223D01*
X266743841Y-38499223D01*
X266824653Y-38526160D01*
X266959340Y-38606972D01*
X267040152Y-38687784D01*
X267120964Y-38822471D01*
X267147902Y-38903284D01*
X267147902Y-39011033D01*
X267094027Y-39118783D01*
X267040152Y-39172658D01*
X266932402Y-39226532D01*
X266878528Y-39226532D01*
X266689966Y-39037971D01*
X266797715Y-38930221D01*
X266689966Y-39522844D02*
X266124280Y-38957158D01*
X265908781Y-39172658D01*
X265881844Y-39253470D01*
X265881844Y-39307345D01*
X265908781Y-39388157D01*
X265989593Y-39468969D01*
X266070406Y-39495906D01*
X266124280Y-39495906D01*
X266205093Y-39468969D01*
X266420592Y-39253470D01*
X265827969Y-40384841D02*
X266151218Y-40061592D01*
X265989593Y-40223216D02*
X265423908Y-39657531D01*
X265558595Y-39684468D01*
X265666345Y-39684468D01*
X265747157Y-39657531D01*
X265558595Y-40654215D02*
X265450845Y-40761964D01*
X265370033Y-40788902D01*
X265316158Y-40788902D01*
X265181471Y-40761964D01*
X265046784Y-40681152D01*
X264831285Y-40465653D01*
X264804348Y-40384841D01*
X264804348Y-40330966D01*
X264831285Y-40250154D01*
X264939035Y-40142404D01*
X265019847Y-40115467D01*
X265073722Y-40115467D01*
X265154534Y-40142404D01*
X265289221Y-40277091D01*
X265316158Y-40357903D01*
X265316158Y-40411778D01*
X265289221Y-40492590D01*
X265181471Y-40600340D01*
X265100659Y-40627277D01*
X265046784Y-40627277D01*
X264965972Y-40600340D01*
X294091218Y-64838096D02*
X294118155Y-64757284D01*
X294198967Y-64676471D01*
X294306717Y-64622597D01*
X294414467Y-64622597D01*
X294495279Y-64649534D01*
X294629966Y-64730346D01*
X294710778Y-64811158D01*
X294791590Y-64945845D01*
X294818528Y-65026658D01*
X294818528Y-65134407D01*
X294764653Y-65242157D01*
X294710778Y-65296032D01*
X294603028Y-65349906D01*
X294549154Y-65349906D01*
X294360592Y-65161345D01*
X294468341Y-65053595D01*
X294360592Y-65646218D02*
X293794906Y-65080532D01*
X293579407Y-65296032D01*
X293552470Y-65376844D01*
X293552470Y-65430719D01*
X293579407Y-65511531D01*
X293660219Y-65592343D01*
X293741032Y-65619280D01*
X293794906Y-65619280D01*
X293875719Y-65592343D01*
X294091218Y-65376844D01*
X293283096Y-65592343D02*
X292932910Y-65942529D01*
X293336971Y-65969467D01*
X293256158Y-66050279D01*
X293229221Y-66131091D01*
X293229221Y-66184966D01*
X293256158Y-66265778D01*
X293390845Y-66400465D01*
X293471658Y-66427402D01*
X293525532Y-66427402D01*
X293606345Y-66400465D01*
X293767969Y-66238841D01*
X293794906Y-66158028D01*
X293794906Y-66104154D01*
X261098155Y-39211158D02*
X261125093Y-39130346D01*
X261205905Y-39049534D01*
X261313654Y-38995659D01*
X261421404Y-38995659D01*
X261502216Y-39022597D01*
X261636903Y-39103409D01*
X261717715Y-39184221D01*
X261798528Y-39318908D01*
X261825465Y-39399720D01*
X261825465Y-39507470D01*
X261771590Y-39615219D01*
X261717715Y-39669094D01*
X261609966Y-39722969D01*
X261556091Y-39722969D01*
X261367529Y-39534407D01*
X261475279Y-39426658D01*
X261367529Y-40019280D02*
X260801844Y-39453595D01*
X261044280Y-40342529D01*
X260478595Y-39776844D01*
X260774906Y-40611903D02*
X260209221Y-40046218D01*
X260074534Y-40180905D01*
X260020659Y-40288654D01*
X260020659Y-40396404D01*
X260047597Y-40477216D01*
X260128409Y-40611903D01*
X260209221Y-40692715D01*
X260343908Y-40773528D01*
X260424720Y-40800465D01*
X260532470Y-40800465D01*
X260640219Y-40746590D01*
X260774906Y-40611903D01*
X266420592Y-64968722D02*
X266447529Y-64887910D01*
X266528341Y-64807097D01*
X266636091Y-64753223D01*
X266743841Y-64753223D01*
X266824653Y-64780160D01*
X266959340Y-64860972D01*
X267040152Y-64941784D01*
X267120964Y-65076471D01*
X267147902Y-65157284D01*
X267147902Y-65265033D01*
X267094027Y-65372783D01*
X267040152Y-65426658D01*
X266932402Y-65480532D01*
X266878528Y-65480532D01*
X266689966Y-65291971D01*
X266797715Y-65184221D01*
X266689966Y-65776844D02*
X266124280Y-65211158D01*
X265908781Y-65426658D01*
X265881844Y-65507470D01*
X265881844Y-65561345D01*
X265908781Y-65642157D01*
X265989593Y-65722969D01*
X266070406Y-65749906D01*
X266124280Y-65749906D01*
X266205093Y-65722969D01*
X266420592Y-65507470D01*
X265827969Y-66638841D02*
X266151218Y-66315592D01*
X265989593Y-66477216D02*
X265423908Y-65911531D01*
X265558595Y-65938468D01*
X265666345Y-65938468D01*
X265747157Y-65911531D01*
X265100659Y-66342529D02*
X265046784Y-66342529D01*
X264965972Y-66369467D01*
X264831285Y-66504154D01*
X264804348Y-66584966D01*
X264804348Y-66638841D01*
X264831285Y-66719653D01*
X264885160Y-66773528D01*
X264992910Y-66827402D01*
X265639407Y-66827402D01*
X265289221Y-67177589D01*
X299198155Y-39211158D02*
X299225093Y-39130346D01*
X299305905Y-39049534D01*
X299413654Y-38995659D01*
X299521404Y-38995659D01*
X299602216Y-39022597D01*
X299736903Y-39103409D01*
X299817715Y-39184221D01*
X299898528Y-39318908D01*
X299925465Y-39399720D01*
X299925465Y-39507470D01*
X299871590Y-39615219D01*
X299817715Y-39669094D01*
X299709966Y-39722969D01*
X299656091Y-39722969D01*
X299467529Y-39534407D01*
X299575279Y-39426658D01*
X299467529Y-40019280D02*
X298901844Y-39453595D01*
X299144280Y-40342529D01*
X298578595Y-39776844D01*
X298874906Y-40611903D02*
X298309221Y-40046218D01*
X298174534Y-40180905D01*
X298120659Y-40288654D01*
X298120659Y-40396404D01*
X298147597Y-40477216D01*
X298228409Y-40611903D01*
X298309221Y-40692715D01*
X298443908Y-40773528D01*
X298524720Y-40800465D01*
X298632470Y-40800465D01*
X298740219Y-40746590D01*
X298874906Y-40611903D01*
X268960592Y-38714722D02*
X268987529Y-38633910D01*
X269068341Y-38553097D01*
X269176091Y-38499223D01*
X269283841Y-38499223D01*
X269364653Y-38526160D01*
X269499340Y-38606972D01*
X269580152Y-38687784D01*
X269660964Y-38822471D01*
X269687902Y-38903284D01*
X269687902Y-39011033D01*
X269634027Y-39118783D01*
X269580152Y-39172658D01*
X269472402Y-39226532D01*
X269418528Y-39226532D01*
X269229966Y-39037971D01*
X269337715Y-38930221D01*
X269229966Y-39522844D02*
X268664280Y-38957158D01*
X268448781Y-39172658D01*
X268421844Y-39253470D01*
X268421844Y-39307345D01*
X268448781Y-39388157D01*
X268529593Y-39468969D01*
X268610406Y-39495906D01*
X268664280Y-39495906D01*
X268745093Y-39468969D01*
X268960592Y-39253470D01*
X268179407Y-39549781D02*
X268125532Y-39549781D01*
X268044720Y-39576719D01*
X267910033Y-39711406D01*
X267883096Y-39792218D01*
X267883096Y-39846093D01*
X267910033Y-39926905D01*
X267963908Y-39980780D01*
X268071658Y-40034654D01*
X268718155Y-40034654D01*
X268367969Y-40384841D01*
X267452097Y-40169341D02*
X267398223Y-40223216D01*
X267371285Y-40304028D01*
X267371285Y-40357903D01*
X267398223Y-40438715D01*
X267479035Y-40573402D01*
X267613722Y-40708089D01*
X267748409Y-40788902D01*
X267829221Y-40815839D01*
X267883096Y-40815839D01*
X267963908Y-40788902D01*
X268017783Y-40735027D01*
X268044720Y-40654215D01*
X268044720Y-40600340D01*
X268017783Y-40519528D01*
X267936971Y-40384841D01*
X267802284Y-40250154D01*
X267667597Y-40169341D01*
X267586784Y-40142404D01*
X267532910Y-40142404D01*
X267452097Y-40169341D01*
X273798155Y-39211158D02*
X273825093Y-39130346D01*
X273905905Y-39049534D01*
X274013654Y-38995659D01*
X274121404Y-38995659D01*
X274202216Y-39022597D01*
X274336903Y-39103409D01*
X274417715Y-39184221D01*
X274498528Y-39318908D01*
X274525465Y-39399720D01*
X274525465Y-39507470D01*
X274471590Y-39615219D01*
X274417715Y-39669094D01*
X274309966Y-39722969D01*
X274256091Y-39722969D01*
X274067529Y-39534407D01*
X274175279Y-39426658D01*
X274067529Y-40019280D02*
X273501844Y-39453595D01*
X273744280Y-40342529D01*
X273178595Y-39776844D01*
X273474906Y-40611903D02*
X272909221Y-40046218D01*
X272774534Y-40180905D01*
X272720659Y-40288654D01*
X272720659Y-40396404D01*
X272747597Y-40477216D01*
X272828409Y-40611903D01*
X272909221Y-40692715D01*
X273043908Y-40773528D01*
X273124720Y-40800465D01*
X273232470Y-40800465D01*
X273340219Y-40746590D01*
X273474906Y-40611903D01*
X256260592Y-64822722D02*
X256287529Y-64741910D01*
X256368341Y-64661097D01*
X256476091Y-64607223D01*
X256583841Y-64607223D01*
X256664653Y-64634160D01*
X256799340Y-64714972D01*
X256880152Y-64795784D01*
X256960964Y-64930471D01*
X256987902Y-65011284D01*
X256987902Y-65119033D01*
X256934027Y-65226783D01*
X256880152Y-65280658D01*
X256772402Y-65334532D01*
X256718528Y-65334532D01*
X256529966Y-65145971D01*
X256637715Y-65038221D01*
X256529966Y-65630844D02*
X255964280Y-65065158D01*
X255748781Y-65280658D01*
X255721844Y-65361470D01*
X255721844Y-65415345D01*
X255748781Y-65496157D01*
X255829593Y-65576969D01*
X255910406Y-65603906D01*
X255964280Y-65603906D01*
X256045093Y-65576969D01*
X256260592Y-65361470D01*
X255667969Y-66492841D02*
X255991218Y-66169592D01*
X255829593Y-66331216D02*
X255263908Y-65765531D01*
X255398595Y-65792468D01*
X255506345Y-65792468D01*
X255587157Y-65765531D01*
X254590473Y-66438966D02*
X254859847Y-66169592D01*
X255156158Y-66412028D01*
X255102284Y-66412028D01*
X255021471Y-66438966D01*
X254886784Y-66573653D01*
X254859847Y-66654465D01*
X254859847Y-66708340D01*
X254886784Y-66789152D01*
X255021471Y-66923839D01*
X255102284Y-66950776D01*
X255156158Y-66950776D01*
X255236971Y-66923839D01*
X255371658Y-66789152D01*
X255398595Y-66708340D01*
X255398595Y-66654465D01*
X304251218Y-64838096D02*
X304278155Y-64757284D01*
X304358967Y-64676471D01*
X304466717Y-64622597D01*
X304574467Y-64622597D01*
X304655279Y-64649534D01*
X304789966Y-64730346D01*
X304870778Y-64811158D01*
X304951590Y-64945845D01*
X304978528Y-65026658D01*
X304978528Y-65134407D01*
X304924653Y-65242157D01*
X304870778Y-65296032D01*
X304763028Y-65349906D01*
X304709154Y-65349906D01*
X304520592Y-65161345D01*
X304628341Y-65053595D01*
X304520592Y-65646218D02*
X303954906Y-65080532D01*
X303739407Y-65296032D01*
X303712470Y-65376844D01*
X303712470Y-65430719D01*
X303739407Y-65511531D01*
X303820219Y-65592343D01*
X303901032Y-65619280D01*
X303954906Y-65619280D01*
X304035719Y-65592343D01*
X304251218Y-65376844D01*
X303281471Y-65753967D02*
X303227597Y-65807842D01*
X303200659Y-65888654D01*
X303200659Y-65942529D01*
X303227597Y-66023341D01*
X303308409Y-66158028D01*
X303443096Y-66292715D01*
X303577783Y-66373528D01*
X303658595Y-66400465D01*
X303712470Y-66400465D01*
X303793282Y-66373528D01*
X303847157Y-66319653D01*
X303874094Y-66238841D01*
X303874094Y-66184966D01*
X303847157Y-66104154D01*
X303766345Y-65969467D01*
X303631658Y-65834780D01*
X303496971Y-65753967D01*
X303416158Y-65727030D01*
X303362284Y-65727030D01*
X303281471Y-65753967D01*
X261098155Y-64811158D02*
X261125093Y-64730346D01*
X261205905Y-64649534D01*
X261313654Y-64595659D01*
X261421404Y-64595659D01*
X261502216Y-64622597D01*
X261636903Y-64703409D01*
X261717715Y-64784221D01*
X261798528Y-64918908D01*
X261825465Y-64999720D01*
X261825465Y-65107470D01*
X261771590Y-65215219D01*
X261717715Y-65269094D01*
X261609966Y-65322969D01*
X261556091Y-65322969D01*
X261367529Y-65134407D01*
X261475279Y-65026658D01*
X261367529Y-65619280D02*
X260801844Y-65053595D01*
X261044280Y-65942529D01*
X260478595Y-65376844D01*
X260774906Y-66211903D02*
X260209221Y-65646218D01*
X260074534Y-65780905D01*
X260020659Y-65888654D01*
X260020659Y-65996404D01*
X260047597Y-66077216D01*
X260128409Y-66211903D01*
X260209221Y-66292715D01*
X260343908Y-66373528D01*
X260424720Y-66400465D01*
X260532470Y-66400465D01*
X260640219Y-66346590D01*
X260774906Y-66211903D01*
X284190592Y-38714722D02*
X284217529Y-38633910D01*
X284298341Y-38553097D01*
X284406091Y-38499223D01*
X284513841Y-38499223D01*
X284594653Y-38526160D01*
X284729340Y-38606972D01*
X284810152Y-38687784D01*
X284890964Y-38822471D01*
X284917902Y-38903284D01*
X284917902Y-39011033D01*
X284864027Y-39118783D01*
X284810152Y-39172658D01*
X284702402Y-39226532D01*
X284648528Y-39226532D01*
X284459966Y-39037971D01*
X284567715Y-38930221D01*
X284459966Y-39522844D02*
X283894280Y-38957158D01*
X283678781Y-39172658D01*
X283651844Y-39253470D01*
X283651844Y-39307345D01*
X283678781Y-39388157D01*
X283759593Y-39468969D01*
X283840406Y-39495906D01*
X283894280Y-39495906D01*
X283975093Y-39468969D01*
X284190592Y-39253470D01*
X283409407Y-39549781D02*
X283355532Y-39549781D01*
X283274720Y-39576719D01*
X283140033Y-39711406D01*
X283113096Y-39792218D01*
X283113096Y-39846093D01*
X283140033Y-39926905D01*
X283193908Y-39980780D01*
X283301658Y-40034654D01*
X283948155Y-40034654D01*
X283597969Y-40384841D01*
X282843722Y-40007717D02*
X282466598Y-40384841D01*
X283274720Y-40708089D01*
X278851218Y-64838096D02*
X278878155Y-64757284D01*
X278958967Y-64676471D01*
X279066717Y-64622597D01*
X279174467Y-64622597D01*
X279255279Y-64649534D01*
X279389966Y-64730346D01*
X279470778Y-64811158D01*
X279551590Y-64945845D01*
X279578528Y-65026658D01*
X279578528Y-65134407D01*
X279524653Y-65242157D01*
X279470778Y-65296032D01*
X279363028Y-65349906D01*
X279309154Y-65349906D01*
X279120592Y-65161345D01*
X279228341Y-65053595D01*
X279120592Y-65646218D02*
X278554906Y-65080532D01*
X278339407Y-65296032D01*
X278312470Y-65376844D01*
X278312470Y-65430719D01*
X278339407Y-65511531D01*
X278420219Y-65592343D01*
X278501032Y-65619280D01*
X278554906Y-65619280D01*
X278635719Y-65592343D01*
X278851218Y-65376844D01*
X278150845Y-65969467D02*
X278177783Y-65888654D01*
X278177783Y-65834780D01*
X278150845Y-65753967D01*
X278123908Y-65727030D01*
X278043096Y-65700093D01*
X277989221Y-65700093D01*
X277908409Y-65727030D01*
X277800659Y-65834780D01*
X277773722Y-65915592D01*
X277773722Y-65969467D01*
X277800659Y-66050279D01*
X277827597Y-66077216D01*
X277908409Y-66104154D01*
X277962284Y-66104154D01*
X278043096Y-66077216D01*
X278150845Y-65969467D01*
X278231658Y-65942529D01*
X278285532Y-65942529D01*
X278366345Y-65969467D01*
X278474094Y-66077216D01*
X278501032Y-66158028D01*
X278501032Y-66211903D01*
X278474094Y-66292715D01*
X278366345Y-66400465D01*
X278285532Y-66427402D01*
X278231658Y-66427402D01*
X278150845Y-66400465D01*
X278043096Y-66292715D01*
X278016158Y-66211903D01*
X278016158Y-66158028D01*
X278043096Y-66077216D01*
X281421218Y-64738096D02*
X281448155Y-64657284D01*
X281528967Y-64576471D01*
X281636717Y-64522597D01*
X281744467Y-64522597D01*
X281825279Y-64549534D01*
X281959966Y-64630346D01*
X282040778Y-64711158D01*
X282121590Y-64845845D01*
X282148528Y-64926658D01*
X282148528Y-65034407D01*
X282094653Y-65142157D01*
X282040778Y-65196032D01*
X281933028Y-65249906D01*
X281879154Y-65249906D01*
X281690592Y-65061345D01*
X281798341Y-64953595D01*
X281690592Y-65546218D02*
X281124906Y-64980532D01*
X280909407Y-65196032D01*
X280882470Y-65276844D01*
X280882470Y-65330719D01*
X280909407Y-65411531D01*
X280990219Y-65492343D01*
X281071032Y-65519280D01*
X281124906Y-65519280D01*
X281205719Y-65492343D01*
X281421218Y-65276844D01*
X280613096Y-65492343D02*
X280235972Y-65869467D01*
X281044094Y-66192715D01*
X256260592Y-38714722D02*
X256287529Y-38633910D01*
X256368341Y-38553097D01*
X256476091Y-38499223D01*
X256583841Y-38499223D01*
X256664653Y-38526160D01*
X256799340Y-38606972D01*
X256880152Y-38687784D01*
X256960964Y-38822471D01*
X256987902Y-38903284D01*
X256987902Y-39011033D01*
X256934027Y-39118783D01*
X256880152Y-39172658D01*
X256772402Y-39226532D01*
X256718528Y-39226532D01*
X256529966Y-39037971D01*
X256637715Y-38930221D01*
X256529966Y-39522844D02*
X255964280Y-38957158D01*
X255748781Y-39172658D01*
X255721844Y-39253470D01*
X255721844Y-39307345D01*
X255748781Y-39388157D01*
X255829593Y-39468969D01*
X255910406Y-39495906D01*
X255964280Y-39495906D01*
X256045093Y-39468969D01*
X256260592Y-39253470D01*
X255667969Y-40384841D02*
X255991218Y-40061592D01*
X255829593Y-40223216D02*
X255263908Y-39657531D01*
X255398595Y-39684468D01*
X255506345Y-39684468D01*
X255587157Y-39657531D01*
X254617410Y-40304028D02*
X254725160Y-40196279D01*
X254805972Y-40169341D01*
X254859847Y-40169341D01*
X254994534Y-40196279D01*
X255129221Y-40277091D01*
X255344720Y-40492590D01*
X255371658Y-40573402D01*
X255371658Y-40627277D01*
X255344720Y-40708089D01*
X255236971Y-40815839D01*
X255156158Y-40842776D01*
X255102284Y-40842776D01*
X255021471Y-40815839D01*
X254886784Y-40681152D01*
X254859847Y-40600340D01*
X254859847Y-40546465D01*
X254886784Y-40465653D01*
X254994534Y-40357903D01*
X255075346Y-40330966D01*
X255129221Y-40330966D01*
X255210033Y-40357903D01*
X279403435Y-39563375D02*
X279322622Y-39105439D01*
X279726683Y-39240126D02*
X279160998Y-38674441D01*
X278945499Y-38889940D01*
X278918561Y-38970752D01*
X278918561Y-39024627D01*
X278945499Y-39105439D01*
X279026311Y-39186251D01*
X279107123Y-39213189D01*
X279160998Y-39213189D01*
X279241810Y-39186251D01*
X279457309Y-38970752D01*
X278595312Y-39240126D02*
X279053248Y-39698062D01*
X279080186Y-39778874D01*
X279080186Y-39832749D01*
X279053248Y-39913561D01*
X278945499Y-40021311D01*
X278864687Y-40048248D01*
X278810812Y-40048248D01*
X278730000Y-40021311D01*
X278272064Y-39563375D01*
X278568375Y-40398435D02*
X278002690Y-39832749D01*
X278245126Y-40721683D01*
X277679441Y-40155998D01*
X263880592Y-38714722D02*
X263907529Y-38633910D01*
X263988341Y-38553097D01*
X264096091Y-38499223D01*
X264203841Y-38499223D01*
X264284653Y-38526160D01*
X264419340Y-38606972D01*
X264500152Y-38687784D01*
X264580964Y-38822471D01*
X264607902Y-38903284D01*
X264607902Y-39011033D01*
X264554027Y-39118783D01*
X264500152Y-39172658D01*
X264392402Y-39226532D01*
X264338528Y-39226532D01*
X264149966Y-39037971D01*
X264257715Y-38930221D01*
X264149966Y-39522844D02*
X263584280Y-38957158D01*
X263368781Y-39172658D01*
X263341844Y-39253470D01*
X263341844Y-39307345D01*
X263368781Y-39388157D01*
X263449593Y-39468969D01*
X263530406Y-39495906D01*
X263584280Y-39495906D01*
X263665093Y-39468969D01*
X263880592Y-39253470D01*
X263287969Y-40384841D02*
X263611218Y-40061592D01*
X263449593Y-40223216D02*
X262883908Y-39657531D01*
X263018595Y-39684468D01*
X263126345Y-39684468D01*
X263207157Y-39657531D01*
X262641471Y-40384841D02*
X262668409Y-40304028D01*
X262668409Y-40250154D01*
X262641471Y-40169341D01*
X262614534Y-40142404D01*
X262533722Y-40115467D01*
X262479847Y-40115467D01*
X262399035Y-40142404D01*
X262291285Y-40250154D01*
X262264348Y-40330966D01*
X262264348Y-40384841D01*
X262291285Y-40465653D01*
X262318223Y-40492590D01*
X262399035Y-40519528D01*
X262452910Y-40519528D01*
X262533722Y-40492590D01*
X262641471Y-40384841D01*
X262722284Y-40357903D01*
X262776158Y-40357903D01*
X262856971Y-40384841D01*
X262964720Y-40492590D01*
X262991658Y-40573402D01*
X262991658Y-40627277D01*
X262964720Y-40708089D01*
X262856971Y-40815839D01*
X262776158Y-40842776D01*
X262722284Y-40842776D01*
X262641471Y-40815839D01*
X262533722Y-40708089D01*
X262506784Y-40627277D01*
X262506784Y-40573402D01*
X262533722Y-40492590D01*
X258800592Y-64868722D02*
X258827529Y-64787910D01*
X258908341Y-64707097D01*
X259016091Y-64653223D01*
X259123841Y-64653223D01*
X259204653Y-64680160D01*
X259339340Y-64760972D01*
X259420152Y-64841784D01*
X259500964Y-64976471D01*
X259527902Y-65057284D01*
X259527902Y-65165033D01*
X259474027Y-65272783D01*
X259420152Y-65326658D01*
X259312402Y-65380532D01*
X259258528Y-65380532D01*
X259069966Y-65191971D01*
X259177715Y-65084221D01*
X259069966Y-65676844D02*
X258504280Y-65111158D01*
X258288781Y-65326658D01*
X258261844Y-65407470D01*
X258261844Y-65461345D01*
X258288781Y-65542157D01*
X258369593Y-65622969D01*
X258450406Y-65649906D01*
X258504280Y-65649906D01*
X258585093Y-65622969D01*
X258800592Y-65407470D01*
X258207969Y-66538841D02*
X258531218Y-66215592D01*
X258369593Y-66377216D02*
X257803908Y-65811531D01*
X257938595Y-65838468D01*
X258046345Y-65838468D01*
X258127157Y-65811531D01*
X257345972Y-66646590D02*
X257723096Y-67023714D01*
X257265160Y-66296404D02*
X257803908Y-66565778D01*
X257453722Y-66915964D01*
X294533773Y-36879788D02*
X294264399Y-37149162D01*
X294749272Y-36987537D02*
X293995025Y-36610414D01*
X294372149Y-37364661D01*
X294183587Y-37553223D02*
X293617902Y-36987537D01*
X293483215Y-37122224D01*
X293429340Y-37229974D01*
X293429340Y-37337723D01*
X293456277Y-37418536D01*
X293537089Y-37553223D01*
X293617902Y-37634035D01*
X293752589Y-37714847D01*
X293833401Y-37741784D01*
X293941150Y-37741784D01*
X294048900Y-37687910D01*
X294183587Y-37553223D01*
X293240778Y-38388282D02*
X293294653Y-38388282D01*
X293402402Y-38334407D01*
X293456277Y-38280532D01*
X293510152Y-38172783D01*
X293510152Y-38065033D01*
X293483215Y-37984221D01*
X293402402Y-37849534D01*
X293321590Y-37768722D01*
X293186903Y-37687910D01*
X293106091Y-37660972D01*
X292998341Y-37660972D01*
X292890592Y-37714847D01*
X292836717Y-37768722D01*
X292782842Y-37876471D01*
X292782842Y-37930346D01*
X293240778Y-38603781D02*
X292809780Y-39034780D01*
X292136345Y-38469094D02*
X292513468Y-39223341D01*
X291759221Y-38846218D01*
X291813096Y-39923714D02*
X291732284Y-39465778D01*
X292136345Y-39600465D02*
X291570659Y-39034780D01*
X291355160Y-39250279D01*
X291328223Y-39331091D01*
X291328223Y-39384966D01*
X291355160Y-39465778D01*
X291435972Y-39546590D01*
X291516784Y-39573528D01*
X291570659Y-39573528D01*
X291651471Y-39546590D01*
X291866971Y-39331091D01*
X291274348Y-39869839D02*
X291085786Y-40058401D01*
X291301285Y-40435524D02*
X291570659Y-40166150D01*
X291004974Y-39600465D01*
X290735600Y-39869839D01*
X290573975Y-40570211D02*
X290762537Y-40381650D01*
X291058849Y-40677961D02*
X290493163Y-40112276D01*
X290223789Y-40381650D01*
X296631218Y-64938096D02*
X296658155Y-64857284D01*
X296738967Y-64776471D01*
X296846717Y-64722597D01*
X296954467Y-64722597D01*
X297035279Y-64749534D01*
X297169966Y-64830346D01*
X297250778Y-64911158D01*
X297331590Y-65045845D01*
X297358528Y-65126658D01*
X297358528Y-65234407D01*
X297304653Y-65342157D01*
X297250778Y-65396032D01*
X297143028Y-65449906D01*
X297089154Y-65449906D01*
X296900592Y-65261345D01*
X297008341Y-65153595D01*
X296900592Y-65746218D02*
X296334906Y-65180532D01*
X296119407Y-65396032D01*
X296092470Y-65476844D01*
X296092470Y-65530719D01*
X296119407Y-65611531D01*
X296200219Y-65692343D01*
X296281032Y-65719280D01*
X296334906Y-65719280D01*
X296415719Y-65692343D01*
X296631218Y-65476844D01*
X295850033Y-65773155D02*
X295796158Y-65773155D01*
X295715346Y-65800093D01*
X295580659Y-65934780D01*
X295553722Y-66015592D01*
X295553722Y-66069467D01*
X295580659Y-66150279D01*
X295634534Y-66204154D01*
X295742284Y-66258028D01*
X296388781Y-66258028D01*
X296038595Y-66608215D01*
X276311218Y-64838096D02*
X276338155Y-64757284D01*
X276418967Y-64676471D01*
X276526717Y-64622597D01*
X276634467Y-64622597D01*
X276715279Y-64649534D01*
X276849966Y-64730346D01*
X276930778Y-64811158D01*
X277011590Y-64945845D01*
X277038528Y-65026658D01*
X277038528Y-65134407D01*
X276984653Y-65242157D01*
X276930778Y-65296032D01*
X276823028Y-65349906D01*
X276769154Y-65349906D01*
X276580592Y-65161345D01*
X276688341Y-65053595D01*
X276580592Y-65646218D02*
X276014906Y-65080532D01*
X275799407Y-65296032D01*
X275772470Y-65376844D01*
X275772470Y-65430719D01*
X275799407Y-65511531D01*
X275880219Y-65592343D01*
X275961032Y-65619280D01*
X276014906Y-65619280D01*
X276095719Y-65592343D01*
X276311218Y-65376844D01*
X275987969Y-66238841D02*
X275880219Y-66346590D01*
X275799407Y-66373528D01*
X275745532Y-66373528D01*
X275610845Y-66346590D01*
X275476158Y-66265778D01*
X275260659Y-66050279D01*
X275233722Y-65969467D01*
X275233722Y-65915592D01*
X275260659Y-65834780D01*
X275368409Y-65727030D01*
X275449221Y-65700093D01*
X275503096Y-65700093D01*
X275583908Y-65727030D01*
X275718595Y-65861717D01*
X275745532Y-65942529D01*
X275745532Y-65996404D01*
X275718595Y-66077216D01*
X275610845Y-66184966D01*
X275530033Y-66211903D01*
X275476158Y-66211903D01*
X275395346Y-66184966D01*
X263880592Y-64822722D02*
X263907529Y-64741910D01*
X263988341Y-64661097D01*
X264096091Y-64607223D01*
X264203841Y-64607223D01*
X264284653Y-64634160D01*
X264419340Y-64714972D01*
X264500152Y-64795784D01*
X264580964Y-64930471D01*
X264607902Y-65011284D01*
X264607902Y-65119033D01*
X264554027Y-65226783D01*
X264500152Y-65280658D01*
X264392402Y-65334532D01*
X264338528Y-65334532D01*
X264149966Y-65145971D01*
X264257715Y-65038221D01*
X264149966Y-65630844D02*
X263584280Y-65065158D01*
X263368781Y-65280658D01*
X263341844Y-65361470D01*
X263341844Y-65415345D01*
X263368781Y-65496157D01*
X263449593Y-65576969D01*
X263530406Y-65603906D01*
X263584280Y-65603906D01*
X263665093Y-65576969D01*
X263880592Y-65361470D01*
X263287969Y-66492841D02*
X263611218Y-66169592D01*
X263449593Y-66331216D02*
X262883908Y-65765531D01*
X263018595Y-65792468D01*
X263126345Y-65792468D01*
X263207157Y-65765531D01*
X262533722Y-66115717D02*
X262183536Y-66465903D01*
X262587597Y-66492841D01*
X262506784Y-66573653D01*
X262479847Y-66654465D01*
X262479847Y-66708340D01*
X262506784Y-66789152D01*
X262641471Y-66923839D01*
X262722284Y-66950776D01*
X262776158Y-66950776D01*
X262856971Y-66923839D01*
X263018595Y-66762215D01*
X263045532Y-66681402D01*
X263045532Y-66627528D01*
X276580592Y-38714722D02*
X276607529Y-38633910D01*
X276688341Y-38553097D01*
X276796091Y-38499223D01*
X276903841Y-38499223D01*
X276984653Y-38526160D01*
X277119340Y-38606972D01*
X277200152Y-38687784D01*
X277280964Y-38822471D01*
X277307902Y-38903284D01*
X277307902Y-39011033D01*
X277254027Y-39118783D01*
X277200152Y-39172658D01*
X277092402Y-39226532D01*
X277038528Y-39226532D01*
X276849966Y-39037971D01*
X276957715Y-38930221D01*
X276849966Y-39522844D02*
X276284280Y-38957158D01*
X276068781Y-39172658D01*
X276041844Y-39253470D01*
X276041844Y-39307345D01*
X276068781Y-39388157D01*
X276149593Y-39468969D01*
X276230406Y-39495906D01*
X276284280Y-39495906D01*
X276365093Y-39468969D01*
X276580592Y-39253470D01*
X275799407Y-39549781D02*
X275745532Y-39549781D01*
X275664720Y-39576719D01*
X275530033Y-39711406D01*
X275503096Y-39792218D01*
X275503096Y-39846093D01*
X275530033Y-39926905D01*
X275583908Y-39980780D01*
X275691658Y-40034654D01*
X276338155Y-40034654D01*
X275987969Y-40384841D01*
X275260659Y-40088529D02*
X275206784Y-40088529D01*
X275125972Y-40115467D01*
X274991285Y-40250154D01*
X274964348Y-40330966D01*
X274964348Y-40384841D01*
X274991285Y-40465653D01*
X275045160Y-40519528D01*
X275152910Y-40573402D01*
X275799407Y-40573402D01*
X275449221Y-40923589D01*
X302249966Y-38245473D02*
X302627089Y-38999720D01*
X301872842Y-38622597D01*
X302249966Y-39322969D02*
X302196091Y-39430719D01*
X302061404Y-39565406D01*
X301980592Y-39592343D01*
X301926717Y-39592343D01*
X301845905Y-39565406D01*
X301792030Y-39511531D01*
X301765093Y-39430719D01*
X301765093Y-39376844D01*
X301792030Y-39296032D01*
X301872842Y-39161345D01*
X301899780Y-39080532D01*
X301899780Y-39026658D01*
X301872842Y-38945845D01*
X301818967Y-38891971D01*
X301738155Y-38865033D01*
X301684280Y-38865033D01*
X301603468Y-38891971D01*
X301468781Y-39026658D01*
X301414906Y-39134407D01*
X301334094Y-39753967D02*
X301603468Y-40023341D01*
X301226345Y-39269094D02*
X301334094Y-39753967D01*
X300849221Y-39646218D01*
X301226345Y-40346590D02*
X301172470Y-40454340D01*
X301037783Y-40589027D01*
X300956971Y-40615964D01*
X300903096Y-40615964D01*
X300822284Y-40589027D01*
X300768409Y-40535152D01*
X300741471Y-40454340D01*
X300741471Y-40400465D01*
X300768409Y-40319653D01*
X300849221Y-40184966D01*
X300876158Y-40104154D01*
X300876158Y-40050279D01*
X300849221Y-39969467D01*
X300795346Y-39915592D01*
X300714534Y-39888654D01*
X300660659Y-39888654D01*
X300579847Y-39915592D01*
X300445160Y-40050279D01*
X300391285Y-40158028D01*
X271500592Y-64822722D02*
X271527529Y-64741910D01*
X271608341Y-64661097D01*
X271716091Y-64607223D01*
X271823841Y-64607223D01*
X271904653Y-64634160D01*
X272039340Y-64714972D01*
X272120152Y-64795784D01*
X272200964Y-64930471D01*
X272227902Y-65011284D01*
X272227902Y-65119033D01*
X272174027Y-65226783D01*
X272120152Y-65280658D01*
X272012402Y-65334532D01*
X271958528Y-65334532D01*
X271769966Y-65145971D01*
X271877715Y-65038221D01*
X271769966Y-65630844D02*
X271204280Y-65065158D01*
X270988781Y-65280658D01*
X270961844Y-65361470D01*
X270961844Y-65415345D01*
X270988781Y-65496157D01*
X271069593Y-65576969D01*
X271150406Y-65603906D01*
X271204280Y-65603906D01*
X271285093Y-65576969D01*
X271500592Y-65361470D01*
X270907969Y-66492841D02*
X271231218Y-66169592D01*
X271069593Y-66331216D02*
X270503908Y-65765531D01*
X270638595Y-65792468D01*
X270746345Y-65792468D01*
X270827157Y-65765531D01*
X269992097Y-66277341D02*
X269938223Y-66331216D01*
X269911285Y-66412028D01*
X269911285Y-66465903D01*
X269938223Y-66546715D01*
X270019035Y-66681402D01*
X270153722Y-66816089D01*
X270288409Y-66896902D01*
X270369221Y-66923839D01*
X270423096Y-66923839D01*
X270503908Y-66896902D01*
X270557783Y-66843027D01*
X270584720Y-66762215D01*
X270584720Y-66708340D01*
X270557783Y-66627528D01*
X270476971Y-66492841D01*
X270342284Y-66358154D01*
X270207597Y-66277341D01*
X270126784Y-66250404D01*
X270072910Y-66250404D01*
X269992097Y-66277341D01*
X254123809Y-56615476D02*
X254161904Y-56729761D01*
X254161904Y-56920238D01*
X254123809Y-56996428D01*
X254085714Y-57034523D01*
X254009523Y-57072619D01*
X253933333Y-57072619D01*
X253857142Y-57034523D01*
X253819047Y-56996428D01*
X253780952Y-56920238D01*
X253742857Y-56767857D01*
X253704761Y-56691666D01*
X253666666Y-56653571D01*
X253590476Y-56615476D01*
X253514285Y-56615476D01*
X253438095Y-56653571D01*
X253400000Y-56691666D01*
X253361904Y-56767857D01*
X253361904Y-56958333D01*
X253400000Y-57072619D01*
X253361904Y-57339285D02*
X254161904Y-57529761D01*
X253590476Y-57682142D01*
X254161904Y-57834523D01*
X253361904Y-58025000D01*
X254085714Y-58786904D02*
X254123809Y-58748809D01*
X254161904Y-58634523D01*
X254161904Y-58558333D01*
X254123809Y-58444047D01*
X254047619Y-58367857D01*
X253971428Y-58329761D01*
X253819047Y-58291666D01*
X253704761Y-58291666D01*
X253552380Y-58329761D01*
X253476190Y-58367857D01*
X253400000Y-58444047D01*
X253361904Y-58558333D01*
X253361904Y-58634523D01*
X253400000Y-58748809D01*
X253438095Y-58786904D01*
X254161904Y-59510714D02*
X254161904Y-59129761D01*
X253361904Y-59129761D01*
X254161904Y-59777380D02*
X253361904Y-59777380D01*
X254161904Y-60234523D02*
X253704761Y-59891666D01*
X253361904Y-60234523D02*
X253819047Y-59777380D01*
%TO.C,U1*%
X344002380Y-51963095D02*
X344811904Y-51963095D01*
X344907142Y-52010714D01*
X344954761Y-52058333D01*
X345002380Y-52153571D01*
X345002380Y-52344047D01*
X344954761Y-52439285D01*
X344907142Y-52486904D01*
X344811904Y-52534523D01*
X344002380Y-52534523D01*
X345002380Y-53534523D02*
X345002380Y-52963095D01*
X345002380Y-53248809D02*
X344002380Y-53248809D01*
X344145238Y-53153571D01*
X344240476Y-53058333D01*
X344288095Y-52963095D01*
X343670592Y-64822722D02*
X343697529Y-64741910D01*
X343778341Y-64661097D01*
X343886091Y-64607223D01*
X343993841Y-64607223D01*
X344074653Y-64634160D01*
X344209340Y-64714972D01*
X344290152Y-64795784D01*
X344370964Y-64930471D01*
X344397902Y-65011284D01*
X344397902Y-65119033D01*
X344344027Y-65226783D01*
X344290152Y-65280658D01*
X344182402Y-65334532D01*
X344128528Y-65334532D01*
X343939966Y-65145971D01*
X344047715Y-65038221D01*
X343939966Y-65630844D02*
X343374280Y-65065158D01*
X343158781Y-65280658D01*
X343131844Y-65361470D01*
X343131844Y-65415345D01*
X343158781Y-65496157D01*
X343239593Y-65576969D01*
X343320406Y-65603906D01*
X343374280Y-65603906D01*
X343455093Y-65576969D01*
X343670592Y-65361470D01*
X342889407Y-65657781D02*
X342835532Y-65657781D01*
X342754720Y-65684719D01*
X342620033Y-65819406D01*
X342593096Y-65900218D01*
X342593096Y-65954093D01*
X342620033Y-66034905D01*
X342673908Y-66088780D01*
X342781658Y-66142654D01*
X343428155Y-66142654D01*
X343077969Y-66492841D01*
X342027410Y-66412028D02*
X342135160Y-66304279D01*
X342215972Y-66277341D01*
X342269847Y-66277341D01*
X342404534Y-66304279D01*
X342539221Y-66385091D01*
X342754720Y-66600590D01*
X342781658Y-66681402D01*
X342781658Y-66735277D01*
X342754720Y-66816089D01*
X342646971Y-66923839D01*
X342566158Y-66950776D01*
X342512284Y-66950776D01*
X342431471Y-66923839D01*
X342296784Y-66789152D01*
X342269847Y-66708340D01*
X342269847Y-66654465D01*
X342296784Y-66573653D01*
X342404534Y-66465903D01*
X342485346Y-66438966D01*
X342539221Y-66438966D01*
X342620033Y-66465903D01*
X330701218Y-39238096D02*
X330728155Y-39157284D01*
X330808967Y-39076471D01*
X330916717Y-39022597D01*
X331024467Y-39022597D01*
X331105279Y-39049534D01*
X331239966Y-39130346D01*
X331320778Y-39211158D01*
X331401590Y-39345845D01*
X331428528Y-39426658D01*
X331428528Y-39534407D01*
X331374653Y-39642157D01*
X331320778Y-39696032D01*
X331213028Y-39749906D01*
X331159154Y-39749906D01*
X330970592Y-39561345D01*
X331078341Y-39453595D01*
X330970592Y-40046218D02*
X330404906Y-39480532D01*
X330189407Y-39696032D01*
X330162470Y-39776844D01*
X330162470Y-39830719D01*
X330189407Y-39911531D01*
X330270219Y-39992343D01*
X330351032Y-40019280D01*
X330404906Y-40019280D01*
X330485719Y-39992343D01*
X330701218Y-39776844D01*
X329893096Y-39992343D02*
X329542910Y-40342529D01*
X329946971Y-40369467D01*
X329866158Y-40450279D01*
X329839221Y-40531091D01*
X329839221Y-40584966D01*
X329866158Y-40665778D01*
X330000845Y-40800465D01*
X330081658Y-40827402D01*
X330135532Y-40827402D01*
X330216345Y-40800465D01*
X330377969Y-40638841D01*
X330404906Y-40558028D01*
X330404906Y-40504154D01*
X366530592Y-38668722D02*
X366557529Y-38587910D01*
X366638341Y-38507097D01*
X366746091Y-38453223D01*
X366853841Y-38453223D01*
X366934653Y-38480160D01*
X367069340Y-38560972D01*
X367150152Y-38641784D01*
X367230964Y-38776471D01*
X367257902Y-38857284D01*
X367257902Y-38965033D01*
X367204027Y-39072783D01*
X367150152Y-39126658D01*
X367042402Y-39180532D01*
X366988528Y-39180532D01*
X366799966Y-38991971D01*
X366907715Y-38884221D01*
X366799966Y-39476844D02*
X366234280Y-38911158D01*
X366018781Y-39126658D01*
X365991844Y-39207470D01*
X365991844Y-39261345D01*
X366018781Y-39342157D01*
X366099593Y-39422969D01*
X366180406Y-39449906D01*
X366234280Y-39449906D01*
X366315093Y-39422969D01*
X366530592Y-39207470D01*
X365937969Y-40338841D02*
X366261218Y-40015592D01*
X366099593Y-40177216D02*
X365533908Y-39611531D01*
X365668595Y-39638468D01*
X365776345Y-39638468D01*
X365857157Y-39611531D01*
X365075972Y-40446590D02*
X365453096Y-40823714D01*
X364995160Y-40096404D02*
X365533908Y-40365778D01*
X365183722Y-40715964D01*
X320541218Y-39238096D02*
X320568155Y-39157284D01*
X320648967Y-39076471D01*
X320756717Y-39022597D01*
X320864467Y-39022597D01*
X320945279Y-39049534D01*
X321079966Y-39130346D01*
X321160778Y-39211158D01*
X321241590Y-39345845D01*
X321268528Y-39426658D01*
X321268528Y-39534407D01*
X321214653Y-39642157D01*
X321160778Y-39696032D01*
X321053028Y-39749906D01*
X320999154Y-39749906D01*
X320810592Y-39561345D01*
X320918341Y-39453595D01*
X320810592Y-40046218D02*
X320244906Y-39480532D01*
X320029407Y-39696032D01*
X320002470Y-39776844D01*
X320002470Y-39830719D01*
X320029407Y-39911531D01*
X320110219Y-39992343D01*
X320191032Y-40019280D01*
X320244906Y-40019280D01*
X320325719Y-39992343D01*
X320541218Y-39776844D01*
X319571471Y-40153967D02*
X319517597Y-40207842D01*
X319490659Y-40288654D01*
X319490659Y-40342529D01*
X319517597Y-40423341D01*
X319598409Y-40558028D01*
X319733096Y-40692715D01*
X319867783Y-40773528D01*
X319948595Y-40800465D01*
X320002470Y-40800465D01*
X320083282Y-40773528D01*
X320137157Y-40719653D01*
X320164094Y-40638841D01*
X320164094Y-40584966D01*
X320137157Y-40504154D01*
X320056345Y-40369467D01*
X319921658Y-40234780D01*
X319786971Y-40153967D01*
X319706158Y-40127030D01*
X319652284Y-40127030D01*
X319571471Y-40153967D01*
X328508308Y-64647131D02*
X328158122Y-64997317D01*
X328562183Y-65024255D01*
X328481370Y-65105067D01*
X328454433Y-65185879D01*
X328454433Y-65239754D01*
X328481370Y-65320566D01*
X328616057Y-65455253D01*
X328696870Y-65482190D01*
X328750744Y-65482190D01*
X328831557Y-65455253D01*
X328993181Y-65293629D01*
X329020118Y-65212816D01*
X329020118Y-65158942D01*
X327996497Y-65158942D02*
X328373621Y-65913189D01*
X327619374Y-65536065D01*
X327484687Y-65670752D02*
X327134500Y-66020938D01*
X327538561Y-66047876D01*
X327457749Y-66128688D01*
X327430812Y-66209500D01*
X327430812Y-66263375D01*
X327457749Y-66344187D01*
X327592436Y-66478874D01*
X327673248Y-66505812D01*
X327727123Y-66505812D01*
X327807935Y-66478874D01*
X327969560Y-66317250D01*
X327996497Y-66236438D01*
X327996497Y-66182563D01*
X327646311Y-66748248D02*
X327215312Y-67179247D01*
X326730439Y-66963748D02*
X326541877Y-67152309D01*
X326757377Y-67529433D02*
X327026751Y-67260059D01*
X326461065Y-66694374D01*
X326191691Y-66963748D01*
X326514940Y-67771870D02*
X325949255Y-67206184D01*
X326191691Y-68095118D01*
X325626006Y-67529433D01*
X334083773Y-64879788D02*
X333814399Y-65149162D01*
X334299272Y-64987537D02*
X333545025Y-64610414D01*
X333922149Y-65364661D01*
X333733587Y-65553223D02*
X333167902Y-64987537D01*
X333033215Y-65122224D01*
X332979340Y-65229974D01*
X332979340Y-65337723D01*
X333006277Y-65418536D01*
X333087089Y-65553223D01*
X333167902Y-65634035D01*
X333302589Y-65714847D01*
X333383401Y-65741784D01*
X333491150Y-65741784D01*
X333598900Y-65687910D01*
X333733587Y-65553223D01*
X332790778Y-66388282D02*
X332844653Y-66388282D01*
X332952402Y-66334407D01*
X333006277Y-66280532D01*
X333060152Y-66172783D01*
X333060152Y-66065033D01*
X333033215Y-65984221D01*
X332952402Y-65849534D01*
X332871590Y-65768722D01*
X332736903Y-65687910D01*
X332656091Y-65660972D01*
X332548341Y-65660972D01*
X332440592Y-65714847D01*
X332386717Y-65768722D01*
X332332842Y-65876471D01*
X332332842Y-65930346D01*
X332790778Y-66603781D02*
X332359780Y-67034780D01*
X331686345Y-66469094D02*
X332063468Y-67223341D01*
X331309221Y-66846218D01*
X331363096Y-67923714D02*
X331282284Y-67465778D01*
X331686345Y-67600465D02*
X331120659Y-67034780D01*
X330905160Y-67250279D01*
X330878223Y-67331091D01*
X330878223Y-67384966D01*
X330905160Y-67465778D01*
X330985972Y-67546590D01*
X331066784Y-67573528D01*
X331120659Y-67573528D01*
X331201471Y-67546590D01*
X331416971Y-67331091D01*
X330824348Y-67869839D02*
X330635786Y-68058401D01*
X330851285Y-68435524D02*
X331120659Y-68166150D01*
X330554974Y-67600465D01*
X330285600Y-67869839D01*
X330123975Y-68570211D02*
X330312537Y-68381650D01*
X330608849Y-68677961D02*
X330043163Y-68112276D01*
X329773789Y-68381650D01*
X323071218Y-39138096D02*
X323098155Y-39057284D01*
X323178967Y-38976471D01*
X323286717Y-38922597D01*
X323394467Y-38922597D01*
X323475279Y-38949534D01*
X323609966Y-39030346D01*
X323690778Y-39111158D01*
X323771590Y-39245845D01*
X323798528Y-39326658D01*
X323798528Y-39434407D01*
X323744653Y-39542157D01*
X323690778Y-39596032D01*
X323583028Y-39649906D01*
X323529154Y-39649906D01*
X323340592Y-39461345D01*
X323448341Y-39353595D01*
X323340592Y-39946218D02*
X322774906Y-39380532D01*
X322559407Y-39596032D01*
X322532470Y-39676844D01*
X322532470Y-39730719D01*
X322559407Y-39811531D01*
X322640219Y-39892343D01*
X322721032Y-39919280D01*
X322774906Y-39919280D01*
X322855719Y-39892343D01*
X323071218Y-39676844D01*
X322478595Y-40808215D02*
X322801844Y-40484966D01*
X322640219Y-40646590D02*
X322074534Y-40080905D01*
X322209221Y-40107842D01*
X322316971Y-40107842D01*
X322397783Y-40080905D01*
X345941218Y-39238096D02*
X345968155Y-39157284D01*
X346048967Y-39076471D01*
X346156717Y-39022597D01*
X346264467Y-39022597D01*
X346345279Y-39049534D01*
X346479966Y-39130346D01*
X346560778Y-39211158D01*
X346641590Y-39345845D01*
X346668528Y-39426658D01*
X346668528Y-39534407D01*
X346614653Y-39642157D01*
X346560778Y-39696032D01*
X346453028Y-39749906D01*
X346399154Y-39749906D01*
X346210592Y-39561345D01*
X346318341Y-39453595D01*
X346210592Y-40046218D02*
X345644906Y-39480532D01*
X345429407Y-39696032D01*
X345402470Y-39776844D01*
X345402470Y-39830719D01*
X345429407Y-39911531D01*
X345510219Y-39992343D01*
X345591032Y-40019280D01*
X345644906Y-40019280D01*
X345725719Y-39992343D01*
X345941218Y-39776844D01*
X345240845Y-40369467D02*
X345267783Y-40288654D01*
X345267783Y-40234780D01*
X345240845Y-40153967D01*
X345213908Y-40127030D01*
X345133096Y-40100093D01*
X345079221Y-40100093D01*
X344998409Y-40127030D01*
X344890659Y-40234780D01*
X344863722Y-40315592D01*
X344863722Y-40369467D01*
X344890659Y-40450279D01*
X344917597Y-40477216D01*
X344998409Y-40504154D01*
X345052284Y-40504154D01*
X345133096Y-40477216D01*
X345240845Y-40369467D01*
X345321658Y-40342529D01*
X345375532Y-40342529D01*
X345456345Y-40369467D01*
X345564094Y-40477216D01*
X345591032Y-40558028D01*
X345591032Y-40611903D01*
X345564094Y-40692715D01*
X345456345Y-40800465D01*
X345375532Y-40827402D01*
X345321658Y-40827402D01*
X345240845Y-40800465D01*
X345133096Y-40692715D01*
X345106158Y-40611903D01*
X345106158Y-40558028D01*
X345133096Y-40477216D01*
X340861218Y-39238096D02*
X340888155Y-39157284D01*
X340968967Y-39076471D01*
X341076717Y-39022597D01*
X341184467Y-39022597D01*
X341265279Y-39049534D01*
X341399966Y-39130346D01*
X341480778Y-39211158D01*
X341561590Y-39345845D01*
X341588528Y-39426658D01*
X341588528Y-39534407D01*
X341534653Y-39642157D01*
X341480778Y-39696032D01*
X341373028Y-39749906D01*
X341319154Y-39749906D01*
X341130592Y-39561345D01*
X341238341Y-39453595D01*
X341130592Y-40046218D02*
X340564906Y-39480532D01*
X340349407Y-39696032D01*
X340322470Y-39776844D01*
X340322470Y-39830719D01*
X340349407Y-39911531D01*
X340430219Y-39992343D01*
X340511032Y-40019280D01*
X340564906Y-40019280D01*
X340645719Y-39992343D01*
X340861218Y-39776844D01*
X339756784Y-40288654D02*
X339864534Y-40180905D01*
X339945346Y-40153967D01*
X339999221Y-40153967D01*
X340133908Y-40180905D01*
X340268595Y-40261717D01*
X340484094Y-40477216D01*
X340511032Y-40558028D01*
X340511032Y-40611903D01*
X340484094Y-40692715D01*
X340376345Y-40800465D01*
X340295532Y-40827402D01*
X340241658Y-40827402D01*
X340160845Y-40800465D01*
X340026158Y-40665778D01*
X339999221Y-40584966D01*
X339999221Y-40531091D01*
X340026158Y-40450279D01*
X340133908Y-40342529D01*
X340214720Y-40315592D01*
X340268595Y-40315592D01*
X340349407Y-40342529D01*
X361450592Y-38714722D02*
X361477529Y-38633910D01*
X361558341Y-38553097D01*
X361666091Y-38499223D01*
X361773841Y-38499223D01*
X361854653Y-38526160D01*
X361989340Y-38606972D01*
X362070152Y-38687784D01*
X362150964Y-38822471D01*
X362177902Y-38903284D01*
X362177902Y-39011033D01*
X362124027Y-39118783D01*
X362070152Y-39172658D01*
X361962402Y-39226532D01*
X361908528Y-39226532D01*
X361719966Y-39037971D01*
X361827715Y-38930221D01*
X361719966Y-39522844D02*
X361154280Y-38957158D01*
X360938781Y-39172658D01*
X360911844Y-39253470D01*
X360911844Y-39307345D01*
X360938781Y-39388157D01*
X361019593Y-39468969D01*
X361100406Y-39495906D01*
X361154280Y-39495906D01*
X361235093Y-39468969D01*
X361450592Y-39253470D01*
X360857969Y-40384841D02*
X361181218Y-40061592D01*
X361019593Y-40223216D02*
X360453908Y-39657531D01*
X360588595Y-39684468D01*
X360696345Y-39684468D01*
X360777157Y-39657531D01*
X360103722Y-40007717D02*
X359753536Y-40357903D01*
X360157597Y-40384841D01*
X360076784Y-40465653D01*
X360049847Y-40546465D01*
X360049847Y-40600340D01*
X360076784Y-40681152D01*
X360211471Y-40815839D01*
X360292284Y-40842776D01*
X360346158Y-40842776D01*
X360426971Y-40815839D01*
X360588595Y-40654215D01*
X360615532Y-40573402D01*
X360615532Y-40519528D01*
X356370592Y-64822722D02*
X356397529Y-64741910D01*
X356478341Y-64661097D01*
X356586091Y-64607223D01*
X356693841Y-64607223D01*
X356774653Y-64634160D01*
X356909340Y-64714972D01*
X356990152Y-64795784D01*
X357070964Y-64930471D01*
X357097902Y-65011284D01*
X357097902Y-65119033D01*
X357044027Y-65226783D01*
X356990152Y-65280658D01*
X356882402Y-65334532D01*
X356828528Y-65334532D01*
X356639966Y-65145971D01*
X356747715Y-65038221D01*
X356639966Y-65630844D02*
X356074280Y-65065158D01*
X355858781Y-65280658D01*
X355831844Y-65361470D01*
X355831844Y-65415345D01*
X355858781Y-65496157D01*
X355939593Y-65576969D01*
X356020406Y-65603906D01*
X356074280Y-65603906D01*
X356155093Y-65576969D01*
X356370592Y-65361470D01*
X355589407Y-65657781D02*
X355535532Y-65657781D01*
X355454720Y-65684719D01*
X355320033Y-65819406D01*
X355293096Y-65900218D01*
X355293096Y-65954093D01*
X355320033Y-66034905D01*
X355373908Y-66088780D01*
X355481658Y-66142654D01*
X356128155Y-66142654D01*
X355777969Y-66492841D01*
X354862097Y-66277341D02*
X354808223Y-66331216D01*
X354781285Y-66412028D01*
X354781285Y-66465903D01*
X354808223Y-66546715D01*
X354889035Y-66681402D01*
X355023722Y-66816089D01*
X355158409Y-66896902D01*
X355239221Y-66923839D01*
X355293096Y-66923839D01*
X355373908Y-66896902D01*
X355427783Y-66843027D01*
X355454720Y-66762215D01*
X355454720Y-66708340D01*
X355427783Y-66627528D01*
X355346971Y-66492841D01*
X355212284Y-66358154D01*
X355077597Y-66277341D01*
X354996784Y-66250404D01*
X354942910Y-66250404D01*
X354862097Y-66277341D01*
X351048155Y-39211158D02*
X351075093Y-39130346D01*
X351155905Y-39049534D01*
X351263654Y-38995659D01*
X351371404Y-38995659D01*
X351452216Y-39022597D01*
X351586903Y-39103409D01*
X351667715Y-39184221D01*
X351748528Y-39318908D01*
X351775465Y-39399720D01*
X351775465Y-39507470D01*
X351721590Y-39615219D01*
X351667715Y-39669094D01*
X351559966Y-39722969D01*
X351506091Y-39722969D01*
X351317529Y-39534407D01*
X351425279Y-39426658D01*
X351317529Y-40019280D02*
X350751844Y-39453595D01*
X350994280Y-40342529D01*
X350428595Y-39776844D01*
X350724906Y-40611903D02*
X350159221Y-40046218D01*
X350024534Y-40180905D01*
X349970659Y-40288654D01*
X349970659Y-40396404D01*
X349997597Y-40477216D01*
X350078409Y-40611903D01*
X350159221Y-40692715D01*
X350293908Y-40773528D01*
X350374720Y-40800465D01*
X350482470Y-40800465D01*
X350590219Y-40746590D01*
X350724906Y-40611903D01*
X361450592Y-64822722D02*
X361477529Y-64741910D01*
X361558341Y-64661097D01*
X361666091Y-64607223D01*
X361773841Y-64607223D01*
X361854653Y-64634160D01*
X361989340Y-64714972D01*
X362070152Y-64795784D01*
X362150964Y-64930471D01*
X362177902Y-65011284D01*
X362177902Y-65119033D01*
X362124027Y-65226783D01*
X362070152Y-65280658D01*
X361962402Y-65334532D01*
X361908528Y-65334532D01*
X361719966Y-65145971D01*
X361827715Y-65038221D01*
X361719966Y-65630844D02*
X361154280Y-65065158D01*
X360938781Y-65280658D01*
X360911844Y-65361470D01*
X360911844Y-65415345D01*
X360938781Y-65496157D01*
X361019593Y-65576969D01*
X361100406Y-65603906D01*
X361154280Y-65603906D01*
X361235093Y-65576969D01*
X361450592Y-65361470D01*
X360857969Y-66492841D02*
X361181218Y-66169592D01*
X361019593Y-66331216D02*
X360453908Y-65765531D01*
X360588595Y-65792468D01*
X360696345Y-65792468D01*
X360777157Y-65765531D01*
X360211471Y-66492841D02*
X360238409Y-66412028D01*
X360238409Y-66358154D01*
X360211471Y-66277341D01*
X360184534Y-66250404D01*
X360103722Y-66223467D01*
X360049847Y-66223467D01*
X359969035Y-66250404D01*
X359861285Y-66358154D01*
X359834348Y-66438966D01*
X359834348Y-66492841D01*
X359861285Y-66573653D01*
X359888223Y-66600590D01*
X359969035Y-66627528D01*
X360022910Y-66627528D01*
X360103722Y-66600590D01*
X360211471Y-66492841D01*
X360292284Y-66465903D01*
X360346158Y-66465903D01*
X360426971Y-66492841D01*
X360534720Y-66600590D01*
X360561658Y-66681402D01*
X360561658Y-66735277D01*
X360534720Y-66816089D01*
X360426971Y-66923839D01*
X360346158Y-66950776D01*
X360292284Y-66950776D01*
X360211471Y-66923839D01*
X360103722Y-66816089D01*
X360076784Y-66735277D01*
X360076784Y-66681402D01*
X360103722Y-66600590D01*
X369070592Y-38714722D02*
X369097529Y-38633910D01*
X369178341Y-38553097D01*
X369286091Y-38499223D01*
X369393841Y-38499223D01*
X369474653Y-38526160D01*
X369609340Y-38606972D01*
X369690152Y-38687784D01*
X369770964Y-38822471D01*
X369797902Y-38903284D01*
X369797902Y-39011033D01*
X369744027Y-39118783D01*
X369690152Y-39172658D01*
X369582402Y-39226532D01*
X369528528Y-39226532D01*
X369339966Y-39037971D01*
X369447715Y-38930221D01*
X369339966Y-39522844D02*
X368774280Y-38957158D01*
X368558781Y-39172658D01*
X368531844Y-39253470D01*
X368531844Y-39307345D01*
X368558781Y-39388157D01*
X368639593Y-39468969D01*
X368720406Y-39495906D01*
X368774280Y-39495906D01*
X368855093Y-39468969D01*
X369070592Y-39253470D01*
X368477969Y-40384841D02*
X368801218Y-40061592D01*
X368639593Y-40223216D02*
X368073908Y-39657531D01*
X368208595Y-39684468D01*
X368316345Y-39684468D01*
X368397157Y-39657531D01*
X367400473Y-40330966D02*
X367669847Y-40061592D01*
X367966158Y-40304028D01*
X367912284Y-40304028D01*
X367831471Y-40330966D01*
X367696784Y-40465653D01*
X367669847Y-40546465D01*
X367669847Y-40600340D01*
X367696784Y-40681152D01*
X367831471Y-40815839D01*
X367912284Y-40842776D01*
X367966158Y-40842776D01*
X368046971Y-40815839D01*
X368181658Y-40681152D01*
X368208595Y-40600340D01*
X368208595Y-40546465D01*
X323619966Y-64645473D02*
X323997089Y-65399720D01*
X323242842Y-65022597D01*
X323619966Y-65722969D02*
X323566091Y-65830719D01*
X323431404Y-65965406D01*
X323350592Y-65992343D01*
X323296717Y-65992343D01*
X323215905Y-65965406D01*
X323162030Y-65911531D01*
X323135093Y-65830719D01*
X323135093Y-65776844D01*
X323162030Y-65696032D01*
X323242842Y-65561345D01*
X323269780Y-65480532D01*
X323269780Y-65426658D01*
X323242842Y-65345845D01*
X323188967Y-65291971D01*
X323108155Y-65265033D01*
X323054280Y-65265033D01*
X322973468Y-65291971D01*
X322838781Y-65426658D01*
X322784906Y-65534407D01*
X322704094Y-66153967D02*
X322973468Y-66423341D01*
X322596345Y-65669094D02*
X322704094Y-66153967D01*
X322219221Y-66046218D01*
X322596345Y-66746590D02*
X322542470Y-66854340D01*
X322407783Y-66989027D01*
X322326971Y-67015964D01*
X322273096Y-67015964D01*
X322192284Y-66989027D01*
X322138409Y-66935152D01*
X322111471Y-66854340D01*
X322111471Y-66800465D01*
X322138409Y-66719653D01*
X322219221Y-66584966D01*
X322246158Y-66504154D01*
X322246158Y-66450279D01*
X322219221Y-66369467D01*
X322165346Y-66315592D01*
X322084534Y-66288654D01*
X322030659Y-66288654D01*
X321949847Y-66315592D01*
X321815160Y-66450279D01*
X321761285Y-66558028D01*
X358910592Y-38568722D02*
X358937529Y-38487910D01*
X359018341Y-38407097D01*
X359126091Y-38353223D01*
X359233841Y-38353223D01*
X359314653Y-38380160D01*
X359449340Y-38460972D01*
X359530152Y-38541784D01*
X359610964Y-38676471D01*
X359637902Y-38757284D01*
X359637902Y-38865033D01*
X359584027Y-38972783D01*
X359530152Y-39026658D01*
X359422402Y-39080532D01*
X359368528Y-39080532D01*
X359179966Y-38891971D01*
X359287715Y-38784221D01*
X359179966Y-39376844D02*
X358614280Y-38811158D01*
X358398781Y-39026658D01*
X358371844Y-39107470D01*
X358371844Y-39161345D01*
X358398781Y-39242157D01*
X358479593Y-39322969D01*
X358560406Y-39349906D01*
X358614280Y-39349906D01*
X358695093Y-39322969D01*
X358910592Y-39107470D01*
X358317969Y-40238841D02*
X358641218Y-39915592D01*
X358479593Y-40077216D02*
X357913908Y-39511531D01*
X358048595Y-39538468D01*
X358156345Y-39538468D01*
X358237157Y-39511531D01*
X357590659Y-39942529D02*
X357536784Y-39942529D01*
X357455972Y-39969467D01*
X357321285Y-40104154D01*
X357294348Y-40184966D01*
X357294348Y-40238841D01*
X357321285Y-40319653D01*
X357375160Y-40373528D01*
X357482910Y-40427402D01*
X358129407Y-40427402D01*
X357779221Y-40777589D01*
X335796592Y-64822722D02*
X335823529Y-64741910D01*
X335904341Y-64661097D01*
X336012091Y-64607223D01*
X336119841Y-64607223D01*
X336200653Y-64634160D01*
X336335340Y-64714972D01*
X336416152Y-64795784D01*
X336496964Y-64930471D01*
X336523902Y-65011284D01*
X336523902Y-65119033D01*
X336470027Y-65226783D01*
X336416152Y-65280658D01*
X336308402Y-65334532D01*
X336254528Y-65334532D01*
X336065966Y-65145971D01*
X336173715Y-65038221D01*
X336065966Y-65630844D02*
X335500280Y-65065158D01*
X335284781Y-65280658D01*
X335257844Y-65361470D01*
X335257844Y-65415345D01*
X335284781Y-65496157D01*
X335365593Y-65576969D01*
X335446406Y-65603906D01*
X335500280Y-65603906D01*
X335581093Y-65576969D01*
X335796592Y-65361470D01*
X335015407Y-65657781D02*
X334961532Y-65657781D01*
X334880720Y-65684719D01*
X334746033Y-65819406D01*
X334719096Y-65900218D01*
X334719096Y-65954093D01*
X334746033Y-66034905D01*
X334799908Y-66088780D01*
X334907658Y-66142654D01*
X335554155Y-66142654D01*
X335203969Y-66492841D01*
X334557471Y-66492841D02*
X334584409Y-66412028D01*
X334584409Y-66358154D01*
X334557471Y-66277341D01*
X334530534Y-66250404D01*
X334449722Y-66223467D01*
X334395847Y-66223467D01*
X334315035Y-66250404D01*
X334207285Y-66358154D01*
X334180348Y-66438966D01*
X334180348Y-66492841D01*
X334207285Y-66573653D01*
X334234223Y-66600590D01*
X334315035Y-66627528D01*
X334368910Y-66627528D01*
X334449722Y-66600590D01*
X334557471Y-66492841D01*
X334638284Y-66465903D01*
X334692158Y-66465903D01*
X334772971Y-66492841D01*
X334880720Y-66600590D01*
X334907658Y-66681402D01*
X334907658Y-66735277D01*
X334880720Y-66816089D01*
X334772971Y-66923839D01*
X334692158Y-66950776D01*
X334638284Y-66950776D01*
X334557471Y-66923839D01*
X334449722Y-66816089D01*
X334422784Y-66735277D01*
X334422784Y-66681402D01*
X334449722Y-66600590D01*
X348481218Y-39238096D02*
X348508155Y-39157284D01*
X348588967Y-39076471D01*
X348696717Y-39022597D01*
X348804467Y-39022597D01*
X348885279Y-39049534D01*
X349019966Y-39130346D01*
X349100778Y-39211158D01*
X349181590Y-39345845D01*
X349208528Y-39426658D01*
X349208528Y-39534407D01*
X349154653Y-39642157D01*
X349100778Y-39696032D01*
X348993028Y-39749906D01*
X348939154Y-39749906D01*
X348750592Y-39561345D01*
X348858341Y-39453595D01*
X348750592Y-40046218D02*
X348184906Y-39480532D01*
X347969407Y-39696032D01*
X347942470Y-39776844D01*
X347942470Y-39830719D01*
X347969407Y-39911531D01*
X348050219Y-39992343D01*
X348131032Y-40019280D01*
X348184906Y-40019280D01*
X348265719Y-39992343D01*
X348481218Y-39776844D01*
X348157969Y-40638841D02*
X348050219Y-40746590D01*
X347969407Y-40773528D01*
X347915532Y-40773528D01*
X347780845Y-40746590D01*
X347646158Y-40665778D01*
X347430659Y-40450279D01*
X347403722Y-40369467D01*
X347403722Y-40315592D01*
X347430659Y-40234780D01*
X347538409Y-40127030D01*
X347619221Y-40100093D01*
X347673096Y-40100093D01*
X347753908Y-40127030D01*
X347888595Y-40261717D01*
X347915532Y-40342529D01*
X347915532Y-40396404D01*
X347888595Y-40477216D01*
X347780845Y-40584966D01*
X347700033Y-40611903D01*
X347646158Y-40611903D01*
X347565346Y-40584966D01*
X343371218Y-39338096D02*
X343398155Y-39257284D01*
X343478967Y-39176471D01*
X343586717Y-39122597D01*
X343694467Y-39122597D01*
X343775279Y-39149534D01*
X343909966Y-39230346D01*
X343990778Y-39311158D01*
X344071590Y-39445845D01*
X344098528Y-39526658D01*
X344098528Y-39634407D01*
X344044653Y-39742157D01*
X343990778Y-39796032D01*
X343883028Y-39849906D01*
X343829154Y-39849906D01*
X343640592Y-39661345D01*
X343748341Y-39553595D01*
X343640592Y-40146218D02*
X343074906Y-39580532D01*
X342859407Y-39796032D01*
X342832470Y-39876844D01*
X342832470Y-39930719D01*
X342859407Y-40011531D01*
X342940219Y-40092343D01*
X343021032Y-40119280D01*
X343074906Y-40119280D01*
X343155719Y-40092343D01*
X343371218Y-39876844D01*
X342563096Y-40092343D02*
X342185972Y-40469467D01*
X342994094Y-40792715D01*
X321077309Y-64678129D02*
X321454433Y-65432377D01*
X320700186Y-65055253D01*
X320592436Y-65701751D02*
X320538561Y-65809500D01*
X320538561Y-65863375D01*
X320565499Y-65944187D01*
X320646311Y-66024999D01*
X320727123Y-66051937D01*
X320780998Y-66051937D01*
X320861810Y-66024999D01*
X321077309Y-65809500D01*
X320511624Y-65243815D01*
X320323062Y-65432377D01*
X320296125Y-65513189D01*
X320296125Y-65567064D01*
X320323062Y-65647876D01*
X320376937Y-65701751D01*
X320457749Y-65728688D01*
X320511624Y-65728688D01*
X320592436Y-65701751D01*
X320780998Y-65513189D01*
X319945938Y-65809500D02*
X320403874Y-66267436D01*
X320430812Y-66348248D01*
X320430812Y-66402123D01*
X320403874Y-66482935D01*
X320296125Y-66590685D01*
X320215312Y-66617622D01*
X320161438Y-66617622D01*
X320080625Y-66590685D01*
X319622690Y-66132749D01*
X319919001Y-66913934D02*
X319865126Y-67021683D01*
X319730439Y-67156370D01*
X319649627Y-67183308D01*
X319595752Y-67183308D01*
X319514940Y-67156370D01*
X319461065Y-67102496D01*
X319434128Y-67021683D01*
X319434128Y-66967809D01*
X319461065Y-66886996D01*
X319541877Y-66752309D01*
X319568815Y-66671497D01*
X319568815Y-66617622D01*
X319541877Y-66536810D01*
X319488003Y-66482935D01*
X319407190Y-66455998D01*
X319353316Y-66455998D01*
X319272503Y-66482935D01*
X319137816Y-66617622D01*
X319083942Y-66725372D01*
X348750592Y-64822722D02*
X348777529Y-64741910D01*
X348858341Y-64661097D01*
X348966091Y-64607223D01*
X349073841Y-64607223D01*
X349154653Y-64634160D01*
X349289340Y-64714972D01*
X349370152Y-64795784D01*
X349450964Y-64930471D01*
X349477902Y-65011284D01*
X349477902Y-65119033D01*
X349424027Y-65226783D01*
X349370152Y-65280658D01*
X349262402Y-65334532D01*
X349208528Y-65334532D01*
X349019966Y-65145971D01*
X349127715Y-65038221D01*
X349019966Y-65630844D02*
X348454280Y-65065158D01*
X348238781Y-65280658D01*
X348211844Y-65361470D01*
X348211844Y-65415345D01*
X348238781Y-65496157D01*
X348319593Y-65576969D01*
X348400406Y-65603906D01*
X348454280Y-65603906D01*
X348535093Y-65576969D01*
X348750592Y-65361470D01*
X347969407Y-65657781D02*
X347915532Y-65657781D01*
X347834720Y-65684719D01*
X347700033Y-65819406D01*
X347673096Y-65900218D01*
X347673096Y-65954093D01*
X347700033Y-66034905D01*
X347753908Y-66088780D01*
X347861658Y-66142654D01*
X348508155Y-66142654D01*
X348157969Y-66492841D01*
X347430659Y-66196529D02*
X347376784Y-66196529D01*
X347295972Y-66223467D01*
X347161285Y-66358154D01*
X347134348Y-66438966D01*
X347134348Y-66492841D01*
X347161285Y-66573653D01*
X347215160Y-66627528D01*
X347322910Y-66681402D01*
X347969407Y-66681402D01*
X347619221Y-67031589D01*
X356370592Y-38568722D02*
X356397529Y-38487910D01*
X356478341Y-38407097D01*
X356586091Y-38353223D01*
X356693841Y-38353223D01*
X356774653Y-38380160D01*
X356909340Y-38460972D01*
X356990152Y-38541784D01*
X357070964Y-38676471D01*
X357097902Y-38757284D01*
X357097902Y-38865033D01*
X357044027Y-38972783D01*
X356990152Y-39026658D01*
X356882402Y-39080532D01*
X356828528Y-39080532D01*
X356639966Y-38891971D01*
X356747715Y-38784221D01*
X356639966Y-39376844D02*
X356074280Y-38811158D01*
X355858781Y-39026658D01*
X355831844Y-39107470D01*
X355831844Y-39161345D01*
X355858781Y-39242157D01*
X355939593Y-39322969D01*
X356020406Y-39349906D01*
X356074280Y-39349906D01*
X356155093Y-39322969D01*
X356370592Y-39107470D01*
X355777969Y-40238841D02*
X356101218Y-39915592D01*
X355939593Y-40077216D02*
X355373908Y-39511531D01*
X355508595Y-39538468D01*
X355616345Y-39538468D01*
X355697157Y-39511531D01*
X355239221Y-40777589D02*
X355562470Y-40454340D01*
X355400845Y-40615964D02*
X354835160Y-40050279D01*
X354969847Y-40077216D01*
X355077597Y-40077216D01*
X355158409Y-40050279D01*
X331040592Y-64614847D02*
X330690406Y-64965033D01*
X331094467Y-64991971D01*
X331013654Y-65072783D01*
X330986717Y-65153595D01*
X330986717Y-65207470D01*
X331013654Y-65288282D01*
X331148341Y-65422969D01*
X331229154Y-65449906D01*
X331283028Y-65449906D01*
X331363841Y-65422969D01*
X331525465Y-65261345D01*
X331552402Y-65180532D01*
X331552402Y-65126658D01*
X330528781Y-65126658D02*
X330905905Y-65880905D01*
X330151658Y-65503781D01*
X330016971Y-65638468D02*
X329666784Y-65988654D01*
X330070845Y-66015592D01*
X329990033Y-66096404D01*
X329963096Y-66177216D01*
X329963096Y-66231091D01*
X329990033Y-66311903D01*
X330124720Y-66446590D01*
X330205532Y-66473528D01*
X330259407Y-66473528D01*
X330340219Y-66446590D01*
X330501844Y-66284966D01*
X330528781Y-66204154D01*
X330528781Y-66150279D01*
X366530592Y-64822722D02*
X366557529Y-64741910D01*
X366638341Y-64661097D01*
X366746091Y-64607223D01*
X366853841Y-64607223D01*
X366934653Y-64634160D01*
X367069340Y-64714972D01*
X367150152Y-64795784D01*
X367230964Y-64930471D01*
X367257902Y-65011284D01*
X367257902Y-65119033D01*
X367204027Y-65226783D01*
X367150152Y-65280658D01*
X367042402Y-65334532D01*
X366988528Y-65334532D01*
X366799966Y-65145971D01*
X366907715Y-65038221D01*
X366799966Y-65630844D02*
X366234280Y-65065158D01*
X366018781Y-65280658D01*
X365991844Y-65361470D01*
X365991844Y-65415345D01*
X366018781Y-65496157D01*
X366099593Y-65576969D01*
X366180406Y-65603906D01*
X366234280Y-65603906D01*
X366315093Y-65576969D01*
X366530592Y-65361470D01*
X365937969Y-66492841D02*
X366261218Y-66169592D01*
X366099593Y-66331216D02*
X365533908Y-65765531D01*
X365668595Y-65792468D01*
X365776345Y-65792468D01*
X365857157Y-65765531D01*
X365183722Y-66115717D02*
X364806598Y-66492841D01*
X365614720Y-66816089D01*
X339290964Y-64876597D02*
X339021590Y-65145971D01*
X339506463Y-64984346D02*
X338752216Y-64607223D01*
X339129340Y-65361470D01*
X338105719Y-65307595D02*
X338132656Y-65226783D01*
X338213468Y-65145971D01*
X338321218Y-65092096D01*
X338428967Y-65092096D01*
X338509780Y-65119033D01*
X338644467Y-65199845D01*
X338725279Y-65280658D01*
X338806091Y-65415345D01*
X338833028Y-65496157D01*
X338833028Y-65603906D01*
X338779154Y-65711656D01*
X338725279Y-65765531D01*
X338617529Y-65819406D01*
X338563654Y-65819406D01*
X338375093Y-65630844D01*
X338482842Y-65523094D01*
X338375093Y-66115717D02*
X337809407Y-65550032D01*
X338051844Y-66438966D01*
X337486158Y-65873280D01*
X337782470Y-66708340D02*
X337216784Y-66142654D01*
X337082097Y-66277341D01*
X337028223Y-66385091D01*
X337028223Y-66492841D01*
X337055160Y-66573653D01*
X337135972Y-66708340D01*
X337216784Y-66789152D01*
X337351471Y-66869964D01*
X337432284Y-66896902D01*
X337540033Y-66896902D01*
X337647783Y-66843027D01*
X337782470Y-66708340D01*
X351048155Y-64811158D02*
X351075093Y-64730346D01*
X351155905Y-64649534D01*
X351263654Y-64595659D01*
X351371404Y-64595659D01*
X351452216Y-64622597D01*
X351586903Y-64703409D01*
X351667715Y-64784221D01*
X351748528Y-64918908D01*
X351775465Y-64999720D01*
X351775465Y-65107470D01*
X351721590Y-65215219D01*
X351667715Y-65269094D01*
X351559966Y-65322969D01*
X351506091Y-65322969D01*
X351317529Y-65134407D01*
X351425279Y-65026658D01*
X351317529Y-65619280D02*
X350751844Y-65053595D01*
X350994280Y-65942529D01*
X350428595Y-65376844D01*
X350724906Y-66211903D02*
X350159221Y-65646218D01*
X350024534Y-65780905D01*
X349970659Y-65888654D01*
X349970659Y-65996404D01*
X349997597Y-66077216D01*
X350078409Y-66211903D01*
X350159221Y-66292715D01*
X350293908Y-66373528D01*
X350374720Y-66400465D01*
X350482470Y-66400465D01*
X350590219Y-66346590D01*
X350724906Y-66211903D01*
X333241218Y-39238096D02*
X333268155Y-39157284D01*
X333348967Y-39076471D01*
X333456717Y-39022597D01*
X333564467Y-39022597D01*
X333645279Y-39049534D01*
X333779966Y-39130346D01*
X333860778Y-39211158D01*
X333941590Y-39345845D01*
X333968528Y-39426658D01*
X333968528Y-39534407D01*
X333914653Y-39642157D01*
X333860778Y-39696032D01*
X333753028Y-39749906D01*
X333699154Y-39749906D01*
X333510592Y-39561345D01*
X333618341Y-39453595D01*
X333510592Y-40046218D02*
X332944906Y-39480532D01*
X332729407Y-39696032D01*
X332702470Y-39776844D01*
X332702470Y-39830719D01*
X332729407Y-39911531D01*
X332810219Y-39992343D01*
X332891032Y-40019280D01*
X332944906Y-40019280D01*
X333025719Y-39992343D01*
X333241218Y-39776844D01*
X332325346Y-40477216D02*
X332702470Y-40854340D01*
X332244534Y-40127030D02*
X332783282Y-40396404D01*
X332433096Y-40746590D01*
X353830592Y-38714722D02*
X353857529Y-38633910D01*
X353938341Y-38553097D01*
X354046091Y-38499223D01*
X354153841Y-38499223D01*
X354234653Y-38526160D01*
X354369340Y-38606972D01*
X354450152Y-38687784D01*
X354530964Y-38822471D01*
X354557902Y-38903284D01*
X354557902Y-39011033D01*
X354504027Y-39118783D01*
X354450152Y-39172658D01*
X354342402Y-39226532D01*
X354288528Y-39226532D01*
X354099966Y-39037971D01*
X354207715Y-38930221D01*
X354099966Y-39522844D02*
X353534280Y-38957158D01*
X353318781Y-39172658D01*
X353291844Y-39253470D01*
X353291844Y-39307345D01*
X353318781Y-39388157D01*
X353399593Y-39468969D01*
X353480406Y-39495906D01*
X353534280Y-39495906D01*
X353615093Y-39468969D01*
X353830592Y-39253470D01*
X353237969Y-40384841D02*
X353561218Y-40061592D01*
X353399593Y-40223216D02*
X352833908Y-39657531D01*
X352968595Y-39684468D01*
X353076345Y-39684468D01*
X353157157Y-39657531D01*
X352322097Y-40169341D02*
X352268223Y-40223216D01*
X352241285Y-40304028D01*
X352241285Y-40357903D01*
X352268223Y-40438715D01*
X352349035Y-40573402D01*
X352483722Y-40708089D01*
X352618409Y-40788902D01*
X352699221Y-40815839D01*
X352753096Y-40815839D01*
X352833908Y-40788902D01*
X352887783Y-40735027D01*
X352914720Y-40654215D01*
X352914720Y-40600340D01*
X352887783Y-40519528D01*
X352806971Y-40384841D01*
X352672284Y-40250154D01*
X352537597Y-40169341D01*
X352456784Y-40142404D01*
X352402910Y-40142404D01*
X352322097Y-40169341D01*
X341140592Y-64822722D02*
X341167529Y-64741910D01*
X341248341Y-64661097D01*
X341356091Y-64607223D01*
X341463841Y-64607223D01*
X341544653Y-64634160D01*
X341679340Y-64714972D01*
X341760152Y-64795784D01*
X341840964Y-64930471D01*
X341867902Y-65011284D01*
X341867902Y-65119033D01*
X341814027Y-65226783D01*
X341760152Y-65280658D01*
X341652402Y-65334532D01*
X341598528Y-65334532D01*
X341409966Y-65145971D01*
X341517715Y-65038221D01*
X341409966Y-65630844D02*
X340844280Y-65065158D01*
X340628781Y-65280658D01*
X340601844Y-65361470D01*
X340601844Y-65415345D01*
X340628781Y-65496157D01*
X340709593Y-65576969D01*
X340790406Y-65603906D01*
X340844280Y-65603906D01*
X340925093Y-65576969D01*
X341140592Y-65361470D01*
X340359407Y-65657781D02*
X340305532Y-65657781D01*
X340224720Y-65684719D01*
X340090033Y-65819406D01*
X340063096Y-65900218D01*
X340063096Y-65954093D01*
X340090033Y-66034905D01*
X340143908Y-66088780D01*
X340251658Y-66142654D01*
X340898155Y-66142654D01*
X340547969Y-66492841D01*
X339793722Y-66115717D02*
X339416598Y-66492841D01*
X340224720Y-66816089D01*
X353840592Y-64822722D02*
X353867529Y-64741910D01*
X353948341Y-64661097D01*
X354056091Y-64607223D01*
X354163841Y-64607223D01*
X354244653Y-64634160D01*
X354379340Y-64714972D01*
X354460152Y-64795784D01*
X354540964Y-64930471D01*
X354567902Y-65011284D01*
X354567902Y-65119033D01*
X354514027Y-65226783D01*
X354460152Y-65280658D01*
X354352402Y-65334532D01*
X354298528Y-65334532D01*
X354109966Y-65145971D01*
X354217715Y-65038221D01*
X354109966Y-65630844D02*
X353544280Y-65065158D01*
X353328781Y-65280658D01*
X353301844Y-65361470D01*
X353301844Y-65415345D01*
X353328781Y-65496157D01*
X353409593Y-65576969D01*
X353490406Y-65603906D01*
X353544280Y-65603906D01*
X353625093Y-65576969D01*
X353840592Y-65361470D01*
X353059407Y-65657781D02*
X353005532Y-65657781D01*
X352924720Y-65684719D01*
X352790033Y-65819406D01*
X352763096Y-65900218D01*
X352763096Y-65954093D01*
X352790033Y-66034905D01*
X352843908Y-66088780D01*
X352951658Y-66142654D01*
X353598155Y-66142654D01*
X353247969Y-66492841D01*
X352709221Y-67031589D02*
X353032470Y-66708340D01*
X352870845Y-66869964D02*
X352305160Y-66304279D01*
X352439847Y-66331216D01*
X352547597Y-66331216D01*
X352628409Y-66304279D01*
X325648155Y-39211158D02*
X325675093Y-39130346D01*
X325755905Y-39049534D01*
X325863654Y-38995659D01*
X325971404Y-38995659D01*
X326052216Y-39022597D01*
X326186903Y-39103409D01*
X326267715Y-39184221D01*
X326348528Y-39318908D01*
X326375465Y-39399720D01*
X326375465Y-39507470D01*
X326321590Y-39615219D01*
X326267715Y-39669094D01*
X326159966Y-39722969D01*
X326106091Y-39722969D01*
X325917529Y-39534407D01*
X326025279Y-39426658D01*
X325917529Y-40019280D02*
X325351844Y-39453595D01*
X325594280Y-40342529D01*
X325028595Y-39776844D01*
X325324906Y-40611903D02*
X324759221Y-40046218D01*
X324624534Y-40180905D01*
X324570659Y-40288654D01*
X324570659Y-40396404D01*
X324597597Y-40477216D01*
X324678409Y-40611903D01*
X324759221Y-40692715D01*
X324893908Y-40773528D01*
X324974720Y-40800465D01*
X325082470Y-40800465D01*
X325190219Y-40746590D01*
X325324906Y-40611903D01*
X371073809Y-56629761D02*
X371111904Y-56744047D01*
X371111904Y-56934523D01*
X371073809Y-57010714D01*
X371035714Y-57048809D01*
X370959523Y-57086904D01*
X370883333Y-57086904D01*
X370807142Y-57048809D01*
X370769047Y-57010714D01*
X370730952Y-56934523D01*
X370692857Y-56782142D01*
X370654761Y-56705952D01*
X370616666Y-56667857D01*
X370540476Y-56629761D01*
X370464285Y-56629761D01*
X370388095Y-56667857D01*
X370350000Y-56705952D01*
X370311904Y-56782142D01*
X370311904Y-56972619D01*
X370350000Y-57086904D01*
X370311904Y-57353571D02*
X371111904Y-57544047D01*
X370540476Y-57696428D01*
X371111904Y-57848809D01*
X370311904Y-58039285D01*
X371111904Y-58344047D02*
X370311904Y-58344047D01*
X370311904Y-58534523D01*
X370350000Y-58648809D01*
X370426190Y-58725000D01*
X370502380Y-58763095D01*
X370654761Y-58801190D01*
X370769047Y-58801190D01*
X370921428Y-58763095D01*
X370997619Y-58725000D01*
X371073809Y-58648809D01*
X371111904Y-58534523D01*
X371111904Y-58344047D01*
X371111904Y-59144047D02*
X370311904Y-59144047D01*
X370311904Y-59677380D02*
X370311904Y-59829761D01*
X370350000Y-59905952D01*
X370426190Y-59982142D01*
X370578571Y-60020238D01*
X370845238Y-60020238D01*
X370997619Y-59982142D01*
X371073809Y-59905952D01*
X371111904Y-59829761D01*
X371111904Y-59677380D01*
X371073809Y-59601190D01*
X370997619Y-59525000D01*
X370845238Y-59486904D01*
X370578571Y-59486904D01*
X370426190Y-59525000D01*
X370350000Y-59601190D01*
X370311904Y-59677380D01*
X325648155Y-64811158D02*
X325675093Y-64730346D01*
X325755905Y-64649534D01*
X325863654Y-64595659D01*
X325971404Y-64595659D01*
X326052216Y-64622597D01*
X326186903Y-64703409D01*
X326267715Y-64784221D01*
X326348528Y-64918908D01*
X326375465Y-64999720D01*
X326375465Y-65107470D01*
X326321590Y-65215219D01*
X326267715Y-65269094D01*
X326159966Y-65322969D01*
X326106091Y-65322969D01*
X325917529Y-65134407D01*
X326025279Y-65026658D01*
X325917529Y-65619280D02*
X325351844Y-65053595D01*
X325594280Y-65942529D01*
X325028595Y-65376844D01*
X325324906Y-66211903D02*
X324759221Y-65646218D01*
X324624534Y-65780905D01*
X324570659Y-65888654D01*
X324570659Y-65996404D01*
X324597597Y-66077216D01*
X324678409Y-66211903D01*
X324759221Y-66292715D01*
X324893908Y-66373528D01*
X324974720Y-66400465D01*
X325082470Y-66400465D01*
X325190219Y-66346590D01*
X325324906Y-66211903D01*
X328161218Y-39138096D02*
X328188155Y-39057284D01*
X328268967Y-38976471D01*
X328376717Y-38922597D01*
X328484467Y-38922597D01*
X328565279Y-38949534D01*
X328699966Y-39030346D01*
X328780778Y-39111158D01*
X328861590Y-39245845D01*
X328888528Y-39326658D01*
X328888528Y-39434407D01*
X328834653Y-39542157D01*
X328780778Y-39596032D01*
X328673028Y-39649906D01*
X328619154Y-39649906D01*
X328430592Y-39461345D01*
X328538341Y-39353595D01*
X328430592Y-39946218D02*
X327864906Y-39380532D01*
X327649407Y-39596032D01*
X327622470Y-39676844D01*
X327622470Y-39730719D01*
X327649407Y-39811531D01*
X327730219Y-39892343D01*
X327811032Y-39919280D01*
X327864906Y-39919280D01*
X327945719Y-39892343D01*
X328161218Y-39676844D01*
X327380033Y-39973155D02*
X327326158Y-39973155D01*
X327245346Y-40000093D01*
X327110659Y-40134780D01*
X327083722Y-40215592D01*
X327083722Y-40269467D01*
X327110659Y-40350279D01*
X327164534Y-40404154D01*
X327272284Y-40458028D01*
X327918781Y-40458028D01*
X327568595Y-40808215D01*
X338348155Y-39211158D02*
X338375093Y-39130346D01*
X338455905Y-39049534D01*
X338563654Y-38995659D01*
X338671404Y-38995659D01*
X338752216Y-39022597D01*
X338886903Y-39103409D01*
X338967715Y-39184221D01*
X339048528Y-39318908D01*
X339075465Y-39399720D01*
X339075465Y-39507470D01*
X339021590Y-39615219D01*
X338967715Y-39669094D01*
X338859966Y-39722969D01*
X338806091Y-39722969D01*
X338617529Y-39534407D01*
X338725279Y-39426658D01*
X338617529Y-40019280D02*
X338051844Y-39453595D01*
X338294280Y-40342529D01*
X337728595Y-39776844D01*
X338024906Y-40611903D02*
X337459221Y-40046218D01*
X337324534Y-40180905D01*
X337270659Y-40288654D01*
X337270659Y-40396404D01*
X337297597Y-40477216D01*
X337378409Y-40611903D01*
X337459221Y-40692715D01*
X337593908Y-40773528D01*
X337674720Y-40800465D01*
X337782470Y-40800465D01*
X337890219Y-40746590D01*
X338024906Y-40611903D01*
X346493435Y-65563375D02*
X346412622Y-65105439D01*
X346816683Y-65240126D02*
X346250998Y-64674441D01*
X346035499Y-64889940D01*
X346008561Y-64970752D01*
X346008561Y-65024627D01*
X346035499Y-65105439D01*
X346116311Y-65186251D01*
X346197123Y-65213189D01*
X346250998Y-65213189D01*
X346331810Y-65186251D01*
X346547309Y-64970752D01*
X345685312Y-65240126D02*
X346143248Y-65698062D01*
X346170186Y-65778874D01*
X346170186Y-65832749D01*
X346143248Y-65913561D01*
X346035499Y-66021311D01*
X345954687Y-66048248D01*
X345900812Y-66048248D01*
X345820000Y-66021311D01*
X345362064Y-65563375D01*
X345658375Y-66398435D02*
X345092690Y-65832749D01*
X345335126Y-66721683D01*
X344769441Y-66155998D01*
X335781218Y-39238096D02*
X335808155Y-39157284D01*
X335888967Y-39076471D01*
X335996717Y-39022597D01*
X336104467Y-39022597D01*
X336185279Y-39049534D01*
X336319966Y-39130346D01*
X336400778Y-39211158D01*
X336481590Y-39345845D01*
X336508528Y-39426658D01*
X336508528Y-39534407D01*
X336454653Y-39642157D01*
X336400778Y-39696032D01*
X336293028Y-39749906D01*
X336239154Y-39749906D01*
X336050592Y-39561345D01*
X336158341Y-39453595D01*
X336050592Y-40046218D02*
X335484906Y-39480532D01*
X335269407Y-39696032D01*
X335242470Y-39776844D01*
X335242470Y-39830719D01*
X335269407Y-39911531D01*
X335350219Y-39992343D01*
X335431032Y-40019280D01*
X335484906Y-40019280D01*
X335565719Y-39992343D01*
X335781218Y-39776844D01*
X334649847Y-40315592D02*
X334919221Y-40046218D01*
X335215532Y-40288654D01*
X335161658Y-40288654D01*
X335080845Y-40315592D01*
X334946158Y-40450279D01*
X334919221Y-40531091D01*
X334919221Y-40584966D01*
X334946158Y-40665778D01*
X335080845Y-40800465D01*
X335161658Y-40827402D01*
X335215532Y-40827402D01*
X335296345Y-40800465D01*
X335431032Y-40665778D01*
X335457969Y-40584966D01*
X335457969Y-40531091D01*
X363748155Y-64811158D02*
X363775093Y-64730346D01*
X363855905Y-64649534D01*
X363963654Y-64595659D01*
X364071404Y-64595659D01*
X364152216Y-64622597D01*
X364286903Y-64703409D01*
X364367715Y-64784221D01*
X364448528Y-64918908D01*
X364475465Y-64999720D01*
X364475465Y-65107470D01*
X364421590Y-65215219D01*
X364367715Y-65269094D01*
X364259966Y-65322969D01*
X364206091Y-65322969D01*
X364017529Y-65134407D01*
X364125279Y-65026658D01*
X364017529Y-65619280D02*
X363451844Y-65053595D01*
X363694280Y-65942529D01*
X363128595Y-65376844D01*
X363424906Y-66211903D02*
X362859221Y-65646218D01*
X362724534Y-65780905D01*
X362670659Y-65888654D01*
X362670659Y-65996404D01*
X362697597Y-66077216D01*
X362778409Y-66211903D01*
X362859221Y-66292715D01*
X362993908Y-66373528D01*
X363074720Y-66400465D01*
X363182470Y-66400465D01*
X363290219Y-66346590D01*
X363424906Y-66211903D01*
X358910592Y-64822722D02*
X358937529Y-64741910D01*
X359018341Y-64661097D01*
X359126091Y-64607223D01*
X359233841Y-64607223D01*
X359314653Y-64634160D01*
X359449340Y-64714972D01*
X359530152Y-64795784D01*
X359610964Y-64930471D01*
X359637902Y-65011284D01*
X359637902Y-65119033D01*
X359584027Y-65226783D01*
X359530152Y-65280658D01*
X359422402Y-65334532D01*
X359368528Y-65334532D01*
X359179966Y-65145971D01*
X359287715Y-65038221D01*
X359179966Y-65630844D02*
X358614280Y-65065158D01*
X358398781Y-65280658D01*
X358371844Y-65361470D01*
X358371844Y-65415345D01*
X358398781Y-65496157D01*
X358479593Y-65576969D01*
X358560406Y-65603906D01*
X358614280Y-65603906D01*
X358695093Y-65576969D01*
X358910592Y-65361470D01*
X358317969Y-66492841D02*
X358641218Y-66169592D01*
X358479593Y-66331216D02*
X357913908Y-65765531D01*
X358048595Y-65792468D01*
X358156345Y-65792468D01*
X358237157Y-65765531D01*
X358048595Y-66762215D02*
X357940845Y-66869964D01*
X357860033Y-66896902D01*
X357806158Y-66896902D01*
X357671471Y-66869964D01*
X357536784Y-66789152D01*
X357321285Y-66573653D01*
X357294348Y-66492841D01*
X357294348Y-66438966D01*
X357321285Y-66358154D01*
X357429035Y-66250404D01*
X357509847Y-66223467D01*
X357563722Y-66223467D01*
X357644534Y-66250404D01*
X357779221Y-66385091D01*
X357806158Y-66465903D01*
X357806158Y-66519778D01*
X357779221Y-66600590D01*
X357671471Y-66708340D01*
X357590659Y-66735277D01*
X357536784Y-66735277D01*
X357455972Y-66708340D01*
X363748155Y-39211158D02*
X363775093Y-39130346D01*
X363855905Y-39049534D01*
X363963654Y-38995659D01*
X364071404Y-38995659D01*
X364152216Y-39022597D01*
X364286903Y-39103409D01*
X364367715Y-39184221D01*
X364448528Y-39318908D01*
X364475465Y-39399720D01*
X364475465Y-39507470D01*
X364421590Y-39615219D01*
X364367715Y-39669094D01*
X364259966Y-39722969D01*
X364206091Y-39722969D01*
X364017529Y-39534407D01*
X364125279Y-39426658D01*
X364017529Y-40019280D02*
X363451844Y-39453595D01*
X363694280Y-40342529D01*
X363128595Y-39776844D01*
X363424906Y-40611903D02*
X362859221Y-40046218D01*
X362724534Y-40180905D01*
X362670659Y-40288654D01*
X362670659Y-40396404D01*
X362697597Y-40477216D01*
X362778409Y-40611903D01*
X362859221Y-40692715D01*
X362993908Y-40773528D01*
X363074720Y-40800465D01*
X363182470Y-40800465D01*
X363290219Y-40746590D01*
X363424906Y-40611903D01*
X371073809Y-45215476D02*
X371111904Y-45329761D01*
X371111904Y-45520238D01*
X371073809Y-45596428D01*
X371035714Y-45634523D01*
X370959523Y-45672619D01*
X370883333Y-45672619D01*
X370807142Y-45634523D01*
X370769047Y-45596428D01*
X370730952Y-45520238D01*
X370692857Y-45367857D01*
X370654761Y-45291666D01*
X370616666Y-45253571D01*
X370540476Y-45215476D01*
X370464285Y-45215476D01*
X370388095Y-45253571D01*
X370350000Y-45291666D01*
X370311904Y-45367857D01*
X370311904Y-45558333D01*
X370350000Y-45672619D01*
X370311904Y-45939285D02*
X371111904Y-46129761D01*
X370540476Y-46282142D01*
X371111904Y-46434523D01*
X370311904Y-46625000D01*
X371035714Y-47386904D02*
X371073809Y-47348809D01*
X371111904Y-47234523D01*
X371111904Y-47158333D01*
X371073809Y-47044047D01*
X370997619Y-46967857D01*
X370921428Y-46929761D01*
X370769047Y-46891666D01*
X370654761Y-46891666D01*
X370502380Y-46929761D01*
X370426190Y-46967857D01*
X370350000Y-47044047D01*
X370311904Y-47158333D01*
X370311904Y-47234523D01*
X370350000Y-47348809D01*
X370388095Y-47386904D01*
X371111904Y-48110714D02*
X371111904Y-47729761D01*
X370311904Y-47729761D01*
X371111904Y-48377380D02*
X370311904Y-48377380D01*
X371111904Y-48834523D02*
X370654761Y-48491666D01*
X370311904Y-48834523D02*
X370769047Y-48377380D01*
X369070592Y-64822722D02*
X369097529Y-64741910D01*
X369178341Y-64661097D01*
X369286091Y-64607223D01*
X369393841Y-64607223D01*
X369474653Y-64634160D01*
X369609340Y-64714972D01*
X369690152Y-64795784D01*
X369770964Y-64930471D01*
X369797902Y-65011284D01*
X369797902Y-65119033D01*
X369744027Y-65226783D01*
X369690152Y-65280658D01*
X369582402Y-65334532D01*
X369528528Y-65334532D01*
X369339966Y-65145971D01*
X369447715Y-65038221D01*
X369339966Y-65630844D02*
X368774280Y-65065158D01*
X368558781Y-65280658D01*
X368531844Y-65361470D01*
X368531844Y-65415345D01*
X368558781Y-65496157D01*
X368639593Y-65576969D01*
X368720406Y-65603906D01*
X368774280Y-65603906D01*
X368855093Y-65576969D01*
X369070592Y-65361470D01*
X368477969Y-66492841D02*
X368801218Y-66169592D01*
X368639593Y-66331216D02*
X368073908Y-65765531D01*
X368208595Y-65792468D01*
X368316345Y-65792468D01*
X368397157Y-65765531D01*
X367427410Y-66412028D02*
X367535160Y-66304279D01*
X367615972Y-66277341D01*
X367669847Y-66277341D01*
X367804534Y-66304279D01*
X367939221Y-66385091D01*
X368154720Y-66600590D01*
X368181658Y-66681402D01*
X368181658Y-66735277D01*
X368154720Y-66816089D01*
X368046971Y-66923839D01*
X367966158Y-66950776D01*
X367912284Y-66950776D01*
X367831471Y-66923839D01*
X367696784Y-66789152D01*
X367669847Y-66708340D01*
X367669847Y-66654465D01*
X367696784Y-66573653D01*
X367804534Y-66465903D01*
X367885346Y-66438966D01*
X367939221Y-66438966D01*
X368020033Y-66465903D01*
%TO.C,SW49*%
X228015523Y-51372761D02*
X227872666Y-51420380D01*
X227634571Y-51420380D01*
X227539333Y-51372761D01*
X227491714Y-51325142D01*
X227444095Y-51229904D01*
X227444095Y-51134666D01*
X227491714Y-51039428D01*
X227539333Y-50991809D01*
X227634571Y-50944190D01*
X227825047Y-50896571D01*
X227920285Y-50848952D01*
X227967904Y-50801333D01*
X228015523Y-50706095D01*
X228015523Y-50610857D01*
X227967904Y-50515619D01*
X227920285Y-50468000D01*
X227825047Y-50420380D01*
X227586952Y-50420380D01*
X227444095Y-50468000D01*
X227110761Y-50420380D02*
X226872666Y-51420380D01*
X226682190Y-50706095D01*
X226491714Y-51420380D01*
X226253619Y-50420380D01*
X225444095Y-50753714D02*
X225444095Y-51420380D01*
X225682190Y-50372761D02*
X225920285Y-51087047D01*
X225301238Y-51087047D01*
X224872666Y-51420380D02*
X224682190Y-51420380D01*
X224586952Y-51372761D01*
X224539333Y-51325142D01*
X224444095Y-51182285D01*
X224396476Y-50991809D01*
X224396476Y-50610857D01*
X224444095Y-50515619D01*
X224491714Y-50468000D01*
X224586952Y-50420380D01*
X224777428Y-50420380D01*
X224872666Y-50468000D01*
X224920285Y-50515619D01*
X224967904Y-50610857D01*
X224967904Y-50848952D01*
X224920285Y-50944190D01*
X224872666Y-50991809D01*
X224777428Y-51039428D01*
X224586952Y-51039428D01*
X224491714Y-50991809D01*
X224444095Y-50944190D01*
X224396476Y-50848952D01*
D11*
%TO.C,J2*%
X306209902Y-85153545D02*
X306209902Y-85496829D01*
X306232787Y-85565486D01*
X306278559Y-85611257D01*
X306347216Y-85634143D01*
X306392987Y-85634143D01*
X306003931Y-85199316D02*
X305981046Y-85176431D01*
X305935274Y-85153545D01*
X305820846Y-85153545D01*
X305775075Y-85176431D01*
X305752189Y-85199316D01*
X305729304Y-85245087D01*
X305729304Y-85290859D01*
X305752189Y-85359515D01*
X306026817Y-85634143D01*
X305729304Y-85634143D01*
D12*
%TO.C,J1*%
X316075000Y-96950000D02*
X316075000Y-95250000D01*
X316075000Y-95250000D02*
X316075000Y-94500000D01*
X327075000Y-87950000D02*
X324975000Y-87950000D01*
X317775000Y-96950000D02*
X316075000Y-96950000D01*
X317375000Y-90000000D02*
X316075000Y-90000000D01*
X316075000Y-89250000D02*
X316075000Y-87950000D01*
X313075000Y-95250000D02*
X316075000Y-95250000D01*
X316075000Y-90000000D02*
X316075000Y-89250000D01*
X323075000Y-87950000D02*
X320025000Y-87950000D01*
X316075000Y-87950000D02*
X317825000Y-87950000D01*
X313075000Y-89250000D02*
X313075000Y-95250000D01*
X327075000Y-96950000D02*
X327075000Y-94950000D01*
X316075000Y-89250000D02*
X313075000Y-89250000D01*
X320175000Y-96950000D02*
X327075000Y-96950000D01*
X327075000Y-92600000D02*
X327075000Y-87950000D01*
X317375000Y-94500000D02*
X317375000Y-90000000D01*
X316075000Y-94500000D02*
X317375000Y-94500000D01*
D13*
X317775000Y-97750000D02*
G75*
G03*
X317775000Y-97750000I-200000J0D01*
G01*
D14*
%TO.C,U2*%
X270000000Y-42225000D02*
X269600000Y-42225000D01*
X277700000Y-63225000D02*
X277300000Y-63225000D01*
X264900000Y-42225000D02*
X264500000Y-42225000D01*
X277700000Y-42225000D02*
X277300000Y-42225000D01*
X272600000Y-42225000D02*
X272200000Y-42225000D01*
X302833000Y-63225000D02*
X302833000Y-60218000D01*
X295400000Y-63225000D02*
X295000000Y-63225000D01*
X285300000Y-42225000D02*
X284900000Y-42225000D01*
X270000000Y-63225000D02*
X269600000Y-63225000D01*
X303100000Y-63225000D02*
X302700000Y-63225000D01*
X280200000Y-42225000D02*
X279800000Y-42225000D01*
X290400000Y-42225000D02*
X290000000Y-42225000D01*
X267500000Y-42225000D02*
X267100000Y-42225000D01*
X282700000Y-42225000D02*
X282300000Y-42225000D01*
X254500000Y-51625000D02*
X254500000Y-51225000D01*
X257300000Y-63225000D02*
X256900000Y-63225000D01*
X262400000Y-42225000D02*
X262000000Y-42225000D01*
X305500000Y-42225000D02*
X305200000Y-42225000D01*
X305500000Y-63225000D02*
X305200000Y-63225000D01*
X287800000Y-42225000D02*
X287400000Y-42225000D01*
X290400000Y-63225000D02*
X290000000Y-63225000D01*
X298000000Y-63225000D02*
X297600000Y-63225000D01*
X272600000Y-63225000D02*
X272200000Y-63225000D01*
X259900000Y-42225000D02*
X259500000Y-42225000D01*
X267500000Y-63225000D02*
X267100000Y-63225000D01*
X303100000Y-42225000D02*
X302700000Y-42225000D01*
X298000000Y-42225000D02*
X297600000Y-42225000D01*
X305500000Y-63225000D02*
X305500000Y-42225000D01*
X295400000Y-42225000D02*
X295000000Y-42225000D01*
X262400000Y-63225000D02*
X262000000Y-63225000D01*
X264900000Y-63225000D02*
X264500000Y-63225000D01*
X300500000Y-63225000D02*
X300100000Y-63225000D01*
X287800000Y-63225000D02*
X287400000Y-63225000D01*
X275100000Y-63225000D02*
X274700000Y-63225000D01*
X280200000Y-63225000D02*
X279800000Y-63225000D01*
X254500000Y-56425000D02*
X254500000Y-63225000D01*
X292900000Y-42225000D02*
X292500000Y-42225000D01*
X292900000Y-63225000D02*
X292500000Y-63225000D01*
X300500000Y-42225000D02*
X300100000Y-42225000D01*
X257300000Y-42225000D02*
X256900000Y-42225000D01*
X275100000Y-42225000D02*
X274700000Y-42225000D01*
X302833000Y-60218000D02*
X305500000Y-60218000D01*
X285300000Y-63225000D02*
X284900000Y-63225000D01*
X254500000Y-42225000D02*
X254500000Y-49025000D01*
X282700000Y-63225000D02*
X282300000Y-63225000D01*
X254500000Y-54225000D02*
X254500000Y-53825000D01*
X259900000Y-63225000D02*
X259500000Y-63225000D01*
%TO.C,U1*%
X357050000Y-42225000D02*
X357450000Y-42225000D01*
X370050000Y-63225000D02*
X370050000Y-56425000D01*
X344350000Y-42225000D02*
X344750000Y-42225000D01*
X354550000Y-63225000D02*
X354950000Y-63225000D01*
X324050000Y-42225000D02*
X324450000Y-42225000D01*
X346850000Y-42225000D02*
X347250000Y-42225000D01*
X324050000Y-63225000D02*
X324450000Y-63225000D01*
X346850000Y-63225000D02*
X347250000Y-63225000D01*
X319050000Y-42225000D02*
X319050000Y-63225000D01*
X319050000Y-63225000D02*
X319350000Y-63225000D01*
X370050000Y-49025000D02*
X370050000Y-42225000D01*
X349450000Y-63225000D02*
X349850000Y-63225000D01*
X357050000Y-63225000D02*
X357450000Y-63225000D01*
X349450000Y-42225000D02*
X349850000Y-42225000D01*
X326550000Y-63225000D02*
X326950000Y-63225000D01*
X362150000Y-63225000D02*
X362550000Y-63225000D01*
X364650000Y-42225000D02*
X365050000Y-42225000D01*
X321717000Y-45232000D02*
X319050000Y-45232000D01*
X359650000Y-63225000D02*
X360050000Y-63225000D01*
X370050000Y-51225000D02*
X370050000Y-51625000D01*
X334150000Y-42225000D02*
X334550000Y-42225000D01*
X331650000Y-42225000D02*
X332050000Y-42225000D01*
X336750000Y-63225000D02*
X337150000Y-63225000D01*
X367250000Y-63225000D02*
X367650000Y-63225000D01*
X370050000Y-53825000D02*
X370050000Y-54225000D01*
X339250000Y-63225000D02*
X339650000Y-63225000D01*
X321450000Y-42225000D02*
X321850000Y-42225000D01*
X334150000Y-63225000D02*
X334550000Y-63225000D01*
X354550000Y-42225000D02*
X354950000Y-42225000D01*
X319050000Y-42225000D02*
X319350000Y-42225000D01*
X341850000Y-63225000D02*
X342250000Y-63225000D01*
X329150000Y-63225000D02*
X329550000Y-63225000D01*
X321717000Y-42225000D02*
X321717000Y-45232000D01*
X339250000Y-42225000D02*
X339650000Y-42225000D01*
X351950000Y-63225000D02*
X352350000Y-63225000D01*
X336750000Y-42225000D02*
X337150000Y-42225000D01*
X326550000Y-42225000D02*
X326950000Y-42225000D01*
X359650000Y-42225000D02*
X360050000Y-42225000D01*
X362150000Y-42225000D02*
X362550000Y-42225000D01*
X367250000Y-42225000D02*
X367650000Y-42225000D01*
X351950000Y-42225000D02*
X352350000Y-42225000D01*
X331650000Y-63225000D02*
X332050000Y-63225000D01*
X329150000Y-42225000D02*
X329550000Y-42225000D01*
X341850000Y-42225000D02*
X342250000Y-42225000D01*
X344350000Y-63225000D02*
X344750000Y-63225000D01*
X364650000Y-63225000D02*
X365050000Y-63225000D01*
X321450000Y-63225000D02*
X321850000Y-63225000D01*
D12*
%TO.C,J2*%
X308570000Y-95230000D02*
X308570000Y-96530000D01*
X297570000Y-96530000D02*
X299670000Y-96530000D01*
X311570000Y-89230000D02*
X308570000Y-89230000D01*
X308570000Y-96530000D02*
X306820000Y-96530000D01*
X301570000Y-96530000D02*
X304620000Y-96530000D01*
X306870000Y-87530000D02*
X308570000Y-87530000D01*
X308570000Y-87530000D02*
X308570000Y-89230000D01*
X308570000Y-89980000D02*
X307270000Y-89980000D01*
X307270000Y-89980000D02*
X307270000Y-94480000D01*
X311570000Y-95230000D02*
X311570000Y-89230000D01*
X304470000Y-87530000D02*
X297570000Y-87530000D01*
X308570000Y-95230000D02*
X311570000Y-95230000D01*
X308570000Y-89230000D02*
X308570000Y-89980000D01*
X297570000Y-91880000D02*
X297570000Y-96530000D01*
X308570000Y-94480000D02*
X308570000Y-95230000D01*
X307270000Y-94480000D02*
X308570000Y-94480000D01*
X297570000Y-87530000D02*
X297570000Y-89530000D01*
D13*
X307270000Y-86730000D02*
G75*
G03*
X307270000Y-86730000I-200000J0D01*
G01*
%TD*%
%LPC*%
D15*
%TO.C,D23*%
X426860000Y-167260000D03*
D16*
X434480000Y-167260000D03*
%TD*%
D15*
%TO.C,D91*%
X153190000Y-192680000D03*
D16*
X160810000Y-192680000D03*
%TD*%
D15*
%TO.C,D61*%
X267380000Y-192000000D03*
D16*
X275000000Y-192000000D03*
%TD*%
D17*
%TO.C,H15*%
X302750000Y-32600000D03*
%TD*%
D15*
%TO.C,D90*%
X193400000Y-84000000D03*
D16*
X201020000Y-84000000D03*
%TD*%
D15*
%TO.C,D79*%
X192080000Y-100800000D03*
D16*
X199700000Y-100800000D03*
%TD*%
D18*
%TO.C,SW43*%
X343900000Y-128700000D03*
D19*
X343900000Y-123620000D03*
D18*
X343900000Y-118540000D03*
D20*
X338820000Y-121080000D03*
X341360000Y-127430000D03*
%TD*%
D19*
%TO.C,SW89*%
X156960000Y-162280000D03*
D18*
X162040000Y-162280000D03*
X151880000Y-162280000D03*
D20*
X159500000Y-157200000D03*
X153150000Y-159740000D03*
%TD*%
D19*
%TO.C,SW3*%
X497855000Y-120880000D03*
D18*
X492775000Y-120880000D03*
X502935000Y-120880000D03*
D20*
X500395000Y-115800000D03*
X494045000Y-118340000D03*
%TD*%
D15*
%TO.C,D44*%
X353550000Y-191000000D03*
D16*
X361170000Y-191000000D03*
%TD*%
D15*
%TO.C,D47*%
X335190000Y-202000000D03*
D16*
X342810000Y-202000000D03*
%TD*%
D17*
%TO.C,H3*%
X529850000Y-32600000D03*
%TD*%
D21*
%TO.C,D51*%
X512730000Y-50440000D03*
D22*
X515270000Y-50440000D03*
%TD*%
D18*
%TO.C,SW21*%
X435080000Y-114380000D03*
D19*
X430000000Y-114380000D03*
D18*
X424920000Y-114380000D03*
D20*
X432540000Y-109300000D03*
X426190000Y-111840000D03*
%TD*%
D18*
%TO.C,SW28*%
X414080000Y-159700000D03*
D19*
X409000000Y-159700000D03*
D18*
X403920000Y-159700000D03*
D20*
X411540000Y-154620000D03*
X405190000Y-157160000D03*
%TD*%
D15*
%TO.C,D26*%
X405520000Y-126100000D03*
D16*
X413140000Y-126100000D03*
%TD*%
D15*
%TO.C,D95*%
X152960000Y-171380000D03*
D16*
X160580000Y-171380000D03*
%TD*%
D18*
%TO.C,SW80*%
X172920000Y-180600000D03*
X183080000Y-180600000D03*
D19*
X178000000Y-180600000D03*
D20*
X180540000Y-175520000D03*
X174190000Y-178060000D03*
%TD*%
D15*
%TO.C,D43*%
X341000000Y-132920000D03*
D16*
X348620000Y-132920000D03*
%TD*%
D18*
%TO.C,SW5*%
X492675000Y-141800000D03*
X502835000Y-141800000D03*
D19*
X497755000Y-141800000D03*
D20*
X500295000Y-136720000D03*
X493945000Y-139260000D03*
%TD*%
D23*
%TO.C,R10*%
X136920000Y-56000000D03*
D24*
X142000000Y-56000000D03*
%TD*%
D19*
%TO.C,SW9*%
X472000000Y-121840000D03*
D18*
X477080000Y-121840000D03*
X466920000Y-121840000D03*
D20*
X474540000Y-116760000D03*
X468190000Y-119300000D03*
%TD*%
D17*
%TO.C,H11*%
X93000000Y-228000000D03*
%TD*%
D18*
%TO.C,SW35*%
X384399405Y-188460009D03*
X375600586Y-193540009D03*
D19*
X379999995Y-191000009D03*
D20*
X379659700Y-185330600D03*
X375430439Y-190705305D03*
%TD*%
D19*
%TO.C,SW34*%
X388000000Y-161800000D03*
D18*
X382920000Y-161800000D03*
X393080000Y-161800000D03*
D20*
X390540000Y-156720000D03*
X384190000Y-159260000D03*
%TD*%
D17*
%TO.C,H9*%
X92200000Y-34100000D03*
%TD*%
D23*
%TO.C,R11*%
X298460000Y-82500000D03*
D24*
X303540000Y-82500000D03*
%TD*%
D19*
%TO.C,SW53*%
X283000000Y-123000000D03*
D18*
X283000000Y-117920000D03*
X283000000Y-128080000D03*
D20*
X277920000Y-120460000D03*
X280460000Y-126810000D03*
%TD*%
D15*
%TO.C,D93*%
X151400000Y-130000000D03*
D16*
X159020000Y-130000000D03*
%TD*%
D18*
%TO.C,SW11*%
X465920000Y-143380000D03*
D19*
X471000000Y-143380000D03*
D18*
X476080000Y-143380000D03*
D20*
X473540000Y-138300000D03*
X467190000Y-140840000D03*
%TD*%
D23*
%TO.C,R8*%
X171000000Y-56000000D03*
D24*
X165920000Y-56000000D03*
%TD*%
D15*
%TO.C,D88*%
X173410000Y-125000000D03*
D16*
X181030000Y-125000000D03*
%TD*%
D19*
%TO.C,SW7*%
X449000000Y-76000000D03*
D18*
X443920000Y-76000000D03*
X454080000Y-76000000D03*
D20*
X451540000Y-70920000D03*
X445190000Y-73460000D03*
%TD*%
D18*
%TO.C,SW58*%
X267000000Y-118000000D03*
X256840000Y-118000000D03*
D19*
X261920000Y-118000000D03*
D20*
X264460000Y-112920000D03*
X258110000Y-115460000D03*
%TD*%
D18*
%TO.C,SW76*%
X193060000Y-113200000D03*
D19*
X198140000Y-113200000D03*
D18*
X203220000Y-113200000D03*
D20*
X200680000Y-108120000D03*
X194330000Y-110660000D03*
%TD*%
D17*
%TO.C,H8*%
X427400000Y-229450000D03*
%TD*%
D15*
%TO.C,D35*%
X384800000Y-171260000D03*
D16*
X392420000Y-171260000D03*
%TD*%
D15*
%TO.C,D83*%
X195500000Y-185800000D03*
D16*
X203120000Y-185800000D03*
%TD*%
D15*
%TO.C,D66*%
X279380000Y-84000000D03*
D16*
X287000000Y-84000000D03*
%TD*%
D19*
%TO.C,SW20*%
X427670000Y-92480000D03*
D18*
X422590000Y-92480000D03*
X432750000Y-92480000D03*
D20*
X430210000Y-87400000D03*
X423860000Y-89940000D03*
%TD*%
D15*
%TO.C,D81*%
X195230000Y-143100000D03*
D16*
X202850000Y-143100000D03*
%TD*%
D18*
%TO.C,SW29*%
X412890000Y-138580000D03*
D19*
X407810000Y-138580000D03*
D18*
X402730000Y-138580000D03*
D20*
X410350000Y-133500000D03*
X404000000Y-136040000D03*
%TD*%
D19*
%TO.C,SW17*%
X450000000Y-139040000D03*
D18*
X455080000Y-139040000D03*
X444920000Y-139040000D03*
D20*
X452540000Y-133960000D03*
X446190000Y-136500000D03*
%TD*%
D15*
%TO.C,D86*%
X174200000Y-189500000D03*
D16*
X181820000Y-189500000D03*
%TD*%
D18*
%TO.C,SW74*%
X204080000Y-176600000D03*
X193920000Y-176600000D03*
D19*
X199000000Y-176600000D03*
D20*
X201540000Y-171520000D03*
X195190000Y-174060000D03*
%TD*%
D17*
%TO.C,H1*%
X530750000Y-229450000D03*
%TD*%
D18*
%TO.C,SW66*%
X266080000Y-75800000D03*
D19*
X261000000Y-75800000D03*
D18*
X255920000Y-75800000D03*
D20*
X263540000Y-70720000D03*
X257190000Y-73260000D03*
%TD*%
D15*
%TO.C,D40*%
X362550000Y-129840000D03*
D16*
X370170000Y-129840000D03*
%TD*%
D18*
%TO.C,SW85*%
X151350000Y-141300000D03*
D19*
X156430000Y-141300000D03*
D18*
X161510000Y-141300000D03*
D20*
X158970000Y-136220000D03*
X152620000Y-138760000D03*
%TD*%
D15*
%TO.C,D62*%
X258920000Y-128000000D03*
D16*
X266540000Y-128000000D03*
%TD*%
D19*
%TO.C,SW15*%
X451000000Y-118980000D03*
D18*
X445920000Y-118980000D03*
X456080000Y-118980000D03*
D20*
X453540000Y-113900000D03*
X447190000Y-116440000D03*
%TD*%
D15*
%TO.C,D92*%
X153380000Y-112000000D03*
D16*
X161000000Y-112000000D03*
%TD*%
D15*
%TO.C,D82*%
X195420000Y-163380000D03*
D16*
X203040000Y-163380000D03*
%TD*%
D23*
%TO.C,R1*%
X425470000Y-54000000D03*
D24*
X430550000Y-54000000D03*
%TD*%
D18*
%TO.C,SW6*%
X499150000Y-186080000D03*
D19*
X494070000Y-186080000D03*
D18*
X488990000Y-186080000D03*
D20*
X496610000Y-181000000D03*
X490260000Y-183540000D03*
%TD*%
D15*
%TO.C,D56*%
X283889600Y-200284700D03*
D16*
X291509600Y-200284700D03*
%TD*%
D15*
%TO.C,D73*%
X214300000Y-102800000D03*
D16*
X221920000Y-102800000D03*
%TD*%
D19*
%TO.C,SW27*%
X409000000Y-115840000D03*
D18*
X403920000Y-115840000D03*
X414080000Y-115840000D03*
D20*
X411540000Y-110760000D03*
X405190000Y-113300000D03*
%TD*%
D15*
%TO.C,D42*%
X339410000Y-106005000D03*
D16*
X347030000Y-106005000D03*
%TD*%
D18*
%TO.C,SW88*%
X160380000Y-120500000D03*
D19*
X155300000Y-120500000D03*
D18*
X150220000Y-120500000D03*
D20*
X157840000Y-115420000D03*
X151490000Y-117960000D03*
%TD*%
D19*
%TO.C,SW62*%
X238900000Y-96900000D03*
D18*
X243980000Y-96900000D03*
X233820000Y-96900000D03*
D20*
X241440000Y-91820000D03*
X235090000Y-94360000D03*
%TD*%
D18*
%TO.C,SW87*%
X150000000Y-99800000D03*
X160160000Y-99800000D03*
D19*
X155080000Y-99800000D03*
D20*
X157620000Y-94720000D03*
X151270000Y-97260000D03*
%TD*%
D15*
%TO.C,D98*%
X127410000Y-149100000D03*
D16*
X135030000Y-149100000D03*
%TD*%
D18*
%TO.C,SW4*%
X492975000Y-162800000D03*
X503135000Y-162800000D03*
D19*
X498055000Y-162800000D03*
D20*
X500595000Y-157720000D03*
X494245000Y-160260000D03*
%TD*%
D19*
%TO.C,SW93*%
X129000000Y-99600000D03*
D18*
X123920000Y-99600000D03*
X134080000Y-99600000D03*
D20*
X131540000Y-94520000D03*
X125190000Y-97060000D03*
%TD*%
D15*
%TO.C,D10*%
X467190000Y-152040000D03*
D16*
X474810000Y-152040000D03*
%TD*%
D19*
%TO.C,SW90*%
X175800000Y-75700000D03*
D18*
X170720000Y-75700000D03*
X180880000Y-75700000D03*
D20*
X178340000Y-70620000D03*
X171990000Y-73160000D03*
%TD*%
D15*
%TO.C,D70*%
X237390000Y-147100000D03*
D16*
X245010000Y-147100000D03*
%TD*%
D15*
%TO.C,D39*%
X362520000Y-170525000D03*
D16*
X370140000Y-170525000D03*
%TD*%
D18*
%TO.C,SW39*%
X361350000Y-119080000D03*
X371510000Y-119080000D03*
D19*
X366430000Y-119080000D03*
D20*
X368970000Y-114000000D03*
X362620000Y-116540000D03*
%TD*%
D15*
%TO.C,D69*%
X237540000Y-127000000D03*
D16*
X245160000Y-127000000D03*
%TD*%
D15*
%TO.C,D100*%
X127110000Y-112000000D03*
D16*
X134730000Y-112000000D03*
%TD*%
D15*
%TO.C,D99*%
X127700000Y-171380000D03*
D16*
X135320000Y-171380000D03*
%TD*%
D23*
%TO.C,R4*%
X489630000Y-54000000D03*
D24*
X484550000Y-54000000D03*
%TD*%
D15*
%TO.C,D80*%
X194350000Y-122000000D03*
D16*
X201970000Y-122000000D03*
%TD*%
D18*
%TO.C,SW31*%
X357920000Y-75740000D03*
X368080000Y-75740000D03*
D19*
X363000000Y-75740000D03*
D20*
X365540000Y-70660000D03*
X359190000Y-73200000D03*
%TD*%
D15*
%TO.C,D2*%
X494045000Y-108065000D03*
D16*
X501665000Y-108065000D03*
%TD*%
D18*
%TO.C,SW81*%
X180700000Y-94800000D03*
X170540000Y-94800000D03*
D19*
X175620000Y-94800000D03*
D20*
X178160000Y-89720000D03*
X171810000Y-92260000D03*
%TD*%
D17*
%TO.C,H5*%
X322000000Y-32650000D03*
%TD*%
D15*
%TO.C,D41*%
X361930000Y-151040000D03*
D16*
X369550000Y-151040000D03*
%TD*%
D15*
%TO.C,D34*%
X383800000Y-151040000D03*
D16*
X391420000Y-151040000D03*
%TD*%
D15*
%TO.C,D24*%
X426170000Y-188840000D03*
D16*
X433790000Y-188840000D03*
%TD*%
D19*
%TO.C,SW54*%
X283180000Y-154000000D03*
D18*
X283180000Y-148920000D03*
X283180000Y-159080000D03*
D20*
X278100000Y-151460000D03*
X280640000Y-157810000D03*
%TD*%
D15*
%TO.C,D58*%
X278520000Y-164280000D03*
D16*
X286140000Y-164280000D03*
%TD*%
D15*
%TO.C,D16*%
X447620000Y-170260000D03*
D16*
X455240000Y-170260000D03*
%TD*%
D18*
%TO.C,SW19*%
X411160000Y-75860000D03*
X401000000Y-75860000D03*
D19*
X406080000Y-75860000D03*
D20*
X408620000Y-70780000D03*
X402270000Y-73320000D03*
%TD*%
D15*
%TO.C,D27*%
X401860000Y-102965000D03*
D16*
X409480000Y-102965000D03*
%TD*%
D23*
%TO.C,R12*%
X107920000Y-56000000D03*
D24*
X113000000Y-56000000D03*
%TD*%
D18*
%TO.C,SW47*%
X339010586Y-215200009D03*
D19*
X343409995Y-212660009D03*
D18*
X347809405Y-210120009D03*
D20*
X343069700Y-206990600D03*
X338840439Y-212365305D03*
%TD*%
D21*
%TO.C,D49*%
X455614700Y-50440000D03*
D22*
X458154700Y-50440000D03*
%TD*%
D19*
%TO.C,SW18*%
X451070000Y-181180000D03*
D18*
X445990000Y-181180000D03*
X456150000Y-181180000D03*
D20*
X453610000Y-176100000D03*
X447260000Y-178640000D03*
%TD*%
D15*
%TO.C,D14*%
X444860000Y-105740000D03*
D16*
X452480000Y-105740000D03*
%TD*%
D18*
%TO.C,SW96*%
X160080000Y-75600000D03*
D19*
X155000000Y-75600000D03*
D18*
X149920000Y-75600000D03*
D20*
X157540000Y-70520000D03*
X151190000Y-73060000D03*
%TD*%
D17*
%TO.C,H4*%
X426550000Y-32650000D03*
%TD*%
D19*
%TO.C,SW67*%
X219840000Y-136600000D03*
D18*
X214760000Y-136600000D03*
X224920000Y-136600000D03*
D20*
X222380000Y-131520000D03*
X216030000Y-134060000D03*
%TD*%
D18*
%TO.C,SW41*%
X361050000Y-141080000D03*
D19*
X366130000Y-141080000D03*
D18*
X371210000Y-141080000D03*
D20*
X368670000Y-136000000D03*
X362320000Y-138540000D03*
%TD*%
D15*
%TO.C,D4*%
X493945000Y-150205000D03*
D16*
X501565000Y-150205000D03*
%TD*%
D18*
%TO.C,SW46*%
X346600586Y-186540009D03*
X355399405Y-181460009D03*
D19*
X350999995Y-184000009D03*
D20*
X350659700Y-178330600D03*
X346430439Y-183705305D03*
%TD*%
D19*
%TO.C,SW16*%
X451000000Y-159800000D03*
D18*
X456080000Y-159800000D03*
X445920000Y-159800000D03*
D20*
X453540000Y-154720000D03*
X447190000Y-157260000D03*
%TD*%
D15*
%TO.C,D63*%
X258190000Y-147100000D03*
D16*
X265810000Y-147100000D03*
%TD*%
D15*
%TO.C,D33*%
X384520000Y-128700000D03*
D16*
X392140000Y-128700000D03*
%TD*%
D18*
%TO.C,SW22*%
X424920000Y-157220000D03*
X435080000Y-157220000D03*
D19*
X430000000Y-157220000D03*
D20*
X432540000Y-152140000D03*
X426190000Y-154680000D03*
%TD*%
D19*
%TO.C,SW26*%
X406670000Y-94740000D03*
D18*
X401590000Y-94740000D03*
X411750000Y-94740000D03*
D20*
X409210000Y-89660000D03*
X402860000Y-92200000D03*
%TD*%
D15*
%TO.C,D25*%
X381000000Y-84000000D03*
D16*
X388620000Y-84000000D03*
%TD*%
D25*
%TO.C,D54*%
X138100000Y-51200000D03*
D26*
X140640000Y-51200000D03*
%TD*%
D18*
%TO.C,SW12*%
X466990000Y-185840000D03*
D19*
X472070000Y-185840000D03*
D18*
X477150000Y-185840000D03*
D20*
X474610000Y-180760000D03*
X468260000Y-183300000D03*
%TD*%
D18*
%TO.C,SW84*%
X191920000Y-75700000D03*
X202080000Y-75700000D03*
D19*
X197000000Y-75700000D03*
D20*
X199540000Y-70620000D03*
X193190000Y-73160000D03*
%TD*%
D15*
%TO.C,D5*%
X494475000Y-172660000D03*
D16*
X502095000Y-172660000D03*
%TD*%
D15*
%TO.C,D78*%
X234380000Y-84000000D03*
D16*
X242000000Y-84000000D03*
%TD*%
D15*
%TO.C,D96*%
X173000000Y-84000000D03*
D16*
X180620000Y-84000000D03*
%TD*%
D18*
%TO.C,SW60*%
X277720000Y-75700000D03*
D19*
X282800000Y-75700000D03*
D18*
X287880000Y-75700000D03*
D20*
X285340000Y-70620000D03*
X278990000Y-73160000D03*
%TD*%
D18*
%TO.C,SW56*%
X267080000Y-139000000D03*
D19*
X262000000Y-139000000D03*
D18*
X256920000Y-139000000D03*
D20*
X264540000Y-133920000D03*
X258190000Y-136460000D03*
%TD*%
D23*
%TO.C,R6*%
X513010000Y-54000000D03*
D24*
X518090000Y-54000000D03*
%TD*%
D15*
%TO.C,D65*%
X258280000Y-168380000D03*
D16*
X265900000Y-168380000D03*
%TD*%
D15*
%TO.C,D77*%
X216140000Y-125000000D03*
D16*
X223760000Y-125000000D03*
%TD*%
D18*
%TO.C,SW36*%
X381920000Y-140980000D03*
D19*
X387000000Y-140980000D03*
D18*
X392080000Y-140980000D03*
D20*
X389540000Y-135900000D03*
X383190000Y-138440000D03*
%TD*%
D23*
%TO.C,R3*%
X326170000Y-99500000D03*
D24*
X321090000Y-99500000D03*
%TD*%
D17*
%TO.C,H16*%
X302200000Y-227800000D03*
%TD*%
%TO.C,H13*%
X300900000Y-128800000D03*
%TD*%
D15*
%TO.C,D3*%
X494855000Y-128800000D03*
D16*
X502475000Y-128800000D03*
%TD*%
D15*
%TO.C,D72*%
X257380000Y-84000000D03*
D16*
X265000000Y-84000000D03*
%TD*%
D17*
%TO.C,H12*%
X92100000Y-129000000D03*
%TD*%
D15*
%TO.C,D18*%
X447290000Y-190840000D03*
D16*
X454910000Y-190840000D03*
%TD*%
D15*
%TO.C,D28*%
X404710000Y-148840000D03*
D16*
X412330000Y-148840000D03*
%TD*%
D17*
%TO.C,H2*%
X529000000Y-129000000D03*
%TD*%
D15*
%TO.C,D71*%
X237380000Y-168380000D03*
D16*
X245000000Y-168380000D03*
%TD*%
D18*
%TO.C,SW1*%
X475080000Y-75840000D03*
D19*
X470000000Y-75840000D03*
D18*
X464920000Y-75840000D03*
D20*
X472540000Y-70760000D03*
X466190000Y-73300000D03*
%TD*%
D15*
%TO.C,D8*%
X465560000Y-108005000D03*
D16*
X473180000Y-108005000D03*
%TD*%
D19*
%TO.C,SW73*%
X198640000Y-134200000D03*
D18*
X203720000Y-134200000D03*
X193560000Y-134200000D03*
D20*
X201180000Y-129120000D03*
X194830000Y-131660000D03*
%TD*%
D15*
%TO.C,D1*%
X466520000Y-84000000D03*
D16*
X474140000Y-84000000D03*
%TD*%
D15*
%TO.C,D22*%
X425200000Y-146040000D03*
D16*
X432820000Y-146040000D03*
%TD*%
D15*
%TO.C,D46*%
X342560000Y-173970600D03*
D16*
X350180000Y-173970600D03*
%TD*%
D21*
%TO.C,D48*%
X426914700Y-50340000D03*
D22*
X429454700Y-50340000D03*
%TD*%
D18*
%TO.C,SW51*%
X280399405Y-186540009D03*
D19*
X275999995Y-184000009D03*
D18*
X271600586Y-181460009D03*
D20*
X280739700Y-180870600D03*
X273970439Y-179895305D03*
%TD*%
D19*
%TO.C,SW71*%
X220000000Y-157780000D03*
D18*
X214920000Y-157780000D03*
X225080000Y-157780000D03*
D20*
X222540000Y-152700000D03*
X216190000Y-155240000D03*
%TD*%
D18*
%TO.C,SW91*%
X135670000Y-141400000D03*
X125510000Y-141400000D03*
D19*
X130590000Y-141400000D03*
D20*
X133130000Y-136320000D03*
X126780000Y-138860000D03*
%TD*%
D19*
%TO.C,SW69*%
X217800000Y-94700000D03*
D18*
X212720000Y-94700000D03*
X222880000Y-94700000D03*
D20*
X220340000Y-89620000D03*
X213990000Y-92160000D03*
%TD*%
D18*
%TO.C,SW86*%
X151920000Y-183580000D03*
D19*
X157000000Y-183580000D03*
D18*
X162080000Y-183580000D03*
D20*
X159540000Y-178500000D03*
X153190000Y-181040000D03*
%TD*%
D17*
%TO.C,H7*%
X324750000Y-228000000D03*
%TD*%
D15*
%TO.C,D11*%
X468320000Y-173220000D03*
D16*
X475940000Y-173220000D03*
%TD*%
D15*
%TO.C,D89*%
X174110000Y-166380000D03*
D16*
X181730000Y-166380000D03*
%TD*%
D18*
%TO.C,SW32*%
X380590000Y-96740000D03*
D19*
X385670000Y-96740000D03*
D18*
X390750000Y-96740000D03*
D20*
X388210000Y-91660000D03*
X381860000Y-94200000D03*
%TD*%
D25*
%TO.C,D55*%
X109900000Y-50700000D03*
D26*
X112440000Y-50700000D03*
%TD*%
D23*
%TO.C,R2*%
X459550000Y-54000000D03*
D24*
X454470000Y-54000000D03*
%TD*%
D15*
%TO.C,D67*%
X249000000Y-180250000D03*
D16*
X256620000Y-180250000D03*
%TD*%
D23*
%TO.C,R7*%
X199000000Y-56000000D03*
D24*
X193920000Y-56000000D03*
%TD*%
D15*
%TO.C,D21*%
X427100000Y-124840000D03*
D16*
X434720000Y-124840000D03*
%TD*%
D23*
%TO.C,R9*%
X298540000Y-99500000D03*
D24*
X303620000Y-99500000D03*
%TD*%
D19*
%TO.C,SW2*%
X497855000Y-99540000D03*
D18*
X492775000Y-99540000D03*
X502935000Y-99540000D03*
D20*
X500395000Y-94460000D03*
X494045000Y-97000000D03*
%TD*%
D18*
%TO.C,SW10*%
X466920000Y-163260000D03*
X477080000Y-163260000D03*
D19*
X472000000Y-163260000D03*
D20*
X474540000Y-158180000D03*
X468190000Y-160720000D03*
%TD*%
D15*
%TO.C,D97*%
X131360000Y-192680000D03*
D16*
X138980000Y-192680000D03*
%TD*%
D18*
%TO.C,SW77*%
X193840000Y-155180000D03*
D19*
X198920000Y-155180000D03*
D18*
X204000000Y-155180000D03*
D20*
X201460000Y-150100000D03*
X195110000Y-152640000D03*
%TD*%
D18*
%TO.C,SW95*%
X136080000Y-162480000D03*
X125920000Y-162480000D03*
D19*
X131000000Y-162480000D03*
D20*
X133540000Y-157400000D03*
X127190000Y-159940000D03*
%TD*%
D23*
%TO.C,R5*%
X325090000Y-82500000D03*
D24*
X320010000Y-82500000D03*
%TD*%
D18*
%TO.C,SW45*%
X365869405Y-199220009D03*
D19*
X361469995Y-201760009D03*
D18*
X357070586Y-204300009D03*
D20*
X361129700Y-196090600D03*
X356900439Y-201465305D03*
%TD*%
D18*
%TO.C,SW30*%
X403920000Y-181080000D03*
X414080000Y-181080000D03*
D19*
X409000000Y-181080000D03*
D20*
X411540000Y-176000000D03*
X405190000Y-178540000D03*
%TD*%
D18*
%TO.C,SW55*%
X269939405Y-204260009D03*
X261140586Y-199180009D03*
D19*
X265539995Y-201720009D03*
D20*
X270279700Y-198590600D03*
X263510439Y-197615305D03*
%TD*%
D15*
%TO.C,D75*%
X216190000Y-166380000D03*
D16*
X223810000Y-166380000D03*
%TD*%
D19*
%TO.C,SW78*%
X218000000Y-75600000D03*
D18*
X223080000Y-75600000D03*
X212920000Y-75600000D03*
D20*
X220540000Y-70520000D03*
X214190000Y-73060000D03*
%TD*%
D18*
%TO.C,SW70*%
X214460000Y-115700000D03*
D19*
X219540000Y-115700000D03*
D18*
X224620000Y-115700000D03*
D20*
X222080000Y-110620000D03*
X215730000Y-113160000D03*
%TD*%
D18*
%TO.C,SW94*%
X134400000Y-120500000D03*
X124240000Y-120500000D03*
D19*
X129320000Y-120500000D03*
D20*
X131860000Y-115420000D03*
X125510000Y-117960000D03*
%TD*%
D18*
%TO.C,SW79*%
X182410000Y-136600000D03*
D19*
X177330000Y-136600000D03*
D18*
X172250000Y-136600000D03*
D20*
X179870000Y-131520000D03*
X173520000Y-134060000D03*
%TD*%
D18*
%TO.C,SW72*%
X244080000Y-75500000D03*
X233920000Y-75500000D03*
D19*
X239000000Y-75500000D03*
D20*
X241540000Y-70420000D03*
X235190000Y-72960000D03*
%TD*%
D15*
%TO.C,D19*%
X401390000Y-84000000D03*
D16*
X409010000Y-84000000D03*
%TD*%
D15*
%TO.C,D74*%
X216110000Y-145100000D03*
D16*
X223730000Y-145100000D03*
%TD*%
D18*
%TO.C,SW13*%
X422920000Y-75940000D03*
D19*
X428000000Y-75940000D03*
D18*
X433080000Y-75940000D03*
D20*
X430540000Y-70860000D03*
X424190000Y-73400000D03*
%TD*%
D15*
%TO.C,D36*%
X370860000Y-181240000D03*
D16*
X378480000Y-181240000D03*
%TD*%
D15*
%TO.C,D59*%
X278560000Y-132540000D03*
D16*
X286180000Y-132540000D03*
%TD*%
D17*
%TO.C,H14*%
X198400000Y-228000000D03*
%TD*%
D18*
%TO.C,SW8*%
X464590000Y-99580000D03*
D19*
X469670000Y-99580000D03*
D18*
X474750000Y-99580000D03*
D20*
X472210000Y-94500000D03*
X465860000Y-97040000D03*
%TD*%
D15*
%TO.C,D32*%
X381760000Y-105565000D03*
D16*
X389380000Y-105565000D03*
%TD*%
D17*
%TO.C,H6*%
X323550000Y-128900000D03*
%TD*%
D15*
%TO.C,D9*%
X468500000Y-132200000D03*
D16*
X476120000Y-132200000D03*
%TD*%
D18*
%TO.C,SW33*%
X382920000Y-118840000D03*
X393080000Y-118840000D03*
D19*
X388000000Y-118840000D03*
D20*
X390540000Y-113760000D03*
X384190000Y-116300000D03*
%TD*%
D15*
%TO.C,D101*%
X125100000Y-130000000D03*
D16*
X132720000Y-130000000D03*
%TD*%
D15*
%TO.C,D76*%
X216500000Y-188800000D03*
D16*
X224120000Y-188800000D03*
%TD*%
D15*
%TO.C,D84*%
X214800000Y-84000000D03*
D16*
X222420000Y-84000000D03*
%TD*%
D18*
%TO.C,SW68*%
X214920000Y-179000000D03*
X225080000Y-179000000D03*
D19*
X220000000Y-179000000D03*
D20*
X222540000Y-173920000D03*
X216190000Y-176460000D03*
%TD*%
D15*
%TO.C,D37*%
X338550000Y-84000000D03*
D16*
X346170000Y-84000000D03*
%TD*%
D15*
%TO.C,D38*%
X360560000Y-106005000D03*
D16*
X368180000Y-106005000D03*
%TD*%
D25*
%TO.C,D52*%
X195200000Y-51200000D03*
D26*
X197740000Y-51200000D03*
%TD*%
D18*
%TO.C,SW37*%
X347210000Y-75840000D03*
X337050000Y-75840000D03*
D19*
X342130000Y-75840000D03*
D20*
X344670000Y-70760000D03*
X338320000Y-73300000D03*
%TD*%
D15*
%TO.C,D60*%
X278080000Y-105800000D03*
D16*
X285700000Y-105800000D03*
%TD*%
D15*
%TO.C,D31*%
X359190000Y-84000000D03*
D16*
X366810000Y-84000000D03*
%TD*%
D19*
%TO.C,SW25*%
X384340000Y-75840000D03*
D18*
X379260000Y-75840000D03*
X389420000Y-75840000D03*
D20*
X386880000Y-70760000D03*
X380530000Y-73300000D03*
%TD*%
D15*
%TO.C,D85*%
X173900000Y-145100000D03*
D16*
X181520000Y-145100000D03*
%TD*%
D15*
%TO.C,D12*%
X468490000Y-196700000D03*
D16*
X476110000Y-196700000D03*
%TD*%
D18*
%TO.C,SW64*%
X235920000Y-160080000D03*
D19*
X241000000Y-160080000D03*
D18*
X246080000Y-160080000D03*
D20*
X243540000Y-155000000D03*
X237190000Y-157540000D03*
%TD*%
D18*
%TO.C,SW38*%
X359590000Y-96980000D03*
X369750000Y-96980000D03*
D19*
X364670000Y-96980000D03*
D20*
X367210000Y-91900000D03*
X360860000Y-94440000D03*
%TD*%
D18*
%TO.C,SW52*%
X288080000Y-97000000D03*
X277920000Y-97000000D03*
D19*
X283000000Y-97000000D03*
D20*
X285540000Y-91920000D03*
X279190000Y-94460000D03*
%TD*%
D15*
%TO.C,D17*%
X446190000Y-148565000D03*
D16*
X453810000Y-148565000D03*
%TD*%
D15*
%TO.C,D45*%
X340640000Y-163000000D03*
D16*
X348260000Y-163000000D03*
%TD*%
D18*
%TO.C,SW63*%
X235760000Y-118000000D03*
D19*
X240840000Y-118000000D03*
D18*
X245920000Y-118000000D03*
D20*
X243380000Y-112920000D03*
X237030000Y-115460000D03*
%TD*%
D18*
%TO.C,SW82*%
X171840000Y-115800000D03*
X182000000Y-115800000D03*
D19*
X176920000Y-115800000D03*
D20*
X179460000Y-110720000D03*
X173110000Y-113260000D03*
%TD*%
D19*
%TO.C,SW92*%
X135460000Y-183680000D03*
D18*
X140540000Y-183680000D03*
X130380000Y-183680000D03*
D20*
X138000000Y-178600000D03*
X131650000Y-181140000D03*
%TD*%
D17*
%TO.C,H10*%
X197600000Y-34100000D03*
%TD*%
D15*
%TO.C,D87*%
X172620000Y-103800000D03*
D16*
X180240000Y-103800000D03*
%TD*%
D15*
%TO.C,D94*%
X153220000Y-149100000D03*
D16*
X160840000Y-149100000D03*
%TD*%
D19*
%TO.C,SW75*%
X196300000Y-92200000D03*
D18*
X201380000Y-92200000D03*
X191220000Y-92200000D03*
D20*
X198840000Y-87120000D03*
X192490000Y-89660000D03*
%TD*%
D15*
%TO.C,D30*%
X405620000Y-190840000D03*
D16*
X413240000Y-190840000D03*
%TD*%
D19*
%TO.C,SW50*%
X284029595Y-212104709D03*
D18*
X279630186Y-209564709D03*
X288429005Y-214644709D03*
D20*
X288769300Y-208975300D03*
X282000039Y-208000005D03*
%TD*%
D15*
%TO.C,D6*%
X490970000Y-195840000D03*
D16*
X498590000Y-195840000D03*
%TD*%
D18*
%TO.C,SW65*%
X243060586Y-188630009D03*
D19*
X247459995Y-191170009D03*
D18*
X251859405Y-193710009D03*
D20*
X252199700Y-188040600D03*
X245430439Y-187065305D03*
%TD*%
D18*
%TO.C,SW57*%
X265080000Y-97000000D03*
X254920000Y-97000000D03*
D19*
X260000000Y-97000000D03*
D20*
X262540000Y-91920000D03*
X256190000Y-94460000D03*
%TD*%
D19*
%TO.C,SW44*%
X344000000Y-154000000D03*
D18*
X344000000Y-159080000D03*
X344000000Y-148920000D03*
D20*
X338920000Y-151460000D03*
X341460000Y-157810000D03*
%TD*%
D18*
%TO.C,SW61*%
X246100000Y-138900000D03*
X235940000Y-138900000D03*
D19*
X241020000Y-138900000D03*
D20*
X243560000Y-133820000D03*
X237210000Y-136360000D03*
%TD*%
D18*
%TO.C,SW59*%
X267080000Y-160080000D03*
X256920000Y-160080000D03*
D19*
X262000000Y-160080000D03*
D20*
X264540000Y-155000000D03*
X258190000Y-157540000D03*
%TD*%
D15*
%TO.C,D15*%
X448020000Y-128840000D03*
D16*
X455640000Y-128840000D03*
%TD*%
D15*
%TO.C,D13*%
X424650000Y-84000000D03*
D16*
X432270000Y-84000000D03*
%TD*%
D19*
%TO.C,SW40*%
X366330000Y-162000000D03*
D18*
X371410000Y-162000000D03*
X361250000Y-162000000D03*
D20*
X368870000Y-156920000D03*
X362520000Y-159460000D03*
%TD*%
D15*
%TO.C,D20*%
X423260000Y-101005000D03*
D16*
X430880000Y-101005000D03*
%TD*%
D15*
%TO.C,D64*%
X256280000Y-105800000D03*
D16*
X263900000Y-105800000D03*
%TD*%
D18*
%TO.C,SW24*%
X424990000Y-178480000D03*
X435150000Y-178480000D03*
D19*
X430070000Y-178480000D03*
D20*
X432610000Y-173400000D03*
X426260000Y-175940000D03*
%TD*%
D15*
%TO.C,D102*%
X151380000Y-84000000D03*
D16*
X159000000Y-84000000D03*
%TD*%
D15*
%TO.C,D68*%
X235800000Y-105800000D03*
D16*
X243420000Y-105800000D03*
%TD*%
D18*
%TO.C,SW83*%
X183000000Y-157680000D03*
X172840000Y-157680000D03*
D19*
X177920000Y-157680000D03*
D20*
X180460000Y-152600000D03*
X174110000Y-155140000D03*
%TD*%
D15*
%TO.C,D7*%
X445050000Y-84260000D03*
D16*
X452670000Y-84260000D03*
%TD*%
D15*
%TO.C,D57*%
X276660000Y-171880000D03*
D16*
X284280000Y-171880000D03*
%TD*%
D25*
%TO.C,D53*%
X167400000Y-51000000D03*
D26*
X169940000Y-51000000D03*
%TD*%
D18*
%TO.C,SW14*%
X453750000Y-97080000D03*
X443590000Y-97080000D03*
D19*
X448670000Y-97080000D03*
D20*
X451210000Y-92000000D03*
X444860000Y-94540000D03*
%TD*%
D21*
%TO.C,D50*%
X485114700Y-50240000D03*
D22*
X487654700Y-50240000D03*
%TD*%
D15*
%TO.C,D29*%
X405720000Y-169260000D03*
D16*
X413340000Y-169260000D03*
%TD*%
D18*
%TO.C,SW23*%
X423920000Y-136380000D03*
D19*
X429000000Y-136380000D03*
D18*
X434080000Y-136380000D03*
D20*
X431540000Y-131300000D03*
X425190000Y-133840000D03*
%TD*%
D19*
%TO.C,SW42*%
X344000000Y-97080000D03*
D18*
X338920000Y-97080000D03*
X349080000Y-97080000D03*
D20*
X346540000Y-92000000D03*
X340190000Y-94540000D03*
%TD*%
D18*
%TO.C,SW48*%
X397010000Y-53000000D03*
X402090000Y-53000000D03*
%TD*%
D27*
%TO.C,J1*%
X318975000Y-92250000D03*
X323975000Y-92250000D03*
D28*
X318975000Y-97050000D03*
D29*
X323975000Y-88650000D03*
X327075000Y-93850000D03*
X318975000Y-87750000D03*
%TD*%
D22*
%TO.C,U2*%
X300970000Y-50300000D03*
D26*
X304000000Y-50000000D03*
X304000000Y-55450000D03*
D22*
X300970000Y-55150000D03*
D30*
X304130000Y-61615000D03*
D31*
X304130000Y-62515000D03*
X301590000Y-62515000D03*
D30*
X301590000Y-61615000D03*
D31*
X299050000Y-62515000D03*
D32*
X299050000Y-61615000D03*
D30*
X296510000Y-61615000D03*
D31*
X296510000Y-62515000D03*
D30*
X293970000Y-61615000D03*
D31*
X293970000Y-62515000D03*
D30*
X291430000Y-61615000D03*
D31*
X291430000Y-62515000D03*
D30*
X288890000Y-61615000D03*
D31*
X288890000Y-62515000D03*
D32*
X286350000Y-61615000D03*
D31*
X286350000Y-62515000D03*
X283810000Y-62515000D03*
D30*
X283810000Y-61615000D03*
X281270000Y-61615000D03*
D31*
X281270000Y-62515000D03*
X278730000Y-62515000D03*
D30*
X278730000Y-61615000D03*
D31*
X276190000Y-62515000D03*
D30*
X276190000Y-61615000D03*
D31*
X273650000Y-62515000D03*
D32*
X273650000Y-61615000D03*
D31*
X271110000Y-62515000D03*
D30*
X271110000Y-61615000D03*
D31*
X268570000Y-62515000D03*
D30*
X268570000Y-61615000D03*
D31*
X266030000Y-62515000D03*
D30*
X266030000Y-61615000D03*
D31*
X263490000Y-62515000D03*
D30*
X263490000Y-61615000D03*
D31*
X260950000Y-62515000D03*
D32*
X260950000Y-61615000D03*
D30*
X258410000Y-61615000D03*
D31*
X258410000Y-62515000D03*
D30*
X255870000Y-61615000D03*
D31*
X255870000Y-62515000D03*
X255870000Y-42935000D03*
D30*
X255870000Y-43835000D03*
D31*
X258410000Y-42935000D03*
D30*
X258410000Y-43835000D03*
D32*
X260950000Y-43835000D03*
D31*
X260950000Y-42935000D03*
X263490000Y-42935000D03*
D30*
X263490000Y-43835000D03*
D31*
X266030000Y-42935000D03*
D30*
X266030000Y-43835000D03*
X268570000Y-43835000D03*
D31*
X268570000Y-42935000D03*
D30*
X271110000Y-43835000D03*
D31*
X271110000Y-42935000D03*
X273650000Y-42935000D03*
D32*
X273650000Y-43835000D03*
D30*
X276190000Y-43835000D03*
D31*
X276190000Y-42935000D03*
D30*
X278730000Y-43835000D03*
D31*
X278730000Y-42935000D03*
X281270000Y-42935000D03*
D30*
X281270000Y-43835000D03*
X283810000Y-43835000D03*
D31*
X283810000Y-42935000D03*
D32*
X286350000Y-43835000D03*
D31*
X286350000Y-42935000D03*
X288890000Y-42935000D03*
D30*
X288890000Y-43835000D03*
D31*
X291430000Y-42935000D03*
D30*
X291430000Y-43835000D03*
D31*
X293970000Y-42935000D03*
D30*
X293970000Y-43835000D03*
X296510000Y-43835000D03*
D31*
X296510000Y-42935000D03*
D32*
X299050000Y-43835000D03*
D31*
X299050000Y-42935000D03*
X301590000Y-42935000D03*
D30*
X301590000Y-43835000D03*
X304130000Y-43835000D03*
D31*
X304130000Y-42935000D03*
D33*
X255200000Y-55265000D03*
D30*
X256100000Y-55265000D03*
D32*
X256100000Y-52725000D03*
D33*
X255200000Y-52725000D03*
X255200000Y-50185000D03*
D30*
X256100000Y-50185000D03*
%TD*%
D26*
%TO.C,U1*%
X320550000Y-55450000D03*
D22*
X323580000Y-55150000D03*
D26*
X320550000Y-50000000D03*
D22*
X323580000Y-50300000D03*
D31*
X320420000Y-42935000D03*
D30*
X320420000Y-43835000D03*
X322960000Y-43835000D03*
D31*
X322960000Y-42935000D03*
X325500000Y-42935000D03*
D32*
X325500000Y-43835000D03*
D30*
X328040000Y-43835000D03*
D31*
X328040000Y-42935000D03*
X330580000Y-42935000D03*
D30*
X330580000Y-43835000D03*
X333120000Y-43835000D03*
D31*
X333120000Y-42935000D03*
D30*
X335660000Y-43835000D03*
D31*
X335660000Y-42935000D03*
D32*
X338200000Y-43835000D03*
D31*
X338200000Y-42935000D03*
D30*
X340740000Y-43835000D03*
D31*
X340740000Y-42935000D03*
D30*
X343280000Y-43835000D03*
D31*
X343280000Y-42935000D03*
X345820000Y-42935000D03*
D30*
X345820000Y-43835000D03*
D31*
X348360000Y-42935000D03*
D30*
X348360000Y-43835000D03*
D31*
X350900000Y-42935000D03*
D32*
X350900000Y-43835000D03*
D30*
X353440000Y-43835000D03*
D31*
X353440000Y-42935000D03*
D30*
X355980000Y-43835000D03*
D31*
X355980000Y-42935000D03*
D30*
X358520000Y-43835000D03*
D31*
X358520000Y-42935000D03*
D30*
X361060000Y-43835000D03*
D31*
X361060000Y-42935000D03*
X363600000Y-42935000D03*
D32*
X363600000Y-43835000D03*
D30*
X366140000Y-43835000D03*
D31*
X366140000Y-42935000D03*
X368680000Y-42935000D03*
D30*
X368680000Y-43835000D03*
X368680000Y-61615000D03*
D31*
X368680000Y-62515000D03*
D30*
X366140000Y-61615000D03*
D31*
X366140000Y-62515000D03*
D32*
X363600000Y-61615000D03*
D31*
X363600000Y-62515000D03*
D30*
X361060000Y-61615000D03*
D31*
X361060000Y-62515000D03*
X358520000Y-62515000D03*
D30*
X358520000Y-61615000D03*
D31*
X355980000Y-62515000D03*
D30*
X355980000Y-61615000D03*
D31*
X353440000Y-62515000D03*
D30*
X353440000Y-61615000D03*
D31*
X350900000Y-62515000D03*
D32*
X350900000Y-61615000D03*
D31*
X348360000Y-62515000D03*
D30*
X348360000Y-61615000D03*
D31*
X345820000Y-62515000D03*
D30*
X345820000Y-61615000D03*
D31*
X343280000Y-62515000D03*
D30*
X343280000Y-61615000D03*
X340740000Y-61615000D03*
D31*
X340740000Y-62515000D03*
X338200000Y-62515000D03*
D32*
X338200000Y-61615000D03*
D31*
X335660000Y-62515000D03*
D30*
X335660000Y-61615000D03*
X333120000Y-61615000D03*
D31*
X333120000Y-62515000D03*
X330580000Y-62515000D03*
D30*
X330580000Y-61615000D03*
X328040000Y-61615000D03*
D31*
X328040000Y-62515000D03*
X325500000Y-62515000D03*
D32*
X325500000Y-61615000D03*
D31*
X322960000Y-62515000D03*
D30*
X322960000Y-61615000D03*
D31*
X320420000Y-62515000D03*
D30*
X320420000Y-61615000D03*
D33*
X369350000Y-50185000D03*
D30*
X368450000Y-50185000D03*
D33*
X369350000Y-52725000D03*
D32*
X368450000Y-52725000D03*
D33*
X369350000Y-55265000D03*
D30*
X368450000Y-55265000D03*
%TD*%
D18*
%TO.C,SW49*%
X229000000Y-53000000D03*
X223920000Y-53000000D03*
%TD*%
D27*
%TO.C,J2*%
X300670000Y-92230000D03*
X305670000Y-92230000D03*
D28*
X305670000Y-87430000D03*
D29*
X300670000Y-95830000D03*
X297570000Y-90630000D03*
X305670000Y-96730000D03*
%TD*%
M02*
