%TF.GenerationSoftware,KiCad,Pcbnew,7.0.0-da2b9df05c~165~ubuntu22.04.1*%
%TF.CreationDate,2023-02-23T10:01:46+01:00*%
%TF.ProjectId,Europe-ergo,4575726f-7065-42d6-9572-676f2e6b6963,rev?*%
%TF.SameCoordinates,Original*%
%TF.FileFunction,Soldermask,Top*%
%TF.FilePolarity,Negative*%
%FSLAX46Y46*%
G04 Gerber Fmt 4.6, Leading zero omitted, Abs format (unit mm)*
G04 Created by KiCad (PCBNEW 7.0.0-da2b9df05c~165~ubuntu22.04.1) date 2023-02-23 10:01:46*
%MOMM*%
%LPD*%
G01*
G04 APERTURE LIST*
%ADD10R,1.600000X1.600000*%
%ADD11O,1.600000X1.600000*%
%ADD12R,1.500000X1.500000*%
%ADD13O,1.500000X1.500000*%
%ADD14R,1.800000X1.800000*%
%ADD15O,1.800000X1.800000*%
%ADD16C,1.700000*%
%ADD17C,4.000000*%
%ADD18C,2.200000*%
%ADD19C,7.500000*%
%ADD20O,1.400000X1.400000*%
%ADD21C,1.400000*%
%ADD22C,1.650000*%
%ADD23R,1.650000X1.650000*%
%ADD24C,1.100000*%
%ADD25O,1.700000X1.700000*%
%ADD26R,1.700000X1.700000*%
G04 APERTURE END LIST*
D10*
%TO.C,D9*%
X359189999Y-83999999D03*
D11*
X366809999Y-83999999D03*
%TD*%
D10*
%TO.C,D27*%
X381759999Y-105564999D03*
D11*
X389379999Y-105564999D03*
%TD*%
D10*
%TO.C,D94*%
X370859999Y-181239999D03*
D11*
X378479999Y-181239999D03*
%TD*%
D10*
%TO.C,D8*%
X338549999Y-83999999D03*
D11*
X346169999Y-83999999D03*
%TD*%
D10*
%TO.C,D26*%
X360559999Y-106004999D03*
D11*
X368179999Y-106004999D03*
%TD*%
D10*
%TO.C,D86*%
X362519999Y-170524999D03*
D11*
X370139999Y-170524999D03*
%TD*%
D10*
%TO.C,D48*%
X362549999Y-129839999D03*
D11*
X370169999Y-129839999D03*
%TD*%
D10*
%TO.C,D64*%
X361929999Y-151039999D03*
D11*
X369549999Y-151039999D03*
%TD*%
D12*
%TO.C,D38*%
X426914699Y-50339999D03*
D13*
X429454699Y-50339999D03*
%TD*%
D12*
%TO.C,D39*%
X455614699Y-50439999D03*
D13*
X458154699Y-50439999D03*
%TD*%
D12*
%TO.C,D40*%
X485114699Y-50239999D03*
D13*
X487654699Y-50239999D03*
%TD*%
D12*
%TO.C,D41*%
X512729999Y-50439999D03*
D13*
X515269999Y-50439999D03*
%TD*%
D14*
%TO.C,D37*%
X195199999Y-51199999D03*
D15*
X197739999Y-51199999D03*
%TD*%
D14*
%TO.C,D36*%
X167399999Y-50999999D03*
D15*
X169939999Y-50999999D03*
%TD*%
D14*
%TO.C,D32*%
X138099999Y-51199999D03*
D15*
X140639999Y-51199999D03*
%TD*%
D14*
%TO.C,D31*%
X109899999Y-50699999D03*
D15*
X112439999Y-50699999D03*
%TD*%
D16*
%TO.C,SW32*%
X492775000Y-99540000D03*
D17*
X497855000Y-99540000D03*
D16*
X502935000Y-99540000D03*
D18*
X500395000Y-94460000D03*
X494045000Y-97000000D03*
%TD*%
D16*
%TO.C,SW48*%
X492775000Y-120880000D03*
D17*
X497855000Y-120880000D03*
D16*
X502935000Y-120880000D03*
D18*
X500395000Y-115800000D03*
X494045000Y-118340000D03*
%TD*%
D16*
%TO.C,SW80*%
X492975000Y-162800000D03*
D17*
X498055000Y-162800000D03*
D16*
X503135000Y-162800000D03*
D18*
X500595000Y-157720000D03*
X494245000Y-160260000D03*
%TD*%
D16*
%TO.C,SW62*%
X492675000Y-141800000D03*
D17*
X497755000Y-141800000D03*
D16*
X502835000Y-141800000D03*
D18*
X500295000Y-136720000D03*
X493945000Y-139260000D03*
%TD*%
D16*
%TO.C,SW46*%
X445920000Y-118980000D03*
D17*
X451000000Y-118980000D03*
D16*
X456080000Y-118980000D03*
D18*
X453540000Y-113900000D03*
X447190000Y-116440000D03*
%TD*%
D16*
%TO.C,SW78*%
X445920000Y-159800000D03*
D17*
X451000000Y-159800000D03*
D16*
X456080000Y-159800000D03*
D18*
X453540000Y-154720000D03*
X447190000Y-157260000D03*
%TD*%
D16*
%TO.C,SW60*%
X444920000Y-139040000D03*
D17*
X450000000Y-139040000D03*
D16*
X455080000Y-139040000D03*
D18*
X452540000Y-133960000D03*
X446190000Y-136500000D03*
%TD*%
D16*
%TO.C,SW27*%
X380590000Y-96740000D03*
D17*
X385670000Y-96740000D03*
D16*
X390750000Y-96740000D03*
D18*
X388210000Y-91660000D03*
X381860000Y-94200000D03*
%TD*%
D16*
%TO.C,SW43*%
X382920000Y-118840000D03*
D17*
X388000000Y-118840000D03*
D16*
X393080000Y-118840000D03*
D18*
X390540000Y-113760000D03*
X384190000Y-116300000D03*
%TD*%
D16*
%TO.C,SW74*%
X361250000Y-162000000D03*
D17*
X366330000Y-162000000D03*
D16*
X371410000Y-162000000D03*
D18*
X368870000Y-156920000D03*
X362520000Y-159460000D03*
%TD*%
D16*
%TO.C,SW56*%
X361050000Y-141080000D03*
D17*
X366130000Y-141080000D03*
D16*
X371210000Y-141080000D03*
D18*
X368670000Y-136000000D03*
X362320000Y-138540000D03*
%TD*%
D16*
%TO.C,SW41*%
X343900000Y-128700000D03*
D17*
X343900000Y-123620000D03*
D16*
X343900000Y-118540000D03*
D18*
X338820000Y-121080000D03*
X341360000Y-127430000D03*
%TD*%
D16*
%TO.C,SW73*%
X344000000Y-159080000D03*
D17*
X344000000Y-154000000D03*
D16*
X344000000Y-148920000D03*
D18*
X338920000Y-151460000D03*
X341460000Y-157810000D03*
%TD*%
D16*
%TO.C,SW16*%
X397010000Y-53000000D03*
X402090000Y-53000000D03*
%TD*%
%TO.C,SW15*%
X229000000Y-53000000D03*
X223920000Y-53000000D03*
%TD*%
%TO.C,SW40*%
X283000000Y-128080000D03*
D17*
X283000000Y-123000000D03*
D16*
X283000000Y-117920000D03*
D18*
X277920000Y-120460000D03*
X280460000Y-126810000D03*
%TD*%
D16*
%TO.C,SW70*%
X283180000Y-159080000D03*
D17*
X283180000Y-154000000D03*
D16*
X283180000Y-148920000D03*
D18*
X278100000Y-151460000D03*
X280640000Y-157810000D03*
%TD*%
D16*
%TO.C,SW22*%
X234320000Y-96900000D03*
D17*
X239400000Y-96900000D03*
D16*
X244480000Y-96900000D03*
D18*
X241940000Y-91820000D03*
X235590000Y-94360000D03*
%TD*%
D16*
%TO.C,SW38*%
X235760000Y-118000000D03*
D17*
X240840000Y-118000000D03*
D16*
X245920000Y-118000000D03*
D18*
X243380000Y-112920000D03*
X237030000Y-115460000D03*
%TD*%
D16*
%TO.C,SW37*%
X214460000Y-118040000D03*
D17*
X219540000Y-118040000D03*
D16*
X224620000Y-118040000D03*
D18*
X222080000Y-112960000D03*
X215730000Y-115500000D03*
%TD*%
D16*
%TO.C,SW52*%
X193840000Y-139000000D03*
D17*
X198920000Y-139000000D03*
D16*
X204000000Y-139000000D03*
D18*
X201460000Y-133920000D03*
X195110000Y-136460000D03*
%TD*%
D16*
%TO.C,SW83*%
X172920000Y-183500000D03*
D17*
X178000000Y-183500000D03*
D16*
X183080000Y-183500000D03*
D18*
X180540000Y-178420000D03*
X174190000Y-180960000D03*
%TD*%
D16*
%TO.C,SW49*%
X124380000Y-141400000D03*
D17*
X129460000Y-141400000D03*
D16*
X134540000Y-141400000D03*
D18*
X132000000Y-136320000D03*
X125650000Y-138860000D03*
%TD*%
D16*
%TO.C,SW17*%
X123880000Y-99600000D03*
D17*
X128960000Y-99600000D03*
D16*
X134040000Y-99600000D03*
D18*
X131500000Y-94520000D03*
X125150000Y-97060000D03*
%TD*%
D16*
%TO.C,SW33*%
X124240000Y-120500000D03*
D17*
X129320000Y-120500000D03*
D16*
X134400000Y-120500000D03*
D18*
X131860000Y-115420000D03*
X125510000Y-117960000D03*
%TD*%
D16*
%TO.C,SW63*%
X124380000Y-162480000D03*
D17*
X129460000Y-162480000D03*
D16*
X134540000Y-162480000D03*
D18*
X132000000Y-157400000D03*
X125650000Y-159940000D03*
%TD*%
%TO.C,SW67*%
X216190000Y-157580000D03*
X222540000Y-155040000D03*
D16*
X225080000Y-160120000D03*
D17*
X220000000Y-160120000D03*
D16*
X214920000Y-160120000D03*
%TD*%
D18*
%TO.C,SW68*%
X237190000Y-157540000D03*
X243540000Y-155000000D03*
D16*
X246080000Y-160080000D03*
D17*
X241000000Y-160080000D03*
D16*
X235920000Y-160080000D03*
%TD*%
D11*
%TO.C,D83*%
X434479999Y-171759999D03*
D10*
X426859999Y-171759999D03*
%TD*%
D11*
%TO.C,D88*%
X160809999Y-191999999D03*
D10*
X153189999Y-191999999D03*
%TD*%
D11*
%TO.C,D90*%
X274999999Y-191999999D03*
D10*
X267379999Y-191999999D03*
%TD*%
D19*
%TO.C,H13*%
X302750000Y-32600000D03*
%TD*%
D11*
%TO.C,D3*%
X201019999Y-83999999D03*
D10*
X193399999Y-83999999D03*
%TD*%
D11*
%TO.C,D22*%
X199979999Y-105599999D03*
D10*
X192359999Y-105599999D03*
%TD*%
D18*
%TO.C,SW64*%
X152610000Y-159740000D03*
X158960000Y-157200000D03*
D16*
X161500000Y-162280000D03*
D17*
X156420000Y-162280000D03*
D16*
X151340000Y-162280000D03*
%TD*%
D11*
%TO.C,D93*%
X361169999Y-190999999D03*
D10*
X353549999Y-190999999D03*
%TD*%
D11*
%TO.C,D92*%
X342809999Y-201999999D03*
D10*
X335189999Y-201999999D03*
%TD*%
D19*
%TO.C,H6*%
X521000000Y-32600000D03*
%TD*%
D18*
%TO.C,SW45*%
X426190000Y-116340000D03*
X432540000Y-113800000D03*
D16*
X435080000Y-118880000D03*
D17*
X430000000Y-118880000D03*
D16*
X424920000Y-118880000D03*
%TD*%
D18*
%TO.C,SW76*%
X405190000Y-159420000D03*
X411540000Y-156880000D03*
D16*
X414080000Y-161960000D03*
D17*
X409000000Y-161960000D03*
D16*
X403920000Y-161960000D03*
%TD*%
D11*
%TO.C,D53*%
X413139999Y-128359999D03*
D10*
X405519999Y-128359999D03*
%TD*%
D11*
%TO.C,D70*%
X160579999Y-171379999D03*
D10*
X152959999Y-171379999D03*
%TD*%
D11*
%TO.C,D42*%
X348619999Y-132919999D03*
D10*
X340999999Y-132919999D03*
%TD*%
D20*
%TO.C,R2*%
X141999999Y-55999999D03*
D21*
X136920000Y-56000000D03*
%TD*%
D18*
%TO.C,SW47*%
X468190000Y-119300000D03*
X474540000Y-116760000D03*
D16*
X477080000Y-121840000D03*
D17*
X472000000Y-121840000D03*
D16*
X466920000Y-121840000D03*
%TD*%
D19*
%TO.C,H5*%
X100900000Y-228000000D03*
%TD*%
D18*
%TO.C,SW91*%
X375430439Y-190705305D03*
X379659700Y-185330600D03*
D16*
X384399405Y-188460009D03*
D17*
X379999995Y-191000009D03*
D16*
X375600586Y-193540009D03*
%TD*%
D18*
%TO.C,SW75*%
X384190000Y-159260000D03*
X390540000Y-156720000D03*
D16*
X393080000Y-161800000D03*
D17*
X388000000Y-161800000D03*
D16*
X382920000Y-161800000D03*
%TD*%
D19*
%TO.C,H1*%
X100500000Y-34000000D03*
%TD*%
D20*
%TO.C,R12*%
X303539999Y-82499999D03*
D21*
X298460000Y-82500000D03*
%TD*%
D11*
%TO.C,D34*%
X159019999Y-129999999D03*
D10*
X151399999Y-129999999D03*
%TD*%
D18*
%TO.C,SW61*%
X467190000Y-140840000D03*
X473540000Y-138300000D03*
D16*
X476080000Y-143380000D03*
D17*
X471000000Y-143380000D03*
D16*
X465920000Y-143380000D03*
%TD*%
D20*
%TO.C,R3*%
X165919999Y-55999999D03*
D21*
X171000000Y-56000000D03*
%TD*%
D11*
%TO.C,D47*%
X181309999Y-129799999D03*
D10*
X173689999Y-129799999D03*
%TD*%
D18*
%TO.C,SW13*%
X445190000Y-73460000D03*
X451540000Y-70920000D03*
D16*
X454080000Y-76000000D03*
D17*
X449000000Y-76000000D03*
D16*
X443920000Y-76000000D03*
%TD*%
D18*
%TO.C,SW39*%
X258110000Y-115460000D03*
X264460000Y-112920000D03*
D16*
X267000000Y-118000000D03*
D17*
X261920000Y-118000000D03*
D16*
X256840000Y-118000000D03*
%TD*%
D18*
%TO.C,SW36*%
X194610000Y-115460000D03*
X200960000Y-112920000D03*
D16*
X203500000Y-118000000D03*
D17*
X198420000Y-118000000D03*
D16*
X193340000Y-118000000D03*
%TD*%
D19*
%TO.C,H16*%
X427400000Y-229450000D03*
%TD*%
D11*
%TO.C,D81*%
X392419999Y-171259999D03*
D10*
X384799999Y-171259999D03*
%TD*%
D11*
%TO.C,D100*%
X203279999Y-189799999D03*
D10*
X195659999Y-189799999D03*
%TD*%
D11*
%TO.C,D5*%
X286999999Y-83999999D03*
D10*
X279379999Y-83999999D03*
%TD*%
D18*
%TO.C,SW29*%
X423860000Y-94070000D03*
X430210000Y-91530000D03*
D16*
X432750000Y-96610000D03*
D17*
X427670000Y-96610000D03*
D16*
X422590000Y-96610000D03*
%TD*%
D11*
%TO.C,D63*%
X203129999Y-147899999D03*
D10*
X195509999Y-147899999D03*
%TD*%
D18*
%TO.C,SW58*%
X404000000Y-138300000D03*
X410350000Y-135760000D03*
D16*
X412890000Y-140840000D03*
D17*
X407810000Y-140840000D03*
D16*
X402730000Y-140840000D03*
%TD*%
D11*
%TO.C,D97*%
X181819999Y-191899999D03*
D10*
X174199999Y-191899999D03*
%TD*%
D18*
%TO.C,SW84*%
X195470000Y-178860000D03*
X201820000Y-176320000D03*
D16*
X204360000Y-181400000D03*
D17*
X199280000Y-181400000D03*
D16*
X194200000Y-181400000D03*
%TD*%
D19*
%TO.C,H2*%
X521000000Y-229450000D03*
%TD*%
D18*
%TO.C,SW6*%
X257190000Y-73260000D03*
X263540000Y-70720000D03*
D16*
X266080000Y-75800000D03*
D17*
X261000000Y-75800000D03*
D16*
X255920000Y-75800000D03*
%TD*%
D18*
%TO.C,SW50*%
X152620000Y-138760000D03*
X158970000Y-136220000D03*
D16*
X161510000Y-141300000D03*
D17*
X156430000Y-141300000D03*
D16*
X151350000Y-141300000D03*
%TD*%
D11*
%TO.C,D46*%
X266539999Y-127999999D03*
D10*
X258919999Y-127999999D03*
%TD*%
D11*
%TO.C,D16*%
X160999999Y-111999999D03*
D10*
X153379999Y-111999999D03*
%TD*%
D11*
%TO.C,D78*%
X203319999Y-168179999D03*
D10*
X195699999Y-168179999D03*
%TD*%
D20*
%TO.C,R5*%
X430549999Y-53999999D03*
D21*
X425470000Y-54000000D03*
%TD*%
D18*
%TO.C,SW96*%
X490260000Y-182540000D03*
X496610000Y-180000000D03*
D16*
X499150000Y-185080000D03*
D17*
X494070000Y-185080000D03*
D16*
X488990000Y-185080000D03*
%TD*%
D11*
%TO.C,D91*%
X291509599Y-200284699D03*
D10*
X283889599Y-200284699D03*
%TD*%
D11*
%TO.C,D23*%
X221919999Y-105139999D03*
D10*
X214299999Y-105139999D03*
%TD*%
D18*
%TO.C,SW44*%
X405190000Y-115560000D03*
X411540000Y-113020000D03*
D16*
X414080000Y-118100000D03*
D17*
X409000000Y-118100000D03*
D16*
X403920000Y-118100000D03*
%TD*%
D11*
%TO.C,D18*%
X347029999Y-106004999D03*
D10*
X339409999Y-106004999D03*
%TD*%
D18*
%TO.C,SW34*%
X151490000Y-117960000D03*
X157840000Y-115420000D03*
D16*
X160380000Y-120500000D03*
D17*
X155300000Y-120500000D03*
D16*
X150220000Y-120500000D03*
%TD*%
D18*
%TO.C,SW18*%
X151190000Y-97260000D03*
X157540000Y-94720000D03*
D16*
X160080000Y-99800000D03*
D17*
X155000000Y-99800000D03*
D16*
X149920000Y-99800000D03*
%TD*%
D11*
%TO.C,D55*%
X135029999Y-149099999D03*
D10*
X127409999Y-149099999D03*
%TD*%
D11*
%TO.C,D57*%
X474809999Y-152039999D03*
D10*
X467189999Y-152039999D03*
%TD*%
D18*
%TO.C,SW2*%
X171450000Y-73160000D03*
X177800000Y-70620000D03*
D16*
X180340000Y-75700000D03*
D17*
X175260000Y-75700000D03*
D16*
X170180000Y-75700000D03*
%TD*%
D11*
%TO.C,D60*%
X245009999Y-147099999D03*
D10*
X237389999Y-147099999D03*
%TD*%
D18*
%TO.C,SW42*%
X362620000Y-116540000D03*
X368970000Y-114000000D03*
D16*
X371510000Y-119080000D03*
D17*
X366430000Y-119080000D03*
D16*
X361350000Y-119080000D03*
%TD*%
D11*
%TO.C,D45*%
X245159999Y-126999999D03*
D10*
X237539999Y-126999999D03*
%TD*%
D11*
%TO.C,D15*%
X134729999Y-111999999D03*
D10*
X127109999Y-111999999D03*
%TD*%
D11*
%TO.C,D69*%
X135319999Y-171379999D03*
D10*
X127699999Y-171379999D03*
%TD*%
D20*
%TO.C,R7*%
X484549999Y-53999999D03*
D21*
X489630000Y-54000000D03*
%TD*%
D11*
%TO.C,D50*%
X202249999Y-126799999D03*
D10*
X194629999Y-126799999D03*
%TD*%
D18*
%TO.C,SW9*%
X359190000Y-73200000D03*
X365540000Y-70660000D03*
D16*
X368080000Y-75740000D03*
D17*
X363000000Y-75740000D03*
D16*
X357920000Y-75740000D03*
%TD*%
D11*
%TO.C,D20*%
X501664999Y-108064999D03*
D10*
X494044999Y-108064999D03*
%TD*%
D18*
%TO.C,SW19*%
X172000000Y-97000000D03*
X178350000Y-94460000D03*
D16*
X180890000Y-99540000D03*
D17*
X175810000Y-99540000D03*
D16*
X170730000Y-99540000D03*
%TD*%
D19*
%TO.C,H10*%
X322000000Y-32650000D03*
%TD*%
D11*
%TO.C,D65*%
X391419999Y-151039999D03*
D10*
X383799999Y-151039999D03*
%TD*%
D11*
%TO.C,D102*%
X433789999Y-193339999D03*
D10*
X426169999Y-193339999D03*
%TD*%
D11*
%TO.C,D71*%
X286139999Y-164279999D03*
D10*
X278519999Y-164279999D03*
%TD*%
D11*
%TO.C,D84*%
X455239999Y-170259999D03*
D10*
X447619999Y-170259999D03*
%TD*%
D18*
%TO.C,SW11*%
X402270000Y-73320000D03*
X408620000Y-70780000D03*
D16*
X411160000Y-75860000D03*
D17*
X406080000Y-75860000D03*
D16*
X401000000Y-75860000D03*
%TD*%
D11*
%TO.C,D28*%
X409479999Y-105224999D03*
D10*
X401859999Y-105224999D03*
%TD*%
D20*
%TO.C,R1*%
X112999999Y-55999999D03*
D21*
X107920000Y-56000000D03*
%TD*%
D18*
%TO.C,SW89*%
X338840439Y-212365305D03*
X343069700Y-206990600D03*
D16*
X347809405Y-210120009D03*
D17*
X343409995Y-212660009D03*
D16*
X339010586Y-215200009D03*
%TD*%
D18*
%TO.C,SW94*%
X447260000Y-178640000D03*
X453610000Y-176100000D03*
D16*
X456150000Y-181180000D03*
D17*
X451070000Y-181180000D03*
D16*
X445990000Y-181180000D03*
%TD*%
D11*
%TO.C,D30*%
X452479999Y-105739999D03*
D10*
X444859999Y-105739999D03*
%TD*%
D18*
%TO.C,SW1*%
X149650000Y-73060000D03*
X156000000Y-70520000D03*
D16*
X158540000Y-75600000D03*
D17*
X153460000Y-75600000D03*
D16*
X148380000Y-75600000D03*
%TD*%
D19*
%TO.C,H8*%
X426550000Y-32650000D03*
%TD*%
D18*
%TO.C,SW53*%
X216030000Y-136400000D03*
X222380000Y-133860000D03*
D16*
X224920000Y-138940000D03*
D17*
X219840000Y-138940000D03*
D16*
X214760000Y-138940000D03*
%TD*%
D11*
%TO.C,D58*%
X501564999Y-150204999D03*
D10*
X493944999Y-150204999D03*
%TD*%
D18*
%TO.C,SW72*%
X346430439Y-183705305D03*
X350659700Y-178330600D03*
D16*
X355399405Y-181460009D03*
D17*
X350999995Y-184000009D03*
D16*
X346600586Y-186540009D03*
%TD*%
D11*
%TO.C,D61*%
X265809999Y-147099999D03*
D10*
X258189999Y-147099999D03*
%TD*%
D11*
%TO.C,D49*%
X392139999Y-128699999D03*
D10*
X384519999Y-128699999D03*
%TD*%
D18*
%TO.C,SW77*%
X426190000Y-159180000D03*
X432540000Y-156640000D03*
D16*
X435080000Y-161720000D03*
D17*
X430000000Y-161720000D03*
D16*
X424920000Y-161720000D03*
%TD*%
D18*
%TO.C,SW28*%
X402860000Y-94460000D03*
X409210000Y-91920000D03*
D16*
X411750000Y-97000000D03*
D17*
X406670000Y-97000000D03*
D16*
X401590000Y-97000000D03*
%TD*%
D11*
%TO.C,D13*%
X388619999Y-83999999D03*
D10*
X380999999Y-83999999D03*
%TD*%
D18*
%TO.C,SW95*%
X468260000Y-182540000D03*
X474610000Y-180000000D03*
D16*
X477150000Y-185080000D03*
D17*
X472070000Y-185080000D03*
D16*
X466990000Y-185080000D03*
%TD*%
D18*
%TO.C,SW3*%
X192650000Y-73160000D03*
X199000000Y-70620000D03*
D16*
X201540000Y-75700000D03*
D17*
X196460000Y-75700000D03*
D16*
X191380000Y-75700000D03*
%TD*%
D11*
%TO.C,D76*%
X502094999Y-172659999D03*
D10*
X494474999Y-172659999D03*
%TD*%
D11*
%TO.C,D12*%
X241999999Y-83999999D03*
D10*
X234379999Y-83999999D03*
%TD*%
D11*
%TO.C,D2*%
X180619999Y-83999999D03*
D10*
X172999999Y-83999999D03*
%TD*%
D18*
%TO.C,SW7*%
X278990000Y-73160000D03*
X285340000Y-70620000D03*
D16*
X287880000Y-75700000D03*
D17*
X282800000Y-75700000D03*
D16*
X277720000Y-75700000D03*
%TD*%
D18*
%TO.C,SW55*%
X258190000Y-136460000D03*
X264540000Y-133920000D03*
D16*
X267080000Y-139000000D03*
D17*
X262000000Y-139000000D03*
D16*
X256920000Y-139000000D03*
%TD*%
D20*
%TO.C,R8*%
X518089999Y-53999999D03*
D21*
X513010000Y-54000000D03*
%TD*%
D11*
%TO.C,D85*%
X265899999Y-168379999D03*
D10*
X258279999Y-168379999D03*
%TD*%
D11*
%TO.C,D51*%
X223759999Y-127339999D03*
D10*
X216139999Y-127339999D03*
%TD*%
D18*
%TO.C,SW57*%
X383190000Y-138440000D03*
X389540000Y-135900000D03*
D16*
X392080000Y-140980000D03*
D17*
X387000000Y-140980000D03*
D16*
X381920000Y-140980000D03*
%TD*%
D20*
%TO.C,R9*%
X321089999Y-99499999D03*
D21*
X326170000Y-99500000D03*
%TD*%
D19*
%TO.C,H15*%
X302200000Y-227800000D03*
%TD*%
%TO.C,H9*%
X300900000Y-128800000D03*
%TD*%
D11*
%TO.C,D44*%
X502474999Y-128799999D03*
D10*
X494854999Y-128799999D03*
%TD*%
D11*
%TO.C,D4*%
X264999999Y-83999999D03*
D10*
X257379999Y-83999999D03*
%TD*%
D19*
%TO.C,H7*%
X100500000Y-129000000D03*
%TD*%
D11*
%TO.C,D99*%
X454909999Y-190839999D03*
D10*
X447289999Y-190839999D03*
%TD*%
D11*
%TO.C,D66*%
X412329999Y-151099999D03*
D10*
X404709999Y-151099999D03*
%TD*%
D19*
%TO.C,H4*%
X521000000Y-129000000D03*
%TD*%
D11*
%TO.C,D80*%
X244999999Y-168379999D03*
D10*
X237379999Y-168379999D03*
%TD*%
D18*
%TO.C,SW14*%
X466190000Y-73300000D03*
X472540000Y-70760000D03*
D16*
X475080000Y-75840000D03*
D17*
X470000000Y-75840000D03*
D16*
X464920000Y-75840000D03*
%TD*%
D11*
%TO.C,D19*%
X473179999Y-108004999D03*
D10*
X465559999Y-108004999D03*
%TD*%
D11*
%TO.C,D7*%
X474139999Y-83999999D03*
D10*
X466519999Y-83999999D03*
%TD*%
D11*
%TO.C,D67*%
X432819999Y-150539999D03*
D10*
X425199999Y-150539999D03*
%TD*%
D11*
%TO.C,D73*%
X350179999Y-173970599D03*
D10*
X342559999Y-173970599D03*
%TD*%
D18*
%TO.C,SW71*%
X273970439Y-179895305D03*
X280739700Y-180870600D03*
D16*
X280399405Y-186540009D03*
D17*
X275999995Y-184000009D03*
D16*
X271600586Y-181460009D03*
%TD*%
D18*
%TO.C,SW21*%
X214490000Y-94500000D03*
X220840000Y-91960000D03*
D16*
X223380000Y-97040000D03*
D17*
X218300000Y-97040000D03*
D16*
X213220000Y-97040000D03*
%TD*%
D18*
%TO.C,SW82*%
X153190000Y-181040000D03*
X159540000Y-178500000D03*
D16*
X162080000Y-183580000D03*
D17*
X157000000Y-183580000D03*
D16*
X151920000Y-183580000D03*
%TD*%
D19*
%TO.C,H14*%
X324750000Y-228000000D03*
%TD*%
D11*
%TO.C,D75*%
X475939999Y-173219999D03*
D10*
X468319999Y-173219999D03*
%TD*%
D11*
%TO.C,D77*%
X182009999Y-171179999D03*
D10*
X174389999Y-171179999D03*
%TD*%
D20*
%TO.C,R6*%
X454469999Y-53999999D03*
D21*
X459550000Y-54000000D03*
%TD*%
D11*
%TO.C,D89*%
X256619999Y-180249999D03*
D10*
X248999999Y-180249999D03*
%TD*%
D20*
%TO.C,R4*%
X193919999Y-55999999D03*
D21*
X199000000Y-56000000D03*
%TD*%
D11*
%TO.C,D54*%
X434719999Y-129339999D03*
D10*
X427099999Y-129339999D03*
%TD*%
D20*
%TO.C,R11*%
X303619999Y-99499999D03*
D21*
X298540000Y-99500000D03*
%TD*%
D18*
%TO.C,SW79*%
X468190000Y-160720000D03*
X474540000Y-158180000D03*
D16*
X477080000Y-163260000D03*
D17*
X472000000Y-163260000D03*
D16*
X466920000Y-163260000D03*
%TD*%
D11*
%TO.C,D87*%
X138979999Y-191999999D03*
D10*
X131359999Y-191999999D03*
%TD*%
D18*
%TO.C,SW66*%
X194850000Y-157440000D03*
X201200000Y-154900000D03*
D16*
X203740000Y-159980000D03*
D17*
X198660000Y-159980000D03*
D16*
X193580000Y-159980000D03*
%TD*%
D20*
%TO.C,R10*%
X320009999Y-82499999D03*
D21*
X325090000Y-82500000D03*
%TD*%
D18*
%TO.C,SW90*%
X356900439Y-201465305D03*
X361129700Y-196090600D03*
D16*
X365869405Y-199220009D03*
D17*
X361469995Y-201760009D03*
D16*
X357070586Y-204300009D03*
%TD*%
D18*
%TO.C,SW92*%
X405190000Y-180800000D03*
X411540000Y-178260000D03*
D16*
X414080000Y-183340000D03*
D17*
X409000000Y-183340000D03*
D16*
X403920000Y-183340000D03*
%TD*%
D18*
%TO.C,SW87*%
X263510439Y-197615305D03*
X270279700Y-198590600D03*
D16*
X269939405Y-204260009D03*
D17*
X265539995Y-201720009D03*
D16*
X261140586Y-199180009D03*
%TD*%
D11*
%TO.C,D79*%
X223809999Y-168719999D03*
D10*
X216189999Y-168719999D03*
%TD*%
D18*
%TO.C,SW4*%
X214190000Y-73060000D03*
X220540000Y-70520000D03*
D16*
X223080000Y-75600000D03*
D17*
X218000000Y-75600000D03*
D16*
X212920000Y-75600000D03*
%TD*%
D18*
%TO.C,SW51*%
X173800000Y-138860000D03*
X180150000Y-136320000D03*
D16*
X182690000Y-141400000D03*
D17*
X177610000Y-141400000D03*
D16*
X172530000Y-141400000D03*
%TD*%
D18*
%TO.C,SW5*%
X235190000Y-72960000D03*
X241540000Y-70420000D03*
D16*
X244080000Y-75500000D03*
D17*
X239000000Y-75500000D03*
D16*
X233920000Y-75500000D03*
%TD*%
D11*
%TO.C,D14*%
X409009999Y-83999999D03*
D10*
X401389999Y-83999999D03*
%TD*%
D11*
%TO.C,D59*%
X223729999Y-147439999D03*
D10*
X216109999Y-147439999D03*
%TD*%
D18*
%TO.C,SW12*%
X424190000Y-73400000D03*
X430540000Y-70860000D03*
D16*
X433080000Y-75940000D03*
D17*
X428000000Y-75940000D03*
D16*
X422920000Y-75940000D03*
%TD*%
D11*
%TO.C,D35*%
X286179999Y-132539999D03*
D10*
X278559999Y-132539999D03*
%TD*%
D19*
%TO.C,H11*%
X198400000Y-228000000D03*
%TD*%
D18*
%TO.C,SW31*%
X465860000Y-96540000D03*
X472210000Y-94000000D03*
D16*
X474750000Y-99080000D03*
D17*
X469670000Y-99080000D03*
D16*
X464590000Y-99080000D03*
%TD*%
D19*
%TO.C,H12*%
X323550000Y-128900000D03*
%TD*%
D11*
%TO.C,D43*%
X476119999Y-132199999D03*
D10*
X468499999Y-132199999D03*
%TD*%
D11*
%TO.C,D33*%
X132719999Y-129999999D03*
D10*
X125099999Y-129999999D03*
%TD*%
D11*
%TO.C,D98*%
X224119999Y-189339999D03*
D10*
X216499999Y-189339999D03*
%TD*%
D11*
%TO.C,D11*%
X222419999Y-83999999D03*
D10*
X214799999Y-83999999D03*
%TD*%
D18*
%TO.C,SW85*%
X216190000Y-178800000D03*
X222540000Y-176260000D03*
D16*
X225080000Y-181340000D03*
D17*
X220000000Y-181340000D03*
D16*
X214920000Y-181340000D03*
%TD*%
D18*
%TO.C,SW8*%
X338320000Y-73300000D03*
X344670000Y-70760000D03*
D16*
X347210000Y-75840000D03*
D17*
X342130000Y-75840000D03*
D16*
X337050000Y-75840000D03*
%TD*%
D11*
%TO.C,D17*%
X285699999Y-105799999D03*
D10*
X278079999Y-105799999D03*
%TD*%
D18*
%TO.C,SW10*%
X380530000Y-73300000D03*
X386880000Y-70760000D03*
D16*
X389420000Y-75840000D03*
D17*
X384340000Y-75840000D03*
D16*
X379260000Y-75840000D03*
%TD*%
D11*
%TO.C,D62*%
X181799999Y-149899999D03*
D10*
X174179999Y-149899999D03*
%TD*%
D11*
%TO.C,D95*%
X476109999Y-196699999D03*
D10*
X468489999Y-196699999D03*
%TD*%
D18*
%TO.C,SW26*%
X360860000Y-94440000D03*
X367210000Y-91900000D03*
D16*
X369750000Y-96980000D03*
D17*
X364670000Y-96980000D03*
D16*
X359590000Y-96980000D03*
%TD*%
D18*
%TO.C,SW24*%
X279190000Y-94460000D03*
X285540000Y-91920000D03*
D16*
X288080000Y-97000000D03*
D17*
X283000000Y-97000000D03*
D16*
X277920000Y-97000000D03*
%TD*%
D11*
%TO.C,D68*%
X453809999Y-148564999D03*
D10*
X446189999Y-148564999D03*
%TD*%
D11*
%TO.C,D74*%
X348259999Y-162999999D03*
D10*
X340639999Y-162999999D03*
%TD*%
D18*
%TO.C,SW35*%
X173000000Y-118000000D03*
X179350000Y-115460000D03*
D16*
X181890000Y-120540000D03*
D17*
X176810000Y-120540000D03*
D16*
X171730000Y-120540000D03*
%TD*%
D18*
%TO.C,SW81*%
X131650000Y-181140000D03*
X138000000Y-178600000D03*
D16*
X140540000Y-183680000D03*
D17*
X135460000Y-183680000D03*
D16*
X130380000Y-183680000D03*
%TD*%
D19*
%TO.C,H3*%
X197600000Y-34100000D03*
%TD*%
D11*
%TO.C,D21*%
X180519999Y-108599999D03*
D10*
X172899999Y-108599999D03*
%TD*%
D11*
%TO.C,D56*%
X160839999Y-149099999D03*
D10*
X153219999Y-149099999D03*
%TD*%
D18*
%TO.C,SW20*%
X193270000Y-94460000D03*
X199620000Y-91920000D03*
D16*
X202160000Y-97000000D03*
D17*
X197080000Y-97000000D03*
D16*
X192000000Y-97000000D03*
%TD*%
D11*
%TO.C,D101*%
X413239999Y-193469999D03*
D10*
X405619999Y-193469999D03*
%TD*%
D18*
%TO.C,SW88*%
X282000039Y-208000005D03*
X288769300Y-208975300D03*
D16*
X288429005Y-214644709D03*
D17*
X284029595Y-212104709D03*
D16*
X279630186Y-209564709D03*
%TD*%
D11*
%TO.C,D96*%
X498589999Y-195839999D03*
D10*
X490969999Y-195839999D03*
%TD*%
D18*
%TO.C,SW86*%
X245430439Y-187065305D03*
X252199700Y-188040600D03*
D16*
X251859405Y-193710009D03*
D17*
X247459995Y-191170009D03*
D16*
X243060586Y-188630009D03*
%TD*%
D18*
%TO.C,SW23*%
X256690000Y-94460000D03*
X263040000Y-91920000D03*
D16*
X265580000Y-97000000D03*
D17*
X260500000Y-97000000D03*
D16*
X255420000Y-97000000D03*
%TD*%
D18*
%TO.C,SW54*%
X237210000Y-136360000D03*
X243560000Y-133820000D03*
D16*
X246100000Y-138900000D03*
D17*
X241020000Y-138900000D03*
D16*
X235940000Y-138900000D03*
%TD*%
D18*
%TO.C,SW69*%
X258190000Y-157540000D03*
X264540000Y-155000000D03*
D16*
X267080000Y-160080000D03*
D17*
X262000000Y-160080000D03*
D16*
X256920000Y-160080000D03*
%TD*%
D11*
%TO.C,D52*%
X455639999Y-128839999D03*
D10*
X448019999Y-128839999D03*
%TD*%
D11*
%TO.C,D10*%
X432269999Y-83999999D03*
D10*
X424649999Y-83999999D03*
%TD*%
D11*
%TO.C,D29*%
X430879999Y-105504999D03*
D10*
X423259999Y-105504999D03*
%TD*%
D11*
%TO.C,D25*%
X263899999Y-105799999D03*
D10*
X256279999Y-105799999D03*
%TD*%
D18*
%TO.C,SW93*%
X426260000Y-180440000D03*
X432610000Y-177900000D03*
D16*
X435150000Y-182980000D03*
D17*
X430070000Y-182980000D03*
D16*
X424990000Y-182980000D03*
%TD*%
D11*
%TO.C,D1*%
X158999999Y-83999999D03*
D10*
X151379999Y-83999999D03*
%TD*%
D11*
%TO.C,D24*%
X243419999Y-105799999D03*
D10*
X235799999Y-105799999D03*
%TD*%
D18*
%TO.C,SW65*%
X173850000Y-159940000D03*
X180200000Y-157400000D03*
D16*
X182740000Y-162480000D03*
D17*
X177660000Y-162480000D03*
D16*
X172580000Y-162480000D03*
%TD*%
D11*
%TO.C,D6*%
X452669999Y-84259999D03*
D10*
X445049999Y-84259999D03*
%TD*%
D11*
%TO.C,D72*%
X284279999Y-171879999D03*
D10*
X276659999Y-171879999D03*
%TD*%
D18*
%TO.C,SW30*%
X444860000Y-94540000D03*
X451210000Y-92000000D03*
D16*
X453750000Y-97080000D03*
D17*
X448670000Y-97080000D03*
D16*
X443590000Y-97080000D03*
%TD*%
D11*
%TO.C,D82*%
X413339999Y-171519999D03*
D10*
X405719999Y-171519999D03*
%TD*%
D18*
%TO.C,SW59*%
X425190000Y-138340000D03*
X431540000Y-135800000D03*
D16*
X434080000Y-140880000D03*
D17*
X429000000Y-140880000D03*
D16*
X423920000Y-140880000D03*
%TD*%
D18*
%TO.C,SW25*%
X340190000Y-94540000D03*
X346540000Y-92000000D03*
D16*
X349080000Y-97080000D03*
D17*
X344000000Y-97080000D03*
D16*
X338920000Y-97080000D03*
%TD*%
D22*
%TO.C,J2*%
X318975000Y-87750000D03*
X327075000Y-93850000D03*
X323975000Y-88650000D03*
D23*
X318974999Y-97049999D03*
D24*
X323975000Y-92250000D03*
X318975000Y-92250000D03*
%TD*%
D25*
%TO.C,U1*%
X256099999Y-50184999D03*
D26*
X256099999Y-52724999D03*
D25*
X256099999Y-55264999D03*
X304129999Y-43834999D03*
X301589999Y-43834999D03*
D26*
X299049999Y-43834999D03*
D25*
X296509999Y-43834999D03*
X293969999Y-43834999D03*
X291429999Y-43834999D03*
X288889999Y-43834999D03*
D26*
X286349999Y-43834999D03*
D25*
X283809999Y-43834999D03*
X281269999Y-43834999D03*
X278729999Y-43834999D03*
X276189999Y-43834999D03*
D26*
X273649999Y-43834999D03*
D25*
X271109999Y-43834999D03*
X268569999Y-43834999D03*
X266029999Y-43834999D03*
X263489999Y-43834999D03*
D26*
X260949999Y-43834999D03*
D25*
X258409999Y-43834999D03*
X255869999Y-43834999D03*
X255869999Y-61614999D03*
X258409999Y-61614999D03*
D26*
X260949999Y-61614999D03*
D25*
X263489999Y-61614999D03*
X266029999Y-61614999D03*
X268569999Y-61614999D03*
X271109999Y-61614999D03*
D26*
X273649999Y-61614999D03*
D25*
X276189999Y-61614999D03*
X278729999Y-61614999D03*
X281269999Y-61614999D03*
X283809999Y-61614999D03*
D26*
X286349999Y-61614999D03*
D25*
X288889999Y-61614999D03*
X291429999Y-61614999D03*
X293969999Y-61614999D03*
X296509999Y-61614999D03*
D26*
X299049999Y-61614999D03*
D25*
X301589999Y-61614999D03*
X304129999Y-61614999D03*
D15*
X303999999Y-49999999D03*
D13*
X300969999Y-50299999D03*
X300969999Y-55149999D03*
D15*
X303999999Y-55449999D03*
%TD*%
D25*
%TO.C,U2*%
X368449999Y-55264999D03*
D26*
X368449999Y-52724999D03*
D25*
X368449999Y-50184999D03*
X320419999Y-61614999D03*
X322959999Y-61614999D03*
D26*
X325499999Y-61614999D03*
D25*
X328039999Y-61614999D03*
X330579999Y-61614999D03*
X333119999Y-61614999D03*
X335659999Y-61614999D03*
D26*
X338199999Y-61614999D03*
D25*
X340739999Y-61614999D03*
X343279999Y-61614999D03*
X345819999Y-61614999D03*
X348359999Y-61614999D03*
D26*
X350899999Y-61614999D03*
D25*
X353439999Y-61614999D03*
X355979999Y-61614999D03*
X358519999Y-61614999D03*
X361059999Y-61614999D03*
D26*
X363599999Y-61614999D03*
D25*
X366139999Y-61614999D03*
X368679999Y-61614999D03*
X368679999Y-43834999D03*
X366139999Y-43834999D03*
D26*
X363599999Y-43834999D03*
D25*
X361059999Y-43834999D03*
X358519999Y-43834999D03*
X355979999Y-43834999D03*
X353439999Y-43834999D03*
D26*
X350899999Y-43834999D03*
D25*
X348359999Y-43834999D03*
X345819999Y-43834999D03*
X343279999Y-43834999D03*
X340739999Y-43834999D03*
D26*
X338199999Y-43834999D03*
D25*
X335659999Y-43834999D03*
X333119999Y-43834999D03*
X330579999Y-43834999D03*
X328039999Y-43834999D03*
D26*
X325499999Y-43834999D03*
D25*
X322959999Y-43834999D03*
X320419999Y-43834999D03*
D15*
X320549999Y-55449999D03*
D13*
X323579999Y-55149999D03*
X323579999Y-50299999D03*
D15*
X320549999Y-49999999D03*
%TD*%
D22*
%TO.C,J1*%
X305670000Y-96730000D03*
X297570000Y-90630000D03*
X300670000Y-95830000D03*
D23*
X305669999Y-87429999D03*
D24*
X300670000Y-92230000D03*
X305670000Y-92230000D03*
%TD*%
M02*
