%TF.GenerationSoftware,KiCad,Pcbnew,7.0.5-4d25ed1034~172~ubuntu22.04.1*%
%TF.CreationDate,2023-06-17T05:09:08+02:00*%
%TF.ProjectId,Europe-ergo,4575726f-7065-42d6-9572-676f2e6b6963,rev?*%
%TF.SameCoordinates,Original*%
%TF.FileFunction,Drillmap*%
%TF.FilePolarity,Positive*%
%FSLAX45Y45*%
G04 Gerber Fmt 4.5, Leading zero omitted, Abs format (unit mm)*
G04 Created by KiCad (PCBNEW 7.0.5-4d25ed1034~172~ubuntu22.04.1) date 2023-06-17 05:09:08*
%MOMM*%
%LPD*%
G01*
G04 APERTURE LIST*
%ADD10C,0.100000*%
%ADD11C,0.200000*%
%ADD12C,0.150000*%
%ADD13C,0.170000*%
%ADD14C,0.180000*%
%ADD15C,0.400000*%
G04 APERTURE END LIST*
D10*
X8585200Y-23520400D02*
X8585200Y-2692400D01*
X31745000Y-22685000D02*
X31605000Y-3125000D01*
X30850000Y-3125000D02*
X30900000Y-22685000D01*
X31345000Y-22685000D02*
X31745000Y-22685000D01*
X8585200Y-2692400D02*
X30850000Y-2700000D01*
X52800000Y-23500000D02*
X52855000Y-2690000D01*
X31345000Y-22685000D02*
X30900000Y-22685000D01*
X31605000Y-3125000D02*
X30850000Y-3125000D01*
X52855000Y-2690000D02*
X30850000Y-2700000D01*
X30990000Y-23510000D02*
X52800000Y-23500000D01*
X30990000Y-23510000D02*
X8585200Y-23520400D01*
D11*
D12*
X30022000Y-4955000D02*
X30172000Y-5105000D01*
X30172000Y-4955000D02*
X30022000Y-5105000D01*
X30022000Y-5440000D02*
X30172000Y-5590000D01*
X30172000Y-5440000D02*
X30022000Y-5590000D01*
X32283000Y-4955000D02*
X32433000Y-5105000D01*
X32433000Y-4955000D02*
X32283000Y-5105000D01*
X32283000Y-5440000D02*
X32433000Y-5590000D01*
X32433000Y-5440000D02*
X32283000Y-5590000D01*
D13*
X12473000Y-9960000D02*
G75*
G03*
X12473000Y-9960000I-85000J0D01*
G01*
X12509000Y-12050000D02*
G75*
G03*
X12509000Y-12050000I-85000J0D01*
G01*
X12523000Y-14140000D02*
G75*
G03*
X12523000Y-14140000I-85000J0D01*
G01*
X12523000Y-16248000D02*
G75*
G03*
X12523000Y-16248000I-85000J0D01*
G01*
X13123000Y-18368000D02*
G75*
G03*
X13123000Y-18368000I-85000J0D01*
G01*
X13489000Y-9960000D02*
G75*
G03*
X13489000Y-9960000I-85000J0D01*
G01*
X13525000Y-12050000D02*
G75*
G03*
X13525000Y-12050000I-85000J0D01*
G01*
X13539000Y-14140000D02*
G75*
G03*
X13539000Y-14140000I-85000J0D01*
G01*
X13539000Y-16248000D02*
G75*
G03*
X13539000Y-16248000I-85000J0D01*
G01*
X14139000Y-18368000D02*
G75*
G03*
X14139000Y-18368000I-85000J0D01*
G01*
X14923000Y-7560000D02*
G75*
G03*
X14923000Y-7560000I-85000J0D01*
G01*
X15077000Y-9980000D02*
G75*
G03*
X15077000Y-9980000I-85000J0D01*
G01*
X15107000Y-12050000D02*
G75*
G03*
X15107000Y-12050000I-85000J0D01*
G01*
X15219000Y-16228000D02*
G75*
G03*
X15219000Y-16228000I-85000J0D01*
G01*
X15220000Y-14130000D02*
G75*
G03*
X15220000Y-14130000I-85000J0D01*
G01*
X15277000Y-18358000D02*
G75*
G03*
X15277000Y-18358000I-85000J0D01*
G01*
X15939000Y-7560000D02*
G75*
G03*
X15939000Y-7560000I-85000J0D01*
G01*
X16093000Y-9980000D02*
G75*
G03*
X16093000Y-9980000I-85000J0D01*
G01*
X16123000Y-12050000D02*
G75*
G03*
X16123000Y-12050000I-85000J0D01*
G01*
X16235000Y-16228000D02*
G75*
G03*
X16235000Y-16228000I-85000J0D01*
G01*
X16236000Y-14130000D02*
G75*
G03*
X16236000Y-14130000I-85000J0D01*
G01*
X16293000Y-18358000D02*
G75*
G03*
X16293000Y-18358000I-85000J0D01*
G01*
X17103000Y-7570000D02*
G75*
G03*
X17103000Y-7570000I-85000J0D01*
G01*
X17158000Y-9954000D02*
G75*
G03*
X17158000Y-9954000I-85000J0D01*
G01*
X17258000Y-12054000D02*
G75*
G03*
X17258000Y-12054000I-85000J0D01*
G01*
X17338000Y-14140000D02*
G75*
G03*
X17338000Y-14140000I-85000J0D01*
G01*
X17343000Y-16248000D02*
G75*
G03*
X17343000Y-16248000I-85000J0D01*
G01*
X17377000Y-18350000D02*
G75*
G03*
X17377000Y-18350000I-85000J0D01*
G01*
X18119000Y-7570000D02*
G75*
G03*
X18119000Y-7570000I-85000J0D01*
G01*
X18174000Y-9954000D02*
G75*
G03*
X18174000Y-9954000I-85000J0D01*
G01*
X18274000Y-12054000D02*
G75*
G03*
X18274000Y-12054000I-85000J0D01*
G01*
X18354000Y-14140000D02*
G75*
G03*
X18354000Y-14140000I-85000J0D01*
G01*
X18359000Y-16248000D02*
G75*
G03*
X18359000Y-16248000I-85000J0D01*
G01*
X18393000Y-18350000D02*
G75*
G03*
X18393000Y-18350000I-85000J0D01*
G01*
X19223000Y-7570000D02*
G75*
G03*
X19223000Y-7570000I-85000J0D01*
G01*
X19285000Y-9700000D02*
G75*
G03*
X19285000Y-9700000I-85000J0D01*
G01*
X19419000Y-11800000D02*
G75*
G03*
X19419000Y-11800000I-85000J0D01*
G01*
X19443000Y-15998000D02*
G75*
G03*
X19443000Y-15998000I-85000J0D01*
G01*
X19469000Y-13900000D02*
G75*
G03*
X19469000Y-13900000I-85000J0D01*
G01*
X19505000Y-18140000D02*
G75*
G03*
X19505000Y-18140000I-85000J0D01*
G01*
X20239000Y-7570000D02*
G75*
G03*
X20239000Y-7570000I-85000J0D01*
G01*
X20301000Y-9700000D02*
G75*
G03*
X20301000Y-9700000I-85000J0D01*
G01*
X20435000Y-11800000D02*
G75*
G03*
X20435000Y-11800000I-85000J0D01*
G01*
X20459000Y-15998000D02*
G75*
G03*
X20459000Y-15998000I-85000J0D01*
G01*
X20485000Y-13900000D02*
G75*
G03*
X20485000Y-13900000I-85000J0D01*
G01*
X20521000Y-18140000D02*
G75*
G03*
X20521000Y-18140000I-85000J0D01*
G01*
X21377000Y-7560000D02*
G75*
G03*
X21377000Y-7560000I-85000J0D01*
G01*
X21407000Y-9704000D02*
G75*
G03*
X21407000Y-9704000I-85000J0D01*
G01*
X21531000Y-11804000D02*
G75*
G03*
X21531000Y-11804000I-85000J0D01*
G01*
X21561000Y-13894000D02*
G75*
G03*
X21561000Y-13894000I-85000J0D01*
G01*
X21577000Y-16012000D02*
G75*
G03*
X21577000Y-16012000I-85000J0D01*
G01*
X21577000Y-18134000D02*
G75*
G03*
X21577000Y-18134000I-85000J0D01*
G01*
X22393000Y-7560000D02*
G75*
G03*
X22393000Y-7560000I-85000J0D01*
G01*
X22423000Y-9704000D02*
G75*
G03*
X22423000Y-9704000I-85000J0D01*
G01*
X22547000Y-11804000D02*
G75*
G03*
X22547000Y-11804000I-85000J0D01*
G01*
X22577000Y-13894000D02*
G75*
G03*
X22577000Y-13894000I-85000J0D01*
G01*
X22593000Y-16012000D02*
G75*
G03*
X22593000Y-16012000I-85000J0D01*
G01*
X22593000Y-18134000D02*
G75*
G03*
X22593000Y-18134000I-85000J0D01*
G01*
X23477000Y-7550000D02*
G75*
G03*
X23477000Y-7550000I-85000J0D01*
G01*
X23517000Y-9690000D02*
G75*
G03*
X23517000Y-9690000I-85000J0D01*
G01*
X23661000Y-11800000D02*
G75*
G03*
X23661000Y-11800000I-85000J0D01*
G01*
X23677000Y-16008000D02*
G75*
G03*
X23677000Y-16008000I-85000J0D01*
G01*
X23679000Y-13890000D02*
G75*
G03*
X23679000Y-13890000I-85000J0D01*
G01*
X24391059Y-18863001D02*
G75*
G03*
X24391059Y-18863001I-85000J0D01*
G01*
X24493000Y-7550000D02*
G75*
G03*
X24493000Y-7550000I-85000J0D01*
G01*
X24533000Y-9690000D02*
G75*
G03*
X24533000Y-9690000I-85000J0D01*
G01*
X24677000Y-11800000D02*
G75*
G03*
X24677000Y-11800000I-85000J0D01*
G01*
X24693000Y-16008000D02*
G75*
G03*
X24693000Y-16008000I-85000J0D01*
G01*
X24695000Y-13890000D02*
G75*
G03*
X24695000Y-13890000I-85000J0D01*
G01*
X25270940Y-19371001D02*
G75*
G03*
X25270940Y-19371001I-85000J0D01*
G01*
X25627000Y-9700000D02*
G75*
G03*
X25627000Y-9700000I-85000J0D01*
G01*
X25677000Y-7580000D02*
G75*
G03*
X25677000Y-7580000I-85000J0D01*
G01*
X25769000Y-11800000D02*
G75*
G03*
X25769000Y-11800000I-85000J0D01*
G01*
X25777000Y-13900000D02*
G75*
G03*
X25777000Y-13900000I-85000J0D01*
G01*
X25777000Y-16008000D02*
G75*
G03*
X25777000Y-16008000I-85000J0D01*
G01*
X26199059Y-19918001D02*
G75*
G03*
X26199059Y-19918001I-85000J0D01*
G01*
X26643000Y-9700000D02*
G75*
G03*
X26643000Y-9700000I-85000J0D01*
G01*
X26693000Y-7580000D02*
G75*
G03*
X26693000Y-7580000I-85000J0D01*
G01*
X26785000Y-11800000D02*
G75*
G03*
X26785000Y-11800000I-85000J0D01*
G01*
X26793000Y-13900000D02*
G75*
G03*
X26793000Y-13900000I-85000J0D01*
G01*
X26793000Y-16008000D02*
G75*
G03*
X26793000Y-16008000I-85000J0D01*
G01*
X27078940Y-20426001D02*
G75*
G03*
X27078940Y-20426001I-85000J0D01*
G01*
X27245059Y-18146001D02*
G75*
G03*
X27245059Y-18146001I-85000J0D01*
G01*
X27857000Y-7570000D02*
G75*
G03*
X27857000Y-7570000I-85000J0D01*
G01*
X27877000Y-9700000D02*
G75*
G03*
X27877000Y-9700000I-85000J0D01*
G01*
X28048019Y-20956471D02*
G75*
G03*
X28048019Y-20956471I-85000J0D01*
G01*
X28124940Y-18654001D02*
G75*
G03*
X28124940Y-18654001I-85000J0D01*
G01*
X28385000Y-11792000D02*
G75*
G03*
X28385000Y-11792000I-85000J0D01*
G01*
X28385000Y-12808000D02*
G75*
G03*
X28385000Y-12808000I-85000J0D01*
G01*
X28403000Y-14892000D02*
G75*
G03*
X28403000Y-14892000I-85000J0D01*
G01*
X28403000Y-15908000D02*
G75*
G03*
X28403000Y-15908000I-85000J0D01*
G01*
X28873000Y-7570000D02*
G75*
G03*
X28873000Y-7570000I-85000J0D01*
G01*
X28893000Y-9700000D02*
G75*
G03*
X28893000Y-9700000I-85000J0D01*
G01*
X28927900Y-21464471D02*
G75*
G03*
X28927900Y-21464471I-85000J0D01*
G01*
X33790000Y-7584000D02*
G75*
G03*
X33790000Y-7584000I-85000J0D01*
G01*
X33977000Y-9708000D02*
G75*
G03*
X33977000Y-9708000I-85000J0D01*
G01*
X33986059Y-21520001D02*
G75*
G03*
X33986059Y-21520001I-85000J0D01*
G01*
X34475000Y-11854000D02*
G75*
G03*
X34475000Y-11854000I-85000J0D01*
G01*
X34475000Y-12870000D02*
G75*
G03*
X34475000Y-12870000I-85000J0D01*
G01*
X34485000Y-14892000D02*
G75*
G03*
X34485000Y-14892000I-85000J0D01*
G01*
X34485000Y-15908000D02*
G75*
G03*
X34485000Y-15908000I-85000J0D01*
G01*
X34745059Y-18654001D02*
G75*
G03*
X34745059Y-18654001I-85000J0D01*
G01*
X34806000Y-7584000D02*
G75*
G03*
X34806000Y-7584000I-85000J0D01*
G01*
X34865941Y-21012001D02*
G75*
G03*
X34865941Y-21012001I-85000J0D01*
G01*
X34993000Y-9708000D02*
G75*
G03*
X34993000Y-9708000I-85000J0D01*
G01*
X35624941Y-18146001D02*
G75*
G03*
X35624941Y-18146001I-85000J0D01*
G01*
X35792059Y-20430001D02*
G75*
G03*
X35792059Y-20430001I-85000J0D01*
G01*
X35877000Y-7574000D02*
G75*
G03*
X35877000Y-7574000I-85000J0D01*
G01*
X36044000Y-9698000D02*
G75*
G03*
X36044000Y-9698000I-85000J0D01*
G01*
X36190000Y-14108000D02*
G75*
G03*
X36190000Y-14108000I-85000J0D01*
G01*
X36210000Y-16200000D02*
G75*
G03*
X36210000Y-16200000I-85000J0D01*
G01*
X36220000Y-11908000D02*
G75*
G03*
X36220000Y-11908000I-85000J0D01*
G01*
X36671941Y-19922001D02*
G75*
G03*
X36671941Y-19922001I-85000J0D01*
G01*
X36893000Y-7574000D02*
G75*
G03*
X36893000Y-7574000I-85000J0D01*
G01*
X37060000Y-9698000D02*
G75*
G03*
X37060000Y-9698000I-85000J0D01*
G01*
X37206000Y-14108000D02*
G75*
G03*
X37206000Y-14108000I-85000J0D01*
G01*
X37226000Y-16200000D02*
G75*
G03*
X37226000Y-16200000I-85000J0D01*
G01*
X37236000Y-11908000D02*
G75*
G03*
X37236000Y-11908000I-85000J0D01*
G01*
X37645059Y-19354001D02*
G75*
G03*
X37645059Y-19354001I-85000J0D01*
G01*
X38011000Y-7584000D02*
G75*
G03*
X38011000Y-7584000I-85000J0D01*
G01*
X38144000Y-9674000D02*
G75*
G03*
X38144000Y-9674000I-85000J0D01*
G01*
X38277000Y-14098000D02*
G75*
G03*
X38277000Y-14098000I-85000J0D01*
G01*
X38377000Y-11884000D02*
G75*
G03*
X38377000Y-11884000I-85000J0D01*
G01*
X38377000Y-16180000D02*
G75*
G03*
X38377000Y-16180000I-85000J0D01*
G01*
X38524941Y-18846001D02*
G75*
G03*
X38524941Y-18846001I-85000J0D01*
G01*
X39027000Y-7584000D02*
G75*
G03*
X39027000Y-7584000I-85000J0D01*
G01*
X39160000Y-9674000D02*
G75*
G03*
X39160000Y-9674000I-85000J0D01*
G01*
X39293000Y-14098000D02*
G75*
G03*
X39293000Y-14098000I-85000J0D01*
G01*
X39393000Y-11884000D02*
G75*
G03*
X39393000Y-11884000I-85000J0D01*
G01*
X39393000Y-16180000D02*
G75*
G03*
X39393000Y-16180000I-85000J0D01*
G01*
X40185000Y-7586000D02*
G75*
G03*
X40185000Y-7586000I-85000J0D01*
G01*
X40244000Y-9700000D02*
G75*
G03*
X40244000Y-9700000I-85000J0D01*
G01*
X40358000Y-14084000D02*
G75*
G03*
X40358000Y-14084000I-85000J0D01*
G01*
X40477000Y-11810000D02*
G75*
G03*
X40477000Y-11810000I-85000J0D01*
G01*
X40477000Y-16196000D02*
G75*
G03*
X40477000Y-16196000I-85000J0D01*
G01*
X40477000Y-18334000D02*
G75*
G03*
X40477000Y-18334000I-85000J0D01*
G01*
X41201000Y-7586000D02*
G75*
G03*
X41201000Y-7586000I-85000J0D01*
G01*
X41260000Y-9700000D02*
G75*
G03*
X41260000Y-9700000I-85000J0D01*
G01*
X41374000Y-14084000D02*
G75*
G03*
X41374000Y-14084000I-85000J0D01*
G01*
X41493000Y-11810000D02*
G75*
G03*
X41493000Y-11810000I-85000J0D01*
G01*
X41493000Y-16196000D02*
G75*
G03*
X41493000Y-16196000I-85000J0D01*
G01*
X41493000Y-18334000D02*
G75*
G03*
X41493000Y-18334000I-85000J0D01*
G01*
X42344000Y-9661000D02*
G75*
G03*
X42344000Y-9661000I-85000J0D01*
G01*
X42377000Y-7594000D02*
G75*
G03*
X42377000Y-7594000I-85000J0D01*
G01*
X42477000Y-14088000D02*
G75*
G03*
X42477000Y-14088000I-85000J0D01*
G01*
X42577000Y-11888000D02*
G75*
G03*
X42577000Y-11888000I-85000J0D01*
G01*
X42577000Y-16172000D02*
G75*
G03*
X42577000Y-16172000I-85000J0D01*
G01*
X42584000Y-18298000D02*
G75*
G03*
X42584000Y-18298000I-85000J0D01*
G01*
X43360000Y-9661000D02*
G75*
G03*
X43360000Y-9661000I-85000J0D01*
G01*
X43393000Y-7594000D02*
G75*
G03*
X43393000Y-7594000I-85000J0D01*
G01*
X43493000Y-14088000D02*
G75*
G03*
X43493000Y-14088000I-85000J0D01*
G01*
X43593000Y-11888000D02*
G75*
G03*
X43593000Y-11888000I-85000J0D01*
G01*
X43593000Y-16172000D02*
G75*
G03*
X43593000Y-16172000I-85000J0D01*
G01*
X43600000Y-18298000D02*
G75*
G03*
X43600000Y-18298000I-85000J0D01*
G01*
X44444000Y-9708000D02*
G75*
G03*
X44444000Y-9708000I-85000J0D01*
G01*
X44477000Y-7600000D02*
G75*
G03*
X44477000Y-7600000I-85000J0D01*
G01*
X44577000Y-13904000D02*
G75*
G03*
X44577000Y-13904000I-85000J0D01*
G01*
X44677000Y-11898000D02*
G75*
G03*
X44677000Y-11898000I-85000J0D01*
G01*
X44677000Y-15980000D02*
G75*
G03*
X44677000Y-15980000I-85000J0D01*
G01*
X44684000Y-18118000D02*
G75*
G03*
X44684000Y-18118000I-85000J0D01*
G01*
X45460000Y-9708000D02*
G75*
G03*
X45460000Y-9708000I-85000J0D01*
G01*
X45493000Y-7600000D02*
G75*
G03*
X45493000Y-7600000I-85000J0D01*
G01*
X45593000Y-13904000D02*
G75*
G03*
X45593000Y-13904000I-85000J0D01*
G01*
X45693000Y-11898000D02*
G75*
G03*
X45693000Y-11898000I-85000J0D01*
G01*
X45693000Y-15980000D02*
G75*
G03*
X45693000Y-15980000I-85000J0D01*
G01*
X45700000Y-18118000D02*
G75*
G03*
X45700000Y-18118000I-85000J0D01*
G01*
X46544000Y-9908000D02*
G75*
G03*
X46544000Y-9908000I-85000J0D01*
G01*
X46577000Y-7584000D02*
G75*
G03*
X46577000Y-7584000I-85000J0D01*
G01*
X46677000Y-14338000D02*
G75*
G03*
X46677000Y-14338000I-85000J0D01*
G01*
X46777000Y-12184000D02*
G75*
G03*
X46777000Y-12184000I-85000J0D01*
G01*
X46777000Y-16326000D02*
G75*
G03*
X46777000Y-16326000I-85000J0D01*
G01*
X46784000Y-18508000D02*
G75*
G03*
X46784000Y-18508000I-85000J0D01*
G01*
X47560000Y-9908000D02*
G75*
G03*
X47560000Y-9908000I-85000J0D01*
G01*
X47593000Y-7584000D02*
G75*
G03*
X47593000Y-7584000I-85000J0D01*
G01*
X47693000Y-14338000D02*
G75*
G03*
X47693000Y-14338000I-85000J0D01*
G01*
X47793000Y-12184000D02*
G75*
G03*
X47793000Y-12184000I-85000J0D01*
G01*
X47793000Y-16326000D02*
G75*
G03*
X47793000Y-16326000I-85000J0D01*
G01*
X47800000Y-18508000D02*
G75*
G03*
X47800000Y-18508000I-85000J0D01*
G01*
X48984000Y-18508000D02*
G75*
G03*
X48984000Y-18508000I-85000J0D01*
G01*
X49352500Y-14180000D02*
G75*
G03*
X49352500Y-14180000I-85000J0D01*
G01*
X49362500Y-9954000D02*
G75*
G03*
X49362500Y-9954000I-85000J0D01*
G01*
X49362500Y-12088000D02*
G75*
G03*
X49362500Y-12088000I-85000J0D01*
G01*
X49382500Y-16280000D02*
G75*
G03*
X49382500Y-16280000I-85000J0D01*
G01*
X50000000Y-18508000D02*
G75*
G03*
X50000000Y-18508000I-85000J0D01*
G01*
X50368500Y-14180000D02*
G75*
G03*
X50368500Y-14180000I-85000J0D01*
G01*
X50378500Y-9954000D02*
G75*
G03*
X50378500Y-9954000I-85000J0D01*
G01*
X50378500Y-12088000D02*
G75*
G03*
X50378500Y-12088000I-85000J0D01*
G01*
X50398500Y-16280000D02*
G75*
G03*
X50398500Y-16280000I-85000J0D01*
G01*
D14*
X30400000Y-4910000D02*
X30400000Y-5090000D01*
X30310000Y-5000000D02*
X30490000Y-5000000D01*
X30400000Y-5455000D02*
X30400000Y-5635000D01*
X30310000Y-5545000D02*
X30490000Y-5545000D01*
X32055000Y-4910000D02*
X32055000Y-5090000D01*
X31965000Y-5000000D02*
X32145000Y-5000000D01*
X32055000Y-5455000D02*
X32055000Y-5635000D01*
X31965000Y-5545000D02*
X32145000Y-5545000D01*
D15*
X13037423Y-10101423D02*
X13037423Y-9818577D01*
X12754577Y-9818577D01*
X12754577Y-10101423D01*
X13037423Y-10101423D01*
X13073423Y-12191423D02*
X13073423Y-11908577D01*
X12790577Y-11908577D01*
X12790577Y-12191423D01*
X13073423Y-12191423D01*
X13087423Y-14281423D02*
X13087423Y-13998577D01*
X12804577Y-13998577D01*
X12804577Y-14281423D01*
X13087423Y-14281423D01*
X13087423Y-16389423D02*
X13087423Y-16106577D01*
X12804577Y-16106577D01*
X12804577Y-16389423D01*
X13087423Y-16389423D01*
X13687423Y-18509423D02*
X13687423Y-18226577D01*
X13404577Y-18226577D01*
X13404577Y-18509423D01*
X13687423Y-18509423D01*
X15487423Y-7701423D02*
X15487423Y-7418577D01*
X15204577Y-7418577D01*
X15204577Y-7701423D01*
X15487423Y-7701423D01*
X15641423Y-10121423D02*
X15641423Y-9838577D01*
X15358577Y-9838577D01*
X15358577Y-10121423D01*
X15641423Y-10121423D01*
X15671423Y-12191423D02*
X15671423Y-11908577D01*
X15388577Y-11908577D01*
X15388577Y-12191423D01*
X15671423Y-12191423D01*
X15783423Y-16369423D02*
X15783423Y-16086577D01*
X15500577Y-16086577D01*
X15500577Y-16369423D01*
X15783423Y-16369423D01*
X15784423Y-14271423D02*
X15784423Y-13988577D01*
X15501577Y-13988577D01*
X15501577Y-14271423D01*
X15784423Y-14271423D01*
X15841423Y-18499423D02*
X15841423Y-18216577D01*
X15558577Y-18216577D01*
X15558577Y-18499423D01*
X15841423Y-18499423D01*
X17667423Y-7711423D02*
X17667423Y-7428577D01*
X17384577Y-7428577D01*
X17384577Y-7711423D01*
X17667423Y-7711423D01*
X17722423Y-10095423D02*
X17722423Y-9812577D01*
X17439577Y-9812577D01*
X17439577Y-10095423D01*
X17722423Y-10095423D01*
X17822423Y-12195423D02*
X17822423Y-11912577D01*
X17539577Y-11912577D01*
X17539577Y-12195423D01*
X17822423Y-12195423D01*
X17902423Y-14281423D02*
X17902423Y-13998577D01*
X17619577Y-13998577D01*
X17619577Y-14281423D01*
X17902423Y-14281423D01*
X17907423Y-16389423D02*
X17907423Y-16106577D01*
X17624577Y-16106577D01*
X17624577Y-16389423D01*
X17907423Y-16389423D01*
X17941423Y-18491423D02*
X17941423Y-18208577D01*
X17658577Y-18208577D01*
X17658577Y-18491423D01*
X17941423Y-18491423D01*
X19787423Y-7711423D02*
X19787423Y-7428577D01*
X19504577Y-7428577D01*
X19504577Y-7711423D01*
X19787423Y-7711423D01*
X19849423Y-9841423D02*
X19849423Y-9558577D01*
X19566577Y-9558577D01*
X19566577Y-9841423D01*
X19849423Y-9841423D01*
X19983423Y-11941423D02*
X19983423Y-11658577D01*
X19700577Y-11658577D01*
X19700577Y-11941423D01*
X19983423Y-11941423D01*
X20007423Y-16139423D02*
X20007423Y-15856577D01*
X19724577Y-15856577D01*
X19724577Y-16139423D01*
X20007423Y-16139423D01*
X20033423Y-14041423D02*
X20033423Y-13758577D01*
X19750577Y-13758577D01*
X19750577Y-14041423D01*
X20033423Y-14041423D01*
X20069423Y-18281423D02*
X20069423Y-17998577D01*
X19786577Y-17998577D01*
X19786577Y-18281423D01*
X20069423Y-18281423D01*
X21941423Y-7701423D02*
X21941423Y-7418577D01*
X21658577Y-7418577D01*
X21658577Y-7701423D01*
X21941423Y-7701423D01*
X21971423Y-9845423D02*
X21971423Y-9562577D01*
X21688577Y-9562577D01*
X21688577Y-9845423D01*
X21971423Y-9845423D01*
X22095423Y-11945423D02*
X22095423Y-11662577D01*
X21812577Y-11662577D01*
X21812577Y-11945423D01*
X22095423Y-11945423D01*
X22125423Y-14035423D02*
X22125423Y-13752577D01*
X21842577Y-13752577D01*
X21842577Y-14035423D01*
X22125423Y-14035423D01*
X22141423Y-16153423D02*
X22141423Y-15870577D01*
X21858577Y-15870577D01*
X21858577Y-16153423D01*
X22141423Y-16153423D01*
X22141423Y-18275423D02*
X22141423Y-17992577D01*
X21858577Y-17992577D01*
X21858577Y-18275423D01*
X22141423Y-18275423D01*
X24041423Y-7691423D02*
X24041423Y-7408577D01*
X23758577Y-7408577D01*
X23758577Y-7691423D01*
X24041423Y-7691423D01*
X24081423Y-9831423D02*
X24081423Y-9548577D01*
X23798577Y-9548577D01*
X23798577Y-9831423D01*
X24081423Y-9831423D01*
X24225423Y-11941423D02*
X24225423Y-11658577D01*
X23942577Y-11658577D01*
X23942577Y-11941423D01*
X24225423Y-11941423D01*
X24241423Y-16149423D02*
X24241423Y-15866577D01*
X23958577Y-15866577D01*
X23958577Y-16149423D01*
X24241423Y-16149423D01*
X24243423Y-14031423D02*
X24243423Y-13748577D01*
X23960577Y-13748577D01*
X23960577Y-14031423D01*
X24243423Y-14031423D01*
X24887422Y-19258424D02*
X24887422Y-18975578D01*
X24604577Y-18975578D01*
X24604577Y-19258424D01*
X24887422Y-19258424D01*
X26191423Y-9841423D02*
X26191423Y-9558577D01*
X25908577Y-9558577D01*
X25908577Y-9841423D01*
X26191423Y-9841423D01*
X26241423Y-7721423D02*
X26241423Y-7438577D01*
X25958577Y-7438577D01*
X25958577Y-7721423D01*
X26241423Y-7721423D01*
X26333423Y-11941423D02*
X26333423Y-11658577D01*
X26050577Y-11658577D01*
X26050577Y-11941423D01*
X26333423Y-11941423D01*
X26341423Y-14041423D02*
X26341423Y-13758577D01*
X26058577Y-13758577D01*
X26058577Y-14041423D01*
X26341423Y-14041423D01*
X26341423Y-16149423D02*
X26341423Y-15866577D01*
X26058577Y-15866577D01*
X26058577Y-16149423D01*
X26341423Y-16149423D01*
X26695422Y-20313424D02*
X26695422Y-20030578D01*
X26412577Y-20030578D01*
X26412577Y-20313424D01*
X26695422Y-20313424D01*
X27741422Y-18541424D02*
X27741422Y-18258578D01*
X27458577Y-18258578D01*
X27458577Y-18541424D01*
X27741422Y-18541424D01*
X28421423Y-7711423D02*
X28421423Y-7428577D01*
X28138577Y-7428577D01*
X28138577Y-7711423D01*
X28421423Y-7711423D01*
X28441423Y-9841423D02*
X28441423Y-9558577D01*
X28158577Y-9558577D01*
X28158577Y-9841423D01*
X28441423Y-9841423D01*
X28441423Y-12441423D02*
X28441423Y-12158577D01*
X28158577Y-12158577D01*
X28158577Y-12441423D01*
X28441423Y-12441423D01*
X28459423Y-15541423D02*
X28459423Y-15258577D01*
X28176577Y-15258577D01*
X28176577Y-15541423D01*
X28459423Y-15541423D01*
X28544382Y-21351894D02*
X28544382Y-21069048D01*
X28261537Y-21069048D01*
X28261537Y-21351894D01*
X28544382Y-21351894D01*
X34354423Y-7725423D02*
X34354423Y-7442577D01*
X34071577Y-7442577D01*
X34071577Y-7725423D01*
X34354423Y-7725423D01*
X34482422Y-21407424D02*
X34482422Y-21124578D01*
X34199577Y-21124578D01*
X34199577Y-21407424D01*
X34482422Y-21407424D01*
X34531423Y-12503423D02*
X34531423Y-12220577D01*
X34248577Y-12220577D01*
X34248577Y-12503423D01*
X34531423Y-12503423D01*
X34541423Y-9849423D02*
X34541423Y-9566577D01*
X34258577Y-9566577D01*
X34258577Y-9849423D01*
X34541423Y-9849423D01*
X34541423Y-15541423D02*
X34541423Y-15258577D01*
X34258577Y-15258577D01*
X34258577Y-15541423D01*
X34541423Y-15541423D01*
X35241422Y-18541424D02*
X35241422Y-18258578D01*
X34958577Y-18258578D01*
X34958577Y-18541424D01*
X35241422Y-18541424D01*
X36288422Y-20317424D02*
X36288422Y-20034578D01*
X36005577Y-20034578D01*
X36005577Y-20317424D01*
X36288422Y-20317424D01*
X36441423Y-7715423D02*
X36441423Y-7432577D01*
X36158577Y-7432577D01*
X36158577Y-7715423D01*
X36441423Y-7715423D01*
X36608423Y-9839423D02*
X36608423Y-9556577D01*
X36325577Y-9556577D01*
X36325577Y-9839423D01*
X36608423Y-9839423D01*
X36754423Y-14249423D02*
X36754423Y-13966577D01*
X36471577Y-13966577D01*
X36471577Y-14249423D01*
X36754423Y-14249423D01*
X36774423Y-16341423D02*
X36774423Y-16058577D01*
X36491577Y-16058577D01*
X36491577Y-16341423D01*
X36774423Y-16341423D01*
X36784423Y-12049423D02*
X36784423Y-11766577D01*
X36501577Y-11766577D01*
X36501577Y-12049423D01*
X36784423Y-12049423D01*
X38141422Y-19241424D02*
X38141422Y-18958578D01*
X37858577Y-18958578D01*
X37858577Y-19241424D01*
X38141422Y-19241424D01*
X38575423Y-7725423D02*
X38575423Y-7442577D01*
X38292577Y-7442577D01*
X38292577Y-7725423D01*
X38575423Y-7725423D01*
X38708423Y-9815423D02*
X38708423Y-9532577D01*
X38425577Y-9532577D01*
X38425577Y-9815423D01*
X38708423Y-9815423D01*
X38841423Y-14239423D02*
X38841423Y-13956577D01*
X38558577Y-13956577D01*
X38558577Y-14239423D01*
X38841423Y-14239423D01*
X38941423Y-12025423D02*
X38941423Y-11742577D01*
X38658577Y-11742577D01*
X38658577Y-12025423D01*
X38941423Y-12025423D01*
X38941423Y-16321423D02*
X38941423Y-16038577D01*
X38658577Y-16038577D01*
X38658577Y-16321423D01*
X38941423Y-16321423D01*
X40749423Y-7727423D02*
X40749423Y-7444577D01*
X40466577Y-7444577D01*
X40466577Y-7727423D01*
X40749423Y-7727423D01*
X40808423Y-9841423D02*
X40808423Y-9558577D01*
X40525577Y-9558577D01*
X40525577Y-9841423D01*
X40808423Y-9841423D01*
X40922423Y-14225423D02*
X40922423Y-13942577D01*
X40639577Y-13942577D01*
X40639577Y-14225423D01*
X40922423Y-14225423D01*
X41041423Y-11951423D02*
X41041423Y-11668577D01*
X40758577Y-11668577D01*
X40758577Y-11951423D01*
X41041423Y-11951423D01*
X41041423Y-16337423D02*
X41041423Y-16054577D01*
X40758577Y-16054577D01*
X40758577Y-16337423D01*
X41041423Y-16337423D01*
X41041423Y-18475423D02*
X41041423Y-18192577D01*
X40758577Y-18192577D01*
X40758577Y-18475423D01*
X41041423Y-18475423D01*
X42908423Y-9802423D02*
X42908423Y-9519577D01*
X42625577Y-9519577D01*
X42625577Y-9802423D01*
X42908423Y-9802423D01*
X42941423Y-7735423D02*
X42941423Y-7452577D01*
X42658577Y-7452577D01*
X42658577Y-7735423D01*
X42941423Y-7735423D01*
X43041423Y-14229423D02*
X43041423Y-13946577D01*
X42758577Y-13946577D01*
X42758577Y-14229423D01*
X43041423Y-14229423D01*
X43141423Y-12029423D02*
X43141423Y-11746577D01*
X42858577Y-11746577D01*
X42858577Y-12029423D01*
X43141423Y-12029423D01*
X43141423Y-16313423D02*
X43141423Y-16030577D01*
X42858577Y-16030577D01*
X42858577Y-16313423D01*
X43141423Y-16313423D01*
X43148423Y-18439423D02*
X43148423Y-18156577D01*
X42865577Y-18156577D01*
X42865577Y-18439423D01*
X43148423Y-18439423D01*
X45008423Y-9849423D02*
X45008423Y-9566577D01*
X44725577Y-9566577D01*
X44725577Y-9849423D01*
X45008423Y-9849423D01*
X45041423Y-7741423D02*
X45041423Y-7458577D01*
X44758577Y-7458577D01*
X44758577Y-7741423D01*
X45041423Y-7741423D01*
X45141423Y-14045423D02*
X45141423Y-13762577D01*
X44858577Y-13762577D01*
X44858577Y-14045423D01*
X45141423Y-14045423D01*
X45241423Y-12039423D02*
X45241423Y-11756577D01*
X44958577Y-11756577D01*
X44958577Y-12039423D01*
X45241423Y-12039423D01*
X45241423Y-16121423D02*
X45241423Y-15838577D01*
X44958577Y-15838577D01*
X44958577Y-16121423D01*
X45241423Y-16121423D01*
X45248423Y-18259423D02*
X45248423Y-17976577D01*
X44965577Y-17976577D01*
X44965577Y-18259423D01*
X45248423Y-18259423D01*
X47108423Y-10049423D02*
X47108423Y-9766577D01*
X46825577Y-9766577D01*
X46825577Y-10049423D01*
X47108423Y-10049423D01*
X47141423Y-7725423D02*
X47141423Y-7442577D01*
X46858577Y-7442577D01*
X46858577Y-7725423D01*
X47141423Y-7725423D01*
X47241423Y-14479423D02*
X47241423Y-14196577D01*
X46958577Y-14196577D01*
X46958577Y-14479423D01*
X47241423Y-14479423D01*
X47341423Y-12325423D02*
X47341423Y-12042577D01*
X47058577Y-12042577D01*
X47058577Y-12325423D01*
X47341423Y-12325423D01*
X47341423Y-16467423D02*
X47341423Y-16184577D01*
X47058577Y-16184577D01*
X47058577Y-16467423D01*
X47341423Y-16467423D01*
X47348423Y-18649423D02*
X47348423Y-18366577D01*
X47065577Y-18366577D01*
X47065577Y-18649423D01*
X47348423Y-18649423D01*
X49548423Y-18649423D02*
X49548423Y-18366577D01*
X49265577Y-18366577D01*
X49265577Y-18649423D01*
X49548423Y-18649423D01*
X49916923Y-14321423D02*
X49916923Y-14038577D01*
X49634077Y-14038577D01*
X49634077Y-14321423D01*
X49916923Y-14321423D01*
X49926923Y-10095423D02*
X49926923Y-9812577D01*
X49644077Y-9812577D01*
X49644077Y-10095423D01*
X49926923Y-10095423D01*
X49926923Y-12229423D02*
X49926923Y-11946577D01*
X49644077Y-11946577D01*
X49644077Y-12229423D01*
X49926923Y-12229423D01*
X49946923Y-16421423D02*
X49946923Y-16138577D01*
X49664077Y-16138577D01*
X49664077Y-16421423D01*
X49946923Y-16421423D01*
D11*
X8840977Y-23836884D02*
X8840977Y-23636884D01*
X8840977Y-23636884D02*
X8888596Y-23636884D01*
X8888596Y-23636884D02*
X8917167Y-23646408D01*
X8917167Y-23646408D02*
X8936215Y-23665455D01*
X8936215Y-23665455D02*
X8945739Y-23684503D01*
X8945739Y-23684503D02*
X8955263Y-23722598D01*
X8955263Y-23722598D02*
X8955263Y-23751169D01*
X8955263Y-23751169D02*
X8945739Y-23789265D01*
X8945739Y-23789265D02*
X8936215Y-23808312D01*
X8936215Y-23808312D02*
X8917167Y-23827360D01*
X8917167Y-23827360D02*
X8888596Y-23836884D01*
X8888596Y-23836884D02*
X8840977Y-23836884D01*
X9040977Y-23836884D02*
X9040977Y-23703550D01*
X9040977Y-23741646D02*
X9050501Y-23722598D01*
X9050501Y-23722598D02*
X9060024Y-23713074D01*
X9060024Y-23713074D02*
X9079072Y-23703550D01*
X9079072Y-23703550D02*
X9098120Y-23703550D01*
X9164786Y-23836884D02*
X9164786Y-23703550D01*
X9164786Y-23636884D02*
X9155263Y-23646408D01*
X9155263Y-23646408D02*
X9164786Y-23655931D01*
X9164786Y-23655931D02*
X9174310Y-23646408D01*
X9174310Y-23646408D02*
X9164786Y-23636884D01*
X9164786Y-23636884D02*
X9164786Y-23655931D01*
X9288596Y-23836884D02*
X9269548Y-23827360D01*
X9269548Y-23827360D02*
X9260024Y-23808312D01*
X9260024Y-23808312D02*
X9260024Y-23636884D01*
X9393358Y-23836884D02*
X9374310Y-23827360D01*
X9374310Y-23827360D02*
X9364786Y-23808312D01*
X9364786Y-23808312D02*
X9364786Y-23636884D01*
X9621929Y-23836884D02*
X9621929Y-23636884D01*
X9621929Y-23636884D02*
X9688596Y-23779741D01*
X9688596Y-23779741D02*
X9755263Y-23636884D01*
X9755263Y-23636884D02*
X9755263Y-23836884D01*
X9936215Y-23836884D02*
X9936215Y-23732122D01*
X9936215Y-23732122D02*
X9926691Y-23713074D01*
X9926691Y-23713074D02*
X9907644Y-23703550D01*
X9907644Y-23703550D02*
X9869548Y-23703550D01*
X9869548Y-23703550D02*
X9850501Y-23713074D01*
X9936215Y-23827360D02*
X9917167Y-23836884D01*
X9917167Y-23836884D02*
X9869548Y-23836884D01*
X9869548Y-23836884D02*
X9850501Y-23827360D01*
X9850501Y-23827360D02*
X9840977Y-23808312D01*
X9840977Y-23808312D02*
X9840977Y-23789265D01*
X9840977Y-23789265D02*
X9850501Y-23770217D01*
X9850501Y-23770217D02*
X9869548Y-23760693D01*
X9869548Y-23760693D02*
X9917167Y-23760693D01*
X9917167Y-23760693D02*
X9936215Y-23751169D01*
X10031453Y-23703550D02*
X10031453Y-23903550D01*
X10031453Y-23713074D02*
X10050501Y-23703550D01*
X10050501Y-23703550D02*
X10088596Y-23703550D01*
X10088596Y-23703550D02*
X10107644Y-23713074D01*
X10107644Y-23713074D02*
X10117167Y-23722598D01*
X10117167Y-23722598D02*
X10126691Y-23741646D01*
X10126691Y-23741646D02*
X10126691Y-23798788D01*
X10126691Y-23798788D02*
X10117167Y-23817836D01*
X10117167Y-23817836D02*
X10107644Y-23827360D01*
X10107644Y-23827360D02*
X10088596Y-23836884D01*
X10088596Y-23836884D02*
X10050501Y-23836884D01*
X10050501Y-23836884D02*
X10031453Y-23827360D01*
X10212405Y-23817836D02*
X10221929Y-23827360D01*
X10221929Y-23827360D02*
X10212405Y-23836884D01*
X10212405Y-23836884D02*
X10202882Y-23827360D01*
X10202882Y-23827360D02*
X10212405Y-23817836D01*
X10212405Y-23817836D02*
X10212405Y-23836884D01*
X10212405Y-23713074D02*
X10221929Y-23722598D01*
X10221929Y-23722598D02*
X10212405Y-23732122D01*
X10212405Y-23732122D02*
X10202882Y-23722598D01*
X10202882Y-23722598D02*
X10212405Y-23713074D01*
X10212405Y-23713074D02*
X10212405Y-23732122D01*
D12*
X8430200Y-24090400D02*
X8580200Y-24240400D01*
X8580200Y-24090400D02*
X8430200Y-24240400D01*
D11*
X8945739Y-24256884D02*
X8831453Y-24256884D01*
X8888596Y-24256884D02*
X8888596Y-24056884D01*
X8888596Y-24056884D02*
X8869548Y-24085455D01*
X8869548Y-24085455D02*
X8850501Y-24104503D01*
X8850501Y-24104503D02*
X8831453Y-24114027D01*
X9031453Y-24237836D02*
X9040977Y-24247360D01*
X9040977Y-24247360D02*
X9031453Y-24256884D01*
X9031453Y-24256884D02*
X9021929Y-24247360D01*
X9021929Y-24247360D02*
X9031453Y-24237836D01*
X9031453Y-24237836D02*
X9031453Y-24256884D01*
X9221929Y-24056884D02*
X9126691Y-24056884D01*
X9126691Y-24056884D02*
X9117167Y-24152122D01*
X9117167Y-24152122D02*
X9126691Y-24142598D01*
X9126691Y-24142598D02*
X9145739Y-24133074D01*
X9145739Y-24133074D02*
X9193358Y-24133074D01*
X9193358Y-24133074D02*
X9212405Y-24142598D01*
X9212405Y-24142598D02*
X9221929Y-24152122D01*
X9221929Y-24152122D02*
X9231453Y-24171169D01*
X9231453Y-24171169D02*
X9231453Y-24218788D01*
X9231453Y-24218788D02*
X9221929Y-24237836D01*
X9221929Y-24237836D02*
X9212405Y-24247360D01*
X9212405Y-24247360D02*
X9193358Y-24256884D01*
X9193358Y-24256884D02*
X9145739Y-24256884D01*
X9145739Y-24256884D02*
X9126691Y-24247360D01*
X9126691Y-24247360D02*
X9117167Y-24237836D01*
X9355263Y-24056884D02*
X9374310Y-24056884D01*
X9374310Y-24056884D02*
X9393358Y-24066408D01*
X9393358Y-24066408D02*
X9402882Y-24075931D01*
X9402882Y-24075931D02*
X9412405Y-24094979D01*
X9412405Y-24094979D02*
X9421929Y-24133074D01*
X9421929Y-24133074D02*
X9421929Y-24180693D01*
X9421929Y-24180693D02*
X9412405Y-24218788D01*
X9412405Y-24218788D02*
X9402882Y-24237836D01*
X9402882Y-24237836D02*
X9393358Y-24247360D01*
X9393358Y-24247360D02*
X9374310Y-24256884D01*
X9374310Y-24256884D02*
X9355263Y-24256884D01*
X9355263Y-24256884D02*
X9336215Y-24247360D01*
X9336215Y-24247360D02*
X9326691Y-24237836D01*
X9326691Y-24237836D02*
X9317167Y-24218788D01*
X9317167Y-24218788D02*
X9307644Y-24180693D01*
X9307644Y-24180693D02*
X9307644Y-24133074D01*
X9307644Y-24133074D02*
X9317167Y-24094979D01*
X9317167Y-24094979D02*
X9326691Y-24075931D01*
X9326691Y-24075931D02*
X9336215Y-24066408D01*
X9336215Y-24066408D02*
X9355263Y-24056884D01*
X9545739Y-24056884D02*
X9564786Y-24056884D01*
X9564786Y-24056884D02*
X9583834Y-24066408D01*
X9583834Y-24066408D02*
X9593358Y-24075931D01*
X9593358Y-24075931D02*
X9602882Y-24094979D01*
X9602882Y-24094979D02*
X9612405Y-24133074D01*
X9612405Y-24133074D02*
X9612405Y-24180693D01*
X9612405Y-24180693D02*
X9602882Y-24218788D01*
X9602882Y-24218788D02*
X9593358Y-24237836D01*
X9593358Y-24237836D02*
X9583834Y-24247360D01*
X9583834Y-24247360D02*
X9564786Y-24256884D01*
X9564786Y-24256884D02*
X9545739Y-24256884D01*
X9545739Y-24256884D02*
X9526691Y-24247360D01*
X9526691Y-24247360D02*
X9517167Y-24237836D01*
X9517167Y-24237836D02*
X9507644Y-24218788D01*
X9507644Y-24218788D02*
X9498120Y-24180693D01*
X9498120Y-24180693D02*
X9498120Y-24133074D01*
X9498120Y-24133074D02*
X9507644Y-24094979D01*
X9507644Y-24094979D02*
X9517167Y-24075931D01*
X9517167Y-24075931D02*
X9526691Y-24066408D01*
X9526691Y-24066408D02*
X9545739Y-24056884D01*
X9698120Y-24256884D02*
X9698120Y-24123550D01*
X9698120Y-24142598D02*
X9707644Y-24133074D01*
X9707644Y-24133074D02*
X9726691Y-24123550D01*
X9726691Y-24123550D02*
X9755263Y-24123550D01*
X9755263Y-24123550D02*
X9774310Y-24133074D01*
X9774310Y-24133074D02*
X9783834Y-24152122D01*
X9783834Y-24152122D02*
X9783834Y-24256884D01*
X9783834Y-24152122D02*
X9793358Y-24133074D01*
X9793358Y-24133074D02*
X9812405Y-24123550D01*
X9812405Y-24123550D02*
X9840977Y-24123550D01*
X9840977Y-24123550D02*
X9860025Y-24133074D01*
X9860025Y-24133074D02*
X9869548Y-24152122D01*
X9869548Y-24152122D02*
X9869548Y-24256884D01*
X9964786Y-24256884D02*
X9964786Y-24123550D01*
X9964786Y-24142598D02*
X9974310Y-24133074D01*
X9974310Y-24133074D02*
X9993358Y-24123550D01*
X9993358Y-24123550D02*
X10021929Y-24123550D01*
X10021929Y-24123550D02*
X10040977Y-24133074D01*
X10040977Y-24133074D02*
X10050501Y-24152122D01*
X10050501Y-24152122D02*
X10050501Y-24256884D01*
X10050501Y-24152122D02*
X10060025Y-24133074D01*
X10060025Y-24133074D02*
X10079072Y-24123550D01*
X10079072Y-24123550D02*
X10107644Y-24123550D01*
X10107644Y-24123550D02*
X10126691Y-24133074D01*
X10126691Y-24133074D02*
X10136215Y-24152122D01*
X10136215Y-24152122D02*
X10136215Y-24256884D01*
X10526691Y-24047360D02*
X10355263Y-24304503D01*
X10783834Y-24056884D02*
X10802882Y-24056884D01*
X10802882Y-24056884D02*
X10821929Y-24066408D01*
X10821929Y-24066408D02*
X10831453Y-24075931D01*
X10831453Y-24075931D02*
X10840977Y-24094979D01*
X10840977Y-24094979D02*
X10850501Y-24133074D01*
X10850501Y-24133074D02*
X10850501Y-24180693D01*
X10850501Y-24180693D02*
X10840977Y-24218788D01*
X10840977Y-24218788D02*
X10831453Y-24237836D01*
X10831453Y-24237836D02*
X10821929Y-24247360D01*
X10821929Y-24247360D02*
X10802882Y-24256884D01*
X10802882Y-24256884D02*
X10783834Y-24256884D01*
X10783834Y-24256884D02*
X10764787Y-24247360D01*
X10764787Y-24247360D02*
X10755263Y-24237836D01*
X10755263Y-24237836D02*
X10745739Y-24218788D01*
X10745739Y-24218788D02*
X10736215Y-24180693D01*
X10736215Y-24180693D02*
X10736215Y-24133074D01*
X10736215Y-24133074D02*
X10745739Y-24094979D01*
X10745739Y-24094979D02*
X10755263Y-24075931D01*
X10755263Y-24075931D02*
X10764787Y-24066408D01*
X10764787Y-24066408D02*
X10783834Y-24056884D01*
X10936215Y-24237836D02*
X10945739Y-24247360D01*
X10945739Y-24247360D02*
X10936215Y-24256884D01*
X10936215Y-24256884D02*
X10926691Y-24247360D01*
X10926691Y-24247360D02*
X10936215Y-24237836D01*
X10936215Y-24237836D02*
X10936215Y-24256884D01*
X11069548Y-24056884D02*
X11088596Y-24056884D01*
X11088596Y-24056884D02*
X11107644Y-24066408D01*
X11107644Y-24066408D02*
X11117168Y-24075931D01*
X11117168Y-24075931D02*
X11126691Y-24094979D01*
X11126691Y-24094979D02*
X11136215Y-24133074D01*
X11136215Y-24133074D02*
X11136215Y-24180693D01*
X11136215Y-24180693D02*
X11126691Y-24218788D01*
X11126691Y-24218788D02*
X11117168Y-24237836D01*
X11117168Y-24237836D02*
X11107644Y-24247360D01*
X11107644Y-24247360D02*
X11088596Y-24256884D01*
X11088596Y-24256884D02*
X11069548Y-24256884D01*
X11069548Y-24256884D02*
X11050501Y-24247360D01*
X11050501Y-24247360D02*
X11040977Y-24237836D01*
X11040977Y-24237836D02*
X11031453Y-24218788D01*
X11031453Y-24218788D02*
X11021929Y-24180693D01*
X11021929Y-24180693D02*
X11021929Y-24133074D01*
X11021929Y-24133074D02*
X11031453Y-24094979D01*
X11031453Y-24094979D02*
X11040977Y-24075931D01*
X11040977Y-24075931D02*
X11050501Y-24066408D01*
X11050501Y-24066408D02*
X11069548Y-24056884D01*
X11317167Y-24056884D02*
X11221929Y-24056884D01*
X11221929Y-24056884D02*
X11212406Y-24152122D01*
X11212406Y-24152122D02*
X11221929Y-24142598D01*
X11221929Y-24142598D02*
X11240977Y-24133074D01*
X11240977Y-24133074D02*
X11288596Y-24133074D01*
X11288596Y-24133074D02*
X11307644Y-24142598D01*
X11307644Y-24142598D02*
X11317167Y-24152122D01*
X11317167Y-24152122D02*
X11326691Y-24171169D01*
X11326691Y-24171169D02*
X11326691Y-24218788D01*
X11326691Y-24218788D02*
X11317167Y-24237836D01*
X11317167Y-24237836D02*
X11307644Y-24247360D01*
X11307644Y-24247360D02*
X11288596Y-24256884D01*
X11288596Y-24256884D02*
X11240977Y-24256884D01*
X11240977Y-24256884D02*
X11221929Y-24247360D01*
X11221929Y-24247360D02*
X11212406Y-24237836D01*
X11421929Y-24256884D02*
X11460025Y-24256884D01*
X11460025Y-24256884D02*
X11479072Y-24247360D01*
X11479072Y-24247360D02*
X11488596Y-24237836D01*
X11488596Y-24237836D02*
X11507644Y-24209265D01*
X11507644Y-24209265D02*
X11517167Y-24171169D01*
X11517167Y-24171169D02*
X11517167Y-24094979D01*
X11517167Y-24094979D02*
X11507644Y-24075931D01*
X11507644Y-24075931D02*
X11498120Y-24066408D01*
X11498120Y-24066408D02*
X11479072Y-24056884D01*
X11479072Y-24056884D02*
X11440977Y-24056884D01*
X11440977Y-24056884D02*
X11421929Y-24066408D01*
X11421929Y-24066408D02*
X11412406Y-24075931D01*
X11412406Y-24075931D02*
X11402882Y-24094979D01*
X11402882Y-24094979D02*
X11402882Y-24142598D01*
X11402882Y-24142598D02*
X11412406Y-24161646D01*
X11412406Y-24161646D02*
X11421929Y-24171169D01*
X11421929Y-24171169D02*
X11440977Y-24180693D01*
X11440977Y-24180693D02*
X11479072Y-24180693D01*
X11479072Y-24180693D02*
X11498120Y-24171169D01*
X11498120Y-24171169D02*
X11507644Y-24161646D01*
X11507644Y-24161646D02*
X11517167Y-24142598D01*
X11707644Y-24256884D02*
X11593358Y-24256884D01*
X11650501Y-24256884D02*
X11650501Y-24056884D01*
X11650501Y-24056884D02*
X11631453Y-24085455D01*
X11631453Y-24085455D02*
X11612406Y-24104503D01*
X11612406Y-24104503D02*
X11593358Y-24114027D01*
X11783834Y-24056884D02*
X11783834Y-24094979D01*
X11860025Y-24056884D02*
X11860025Y-24094979D01*
X12155263Y-24333074D02*
X12145739Y-24323550D01*
X12145739Y-24323550D02*
X12126691Y-24294979D01*
X12126691Y-24294979D02*
X12117168Y-24275931D01*
X12117168Y-24275931D02*
X12107644Y-24247360D01*
X12107644Y-24247360D02*
X12098120Y-24199741D01*
X12098120Y-24199741D02*
X12098120Y-24161646D01*
X12098120Y-24161646D02*
X12107644Y-24114027D01*
X12107644Y-24114027D02*
X12117168Y-24085455D01*
X12117168Y-24085455D02*
X12126691Y-24066408D01*
X12126691Y-24066408D02*
X12145739Y-24037836D01*
X12145739Y-24037836D02*
X12155263Y-24028312D01*
X12317168Y-24123550D02*
X12317168Y-24256884D01*
X12269548Y-24047360D02*
X12221929Y-24190217D01*
X12221929Y-24190217D02*
X12345739Y-24190217D01*
X12574310Y-24256884D02*
X12574310Y-24056884D01*
X12660025Y-24256884D02*
X12660025Y-24152122D01*
X12660025Y-24152122D02*
X12650501Y-24133074D01*
X12650501Y-24133074D02*
X12631453Y-24123550D01*
X12631453Y-24123550D02*
X12602882Y-24123550D01*
X12602882Y-24123550D02*
X12583834Y-24133074D01*
X12583834Y-24133074D02*
X12574310Y-24142598D01*
X12783834Y-24256884D02*
X12764787Y-24247360D01*
X12764787Y-24247360D02*
X12755263Y-24237836D01*
X12755263Y-24237836D02*
X12745739Y-24218788D01*
X12745739Y-24218788D02*
X12745739Y-24161646D01*
X12745739Y-24161646D02*
X12755263Y-24142598D01*
X12755263Y-24142598D02*
X12764787Y-24133074D01*
X12764787Y-24133074D02*
X12783834Y-24123550D01*
X12783834Y-24123550D02*
X12812406Y-24123550D01*
X12812406Y-24123550D02*
X12831453Y-24133074D01*
X12831453Y-24133074D02*
X12840977Y-24142598D01*
X12840977Y-24142598D02*
X12850501Y-24161646D01*
X12850501Y-24161646D02*
X12850501Y-24218788D01*
X12850501Y-24218788D02*
X12840977Y-24237836D01*
X12840977Y-24237836D02*
X12831453Y-24247360D01*
X12831453Y-24247360D02*
X12812406Y-24256884D01*
X12812406Y-24256884D02*
X12783834Y-24256884D01*
X12964787Y-24256884D02*
X12945739Y-24247360D01*
X12945739Y-24247360D02*
X12936215Y-24228312D01*
X12936215Y-24228312D02*
X12936215Y-24056884D01*
X13117168Y-24247360D02*
X13098120Y-24256884D01*
X13098120Y-24256884D02*
X13060025Y-24256884D01*
X13060025Y-24256884D02*
X13040977Y-24247360D01*
X13040977Y-24247360D02*
X13031453Y-24228312D01*
X13031453Y-24228312D02*
X13031453Y-24152122D01*
X13031453Y-24152122D02*
X13040977Y-24133074D01*
X13040977Y-24133074D02*
X13060025Y-24123550D01*
X13060025Y-24123550D02*
X13098120Y-24123550D01*
X13098120Y-24123550D02*
X13117168Y-24133074D01*
X13117168Y-24133074D02*
X13126691Y-24152122D01*
X13126691Y-24152122D02*
X13126691Y-24171169D01*
X13126691Y-24171169D02*
X13031453Y-24190217D01*
X13202882Y-24247360D02*
X13221930Y-24256884D01*
X13221930Y-24256884D02*
X13260025Y-24256884D01*
X13260025Y-24256884D02*
X13279072Y-24247360D01*
X13279072Y-24247360D02*
X13288596Y-24228312D01*
X13288596Y-24228312D02*
X13288596Y-24218788D01*
X13288596Y-24218788D02*
X13279072Y-24199741D01*
X13279072Y-24199741D02*
X13260025Y-24190217D01*
X13260025Y-24190217D02*
X13231453Y-24190217D01*
X13231453Y-24190217D02*
X13212406Y-24180693D01*
X13212406Y-24180693D02*
X13202882Y-24161646D01*
X13202882Y-24161646D02*
X13202882Y-24152122D01*
X13202882Y-24152122D02*
X13212406Y-24133074D01*
X13212406Y-24133074D02*
X13231453Y-24123550D01*
X13231453Y-24123550D02*
X13260025Y-24123550D01*
X13260025Y-24123550D02*
X13279072Y-24133074D01*
X13355263Y-24333074D02*
X13364787Y-24323550D01*
X13364787Y-24323550D02*
X13383834Y-24294979D01*
X13383834Y-24294979D02*
X13393358Y-24275931D01*
X13393358Y-24275931D02*
X13402882Y-24247360D01*
X13402882Y-24247360D02*
X13412406Y-24199741D01*
X13412406Y-24199741D02*
X13412406Y-24161646D01*
X13412406Y-24161646D02*
X13402882Y-24114027D01*
X13402882Y-24114027D02*
X13393358Y-24085455D01*
X13393358Y-24085455D02*
X13383834Y-24066408D01*
X13383834Y-24066408D02*
X13364787Y-24037836D01*
X13364787Y-24037836D02*
X13355263Y-24028312D01*
X13717168Y-24333074D02*
X13707644Y-24323550D01*
X13707644Y-24323550D02*
X13688596Y-24294979D01*
X13688596Y-24294979D02*
X13679072Y-24275931D01*
X13679072Y-24275931D02*
X13669549Y-24247360D01*
X13669549Y-24247360D02*
X13660025Y-24199741D01*
X13660025Y-24199741D02*
X13660025Y-24161646D01*
X13660025Y-24161646D02*
X13669549Y-24114027D01*
X13669549Y-24114027D02*
X13679072Y-24085455D01*
X13679072Y-24085455D02*
X13688596Y-24066408D01*
X13688596Y-24066408D02*
X13707644Y-24037836D01*
X13707644Y-24037836D02*
X13717168Y-24028312D01*
X13793358Y-24123550D02*
X13793358Y-24256884D01*
X13793358Y-24142598D02*
X13802882Y-24133074D01*
X13802882Y-24133074D02*
X13821930Y-24123550D01*
X13821930Y-24123550D02*
X13850501Y-24123550D01*
X13850501Y-24123550D02*
X13869549Y-24133074D01*
X13869549Y-24133074D02*
X13879072Y-24152122D01*
X13879072Y-24152122D02*
X13879072Y-24256884D01*
X14002882Y-24256884D02*
X13983834Y-24247360D01*
X13983834Y-24247360D02*
X13974311Y-24237836D01*
X13974311Y-24237836D02*
X13964787Y-24218788D01*
X13964787Y-24218788D02*
X13964787Y-24161646D01*
X13964787Y-24161646D02*
X13974311Y-24142598D01*
X13974311Y-24142598D02*
X13983834Y-24133074D01*
X13983834Y-24133074D02*
X14002882Y-24123550D01*
X14002882Y-24123550D02*
X14031453Y-24123550D01*
X14031453Y-24123550D02*
X14050501Y-24133074D01*
X14050501Y-24133074D02*
X14060025Y-24142598D01*
X14060025Y-24142598D02*
X14069549Y-24161646D01*
X14069549Y-24161646D02*
X14069549Y-24218788D01*
X14069549Y-24218788D02*
X14060025Y-24237836D01*
X14060025Y-24237836D02*
X14050501Y-24247360D01*
X14050501Y-24247360D02*
X14031453Y-24256884D01*
X14031453Y-24256884D02*
X14002882Y-24256884D01*
X14126692Y-24123550D02*
X14202882Y-24123550D01*
X14155263Y-24056884D02*
X14155263Y-24228312D01*
X14155263Y-24228312D02*
X14164787Y-24247360D01*
X14164787Y-24247360D02*
X14183834Y-24256884D01*
X14183834Y-24256884D02*
X14202882Y-24256884D01*
X14421930Y-24123550D02*
X14421930Y-24323550D01*
X14421930Y-24133074D02*
X14440977Y-24123550D01*
X14440977Y-24123550D02*
X14479073Y-24123550D01*
X14479073Y-24123550D02*
X14498120Y-24133074D01*
X14498120Y-24133074D02*
X14507644Y-24142598D01*
X14507644Y-24142598D02*
X14517168Y-24161646D01*
X14517168Y-24161646D02*
X14517168Y-24218788D01*
X14517168Y-24218788D02*
X14507644Y-24237836D01*
X14507644Y-24237836D02*
X14498120Y-24247360D01*
X14498120Y-24247360D02*
X14479073Y-24256884D01*
X14479073Y-24256884D02*
X14440977Y-24256884D01*
X14440977Y-24256884D02*
X14421930Y-24247360D01*
X14631453Y-24256884D02*
X14612406Y-24247360D01*
X14612406Y-24247360D02*
X14602882Y-24228312D01*
X14602882Y-24228312D02*
X14602882Y-24056884D01*
X14793358Y-24256884D02*
X14793358Y-24152122D01*
X14793358Y-24152122D02*
X14783834Y-24133074D01*
X14783834Y-24133074D02*
X14764787Y-24123550D01*
X14764787Y-24123550D02*
X14726692Y-24123550D01*
X14726692Y-24123550D02*
X14707644Y-24133074D01*
X14793358Y-24247360D02*
X14774311Y-24256884D01*
X14774311Y-24256884D02*
X14726692Y-24256884D01*
X14726692Y-24256884D02*
X14707644Y-24247360D01*
X14707644Y-24247360D02*
X14698120Y-24228312D01*
X14698120Y-24228312D02*
X14698120Y-24209265D01*
X14698120Y-24209265D02*
X14707644Y-24190217D01*
X14707644Y-24190217D02*
X14726692Y-24180693D01*
X14726692Y-24180693D02*
X14774311Y-24180693D01*
X14774311Y-24180693D02*
X14793358Y-24171169D01*
X14860025Y-24123550D02*
X14936215Y-24123550D01*
X14888596Y-24056884D02*
X14888596Y-24228312D01*
X14888596Y-24228312D02*
X14898120Y-24247360D01*
X14898120Y-24247360D02*
X14917168Y-24256884D01*
X14917168Y-24256884D02*
X14936215Y-24256884D01*
X15079073Y-24247360D02*
X15060025Y-24256884D01*
X15060025Y-24256884D02*
X15021930Y-24256884D01*
X15021930Y-24256884D02*
X15002882Y-24247360D01*
X15002882Y-24247360D02*
X14993358Y-24228312D01*
X14993358Y-24228312D02*
X14993358Y-24152122D01*
X14993358Y-24152122D02*
X15002882Y-24133074D01*
X15002882Y-24133074D02*
X15021930Y-24123550D01*
X15021930Y-24123550D02*
X15060025Y-24123550D01*
X15060025Y-24123550D02*
X15079073Y-24133074D01*
X15079073Y-24133074D02*
X15088596Y-24152122D01*
X15088596Y-24152122D02*
X15088596Y-24171169D01*
X15088596Y-24171169D02*
X14993358Y-24190217D01*
X15260025Y-24256884D02*
X15260025Y-24056884D01*
X15260025Y-24247360D02*
X15240977Y-24256884D01*
X15240977Y-24256884D02*
X15202882Y-24256884D01*
X15202882Y-24256884D02*
X15183834Y-24247360D01*
X15183834Y-24247360D02*
X15174311Y-24237836D01*
X15174311Y-24237836D02*
X15164787Y-24218788D01*
X15164787Y-24218788D02*
X15164787Y-24161646D01*
X15164787Y-24161646D02*
X15174311Y-24142598D01*
X15174311Y-24142598D02*
X15183834Y-24133074D01*
X15183834Y-24133074D02*
X15202882Y-24123550D01*
X15202882Y-24123550D02*
X15240977Y-24123550D01*
X15240977Y-24123550D02*
X15260025Y-24133074D01*
X15336215Y-24333074D02*
X15345739Y-24323550D01*
X15345739Y-24323550D02*
X15364787Y-24294979D01*
X15364787Y-24294979D02*
X15374311Y-24275931D01*
X15374311Y-24275931D02*
X15383834Y-24247360D01*
X15383834Y-24247360D02*
X15393358Y-24199741D01*
X15393358Y-24199741D02*
X15393358Y-24161646D01*
X15393358Y-24161646D02*
X15383834Y-24114027D01*
X15383834Y-24114027D02*
X15374311Y-24085455D01*
X15374311Y-24085455D02*
X15364787Y-24066408D01*
X15364787Y-24066408D02*
X15345739Y-24037836D01*
X15345739Y-24037836D02*
X15336215Y-24028312D01*
D13*
X8580200Y-24435400D02*
G75*
G03*
X8580200Y-24435400I-85000J0D01*
G01*
D11*
X8945739Y-24526884D02*
X8831453Y-24526884D01*
X8888596Y-24526884D02*
X8888596Y-24326884D01*
X8888596Y-24326884D02*
X8869548Y-24355455D01*
X8869548Y-24355455D02*
X8850501Y-24374503D01*
X8850501Y-24374503D02*
X8831453Y-24384027D01*
X9031453Y-24507836D02*
X9040977Y-24517360D01*
X9040977Y-24517360D02*
X9031453Y-24526884D01*
X9031453Y-24526884D02*
X9021929Y-24517360D01*
X9021929Y-24517360D02*
X9031453Y-24507836D01*
X9031453Y-24507836D02*
X9031453Y-24526884D01*
X9107644Y-24326884D02*
X9240977Y-24326884D01*
X9240977Y-24326884D02*
X9155263Y-24526884D01*
X9355263Y-24326884D02*
X9374310Y-24326884D01*
X9374310Y-24326884D02*
X9393358Y-24336408D01*
X9393358Y-24336408D02*
X9402882Y-24345931D01*
X9402882Y-24345931D02*
X9412405Y-24364979D01*
X9412405Y-24364979D02*
X9421929Y-24403074D01*
X9421929Y-24403074D02*
X9421929Y-24450693D01*
X9421929Y-24450693D02*
X9412405Y-24488788D01*
X9412405Y-24488788D02*
X9402882Y-24507836D01*
X9402882Y-24507836D02*
X9393358Y-24517360D01*
X9393358Y-24517360D02*
X9374310Y-24526884D01*
X9374310Y-24526884D02*
X9355263Y-24526884D01*
X9355263Y-24526884D02*
X9336215Y-24517360D01*
X9336215Y-24517360D02*
X9326691Y-24507836D01*
X9326691Y-24507836D02*
X9317167Y-24488788D01*
X9317167Y-24488788D02*
X9307644Y-24450693D01*
X9307644Y-24450693D02*
X9307644Y-24403074D01*
X9307644Y-24403074D02*
X9317167Y-24364979D01*
X9317167Y-24364979D02*
X9326691Y-24345931D01*
X9326691Y-24345931D02*
X9336215Y-24336408D01*
X9336215Y-24336408D02*
X9355263Y-24326884D01*
X9545739Y-24326884D02*
X9564786Y-24326884D01*
X9564786Y-24326884D02*
X9583834Y-24336408D01*
X9583834Y-24336408D02*
X9593358Y-24345931D01*
X9593358Y-24345931D02*
X9602882Y-24364979D01*
X9602882Y-24364979D02*
X9612405Y-24403074D01*
X9612405Y-24403074D02*
X9612405Y-24450693D01*
X9612405Y-24450693D02*
X9602882Y-24488788D01*
X9602882Y-24488788D02*
X9593358Y-24507836D01*
X9593358Y-24507836D02*
X9583834Y-24517360D01*
X9583834Y-24517360D02*
X9564786Y-24526884D01*
X9564786Y-24526884D02*
X9545739Y-24526884D01*
X9545739Y-24526884D02*
X9526691Y-24517360D01*
X9526691Y-24517360D02*
X9517167Y-24507836D01*
X9517167Y-24507836D02*
X9507644Y-24488788D01*
X9507644Y-24488788D02*
X9498120Y-24450693D01*
X9498120Y-24450693D02*
X9498120Y-24403074D01*
X9498120Y-24403074D02*
X9507644Y-24364979D01*
X9507644Y-24364979D02*
X9517167Y-24345931D01*
X9517167Y-24345931D02*
X9526691Y-24336408D01*
X9526691Y-24336408D02*
X9545739Y-24326884D01*
X9698120Y-24526884D02*
X9698120Y-24393550D01*
X9698120Y-24412598D02*
X9707644Y-24403074D01*
X9707644Y-24403074D02*
X9726691Y-24393550D01*
X9726691Y-24393550D02*
X9755263Y-24393550D01*
X9755263Y-24393550D02*
X9774310Y-24403074D01*
X9774310Y-24403074D02*
X9783834Y-24422122D01*
X9783834Y-24422122D02*
X9783834Y-24526884D01*
X9783834Y-24422122D02*
X9793358Y-24403074D01*
X9793358Y-24403074D02*
X9812405Y-24393550D01*
X9812405Y-24393550D02*
X9840977Y-24393550D01*
X9840977Y-24393550D02*
X9860025Y-24403074D01*
X9860025Y-24403074D02*
X9869548Y-24422122D01*
X9869548Y-24422122D02*
X9869548Y-24526884D01*
X9964786Y-24526884D02*
X9964786Y-24393550D01*
X9964786Y-24412598D02*
X9974310Y-24403074D01*
X9974310Y-24403074D02*
X9993358Y-24393550D01*
X9993358Y-24393550D02*
X10021929Y-24393550D01*
X10021929Y-24393550D02*
X10040977Y-24403074D01*
X10040977Y-24403074D02*
X10050501Y-24422122D01*
X10050501Y-24422122D02*
X10050501Y-24526884D01*
X10050501Y-24422122D02*
X10060025Y-24403074D01*
X10060025Y-24403074D02*
X10079072Y-24393550D01*
X10079072Y-24393550D02*
X10107644Y-24393550D01*
X10107644Y-24393550D02*
X10126691Y-24403074D01*
X10126691Y-24403074D02*
X10136215Y-24422122D01*
X10136215Y-24422122D02*
X10136215Y-24526884D01*
X10526691Y-24317360D02*
X10355263Y-24574503D01*
X10783834Y-24326884D02*
X10802882Y-24326884D01*
X10802882Y-24326884D02*
X10821929Y-24336408D01*
X10821929Y-24336408D02*
X10831453Y-24345931D01*
X10831453Y-24345931D02*
X10840977Y-24364979D01*
X10840977Y-24364979D02*
X10850501Y-24403074D01*
X10850501Y-24403074D02*
X10850501Y-24450693D01*
X10850501Y-24450693D02*
X10840977Y-24488788D01*
X10840977Y-24488788D02*
X10831453Y-24507836D01*
X10831453Y-24507836D02*
X10821929Y-24517360D01*
X10821929Y-24517360D02*
X10802882Y-24526884D01*
X10802882Y-24526884D02*
X10783834Y-24526884D01*
X10783834Y-24526884D02*
X10764787Y-24517360D01*
X10764787Y-24517360D02*
X10755263Y-24507836D01*
X10755263Y-24507836D02*
X10745739Y-24488788D01*
X10745739Y-24488788D02*
X10736215Y-24450693D01*
X10736215Y-24450693D02*
X10736215Y-24403074D01*
X10736215Y-24403074D02*
X10745739Y-24364979D01*
X10745739Y-24364979D02*
X10755263Y-24345931D01*
X10755263Y-24345931D02*
X10764787Y-24336408D01*
X10764787Y-24336408D02*
X10783834Y-24326884D01*
X10936215Y-24507836D02*
X10945739Y-24517360D01*
X10945739Y-24517360D02*
X10936215Y-24526884D01*
X10936215Y-24526884D02*
X10926691Y-24517360D01*
X10926691Y-24517360D02*
X10936215Y-24507836D01*
X10936215Y-24507836D02*
X10936215Y-24526884D01*
X11069548Y-24326884D02*
X11088596Y-24326884D01*
X11088596Y-24326884D02*
X11107644Y-24336408D01*
X11107644Y-24336408D02*
X11117168Y-24345931D01*
X11117168Y-24345931D02*
X11126691Y-24364979D01*
X11126691Y-24364979D02*
X11136215Y-24403074D01*
X11136215Y-24403074D02*
X11136215Y-24450693D01*
X11136215Y-24450693D02*
X11126691Y-24488788D01*
X11126691Y-24488788D02*
X11117168Y-24507836D01*
X11117168Y-24507836D02*
X11107644Y-24517360D01*
X11107644Y-24517360D02*
X11088596Y-24526884D01*
X11088596Y-24526884D02*
X11069548Y-24526884D01*
X11069548Y-24526884D02*
X11050501Y-24517360D01*
X11050501Y-24517360D02*
X11040977Y-24507836D01*
X11040977Y-24507836D02*
X11031453Y-24488788D01*
X11031453Y-24488788D02*
X11021929Y-24450693D01*
X11021929Y-24450693D02*
X11021929Y-24403074D01*
X11021929Y-24403074D02*
X11031453Y-24364979D01*
X11031453Y-24364979D02*
X11040977Y-24345931D01*
X11040977Y-24345931D02*
X11050501Y-24336408D01*
X11050501Y-24336408D02*
X11069548Y-24326884D01*
X11307644Y-24326884D02*
X11269548Y-24326884D01*
X11269548Y-24326884D02*
X11250501Y-24336408D01*
X11250501Y-24336408D02*
X11240977Y-24345931D01*
X11240977Y-24345931D02*
X11221929Y-24374503D01*
X11221929Y-24374503D02*
X11212406Y-24412598D01*
X11212406Y-24412598D02*
X11212406Y-24488788D01*
X11212406Y-24488788D02*
X11221929Y-24507836D01*
X11221929Y-24507836D02*
X11231453Y-24517360D01*
X11231453Y-24517360D02*
X11250501Y-24526884D01*
X11250501Y-24526884D02*
X11288596Y-24526884D01*
X11288596Y-24526884D02*
X11307644Y-24517360D01*
X11307644Y-24517360D02*
X11317167Y-24507836D01*
X11317167Y-24507836D02*
X11326691Y-24488788D01*
X11326691Y-24488788D02*
X11326691Y-24441169D01*
X11326691Y-24441169D02*
X11317167Y-24422122D01*
X11317167Y-24422122D02*
X11307644Y-24412598D01*
X11307644Y-24412598D02*
X11288596Y-24403074D01*
X11288596Y-24403074D02*
X11250501Y-24403074D01*
X11250501Y-24403074D02*
X11231453Y-24412598D01*
X11231453Y-24412598D02*
X11221929Y-24422122D01*
X11221929Y-24422122D02*
X11212406Y-24441169D01*
X11498120Y-24326884D02*
X11460025Y-24326884D01*
X11460025Y-24326884D02*
X11440977Y-24336408D01*
X11440977Y-24336408D02*
X11431453Y-24345931D01*
X11431453Y-24345931D02*
X11412406Y-24374503D01*
X11412406Y-24374503D02*
X11402882Y-24412598D01*
X11402882Y-24412598D02*
X11402882Y-24488788D01*
X11402882Y-24488788D02*
X11412406Y-24507836D01*
X11412406Y-24507836D02*
X11421929Y-24517360D01*
X11421929Y-24517360D02*
X11440977Y-24526884D01*
X11440977Y-24526884D02*
X11479072Y-24526884D01*
X11479072Y-24526884D02*
X11498120Y-24517360D01*
X11498120Y-24517360D02*
X11507644Y-24507836D01*
X11507644Y-24507836D02*
X11517167Y-24488788D01*
X11517167Y-24488788D02*
X11517167Y-24441169D01*
X11517167Y-24441169D02*
X11507644Y-24422122D01*
X11507644Y-24422122D02*
X11498120Y-24412598D01*
X11498120Y-24412598D02*
X11479072Y-24403074D01*
X11479072Y-24403074D02*
X11440977Y-24403074D01*
X11440977Y-24403074D02*
X11421929Y-24412598D01*
X11421929Y-24412598D02*
X11412406Y-24422122D01*
X11412406Y-24422122D02*
X11402882Y-24441169D01*
X11612406Y-24526884D02*
X11650501Y-24526884D01*
X11650501Y-24526884D02*
X11669548Y-24517360D01*
X11669548Y-24517360D02*
X11679072Y-24507836D01*
X11679072Y-24507836D02*
X11698120Y-24479265D01*
X11698120Y-24479265D02*
X11707644Y-24441169D01*
X11707644Y-24441169D02*
X11707644Y-24364979D01*
X11707644Y-24364979D02*
X11698120Y-24345931D01*
X11698120Y-24345931D02*
X11688596Y-24336408D01*
X11688596Y-24336408D02*
X11669548Y-24326884D01*
X11669548Y-24326884D02*
X11631453Y-24326884D01*
X11631453Y-24326884D02*
X11612406Y-24336408D01*
X11612406Y-24336408D02*
X11602882Y-24345931D01*
X11602882Y-24345931D02*
X11593358Y-24364979D01*
X11593358Y-24364979D02*
X11593358Y-24412598D01*
X11593358Y-24412598D02*
X11602882Y-24431646D01*
X11602882Y-24431646D02*
X11612406Y-24441169D01*
X11612406Y-24441169D02*
X11631453Y-24450693D01*
X11631453Y-24450693D02*
X11669548Y-24450693D01*
X11669548Y-24450693D02*
X11688596Y-24441169D01*
X11688596Y-24441169D02*
X11698120Y-24431646D01*
X11698120Y-24431646D02*
X11707644Y-24412598D01*
X11783834Y-24326884D02*
X11783834Y-24364979D01*
X11860025Y-24326884D02*
X11860025Y-24364979D01*
X12155263Y-24603074D02*
X12145739Y-24593550D01*
X12145739Y-24593550D02*
X12126691Y-24564979D01*
X12126691Y-24564979D02*
X12117168Y-24545931D01*
X12117168Y-24545931D02*
X12107644Y-24517360D01*
X12107644Y-24517360D02*
X12098120Y-24469741D01*
X12098120Y-24469741D02*
X12098120Y-24431646D01*
X12098120Y-24431646D02*
X12107644Y-24384027D01*
X12107644Y-24384027D02*
X12117168Y-24355455D01*
X12117168Y-24355455D02*
X12126691Y-24336408D01*
X12126691Y-24336408D02*
X12145739Y-24307836D01*
X12145739Y-24307836D02*
X12155263Y-24298312D01*
X12336215Y-24526884D02*
X12221929Y-24526884D01*
X12279072Y-24526884D02*
X12279072Y-24326884D01*
X12279072Y-24326884D02*
X12260025Y-24355455D01*
X12260025Y-24355455D02*
X12240977Y-24374503D01*
X12240977Y-24374503D02*
X12221929Y-24384027D01*
X12450501Y-24412598D02*
X12431453Y-24403074D01*
X12431453Y-24403074D02*
X12421929Y-24393550D01*
X12421929Y-24393550D02*
X12412406Y-24374503D01*
X12412406Y-24374503D02*
X12412406Y-24364979D01*
X12412406Y-24364979D02*
X12421929Y-24345931D01*
X12421929Y-24345931D02*
X12431453Y-24336408D01*
X12431453Y-24336408D02*
X12450501Y-24326884D01*
X12450501Y-24326884D02*
X12488596Y-24326884D01*
X12488596Y-24326884D02*
X12507644Y-24336408D01*
X12507644Y-24336408D02*
X12517168Y-24345931D01*
X12517168Y-24345931D02*
X12526691Y-24364979D01*
X12526691Y-24364979D02*
X12526691Y-24374503D01*
X12526691Y-24374503D02*
X12517168Y-24393550D01*
X12517168Y-24393550D02*
X12507644Y-24403074D01*
X12507644Y-24403074D02*
X12488596Y-24412598D01*
X12488596Y-24412598D02*
X12450501Y-24412598D01*
X12450501Y-24412598D02*
X12431453Y-24422122D01*
X12431453Y-24422122D02*
X12421929Y-24431646D01*
X12421929Y-24431646D02*
X12412406Y-24450693D01*
X12412406Y-24450693D02*
X12412406Y-24488788D01*
X12412406Y-24488788D02*
X12421929Y-24507836D01*
X12421929Y-24507836D02*
X12431453Y-24517360D01*
X12431453Y-24517360D02*
X12450501Y-24526884D01*
X12450501Y-24526884D02*
X12488596Y-24526884D01*
X12488596Y-24526884D02*
X12507644Y-24517360D01*
X12507644Y-24517360D02*
X12517168Y-24507836D01*
X12517168Y-24507836D02*
X12526691Y-24488788D01*
X12526691Y-24488788D02*
X12526691Y-24450693D01*
X12526691Y-24450693D02*
X12517168Y-24431646D01*
X12517168Y-24431646D02*
X12507644Y-24422122D01*
X12507644Y-24422122D02*
X12488596Y-24412598D01*
X12640977Y-24412598D02*
X12621929Y-24403074D01*
X12621929Y-24403074D02*
X12612406Y-24393550D01*
X12612406Y-24393550D02*
X12602882Y-24374503D01*
X12602882Y-24374503D02*
X12602882Y-24364979D01*
X12602882Y-24364979D02*
X12612406Y-24345931D01*
X12612406Y-24345931D02*
X12621929Y-24336408D01*
X12621929Y-24336408D02*
X12640977Y-24326884D01*
X12640977Y-24326884D02*
X12679072Y-24326884D01*
X12679072Y-24326884D02*
X12698120Y-24336408D01*
X12698120Y-24336408D02*
X12707644Y-24345931D01*
X12707644Y-24345931D02*
X12717168Y-24364979D01*
X12717168Y-24364979D02*
X12717168Y-24374503D01*
X12717168Y-24374503D02*
X12707644Y-24393550D01*
X12707644Y-24393550D02*
X12698120Y-24403074D01*
X12698120Y-24403074D02*
X12679072Y-24412598D01*
X12679072Y-24412598D02*
X12640977Y-24412598D01*
X12640977Y-24412598D02*
X12621929Y-24422122D01*
X12621929Y-24422122D02*
X12612406Y-24431646D01*
X12612406Y-24431646D02*
X12602882Y-24450693D01*
X12602882Y-24450693D02*
X12602882Y-24488788D01*
X12602882Y-24488788D02*
X12612406Y-24507836D01*
X12612406Y-24507836D02*
X12621929Y-24517360D01*
X12621929Y-24517360D02*
X12640977Y-24526884D01*
X12640977Y-24526884D02*
X12679072Y-24526884D01*
X12679072Y-24526884D02*
X12698120Y-24517360D01*
X12698120Y-24517360D02*
X12707644Y-24507836D01*
X12707644Y-24507836D02*
X12717168Y-24488788D01*
X12717168Y-24488788D02*
X12717168Y-24450693D01*
X12717168Y-24450693D02*
X12707644Y-24431646D01*
X12707644Y-24431646D02*
X12698120Y-24422122D01*
X12698120Y-24422122D02*
X12679072Y-24412598D01*
X12955263Y-24526884D02*
X12955263Y-24326884D01*
X13040977Y-24526884D02*
X13040977Y-24422122D01*
X13040977Y-24422122D02*
X13031453Y-24403074D01*
X13031453Y-24403074D02*
X13012406Y-24393550D01*
X13012406Y-24393550D02*
X12983834Y-24393550D01*
X12983834Y-24393550D02*
X12964787Y-24403074D01*
X12964787Y-24403074D02*
X12955263Y-24412598D01*
X13164787Y-24526884D02*
X13145739Y-24517360D01*
X13145739Y-24517360D02*
X13136215Y-24507836D01*
X13136215Y-24507836D02*
X13126691Y-24488788D01*
X13126691Y-24488788D02*
X13126691Y-24431646D01*
X13126691Y-24431646D02*
X13136215Y-24412598D01*
X13136215Y-24412598D02*
X13145739Y-24403074D01*
X13145739Y-24403074D02*
X13164787Y-24393550D01*
X13164787Y-24393550D02*
X13193358Y-24393550D01*
X13193358Y-24393550D02*
X13212406Y-24403074D01*
X13212406Y-24403074D02*
X13221930Y-24412598D01*
X13221930Y-24412598D02*
X13231453Y-24431646D01*
X13231453Y-24431646D02*
X13231453Y-24488788D01*
X13231453Y-24488788D02*
X13221930Y-24507836D01*
X13221930Y-24507836D02*
X13212406Y-24517360D01*
X13212406Y-24517360D02*
X13193358Y-24526884D01*
X13193358Y-24526884D02*
X13164787Y-24526884D01*
X13345739Y-24526884D02*
X13326691Y-24517360D01*
X13326691Y-24517360D02*
X13317168Y-24498312D01*
X13317168Y-24498312D02*
X13317168Y-24326884D01*
X13498120Y-24517360D02*
X13479072Y-24526884D01*
X13479072Y-24526884D02*
X13440977Y-24526884D01*
X13440977Y-24526884D02*
X13421930Y-24517360D01*
X13421930Y-24517360D02*
X13412406Y-24498312D01*
X13412406Y-24498312D02*
X13412406Y-24422122D01*
X13412406Y-24422122D02*
X13421930Y-24403074D01*
X13421930Y-24403074D02*
X13440977Y-24393550D01*
X13440977Y-24393550D02*
X13479072Y-24393550D01*
X13479072Y-24393550D02*
X13498120Y-24403074D01*
X13498120Y-24403074D02*
X13507644Y-24422122D01*
X13507644Y-24422122D02*
X13507644Y-24441169D01*
X13507644Y-24441169D02*
X13412406Y-24460217D01*
X13583834Y-24517360D02*
X13602882Y-24526884D01*
X13602882Y-24526884D02*
X13640977Y-24526884D01*
X13640977Y-24526884D02*
X13660025Y-24517360D01*
X13660025Y-24517360D02*
X13669549Y-24498312D01*
X13669549Y-24498312D02*
X13669549Y-24488788D01*
X13669549Y-24488788D02*
X13660025Y-24469741D01*
X13660025Y-24469741D02*
X13640977Y-24460217D01*
X13640977Y-24460217D02*
X13612406Y-24460217D01*
X13612406Y-24460217D02*
X13593358Y-24450693D01*
X13593358Y-24450693D02*
X13583834Y-24431646D01*
X13583834Y-24431646D02*
X13583834Y-24422122D01*
X13583834Y-24422122D02*
X13593358Y-24403074D01*
X13593358Y-24403074D02*
X13612406Y-24393550D01*
X13612406Y-24393550D02*
X13640977Y-24393550D01*
X13640977Y-24393550D02*
X13660025Y-24403074D01*
X13736215Y-24603074D02*
X13745739Y-24593550D01*
X13745739Y-24593550D02*
X13764787Y-24564979D01*
X13764787Y-24564979D02*
X13774311Y-24545931D01*
X13774311Y-24545931D02*
X13783834Y-24517360D01*
X13783834Y-24517360D02*
X13793358Y-24469741D01*
X13793358Y-24469741D02*
X13793358Y-24431646D01*
X13793358Y-24431646D02*
X13783834Y-24384027D01*
X13783834Y-24384027D02*
X13774311Y-24355455D01*
X13774311Y-24355455D02*
X13764787Y-24336408D01*
X13764787Y-24336408D02*
X13745739Y-24307836D01*
X13745739Y-24307836D02*
X13736215Y-24298312D01*
X14098120Y-24603074D02*
X14088596Y-24593550D01*
X14088596Y-24593550D02*
X14069549Y-24564979D01*
X14069549Y-24564979D02*
X14060025Y-24545931D01*
X14060025Y-24545931D02*
X14050501Y-24517360D01*
X14050501Y-24517360D02*
X14040977Y-24469741D01*
X14040977Y-24469741D02*
X14040977Y-24431646D01*
X14040977Y-24431646D02*
X14050501Y-24384027D01*
X14050501Y-24384027D02*
X14060025Y-24355455D01*
X14060025Y-24355455D02*
X14069549Y-24336408D01*
X14069549Y-24336408D02*
X14088596Y-24307836D01*
X14088596Y-24307836D02*
X14098120Y-24298312D01*
X14174311Y-24393550D02*
X14174311Y-24526884D01*
X14174311Y-24412598D02*
X14183834Y-24403074D01*
X14183834Y-24403074D02*
X14202882Y-24393550D01*
X14202882Y-24393550D02*
X14231453Y-24393550D01*
X14231453Y-24393550D02*
X14250501Y-24403074D01*
X14250501Y-24403074D02*
X14260025Y-24422122D01*
X14260025Y-24422122D02*
X14260025Y-24526884D01*
X14383834Y-24526884D02*
X14364787Y-24517360D01*
X14364787Y-24517360D02*
X14355263Y-24507836D01*
X14355263Y-24507836D02*
X14345739Y-24488788D01*
X14345739Y-24488788D02*
X14345739Y-24431646D01*
X14345739Y-24431646D02*
X14355263Y-24412598D01*
X14355263Y-24412598D02*
X14364787Y-24403074D01*
X14364787Y-24403074D02*
X14383834Y-24393550D01*
X14383834Y-24393550D02*
X14412406Y-24393550D01*
X14412406Y-24393550D02*
X14431453Y-24403074D01*
X14431453Y-24403074D02*
X14440977Y-24412598D01*
X14440977Y-24412598D02*
X14450501Y-24431646D01*
X14450501Y-24431646D02*
X14450501Y-24488788D01*
X14450501Y-24488788D02*
X14440977Y-24507836D01*
X14440977Y-24507836D02*
X14431453Y-24517360D01*
X14431453Y-24517360D02*
X14412406Y-24526884D01*
X14412406Y-24526884D02*
X14383834Y-24526884D01*
X14507644Y-24393550D02*
X14583834Y-24393550D01*
X14536215Y-24326884D02*
X14536215Y-24498312D01*
X14536215Y-24498312D02*
X14545739Y-24517360D01*
X14545739Y-24517360D02*
X14564787Y-24526884D01*
X14564787Y-24526884D02*
X14583834Y-24526884D01*
X14802882Y-24393550D02*
X14802882Y-24593550D01*
X14802882Y-24403074D02*
X14821930Y-24393550D01*
X14821930Y-24393550D02*
X14860025Y-24393550D01*
X14860025Y-24393550D02*
X14879073Y-24403074D01*
X14879073Y-24403074D02*
X14888596Y-24412598D01*
X14888596Y-24412598D02*
X14898120Y-24431646D01*
X14898120Y-24431646D02*
X14898120Y-24488788D01*
X14898120Y-24488788D02*
X14888596Y-24507836D01*
X14888596Y-24507836D02*
X14879073Y-24517360D01*
X14879073Y-24517360D02*
X14860025Y-24526884D01*
X14860025Y-24526884D02*
X14821930Y-24526884D01*
X14821930Y-24526884D02*
X14802882Y-24517360D01*
X15012406Y-24526884D02*
X14993358Y-24517360D01*
X14993358Y-24517360D02*
X14983834Y-24498312D01*
X14983834Y-24498312D02*
X14983834Y-24326884D01*
X15174311Y-24526884D02*
X15174311Y-24422122D01*
X15174311Y-24422122D02*
X15164787Y-24403074D01*
X15164787Y-24403074D02*
X15145739Y-24393550D01*
X15145739Y-24393550D02*
X15107644Y-24393550D01*
X15107644Y-24393550D02*
X15088596Y-24403074D01*
X15174311Y-24517360D02*
X15155263Y-24526884D01*
X15155263Y-24526884D02*
X15107644Y-24526884D01*
X15107644Y-24526884D02*
X15088596Y-24517360D01*
X15088596Y-24517360D02*
X15079073Y-24498312D01*
X15079073Y-24498312D02*
X15079073Y-24479265D01*
X15079073Y-24479265D02*
X15088596Y-24460217D01*
X15088596Y-24460217D02*
X15107644Y-24450693D01*
X15107644Y-24450693D02*
X15155263Y-24450693D01*
X15155263Y-24450693D02*
X15174311Y-24441169D01*
X15240977Y-24393550D02*
X15317168Y-24393550D01*
X15269549Y-24326884D02*
X15269549Y-24498312D01*
X15269549Y-24498312D02*
X15279073Y-24517360D01*
X15279073Y-24517360D02*
X15298120Y-24526884D01*
X15298120Y-24526884D02*
X15317168Y-24526884D01*
X15460025Y-24517360D02*
X15440977Y-24526884D01*
X15440977Y-24526884D02*
X15402882Y-24526884D01*
X15402882Y-24526884D02*
X15383834Y-24517360D01*
X15383834Y-24517360D02*
X15374311Y-24498312D01*
X15374311Y-24498312D02*
X15374311Y-24422122D01*
X15374311Y-24422122D02*
X15383834Y-24403074D01*
X15383834Y-24403074D02*
X15402882Y-24393550D01*
X15402882Y-24393550D02*
X15440977Y-24393550D01*
X15440977Y-24393550D02*
X15460025Y-24403074D01*
X15460025Y-24403074D02*
X15469549Y-24422122D01*
X15469549Y-24422122D02*
X15469549Y-24441169D01*
X15469549Y-24441169D02*
X15374311Y-24460217D01*
X15640977Y-24526884D02*
X15640977Y-24326884D01*
X15640977Y-24517360D02*
X15621930Y-24526884D01*
X15621930Y-24526884D02*
X15583834Y-24526884D01*
X15583834Y-24526884D02*
X15564787Y-24517360D01*
X15564787Y-24517360D02*
X15555263Y-24507836D01*
X15555263Y-24507836D02*
X15545739Y-24488788D01*
X15545739Y-24488788D02*
X15545739Y-24431646D01*
X15545739Y-24431646D02*
X15555263Y-24412598D01*
X15555263Y-24412598D02*
X15564787Y-24403074D01*
X15564787Y-24403074D02*
X15583834Y-24393550D01*
X15583834Y-24393550D02*
X15621930Y-24393550D01*
X15621930Y-24393550D02*
X15640977Y-24403074D01*
X15717168Y-24603074D02*
X15726692Y-24593550D01*
X15726692Y-24593550D02*
X15745739Y-24564979D01*
X15745739Y-24564979D02*
X15755263Y-24545931D01*
X15755263Y-24545931D02*
X15764787Y-24517360D01*
X15764787Y-24517360D02*
X15774311Y-24469741D01*
X15774311Y-24469741D02*
X15774311Y-24431646D01*
X15774311Y-24431646D02*
X15764787Y-24384027D01*
X15764787Y-24384027D02*
X15755263Y-24355455D01*
X15755263Y-24355455D02*
X15745739Y-24336408D01*
X15745739Y-24336408D02*
X15726692Y-24307836D01*
X15726692Y-24307836D02*
X15717168Y-24298312D01*
D14*
X8490200Y-24635400D02*
X8490200Y-24815400D01*
X8400200Y-24725400D02*
X8580200Y-24725400D01*
D11*
X8945739Y-24816884D02*
X8831453Y-24816884D01*
X8888596Y-24816884D02*
X8888596Y-24616884D01*
X8888596Y-24616884D02*
X8869548Y-24645455D01*
X8869548Y-24645455D02*
X8850501Y-24664503D01*
X8850501Y-24664503D02*
X8831453Y-24674027D01*
X9031453Y-24797836D02*
X9040977Y-24807360D01*
X9040977Y-24807360D02*
X9031453Y-24816884D01*
X9031453Y-24816884D02*
X9021929Y-24807360D01*
X9021929Y-24807360D02*
X9031453Y-24797836D01*
X9031453Y-24797836D02*
X9031453Y-24816884D01*
X9155263Y-24702598D02*
X9136215Y-24693074D01*
X9136215Y-24693074D02*
X9126691Y-24683550D01*
X9126691Y-24683550D02*
X9117167Y-24664503D01*
X9117167Y-24664503D02*
X9117167Y-24654979D01*
X9117167Y-24654979D02*
X9126691Y-24635931D01*
X9126691Y-24635931D02*
X9136215Y-24626408D01*
X9136215Y-24626408D02*
X9155263Y-24616884D01*
X9155263Y-24616884D02*
X9193358Y-24616884D01*
X9193358Y-24616884D02*
X9212405Y-24626408D01*
X9212405Y-24626408D02*
X9221929Y-24635931D01*
X9221929Y-24635931D02*
X9231453Y-24654979D01*
X9231453Y-24654979D02*
X9231453Y-24664503D01*
X9231453Y-24664503D02*
X9221929Y-24683550D01*
X9221929Y-24683550D02*
X9212405Y-24693074D01*
X9212405Y-24693074D02*
X9193358Y-24702598D01*
X9193358Y-24702598D02*
X9155263Y-24702598D01*
X9155263Y-24702598D02*
X9136215Y-24712122D01*
X9136215Y-24712122D02*
X9126691Y-24721646D01*
X9126691Y-24721646D02*
X9117167Y-24740693D01*
X9117167Y-24740693D02*
X9117167Y-24778788D01*
X9117167Y-24778788D02*
X9126691Y-24797836D01*
X9126691Y-24797836D02*
X9136215Y-24807360D01*
X9136215Y-24807360D02*
X9155263Y-24816884D01*
X9155263Y-24816884D02*
X9193358Y-24816884D01*
X9193358Y-24816884D02*
X9212405Y-24807360D01*
X9212405Y-24807360D02*
X9221929Y-24797836D01*
X9221929Y-24797836D02*
X9231453Y-24778788D01*
X9231453Y-24778788D02*
X9231453Y-24740693D01*
X9231453Y-24740693D02*
X9221929Y-24721646D01*
X9221929Y-24721646D02*
X9212405Y-24712122D01*
X9212405Y-24712122D02*
X9193358Y-24702598D01*
X9355263Y-24616884D02*
X9374310Y-24616884D01*
X9374310Y-24616884D02*
X9393358Y-24626408D01*
X9393358Y-24626408D02*
X9402882Y-24635931D01*
X9402882Y-24635931D02*
X9412405Y-24654979D01*
X9412405Y-24654979D02*
X9421929Y-24693074D01*
X9421929Y-24693074D02*
X9421929Y-24740693D01*
X9421929Y-24740693D02*
X9412405Y-24778788D01*
X9412405Y-24778788D02*
X9402882Y-24797836D01*
X9402882Y-24797836D02*
X9393358Y-24807360D01*
X9393358Y-24807360D02*
X9374310Y-24816884D01*
X9374310Y-24816884D02*
X9355263Y-24816884D01*
X9355263Y-24816884D02*
X9336215Y-24807360D01*
X9336215Y-24807360D02*
X9326691Y-24797836D01*
X9326691Y-24797836D02*
X9317167Y-24778788D01*
X9317167Y-24778788D02*
X9307644Y-24740693D01*
X9307644Y-24740693D02*
X9307644Y-24693074D01*
X9307644Y-24693074D02*
X9317167Y-24654979D01*
X9317167Y-24654979D02*
X9326691Y-24635931D01*
X9326691Y-24635931D02*
X9336215Y-24626408D01*
X9336215Y-24626408D02*
X9355263Y-24616884D01*
X9545739Y-24616884D02*
X9564786Y-24616884D01*
X9564786Y-24616884D02*
X9583834Y-24626408D01*
X9583834Y-24626408D02*
X9593358Y-24635931D01*
X9593358Y-24635931D02*
X9602882Y-24654979D01*
X9602882Y-24654979D02*
X9612405Y-24693074D01*
X9612405Y-24693074D02*
X9612405Y-24740693D01*
X9612405Y-24740693D02*
X9602882Y-24778788D01*
X9602882Y-24778788D02*
X9593358Y-24797836D01*
X9593358Y-24797836D02*
X9583834Y-24807360D01*
X9583834Y-24807360D02*
X9564786Y-24816884D01*
X9564786Y-24816884D02*
X9545739Y-24816884D01*
X9545739Y-24816884D02*
X9526691Y-24807360D01*
X9526691Y-24807360D02*
X9517167Y-24797836D01*
X9517167Y-24797836D02*
X9507644Y-24778788D01*
X9507644Y-24778788D02*
X9498120Y-24740693D01*
X9498120Y-24740693D02*
X9498120Y-24693074D01*
X9498120Y-24693074D02*
X9507644Y-24654979D01*
X9507644Y-24654979D02*
X9517167Y-24635931D01*
X9517167Y-24635931D02*
X9526691Y-24626408D01*
X9526691Y-24626408D02*
X9545739Y-24616884D01*
X9698120Y-24816884D02*
X9698120Y-24683550D01*
X9698120Y-24702598D02*
X9707644Y-24693074D01*
X9707644Y-24693074D02*
X9726691Y-24683550D01*
X9726691Y-24683550D02*
X9755263Y-24683550D01*
X9755263Y-24683550D02*
X9774310Y-24693074D01*
X9774310Y-24693074D02*
X9783834Y-24712122D01*
X9783834Y-24712122D02*
X9783834Y-24816884D01*
X9783834Y-24712122D02*
X9793358Y-24693074D01*
X9793358Y-24693074D02*
X9812405Y-24683550D01*
X9812405Y-24683550D02*
X9840977Y-24683550D01*
X9840977Y-24683550D02*
X9860025Y-24693074D01*
X9860025Y-24693074D02*
X9869548Y-24712122D01*
X9869548Y-24712122D02*
X9869548Y-24816884D01*
X9964786Y-24816884D02*
X9964786Y-24683550D01*
X9964786Y-24702598D02*
X9974310Y-24693074D01*
X9974310Y-24693074D02*
X9993358Y-24683550D01*
X9993358Y-24683550D02*
X10021929Y-24683550D01*
X10021929Y-24683550D02*
X10040977Y-24693074D01*
X10040977Y-24693074D02*
X10050501Y-24712122D01*
X10050501Y-24712122D02*
X10050501Y-24816884D01*
X10050501Y-24712122D02*
X10060025Y-24693074D01*
X10060025Y-24693074D02*
X10079072Y-24683550D01*
X10079072Y-24683550D02*
X10107644Y-24683550D01*
X10107644Y-24683550D02*
X10126691Y-24693074D01*
X10126691Y-24693074D02*
X10136215Y-24712122D01*
X10136215Y-24712122D02*
X10136215Y-24816884D01*
X10526691Y-24607360D02*
X10355263Y-24864503D01*
X10783834Y-24616884D02*
X10802882Y-24616884D01*
X10802882Y-24616884D02*
X10821929Y-24626408D01*
X10821929Y-24626408D02*
X10831453Y-24635931D01*
X10831453Y-24635931D02*
X10840977Y-24654979D01*
X10840977Y-24654979D02*
X10850501Y-24693074D01*
X10850501Y-24693074D02*
X10850501Y-24740693D01*
X10850501Y-24740693D02*
X10840977Y-24778788D01*
X10840977Y-24778788D02*
X10831453Y-24797836D01*
X10831453Y-24797836D02*
X10821929Y-24807360D01*
X10821929Y-24807360D02*
X10802882Y-24816884D01*
X10802882Y-24816884D02*
X10783834Y-24816884D01*
X10783834Y-24816884D02*
X10764787Y-24807360D01*
X10764787Y-24807360D02*
X10755263Y-24797836D01*
X10755263Y-24797836D02*
X10745739Y-24778788D01*
X10745739Y-24778788D02*
X10736215Y-24740693D01*
X10736215Y-24740693D02*
X10736215Y-24693074D01*
X10736215Y-24693074D02*
X10745739Y-24654979D01*
X10745739Y-24654979D02*
X10755263Y-24635931D01*
X10755263Y-24635931D02*
X10764787Y-24626408D01*
X10764787Y-24626408D02*
X10783834Y-24616884D01*
X10936215Y-24797836D02*
X10945739Y-24807360D01*
X10945739Y-24807360D02*
X10936215Y-24816884D01*
X10936215Y-24816884D02*
X10926691Y-24807360D01*
X10926691Y-24807360D02*
X10936215Y-24797836D01*
X10936215Y-24797836D02*
X10936215Y-24816884D01*
X11069548Y-24616884D02*
X11088596Y-24616884D01*
X11088596Y-24616884D02*
X11107644Y-24626408D01*
X11107644Y-24626408D02*
X11117168Y-24635931D01*
X11117168Y-24635931D02*
X11126691Y-24654979D01*
X11126691Y-24654979D02*
X11136215Y-24693074D01*
X11136215Y-24693074D02*
X11136215Y-24740693D01*
X11136215Y-24740693D02*
X11126691Y-24778788D01*
X11126691Y-24778788D02*
X11117168Y-24797836D01*
X11117168Y-24797836D02*
X11107644Y-24807360D01*
X11107644Y-24807360D02*
X11088596Y-24816884D01*
X11088596Y-24816884D02*
X11069548Y-24816884D01*
X11069548Y-24816884D02*
X11050501Y-24807360D01*
X11050501Y-24807360D02*
X11040977Y-24797836D01*
X11040977Y-24797836D02*
X11031453Y-24778788D01*
X11031453Y-24778788D02*
X11021929Y-24740693D01*
X11021929Y-24740693D02*
X11021929Y-24693074D01*
X11021929Y-24693074D02*
X11031453Y-24654979D01*
X11031453Y-24654979D02*
X11040977Y-24635931D01*
X11040977Y-24635931D02*
X11050501Y-24626408D01*
X11050501Y-24626408D02*
X11069548Y-24616884D01*
X11202882Y-24616884D02*
X11336215Y-24616884D01*
X11336215Y-24616884D02*
X11250501Y-24816884D01*
X11450501Y-24616884D02*
X11469548Y-24616884D01*
X11469548Y-24616884D02*
X11488596Y-24626408D01*
X11488596Y-24626408D02*
X11498120Y-24635931D01*
X11498120Y-24635931D02*
X11507644Y-24654979D01*
X11507644Y-24654979D02*
X11517167Y-24693074D01*
X11517167Y-24693074D02*
X11517167Y-24740693D01*
X11517167Y-24740693D02*
X11507644Y-24778788D01*
X11507644Y-24778788D02*
X11498120Y-24797836D01*
X11498120Y-24797836D02*
X11488596Y-24807360D01*
X11488596Y-24807360D02*
X11469548Y-24816884D01*
X11469548Y-24816884D02*
X11450501Y-24816884D01*
X11450501Y-24816884D02*
X11431453Y-24807360D01*
X11431453Y-24807360D02*
X11421929Y-24797836D01*
X11421929Y-24797836D02*
X11412406Y-24778788D01*
X11412406Y-24778788D02*
X11402882Y-24740693D01*
X11402882Y-24740693D02*
X11402882Y-24693074D01*
X11402882Y-24693074D02*
X11412406Y-24654979D01*
X11412406Y-24654979D02*
X11421929Y-24635931D01*
X11421929Y-24635931D02*
X11431453Y-24626408D01*
X11431453Y-24626408D02*
X11450501Y-24616884D01*
X11612406Y-24816884D02*
X11650501Y-24816884D01*
X11650501Y-24816884D02*
X11669548Y-24807360D01*
X11669548Y-24807360D02*
X11679072Y-24797836D01*
X11679072Y-24797836D02*
X11698120Y-24769265D01*
X11698120Y-24769265D02*
X11707644Y-24731169D01*
X11707644Y-24731169D02*
X11707644Y-24654979D01*
X11707644Y-24654979D02*
X11698120Y-24635931D01*
X11698120Y-24635931D02*
X11688596Y-24626408D01*
X11688596Y-24626408D02*
X11669548Y-24616884D01*
X11669548Y-24616884D02*
X11631453Y-24616884D01*
X11631453Y-24616884D02*
X11612406Y-24626408D01*
X11612406Y-24626408D02*
X11602882Y-24635931D01*
X11602882Y-24635931D02*
X11593358Y-24654979D01*
X11593358Y-24654979D02*
X11593358Y-24702598D01*
X11593358Y-24702598D02*
X11602882Y-24721646D01*
X11602882Y-24721646D02*
X11612406Y-24731169D01*
X11612406Y-24731169D02*
X11631453Y-24740693D01*
X11631453Y-24740693D02*
X11669548Y-24740693D01*
X11669548Y-24740693D02*
X11688596Y-24731169D01*
X11688596Y-24731169D02*
X11698120Y-24721646D01*
X11698120Y-24721646D02*
X11707644Y-24702598D01*
X11783834Y-24616884D02*
X11783834Y-24654979D01*
X11860025Y-24616884D02*
X11860025Y-24654979D01*
X12155263Y-24893074D02*
X12145739Y-24883550D01*
X12145739Y-24883550D02*
X12126691Y-24854979D01*
X12126691Y-24854979D02*
X12117168Y-24835931D01*
X12117168Y-24835931D02*
X12107644Y-24807360D01*
X12107644Y-24807360D02*
X12098120Y-24759741D01*
X12098120Y-24759741D02*
X12098120Y-24721646D01*
X12098120Y-24721646D02*
X12107644Y-24674027D01*
X12107644Y-24674027D02*
X12117168Y-24645455D01*
X12117168Y-24645455D02*
X12126691Y-24626408D01*
X12126691Y-24626408D02*
X12145739Y-24597836D01*
X12145739Y-24597836D02*
X12155263Y-24588312D01*
X12317168Y-24683550D02*
X12317168Y-24816884D01*
X12269548Y-24607360D02*
X12221929Y-24750217D01*
X12221929Y-24750217D02*
X12345739Y-24750217D01*
X12574310Y-24816884D02*
X12574310Y-24616884D01*
X12660025Y-24816884D02*
X12660025Y-24712122D01*
X12660025Y-24712122D02*
X12650501Y-24693074D01*
X12650501Y-24693074D02*
X12631453Y-24683550D01*
X12631453Y-24683550D02*
X12602882Y-24683550D01*
X12602882Y-24683550D02*
X12583834Y-24693074D01*
X12583834Y-24693074D02*
X12574310Y-24702598D01*
X12783834Y-24816884D02*
X12764787Y-24807360D01*
X12764787Y-24807360D02*
X12755263Y-24797836D01*
X12755263Y-24797836D02*
X12745739Y-24778788D01*
X12745739Y-24778788D02*
X12745739Y-24721646D01*
X12745739Y-24721646D02*
X12755263Y-24702598D01*
X12755263Y-24702598D02*
X12764787Y-24693074D01*
X12764787Y-24693074D02*
X12783834Y-24683550D01*
X12783834Y-24683550D02*
X12812406Y-24683550D01*
X12812406Y-24683550D02*
X12831453Y-24693074D01*
X12831453Y-24693074D02*
X12840977Y-24702598D01*
X12840977Y-24702598D02*
X12850501Y-24721646D01*
X12850501Y-24721646D02*
X12850501Y-24778788D01*
X12850501Y-24778788D02*
X12840977Y-24797836D01*
X12840977Y-24797836D02*
X12831453Y-24807360D01*
X12831453Y-24807360D02*
X12812406Y-24816884D01*
X12812406Y-24816884D02*
X12783834Y-24816884D01*
X12964787Y-24816884D02*
X12945739Y-24807360D01*
X12945739Y-24807360D02*
X12936215Y-24788312D01*
X12936215Y-24788312D02*
X12936215Y-24616884D01*
X13117168Y-24807360D02*
X13098120Y-24816884D01*
X13098120Y-24816884D02*
X13060025Y-24816884D01*
X13060025Y-24816884D02*
X13040977Y-24807360D01*
X13040977Y-24807360D02*
X13031453Y-24788312D01*
X13031453Y-24788312D02*
X13031453Y-24712122D01*
X13031453Y-24712122D02*
X13040977Y-24693074D01*
X13040977Y-24693074D02*
X13060025Y-24683550D01*
X13060025Y-24683550D02*
X13098120Y-24683550D01*
X13098120Y-24683550D02*
X13117168Y-24693074D01*
X13117168Y-24693074D02*
X13126691Y-24712122D01*
X13126691Y-24712122D02*
X13126691Y-24731169D01*
X13126691Y-24731169D02*
X13031453Y-24750217D01*
X13202882Y-24807360D02*
X13221930Y-24816884D01*
X13221930Y-24816884D02*
X13260025Y-24816884D01*
X13260025Y-24816884D02*
X13279072Y-24807360D01*
X13279072Y-24807360D02*
X13288596Y-24788312D01*
X13288596Y-24788312D02*
X13288596Y-24778788D01*
X13288596Y-24778788D02*
X13279072Y-24759741D01*
X13279072Y-24759741D02*
X13260025Y-24750217D01*
X13260025Y-24750217D02*
X13231453Y-24750217D01*
X13231453Y-24750217D02*
X13212406Y-24740693D01*
X13212406Y-24740693D02*
X13202882Y-24721646D01*
X13202882Y-24721646D02*
X13202882Y-24712122D01*
X13202882Y-24712122D02*
X13212406Y-24693074D01*
X13212406Y-24693074D02*
X13231453Y-24683550D01*
X13231453Y-24683550D02*
X13260025Y-24683550D01*
X13260025Y-24683550D02*
X13279072Y-24693074D01*
X13355263Y-24893074D02*
X13364787Y-24883550D01*
X13364787Y-24883550D02*
X13383834Y-24854979D01*
X13383834Y-24854979D02*
X13393358Y-24835931D01*
X13393358Y-24835931D02*
X13402882Y-24807360D01*
X13402882Y-24807360D02*
X13412406Y-24759741D01*
X13412406Y-24759741D02*
X13412406Y-24721646D01*
X13412406Y-24721646D02*
X13402882Y-24674027D01*
X13402882Y-24674027D02*
X13393358Y-24645455D01*
X13393358Y-24645455D02*
X13383834Y-24626408D01*
X13383834Y-24626408D02*
X13364787Y-24597836D01*
X13364787Y-24597836D02*
X13355263Y-24588312D01*
X13717168Y-24893074D02*
X13707644Y-24883550D01*
X13707644Y-24883550D02*
X13688596Y-24854979D01*
X13688596Y-24854979D02*
X13679072Y-24835931D01*
X13679072Y-24835931D02*
X13669549Y-24807360D01*
X13669549Y-24807360D02*
X13660025Y-24759741D01*
X13660025Y-24759741D02*
X13660025Y-24721646D01*
X13660025Y-24721646D02*
X13669549Y-24674027D01*
X13669549Y-24674027D02*
X13679072Y-24645455D01*
X13679072Y-24645455D02*
X13688596Y-24626408D01*
X13688596Y-24626408D02*
X13707644Y-24597836D01*
X13707644Y-24597836D02*
X13717168Y-24588312D01*
X13793358Y-24683550D02*
X13793358Y-24816884D01*
X13793358Y-24702598D02*
X13802882Y-24693074D01*
X13802882Y-24693074D02*
X13821930Y-24683550D01*
X13821930Y-24683550D02*
X13850501Y-24683550D01*
X13850501Y-24683550D02*
X13869549Y-24693074D01*
X13869549Y-24693074D02*
X13879072Y-24712122D01*
X13879072Y-24712122D02*
X13879072Y-24816884D01*
X14002882Y-24816884D02*
X13983834Y-24807360D01*
X13983834Y-24807360D02*
X13974311Y-24797836D01*
X13974311Y-24797836D02*
X13964787Y-24778788D01*
X13964787Y-24778788D02*
X13964787Y-24721646D01*
X13964787Y-24721646D02*
X13974311Y-24702598D01*
X13974311Y-24702598D02*
X13983834Y-24693074D01*
X13983834Y-24693074D02*
X14002882Y-24683550D01*
X14002882Y-24683550D02*
X14031453Y-24683550D01*
X14031453Y-24683550D02*
X14050501Y-24693074D01*
X14050501Y-24693074D02*
X14060025Y-24702598D01*
X14060025Y-24702598D02*
X14069549Y-24721646D01*
X14069549Y-24721646D02*
X14069549Y-24778788D01*
X14069549Y-24778788D02*
X14060025Y-24797836D01*
X14060025Y-24797836D02*
X14050501Y-24807360D01*
X14050501Y-24807360D02*
X14031453Y-24816884D01*
X14031453Y-24816884D02*
X14002882Y-24816884D01*
X14126692Y-24683550D02*
X14202882Y-24683550D01*
X14155263Y-24616884D02*
X14155263Y-24788312D01*
X14155263Y-24788312D02*
X14164787Y-24807360D01*
X14164787Y-24807360D02*
X14183834Y-24816884D01*
X14183834Y-24816884D02*
X14202882Y-24816884D01*
X14421930Y-24683550D02*
X14421930Y-24883550D01*
X14421930Y-24693074D02*
X14440977Y-24683550D01*
X14440977Y-24683550D02*
X14479073Y-24683550D01*
X14479073Y-24683550D02*
X14498120Y-24693074D01*
X14498120Y-24693074D02*
X14507644Y-24702598D01*
X14507644Y-24702598D02*
X14517168Y-24721646D01*
X14517168Y-24721646D02*
X14517168Y-24778788D01*
X14517168Y-24778788D02*
X14507644Y-24797836D01*
X14507644Y-24797836D02*
X14498120Y-24807360D01*
X14498120Y-24807360D02*
X14479073Y-24816884D01*
X14479073Y-24816884D02*
X14440977Y-24816884D01*
X14440977Y-24816884D02*
X14421930Y-24807360D01*
X14631453Y-24816884D02*
X14612406Y-24807360D01*
X14612406Y-24807360D02*
X14602882Y-24788312D01*
X14602882Y-24788312D02*
X14602882Y-24616884D01*
X14793358Y-24816884D02*
X14793358Y-24712122D01*
X14793358Y-24712122D02*
X14783834Y-24693074D01*
X14783834Y-24693074D02*
X14764787Y-24683550D01*
X14764787Y-24683550D02*
X14726692Y-24683550D01*
X14726692Y-24683550D02*
X14707644Y-24693074D01*
X14793358Y-24807360D02*
X14774311Y-24816884D01*
X14774311Y-24816884D02*
X14726692Y-24816884D01*
X14726692Y-24816884D02*
X14707644Y-24807360D01*
X14707644Y-24807360D02*
X14698120Y-24788312D01*
X14698120Y-24788312D02*
X14698120Y-24769265D01*
X14698120Y-24769265D02*
X14707644Y-24750217D01*
X14707644Y-24750217D02*
X14726692Y-24740693D01*
X14726692Y-24740693D02*
X14774311Y-24740693D01*
X14774311Y-24740693D02*
X14793358Y-24731169D01*
X14860025Y-24683550D02*
X14936215Y-24683550D01*
X14888596Y-24616884D02*
X14888596Y-24788312D01*
X14888596Y-24788312D02*
X14898120Y-24807360D01*
X14898120Y-24807360D02*
X14917168Y-24816884D01*
X14917168Y-24816884D02*
X14936215Y-24816884D01*
X15079073Y-24807360D02*
X15060025Y-24816884D01*
X15060025Y-24816884D02*
X15021930Y-24816884D01*
X15021930Y-24816884D02*
X15002882Y-24807360D01*
X15002882Y-24807360D02*
X14993358Y-24788312D01*
X14993358Y-24788312D02*
X14993358Y-24712122D01*
X14993358Y-24712122D02*
X15002882Y-24693074D01*
X15002882Y-24693074D02*
X15021930Y-24683550D01*
X15021930Y-24683550D02*
X15060025Y-24683550D01*
X15060025Y-24683550D02*
X15079073Y-24693074D01*
X15079073Y-24693074D02*
X15088596Y-24712122D01*
X15088596Y-24712122D02*
X15088596Y-24731169D01*
X15088596Y-24731169D02*
X14993358Y-24750217D01*
X15260025Y-24816884D02*
X15260025Y-24616884D01*
X15260025Y-24807360D02*
X15240977Y-24816884D01*
X15240977Y-24816884D02*
X15202882Y-24816884D01*
X15202882Y-24816884D02*
X15183834Y-24807360D01*
X15183834Y-24807360D02*
X15174311Y-24797836D01*
X15174311Y-24797836D02*
X15164787Y-24778788D01*
X15164787Y-24778788D02*
X15164787Y-24721646D01*
X15164787Y-24721646D02*
X15174311Y-24702598D01*
X15174311Y-24702598D02*
X15183834Y-24693074D01*
X15183834Y-24693074D02*
X15202882Y-24683550D01*
X15202882Y-24683550D02*
X15240977Y-24683550D01*
X15240977Y-24683550D02*
X15260025Y-24693074D01*
X15336215Y-24893074D02*
X15345739Y-24883550D01*
X15345739Y-24883550D02*
X15364787Y-24854979D01*
X15364787Y-24854979D02*
X15374311Y-24835931D01*
X15374311Y-24835931D02*
X15383834Y-24807360D01*
X15383834Y-24807360D02*
X15393358Y-24759741D01*
X15393358Y-24759741D02*
X15393358Y-24721646D01*
X15393358Y-24721646D02*
X15383834Y-24674027D01*
X15383834Y-24674027D02*
X15374311Y-24645455D01*
X15374311Y-24645455D02*
X15364787Y-24626408D01*
X15364787Y-24626408D02*
X15345739Y-24597836D01*
X15345739Y-24597836D02*
X15336215Y-24588312D01*
X8550911Y-25096111D02*
X8550911Y-24954689D01*
X8409489Y-24954689D01*
X8409489Y-25096111D01*
X8550911Y-25096111D01*
X8926691Y-24983550D02*
X8926691Y-25116884D01*
X8879072Y-24907360D02*
X8831453Y-25050217D01*
X8831453Y-25050217D02*
X8955263Y-25050217D01*
X9031453Y-25097836D02*
X9040977Y-25107360D01*
X9040977Y-25107360D02*
X9031453Y-25116884D01*
X9031453Y-25116884D02*
X9021929Y-25107360D01*
X9021929Y-25107360D02*
X9031453Y-25097836D01*
X9031453Y-25097836D02*
X9031453Y-25116884D01*
X9164786Y-24916884D02*
X9183834Y-24916884D01*
X9183834Y-24916884D02*
X9202882Y-24926408D01*
X9202882Y-24926408D02*
X9212405Y-24935931D01*
X9212405Y-24935931D02*
X9221929Y-24954979D01*
X9221929Y-24954979D02*
X9231453Y-24993074D01*
X9231453Y-24993074D02*
X9231453Y-25040693D01*
X9231453Y-25040693D02*
X9221929Y-25078788D01*
X9221929Y-25078788D02*
X9212405Y-25097836D01*
X9212405Y-25097836D02*
X9202882Y-25107360D01*
X9202882Y-25107360D02*
X9183834Y-25116884D01*
X9183834Y-25116884D02*
X9164786Y-25116884D01*
X9164786Y-25116884D02*
X9145739Y-25107360D01*
X9145739Y-25107360D02*
X9136215Y-25097836D01*
X9136215Y-25097836D02*
X9126691Y-25078788D01*
X9126691Y-25078788D02*
X9117167Y-25040693D01*
X9117167Y-25040693D02*
X9117167Y-24993074D01*
X9117167Y-24993074D02*
X9126691Y-24954979D01*
X9126691Y-24954979D02*
X9136215Y-24935931D01*
X9136215Y-24935931D02*
X9145739Y-24926408D01*
X9145739Y-24926408D02*
X9164786Y-24916884D01*
X9355263Y-24916884D02*
X9374310Y-24916884D01*
X9374310Y-24916884D02*
X9393358Y-24926408D01*
X9393358Y-24926408D02*
X9402882Y-24935931D01*
X9402882Y-24935931D02*
X9412405Y-24954979D01*
X9412405Y-24954979D02*
X9421929Y-24993074D01*
X9421929Y-24993074D02*
X9421929Y-25040693D01*
X9421929Y-25040693D02*
X9412405Y-25078788D01*
X9412405Y-25078788D02*
X9402882Y-25097836D01*
X9402882Y-25097836D02*
X9393358Y-25107360D01*
X9393358Y-25107360D02*
X9374310Y-25116884D01*
X9374310Y-25116884D02*
X9355263Y-25116884D01*
X9355263Y-25116884D02*
X9336215Y-25107360D01*
X9336215Y-25107360D02*
X9326691Y-25097836D01*
X9326691Y-25097836D02*
X9317167Y-25078788D01*
X9317167Y-25078788D02*
X9307644Y-25040693D01*
X9307644Y-25040693D02*
X9307644Y-24993074D01*
X9307644Y-24993074D02*
X9317167Y-24954979D01*
X9317167Y-24954979D02*
X9326691Y-24935931D01*
X9326691Y-24935931D02*
X9336215Y-24926408D01*
X9336215Y-24926408D02*
X9355263Y-24916884D01*
X9545739Y-24916884D02*
X9564786Y-24916884D01*
X9564786Y-24916884D02*
X9583834Y-24926408D01*
X9583834Y-24926408D02*
X9593358Y-24935931D01*
X9593358Y-24935931D02*
X9602882Y-24954979D01*
X9602882Y-24954979D02*
X9612405Y-24993074D01*
X9612405Y-24993074D02*
X9612405Y-25040693D01*
X9612405Y-25040693D02*
X9602882Y-25078788D01*
X9602882Y-25078788D02*
X9593358Y-25097836D01*
X9593358Y-25097836D02*
X9583834Y-25107360D01*
X9583834Y-25107360D02*
X9564786Y-25116884D01*
X9564786Y-25116884D02*
X9545739Y-25116884D01*
X9545739Y-25116884D02*
X9526691Y-25107360D01*
X9526691Y-25107360D02*
X9517167Y-25097836D01*
X9517167Y-25097836D02*
X9507644Y-25078788D01*
X9507644Y-25078788D02*
X9498120Y-25040693D01*
X9498120Y-25040693D02*
X9498120Y-24993074D01*
X9498120Y-24993074D02*
X9507644Y-24954979D01*
X9507644Y-24954979D02*
X9517167Y-24935931D01*
X9517167Y-24935931D02*
X9526691Y-24926408D01*
X9526691Y-24926408D02*
X9545739Y-24916884D01*
X9698120Y-25116884D02*
X9698120Y-24983550D01*
X9698120Y-25002598D02*
X9707644Y-24993074D01*
X9707644Y-24993074D02*
X9726691Y-24983550D01*
X9726691Y-24983550D02*
X9755263Y-24983550D01*
X9755263Y-24983550D02*
X9774310Y-24993074D01*
X9774310Y-24993074D02*
X9783834Y-25012122D01*
X9783834Y-25012122D02*
X9783834Y-25116884D01*
X9783834Y-25012122D02*
X9793358Y-24993074D01*
X9793358Y-24993074D02*
X9812405Y-24983550D01*
X9812405Y-24983550D02*
X9840977Y-24983550D01*
X9840977Y-24983550D02*
X9860025Y-24993074D01*
X9860025Y-24993074D02*
X9869548Y-25012122D01*
X9869548Y-25012122D02*
X9869548Y-25116884D01*
X9964786Y-25116884D02*
X9964786Y-24983550D01*
X9964786Y-25002598D02*
X9974310Y-24993074D01*
X9974310Y-24993074D02*
X9993358Y-24983550D01*
X9993358Y-24983550D02*
X10021929Y-24983550D01*
X10021929Y-24983550D02*
X10040977Y-24993074D01*
X10040977Y-24993074D02*
X10050501Y-25012122D01*
X10050501Y-25012122D02*
X10050501Y-25116884D01*
X10050501Y-25012122D02*
X10060025Y-24993074D01*
X10060025Y-24993074D02*
X10079072Y-24983550D01*
X10079072Y-24983550D02*
X10107644Y-24983550D01*
X10107644Y-24983550D02*
X10126691Y-24993074D01*
X10126691Y-24993074D02*
X10136215Y-25012122D01*
X10136215Y-25012122D02*
X10136215Y-25116884D01*
X10526691Y-24907360D02*
X10355263Y-25164503D01*
X10783834Y-24916884D02*
X10802882Y-24916884D01*
X10802882Y-24916884D02*
X10821929Y-24926408D01*
X10821929Y-24926408D02*
X10831453Y-24935931D01*
X10831453Y-24935931D02*
X10840977Y-24954979D01*
X10840977Y-24954979D02*
X10850501Y-24993074D01*
X10850501Y-24993074D02*
X10850501Y-25040693D01*
X10850501Y-25040693D02*
X10840977Y-25078788D01*
X10840977Y-25078788D02*
X10831453Y-25097836D01*
X10831453Y-25097836D02*
X10821929Y-25107360D01*
X10821929Y-25107360D02*
X10802882Y-25116884D01*
X10802882Y-25116884D02*
X10783834Y-25116884D01*
X10783834Y-25116884D02*
X10764787Y-25107360D01*
X10764787Y-25107360D02*
X10755263Y-25097836D01*
X10755263Y-25097836D02*
X10745739Y-25078788D01*
X10745739Y-25078788D02*
X10736215Y-25040693D01*
X10736215Y-25040693D02*
X10736215Y-24993074D01*
X10736215Y-24993074D02*
X10745739Y-24954979D01*
X10745739Y-24954979D02*
X10755263Y-24935931D01*
X10755263Y-24935931D02*
X10764787Y-24926408D01*
X10764787Y-24926408D02*
X10783834Y-24916884D01*
X10936215Y-25097836D02*
X10945739Y-25107360D01*
X10945739Y-25107360D02*
X10936215Y-25116884D01*
X10936215Y-25116884D02*
X10926691Y-25107360D01*
X10926691Y-25107360D02*
X10936215Y-25097836D01*
X10936215Y-25097836D02*
X10936215Y-25116884D01*
X11136215Y-25116884D02*
X11021929Y-25116884D01*
X11079072Y-25116884D02*
X11079072Y-24916884D01*
X11079072Y-24916884D02*
X11060025Y-24945455D01*
X11060025Y-24945455D02*
X11040977Y-24964503D01*
X11040977Y-24964503D02*
X11021929Y-24974027D01*
X11317167Y-24916884D02*
X11221929Y-24916884D01*
X11221929Y-24916884D02*
X11212406Y-25012122D01*
X11212406Y-25012122D02*
X11221929Y-25002598D01*
X11221929Y-25002598D02*
X11240977Y-24993074D01*
X11240977Y-24993074D02*
X11288596Y-24993074D01*
X11288596Y-24993074D02*
X11307644Y-25002598D01*
X11307644Y-25002598D02*
X11317167Y-25012122D01*
X11317167Y-25012122D02*
X11326691Y-25031169D01*
X11326691Y-25031169D02*
X11326691Y-25078788D01*
X11326691Y-25078788D02*
X11317167Y-25097836D01*
X11317167Y-25097836D02*
X11307644Y-25107360D01*
X11307644Y-25107360D02*
X11288596Y-25116884D01*
X11288596Y-25116884D02*
X11240977Y-25116884D01*
X11240977Y-25116884D02*
X11221929Y-25107360D01*
X11221929Y-25107360D02*
X11212406Y-25097836D01*
X11393358Y-24916884D02*
X11526691Y-24916884D01*
X11526691Y-24916884D02*
X11440977Y-25116884D01*
X11698120Y-24916884D02*
X11602882Y-24916884D01*
X11602882Y-24916884D02*
X11593358Y-25012122D01*
X11593358Y-25012122D02*
X11602882Y-25002598D01*
X11602882Y-25002598D02*
X11621929Y-24993074D01*
X11621929Y-24993074D02*
X11669548Y-24993074D01*
X11669548Y-24993074D02*
X11688596Y-25002598D01*
X11688596Y-25002598D02*
X11698120Y-25012122D01*
X11698120Y-25012122D02*
X11707644Y-25031169D01*
X11707644Y-25031169D02*
X11707644Y-25078788D01*
X11707644Y-25078788D02*
X11698120Y-25097836D01*
X11698120Y-25097836D02*
X11688596Y-25107360D01*
X11688596Y-25107360D02*
X11669548Y-25116884D01*
X11669548Y-25116884D02*
X11621929Y-25116884D01*
X11621929Y-25116884D02*
X11602882Y-25107360D01*
X11602882Y-25107360D02*
X11593358Y-25097836D01*
X11783834Y-24916884D02*
X11783834Y-24954979D01*
X11860025Y-24916884D02*
X11860025Y-24954979D01*
X12155263Y-25193074D02*
X12145739Y-25183550D01*
X12145739Y-25183550D02*
X12126691Y-25154979D01*
X12126691Y-25154979D02*
X12117168Y-25135931D01*
X12117168Y-25135931D02*
X12107644Y-25107360D01*
X12107644Y-25107360D02*
X12098120Y-25059741D01*
X12098120Y-25059741D02*
X12098120Y-25021646D01*
X12098120Y-25021646D02*
X12107644Y-24974027D01*
X12107644Y-24974027D02*
X12117168Y-24945455D01*
X12117168Y-24945455D02*
X12126691Y-24926408D01*
X12126691Y-24926408D02*
X12145739Y-24897836D01*
X12145739Y-24897836D02*
X12155263Y-24888312D01*
X12240977Y-25116884D02*
X12279072Y-25116884D01*
X12279072Y-25116884D02*
X12298120Y-25107360D01*
X12298120Y-25107360D02*
X12307644Y-25097836D01*
X12307644Y-25097836D02*
X12326691Y-25069265D01*
X12326691Y-25069265D02*
X12336215Y-25031169D01*
X12336215Y-25031169D02*
X12336215Y-24954979D01*
X12336215Y-24954979D02*
X12326691Y-24935931D01*
X12326691Y-24935931D02*
X12317168Y-24926408D01*
X12317168Y-24926408D02*
X12298120Y-24916884D01*
X12298120Y-24916884D02*
X12260025Y-24916884D01*
X12260025Y-24916884D02*
X12240977Y-24926408D01*
X12240977Y-24926408D02*
X12231453Y-24935931D01*
X12231453Y-24935931D02*
X12221929Y-24954979D01*
X12221929Y-24954979D02*
X12221929Y-25002598D01*
X12221929Y-25002598D02*
X12231453Y-25021646D01*
X12231453Y-25021646D02*
X12240977Y-25031169D01*
X12240977Y-25031169D02*
X12260025Y-25040693D01*
X12260025Y-25040693D02*
X12298120Y-25040693D01*
X12298120Y-25040693D02*
X12317168Y-25031169D01*
X12317168Y-25031169D02*
X12326691Y-25021646D01*
X12326691Y-25021646D02*
X12336215Y-25002598D01*
X12507644Y-24983550D02*
X12507644Y-25116884D01*
X12460025Y-24907360D02*
X12412406Y-25050217D01*
X12412406Y-25050217D02*
X12536215Y-25050217D01*
X12764787Y-25116884D02*
X12764787Y-24916884D01*
X12850501Y-25116884D02*
X12850501Y-25012122D01*
X12850501Y-25012122D02*
X12840977Y-24993074D01*
X12840977Y-24993074D02*
X12821930Y-24983550D01*
X12821930Y-24983550D02*
X12793358Y-24983550D01*
X12793358Y-24983550D02*
X12774310Y-24993074D01*
X12774310Y-24993074D02*
X12764787Y-25002598D01*
X12974310Y-25116884D02*
X12955263Y-25107360D01*
X12955263Y-25107360D02*
X12945739Y-25097836D01*
X12945739Y-25097836D02*
X12936215Y-25078788D01*
X12936215Y-25078788D02*
X12936215Y-25021646D01*
X12936215Y-25021646D02*
X12945739Y-25002598D01*
X12945739Y-25002598D02*
X12955263Y-24993074D01*
X12955263Y-24993074D02*
X12974310Y-24983550D01*
X12974310Y-24983550D02*
X13002882Y-24983550D01*
X13002882Y-24983550D02*
X13021930Y-24993074D01*
X13021930Y-24993074D02*
X13031453Y-25002598D01*
X13031453Y-25002598D02*
X13040977Y-25021646D01*
X13040977Y-25021646D02*
X13040977Y-25078788D01*
X13040977Y-25078788D02*
X13031453Y-25097836D01*
X13031453Y-25097836D02*
X13021930Y-25107360D01*
X13021930Y-25107360D02*
X13002882Y-25116884D01*
X13002882Y-25116884D02*
X12974310Y-25116884D01*
X13155263Y-25116884D02*
X13136215Y-25107360D01*
X13136215Y-25107360D02*
X13126691Y-25088312D01*
X13126691Y-25088312D02*
X13126691Y-24916884D01*
X13307644Y-25107360D02*
X13288596Y-25116884D01*
X13288596Y-25116884D02*
X13250501Y-25116884D01*
X13250501Y-25116884D02*
X13231453Y-25107360D01*
X13231453Y-25107360D02*
X13221930Y-25088312D01*
X13221930Y-25088312D02*
X13221930Y-25012122D01*
X13221930Y-25012122D02*
X13231453Y-24993074D01*
X13231453Y-24993074D02*
X13250501Y-24983550D01*
X13250501Y-24983550D02*
X13288596Y-24983550D01*
X13288596Y-24983550D02*
X13307644Y-24993074D01*
X13307644Y-24993074D02*
X13317168Y-25012122D01*
X13317168Y-25012122D02*
X13317168Y-25031169D01*
X13317168Y-25031169D02*
X13221930Y-25050217D01*
X13393358Y-25107360D02*
X13412406Y-25116884D01*
X13412406Y-25116884D02*
X13450501Y-25116884D01*
X13450501Y-25116884D02*
X13469549Y-25107360D01*
X13469549Y-25107360D02*
X13479072Y-25088312D01*
X13479072Y-25088312D02*
X13479072Y-25078788D01*
X13479072Y-25078788D02*
X13469549Y-25059741D01*
X13469549Y-25059741D02*
X13450501Y-25050217D01*
X13450501Y-25050217D02*
X13421930Y-25050217D01*
X13421930Y-25050217D02*
X13402882Y-25040693D01*
X13402882Y-25040693D02*
X13393358Y-25021646D01*
X13393358Y-25021646D02*
X13393358Y-25012122D01*
X13393358Y-25012122D02*
X13402882Y-24993074D01*
X13402882Y-24993074D02*
X13421930Y-24983550D01*
X13421930Y-24983550D02*
X13450501Y-24983550D01*
X13450501Y-24983550D02*
X13469549Y-24993074D01*
X13545739Y-25193074D02*
X13555263Y-25183550D01*
X13555263Y-25183550D02*
X13574311Y-25154979D01*
X13574311Y-25154979D02*
X13583834Y-25135931D01*
X13583834Y-25135931D02*
X13593358Y-25107360D01*
X13593358Y-25107360D02*
X13602882Y-25059741D01*
X13602882Y-25059741D02*
X13602882Y-25021646D01*
X13602882Y-25021646D02*
X13593358Y-24974027D01*
X13593358Y-24974027D02*
X13583834Y-24945455D01*
X13583834Y-24945455D02*
X13574311Y-24926408D01*
X13574311Y-24926408D02*
X13555263Y-24897836D01*
X13555263Y-24897836D02*
X13545739Y-24888312D01*
X13907644Y-25193074D02*
X13898120Y-25183550D01*
X13898120Y-25183550D02*
X13879072Y-25154979D01*
X13879072Y-25154979D02*
X13869549Y-25135931D01*
X13869549Y-25135931D02*
X13860025Y-25107360D01*
X13860025Y-25107360D02*
X13850501Y-25059741D01*
X13850501Y-25059741D02*
X13850501Y-25021646D01*
X13850501Y-25021646D02*
X13860025Y-24974027D01*
X13860025Y-24974027D02*
X13869549Y-24945455D01*
X13869549Y-24945455D02*
X13879072Y-24926408D01*
X13879072Y-24926408D02*
X13898120Y-24897836D01*
X13898120Y-24897836D02*
X13907644Y-24888312D01*
X13983834Y-24983550D02*
X13983834Y-25116884D01*
X13983834Y-25002598D02*
X13993358Y-24993074D01*
X13993358Y-24993074D02*
X14012406Y-24983550D01*
X14012406Y-24983550D02*
X14040977Y-24983550D01*
X14040977Y-24983550D02*
X14060025Y-24993074D01*
X14060025Y-24993074D02*
X14069549Y-25012122D01*
X14069549Y-25012122D02*
X14069549Y-25116884D01*
X14193358Y-25116884D02*
X14174311Y-25107360D01*
X14174311Y-25107360D02*
X14164787Y-25097836D01*
X14164787Y-25097836D02*
X14155263Y-25078788D01*
X14155263Y-25078788D02*
X14155263Y-25021646D01*
X14155263Y-25021646D02*
X14164787Y-25002598D01*
X14164787Y-25002598D02*
X14174311Y-24993074D01*
X14174311Y-24993074D02*
X14193358Y-24983550D01*
X14193358Y-24983550D02*
X14221930Y-24983550D01*
X14221930Y-24983550D02*
X14240977Y-24993074D01*
X14240977Y-24993074D02*
X14250501Y-25002598D01*
X14250501Y-25002598D02*
X14260025Y-25021646D01*
X14260025Y-25021646D02*
X14260025Y-25078788D01*
X14260025Y-25078788D02*
X14250501Y-25097836D01*
X14250501Y-25097836D02*
X14240977Y-25107360D01*
X14240977Y-25107360D02*
X14221930Y-25116884D01*
X14221930Y-25116884D02*
X14193358Y-25116884D01*
X14317168Y-24983550D02*
X14393358Y-24983550D01*
X14345739Y-24916884D02*
X14345739Y-25088312D01*
X14345739Y-25088312D02*
X14355263Y-25107360D01*
X14355263Y-25107360D02*
X14374311Y-25116884D01*
X14374311Y-25116884D02*
X14393358Y-25116884D01*
X14612406Y-24983550D02*
X14612406Y-25183550D01*
X14612406Y-24993074D02*
X14631453Y-24983550D01*
X14631453Y-24983550D02*
X14669549Y-24983550D01*
X14669549Y-24983550D02*
X14688596Y-24993074D01*
X14688596Y-24993074D02*
X14698120Y-25002598D01*
X14698120Y-25002598D02*
X14707644Y-25021646D01*
X14707644Y-25021646D02*
X14707644Y-25078788D01*
X14707644Y-25078788D02*
X14698120Y-25097836D01*
X14698120Y-25097836D02*
X14688596Y-25107360D01*
X14688596Y-25107360D02*
X14669549Y-25116884D01*
X14669549Y-25116884D02*
X14631453Y-25116884D01*
X14631453Y-25116884D02*
X14612406Y-25107360D01*
X14821930Y-25116884D02*
X14802882Y-25107360D01*
X14802882Y-25107360D02*
X14793358Y-25088312D01*
X14793358Y-25088312D02*
X14793358Y-24916884D01*
X14983834Y-25116884D02*
X14983834Y-25012122D01*
X14983834Y-25012122D02*
X14974311Y-24993074D01*
X14974311Y-24993074D02*
X14955263Y-24983550D01*
X14955263Y-24983550D02*
X14917168Y-24983550D01*
X14917168Y-24983550D02*
X14898120Y-24993074D01*
X14983834Y-25107360D02*
X14964787Y-25116884D01*
X14964787Y-25116884D02*
X14917168Y-25116884D01*
X14917168Y-25116884D02*
X14898120Y-25107360D01*
X14898120Y-25107360D02*
X14888596Y-25088312D01*
X14888596Y-25088312D02*
X14888596Y-25069265D01*
X14888596Y-25069265D02*
X14898120Y-25050217D01*
X14898120Y-25050217D02*
X14917168Y-25040693D01*
X14917168Y-25040693D02*
X14964787Y-25040693D01*
X14964787Y-25040693D02*
X14983834Y-25031169D01*
X15050501Y-24983550D02*
X15126692Y-24983550D01*
X15079073Y-24916884D02*
X15079073Y-25088312D01*
X15079073Y-25088312D02*
X15088596Y-25107360D01*
X15088596Y-25107360D02*
X15107644Y-25116884D01*
X15107644Y-25116884D02*
X15126692Y-25116884D01*
X15269549Y-25107360D02*
X15250501Y-25116884D01*
X15250501Y-25116884D02*
X15212406Y-25116884D01*
X15212406Y-25116884D02*
X15193358Y-25107360D01*
X15193358Y-25107360D02*
X15183834Y-25088312D01*
X15183834Y-25088312D02*
X15183834Y-25012122D01*
X15183834Y-25012122D02*
X15193358Y-24993074D01*
X15193358Y-24993074D02*
X15212406Y-24983550D01*
X15212406Y-24983550D02*
X15250501Y-24983550D01*
X15250501Y-24983550D02*
X15269549Y-24993074D01*
X15269549Y-24993074D02*
X15279073Y-25012122D01*
X15279073Y-25012122D02*
X15279073Y-25031169D01*
X15279073Y-25031169D02*
X15183834Y-25050217D01*
X15450501Y-25116884D02*
X15450501Y-24916884D01*
X15450501Y-25107360D02*
X15431454Y-25116884D01*
X15431454Y-25116884D02*
X15393358Y-25116884D01*
X15393358Y-25116884D02*
X15374311Y-25107360D01*
X15374311Y-25107360D02*
X15364787Y-25097836D01*
X15364787Y-25097836D02*
X15355263Y-25078788D01*
X15355263Y-25078788D02*
X15355263Y-25021646D01*
X15355263Y-25021646D02*
X15364787Y-25002598D01*
X15364787Y-25002598D02*
X15374311Y-24993074D01*
X15374311Y-24993074D02*
X15393358Y-24983550D01*
X15393358Y-24983550D02*
X15431454Y-24983550D01*
X15431454Y-24983550D02*
X15450501Y-24993074D01*
X15526692Y-25193074D02*
X15536215Y-25183550D01*
X15536215Y-25183550D02*
X15555263Y-25154979D01*
X15555263Y-25154979D02*
X15564787Y-25135931D01*
X15564787Y-25135931D02*
X15574311Y-25107360D01*
X15574311Y-25107360D02*
X15583834Y-25059741D01*
X15583834Y-25059741D02*
X15583834Y-25021646D01*
X15583834Y-25021646D02*
X15574311Y-24974027D01*
X15574311Y-24974027D02*
X15564787Y-24945455D01*
X15564787Y-24945455D02*
X15555263Y-24926408D01*
X15555263Y-24926408D02*
X15536215Y-24897836D01*
X15536215Y-24897836D02*
X15526692Y-24888312D01*
M02*
