%TF.GenerationSoftware,KiCad,Pcbnew,6.0.11-2627ca5db0~126~ubuntu22.04.1*%
%TF.CreationDate,2023-02-16T13:08:41+01:00*%
%TF.ProjectId,Europe-ergo,4575726f-7065-42d6-9572-676f2e6b6963,rev?*%
%TF.SameCoordinates,Original*%
%TF.FileFunction,Drillmap*%
%TF.FilePolarity,Positive*%
%FSLAX45Y45*%
G04 Gerber Fmt 4.5, Leading zero omitted, Abs format (unit mm)*
G04 Created by KiCad (PCBNEW 6.0.11-2627ca5db0~126~ubuntu22.04.1) date 2023-02-16 13:08:41*
%MOMM*%
%LPD*%
G01*
G04 APERTURE LIST*
%ADD10C,0.100000*%
%ADD11C,0.200000*%
%ADD12C,0.040000*%
%ADD13C,0.070000*%
%ADD14C,0.075000*%
%ADD15C,0.080000*%
%ADD16C,0.090000*%
%ADD17C,0.102000*%
%ADD18C,0.110000*%
%ADD19C,0.150000*%
%ADD20C,0.430000*%
G04 APERTURE END LIST*
D10*
X30857000Y-8388000D02*
X30850000Y-3125000D01*
X31607500Y-8340000D02*
X31605000Y-3125000D01*
X31255000Y-25475000D02*
X31655000Y-25475000D01*
X8500000Y-2700000D02*
X30850000Y-2700000D01*
X53555000Y-26300000D02*
X53555000Y-2700000D01*
X31255000Y-26300000D02*
X31655000Y-26300000D01*
X8500000Y-26300000D02*
X8500000Y-2700000D01*
X31255000Y-26300000D02*
X30900000Y-26300000D01*
X31255000Y-25475000D02*
X30900000Y-25475000D01*
X31605000Y-3125000D02*
X30850000Y-3125000D01*
X53555000Y-2700000D02*
X31605000Y-2700000D01*
X31655000Y-26300000D02*
X53555000Y-26300000D01*
X30857000Y-10108000D02*
X30900000Y-25475000D01*
X30850000Y-2700000D02*
X31605000Y-2700000D01*
X31607500Y-10060000D02*
X31655000Y-25475000D01*
X30900000Y-26300000D02*
X8500000Y-26300000D01*
D11*
D12*
X18380000Y-8880000D02*
X18420000Y-8920000D01*
X18420000Y-8880000D02*
X18380000Y-8920000D01*
X20080000Y-9480000D02*
X20120000Y-9520000D01*
X20120000Y-9480000D02*
X20080000Y-9520000D01*
X20880000Y-9780000D02*
X20920000Y-9820000D01*
X20920000Y-9780000D02*
X20880000Y-9820000D01*
X22780000Y-8880000D02*
X22820000Y-8920000D01*
X22820000Y-8880000D02*
X22780000Y-8920000D01*
X22780000Y-9580000D02*
X22820000Y-9620000D01*
X22820000Y-9580000D02*
X22780000Y-9620000D01*
X23780000Y-9280000D02*
X23820000Y-9320000D01*
X23820000Y-9280000D02*
X23780000Y-9320000D01*
X24780000Y-7380000D02*
X24820000Y-7420000D01*
X24820000Y-7380000D02*
X24780000Y-7420000D01*
X24980000Y-8380000D02*
X25020000Y-8420000D01*
X25020000Y-8380000D02*
X24980000Y-8420000D01*
X25680000Y-10180000D02*
X25720000Y-10220000D01*
X25720000Y-10180000D02*
X25680000Y-10220000D01*
X26053520Y-6826190D02*
X26093520Y-6866190D01*
X26093520Y-6826190D02*
X26053520Y-6866190D01*
X26380000Y-9480000D02*
X26420000Y-9520000D01*
X26420000Y-9480000D02*
X26380000Y-9520000D01*
X26612950Y-6608760D02*
X26652950Y-6648760D01*
X26652950Y-6608760D02*
X26612950Y-6648760D01*
X26980000Y-17680000D02*
X27020000Y-17720000D01*
X27020000Y-17680000D02*
X26980000Y-17720000D01*
X27080000Y-10380000D02*
X27120000Y-10420000D01*
X27120000Y-10380000D02*
X27080000Y-10420000D01*
X27332000Y-8844930D02*
X27372000Y-8884930D01*
X27372000Y-8844930D02*
X27332000Y-8884930D01*
X27580000Y-13180000D02*
X27620000Y-13220000D01*
X27620000Y-13180000D02*
X27580000Y-13220000D01*
X27780000Y-14380000D02*
X27820000Y-14420000D01*
X27820000Y-14380000D02*
X27780000Y-14420000D01*
X27880000Y-10080000D02*
X27920000Y-10120000D01*
X27920000Y-10080000D02*
X27880000Y-10120000D01*
X28480000Y-16880000D02*
X28520000Y-16920000D01*
X28520000Y-16880000D02*
X28480000Y-16920000D01*
X28580000Y-15780000D02*
X28620000Y-15820000D01*
X28620000Y-15780000D02*
X28580000Y-15820000D01*
X28680000Y-11280000D02*
X28720000Y-11320000D01*
X28720000Y-11280000D02*
X28680000Y-11320000D01*
X28680000Y-14180000D02*
X28720000Y-14220000D01*
X28720000Y-14180000D02*
X28680000Y-14220000D01*
X28757870Y-5476540D02*
X28797870Y-5516540D01*
X28797870Y-5476540D02*
X28757870Y-5516540D01*
X28766380Y-15063770D02*
X28806380Y-15103770D01*
X28806380Y-15063770D02*
X28766380Y-15103770D01*
X28780000Y-9980000D02*
X28820000Y-10020000D01*
X28820000Y-9980000D02*
X28780000Y-10020000D01*
X28942850Y-7317350D02*
X28982850Y-7357350D01*
X28982850Y-7317350D02*
X28942850Y-7357350D01*
X29384820Y-9071370D02*
X29424820Y-9111370D01*
X29424820Y-9071370D02*
X29384820Y-9111370D01*
X29384820Y-9392980D02*
X29424820Y-9432980D01*
X29424820Y-9392980D02*
X29384820Y-9432980D01*
X29725930Y-6506500D02*
X29765930Y-6546500D01*
X29765930Y-6506500D02*
X29725930Y-6546500D01*
X30328100Y-7867860D02*
X30368100Y-7907860D01*
X30368100Y-7867860D02*
X30328100Y-7907860D01*
X34780000Y-15080000D02*
X34820000Y-15120000D01*
X34820000Y-15080000D02*
X34780000Y-15120000D01*
X35080000Y-16580000D02*
X35120000Y-16620000D01*
X35120000Y-16580000D02*
X35080000Y-16620000D01*
X35180000Y-14380000D02*
X35220000Y-14420000D01*
X35220000Y-14380000D02*
X35180000Y-14420000D01*
X35980000Y-12980000D02*
X36020000Y-13020000D01*
X36020000Y-12980000D02*
X35980000Y-13020000D01*
X36080000Y-10180000D02*
X36120000Y-10220000D01*
X36120000Y-10180000D02*
X36080000Y-10220000D01*
X36180000Y-9780000D02*
X36220000Y-9820000D01*
X36220000Y-9780000D02*
X36180000Y-9820000D01*
X36180000Y-15380000D02*
X36220000Y-15420000D01*
X36220000Y-15380000D02*
X36180000Y-15420000D01*
X36280000Y-14580000D02*
X36320000Y-14620000D01*
X36320000Y-14580000D02*
X36280000Y-14620000D01*
X36614220Y-5604020D02*
X36654220Y-5644020D01*
X36654220Y-5604020D02*
X36614220Y-5644020D01*
X36868150Y-10013760D02*
X36908150Y-10053760D01*
X36908150Y-10013760D02*
X36868150Y-10053760D01*
X36959850Y-8790770D02*
X36999850Y-8830770D01*
X36999850Y-8790770D02*
X36959850Y-8830770D01*
X36980000Y-16380000D02*
X37020000Y-16420000D01*
X37020000Y-16380000D02*
X36980000Y-16420000D01*
X37476970Y-8725780D02*
X37516970Y-8765780D01*
X37516970Y-8725780D02*
X37476970Y-8765780D01*
X37811040Y-4516610D02*
X37851040Y-4556610D01*
X37851040Y-4516610D02*
X37811040Y-4556610D01*
X38174700Y-4833890D02*
X38214700Y-4873890D01*
X38214700Y-4833890D02*
X38174700Y-4873890D01*
X38280000Y-5480000D02*
X38320000Y-5520000D01*
X38320000Y-5480000D02*
X38280000Y-5520000D01*
X39180000Y-6680000D02*
X39220000Y-6720000D01*
X39220000Y-6680000D02*
X39180000Y-6720000D01*
X39440240Y-8729420D02*
X39480240Y-8769420D01*
X39480240Y-8729420D02*
X39440240Y-8769420D01*
X39680000Y-9280000D02*
X39720000Y-9320000D01*
X39720000Y-9280000D02*
X39680000Y-9320000D01*
X39780000Y-6780000D02*
X39820000Y-6820000D01*
X39820000Y-6780000D02*
X39780000Y-6820000D01*
X39780000Y-8080000D02*
X39820000Y-8120000D01*
X39820000Y-8080000D02*
X39780000Y-8120000D01*
X40280000Y-7980000D02*
X40320000Y-8020000D01*
X40320000Y-7980000D02*
X40280000Y-8020000D01*
X40508110Y-7261320D02*
X40548110Y-7301320D01*
X40548110Y-7261320D02*
X40508110Y-7301320D01*
X41180000Y-8380000D02*
X41220000Y-8420000D01*
X41220000Y-8380000D02*
X41180000Y-8420000D01*
X41680000Y-9180000D02*
X41720000Y-9220000D01*
X41720000Y-9180000D02*
X41680000Y-9220000D01*
X42580000Y-10580000D02*
X42620000Y-10620000D01*
X42620000Y-10580000D02*
X42580000Y-10620000D01*
X42580000Y-11880000D02*
X42620000Y-11920000D01*
X42620000Y-11880000D02*
X42580000Y-11920000D01*
X43180000Y-13880000D02*
X43220000Y-13920000D01*
X43220000Y-13880000D02*
X43180000Y-13920000D01*
X43273780Y-3942440D02*
X43313780Y-3982440D01*
X43313780Y-3942440D02*
X43273780Y-3982440D01*
X43380000Y-16080000D02*
X43420000Y-16120000D01*
X43420000Y-16080000D02*
X43380000Y-16120000D01*
X43680000Y-5880000D02*
X43720000Y-5920000D01*
X43720000Y-5880000D02*
X43680000Y-5920000D01*
D13*
X10827000Y-5600000D02*
G75*
G03*
X10827000Y-5600000I-35000J0D01*
G01*
X11335000Y-5600000D02*
G75*
G03*
X11335000Y-5600000I-35000J0D01*
G01*
X13727000Y-5600000D02*
G75*
G03*
X13727000Y-5600000I-35000J0D01*
G01*
X14235000Y-5600000D02*
G75*
G03*
X14235000Y-5600000I-35000J0D01*
G01*
X16627000Y-5600000D02*
G75*
G03*
X16627000Y-5600000I-35000J0D01*
G01*
X17135000Y-5600000D02*
G75*
G03*
X17135000Y-5600000I-35000J0D01*
G01*
X19427000Y-5600000D02*
G75*
G03*
X19427000Y-5600000I-35000J0D01*
G01*
X19935000Y-5600000D02*
G75*
G03*
X19935000Y-5600000I-35000J0D01*
G01*
X29881000Y-8250000D02*
G75*
G03*
X29881000Y-8250000I-35000J0D01*
G01*
X29889000Y-9950000D02*
G75*
G03*
X29889000Y-9950000I-35000J0D01*
G01*
X30389000Y-8250000D02*
G75*
G03*
X30389000Y-8250000I-35000J0D01*
G01*
X30397000Y-9950000D02*
G75*
G03*
X30397000Y-9950000I-35000J0D01*
G01*
X32036000Y-8250000D02*
G75*
G03*
X32036000Y-8250000I-35000J0D01*
G01*
X32144000Y-9950000D02*
G75*
G03*
X32144000Y-9950000I-35000J0D01*
G01*
X32544000Y-8250000D02*
G75*
G03*
X32544000Y-8250000I-35000J0D01*
G01*
X32652000Y-9950000D02*
G75*
G03*
X32652000Y-9950000I-35000J0D01*
G01*
X42582000Y-5400000D02*
G75*
G03*
X42582000Y-5400000I-35000J0D01*
G01*
X43090000Y-5400000D02*
G75*
G03*
X43090000Y-5400000I-35000J0D01*
G01*
X45482000Y-5400000D02*
G75*
G03*
X45482000Y-5400000I-35000J0D01*
G01*
X45990000Y-5400000D02*
G75*
G03*
X45990000Y-5400000I-35000J0D01*
G01*
X48490000Y-5400000D02*
G75*
G03*
X48490000Y-5400000I-35000J0D01*
G01*
X48998000Y-5400000D02*
G75*
G03*
X48998000Y-5400000I-35000J0D01*
G01*
X51336000Y-5400000D02*
G75*
G03*
X51336000Y-5400000I-35000J0D01*
G01*
X51844000Y-5400000D02*
G75*
G03*
X51844000Y-5400000I-35000J0D01*
G01*
D14*
X42691470Y-4996500D02*
X42691470Y-5071500D01*
X42653970Y-5034000D02*
X42728970Y-5034000D01*
X42945470Y-4996500D02*
X42945470Y-5071500D01*
X42907970Y-5034000D02*
X42982970Y-5034000D01*
X45561470Y-5006500D02*
X45561470Y-5081500D01*
X45523970Y-5044000D02*
X45598970Y-5044000D01*
X45815470Y-5006500D02*
X45815470Y-5081500D01*
X45777970Y-5044000D02*
X45852970Y-5044000D01*
X48511470Y-4986500D02*
X48511470Y-5061500D01*
X48473970Y-5024000D02*
X48548970Y-5024000D01*
X48765470Y-4986500D02*
X48765470Y-5061500D01*
X48727970Y-5024000D02*
X48802970Y-5024000D01*
X51273000Y-5006500D02*
X51273000Y-5081500D01*
X51235500Y-5044000D02*
X51310500Y-5044000D01*
X51527000Y-5006500D02*
X51527000Y-5081500D01*
X51489500Y-5044000D02*
X51564500Y-5044000D01*
D15*
X12538284Y-13028284D02*
X12538284Y-12971715D01*
X12481715Y-12971715D01*
X12481715Y-13028284D01*
X12538284Y-13028284D01*
X12739284Y-11228284D02*
X12739284Y-11171716D01*
X12682715Y-11171716D01*
X12682715Y-11228284D01*
X12739284Y-11228284D01*
X12769284Y-14938284D02*
X12769284Y-14881715D01*
X12712715Y-14881715D01*
X12712715Y-14938284D01*
X12769284Y-14938284D01*
X12798284Y-17166285D02*
X12798284Y-17109716D01*
X12741715Y-17109716D01*
X12741715Y-17166285D01*
X12798284Y-17166285D01*
X13164284Y-19296285D02*
X13164284Y-19239716D01*
X13107715Y-19239716D01*
X13107715Y-19296285D01*
X13164284Y-19296285D01*
X13300284Y-13028284D02*
X13300284Y-12971715D01*
X13243715Y-12971715D01*
X13243715Y-13028284D01*
X13300284Y-13028284D01*
X13501284Y-11228284D02*
X13501284Y-11171716D01*
X13444715Y-11171716D01*
X13444715Y-11228284D01*
X13501284Y-11228284D01*
X13531284Y-14938284D02*
X13531284Y-14881715D01*
X13474715Y-14881715D01*
X13474715Y-14938284D01*
X13531284Y-14938284D01*
X13560284Y-17166285D02*
X13560284Y-17109716D01*
X13503715Y-17109716D01*
X13503715Y-17166285D01*
X13560284Y-17166285D01*
X13926284Y-19296285D02*
X13926284Y-19239716D01*
X13869715Y-19239716D01*
X13869715Y-19296285D01*
X13926284Y-19296285D01*
X15166284Y-8428285D02*
X15166284Y-8371715D01*
X15109715Y-8371715D01*
X15109715Y-8428285D01*
X15166284Y-8428285D01*
X15168284Y-13028284D02*
X15168284Y-12971715D01*
X15111715Y-12971715D01*
X15111715Y-13028284D01*
X15168284Y-13028284D01*
X15324284Y-17166285D02*
X15324284Y-17109716D01*
X15267715Y-17109716D01*
X15267715Y-17166285D01*
X15324284Y-17166285D01*
X15347284Y-19296285D02*
X15347284Y-19239716D01*
X15290715Y-19239716D01*
X15290715Y-19296285D01*
X15347284Y-19296285D01*
X15350284Y-14938284D02*
X15350284Y-14881715D01*
X15293715Y-14881715D01*
X15293715Y-14938284D01*
X15350284Y-14938284D01*
X15366284Y-11228284D02*
X15366284Y-11171716D01*
X15309715Y-11171716D01*
X15309715Y-11228284D01*
X15366284Y-11228284D01*
X15928284Y-8428285D02*
X15928284Y-8371715D01*
X15871715Y-8371715D01*
X15871715Y-8428285D01*
X15928284Y-8428285D01*
X15930284Y-13028284D02*
X15930284Y-12971715D01*
X15873715Y-12971715D01*
X15873715Y-13028284D01*
X15930284Y-13028284D01*
X16086284Y-17166285D02*
X16086284Y-17109716D01*
X16029715Y-17109716D01*
X16029715Y-17166285D01*
X16086284Y-17166285D01*
X16109284Y-19296285D02*
X16109284Y-19239716D01*
X16052715Y-19239716D01*
X16052715Y-19296285D01*
X16109284Y-19296285D01*
X16112284Y-14938284D02*
X16112284Y-14881715D01*
X16055715Y-14881715D01*
X16055715Y-14938284D01*
X16112284Y-14938284D01*
X16128284Y-11228284D02*
X16128284Y-11171716D01*
X16071715Y-11171716D01*
X16071715Y-11228284D01*
X16128284Y-11228284D01*
X17290285Y-10408285D02*
X17290285Y-10351716D01*
X17233716Y-10351716D01*
X17233716Y-10408285D01*
X17290285Y-10408285D01*
X17328285Y-8428285D02*
X17328285Y-8371715D01*
X17271716Y-8371715D01*
X17271716Y-8428285D01*
X17328285Y-8428285D01*
X17369285Y-12528284D02*
X17369285Y-12471715D01*
X17312716Y-12471715D01*
X17312716Y-12528284D01*
X17369285Y-12528284D01*
X17418285Y-14538284D02*
X17418285Y-14481715D01*
X17361716Y-14481715D01*
X17361716Y-14538284D01*
X17418285Y-14538284D01*
X17439285Y-16666284D02*
X17439285Y-16609715D01*
X17382716Y-16609715D01*
X17382716Y-16666284D01*
X17439285Y-16666284D01*
X17448285Y-18978285D02*
X17448285Y-18921716D01*
X17391716Y-18921716D01*
X17391716Y-18978285D01*
X17448285Y-18978285D01*
X18052285Y-10408285D02*
X18052285Y-10351716D01*
X17995716Y-10351716D01*
X17995716Y-10408285D01*
X18052285Y-10408285D01*
X18090285Y-8428285D02*
X18090285Y-8371715D01*
X18033716Y-8371715D01*
X18033716Y-8428285D01*
X18090285Y-8428285D01*
X18131285Y-12528284D02*
X18131285Y-12471715D01*
X18074716Y-12471715D01*
X18074716Y-12528284D01*
X18131285Y-12528284D01*
X18180285Y-14538284D02*
X18180285Y-14481715D01*
X18123716Y-14481715D01*
X18123716Y-14538284D01*
X18180285Y-14538284D01*
X18201285Y-16666284D02*
X18201285Y-16609715D01*
X18144716Y-16609715D01*
X18144716Y-16666284D01*
X18201285Y-16666284D01*
X18210285Y-18978285D02*
X18210285Y-18921716D01*
X18153716Y-18921716D01*
X18153716Y-18978285D01*
X18210285Y-18978285D01*
X19236285Y-10108285D02*
X19236285Y-10051716D01*
X19179716Y-10051716D01*
X19179716Y-10108285D01*
X19236285Y-10108285D01*
X19368285Y-8428285D02*
X19368285Y-8371715D01*
X19311716Y-8371715D01*
X19311716Y-8428285D01*
X19368285Y-8428285D01*
X19463285Y-12228284D02*
X19463285Y-12171715D01*
X19406716Y-12171715D01*
X19406716Y-12228284D01*
X19463285Y-12228284D01*
X19551285Y-14338284D02*
X19551285Y-14281715D01*
X19494716Y-14281715D01*
X19494716Y-14338284D01*
X19551285Y-14338284D01*
X19570285Y-16366284D02*
X19570285Y-16309715D01*
X19513716Y-16309715D01*
X19513716Y-16366284D01*
X19570285Y-16366284D01*
X19578285Y-18608285D02*
X19578285Y-18551716D01*
X19521716Y-18551716D01*
X19521716Y-18608285D01*
X19578285Y-18608285D01*
X19998285Y-10108285D02*
X19998285Y-10051716D01*
X19941716Y-10051716D01*
X19941716Y-10108285D01*
X19998285Y-10108285D01*
X20130285Y-8428285D02*
X20130285Y-8371715D01*
X20073716Y-8371715D01*
X20073716Y-8428285D01*
X20130285Y-8428285D01*
X20225285Y-12228284D02*
X20225285Y-12171715D01*
X20168716Y-12171715D01*
X20168716Y-12228284D01*
X20225285Y-12228284D01*
X20313285Y-14338284D02*
X20313285Y-14281715D01*
X20256716Y-14281715D01*
X20256716Y-14338284D01*
X20313285Y-14338284D01*
X20332285Y-16366284D02*
X20332285Y-16309715D01*
X20275716Y-16309715D01*
X20275716Y-16366284D01*
X20332285Y-16366284D01*
X20340285Y-18608285D02*
X20340285Y-18551716D01*
X20283716Y-18551716D01*
X20283716Y-18608285D01*
X20340285Y-18608285D01*
X21458285Y-10308285D02*
X21458285Y-10251716D01*
X21401716Y-10251716D01*
X21401716Y-10308285D01*
X21458285Y-10308285D01*
X21508285Y-8428285D02*
X21508285Y-8371715D01*
X21451716Y-8371715D01*
X21451716Y-8428285D01*
X21508285Y-8428285D01*
X21639285Y-14538284D02*
X21639285Y-14481715D01*
X21582716Y-14481715D01*
X21582716Y-14538284D01*
X21639285Y-14538284D01*
X21642285Y-12528284D02*
X21642285Y-12471715D01*
X21585716Y-12471715D01*
X21585716Y-12528284D01*
X21642285Y-12528284D01*
X21647285Y-16666284D02*
X21647285Y-16609715D01*
X21590716Y-16609715D01*
X21590716Y-16666284D01*
X21647285Y-16666284D01*
X21678285Y-18908285D02*
X21678285Y-18851716D01*
X21621716Y-18851716D01*
X21621716Y-18908285D01*
X21678285Y-18908285D01*
X22220285Y-10308285D02*
X22220285Y-10251716D01*
X22163716Y-10251716D01*
X22163716Y-10308285D01*
X22220285Y-10308285D01*
X22270285Y-8428285D02*
X22270285Y-8371715D01*
X22213716Y-8371715D01*
X22213716Y-8428285D01*
X22270285Y-8428285D01*
X22401284Y-14538284D02*
X22401284Y-14481715D01*
X22344716Y-14481715D01*
X22344716Y-14538284D01*
X22401284Y-14538284D01*
X22404284Y-12528284D02*
X22404284Y-12471715D01*
X22347716Y-12471715D01*
X22347716Y-12528284D01*
X22404284Y-12528284D01*
X22409284Y-16666284D02*
X22409284Y-16609715D01*
X22352716Y-16609715D01*
X22352716Y-16666284D01*
X22409284Y-16666284D01*
X22440284Y-18908285D02*
X22440284Y-18851716D01*
X22383715Y-18851716D01*
X22383715Y-18908285D01*
X22440284Y-18908285D01*
X23466284Y-8428285D02*
X23466284Y-8371715D01*
X23409715Y-8371715D01*
X23409715Y-8428285D01*
X23466284Y-8428285D01*
X23608284Y-10608285D02*
X23608284Y-10551716D01*
X23551715Y-10551716D01*
X23551715Y-10608285D01*
X23608284Y-10608285D01*
X23766284Y-16866285D02*
X23766284Y-16809716D01*
X23709715Y-16809716D01*
X23709715Y-16866285D01*
X23766284Y-16866285D01*
X23767284Y-14738284D02*
X23767284Y-14681715D01*
X23710715Y-14681715D01*
X23710715Y-14738284D01*
X23767284Y-14738284D01*
X23782284Y-12728284D02*
X23782284Y-12671715D01*
X23725715Y-12671715D01*
X23725715Y-12728284D01*
X23782284Y-12728284D01*
X24228284Y-8428285D02*
X24228284Y-8371715D01*
X24171715Y-8371715D01*
X24171715Y-8428285D01*
X24228284Y-8428285D01*
X24370284Y-10608285D02*
X24370284Y-10551716D01*
X24313715Y-10551716D01*
X24313715Y-10608285D01*
X24370284Y-10608285D01*
X24528284Y-16866285D02*
X24528284Y-16809716D01*
X24471715Y-16809716D01*
X24471715Y-16866285D01*
X24528284Y-16866285D01*
X24529284Y-14738284D02*
X24529284Y-14681715D01*
X24472715Y-14681715D01*
X24472715Y-14738284D01*
X24529284Y-14738284D01*
X24544284Y-12728284D02*
X24544284Y-12671715D01*
X24487715Y-12671715D01*
X24487715Y-12728284D01*
X24544284Y-12728284D01*
X24928284Y-18053285D02*
X24928284Y-17996716D01*
X24871715Y-17996716D01*
X24871715Y-18053285D01*
X24928284Y-18053285D01*
X25656284Y-10608285D02*
X25656284Y-10551716D01*
X25599715Y-10551716D01*
X25599715Y-10608285D01*
X25656284Y-10608285D01*
X25690284Y-18053285D02*
X25690284Y-17996716D01*
X25633715Y-17996716D01*
X25633715Y-18053285D01*
X25690284Y-18053285D01*
X25766284Y-8428285D02*
X25766284Y-8371715D01*
X25709715Y-8371715D01*
X25709715Y-8428285D01*
X25766284Y-8428285D01*
X25847284Y-14738284D02*
X25847284Y-14681715D01*
X25790715Y-14681715D01*
X25790715Y-14738284D01*
X25847284Y-14738284D01*
X25856284Y-16866285D02*
X25856284Y-16809716D01*
X25799715Y-16809716D01*
X25799715Y-16866285D01*
X25856284Y-16866285D01*
X25920284Y-12828284D02*
X25920284Y-12771715D01*
X25863715Y-12771715D01*
X25863715Y-12828284D01*
X25920284Y-12828284D01*
X26418284Y-10608285D02*
X26418284Y-10551716D01*
X26361715Y-10551716D01*
X26361715Y-10608285D01*
X26418284Y-10608285D01*
X26528284Y-8428285D02*
X26528284Y-8371715D01*
X26471715Y-8371715D01*
X26471715Y-8428285D01*
X26528284Y-8428285D01*
X26609284Y-14738284D02*
X26609284Y-14681715D01*
X26552715Y-14681715D01*
X26552715Y-14738284D01*
X26609284Y-14738284D01*
X26618284Y-16866285D02*
X26618284Y-16809716D01*
X26561715Y-16809716D01*
X26561715Y-16866285D01*
X26618284Y-16866285D01*
X26682284Y-12828284D02*
X26682284Y-12771715D01*
X26625715Y-12771715D01*
X26625715Y-12828284D01*
X26682284Y-12828284D01*
X26766284Y-19228285D02*
X26766284Y-19171716D01*
X26709715Y-19171716D01*
X26709715Y-19228285D01*
X26766284Y-19228285D01*
X27528284Y-19228285D02*
X27528284Y-19171716D01*
X27471715Y-19171716D01*
X27471715Y-19228285D01*
X27528284Y-19228285D01*
X27694284Y-17216285D02*
X27694284Y-17159716D01*
X27637715Y-17159716D01*
X27637715Y-17216285D01*
X27694284Y-17216285D01*
X27836284Y-10608285D02*
X27836284Y-10551716D01*
X27779715Y-10551716D01*
X27779715Y-10608285D01*
X27836284Y-10608285D01*
X27880284Y-16456284D02*
X27880284Y-16399715D01*
X27823715Y-16399715D01*
X27823715Y-16456284D01*
X27880284Y-16456284D01*
X27884284Y-13282284D02*
X27884284Y-13225715D01*
X27827715Y-13225715D01*
X27827715Y-13282284D01*
X27884284Y-13282284D01*
X27966284Y-8428285D02*
X27966284Y-8371715D01*
X27909715Y-8371715D01*
X27909715Y-8428285D01*
X27966284Y-8428285D01*
X28417244Y-20056755D02*
X28417244Y-20000186D01*
X28360675Y-20000186D01*
X28360675Y-20056755D01*
X28417244Y-20056755D01*
X28456284Y-17216285D02*
X28456284Y-17159716D01*
X28399715Y-17159716D01*
X28399715Y-17216285D01*
X28456284Y-17216285D01*
X28598284Y-10608285D02*
X28598284Y-10551716D01*
X28541715Y-10551716D01*
X28541715Y-10608285D01*
X28598284Y-10608285D01*
X28642284Y-16456284D02*
X28642284Y-16399715D01*
X28585715Y-16399715D01*
X28585715Y-16456284D01*
X28642284Y-16456284D01*
X28646284Y-13282284D02*
X28646284Y-13225715D01*
X28589715Y-13225715D01*
X28589715Y-13282284D01*
X28646284Y-13282284D01*
X28728284Y-8428285D02*
X28728284Y-8371715D01*
X28671715Y-8371715D01*
X28671715Y-8428285D01*
X28728284Y-8428285D01*
X29179244Y-20056755D02*
X29179244Y-20000186D01*
X29122675Y-20000186D01*
X29122675Y-20056755D01*
X29179244Y-20056755D01*
X33547284Y-20228285D02*
X33547284Y-20171716D01*
X33490715Y-20171716D01*
X33490715Y-20228285D01*
X33547284Y-20228285D01*
X33883285Y-8428285D02*
X33883285Y-8371715D01*
X33826716Y-8371715D01*
X33826716Y-8428285D01*
X33883285Y-8428285D01*
X33969285Y-10628785D02*
X33969285Y-10572216D01*
X33912716Y-10572216D01*
X33912716Y-10628785D01*
X33969285Y-10628785D01*
X34092285Y-16328284D02*
X34092285Y-16271715D01*
X34035716Y-16271715D01*
X34035716Y-16328284D01*
X34092285Y-16328284D01*
X34128285Y-13320284D02*
X34128285Y-13263715D01*
X34071716Y-13263715D01*
X34071716Y-13320284D01*
X34128285Y-13320284D01*
X34284285Y-17425345D02*
X34284285Y-17368776D01*
X34227716Y-17368776D01*
X34227716Y-17425345D01*
X34284285Y-17425345D01*
X34309285Y-20228285D02*
X34309285Y-20171716D01*
X34252716Y-20171716D01*
X34252716Y-20228285D01*
X34309285Y-20228285D01*
X34645285Y-8428285D02*
X34645285Y-8371715D01*
X34588716Y-8371715D01*
X34588716Y-8428285D01*
X34645285Y-8428285D01*
X34731285Y-10628785D02*
X34731285Y-10572216D01*
X34674716Y-10572216D01*
X34674716Y-10628785D01*
X34731285Y-10628785D01*
X34854285Y-16328284D02*
X34854285Y-16271715D01*
X34797716Y-16271715D01*
X34797716Y-16328284D01*
X34854285Y-16328284D01*
X34890285Y-13320284D02*
X34890285Y-13263715D01*
X34833716Y-13263715D01*
X34833716Y-13320284D01*
X34890285Y-13320284D01*
X35046285Y-17425345D02*
X35046285Y-17368776D01*
X34989716Y-17368776D01*
X34989716Y-17425345D01*
X35046285Y-17425345D01*
X35383285Y-19128285D02*
X35383285Y-19071716D01*
X35326716Y-19071716D01*
X35326716Y-19128285D01*
X35383285Y-19128285D01*
X35947285Y-8428285D02*
X35947285Y-8371715D01*
X35890716Y-8371715D01*
X35890716Y-8428285D01*
X35947285Y-8428285D01*
X36084285Y-10628785D02*
X36084285Y-10572216D01*
X36027716Y-10572216D01*
X36027716Y-10628785D01*
X36084285Y-10628785D01*
X36145285Y-19128285D02*
X36145285Y-19071716D01*
X36088716Y-19071716D01*
X36088716Y-19128285D01*
X36145285Y-19128285D01*
X36221285Y-15132284D02*
X36221285Y-15075715D01*
X36164716Y-15075715D01*
X36164716Y-15132284D01*
X36221285Y-15132284D01*
X36280285Y-17080785D02*
X36280285Y-17024216D01*
X36223716Y-17024216D01*
X36223716Y-17080785D01*
X36280285Y-17080785D01*
X36283285Y-13012284D02*
X36283285Y-12955715D01*
X36226716Y-12955715D01*
X36226716Y-13012284D01*
X36283285Y-13012284D01*
X36709285Y-8428285D02*
X36709285Y-8371715D01*
X36652716Y-8371715D01*
X36652716Y-8428285D01*
X36709285Y-8428285D01*
X36846285Y-10628785D02*
X36846285Y-10572216D01*
X36789716Y-10572216D01*
X36789716Y-10628785D01*
X36846285Y-10628785D01*
X36983285Y-15132284D02*
X36983285Y-15075715D01*
X36926716Y-15075715D01*
X36926716Y-15132284D01*
X36983285Y-15132284D01*
X37042285Y-17080785D02*
X37042285Y-17024216D01*
X36985716Y-17024216D01*
X36985716Y-17080785D01*
X37042285Y-17080785D01*
X37045285Y-13012284D02*
X37045285Y-12955715D01*
X36988716Y-12955715D01*
X36988716Y-13012284D01*
X37045285Y-13012284D01*
X37114285Y-18152285D02*
X37114285Y-18095716D01*
X37057716Y-18095716D01*
X37057716Y-18152285D01*
X37114285Y-18152285D01*
X37876285Y-18152285D02*
X37876285Y-18095716D01*
X37819716Y-18095716D01*
X37819716Y-18152285D01*
X37876285Y-18152285D01*
X38128285Y-8428285D02*
X38128285Y-8371715D01*
X38071716Y-8371715D01*
X38071716Y-8428285D01*
X38128285Y-8428285D01*
X38204285Y-10584785D02*
X38204285Y-10528216D01*
X38147716Y-10528216D01*
X38147716Y-10584785D01*
X38204285Y-10584785D01*
X38408285Y-15132284D02*
X38408285Y-15075715D01*
X38351716Y-15075715D01*
X38351716Y-15132284D01*
X38408285Y-15132284D01*
X38480285Y-12898284D02*
X38480285Y-12841715D01*
X38423716Y-12841715D01*
X38423716Y-12898284D01*
X38480285Y-12898284D01*
X38508285Y-17154285D02*
X38508285Y-17097716D01*
X38451716Y-17097716D01*
X38451716Y-17154285D01*
X38508285Y-17154285D01*
X38890285Y-8428285D02*
X38890285Y-8371715D01*
X38833716Y-8371715D01*
X38833716Y-8428285D01*
X38890285Y-8428285D01*
X38966285Y-10584785D02*
X38966285Y-10528216D01*
X38909716Y-10528216D01*
X38909716Y-10584785D01*
X38966285Y-10584785D01*
X39170285Y-15132284D02*
X39170285Y-15075715D01*
X39113716Y-15075715D01*
X39113716Y-15132284D01*
X39170285Y-15132284D01*
X39242285Y-12898284D02*
X39242285Y-12841715D01*
X39185716Y-12841715D01*
X39185716Y-12898284D01*
X39242285Y-12898284D01*
X39270285Y-17154285D02*
X39270285Y-17097716D01*
X39213716Y-17097716D01*
X39213716Y-17154285D01*
X39270285Y-17154285D01*
X40167285Y-8428285D02*
X40167285Y-8371715D01*
X40110716Y-8371715D01*
X40110716Y-8428285D01*
X40167285Y-8428285D01*
X40214285Y-10324785D02*
X40214285Y-10268216D01*
X40157716Y-10268216D01*
X40157716Y-10324785D01*
X40214285Y-10324785D01*
X40499285Y-14912284D02*
X40499285Y-14855715D01*
X40442716Y-14855715D01*
X40442716Y-14912284D01*
X40499285Y-14912284D01*
X40580285Y-12638284D02*
X40580285Y-12581715D01*
X40523716Y-12581715D01*
X40523716Y-12638284D01*
X40580285Y-12638284D01*
X40590285Y-19112285D02*
X40590285Y-19055716D01*
X40533716Y-19055716D01*
X40533716Y-19112285D01*
X40590285Y-19112285D01*
X40600285Y-16954285D02*
X40600285Y-16897716D01*
X40543716Y-16897716D01*
X40543716Y-16954285D01*
X40600285Y-16954285D01*
X40929285Y-8428285D02*
X40929285Y-8371715D01*
X40872716Y-8371715D01*
X40872716Y-8428285D01*
X40929285Y-8428285D01*
X40976285Y-10324785D02*
X40976285Y-10268216D01*
X40919716Y-10268216D01*
X40919716Y-10324785D01*
X40976285Y-10324785D01*
X41261285Y-14912284D02*
X41261285Y-14855715D01*
X41204716Y-14855715D01*
X41204716Y-14912284D01*
X41261285Y-14912284D01*
X41342285Y-12638284D02*
X41342285Y-12581715D01*
X41285716Y-12581715D01*
X41285716Y-12638284D01*
X41342285Y-12638284D01*
X41352285Y-19112285D02*
X41352285Y-19055716D01*
X41295716Y-19055716D01*
X41295716Y-19112285D01*
X41352285Y-19112285D01*
X41362285Y-16954285D02*
X41362285Y-16897716D01*
X41305716Y-16897716D01*
X41305716Y-16954285D01*
X41362285Y-16954285D01*
X42354285Y-10128785D02*
X42354285Y-10072216D01*
X42297716Y-10072216D01*
X42297716Y-10128785D01*
X42354285Y-10128785D01*
X42493285Y-8428285D02*
X42493285Y-8371715D01*
X42436716Y-8371715D01*
X42436716Y-8428285D01*
X42493285Y-8428285D01*
X42548285Y-14632284D02*
X42548285Y-14575715D01*
X42491716Y-14575715D01*
X42491716Y-14632284D01*
X42548285Y-14632284D01*
X42645285Y-18912285D02*
X42645285Y-18855716D01*
X42588716Y-18855716D01*
X42588716Y-18912285D01*
X42645285Y-18912285D01*
X42714285Y-16754284D02*
X42714285Y-16697715D01*
X42657716Y-16697715D01*
X42657716Y-16754284D01*
X42714285Y-16754284D01*
X42738285Y-12512284D02*
X42738285Y-12455715D01*
X42681716Y-12455715D01*
X42681716Y-12512284D01*
X42738285Y-12512284D01*
X43116285Y-10128785D02*
X43116285Y-10072216D01*
X43059716Y-10072216D01*
X43059716Y-10128785D01*
X43116285Y-10128785D01*
X43255285Y-8428285D02*
X43255285Y-8371715D01*
X43198716Y-8371715D01*
X43198716Y-8428285D01*
X43255285Y-8428285D01*
X43310285Y-14632284D02*
X43310285Y-14575715D01*
X43253716Y-14575715D01*
X43253716Y-14632284D01*
X43310285Y-14632284D01*
X43407285Y-18912285D02*
X43407285Y-18855716D01*
X43350716Y-18855716D01*
X43350716Y-18912285D01*
X43407285Y-18912285D01*
X43476285Y-16754284D02*
X43476285Y-16697715D01*
X43419716Y-16697715D01*
X43419716Y-16754284D01*
X43476285Y-16754284D01*
X43500285Y-12512284D02*
X43500285Y-12455715D01*
X43443716Y-12455715D01*
X43443716Y-12512284D01*
X43500285Y-12512284D01*
X44514285Y-10602285D02*
X44514285Y-10545716D01*
X44457716Y-10545716D01*
X44457716Y-10602285D01*
X44514285Y-10602285D01*
X44533285Y-8454285D02*
X44533285Y-8397716D01*
X44476716Y-8397716D01*
X44476716Y-8454285D01*
X44533285Y-8454285D01*
X44647285Y-14884784D02*
X44647285Y-14828215D01*
X44590716Y-14828215D01*
X44590716Y-14884784D01*
X44647285Y-14884784D01*
X44757284Y-19112285D02*
X44757284Y-19055716D01*
X44700716Y-19055716D01*
X44700716Y-19112285D01*
X44757284Y-19112285D01*
X44790284Y-17054285D02*
X44790284Y-16997716D01*
X44733716Y-16997716D01*
X44733716Y-17054285D01*
X44790284Y-17054285D01*
X44830284Y-12912284D02*
X44830284Y-12855715D01*
X44773715Y-12855715D01*
X44773715Y-12912284D01*
X44830284Y-12912284D01*
X45276284Y-10602285D02*
X45276284Y-10545716D01*
X45219715Y-10545716D01*
X45219715Y-10602285D01*
X45276284Y-10602285D01*
X45295284Y-8454285D02*
X45295284Y-8397716D01*
X45238715Y-8397716D01*
X45238715Y-8454285D01*
X45295284Y-8454285D01*
X45409284Y-14884784D02*
X45409284Y-14828215D01*
X45352715Y-14828215D01*
X45352715Y-14884784D01*
X45409284Y-14884784D01*
X45519284Y-19112285D02*
X45519284Y-19055716D01*
X45462715Y-19055716D01*
X45462715Y-19112285D01*
X45519284Y-19112285D01*
X45552284Y-17054285D02*
X45552284Y-16997716D01*
X45495715Y-16997716D01*
X45495715Y-17054285D01*
X45552284Y-17054285D01*
X45592284Y-12912284D02*
X45592284Y-12855715D01*
X45535715Y-12855715D01*
X45535715Y-12912284D01*
X45592284Y-12912284D01*
X46584284Y-10828785D02*
X46584284Y-10772216D01*
X46527715Y-10772216D01*
X46527715Y-10828785D01*
X46584284Y-10828785D01*
X46680284Y-8428285D02*
X46680284Y-8371715D01*
X46623715Y-8371715D01*
X46623715Y-8428285D01*
X46680284Y-8428285D01*
X46747284Y-15232284D02*
X46747284Y-15175715D01*
X46690715Y-15175715D01*
X46690715Y-15232284D01*
X46747284Y-15232284D01*
X46860284Y-17350285D02*
X46860284Y-17293716D01*
X46803715Y-17293716D01*
X46803715Y-17350285D01*
X46860284Y-17350285D01*
X46877284Y-19698285D02*
X46877284Y-19641716D01*
X46820715Y-19641716D01*
X46820715Y-19698285D01*
X46877284Y-19698285D01*
X46878284Y-13248284D02*
X46878284Y-13191715D01*
X46821715Y-13191715D01*
X46821715Y-13248284D01*
X46878284Y-13248284D01*
X47346284Y-10828785D02*
X47346284Y-10772216D01*
X47289715Y-10772216D01*
X47289715Y-10828785D01*
X47346284Y-10828785D01*
X47442284Y-8428285D02*
X47442284Y-8371715D01*
X47385715Y-8371715D01*
X47385715Y-8428285D01*
X47442284Y-8428285D01*
X47509284Y-15232284D02*
X47509284Y-15175715D01*
X47452715Y-15175715D01*
X47452715Y-15232284D01*
X47509284Y-15232284D01*
X47622284Y-17350285D02*
X47622284Y-17293716D01*
X47565715Y-17293716D01*
X47565715Y-17350285D01*
X47622284Y-17350285D01*
X47639284Y-19698285D02*
X47639284Y-19641716D01*
X47582715Y-19641716D01*
X47582715Y-19698285D01*
X47639284Y-19698285D01*
X47640284Y-13248284D02*
X47640284Y-13191715D01*
X47583715Y-13191715D01*
X47583715Y-13248284D01*
X47640284Y-13248284D01*
X49125284Y-19612285D02*
X49125284Y-19555716D01*
X49068715Y-19555716D01*
X49068715Y-19612285D01*
X49125284Y-19612285D01*
X49422784Y-15048784D02*
X49422784Y-14992215D01*
X49366215Y-14992215D01*
X49366215Y-15048784D01*
X49422784Y-15048784D01*
X49432784Y-10834785D02*
X49432784Y-10778216D01*
X49376215Y-10778216D01*
X49376215Y-10834785D01*
X49432784Y-10834785D01*
X49475784Y-17294285D02*
X49475784Y-17237716D01*
X49419215Y-17237716D01*
X49419215Y-17294285D01*
X49475784Y-17294285D01*
X49513784Y-12908284D02*
X49513784Y-12851715D01*
X49457215Y-12851715D01*
X49457215Y-12908284D01*
X49513784Y-12908284D01*
X49887284Y-19612285D02*
X49887284Y-19555716D01*
X49830715Y-19555716D01*
X49830715Y-19612285D01*
X49887284Y-19612285D01*
X50184784Y-15048784D02*
X50184784Y-14992215D01*
X50128215Y-14992215D01*
X50128215Y-15048784D01*
X50184784Y-15048784D01*
X50194784Y-10834785D02*
X50194784Y-10778216D01*
X50138215Y-10778216D01*
X50138215Y-10834785D01*
X50194784Y-10834785D01*
X50237784Y-17294285D02*
X50237784Y-17237716D01*
X50181215Y-17237716D01*
X50181215Y-17294285D01*
X50237784Y-17294285D01*
X50275784Y-12908284D02*
X50275784Y-12851715D01*
X50219215Y-12851715D01*
X50219215Y-12908284D01*
X50275784Y-12908284D01*
D16*
X10990000Y-5115000D02*
X11035000Y-5070000D01*
X10990000Y-5025000D01*
X10945000Y-5070000D01*
X10990000Y-5115000D01*
X11244000Y-5115000D02*
X11289000Y-5070000D01*
X11244000Y-5025000D01*
X11199000Y-5070000D01*
X11244000Y-5115000D01*
X13810000Y-5165000D02*
X13855000Y-5120000D01*
X13810000Y-5075000D01*
X13765000Y-5120000D01*
X13810000Y-5165000D01*
X14064000Y-5165000D02*
X14109000Y-5120000D01*
X14064000Y-5075000D01*
X14019000Y-5120000D01*
X14064000Y-5165000D01*
X16740000Y-5145000D02*
X16785000Y-5100000D01*
X16740000Y-5055000D01*
X16695000Y-5100000D01*
X16740000Y-5145000D01*
X16994000Y-5145000D02*
X17039000Y-5100000D01*
X16994000Y-5055000D01*
X16949000Y-5100000D01*
X16994000Y-5145000D01*
X19520000Y-5165000D02*
X19565000Y-5120000D01*
X19520000Y-5075000D01*
X19475000Y-5120000D01*
X19520000Y-5165000D01*
X19774000Y-5165000D02*
X19819000Y-5120000D01*
X19774000Y-5075000D01*
X19729000Y-5120000D01*
X19774000Y-5165000D01*
D10*
X22342000Y-5250000D02*
X22442000Y-5350000D01*
X22442000Y-5250000D02*
X22342000Y-5350000D01*
X22442000Y-5300000D02*
G75*
G03*
X22442000Y-5300000I-50000J0D01*
G01*
X22850000Y-5250000D02*
X22950000Y-5350000D01*
X22950000Y-5250000D02*
X22850000Y-5350000D01*
X22950000Y-5300000D02*
G75*
G03*
X22950000Y-5300000I-50000J0D01*
G01*
X39651000Y-5250000D02*
X39751000Y-5350000D01*
X39751000Y-5250000D02*
X39651000Y-5350000D01*
X39751000Y-5300000D02*
G75*
G03*
X39751000Y-5300000I-50000J0D01*
G01*
X40159000Y-5250000D02*
X40259000Y-5350000D01*
X40259000Y-5250000D02*
X40159000Y-5350000D01*
X40259000Y-5300000D02*
G75*
G03*
X40259000Y-5300000I-50000J0D01*
G01*
D17*
X25536000Y-4332500D02*
X25638000Y-4434500D01*
X25638000Y-4332500D02*
X25536000Y-4434500D01*
X25587000Y-4332500D02*
X25587000Y-4434500D01*
X25536000Y-4383500D02*
X25638000Y-4383500D01*
X25536000Y-6110500D02*
X25638000Y-6212500D01*
X25638000Y-6110500D02*
X25536000Y-6212500D01*
X25587000Y-6110500D02*
X25587000Y-6212500D01*
X25536000Y-6161500D02*
X25638000Y-6161500D01*
X25559000Y-4967500D02*
X25661000Y-5069500D01*
X25661000Y-4967500D02*
X25559000Y-5069500D01*
X25610000Y-4967500D02*
X25610000Y-5069500D01*
X25559000Y-5018500D02*
X25661000Y-5018500D01*
X25559000Y-5221500D02*
X25661000Y-5323500D01*
X25661000Y-5221500D02*
X25559000Y-5323500D01*
X25610000Y-5221500D02*
X25610000Y-5323500D01*
X25559000Y-5272500D02*
X25661000Y-5272500D01*
X25559000Y-5475500D02*
X25661000Y-5577500D01*
X25661000Y-5475500D02*
X25559000Y-5577500D01*
X25610000Y-5475500D02*
X25610000Y-5577500D01*
X25559000Y-5526500D02*
X25661000Y-5526500D01*
X25790000Y-4332500D02*
X25892000Y-4434500D01*
X25892000Y-4332500D02*
X25790000Y-4434500D01*
X25841000Y-4332500D02*
X25841000Y-4434500D01*
X25790000Y-4383500D02*
X25892000Y-4383500D01*
X25790000Y-6110500D02*
X25892000Y-6212500D01*
X25892000Y-6110500D02*
X25790000Y-6212500D01*
X25841000Y-6110500D02*
X25841000Y-6212500D01*
X25790000Y-6161500D02*
X25892000Y-6161500D01*
X26044000Y-4332500D02*
X26146000Y-4434500D01*
X26146000Y-4332500D02*
X26044000Y-4434500D01*
X26095000Y-4332500D02*
X26095000Y-4434500D01*
X26044000Y-4383500D02*
X26146000Y-4383500D01*
X26044000Y-6110500D02*
X26146000Y-6212500D01*
X26146000Y-6110500D02*
X26044000Y-6212500D01*
X26095000Y-6110500D02*
X26095000Y-6212500D01*
X26044000Y-6161500D02*
X26146000Y-6161500D01*
X26298000Y-4332500D02*
X26400000Y-4434500D01*
X26400000Y-4332500D02*
X26298000Y-4434500D01*
X26349000Y-4332500D02*
X26349000Y-4434500D01*
X26298000Y-4383500D02*
X26400000Y-4383500D01*
X26298000Y-6110500D02*
X26400000Y-6212500D01*
X26400000Y-6110500D02*
X26298000Y-6212500D01*
X26349000Y-6110500D02*
X26349000Y-6212500D01*
X26298000Y-6161500D02*
X26400000Y-6161500D01*
X26552000Y-4332500D02*
X26654000Y-4434500D01*
X26654000Y-4332500D02*
X26552000Y-4434500D01*
X26603000Y-4332500D02*
X26603000Y-4434500D01*
X26552000Y-4383500D02*
X26654000Y-4383500D01*
X26552000Y-6110500D02*
X26654000Y-6212500D01*
X26654000Y-6110500D02*
X26552000Y-6212500D01*
X26603000Y-6110500D02*
X26603000Y-6212500D01*
X26552000Y-6161500D02*
X26654000Y-6161500D01*
X26806000Y-4332500D02*
X26908000Y-4434500D01*
X26908000Y-4332500D02*
X26806000Y-4434500D01*
X26857000Y-4332500D02*
X26857000Y-4434500D01*
X26806000Y-4383500D02*
X26908000Y-4383500D01*
X26806000Y-6110500D02*
X26908000Y-6212500D01*
X26908000Y-6110500D02*
X26806000Y-6212500D01*
X26857000Y-6110500D02*
X26857000Y-6212500D01*
X26806000Y-6161500D02*
X26908000Y-6161500D01*
X27060000Y-4332500D02*
X27162000Y-4434500D01*
X27162000Y-4332500D02*
X27060000Y-4434500D01*
X27111000Y-4332500D02*
X27111000Y-4434500D01*
X27060000Y-4383500D02*
X27162000Y-4383500D01*
X27060000Y-6110500D02*
X27162000Y-6212500D01*
X27162000Y-6110500D02*
X27060000Y-6212500D01*
X27111000Y-6110500D02*
X27111000Y-6212500D01*
X27060000Y-6161500D02*
X27162000Y-6161500D01*
X27314000Y-4332500D02*
X27416000Y-4434500D01*
X27416000Y-4332500D02*
X27314000Y-4434500D01*
X27365000Y-4332500D02*
X27365000Y-4434500D01*
X27314000Y-4383500D02*
X27416000Y-4383500D01*
X27314000Y-6110500D02*
X27416000Y-6212500D01*
X27416000Y-6110500D02*
X27314000Y-6212500D01*
X27365000Y-6110500D02*
X27365000Y-6212500D01*
X27314000Y-6161500D02*
X27416000Y-6161500D01*
X27568000Y-4332500D02*
X27670000Y-4434500D01*
X27670000Y-4332500D02*
X27568000Y-4434500D01*
X27619000Y-4332500D02*
X27619000Y-4434500D01*
X27568000Y-4383500D02*
X27670000Y-4383500D01*
X27568000Y-6110500D02*
X27670000Y-6212500D01*
X27670000Y-6110500D02*
X27568000Y-6212500D01*
X27619000Y-6110500D02*
X27619000Y-6212500D01*
X27568000Y-6161500D02*
X27670000Y-6161500D01*
X27822000Y-4332500D02*
X27924000Y-4434500D01*
X27924000Y-4332500D02*
X27822000Y-4434500D01*
X27873000Y-4332500D02*
X27873000Y-4434500D01*
X27822000Y-4383500D02*
X27924000Y-4383500D01*
X27822000Y-6110500D02*
X27924000Y-6212500D01*
X27924000Y-6110500D02*
X27822000Y-6212500D01*
X27873000Y-6110500D02*
X27873000Y-6212500D01*
X27822000Y-6161500D02*
X27924000Y-6161500D01*
X28076000Y-4332500D02*
X28178000Y-4434500D01*
X28178000Y-4332500D02*
X28076000Y-4434500D01*
X28127000Y-4332500D02*
X28127000Y-4434500D01*
X28076000Y-4383500D02*
X28178000Y-4383500D01*
X28076000Y-6110500D02*
X28178000Y-6212500D01*
X28178000Y-6110500D02*
X28076000Y-6212500D01*
X28127000Y-6110500D02*
X28127000Y-6212500D01*
X28076000Y-6161500D02*
X28178000Y-6161500D01*
X28330000Y-4332500D02*
X28432000Y-4434500D01*
X28432000Y-4332500D02*
X28330000Y-4434500D01*
X28381000Y-4332500D02*
X28381000Y-4434500D01*
X28330000Y-4383500D02*
X28432000Y-4383500D01*
X28330000Y-6110500D02*
X28432000Y-6212500D01*
X28432000Y-6110500D02*
X28330000Y-6212500D01*
X28381000Y-6110500D02*
X28381000Y-6212500D01*
X28330000Y-6161500D02*
X28432000Y-6161500D01*
X28584000Y-4332500D02*
X28686000Y-4434500D01*
X28686000Y-4332500D02*
X28584000Y-4434500D01*
X28635000Y-4332500D02*
X28635000Y-4434500D01*
X28584000Y-4383500D02*
X28686000Y-4383500D01*
X28584000Y-6110500D02*
X28686000Y-6212500D01*
X28686000Y-6110500D02*
X28584000Y-6212500D01*
X28635000Y-6110500D02*
X28635000Y-6212500D01*
X28584000Y-6161500D02*
X28686000Y-6161500D01*
X28838000Y-4332500D02*
X28940000Y-4434500D01*
X28940000Y-4332500D02*
X28838000Y-4434500D01*
X28889000Y-4332500D02*
X28889000Y-4434500D01*
X28838000Y-4383500D02*
X28940000Y-4383500D01*
X28838000Y-6110500D02*
X28940000Y-6212500D01*
X28940000Y-6110500D02*
X28838000Y-6212500D01*
X28889000Y-6110500D02*
X28889000Y-6212500D01*
X28838000Y-6161500D02*
X28940000Y-6161500D01*
X29092000Y-4332500D02*
X29194000Y-4434500D01*
X29194000Y-4332500D02*
X29092000Y-4434500D01*
X29143000Y-4332500D02*
X29143000Y-4434500D01*
X29092000Y-4383500D02*
X29194000Y-4383500D01*
X29092000Y-6110500D02*
X29194000Y-6212500D01*
X29194000Y-6110500D02*
X29092000Y-6212500D01*
X29143000Y-6110500D02*
X29143000Y-6212500D01*
X29092000Y-6161500D02*
X29194000Y-6161500D01*
X29346000Y-4332500D02*
X29448000Y-4434500D01*
X29448000Y-4332500D02*
X29346000Y-4434500D01*
X29397000Y-4332500D02*
X29397000Y-4434500D01*
X29346000Y-4383500D02*
X29448000Y-4383500D01*
X29346000Y-6110500D02*
X29448000Y-6212500D01*
X29448000Y-6110500D02*
X29346000Y-6212500D01*
X29397000Y-6110500D02*
X29397000Y-6212500D01*
X29346000Y-6161500D02*
X29448000Y-6161500D01*
X29600000Y-4332500D02*
X29702000Y-4434500D01*
X29702000Y-4332500D02*
X29600000Y-4434500D01*
X29651000Y-4332500D02*
X29651000Y-4434500D01*
X29600000Y-4383500D02*
X29702000Y-4383500D01*
X29600000Y-6110500D02*
X29702000Y-6212500D01*
X29702000Y-6110500D02*
X29600000Y-6212500D01*
X29651000Y-6110500D02*
X29651000Y-6212500D01*
X29600000Y-6161500D02*
X29702000Y-6161500D01*
X29854000Y-4332500D02*
X29956000Y-4434500D01*
X29956000Y-4332500D02*
X29854000Y-4434500D01*
X29905000Y-4332500D02*
X29905000Y-4434500D01*
X29854000Y-4383500D02*
X29956000Y-4383500D01*
X29854000Y-6110500D02*
X29956000Y-6212500D01*
X29956000Y-6110500D02*
X29854000Y-6212500D01*
X29905000Y-6110500D02*
X29905000Y-6212500D01*
X29854000Y-6161500D02*
X29956000Y-6161500D01*
X30108000Y-4332500D02*
X30210000Y-4434500D01*
X30210000Y-4332500D02*
X30108000Y-4434500D01*
X30159000Y-4332500D02*
X30159000Y-4434500D01*
X30108000Y-4383500D02*
X30210000Y-4383500D01*
X30108000Y-6110500D02*
X30210000Y-6212500D01*
X30210000Y-6110500D02*
X30108000Y-6212500D01*
X30159000Y-6110500D02*
X30159000Y-6212500D01*
X30108000Y-6161500D02*
X30210000Y-6161500D01*
X30362000Y-4332500D02*
X30464000Y-4434500D01*
X30464000Y-4332500D02*
X30362000Y-4434500D01*
X30413000Y-4332500D02*
X30413000Y-4434500D01*
X30362000Y-4383500D02*
X30464000Y-4383500D01*
X30362000Y-6110500D02*
X30464000Y-6212500D01*
X30464000Y-6110500D02*
X30362000Y-6212500D01*
X30413000Y-6110500D02*
X30413000Y-6212500D01*
X30362000Y-6161500D02*
X30464000Y-6161500D01*
X31991000Y-4332500D02*
X32093000Y-4434500D01*
X32093000Y-4332500D02*
X31991000Y-4434500D01*
X32042000Y-4332500D02*
X32042000Y-4434500D01*
X31991000Y-4383500D02*
X32093000Y-4383500D01*
X31991000Y-6110500D02*
X32093000Y-6212500D01*
X32093000Y-6110500D02*
X31991000Y-6212500D01*
X32042000Y-6110500D02*
X32042000Y-6212500D01*
X31991000Y-6161500D02*
X32093000Y-6161500D01*
X32245000Y-4332500D02*
X32347000Y-4434500D01*
X32347000Y-4332500D02*
X32245000Y-4434500D01*
X32296000Y-4332500D02*
X32296000Y-4434500D01*
X32245000Y-4383500D02*
X32347000Y-4383500D01*
X32245000Y-6110500D02*
X32347000Y-6212500D01*
X32347000Y-6110500D02*
X32245000Y-6212500D01*
X32296000Y-6110500D02*
X32296000Y-6212500D01*
X32245000Y-6161500D02*
X32347000Y-6161500D01*
X32499000Y-4332500D02*
X32601000Y-4434500D01*
X32601000Y-4332500D02*
X32499000Y-4434500D01*
X32550000Y-4332500D02*
X32550000Y-4434500D01*
X32499000Y-4383500D02*
X32601000Y-4383500D01*
X32499000Y-6110500D02*
X32601000Y-6212500D01*
X32601000Y-6110500D02*
X32499000Y-6212500D01*
X32550000Y-6110500D02*
X32550000Y-6212500D01*
X32499000Y-6161500D02*
X32601000Y-6161500D01*
X32753000Y-4332500D02*
X32855000Y-4434500D01*
X32855000Y-4332500D02*
X32753000Y-4434500D01*
X32804000Y-4332500D02*
X32804000Y-4434500D01*
X32753000Y-4383500D02*
X32855000Y-4383500D01*
X32753000Y-6110500D02*
X32855000Y-6212500D01*
X32855000Y-6110500D02*
X32753000Y-6212500D01*
X32804000Y-6110500D02*
X32804000Y-6212500D01*
X32753000Y-6161500D02*
X32855000Y-6161500D01*
X33007000Y-4332500D02*
X33109000Y-4434500D01*
X33109000Y-4332500D02*
X33007000Y-4434500D01*
X33058000Y-4332500D02*
X33058000Y-4434500D01*
X33007000Y-4383500D02*
X33109000Y-4383500D01*
X33007000Y-6110500D02*
X33109000Y-6212500D01*
X33109000Y-6110500D02*
X33007000Y-6212500D01*
X33058000Y-6110500D02*
X33058000Y-6212500D01*
X33007000Y-6161500D02*
X33109000Y-6161500D01*
X33261000Y-4332500D02*
X33363000Y-4434500D01*
X33363000Y-4332500D02*
X33261000Y-4434500D01*
X33312000Y-4332500D02*
X33312000Y-4434500D01*
X33261000Y-4383500D02*
X33363000Y-4383500D01*
X33261000Y-6110500D02*
X33363000Y-6212500D01*
X33363000Y-6110500D02*
X33261000Y-6212500D01*
X33312000Y-6110500D02*
X33312000Y-6212500D01*
X33261000Y-6161500D02*
X33363000Y-6161500D01*
X33515000Y-4332500D02*
X33617000Y-4434500D01*
X33617000Y-4332500D02*
X33515000Y-4434500D01*
X33566000Y-4332500D02*
X33566000Y-4434500D01*
X33515000Y-4383500D02*
X33617000Y-4383500D01*
X33515000Y-6110500D02*
X33617000Y-6212500D01*
X33617000Y-6110500D02*
X33515000Y-6212500D01*
X33566000Y-6110500D02*
X33566000Y-6212500D01*
X33515000Y-6161500D02*
X33617000Y-6161500D01*
X33769000Y-4332500D02*
X33871000Y-4434500D01*
X33871000Y-4332500D02*
X33769000Y-4434500D01*
X33820000Y-4332500D02*
X33820000Y-4434500D01*
X33769000Y-4383500D02*
X33871000Y-4383500D01*
X33769000Y-6110500D02*
X33871000Y-6212500D01*
X33871000Y-6110500D02*
X33769000Y-6212500D01*
X33820000Y-6110500D02*
X33820000Y-6212500D01*
X33769000Y-6161500D02*
X33871000Y-6161500D01*
X34023000Y-4332500D02*
X34125000Y-4434500D01*
X34125000Y-4332500D02*
X34023000Y-4434500D01*
X34074000Y-4332500D02*
X34074000Y-4434500D01*
X34023000Y-4383500D02*
X34125000Y-4383500D01*
X34023000Y-6110500D02*
X34125000Y-6212500D01*
X34125000Y-6110500D02*
X34023000Y-6212500D01*
X34074000Y-6110500D02*
X34074000Y-6212500D01*
X34023000Y-6161500D02*
X34125000Y-6161500D01*
X34277000Y-4332500D02*
X34379000Y-4434500D01*
X34379000Y-4332500D02*
X34277000Y-4434500D01*
X34328000Y-4332500D02*
X34328000Y-4434500D01*
X34277000Y-4383500D02*
X34379000Y-4383500D01*
X34277000Y-6110500D02*
X34379000Y-6212500D01*
X34379000Y-6110500D02*
X34277000Y-6212500D01*
X34328000Y-6110500D02*
X34328000Y-6212500D01*
X34277000Y-6161500D02*
X34379000Y-6161500D01*
X34531000Y-4332500D02*
X34633000Y-4434500D01*
X34633000Y-4332500D02*
X34531000Y-4434500D01*
X34582000Y-4332500D02*
X34582000Y-4434500D01*
X34531000Y-4383500D02*
X34633000Y-4383500D01*
X34531000Y-6110500D02*
X34633000Y-6212500D01*
X34633000Y-6110500D02*
X34531000Y-6212500D01*
X34582000Y-6110500D02*
X34582000Y-6212500D01*
X34531000Y-6161500D02*
X34633000Y-6161500D01*
X34785000Y-4332500D02*
X34887000Y-4434500D01*
X34887000Y-4332500D02*
X34785000Y-4434500D01*
X34836000Y-4332500D02*
X34836000Y-4434500D01*
X34785000Y-4383500D02*
X34887000Y-4383500D01*
X34785000Y-6110500D02*
X34887000Y-6212500D01*
X34887000Y-6110500D02*
X34785000Y-6212500D01*
X34836000Y-6110500D02*
X34836000Y-6212500D01*
X34785000Y-6161500D02*
X34887000Y-6161500D01*
X35039000Y-4332500D02*
X35141000Y-4434500D01*
X35141000Y-4332500D02*
X35039000Y-4434500D01*
X35090000Y-4332500D02*
X35090000Y-4434500D01*
X35039000Y-4383500D02*
X35141000Y-4383500D01*
X35039000Y-6110500D02*
X35141000Y-6212500D01*
X35141000Y-6110500D02*
X35039000Y-6212500D01*
X35090000Y-6110500D02*
X35090000Y-6212500D01*
X35039000Y-6161500D02*
X35141000Y-6161500D01*
X35293000Y-4332500D02*
X35395000Y-4434500D01*
X35395000Y-4332500D02*
X35293000Y-4434500D01*
X35344000Y-4332500D02*
X35344000Y-4434500D01*
X35293000Y-4383500D02*
X35395000Y-4383500D01*
X35293000Y-6110500D02*
X35395000Y-6212500D01*
X35395000Y-6110500D02*
X35293000Y-6212500D01*
X35344000Y-6110500D02*
X35344000Y-6212500D01*
X35293000Y-6161500D02*
X35395000Y-6161500D01*
X35547000Y-4332500D02*
X35649000Y-4434500D01*
X35649000Y-4332500D02*
X35547000Y-4434500D01*
X35598000Y-4332500D02*
X35598000Y-4434500D01*
X35547000Y-4383500D02*
X35649000Y-4383500D01*
X35547000Y-6110500D02*
X35649000Y-6212500D01*
X35649000Y-6110500D02*
X35547000Y-6212500D01*
X35598000Y-6110500D02*
X35598000Y-6212500D01*
X35547000Y-6161500D02*
X35649000Y-6161500D01*
X35801000Y-4332500D02*
X35903000Y-4434500D01*
X35903000Y-4332500D02*
X35801000Y-4434500D01*
X35852000Y-4332500D02*
X35852000Y-4434500D01*
X35801000Y-4383500D02*
X35903000Y-4383500D01*
X35801000Y-6110500D02*
X35903000Y-6212500D01*
X35903000Y-6110500D02*
X35801000Y-6212500D01*
X35852000Y-6110500D02*
X35852000Y-6212500D01*
X35801000Y-6161500D02*
X35903000Y-6161500D01*
X36055000Y-4332500D02*
X36157000Y-4434500D01*
X36157000Y-4332500D02*
X36055000Y-4434500D01*
X36106000Y-4332500D02*
X36106000Y-4434500D01*
X36055000Y-4383500D02*
X36157000Y-4383500D01*
X36055000Y-6110500D02*
X36157000Y-6212500D01*
X36157000Y-6110500D02*
X36055000Y-6212500D01*
X36106000Y-6110500D02*
X36106000Y-6212500D01*
X36055000Y-6161500D02*
X36157000Y-6161500D01*
X36309000Y-4332500D02*
X36411000Y-4434500D01*
X36411000Y-4332500D02*
X36309000Y-4434500D01*
X36360000Y-4332500D02*
X36360000Y-4434500D01*
X36309000Y-4383500D02*
X36411000Y-4383500D01*
X36309000Y-6110500D02*
X36411000Y-6212500D01*
X36411000Y-6110500D02*
X36309000Y-6212500D01*
X36360000Y-6110500D02*
X36360000Y-6212500D01*
X36309000Y-6161500D02*
X36411000Y-6161500D01*
X36563000Y-4332500D02*
X36665000Y-4434500D01*
X36665000Y-4332500D02*
X36563000Y-4434500D01*
X36614000Y-4332500D02*
X36614000Y-4434500D01*
X36563000Y-4383500D02*
X36665000Y-4383500D01*
X36563000Y-6110500D02*
X36665000Y-6212500D01*
X36665000Y-6110500D02*
X36563000Y-6212500D01*
X36614000Y-6110500D02*
X36614000Y-6212500D01*
X36563000Y-6161500D02*
X36665000Y-6161500D01*
X36794000Y-4967500D02*
X36896000Y-5069500D01*
X36896000Y-4967500D02*
X36794000Y-5069500D01*
X36845000Y-4967500D02*
X36845000Y-5069500D01*
X36794000Y-5018500D02*
X36896000Y-5018500D01*
X36794000Y-5221500D02*
X36896000Y-5323500D01*
X36896000Y-5221500D02*
X36794000Y-5323500D01*
X36845000Y-5221500D02*
X36845000Y-5323500D01*
X36794000Y-5272500D02*
X36896000Y-5272500D01*
X36794000Y-5475500D02*
X36896000Y-5577500D01*
X36896000Y-5475500D02*
X36794000Y-5577500D01*
X36845000Y-5475500D02*
X36845000Y-5577500D01*
X36794000Y-5526500D02*
X36896000Y-5526500D01*
X36817000Y-4332500D02*
X36919000Y-4434500D01*
X36919000Y-4332500D02*
X36817000Y-4434500D01*
X36868000Y-4332500D02*
X36868000Y-4434500D01*
X36817000Y-4383500D02*
X36919000Y-4383500D01*
X36817000Y-6110500D02*
X36919000Y-6212500D01*
X36919000Y-6110500D02*
X36817000Y-6212500D01*
X36868000Y-6110500D02*
X36868000Y-6212500D01*
X36817000Y-6161500D02*
X36919000Y-6161500D01*
D18*
X29702000Y-9008000D02*
X29812000Y-9118000D01*
X29812000Y-9008000D02*
X29702000Y-9118000D01*
X29795891Y-9101891D02*
X29795891Y-9024109D01*
X29718109Y-9024109D01*
X29718109Y-9101891D01*
X29795891Y-9101891D01*
X30012000Y-9528000D02*
X30122000Y-9638000D01*
X30122000Y-9528000D02*
X30012000Y-9638000D01*
X30105891Y-9621891D02*
X30105891Y-9544109D01*
X30028109Y-9544109D01*
X30028109Y-9621891D01*
X30105891Y-9621891D01*
X30512000Y-8688000D02*
X30622000Y-8798000D01*
X30622000Y-8688000D02*
X30512000Y-8798000D01*
X30605891Y-8781891D02*
X30605891Y-8704109D01*
X30528109Y-8704109D01*
X30528109Y-8781891D01*
X30605891Y-8781891D01*
X30512000Y-9618000D02*
X30622000Y-9728000D01*
X30622000Y-9618000D02*
X30512000Y-9728000D01*
X30605891Y-9711891D02*
X30605891Y-9634109D01*
X30528109Y-9634109D01*
X30528109Y-9711891D01*
X30605891Y-9711891D01*
X31842500Y-8720000D02*
X31952500Y-8830000D01*
X31952500Y-8720000D02*
X31842500Y-8830000D01*
X31936391Y-8813891D02*
X31936391Y-8736109D01*
X31858609Y-8736109D01*
X31858609Y-8813891D01*
X31936391Y-8813891D01*
X31842500Y-9650000D02*
X31952500Y-9760000D01*
X31952500Y-9650000D02*
X31842500Y-9760000D01*
X31936391Y-9743891D02*
X31936391Y-9666109D01*
X31858609Y-9666109D01*
X31858609Y-9743891D01*
X31936391Y-9743891D01*
X32342500Y-8810000D02*
X32452500Y-8920000D01*
X32452500Y-8810000D02*
X32342500Y-8920000D01*
X32436391Y-8903891D02*
X32436391Y-8826109D01*
X32358609Y-8826109D01*
X32358609Y-8903891D01*
X32436391Y-8903891D01*
X32652500Y-9330000D02*
X32762500Y-9440000D01*
X32762500Y-9330000D02*
X32652500Y-9440000D01*
X32746391Y-9423891D02*
X32746391Y-9346109D01*
X32668609Y-9346109D01*
X32668609Y-9423891D01*
X32746391Y-9423891D01*
D19*
X12444000Y-9631000D02*
X12594000Y-9781000D01*
X12594000Y-9631000D02*
X12444000Y-9781000D01*
X12519000Y-9781000D02*
X12594000Y-9706000D01*
X12519000Y-9631000D01*
X12444000Y-9706000D01*
X12519000Y-9781000D01*
X12476000Y-11721000D02*
X12626000Y-11871000D01*
X12626000Y-11721000D02*
X12476000Y-11871000D01*
X12551000Y-11871000D02*
X12626000Y-11796000D01*
X12551000Y-11721000D01*
X12476000Y-11796000D01*
X12551000Y-11871000D01*
X12603000Y-13811000D02*
X12753000Y-13961000D01*
X12753000Y-13811000D02*
X12603000Y-13961000D01*
X12678000Y-13961000D02*
X12753000Y-13886000D01*
X12678000Y-13811000D01*
X12603000Y-13886000D01*
X12678000Y-13961000D01*
X12644000Y-15919000D02*
X12794000Y-16069000D01*
X12794000Y-15919000D02*
X12644000Y-16069000D01*
X12719000Y-16069000D02*
X12794000Y-15994000D01*
X12719000Y-15919000D01*
X12644000Y-15994000D01*
X12719000Y-16069000D01*
X13079000Y-9377000D02*
X13229000Y-9527000D01*
X13229000Y-9377000D02*
X13079000Y-9527000D01*
X13154000Y-9527000D02*
X13229000Y-9452000D01*
X13154000Y-9377000D01*
X13079000Y-9452000D01*
X13154000Y-9527000D01*
X13090000Y-18039000D02*
X13240000Y-18189000D01*
X13240000Y-18039000D02*
X13090000Y-18189000D01*
X13165000Y-18189000D02*
X13240000Y-18114000D01*
X13165000Y-18039000D01*
X13090000Y-18114000D01*
X13165000Y-18189000D01*
X13111000Y-11467000D02*
X13261000Y-11617000D01*
X13261000Y-11467000D02*
X13111000Y-11617000D01*
X13186000Y-11617000D02*
X13261000Y-11542000D01*
X13186000Y-11467000D01*
X13111000Y-11542000D01*
X13186000Y-11617000D01*
X13238000Y-13557000D02*
X13388000Y-13707000D01*
X13388000Y-13557000D02*
X13238000Y-13707000D01*
X13313000Y-13707000D02*
X13388000Y-13632000D01*
X13313000Y-13557000D01*
X13238000Y-13632000D01*
X13313000Y-13707000D01*
X13279000Y-15665000D02*
X13429000Y-15815000D01*
X13429000Y-15665000D02*
X13279000Y-15815000D01*
X13354000Y-15815000D02*
X13429000Y-15740000D01*
X13354000Y-15665000D01*
X13279000Y-15740000D01*
X13354000Y-15815000D01*
X13725000Y-17785000D02*
X13875000Y-17935000D01*
X13875000Y-17785000D02*
X13725000Y-17935000D01*
X13800000Y-17935000D02*
X13875000Y-17860000D01*
X13800000Y-17785000D01*
X13725000Y-17860000D01*
X13800000Y-17935000D01*
X15044000Y-7231000D02*
X15194000Y-7381000D01*
X15194000Y-7231000D02*
X15044000Y-7381000D01*
X15119000Y-7381000D02*
X15194000Y-7306000D01*
X15119000Y-7231000D01*
X15044000Y-7306000D01*
X15119000Y-7381000D01*
X15052000Y-9651000D02*
X15202000Y-9801000D01*
X15202000Y-9651000D02*
X15052000Y-9801000D01*
X15127000Y-9801000D02*
X15202000Y-9726000D01*
X15127000Y-9651000D01*
X15052000Y-9726000D01*
X15127000Y-9801000D01*
X15074000Y-11721000D02*
X15224000Y-11871000D01*
X15224000Y-11721000D02*
X15074000Y-11871000D01*
X15149000Y-11871000D02*
X15224000Y-11796000D01*
X15149000Y-11721000D01*
X15074000Y-11796000D01*
X15149000Y-11871000D01*
X15187000Y-13801000D02*
X15337000Y-13951000D01*
X15337000Y-13801000D02*
X15187000Y-13951000D01*
X15262000Y-13951000D02*
X15337000Y-13876000D01*
X15262000Y-13801000D01*
X15187000Y-13876000D01*
X15262000Y-13951000D01*
X15240000Y-15899000D02*
X15390000Y-16049000D01*
X15390000Y-15899000D02*
X15240000Y-16049000D01*
X15315000Y-16049000D02*
X15390000Y-15974000D01*
X15315000Y-15899000D01*
X15240000Y-15974000D01*
X15315000Y-16049000D01*
X15244000Y-18029000D02*
X15394000Y-18179000D01*
X15394000Y-18029000D02*
X15244000Y-18179000D01*
X15319000Y-18179000D02*
X15394000Y-18104000D01*
X15319000Y-18029000D01*
X15244000Y-18104000D01*
X15319000Y-18179000D01*
X15679000Y-6977000D02*
X15829000Y-7127000D01*
X15829000Y-6977000D02*
X15679000Y-7127000D01*
X15754000Y-7127000D02*
X15829000Y-7052000D01*
X15754000Y-6977000D01*
X15679000Y-7052000D01*
X15754000Y-7127000D01*
X15687000Y-9397000D02*
X15837000Y-9547000D01*
X15837000Y-9397000D02*
X15687000Y-9547000D01*
X15762000Y-9547000D02*
X15837000Y-9472000D01*
X15762000Y-9397000D01*
X15687000Y-9472000D01*
X15762000Y-9547000D01*
X15709000Y-11467000D02*
X15859000Y-11617000D01*
X15859000Y-11467000D02*
X15709000Y-11617000D01*
X15784000Y-11617000D02*
X15859000Y-11542000D01*
X15784000Y-11467000D01*
X15709000Y-11542000D01*
X15784000Y-11617000D01*
X15822000Y-13547000D02*
X15972000Y-13697000D01*
X15972000Y-13547000D02*
X15822000Y-13697000D01*
X15897000Y-13697000D02*
X15972000Y-13622000D01*
X15897000Y-13547000D01*
X15822000Y-13622000D01*
X15897000Y-13697000D01*
X15875000Y-15645000D02*
X16025000Y-15795000D01*
X16025000Y-15645000D02*
X15875000Y-15795000D01*
X15950000Y-15795000D02*
X16025000Y-15720000D01*
X15950000Y-15645000D01*
X15875000Y-15720000D01*
X15950000Y-15795000D01*
X15879000Y-17775000D02*
X16029000Y-17925000D01*
X16029000Y-17775000D02*
X15879000Y-17925000D01*
X15954000Y-17925000D02*
X16029000Y-17850000D01*
X15954000Y-17775000D01*
X15879000Y-17850000D01*
X15954000Y-17925000D01*
X17106000Y-9151000D02*
X17256000Y-9301000D01*
X17256000Y-9151000D02*
X17106000Y-9301000D01*
X17181000Y-9301000D02*
X17256000Y-9226000D01*
X17181000Y-9151000D01*
X17106000Y-9226000D01*
X17181000Y-9301000D01*
X17124000Y-7241000D02*
X17274000Y-7391000D01*
X17274000Y-7241000D02*
X17124000Y-7391000D01*
X17199000Y-7391000D02*
X17274000Y-7316000D01*
X17199000Y-7241000D01*
X17124000Y-7316000D01*
X17199000Y-7391000D01*
X17236000Y-11251000D02*
X17386000Y-11401000D01*
X17386000Y-11251000D02*
X17236000Y-11401000D01*
X17311000Y-11401000D02*
X17386000Y-11326000D01*
X17311000Y-11251000D01*
X17236000Y-11326000D01*
X17311000Y-11401000D01*
X17277000Y-13331000D02*
X17427000Y-13481000D01*
X17427000Y-13331000D02*
X17277000Y-13481000D01*
X17352000Y-13481000D02*
X17427000Y-13406000D01*
X17352000Y-13331000D01*
X17277000Y-13406000D01*
X17352000Y-13481000D01*
X17336000Y-15439000D02*
X17486000Y-15589000D01*
X17486000Y-15439000D02*
X17336000Y-15589000D01*
X17411000Y-15589000D02*
X17486000Y-15514000D01*
X17411000Y-15439000D01*
X17336000Y-15514000D01*
X17411000Y-15589000D01*
X17344000Y-17731000D02*
X17494000Y-17881000D01*
X17494000Y-17731000D02*
X17344000Y-17881000D01*
X17419000Y-17881000D02*
X17494000Y-17806000D01*
X17419000Y-17731000D01*
X17344000Y-17806000D01*
X17419000Y-17881000D01*
X17741000Y-8897000D02*
X17891000Y-9047000D01*
X17891000Y-8897000D02*
X17741000Y-9047000D01*
X17816000Y-9047000D02*
X17891000Y-8972000D01*
X17816000Y-8897000D01*
X17741000Y-8972000D01*
X17816000Y-9047000D01*
X17759000Y-6987000D02*
X17909000Y-7137000D01*
X17909000Y-6987000D02*
X17759000Y-7137000D01*
X17834000Y-7137000D02*
X17909000Y-7062000D01*
X17834000Y-6987000D01*
X17759000Y-7062000D01*
X17834000Y-7137000D01*
X17871000Y-10997000D02*
X18021000Y-11147000D01*
X18021000Y-10997000D02*
X17871000Y-11147000D01*
X17946000Y-11147000D02*
X18021000Y-11072000D01*
X17946000Y-10997000D01*
X17871000Y-11072000D01*
X17946000Y-11147000D01*
X17912000Y-13077000D02*
X18062000Y-13227000D01*
X18062000Y-13077000D02*
X17912000Y-13227000D01*
X17987000Y-13227000D02*
X18062000Y-13152000D01*
X17987000Y-13077000D01*
X17912000Y-13152000D01*
X17987000Y-13227000D01*
X17971000Y-15185000D02*
X18121000Y-15335000D01*
X18121000Y-15185000D02*
X17971000Y-15335000D01*
X18046000Y-15335000D02*
X18121000Y-15260000D01*
X18046000Y-15185000D01*
X17971000Y-15260000D01*
X18046000Y-15335000D01*
X17979000Y-17477000D02*
X18129000Y-17627000D01*
X18129000Y-17477000D02*
X17979000Y-17627000D01*
X18054000Y-17627000D02*
X18129000Y-17552000D01*
X18054000Y-17477000D01*
X17979000Y-17552000D01*
X18054000Y-17627000D01*
X19174000Y-8891000D02*
X19324000Y-9041000D01*
X19324000Y-8891000D02*
X19174000Y-9041000D01*
X19249000Y-9041000D02*
X19324000Y-8966000D01*
X19249000Y-8891000D01*
X19174000Y-8966000D01*
X19249000Y-9041000D01*
X19244000Y-7241000D02*
X19394000Y-7391000D01*
X19394000Y-7241000D02*
X19244000Y-7391000D01*
X19319000Y-7391000D02*
X19394000Y-7316000D01*
X19319000Y-7241000D01*
X19244000Y-7316000D01*
X19319000Y-7391000D01*
X19358000Y-10991000D02*
X19508000Y-11141000D01*
X19508000Y-10991000D02*
X19358000Y-11141000D01*
X19433000Y-11141000D02*
X19508000Y-11066000D01*
X19433000Y-10991000D01*
X19358000Y-11066000D01*
X19433000Y-11141000D01*
X19408000Y-13091000D02*
X19558000Y-13241000D01*
X19558000Y-13091000D02*
X19408000Y-13241000D01*
X19483000Y-13241000D02*
X19558000Y-13166000D01*
X19483000Y-13091000D01*
X19408000Y-13166000D01*
X19483000Y-13241000D01*
X19436000Y-15189000D02*
X19586000Y-15339000D01*
X19586000Y-15189000D02*
X19436000Y-15339000D01*
X19511000Y-15339000D02*
X19586000Y-15264000D01*
X19511000Y-15189000D01*
X19436000Y-15264000D01*
X19511000Y-15339000D01*
X19444000Y-17331000D02*
X19594000Y-17481000D01*
X19594000Y-17331000D02*
X19444000Y-17481000D01*
X19519000Y-17481000D02*
X19594000Y-17406000D01*
X19519000Y-17331000D01*
X19444000Y-17406000D01*
X19519000Y-17481000D01*
X19809000Y-8637000D02*
X19959000Y-8787000D01*
X19959000Y-8637000D02*
X19809000Y-8787000D01*
X19884000Y-8787000D02*
X19959000Y-8712000D01*
X19884000Y-8637000D01*
X19809000Y-8712000D01*
X19884000Y-8787000D01*
X19879000Y-6987000D02*
X20029000Y-7137000D01*
X20029000Y-6987000D02*
X19879000Y-7137000D01*
X19954000Y-7137000D02*
X20029000Y-7062000D01*
X19954000Y-6987000D01*
X19879000Y-7062000D01*
X19954000Y-7137000D01*
X19993000Y-10737000D02*
X20143000Y-10887000D01*
X20143000Y-10737000D02*
X19993000Y-10887000D01*
X20068000Y-10887000D02*
X20143000Y-10812000D01*
X20068000Y-10737000D01*
X19993000Y-10812000D01*
X20068000Y-10887000D01*
X20043000Y-12837000D02*
X20193000Y-12987000D01*
X20193000Y-12837000D02*
X20043000Y-12987000D01*
X20118000Y-12987000D02*
X20193000Y-12912000D01*
X20118000Y-12837000D01*
X20043000Y-12912000D01*
X20118000Y-12987000D01*
X20071000Y-14935000D02*
X20221000Y-15085000D01*
X20221000Y-14935000D02*
X20071000Y-15085000D01*
X20146000Y-15085000D02*
X20221000Y-15010000D01*
X20146000Y-14935000D01*
X20071000Y-15010000D01*
X20146000Y-15085000D01*
X20079000Y-17077000D02*
X20229000Y-17227000D01*
X20229000Y-17077000D02*
X20079000Y-17227000D01*
X20154000Y-17227000D02*
X20229000Y-17152000D01*
X20154000Y-17077000D01*
X20079000Y-17152000D01*
X20154000Y-17227000D01*
X21324000Y-9141000D02*
X21474000Y-9291000D01*
X21474000Y-9141000D02*
X21324000Y-9291000D01*
X21399000Y-9291000D02*
X21474000Y-9216000D01*
X21399000Y-9141000D01*
X21324000Y-9216000D01*
X21399000Y-9291000D01*
X21344000Y-7231000D02*
X21494000Y-7381000D01*
X21494000Y-7231000D02*
X21344000Y-7381000D01*
X21419000Y-7381000D02*
X21494000Y-7306000D01*
X21419000Y-7231000D01*
X21344000Y-7306000D01*
X21419000Y-7381000D01*
X21498000Y-11241000D02*
X21648000Y-11391000D01*
X21648000Y-11241000D02*
X21498000Y-11391000D01*
X21573000Y-11391000D02*
X21648000Y-11316000D01*
X21573000Y-11241000D01*
X21498000Y-11316000D01*
X21573000Y-11391000D01*
X21528000Y-13331000D02*
X21678000Y-13481000D01*
X21678000Y-13331000D02*
X21528000Y-13481000D01*
X21603000Y-13481000D02*
X21678000Y-13406000D01*
X21603000Y-13331000D01*
X21528000Y-13406000D01*
X21603000Y-13481000D01*
X21544000Y-15449000D02*
X21694000Y-15599000D01*
X21694000Y-15449000D02*
X21544000Y-15599000D01*
X21619000Y-15599000D02*
X21694000Y-15524000D01*
X21619000Y-15449000D01*
X21544000Y-15524000D01*
X21619000Y-15599000D01*
X21544000Y-17571000D02*
X21694000Y-17721000D01*
X21694000Y-17571000D02*
X21544000Y-17721000D01*
X21619000Y-17721000D02*
X21694000Y-17646000D01*
X21619000Y-17571000D01*
X21544000Y-17646000D01*
X21619000Y-17721000D01*
X21959000Y-8887000D02*
X22109000Y-9037000D01*
X22109000Y-8887000D02*
X21959000Y-9037000D01*
X22034000Y-9037000D02*
X22109000Y-8962000D01*
X22034000Y-8887000D01*
X21959000Y-8962000D01*
X22034000Y-9037000D01*
X21979000Y-6977000D02*
X22129000Y-7127000D01*
X22129000Y-6977000D02*
X21979000Y-7127000D01*
X22054000Y-7127000D02*
X22129000Y-7052000D01*
X22054000Y-6977000D01*
X21979000Y-7052000D01*
X22054000Y-7127000D01*
X22133000Y-10987000D02*
X22283000Y-11137000D01*
X22283000Y-10987000D02*
X22133000Y-11137000D01*
X22208000Y-11137000D02*
X22283000Y-11062000D01*
X22208000Y-10987000D01*
X22133000Y-11062000D01*
X22208000Y-11137000D01*
X22163000Y-13077000D02*
X22313000Y-13227000D01*
X22313000Y-13077000D02*
X22163000Y-13227000D01*
X22238000Y-13227000D02*
X22313000Y-13152000D01*
X22238000Y-13077000D01*
X22163000Y-13152000D01*
X22238000Y-13227000D01*
X22179000Y-15195000D02*
X22329000Y-15345000D01*
X22329000Y-15195000D02*
X22179000Y-15345000D01*
X22254000Y-15345000D02*
X22329000Y-15270000D01*
X22254000Y-15195000D01*
X22179000Y-15270000D01*
X22254000Y-15345000D01*
X22179000Y-17317000D02*
X22329000Y-17467000D01*
X22329000Y-17317000D02*
X22179000Y-17467000D01*
X22254000Y-17467000D02*
X22329000Y-17392000D01*
X22254000Y-17317000D01*
X22179000Y-17392000D01*
X22254000Y-17467000D01*
X23434000Y-9361000D02*
X23584000Y-9511000D01*
X23584000Y-9361000D02*
X23434000Y-9511000D01*
X23509000Y-9511000D02*
X23584000Y-9436000D01*
X23509000Y-9361000D01*
X23434000Y-9436000D01*
X23509000Y-9511000D01*
X23444000Y-7221000D02*
X23594000Y-7371000D01*
X23594000Y-7221000D02*
X23444000Y-7371000D01*
X23519000Y-7371000D02*
X23594000Y-7296000D01*
X23519000Y-7221000D01*
X23444000Y-7296000D01*
X23519000Y-7371000D01*
X23628000Y-11471000D02*
X23778000Y-11621000D01*
X23778000Y-11471000D02*
X23628000Y-11621000D01*
X23703000Y-11621000D02*
X23778000Y-11546000D01*
X23703000Y-11471000D01*
X23628000Y-11546000D01*
X23703000Y-11621000D01*
X23644000Y-15679000D02*
X23794000Y-15829000D01*
X23794000Y-15679000D02*
X23644000Y-15829000D01*
X23719000Y-15829000D02*
X23794000Y-15754000D01*
X23719000Y-15679000D01*
X23644000Y-15754000D01*
X23719000Y-15829000D01*
X23646000Y-13561000D02*
X23796000Y-13711000D01*
X23796000Y-13561000D02*
X23646000Y-13711000D01*
X23721000Y-13711000D02*
X23796000Y-13636000D01*
X23721000Y-13561000D01*
X23646000Y-13636000D01*
X23721000Y-13711000D01*
X24069000Y-9107000D02*
X24219000Y-9257000D01*
X24219000Y-9107000D02*
X24069000Y-9257000D01*
X24144000Y-9257000D02*
X24219000Y-9182000D01*
X24144000Y-9107000D01*
X24069000Y-9182000D01*
X24144000Y-9257000D01*
X24079000Y-6967000D02*
X24229000Y-7117000D01*
X24229000Y-6967000D02*
X24079000Y-7117000D01*
X24154000Y-7117000D02*
X24229000Y-7042000D01*
X24154000Y-6967000D01*
X24079000Y-7042000D01*
X24154000Y-7117000D01*
X24263000Y-11217000D02*
X24413000Y-11367000D01*
X24413000Y-11217000D02*
X24263000Y-11367000D01*
X24338000Y-11367000D02*
X24413000Y-11292000D01*
X24338000Y-11217000D01*
X24263000Y-11292000D01*
X24338000Y-11367000D01*
X24279000Y-15425000D02*
X24429000Y-15575000D01*
X24429000Y-15425000D02*
X24279000Y-15575000D01*
X24354000Y-15575000D02*
X24429000Y-15500000D01*
X24354000Y-15425000D01*
X24279000Y-15500000D01*
X24354000Y-15575000D01*
X24281000Y-13307000D02*
X24431000Y-13457000D01*
X24431000Y-13307000D02*
X24281000Y-13457000D01*
X24356000Y-13457000D02*
X24431000Y-13382000D01*
X24356000Y-13307000D01*
X24281000Y-13382000D01*
X24356000Y-13457000D01*
X24468044Y-18631531D02*
X24618044Y-18781531D01*
X24618044Y-18631531D02*
X24468044Y-18781531D01*
X24543044Y-18781531D02*
X24618044Y-18706531D01*
X24543044Y-18631531D01*
X24468044Y-18706531D01*
X24543044Y-18781531D01*
X25144970Y-18729060D02*
X25294970Y-18879060D01*
X25294970Y-18729060D02*
X25144970Y-18879060D01*
X25219970Y-18879060D02*
X25294970Y-18804060D01*
X25219970Y-18729060D01*
X25144970Y-18804060D01*
X25219970Y-18879060D01*
X25544000Y-9371000D02*
X25694000Y-9521000D01*
X25694000Y-9371000D02*
X25544000Y-9521000D01*
X25619000Y-9521000D02*
X25694000Y-9446000D01*
X25619000Y-9371000D01*
X25544000Y-9446000D01*
X25619000Y-9521000D01*
X25644000Y-7251000D02*
X25794000Y-7401000D01*
X25794000Y-7251000D02*
X25644000Y-7401000D01*
X25719000Y-7401000D02*
X25794000Y-7326000D01*
X25719000Y-7251000D01*
X25644000Y-7326000D01*
X25719000Y-7401000D01*
X25736000Y-11471000D02*
X25886000Y-11621000D01*
X25886000Y-11471000D02*
X25736000Y-11621000D01*
X25811000Y-11621000D02*
X25886000Y-11546000D01*
X25811000Y-11471000D01*
X25736000Y-11546000D01*
X25811000Y-11621000D01*
X25744000Y-13571000D02*
X25894000Y-13721000D01*
X25894000Y-13571000D02*
X25744000Y-13721000D01*
X25819000Y-13721000D02*
X25894000Y-13646000D01*
X25819000Y-13571000D01*
X25744000Y-13646000D01*
X25819000Y-13721000D01*
X25744000Y-15679000D02*
X25894000Y-15829000D01*
X25894000Y-15679000D02*
X25744000Y-15829000D01*
X25819000Y-15829000D02*
X25894000Y-15754000D01*
X25819000Y-15679000D01*
X25744000Y-15754000D01*
X25819000Y-15829000D01*
X26179000Y-9117000D02*
X26329000Y-9267000D01*
X26329000Y-9117000D02*
X26179000Y-9267000D01*
X26254000Y-9267000D02*
X26329000Y-9192000D01*
X26254000Y-9117000D01*
X26179000Y-9192000D01*
X26254000Y-9267000D01*
X26276044Y-19686531D02*
X26426044Y-19836531D01*
X26426044Y-19686531D02*
X26276044Y-19836531D01*
X26351044Y-19836531D02*
X26426044Y-19761531D01*
X26351044Y-19686531D01*
X26276044Y-19761531D01*
X26351044Y-19836531D01*
X26279000Y-6997000D02*
X26429000Y-7147000D01*
X26429000Y-6997000D02*
X26279000Y-7147000D01*
X26354000Y-7147000D02*
X26429000Y-7072000D01*
X26354000Y-6997000D01*
X26279000Y-7072000D01*
X26354000Y-7147000D01*
X26371000Y-11217000D02*
X26521000Y-11367000D01*
X26521000Y-11217000D02*
X26371000Y-11367000D01*
X26446000Y-11367000D02*
X26521000Y-11292000D01*
X26446000Y-11217000D01*
X26371000Y-11292000D01*
X26446000Y-11367000D01*
X26379000Y-13317000D02*
X26529000Y-13467000D01*
X26529000Y-13317000D02*
X26379000Y-13467000D01*
X26454000Y-13467000D02*
X26529000Y-13392000D01*
X26454000Y-13317000D01*
X26379000Y-13392000D01*
X26454000Y-13467000D01*
X26379000Y-15425000D02*
X26529000Y-15575000D01*
X26529000Y-15425000D02*
X26379000Y-15575000D01*
X26454000Y-15575000D02*
X26529000Y-15500000D01*
X26454000Y-15425000D01*
X26379000Y-15500000D01*
X26454000Y-15575000D01*
X26952970Y-19784060D02*
X27102970Y-19934060D01*
X27102970Y-19784060D02*
X26952970Y-19934060D01*
X27027970Y-19934060D02*
X27102970Y-19859060D01*
X27027970Y-19784060D01*
X26952970Y-19859060D01*
X27027970Y-19934060D01*
X27322044Y-17914531D02*
X27472044Y-18064531D01*
X27472044Y-17914531D02*
X27322044Y-18064531D01*
X27397044Y-18064531D02*
X27472044Y-17989531D01*
X27397044Y-17914531D01*
X27322044Y-17989531D01*
X27397044Y-18064531D01*
X27717000Y-11971000D02*
X27867000Y-12121000D01*
X27867000Y-11971000D02*
X27717000Y-12121000D01*
X27792000Y-12121000D02*
X27867000Y-12046000D01*
X27792000Y-11971000D01*
X27717000Y-12046000D01*
X27792000Y-12121000D01*
X27735000Y-15071000D02*
X27885000Y-15221000D01*
X27885000Y-15071000D02*
X27735000Y-15221000D01*
X27810000Y-15221000D02*
X27885000Y-15146000D01*
X27810000Y-15071000D01*
X27735000Y-15146000D01*
X27810000Y-15221000D01*
X27824000Y-7241000D02*
X27974000Y-7391000D01*
X27974000Y-7241000D02*
X27824000Y-7391000D01*
X27899000Y-7391000D02*
X27974000Y-7316000D01*
X27899000Y-7241000D01*
X27824000Y-7316000D01*
X27899000Y-7391000D01*
X27844000Y-9371000D02*
X27994000Y-9521000D01*
X27994000Y-9371000D02*
X27844000Y-9521000D01*
X27919000Y-9521000D02*
X27994000Y-9446000D01*
X27919000Y-9371000D01*
X27844000Y-9446000D01*
X27919000Y-9521000D01*
X27971000Y-12606000D02*
X28121000Y-12756000D01*
X28121000Y-12606000D02*
X27971000Y-12756000D01*
X28046000Y-12756000D02*
X28121000Y-12681000D01*
X28046000Y-12606000D01*
X27971000Y-12681000D01*
X28046000Y-12756000D01*
X27989000Y-15706000D02*
X28139000Y-15856000D01*
X28139000Y-15706000D02*
X27989000Y-15856000D01*
X28064000Y-15856000D02*
X28139000Y-15781000D01*
X28064000Y-15706000D01*
X27989000Y-15781000D01*
X28064000Y-15856000D01*
X27998970Y-18012060D02*
X28148970Y-18162060D01*
X28148970Y-18012060D02*
X27998970Y-18162060D01*
X28073970Y-18162060D02*
X28148970Y-18087060D01*
X28073970Y-18012060D01*
X27998970Y-18087060D01*
X28073970Y-18162060D01*
X28125004Y-20725001D02*
X28275004Y-20875001D01*
X28275004Y-20725001D02*
X28125004Y-20875001D01*
X28200004Y-20875001D02*
X28275004Y-20800001D01*
X28200004Y-20725001D01*
X28125004Y-20800001D01*
X28200004Y-20875001D01*
X28459000Y-6987000D02*
X28609000Y-7137000D01*
X28609000Y-6987000D02*
X28459000Y-7137000D01*
X28534000Y-7137000D02*
X28609000Y-7062000D01*
X28534000Y-6987000D01*
X28459000Y-7062000D01*
X28534000Y-7137000D01*
X28479000Y-9117000D02*
X28629000Y-9267000D01*
X28629000Y-9117000D02*
X28479000Y-9267000D01*
X28554000Y-9267000D02*
X28629000Y-9192000D01*
X28554000Y-9117000D01*
X28479000Y-9192000D01*
X28554000Y-9267000D01*
X28801930Y-20822530D02*
X28951930Y-20972530D01*
X28951930Y-20822530D02*
X28801930Y-20972530D01*
X28876930Y-20972530D02*
X28951930Y-20897530D01*
X28876930Y-20822530D01*
X28801930Y-20897530D01*
X28876930Y-20972530D01*
X33757000Y-7255000D02*
X33907000Y-7405000D01*
X33907000Y-7255000D02*
X33757000Y-7405000D01*
X33832000Y-7405000D02*
X33907000Y-7330000D01*
X33832000Y-7255000D01*
X33757000Y-7330000D01*
X33832000Y-7405000D01*
X33807000Y-12033000D02*
X33957000Y-12183000D01*
X33957000Y-12033000D02*
X33807000Y-12183000D01*
X33882000Y-12183000D02*
X33957000Y-12108000D01*
X33882000Y-12033000D01*
X33807000Y-12108000D01*
X33882000Y-12183000D01*
X33809044Y-21161531D02*
X33959044Y-21311531D01*
X33959044Y-21161531D02*
X33809044Y-21311531D01*
X33884044Y-21311531D02*
X33959044Y-21236531D01*
X33884044Y-21161531D01*
X33809044Y-21236531D01*
X33884044Y-21311531D01*
X33817000Y-15071000D02*
X33967000Y-15221000D01*
X33967000Y-15071000D02*
X33817000Y-15221000D01*
X33892000Y-15221000D02*
X33967000Y-15146000D01*
X33892000Y-15071000D01*
X33817000Y-15146000D01*
X33892000Y-15221000D01*
X33944000Y-9379000D02*
X34094000Y-9529000D01*
X34094000Y-9379000D02*
X33944000Y-9529000D01*
X34019000Y-9529000D02*
X34094000Y-9454000D01*
X34019000Y-9379000D01*
X33944000Y-9454000D01*
X34019000Y-9529000D01*
X34061000Y-12668000D02*
X34211000Y-12818000D01*
X34211000Y-12668000D02*
X34061000Y-12818000D01*
X34136000Y-12818000D02*
X34211000Y-12743000D01*
X34136000Y-12668000D01*
X34061000Y-12743000D01*
X34136000Y-12818000D01*
X34071000Y-15706000D02*
X34221000Y-15856000D01*
X34221000Y-15706000D02*
X34071000Y-15856000D01*
X34146000Y-15856000D02*
X34221000Y-15781000D01*
X34146000Y-15706000D01*
X34071000Y-15781000D01*
X34146000Y-15856000D01*
X34231970Y-20624060D02*
X34381970Y-20774060D01*
X34381970Y-20624060D02*
X34231970Y-20774060D01*
X34306970Y-20774060D02*
X34381970Y-20699060D01*
X34306970Y-20624060D01*
X34231970Y-20699060D01*
X34306970Y-20774060D01*
X34392000Y-7001000D02*
X34542000Y-7151000D01*
X34542000Y-7001000D02*
X34392000Y-7151000D01*
X34467000Y-7151000D02*
X34542000Y-7076000D01*
X34467000Y-7001000D01*
X34392000Y-7076000D01*
X34467000Y-7151000D01*
X34568044Y-18295531D02*
X34718044Y-18445531D01*
X34718044Y-18295531D02*
X34568044Y-18445531D01*
X34643044Y-18445531D02*
X34718044Y-18370531D01*
X34643044Y-18295531D01*
X34568044Y-18370531D01*
X34643044Y-18445531D01*
X34579000Y-9125000D02*
X34729000Y-9275000D01*
X34729000Y-9125000D02*
X34579000Y-9275000D01*
X34654000Y-9275000D02*
X34729000Y-9200000D01*
X34654000Y-9125000D01*
X34579000Y-9200000D01*
X34654000Y-9275000D01*
X34990970Y-17758060D02*
X35140970Y-17908060D01*
X35140970Y-17758060D02*
X34990970Y-17908060D01*
X35065970Y-17908060D02*
X35140970Y-17833060D01*
X35065970Y-17758060D01*
X34990970Y-17833060D01*
X35065970Y-17908060D01*
X35615044Y-20071531D02*
X35765044Y-20221531D01*
X35765044Y-20071531D02*
X35615044Y-20221531D01*
X35690044Y-20221531D02*
X35765044Y-20146531D01*
X35690044Y-20071531D01*
X35615044Y-20146531D01*
X35690044Y-20221531D01*
X35844000Y-7245000D02*
X35994000Y-7395000D01*
X35994000Y-7245000D02*
X35844000Y-7395000D01*
X35919000Y-7395000D02*
X35994000Y-7320000D01*
X35919000Y-7245000D01*
X35844000Y-7320000D01*
X35919000Y-7395000D01*
X36011000Y-9369000D02*
X36161000Y-9519000D01*
X36161000Y-9369000D02*
X36011000Y-9519000D01*
X36086000Y-9519000D02*
X36161000Y-9444000D01*
X36086000Y-9369000D01*
X36011000Y-9444000D01*
X36086000Y-9519000D01*
X36037970Y-19534060D02*
X36187970Y-19684060D01*
X36187970Y-19534060D02*
X36037970Y-19684060D01*
X36112970Y-19684060D02*
X36187970Y-19609060D01*
X36112970Y-19534060D01*
X36037970Y-19609060D01*
X36112970Y-19684060D01*
X36157000Y-13779000D02*
X36307000Y-13929000D01*
X36307000Y-13779000D02*
X36157000Y-13929000D01*
X36232000Y-13929000D02*
X36307000Y-13854000D01*
X36232000Y-13779000D01*
X36157000Y-13854000D01*
X36232000Y-13929000D01*
X36177000Y-15871000D02*
X36327000Y-16021000D01*
X36327000Y-15871000D02*
X36177000Y-16021000D01*
X36252000Y-16021000D02*
X36327000Y-15946000D01*
X36252000Y-15871000D01*
X36177000Y-15946000D01*
X36252000Y-16021000D01*
X36187000Y-11579000D02*
X36337000Y-11729000D01*
X36337000Y-11579000D02*
X36187000Y-11729000D01*
X36262000Y-11729000D02*
X36337000Y-11654000D01*
X36262000Y-11579000D01*
X36187000Y-11654000D01*
X36262000Y-11729000D01*
X36479000Y-6991000D02*
X36629000Y-7141000D01*
X36629000Y-6991000D02*
X36479000Y-7141000D01*
X36554000Y-7141000D02*
X36629000Y-7066000D01*
X36554000Y-6991000D01*
X36479000Y-7066000D01*
X36554000Y-7141000D01*
X36646000Y-9115000D02*
X36796000Y-9265000D01*
X36796000Y-9115000D02*
X36646000Y-9265000D01*
X36721000Y-9265000D02*
X36796000Y-9190000D01*
X36721000Y-9115000D01*
X36646000Y-9190000D01*
X36721000Y-9265000D01*
X36792000Y-13525000D02*
X36942000Y-13675000D01*
X36942000Y-13525000D02*
X36792000Y-13675000D01*
X36867000Y-13675000D02*
X36942000Y-13600000D01*
X36867000Y-13525000D01*
X36792000Y-13600000D01*
X36867000Y-13675000D01*
X36812000Y-15617000D02*
X36962000Y-15767000D01*
X36962000Y-15617000D02*
X36812000Y-15767000D01*
X36887000Y-15767000D02*
X36962000Y-15692000D01*
X36887000Y-15617000D01*
X36812000Y-15692000D01*
X36887000Y-15767000D01*
X36822000Y-11325000D02*
X36972000Y-11475000D01*
X36972000Y-11325000D02*
X36822000Y-11475000D01*
X36897000Y-11475000D02*
X36972000Y-11400000D01*
X36897000Y-11325000D01*
X36822000Y-11400000D01*
X36897000Y-11475000D01*
X37468044Y-18995531D02*
X37618044Y-19145531D01*
X37618044Y-18995531D02*
X37468044Y-19145531D01*
X37543044Y-19145531D02*
X37618044Y-19070531D01*
X37543044Y-18995531D01*
X37468044Y-19070531D01*
X37543044Y-19145531D01*
X37890970Y-18458060D02*
X38040970Y-18608060D01*
X38040970Y-18458060D02*
X37890970Y-18608060D01*
X37965970Y-18608060D02*
X38040970Y-18533060D01*
X37965970Y-18458060D01*
X37890970Y-18533060D01*
X37965970Y-18608060D01*
X37978000Y-7255000D02*
X38128000Y-7405000D01*
X38128000Y-7255000D02*
X37978000Y-7405000D01*
X38053000Y-7405000D02*
X38128000Y-7330000D01*
X38053000Y-7255000D01*
X37978000Y-7330000D01*
X38053000Y-7405000D01*
X38111000Y-9345000D02*
X38261000Y-9495000D01*
X38261000Y-9345000D02*
X38111000Y-9495000D01*
X38186000Y-9495000D02*
X38261000Y-9420000D01*
X38186000Y-9345000D01*
X38111000Y-9420000D01*
X38186000Y-9495000D01*
X38244000Y-13769000D02*
X38394000Y-13919000D01*
X38394000Y-13769000D02*
X38244000Y-13919000D01*
X38319000Y-13919000D02*
X38394000Y-13844000D01*
X38319000Y-13769000D01*
X38244000Y-13844000D01*
X38319000Y-13919000D01*
X38344000Y-11555000D02*
X38494000Y-11705000D01*
X38494000Y-11555000D02*
X38344000Y-11705000D01*
X38419000Y-11705000D02*
X38494000Y-11630000D01*
X38419000Y-11555000D01*
X38344000Y-11630000D01*
X38419000Y-11705000D01*
X38344000Y-15851000D02*
X38494000Y-16001000D01*
X38494000Y-15851000D02*
X38344000Y-16001000D01*
X38419000Y-16001000D02*
X38494000Y-15926000D01*
X38419000Y-15851000D01*
X38344000Y-15926000D01*
X38419000Y-16001000D01*
X38613000Y-7001000D02*
X38763000Y-7151000D01*
X38763000Y-7001000D02*
X38613000Y-7151000D01*
X38688000Y-7151000D02*
X38763000Y-7076000D01*
X38688000Y-7001000D01*
X38613000Y-7076000D01*
X38688000Y-7151000D01*
X38746000Y-9091000D02*
X38896000Y-9241000D01*
X38896000Y-9091000D02*
X38746000Y-9241000D01*
X38821000Y-9241000D02*
X38896000Y-9166000D01*
X38821000Y-9091000D01*
X38746000Y-9166000D01*
X38821000Y-9241000D01*
X38879000Y-13515000D02*
X39029000Y-13665000D01*
X39029000Y-13515000D02*
X38879000Y-13665000D01*
X38954000Y-13665000D02*
X39029000Y-13590000D01*
X38954000Y-13515000D01*
X38879000Y-13590000D01*
X38954000Y-13665000D01*
X38979000Y-11301000D02*
X39129000Y-11451000D01*
X39129000Y-11301000D02*
X38979000Y-11451000D01*
X39054000Y-11451000D02*
X39129000Y-11376000D01*
X39054000Y-11301000D01*
X38979000Y-11376000D01*
X39054000Y-11451000D01*
X38979000Y-15597000D02*
X39129000Y-15747000D01*
X39129000Y-15597000D02*
X38979000Y-15747000D01*
X39054000Y-15747000D02*
X39129000Y-15672000D01*
X39054000Y-15597000D01*
X38979000Y-15672000D01*
X39054000Y-15747000D01*
X40152000Y-7257000D02*
X40302000Y-7407000D01*
X40302000Y-7257000D02*
X40152000Y-7407000D01*
X40227000Y-7407000D02*
X40302000Y-7332000D01*
X40227000Y-7257000D01*
X40152000Y-7332000D01*
X40227000Y-7407000D01*
X40211000Y-9145000D02*
X40361000Y-9295000D01*
X40361000Y-9145000D02*
X40211000Y-9295000D01*
X40286000Y-9295000D02*
X40361000Y-9220000D01*
X40286000Y-9145000D01*
X40211000Y-9220000D01*
X40286000Y-9295000D01*
X40325000Y-13529000D02*
X40475000Y-13679000D01*
X40475000Y-13529000D02*
X40325000Y-13679000D01*
X40400000Y-13679000D02*
X40475000Y-13604000D01*
X40400000Y-13529000D01*
X40325000Y-13604000D01*
X40400000Y-13679000D01*
X40444000Y-11255000D02*
X40594000Y-11405000D01*
X40594000Y-11255000D02*
X40444000Y-11405000D01*
X40519000Y-11405000D02*
X40594000Y-11330000D01*
X40519000Y-11255000D01*
X40444000Y-11330000D01*
X40519000Y-11405000D01*
X40444000Y-15641000D02*
X40594000Y-15791000D01*
X40594000Y-15641000D02*
X40444000Y-15791000D01*
X40519000Y-15791000D02*
X40594000Y-15716000D01*
X40519000Y-15641000D01*
X40444000Y-15716000D01*
X40519000Y-15791000D01*
X40444000Y-17779000D02*
X40594000Y-17929000D01*
X40594000Y-17779000D02*
X40444000Y-17929000D01*
X40519000Y-17929000D02*
X40594000Y-17854000D01*
X40519000Y-17779000D01*
X40444000Y-17854000D01*
X40519000Y-17929000D01*
X40787000Y-7003000D02*
X40937000Y-7153000D01*
X40937000Y-7003000D02*
X40787000Y-7153000D01*
X40862000Y-7153000D02*
X40937000Y-7078000D01*
X40862000Y-7003000D01*
X40787000Y-7078000D01*
X40862000Y-7153000D01*
X40846000Y-8891000D02*
X40996000Y-9041000D01*
X40996000Y-8891000D02*
X40846000Y-9041000D01*
X40921000Y-9041000D02*
X40996000Y-8966000D01*
X40921000Y-8891000D01*
X40846000Y-8966000D01*
X40921000Y-9041000D01*
X40960000Y-13275000D02*
X41110000Y-13425000D01*
X41110000Y-13275000D02*
X40960000Y-13425000D01*
X41035000Y-13425000D02*
X41110000Y-13350000D01*
X41035000Y-13275000D01*
X40960000Y-13350000D01*
X41035000Y-13425000D01*
X41079000Y-11001000D02*
X41229000Y-11151000D01*
X41229000Y-11001000D02*
X41079000Y-11151000D01*
X41154000Y-11151000D02*
X41229000Y-11076000D01*
X41154000Y-11001000D01*
X41079000Y-11076000D01*
X41154000Y-11151000D01*
X41079000Y-15387000D02*
X41229000Y-15537000D01*
X41229000Y-15387000D02*
X41079000Y-15537000D01*
X41154000Y-15537000D02*
X41229000Y-15462000D01*
X41154000Y-15387000D01*
X41079000Y-15462000D01*
X41154000Y-15537000D01*
X41079000Y-17525000D02*
X41229000Y-17675000D01*
X41229000Y-17525000D02*
X41079000Y-17675000D01*
X41154000Y-17675000D02*
X41229000Y-17600000D01*
X41154000Y-17525000D01*
X41079000Y-17600000D01*
X41154000Y-17675000D01*
X42311000Y-8919000D02*
X42461000Y-9069000D01*
X42461000Y-8919000D02*
X42311000Y-9069000D01*
X42386000Y-9069000D02*
X42461000Y-8994000D01*
X42386000Y-8919000D01*
X42311000Y-8994000D01*
X42386000Y-9069000D01*
X42344000Y-7265000D02*
X42494000Y-7415000D01*
X42494000Y-7265000D02*
X42344000Y-7415000D01*
X42419000Y-7415000D02*
X42494000Y-7340000D01*
X42419000Y-7265000D01*
X42344000Y-7340000D01*
X42419000Y-7415000D01*
X42444000Y-13309000D02*
X42594000Y-13459000D01*
X42594000Y-13309000D02*
X42444000Y-13459000D01*
X42519000Y-13459000D02*
X42594000Y-13384000D01*
X42519000Y-13309000D01*
X42444000Y-13384000D01*
X42519000Y-13459000D01*
X42544000Y-11109000D02*
X42694000Y-11259000D01*
X42694000Y-11109000D02*
X42544000Y-11259000D01*
X42619000Y-11259000D02*
X42694000Y-11184000D01*
X42619000Y-11109000D01*
X42544000Y-11184000D01*
X42619000Y-11259000D01*
X42544000Y-15393000D02*
X42694000Y-15543000D01*
X42694000Y-15393000D02*
X42544000Y-15543000D01*
X42619000Y-15543000D02*
X42694000Y-15468000D01*
X42619000Y-15393000D01*
X42544000Y-15468000D01*
X42619000Y-15543000D01*
X42551000Y-17519000D02*
X42701000Y-17669000D01*
X42701000Y-17519000D02*
X42551000Y-17669000D01*
X42626000Y-17669000D02*
X42701000Y-17594000D01*
X42626000Y-17519000D01*
X42551000Y-17594000D01*
X42626000Y-17669000D01*
X42946000Y-8665000D02*
X43096000Y-8815000D01*
X43096000Y-8665000D02*
X42946000Y-8815000D01*
X43021000Y-8815000D02*
X43096000Y-8740000D01*
X43021000Y-8665000D01*
X42946000Y-8740000D01*
X43021000Y-8815000D01*
X42979000Y-7011000D02*
X43129000Y-7161000D01*
X43129000Y-7011000D02*
X42979000Y-7161000D01*
X43054000Y-7161000D02*
X43129000Y-7086000D01*
X43054000Y-7011000D01*
X42979000Y-7086000D01*
X43054000Y-7161000D01*
X43079000Y-13055000D02*
X43229000Y-13205000D01*
X43229000Y-13055000D02*
X43079000Y-13205000D01*
X43154000Y-13205000D02*
X43229000Y-13130000D01*
X43154000Y-13055000D01*
X43079000Y-13130000D01*
X43154000Y-13205000D01*
X43179000Y-10855000D02*
X43329000Y-11005000D01*
X43329000Y-10855000D02*
X43179000Y-11005000D01*
X43254000Y-11005000D02*
X43329000Y-10930000D01*
X43254000Y-10855000D01*
X43179000Y-10930000D01*
X43254000Y-11005000D01*
X43179000Y-15139000D02*
X43329000Y-15289000D01*
X43329000Y-15139000D02*
X43179000Y-15289000D01*
X43254000Y-15289000D02*
X43329000Y-15214000D01*
X43254000Y-15139000D01*
X43179000Y-15214000D01*
X43254000Y-15289000D01*
X43186000Y-17265000D02*
X43336000Y-17415000D01*
X43336000Y-17265000D02*
X43186000Y-17415000D01*
X43261000Y-17415000D02*
X43336000Y-17340000D01*
X43261000Y-17265000D01*
X43186000Y-17340000D01*
X43261000Y-17415000D01*
X44411000Y-9379000D02*
X44561000Y-9529000D01*
X44561000Y-9379000D02*
X44411000Y-9529000D01*
X44486000Y-9529000D02*
X44561000Y-9454000D01*
X44486000Y-9379000D01*
X44411000Y-9454000D01*
X44486000Y-9529000D01*
X44444000Y-7271000D02*
X44594000Y-7421000D01*
X44594000Y-7271000D02*
X44444000Y-7421000D01*
X44519000Y-7421000D02*
X44594000Y-7346000D01*
X44519000Y-7271000D01*
X44444000Y-7346000D01*
X44519000Y-7421000D01*
X44544000Y-13575000D02*
X44694000Y-13725000D01*
X44694000Y-13575000D02*
X44544000Y-13725000D01*
X44619000Y-13725000D02*
X44694000Y-13650000D01*
X44619000Y-13575000D01*
X44544000Y-13650000D01*
X44619000Y-13725000D01*
X44644000Y-11569000D02*
X44794000Y-11719000D01*
X44794000Y-11569000D02*
X44644000Y-11719000D01*
X44719000Y-11719000D02*
X44794000Y-11644000D01*
X44719000Y-11569000D01*
X44644000Y-11644000D01*
X44719000Y-11719000D01*
X44644000Y-15651000D02*
X44794000Y-15801000D01*
X44794000Y-15651000D02*
X44644000Y-15801000D01*
X44719000Y-15801000D02*
X44794000Y-15726000D01*
X44719000Y-15651000D01*
X44644000Y-15726000D01*
X44719000Y-15801000D01*
X44651000Y-17789000D02*
X44801000Y-17939000D01*
X44801000Y-17789000D02*
X44651000Y-17939000D01*
X44726000Y-17939000D02*
X44801000Y-17864000D01*
X44726000Y-17789000D01*
X44651000Y-17864000D01*
X44726000Y-17939000D01*
X45046000Y-9125000D02*
X45196000Y-9275000D01*
X45196000Y-9125000D02*
X45046000Y-9275000D01*
X45121000Y-9275000D02*
X45196000Y-9200000D01*
X45121000Y-9125000D01*
X45046000Y-9200000D01*
X45121000Y-9275000D01*
X45079000Y-7017000D02*
X45229000Y-7167000D01*
X45229000Y-7017000D02*
X45079000Y-7167000D01*
X45154000Y-7167000D02*
X45229000Y-7092000D01*
X45154000Y-7017000D01*
X45079000Y-7092000D01*
X45154000Y-7167000D01*
X45179000Y-13321000D02*
X45329000Y-13471000D01*
X45329000Y-13321000D02*
X45179000Y-13471000D01*
X45254000Y-13471000D02*
X45329000Y-13396000D01*
X45254000Y-13321000D01*
X45179000Y-13396000D01*
X45254000Y-13471000D01*
X45279000Y-11315000D02*
X45429000Y-11465000D01*
X45429000Y-11315000D02*
X45279000Y-11465000D01*
X45354000Y-11465000D02*
X45429000Y-11390000D01*
X45354000Y-11315000D01*
X45279000Y-11390000D01*
X45354000Y-11465000D01*
X45279000Y-15397000D02*
X45429000Y-15547000D01*
X45429000Y-15397000D02*
X45279000Y-15547000D01*
X45354000Y-15547000D02*
X45429000Y-15472000D01*
X45354000Y-15397000D01*
X45279000Y-15472000D01*
X45354000Y-15547000D01*
X45286000Y-17535000D02*
X45436000Y-17685000D01*
X45436000Y-17535000D02*
X45286000Y-17685000D01*
X45361000Y-17685000D02*
X45436000Y-17610000D01*
X45361000Y-17535000D01*
X45286000Y-17610000D01*
X45361000Y-17685000D01*
X46511000Y-9629000D02*
X46661000Y-9779000D01*
X46661000Y-9629000D02*
X46511000Y-9779000D01*
X46586000Y-9779000D02*
X46661000Y-9704000D01*
X46586000Y-9629000D01*
X46511000Y-9704000D01*
X46586000Y-9779000D01*
X46544000Y-7255000D02*
X46694000Y-7405000D01*
X46694000Y-7255000D02*
X46544000Y-7405000D01*
X46619000Y-7405000D02*
X46694000Y-7330000D01*
X46619000Y-7255000D01*
X46544000Y-7330000D01*
X46619000Y-7405000D01*
X46644000Y-14009000D02*
X46794000Y-14159000D01*
X46794000Y-14009000D02*
X46644000Y-14159000D01*
X46719000Y-14159000D02*
X46794000Y-14084000D01*
X46719000Y-14009000D01*
X46644000Y-14084000D01*
X46719000Y-14159000D01*
X46744000Y-11855000D02*
X46894000Y-12005000D01*
X46894000Y-11855000D02*
X46744000Y-12005000D01*
X46819000Y-12005000D02*
X46894000Y-11930000D01*
X46819000Y-11855000D01*
X46744000Y-11930000D01*
X46819000Y-12005000D01*
X46744000Y-15997000D02*
X46894000Y-16147000D01*
X46894000Y-15997000D02*
X46744000Y-16147000D01*
X46819000Y-16147000D02*
X46894000Y-16072000D01*
X46819000Y-15997000D01*
X46744000Y-16072000D01*
X46819000Y-16147000D01*
X46751000Y-18255000D02*
X46901000Y-18405000D01*
X46901000Y-18255000D02*
X46751000Y-18405000D01*
X46826000Y-18405000D02*
X46901000Y-18330000D01*
X46826000Y-18255000D01*
X46751000Y-18330000D01*
X46826000Y-18405000D01*
X47146000Y-9375000D02*
X47296000Y-9525000D01*
X47296000Y-9375000D02*
X47146000Y-9525000D01*
X47221000Y-9525000D02*
X47296000Y-9450000D01*
X47221000Y-9375000D01*
X47146000Y-9450000D01*
X47221000Y-9525000D01*
X47179000Y-7001000D02*
X47329000Y-7151000D01*
X47329000Y-7001000D02*
X47179000Y-7151000D01*
X47254000Y-7151000D02*
X47329000Y-7076000D01*
X47254000Y-7001000D01*
X47179000Y-7076000D01*
X47254000Y-7151000D01*
X47279000Y-13755000D02*
X47429000Y-13905000D01*
X47429000Y-13755000D02*
X47279000Y-13905000D01*
X47354000Y-13905000D02*
X47429000Y-13830000D01*
X47354000Y-13755000D01*
X47279000Y-13830000D01*
X47354000Y-13905000D01*
X47379000Y-11601000D02*
X47529000Y-11751000D01*
X47529000Y-11601000D02*
X47379000Y-11751000D01*
X47454000Y-11751000D02*
X47529000Y-11676000D01*
X47454000Y-11601000D01*
X47379000Y-11676000D01*
X47454000Y-11751000D01*
X47379000Y-15743000D02*
X47529000Y-15893000D01*
X47529000Y-15743000D02*
X47379000Y-15893000D01*
X47454000Y-15893000D02*
X47529000Y-15818000D01*
X47454000Y-15743000D01*
X47379000Y-15818000D01*
X47454000Y-15893000D01*
X47386000Y-18001000D02*
X47536000Y-18151000D01*
X47536000Y-18001000D02*
X47386000Y-18151000D01*
X47461000Y-18151000D02*
X47536000Y-18076000D01*
X47461000Y-18001000D01*
X47386000Y-18076000D01*
X47461000Y-18151000D01*
X48951000Y-18279000D02*
X49101000Y-18429000D01*
X49101000Y-18279000D02*
X48951000Y-18429000D01*
X49026000Y-18429000D02*
X49101000Y-18354000D01*
X49026000Y-18279000D01*
X48951000Y-18354000D01*
X49026000Y-18429000D01*
X49319500Y-13851000D02*
X49469500Y-14001000D01*
X49469500Y-13851000D02*
X49319500Y-14001000D01*
X49394500Y-14001000D02*
X49469500Y-13926000D01*
X49394500Y-13851000D01*
X49319500Y-13926000D01*
X49394500Y-14001000D01*
X49329500Y-9625000D02*
X49479500Y-9775000D01*
X49479500Y-9625000D02*
X49329500Y-9775000D01*
X49404500Y-9775000D02*
X49479500Y-9700000D01*
X49404500Y-9625000D01*
X49329500Y-9700000D01*
X49404500Y-9775000D01*
X49329500Y-11759000D02*
X49479500Y-11909000D01*
X49479500Y-11759000D02*
X49329500Y-11909000D01*
X49404500Y-11909000D02*
X49479500Y-11834000D01*
X49404500Y-11759000D01*
X49329500Y-11834000D01*
X49404500Y-11909000D01*
X49349500Y-15951000D02*
X49499500Y-16101000D01*
X49499500Y-15951000D02*
X49349500Y-16101000D01*
X49424500Y-16101000D02*
X49499500Y-16026000D01*
X49424500Y-15951000D01*
X49349500Y-16026000D01*
X49424500Y-16101000D01*
X49586000Y-18025000D02*
X49736000Y-18175000D01*
X49736000Y-18025000D02*
X49586000Y-18175000D01*
X49661000Y-18175000D02*
X49736000Y-18100000D01*
X49661000Y-18025000D01*
X49586000Y-18100000D01*
X49661000Y-18175000D01*
X49954500Y-13597000D02*
X50104500Y-13747000D01*
X50104500Y-13597000D02*
X49954500Y-13747000D01*
X50029500Y-13747000D02*
X50104500Y-13672000D01*
X50029500Y-13597000D01*
X49954500Y-13672000D01*
X50029500Y-13747000D01*
X49964500Y-9371000D02*
X50114500Y-9521000D01*
X50114500Y-9371000D02*
X49964500Y-9521000D01*
X50039500Y-9521000D02*
X50114500Y-9446000D01*
X50039500Y-9371000D01*
X49964500Y-9446000D01*
X50039500Y-9521000D01*
X49964500Y-11505000D02*
X50114500Y-11655000D01*
X50114500Y-11505000D02*
X49964500Y-11655000D01*
X50039500Y-11655000D02*
X50114500Y-11580000D01*
X50039500Y-11505000D01*
X49964500Y-11580000D01*
X50039500Y-11655000D01*
X49984500Y-15697000D02*
X50134500Y-15847000D01*
X50134500Y-15697000D02*
X49984500Y-15847000D01*
X50059500Y-15847000D02*
X50134500Y-15772000D01*
X50059500Y-15697000D01*
X49984500Y-15772000D01*
X50059500Y-15847000D01*
D20*
X9210000Y-14395000D02*
X9210000Y-14825000D01*
X8995000Y-14610000D02*
X9425000Y-14610000D01*
X9425000Y-14610000D02*
G75*
G03*
X9425000Y-14610000I-215000J0D01*
G01*
X9210000Y-25375000D02*
X9210000Y-25805000D01*
X8995000Y-25590000D02*
X9425000Y-25590000D01*
X9425000Y-25590000D02*
G75*
G03*
X9425000Y-25590000I-215000J0D01*
G01*
X9220000Y-3195000D02*
X9220000Y-3625000D01*
X9005000Y-3410000D02*
X9435000Y-3410000D01*
X9435000Y-3410000D02*
G75*
G03*
X9435000Y-3410000I-215000J0D01*
G01*
X19750000Y-25375000D02*
X19750000Y-25805000D01*
X19535000Y-25590000D02*
X19965000Y-25590000D01*
X19965000Y-25590000D02*
G75*
G03*
X19965000Y-25590000I-215000J0D01*
G01*
X19760000Y-3195000D02*
X19760000Y-3625000D01*
X19545000Y-3410000D02*
X19975000Y-3410000D01*
X19975000Y-3410000D02*
G75*
G03*
X19975000Y-3410000I-215000J0D01*
G01*
X30090000Y-14375000D02*
X30090000Y-14805000D01*
X29875000Y-14590000D02*
X30305000Y-14590000D01*
X30305000Y-14590000D02*
G75*
G03*
X30305000Y-14590000I-215000J0D01*
G01*
X30130000Y-25355000D02*
X30130000Y-25785000D01*
X29915000Y-25570000D02*
X30345000Y-25570000D01*
X30345000Y-25570000D02*
G75*
G03*
X30345000Y-25570000I-215000J0D01*
G01*
X30275000Y-3045000D02*
X30275000Y-3475000D01*
X30060000Y-3260000D02*
X30490000Y-3260000D01*
X30490000Y-3260000D02*
G75*
G03*
X30490000Y-3260000I-215000J0D01*
G01*
X32200000Y-3050000D02*
X32200000Y-3480000D01*
X31985000Y-3265000D02*
X32415000Y-3265000D01*
X32415000Y-3265000D02*
G75*
G03*
X32415000Y-3265000I-215000J0D01*
G01*
X32355000Y-14385000D02*
X32355000Y-14815000D01*
X32140000Y-14600000D02*
X32570000Y-14600000D01*
X32570000Y-14600000D02*
G75*
G03*
X32570000Y-14600000I-215000J0D01*
G01*
X32385000Y-25375000D02*
X32385000Y-25805000D01*
X32170000Y-25590000D02*
X32600000Y-25590000D01*
X32600000Y-25590000D02*
G75*
G03*
X32600000Y-25590000I-215000J0D01*
G01*
X42650000Y-25520000D02*
X42650000Y-25950000D01*
X42435000Y-25735000D02*
X42865000Y-25735000D01*
X42865000Y-25735000D02*
G75*
G03*
X42865000Y-25735000I-215000J0D01*
G01*
X42655000Y-3050000D02*
X42655000Y-3480000D01*
X42440000Y-3265000D02*
X42870000Y-3265000D01*
X42870000Y-3265000D02*
G75*
G03*
X42870000Y-3265000I-215000J0D01*
G01*
X51372500Y-13660000D02*
X51372500Y-14090000D01*
X51157500Y-13875000D02*
X51587500Y-13875000D01*
X51587500Y-13875000D02*
G75*
G03*
X51587500Y-13875000I-215000J0D01*
G01*
X52985000Y-3045000D02*
X52985000Y-3475000D01*
X52770000Y-3260000D02*
X53200000Y-3260000D01*
X53200000Y-3260000D02*
G75*
G03*
X53200000Y-3260000I-215000J0D01*
G01*
X52985000Y-25520000D02*
X52985000Y-25950000D01*
X52770000Y-25735000D02*
X53200000Y-25735000D01*
X53200000Y-25735000D02*
G75*
G03*
X53200000Y-25735000I-215000J0D01*
G01*
D11*
X8752619Y-26615476D02*
X8752619Y-26415476D01*
X8800238Y-26415476D01*
X8828810Y-26425000D01*
X8847857Y-26444048D01*
X8857381Y-26463095D01*
X8866905Y-26501190D01*
X8866905Y-26529762D01*
X8857381Y-26567857D01*
X8847857Y-26586905D01*
X8828810Y-26605952D01*
X8800238Y-26615476D01*
X8752619Y-26615476D01*
X8952619Y-26615476D02*
X8952619Y-26482143D01*
X8952619Y-26520238D02*
X8962143Y-26501190D01*
X8971667Y-26491667D01*
X8990714Y-26482143D01*
X9009762Y-26482143D01*
X9076429Y-26615476D02*
X9076429Y-26482143D01*
X9076429Y-26415476D02*
X9066905Y-26425000D01*
X9076429Y-26434524D01*
X9085952Y-26425000D01*
X9076429Y-26415476D01*
X9076429Y-26434524D01*
X9200238Y-26615476D02*
X9181190Y-26605952D01*
X9171667Y-26586905D01*
X9171667Y-26415476D01*
X9305000Y-26615476D02*
X9285952Y-26605952D01*
X9276429Y-26586905D01*
X9276429Y-26415476D01*
X9533571Y-26615476D02*
X9533571Y-26415476D01*
X9600238Y-26558333D01*
X9666905Y-26415476D01*
X9666905Y-26615476D01*
X9847857Y-26615476D02*
X9847857Y-26510714D01*
X9838333Y-26491667D01*
X9819286Y-26482143D01*
X9781190Y-26482143D01*
X9762143Y-26491667D01*
X9847857Y-26605952D02*
X9828810Y-26615476D01*
X9781190Y-26615476D01*
X9762143Y-26605952D01*
X9752619Y-26586905D01*
X9752619Y-26567857D01*
X9762143Y-26548809D01*
X9781190Y-26539286D01*
X9828810Y-26539286D01*
X9847857Y-26529762D01*
X9943095Y-26482143D02*
X9943095Y-26682143D01*
X9943095Y-26491667D02*
X9962143Y-26482143D01*
X10000238Y-26482143D01*
X10019286Y-26491667D01*
X10028810Y-26501190D01*
X10038333Y-26520238D01*
X10038333Y-26577381D01*
X10028810Y-26596428D01*
X10019286Y-26605952D01*
X10000238Y-26615476D01*
X9962143Y-26615476D01*
X9943095Y-26605952D01*
X10124048Y-26596428D02*
X10133571Y-26605952D01*
X10124048Y-26615476D01*
X10114524Y-26605952D01*
X10124048Y-26596428D01*
X10124048Y-26615476D01*
X10124048Y-26491667D02*
X10133571Y-26501190D01*
X10124048Y-26510714D01*
X10114524Y-26501190D01*
X10124048Y-26491667D01*
X10124048Y-26510714D01*
D12*
X8455000Y-26925000D02*
X8495000Y-26965000D01*
X8495000Y-26925000D02*
X8455000Y-26965000D01*
D11*
X8790714Y-26835476D02*
X8809762Y-26835476D01*
X8828810Y-26845000D01*
X8838333Y-26854524D01*
X8847857Y-26873571D01*
X8857381Y-26911667D01*
X8857381Y-26959286D01*
X8847857Y-26997381D01*
X8838333Y-27016428D01*
X8828810Y-27025952D01*
X8809762Y-27035476D01*
X8790714Y-27035476D01*
X8771667Y-27025952D01*
X8762143Y-27016428D01*
X8752619Y-26997381D01*
X8743095Y-26959286D01*
X8743095Y-26911667D01*
X8752619Y-26873571D01*
X8762143Y-26854524D01*
X8771667Y-26845000D01*
X8790714Y-26835476D01*
X8943095Y-27016428D02*
X8952619Y-27025952D01*
X8943095Y-27035476D01*
X8933571Y-27025952D01*
X8943095Y-27016428D01*
X8943095Y-27035476D01*
X9124048Y-26902143D02*
X9124048Y-27035476D01*
X9076429Y-26825952D02*
X9028810Y-26968809D01*
X9152619Y-26968809D01*
X9266905Y-26835476D02*
X9285952Y-26835476D01*
X9305000Y-26845000D01*
X9314524Y-26854524D01*
X9324048Y-26873571D01*
X9333571Y-26911667D01*
X9333571Y-26959286D01*
X9324048Y-26997381D01*
X9314524Y-27016428D01*
X9305000Y-27025952D01*
X9285952Y-27035476D01*
X9266905Y-27035476D01*
X9247857Y-27025952D01*
X9238333Y-27016428D01*
X9228810Y-26997381D01*
X9219286Y-26959286D01*
X9219286Y-26911667D01*
X9228810Y-26873571D01*
X9238333Y-26854524D01*
X9247857Y-26845000D01*
X9266905Y-26835476D01*
X9457381Y-26835476D02*
X9476429Y-26835476D01*
X9495476Y-26845000D01*
X9505000Y-26854524D01*
X9514524Y-26873571D01*
X9524048Y-26911667D01*
X9524048Y-26959286D01*
X9514524Y-26997381D01*
X9505000Y-27016428D01*
X9495476Y-27025952D01*
X9476429Y-27035476D01*
X9457381Y-27035476D01*
X9438333Y-27025952D01*
X9428810Y-27016428D01*
X9419286Y-26997381D01*
X9409762Y-26959286D01*
X9409762Y-26911667D01*
X9419286Y-26873571D01*
X9428810Y-26854524D01*
X9438333Y-26845000D01*
X9457381Y-26835476D01*
X9609762Y-27035476D02*
X9609762Y-26902143D01*
X9609762Y-26921190D02*
X9619286Y-26911667D01*
X9638333Y-26902143D01*
X9666905Y-26902143D01*
X9685952Y-26911667D01*
X9695476Y-26930714D01*
X9695476Y-27035476D01*
X9695476Y-26930714D02*
X9705000Y-26911667D01*
X9724048Y-26902143D01*
X9752619Y-26902143D01*
X9771667Y-26911667D01*
X9781190Y-26930714D01*
X9781190Y-27035476D01*
X9876429Y-27035476D02*
X9876429Y-26902143D01*
X9876429Y-26921190D02*
X9885952Y-26911667D01*
X9905000Y-26902143D01*
X9933571Y-26902143D01*
X9952619Y-26911667D01*
X9962143Y-26930714D01*
X9962143Y-27035476D01*
X9962143Y-26930714D02*
X9971667Y-26911667D01*
X9990714Y-26902143D01*
X10019286Y-26902143D01*
X10038333Y-26911667D01*
X10047857Y-26930714D01*
X10047857Y-27035476D01*
X10438333Y-26825952D02*
X10266905Y-27083095D01*
X10695476Y-26835476D02*
X10714524Y-26835476D01*
X10733571Y-26845000D01*
X10743095Y-26854524D01*
X10752619Y-26873571D01*
X10762143Y-26911667D01*
X10762143Y-26959286D01*
X10752619Y-26997381D01*
X10743095Y-27016428D01*
X10733571Y-27025952D01*
X10714524Y-27035476D01*
X10695476Y-27035476D01*
X10676429Y-27025952D01*
X10666905Y-27016428D01*
X10657381Y-26997381D01*
X10647857Y-26959286D01*
X10647857Y-26911667D01*
X10657381Y-26873571D01*
X10666905Y-26854524D01*
X10676429Y-26845000D01*
X10695476Y-26835476D01*
X10847857Y-27016428D02*
X10857381Y-27025952D01*
X10847857Y-27035476D01*
X10838333Y-27025952D01*
X10847857Y-27016428D01*
X10847857Y-27035476D01*
X10981190Y-26835476D02*
X11000238Y-26835476D01*
X11019286Y-26845000D01*
X11028810Y-26854524D01*
X11038333Y-26873571D01*
X11047857Y-26911667D01*
X11047857Y-26959286D01*
X11038333Y-26997381D01*
X11028810Y-27016428D01*
X11019286Y-27025952D01*
X11000238Y-27035476D01*
X10981190Y-27035476D01*
X10962143Y-27025952D01*
X10952619Y-27016428D01*
X10943095Y-26997381D01*
X10933571Y-26959286D01*
X10933571Y-26911667D01*
X10943095Y-26873571D01*
X10952619Y-26854524D01*
X10962143Y-26845000D01*
X10981190Y-26835476D01*
X11238333Y-27035476D02*
X11124048Y-27035476D01*
X11181190Y-27035476D02*
X11181190Y-26835476D01*
X11162143Y-26864048D01*
X11143095Y-26883095D01*
X11124048Y-26892619D01*
X11419286Y-26835476D02*
X11324048Y-26835476D01*
X11314524Y-26930714D01*
X11324048Y-26921190D01*
X11343095Y-26911667D01*
X11390714Y-26911667D01*
X11409762Y-26921190D01*
X11419286Y-26930714D01*
X11428809Y-26949762D01*
X11428809Y-26997381D01*
X11419286Y-27016428D01*
X11409762Y-27025952D01*
X11390714Y-27035476D01*
X11343095Y-27035476D01*
X11324048Y-27025952D01*
X11314524Y-27016428D01*
X11495476Y-26835476D02*
X11628809Y-26835476D01*
X11543095Y-27035476D01*
X11695476Y-26835476D02*
X11695476Y-26873571D01*
X11771667Y-26835476D02*
X11771667Y-26873571D01*
X12066905Y-27111667D02*
X12057381Y-27102143D01*
X12038333Y-27073571D01*
X12028809Y-27054524D01*
X12019286Y-27025952D01*
X12009762Y-26978333D01*
X12009762Y-26940238D01*
X12019286Y-26892619D01*
X12028809Y-26864048D01*
X12038333Y-26845000D01*
X12057381Y-26816428D01*
X12066905Y-26806905D01*
X12228809Y-26835476D02*
X12190714Y-26835476D01*
X12171667Y-26845000D01*
X12162143Y-26854524D01*
X12143095Y-26883095D01*
X12133571Y-26921190D01*
X12133571Y-26997381D01*
X12143095Y-27016428D01*
X12152619Y-27025952D01*
X12171667Y-27035476D01*
X12209762Y-27035476D01*
X12228809Y-27025952D01*
X12238333Y-27016428D01*
X12247857Y-26997381D01*
X12247857Y-26949762D01*
X12238333Y-26930714D01*
X12228809Y-26921190D01*
X12209762Y-26911667D01*
X12171667Y-26911667D01*
X12152619Y-26921190D01*
X12143095Y-26930714D01*
X12133571Y-26949762D01*
X12438333Y-27035476D02*
X12324048Y-27035476D01*
X12381190Y-27035476D02*
X12381190Y-26835476D01*
X12362143Y-26864048D01*
X12343095Y-26883095D01*
X12324048Y-26892619D01*
X12676428Y-27035476D02*
X12676428Y-26835476D01*
X12762143Y-27035476D02*
X12762143Y-26930714D01*
X12752619Y-26911667D01*
X12733571Y-26902143D01*
X12705000Y-26902143D01*
X12685952Y-26911667D01*
X12676428Y-26921190D01*
X12885952Y-27035476D02*
X12866905Y-27025952D01*
X12857381Y-27016428D01*
X12847857Y-26997381D01*
X12847857Y-26940238D01*
X12857381Y-26921190D01*
X12866905Y-26911667D01*
X12885952Y-26902143D01*
X12914524Y-26902143D01*
X12933571Y-26911667D01*
X12943095Y-26921190D01*
X12952619Y-26940238D01*
X12952619Y-26997381D01*
X12943095Y-27016428D01*
X12933571Y-27025952D01*
X12914524Y-27035476D01*
X12885952Y-27035476D01*
X13066905Y-27035476D02*
X13047857Y-27025952D01*
X13038333Y-27006905D01*
X13038333Y-26835476D01*
X13219286Y-27025952D02*
X13200238Y-27035476D01*
X13162143Y-27035476D01*
X13143095Y-27025952D01*
X13133571Y-27006905D01*
X13133571Y-26930714D01*
X13143095Y-26911667D01*
X13162143Y-26902143D01*
X13200238Y-26902143D01*
X13219286Y-26911667D01*
X13228809Y-26930714D01*
X13228809Y-26949762D01*
X13133571Y-26968809D01*
X13305000Y-27025952D02*
X13324048Y-27035476D01*
X13362143Y-27035476D01*
X13381190Y-27025952D01*
X13390714Y-27006905D01*
X13390714Y-26997381D01*
X13381190Y-26978333D01*
X13362143Y-26968809D01*
X13333571Y-26968809D01*
X13314524Y-26959286D01*
X13305000Y-26940238D01*
X13305000Y-26930714D01*
X13314524Y-26911667D01*
X13333571Y-26902143D01*
X13362143Y-26902143D01*
X13381190Y-26911667D01*
X13457381Y-27111667D02*
X13466905Y-27102143D01*
X13485952Y-27073571D01*
X13495476Y-27054524D01*
X13505000Y-27025952D01*
X13514524Y-26978333D01*
X13514524Y-26940238D01*
X13505000Y-26892619D01*
X13495476Y-26864048D01*
X13485952Y-26845000D01*
X13466905Y-26816428D01*
X13457381Y-26806905D01*
D13*
X8495000Y-27209000D02*
G75*
G03*
X8495000Y-27209000I-35000J0D01*
G01*
D11*
X8790714Y-27099476D02*
X8809762Y-27099476D01*
X8828810Y-27109000D01*
X8838333Y-27118524D01*
X8847857Y-27137571D01*
X8857381Y-27175667D01*
X8857381Y-27223286D01*
X8847857Y-27261381D01*
X8838333Y-27280428D01*
X8828810Y-27289952D01*
X8809762Y-27299476D01*
X8790714Y-27299476D01*
X8771667Y-27289952D01*
X8762143Y-27280428D01*
X8752619Y-27261381D01*
X8743095Y-27223286D01*
X8743095Y-27175667D01*
X8752619Y-27137571D01*
X8762143Y-27118524D01*
X8771667Y-27109000D01*
X8790714Y-27099476D01*
X8943095Y-27280428D02*
X8952619Y-27289952D01*
X8943095Y-27299476D01*
X8933571Y-27289952D01*
X8943095Y-27280428D01*
X8943095Y-27299476D01*
X9019286Y-27099476D02*
X9152619Y-27099476D01*
X9066905Y-27299476D01*
X9266905Y-27099476D02*
X9285952Y-27099476D01*
X9305000Y-27109000D01*
X9314524Y-27118524D01*
X9324048Y-27137571D01*
X9333571Y-27175667D01*
X9333571Y-27223286D01*
X9324048Y-27261381D01*
X9314524Y-27280428D01*
X9305000Y-27289952D01*
X9285952Y-27299476D01*
X9266905Y-27299476D01*
X9247857Y-27289952D01*
X9238333Y-27280428D01*
X9228810Y-27261381D01*
X9219286Y-27223286D01*
X9219286Y-27175667D01*
X9228810Y-27137571D01*
X9238333Y-27118524D01*
X9247857Y-27109000D01*
X9266905Y-27099476D01*
X9457381Y-27099476D02*
X9476429Y-27099476D01*
X9495476Y-27109000D01*
X9505000Y-27118524D01*
X9514524Y-27137571D01*
X9524048Y-27175667D01*
X9524048Y-27223286D01*
X9514524Y-27261381D01*
X9505000Y-27280428D01*
X9495476Y-27289952D01*
X9476429Y-27299476D01*
X9457381Y-27299476D01*
X9438333Y-27289952D01*
X9428810Y-27280428D01*
X9419286Y-27261381D01*
X9409762Y-27223286D01*
X9409762Y-27175667D01*
X9419286Y-27137571D01*
X9428810Y-27118524D01*
X9438333Y-27109000D01*
X9457381Y-27099476D01*
X9609762Y-27299476D02*
X9609762Y-27166143D01*
X9609762Y-27185190D02*
X9619286Y-27175667D01*
X9638333Y-27166143D01*
X9666905Y-27166143D01*
X9685952Y-27175667D01*
X9695476Y-27194714D01*
X9695476Y-27299476D01*
X9695476Y-27194714D02*
X9705000Y-27175667D01*
X9724048Y-27166143D01*
X9752619Y-27166143D01*
X9771667Y-27175667D01*
X9781190Y-27194714D01*
X9781190Y-27299476D01*
X9876429Y-27299476D02*
X9876429Y-27166143D01*
X9876429Y-27185190D02*
X9885952Y-27175667D01*
X9905000Y-27166143D01*
X9933571Y-27166143D01*
X9952619Y-27175667D01*
X9962143Y-27194714D01*
X9962143Y-27299476D01*
X9962143Y-27194714D02*
X9971667Y-27175667D01*
X9990714Y-27166143D01*
X10019286Y-27166143D01*
X10038333Y-27175667D01*
X10047857Y-27194714D01*
X10047857Y-27299476D01*
X10438333Y-27089952D02*
X10266905Y-27347095D01*
X10695476Y-27099476D02*
X10714524Y-27099476D01*
X10733571Y-27109000D01*
X10743095Y-27118524D01*
X10752619Y-27137571D01*
X10762143Y-27175667D01*
X10762143Y-27223286D01*
X10752619Y-27261381D01*
X10743095Y-27280428D01*
X10733571Y-27289952D01*
X10714524Y-27299476D01*
X10695476Y-27299476D01*
X10676429Y-27289952D01*
X10666905Y-27280428D01*
X10657381Y-27261381D01*
X10647857Y-27223286D01*
X10647857Y-27175667D01*
X10657381Y-27137571D01*
X10666905Y-27118524D01*
X10676429Y-27109000D01*
X10695476Y-27099476D01*
X10847857Y-27280428D02*
X10857381Y-27289952D01*
X10847857Y-27299476D01*
X10838333Y-27289952D01*
X10847857Y-27280428D01*
X10847857Y-27299476D01*
X10981190Y-27099476D02*
X11000238Y-27099476D01*
X11019286Y-27109000D01*
X11028810Y-27118524D01*
X11038333Y-27137571D01*
X11047857Y-27175667D01*
X11047857Y-27223286D01*
X11038333Y-27261381D01*
X11028810Y-27280428D01*
X11019286Y-27289952D01*
X11000238Y-27299476D01*
X10981190Y-27299476D01*
X10962143Y-27289952D01*
X10952619Y-27280428D01*
X10943095Y-27261381D01*
X10933571Y-27223286D01*
X10933571Y-27175667D01*
X10943095Y-27137571D01*
X10952619Y-27118524D01*
X10962143Y-27109000D01*
X10981190Y-27099476D01*
X11124048Y-27118524D02*
X11133571Y-27109000D01*
X11152619Y-27099476D01*
X11200238Y-27099476D01*
X11219286Y-27109000D01*
X11228809Y-27118524D01*
X11238333Y-27137571D01*
X11238333Y-27156619D01*
X11228809Y-27185190D01*
X11114524Y-27299476D01*
X11238333Y-27299476D01*
X11305000Y-27099476D02*
X11438333Y-27099476D01*
X11352619Y-27299476D01*
X11600238Y-27099476D02*
X11562143Y-27099476D01*
X11543095Y-27109000D01*
X11533571Y-27118524D01*
X11514524Y-27147095D01*
X11505000Y-27185190D01*
X11505000Y-27261381D01*
X11514524Y-27280428D01*
X11524048Y-27289952D01*
X11543095Y-27299476D01*
X11581190Y-27299476D01*
X11600238Y-27289952D01*
X11609762Y-27280428D01*
X11619286Y-27261381D01*
X11619286Y-27213762D01*
X11609762Y-27194714D01*
X11600238Y-27185190D01*
X11581190Y-27175667D01*
X11543095Y-27175667D01*
X11524048Y-27185190D01*
X11514524Y-27194714D01*
X11505000Y-27213762D01*
X11695476Y-27099476D02*
X11695476Y-27137571D01*
X11771667Y-27099476D02*
X11771667Y-27137571D01*
X12066905Y-27375667D02*
X12057381Y-27366143D01*
X12038333Y-27337571D01*
X12028809Y-27318524D01*
X12019286Y-27289952D01*
X12009762Y-27242333D01*
X12009762Y-27204238D01*
X12019286Y-27156619D01*
X12028809Y-27128048D01*
X12038333Y-27109000D01*
X12057381Y-27080428D01*
X12066905Y-27070905D01*
X12133571Y-27118524D02*
X12143095Y-27109000D01*
X12162143Y-27099476D01*
X12209762Y-27099476D01*
X12228809Y-27109000D01*
X12238333Y-27118524D01*
X12247857Y-27137571D01*
X12247857Y-27156619D01*
X12238333Y-27185190D01*
X12124048Y-27299476D01*
X12247857Y-27299476D01*
X12419286Y-27166143D02*
X12419286Y-27299476D01*
X12371667Y-27089952D02*
X12324048Y-27232809D01*
X12447857Y-27232809D01*
X12676428Y-27299476D02*
X12676428Y-27099476D01*
X12762143Y-27299476D02*
X12762143Y-27194714D01*
X12752619Y-27175667D01*
X12733571Y-27166143D01*
X12705000Y-27166143D01*
X12685952Y-27175667D01*
X12676428Y-27185190D01*
X12885952Y-27299476D02*
X12866905Y-27289952D01*
X12857381Y-27280428D01*
X12847857Y-27261381D01*
X12847857Y-27204238D01*
X12857381Y-27185190D01*
X12866905Y-27175667D01*
X12885952Y-27166143D01*
X12914524Y-27166143D01*
X12933571Y-27175667D01*
X12943095Y-27185190D01*
X12952619Y-27204238D01*
X12952619Y-27261381D01*
X12943095Y-27280428D01*
X12933571Y-27289952D01*
X12914524Y-27299476D01*
X12885952Y-27299476D01*
X13066905Y-27299476D02*
X13047857Y-27289952D01*
X13038333Y-27270905D01*
X13038333Y-27099476D01*
X13219286Y-27289952D02*
X13200238Y-27299476D01*
X13162143Y-27299476D01*
X13143095Y-27289952D01*
X13133571Y-27270905D01*
X13133571Y-27194714D01*
X13143095Y-27175667D01*
X13162143Y-27166143D01*
X13200238Y-27166143D01*
X13219286Y-27175667D01*
X13228809Y-27194714D01*
X13228809Y-27213762D01*
X13133571Y-27232809D01*
X13305000Y-27289952D02*
X13324048Y-27299476D01*
X13362143Y-27299476D01*
X13381190Y-27289952D01*
X13390714Y-27270905D01*
X13390714Y-27261381D01*
X13381190Y-27242333D01*
X13362143Y-27232809D01*
X13333571Y-27232809D01*
X13314524Y-27223286D01*
X13305000Y-27204238D01*
X13305000Y-27194714D01*
X13314524Y-27175667D01*
X13333571Y-27166143D01*
X13362143Y-27166143D01*
X13381190Y-27175667D01*
X13457381Y-27375667D02*
X13466905Y-27366143D01*
X13485952Y-27337571D01*
X13495476Y-27318524D01*
X13505000Y-27289952D01*
X13514524Y-27242333D01*
X13514524Y-27204238D01*
X13505000Y-27156619D01*
X13495476Y-27128048D01*
X13485952Y-27109000D01*
X13466905Y-27080428D01*
X13457381Y-27070905D01*
D14*
X8457500Y-27435500D02*
X8457500Y-27510500D01*
X8420000Y-27473000D02*
X8495000Y-27473000D01*
D11*
X8790714Y-27363476D02*
X8809762Y-27363476D01*
X8828810Y-27373000D01*
X8838333Y-27382524D01*
X8847857Y-27401571D01*
X8857381Y-27439667D01*
X8857381Y-27487286D01*
X8847857Y-27525381D01*
X8838333Y-27544428D01*
X8828810Y-27553952D01*
X8809762Y-27563476D01*
X8790714Y-27563476D01*
X8771667Y-27553952D01*
X8762143Y-27544428D01*
X8752619Y-27525381D01*
X8743095Y-27487286D01*
X8743095Y-27439667D01*
X8752619Y-27401571D01*
X8762143Y-27382524D01*
X8771667Y-27373000D01*
X8790714Y-27363476D01*
X8943095Y-27544428D02*
X8952619Y-27553952D01*
X8943095Y-27563476D01*
X8933571Y-27553952D01*
X8943095Y-27544428D01*
X8943095Y-27563476D01*
X9019286Y-27363476D02*
X9152619Y-27363476D01*
X9066905Y-27563476D01*
X9324048Y-27363476D02*
X9228810Y-27363476D01*
X9219286Y-27458714D01*
X9228810Y-27449190D01*
X9247857Y-27439667D01*
X9295476Y-27439667D01*
X9314524Y-27449190D01*
X9324048Y-27458714D01*
X9333571Y-27477762D01*
X9333571Y-27525381D01*
X9324048Y-27544428D01*
X9314524Y-27553952D01*
X9295476Y-27563476D01*
X9247857Y-27563476D01*
X9228810Y-27553952D01*
X9219286Y-27544428D01*
X9457381Y-27363476D02*
X9476429Y-27363476D01*
X9495476Y-27373000D01*
X9505000Y-27382524D01*
X9514524Y-27401571D01*
X9524048Y-27439667D01*
X9524048Y-27487286D01*
X9514524Y-27525381D01*
X9505000Y-27544428D01*
X9495476Y-27553952D01*
X9476429Y-27563476D01*
X9457381Y-27563476D01*
X9438333Y-27553952D01*
X9428810Y-27544428D01*
X9419286Y-27525381D01*
X9409762Y-27487286D01*
X9409762Y-27439667D01*
X9419286Y-27401571D01*
X9428810Y-27382524D01*
X9438333Y-27373000D01*
X9457381Y-27363476D01*
X9609762Y-27563476D02*
X9609762Y-27430143D01*
X9609762Y-27449190D02*
X9619286Y-27439667D01*
X9638333Y-27430143D01*
X9666905Y-27430143D01*
X9685952Y-27439667D01*
X9695476Y-27458714D01*
X9695476Y-27563476D01*
X9695476Y-27458714D02*
X9705000Y-27439667D01*
X9724048Y-27430143D01*
X9752619Y-27430143D01*
X9771667Y-27439667D01*
X9781190Y-27458714D01*
X9781190Y-27563476D01*
X9876429Y-27563476D02*
X9876429Y-27430143D01*
X9876429Y-27449190D02*
X9885952Y-27439667D01*
X9905000Y-27430143D01*
X9933571Y-27430143D01*
X9952619Y-27439667D01*
X9962143Y-27458714D01*
X9962143Y-27563476D01*
X9962143Y-27458714D02*
X9971667Y-27439667D01*
X9990714Y-27430143D01*
X10019286Y-27430143D01*
X10038333Y-27439667D01*
X10047857Y-27458714D01*
X10047857Y-27563476D01*
X10438333Y-27353952D02*
X10266905Y-27611095D01*
X10695476Y-27363476D02*
X10714524Y-27363476D01*
X10733571Y-27373000D01*
X10743095Y-27382524D01*
X10752619Y-27401571D01*
X10762143Y-27439667D01*
X10762143Y-27487286D01*
X10752619Y-27525381D01*
X10743095Y-27544428D01*
X10733571Y-27553952D01*
X10714524Y-27563476D01*
X10695476Y-27563476D01*
X10676429Y-27553952D01*
X10666905Y-27544428D01*
X10657381Y-27525381D01*
X10647857Y-27487286D01*
X10647857Y-27439667D01*
X10657381Y-27401571D01*
X10666905Y-27382524D01*
X10676429Y-27373000D01*
X10695476Y-27363476D01*
X10847857Y-27544428D02*
X10857381Y-27553952D01*
X10847857Y-27563476D01*
X10838333Y-27553952D01*
X10847857Y-27544428D01*
X10847857Y-27563476D01*
X10981190Y-27363476D02*
X11000238Y-27363476D01*
X11019286Y-27373000D01*
X11028810Y-27382524D01*
X11038333Y-27401571D01*
X11047857Y-27439667D01*
X11047857Y-27487286D01*
X11038333Y-27525381D01*
X11028810Y-27544428D01*
X11019286Y-27553952D01*
X11000238Y-27563476D01*
X10981190Y-27563476D01*
X10962143Y-27553952D01*
X10952619Y-27544428D01*
X10943095Y-27525381D01*
X10933571Y-27487286D01*
X10933571Y-27439667D01*
X10943095Y-27401571D01*
X10952619Y-27382524D01*
X10962143Y-27373000D01*
X10981190Y-27363476D01*
X11124048Y-27382524D02*
X11133571Y-27373000D01*
X11152619Y-27363476D01*
X11200238Y-27363476D01*
X11219286Y-27373000D01*
X11228809Y-27382524D01*
X11238333Y-27401571D01*
X11238333Y-27420619D01*
X11228809Y-27449190D01*
X11114524Y-27563476D01*
X11238333Y-27563476D01*
X11333571Y-27563476D02*
X11371667Y-27563476D01*
X11390714Y-27553952D01*
X11400238Y-27544428D01*
X11419286Y-27515857D01*
X11428809Y-27477762D01*
X11428809Y-27401571D01*
X11419286Y-27382524D01*
X11409762Y-27373000D01*
X11390714Y-27363476D01*
X11352619Y-27363476D01*
X11333571Y-27373000D01*
X11324048Y-27382524D01*
X11314524Y-27401571D01*
X11314524Y-27449190D01*
X11324048Y-27468238D01*
X11333571Y-27477762D01*
X11352619Y-27487286D01*
X11390714Y-27487286D01*
X11409762Y-27477762D01*
X11419286Y-27468238D01*
X11428809Y-27449190D01*
X11609762Y-27363476D02*
X11514524Y-27363476D01*
X11505000Y-27458714D01*
X11514524Y-27449190D01*
X11533571Y-27439667D01*
X11581190Y-27439667D01*
X11600238Y-27449190D01*
X11609762Y-27458714D01*
X11619286Y-27477762D01*
X11619286Y-27525381D01*
X11609762Y-27544428D01*
X11600238Y-27553952D01*
X11581190Y-27563476D01*
X11533571Y-27563476D01*
X11514524Y-27553952D01*
X11505000Y-27544428D01*
X11695476Y-27363476D02*
X11695476Y-27401571D01*
X11771667Y-27363476D02*
X11771667Y-27401571D01*
X12066905Y-27639667D02*
X12057381Y-27630143D01*
X12038333Y-27601571D01*
X12028809Y-27582524D01*
X12019286Y-27553952D01*
X12009762Y-27506333D01*
X12009762Y-27468238D01*
X12019286Y-27420619D01*
X12028809Y-27392048D01*
X12038333Y-27373000D01*
X12057381Y-27344428D01*
X12066905Y-27334905D01*
X12171667Y-27449190D02*
X12152619Y-27439667D01*
X12143095Y-27430143D01*
X12133571Y-27411095D01*
X12133571Y-27401571D01*
X12143095Y-27382524D01*
X12152619Y-27373000D01*
X12171667Y-27363476D01*
X12209762Y-27363476D01*
X12228809Y-27373000D01*
X12238333Y-27382524D01*
X12247857Y-27401571D01*
X12247857Y-27411095D01*
X12238333Y-27430143D01*
X12228809Y-27439667D01*
X12209762Y-27449190D01*
X12171667Y-27449190D01*
X12152619Y-27458714D01*
X12143095Y-27468238D01*
X12133571Y-27487286D01*
X12133571Y-27525381D01*
X12143095Y-27544428D01*
X12152619Y-27553952D01*
X12171667Y-27563476D01*
X12209762Y-27563476D01*
X12228809Y-27553952D01*
X12238333Y-27544428D01*
X12247857Y-27525381D01*
X12247857Y-27487286D01*
X12238333Y-27468238D01*
X12228809Y-27458714D01*
X12209762Y-27449190D01*
X12485952Y-27563476D02*
X12485952Y-27363476D01*
X12571667Y-27563476D02*
X12571667Y-27458714D01*
X12562143Y-27439667D01*
X12543095Y-27430143D01*
X12514524Y-27430143D01*
X12495476Y-27439667D01*
X12485952Y-27449190D01*
X12695476Y-27563476D02*
X12676428Y-27553952D01*
X12666905Y-27544428D01*
X12657381Y-27525381D01*
X12657381Y-27468238D01*
X12666905Y-27449190D01*
X12676428Y-27439667D01*
X12695476Y-27430143D01*
X12724048Y-27430143D01*
X12743095Y-27439667D01*
X12752619Y-27449190D01*
X12762143Y-27468238D01*
X12762143Y-27525381D01*
X12752619Y-27544428D01*
X12743095Y-27553952D01*
X12724048Y-27563476D01*
X12695476Y-27563476D01*
X12876428Y-27563476D02*
X12857381Y-27553952D01*
X12847857Y-27534905D01*
X12847857Y-27363476D01*
X13028809Y-27553952D02*
X13009762Y-27563476D01*
X12971667Y-27563476D01*
X12952619Y-27553952D01*
X12943095Y-27534905D01*
X12943095Y-27458714D01*
X12952619Y-27439667D01*
X12971667Y-27430143D01*
X13009762Y-27430143D01*
X13028809Y-27439667D01*
X13038333Y-27458714D01*
X13038333Y-27477762D01*
X12943095Y-27496809D01*
X13114524Y-27553952D02*
X13133571Y-27563476D01*
X13171667Y-27563476D01*
X13190714Y-27553952D01*
X13200238Y-27534905D01*
X13200238Y-27525381D01*
X13190714Y-27506333D01*
X13171667Y-27496809D01*
X13143095Y-27496809D01*
X13124048Y-27487286D01*
X13114524Y-27468238D01*
X13114524Y-27458714D01*
X13124048Y-27439667D01*
X13143095Y-27430143D01*
X13171667Y-27430143D01*
X13190714Y-27439667D01*
X13266905Y-27639667D02*
X13276428Y-27630143D01*
X13295476Y-27601571D01*
X13305000Y-27582524D01*
X13314524Y-27553952D01*
X13324048Y-27506333D01*
X13324048Y-27468238D01*
X13314524Y-27420619D01*
X13305000Y-27392048D01*
X13295476Y-27373000D01*
X13276428Y-27344428D01*
X13266905Y-27334905D01*
D15*
X8483285Y-27765284D02*
X8483285Y-27708715D01*
X8426716Y-27708715D01*
X8426716Y-27765284D01*
X8483285Y-27765284D01*
D11*
X8790714Y-27627476D02*
X8809762Y-27627476D01*
X8828810Y-27637000D01*
X8838333Y-27646524D01*
X8847857Y-27665571D01*
X8857381Y-27703667D01*
X8857381Y-27751286D01*
X8847857Y-27789381D01*
X8838333Y-27808428D01*
X8828810Y-27817952D01*
X8809762Y-27827476D01*
X8790714Y-27827476D01*
X8771667Y-27817952D01*
X8762143Y-27808428D01*
X8752619Y-27789381D01*
X8743095Y-27751286D01*
X8743095Y-27703667D01*
X8752619Y-27665571D01*
X8762143Y-27646524D01*
X8771667Y-27637000D01*
X8790714Y-27627476D01*
X8943095Y-27808428D02*
X8952619Y-27817952D01*
X8943095Y-27827476D01*
X8933571Y-27817952D01*
X8943095Y-27808428D01*
X8943095Y-27827476D01*
X9066905Y-27713190D02*
X9047857Y-27703667D01*
X9038333Y-27694143D01*
X9028810Y-27675095D01*
X9028810Y-27665571D01*
X9038333Y-27646524D01*
X9047857Y-27637000D01*
X9066905Y-27627476D01*
X9105000Y-27627476D01*
X9124048Y-27637000D01*
X9133571Y-27646524D01*
X9143095Y-27665571D01*
X9143095Y-27675095D01*
X9133571Y-27694143D01*
X9124048Y-27703667D01*
X9105000Y-27713190D01*
X9066905Y-27713190D01*
X9047857Y-27722714D01*
X9038333Y-27732238D01*
X9028810Y-27751286D01*
X9028810Y-27789381D01*
X9038333Y-27808428D01*
X9047857Y-27817952D01*
X9066905Y-27827476D01*
X9105000Y-27827476D01*
X9124048Y-27817952D01*
X9133571Y-27808428D01*
X9143095Y-27789381D01*
X9143095Y-27751286D01*
X9133571Y-27732238D01*
X9124048Y-27722714D01*
X9105000Y-27713190D01*
X9266905Y-27627476D02*
X9285952Y-27627476D01*
X9305000Y-27637000D01*
X9314524Y-27646524D01*
X9324048Y-27665571D01*
X9333571Y-27703667D01*
X9333571Y-27751286D01*
X9324048Y-27789381D01*
X9314524Y-27808428D01*
X9305000Y-27817952D01*
X9285952Y-27827476D01*
X9266905Y-27827476D01*
X9247857Y-27817952D01*
X9238333Y-27808428D01*
X9228810Y-27789381D01*
X9219286Y-27751286D01*
X9219286Y-27703667D01*
X9228810Y-27665571D01*
X9238333Y-27646524D01*
X9247857Y-27637000D01*
X9266905Y-27627476D01*
X9457381Y-27627476D02*
X9476429Y-27627476D01*
X9495476Y-27637000D01*
X9505000Y-27646524D01*
X9514524Y-27665571D01*
X9524048Y-27703667D01*
X9524048Y-27751286D01*
X9514524Y-27789381D01*
X9505000Y-27808428D01*
X9495476Y-27817952D01*
X9476429Y-27827476D01*
X9457381Y-27827476D01*
X9438333Y-27817952D01*
X9428810Y-27808428D01*
X9419286Y-27789381D01*
X9409762Y-27751286D01*
X9409762Y-27703667D01*
X9419286Y-27665571D01*
X9428810Y-27646524D01*
X9438333Y-27637000D01*
X9457381Y-27627476D01*
X9609762Y-27827476D02*
X9609762Y-27694143D01*
X9609762Y-27713190D02*
X9619286Y-27703667D01*
X9638333Y-27694143D01*
X9666905Y-27694143D01*
X9685952Y-27703667D01*
X9695476Y-27722714D01*
X9695476Y-27827476D01*
X9695476Y-27722714D02*
X9705000Y-27703667D01*
X9724048Y-27694143D01*
X9752619Y-27694143D01*
X9771667Y-27703667D01*
X9781190Y-27722714D01*
X9781190Y-27827476D01*
X9876429Y-27827476D02*
X9876429Y-27694143D01*
X9876429Y-27713190D02*
X9885952Y-27703667D01*
X9905000Y-27694143D01*
X9933571Y-27694143D01*
X9952619Y-27703667D01*
X9962143Y-27722714D01*
X9962143Y-27827476D01*
X9962143Y-27722714D02*
X9971667Y-27703667D01*
X9990714Y-27694143D01*
X10019286Y-27694143D01*
X10038333Y-27703667D01*
X10047857Y-27722714D01*
X10047857Y-27827476D01*
X10438333Y-27617952D02*
X10266905Y-27875095D01*
X10695476Y-27627476D02*
X10714524Y-27627476D01*
X10733571Y-27637000D01*
X10743095Y-27646524D01*
X10752619Y-27665571D01*
X10762143Y-27703667D01*
X10762143Y-27751286D01*
X10752619Y-27789381D01*
X10743095Y-27808428D01*
X10733571Y-27817952D01*
X10714524Y-27827476D01*
X10695476Y-27827476D01*
X10676429Y-27817952D01*
X10666905Y-27808428D01*
X10657381Y-27789381D01*
X10647857Y-27751286D01*
X10647857Y-27703667D01*
X10657381Y-27665571D01*
X10666905Y-27646524D01*
X10676429Y-27637000D01*
X10695476Y-27627476D01*
X10847857Y-27808428D02*
X10857381Y-27817952D01*
X10847857Y-27827476D01*
X10838333Y-27817952D01*
X10847857Y-27808428D01*
X10847857Y-27827476D01*
X10981190Y-27627476D02*
X11000238Y-27627476D01*
X11019286Y-27637000D01*
X11028810Y-27646524D01*
X11038333Y-27665571D01*
X11047857Y-27703667D01*
X11047857Y-27751286D01*
X11038333Y-27789381D01*
X11028810Y-27808428D01*
X11019286Y-27817952D01*
X11000238Y-27827476D01*
X10981190Y-27827476D01*
X10962143Y-27817952D01*
X10952619Y-27808428D01*
X10943095Y-27789381D01*
X10933571Y-27751286D01*
X10933571Y-27703667D01*
X10943095Y-27665571D01*
X10952619Y-27646524D01*
X10962143Y-27637000D01*
X10981190Y-27627476D01*
X11114524Y-27627476D02*
X11238333Y-27627476D01*
X11171667Y-27703667D01*
X11200238Y-27703667D01*
X11219286Y-27713190D01*
X11228809Y-27722714D01*
X11238333Y-27741762D01*
X11238333Y-27789381D01*
X11228809Y-27808428D01*
X11219286Y-27817952D01*
X11200238Y-27827476D01*
X11143095Y-27827476D01*
X11124048Y-27817952D01*
X11114524Y-27808428D01*
X11428809Y-27827476D02*
X11314524Y-27827476D01*
X11371667Y-27827476D02*
X11371667Y-27627476D01*
X11352619Y-27656048D01*
X11333571Y-27675095D01*
X11314524Y-27684619D01*
X11609762Y-27627476D02*
X11514524Y-27627476D01*
X11505000Y-27722714D01*
X11514524Y-27713190D01*
X11533571Y-27703667D01*
X11581190Y-27703667D01*
X11600238Y-27713190D01*
X11609762Y-27722714D01*
X11619286Y-27741762D01*
X11619286Y-27789381D01*
X11609762Y-27808428D01*
X11600238Y-27817952D01*
X11581190Y-27827476D01*
X11533571Y-27827476D01*
X11514524Y-27817952D01*
X11505000Y-27808428D01*
X11695476Y-27627476D02*
X11695476Y-27665571D01*
X11771667Y-27627476D02*
X11771667Y-27665571D01*
X12066905Y-27903667D02*
X12057381Y-27894143D01*
X12038333Y-27865571D01*
X12028809Y-27846524D01*
X12019286Y-27817952D01*
X12009762Y-27770333D01*
X12009762Y-27732238D01*
X12019286Y-27684619D01*
X12028809Y-27656048D01*
X12038333Y-27637000D01*
X12057381Y-27608428D01*
X12066905Y-27598905D01*
X12247857Y-27827476D02*
X12133571Y-27827476D01*
X12190714Y-27827476D02*
X12190714Y-27627476D01*
X12171667Y-27656048D01*
X12152619Y-27675095D01*
X12133571Y-27684619D01*
X12362143Y-27713190D02*
X12343095Y-27703667D01*
X12333571Y-27694143D01*
X12324048Y-27675095D01*
X12324048Y-27665571D01*
X12333571Y-27646524D01*
X12343095Y-27637000D01*
X12362143Y-27627476D01*
X12400238Y-27627476D01*
X12419286Y-27637000D01*
X12428809Y-27646524D01*
X12438333Y-27665571D01*
X12438333Y-27675095D01*
X12428809Y-27694143D01*
X12419286Y-27703667D01*
X12400238Y-27713190D01*
X12362143Y-27713190D01*
X12343095Y-27722714D01*
X12333571Y-27732238D01*
X12324048Y-27751286D01*
X12324048Y-27789381D01*
X12333571Y-27808428D01*
X12343095Y-27817952D01*
X12362143Y-27827476D01*
X12400238Y-27827476D01*
X12419286Y-27817952D01*
X12428809Y-27808428D01*
X12438333Y-27789381D01*
X12438333Y-27751286D01*
X12428809Y-27732238D01*
X12419286Y-27722714D01*
X12400238Y-27713190D01*
X12552619Y-27713190D02*
X12533571Y-27703667D01*
X12524048Y-27694143D01*
X12514524Y-27675095D01*
X12514524Y-27665571D01*
X12524048Y-27646524D01*
X12533571Y-27637000D01*
X12552619Y-27627476D01*
X12590714Y-27627476D01*
X12609762Y-27637000D01*
X12619286Y-27646524D01*
X12628809Y-27665571D01*
X12628809Y-27675095D01*
X12619286Y-27694143D01*
X12609762Y-27703667D01*
X12590714Y-27713190D01*
X12552619Y-27713190D01*
X12533571Y-27722714D01*
X12524048Y-27732238D01*
X12514524Y-27751286D01*
X12514524Y-27789381D01*
X12524048Y-27808428D01*
X12533571Y-27817952D01*
X12552619Y-27827476D01*
X12590714Y-27827476D01*
X12609762Y-27817952D01*
X12619286Y-27808428D01*
X12628809Y-27789381D01*
X12628809Y-27751286D01*
X12619286Y-27732238D01*
X12609762Y-27722714D01*
X12590714Y-27713190D01*
X12866905Y-27827476D02*
X12866905Y-27627476D01*
X12952619Y-27827476D02*
X12952619Y-27722714D01*
X12943095Y-27703667D01*
X12924048Y-27694143D01*
X12895476Y-27694143D01*
X12876428Y-27703667D01*
X12866905Y-27713190D01*
X13076428Y-27827476D02*
X13057381Y-27817952D01*
X13047857Y-27808428D01*
X13038333Y-27789381D01*
X13038333Y-27732238D01*
X13047857Y-27713190D01*
X13057381Y-27703667D01*
X13076428Y-27694143D01*
X13105000Y-27694143D01*
X13124048Y-27703667D01*
X13133571Y-27713190D01*
X13143095Y-27732238D01*
X13143095Y-27789381D01*
X13133571Y-27808428D01*
X13124048Y-27817952D01*
X13105000Y-27827476D01*
X13076428Y-27827476D01*
X13257381Y-27827476D02*
X13238333Y-27817952D01*
X13228809Y-27798905D01*
X13228809Y-27627476D01*
X13409762Y-27817952D02*
X13390714Y-27827476D01*
X13352619Y-27827476D01*
X13333571Y-27817952D01*
X13324048Y-27798905D01*
X13324048Y-27722714D01*
X13333571Y-27703667D01*
X13352619Y-27694143D01*
X13390714Y-27694143D01*
X13409762Y-27703667D01*
X13419286Y-27722714D01*
X13419286Y-27741762D01*
X13324048Y-27760809D01*
X13495476Y-27817952D02*
X13514524Y-27827476D01*
X13552619Y-27827476D01*
X13571667Y-27817952D01*
X13581190Y-27798905D01*
X13581190Y-27789381D01*
X13571667Y-27770333D01*
X13552619Y-27760809D01*
X13524048Y-27760809D01*
X13505000Y-27751286D01*
X13495476Y-27732238D01*
X13495476Y-27722714D01*
X13505000Y-27703667D01*
X13524048Y-27694143D01*
X13552619Y-27694143D01*
X13571667Y-27703667D01*
X13647857Y-27903667D02*
X13657381Y-27894143D01*
X13676428Y-27865571D01*
X13685952Y-27846524D01*
X13695476Y-27817952D01*
X13705000Y-27770333D01*
X13705000Y-27732238D01*
X13695476Y-27684619D01*
X13685952Y-27656048D01*
X13676428Y-27637000D01*
X13657381Y-27608428D01*
X13647857Y-27598905D01*
D16*
X8450000Y-28046000D02*
X8495000Y-28001000D01*
X8450000Y-27956000D01*
X8405000Y-28001000D01*
X8450000Y-28046000D01*
D11*
X8790714Y-27891476D02*
X8809762Y-27891476D01*
X8828810Y-27901000D01*
X8838333Y-27910524D01*
X8847857Y-27929571D01*
X8857381Y-27967667D01*
X8857381Y-28015286D01*
X8847857Y-28053381D01*
X8838333Y-28072428D01*
X8828810Y-28081952D01*
X8809762Y-28091476D01*
X8790714Y-28091476D01*
X8771667Y-28081952D01*
X8762143Y-28072428D01*
X8752619Y-28053381D01*
X8743095Y-28015286D01*
X8743095Y-27967667D01*
X8752619Y-27929571D01*
X8762143Y-27910524D01*
X8771667Y-27901000D01*
X8790714Y-27891476D01*
X8943095Y-28072428D02*
X8952619Y-28081952D01*
X8943095Y-28091476D01*
X8933571Y-28081952D01*
X8943095Y-28072428D01*
X8943095Y-28091476D01*
X9047857Y-28091476D02*
X9085952Y-28091476D01*
X9105000Y-28081952D01*
X9114524Y-28072428D01*
X9133571Y-28043857D01*
X9143095Y-28005762D01*
X9143095Y-27929571D01*
X9133571Y-27910524D01*
X9124048Y-27901000D01*
X9105000Y-27891476D01*
X9066905Y-27891476D01*
X9047857Y-27901000D01*
X9038333Y-27910524D01*
X9028810Y-27929571D01*
X9028810Y-27977190D01*
X9038333Y-27996238D01*
X9047857Y-28005762D01*
X9066905Y-28015286D01*
X9105000Y-28015286D01*
X9124048Y-28005762D01*
X9133571Y-27996238D01*
X9143095Y-27977190D01*
X9266905Y-27891476D02*
X9285952Y-27891476D01*
X9305000Y-27901000D01*
X9314524Y-27910524D01*
X9324048Y-27929571D01*
X9333571Y-27967667D01*
X9333571Y-28015286D01*
X9324048Y-28053381D01*
X9314524Y-28072428D01*
X9305000Y-28081952D01*
X9285952Y-28091476D01*
X9266905Y-28091476D01*
X9247857Y-28081952D01*
X9238333Y-28072428D01*
X9228810Y-28053381D01*
X9219286Y-28015286D01*
X9219286Y-27967667D01*
X9228810Y-27929571D01*
X9238333Y-27910524D01*
X9247857Y-27901000D01*
X9266905Y-27891476D01*
X9457381Y-27891476D02*
X9476429Y-27891476D01*
X9495476Y-27901000D01*
X9505000Y-27910524D01*
X9514524Y-27929571D01*
X9524048Y-27967667D01*
X9524048Y-28015286D01*
X9514524Y-28053381D01*
X9505000Y-28072428D01*
X9495476Y-28081952D01*
X9476429Y-28091476D01*
X9457381Y-28091476D01*
X9438333Y-28081952D01*
X9428810Y-28072428D01*
X9419286Y-28053381D01*
X9409762Y-28015286D01*
X9409762Y-27967667D01*
X9419286Y-27929571D01*
X9428810Y-27910524D01*
X9438333Y-27901000D01*
X9457381Y-27891476D01*
X9609762Y-28091476D02*
X9609762Y-27958143D01*
X9609762Y-27977190D02*
X9619286Y-27967667D01*
X9638333Y-27958143D01*
X9666905Y-27958143D01*
X9685952Y-27967667D01*
X9695476Y-27986714D01*
X9695476Y-28091476D01*
X9695476Y-27986714D02*
X9705000Y-27967667D01*
X9724048Y-27958143D01*
X9752619Y-27958143D01*
X9771667Y-27967667D01*
X9781190Y-27986714D01*
X9781190Y-28091476D01*
X9876429Y-28091476D02*
X9876429Y-27958143D01*
X9876429Y-27977190D02*
X9885952Y-27967667D01*
X9905000Y-27958143D01*
X9933571Y-27958143D01*
X9952619Y-27967667D01*
X9962143Y-27986714D01*
X9962143Y-28091476D01*
X9962143Y-27986714D02*
X9971667Y-27967667D01*
X9990714Y-27958143D01*
X10019286Y-27958143D01*
X10038333Y-27967667D01*
X10047857Y-27986714D01*
X10047857Y-28091476D01*
X10438333Y-27881952D02*
X10266905Y-28139095D01*
X10695476Y-27891476D02*
X10714524Y-27891476D01*
X10733571Y-27901000D01*
X10743095Y-27910524D01*
X10752619Y-27929571D01*
X10762143Y-27967667D01*
X10762143Y-28015286D01*
X10752619Y-28053381D01*
X10743095Y-28072428D01*
X10733571Y-28081952D01*
X10714524Y-28091476D01*
X10695476Y-28091476D01*
X10676429Y-28081952D01*
X10666905Y-28072428D01*
X10657381Y-28053381D01*
X10647857Y-28015286D01*
X10647857Y-27967667D01*
X10657381Y-27929571D01*
X10666905Y-27910524D01*
X10676429Y-27901000D01*
X10695476Y-27891476D01*
X10847857Y-28072428D02*
X10857381Y-28081952D01*
X10847857Y-28091476D01*
X10838333Y-28081952D01*
X10847857Y-28072428D01*
X10847857Y-28091476D01*
X10981190Y-27891476D02*
X11000238Y-27891476D01*
X11019286Y-27901000D01*
X11028810Y-27910524D01*
X11038333Y-27929571D01*
X11047857Y-27967667D01*
X11047857Y-28015286D01*
X11038333Y-28053381D01*
X11028810Y-28072428D01*
X11019286Y-28081952D01*
X11000238Y-28091476D01*
X10981190Y-28091476D01*
X10962143Y-28081952D01*
X10952619Y-28072428D01*
X10943095Y-28053381D01*
X10933571Y-28015286D01*
X10933571Y-27967667D01*
X10943095Y-27929571D01*
X10952619Y-27910524D01*
X10962143Y-27901000D01*
X10981190Y-27891476D01*
X11114524Y-27891476D02*
X11238333Y-27891476D01*
X11171667Y-27967667D01*
X11200238Y-27967667D01*
X11219286Y-27977190D01*
X11228809Y-27986714D01*
X11238333Y-28005762D01*
X11238333Y-28053381D01*
X11228809Y-28072428D01*
X11219286Y-28081952D01*
X11200238Y-28091476D01*
X11143095Y-28091476D01*
X11124048Y-28081952D01*
X11114524Y-28072428D01*
X11419286Y-27891476D02*
X11324048Y-27891476D01*
X11314524Y-27986714D01*
X11324048Y-27977190D01*
X11343095Y-27967667D01*
X11390714Y-27967667D01*
X11409762Y-27977190D01*
X11419286Y-27986714D01*
X11428809Y-28005762D01*
X11428809Y-28053381D01*
X11419286Y-28072428D01*
X11409762Y-28081952D01*
X11390714Y-28091476D01*
X11343095Y-28091476D01*
X11324048Y-28081952D01*
X11314524Y-28072428D01*
X11600238Y-27958143D02*
X11600238Y-28091476D01*
X11552619Y-27881952D02*
X11505000Y-28024809D01*
X11628809Y-28024809D01*
X11695476Y-27891476D02*
X11695476Y-27929571D01*
X11771667Y-27891476D02*
X11771667Y-27929571D01*
X12066905Y-28167667D02*
X12057381Y-28158143D01*
X12038333Y-28129571D01*
X12028809Y-28110524D01*
X12019286Y-28081952D01*
X12009762Y-28034333D01*
X12009762Y-27996238D01*
X12019286Y-27948619D01*
X12028809Y-27920048D01*
X12038333Y-27901000D01*
X12057381Y-27872428D01*
X12066905Y-27862905D01*
X12171667Y-27977190D02*
X12152619Y-27967667D01*
X12143095Y-27958143D01*
X12133571Y-27939095D01*
X12133571Y-27929571D01*
X12143095Y-27910524D01*
X12152619Y-27901000D01*
X12171667Y-27891476D01*
X12209762Y-27891476D01*
X12228809Y-27901000D01*
X12238333Y-27910524D01*
X12247857Y-27929571D01*
X12247857Y-27939095D01*
X12238333Y-27958143D01*
X12228809Y-27967667D01*
X12209762Y-27977190D01*
X12171667Y-27977190D01*
X12152619Y-27986714D01*
X12143095Y-27996238D01*
X12133571Y-28015286D01*
X12133571Y-28053381D01*
X12143095Y-28072428D01*
X12152619Y-28081952D01*
X12171667Y-28091476D01*
X12209762Y-28091476D01*
X12228809Y-28081952D01*
X12238333Y-28072428D01*
X12247857Y-28053381D01*
X12247857Y-28015286D01*
X12238333Y-27996238D01*
X12228809Y-27986714D01*
X12209762Y-27977190D01*
X12485952Y-28091476D02*
X12485952Y-27891476D01*
X12571667Y-28091476D02*
X12571667Y-27986714D01*
X12562143Y-27967667D01*
X12543095Y-27958143D01*
X12514524Y-27958143D01*
X12495476Y-27967667D01*
X12485952Y-27977190D01*
X12695476Y-28091476D02*
X12676428Y-28081952D01*
X12666905Y-28072428D01*
X12657381Y-28053381D01*
X12657381Y-27996238D01*
X12666905Y-27977190D01*
X12676428Y-27967667D01*
X12695476Y-27958143D01*
X12724048Y-27958143D01*
X12743095Y-27967667D01*
X12752619Y-27977190D01*
X12762143Y-27996238D01*
X12762143Y-28053381D01*
X12752619Y-28072428D01*
X12743095Y-28081952D01*
X12724048Y-28091476D01*
X12695476Y-28091476D01*
X12876428Y-28091476D02*
X12857381Y-28081952D01*
X12847857Y-28062905D01*
X12847857Y-27891476D01*
X13028809Y-28081952D02*
X13009762Y-28091476D01*
X12971667Y-28091476D01*
X12952619Y-28081952D01*
X12943095Y-28062905D01*
X12943095Y-27986714D01*
X12952619Y-27967667D01*
X12971667Y-27958143D01*
X13009762Y-27958143D01*
X13028809Y-27967667D01*
X13038333Y-27986714D01*
X13038333Y-28005762D01*
X12943095Y-28024809D01*
X13114524Y-28081952D02*
X13133571Y-28091476D01*
X13171667Y-28091476D01*
X13190714Y-28081952D01*
X13200238Y-28062905D01*
X13200238Y-28053381D01*
X13190714Y-28034333D01*
X13171667Y-28024809D01*
X13143095Y-28024809D01*
X13124048Y-28015286D01*
X13114524Y-27996238D01*
X13114524Y-27986714D01*
X13124048Y-27967667D01*
X13143095Y-27958143D01*
X13171667Y-27958143D01*
X13190714Y-27967667D01*
X13266905Y-28167667D02*
X13276428Y-28158143D01*
X13295476Y-28129571D01*
X13305000Y-28110524D01*
X13314524Y-28081952D01*
X13324048Y-28034333D01*
X13324048Y-27996238D01*
X13314524Y-27948619D01*
X13305000Y-27920048D01*
X13295476Y-27901000D01*
X13276428Y-27872428D01*
X13266905Y-27862905D01*
D10*
X8395000Y-28215000D02*
X8495000Y-28315000D01*
X8495000Y-28215000D02*
X8395000Y-28315000D01*
X8495000Y-28265000D02*
G75*
G03*
X8495000Y-28265000I-50000J0D01*
G01*
D11*
X8857381Y-28355476D02*
X8743095Y-28355476D01*
X8800238Y-28355476D02*
X8800238Y-28155476D01*
X8781190Y-28184048D01*
X8762143Y-28203095D01*
X8743095Y-28212619D01*
X8943095Y-28336428D02*
X8952619Y-28345952D01*
X8943095Y-28355476D01*
X8933571Y-28345952D01*
X8943095Y-28336428D01*
X8943095Y-28355476D01*
X9076429Y-28155476D02*
X9095476Y-28155476D01*
X9114524Y-28165000D01*
X9124048Y-28174524D01*
X9133571Y-28193571D01*
X9143095Y-28231667D01*
X9143095Y-28279286D01*
X9133571Y-28317381D01*
X9124048Y-28336428D01*
X9114524Y-28345952D01*
X9095476Y-28355476D01*
X9076429Y-28355476D01*
X9057381Y-28345952D01*
X9047857Y-28336428D01*
X9038333Y-28317381D01*
X9028810Y-28279286D01*
X9028810Y-28231667D01*
X9038333Y-28193571D01*
X9047857Y-28174524D01*
X9057381Y-28165000D01*
X9076429Y-28155476D01*
X9266905Y-28155476D02*
X9285952Y-28155476D01*
X9305000Y-28165000D01*
X9314524Y-28174524D01*
X9324048Y-28193571D01*
X9333571Y-28231667D01*
X9333571Y-28279286D01*
X9324048Y-28317381D01*
X9314524Y-28336428D01*
X9305000Y-28345952D01*
X9285952Y-28355476D01*
X9266905Y-28355476D01*
X9247857Y-28345952D01*
X9238333Y-28336428D01*
X9228810Y-28317381D01*
X9219286Y-28279286D01*
X9219286Y-28231667D01*
X9228810Y-28193571D01*
X9238333Y-28174524D01*
X9247857Y-28165000D01*
X9266905Y-28155476D01*
X9457381Y-28155476D02*
X9476429Y-28155476D01*
X9495476Y-28165000D01*
X9505000Y-28174524D01*
X9514524Y-28193571D01*
X9524048Y-28231667D01*
X9524048Y-28279286D01*
X9514524Y-28317381D01*
X9505000Y-28336428D01*
X9495476Y-28345952D01*
X9476429Y-28355476D01*
X9457381Y-28355476D01*
X9438333Y-28345952D01*
X9428810Y-28336428D01*
X9419286Y-28317381D01*
X9409762Y-28279286D01*
X9409762Y-28231667D01*
X9419286Y-28193571D01*
X9428810Y-28174524D01*
X9438333Y-28165000D01*
X9457381Y-28155476D01*
X9609762Y-28355476D02*
X9609762Y-28222143D01*
X9609762Y-28241190D02*
X9619286Y-28231667D01*
X9638333Y-28222143D01*
X9666905Y-28222143D01*
X9685952Y-28231667D01*
X9695476Y-28250714D01*
X9695476Y-28355476D01*
X9695476Y-28250714D02*
X9705000Y-28231667D01*
X9724048Y-28222143D01*
X9752619Y-28222143D01*
X9771667Y-28231667D01*
X9781190Y-28250714D01*
X9781190Y-28355476D01*
X9876429Y-28355476D02*
X9876429Y-28222143D01*
X9876429Y-28241190D02*
X9885952Y-28231667D01*
X9905000Y-28222143D01*
X9933571Y-28222143D01*
X9952619Y-28231667D01*
X9962143Y-28250714D01*
X9962143Y-28355476D01*
X9962143Y-28250714D02*
X9971667Y-28231667D01*
X9990714Y-28222143D01*
X10019286Y-28222143D01*
X10038333Y-28231667D01*
X10047857Y-28250714D01*
X10047857Y-28355476D01*
X10438333Y-28145952D02*
X10266905Y-28403095D01*
X10695476Y-28155476D02*
X10714524Y-28155476D01*
X10733571Y-28165000D01*
X10743095Y-28174524D01*
X10752619Y-28193571D01*
X10762143Y-28231667D01*
X10762143Y-28279286D01*
X10752619Y-28317381D01*
X10743095Y-28336428D01*
X10733571Y-28345952D01*
X10714524Y-28355476D01*
X10695476Y-28355476D01*
X10676429Y-28345952D01*
X10666905Y-28336428D01*
X10657381Y-28317381D01*
X10647857Y-28279286D01*
X10647857Y-28231667D01*
X10657381Y-28193571D01*
X10666905Y-28174524D01*
X10676429Y-28165000D01*
X10695476Y-28155476D01*
X10847857Y-28336428D02*
X10857381Y-28345952D01*
X10847857Y-28355476D01*
X10838333Y-28345952D01*
X10847857Y-28336428D01*
X10847857Y-28355476D01*
X10981190Y-28155476D02*
X11000238Y-28155476D01*
X11019286Y-28165000D01*
X11028810Y-28174524D01*
X11038333Y-28193571D01*
X11047857Y-28231667D01*
X11047857Y-28279286D01*
X11038333Y-28317381D01*
X11028810Y-28336428D01*
X11019286Y-28345952D01*
X11000238Y-28355476D01*
X10981190Y-28355476D01*
X10962143Y-28345952D01*
X10952619Y-28336428D01*
X10943095Y-28317381D01*
X10933571Y-28279286D01*
X10933571Y-28231667D01*
X10943095Y-28193571D01*
X10952619Y-28174524D01*
X10962143Y-28165000D01*
X10981190Y-28155476D01*
X11114524Y-28155476D02*
X11238333Y-28155476D01*
X11171667Y-28231667D01*
X11200238Y-28231667D01*
X11219286Y-28241190D01*
X11228809Y-28250714D01*
X11238333Y-28269762D01*
X11238333Y-28317381D01*
X11228809Y-28336428D01*
X11219286Y-28345952D01*
X11200238Y-28355476D01*
X11143095Y-28355476D01*
X11124048Y-28345952D01*
X11114524Y-28336428D01*
X11333571Y-28355476D02*
X11371667Y-28355476D01*
X11390714Y-28345952D01*
X11400238Y-28336428D01*
X11419286Y-28307857D01*
X11428809Y-28269762D01*
X11428809Y-28193571D01*
X11419286Y-28174524D01*
X11409762Y-28165000D01*
X11390714Y-28155476D01*
X11352619Y-28155476D01*
X11333571Y-28165000D01*
X11324048Y-28174524D01*
X11314524Y-28193571D01*
X11314524Y-28241190D01*
X11324048Y-28260238D01*
X11333571Y-28269762D01*
X11352619Y-28279286D01*
X11390714Y-28279286D01*
X11409762Y-28269762D01*
X11419286Y-28260238D01*
X11428809Y-28241190D01*
X11600238Y-28222143D02*
X11600238Y-28355476D01*
X11552619Y-28145952D02*
X11505000Y-28288809D01*
X11628809Y-28288809D01*
X11695476Y-28155476D02*
X11695476Y-28193571D01*
X11771667Y-28155476D02*
X11771667Y-28193571D01*
X12066905Y-28431667D02*
X12057381Y-28422143D01*
X12038333Y-28393571D01*
X12028809Y-28374524D01*
X12019286Y-28345952D01*
X12009762Y-28298333D01*
X12009762Y-28260238D01*
X12019286Y-28212619D01*
X12028809Y-28184048D01*
X12038333Y-28165000D01*
X12057381Y-28136428D01*
X12066905Y-28126905D01*
X12228809Y-28222143D02*
X12228809Y-28355476D01*
X12181190Y-28145952D02*
X12133571Y-28288809D01*
X12257381Y-28288809D01*
X12485952Y-28355476D02*
X12485952Y-28155476D01*
X12571667Y-28355476D02*
X12571667Y-28250714D01*
X12562143Y-28231667D01*
X12543095Y-28222143D01*
X12514524Y-28222143D01*
X12495476Y-28231667D01*
X12485952Y-28241190D01*
X12695476Y-28355476D02*
X12676428Y-28345952D01*
X12666905Y-28336428D01*
X12657381Y-28317381D01*
X12657381Y-28260238D01*
X12666905Y-28241190D01*
X12676428Y-28231667D01*
X12695476Y-28222143D01*
X12724048Y-28222143D01*
X12743095Y-28231667D01*
X12752619Y-28241190D01*
X12762143Y-28260238D01*
X12762143Y-28317381D01*
X12752619Y-28336428D01*
X12743095Y-28345952D01*
X12724048Y-28355476D01*
X12695476Y-28355476D01*
X12876428Y-28355476D02*
X12857381Y-28345952D01*
X12847857Y-28326905D01*
X12847857Y-28155476D01*
X13028809Y-28345952D02*
X13009762Y-28355476D01*
X12971667Y-28355476D01*
X12952619Y-28345952D01*
X12943095Y-28326905D01*
X12943095Y-28250714D01*
X12952619Y-28231667D01*
X12971667Y-28222143D01*
X13009762Y-28222143D01*
X13028809Y-28231667D01*
X13038333Y-28250714D01*
X13038333Y-28269762D01*
X12943095Y-28288809D01*
X13114524Y-28345952D02*
X13133571Y-28355476D01*
X13171667Y-28355476D01*
X13190714Y-28345952D01*
X13200238Y-28326905D01*
X13200238Y-28317381D01*
X13190714Y-28298333D01*
X13171667Y-28288809D01*
X13143095Y-28288809D01*
X13124048Y-28279286D01*
X13114524Y-28260238D01*
X13114524Y-28250714D01*
X13124048Y-28231667D01*
X13143095Y-28222143D01*
X13171667Y-28222143D01*
X13190714Y-28231667D01*
X13266905Y-28431667D02*
X13276428Y-28422143D01*
X13295476Y-28393571D01*
X13305000Y-28374524D01*
X13314524Y-28345952D01*
X13324048Y-28298333D01*
X13324048Y-28260238D01*
X13314524Y-28212619D01*
X13305000Y-28184048D01*
X13295476Y-28165000D01*
X13276428Y-28136428D01*
X13266905Y-28126905D01*
D17*
X8393000Y-28478000D02*
X8495000Y-28580000D01*
X8495000Y-28478000D02*
X8393000Y-28580000D01*
X8444000Y-28478000D02*
X8444000Y-28580000D01*
X8393000Y-28529000D02*
X8495000Y-28529000D01*
D11*
X8857381Y-28619476D02*
X8743095Y-28619476D01*
X8800238Y-28619476D02*
X8800238Y-28419476D01*
X8781190Y-28448048D01*
X8762143Y-28467095D01*
X8743095Y-28476619D01*
X8943095Y-28600428D02*
X8952619Y-28609952D01*
X8943095Y-28619476D01*
X8933571Y-28609952D01*
X8943095Y-28600428D01*
X8943095Y-28619476D01*
X9076429Y-28419476D02*
X9095476Y-28419476D01*
X9114524Y-28429000D01*
X9124048Y-28438524D01*
X9133571Y-28457571D01*
X9143095Y-28495667D01*
X9143095Y-28543286D01*
X9133571Y-28581381D01*
X9124048Y-28600428D01*
X9114524Y-28609952D01*
X9095476Y-28619476D01*
X9076429Y-28619476D01*
X9057381Y-28609952D01*
X9047857Y-28600428D01*
X9038333Y-28581381D01*
X9028810Y-28543286D01*
X9028810Y-28495667D01*
X9038333Y-28457571D01*
X9047857Y-28438524D01*
X9057381Y-28429000D01*
X9076429Y-28419476D01*
X9219286Y-28438524D02*
X9228810Y-28429000D01*
X9247857Y-28419476D01*
X9295476Y-28419476D01*
X9314524Y-28429000D01*
X9324048Y-28438524D01*
X9333571Y-28457571D01*
X9333571Y-28476619D01*
X9324048Y-28505190D01*
X9209762Y-28619476D01*
X9333571Y-28619476D01*
X9457381Y-28419476D02*
X9476429Y-28419476D01*
X9495476Y-28429000D01*
X9505000Y-28438524D01*
X9514524Y-28457571D01*
X9524048Y-28495667D01*
X9524048Y-28543286D01*
X9514524Y-28581381D01*
X9505000Y-28600428D01*
X9495476Y-28609952D01*
X9476429Y-28619476D01*
X9457381Y-28619476D01*
X9438333Y-28609952D01*
X9428810Y-28600428D01*
X9419286Y-28581381D01*
X9409762Y-28543286D01*
X9409762Y-28495667D01*
X9419286Y-28457571D01*
X9428810Y-28438524D01*
X9438333Y-28429000D01*
X9457381Y-28419476D01*
X9609762Y-28619476D02*
X9609762Y-28486143D01*
X9609762Y-28505190D02*
X9619286Y-28495667D01*
X9638333Y-28486143D01*
X9666905Y-28486143D01*
X9685952Y-28495667D01*
X9695476Y-28514714D01*
X9695476Y-28619476D01*
X9695476Y-28514714D02*
X9705000Y-28495667D01*
X9724048Y-28486143D01*
X9752619Y-28486143D01*
X9771667Y-28495667D01*
X9781190Y-28514714D01*
X9781190Y-28619476D01*
X9876429Y-28619476D02*
X9876429Y-28486143D01*
X9876429Y-28505190D02*
X9885952Y-28495667D01*
X9905000Y-28486143D01*
X9933571Y-28486143D01*
X9952619Y-28495667D01*
X9962143Y-28514714D01*
X9962143Y-28619476D01*
X9962143Y-28514714D02*
X9971667Y-28495667D01*
X9990714Y-28486143D01*
X10019286Y-28486143D01*
X10038333Y-28495667D01*
X10047857Y-28514714D01*
X10047857Y-28619476D01*
X10438333Y-28409952D02*
X10266905Y-28667095D01*
X10695476Y-28419476D02*
X10714524Y-28419476D01*
X10733571Y-28429000D01*
X10743095Y-28438524D01*
X10752619Y-28457571D01*
X10762143Y-28495667D01*
X10762143Y-28543286D01*
X10752619Y-28581381D01*
X10743095Y-28600428D01*
X10733571Y-28609952D01*
X10714524Y-28619476D01*
X10695476Y-28619476D01*
X10676429Y-28609952D01*
X10666905Y-28600428D01*
X10657381Y-28581381D01*
X10647857Y-28543286D01*
X10647857Y-28495667D01*
X10657381Y-28457571D01*
X10666905Y-28438524D01*
X10676429Y-28429000D01*
X10695476Y-28419476D01*
X10847857Y-28600428D02*
X10857381Y-28609952D01*
X10847857Y-28619476D01*
X10838333Y-28609952D01*
X10847857Y-28600428D01*
X10847857Y-28619476D01*
X10981190Y-28419476D02*
X11000238Y-28419476D01*
X11019286Y-28429000D01*
X11028810Y-28438524D01*
X11038333Y-28457571D01*
X11047857Y-28495667D01*
X11047857Y-28543286D01*
X11038333Y-28581381D01*
X11028810Y-28600428D01*
X11019286Y-28609952D01*
X11000238Y-28619476D01*
X10981190Y-28619476D01*
X10962143Y-28609952D01*
X10952619Y-28600428D01*
X10943095Y-28581381D01*
X10933571Y-28543286D01*
X10933571Y-28495667D01*
X10943095Y-28457571D01*
X10952619Y-28438524D01*
X10962143Y-28429000D01*
X10981190Y-28419476D01*
X11219286Y-28486143D02*
X11219286Y-28619476D01*
X11171667Y-28409952D02*
X11124048Y-28552809D01*
X11247857Y-28552809D01*
X11362143Y-28419476D02*
X11381190Y-28419476D01*
X11400238Y-28429000D01*
X11409762Y-28438524D01*
X11419286Y-28457571D01*
X11428809Y-28495667D01*
X11428809Y-28543286D01*
X11419286Y-28581381D01*
X11409762Y-28600428D01*
X11400238Y-28609952D01*
X11381190Y-28619476D01*
X11362143Y-28619476D01*
X11343095Y-28609952D01*
X11333571Y-28600428D01*
X11324048Y-28581381D01*
X11314524Y-28543286D01*
X11314524Y-28495667D01*
X11324048Y-28457571D01*
X11333571Y-28438524D01*
X11343095Y-28429000D01*
X11362143Y-28419476D01*
X11505000Y-28438524D02*
X11514524Y-28429000D01*
X11533571Y-28419476D01*
X11581190Y-28419476D01*
X11600238Y-28429000D01*
X11609762Y-28438524D01*
X11619286Y-28457571D01*
X11619286Y-28476619D01*
X11609762Y-28505190D01*
X11495476Y-28619476D01*
X11619286Y-28619476D01*
X11695476Y-28419476D02*
X11695476Y-28457571D01*
X11771667Y-28419476D02*
X11771667Y-28457571D01*
X12066905Y-28695667D02*
X12057381Y-28686143D01*
X12038333Y-28657571D01*
X12028809Y-28638524D01*
X12019286Y-28609952D01*
X12009762Y-28562333D01*
X12009762Y-28524238D01*
X12019286Y-28476619D01*
X12028809Y-28448048D01*
X12038333Y-28429000D01*
X12057381Y-28400428D01*
X12066905Y-28390905D01*
X12171667Y-28505190D02*
X12152619Y-28495667D01*
X12143095Y-28486143D01*
X12133571Y-28467095D01*
X12133571Y-28457571D01*
X12143095Y-28438524D01*
X12152619Y-28429000D01*
X12171667Y-28419476D01*
X12209762Y-28419476D01*
X12228809Y-28429000D01*
X12238333Y-28438524D01*
X12247857Y-28457571D01*
X12247857Y-28467095D01*
X12238333Y-28486143D01*
X12228809Y-28495667D01*
X12209762Y-28505190D01*
X12171667Y-28505190D01*
X12152619Y-28514714D01*
X12143095Y-28524238D01*
X12133571Y-28543286D01*
X12133571Y-28581381D01*
X12143095Y-28600428D01*
X12152619Y-28609952D01*
X12171667Y-28619476D01*
X12209762Y-28619476D01*
X12228809Y-28609952D01*
X12238333Y-28600428D01*
X12247857Y-28581381D01*
X12247857Y-28543286D01*
X12238333Y-28524238D01*
X12228809Y-28514714D01*
X12209762Y-28505190D01*
X12419286Y-28419476D02*
X12381190Y-28419476D01*
X12362143Y-28429000D01*
X12352619Y-28438524D01*
X12333571Y-28467095D01*
X12324048Y-28505190D01*
X12324048Y-28581381D01*
X12333571Y-28600428D01*
X12343095Y-28609952D01*
X12362143Y-28619476D01*
X12400238Y-28619476D01*
X12419286Y-28609952D01*
X12428809Y-28600428D01*
X12438333Y-28581381D01*
X12438333Y-28533762D01*
X12428809Y-28514714D01*
X12419286Y-28505190D01*
X12400238Y-28495667D01*
X12362143Y-28495667D01*
X12343095Y-28505190D01*
X12333571Y-28514714D01*
X12324048Y-28533762D01*
X12676428Y-28619476D02*
X12676428Y-28419476D01*
X12762143Y-28619476D02*
X12762143Y-28514714D01*
X12752619Y-28495667D01*
X12733571Y-28486143D01*
X12705000Y-28486143D01*
X12685952Y-28495667D01*
X12676428Y-28505190D01*
X12885952Y-28619476D02*
X12866905Y-28609952D01*
X12857381Y-28600428D01*
X12847857Y-28581381D01*
X12847857Y-28524238D01*
X12857381Y-28505190D01*
X12866905Y-28495667D01*
X12885952Y-28486143D01*
X12914524Y-28486143D01*
X12933571Y-28495667D01*
X12943095Y-28505190D01*
X12952619Y-28524238D01*
X12952619Y-28581381D01*
X12943095Y-28600428D01*
X12933571Y-28609952D01*
X12914524Y-28619476D01*
X12885952Y-28619476D01*
X13066905Y-28619476D02*
X13047857Y-28609952D01*
X13038333Y-28590905D01*
X13038333Y-28419476D01*
X13219286Y-28609952D02*
X13200238Y-28619476D01*
X13162143Y-28619476D01*
X13143095Y-28609952D01*
X13133571Y-28590905D01*
X13133571Y-28514714D01*
X13143095Y-28495667D01*
X13162143Y-28486143D01*
X13200238Y-28486143D01*
X13219286Y-28495667D01*
X13228809Y-28514714D01*
X13228809Y-28533762D01*
X13133571Y-28552809D01*
X13305000Y-28609952D02*
X13324048Y-28619476D01*
X13362143Y-28619476D01*
X13381190Y-28609952D01*
X13390714Y-28590905D01*
X13390714Y-28581381D01*
X13381190Y-28562333D01*
X13362143Y-28552809D01*
X13333571Y-28552809D01*
X13314524Y-28543286D01*
X13305000Y-28524238D01*
X13305000Y-28514714D01*
X13314524Y-28495667D01*
X13333571Y-28486143D01*
X13362143Y-28486143D01*
X13381190Y-28495667D01*
X13457381Y-28695667D02*
X13466905Y-28686143D01*
X13485952Y-28657571D01*
X13495476Y-28638524D01*
X13505000Y-28609952D01*
X13514524Y-28562333D01*
X13514524Y-28524238D01*
X13505000Y-28476619D01*
X13495476Y-28448048D01*
X13485952Y-28429000D01*
X13466905Y-28400428D01*
X13457381Y-28390905D01*
D18*
X8385000Y-28738000D02*
X8495000Y-28848000D01*
X8495000Y-28738000D02*
X8385000Y-28848000D01*
X8478891Y-28831891D02*
X8478891Y-28754109D01*
X8401109Y-28754109D01*
X8401109Y-28831891D01*
X8478891Y-28831891D01*
D11*
X8857381Y-28883476D02*
X8743095Y-28883476D01*
X8800238Y-28883476D02*
X8800238Y-28683476D01*
X8781190Y-28712048D01*
X8762143Y-28731095D01*
X8743095Y-28740619D01*
X8943095Y-28864428D02*
X8952619Y-28873952D01*
X8943095Y-28883476D01*
X8933571Y-28873952D01*
X8943095Y-28864428D01*
X8943095Y-28883476D01*
X9143095Y-28883476D02*
X9028810Y-28883476D01*
X9085952Y-28883476D02*
X9085952Y-28683476D01*
X9066905Y-28712048D01*
X9047857Y-28731095D01*
X9028810Y-28740619D01*
X9266905Y-28683476D02*
X9285952Y-28683476D01*
X9305000Y-28693000D01*
X9314524Y-28702524D01*
X9324048Y-28721571D01*
X9333571Y-28759667D01*
X9333571Y-28807286D01*
X9324048Y-28845381D01*
X9314524Y-28864428D01*
X9305000Y-28873952D01*
X9285952Y-28883476D01*
X9266905Y-28883476D01*
X9247857Y-28873952D01*
X9238333Y-28864428D01*
X9228810Y-28845381D01*
X9219286Y-28807286D01*
X9219286Y-28759667D01*
X9228810Y-28721571D01*
X9238333Y-28702524D01*
X9247857Y-28693000D01*
X9266905Y-28683476D01*
X9457381Y-28683476D02*
X9476429Y-28683476D01*
X9495476Y-28693000D01*
X9505000Y-28702524D01*
X9514524Y-28721571D01*
X9524048Y-28759667D01*
X9524048Y-28807286D01*
X9514524Y-28845381D01*
X9505000Y-28864428D01*
X9495476Y-28873952D01*
X9476429Y-28883476D01*
X9457381Y-28883476D01*
X9438333Y-28873952D01*
X9428810Y-28864428D01*
X9419286Y-28845381D01*
X9409762Y-28807286D01*
X9409762Y-28759667D01*
X9419286Y-28721571D01*
X9428810Y-28702524D01*
X9438333Y-28693000D01*
X9457381Y-28683476D01*
X9609762Y-28883476D02*
X9609762Y-28750143D01*
X9609762Y-28769190D02*
X9619286Y-28759667D01*
X9638333Y-28750143D01*
X9666905Y-28750143D01*
X9685952Y-28759667D01*
X9695476Y-28778714D01*
X9695476Y-28883476D01*
X9695476Y-28778714D02*
X9705000Y-28759667D01*
X9724048Y-28750143D01*
X9752619Y-28750143D01*
X9771667Y-28759667D01*
X9781190Y-28778714D01*
X9781190Y-28883476D01*
X9876429Y-28883476D02*
X9876429Y-28750143D01*
X9876429Y-28769190D02*
X9885952Y-28759667D01*
X9905000Y-28750143D01*
X9933571Y-28750143D01*
X9952619Y-28759667D01*
X9962143Y-28778714D01*
X9962143Y-28883476D01*
X9962143Y-28778714D02*
X9971667Y-28759667D01*
X9990714Y-28750143D01*
X10019286Y-28750143D01*
X10038333Y-28759667D01*
X10047857Y-28778714D01*
X10047857Y-28883476D01*
X10438333Y-28673952D02*
X10266905Y-28931095D01*
X10695476Y-28683476D02*
X10714524Y-28683476D01*
X10733571Y-28693000D01*
X10743095Y-28702524D01*
X10752619Y-28721571D01*
X10762143Y-28759667D01*
X10762143Y-28807286D01*
X10752619Y-28845381D01*
X10743095Y-28864428D01*
X10733571Y-28873952D01*
X10714524Y-28883476D01*
X10695476Y-28883476D01*
X10676429Y-28873952D01*
X10666905Y-28864428D01*
X10657381Y-28845381D01*
X10647857Y-28807286D01*
X10647857Y-28759667D01*
X10657381Y-28721571D01*
X10666905Y-28702524D01*
X10676429Y-28693000D01*
X10695476Y-28683476D01*
X10847857Y-28864428D02*
X10857381Y-28873952D01*
X10847857Y-28883476D01*
X10838333Y-28873952D01*
X10847857Y-28864428D01*
X10847857Y-28883476D01*
X10981190Y-28683476D02*
X11000238Y-28683476D01*
X11019286Y-28693000D01*
X11028810Y-28702524D01*
X11038333Y-28721571D01*
X11047857Y-28759667D01*
X11047857Y-28807286D01*
X11038333Y-28845381D01*
X11028810Y-28864428D01*
X11019286Y-28873952D01*
X11000238Y-28883476D01*
X10981190Y-28883476D01*
X10962143Y-28873952D01*
X10952619Y-28864428D01*
X10943095Y-28845381D01*
X10933571Y-28807286D01*
X10933571Y-28759667D01*
X10943095Y-28721571D01*
X10952619Y-28702524D01*
X10962143Y-28693000D01*
X10981190Y-28683476D01*
X11219286Y-28750143D02*
X11219286Y-28883476D01*
X11171667Y-28673952D02*
X11124048Y-28816809D01*
X11247857Y-28816809D01*
X11305000Y-28683476D02*
X11428809Y-28683476D01*
X11362143Y-28759667D01*
X11390714Y-28759667D01*
X11409762Y-28769190D01*
X11419286Y-28778714D01*
X11428809Y-28797762D01*
X11428809Y-28845381D01*
X11419286Y-28864428D01*
X11409762Y-28873952D01*
X11390714Y-28883476D01*
X11333571Y-28883476D01*
X11314524Y-28873952D01*
X11305000Y-28864428D01*
X11495476Y-28683476D02*
X11619286Y-28683476D01*
X11552619Y-28759667D01*
X11581190Y-28759667D01*
X11600238Y-28769190D01*
X11609762Y-28778714D01*
X11619286Y-28797762D01*
X11619286Y-28845381D01*
X11609762Y-28864428D01*
X11600238Y-28873952D01*
X11581190Y-28883476D01*
X11524048Y-28883476D01*
X11505000Y-28873952D01*
X11495476Y-28864428D01*
X11695476Y-28683476D02*
X11695476Y-28721571D01*
X11771667Y-28683476D02*
X11771667Y-28721571D01*
X12066905Y-28959667D02*
X12057381Y-28950143D01*
X12038333Y-28921571D01*
X12028809Y-28902524D01*
X12019286Y-28873952D01*
X12009762Y-28826333D01*
X12009762Y-28788238D01*
X12019286Y-28740619D01*
X12028809Y-28712048D01*
X12038333Y-28693000D01*
X12057381Y-28664428D01*
X12066905Y-28654905D01*
X12171667Y-28769190D02*
X12152619Y-28759667D01*
X12143095Y-28750143D01*
X12133571Y-28731095D01*
X12133571Y-28721571D01*
X12143095Y-28702524D01*
X12152619Y-28693000D01*
X12171667Y-28683476D01*
X12209762Y-28683476D01*
X12228809Y-28693000D01*
X12238333Y-28702524D01*
X12247857Y-28721571D01*
X12247857Y-28731095D01*
X12238333Y-28750143D01*
X12228809Y-28759667D01*
X12209762Y-28769190D01*
X12171667Y-28769190D01*
X12152619Y-28778714D01*
X12143095Y-28788238D01*
X12133571Y-28807286D01*
X12133571Y-28845381D01*
X12143095Y-28864428D01*
X12152619Y-28873952D01*
X12171667Y-28883476D01*
X12209762Y-28883476D01*
X12228809Y-28873952D01*
X12238333Y-28864428D01*
X12247857Y-28845381D01*
X12247857Y-28807286D01*
X12238333Y-28788238D01*
X12228809Y-28778714D01*
X12209762Y-28769190D01*
X12485952Y-28883476D02*
X12485952Y-28683476D01*
X12571667Y-28883476D02*
X12571667Y-28778714D01*
X12562143Y-28759667D01*
X12543095Y-28750143D01*
X12514524Y-28750143D01*
X12495476Y-28759667D01*
X12485952Y-28769190D01*
X12695476Y-28883476D02*
X12676428Y-28873952D01*
X12666905Y-28864428D01*
X12657381Y-28845381D01*
X12657381Y-28788238D01*
X12666905Y-28769190D01*
X12676428Y-28759667D01*
X12695476Y-28750143D01*
X12724048Y-28750143D01*
X12743095Y-28759667D01*
X12752619Y-28769190D01*
X12762143Y-28788238D01*
X12762143Y-28845381D01*
X12752619Y-28864428D01*
X12743095Y-28873952D01*
X12724048Y-28883476D01*
X12695476Y-28883476D01*
X12876428Y-28883476D02*
X12857381Y-28873952D01*
X12847857Y-28854905D01*
X12847857Y-28683476D01*
X13028809Y-28873952D02*
X13009762Y-28883476D01*
X12971667Y-28883476D01*
X12952619Y-28873952D01*
X12943095Y-28854905D01*
X12943095Y-28778714D01*
X12952619Y-28759667D01*
X12971667Y-28750143D01*
X13009762Y-28750143D01*
X13028809Y-28759667D01*
X13038333Y-28778714D01*
X13038333Y-28797762D01*
X12943095Y-28816809D01*
X13114524Y-28873952D02*
X13133571Y-28883476D01*
X13171667Y-28883476D01*
X13190714Y-28873952D01*
X13200238Y-28854905D01*
X13200238Y-28845381D01*
X13190714Y-28826333D01*
X13171667Y-28816809D01*
X13143095Y-28816809D01*
X13124048Y-28807286D01*
X13114524Y-28788238D01*
X13114524Y-28778714D01*
X13124048Y-28759667D01*
X13143095Y-28750143D01*
X13171667Y-28750143D01*
X13190714Y-28759667D01*
X13266905Y-28959667D02*
X13276428Y-28950143D01*
X13295476Y-28921571D01*
X13305000Y-28902524D01*
X13314524Y-28873952D01*
X13324048Y-28826333D01*
X13324048Y-28788238D01*
X13314524Y-28740619D01*
X13305000Y-28712048D01*
X13295476Y-28693000D01*
X13276428Y-28664428D01*
X13266905Y-28654905D01*
D19*
X8345000Y-28982000D02*
X8495000Y-29132000D01*
X8495000Y-28982000D02*
X8345000Y-29132000D01*
X8420000Y-29132000D02*
X8495000Y-29057000D01*
X8420000Y-28982000D01*
X8345000Y-29057000D01*
X8420000Y-29132000D01*
D11*
X8857381Y-29147476D02*
X8743095Y-29147476D01*
X8800238Y-29147476D02*
X8800238Y-28947476D01*
X8781190Y-28976048D01*
X8762143Y-28995095D01*
X8743095Y-29004619D01*
X8943095Y-29128428D02*
X8952619Y-29137952D01*
X8943095Y-29147476D01*
X8933571Y-29137952D01*
X8943095Y-29128428D01*
X8943095Y-29147476D01*
X9133571Y-28947476D02*
X9038333Y-28947476D01*
X9028810Y-29042714D01*
X9038333Y-29033190D01*
X9057381Y-29023667D01*
X9105000Y-29023667D01*
X9124048Y-29033190D01*
X9133571Y-29042714D01*
X9143095Y-29061762D01*
X9143095Y-29109381D01*
X9133571Y-29128428D01*
X9124048Y-29137952D01*
X9105000Y-29147476D01*
X9057381Y-29147476D01*
X9038333Y-29137952D01*
X9028810Y-29128428D01*
X9266905Y-28947476D02*
X9285952Y-28947476D01*
X9305000Y-28957000D01*
X9314524Y-28966524D01*
X9324048Y-28985571D01*
X9333571Y-29023667D01*
X9333571Y-29071286D01*
X9324048Y-29109381D01*
X9314524Y-29128428D01*
X9305000Y-29137952D01*
X9285952Y-29147476D01*
X9266905Y-29147476D01*
X9247857Y-29137952D01*
X9238333Y-29128428D01*
X9228810Y-29109381D01*
X9219286Y-29071286D01*
X9219286Y-29023667D01*
X9228810Y-28985571D01*
X9238333Y-28966524D01*
X9247857Y-28957000D01*
X9266905Y-28947476D01*
X9457381Y-28947476D02*
X9476429Y-28947476D01*
X9495476Y-28957000D01*
X9505000Y-28966524D01*
X9514524Y-28985571D01*
X9524048Y-29023667D01*
X9524048Y-29071286D01*
X9514524Y-29109381D01*
X9505000Y-29128428D01*
X9495476Y-29137952D01*
X9476429Y-29147476D01*
X9457381Y-29147476D01*
X9438333Y-29137952D01*
X9428810Y-29128428D01*
X9419286Y-29109381D01*
X9409762Y-29071286D01*
X9409762Y-29023667D01*
X9419286Y-28985571D01*
X9428810Y-28966524D01*
X9438333Y-28957000D01*
X9457381Y-28947476D01*
X9609762Y-29147476D02*
X9609762Y-29014143D01*
X9609762Y-29033190D02*
X9619286Y-29023667D01*
X9638333Y-29014143D01*
X9666905Y-29014143D01*
X9685952Y-29023667D01*
X9695476Y-29042714D01*
X9695476Y-29147476D01*
X9695476Y-29042714D02*
X9705000Y-29023667D01*
X9724048Y-29014143D01*
X9752619Y-29014143D01*
X9771667Y-29023667D01*
X9781190Y-29042714D01*
X9781190Y-29147476D01*
X9876429Y-29147476D02*
X9876429Y-29014143D01*
X9876429Y-29033190D02*
X9885952Y-29023667D01*
X9905000Y-29014143D01*
X9933571Y-29014143D01*
X9952619Y-29023667D01*
X9962143Y-29042714D01*
X9962143Y-29147476D01*
X9962143Y-29042714D02*
X9971667Y-29023667D01*
X9990714Y-29014143D01*
X10019286Y-29014143D01*
X10038333Y-29023667D01*
X10047857Y-29042714D01*
X10047857Y-29147476D01*
X10438333Y-28937952D02*
X10266905Y-29195095D01*
X10695476Y-28947476D02*
X10714524Y-28947476D01*
X10733571Y-28957000D01*
X10743095Y-28966524D01*
X10752619Y-28985571D01*
X10762143Y-29023667D01*
X10762143Y-29071286D01*
X10752619Y-29109381D01*
X10743095Y-29128428D01*
X10733571Y-29137952D01*
X10714524Y-29147476D01*
X10695476Y-29147476D01*
X10676429Y-29137952D01*
X10666905Y-29128428D01*
X10657381Y-29109381D01*
X10647857Y-29071286D01*
X10647857Y-29023667D01*
X10657381Y-28985571D01*
X10666905Y-28966524D01*
X10676429Y-28957000D01*
X10695476Y-28947476D01*
X10847857Y-29128428D02*
X10857381Y-29137952D01*
X10847857Y-29147476D01*
X10838333Y-29137952D01*
X10847857Y-29128428D01*
X10847857Y-29147476D01*
X10981190Y-28947476D02*
X11000238Y-28947476D01*
X11019286Y-28957000D01*
X11028810Y-28966524D01*
X11038333Y-28985571D01*
X11047857Y-29023667D01*
X11047857Y-29071286D01*
X11038333Y-29109381D01*
X11028810Y-29128428D01*
X11019286Y-29137952D01*
X11000238Y-29147476D01*
X10981190Y-29147476D01*
X10962143Y-29137952D01*
X10952619Y-29128428D01*
X10943095Y-29109381D01*
X10933571Y-29071286D01*
X10933571Y-29023667D01*
X10943095Y-28985571D01*
X10952619Y-28966524D01*
X10962143Y-28957000D01*
X10981190Y-28947476D01*
X11228809Y-28947476D02*
X11133571Y-28947476D01*
X11124048Y-29042714D01*
X11133571Y-29033190D01*
X11152619Y-29023667D01*
X11200238Y-29023667D01*
X11219286Y-29033190D01*
X11228809Y-29042714D01*
X11238333Y-29061762D01*
X11238333Y-29109381D01*
X11228809Y-29128428D01*
X11219286Y-29137952D01*
X11200238Y-29147476D01*
X11152619Y-29147476D01*
X11133571Y-29137952D01*
X11124048Y-29128428D01*
X11333571Y-29147476D02*
X11371667Y-29147476D01*
X11390714Y-29137952D01*
X11400238Y-29128428D01*
X11419286Y-29099857D01*
X11428809Y-29061762D01*
X11428809Y-28985571D01*
X11419286Y-28966524D01*
X11409762Y-28957000D01*
X11390714Y-28947476D01*
X11352619Y-28947476D01*
X11333571Y-28957000D01*
X11324048Y-28966524D01*
X11314524Y-28985571D01*
X11314524Y-29033190D01*
X11324048Y-29052238D01*
X11333571Y-29061762D01*
X11352619Y-29071286D01*
X11390714Y-29071286D01*
X11409762Y-29061762D01*
X11419286Y-29052238D01*
X11428809Y-29033190D01*
X11619286Y-29147476D02*
X11505000Y-29147476D01*
X11562143Y-29147476D02*
X11562143Y-28947476D01*
X11543095Y-28976048D01*
X11524048Y-28995095D01*
X11505000Y-29004619D01*
X11695476Y-28947476D02*
X11695476Y-28985571D01*
X11771667Y-28947476D02*
X11771667Y-28985571D01*
X12066905Y-29223667D02*
X12057381Y-29214143D01*
X12038333Y-29185571D01*
X12028809Y-29166524D01*
X12019286Y-29137952D01*
X12009762Y-29090333D01*
X12009762Y-29052238D01*
X12019286Y-29004619D01*
X12028809Y-28976048D01*
X12038333Y-28957000D01*
X12057381Y-28928428D01*
X12066905Y-28918905D01*
X12247857Y-29147476D02*
X12133571Y-29147476D01*
X12190714Y-29147476D02*
X12190714Y-28947476D01*
X12171667Y-28976048D01*
X12152619Y-28995095D01*
X12133571Y-29004619D01*
X12362143Y-29033190D02*
X12343095Y-29023667D01*
X12333571Y-29014143D01*
X12324048Y-28995095D01*
X12324048Y-28985571D01*
X12333571Y-28966524D01*
X12343095Y-28957000D01*
X12362143Y-28947476D01*
X12400238Y-28947476D01*
X12419286Y-28957000D01*
X12428809Y-28966524D01*
X12438333Y-28985571D01*
X12438333Y-28995095D01*
X12428809Y-29014143D01*
X12419286Y-29023667D01*
X12400238Y-29033190D01*
X12362143Y-29033190D01*
X12343095Y-29042714D01*
X12333571Y-29052238D01*
X12324048Y-29071286D01*
X12324048Y-29109381D01*
X12333571Y-29128428D01*
X12343095Y-29137952D01*
X12362143Y-29147476D01*
X12400238Y-29147476D01*
X12419286Y-29137952D01*
X12428809Y-29128428D01*
X12438333Y-29109381D01*
X12438333Y-29071286D01*
X12428809Y-29052238D01*
X12419286Y-29042714D01*
X12400238Y-29033190D01*
X12552619Y-29033190D02*
X12533571Y-29023667D01*
X12524048Y-29014143D01*
X12514524Y-28995095D01*
X12514524Y-28985571D01*
X12524048Y-28966524D01*
X12533571Y-28957000D01*
X12552619Y-28947476D01*
X12590714Y-28947476D01*
X12609762Y-28957000D01*
X12619286Y-28966524D01*
X12628809Y-28985571D01*
X12628809Y-28995095D01*
X12619286Y-29014143D01*
X12609762Y-29023667D01*
X12590714Y-29033190D01*
X12552619Y-29033190D01*
X12533571Y-29042714D01*
X12524048Y-29052238D01*
X12514524Y-29071286D01*
X12514524Y-29109381D01*
X12524048Y-29128428D01*
X12533571Y-29137952D01*
X12552619Y-29147476D01*
X12590714Y-29147476D01*
X12609762Y-29137952D01*
X12619286Y-29128428D01*
X12628809Y-29109381D01*
X12628809Y-29071286D01*
X12619286Y-29052238D01*
X12609762Y-29042714D01*
X12590714Y-29033190D01*
X12866905Y-29147476D02*
X12866905Y-28947476D01*
X12952619Y-29147476D02*
X12952619Y-29042714D01*
X12943095Y-29023667D01*
X12924048Y-29014143D01*
X12895476Y-29014143D01*
X12876428Y-29023667D01*
X12866905Y-29033190D01*
X13076428Y-29147476D02*
X13057381Y-29137952D01*
X13047857Y-29128428D01*
X13038333Y-29109381D01*
X13038333Y-29052238D01*
X13047857Y-29033190D01*
X13057381Y-29023667D01*
X13076428Y-29014143D01*
X13105000Y-29014143D01*
X13124048Y-29023667D01*
X13133571Y-29033190D01*
X13143095Y-29052238D01*
X13143095Y-29109381D01*
X13133571Y-29128428D01*
X13124048Y-29137952D01*
X13105000Y-29147476D01*
X13076428Y-29147476D01*
X13257381Y-29147476D02*
X13238333Y-29137952D01*
X13228809Y-29118905D01*
X13228809Y-28947476D01*
X13409762Y-29137952D02*
X13390714Y-29147476D01*
X13352619Y-29147476D01*
X13333571Y-29137952D01*
X13324048Y-29118905D01*
X13324048Y-29042714D01*
X13333571Y-29023667D01*
X13352619Y-29014143D01*
X13390714Y-29014143D01*
X13409762Y-29023667D01*
X13419286Y-29042714D01*
X13419286Y-29061762D01*
X13324048Y-29080809D01*
X13495476Y-29137952D02*
X13514524Y-29147476D01*
X13552619Y-29147476D01*
X13571667Y-29137952D01*
X13581190Y-29118905D01*
X13581190Y-29109381D01*
X13571667Y-29090333D01*
X13552619Y-29080809D01*
X13524048Y-29080809D01*
X13505000Y-29071286D01*
X13495476Y-29052238D01*
X13495476Y-29042714D01*
X13505000Y-29023667D01*
X13524048Y-29014143D01*
X13552619Y-29014143D01*
X13571667Y-29023667D01*
X13647857Y-29223667D02*
X13657381Y-29214143D01*
X13676428Y-29185571D01*
X13685952Y-29166524D01*
X13695476Y-29137952D01*
X13705000Y-29090333D01*
X13705000Y-29052238D01*
X13695476Y-29004619D01*
X13685952Y-28976048D01*
X13676428Y-28957000D01*
X13657381Y-28928428D01*
X13647857Y-28918905D01*
X8395000Y-29227000D02*
X8395000Y-29427000D01*
X8295000Y-29327000D02*
X8495000Y-29327000D01*
X8495000Y-29327000D02*
G75*
G03*
X8495000Y-29327000I-100000J0D01*
G01*
X8838333Y-29284143D02*
X8838333Y-29417476D01*
X8790714Y-29207952D02*
X8743095Y-29350809D01*
X8866905Y-29350809D01*
X8943095Y-29398428D02*
X8952619Y-29407952D01*
X8943095Y-29417476D01*
X8933571Y-29407952D01*
X8943095Y-29398428D01*
X8943095Y-29417476D01*
X9019286Y-29217476D02*
X9143095Y-29217476D01*
X9076429Y-29293667D01*
X9105000Y-29293667D01*
X9124048Y-29303190D01*
X9133571Y-29312714D01*
X9143095Y-29331762D01*
X9143095Y-29379381D01*
X9133571Y-29398428D01*
X9124048Y-29407952D01*
X9105000Y-29417476D01*
X9047857Y-29417476D01*
X9028810Y-29407952D01*
X9019286Y-29398428D01*
X9266905Y-29217476D02*
X9285952Y-29217476D01*
X9305000Y-29227000D01*
X9314524Y-29236524D01*
X9324048Y-29255571D01*
X9333571Y-29293667D01*
X9333571Y-29341286D01*
X9324048Y-29379381D01*
X9314524Y-29398428D01*
X9305000Y-29407952D01*
X9285952Y-29417476D01*
X9266905Y-29417476D01*
X9247857Y-29407952D01*
X9238333Y-29398428D01*
X9228810Y-29379381D01*
X9219286Y-29341286D01*
X9219286Y-29293667D01*
X9228810Y-29255571D01*
X9238333Y-29236524D01*
X9247857Y-29227000D01*
X9266905Y-29217476D01*
X9457381Y-29217476D02*
X9476429Y-29217476D01*
X9495476Y-29227000D01*
X9505000Y-29236524D01*
X9514524Y-29255571D01*
X9524048Y-29293667D01*
X9524048Y-29341286D01*
X9514524Y-29379381D01*
X9505000Y-29398428D01*
X9495476Y-29407952D01*
X9476429Y-29417476D01*
X9457381Y-29417476D01*
X9438333Y-29407952D01*
X9428810Y-29398428D01*
X9419286Y-29379381D01*
X9409762Y-29341286D01*
X9409762Y-29293667D01*
X9419286Y-29255571D01*
X9428810Y-29236524D01*
X9438333Y-29227000D01*
X9457381Y-29217476D01*
X9609762Y-29417476D02*
X9609762Y-29284143D01*
X9609762Y-29303190D02*
X9619286Y-29293667D01*
X9638333Y-29284143D01*
X9666905Y-29284143D01*
X9685952Y-29293667D01*
X9695476Y-29312714D01*
X9695476Y-29417476D01*
X9695476Y-29312714D02*
X9705000Y-29293667D01*
X9724048Y-29284143D01*
X9752619Y-29284143D01*
X9771667Y-29293667D01*
X9781190Y-29312714D01*
X9781190Y-29417476D01*
X9876429Y-29417476D02*
X9876429Y-29284143D01*
X9876429Y-29303190D02*
X9885952Y-29293667D01*
X9905000Y-29284143D01*
X9933571Y-29284143D01*
X9952619Y-29293667D01*
X9962143Y-29312714D01*
X9962143Y-29417476D01*
X9962143Y-29312714D02*
X9971667Y-29293667D01*
X9990714Y-29284143D01*
X10019286Y-29284143D01*
X10038333Y-29293667D01*
X10047857Y-29312714D01*
X10047857Y-29417476D01*
X10438333Y-29207952D02*
X10266905Y-29465095D01*
X10695476Y-29217476D02*
X10714524Y-29217476D01*
X10733571Y-29227000D01*
X10743095Y-29236524D01*
X10752619Y-29255571D01*
X10762143Y-29293667D01*
X10762143Y-29341286D01*
X10752619Y-29379381D01*
X10743095Y-29398428D01*
X10733571Y-29407952D01*
X10714524Y-29417476D01*
X10695476Y-29417476D01*
X10676429Y-29407952D01*
X10666905Y-29398428D01*
X10657381Y-29379381D01*
X10647857Y-29341286D01*
X10647857Y-29293667D01*
X10657381Y-29255571D01*
X10666905Y-29236524D01*
X10676429Y-29227000D01*
X10695476Y-29217476D01*
X10847857Y-29398428D02*
X10857381Y-29407952D01*
X10847857Y-29417476D01*
X10838333Y-29407952D01*
X10847857Y-29398428D01*
X10847857Y-29417476D01*
X11047857Y-29417476D02*
X10933571Y-29417476D01*
X10990714Y-29417476D02*
X10990714Y-29217476D01*
X10971667Y-29246048D01*
X10952619Y-29265095D01*
X10933571Y-29274619D01*
X11219286Y-29217476D02*
X11181190Y-29217476D01*
X11162143Y-29227000D01*
X11152619Y-29236524D01*
X11133571Y-29265095D01*
X11124048Y-29303190D01*
X11124048Y-29379381D01*
X11133571Y-29398428D01*
X11143095Y-29407952D01*
X11162143Y-29417476D01*
X11200238Y-29417476D01*
X11219286Y-29407952D01*
X11228809Y-29398428D01*
X11238333Y-29379381D01*
X11238333Y-29331762D01*
X11228809Y-29312714D01*
X11219286Y-29303190D01*
X11200238Y-29293667D01*
X11162143Y-29293667D01*
X11143095Y-29303190D01*
X11133571Y-29312714D01*
X11124048Y-29331762D01*
X11333571Y-29417476D02*
X11371667Y-29417476D01*
X11390714Y-29407952D01*
X11400238Y-29398428D01*
X11419286Y-29369857D01*
X11428809Y-29331762D01*
X11428809Y-29255571D01*
X11419286Y-29236524D01*
X11409762Y-29227000D01*
X11390714Y-29217476D01*
X11352619Y-29217476D01*
X11333571Y-29227000D01*
X11324048Y-29236524D01*
X11314524Y-29255571D01*
X11314524Y-29303190D01*
X11324048Y-29322238D01*
X11333571Y-29331762D01*
X11352619Y-29341286D01*
X11390714Y-29341286D01*
X11409762Y-29331762D01*
X11419286Y-29322238D01*
X11428809Y-29303190D01*
X11495476Y-29217476D02*
X11619286Y-29217476D01*
X11552619Y-29293667D01*
X11581190Y-29293667D01*
X11600238Y-29303190D01*
X11609762Y-29312714D01*
X11619286Y-29331762D01*
X11619286Y-29379381D01*
X11609762Y-29398428D01*
X11600238Y-29407952D01*
X11581190Y-29417476D01*
X11524048Y-29417476D01*
X11505000Y-29407952D01*
X11495476Y-29398428D01*
X11695476Y-29217476D02*
X11695476Y-29255571D01*
X11771667Y-29217476D02*
X11771667Y-29255571D01*
X12066905Y-29493667D02*
X12057381Y-29484143D01*
X12038333Y-29455571D01*
X12028809Y-29436524D01*
X12019286Y-29407952D01*
X12009762Y-29360333D01*
X12009762Y-29322238D01*
X12019286Y-29274619D01*
X12028809Y-29246048D01*
X12038333Y-29227000D01*
X12057381Y-29198428D01*
X12066905Y-29188905D01*
X12247857Y-29417476D02*
X12133571Y-29417476D01*
X12190714Y-29417476D02*
X12190714Y-29217476D01*
X12171667Y-29246048D01*
X12152619Y-29265095D01*
X12133571Y-29274619D01*
X12419286Y-29217476D02*
X12381190Y-29217476D01*
X12362143Y-29227000D01*
X12352619Y-29236524D01*
X12333571Y-29265095D01*
X12324048Y-29303190D01*
X12324048Y-29379381D01*
X12333571Y-29398428D01*
X12343095Y-29407952D01*
X12362143Y-29417476D01*
X12400238Y-29417476D01*
X12419286Y-29407952D01*
X12428809Y-29398428D01*
X12438333Y-29379381D01*
X12438333Y-29331762D01*
X12428809Y-29312714D01*
X12419286Y-29303190D01*
X12400238Y-29293667D01*
X12362143Y-29293667D01*
X12343095Y-29303190D01*
X12333571Y-29312714D01*
X12324048Y-29331762D01*
X12676428Y-29417476D02*
X12676428Y-29217476D01*
X12762143Y-29417476D02*
X12762143Y-29312714D01*
X12752619Y-29293667D01*
X12733571Y-29284143D01*
X12705000Y-29284143D01*
X12685952Y-29293667D01*
X12676428Y-29303190D01*
X12885952Y-29417476D02*
X12866905Y-29407952D01*
X12857381Y-29398428D01*
X12847857Y-29379381D01*
X12847857Y-29322238D01*
X12857381Y-29303190D01*
X12866905Y-29293667D01*
X12885952Y-29284143D01*
X12914524Y-29284143D01*
X12933571Y-29293667D01*
X12943095Y-29303190D01*
X12952619Y-29322238D01*
X12952619Y-29379381D01*
X12943095Y-29398428D01*
X12933571Y-29407952D01*
X12914524Y-29417476D01*
X12885952Y-29417476D01*
X13066905Y-29417476D02*
X13047857Y-29407952D01*
X13038333Y-29388905D01*
X13038333Y-29217476D01*
X13219286Y-29407952D02*
X13200238Y-29417476D01*
X13162143Y-29417476D01*
X13143095Y-29407952D01*
X13133571Y-29388905D01*
X13133571Y-29312714D01*
X13143095Y-29293667D01*
X13162143Y-29284143D01*
X13200238Y-29284143D01*
X13219286Y-29293667D01*
X13228809Y-29312714D01*
X13228809Y-29331762D01*
X13133571Y-29350809D01*
X13305000Y-29407952D02*
X13324048Y-29417476D01*
X13362143Y-29417476D01*
X13381190Y-29407952D01*
X13390714Y-29388905D01*
X13390714Y-29379381D01*
X13381190Y-29360333D01*
X13362143Y-29350809D01*
X13333571Y-29350809D01*
X13314524Y-29341286D01*
X13305000Y-29322238D01*
X13305000Y-29312714D01*
X13314524Y-29293667D01*
X13333571Y-29284143D01*
X13362143Y-29284143D01*
X13381190Y-29293667D01*
X13457381Y-29493667D02*
X13466905Y-29484143D01*
X13485952Y-29455571D01*
X13495476Y-29436524D01*
X13505000Y-29407952D01*
X13514524Y-29360333D01*
X13514524Y-29322238D01*
X13505000Y-29274619D01*
X13495476Y-29246048D01*
X13485952Y-29227000D01*
X13466905Y-29198428D01*
X13457381Y-29188905D01*
M02*
