%TF.GenerationSoftware,KiCad,Pcbnew,6.0.9-8da3e8f707~117~ubuntu20.04.1*%
%TF.CreationDate,2022-12-09T06:03:13+01:00*%
%TF.ProjectId,Europe-ergo,4575726f-7065-42d6-9572-676f2e6b6963,rev?*%
%TF.SameCoordinates,Original*%
%TF.FileFunction,Drillmap*%
%TF.FilePolarity,Positive*%
%FSLAX45Y45*%
G04 Gerber Fmt 4.5, Leading zero omitted, Abs format (unit mm)*
G04 Created by KiCad (PCBNEW 6.0.9-8da3e8f707~117~ubuntu20.04.1) date 2022-12-09 06:03:13*
%MOMM*%
%LPD*%
G01*
G04 APERTURE LIST*
%ADD10C,0.100000*%
%ADD11C,0.200000*%
%ADD12C,0.040000*%
%ADD13C,0.070000*%
%ADD14C,0.075000*%
%ADD15C,0.080000*%
%ADD16C,0.090000*%
%ADD17C,0.102000*%
%ADD18C,0.150000*%
%ADD19C,0.430000*%
G04 APERTURE END LIST*
D10*
X31254000Y-8400000D02*
X31250000Y-3125000D01*
X30850000Y-3125000D02*
X30854000Y-8400000D01*
X30850000Y-3125000D02*
X31250000Y-3125000D01*
X30850000Y-2700000D02*
X31250000Y-2700000D01*
X31300000Y-25475000D02*
X31254000Y-9700000D01*
X30854000Y-9700000D02*
X30900000Y-25475000D01*
X30900000Y-25475000D02*
X31300000Y-25475000D01*
X30900000Y-26300000D02*
X31300000Y-26300000D01*
X8500000Y-2700000D02*
X30850000Y-2700000D01*
X53200000Y-26300000D02*
X53200000Y-2700000D01*
X8500000Y-26300000D02*
X8500000Y-2700000D01*
X53200000Y-2700000D02*
X31250000Y-2700000D01*
X31300000Y-26300000D02*
X53200000Y-26300000D01*
X30900000Y-26300000D02*
X8500000Y-26300000D01*
D11*
D12*
X26130000Y-4780000D02*
X26170000Y-4820000D01*
X26170000Y-4780000D02*
X26130000Y-4820000D01*
X26529330Y-7739190D02*
X26569330Y-7779190D01*
X26569330Y-7739190D02*
X26529330Y-7779190D01*
X26605000Y-6880000D02*
X26645000Y-6920000D01*
X26645000Y-6880000D02*
X26605000Y-6920000D01*
X27105000Y-19080000D02*
X27145000Y-19120000D01*
X27145000Y-19080000D02*
X27105000Y-19120000D01*
X27394120Y-7256950D02*
X27434120Y-7296950D01*
X27434120Y-7256950D02*
X27394120Y-7296950D01*
X27485330Y-10690980D02*
X27525330Y-10730980D01*
X27525330Y-10690980D02*
X27485330Y-10730980D01*
X27655000Y-8855000D02*
X27695000Y-8895000D01*
X27695000Y-8855000D02*
X27655000Y-8895000D01*
X27930000Y-9455000D02*
X27970000Y-9495000D01*
X27970000Y-9455000D02*
X27930000Y-9495000D01*
X28055000Y-15530000D02*
X28095000Y-15570000D01*
X28095000Y-15530000D02*
X28055000Y-15570000D01*
X28230000Y-12230000D02*
X28270000Y-12270000D01*
X28270000Y-12230000D02*
X28230000Y-12270000D01*
X28280000Y-6880000D02*
X28320000Y-6920000D01*
X28320000Y-6880000D02*
X28280000Y-6920000D01*
X28730000Y-10055000D02*
X28770000Y-10095000D01*
X28770000Y-10055000D02*
X28730000Y-10095000D01*
X28738900Y-7257330D02*
X28778900Y-7297330D01*
X28778900Y-7257330D02*
X28738900Y-7297330D01*
X28780000Y-8105000D02*
X28820000Y-8145000D01*
X28820000Y-8105000D02*
X28780000Y-8145000D01*
X28780000Y-10880000D02*
X28820000Y-10920000D01*
X28820000Y-10880000D02*
X28780000Y-10920000D01*
X28930000Y-8980000D02*
X28970000Y-9020000D01*
X28970000Y-8980000D02*
X28930000Y-9020000D01*
X29432320Y-9597520D02*
X29472320Y-9637520D01*
X29472320Y-9597520D02*
X29432320Y-9637520D01*
X30180000Y-7255000D02*
X30220000Y-7295000D01*
X30220000Y-7255000D02*
X30180000Y-7295000D01*
X34905000Y-5280000D02*
X34945000Y-5320000D01*
X34945000Y-5280000D02*
X34905000Y-5320000D01*
X36755000Y-10705000D02*
X36795000Y-10745000D01*
X36795000Y-10705000D02*
X36755000Y-10745000D01*
X36812560Y-7243030D02*
X36852560Y-7283030D01*
X36852560Y-7243030D02*
X36812560Y-7283030D01*
X37029500Y-7590670D02*
X37069500Y-7630670D01*
X37069500Y-7590670D02*
X37029500Y-7630670D01*
X37751680Y-4190620D02*
X37791680Y-4230620D01*
X37791680Y-4190620D02*
X37751680Y-4230620D01*
X37840180Y-10033940D02*
X37880180Y-10073940D01*
X37880180Y-10033940D02*
X37840180Y-10073940D01*
X38869860Y-6462590D02*
X38909860Y-6502590D01*
X38909860Y-6462590D02*
X38869860Y-6502590D01*
X40655000Y-15405000D02*
X40695000Y-15445000D01*
X40695000Y-15405000D02*
X40655000Y-15445000D01*
X40830000Y-13980000D02*
X40870000Y-14020000D01*
X40870000Y-13980000D02*
X40830000Y-14020000D01*
X41455000Y-12880000D02*
X41495000Y-12920000D01*
X41495000Y-12880000D02*
X41455000Y-12920000D01*
X41810720Y-4949480D02*
X41850720Y-4989480D01*
X41850720Y-4949480D02*
X41810720Y-4989480D01*
X41967510Y-16568000D02*
X42007510Y-16608000D01*
X42007510Y-16568000D02*
X41967510Y-16608000D01*
X47705000Y-9430000D02*
X47745000Y-9470000D01*
X47745000Y-9430000D02*
X47705000Y-9470000D01*
X47980000Y-11130000D02*
X48020000Y-11170000D01*
X48020000Y-11130000D02*
X47980000Y-11170000D01*
X48312340Y-6030270D02*
X48352340Y-6070270D01*
X48352340Y-6030270D02*
X48312340Y-6070270D01*
D13*
X10827000Y-5600000D02*
G75*
G03*
X10827000Y-5600000I-35000J0D01*
G01*
X11335000Y-5600000D02*
G75*
G03*
X11335000Y-5600000I-35000J0D01*
G01*
X13727000Y-5600000D02*
G75*
G03*
X13727000Y-5600000I-35000J0D01*
G01*
X14235000Y-5600000D02*
G75*
G03*
X14235000Y-5600000I-35000J0D01*
G01*
X16627000Y-5600000D02*
G75*
G03*
X16627000Y-5600000I-35000J0D01*
G01*
X17135000Y-5600000D02*
G75*
G03*
X17135000Y-5600000I-35000J0D01*
G01*
X19427000Y-5600000D02*
G75*
G03*
X19427000Y-5600000I-35000J0D01*
G01*
X19935000Y-5600000D02*
G75*
G03*
X19935000Y-5600000I-35000J0D01*
G01*
X29881000Y-8250000D02*
G75*
G03*
X29881000Y-8250000I-35000J0D01*
G01*
X29889000Y-9950000D02*
G75*
G03*
X29889000Y-9950000I-35000J0D01*
G01*
X30389000Y-8250000D02*
G75*
G03*
X30389000Y-8250000I-35000J0D01*
G01*
X30397000Y-9950000D02*
G75*
G03*
X30397000Y-9950000I-35000J0D01*
G01*
X31681000Y-8250000D02*
G75*
G03*
X31681000Y-8250000I-35000J0D01*
G01*
X31789000Y-9950000D02*
G75*
G03*
X31789000Y-9950000I-35000J0D01*
G01*
X32189000Y-8250000D02*
G75*
G03*
X32189000Y-8250000I-35000J0D01*
G01*
X32297000Y-9950000D02*
G75*
G03*
X32297000Y-9950000I-35000J0D01*
G01*
X42227000Y-5400000D02*
G75*
G03*
X42227000Y-5400000I-35000J0D01*
G01*
X42735000Y-5400000D02*
G75*
G03*
X42735000Y-5400000I-35000J0D01*
G01*
X45127000Y-5400000D02*
G75*
G03*
X45127000Y-5400000I-35000J0D01*
G01*
X45635000Y-5400000D02*
G75*
G03*
X45635000Y-5400000I-35000J0D01*
G01*
X48135000Y-5400000D02*
G75*
G03*
X48135000Y-5400000I-35000J0D01*
G01*
X48643000Y-5400000D02*
G75*
G03*
X48643000Y-5400000I-35000J0D01*
G01*
X50981000Y-5400000D02*
G75*
G03*
X50981000Y-5400000I-35000J0D01*
G01*
X51489000Y-5400000D02*
G75*
G03*
X51489000Y-5400000I-35000J0D01*
G01*
D14*
X42336470Y-4996500D02*
X42336470Y-5071500D01*
X42298970Y-5034000D02*
X42373970Y-5034000D01*
X42590470Y-4996500D02*
X42590470Y-5071500D01*
X42552970Y-5034000D02*
X42627970Y-5034000D01*
X45206470Y-5006500D02*
X45206470Y-5081500D01*
X45168970Y-5044000D02*
X45243970Y-5044000D01*
X45460470Y-5006500D02*
X45460470Y-5081500D01*
X45422970Y-5044000D02*
X45497970Y-5044000D01*
X48156470Y-4986500D02*
X48156470Y-5061500D01*
X48118970Y-5024000D02*
X48193970Y-5024000D01*
X48410470Y-4986500D02*
X48410470Y-5061500D01*
X48372970Y-5024000D02*
X48447970Y-5024000D01*
X50918000Y-5006500D02*
X50918000Y-5081500D01*
X50880500Y-5044000D02*
X50955500Y-5044000D01*
X51172000Y-5006500D02*
X51172000Y-5081500D01*
X51134500Y-5044000D02*
X51209500Y-5044000D01*
D15*
X10666285Y-14228284D02*
X10666285Y-14171715D01*
X10609716Y-14171715D01*
X10609716Y-14228284D01*
X10666285Y-14228284D01*
X10828285Y-8928285D02*
X10828285Y-8871716D01*
X10771716Y-8871716D01*
X10771716Y-8928285D01*
X10828285Y-8928285D01*
X10828285Y-11828284D02*
X10828285Y-11771715D01*
X10771716Y-11771715D01*
X10771716Y-11828284D01*
X10828285Y-11828284D01*
X10828285Y-16528284D02*
X10828285Y-16471715D01*
X10771716Y-16471715D01*
X10771716Y-16528284D01*
X10828285Y-16528284D01*
X10828285Y-18828285D02*
X10828285Y-18771716D01*
X10771716Y-18771716D01*
X10771716Y-18828285D01*
X10828285Y-18828285D01*
X11228284Y-21228285D02*
X11228284Y-21171716D01*
X11171716Y-21171716D01*
X11171716Y-21228285D01*
X11228284Y-21228285D01*
X11428284Y-14228284D02*
X11428284Y-14171715D01*
X11371715Y-14171715D01*
X11371715Y-14228284D01*
X11428284Y-14228284D01*
X11590284Y-8928285D02*
X11590284Y-8871716D01*
X11533715Y-8871716D01*
X11533715Y-8928285D01*
X11590284Y-8928285D01*
X11590284Y-11828284D02*
X11590284Y-11771715D01*
X11533715Y-11771715D01*
X11533715Y-11828284D01*
X11590284Y-11828284D01*
X11590284Y-16528284D02*
X11590284Y-16471715D01*
X11533715Y-16471715D01*
X11533715Y-16528284D01*
X11590284Y-16528284D01*
X11590284Y-18828285D02*
X11590284Y-18771716D01*
X11533715Y-18771716D01*
X11533715Y-18828285D01*
X11590284Y-18828285D01*
X11990284Y-21228285D02*
X11990284Y-21171716D01*
X11933715Y-21171716D01*
X11933715Y-21228285D01*
X11990284Y-21228285D01*
X13566284Y-8928285D02*
X13566284Y-8871716D01*
X13509715Y-8871716D01*
X13509715Y-8928285D01*
X13566284Y-8928285D01*
X13628284Y-14228284D02*
X13628284Y-14171715D01*
X13571715Y-14171715D01*
X13571715Y-14228284D01*
X13628284Y-14228284D01*
X13628284Y-18828285D02*
X13628284Y-18771716D01*
X13571715Y-18771716D01*
X13571715Y-18828285D01*
X13628284Y-18828285D01*
X13628284Y-21228285D02*
X13628284Y-21171716D01*
X13571715Y-21171716D01*
X13571715Y-21228285D01*
X13628284Y-21228285D01*
X13728284Y-11828284D02*
X13728284Y-11771715D01*
X13671715Y-11771715D01*
X13671715Y-11828284D01*
X13728284Y-11828284D01*
X13728284Y-16528284D02*
X13728284Y-16471715D01*
X13671715Y-16471715D01*
X13671715Y-16528284D01*
X13728284Y-16528284D01*
X14328284Y-8928285D02*
X14328284Y-8871716D01*
X14271715Y-8871716D01*
X14271715Y-8928285D01*
X14328284Y-8928285D01*
X14390284Y-14228284D02*
X14390284Y-14171715D01*
X14333715Y-14171715D01*
X14333715Y-14228284D01*
X14390284Y-14228284D01*
X14390284Y-18828285D02*
X14390284Y-18771716D01*
X14333715Y-18771716D01*
X14333715Y-18828285D01*
X14390284Y-18828285D01*
X14390284Y-21228285D02*
X14390284Y-21171716D01*
X14333715Y-21171716D01*
X14333715Y-21228285D01*
X14390284Y-21228285D01*
X14490284Y-11828284D02*
X14490284Y-11771715D01*
X14433715Y-11771715D01*
X14433715Y-11828284D01*
X14490284Y-11828284D01*
X14490284Y-16528284D02*
X14490284Y-16471715D01*
X14433715Y-16471715D01*
X14433715Y-16528284D01*
X14490284Y-16528284D01*
X16028284Y-18328285D02*
X16028284Y-18271716D01*
X15971715Y-18271716D01*
X15971715Y-18328285D01*
X16028284Y-18328285D01*
X16028284Y-20728285D02*
X16028284Y-20671716D01*
X15971715Y-20671716D01*
X15971715Y-20728285D01*
X16028284Y-20728285D01*
X16047284Y-13828284D02*
X16047284Y-13771715D01*
X15990715Y-13771715D01*
X15990715Y-13828284D01*
X16047284Y-13828284D01*
X16066284Y-16128284D02*
X16066284Y-16071715D01*
X16009715Y-16071715D01*
X16009715Y-16128284D01*
X16066284Y-16128284D01*
X16128284Y-11328284D02*
X16128284Y-11271715D01*
X16071715Y-11271715D01*
X16071715Y-11328284D01*
X16128284Y-11328284D01*
X16528284Y-8828285D02*
X16528284Y-8771716D01*
X16471715Y-8771716D01*
X16471715Y-8828285D01*
X16528284Y-8828285D01*
X16790285Y-18328285D02*
X16790285Y-18271716D01*
X16733715Y-18271716D01*
X16733715Y-18328285D01*
X16790285Y-18328285D01*
X16790285Y-20728285D02*
X16790285Y-20671716D01*
X16733715Y-20671716D01*
X16733715Y-20728285D01*
X16790285Y-20728285D01*
X16809285Y-13828284D02*
X16809285Y-13771715D01*
X16752715Y-13771715D01*
X16752715Y-13828284D01*
X16809285Y-13828284D01*
X16828285Y-16128284D02*
X16828285Y-16071715D01*
X16771715Y-16071715D01*
X16771715Y-16128284D01*
X16828285Y-16128284D01*
X16890285Y-11328284D02*
X16890285Y-11271715D01*
X16833716Y-11271715D01*
X16833716Y-11328284D01*
X16890285Y-11328284D01*
X17290285Y-8828285D02*
X17290285Y-8771716D01*
X17233716Y-8771716D01*
X17233716Y-8828285D01*
X17290285Y-8828285D01*
X18366285Y-11128285D02*
X18366285Y-11071716D01*
X18309716Y-11071716D01*
X18309716Y-11128285D01*
X18366285Y-11128285D01*
X18409285Y-13528284D02*
X18409285Y-13471715D01*
X18352716Y-13471715D01*
X18352716Y-13528284D01*
X18409285Y-13528284D01*
X18428285Y-15928284D02*
X18428285Y-15871715D01*
X18371716Y-15871715D01*
X18371716Y-15928284D01*
X18428285Y-15928284D01*
X18428285Y-18128285D02*
X18428285Y-18071716D01*
X18371716Y-18071716D01*
X18371716Y-18128285D01*
X18428285Y-18128285D01*
X18428285Y-20528285D02*
X18428285Y-20471716D01*
X18371716Y-20471716D01*
X18371716Y-20528285D01*
X18428285Y-20528285D01*
X19128285Y-11128285D02*
X19128285Y-11071716D01*
X19071716Y-11071716D01*
X19071716Y-11128285D01*
X19128285Y-11128285D01*
X19171285Y-13528284D02*
X19171285Y-13471715D01*
X19114716Y-13471715D01*
X19114716Y-13528284D01*
X19171285Y-13528284D01*
X19190285Y-15928284D02*
X19190285Y-15871715D01*
X19133716Y-15871715D01*
X19133716Y-15928284D01*
X19190285Y-15928284D01*
X19190285Y-18128285D02*
X19190285Y-18071716D01*
X19133716Y-18071716D01*
X19133716Y-18128285D01*
X19190285Y-18128285D01*
X19190285Y-20528285D02*
X19190285Y-20471716D01*
X19133716Y-20471716D01*
X19133716Y-20528285D01*
X19190285Y-20528285D01*
X19428285Y-8728285D02*
X19428285Y-8671716D01*
X19371716Y-8671716D01*
X19371716Y-8728285D01*
X19428285Y-8728285D01*
X20190285Y-8728285D02*
X20190285Y-8671716D01*
X20133716Y-8671716D01*
X20133716Y-8728285D01*
X20190285Y-8728285D01*
X20766285Y-16128284D02*
X20766285Y-16071715D01*
X20709716Y-16071715D01*
X20709716Y-16128284D01*
X20766285Y-16128284D01*
X20828285Y-11328284D02*
X20828285Y-11271715D01*
X20771716Y-11271715D01*
X20771716Y-11328284D01*
X20828285Y-11328284D01*
X20828285Y-13728284D02*
X20828285Y-13671715D01*
X20771716Y-13671715D01*
X20771716Y-13728284D01*
X20828285Y-13728284D01*
X20828285Y-18328285D02*
X20828285Y-18271716D01*
X20771716Y-18271716D01*
X20771716Y-18328285D01*
X20828285Y-18328285D01*
X20828285Y-20728285D02*
X20828285Y-20671716D01*
X20771716Y-20671716D01*
X20771716Y-20728285D01*
X20828285Y-20728285D01*
X21528285Y-16128284D02*
X21528285Y-16071715D01*
X21471716Y-16071715D01*
X21471716Y-16128284D01*
X21528285Y-16128284D01*
X21590285Y-11328284D02*
X21590285Y-11271715D01*
X21533716Y-11271715D01*
X21533716Y-11328284D01*
X21590285Y-11328284D01*
X21590285Y-13728284D02*
X21590285Y-13671715D01*
X21533716Y-13671715D01*
X21533716Y-13728284D01*
X21590285Y-13728284D01*
X21590285Y-18328285D02*
X21590285Y-18271716D01*
X21533716Y-18271716D01*
X21533716Y-18328285D01*
X21590285Y-18328285D01*
X21590285Y-20728285D02*
X21590285Y-20671716D01*
X21533716Y-20671716D01*
X21533716Y-20728285D01*
X21590285Y-20728285D01*
X22128285Y-8728285D02*
X22128285Y-8671716D01*
X22071716Y-8671716D01*
X22071716Y-8728285D01*
X22128285Y-8728285D01*
X22890284Y-8728285D02*
X22890284Y-8671716D01*
X22833715Y-8671716D01*
X22833715Y-8728285D01*
X22890284Y-8728285D01*
X23166284Y-16328284D02*
X23166284Y-16271715D01*
X23109715Y-16271715D01*
X23109715Y-16328284D01*
X23166284Y-16328284D01*
X23166284Y-18628285D02*
X23166284Y-18571716D01*
X23109715Y-18571716D01*
X23109715Y-18628285D01*
X23166284Y-18628285D01*
X23228284Y-11428284D02*
X23228284Y-11371715D01*
X23171715Y-11371715D01*
X23171715Y-11428284D01*
X23228284Y-11428284D01*
X23228284Y-13928284D02*
X23228284Y-13871715D01*
X23171715Y-13871715D01*
X23171715Y-13928284D01*
X23228284Y-13928284D01*
X23928284Y-16328284D02*
X23928284Y-16271715D01*
X23871715Y-16271715D01*
X23871715Y-16328284D01*
X23928284Y-16328284D01*
X23928284Y-18628285D02*
X23928284Y-18571716D01*
X23871715Y-18571716D01*
X23871715Y-18628285D01*
X23928284Y-18628285D01*
X23990284Y-11428284D02*
X23990284Y-11371715D01*
X23933715Y-11371715D01*
X23933715Y-11428284D01*
X23990284Y-11428284D01*
X23990284Y-13928284D02*
X23990284Y-13871715D01*
X23933715Y-13871715D01*
X23933715Y-13928284D01*
X23990284Y-13928284D01*
X24666284Y-20328285D02*
X24666284Y-20271716D01*
X24609715Y-20271716D01*
X24609715Y-20328285D01*
X24666284Y-20328285D01*
X25128284Y-8728285D02*
X25128284Y-8671716D01*
X25071715Y-8671716D01*
X25071715Y-8728285D01*
X25128284Y-8728285D01*
X25428284Y-20328285D02*
X25428284Y-20271716D01*
X25371715Y-20271716D01*
X25371715Y-20328285D01*
X25428284Y-20328285D01*
X25528284Y-16328284D02*
X25528284Y-16271715D01*
X25471715Y-16271715D01*
X25471715Y-16328284D01*
X25528284Y-16328284D01*
X25566284Y-11528284D02*
X25566284Y-11471715D01*
X25509715Y-11471715D01*
X25509715Y-11528284D01*
X25566284Y-11528284D01*
X25628284Y-14028284D02*
X25628284Y-13971715D01*
X25571715Y-13971715D01*
X25571715Y-14028284D01*
X25628284Y-14028284D01*
X25628284Y-18628285D02*
X25628284Y-18571716D01*
X25571715Y-18571716D01*
X25571715Y-18628285D01*
X25628284Y-18628285D01*
X25890284Y-8728285D02*
X25890284Y-8671716D01*
X25833715Y-8671716D01*
X25833715Y-8728285D01*
X25890284Y-8728285D01*
X26290284Y-16328284D02*
X26290284Y-16271715D01*
X26233715Y-16271715D01*
X26233715Y-16328284D01*
X26290284Y-16328284D01*
X26328284Y-11528284D02*
X26328284Y-11471715D01*
X26271715Y-11471715D01*
X26271715Y-11528284D01*
X26328284Y-11528284D01*
X26390284Y-14028284D02*
X26390284Y-13971715D01*
X26333715Y-13971715D01*
X26333715Y-14028284D01*
X26390284Y-14028284D01*
X26390284Y-18628285D02*
X26390284Y-18571716D01*
X26333715Y-18571716D01*
X26333715Y-18628285D01*
X26390284Y-18628285D01*
X26766284Y-21628285D02*
X26766284Y-21571716D01*
X26709715Y-21571716D01*
X26709715Y-21628285D01*
X26766284Y-21628285D01*
X27528284Y-21628285D02*
X27528284Y-21571716D01*
X27471715Y-21571716D01*
X27471715Y-21628285D01*
X27528284Y-21628285D01*
X27828284Y-19328285D02*
X27828284Y-19271716D01*
X27771715Y-19271716D01*
X27771715Y-19328285D01*
X27828284Y-19328285D01*
X27866284Y-14828284D02*
X27866284Y-14771715D01*
X27809715Y-14771715D01*
X27809715Y-14828284D01*
X27866284Y-14828284D01*
X27866284Y-18228285D02*
X27866284Y-18171716D01*
X27809715Y-18171716D01*
X27809715Y-18228285D01*
X27866284Y-18228285D01*
X28028284Y-8728285D02*
X28028284Y-8671716D01*
X27971715Y-8671716D01*
X27971715Y-8728285D01*
X28028284Y-8728285D01*
X28028284Y-11628284D02*
X28028284Y-11571715D01*
X27971715Y-11571715D01*
X27971715Y-11628284D01*
X28028284Y-11628284D01*
X28590284Y-19328285D02*
X28590284Y-19271716D01*
X28533715Y-19271716D01*
X28533715Y-19328285D01*
X28590284Y-19328285D01*
X28628284Y-14828284D02*
X28628284Y-14771715D01*
X28571715Y-14771715D01*
X28571715Y-14828284D01*
X28628284Y-14828284D01*
X28628284Y-18228285D02*
X28628284Y-18171716D01*
X28571715Y-18171716D01*
X28571715Y-18228285D01*
X28628284Y-18228285D01*
X28628284Y-22628284D02*
X28628284Y-22571715D01*
X28571715Y-22571715D01*
X28571715Y-22628284D01*
X28628284Y-22628284D01*
X28790284Y-8728285D02*
X28790284Y-8671716D01*
X28733715Y-8671716D01*
X28733715Y-8728285D01*
X28790284Y-8728285D01*
X28790284Y-11628284D02*
X28790284Y-11571715D01*
X28733715Y-11571715D01*
X28733715Y-11628284D01*
X28790284Y-11628284D01*
X29390284Y-22628284D02*
X29390284Y-22571715D01*
X29333715Y-22571715D01*
X29333715Y-22628284D01*
X29390284Y-22628284D01*
X29622284Y-8918285D02*
X29622284Y-8861716D01*
X29565715Y-8861716D01*
X29565715Y-8918285D01*
X29622284Y-8918285D01*
X29622284Y-9238285D02*
X29622284Y-9181716D01*
X29565715Y-9181716D01*
X29565715Y-9238285D01*
X29622284Y-9238285D01*
X29932284Y-9438285D02*
X29932284Y-9381716D01*
X29875715Y-9381716D01*
X29875715Y-9438285D01*
X29932284Y-9438285D01*
X30432284Y-8628285D02*
X30432284Y-8571716D01*
X30375715Y-8571716D01*
X30375715Y-8628285D01*
X30432284Y-8628285D01*
X30432284Y-9528285D02*
X30432284Y-9471716D01*
X30375715Y-9471716D01*
X30375715Y-9528285D01*
X30432284Y-9528285D01*
X31732284Y-8628285D02*
X31732284Y-8571716D01*
X31675715Y-8571716D01*
X31675715Y-8628285D01*
X31732284Y-8628285D01*
X31732284Y-9528285D02*
X31732284Y-9471716D01*
X31675715Y-9471716D01*
X31675715Y-9528285D01*
X31732284Y-9528285D01*
X32232284Y-8718285D02*
X32232284Y-8661716D01*
X32175715Y-8661716D01*
X32175715Y-8718285D01*
X32232284Y-8718285D01*
X32542284Y-8918285D02*
X32542284Y-8861716D01*
X32485715Y-8861716D01*
X32485715Y-8918285D01*
X32542284Y-8918285D01*
X32542284Y-9238285D02*
X32542284Y-9181716D01*
X32485715Y-9181716D01*
X32485715Y-9238285D01*
X32542284Y-9238285D01*
X32928284Y-22728284D02*
X32928284Y-22671715D01*
X32871715Y-22671715D01*
X32871715Y-22728284D01*
X32928284Y-22728284D01*
X33528284Y-8628285D02*
X33528284Y-8571716D01*
X33471715Y-8571716D01*
X33471715Y-8628285D01*
X33528284Y-8628285D01*
X33528284Y-11528284D02*
X33528284Y-11471715D01*
X33471715Y-11471715D01*
X33471715Y-11528284D01*
X33528284Y-11528284D01*
X33628285Y-14828284D02*
X33628285Y-14771715D01*
X33571716Y-14771715D01*
X33571716Y-14828284D01*
X33628285Y-14828284D01*
X33628285Y-18128285D02*
X33628285Y-18071716D01*
X33571716Y-18071716D01*
X33571716Y-18128285D01*
X33628285Y-18128285D01*
X33690285Y-22728284D02*
X33690285Y-22671715D01*
X33633716Y-22671715D01*
X33633716Y-22728284D01*
X33690285Y-22728284D01*
X33766285Y-19528285D02*
X33766285Y-19471716D01*
X33709716Y-19471716D01*
X33709716Y-19528285D01*
X33766285Y-19528285D01*
X34290285Y-8628285D02*
X34290285Y-8571716D01*
X34233716Y-8571716D01*
X34233716Y-8628285D01*
X34290285Y-8628285D01*
X34290285Y-11528284D02*
X34290285Y-11471715D01*
X34233716Y-11471715D01*
X34233716Y-11528284D01*
X34290285Y-11528284D01*
X34390285Y-14828284D02*
X34390285Y-14771715D01*
X34333716Y-14771715D01*
X34333716Y-14828284D01*
X34390285Y-14828284D01*
X34390285Y-18128285D02*
X34390285Y-18071716D01*
X34333716Y-18071716D01*
X34333716Y-18128285D01*
X34390285Y-18128285D01*
X34528285Y-19528285D02*
X34528285Y-19471716D01*
X34471716Y-19471716D01*
X34471716Y-19528285D01*
X34528285Y-19528285D01*
X35028285Y-21528285D02*
X35028285Y-21471716D01*
X34971716Y-21471716D01*
X34971716Y-21528285D01*
X35028285Y-21528285D01*
X35790285Y-21528285D02*
X35790285Y-21471716D01*
X35733716Y-21471716D01*
X35733716Y-21528285D01*
X35790285Y-21528285D01*
X35866285Y-16228284D02*
X35866285Y-16171715D01*
X35809716Y-16171715D01*
X35809716Y-16228284D01*
X35866285Y-16228284D01*
X35928285Y-13928284D02*
X35928285Y-13871715D01*
X35871716Y-13871715D01*
X35871716Y-13928284D01*
X35928285Y-13928284D01*
X35966285Y-11528284D02*
X35966285Y-11471715D01*
X35909716Y-11471715D01*
X35909716Y-11528284D01*
X35966285Y-11528284D01*
X35966285Y-18628285D02*
X35966285Y-18571716D01*
X35909716Y-18571716D01*
X35909716Y-18628285D01*
X35966285Y-18628285D01*
X36428285Y-8628285D02*
X36428285Y-8571716D01*
X36371716Y-8571716D01*
X36371716Y-8628285D01*
X36428285Y-8628285D01*
X36628285Y-16228284D02*
X36628285Y-16171715D01*
X36571716Y-16171715D01*
X36571716Y-16228284D01*
X36628285Y-16228284D01*
X36690285Y-13928284D02*
X36690285Y-13871715D01*
X36633716Y-13871715D01*
X36633716Y-13928284D01*
X36690285Y-13928284D01*
X36728285Y-11528284D02*
X36728285Y-11471715D01*
X36671716Y-11471715D01*
X36671716Y-11528284D01*
X36728285Y-11528284D01*
X36728285Y-18628285D02*
X36728285Y-18571716D01*
X36671716Y-18571716D01*
X36671716Y-18628285D01*
X36728285Y-18628285D01*
X36966285Y-20428285D02*
X36966285Y-20371716D01*
X36909716Y-20371716D01*
X36909716Y-20428285D01*
X36966285Y-20428285D01*
X37190285Y-8628285D02*
X37190285Y-8571716D01*
X37133716Y-8571716D01*
X37133716Y-8628285D01*
X37190285Y-8628285D01*
X37728285Y-20428285D02*
X37728285Y-20371716D01*
X37671716Y-20371716D01*
X37671716Y-20428285D01*
X37728285Y-20428285D01*
X38328285Y-13828284D02*
X38328285Y-13771715D01*
X38271716Y-13771715D01*
X38271716Y-13828284D01*
X38328285Y-13828284D01*
X38366285Y-11528284D02*
X38366285Y-11471715D01*
X38309716Y-11471715D01*
X38309716Y-11528284D01*
X38366285Y-11528284D01*
X38366285Y-16228284D02*
X38366285Y-16171715D01*
X38309716Y-16171715D01*
X38309716Y-16228284D01*
X38366285Y-16228284D01*
X38366285Y-18628285D02*
X38366285Y-18571716D01*
X38309716Y-18571716D01*
X38309716Y-18628285D01*
X38366285Y-18628285D01*
X39090285Y-13828284D02*
X39090285Y-13771715D01*
X39033716Y-13771715D01*
X39033716Y-13828284D01*
X39090285Y-13828284D01*
X39128285Y-11528284D02*
X39128285Y-11471715D01*
X39071716Y-11471715D01*
X39071716Y-11528284D01*
X39128285Y-11528284D01*
X39128285Y-16228284D02*
X39128285Y-16171715D01*
X39071716Y-16171715D01*
X39071716Y-16228284D01*
X39128285Y-16228284D01*
X39128285Y-18628285D02*
X39128285Y-18571716D01*
X39071716Y-18571716D01*
X39071716Y-18628285D01*
X39128285Y-18628285D01*
X39328285Y-8628285D02*
X39328285Y-8571716D01*
X39271716Y-8571716D01*
X39271716Y-8628285D01*
X39328285Y-8628285D01*
X40090285Y-8628285D02*
X40090285Y-8571716D01*
X40033716Y-8571716D01*
X40033716Y-8628285D01*
X40090285Y-8628285D01*
X40666285Y-11228284D02*
X40666285Y-11171716D01*
X40609716Y-11171716D01*
X40609716Y-11228284D01*
X40666285Y-11228284D01*
X40728285Y-13628284D02*
X40728285Y-13571715D01*
X40671716Y-13571715D01*
X40671716Y-13628284D01*
X40728285Y-13628284D01*
X40728285Y-18328285D02*
X40728285Y-18271716D01*
X40671716Y-18271716D01*
X40671716Y-18328285D01*
X40728285Y-18328285D01*
X40728285Y-20728285D02*
X40728285Y-20671716D01*
X40671716Y-20671716D01*
X40671716Y-20728285D01*
X40728285Y-20728285D01*
X40766285Y-16028284D02*
X40766285Y-15971715D01*
X40709716Y-15971715D01*
X40709716Y-16028284D01*
X40766285Y-16028284D01*
X41428285Y-11228284D02*
X41428285Y-11171716D01*
X41371716Y-11171716D01*
X41371716Y-11228284D01*
X41428285Y-11228284D01*
X41490285Y-13628284D02*
X41490285Y-13571715D01*
X41433716Y-13571715D01*
X41433716Y-13628284D01*
X41490285Y-13628284D01*
X41490285Y-18328285D02*
X41490285Y-18271716D01*
X41433716Y-18271716D01*
X41433716Y-18328285D01*
X41490285Y-18328285D01*
X41490285Y-20728285D02*
X41490285Y-20671716D01*
X41433716Y-20671716D01*
X41433716Y-20728285D01*
X41490285Y-20728285D01*
X41528285Y-16028284D02*
X41528285Y-15971715D01*
X41471716Y-15971715D01*
X41471716Y-16028284D01*
X41528285Y-16028284D01*
X42066285Y-8628285D02*
X42066285Y-8571716D01*
X42009716Y-8571716D01*
X42009716Y-8628285D01*
X42066285Y-8628285D01*
X42828285Y-8628285D02*
X42828285Y-8571716D01*
X42771716Y-8571716D01*
X42771716Y-8628285D01*
X42828285Y-8628285D01*
X43066285Y-11028285D02*
X43066285Y-10971716D01*
X43009716Y-10971716D01*
X43009716Y-11028285D01*
X43066285Y-11028285D01*
X43066285Y-15728284D02*
X43066285Y-15671715D01*
X43009716Y-15671715D01*
X43009716Y-15728284D01*
X43066285Y-15728284D01*
X43066285Y-20528285D02*
X43066285Y-20471716D01*
X43009716Y-20471716D01*
X43009716Y-20528285D01*
X43066285Y-20528285D01*
X43128285Y-18128285D02*
X43128285Y-18071716D01*
X43071716Y-18071716D01*
X43071716Y-18128285D01*
X43128285Y-18128285D01*
X43166285Y-13428284D02*
X43166285Y-13371715D01*
X43109716Y-13371715D01*
X43109716Y-13428284D01*
X43166285Y-13428284D01*
X43828285Y-11028285D02*
X43828285Y-10971716D01*
X43771716Y-10971716D01*
X43771716Y-11028285D01*
X43828285Y-11028285D01*
X43828285Y-15728284D02*
X43828285Y-15671715D01*
X43771716Y-15671715D01*
X43771716Y-15728284D01*
X43828285Y-15728284D01*
X43828285Y-20528285D02*
X43828285Y-20471716D01*
X43771716Y-20471716D01*
X43771716Y-20528285D01*
X43828285Y-20528285D01*
X43890285Y-18128285D02*
X43890285Y-18071716D01*
X43833716Y-18071716D01*
X43833716Y-18128285D01*
X43890285Y-18128285D01*
X43928285Y-13428284D02*
X43928285Y-13371715D01*
X43871716Y-13371715D01*
X43871716Y-13428284D01*
X43928285Y-13428284D01*
X44966284Y-8628285D02*
X44966284Y-8571716D01*
X44909715Y-8571716D01*
X44909715Y-8628285D01*
X44966284Y-8628285D01*
X45428284Y-20728285D02*
X45428284Y-20671716D01*
X45371715Y-20671716D01*
X45371715Y-20728285D01*
X45428284Y-20728285D01*
X45466284Y-11528284D02*
X45466284Y-11471715D01*
X45409715Y-11471715D01*
X45409715Y-11528284D01*
X45466284Y-11528284D01*
X45466284Y-16028284D02*
X45466284Y-15971715D01*
X45409715Y-15971715D01*
X45409715Y-16028284D01*
X45466284Y-16028284D01*
X45528284Y-13828284D02*
X45528284Y-13771715D01*
X45471715Y-13771715D01*
X45471715Y-13828284D01*
X45528284Y-13828284D01*
X45528284Y-18428285D02*
X45528284Y-18371716D01*
X45471715Y-18371716D01*
X45471715Y-18428285D01*
X45528284Y-18428285D01*
X45728284Y-8628285D02*
X45728284Y-8571716D01*
X45671715Y-8571716D01*
X45671715Y-8628285D01*
X45728284Y-8628285D01*
X46190284Y-20728285D02*
X46190284Y-20671716D01*
X46133715Y-20671716D01*
X46133715Y-20728285D01*
X46190284Y-20728285D01*
X46228284Y-11528284D02*
X46228284Y-11471715D01*
X46171715Y-11471715D01*
X46171715Y-11528284D01*
X46228284Y-11528284D01*
X46228284Y-16028284D02*
X46228284Y-15971715D01*
X46171715Y-15971715D01*
X46171715Y-16028284D01*
X46228284Y-16028284D01*
X46290284Y-13828284D02*
X46290284Y-13771715D01*
X46233715Y-13771715D01*
X46233715Y-13828284D01*
X46290284Y-13828284D01*
X46290284Y-18428285D02*
X46290284Y-18371716D01*
X46233715Y-18371716D01*
X46233715Y-18428285D01*
X46290284Y-18428285D01*
X47828284Y-18828285D02*
X47828284Y-18771716D01*
X47771715Y-18771716D01*
X47771715Y-18828285D01*
X47828284Y-18828285D01*
X47828284Y-21328285D02*
X47828284Y-21271716D01*
X47771715Y-21271716D01*
X47771715Y-21328285D01*
X47828284Y-21328285D01*
X47866284Y-8628285D02*
X47866284Y-8571716D01*
X47809715Y-8571716D01*
X47809715Y-8628285D01*
X47866284Y-8628285D01*
X47866284Y-11728284D02*
X47866284Y-11671715D01*
X47809715Y-11671715D01*
X47809715Y-11728284D01*
X47866284Y-11728284D01*
X47866284Y-14128284D02*
X47866284Y-14071715D01*
X47809715Y-14071715D01*
X47809715Y-14128284D01*
X47866284Y-14128284D01*
X47866284Y-16528284D02*
X47866284Y-16471715D01*
X47809715Y-16471715D01*
X47809715Y-16528284D01*
X47866284Y-16528284D01*
X48590284Y-18828285D02*
X48590284Y-18771716D01*
X48533715Y-18771716D01*
X48533715Y-18828285D01*
X48590284Y-18828285D01*
X48590284Y-21328285D02*
X48590284Y-21271716D01*
X48533715Y-21271716D01*
X48533715Y-21328285D01*
X48590284Y-21328285D01*
X48628284Y-8628285D02*
X48628284Y-8571716D01*
X48571715Y-8571716D01*
X48571715Y-8628285D01*
X48628284Y-8628285D01*
X48628284Y-11728284D02*
X48628284Y-11671715D01*
X48571715Y-11671715D01*
X48571715Y-11728284D01*
X48628284Y-11728284D01*
X48628284Y-14128284D02*
X48628284Y-14071715D01*
X48571715Y-14071715D01*
X48571715Y-14128284D01*
X48628284Y-14128284D01*
X48628284Y-16528284D02*
X48628284Y-16471715D01*
X48571715Y-16471715D01*
X48571715Y-16528284D01*
X48628284Y-16528284D01*
X50266284Y-21228285D02*
X50266284Y-21171716D01*
X50209715Y-21171716D01*
X50209715Y-21228285D01*
X50266284Y-21228285D01*
X50728284Y-8628285D02*
X50728284Y-8571716D01*
X50671715Y-8571716D01*
X50671715Y-8628285D01*
X50728284Y-8628285D01*
X50728284Y-16528284D02*
X50728284Y-16471715D01*
X50671715Y-16471715D01*
X50671715Y-16528284D01*
X50728284Y-16528284D01*
X50728284Y-18828285D02*
X50728284Y-18771716D01*
X50671715Y-18771716D01*
X50671715Y-18828285D01*
X50728284Y-18828285D01*
X50766284Y-11728284D02*
X50766284Y-11671715D01*
X50709715Y-11671715D01*
X50709715Y-11728284D01*
X50766284Y-11728284D01*
X50766284Y-14028284D02*
X50766284Y-13971715D01*
X50709715Y-13971715D01*
X50709715Y-14028284D01*
X50766284Y-14028284D01*
X51028284Y-21228285D02*
X51028284Y-21171716D01*
X50971715Y-21171716D01*
X50971715Y-21228285D01*
X51028284Y-21228285D01*
X51490284Y-8628285D02*
X51490284Y-8571716D01*
X51433715Y-8571716D01*
X51433715Y-8628285D01*
X51490284Y-8628285D01*
X51490284Y-16528284D02*
X51490284Y-16471715D01*
X51433715Y-16471715D01*
X51433715Y-16528284D01*
X51490284Y-16528284D01*
X51490284Y-18828285D02*
X51490284Y-18771716D01*
X51433715Y-18771716D01*
X51433715Y-18828285D01*
X51490284Y-18828285D01*
X51528284Y-11728284D02*
X51528284Y-11671715D01*
X51471715Y-11671715D01*
X51471715Y-11728284D01*
X51528284Y-11728284D01*
X51528284Y-14028284D02*
X51528284Y-13971715D01*
X51471715Y-13971715D01*
X51471715Y-14028284D01*
X51528284Y-14028284D01*
D16*
X10990000Y-5115000D02*
X11035000Y-5070000D01*
X10990000Y-5025000D01*
X10945000Y-5070000D01*
X10990000Y-5115000D01*
X11244000Y-5115000D02*
X11289000Y-5070000D01*
X11244000Y-5025000D01*
X11199000Y-5070000D01*
X11244000Y-5115000D01*
X13810000Y-5165000D02*
X13855000Y-5120000D01*
X13810000Y-5075000D01*
X13765000Y-5120000D01*
X13810000Y-5165000D01*
X14064000Y-5165000D02*
X14109000Y-5120000D01*
X14064000Y-5075000D01*
X14019000Y-5120000D01*
X14064000Y-5165000D01*
X16740000Y-5145000D02*
X16785000Y-5100000D01*
X16740000Y-5055000D01*
X16695000Y-5100000D01*
X16740000Y-5145000D01*
X16994000Y-5145000D02*
X17039000Y-5100000D01*
X16994000Y-5055000D01*
X16949000Y-5100000D01*
X16994000Y-5145000D01*
X19520000Y-5165000D02*
X19565000Y-5120000D01*
X19520000Y-5075000D01*
X19475000Y-5120000D01*
X19520000Y-5165000D01*
X19774000Y-5165000D02*
X19819000Y-5120000D01*
X19774000Y-5075000D01*
X19729000Y-5120000D01*
X19774000Y-5165000D01*
D10*
X22342000Y-5250000D02*
X22442000Y-5350000D01*
X22442000Y-5250000D02*
X22342000Y-5350000D01*
X22442000Y-5300000D02*
G75*
G03*
X22442000Y-5300000I-50000J0D01*
G01*
X22850000Y-5250000D02*
X22950000Y-5350000D01*
X22950000Y-5250000D02*
X22850000Y-5350000D01*
X22950000Y-5300000D02*
G75*
G03*
X22950000Y-5300000I-50000J0D01*
G01*
X39296000Y-5250000D02*
X39396000Y-5350000D01*
X39396000Y-5250000D02*
X39296000Y-5350000D01*
X39396000Y-5300000D02*
G75*
G03*
X39396000Y-5300000I-50000J0D01*
G01*
X39804000Y-5250000D02*
X39904000Y-5350000D01*
X39904000Y-5250000D02*
X39804000Y-5350000D01*
X39904000Y-5300000D02*
G75*
G03*
X39904000Y-5300000I-50000J0D01*
G01*
D17*
X25536000Y-4332500D02*
X25638000Y-4434500D01*
X25638000Y-4332500D02*
X25536000Y-4434500D01*
X25587000Y-4332500D02*
X25587000Y-4434500D01*
X25536000Y-4383500D02*
X25638000Y-4383500D01*
X25536000Y-6110500D02*
X25638000Y-6212500D01*
X25638000Y-6110500D02*
X25536000Y-6212500D01*
X25587000Y-6110500D02*
X25587000Y-6212500D01*
X25536000Y-6161500D02*
X25638000Y-6161500D01*
X25559000Y-4967500D02*
X25661000Y-5069500D01*
X25661000Y-4967500D02*
X25559000Y-5069500D01*
X25610000Y-4967500D02*
X25610000Y-5069500D01*
X25559000Y-5018500D02*
X25661000Y-5018500D01*
X25559000Y-5221500D02*
X25661000Y-5323500D01*
X25661000Y-5221500D02*
X25559000Y-5323500D01*
X25610000Y-5221500D02*
X25610000Y-5323500D01*
X25559000Y-5272500D02*
X25661000Y-5272500D01*
X25559000Y-5475500D02*
X25661000Y-5577500D01*
X25661000Y-5475500D02*
X25559000Y-5577500D01*
X25610000Y-5475500D02*
X25610000Y-5577500D01*
X25559000Y-5526500D02*
X25661000Y-5526500D01*
X25790000Y-4332500D02*
X25892000Y-4434500D01*
X25892000Y-4332500D02*
X25790000Y-4434500D01*
X25841000Y-4332500D02*
X25841000Y-4434500D01*
X25790000Y-4383500D02*
X25892000Y-4383500D01*
X25790000Y-6110500D02*
X25892000Y-6212500D01*
X25892000Y-6110500D02*
X25790000Y-6212500D01*
X25841000Y-6110500D02*
X25841000Y-6212500D01*
X25790000Y-6161500D02*
X25892000Y-6161500D01*
X26044000Y-4332500D02*
X26146000Y-4434500D01*
X26146000Y-4332500D02*
X26044000Y-4434500D01*
X26095000Y-4332500D02*
X26095000Y-4434500D01*
X26044000Y-4383500D02*
X26146000Y-4383500D01*
X26044000Y-6110500D02*
X26146000Y-6212500D01*
X26146000Y-6110500D02*
X26044000Y-6212500D01*
X26095000Y-6110500D02*
X26095000Y-6212500D01*
X26044000Y-6161500D02*
X26146000Y-6161500D01*
X26298000Y-4332500D02*
X26400000Y-4434500D01*
X26400000Y-4332500D02*
X26298000Y-4434500D01*
X26349000Y-4332500D02*
X26349000Y-4434500D01*
X26298000Y-4383500D02*
X26400000Y-4383500D01*
X26298000Y-6110500D02*
X26400000Y-6212500D01*
X26400000Y-6110500D02*
X26298000Y-6212500D01*
X26349000Y-6110500D02*
X26349000Y-6212500D01*
X26298000Y-6161500D02*
X26400000Y-6161500D01*
X26552000Y-4332500D02*
X26654000Y-4434500D01*
X26654000Y-4332500D02*
X26552000Y-4434500D01*
X26603000Y-4332500D02*
X26603000Y-4434500D01*
X26552000Y-4383500D02*
X26654000Y-4383500D01*
X26552000Y-6110500D02*
X26654000Y-6212500D01*
X26654000Y-6110500D02*
X26552000Y-6212500D01*
X26603000Y-6110500D02*
X26603000Y-6212500D01*
X26552000Y-6161500D02*
X26654000Y-6161500D01*
X26806000Y-4332500D02*
X26908000Y-4434500D01*
X26908000Y-4332500D02*
X26806000Y-4434500D01*
X26857000Y-4332500D02*
X26857000Y-4434500D01*
X26806000Y-4383500D02*
X26908000Y-4383500D01*
X26806000Y-6110500D02*
X26908000Y-6212500D01*
X26908000Y-6110500D02*
X26806000Y-6212500D01*
X26857000Y-6110500D02*
X26857000Y-6212500D01*
X26806000Y-6161500D02*
X26908000Y-6161500D01*
X27060000Y-4332500D02*
X27162000Y-4434500D01*
X27162000Y-4332500D02*
X27060000Y-4434500D01*
X27111000Y-4332500D02*
X27111000Y-4434500D01*
X27060000Y-4383500D02*
X27162000Y-4383500D01*
X27060000Y-6110500D02*
X27162000Y-6212500D01*
X27162000Y-6110500D02*
X27060000Y-6212500D01*
X27111000Y-6110500D02*
X27111000Y-6212500D01*
X27060000Y-6161500D02*
X27162000Y-6161500D01*
X27314000Y-4332500D02*
X27416000Y-4434500D01*
X27416000Y-4332500D02*
X27314000Y-4434500D01*
X27365000Y-4332500D02*
X27365000Y-4434500D01*
X27314000Y-4383500D02*
X27416000Y-4383500D01*
X27314000Y-6110500D02*
X27416000Y-6212500D01*
X27416000Y-6110500D02*
X27314000Y-6212500D01*
X27365000Y-6110500D02*
X27365000Y-6212500D01*
X27314000Y-6161500D02*
X27416000Y-6161500D01*
X27568000Y-4332500D02*
X27670000Y-4434500D01*
X27670000Y-4332500D02*
X27568000Y-4434500D01*
X27619000Y-4332500D02*
X27619000Y-4434500D01*
X27568000Y-4383500D02*
X27670000Y-4383500D01*
X27568000Y-6110500D02*
X27670000Y-6212500D01*
X27670000Y-6110500D02*
X27568000Y-6212500D01*
X27619000Y-6110500D02*
X27619000Y-6212500D01*
X27568000Y-6161500D02*
X27670000Y-6161500D01*
X27822000Y-4332500D02*
X27924000Y-4434500D01*
X27924000Y-4332500D02*
X27822000Y-4434500D01*
X27873000Y-4332500D02*
X27873000Y-4434500D01*
X27822000Y-4383500D02*
X27924000Y-4383500D01*
X27822000Y-6110500D02*
X27924000Y-6212500D01*
X27924000Y-6110500D02*
X27822000Y-6212500D01*
X27873000Y-6110500D02*
X27873000Y-6212500D01*
X27822000Y-6161500D02*
X27924000Y-6161500D01*
X28076000Y-4332500D02*
X28178000Y-4434500D01*
X28178000Y-4332500D02*
X28076000Y-4434500D01*
X28127000Y-4332500D02*
X28127000Y-4434500D01*
X28076000Y-4383500D02*
X28178000Y-4383500D01*
X28076000Y-6110500D02*
X28178000Y-6212500D01*
X28178000Y-6110500D02*
X28076000Y-6212500D01*
X28127000Y-6110500D02*
X28127000Y-6212500D01*
X28076000Y-6161500D02*
X28178000Y-6161500D01*
X28330000Y-4332500D02*
X28432000Y-4434500D01*
X28432000Y-4332500D02*
X28330000Y-4434500D01*
X28381000Y-4332500D02*
X28381000Y-4434500D01*
X28330000Y-4383500D02*
X28432000Y-4383500D01*
X28330000Y-6110500D02*
X28432000Y-6212500D01*
X28432000Y-6110500D02*
X28330000Y-6212500D01*
X28381000Y-6110500D02*
X28381000Y-6212500D01*
X28330000Y-6161500D02*
X28432000Y-6161500D01*
X28584000Y-4332500D02*
X28686000Y-4434500D01*
X28686000Y-4332500D02*
X28584000Y-4434500D01*
X28635000Y-4332500D02*
X28635000Y-4434500D01*
X28584000Y-4383500D02*
X28686000Y-4383500D01*
X28584000Y-6110500D02*
X28686000Y-6212500D01*
X28686000Y-6110500D02*
X28584000Y-6212500D01*
X28635000Y-6110500D02*
X28635000Y-6212500D01*
X28584000Y-6161500D02*
X28686000Y-6161500D01*
X28838000Y-4332500D02*
X28940000Y-4434500D01*
X28940000Y-4332500D02*
X28838000Y-4434500D01*
X28889000Y-4332500D02*
X28889000Y-4434500D01*
X28838000Y-4383500D02*
X28940000Y-4383500D01*
X28838000Y-6110500D02*
X28940000Y-6212500D01*
X28940000Y-6110500D02*
X28838000Y-6212500D01*
X28889000Y-6110500D02*
X28889000Y-6212500D01*
X28838000Y-6161500D02*
X28940000Y-6161500D01*
X29092000Y-4332500D02*
X29194000Y-4434500D01*
X29194000Y-4332500D02*
X29092000Y-4434500D01*
X29143000Y-4332500D02*
X29143000Y-4434500D01*
X29092000Y-4383500D02*
X29194000Y-4383500D01*
X29092000Y-6110500D02*
X29194000Y-6212500D01*
X29194000Y-6110500D02*
X29092000Y-6212500D01*
X29143000Y-6110500D02*
X29143000Y-6212500D01*
X29092000Y-6161500D02*
X29194000Y-6161500D01*
X29346000Y-4332500D02*
X29448000Y-4434500D01*
X29448000Y-4332500D02*
X29346000Y-4434500D01*
X29397000Y-4332500D02*
X29397000Y-4434500D01*
X29346000Y-4383500D02*
X29448000Y-4383500D01*
X29346000Y-6110500D02*
X29448000Y-6212500D01*
X29448000Y-6110500D02*
X29346000Y-6212500D01*
X29397000Y-6110500D02*
X29397000Y-6212500D01*
X29346000Y-6161500D02*
X29448000Y-6161500D01*
X29600000Y-4332500D02*
X29702000Y-4434500D01*
X29702000Y-4332500D02*
X29600000Y-4434500D01*
X29651000Y-4332500D02*
X29651000Y-4434500D01*
X29600000Y-4383500D02*
X29702000Y-4383500D01*
X29600000Y-6110500D02*
X29702000Y-6212500D01*
X29702000Y-6110500D02*
X29600000Y-6212500D01*
X29651000Y-6110500D02*
X29651000Y-6212500D01*
X29600000Y-6161500D02*
X29702000Y-6161500D01*
X29854000Y-4332500D02*
X29956000Y-4434500D01*
X29956000Y-4332500D02*
X29854000Y-4434500D01*
X29905000Y-4332500D02*
X29905000Y-4434500D01*
X29854000Y-4383500D02*
X29956000Y-4383500D01*
X29854000Y-6110500D02*
X29956000Y-6212500D01*
X29956000Y-6110500D02*
X29854000Y-6212500D01*
X29905000Y-6110500D02*
X29905000Y-6212500D01*
X29854000Y-6161500D02*
X29956000Y-6161500D01*
X30108000Y-4332500D02*
X30210000Y-4434500D01*
X30210000Y-4332500D02*
X30108000Y-4434500D01*
X30159000Y-4332500D02*
X30159000Y-4434500D01*
X30108000Y-4383500D02*
X30210000Y-4383500D01*
X30108000Y-6110500D02*
X30210000Y-6212500D01*
X30210000Y-6110500D02*
X30108000Y-6212500D01*
X30159000Y-6110500D02*
X30159000Y-6212500D01*
X30108000Y-6161500D02*
X30210000Y-6161500D01*
X30362000Y-4332500D02*
X30464000Y-4434500D01*
X30464000Y-4332500D02*
X30362000Y-4434500D01*
X30413000Y-4332500D02*
X30413000Y-4434500D01*
X30362000Y-4383500D02*
X30464000Y-4383500D01*
X30362000Y-6110500D02*
X30464000Y-6212500D01*
X30464000Y-6110500D02*
X30362000Y-6212500D01*
X30413000Y-6110500D02*
X30413000Y-6212500D01*
X30362000Y-6161500D02*
X30464000Y-6161500D01*
X31636000Y-4332500D02*
X31738000Y-4434500D01*
X31738000Y-4332500D02*
X31636000Y-4434500D01*
X31687000Y-4332500D02*
X31687000Y-4434500D01*
X31636000Y-4383500D02*
X31738000Y-4383500D01*
X31636000Y-6110500D02*
X31738000Y-6212500D01*
X31738000Y-6110500D02*
X31636000Y-6212500D01*
X31687000Y-6110500D02*
X31687000Y-6212500D01*
X31636000Y-6161500D02*
X31738000Y-6161500D01*
X31890000Y-4332500D02*
X31992000Y-4434500D01*
X31992000Y-4332500D02*
X31890000Y-4434500D01*
X31941000Y-4332500D02*
X31941000Y-4434500D01*
X31890000Y-4383500D02*
X31992000Y-4383500D01*
X31890000Y-6110500D02*
X31992000Y-6212500D01*
X31992000Y-6110500D02*
X31890000Y-6212500D01*
X31941000Y-6110500D02*
X31941000Y-6212500D01*
X31890000Y-6161500D02*
X31992000Y-6161500D01*
X32144000Y-4332500D02*
X32246000Y-4434500D01*
X32246000Y-4332500D02*
X32144000Y-4434500D01*
X32195000Y-4332500D02*
X32195000Y-4434500D01*
X32144000Y-4383500D02*
X32246000Y-4383500D01*
X32144000Y-6110500D02*
X32246000Y-6212500D01*
X32246000Y-6110500D02*
X32144000Y-6212500D01*
X32195000Y-6110500D02*
X32195000Y-6212500D01*
X32144000Y-6161500D02*
X32246000Y-6161500D01*
X32398000Y-4332500D02*
X32500000Y-4434500D01*
X32500000Y-4332500D02*
X32398000Y-4434500D01*
X32449000Y-4332500D02*
X32449000Y-4434500D01*
X32398000Y-4383500D02*
X32500000Y-4383500D01*
X32398000Y-6110500D02*
X32500000Y-6212500D01*
X32500000Y-6110500D02*
X32398000Y-6212500D01*
X32449000Y-6110500D02*
X32449000Y-6212500D01*
X32398000Y-6161500D02*
X32500000Y-6161500D01*
X32652000Y-4332500D02*
X32754000Y-4434500D01*
X32754000Y-4332500D02*
X32652000Y-4434500D01*
X32703000Y-4332500D02*
X32703000Y-4434500D01*
X32652000Y-4383500D02*
X32754000Y-4383500D01*
X32652000Y-6110500D02*
X32754000Y-6212500D01*
X32754000Y-6110500D02*
X32652000Y-6212500D01*
X32703000Y-6110500D02*
X32703000Y-6212500D01*
X32652000Y-6161500D02*
X32754000Y-6161500D01*
X32906000Y-4332500D02*
X33008000Y-4434500D01*
X33008000Y-4332500D02*
X32906000Y-4434500D01*
X32957000Y-4332500D02*
X32957000Y-4434500D01*
X32906000Y-4383500D02*
X33008000Y-4383500D01*
X32906000Y-6110500D02*
X33008000Y-6212500D01*
X33008000Y-6110500D02*
X32906000Y-6212500D01*
X32957000Y-6110500D02*
X32957000Y-6212500D01*
X32906000Y-6161500D02*
X33008000Y-6161500D01*
X33160000Y-4332500D02*
X33262000Y-4434500D01*
X33262000Y-4332500D02*
X33160000Y-4434500D01*
X33211000Y-4332500D02*
X33211000Y-4434500D01*
X33160000Y-4383500D02*
X33262000Y-4383500D01*
X33160000Y-6110500D02*
X33262000Y-6212500D01*
X33262000Y-6110500D02*
X33160000Y-6212500D01*
X33211000Y-6110500D02*
X33211000Y-6212500D01*
X33160000Y-6161500D02*
X33262000Y-6161500D01*
X33414000Y-4332500D02*
X33516000Y-4434500D01*
X33516000Y-4332500D02*
X33414000Y-4434500D01*
X33465000Y-4332500D02*
X33465000Y-4434500D01*
X33414000Y-4383500D02*
X33516000Y-4383500D01*
X33414000Y-6110500D02*
X33516000Y-6212500D01*
X33516000Y-6110500D02*
X33414000Y-6212500D01*
X33465000Y-6110500D02*
X33465000Y-6212500D01*
X33414000Y-6161500D02*
X33516000Y-6161500D01*
X33668000Y-4332500D02*
X33770000Y-4434500D01*
X33770000Y-4332500D02*
X33668000Y-4434500D01*
X33719000Y-4332500D02*
X33719000Y-4434500D01*
X33668000Y-4383500D02*
X33770000Y-4383500D01*
X33668000Y-6110500D02*
X33770000Y-6212500D01*
X33770000Y-6110500D02*
X33668000Y-6212500D01*
X33719000Y-6110500D02*
X33719000Y-6212500D01*
X33668000Y-6161500D02*
X33770000Y-6161500D01*
X33922000Y-4332500D02*
X34024000Y-4434500D01*
X34024000Y-4332500D02*
X33922000Y-4434500D01*
X33973000Y-4332500D02*
X33973000Y-4434500D01*
X33922000Y-4383500D02*
X34024000Y-4383500D01*
X33922000Y-6110500D02*
X34024000Y-6212500D01*
X34024000Y-6110500D02*
X33922000Y-6212500D01*
X33973000Y-6110500D02*
X33973000Y-6212500D01*
X33922000Y-6161500D02*
X34024000Y-6161500D01*
X34176000Y-4332500D02*
X34278000Y-4434500D01*
X34278000Y-4332500D02*
X34176000Y-4434500D01*
X34227000Y-4332500D02*
X34227000Y-4434500D01*
X34176000Y-4383500D02*
X34278000Y-4383500D01*
X34176000Y-6110500D02*
X34278000Y-6212500D01*
X34278000Y-6110500D02*
X34176000Y-6212500D01*
X34227000Y-6110500D02*
X34227000Y-6212500D01*
X34176000Y-6161500D02*
X34278000Y-6161500D01*
X34430000Y-4332500D02*
X34532000Y-4434500D01*
X34532000Y-4332500D02*
X34430000Y-4434500D01*
X34481000Y-4332500D02*
X34481000Y-4434500D01*
X34430000Y-4383500D02*
X34532000Y-4383500D01*
X34430000Y-6110500D02*
X34532000Y-6212500D01*
X34532000Y-6110500D02*
X34430000Y-6212500D01*
X34481000Y-6110500D02*
X34481000Y-6212500D01*
X34430000Y-6161500D02*
X34532000Y-6161500D01*
X34684000Y-4332500D02*
X34786000Y-4434500D01*
X34786000Y-4332500D02*
X34684000Y-4434500D01*
X34735000Y-4332500D02*
X34735000Y-4434500D01*
X34684000Y-4383500D02*
X34786000Y-4383500D01*
X34684000Y-6110500D02*
X34786000Y-6212500D01*
X34786000Y-6110500D02*
X34684000Y-6212500D01*
X34735000Y-6110500D02*
X34735000Y-6212500D01*
X34684000Y-6161500D02*
X34786000Y-6161500D01*
X34938000Y-4332500D02*
X35040000Y-4434500D01*
X35040000Y-4332500D02*
X34938000Y-4434500D01*
X34989000Y-4332500D02*
X34989000Y-4434500D01*
X34938000Y-4383500D02*
X35040000Y-4383500D01*
X34938000Y-6110500D02*
X35040000Y-6212500D01*
X35040000Y-6110500D02*
X34938000Y-6212500D01*
X34989000Y-6110500D02*
X34989000Y-6212500D01*
X34938000Y-6161500D02*
X35040000Y-6161500D01*
X35192000Y-4332500D02*
X35294000Y-4434500D01*
X35294000Y-4332500D02*
X35192000Y-4434500D01*
X35243000Y-4332500D02*
X35243000Y-4434500D01*
X35192000Y-4383500D02*
X35294000Y-4383500D01*
X35192000Y-6110500D02*
X35294000Y-6212500D01*
X35294000Y-6110500D02*
X35192000Y-6212500D01*
X35243000Y-6110500D02*
X35243000Y-6212500D01*
X35192000Y-6161500D02*
X35294000Y-6161500D01*
X35446000Y-4332500D02*
X35548000Y-4434500D01*
X35548000Y-4332500D02*
X35446000Y-4434500D01*
X35497000Y-4332500D02*
X35497000Y-4434500D01*
X35446000Y-4383500D02*
X35548000Y-4383500D01*
X35446000Y-6110500D02*
X35548000Y-6212500D01*
X35548000Y-6110500D02*
X35446000Y-6212500D01*
X35497000Y-6110500D02*
X35497000Y-6212500D01*
X35446000Y-6161500D02*
X35548000Y-6161500D01*
X35700000Y-4332500D02*
X35802000Y-4434500D01*
X35802000Y-4332500D02*
X35700000Y-4434500D01*
X35751000Y-4332500D02*
X35751000Y-4434500D01*
X35700000Y-4383500D02*
X35802000Y-4383500D01*
X35700000Y-6110500D02*
X35802000Y-6212500D01*
X35802000Y-6110500D02*
X35700000Y-6212500D01*
X35751000Y-6110500D02*
X35751000Y-6212500D01*
X35700000Y-6161500D02*
X35802000Y-6161500D01*
X35954000Y-4332500D02*
X36056000Y-4434500D01*
X36056000Y-4332500D02*
X35954000Y-4434500D01*
X36005000Y-4332500D02*
X36005000Y-4434500D01*
X35954000Y-4383500D02*
X36056000Y-4383500D01*
X35954000Y-6110500D02*
X36056000Y-6212500D01*
X36056000Y-6110500D02*
X35954000Y-6212500D01*
X36005000Y-6110500D02*
X36005000Y-6212500D01*
X35954000Y-6161500D02*
X36056000Y-6161500D01*
X36208000Y-4332500D02*
X36310000Y-4434500D01*
X36310000Y-4332500D02*
X36208000Y-4434500D01*
X36259000Y-4332500D02*
X36259000Y-4434500D01*
X36208000Y-4383500D02*
X36310000Y-4383500D01*
X36208000Y-6110500D02*
X36310000Y-6212500D01*
X36310000Y-6110500D02*
X36208000Y-6212500D01*
X36259000Y-6110500D02*
X36259000Y-6212500D01*
X36208000Y-6161500D02*
X36310000Y-6161500D01*
X36439000Y-4967500D02*
X36541000Y-5069500D01*
X36541000Y-4967500D02*
X36439000Y-5069500D01*
X36490000Y-4967500D02*
X36490000Y-5069500D01*
X36439000Y-5018500D02*
X36541000Y-5018500D01*
X36439000Y-5221500D02*
X36541000Y-5323500D01*
X36541000Y-5221500D02*
X36439000Y-5323500D01*
X36490000Y-5221500D02*
X36490000Y-5323500D01*
X36439000Y-5272500D02*
X36541000Y-5272500D01*
X36439000Y-5475500D02*
X36541000Y-5577500D01*
X36541000Y-5475500D02*
X36439000Y-5577500D01*
X36490000Y-5475500D02*
X36490000Y-5577500D01*
X36439000Y-5526500D02*
X36541000Y-5526500D01*
X36462000Y-4332500D02*
X36564000Y-4434500D01*
X36564000Y-4332500D02*
X36462000Y-4434500D01*
X36513000Y-4332500D02*
X36513000Y-4434500D01*
X36462000Y-4383500D02*
X36564000Y-4383500D01*
X36462000Y-6110500D02*
X36564000Y-6212500D01*
X36564000Y-6110500D02*
X36462000Y-6212500D01*
X36513000Y-6110500D02*
X36513000Y-6212500D01*
X36462000Y-6161500D02*
X36564000Y-6161500D01*
D18*
X10664000Y-7231000D02*
X10814000Y-7381000D01*
X10814000Y-7231000D02*
X10664000Y-7381000D01*
X10792034Y-7359033D02*
X10792034Y-7252966D01*
X10685967Y-7252966D01*
X10685967Y-7359033D01*
X10792034Y-7359033D01*
X10674000Y-17481000D02*
X10824000Y-17631000D01*
X10824000Y-17481000D02*
X10674000Y-17631000D01*
X10802034Y-17609034D02*
X10802034Y-17502967D01*
X10695967Y-17502967D01*
X10695967Y-17609034D01*
X10802034Y-17609034D01*
X10684000Y-10331000D02*
X10834000Y-10481000D01*
X10834000Y-10331000D02*
X10684000Y-10481000D01*
X10812034Y-10459034D02*
X10812034Y-10352967D01*
X10705967Y-10352967D01*
X10705967Y-10459034D01*
X10812034Y-10459034D01*
X10684000Y-15101000D02*
X10834000Y-15251000D01*
X10834000Y-15101000D02*
X10684000Y-15251000D01*
X10812034Y-15229033D02*
X10812034Y-15122966D01*
X10705967Y-15122966D01*
X10705967Y-15229033D01*
X10812034Y-15229033D01*
X10704000Y-12721000D02*
X10854000Y-12871000D01*
X10854000Y-12721000D02*
X10704000Y-12871000D01*
X10832034Y-12849033D02*
X10832034Y-12742966D01*
X10725967Y-12742966D01*
X10725967Y-12849033D01*
X10832034Y-12849033D01*
X11154000Y-19871000D02*
X11304000Y-20021000D01*
X11304000Y-19871000D02*
X11154000Y-20021000D01*
X11282033Y-19999034D02*
X11282033Y-19892967D01*
X11175967Y-19892967D01*
X11175967Y-19999034D01*
X11282033Y-19999034D01*
X11299000Y-6977000D02*
X11449000Y-7127000D01*
X11449000Y-6977000D02*
X11299000Y-7127000D01*
X11427033Y-7105033D02*
X11427033Y-6998966D01*
X11320966Y-6998966D01*
X11320966Y-7105033D01*
X11427033Y-7105033D01*
X11309000Y-17227000D02*
X11459000Y-17377000D01*
X11459000Y-17227000D02*
X11309000Y-17377000D01*
X11437033Y-17355034D02*
X11437033Y-17248967D01*
X11330966Y-17248967D01*
X11330966Y-17355034D01*
X11437033Y-17355034D01*
X11319000Y-10077000D02*
X11469000Y-10227000D01*
X11469000Y-10077000D02*
X11319000Y-10227000D01*
X11447033Y-10205034D02*
X11447033Y-10098967D01*
X11340966Y-10098967D01*
X11340966Y-10205034D01*
X11447033Y-10205034D01*
X11319000Y-14847000D02*
X11469000Y-14997000D01*
X11469000Y-14847000D02*
X11319000Y-14997000D01*
X11447033Y-14975033D02*
X11447033Y-14868966D01*
X11340966Y-14868966D01*
X11340966Y-14975033D01*
X11447033Y-14975033D01*
X11339000Y-12467000D02*
X11489000Y-12617000D01*
X11489000Y-12467000D02*
X11339000Y-12617000D01*
X11467033Y-12595033D02*
X11467033Y-12488966D01*
X11360966Y-12488966D01*
X11360966Y-12595033D01*
X11467033Y-12595033D01*
X11789000Y-19617000D02*
X11939000Y-19767000D01*
X11939000Y-19617000D02*
X11789000Y-19767000D01*
X11917033Y-19745034D02*
X11917033Y-19638967D01*
X11810966Y-19638967D01*
X11810966Y-19745034D01*
X11917033Y-19745034D01*
X13524000Y-7241000D02*
X13674000Y-7391000D01*
X13674000Y-7241000D02*
X13524000Y-7391000D01*
X13652033Y-7369033D02*
X13652033Y-7262966D01*
X13545966Y-7262966D01*
X13545966Y-7369033D01*
X13652033Y-7369033D01*
X13524000Y-19861000D02*
X13674000Y-20011000D01*
X13674000Y-19861000D02*
X13524000Y-20011000D01*
X13652033Y-19989034D02*
X13652033Y-19882967D01*
X13545966Y-19882967D01*
X13545966Y-19989034D01*
X13652033Y-19989034D01*
X13534000Y-12721000D02*
X13684000Y-12871000D01*
X13684000Y-12721000D02*
X13534000Y-12871000D01*
X13662033Y-12849033D02*
X13662033Y-12742966D01*
X13555966Y-12742966D01*
X13555966Y-12849033D01*
X13662033Y-12849033D01*
X13544000Y-10351000D02*
X13694000Y-10501000D01*
X13694000Y-10351000D02*
X13544000Y-10501000D01*
X13672033Y-10479034D02*
X13672033Y-10372967D01*
X13565966Y-10372967D01*
X13565966Y-10479034D01*
X13672033Y-10479034D01*
X13544000Y-17461000D02*
X13694000Y-17611000D01*
X13694000Y-17461000D02*
X13544000Y-17611000D01*
X13672033Y-17589034D02*
X13672033Y-17482967D01*
X13565966Y-17482967D01*
X13565966Y-17589034D01*
X13672033Y-17589034D01*
X13574000Y-15091000D02*
X13724000Y-15241000D01*
X13724000Y-15091000D02*
X13574000Y-15241000D01*
X13702033Y-15219033D02*
X13702033Y-15112966D01*
X13595966Y-15112966D01*
X13595966Y-15219033D01*
X13702033Y-15219033D01*
X14159000Y-6987000D02*
X14309000Y-7137000D01*
X14309000Y-6987000D02*
X14159000Y-7137000D01*
X14287033Y-7115033D02*
X14287033Y-7008966D01*
X14180966Y-7008966D01*
X14180966Y-7115033D01*
X14287033Y-7115033D01*
X14159000Y-19607000D02*
X14309000Y-19757000D01*
X14309000Y-19607000D02*
X14159000Y-19757000D01*
X14287033Y-19735034D02*
X14287033Y-19628967D01*
X14180966Y-19628967D01*
X14180966Y-19735034D01*
X14287033Y-19735034D01*
X14169000Y-12467000D02*
X14319000Y-12617000D01*
X14319000Y-12467000D02*
X14169000Y-12617000D01*
X14297033Y-12595033D02*
X14297033Y-12488966D01*
X14190966Y-12488966D01*
X14190966Y-12595033D01*
X14297033Y-12595033D01*
X14179000Y-10097000D02*
X14329000Y-10247000D01*
X14329000Y-10097000D02*
X14179000Y-10247000D01*
X14307033Y-10225034D02*
X14307033Y-10118967D01*
X14200966Y-10118967D01*
X14200966Y-10225034D01*
X14307033Y-10225034D01*
X14179000Y-17207000D02*
X14329000Y-17357000D01*
X14329000Y-17207000D02*
X14179000Y-17357000D01*
X14307033Y-17335034D02*
X14307033Y-17228967D01*
X14200966Y-17228967D01*
X14200966Y-17335034D01*
X14307033Y-17335034D01*
X14209000Y-14837000D02*
X14359000Y-14987000D01*
X14359000Y-14837000D02*
X14209000Y-14987000D01*
X14337033Y-14965033D02*
X14337033Y-14858966D01*
X14230966Y-14858966D01*
X14230966Y-14965033D01*
X14337033Y-14965033D01*
X15914000Y-12251000D02*
X16064000Y-12401000D01*
X16064000Y-12251000D02*
X15914000Y-12401000D01*
X16042033Y-12379033D02*
X16042033Y-12272966D01*
X15935966Y-12272966D01*
X15935966Y-12379033D01*
X16042033Y-12379033D01*
X15914000Y-17001000D02*
X16064000Y-17151000D01*
X16064000Y-17001000D02*
X15914000Y-17151000D01*
X16042033Y-17129034D02*
X16042033Y-17022967D01*
X15935966Y-17022967D01*
X15935966Y-17129034D01*
X16042033Y-17129034D01*
X15924000Y-19381000D02*
X16074000Y-19531000D01*
X16074000Y-19381000D02*
X15924000Y-19531000D01*
X16052033Y-19509034D02*
X16052033Y-19402967D01*
X15945966Y-19402967D01*
X15945966Y-19509034D01*
X16052033Y-19509034D01*
X15934000Y-14621000D02*
X16084000Y-14771000D01*
X16084000Y-14621000D02*
X15934000Y-14771000D01*
X16062033Y-14749033D02*
X16062033Y-14642966D01*
X15955966Y-14642966D01*
X15955966Y-14749033D01*
X16062033Y-14749033D01*
X15944000Y-9871000D02*
X16094000Y-10021000D01*
X16094000Y-9871000D02*
X15944000Y-10021000D01*
X16072033Y-9999034D02*
X16072033Y-9892967D01*
X15965966Y-9892967D01*
X15965966Y-9999034D01*
X16072033Y-9999034D01*
X16404000Y-7241000D02*
X16554000Y-7391000D01*
X16554000Y-7241000D02*
X16404000Y-7391000D01*
X16532033Y-7369033D02*
X16532033Y-7262966D01*
X16425966Y-7262966D01*
X16425966Y-7369033D01*
X16532033Y-7369033D01*
X16549000Y-11997000D02*
X16699000Y-12147000D01*
X16699000Y-11997000D02*
X16549000Y-12147000D01*
X16677033Y-12125033D02*
X16677033Y-12018966D01*
X16570966Y-12018966D01*
X16570966Y-12125033D01*
X16677033Y-12125033D01*
X16549000Y-16747000D02*
X16699000Y-16897000D01*
X16699000Y-16747000D02*
X16549000Y-16897000D01*
X16677033Y-16875034D02*
X16677033Y-16768966D01*
X16570966Y-16768966D01*
X16570966Y-16875034D01*
X16677033Y-16875034D01*
X16559000Y-19127000D02*
X16709000Y-19277000D01*
X16709000Y-19127000D02*
X16559000Y-19277000D01*
X16687033Y-19255034D02*
X16687033Y-19148967D01*
X16580966Y-19148967D01*
X16580966Y-19255034D01*
X16687033Y-19255034D01*
X16569000Y-14367000D02*
X16719000Y-14517000D01*
X16719000Y-14367000D02*
X16569000Y-14517000D01*
X16697033Y-14495033D02*
X16697033Y-14388966D01*
X16590966Y-14388966D01*
X16590966Y-14495033D01*
X16697033Y-14495033D01*
X16579000Y-9617000D02*
X16729000Y-9767000D01*
X16729000Y-9617000D02*
X16579000Y-9767000D01*
X16707033Y-9745034D02*
X16707033Y-9638967D01*
X16600966Y-9638967D01*
X16600966Y-9745034D01*
X16707033Y-9745034D01*
X17039000Y-6987000D02*
X17189000Y-7137000D01*
X17189000Y-6987000D02*
X17039000Y-7137000D01*
X17167034Y-7115033D02*
X17167034Y-7008966D01*
X17060967Y-7008966D01*
X17060967Y-7115033D01*
X17167034Y-7115033D01*
X18294000Y-14381000D02*
X18444000Y-14531000D01*
X18444000Y-14381000D02*
X18294000Y-14531000D01*
X18422034Y-14509033D02*
X18422034Y-14402966D01*
X18315967Y-14402966D01*
X18315967Y-14509033D01*
X18422034Y-14509033D01*
X18294000Y-16751000D02*
X18444000Y-16901000D01*
X18444000Y-16751000D02*
X18294000Y-16901000D01*
X18422034Y-16879034D02*
X18422034Y-16772966D01*
X18315967Y-16772966D01*
X18315967Y-16879034D01*
X18422034Y-16879034D01*
X18294000Y-19151000D02*
X18444000Y-19301000D01*
X18444000Y-19151000D02*
X18294000Y-19301000D01*
X18422034Y-19279034D02*
X18422034Y-19172967D01*
X18315967Y-19172967D01*
X18315967Y-19279034D01*
X18422034Y-19279034D01*
X18304000Y-9611000D02*
X18454000Y-9761000D01*
X18454000Y-9611000D02*
X18304000Y-9761000D01*
X18432034Y-9739034D02*
X18432034Y-9632967D01*
X18325967Y-9632967D01*
X18325967Y-9739034D01*
X18432034Y-9739034D01*
X18304000Y-11991000D02*
X18454000Y-12141000D01*
X18454000Y-11991000D02*
X18304000Y-12141000D01*
X18432034Y-12119033D02*
X18432034Y-12012966D01*
X18325967Y-12012966D01*
X18325967Y-12119033D01*
X18432034Y-12119033D01*
X18929000Y-14127000D02*
X19079000Y-14277000D01*
X19079000Y-14127000D02*
X18929000Y-14277000D01*
X19057034Y-14255033D02*
X19057034Y-14148966D01*
X18950967Y-14148966D01*
X18950967Y-14255033D01*
X19057034Y-14255033D01*
X18929000Y-16497000D02*
X19079000Y-16647000D01*
X19079000Y-16497000D02*
X18929000Y-16647000D01*
X19057034Y-16625033D02*
X19057034Y-16518966D01*
X18950967Y-16518966D01*
X18950967Y-16625033D01*
X19057034Y-16625033D01*
X18929000Y-18897000D02*
X19079000Y-19047000D01*
X19079000Y-18897000D02*
X18929000Y-19047000D01*
X19057034Y-19025034D02*
X19057034Y-18918967D01*
X18950967Y-18918967D01*
X18950967Y-19025034D01*
X19057034Y-19025034D01*
X18939000Y-9357000D02*
X19089000Y-9507000D01*
X19089000Y-9357000D02*
X18939000Y-9507000D01*
X19067034Y-9485034D02*
X19067034Y-9378967D01*
X18960967Y-9378967D01*
X18960967Y-9485034D01*
X19067034Y-9485034D01*
X18939000Y-11737000D02*
X19089000Y-11887000D01*
X19089000Y-11737000D02*
X18939000Y-11887000D01*
X19067034Y-11865033D02*
X19067034Y-11758966D01*
X18960967Y-11758966D01*
X18960967Y-11865033D01*
X19067034Y-11865033D01*
X19264000Y-7231000D02*
X19414000Y-7381000D01*
X19414000Y-7231000D02*
X19264000Y-7381000D01*
X19392034Y-7359033D02*
X19392034Y-7252966D01*
X19285967Y-7252966D01*
X19285967Y-7359033D01*
X19392034Y-7359033D01*
X19899000Y-6977000D02*
X20049000Y-7127000D01*
X20049000Y-6977000D02*
X19899000Y-7127000D01*
X20027034Y-7105033D02*
X20027034Y-6998966D01*
X19920967Y-6998966D01*
X19920967Y-7105033D01*
X20027034Y-7105033D01*
X20664000Y-14621000D02*
X20814000Y-14771000D01*
X20814000Y-14621000D02*
X20664000Y-14771000D01*
X20792034Y-14749033D02*
X20792034Y-14642966D01*
X20685967Y-14642966D01*
X20685967Y-14749033D01*
X20792034Y-14749033D01*
X20684000Y-12241000D02*
X20834000Y-12391000D01*
X20834000Y-12241000D02*
X20684000Y-12391000D01*
X20812034Y-12369033D02*
X20812034Y-12262966D01*
X20705967Y-12262966D01*
X20705967Y-12369033D01*
X20812034Y-12369033D01*
X20684000Y-17011000D02*
X20834000Y-17161000D01*
X20834000Y-17011000D02*
X20684000Y-17161000D01*
X20812034Y-17139034D02*
X20812034Y-17032967D01*
X20705967Y-17032967D01*
X20705967Y-17139034D01*
X20812034Y-17139034D01*
X20694000Y-9861000D02*
X20844000Y-10011000D01*
X20844000Y-9861000D02*
X20694000Y-10011000D01*
X20822034Y-9989034D02*
X20822034Y-9882967D01*
X20715967Y-9882967D01*
X20715967Y-9989034D01*
X20822034Y-9989034D01*
X20694000Y-19391000D02*
X20844000Y-19541000D01*
X20844000Y-19391000D02*
X20694000Y-19541000D01*
X20822034Y-19519034D02*
X20822034Y-19412967D01*
X20715967Y-19412967D01*
X20715967Y-19519034D01*
X20822034Y-19519034D01*
X21299000Y-14367000D02*
X21449000Y-14517000D01*
X21449000Y-14367000D02*
X21299000Y-14517000D01*
X21427034Y-14495033D02*
X21427034Y-14388966D01*
X21320967Y-14388966D01*
X21320967Y-14495033D01*
X21427034Y-14495033D01*
X21319000Y-11987000D02*
X21469000Y-12137000D01*
X21469000Y-11987000D02*
X21319000Y-12137000D01*
X21447034Y-12115033D02*
X21447034Y-12008966D01*
X21340967Y-12008966D01*
X21340967Y-12115033D01*
X21447034Y-12115033D01*
X21319000Y-16757000D02*
X21469000Y-16907000D01*
X21469000Y-16757000D02*
X21319000Y-16907000D01*
X21447034Y-16885034D02*
X21447034Y-16778967D01*
X21340967Y-16778967D01*
X21340967Y-16885034D01*
X21447034Y-16885034D01*
X21329000Y-9607000D02*
X21479000Y-9757000D01*
X21479000Y-9607000D02*
X21329000Y-9757000D01*
X21457034Y-9735034D02*
X21457034Y-9628967D01*
X21350967Y-9628967D01*
X21350967Y-9735034D01*
X21457034Y-9735034D01*
X21329000Y-19137000D02*
X21479000Y-19287000D01*
X21479000Y-19137000D02*
X21329000Y-19287000D01*
X21457034Y-19265034D02*
X21457034Y-19158967D01*
X21350967Y-19158967D01*
X21350967Y-19265034D01*
X21457034Y-19265034D01*
X22134000Y-7221000D02*
X22284000Y-7371000D01*
X22284000Y-7221000D02*
X22134000Y-7371000D01*
X22262034Y-7349033D02*
X22262034Y-7242966D01*
X22155967Y-7242966D01*
X22155967Y-7349033D01*
X22262034Y-7349033D01*
X22769000Y-6967000D02*
X22919000Y-7117000D01*
X22919000Y-6967000D02*
X22769000Y-7117000D01*
X22897033Y-7095033D02*
X22897033Y-6988966D01*
X22790966Y-6988966D01*
X22790966Y-7095033D01*
X22897033Y-7095033D01*
X23044000Y-17241000D02*
X23194000Y-17391000D01*
X23194000Y-17241000D02*
X23044000Y-17391000D01*
X23172033Y-17369034D02*
X23172033Y-17262967D01*
X23065966Y-17262967D01*
X23065966Y-17369034D01*
X23172033Y-17369034D01*
X23054000Y-10081000D02*
X23204000Y-10231000D01*
X23204000Y-10081000D02*
X23054000Y-10231000D01*
X23182033Y-10209034D02*
X23182033Y-10102967D01*
X23075966Y-10102967D01*
X23075966Y-10209034D01*
X23182033Y-10209034D01*
X23054000Y-14851000D02*
X23204000Y-15001000D01*
X23204000Y-14851000D02*
X23054000Y-15001000D01*
X23182033Y-14979033D02*
X23182033Y-14872966D01*
X23075966Y-14872966D01*
X23075966Y-14979033D01*
X23182033Y-14979033D01*
X23074000Y-12471000D02*
X23224000Y-12621000D01*
X23224000Y-12471000D02*
X23074000Y-12621000D01*
X23202033Y-12599033D02*
X23202033Y-12492966D01*
X23095966Y-12492966D01*
X23095966Y-12599033D01*
X23202033Y-12599033D01*
X23679000Y-16987000D02*
X23829000Y-17137000D01*
X23829000Y-16987000D02*
X23679000Y-17137000D01*
X23807033Y-17115034D02*
X23807033Y-17008967D01*
X23700966Y-17008967D01*
X23700966Y-17115034D01*
X23807033Y-17115034D01*
X23689000Y-9827000D02*
X23839000Y-9977000D01*
X23839000Y-9827000D02*
X23689000Y-9977000D01*
X23817033Y-9955034D02*
X23817033Y-9848967D01*
X23710966Y-9848967D01*
X23710966Y-9955034D01*
X23817033Y-9955034D01*
X23689000Y-14597000D02*
X23839000Y-14747000D01*
X23839000Y-14597000D02*
X23689000Y-14747000D01*
X23817033Y-14725033D02*
X23817033Y-14618966D01*
X23710966Y-14618966D01*
X23710966Y-14725033D01*
X23817033Y-14725033D01*
X23709000Y-12217000D02*
X23859000Y-12367000D01*
X23859000Y-12217000D02*
X23709000Y-12367000D01*
X23837033Y-12345033D02*
X23837033Y-12238966D01*
X23730966Y-12238966D01*
X23730966Y-12345033D01*
X23837033Y-12345033D01*
X24206044Y-20906531D02*
X24356044Y-21056531D01*
X24356044Y-20906531D02*
X24206044Y-21056531D01*
X24334077Y-21034564D02*
X24334077Y-20928497D01*
X24228010Y-20928497D01*
X24228010Y-21034564D01*
X24334077Y-21034564D01*
X24882970Y-21004060D02*
X25032970Y-21154060D01*
X25032970Y-21004060D02*
X24882970Y-21154060D01*
X25011003Y-21132094D02*
X25011003Y-21026027D01*
X24904936Y-21026027D01*
X24904936Y-21132094D01*
X25011003Y-21132094D01*
X24954000Y-7251000D02*
X25104000Y-7401000D01*
X25104000Y-7251000D02*
X24954000Y-7401000D01*
X25082033Y-7379033D02*
X25082033Y-7272966D01*
X24975966Y-7272966D01*
X24975966Y-7379033D01*
X25082033Y-7379033D01*
X25434000Y-14861000D02*
X25584000Y-15011000D01*
X25584000Y-14861000D02*
X25434000Y-15011000D01*
X25562033Y-14989033D02*
X25562033Y-14882966D01*
X25455966Y-14882966D01*
X25455966Y-14989033D01*
X25562033Y-14989033D01*
X25444000Y-12471000D02*
X25594000Y-12621000D01*
X25594000Y-12471000D02*
X25444000Y-12621000D01*
X25572033Y-12599033D02*
X25572033Y-12492966D01*
X25465966Y-12492966D01*
X25465966Y-12599033D01*
X25572033Y-12599033D01*
X25454000Y-10091000D02*
X25604000Y-10241000D01*
X25604000Y-10091000D02*
X25454000Y-10241000D01*
X25582033Y-10219034D02*
X25582033Y-10112967D01*
X25475966Y-10112967D01*
X25475966Y-10219034D01*
X25582033Y-10219034D01*
X25454000Y-17241000D02*
X25604000Y-17391000D01*
X25604000Y-17241000D02*
X25454000Y-17391000D01*
X25582033Y-17369034D02*
X25582033Y-17262967D01*
X25475966Y-17262967D01*
X25475966Y-17369034D01*
X25582033Y-17369034D01*
X25589000Y-6997000D02*
X25739000Y-7147000D01*
X25739000Y-6997000D02*
X25589000Y-7147000D01*
X25717033Y-7125033D02*
X25717033Y-7018966D01*
X25610966Y-7018966D01*
X25610966Y-7125033D01*
X25717033Y-7125033D01*
X26069000Y-14607000D02*
X26219000Y-14757000D01*
X26219000Y-14607000D02*
X26069000Y-14757000D01*
X26197033Y-14735033D02*
X26197033Y-14628966D01*
X26090966Y-14628966D01*
X26090966Y-14735033D01*
X26197033Y-14735033D01*
X26079000Y-12217000D02*
X26229000Y-12367000D01*
X26229000Y-12217000D02*
X26079000Y-12367000D01*
X26207033Y-12345033D02*
X26207033Y-12238966D01*
X26100966Y-12238966D01*
X26100966Y-12345033D01*
X26207033Y-12345033D01*
X26089000Y-9837000D02*
X26239000Y-9987000D01*
X26239000Y-9837000D02*
X26089000Y-9987000D01*
X26217033Y-9965034D02*
X26217033Y-9858967D01*
X26110966Y-9858967D01*
X26110966Y-9965034D01*
X26217033Y-9965034D01*
X26089000Y-16987000D02*
X26239000Y-17137000D01*
X26239000Y-16987000D02*
X26089000Y-17137000D01*
X26217033Y-17115034D02*
X26217033Y-17008967D01*
X26110966Y-17008967D01*
X26110966Y-17115034D01*
X26217033Y-17115034D01*
X26276044Y-22086531D02*
X26426044Y-22236531D01*
X26426044Y-22086531D02*
X26276044Y-22236531D01*
X26404077Y-22214564D02*
X26404077Y-22108497D01*
X26298010Y-22108497D01*
X26298010Y-22214564D01*
X26404077Y-22214564D01*
X26952970Y-22184060D02*
X27102970Y-22334060D01*
X27102970Y-22184060D02*
X26952970Y-22334060D01*
X27081003Y-22312094D02*
X27081003Y-22206027D01*
X26974936Y-22206027D01*
X26974936Y-22312094D01*
X27081003Y-22312094D01*
X27456044Y-20026531D02*
X27606044Y-20176531D01*
X27606044Y-20026531D02*
X27456044Y-20176531D01*
X27584077Y-20154564D02*
X27584077Y-20048497D01*
X27478010Y-20048497D01*
X27478010Y-20154564D01*
X27584077Y-20154564D01*
X27699000Y-13417000D02*
X27849000Y-13567000D01*
X27849000Y-13417000D02*
X27699000Y-13567000D01*
X27827033Y-13545033D02*
X27827033Y-13438966D01*
X27720966Y-13438966D01*
X27720966Y-13545033D01*
X27827033Y-13545033D01*
X27721000Y-16743000D02*
X27871000Y-16893000D01*
X27871000Y-16743000D02*
X27721000Y-16893000D01*
X27849033Y-16871034D02*
X27849033Y-16764966D01*
X27742966Y-16764966D01*
X27742966Y-16871034D01*
X27849033Y-16871034D01*
X27824000Y-7241000D02*
X27974000Y-7391000D01*
X27974000Y-7241000D02*
X27824000Y-7391000D01*
X27952033Y-7369033D02*
X27952033Y-7262966D01*
X27845966Y-7262966D01*
X27845966Y-7369033D01*
X27952033Y-7369033D01*
X27824000Y-10091000D02*
X27974000Y-10241000D01*
X27974000Y-10091000D02*
X27824000Y-10241000D01*
X27952033Y-10219034D02*
X27952033Y-10112967D01*
X27845966Y-10112967D01*
X27845966Y-10219034D01*
X27952033Y-10219034D01*
X27953000Y-14052000D02*
X28103000Y-14202000D01*
X28103000Y-14052000D02*
X27953000Y-14202000D01*
X28081033Y-14180033D02*
X28081033Y-14073966D01*
X27974966Y-14073966D01*
X27974966Y-14180033D01*
X28081033Y-14180033D01*
X27975000Y-17378000D02*
X28125000Y-17528000D01*
X28125000Y-17378000D02*
X27975000Y-17528000D01*
X28103033Y-17506034D02*
X28103033Y-17399967D01*
X27996966Y-17399967D01*
X27996966Y-17506034D01*
X28103033Y-17506034D01*
X28132970Y-20124060D02*
X28282970Y-20274060D01*
X28282970Y-20124060D02*
X28132970Y-20274060D01*
X28261003Y-20252094D02*
X28261003Y-20146027D01*
X28154936Y-20146027D01*
X28154936Y-20252094D01*
X28261003Y-20252094D01*
X28336044Y-23296530D02*
X28486044Y-23446530D01*
X28486044Y-23296530D02*
X28336044Y-23446530D01*
X28464077Y-23424564D02*
X28464077Y-23318497D01*
X28358010Y-23318497D01*
X28358010Y-23424564D01*
X28464077Y-23424564D01*
X28459000Y-6987000D02*
X28609000Y-7137000D01*
X28609000Y-6987000D02*
X28459000Y-7137000D01*
X28587033Y-7115033D02*
X28587033Y-7008966D01*
X28480966Y-7008966D01*
X28480966Y-7115033D01*
X28587033Y-7115033D01*
X28459000Y-9837000D02*
X28609000Y-9987000D01*
X28609000Y-9837000D02*
X28459000Y-9987000D01*
X28587033Y-9965034D02*
X28587033Y-9858967D01*
X28480966Y-9858967D01*
X28480966Y-9965034D01*
X28587033Y-9965034D01*
X29012970Y-23394060D02*
X29162970Y-23544060D01*
X29162970Y-23394060D02*
X29012970Y-23544060D01*
X29141003Y-23522093D02*
X29141003Y-23416026D01*
X29034936Y-23416026D01*
X29034936Y-23522093D01*
X29141003Y-23522093D01*
X33190044Y-23661530D02*
X33340044Y-23811530D01*
X33340044Y-23661530D02*
X33190044Y-23811530D01*
X33318077Y-23789564D02*
X33318077Y-23683497D01*
X33212010Y-23683497D01*
X33212010Y-23789564D01*
X33318077Y-23789564D01*
X33307000Y-13441000D02*
X33457000Y-13591000D01*
X33457000Y-13441000D02*
X33307000Y-13591000D01*
X33435033Y-13569033D02*
X33435033Y-13462966D01*
X33328966Y-13462966D01*
X33328966Y-13569033D01*
X33435033Y-13569033D01*
X33317000Y-16771000D02*
X33467000Y-16921000D01*
X33467000Y-16771000D02*
X33317000Y-16921000D01*
X33445033Y-16899034D02*
X33445033Y-16792967D01*
X33338966Y-16792967D01*
X33338966Y-16899034D01*
X33445033Y-16899034D01*
X33402000Y-7255000D02*
X33552000Y-7405000D01*
X33552000Y-7255000D02*
X33402000Y-7405000D01*
X33530033Y-7383033D02*
X33530033Y-7276966D01*
X33423966Y-7276966D01*
X33423966Y-7383033D01*
X33530033Y-7383033D01*
X33422000Y-10105000D02*
X33572000Y-10255000D01*
X33572000Y-10105000D02*
X33422000Y-10255000D01*
X33550033Y-10233034D02*
X33550033Y-10126967D01*
X33443966Y-10126967D01*
X33443966Y-10233034D01*
X33550033Y-10233034D01*
X33561000Y-14076000D02*
X33711000Y-14226000D01*
X33711000Y-14076000D02*
X33561000Y-14226000D01*
X33689034Y-14204033D02*
X33689034Y-14097966D01*
X33582967Y-14097966D01*
X33582967Y-14204033D01*
X33689034Y-14204033D01*
X33571000Y-17406000D02*
X33721000Y-17556000D01*
X33721000Y-17406000D02*
X33571000Y-17556000D01*
X33699034Y-17534034D02*
X33699034Y-17427967D01*
X33592967Y-17427967D01*
X33592967Y-17534034D01*
X33699034Y-17534034D01*
X33612970Y-23124060D02*
X33762970Y-23274060D01*
X33762970Y-23124060D02*
X33612970Y-23274060D01*
X33741004Y-23252093D02*
X33741004Y-23146026D01*
X33634937Y-23146026D01*
X33634937Y-23252093D01*
X33741004Y-23252093D01*
X34037000Y-7001000D02*
X34187000Y-7151000D01*
X34187000Y-7001000D02*
X34037000Y-7151000D01*
X34165034Y-7129033D02*
X34165034Y-7022966D01*
X34058967Y-7022966D01*
X34058967Y-7129033D01*
X34165034Y-7129033D01*
X34050044Y-20398471D02*
X34200044Y-20548471D01*
X34200044Y-20398471D02*
X34050044Y-20548471D01*
X34178077Y-20526504D02*
X34178077Y-20420437D01*
X34072010Y-20420437D01*
X34072010Y-20526504D01*
X34178077Y-20526504D01*
X34057000Y-9851000D02*
X34207000Y-10001000D01*
X34207000Y-9851000D02*
X34057000Y-10001000D01*
X34185034Y-9979034D02*
X34185034Y-9872967D01*
X34078967Y-9872967D01*
X34078967Y-9979034D01*
X34185034Y-9979034D01*
X34472970Y-19861000D02*
X34622970Y-20011000D01*
X34622970Y-19861000D02*
X34472970Y-20011000D01*
X34601004Y-19989034D02*
X34601004Y-19882967D01*
X34494937Y-19882967D01*
X34494937Y-19989034D01*
X34601004Y-19989034D01*
X35260044Y-22471530D02*
X35410044Y-22621530D01*
X35410044Y-22471530D02*
X35260044Y-22621530D01*
X35388077Y-22599564D02*
X35388077Y-22493497D01*
X35282010Y-22493497D01*
X35282010Y-22599564D01*
X35388077Y-22599564D01*
X35682970Y-21934060D02*
X35832970Y-22084060D01*
X35832970Y-21934060D02*
X35682970Y-22084060D01*
X35811004Y-22062094D02*
X35811004Y-21956027D01*
X35704937Y-21956027D01*
X35704937Y-22062094D01*
X35811004Y-22062094D01*
X35802000Y-14875000D02*
X35952000Y-15025000D01*
X35952000Y-14875000D02*
X35802000Y-15025000D01*
X35930034Y-15003033D02*
X35930034Y-14896966D01*
X35823967Y-14896966D01*
X35823967Y-15003033D01*
X35930034Y-15003033D01*
X35812000Y-10095000D02*
X35962000Y-10245000D01*
X35962000Y-10095000D02*
X35812000Y-10245000D01*
X35940034Y-10223034D02*
X35940034Y-10116967D01*
X35833967Y-10116967D01*
X35833967Y-10223034D01*
X35940034Y-10223034D01*
X35822000Y-17245000D02*
X35972000Y-17395000D01*
X35972000Y-17245000D02*
X35822000Y-17395000D01*
X35950034Y-17373034D02*
X35950034Y-17266967D01*
X35843967Y-17266967D01*
X35843967Y-17373034D01*
X35950034Y-17373034D01*
X35832000Y-12495000D02*
X35982000Y-12645000D01*
X35982000Y-12495000D02*
X35832000Y-12645000D01*
X35960034Y-12623033D02*
X35960034Y-12516966D01*
X35853967Y-12516966D01*
X35853967Y-12623033D01*
X35960034Y-12623033D01*
X36282000Y-7245000D02*
X36432000Y-7395000D01*
X36432000Y-7245000D02*
X36282000Y-7395000D01*
X36410034Y-7373033D02*
X36410034Y-7266966D01*
X36303967Y-7266966D01*
X36303967Y-7373033D01*
X36410034Y-7373033D01*
X36437000Y-14621000D02*
X36587000Y-14771000D01*
X36587000Y-14621000D02*
X36437000Y-14771000D01*
X36565034Y-14749033D02*
X36565034Y-14642966D01*
X36458967Y-14642966D01*
X36458967Y-14749033D01*
X36565034Y-14749033D01*
X36447000Y-9841000D02*
X36597000Y-9991000D01*
X36597000Y-9841000D02*
X36447000Y-9991000D01*
X36575034Y-9969034D02*
X36575034Y-9862967D01*
X36468967Y-9862967D01*
X36468967Y-9969034D01*
X36575034Y-9969034D01*
X36457000Y-16991000D02*
X36607000Y-17141000D01*
X36607000Y-16991000D02*
X36457000Y-17141000D01*
X36585034Y-17119034D02*
X36585034Y-17012967D01*
X36478967Y-17012967D01*
X36478967Y-17119034D01*
X36585034Y-17119034D01*
X36467000Y-12241000D02*
X36617000Y-12391000D01*
X36617000Y-12241000D02*
X36467000Y-12391000D01*
X36595034Y-12369033D02*
X36595034Y-12262966D01*
X36488967Y-12262966D01*
X36488967Y-12369033D01*
X36595034Y-12369033D01*
X36917000Y-6991000D02*
X37067000Y-7141000D01*
X37067000Y-6991000D02*
X36917000Y-7141000D01*
X37045034Y-7119033D02*
X37045034Y-7012966D01*
X36938967Y-7012966D01*
X36938967Y-7119033D01*
X37045034Y-7119033D01*
X37320044Y-21271531D02*
X37470044Y-21421531D01*
X37470044Y-21271531D02*
X37320044Y-21421531D01*
X37448077Y-21399564D02*
X37448077Y-21293497D01*
X37342010Y-21293497D01*
X37342010Y-21399564D01*
X37448077Y-21399564D01*
X37742970Y-20734060D02*
X37892970Y-20884060D01*
X37892970Y-20734060D02*
X37742970Y-20884060D01*
X37871004Y-20862094D02*
X37871004Y-20756027D01*
X37764937Y-20756027D01*
X37764937Y-20862094D01*
X37871004Y-20862094D01*
X38192000Y-10115000D02*
X38342000Y-10265000D01*
X38342000Y-10115000D02*
X38192000Y-10265000D01*
X38320034Y-10243034D02*
X38320034Y-10136967D01*
X38213967Y-10136967D01*
X38213967Y-10243034D01*
X38320034Y-10243034D01*
X38192000Y-12485000D02*
X38342000Y-12635000D01*
X38342000Y-12485000D02*
X38192000Y-12635000D01*
X38320034Y-12613033D02*
X38320034Y-12506966D01*
X38213967Y-12506966D01*
X38213967Y-12613033D01*
X38320034Y-12613033D01*
X38202000Y-14865000D02*
X38352000Y-15015000D01*
X38352000Y-14865000D02*
X38202000Y-15015000D01*
X38330034Y-14993033D02*
X38330034Y-14886966D01*
X38223967Y-14886966D01*
X38223967Y-14993033D01*
X38330034Y-14993033D01*
X38202000Y-17225000D02*
X38352000Y-17375000D01*
X38352000Y-17225000D02*
X38202000Y-17375000D01*
X38330034Y-17353034D02*
X38330034Y-17246967D01*
X38223967Y-17246967D01*
X38223967Y-17353034D01*
X38330034Y-17353034D01*
X38827000Y-9861000D02*
X38977000Y-10011000D01*
X38977000Y-9861000D02*
X38827000Y-10011000D01*
X38955034Y-9989034D02*
X38955034Y-9882967D01*
X38848967Y-9882967D01*
X38848967Y-9989034D01*
X38955034Y-9989034D01*
X38827000Y-12231000D02*
X38977000Y-12381000D01*
X38977000Y-12231000D02*
X38827000Y-12381000D01*
X38955034Y-12359033D02*
X38955034Y-12252966D01*
X38848967Y-12252966D01*
X38848967Y-12359033D01*
X38955034Y-12359033D01*
X38837000Y-14611000D02*
X38987000Y-14761000D01*
X38987000Y-14611000D02*
X38837000Y-14761000D01*
X38965034Y-14739033D02*
X38965034Y-14632966D01*
X38858967Y-14632966D01*
X38858967Y-14739033D01*
X38965034Y-14739033D01*
X38837000Y-16971000D02*
X38987000Y-17121000D01*
X38987000Y-16971000D02*
X38837000Y-17121000D01*
X38965034Y-17099034D02*
X38965034Y-16992967D01*
X38858967Y-16992967D01*
X38858967Y-17099034D01*
X38965034Y-17099034D01*
X39142000Y-7255000D02*
X39292000Y-7405000D01*
X39292000Y-7255000D02*
X39142000Y-7405000D01*
X39270034Y-7383033D02*
X39270034Y-7276966D01*
X39163967Y-7276966D01*
X39163967Y-7383033D01*
X39270034Y-7383033D01*
X39777000Y-7001000D02*
X39927000Y-7151000D01*
X39927000Y-7001000D02*
X39777000Y-7151000D01*
X39905034Y-7129033D02*
X39905034Y-7022966D01*
X39798967Y-7022966D01*
X39798967Y-7129033D01*
X39905034Y-7129033D01*
X40572000Y-17015000D02*
X40722000Y-17165000D01*
X40722000Y-17015000D02*
X40572000Y-17165000D01*
X40700034Y-17143034D02*
X40700034Y-17036967D01*
X40593967Y-17036967D01*
X40593967Y-17143034D01*
X40700034Y-17143034D01*
X40582000Y-9875000D02*
X40732000Y-10025000D01*
X40732000Y-9875000D02*
X40582000Y-10025000D01*
X40710034Y-10003034D02*
X40710034Y-9896967D01*
X40603967Y-9896967D01*
X40603967Y-10003034D01*
X40710034Y-10003034D01*
X40582000Y-19395000D02*
X40732000Y-19545000D01*
X40732000Y-19395000D02*
X40582000Y-19545000D01*
X40710034Y-19523034D02*
X40710034Y-19416967D01*
X40603967Y-19416967D01*
X40603967Y-19523034D01*
X40710034Y-19523034D01*
X40592000Y-12245000D02*
X40742000Y-12395000D01*
X40742000Y-12245000D02*
X40592000Y-12395000D01*
X40720034Y-12373033D02*
X40720034Y-12266966D01*
X40613967Y-12266966D01*
X40613967Y-12373033D01*
X40720034Y-12373033D01*
X40592000Y-14645000D02*
X40742000Y-14795000D01*
X40742000Y-14645000D02*
X40592000Y-14795000D01*
X40720034Y-14773033D02*
X40720034Y-14666966D01*
X40613967Y-14666966D01*
X40613967Y-14773033D01*
X40720034Y-14773033D01*
X41207000Y-16761000D02*
X41357000Y-16911000D01*
X41357000Y-16761000D02*
X41207000Y-16911000D01*
X41335034Y-16889034D02*
X41335034Y-16782967D01*
X41228967Y-16782967D01*
X41228967Y-16889034D01*
X41335034Y-16889034D01*
X41217000Y-9621000D02*
X41367000Y-9771000D01*
X41367000Y-9621000D02*
X41217000Y-9771000D01*
X41345034Y-9749034D02*
X41345034Y-9642967D01*
X41238967Y-9642967D01*
X41238967Y-9749034D01*
X41345034Y-9749034D01*
X41217000Y-19141000D02*
X41367000Y-19291000D01*
X41367000Y-19141000D02*
X41217000Y-19291000D01*
X41345034Y-19269034D02*
X41345034Y-19162967D01*
X41238967Y-19162967D01*
X41238967Y-19269034D01*
X41345034Y-19269034D01*
X41227000Y-11991000D02*
X41377000Y-12141000D01*
X41377000Y-11991000D02*
X41227000Y-12141000D01*
X41355034Y-12119033D02*
X41355034Y-12012966D01*
X41248967Y-12012966D01*
X41248967Y-12119033D01*
X41355034Y-12119033D01*
X41227000Y-14391000D02*
X41377000Y-14541000D01*
X41377000Y-14391000D02*
X41227000Y-14541000D01*
X41355034Y-14519033D02*
X41355034Y-14412966D01*
X41248967Y-14412966D01*
X41248967Y-14519033D01*
X41355034Y-14519033D01*
X41996000Y-7257000D02*
X42146000Y-7407000D01*
X42146000Y-7257000D02*
X41996000Y-7407000D01*
X42124034Y-7385033D02*
X42124034Y-7278966D01*
X42017967Y-7278966D01*
X42017967Y-7385033D01*
X42124034Y-7385033D01*
X42631000Y-7003000D02*
X42781000Y-7153000D01*
X42781000Y-7003000D02*
X42631000Y-7153000D01*
X42759034Y-7131033D02*
X42759034Y-7024966D01*
X42652967Y-7024966D01*
X42652967Y-7131033D01*
X42759034Y-7131033D01*
X42942000Y-9645000D02*
X43092000Y-9795000D01*
X43092000Y-9645000D02*
X42942000Y-9795000D01*
X43070034Y-9773034D02*
X43070034Y-9666967D01*
X42963967Y-9666967D01*
X42963967Y-9773034D01*
X43070034Y-9773034D01*
X42958000Y-16767000D02*
X43108000Y-16917000D01*
X43108000Y-16767000D02*
X42958000Y-16917000D01*
X43086034Y-16895034D02*
X43086034Y-16788967D01*
X42979967Y-16788967D01*
X42979967Y-16895034D01*
X43086034Y-16895034D01*
X42962000Y-14405000D02*
X43112000Y-14555000D01*
X43112000Y-14405000D02*
X42962000Y-14555000D01*
X43090034Y-14533033D02*
X43090034Y-14426966D01*
X42983967Y-14426966D01*
X42983967Y-14533033D01*
X43090034Y-14533033D01*
X42972000Y-12025000D02*
X43122000Y-12175000D01*
X43122000Y-12025000D02*
X42972000Y-12175000D01*
X43100034Y-12153033D02*
X43100034Y-12046966D01*
X42993967Y-12046966D01*
X42993967Y-12153033D01*
X43100034Y-12153033D01*
X42972000Y-19135000D02*
X43122000Y-19285000D01*
X43122000Y-19135000D02*
X42972000Y-19285000D01*
X43100034Y-19263034D02*
X43100034Y-19156967D01*
X42993967Y-19156967D01*
X42993967Y-19263034D01*
X43100034Y-19263034D01*
X43577000Y-9391000D02*
X43727000Y-9541000D01*
X43727000Y-9391000D02*
X43577000Y-9541000D01*
X43705034Y-9519034D02*
X43705034Y-9412967D01*
X43598967Y-9412967D01*
X43598967Y-9519034D01*
X43705034Y-9519034D01*
X43593000Y-16513000D02*
X43743000Y-16663000D01*
X43743000Y-16513000D02*
X43593000Y-16663000D01*
X43721034Y-16641033D02*
X43721034Y-16534966D01*
X43614967Y-16534966D01*
X43614967Y-16641033D01*
X43721034Y-16641033D01*
X43597000Y-14151000D02*
X43747000Y-14301000D01*
X43747000Y-14151000D02*
X43597000Y-14301000D01*
X43725034Y-14279033D02*
X43725034Y-14172966D01*
X43618967Y-14172966D01*
X43618967Y-14279033D01*
X43725034Y-14279033D01*
X43607000Y-11771000D02*
X43757000Y-11921000D01*
X43757000Y-11771000D02*
X43607000Y-11921000D01*
X43735034Y-11899033D02*
X43735034Y-11792966D01*
X43628967Y-11792966D01*
X43628967Y-11899033D01*
X43735034Y-11899033D01*
X43607000Y-18881000D02*
X43757000Y-19031000D01*
X43757000Y-18881000D02*
X43607000Y-19031000D01*
X43735034Y-19009034D02*
X43735034Y-18902967D01*
X43628967Y-18902967D01*
X43628967Y-19009034D01*
X43735034Y-19009034D01*
X44862000Y-7265000D02*
X45012000Y-7415000D01*
X45012000Y-7265000D02*
X44862000Y-7415000D01*
X44990033Y-7393033D02*
X44990033Y-7286966D01*
X44883966Y-7286966D01*
X44883966Y-7393033D01*
X44990033Y-7393033D01*
X45322000Y-19405000D02*
X45472000Y-19555000D01*
X45472000Y-19405000D02*
X45322000Y-19555000D01*
X45450033Y-19533034D02*
X45450033Y-19426967D01*
X45343966Y-19426967D01*
X45343966Y-19533034D01*
X45450033Y-19533034D01*
X45342000Y-12485000D02*
X45492000Y-12635000D01*
X45492000Y-12485000D02*
X45342000Y-12635000D01*
X45470033Y-12613033D02*
X45470033Y-12506966D01*
X45363966Y-12506966D01*
X45363966Y-12613033D01*
X45470033Y-12613033D01*
X45352000Y-10105000D02*
X45502000Y-10255000D01*
X45502000Y-10105000D02*
X45352000Y-10255000D01*
X45480033Y-10233034D02*
X45480033Y-10126967D01*
X45373966Y-10126967D01*
X45373966Y-10233034D01*
X45480033Y-10233034D01*
X45352000Y-14635000D02*
X45502000Y-14785000D01*
X45502000Y-14635000D02*
X45352000Y-14785000D01*
X45480033Y-14763033D02*
X45480033Y-14656966D01*
X45373966Y-14656966D01*
X45373966Y-14763033D01*
X45480033Y-14763033D01*
X45382000Y-17025000D02*
X45532000Y-17175000D01*
X45532000Y-17025000D02*
X45382000Y-17175000D01*
X45510033Y-17153034D02*
X45510033Y-17046967D01*
X45403966Y-17046967D01*
X45403966Y-17153034D01*
X45510033Y-17153034D01*
X45497000Y-7011000D02*
X45647000Y-7161000D01*
X45647000Y-7011000D02*
X45497000Y-7161000D01*
X45625033Y-7139033D02*
X45625033Y-7032966D01*
X45518966Y-7032966D01*
X45518966Y-7139033D01*
X45625033Y-7139033D01*
X45957000Y-19151000D02*
X46107000Y-19301000D01*
X46107000Y-19151000D02*
X45957000Y-19301000D01*
X46085033Y-19279034D02*
X46085033Y-19172967D01*
X45978966Y-19172967D01*
X45978966Y-19279034D01*
X46085033Y-19279034D01*
X45977000Y-12231000D02*
X46127000Y-12381000D01*
X46127000Y-12231000D02*
X45977000Y-12381000D01*
X46105033Y-12359033D02*
X46105033Y-12252966D01*
X45998966Y-12252966D01*
X45998966Y-12359033D01*
X46105033Y-12359033D01*
X45987000Y-9851000D02*
X46137000Y-10001000D01*
X46137000Y-9851000D02*
X45987000Y-10001000D01*
X46115033Y-9979034D02*
X46115033Y-9872967D01*
X46008966Y-9872967D01*
X46008966Y-9979034D01*
X46115033Y-9979034D01*
X45987000Y-14381000D02*
X46137000Y-14531000D01*
X46137000Y-14381000D02*
X45987000Y-14531000D01*
X46115033Y-14509033D02*
X46115033Y-14402966D01*
X46008966Y-14402966D01*
X46008966Y-14509033D01*
X46115033Y-14509033D01*
X46017000Y-16771000D02*
X46167000Y-16921000D01*
X46167000Y-16771000D02*
X46017000Y-16921000D01*
X46145033Y-16899034D02*
X46145033Y-16792967D01*
X46038966Y-16792967D01*
X46038966Y-16899034D01*
X46145033Y-16899034D01*
X47702000Y-15105000D02*
X47852000Y-15255000D01*
X47852000Y-15105000D02*
X47702000Y-15255000D01*
X47830033Y-15233033D02*
X47830033Y-15126966D01*
X47723966Y-15126966D01*
X47723966Y-15233033D01*
X47830033Y-15233033D01*
X47702000Y-19885000D02*
X47852000Y-20035000D01*
X47852000Y-19885000D02*
X47702000Y-20035000D01*
X47830033Y-20013034D02*
X47830033Y-19906967D01*
X47723966Y-19906967D01*
X47723966Y-20013034D01*
X47830033Y-20013034D01*
X47712000Y-10355000D02*
X47862000Y-10505000D01*
X47862000Y-10355000D02*
X47712000Y-10505000D01*
X47840033Y-10483034D02*
X47840033Y-10376967D01*
X47733966Y-10376967D01*
X47733966Y-10483034D01*
X47840033Y-10483034D01*
X47712000Y-17475000D02*
X47862000Y-17625000D01*
X47862000Y-17475000D02*
X47712000Y-17625000D01*
X47840033Y-17603034D02*
X47840033Y-17496967D01*
X47733966Y-17496967D01*
X47733966Y-17603034D01*
X47840033Y-17603034D01*
X47722000Y-7245000D02*
X47872000Y-7395000D01*
X47872000Y-7245000D02*
X47722000Y-7395000D01*
X47850033Y-7373033D02*
X47850033Y-7266966D01*
X47743966Y-7266966D01*
X47743966Y-7373033D01*
X47850033Y-7373033D01*
X47732000Y-12735000D02*
X47882000Y-12885000D01*
X47882000Y-12735000D02*
X47732000Y-12885000D01*
X47860033Y-12863033D02*
X47860033Y-12756966D01*
X47753966Y-12756966D01*
X47753966Y-12863033D01*
X47860033Y-12863033D01*
X48337000Y-14851000D02*
X48487000Y-15001000D01*
X48487000Y-14851000D02*
X48337000Y-15001000D01*
X48465033Y-14979033D02*
X48465033Y-14872966D01*
X48358966Y-14872966D01*
X48358966Y-14979033D01*
X48465033Y-14979033D01*
X48337000Y-19631000D02*
X48487000Y-19781000D01*
X48487000Y-19631000D02*
X48337000Y-19781000D01*
X48465033Y-19759034D02*
X48465033Y-19652967D01*
X48358966Y-19652967D01*
X48358966Y-19759034D01*
X48465033Y-19759034D01*
X48347000Y-10101000D02*
X48497000Y-10251000D01*
X48497000Y-10101000D02*
X48347000Y-10251000D01*
X48475033Y-10229034D02*
X48475033Y-10122967D01*
X48368966Y-10122967D01*
X48368966Y-10229034D01*
X48475033Y-10229034D01*
X48347000Y-17221000D02*
X48497000Y-17371000D01*
X48497000Y-17221000D02*
X48347000Y-17371000D01*
X48475033Y-17349034D02*
X48475033Y-17242967D01*
X48368966Y-17242967D01*
X48368966Y-17349034D01*
X48475033Y-17349034D01*
X48357000Y-6991000D02*
X48507000Y-7141000D01*
X48507000Y-6991000D02*
X48357000Y-7141000D01*
X48485033Y-7119033D02*
X48485033Y-7012966D01*
X48378966Y-7012966D01*
X48378966Y-7119033D01*
X48485033Y-7119033D01*
X48367000Y-12481000D02*
X48517000Y-12631000D01*
X48517000Y-12481000D02*
X48367000Y-12631000D01*
X48495033Y-12609033D02*
X48495033Y-12502966D01*
X48388966Y-12502966D01*
X48388966Y-12609033D01*
X48495033Y-12609033D01*
X50092000Y-19895000D02*
X50242000Y-20045000D01*
X50242000Y-19895000D02*
X50092000Y-20045000D01*
X50220033Y-20023034D02*
X50220033Y-19916967D01*
X50113966Y-19916967D01*
X50113966Y-20023034D01*
X50220033Y-20023034D01*
X50572000Y-15115000D02*
X50722000Y-15265000D01*
X50722000Y-15115000D02*
X50572000Y-15265000D01*
X50700033Y-15243033D02*
X50700033Y-15136966D01*
X50593966Y-15136966D01*
X50593966Y-15243033D01*
X50700033Y-15243033D01*
X50582000Y-10345000D02*
X50732000Y-10495000D01*
X50732000Y-10345000D02*
X50582000Y-10495000D01*
X50710033Y-10473034D02*
X50710033Y-10366967D01*
X50603966Y-10366967D01*
X50603966Y-10473034D01*
X50710033Y-10473034D01*
X50582000Y-12725000D02*
X50732000Y-12875000D01*
X50732000Y-12725000D02*
X50582000Y-12875000D01*
X50710033Y-12853033D02*
X50710033Y-12746966D01*
X50603966Y-12746966D01*
X50603966Y-12853033D01*
X50710033Y-12853033D01*
X50592000Y-7255000D02*
X50742000Y-7405000D01*
X50742000Y-7255000D02*
X50592000Y-7405000D01*
X50720033Y-7383033D02*
X50720033Y-7276966D01*
X50613966Y-7276966D01*
X50613966Y-7383033D01*
X50720033Y-7383033D01*
X50602000Y-17485000D02*
X50752000Y-17635000D01*
X50752000Y-17485000D02*
X50602000Y-17635000D01*
X50730033Y-17613034D02*
X50730033Y-17506967D01*
X50623966Y-17506967D01*
X50623966Y-17613034D01*
X50730033Y-17613034D01*
X50727000Y-19641000D02*
X50877000Y-19791000D01*
X50877000Y-19641000D02*
X50727000Y-19791000D01*
X50855033Y-19769034D02*
X50855033Y-19662967D01*
X50748966Y-19662967D01*
X50748966Y-19769034D01*
X50855033Y-19769034D01*
X51207000Y-14861000D02*
X51357000Y-15011000D01*
X51357000Y-14861000D02*
X51207000Y-15011000D01*
X51335033Y-14989033D02*
X51335033Y-14882966D01*
X51228966Y-14882966D01*
X51228966Y-14989033D01*
X51335033Y-14989033D01*
X51217000Y-10091000D02*
X51367000Y-10241000D01*
X51367000Y-10091000D02*
X51217000Y-10241000D01*
X51345033Y-10219034D02*
X51345033Y-10112967D01*
X51238966Y-10112967D01*
X51238966Y-10219034D01*
X51345033Y-10219034D01*
X51217000Y-12471000D02*
X51367000Y-12621000D01*
X51367000Y-12471000D02*
X51217000Y-12621000D01*
X51345033Y-12599033D02*
X51345033Y-12492966D01*
X51238966Y-12492966D01*
X51238966Y-12599033D01*
X51345033Y-12599033D01*
X51227000Y-7001000D02*
X51377000Y-7151000D01*
X51377000Y-7001000D02*
X51227000Y-7151000D01*
X51355033Y-7129033D02*
X51355033Y-7022966D01*
X51248966Y-7022966D01*
X51248966Y-7129033D01*
X51355033Y-7129033D01*
X51237000Y-17231000D02*
X51387000Y-17381000D01*
X51387000Y-17231000D02*
X51237000Y-17381000D01*
X51365033Y-17359034D02*
X51365033Y-17252967D01*
X51258966Y-17252967D01*
X51258966Y-17359034D01*
X51365033Y-17359034D01*
D19*
X8995000Y-14395000D02*
X9425000Y-14825000D01*
X9425000Y-14395000D02*
X8995000Y-14825000D01*
X9210000Y-14825000D02*
X9425000Y-14610000D01*
X9210000Y-14395000D01*
X8995000Y-14610000D01*
X9210000Y-14825000D01*
X8995000Y-25375000D02*
X9425000Y-25805000D01*
X9425000Y-25375000D02*
X8995000Y-25805000D01*
X9210000Y-25805000D02*
X9425000Y-25590000D01*
X9210000Y-25375000D01*
X8995000Y-25590000D01*
X9210000Y-25805000D01*
X9005000Y-3195000D02*
X9435000Y-3625000D01*
X9435000Y-3195000D02*
X9005000Y-3625000D01*
X9220000Y-3625000D02*
X9435000Y-3410000D01*
X9220000Y-3195000D01*
X9005000Y-3410000D01*
X9220000Y-3625000D01*
X19535000Y-25375000D02*
X19965000Y-25805000D01*
X19965000Y-25375000D02*
X19535000Y-25805000D01*
X19750000Y-25805000D02*
X19965000Y-25590000D01*
X19750000Y-25375000D01*
X19535000Y-25590000D01*
X19750000Y-25805000D01*
X19545000Y-3195000D02*
X19975000Y-3625000D01*
X19975000Y-3195000D02*
X19545000Y-3625000D01*
X19760000Y-3625000D02*
X19975000Y-3410000D01*
X19760000Y-3195000D01*
X19545000Y-3410000D01*
X19760000Y-3625000D01*
X29875000Y-14375000D02*
X30305000Y-14805000D01*
X30305000Y-14375000D02*
X29875000Y-14805000D01*
X30090000Y-14805000D02*
X30305000Y-14590000D01*
X30090000Y-14375000D01*
X29875000Y-14590000D01*
X30090000Y-14805000D01*
X29915000Y-25355000D02*
X30345000Y-25785000D01*
X30345000Y-25355000D02*
X29915000Y-25785000D01*
X30130000Y-25785000D02*
X30345000Y-25570000D01*
X30130000Y-25355000D01*
X29915000Y-25570000D01*
X30130000Y-25785000D01*
X30060000Y-3045000D02*
X30490000Y-3475000D01*
X30490000Y-3045000D02*
X30060000Y-3475000D01*
X30275000Y-3475000D02*
X30490000Y-3260000D01*
X30275000Y-3045000D01*
X30060000Y-3260000D01*
X30275000Y-3475000D01*
X31630000Y-3050000D02*
X32060000Y-3480000D01*
X32060000Y-3050000D02*
X31630000Y-3480000D01*
X31845000Y-3480000D02*
X32060000Y-3265000D01*
X31845000Y-3050000D01*
X31630000Y-3265000D01*
X31845000Y-3480000D01*
X31785000Y-14385000D02*
X32215000Y-14815000D01*
X32215000Y-14385000D02*
X31785000Y-14815000D01*
X32000000Y-14815000D02*
X32215000Y-14600000D01*
X32000000Y-14385000D01*
X31785000Y-14600000D01*
X32000000Y-14815000D01*
X31815000Y-25375000D02*
X32245000Y-25805000D01*
X32245000Y-25375000D02*
X31815000Y-25805000D01*
X32030000Y-25805000D02*
X32245000Y-25590000D01*
X32030000Y-25375000D01*
X31815000Y-25590000D01*
X32030000Y-25805000D01*
X42080000Y-25520000D02*
X42510000Y-25950000D01*
X42510000Y-25520000D02*
X42080000Y-25950000D01*
X42295000Y-25950000D02*
X42510000Y-25735000D01*
X42295000Y-25520000D01*
X42080000Y-25735000D01*
X42295000Y-25950000D01*
X42085000Y-3050000D02*
X42515000Y-3480000D01*
X42515000Y-3050000D02*
X42085000Y-3480000D01*
X42300000Y-3480000D02*
X42515000Y-3265000D01*
X42300000Y-3050000D01*
X42085000Y-3265000D01*
X42300000Y-3480000D01*
X52410000Y-14380000D02*
X52840000Y-14810000D01*
X52840000Y-14380000D02*
X52410000Y-14810000D01*
X52625000Y-14810000D02*
X52840000Y-14595000D01*
X52625000Y-14380000D01*
X52410000Y-14595000D01*
X52625000Y-14810000D01*
X52415000Y-3045000D02*
X52845000Y-3475000D01*
X52845000Y-3045000D02*
X52415000Y-3475000D01*
X52630000Y-3475000D02*
X52845000Y-3260000D01*
X52630000Y-3045000D01*
X52415000Y-3260000D01*
X52630000Y-3475000D01*
X52415000Y-25520000D02*
X52845000Y-25950000D01*
X52845000Y-25520000D02*
X52415000Y-25950000D01*
X52630000Y-25950000D02*
X52845000Y-25735000D01*
X52630000Y-25520000D01*
X52415000Y-25735000D01*
X52630000Y-25950000D01*
D11*
X8752619Y-26615476D02*
X8752619Y-26415476D01*
X8800238Y-26415476D01*
X8828810Y-26425000D01*
X8847857Y-26444048D01*
X8857381Y-26463095D01*
X8866905Y-26501190D01*
X8866905Y-26529762D01*
X8857381Y-26567857D01*
X8847857Y-26586905D01*
X8828810Y-26605952D01*
X8800238Y-26615476D01*
X8752619Y-26615476D01*
X8952619Y-26615476D02*
X8952619Y-26482143D01*
X8952619Y-26520238D02*
X8962143Y-26501190D01*
X8971667Y-26491667D01*
X8990714Y-26482143D01*
X9009762Y-26482143D01*
X9076429Y-26615476D02*
X9076429Y-26482143D01*
X9076429Y-26415476D02*
X9066905Y-26425000D01*
X9076429Y-26434524D01*
X9085952Y-26425000D01*
X9076429Y-26415476D01*
X9076429Y-26434524D01*
X9200238Y-26615476D02*
X9181190Y-26605952D01*
X9171667Y-26586905D01*
X9171667Y-26415476D01*
X9305000Y-26615476D02*
X9285952Y-26605952D01*
X9276429Y-26586905D01*
X9276429Y-26415476D01*
X9533571Y-26615476D02*
X9533571Y-26415476D01*
X9600238Y-26558333D01*
X9666905Y-26415476D01*
X9666905Y-26615476D01*
X9847857Y-26615476D02*
X9847857Y-26510714D01*
X9838333Y-26491667D01*
X9819286Y-26482143D01*
X9781190Y-26482143D01*
X9762143Y-26491667D01*
X9847857Y-26605952D02*
X9828810Y-26615476D01*
X9781190Y-26615476D01*
X9762143Y-26605952D01*
X9752619Y-26586905D01*
X9752619Y-26567857D01*
X9762143Y-26548809D01*
X9781190Y-26539286D01*
X9828810Y-26539286D01*
X9847857Y-26529762D01*
X9943095Y-26482143D02*
X9943095Y-26682143D01*
X9943095Y-26491667D02*
X9962143Y-26482143D01*
X10000238Y-26482143D01*
X10019286Y-26491667D01*
X10028810Y-26501190D01*
X10038333Y-26520238D01*
X10038333Y-26577381D01*
X10028810Y-26596428D01*
X10019286Y-26605952D01*
X10000238Y-26615476D01*
X9962143Y-26615476D01*
X9943095Y-26605952D01*
X10124048Y-26596428D02*
X10133571Y-26605952D01*
X10124048Y-26615476D01*
X10114524Y-26605952D01*
X10124048Y-26596428D01*
X10124048Y-26615476D01*
X10124048Y-26491667D02*
X10133571Y-26501190D01*
X10124048Y-26510714D01*
X10114524Y-26501190D01*
X10124048Y-26491667D01*
X10124048Y-26510714D01*
D12*
X8455000Y-26925000D02*
X8495000Y-26965000D01*
X8495000Y-26925000D02*
X8455000Y-26965000D01*
D11*
X8790714Y-26835476D02*
X8809762Y-26835476D01*
X8828810Y-26845000D01*
X8838333Y-26854524D01*
X8847857Y-26873571D01*
X8857381Y-26911667D01*
X8857381Y-26959286D01*
X8847857Y-26997381D01*
X8838333Y-27016428D01*
X8828810Y-27025952D01*
X8809762Y-27035476D01*
X8790714Y-27035476D01*
X8771667Y-27025952D01*
X8762143Y-27016428D01*
X8752619Y-26997381D01*
X8743095Y-26959286D01*
X8743095Y-26911667D01*
X8752619Y-26873571D01*
X8762143Y-26854524D01*
X8771667Y-26845000D01*
X8790714Y-26835476D01*
X8943095Y-27016428D02*
X8952619Y-27025952D01*
X8943095Y-27035476D01*
X8933571Y-27025952D01*
X8943095Y-27016428D01*
X8943095Y-27035476D01*
X9124048Y-26902143D02*
X9124048Y-27035476D01*
X9076429Y-26825952D02*
X9028810Y-26968809D01*
X9152619Y-26968809D01*
X9266905Y-26835476D02*
X9285952Y-26835476D01*
X9305000Y-26845000D01*
X9314524Y-26854524D01*
X9324048Y-26873571D01*
X9333571Y-26911667D01*
X9333571Y-26959286D01*
X9324048Y-26997381D01*
X9314524Y-27016428D01*
X9305000Y-27025952D01*
X9285952Y-27035476D01*
X9266905Y-27035476D01*
X9247857Y-27025952D01*
X9238333Y-27016428D01*
X9228810Y-26997381D01*
X9219286Y-26959286D01*
X9219286Y-26911667D01*
X9228810Y-26873571D01*
X9238333Y-26854524D01*
X9247857Y-26845000D01*
X9266905Y-26835476D01*
X9457381Y-26835476D02*
X9476429Y-26835476D01*
X9495476Y-26845000D01*
X9505000Y-26854524D01*
X9514524Y-26873571D01*
X9524048Y-26911667D01*
X9524048Y-26959286D01*
X9514524Y-26997381D01*
X9505000Y-27016428D01*
X9495476Y-27025952D01*
X9476429Y-27035476D01*
X9457381Y-27035476D01*
X9438333Y-27025952D01*
X9428810Y-27016428D01*
X9419286Y-26997381D01*
X9409762Y-26959286D01*
X9409762Y-26911667D01*
X9419286Y-26873571D01*
X9428810Y-26854524D01*
X9438333Y-26845000D01*
X9457381Y-26835476D01*
X9609762Y-27035476D02*
X9609762Y-26902143D01*
X9609762Y-26921190D02*
X9619286Y-26911667D01*
X9638333Y-26902143D01*
X9666905Y-26902143D01*
X9685952Y-26911667D01*
X9695476Y-26930714D01*
X9695476Y-27035476D01*
X9695476Y-26930714D02*
X9705000Y-26911667D01*
X9724048Y-26902143D01*
X9752619Y-26902143D01*
X9771667Y-26911667D01*
X9781190Y-26930714D01*
X9781190Y-27035476D01*
X9876429Y-27035476D02*
X9876429Y-26902143D01*
X9876429Y-26921190D02*
X9885952Y-26911667D01*
X9905000Y-26902143D01*
X9933571Y-26902143D01*
X9952619Y-26911667D01*
X9962143Y-26930714D01*
X9962143Y-27035476D01*
X9962143Y-26930714D02*
X9971667Y-26911667D01*
X9990714Y-26902143D01*
X10019286Y-26902143D01*
X10038333Y-26911667D01*
X10047857Y-26930714D01*
X10047857Y-27035476D01*
X10438333Y-26825952D02*
X10266905Y-27083095D01*
X10695476Y-26835476D02*
X10714524Y-26835476D01*
X10733571Y-26845000D01*
X10743095Y-26854524D01*
X10752619Y-26873571D01*
X10762143Y-26911667D01*
X10762143Y-26959286D01*
X10752619Y-26997381D01*
X10743095Y-27016428D01*
X10733571Y-27025952D01*
X10714524Y-27035476D01*
X10695476Y-27035476D01*
X10676429Y-27025952D01*
X10666905Y-27016428D01*
X10657381Y-26997381D01*
X10647857Y-26959286D01*
X10647857Y-26911667D01*
X10657381Y-26873571D01*
X10666905Y-26854524D01*
X10676429Y-26845000D01*
X10695476Y-26835476D01*
X10847857Y-27016428D02*
X10857381Y-27025952D01*
X10847857Y-27035476D01*
X10838333Y-27025952D01*
X10847857Y-27016428D01*
X10847857Y-27035476D01*
X10981190Y-26835476D02*
X11000238Y-26835476D01*
X11019286Y-26845000D01*
X11028810Y-26854524D01*
X11038333Y-26873571D01*
X11047857Y-26911667D01*
X11047857Y-26959286D01*
X11038333Y-26997381D01*
X11028810Y-27016428D01*
X11019286Y-27025952D01*
X11000238Y-27035476D01*
X10981190Y-27035476D01*
X10962143Y-27025952D01*
X10952619Y-27016428D01*
X10943095Y-26997381D01*
X10933571Y-26959286D01*
X10933571Y-26911667D01*
X10943095Y-26873571D01*
X10952619Y-26854524D01*
X10962143Y-26845000D01*
X10981190Y-26835476D01*
X11238333Y-27035476D02*
X11124048Y-27035476D01*
X11181190Y-27035476D02*
X11181190Y-26835476D01*
X11162143Y-26864048D01*
X11143095Y-26883095D01*
X11124048Y-26892619D01*
X11419286Y-26835476D02*
X11324048Y-26835476D01*
X11314524Y-26930714D01*
X11324048Y-26921190D01*
X11343095Y-26911667D01*
X11390714Y-26911667D01*
X11409762Y-26921190D01*
X11419286Y-26930714D01*
X11428809Y-26949762D01*
X11428809Y-26997381D01*
X11419286Y-27016428D01*
X11409762Y-27025952D01*
X11390714Y-27035476D01*
X11343095Y-27035476D01*
X11324048Y-27025952D01*
X11314524Y-27016428D01*
X11495476Y-26835476D02*
X11628809Y-26835476D01*
X11543095Y-27035476D01*
X11695476Y-26835476D02*
X11695476Y-26873571D01*
X11771667Y-26835476D02*
X11771667Y-26873571D01*
X12066905Y-27111667D02*
X12057381Y-27102143D01*
X12038333Y-27073571D01*
X12028809Y-27054524D01*
X12019286Y-27025952D01*
X12009762Y-26978333D01*
X12009762Y-26940238D01*
X12019286Y-26892619D01*
X12028809Y-26864048D01*
X12038333Y-26845000D01*
X12057381Y-26816428D01*
X12066905Y-26806905D01*
X12124048Y-26835476D02*
X12247857Y-26835476D01*
X12181190Y-26911667D01*
X12209762Y-26911667D01*
X12228809Y-26921190D01*
X12238333Y-26930714D01*
X12247857Y-26949762D01*
X12247857Y-26997381D01*
X12238333Y-27016428D01*
X12228809Y-27025952D01*
X12209762Y-27035476D01*
X12152619Y-27035476D01*
X12133571Y-27025952D01*
X12124048Y-27016428D01*
X12314524Y-26835476D02*
X12438333Y-26835476D01*
X12371667Y-26911667D01*
X12400238Y-26911667D01*
X12419286Y-26921190D01*
X12428809Y-26930714D01*
X12438333Y-26949762D01*
X12438333Y-26997381D01*
X12428809Y-27016428D01*
X12419286Y-27025952D01*
X12400238Y-27035476D01*
X12343095Y-27035476D01*
X12324048Y-27025952D01*
X12314524Y-27016428D01*
X12676428Y-27035476D02*
X12676428Y-26835476D01*
X12762143Y-27035476D02*
X12762143Y-26930714D01*
X12752619Y-26911667D01*
X12733571Y-26902143D01*
X12705000Y-26902143D01*
X12685952Y-26911667D01*
X12676428Y-26921190D01*
X12885952Y-27035476D02*
X12866905Y-27025952D01*
X12857381Y-27016428D01*
X12847857Y-26997381D01*
X12847857Y-26940238D01*
X12857381Y-26921190D01*
X12866905Y-26911667D01*
X12885952Y-26902143D01*
X12914524Y-26902143D01*
X12933571Y-26911667D01*
X12943095Y-26921190D01*
X12952619Y-26940238D01*
X12952619Y-26997381D01*
X12943095Y-27016428D01*
X12933571Y-27025952D01*
X12914524Y-27035476D01*
X12885952Y-27035476D01*
X13066905Y-27035476D02*
X13047857Y-27025952D01*
X13038333Y-27006905D01*
X13038333Y-26835476D01*
X13219286Y-27025952D02*
X13200238Y-27035476D01*
X13162143Y-27035476D01*
X13143095Y-27025952D01*
X13133571Y-27006905D01*
X13133571Y-26930714D01*
X13143095Y-26911667D01*
X13162143Y-26902143D01*
X13200238Y-26902143D01*
X13219286Y-26911667D01*
X13228809Y-26930714D01*
X13228809Y-26949762D01*
X13133571Y-26968809D01*
X13305000Y-27025952D02*
X13324048Y-27035476D01*
X13362143Y-27035476D01*
X13381190Y-27025952D01*
X13390714Y-27006905D01*
X13390714Y-26997381D01*
X13381190Y-26978333D01*
X13362143Y-26968809D01*
X13333571Y-26968809D01*
X13314524Y-26959286D01*
X13305000Y-26940238D01*
X13305000Y-26930714D01*
X13314524Y-26911667D01*
X13333571Y-26902143D01*
X13362143Y-26902143D01*
X13381190Y-26911667D01*
X13457381Y-27111667D02*
X13466905Y-27102143D01*
X13485952Y-27073571D01*
X13495476Y-27054524D01*
X13505000Y-27025952D01*
X13514524Y-26978333D01*
X13514524Y-26940238D01*
X13505000Y-26892619D01*
X13495476Y-26864048D01*
X13485952Y-26845000D01*
X13466905Y-26816428D01*
X13457381Y-26806905D01*
D13*
X8495000Y-27209000D02*
G75*
G03*
X8495000Y-27209000I-35000J0D01*
G01*
D11*
X8790714Y-27099476D02*
X8809762Y-27099476D01*
X8828810Y-27109000D01*
X8838333Y-27118524D01*
X8847857Y-27137571D01*
X8857381Y-27175667D01*
X8857381Y-27223286D01*
X8847857Y-27261381D01*
X8838333Y-27280428D01*
X8828810Y-27289952D01*
X8809762Y-27299476D01*
X8790714Y-27299476D01*
X8771667Y-27289952D01*
X8762143Y-27280428D01*
X8752619Y-27261381D01*
X8743095Y-27223286D01*
X8743095Y-27175667D01*
X8752619Y-27137571D01*
X8762143Y-27118524D01*
X8771667Y-27109000D01*
X8790714Y-27099476D01*
X8943095Y-27280428D02*
X8952619Y-27289952D01*
X8943095Y-27299476D01*
X8933571Y-27289952D01*
X8943095Y-27280428D01*
X8943095Y-27299476D01*
X9019286Y-27099476D02*
X9152619Y-27099476D01*
X9066905Y-27299476D01*
X9266905Y-27099476D02*
X9285952Y-27099476D01*
X9305000Y-27109000D01*
X9314524Y-27118524D01*
X9324048Y-27137571D01*
X9333571Y-27175667D01*
X9333571Y-27223286D01*
X9324048Y-27261381D01*
X9314524Y-27280428D01*
X9305000Y-27289952D01*
X9285952Y-27299476D01*
X9266905Y-27299476D01*
X9247857Y-27289952D01*
X9238333Y-27280428D01*
X9228810Y-27261381D01*
X9219286Y-27223286D01*
X9219286Y-27175667D01*
X9228810Y-27137571D01*
X9238333Y-27118524D01*
X9247857Y-27109000D01*
X9266905Y-27099476D01*
X9457381Y-27099476D02*
X9476429Y-27099476D01*
X9495476Y-27109000D01*
X9505000Y-27118524D01*
X9514524Y-27137571D01*
X9524048Y-27175667D01*
X9524048Y-27223286D01*
X9514524Y-27261381D01*
X9505000Y-27280428D01*
X9495476Y-27289952D01*
X9476429Y-27299476D01*
X9457381Y-27299476D01*
X9438333Y-27289952D01*
X9428810Y-27280428D01*
X9419286Y-27261381D01*
X9409762Y-27223286D01*
X9409762Y-27175667D01*
X9419286Y-27137571D01*
X9428810Y-27118524D01*
X9438333Y-27109000D01*
X9457381Y-27099476D01*
X9609762Y-27299476D02*
X9609762Y-27166143D01*
X9609762Y-27185190D02*
X9619286Y-27175667D01*
X9638333Y-27166143D01*
X9666905Y-27166143D01*
X9685952Y-27175667D01*
X9695476Y-27194714D01*
X9695476Y-27299476D01*
X9695476Y-27194714D02*
X9705000Y-27175667D01*
X9724048Y-27166143D01*
X9752619Y-27166143D01*
X9771667Y-27175667D01*
X9781190Y-27194714D01*
X9781190Y-27299476D01*
X9876429Y-27299476D02*
X9876429Y-27166143D01*
X9876429Y-27185190D02*
X9885952Y-27175667D01*
X9905000Y-27166143D01*
X9933571Y-27166143D01*
X9952619Y-27175667D01*
X9962143Y-27194714D01*
X9962143Y-27299476D01*
X9962143Y-27194714D02*
X9971667Y-27175667D01*
X9990714Y-27166143D01*
X10019286Y-27166143D01*
X10038333Y-27175667D01*
X10047857Y-27194714D01*
X10047857Y-27299476D01*
X10438333Y-27089952D02*
X10266905Y-27347095D01*
X10695476Y-27099476D02*
X10714524Y-27099476D01*
X10733571Y-27109000D01*
X10743095Y-27118524D01*
X10752619Y-27137571D01*
X10762143Y-27175667D01*
X10762143Y-27223286D01*
X10752619Y-27261381D01*
X10743095Y-27280428D01*
X10733571Y-27289952D01*
X10714524Y-27299476D01*
X10695476Y-27299476D01*
X10676429Y-27289952D01*
X10666905Y-27280428D01*
X10657381Y-27261381D01*
X10647857Y-27223286D01*
X10647857Y-27175667D01*
X10657381Y-27137571D01*
X10666905Y-27118524D01*
X10676429Y-27109000D01*
X10695476Y-27099476D01*
X10847857Y-27280428D02*
X10857381Y-27289952D01*
X10847857Y-27299476D01*
X10838333Y-27289952D01*
X10847857Y-27280428D01*
X10847857Y-27299476D01*
X10981190Y-27099476D02*
X11000238Y-27099476D01*
X11019286Y-27109000D01*
X11028810Y-27118524D01*
X11038333Y-27137571D01*
X11047857Y-27175667D01*
X11047857Y-27223286D01*
X11038333Y-27261381D01*
X11028810Y-27280428D01*
X11019286Y-27289952D01*
X11000238Y-27299476D01*
X10981190Y-27299476D01*
X10962143Y-27289952D01*
X10952619Y-27280428D01*
X10943095Y-27261381D01*
X10933571Y-27223286D01*
X10933571Y-27175667D01*
X10943095Y-27137571D01*
X10952619Y-27118524D01*
X10962143Y-27109000D01*
X10981190Y-27099476D01*
X11124048Y-27118524D02*
X11133571Y-27109000D01*
X11152619Y-27099476D01*
X11200238Y-27099476D01*
X11219286Y-27109000D01*
X11228809Y-27118524D01*
X11238333Y-27137571D01*
X11238333Y-27156619D01*
X11228809Y-27185190D01*
X11114524Y-27299476D01*
X11238333Y-27299476D01*
X11305000Y-27099476D02*
X11438333Y-27099476D01*
X11352619Y-27299476D01*
X11600238Y-27099476D02*
X11562143Y-27099476D01*
X11543095Y-27109000D01*
X11533571Y-27118524D01*
X11514524Y-27147095D01*
X11505000Y-27185190D01*
X11505000Y-27261381D01*
X11514524Y-27280428D01*
X11524048Y-27289952D01*
X11543095Y-27299476D01*
X11581190Y-27299476D01*
X11600238Y-27289952D01*
X11609762Y-27280428D01*
X11619286Y-27261381D01*
X11619286Y-27213762D01*
X11609762Y-27194714D01*
X11600238Y-27185190D01*
X11581190Y-27175667D01*
X11543095Y-27175667D01*
X11524048Y-27185190D01*
X11514524Y-27194714D01*
X11505000Y-27213762D01*
X11695476Y-27099476D02*
X11695476Y-27137571D01*
X11771667Y-27099476D02*
X11771667Y-27137571D01*
X12066905Y-27375667D02*
X12057381Y-27366143D01*
X12038333Y-27337571D01*
X12028809Y-27318524D01*
X12019286Y-27289952D01*
X12009762Y-27242333D01*
X12009762Y-27204238D01*
X12019286Y-27156619D01*
X12028809Y-27128048D01*
X12038333Y-27109000D01*
X12057381Y-27080428D01*
X12066905Y-27070905D01*
X12133571Y-27118524D02*
X12143095Y-27109000D01*
X12162143Y-27099476D01*
X12209762Y-27099476D01*
X12228809Y-27109000D01*
X12238333Y-27118524D01*
X12247857Y-27137571D01*
X12247857Y-27156619D01*
X12238333Y-27185190D01*
X12124048Y-27299476D01*
X12247857Y-27299476D01*
X12419286Y-27166143D02*
X12419286Y-27299476D01*
X12371667Y-27089952D02*
X12324048Y-27232809D01*
X12447857Y-27232809D01*
X12676428Y-27299476D02*
X12676428Y-27099476D01*
X12762143Y-27299476D02*
X12762143Y-27194714D01*
X12752619Y-27175667D01*
X12733571Y-27166143D01*
X12705000Y-27166143D01*
X12685952Y-27175667D01*
X12676428Y-27185190D01*
X12885952Y-27299476D02*
X12866905Y-27289952D01*
X12857381Y-27280428D01*
X12847857Y-27261381D01*
X12847857Y-27204238D01*
X12857381Y-27185190D01*
X12866905Y-27175667D01*
X12885952Y-27166143D01*
X12914524Y-27166143D01*
X12933571Y-27175667D01*
X12943095Y-27185190D01*
X12952619Y-27204238D01*
X12952619Y-27261381D01*
X12943095Y-27280428D01*
X12933571Y-27289952D01*
X12914524Y-27299476D01*
X12885952Y-27299476D01*
X13066905Y-27299476D02*
X13047857Y-27289952D01*
X13038333Y-27270905D01*
X13038333Y-27099476D01*
X13219286Y-27289952D02*
X13200238Y-27299476D01*
X13162143Y-27299476D01*
X13143095Y-27289952D01*
X13133571Y-27270905D01*
X13133571Y-27194714D01*
X13143095Y-27175667D01*
X13162143Y-27166143D01*
X13200238Y-27166143D01*
X13219286Y-27175667D01*
X13228809Y-27194714D01*
X13228809Y-27213762D01*
X13133571Y-27232809D01*
X13305000Y-27289952D02*
X13324048Y-27299476D01*
X13362143Y-27299476D01*
X13381190Y-27289952D01*
X13390714Y-27270905D01*
X13390714Y-27261381D01*
X13381190Y-27242333D01*
X13362143Y-27232809D01*
X13333571Y-27232809D01*
X13314524Y-27223286D01*
X13305000Y-27204238D01*
X13305000Y-27194714D01*
X13314524Y-27175667D01*
X13333571Y-27166143D01*
X13362143Y-27166143D01*
X13381190Y-27175667D01*
X13457381Y-27375667D02*
X13466905Y-27366143D01*
X13485952Y-27337571D01*
X13495476Y-27318524D01*
X13505000Y-27289952D01*
X13514524Y-27242333D01*
X13514524Y-27204238D01*
X13505000Y-27156619D01*
X13495476Y-27128048D01*
X13485952Y-27109000D01*
X13466905Y-27080428D01*
X13457381Y-27070905D01*
D14*
X8457500Y-27435500D02*
X8457500Y-27510500D01*
X8420000Y-27473000D02*
X8495000Y-27473000D01*
D11*
X8790714Y-27363476D02*
X8809762Y-27363476D01*
X8828810Y-27373000D01*
X8838333Y-27382524D01*
X8847857Y-27401571D01*
X8857381Y-27439667D01*
X8857381Y-27487286D01*
X8847857Y-27525381D01*
X8838333Y-27544428D01*
X8828810Y-27553952D01*
X8809762Y-27563476D01*
X8790714Y-27563476D01*
X8771667Y-27553952D01*
X8762143Y-27544428D01*
X8752619Y-27525381D01*
X8743095Y-27487286D01*
X8743095Y-27439667D01*
X8752619Y-27401571D01*
X8762143Y-27382524D01*
X8771667Y-27373000D01*
X8790714Y-27363476D01*
X8943095Y-27544428D02*
X8952619Y-27553952D01*
X8943095Y-27563476D01*
X8933571Y-27553952D01*
X8943095Y-27544428D01*
X8943095Y-27563476D01*
X9019286Y-27363476D02*
X9152619Y-27363476D01*
X9066905Y-27563476D01*
X9324048Y-27363476D02*
X9228810Y-27363476D01*
X9219286Y-27458714D01*
X9228810Y-27449190D01*
X9247857Y-27439667D01*
X9295476Y-27439667D01*
X9314524Y-27449190D01*
X9324048Y-27458714D01*
X9333571Y-27477762D01*
X9333571Y-27525381D01*
X9324048Y-27544428D01*
X9314524Y-27553952D01*
X9295476Y-27563476D01*
X9247857Y-27563476D01*
X9228810Y-27553952D01*
X9219286Y-27544428D01*
X9457381Y-27363476D02*
X9476429Y-27363476D01*
X9495476Y-27373000D01*
X9505000Y-27382524D01*
X9514524Y-27401571D01*
X9524048Y-27439667D01*
X9524048Y-27487286D01*
X9514524Y-27525381D01*
X9505000Y-27544428D01*
X9495476Y-27553952D01*
X9476429Y-27563476D01*
X9457381Y-27563476D01*
X9438333Y-27553952D01*
X9428810Y-27544428D01*
X9419286Y-27525381D01*
X9409762Y-27487286D01*
X9409762Y-27439667D01*
X9419286Y-27401571D01*
X9428810Y-27382524D01*
X9438333Y-27373000D01*
X9457381Y-27363476D01*
X9609762Y-27563476D02*
X9609762Y-27430143D01*
X9609762Y-27449190D02*
X9619286Y-27439667D01*
X9638333Y-27430143D01*
X9666905Y-27430143D01*
X9685952Y-27439667D01*
X9695476Y-27458714D01*
X9695476Y-27563476D01*
X9695476Y-27458714D02*
X9705000Y-27439667D01*
X9724048Y-27430143D01*
X9752619Y-27430143D01*
X9771667Y-27439667D01*
X9781190Y-27458714D01*
X9781190Y-27563476D01*
X9876429Y-27563476D02*
X9876429Y-27430143D01*
X9876429Y-27449190D02*
X9885952Y-27439667D01*
X9905000Y-27430143D01*
X9933571Y-27430143D01*
X9952619Y-27439667D01*
X9962143Y-27458714D01*
X9962143Y-27563476D01*
X9962143Y-27458714D02*
X9971667Y-27439667D01*
X9990714Y-27430143D01*
X10019286Y-27430143D01*
X10038333Y-27439667D01*
X10047857Y-27458714D01*
X10047857Y-27563476D01*
X10438333Y-27353952D02*
X10266905Y-27611095D01*
X10695476Y-27363476D02*
X10714524Y-27363476D01*
X10733571Y-27373000D01*
X10743095Y-27382524D01*
X10752619Y-27401571D01*
X10762143Y-27439667D01*
X10762143Y-27487286D01*
X10752619Y-27525381D01*
X10743095Y-27544428D01*
X10733571Y-27553952D01*
X10714524Y-27563476D01*
X10695476Y-27563476D01*
X10676429Y-27553952D01*
X10666905Y-27544428D01*
X10657381Y-27525381D01*
X10647857Y-27487286D01*
X10647857Y-27439667D01*
X10657381Y-27401571D01*
X10666905Y-27382524D01*
X10676429Y-27373000D01*
X10695476Y-27363476D01*
X10847857Y-27544428D02*
X10857381Y-27553952D01*
X10847857Y-27563476D01*
X10838333Y-27553952D01*
X10847857Y-27544428D01*
X10847857Y-27563476D01*
X10981190Y-27363476D02*
X11000238Y-27363476D01*
X11019286Y-27373000D01*
X11028810Y-27382524D01*
X11038333Y-27401571D01*
X11047857Y-27439667D01*
X11047857Y-27487286D01*
X11038333Y-27525381D01*
X11028810Y-27544428D01*
X11019286Y-27553952D01*
X11000238Y-27563476D01*
X10981190Y-27563476D01*
X10962143Y-27553952D01*
X10952619Y-27544428D01*
X10943095Y-27525381D01*
X10933571Y-27487286D01*
X10933571Y-27439667D01*
X10943095Y-27401571D01*
X10952619Y-27382524D01*
X10962143Y-27373000D01*
X10981190Y-27363476D01*
X11124048Y-27382524D02*
X11133571Y-27373000D01*
X11152619Y-27363476D01*
X11200238Y-27363476D01*
X11219286Y-27373000D01*
X11228809Y-27382524D01*
X11238333Y-27401571D01*
X11238333Y-27420619D01*
X11228809Y-27449190D01*
X11114524Y-27563476D01*
X11238333Y-27563476D01*
X11333571Y-27563476D02*
X11371667Y-27563476D01*
X11390714Y-27553952D01*
X11400238Y-27544428D01*
X11419286Y-27515857D01*
X11428809Y-27477762D01*
X11428809Y-27401571D01*
X11419286Y-27382524D01*
X11409762Y-27373000D01*
X11390714Y-27363476D01*
X11352619Y-27363476D01*
X11333571Y-27373000D01*
X11324048Y-27382524D01*
X11314524Y-27401571D01*
X11314524Y-27449190D01*
X11324048Y-27468238D01*
X11333571Y-27477762D01*
X11352619Y-27487286D01*
X11390714Y-27487286D01*
X11409762Y-27477762D01*
X11419286Y-27468238D01*
X11428809Y-27449190D01*
X11609762Y-27363476D02*
X11514524Y-27363476D01*
X11505000Y-27458714D01*
X11514524Y-27449190D01*
X11533571Y-27439667D01*
X11581190Y-27439667D01*
X11600238Y-27449190D01*
X11609762Y-27458714D01*
X11619286Y-27477762D01*
X11619286Y-27525381D01*
X11609762Y-27544428D01*
X11600238Y-27553952D01*
X11581190Y-27563476D01*
X11533571Y-27563476D01*
X11514524Y-27553952D01*
X11505000Y-27544428D01*
X11695476Y-27363476D02*
X11695476Y-27401571D01*
X11771667Y-27363476D02*
X11771667Y-27401571D01*
X12066905Y-27639667D02*
X12057381Y-27630143D01*
X12038333Y-27601571D01*
X12028809Y-27582524D01*
X12019286Y-27553952D01*
X12009762Y-27506333D01*
X12009762Y-27468238D01*
X12019286Y-27420619D01*
X12028809Y-27392048D01*
X12038333Y-27373000D01*
X12057381Y-27344428D01*
X12066905Y-27334905D01*
X12171667Y-27449190D02*
X12152619Y-27439667D01*
X12143095Y-27430143D01*
X12133571Y-27411095D01*
X12133571Y-27401571D01*
X12143095Y-27382524D01*
X12152619Y-27373000D01*
X12171667Y-27363476D01*
X12209762Y-27363476D01*
X12228809Y-27373000D01*
X12238333Y-27382524D01*
X12247857Y-27401571D01*
X12247857Y-27411095D01*
X12238333Y-27430143D01*
X12228809Y-27439667D01*
X12209762Y-27449190D01*
X12171667Y-27449190D01*
X12152619Y-27458714D01*
X12143095Y-27468238D01*
X12133571Y-27487286D01*
X12133571Y-27525381D01*
X12143095Y-27544428D01*
X12152619Y-27553952D01*
X12171667Y-27563476D01*
X12209762Y-27563476D01*
X12228809Y-27553952D01*
X12238333Y-27544428D01*
X12247857Y-27525381D01*
X12247857Y-27487286D01*
X12238333Y-27468238D01*
X12228809Y-27458714D01*
X12209762Y-27449190D01*
X12485952Y-27563476D02*
X12485952Y-27363476D01*
X12571667Y-27563476D02*
X12571667Y-27458714D01*
X12562143Y-27439667D01*
X12543095Y-27430143D01*
X12514524Y-27430143D01*
X12495476Y-27439667D01*
X12485952Y-27449190D01*
X12695476Y-27563476D02*
X12676428Y-27553952D01*
X12666905Y-27544428D01*
X12657381Y-27525381D01*
X12657381Y-27468238D01*
X12666905Y-27449190D01*
X12676428Y-27439667D01*
X12695476Y-27430143D01*
X12724048Y-27430143D01*
X12743095Y-27439667D01*
X12752619Y-27449190D01*
X12762143Y-27468238D01*
X12762143Y-27525381D01*
X12752619Y-27544428D01*
X12743095Y-27553952D01*
X12724048Y-27563476D01*
X12695476Y-27563476D01*
X12876428Y-27563476D02*
X12857381Y-27553952D01*
X12847857Y-27534905D01*
X12847857Y-27363476D01*
X13028809Y-27553952D02*
X13009762Y-27563476D01*
X12971667Y-27563476D01*
X12952619Y-27553952D01*
X12943095Y-27534905D01*
X12943095Y-27458714D01*
X12952619Y-27439667D01*
X12971667Y-27430143D01*
X13009762Y-27430143D01*
X13028809Y-27439667D01*
X13038333Y-27458714D01*
X13038333Y-27477762D01*
X12943095Y-27496809D01*
X13114524Y-27553952D02*
X13133571Y-27563476D01*
X13171667Y-27563476D01*
X13190714Y-27553952D01*
X13200238Y-27534905D01*
X13200238Y-27525381D01*
X13190714Y-27506333D01*
X13171667Y-27496809D01*
X13143095Y-27496809D01*
X13124048Y-27487286D01*
X13114524Y-27468238D01*
X13114524Y-27458714D01*
X13124048Y-27439667D01*
X13143095Y-27430143D01*
X13171667Y-27430143D01*
X13190714Y-27439667D01*
X13266905Y-27639667D02*
X13276428Y-27630143D01*
X13295476Y-27601571D01*
X13305000Y-27582524D01*
X13314524Y-27553952D01*
X13324048Y-27506333D01*
X13324048Y-27468238D01*
X13314524Y-27420619D01*
X13305000Y-27392048D01*
X13295476Y-27373000D01*
X13276428Y-27344428D01*
X13266905Y-27334905D01*
D15*
X8483285Y-27765284D02*
X8483285Y-27708715D01*
X8426716Y-27708715D01*
X8426716Y-27765284D01*
X8483285Y-27765284D01*
D11*
X8790714Y-27627476D02*
X8809762Y-27627476D01*
X8828810Y-27637000D01*
X8838333Y-27646524D01*
X8847857Y-27665571D01*
X8857381Y-27703667D01*
X8857381Y-27751286D01*
X8847857Y-27789381D01*
X8838333Y-27808428D01*
X8828810Y-27817952D01*
X8809762Y-27827476D01*
X8790714Y-27827476D01*
X8771667Y-27817952D01*
X8762143Y-27808428D01*
X8752619Y-27789381D01*
X8743095Y-27751286D01*
X8743095Y-27703667D01*
X8752619Y-27665571D01*
X8762143Y-27646524D01*
X8771667Y-27637000D01*
X8790714Y-27627476D01*
X8943095Y-27808428D02*
X8952619Y-27817952D01*
X8943095Y-27827476D01*
X8933571Y-27817952D01*
X8943095Y-27808428D01*
X8943095Y-27827476D01*
X9066905Y-27713190D02*
X9047857Y-27703667D01*
X9038333Y-27694143D01*
X9028810Y-27675095D01*
X9028810Y-27665571D01*
X9038333Y-27646524D01*
X9047857Y-27637000D01*
X9066905Y-27627476D01*
X9105000Y-27627476D01*
X9124048Y-27637000D01*
X9133571Y-27646524D01*
X9143095Y-27665571D01*
X9143095Y-27675095D01*
X9133571Y-27694143D01*
X9124048Y-27703667D01*
X9105000Y-27713190D01*
X9066905Y-27713190D01*
X9047857Y-27722714D01*
X9038333Y-27732238D01*
X9028810Y-27751286D01*
X9028810Y-27789381D01*
X9038333Y-27808428D01*
X9047857Y-27817952D01*
X9066905Y-27827476D01*
X9105000Y-27827476D01*
X9124048Y-27817952D01*
X9133571Y-27808428D01*
X9143095Y-27789381D01*
X9143095Y-27751286D01*
X9133571Y-27732238D01*
X9124048Y-27722714D01*
X9105000Y-27713190D01*
X9266905Y-27627476D02*
X9285952Y-27627476D01*
X9305000Y-27637000D01*
X9314524Y-27646524D01*
X9324048Y-27665571D01*
X9333571Y-27703667D01*
X9333571Y-27751286D01*
X9324048Y-27789381D01*
X9314524Y-27808428D01*
X9305000Y-27817952D01*
X9285952Y-27827476D01*
X9266905Y-27827476D01*
X9247857Y-27817952D01*
X9238333Y-27808428D01*
X9228810Y-27789381D01*
X9219286Y-27751286D01*
X9219286Y-27703667D01*
X9228810Y-27665571D01*
X9238333Y-27646524D01*
X9247857Y-27637000D01*
X9266905Y-27627476D01*
X9457381Y-27627476D02*
X9476429Y-27627476D01*
X9495476Y-27637000D01*
X9505000Y-27646524D01*
X9514524Y-27665571D01*
X9524048Y-27703667D01*
X9524048Y-27751286D01*
X9514524Y-27789381D01*
X9505000Y-27808428D01*
X9495476Y-27817952D01*
X9476429Y-27827476D01*
X9457381Y-27827476D01*
X9438333Y-27817952D01*
X9428810Y-27808428D01*
X9419286Y-27789381D01*
X9409762Y-27751286D01*
X9409762Y-27703667D01*
X9419286Y-27665571D01*
X9428810Y-27646524D01*
X9438333Y-27637000D01*
X9457381Y-27627476D01*
X9609762Y-27827476D02*
X9609762Y-27694143D01*
X9609762Y-27713190D02*
X9619286Y-27703667D01*
X9638333Y-27694143D01*
X9666905Y-27694143D01*
X9685952Y-27703667D01*
X9695476Y-27722714D01*
X9695476Y-27827476D01*
X9695476Y-27722714D02*
X9705000Y-27703667D01*
X9724048Y-27694143D01*
X9752619Y-27694143D01*
X9771667Y-27703667D01*
X9781190Y-27722714D01*
X9781190Y-27827476D01*
X9876429Y-27827476D02*
X9876429Y-27694143D01*
X9876429Y-27713190D02*
X9885952Y-27703667D01*
X9905000Y-27694143D01*
X9933571Y-27694143D01*
X9952619Y-27703667D01*
X9962143Y-27722714D01*
X9962143Y-27827476D01*
X9962143Y-27722714D02*
X9971667Y-27703667D01*
X9990714Y-27694143D01*
X10019286Y-27694143D01*
X10038333Y-27703667D01*
X10047857Y-27722714D01*
X10047857Y-27827476D01*
X10438333Y-27617952D02*
X10266905Y-27875095D01*
X10695476Y-27627476D02*
X10714524Y-27627476D01*
X10733571Y-27637000D01*
X10743095Y-27646524D01*
X10752619Y-27665571D01*
X10762143Y-27703667D01*
X10762143Y-27751286D01*
X10752619Y-27789381D01*
X10743095Y-27808428D01*
X10733571Y-27817952D01*
X10714524Y-27827476D01*
X10695476Y-27827476D01*
X10676429Y-27817952D01*
X10666905Y-27808428D01*
X10657381Y-27789381D01*
X10647857Y-27751286D01*
X10647857Y-27703667D01*
X10657381Y-27665571D01*
X10666905Y-27646524D01*
X10676429Y-27637000D01*
X10695476Y-27627476D01*
X10847857Y-27808428D02*
X10857381Y-27817952D01*
X10847857Y-27827476D01*
X10838333Y-27817952D01*
X10847857Y-27808428D01*
X10847857Y-27827476D01*
X10981190Y-27627476D02*
X11000238Y-27627476D01*
X11019286Y-27637000D01*
X11028810Y-27646524D01*
X11038333Y-27665571D01*
X11047857Y-27703667D01*
X11047857Y-27751286D01*
X11038333Y-27789381D01*
X11028810Y-27808428D01*
X11019286Y-27817952D01*
X11000238Y-27827476D01*
X10981190Y-27827476D01*
X10962143Y-27817952D01*
X10952619Y-27808428D01*
X10943095Y-27789381D01*
X10933571Y-27751286D01*
X10933571Y-27703667D01*
X10943095Y-27665571D01*
X10952619Y-27646524D01*
X10962143Y-27637000D01*
X10981190Y-27627476D01*
X11114524Y-27627476D02*
X11238333Y-27627476D01*
X11171667Y-27703667D01*
X11200238Y-27703667D01*
X11219286Y-27713190D01*
X11228809Y-27722714D01*
X11238333Y-27741762D01*
X11238333Y-27789381D01*
X11228809Y-27808428D01*
X11219286Y-27817952D01*
X11200238Y-27827476D01*
X11143095Y-27827476D01*
X11124048Y-27817952D01*
X11114524Y-27808428D01*
X11428809Y-27827476D02*
X11314524Y-27827476D01*
X11371667Y-27827476D02*
X11371667Y-27627476D01*
X11352619Y-27656048D01*
X11333571Y-27675095D01*
X11314524Y-27684619D01*
X11609762Y-27627476D02*
X11514524Y-27627476D01*
X11505000Y-27722714D01*
X11514524Y-27713190D01*
X11533571Y-27703667D01*
X11581190Y-27703667D01*
X11600238Y-27713190D01*
X11609762Y-27722714D01*
X11619286Y-27741762D01*
X11619286Y-27789381D01*
X11609762Y-27808428D01*
X11600238Y-27817952D01*
X11581190Y-27827476D01*
X11533571Y-27827476D01*
X11514524Y-27817952D01*
X11505000Y-27808428D01*
X11695476Y-27627476D02*
X11695476Y-27665571D01*
X11771667Y-27627476D02*
X11771667Y-27665571D01*
X12066905Y-27903667D02*
X12057381Y-27894143D01*
X12038333Y-27865571D01*
X12028809Y-27846524D01*
X12019286Y-27817952D01*
X12009762Y-27770333D01*
X12009762Y-27732238D01*
X12019286Y-27684619D01*
X12028809Y-27656048D01*
X12038333Y-27637000D01*
X12057381Y-27608428D01*
X12066905Y-27598905D01*
X12247857Y-27827476D02*
X12133571Y-27827476D01*
X12190714Y-27827476D02*
X12190714Y-27627476D01*
X12171667Y-27656048D01*
X12152619Y-27675095D01*
X12133571Y-27684619D01*
X12343095Y-27827476D02*
X12381190Y-27827476D01*
X12400238Y-27817952D01*
X12409762Y-27808428D01*
X12428809Y-27779857D01*
X12438333Y-27741762D01*
X12438333Y-27665571D01*
X12428809Y-27646524D01*
X12419286Y-27637000D01*
X12400238Y-27627476D01*
X12362143Y-27627476D01*
X12343095Y-27637000D01*
X12333571Y-27646524D01*
X12324048Y-27665571D01*
X12324048Y-27713190D01*
X12333571Y-27732238D01*
X12343095Y-27741762D01*
X12362143Y-27751286D01*
X12400238Y-27751286D01*
X12419286Y-27741762D01*
X12428809Y-27732238D01*
X12438333Y-27713190D01*
X12552619Y-27713190D02*
X12533571Y-27703667D01*
X12524048Y-27694143D01*
X12514524Y-27675095D01*
X12514524Y-27665571D01*
X12524048Y-27646524D01*
X12533571Y-27637000D01*
X12552619Y-27627476D01*
X12590714Y-27627476D01*
X12609762Y-27637000D01*
X12619286Y-27646524D01*
X12628809Y-27665571D01*
X12628809Y-27675095D01*
X12619286Y-27694143D01*
X12609762Y-27703667D01*
X12590714Y-27713190D01*
X12552619Y-27713190D01*
X12533571Y-27722714D01*
X12524048Y-27732238D01*
X12514524Y-27751286D01*
X12514524Y-27789381D01*
X12524048Y-27808428D01*
X12533571Y-27817952D01*
X12552619Y-27827476D01*
X12590714Y-27827476D01*
X12609762Y-27817952D01*
X12619286Y-27808428D01*
X12628809Y-27789381D01*
X12628809Y-27751286D01*
X12619286Y-27732238D01*
X12609762Y-27722714D01*
X12590714Y-27713190D01*
X12866905Y-27827476D02*
X12866905Y-27627476D01*
X12952619Y-27827476D02*
X12952619Y-27722714D01*
X12943095Y-27703667D01*
X12924048Y-27694143D01*
X12895476Y-27694143D01*
X12876428Y-27703667D01*
X12866905Y-27713190D01*
X13076428Y-27827476D02*
X13057381Y-27817952D01*
X13047857Y-27808428D01*
X13038333Y-27789381D01*
X13038333Y-27732238D01*
X13047857Y-27713190D01*
X13057381Y-27703667D01*
X13076428Y-27694143D01*
X13105000Y-27694143D01*
X13124048Y-27703667D01*
X13133571Y-27713190D01*
X13143095Y-27732238D01*
X13143095Y-27789381D01*
X13133571Y-27808428D01*
X13124048Y-27817952D01*
X13105000Y-27827476D01*
X13076428Y-27827476D01*
X13257381Y-27827476D02*
X13238333Y-27817952D01*
X13228809Y-27798905D01*
X13228809Y-27627476D01*
X13409762Y-27817952D02*
X13390714Y-27827476D01*
X13352619Y-27827476D01*
X13333571Y-27817952D01*
X13324048Y-27798905D01*
X13324048Y-27722714D01*
X13333571Y-27703667D01*
X13352619Y-27694143D01*
X13390714Y-27694143D01*
X13409762Y-27703667D01*
X13419286Y-27722714D01*
X13419286Y-27741762D01*
X13324048Y-27760809D01*
X13495476Y-27817952D02*
X13514524Y-27827476D01*
X13552619Y-27827476D01*
X13571667Y-27817952D01*
X13581190Y-27798905D01*
X13581190Y-27789381D01*
X13571667Y-27770333D01*
X13552619Y-27760809D01*
X13524048Y-27760809D01*
X13505000Y-27751286D01*
X13495476Y-27732238D01*
X13495476Y-27722714D01*
X13505000Y-27703667D01*
X13524048Y-27694143D01*
X13552619Y-27694143D01*
X13571667Y-27703667D01*
X13647857Y-27903667D02*
X13657381Y-27894143D01*
X13676428Y-27865571D01*
X13685952Y-27846524D01*
X13695476Y-27817952D01*
X13705000Y-27770333D01*
X13705000Y-27732238D01*
X13695476Y-27684619D01*
X13685952Y-27656048D01*
X13676428Y-27637000D01*
X13657381Y-27608428D01*
X13647857Y-27598905D01*
D16*
X8450000Y-28046000D02*
X8495000Y-28001000D01*
X8450000Y-27956000D01*
X8405000Y-28001000D01*
X8450000Y-28046000D01*
D11*
X8790714Y-27891476D02*
X8809762Y-27891476D01*
X8828810Y-27901000D01*
X8838333Y-27910524D01*
X8847857Y-27929571D01*
X8857381Y-27967667D01*
X8857381Y-28015286D01*
X8847857Y-28053381D01*
X8838333Y-28072428D01*
X8828810Y-28081952D01*
X8809762Y-28091476D01*
X8790714Y-28091476D01*
X8771667Y-28081952D01*
X8762143Y-28072428D01*
X8752619Y-28053381D01*
X8743095Y-28015286D01*
X8743095Y-27967667D01*
X8752619Y-27929571D01*
X8762143Y-27910524D01*
X8771667Y-27901000D01*
X8790714Y-27891476D01*
X8943095Y-28072428D02*
X8952619Y-28081952D01*
X8943095Y-28091476D01*
X8933571Y-28081952D01*
X8943095Y-28072428D01*
X8943095Y-28091476D01*
X9047857Y-28091476D02*
X9085952Y-28091476D01*
X9105000Y-28081952D01*
X9114524Y-28072428D01*
X9133571Y-28043857D01*
X9143095Y-28005762D01*
X9143095Y-27929571D01*
X9133571Y-27910524D01*
X9124048Y-27901000D01*
X9105000Y-27891476D01*
X9066905Y-27891476D01*
X9047857Y-27901000D01*
X9038333Y-27910524D01*
X9028810Y-27929571D01*
X9028810Y-27977190D01*
X9038333Y-27996238D01*
X9047857Y-28005762D01*
X9066905Y-28015286D01*
X9105000Y-28015286D01*
X9124048Y-28005762D01*
X9133571Y-27996238D01*
X9143095Y-27977190D01*
X9266905Y-27891476D02*
X9285952Y-27891476D01*
X9305000Y-27901000D01*
X9314524Y-27910524D01*
X9324048Y-27929571D01*
X9333571Y-27967667D01*
X9333571Y-28015286D01*
X9324048Y-28053381D01*
X9314524Y-28072428D01*
X9305000Y-28081952D01*
X9285952Y-28091476D01*
X9266905Y-28091476D01*
X9247857Y-28081952D01*
X9238333Y-28072428D01*
X9228810Y-28053381D01*
X9219286Y-28015286D01*
X9219286Y-27967667D01*
X9228810Y-27929571D01*
X9238333Y-27910524D01*
X9247857Y-27901000D01*
X9266905Y-27891476D01*
X9457381Y-27891476D02*
X9476429Y-27891476D01*
X9495476Y-27901000D01*
X9505000Y-27910524D01*
X9514524Y-27929571D01*
X9524048Y-27967667D01*
X9524048Y-28015286D01*
X9514524Y-28053381D01*
X9505000Y-28072428D01*
X9495476Y-28081952D01*
X9476429Y-28091476D01*
X9457381Y-28091476D01*
X9438333Y-28081952D01*
X9428810Y-28072428D01*
X9419286Y-28053381D01*
X9409762Y-28015286D01*
X9409762Y-27967667D01*
X9419286Y-27929571D01*
X9428810Y-27910524D01*
X9438333Y-27901000D01*
X9457381Y-27891476D01*
X9609762Y-28091476D02*
X9609762Y-27958143D01*
X9609762Y-27977190D02*
X9619286Y-27967667D01*
X9638333Y-27958143D01*
X9666905Y-27958143D01*
X9685952Y-27967667D01*
X9695476Y-27986714D01*
X9695476Y-28091476D01*
X9695476Y-27986714D02*
X9705000Y-27967667D01*
X9724048Y-27958143D01*
X9752619Y-27958143D01*
X9771667Y-27967667D01*
X9781190Y-27986714D01*
X9781190Y-28091476D01*
X9876429Y-28091476D02*
X9876429Y-27958143D01*
X9876429Y-27977190D02*
X9885952Y-27967667D01*
X9905000Y-27958143D01*
X9933571Y-27958143D01*
X9952619Y-27967667D01*
X9962143Y-27986714D01*
X9962143Y-28091476D01*
X9962143Y-27986714D02*
X9971667Y-27967667D01*
X9990714Y-27958143D01*
X10019286Y-27958143D01*
X10038333Y-27967667D01*
X10047857Y-27986714D01*
X10047857Y-28091476D01*
X10438333Y-27881952D02*
X10266905Y-28139095D01*
X10695476Y-27891476D02*
X10714524Y-27891476D01*
X10733571Y-27901000D01*
X10743095Y-27910524D01*
X10752619Y-27929571D01*
X10762143Y-27967667D01*
X10762143Y-28015286D01*
X10752619Y-28053381D01*
X10743095Y-28072428D01*
X10733571Y-28081952D01*
X10714524Y-28091476D01*
X10695476Y-28091476D01*
X10676429Y-28081952D01*
X10666905Y-28072428D01*
X10657381Y-28053381D01*
X10647857Y-28015286D01*
X10647857Y-27967667D01*
X10657381Y-27929571D01*
X10666905Y-27910524D01*
X10676429Y-27901000D01*
X10695476Y-27891476D01*
X10847857Y-28072428D02*
X10857381Y-28081952D01*
X10847857Y-28091476D01*
X10838333Y-28081952D01*
X10847857Y-28072428D01*
X10847857Y-28091476D01*
X10981190Y-27891476D02*
X11000238Y-27891476D01*
X11019286Y-27901000D01*
X11028810Y-27910524D01*
X11038333Y-27929571D01*
X11047857Y-27967667D01*
X11047857Y-28015286D01*
X11038333Y-28053381D01*
X11028810Y-28072428D01*
X11019286Y-28081952D01*
X11000238Y-28091476D01*
X10981190Y-28091476D01*
X10962143Y-28081952D01*
X10952619Y-28072428D01*
X10943095Y-28053381D01*
X10933571Y-28015286D01*
X10933571Y-27967667D01*
X10943095Y-27929571D01*
X10952619Y-27910524D01*
X10962143Y-27901000D01*
X10981190Y-27891476D01*
X11114524Y-27891476D02*
X11238333Y-27891476D01*
X11171667Y-27967667D01*
X11200238Y-27967667D01*
X11219286Y-27977190D01*
X11228809Y-27986714D01*
X11238333Y-28005762D01*
X11238333Y-28053381D01*
X11228809Y-28072428D01*
X11219286Y-28081952D01*
X11200238Y-28091476D01*
X11143095Y-28091476D01*
X11124048Y-28081952D01*
X11114524Y-28072428D01*
X11419286Y-27891476D02*
X11324048Y-27891476D01*
X11314524Y-27986714D01*
X11324048Y-27977190D01*
X11343095Y-27967667D01*
X11390714Y-27967667D01*
X11409762Y-27977190D01*
X11419286Y-27986714D01*
X11428809Y-28005762D01*
X11428809Y-28053381D01*
X11419286Y-28072428D01*
X11409762Y-28081952D01*
X11390714Y-28091476D01*
X11343095Y-28091476D01*
X11324048Y-28081952D01*
X11314524Y-28072428D01*
X11600238Y-27958143D02*
X11600238Y-28091476D01*
X11552619Y-27881952D02*
X11505000Y-28024809D01*
X11628809Y-28024809D01*
X11695476Y-27891476D02*
X11695476Y-27929571D01*
X11771667Y-27891476D02*
X11771667Y-27929571D01*
X12066905Y-28167667D02*
X12057381Y-28158143D01*
X12038333Y-28129571D01*
X12028809Y-28110524D01*
X12019286Y-28081952D01*
X12009762Y-28034333D01*
X12009762Y-27996238D01*
X12019286Y-27948619D01*
X12028809Y-27920048D01*
X12038333Y-27901000D01*
X12057381Y-27872428D01*
X12066905Y-27862905D01*
X12171667Y-27977190D02*
X12152619Y-27967667D01*
X12143095Y-27958143D01*
X12133571Y-27939095D01*
X12133571Y-27929571D01*
X12143095Y-27910524D01*
X12152619Y-27901000D01*
X12171667Y-27891476D01*
X12209762Y-27891476D01*
X12228809Y-27901000D01*
X12238333Y-27910524D01*
X12247857Y-27929571D01*
X12247857Y-27939095D01*
X12238333Y-27958143D01*
X12228809Y-27967667D01*
X12209762Y-27977190D01*
X12171667Y-27977190D01*
X12152619Y-27986714D01*
X12143095Y-27996238D01*
X12133571Y-28015286D01*
X12133571Y-28053381D01*
X12143095Y-28072428D01*
X12152619Y-28081952D01*
X12171667Y-28091476D01*
X12209762Y-28091476D01*
X12228809Y-28081952D01*
X12238333Y-28072428D01*
X12247857Y-28053381D01*
X12247857Y-28015286D01*
X12238333Y-27996238D01*
X12228809Y-27986714D01*
X12209762Y-27977190D01*
X12485952Y-28091476D02*
X12485952Y-27891476D01*
X12571667Y-28091476D02*
X12571667Y-27986714D01*
X12562143Y-27967667D01*
X12543095Y-27958143D01*
X12514524Y-27958143D01*
X12495476Y-27967667D01*
X12485952Y-27977190D01*
X12695476Y-28091476D02*
X12676428Y-28081952D01*
X12666905Y-28072428D01*
X12657381Y-28053381D01*
X12657381Y-27996238D01*
X12666905Y-27977190D01*
X12676428Y-27967667D01*
X12695476Y-27958143D01*
X12724048Y-27958143D01*
X12743095Y-27967667D01*
X12752619Y-27977190D01*
X12762143Y-27996238D01*
X12762143Y-28053381D01*
X12752619Y-28072428D01*
X12743095Y-28081952D01*
X12724048Y-28091476D01*
X12695476Y-28091476D01*
X12876428Y-28091476D02*
X12857381Y-28081952D01*
X12847857Y-28062905D01*
X12847857Y-27891476D01*
X13028809Y-28081952D02*
X13009762Y-28091476D01*
X12971667Y-28091476D01*
X12952619Y-28081952D01*
X12943095Y-28062905D01*
X12943095Y-27986714D01*
X12952619Y-27967667D01*
X12971667Y-27958143D01*
X13009762Y-27958143D01*
X13028809Y-27967667D01*
X13038333Y-27986714D01*
X13038333Y-28005762D01*
X12943095Y-28024809D01*
X13114524Y-28081952D02*
X13133571Y-28091476D01*
X13171667Y-28091476D01*
X13190714Y-28081952D01*
X13200238Y-28062905D01*
X13200238Y-28053381D01*
X13190714Y-28034333D01*
X13171667Y-28024809D01*
X13143095Y-28024809D01*
X13124048Y-28015286D01*
X13114524Y-27996238D01*
X13114524Y-27986714D01*
X13124048Y-27967667D01*
X13143095Y-27958143D01*
X13171667Y-27958143D01*
X13190714Y-27967667D01*
X13266905Y-28167667D02*
X13276428Y-28158143D01*
X13295476Y-28129571D01*
X13305000Y-28110524D01*
X13314524Y-28081952D01*
X13324048Y-28034333D01*
X13324048Y-27996238D01*
X13314524Y-27948619D01*
X13305000Y-27920048D01*
X13295476Y-27901000D01*
X13276428Y-27872428D01*
X13266905Y-27862905D01*
D10*
X8395000Y-28215000D02*
X8495000Y-28315000D01*
X8495000Y-28215000D02*
X8395000Y-28315000D01*
X8495000Y-28265000D02*
G75*
G03*
X8495000Y-28265000I-50000J0D01*
G01*
D11*
X8857381Y-28355476D02*
X8743095Y-28355476D01*
X8800238Y-28355476D02*
X8800238Y-28155476D01*
X8781190Y-28184048D01*
X8762143Y-28203095D01*
X8743095Y-28212619D01*
X8943095Y-28336428D02*
X8952619Y-28345952D01*
X8943095Y-28355476D01*
X8933571Y-28345952D01*
X8943095Y-28336428D01*
X8943095Y-28355476D01*
X9076429Y-28155476D02*
X9095476Y-28155476D01*
X9114524Y-28165000D01*
X9124048Y-28174524D01*
X9133571Y-28193571D01*
X9143095Y-28231667D01*
X9143095Y-28279286D01*
X9133571Y-28317381D01*
X9124048Y-28336428D01*
X9114524Y-28345952D01*
X9095476Y-28355476D01*
X9076429Y-28355476D01*
X9057381Y-28345952D01*
X9047857Y-28336428D01*
X9038333Y-28317381D01*
X9028810Y-28279286D01*
X9028810Y-28231667D01*
X9038333Y-28193571D01*
X9047857Y-28174524D01*
X9057381Y-28165000D01*
X9076429Y-28155476D01*
X9266905Y-28155476D02*
X9285952Y-28155476D01*
X9305000Y-28165000D01*
X9314524Y-28174524D01*
X9324048Y-28193571D01*
X9333571Y-28231667D01*
X9333571Y-28279286D01*
X9324048Y-28317381D01*
X9314524Y-28336428D01*
X9305000Y-28345952D01*
X9285952Y-28355476D01*
X9266905Y-28355476D01*
X9247857Y-28345952D01*
X9238333Y-28336428D01*
X9228810Y-28317381D01*
X9219286Y-28279286D01*
X9219286Y-28231667D01*
X9228810Y-28193571D01*
X9238333Y-28174524D01*
X9247857Y-28165000D01*
X9266905Y-28155476D01*
X9457381Y-28155476D02*
X9476429Y-28155476D01*
X9495476Y-28165000D01*
X9505000Y-28174524D01*
X9514524Y-28193571D01*
X9524048Y-28231667D01*
X9524048Y-28279286D01*
X9514524Y-28317381D01*
X9505000Y-28336428D01*
X9495476Y-28345952D01*
X9476429Y-28355476D01*
X9457381Y-28355476D01*
X9438333Y-28345952D01*
X9428810Y-28336428D01*
X9419286Y-28317381D01*
X9409762Y-28279286D01*
X9409762Y-28231667D01*
X9419286Y-28193571D01*
X9428810Y-28174524D01*
X9438333Y-28165000D01*
X9457381Y-28155476D01*
X9609762Y-28355476D02*
X9609762Y-28222143D01*
X9609762Y-28241190D02*
X9619286Y-28231667D01*
X9638333Y-28222143D01*
X9666905Y-28222143D01*
X9685952Y-28231667D01*
X9695476Y-28250714D01*
X9695476Y-28355476D01*
X9695476Y-28250714D02*
X9705000Y-28231667D01*
X9724048Y-28222143D01*
X9752619Y-28222143D01*
X9771667Y-28231667D01*
X9781190Y-28250714D01*
X9781190Y-28355476D01*
X9876429Y-28355476D02*
X9876429Y-28222143D01*
X9876429Y-28241190D02*
X9885952Y-28231667D01*
X9905000Y-28222143D01*
X9933571Y-28222143D01*
X9952619Y-28231667D01*
X9962143Y-28250714D01*
X9962143Y-28355476D01*
X9962143Y-28250714D02*
X9971667Y-28231667D01*
X9990714Y-28222143D01*
X10019286Y-28222143D01*
X10038333Y-28231667D01*
X10047857Y-28250714D01*
X10047857Y-28355476D01*
X10438333Y-28145952D02*
X10266905Y-28403095D01*
X10695476Y-28155476D02*
X10714524Y-28155476D01*
X10733571Y-28165000D01*
X10743095Y-28174524D01*
X10752619Y-28193571D01*
X10762143Y-28231667D01*
X10762143Y-28279286D01*
X10752619Y-28317381D01*
X10743095Y-28336428D01*
X10733571Y-28345952D01*
X10714524Y-28355476D01*
X10695476Y-28355476D01*
X10676429Y-28345952D01*
X10666905Y-28336428D01*
X10657381Y-28317381D01*
X10647857Y-28279286D01*
X10647857Y-28231667D01*
X10657381Y-28193571D01*
X10666905Y-28174524D01*
X10676429Y-28165000D01*
X10695476Y-28155476D01*
X10847857Y-28336428D02*
X10857381Y-28345952D01*
X10847857Y-28355476D01*
X10838333Y-28345952D01*
X10847857Y-28336428D01*
X10847857Y-28355476D01*
X10981190Y-28155476D02*
X11000238Y-28155476D01*
X11019286Y-28165000D01*
X11028810Y-28174524D01*
X11038333Y-28193571D01*
X11047857Y-28231667D01*
X11047857Y-28279286D01*
X11038333Y-28317381D01*
X11028810Y-28336428D01*
X11019286Y-28345952D01*
X11000238Y-28355476D01*
X10981190Y-28355476D01*
X10962143Y-28345952D01*
X10952619Y-28336428D01*
X10943095Y-28317381D01*
X10933571Y-28279286D01*
X10933571Y-28231667D01*
X10943095Y-28193571D01*
X10952619Y-28174524D01*
X10962143Y-28165000D01*
X10981190Y-28155476D01*
X11114524Y-28155476D02*
X11238333Y-28155476D01*
X11171667Y-28231667D01*
X11200238Y-28231667D01*
X11219286Y-28241190D01*
X11228809Y-28250714D01*
X11238333Y-28269762D01*
X11238333Y-28317381D01*
X11228809Y-28336428D01*
X11219286Y-28345952D01*
X11200238Y-28355476D01*
X11143095Y-28355476D01*
X11124048Y-28345952D01*
X11114524Y-28336428D01*
X11333571Y-28355476D02*
X11371667Y-28355476D01*
X11390714Y-28345952D01*
X11400238Y-28336428D01*
X11419286Y-28307857D01*
X11428809Y-28269762D01*
X11428809Y-28193571D01*
X11419286Y-28174524D01*
X11409762Y-28165000D01*
X11390714Y-28155476D01*
X11352619Y-28155476D01*
X11333571Y-28165000D01*
X11324048Y-28174524D01*
X11314524Y-28193571D01*
X11314524Y-28241190D01*
X11324048Y-28260238D01*
X11333571Y-28269762D01*
X11352619Y-28279286D01*
X11390714Y-28279286D01*
X11409762Y-28269762D01*
X11419286Y-28260238D01*
X11428809Y-28241190D01*
X11600238Y-28222143D02*
X11600238Y-28355476D01*
X11552619Y-28145952D02*
X11505000Y-28288809D01*
X11628809Y-28288809D01*
X11695476Y-28155476D02*
X11695476Y-28193571D01*
X11771667Y-28155476D02*
X11771667Y-28193571D01*
X12066905Y-28431667D02*
X12057381Y-28422143D01*
X12038333Y-28393571D01*
X12028809Y-28374524D01*
X12019286Y-28345952D01*
X12009762Y-28298333D01*
X12009762Y-28260238D01*
X12019286Y-28212619D01*
X12028809Y-28184048D01*
X12038333Y-28165000D01*
X12057381Y-28136428D01*
X12066905Y-28126905D01*
X12228809Y-28222143D02*
X12228809Y-28355476D01*
X12181190Y-28145952D02*
X12133571Y-28288809D01*
X12257381Y-28288809D01*
X12485952Y-28355476D02*
X12485952Y-28155476D01*
X12571667Y-28355476D02*
X12571667Y-28250714D01*
X12562143Y-28231667D01*
X12543095Y-28222143D01*
X12514524Y-28222143D01*
X12495476Y-28231667D01*
X12485952Y-28241190D01*
X12695476Y-28355476D02*
X12676428Y-28345952D01*
X12666905Y-28336428D01*
X12657381Y-28317381D01*
X12657381Y-28260238D01*
X12666905Y-28241190D01*
X12676428Y-28231667D01*
X12695476Y-28222143D01*
X12724048Y-28222143D01*
X12743095Y-28231667D01*
X12752619Y-28241190D01*
X12762143Y-28260238D01*
X12762143Y-28317381D01*
X12752619Y-28336428D01*
X12743095Y-28345952D01*
X12724048Y-28355476D01*
X12695476Y-28355476D01*
X12876428Y-28355476D02*
X12857381Y-28345952D01*
X12847857Y-28326905D01*
X12847857Y-28155476D01*
X13028809Y-28345952D02*
X13009762Y-28355476D01*
X12971667Y-28355476D01*
X12952619Y-28345952D01*
X12943095Y-28326905D01*
X12943095Y-28250714D01*
X12952619Y-28231667D01*
X12971667Y-28222143D01*
X13009762Y-28222143D01*
X13028809Y-28231667D01*
X13038333Y-28250714D01*
X13038333Y-28269762D01*
X12943095Y-28288809D01*
X13114524Y-28345952D02*
X13133571Y-28355476D01*
X13171667Y-28355476D01*
X13190714Y-28345952D01*
X13200238Y-28326905D01*
X13200238Y-28317381D01*
X13190714Y-28298333D01*
X13171667Y-28288809D01*
X13143095Y-28288809D01*
X13124048Y-28279286D01*
X13114524Y-28260238D01*
X13114524Y-28250714D01*
X13124048Y-28231667D01*
X13143095Y-28222143D01*
X13171667Y-28222143D01*
X13190714Y-28231667D01*
X13266905Y-28431667D02*
X13276428Y-28422143D01*
X13295476Y-28393571D01*
X13305000Y-28374524D01*
X13314524Y-28345952D01*
X13324048Y-28298333D01*
X13324048Y-28260238D01*
X13314524Y-28212619D01*
X13305000Y-28184048D01*
X13295476Y-28165000D01*
X13276428Y-28136428D01*
X13266905Y-28126905D01*
D17*
X8393000Y-28478000D02*
X8495000Y-28580000D01*
X8495000Y-28478000D02*
X8393000Y-28580000D01*
X8444000Y-28478000D02*
X8444000Y-28580000D01*
X8393000Y-28529000D02*
X8495000Y-28529000D01*
D11*
X8857381Y-28619476D02*
X8743095Y-28619476D01*
X8800238Y-28619476D02*
X8800238Y-28419476D01*
X8781190Y-28448048D01*
X8762143Y-28467095D01*
X8743095Y-28476619D01*
X8943095Y-28600428D02*
X8952619Y-28609952D01*
X8943095Y-28619476D01*
X8933571Y-28609952D01*
X8943095Y-28600428D01*
X8943095Y-28619476D01*
X9076429Y-28419476D02*
X9095476Y-28419476D01*
X9114524Y-28429000D01*
X9124048Y-28438524D01*
X9133571Y-28457571D01*
X9143095Y-28495667D01*
X9143095Y-28543286D01*
X9133571Y-28581381D01*
X9124048Y-28600428D01*
X9114524Y-28609952D01*
X9095476Y-28619476D01*
X9076429Y-28619476D01*
X9057381Y-28609952D01*
X9047857Y-28600428D01*
X9038333Y-28581381D01*
X9028810Y-28543286D01*
X9028810Y-28495667D01*
X9038333Y-28457571D01*
X9047857Y-28438524D01*
X9057381Y-28429000D01*
X9076429Y-28419476D01*
X9219286Y-28438524D02*
X9228810Y-28429000D01*
X9247857Y-28419476D01*
X9295476Y-28419476D01*
X9314524Y-28429000D01*
X9324048Y-28438524D01*
X9333571Y-28457571D01*
X9333571Y-28476619D01*
X9324048Y-28505190D01*
X9209762Y-28619476D01*
X9333571Y-28619476D01*
X9457381Y-28419476D02*
X9476429Y-28419476D01*
X9495476Y-28429000D01*
X9505000Y-28438524D01*
X9514524Y-28457571D01*
X9524048Y-28495667D01*
X9524048Y-28543286D01*
X9514524Y-28581381D01*
X9505000Y-28600428D01*
X9495476Y-28609952D01*
X9476429Y-28619476D01*
X9457381Y-28619476D01*
X9438333Y-28609952D01*
X9428810Y-28600428D01*
X9419286Y-28581381D01*
X9409762Y-28543286D01*
X9409762Y-28495667D01*
X9419286Y-28457571D01*
X9428810Y-28438524D01*
X9438333Y-28429000D01*
X9457381Y-28419476D01*
X9609762Y-28619476D02*
X9609762Y-28486143D01*
X9609762Y-28505190D02*
X9619286Y-28495667D01*
X9638333Y-28486143D01*
X9666905Y-28486143D01*
X9685952Y-28495667D01*
X9695476Y-28514714D01*
X9695476Y-28619476D01*
X9695476Y-28514714D02*
X9705000Y-28495667D01*
X9724048Y-28486143D01*
X9752619Y-28486143D01*
X9771667Y-28495667D01*
X9781190Y-28514714D01*
X9781190Y-28619476D01*
X9876429Y-28619476D02*
X9876429Y-28486143D01*
X9876429Y-28505190D02*
X9885952Y-28495667D01*
X9905000Y-28486143D01*
X9933571Y-28486143D01*
X9952619Y-28495667D01*
X9962143Y-28514714D01*
X9962143Y-28619476D01*
X9962143Y-28514714D02*
X9971667Y-28495667D01*
X9990714Y-28486143D01*
X10019286Y-28486143D01*
X10038333Y-28495667D01*
X10047857Y-28514714D01*
X10047857Y-28619476D01*
X10438333Y-28409952D02*
X10266905Y-28667095D01*
X10695476Y-28419476D02*
X10714524Y-28419476D01*
X10733571Y-28429000D01*
X10743095Y-28438524D01*
X10752619Y-28457571D01*
X10762143Y-28495667D01*
X10762143Y-28543286D01*
X10752619Y-28581381D01*
X10743095Y-28600428D01*
X10733571Y-28609952D01*
X10714524Y-28619476D01*
X10695476Y-28619476D01*
X10676429Y-28609952D01*
X10666905Y-28600428D01*
X10657381Y-28581381D01*
X10647857Y-28543286D01*
X10647857Y-28495667D01*
X10657381Y-28457571D01*
X10666905Y-28438524D01*
X10676429Y-28429000D01*
X10695476Y-28419476D01*
X10847857Y-28600428D02*
X10857381Y-28609952D01*
X10847857Y-28619476D01*
X10838333Y-28609952D01*
X10847857Y-28600428D01*
X10847857Y-28619476D01*
X10981190Y-28419476D02*
X11000238Y-28419476D01*
X11019286Y-28429000D01*
X11028810Y-28438524D01*
X11038333Y-28457571D01*
X11047857Y-28495667D01*
X11047857Y-28543286D01*
X11038333Y-28581381D01*
X11028810Y-28600428D01*
X11019286Y-28609952D01*
X11000238Y-28619476D01*
X10981190Y-28619476D01*
X10962143Y-28609952D01*
X10952619Y-28600428D01*
X10943095Y-28581381D01*
X10933571Y-28543286D01*
X10933571Y-28495667D01*
X10943095Y-28457571D01*
X10952619Y-28438524D01*
X10962143Y-28429000D01*
X10981190Y-28419476D01*
X11219286Y-28486143D02*
X11219286Y-28619476D01*
X11171667Y-28409952D02*
X11124048Y-28552809D01*
X11247857Y-28552809D01*
X11362143Y-28419476D02*
X11381190Y-28419476D01*
X11400238Y-28429000D01*
X11409762Y-28438524D01*
X11419286Y-28457571D01*
X11428809Y-28495667D01*
X11428809Y-28543286D01*
X11419286Y-28581381D01*
X11409762Y-28600428D01*
X11400238Y-28609952D01*
X11381190Y-28619476D01*
X11362143Y-28619476D01*
X11343095Y-28609952D01*
X11333571Y-28600428D01*
X11324048Y-28581381D01*
X11314524Y-28543286D01*
X11314524Y-28495667D01*
X11324048Y-28457571D01*
X11333571Y-28438524D01*
X11343095Y-28429000D01*
X11362143Y-28419476D01*
X11505000Y-28438524D02*
X11514524Y-28429000D01*
X11533571Y-28419476D01*
X11581190Y-28419476D01*
X11600238Y-28429000D01*
X11609762Y-28438524D01*
X11619286Y-28457571D01*
X11619286Y-28476619D01*
X11609762Y-28505190D01*
X11495476Y-28619476D01*
X11619286Y-28619476D01*
X11695476Y-28419476D02*
X11695476Y-28457571D01*
X11771667Y-28419476D02*
X11771667Y-28457571D01*
X12066905Y-28695667D02*
X12057381Y-28686143D01*
X12038333Y-28657571D01*
X12028809Y-28638524D01*
X12019286Y-28609952D01*
X12009762Y-28562333D01*
X12009762Y-28524238D01*
X12019286Y-28476619D01*
X12028809Y-28448048D01*
X12038333Y-28429000D01*
X12057381Y-28400428D01*
X12066905Y-28390905D01*
X12171667Y-28505190D02*
X12152619Y-28495667D01*
X12143095Y-28486143D01*
X12133571Y-28467095D01*
X12133571Y-28457571D01*
X12143095Y-28438524D01*
X12152619Y-28429000D01*
X12171667Y-28419476D01*
X12209762Y-28419476D01*
X12228809Y-28429000D01*
X12238333Y-28438524D01*
X12247857Y-28457571D01*
X12247857Y-28467095D01*
X12238333Y-28486143D01*
X12228809Y-28495667D01*
X12209762Y-28505190D01*
X12171667Y-28505190D01*
X12152619Y-28514714D01*
X12143095Y-28524238D01*
X12133571Y-28543286D01*
X12133571Y-28581381D01*
X12143095Y-28600428D01*
X12152619Y-28609952D01*
X12171667Y-28619476D01*
X12209762Y-28619476D01*
X12228809Y-28609952D01*
X12238333Y-28600428D01*
X12247857Y-28581381D01*
X12247857Y-28543286D01*
X12238333Y-28524238D01*
X12228809Y-28514714D01*
X12209762Y-28505190D01*
X12419286Y-28419476D02*
X12381190Y-28419476D01*
X12362143Y-28429000D01*
X12352619Y-28438524D01*
X12333571Y-28467095D01*
X12324048Y-28505190D01*
X12324048Y-28581381D01*
X12333571Y-28600428D01*
X12343095Y-28609952D01*
X12362143Y-28619476D01*
X12400238Y-28619476D01*
X12419286Y-28609952D01*
X12428809Y-28600428D01*
X12438333Y-28581381D01*
X12438333Y-28533762D01*
X12428809Y-28514714D01*
X12419286Y-28505190D01*
X12400238Y-28495667D01*
X12362143Y-28495667D01*
X12343095Y-28505190D01*
X12333571Y-28514714D01*
X12324048Y-28533762D01*
X12676428Y-28619476D02*
X12676428Y-28419476D01*
X12762143Y-28619476D02*
X12762143Y-28514714D01*
X12752619Y-28495667D01*
X12733571Y-28486143D01*
X12705000Y-28486143D01*
X12685952Y-28495667D01*
X12676428Y-28505190D01*
X12885952Y-28619476D02*
X12866905Y-28609952D01*
X12857381Y-28600428D01*
X12847857Y-28581381D01*
X12847857Y-28524238D01*
X12857381Y-28505190D01*
X12866905Y-28495667D01*
X12885952Y-28486143D01*
X12914524Y-28486143D01*
X12933571Y-28495667D01*
X12943095Y-28505190D01*
X12952619Y-28524238D01*
X12952619Y-28581381D01*
X12943095Y-28600428D01*
X12933571Y-28609952D01*
X12914524Y-28619476D01*
X12885952Y-28619476D01*
X13066905Y-28619476D02*
X13047857Y-28609952D01*
X13038333Y-28590905D01*
X13038333Y-28419476D01*
X13219286Y-28609952D02*
X13200238Y-28619476D01*
X13162143Y-28619476D01*
X13143095Y-28609952D01*
X13133571Y-28590905D01*
X13133571Y-28514714D01*
X13143095Y-28495667D01*
X13162143Y-28486143D01*
X13200238Y-28486143D01*
X13219286Y-28495667D01*
X13228809Y-28514714D01*
X13228809Y-28533762D01*
X13133571Y-28552809D01*
X13305000Y-28609952D02*
X13324048Y-28619476D01*
X13362143Y-28619476D01*
X13381190Y-28609952D01*
X13390714Y-28590905D01*
X13390714Y-28581381D01*
X13381190Y-28562333D01*
X13362143Y-28552809D01*
X13333571Y-28552809D01*
X13314524Y-28543286D01*
X13305000Y-28524238D01*
X13305000Y-28514714D01*
X13314524Y-28495667D01*
X13333571Y-28486143D01*
X13362143Y-28486143D01*
X13381190Y-28495667D01*
X13457381Y-28695667D02*
X13466905Y-28686143D01*
X13485952Y-28657571D01*
X13495476Y-28638524D01*
X13505000Y-28609952D01*
X13514524Y-28562333D01*
X13514524Y-28524238D01*
X13505000Y-28476619D01*
X13495476Y-28448048D01*
X13485952Y-28429000D01*
X13466905Y-28400428D01*
X13457381Y-28390905D01*
D18*
X8345000Y-28718000D02*
X8495000Y-28868000D01*
X8495000Y-28718000D02*
X8345000Y-28868000D01*
X8473034Y-28846033D02*
X8473034Y-28739966D01*
X8366966Y-28739966D01*
X8366966Y-28846033D01*
X8473034Y-28846033D01*
D11*
X8857381Y-28883476D02*
X8743095Y-28883476D01*
X8800238Y-28883476D02*
X8800238Y-28683476D01*
X8781190Y-28712048D01*
X8762143Y-28731095D01*
X8743095Y-28740619D01*
X8943095Y-28864428D02*
X8952619Y-28873952D01*
X8943095Y-28883476D01*
X8933571Y-28873952D01*
X8943095Y-28864428D01*
X8943095Y-28883476D01*
X9133571Y-28683476D02*
X9038333Y-28683476D01*
X9028810Y-28778714D01*
X9038333Y-28769190D01*
X9057381Y-28759667D01*
X9105000Y-28759667D01*
X9124048Y-28769190D01*
X9133571Y-28778714D01*
X9143095Y-28797762D01*
X9143095Y-28845381D01*
X9133571Y-28864428D01*
X9124048Y-28873952D01*
X9105000Y-28883476D01*
X9057381Y-28883476D01*
X9038333Y-28873952D01*
X9028810Y-28864428D01*
X9266905Y-28683476D02*
X9285952Y-28683476D01*
X9305000Y-28693000D01*
X9314524Y-28702524D01*
X9324048Y-28721571D01*
X9333571Y-28759667D01*
X9333571Y-28807286D01*
X9324048Y-28845381D01*
X9314524Y-28864428D01*
X9305000Y-28873952D01*
X9285952Y-28883476D01*
X9266905Y-28883476D01*
X9247857Y-28873952D01*
X9238333Y-28864428D01*
X9228810Y-28845381D01*
X9219286Y-28807286D01*
X9219286Y-28759667D01*
X9228810Y-28721571D01*
X9238333Y-28702524D01*
X9247857Y-28693000D01*
X9266905Y-28683476D01*
X9457381Y-28683476D02*
X9476429Y-28683476D01*
X9495476Y-28693000D01*
X9505000Y-28702524D01*
X9514524Y-28721571D01*
X9524048Y-28759667D01*
X9524048Y-28807286D01*
X9514524Y-28845381D01*
X9505000Y-28864428D01*
X9495476Y-28873952D01*
X9476429Y-28883476D01*
X9457381Y-28883476D01*
X9438333Y-28873952D01*
X9428810Y-28864428D01*
X9419286Y-28845381D01*
X9409762Y-28807286D01*
X9409762Y-28759667D01*
X9419286Y-28721571D01*
X9428810Y-28702524D01*
X9438333Y-28693000D01*
X9457381Y-28683476D01*
X9609762Y-28883476D02*
X9609762Y-28750143D01*
X9609762Y-28769190D02*
X9619286Y-28759667D01*
X9638333Y-28750143D01*
X9666905Y-28750143D01*
X9685952Y-28759667D01*
X9695476Y-28778714D01*
X9695476Y-28883476D01*
X9695476Y-28778714D02*
X9705000Y-28759667D01*
X9724048Y-28750143D01*
X9752619Y-28750143D01*
X9771667Y-28759667D01*
X9781190Y-28778714D01*
X9781190Y-28883476D01*
X9876429Y-28883476D02*
X9876429Y-28750143D01*
X9876429Y-28769190D02*
X9885952Y-28759667D01*
X9905000Y-28750143D01*
X9933571Y-28750143D01*
X9952619Y-28759667D01*
X9962143Y-28778714D01*
X9962143Y-28883476D01*
X9962143Y-28778714D02*
X9971667Y-28759667D01*
X9990714Y-28750143D01*
X10019286Y-28750143D01*
X10038333Y-28759667D01*
X10047857Y-28778714D01*
X10047857Y-28883476D01*
X10438333Y-28673952D02*
X10266905Y-28931095D01*
X10695476Y-28683476D02*
X10714524Y-28683476D01*
X10733571Y-28693000D01*
X10743095Y-28702524D01*
X10752619Y-28721571D01*
X10762143Y-28759667D01*
X10762143Y-28807286D01*
X10752619Y-28845381D01*
X10743095Y-28864428D01*
X10733571Y-28873952D01*
X10714524Y-28883476D01*
X10695476Y-28883476D01*
X10676429Y-28873952D01*
X10666905Y-28864428D01*
X10657381Y-28845381D01*
X10647857Y-28807286D01*
X10647857Y-28759667D01*
X10657381Y-28721571D01*
X10666905Y-28702524D01*
X10676429Y-28693000D01*
X10695476Y-28683476D01*
X10847857Y-28864428D02*
X10857381Y-28873952D01*
X10847857Y-28883476D01*
X10838333Y-28873952D01*
X10847857Y-28864428D01*
X10847857Y-28883476D01*
X10981190Y-28683476D02*
X11000238Y-28683476D01*
X11019286Y-28693000D01*
X11028810Y-28702524D01*
X11038333Y-28721571D01*
X11047857Y-28759667D01*
X11047857Y-28807286D01*
X11038333Y-28845381D01*
X11028810Y-28864428D01*
X11019286Y-28873952D01*
X11000238Y-28883476D01*
X10981190Y-28883476D01*
X10962143Y-28873952D01*
X10952619Y-28864428D01*
X10943095Y-28845381D01*
X10933571Y-28807286D01*
X10933571Y-28759667D01*
X10943095Y-28721571D01*
X10952619Y-28702524D01*
X10962143Y-28693000D01*
X10981190Y-28683476D01*
X11228809Y-28683476D02*
X11133571Y-28683476D01*
X11124048Y-28778714D01*
X11133571Y-28769190D01*
X11152619Y-28759667D01*
X11200238Y-28759667D01*
X11219286Y-28769190D01*
X11228809Y-28778714D01*
X11238333Y-28797762D01*
X11238333Y-28845381D01*
X11228809Y-28864428D01*
X11219286Y-28873952D01*
X11200238Y-28883476D01*
X11152619Y-28883476D01*
X11133571Y-28873952D01*
X11124048Y-28864428D01*
X11333571Y-28883476D02*
X11371667Y-28883476D01*
X11390714Y-28873952D01*
X11400238Y-28864428D01*
X11419286Y-28835857D01*
X11428809Y-28797762D01*
X11428809Y-28721571D01*
X11419286Y-28702524D01*
X11409762Y-28693000D01*
X11390714Y-28683476D01*
X11352619Y-28683476D01*
X11333571Y-28693000D01*
X11324048Y-28702524D01*
X11314524Y-28721571D01*
X11314524Y-28769190D01*
X11324048Y-28788238D01*
X11333571Y-28797762D01*
X11352619Y-28807286D01*
X11390714Y-28807286D01*
X11409762Y-28797762D01*
X11419286Y-28788238D01*
X11428809Y-28769190D01*
X11619286Y-28883476D02*
X11505000Y-28883476D01*
X11562143Y-28883476D02*
X11562143Y-28683476D01*
X11543095Y-28712048D01*
X11524048Y-28731095D01*
X11505000Y-28740619D01*
X11695476Y-28683476D02*
X11695476Y-28721571D01*
X11771667Y-28683476D02*
X11771667Y-28721571D01*
X12066905Y-28959667D02*
X12057381Y-28950143D01*
X12038333Y-28921571D01*
X12028809Y-28902524D01*
X12019286Y-28873952D01*
X12009762Y-28826333D01*
X12009762Y-28788238D01*
X12019286Y-28740619D01*
X12028809Y-28712048D01*
X12038333Y-28693000D01*
X12057381Y-28664428D01*
X12066905Y-28654905D01*
X12247857Y-28883476D02*
X12133571Y-28883476D01*
X12190714Y-28883476D02*
X12190714Y-28683476D01*
X12171667Y-28712048D01*
X12152619Y-28731095D01*
X12133571Y-28740619D01*
X12362143Y-28769190D02*
X12343095Y-28759667D01*
X12333571Y-28750143D01*
X12324048Y-28731095D01*
X12324048Y-28721571D01*
X12333571Y-28702524D01*
X12343095Y-28693000D01*
X12362143Y-28683476D01*
X12400238Y-28683476D01*
X12419286Y-28693000D01*
X12428809Y-28702524D01*
X12438333Y-28721571D01*
X12438333Y-28731095D01*
X12428809Y-28750143D01*
X12419286Y-28759667D01*
X12400238Y-28769190D01*
X12362143Y-28769190D01*
X12343095Y-28778714D01*
X12333571Y-28788238D01*
X12324048Y-28807286D01*
X12324048Y-28845381D01*
X12333571Y-28864428D01*
X12343095Y-28873952D01*
X12362143Y-28883476D01*
X12400238Y-28883476D01*
X12419286Y-28873952D01*
X12428809Y-28864428D01*
X12438333Y-28845381D01*
X12438333Y-28807286D01*
X12428809Y-28788238D01*
X12419286Y-28778714D01*
X12400238Y-28769190D01*
X12552619Y-28769190D02*
X12533571Y-28759667D01*
X12524048Y-28750143D01*
X12514524Y-28731095D01*
X12514524Y-28721571D01*
X12524048Y-28702524D01*
X12533571Y-28693000D01*
X12552619Y-28683476D01*
X12590714Y-28683476D01*
X12609762Y-28693000D01*
X12619286Y-28702524D01*
X12628809Y-28721571D01*
X12628809Y-28731095D01*
X12619286Y-28750143D01*
X12609762Y-28759667D01*
X12590714Y-28769190D01*
X12552619Y-28769190D01*
X12533571Y-28778714D01*
X12524048Y-28788238D01*
X12514524Y-28807286D01*
X12514524Y-28845381D01*
X12524048Y-28864428D01*
X12533571Y-28873952D01*
X12552619Y-28883476D01*
X12590714Y-28883476D01*
X12609762Y-28873952D01*
X12619286Y-28864428D01*
X12628809Y-28845381D01*
X12628809Y-28807286D01*
X12619286Y-28788238D01*
X12609762Y-28778714D01*
X12590714Y-28769190D01*
X12866905Y-28883476D02*
X12866905Y-28683476D01*
X12952619Y-28883476D02*
X12952619Y-28778714D01*
X12943095Y-28759667D01*
X12924048Y-28750143D01*
X12895476Y-28750143D01*
X12876428Y-28759667D01*
X12866905Y-28769190D01*
X13076428Y-28883476D02*
X13057381Y-28873952D01*
X13047857Y-28864428D01*
X13038333Y-28845381D01*
X13038333Y-28788238D01*
X13047857Y-28769190D01*
X13057381Y-28759667D01*
X13076428Y-28750143D01*
X13105000Y-28750143D01*
X13124048Y-28759667D01*
X13133571Y-28769190D01*
X13143095Y-28788238D01*
X13143095Y-28845381D01*
X13133571Y-28864428D01*
X13124048Y-28873952D01*
X13105000Y-28883476D01*
X13076428Y-28883476D01*
X13257381Y-28883476D02*
X13238333Y-28873952D01*
X13228809Y-28854905D01*
X13228809Y-28683476D01*
X13409762Y-28873952D02*
X13390714Y-28883476D01*
X13352619Y-28883476D01*
X13333571Y-28873952D01*
X13324048Y-28854905D01*
X13324048Y-28778714D01*
X13333571Y-28759667D01*
X13352619Y-28750143D01*
X13390714Y-28750143D01*
X13409762Y-28759667D01*
X13419286Y-28778714D01*
X13419286Y-28797762D01*
X13324048Y-28816809D01*
X13495476Y-28873952D02*
X13514524Y-28883476D01*
X13552619Y-28883476D01*
X13571667Y-28873952D01*
X13581190Y-28854905D01*
X13581190Y-28845381D01*
X13571667Y-28826333D01*
X13552619Y-28816809D01*
X13524048Y-28816809D01*
X13505000Y-28807286D01*
X13495476Y-28788238D01*
X13495476Y-28778714D01*
X13505000Y-28759667D01*
X13524048Y-28750143D01*
X13552619Y-28750143D01*
X13571667Y-28759667D01*
X13647857Y-28959667D02*
X13657381Y-28950143D01*
X13676428Y-28921571D01*
X13685952Y-28902524D01*
X13695476Y-28873952D01*
X13705000Y-28826333D01*
X13705000Y-28788238D01*
X13695476Y-28740619D01*
X13685952Y-28712048D01*
X13676428Y-28693000D01*
X13657381Y-28664428D01*
X13647857Y-28654905D01*
X8295000Y-28963000D02*
X8495000Y-29163000D01*
X8495000Y-28963000D02*
X8295000Y-29163000D01*
X8395000Y-29163000D02*
X8495000Y-29063000D01*
X8395000Y-28963000D01*
X8295000Y-29063000D01*
X8395000Y-29163000D01*
X8838333Y-29020143D02*
X8838333Y-29153476D01*
X8790714Y-28943952D02*
X8743095Y-29086809D01*
X8866905Y-29086809D01*
X8943095Y-29134428D02*
X8952619Y-29143952D01*
X8943095Y-29153476D01*
X8933571Y-29143952D01*
X8943095Y-29134428D01*
X8943095Y-29153476D01*
X9019286Y-28953476D02*
X9143095Y-28953476D01*
X9076429Y-29029667D01*
X9105000Y-29029667D01*
X9124048Y-29039190D01*
X9133571Y-29048714D01*
X9143095Y-29067762D01*
X9143095Y-29115381D01*
X9133571Y-29134428D01*
X9124048Y-29143952D01*
X9105000Y-29153476D01*
X9047857Y-29153476D01*
X9028810Y-29143952D01*
X9019286Y-29134428D01*
X9266905Y-28953476D02*
X9285952Y-28953476D01*
X9305000Y-28963000D01*
X9314524Y-28972524D01*
X9324048Y-28991571D01*
X9333571Y-29029667D01*
X9333571Y-29077286D01*
X9324048Y-29115381D01*
X9314524Y-29134428D01*
X9305000Y-29143952D01*
X9285952Y-29153476D01*
X9266905Y-29153476D01*
X9247857Y-29143952D01*
X9238333Y-29134428D01*
X9228810Y-29115381D01*
X9219286Y-29077286D01*
X9219286Y-29029667D01*
X9228810Y-28991571D01*
X9238333Y-28972524D01*
X9247857Y-28963000D01*
X9266905Y-28953476D01*
X9457381Y-28953476D02*
X9476429Y-28953476D01*
X9495476Y-28963000D01*
X9505000Y-28972524D01*
X9514524Y-28991571D01*
X9524048Y-29029667D01*
X9524048Y-29077286D01*
X9514524Y-29115381D01*
X9505000Y-29134428D01*
X9495476Y-29143952D01*
X9476429Y-29153476D01*
X9457381Y-29153476D01*
X9438333Y-29143952D01*
X9428810Y-29134428D01*
X9419286Y-29115381D01*
X9409762Y-29077286D01*
X9409762Y-29029667D01*
X9419286Y-28991571D01*
X9428810Y-28972524D01*
X9438333Y-28963000D01*
X9457381Y-28953476D01*
X9609762Y-29153476D02*
X9609762Y-29020143D01*
X9609762Y-29039190D02*
X9619286Y-29029667D01*
X9638333Y-29020143D01*
X9666905Y-29020143D01*
X9685952Y-29029667D01*
X9695476Y-29048714D01*
X9695476Y-29153476D01*
X9695476Y-29048714D02*
X9705000Y-29029667D01*
X9724048Y-29020143D01*
X9752619Y-29020143D01*
X9771667Y-29029667D01*
X9781190Y-29048714D01*
X9781190Y-29153476D01*
X9876429Y-29153476D02*
X9876429Y-29020143D01*
X9876429Y-29039190D02*
X9885952Y-29029667D01*
X9905000Y-29020143D01*
X9933571Y-29020143D01*
X9952619Y-29029667D01*
X9962143Y-29048714D01*
X9962143Y-29153476D01*
X9962143Y-29048714D02*
X9971667Y-29029667D01*
X9990714Y-29020143D01*
X10019286Y-29020143D01*
X10038333Y-29029667D01*
X10047857Y-29048714D01*
X10047857Y-29153476D01*
X10438333Y-28943952D02*
X10266905Y-29201095D01*
X10695476Y-28953476D02*
X10714524Y-28953476D01*
X10733571Y-28963000D01*
X10743095Y-28972524D01*
X10752619Y-28991571D01*
X10762143Y-29029667D01*
X10762143Y-29077286D01*
X10752619Y-29115381D01*
X10743095Y-29134428D01*
X10733571Y-29143952D01*
X10714524Y-29153476D01*
X10695476Y-29153476D01*
X10676429Y-29143952D01*
X10666905Y-29134428D01*
X10657381Y-29115381D01*
X10647857Y-29077286D01*
X10647857Y-29029667D01*
X10657381Y-28991571D01*
X10666905Y-28972524D01*
X10676429Y-28963000D01*
X10695476Y-28953476D01*
X10847857Y-29134428D02*
X10857381Y-29143952D01*
X10847857Y-29153476D01*
X10838333Y-29143952D01*
X10847857Y-29134428D01*
X10847857Y-29153476D01*
X11047857Y-29153476D02*
X10933571Y-29153476D01*
X10990714Y-29153476D02*
X10990714Y-28953476D01*
X10971667Y-28982048D01*
X10952619Y-29001095D01*
X10933571Y-29010619D01*
X11219286Y-28953476D02*
X11181190Y-28953476D01*
X11162143Y-28963000D01*
X11152619Y-28972524D01*
X11133571Y-29001095D01*
X11124048Y-29039190D01*
X11124048Y-29115381D01*
X11133571Y-29134428D01*
X11143095Y-29143952D01*
X11162143Y-29153476D01*
X11200238Y-29153476D01*
X11219286Y-29143952D01*
X11228809Y-29134428D01*
X11238333Y-29115381D01*
X11238333Y-29067762D01*
X11228809Y-29048714D01*
X11219286Y-29039190D01*
X11200238Y-29029667D01*
X11162143Y-29029667D01*
X11143095Y-29039190D01*
X11133571Y-29048714D01*
X11124048Y-29067762D01*
X11333571Y-29153476D02*
X11371667Y-29153476D01*
X11390714Y-29143952D01*
X11400238Y-29134428D01*
X11419286Y-29105857D01*
X11428809Y-29067762D01*
X11428809Y-28991571D01*
X11419286Y-28972524D01*
X11409762Y-28963000D01*
X11390714Y-28953476D01*
X11352619Y-28953476D01*
X11333571Y-28963000D01*
X11324048Y-28972524D01*
X11314524Y-28991571D01*
X11314524Y-29039190D01*
X11324048Y-29058238D01*
X11333571Y-29067762D01*
X11352619Y-29077286D01*
X11390714Y-29077286D01*
X11409762Y-29067762D01*
X11419286Y-29058238D01*
X11428809Y-29039190D01*
X11495476Y-28953476D02*
X11619286Y-28953476D01*
X11552619Y-29029667D01*
X11581190Y-29029667D01*
X11600238Y-29039190D01*
X11609762Y-29048714D01*
X11619286Y-29067762D01*
X11619286Y-29115381D01*
X11609762Y-29134428D01*
X11600238Y-29143952D01*
X11581190Y-29153476D01*
X11524048Y-29153476D01*
X11505000Y-29143952D01*
X11495476Y-29134428D01*
X11695476Y-28953476D02*
X11695476Y-28991571D01*
X11771667Y-28953476D02*
X11771667Y-28991571D01*
X12066905Y-29229667D02*
X12057381Y-29220143D01*
X12038333Y-29191571D01*
X12028809Y-29172524D01*
X12019286Y-29143952D01*
X12009762Y-29096333D01*
X12009762Y-29058238D01*
X12019286Y-29010619D01*
X12028809Y-28982048D01*
X12038333Y-28963000D01*
X12057381Y-28934428D01*
X12066905Y-28924905D01*
X12247857Y-29153476D02*
X12133571Y-29153476D01*
X12190714Y-29153476D02*
X12190714Y-28953476D01*
X12171667Y-28982048D01*
X12152619Y-29001095D01*
X12133571Y-29010619D01*
X12419286Y-28953476D02*
X12381190Y-28953476D01*
X12362143Y-28963000D01*
X12352619Y-28972524D01*
X12333571Y-29001095D01*
X12324048Y-29039190D01*
X12324048Y-29115381D01*
X12333571Y-29134428D01*
X12343095Y-29143952D01*
X12362143Y-29153476D01*
X12400238Y-29153476D01*
X12419286Y-29143952D01*
X12428809Y-29134428D01*
X12438333Y-29115381D01*
X12438333Y-29067762D01*
X12428809Y-29048714D01*
X12419286Y-29039190D01*
X12400238Y-29029667D01*
X12362143Y-29029667D01*
X12343095Y-29039190D01*
X12333571Y-29048714D01*
X12324048Y-29067762D01*
X12676428Y-29153476D02*
X12676428Y-28953476D01*
X12762143Y-29153476D02*
X12762143Y-29048714D01*
X12752619Y-29029667D01*
X12733571Y-29020143D01*
X12705000Y-29020143D01*
X12685952Y-29029667D01*
X12676428Y-29039190D01*
X12885952Y-29153476D02*
X12866905Y-29143952D01*
X12857381Y-29134428D01*
X12847857Y-29115381D01*
X12847857Y-29058238D01*
X12857381Y-29039190D01*
X12866905Y-29029667D01*
X12885952Y-29020143D01*
X12914524Y-29020143D01*
X12933571Y-29029667D01*
X12943095Y-29039190D01*
X12952619Y-29058238D01*
X12952619Y-29115381D01*
X12943095Y-29134428D01*
X12933571Y-29143952D01*
X12914524Y-29153476D01*
X12885952Y-29153476D01*
X13066905Y-29153476D02*
X13047857Y-29143952D01*
X13038333Y-29124905D01*
X13038333Y-28953476D01*
X13219286Y-29143952D02*
X13200238Y-29153476D01*
X13162143Y-29153476D01*
X13143095Y-29143952D01*
X13133571Y-29124905D01*
X13133571Y-29048714D01*
X13143095Y-29029667D01*
X13162143Y-29020143D01*
X13200238Y-29020143D01*
X13219286Y-29029667D01*
X13228809Y-29048714D01*
X13228809Y-29067762D01*
X13133571Y-29086809D01*
X13305000Y-29143952D02*
X13324048Y-29153476D01*
X13362143Y-29153476D01*
X13381190Y-29143952D01*
X13390714Y-29124905D01*
X13390714Y-29115381D01*
X13381190Y-29096333D01*
X13362143Y-29086809D01*
X13333571Y-29086809D01*
X13314524Y-29077286D01*
X13305000Y-29058238D01*
X13305000Y-29048714D01*
X13314524Y-29029667D01*
X13333571Y-29020143D01*
X13362143Y-29020143D01*
X13381190Y-29029667D01*
X13457381Y-29229667D02*
X13466905Y-29220143D01*
X13485952Y-29191571D01*
X13495476Y-29172524D01*
X13505000Y-29143952D01*
X13514524Y-29096333D01*
X13514524Y-29058238D01*
X13505000Y-29010619D01*
X13495476Y-28982048D01*
X13485952Y-28963000D01*
X13466905Y-28934428D01*
X13457381Y-28924905D01*
M02*
