M48
; DRILL file {KiCad 7.0.1-3b83917a11~172~ubuntu22.04.1} date ma. 20. mars 2023 kl. 17.17 +0100
; FORMAT={-:-/ absolute / metric / decimal}
; #@! TF.CreationDate,2023-03-20T17:17:21+01:00
; #@! TF.GenerationSoftware,Kicad,Pcbnew,7.0.1-3b83917a11~172~ubuntu22.04.1
; #@! TF.FileFunction,Plated,1,2,PTH
FMAT,2
METRIC
; #@! TA.AperFunction,Plated,PTH,ViaDrill
T1C0.400
; #@! TA.AperFunction,Plated,PTH,ComponentDrill
T2C0.700
; #@! TA.AperFunction,Plated,PTH,ComponentDrill
T3C0.750
; #@! TA.AperFunction,Plated,PTH,ComponentDrill
T4C0.800
; #@! TA.AperFunction,Plated,PTH,ComponentDrill
T5C0.900
; #@! TA.AperFunction,Plated,PTH,ComponentDrill
T6C1.000
; #@! TA.AperFunction,Plated,PTH,ComponentDrill
T7C1.020
; #@! TA.AperFunction,Plated,PTH,ComponentDrill
T8C1.100
; #@! TA.AperFunction,Plated,PTH,ComponentDrill
T9C1.500
; #@! TA.AperFunction,Plated,PTH,ComponentDrill
T10C4.300
%
G90
G05
T1
X227.454Y-63.889
X229.0Y-86.0
X247.853Y-90.597
X249.0Y-128.0
X250.979Y-92.102
X255.966Y-69.319
X272.0Y-187.0
X279.0Y-179.0
X280.038Y-65.119
X300.0Y-76.0
X307.312Y-65.305
X325.0Y-91.0
X363.13Y-47.191
X370.605Y-61.164
X370.605Y-65.057
X371.0Y-95.0
X371.108Y-87.746
X375.87Y-48.261
X376.875Y-83.814
X379.085Y-44.493
X382.0Y-51.0
X384.382Y-43.213
X385.0Y-62.0
X387.062Y-55.296
X391.08Y-44.464
X392.0Y-144.0
X393.765Y-54.869
X396.479Y-90.376
X403.666Y-55.445
X414.097Y-99.542
X421.0Y-73.0
X427.228Y-61.935
X430.0Y-67.0
T2
X107.92Y-56.0
X113.0Y-56.0
X136.92Y-56.0
X142.0Y-56.0
X165.92Y-56.0
X171.0Y-56.0
X193.92Y-56.0
X199.0Y-56.0
X294.92Y-78.0
X298.46Y-82.5
X298.54Y-99.5
X300.0Y-78.0
X303.54Y-82.5
X303.62Y-99.5
X320.01Y-82.5
X321.09Y-99.5
X324.46Y-78.0
X325.09Y-82.5
X326.17Y-99.5
X329.54Y-78.0
X425.47Y-54.0
X430.55Y-54.0
X454.47Y-54.0
X459.55Y-54.0
X484.55Y-54.0
X489.63Y-54.0
X513.01Y-54.0
X518.09Y-54.0
T3
X426.915Y-50.34
X429.455Y-50.34
X455.615Y-50.44
X458.155Y-50.44
X485.115Y-50.24
X487.655Y-50.24
X512.73Y-50.44
X515.27Y-50.44
T4
X125.1Y-130.0
X127.11Y-112.0
X127.41Y-149.1
X127.7Y-171.38
X131.36Y-192.0
X132.72Y-130.0
X134.73Y-112.0
X135.03Y-149.1
X135.32Y-171.38
X138.98Y-192.0
X151.38Y-84.0
X151.4Y-130.0
X152.96Y-171.38
X153.19Y-192.0
X153.22Y-149.1
X153.38Y-112.0
X159.0Y-84.0
X159.02Y-130.0
X160.58Y-171.38
X160.81Y-192.0
X160.84Y-149.1
X161.0Y-112.0
X172.9Y-108.6
X173.0Y-84.0
X173.69Y-129.8
X174.18Y-149.9
X174.2Y-191.9
X174.39Y-171.18
X180.52Y-108.6
X180.62Y-84.0
X181.31Y-129.8
X181.8Y-149.9
X181.82Y-191.9
X182.01Y-171.18
X192.36Y-105.6
X193.4Y-84.0
X194.63Y-126.8
X195.51Y-147.9
X195.66Y-189.8
X195.7Y-168.18
X199.98Y-105.6
X201.02Y-84.0
X202.25Y-126.8
X203.13Y-147.9
X203.28Y-189.8
X203.32Y-168.18
X214.3Y-105.14
X214.8Y-84.0
X216.11Y-147.44
X216.14Y-127.34
X216.19Y-168.72
X216.5Y-189.34
X221.92Y-105.14
X222.42Y-84.0
X223.73Y-147.44
X223.76Y-127.34
X223.81Y-168.72
X224.12Y-189.34
X234.38Y-84.0
X235.8Y-105.8
X237.38Y-168.38
X237.39Y-147.1
X237.54Y-127.0
X242.0Y-84.0
X243.42Y-105.8
X245.0Y-168.38
X245.01Y-147.1
X245.16Y-127.0
X249.0Y-180.25
X256.28Y-105.8
X256.62Y-180.25
X257.38Y-84.0
X258.19Y-147.1
X258.28Y-168.38
X258.92Y-128.0
X263.9Y-105.8
X265.0Y-84.0
X265.81Y-147.1
X265.9Y-168.38
X266.54Y-128.0
X267.38Y-192.0
X275.0Y-192.0
X276.66Y-171.88
X278.08Y-105.8
X278.52Y-164.28
X278.56Y-132.54
X279.38Y-84.0
X283.89Y-200.285
X284.28Y-171.88
X285.7Y-105.8
X286.14Y-164.28
X286.18Y-132.54
X287.0Y-84.0
X291.51Y-200.285
X335.19Y-202.0
X338.55Y-84.0
X339.41Y-106.005
X340.64Y-163.0
X341.0Y-132.92
X342.56Y-173.971
X342.81Y-202.0
X346.17Y-84.0
X347.03Y-106.005
X348.26Y-163.0
X348.62Y-132.92
X350.18Y-173.971
X353.55Y-191.0
X359.19Y-84.0
X360.56Y-106.005
X361.17Y-191.0
X361.93Y-151.04
X362.52Y-170.525
X362.55Y-129.84
X366.81Y-84.0
X368.18Y-106.005
X369.55Y-151.04
X370.14Y-170.525
X370.17Y-129.84
X370.86Y-181.24
X378.48Y-181.24
X381.0Y-84.0
X381.76Y-105.565
X383.8Y-151.04
X384.52Y-128.7
X384.8Y-171.26
X388.62Y-84.0
X389.38Y-105.565
X391.42Y-151.04
X392.14Y-128.7
X392.42Y-171.26
X401.39Y-84.0
X401.86Y-105.225
X404.71Y-151.1
X405.52Y-128.36
X405.62Y-192.0
X405.72Y-171.52
X409.01Y-84.0
X409.48Y-105.225
X412.33Y-151.1
X413.14Y-128.36
X413.24Y-192.0
X413.34Y-171.52
X423.26Y-105.505
X424.65Y-84.0
X425.2Y-150.54
X426.17Y-191.0
X426.86Y-171.76
X427.1Y-129.34
X430.88Y-105.505
X432.27Y-84.0
X432.82Y-150.54
X433.79Y-191.0
X434.48Y-171.76
X434.72Y-129.34
X444.86Y-105.74
X445.05Y-84.26
X446.19Y-148.565
X447.29Y-190.0
X447.62Y-170.26
X448.02Y-128.84
X452.48Y-105.74
X452.67Y-84.26
X453.81Y-148.565
X454.91Y-190.0
X455.24Y-170.26
X455.64Y-128.84
X465.56Y-108.005
X466.52Y-84.0
X467.19Y-152.04
X468.32Y-173.22
X468.49Y-194.0
X468.5Y-132.2
X473.18Y-108.005
X474.14Y-84.0
X474.81Y-152.04
X475.94Y-173.22
X476.11Y-194.0
X476.12Y-132.2
X490.97Y-193.0
X493.945Y-150.205
X494.045Y-108.065
X494.475Y-172.66
X494.855Y-128.8
X498.59Y-193.0
X501.565Y-150.205
X501.665Y-108.065
X502.095Y-172.66
X502.475Y-128.8
T5
X109.9Y-50.7
X112.44Y-50.7
X138.1Y-51.2
X140.64Y-51.2
X167.4Y-51.0
X169.94Y-51.0
X195.2Y-51.2
X197.74Y-51.2
X296.0Y-74.0
X298.54Y-74.0
X326.0Y-74.0
X328.54Y-74.0
T6
X223.92Y-53.0
X229.0Y-53.0
X397.01Y-53.0
X402.09Y-53.0
T7
X255.87Y-43.835
X255.87Y-61.615
X256.1Y-50.185
X256.1Y-52.725
X256.1Y-55.265
X258.41Y-43.835
X258.41Y-61.615
X260.95Y-43.835
X260.95Y-61.615
X263.49Y-43.835
X263.49Y-61.615
X266.03Y-43.835
X266.03Y-61.615
X268.57Y-43.835
X268.57Y-61.615
X271.11Y-43.835
X271.11Y-61.615
X273.65Y-43.835
X273.65Y-61.615
X276.19Y-43.835
X276.19Y-61.615
X278.73Y-43.835
X278.73Y-61.615
X281.27Y-43.835
X281.27Y-61.615
X283.81Y-43.835
X283.81Y-61.615
X286.35Y-43.835
X286.35Y-61.615
X288.89Y-43.835
X288.89Y-61.615
X291.43Y-43.835
X291.43Y-61.615
X293.97Y-43.835
X293.97Y-61.615
X296.51Y-43.835
X296.51Y-61.615
X299.05Y-43.835
X299.05Y-61.615
X301.59Y-43.835
X301.59Y-61.615
X304.13Y-43.835
X304.13Y-61.615
X320.42Y-43.835
X320.42Y-61.615
X322.96Y-43.835
X322.96Y-61.615
X325.5Y-43.835
X325.5Y-61.615
X328.04Y-43.835
X328.04Y-61.615
X330.58Y-43.835
X330.58Y-61.615
X333.12Y-43.835
X333.12Y-61.615
X335.66Y-43.835
X335.66Y-61.615
X338.2Y-43.835
X338.2Y-61.615
X340.74Y-43.835
X340.74Y-61.615
X343.28Y-43.835
X343.28Y-61.615
X345.82Y-43.835
X345.82Y-61.615
X348.36Y-43.835
X348.36Y-61.615
X350.9Y-43.835
X350.9Y-61.615
X353.44Y-43.835
X353.44Y-61.615
X355.98Y-43.835
X355.98Y-61.615
X358.52Y-43.835
X358.52Y-61.615
X361.06Y-43.835
X361.06Y-61.615
X363.6Y-43.835
X363.6Y-61.615
X366.14Y-43.835
X366.14Y-61.615
X368.45Y-50.185
X368.45Y-52.725
X368.45Y-55.265
X368.68Y-43.835
X368.68Y-61.615
T8
X297.57Y-90.63
X300.67Y-95.83
X305.67Y-87.43
X305.67Y-96.73
X318.975Y-87.75
X318.975Y-97.05
X323.975Y-88.65
X327.075Y-93.85
T9
X125.15Y-97.06
X125.51Y-117.96
X125.65Y-138.86
X125.65Y-159.94
X131.5Y-94.52
X131.65Y-181.14
X131.86Y-115.42
X132.0Y-136.32
X132.0Y-157.4
X138.0Y-178.6
X149.65Y-73.06
X151.19Y-97.26
X151.49Y-117.96
X152.61Y-159.74
X152.62Y-138.76
X153.19Y-181.04
X156.0Y-70.52
X157.54Y-94.72
X157.84Y-115.42
X158.96Y-157.2
X158.97Y-136.22
X159.54Y-178.5
X171.45Y-73.16
X172.0Y-97.0
X173.0Y-118.0
X173.8Y-138.86
X173.85Y-159.94
X174.19Y-180.96
X177.8Y-70.62
X178.35Y-94.46
X179.35Y-115.46
X180.15Y-136.32
X180.2Y-157.4
X180.54Y-178.42
X192.65Y-73.16
X193.27Y-94.46
X194.61Y-115.46
X194.85Y-157.44
X195.11Y-136.46
X195.47Y-178.86
X199.0Y-70.62
X199.62Y-91.92
X200.96Y-112.92
X201.2Y-154.9
X201.46Y-133.92
X201.82Y-176.32
X214.19Y-73.06
X214.49Y-94.5
X215.73Y-115.5
X216.03Y-136.4
X216.19Y-157.58
X216.19Y-178.8
X220.54Y-70.52
X220.84Y-91.96
X222.08Y-112.96
X222.38Y-133.86
X222.54Y-155.04
X222.54Y-176.26
X235.19Y-72.96
X235.59Y-94.36
X237.03Y-115.46
X237.19Y-157.54
X237.21Y-136.36
X241.54Y-70.42
X241.94Y-91.82
X243.38Y-112.92
X243.54Y-155.0
X243.56Y-133.82
X245.43Y-187.065
X252.2Y-188.041
X256.69Y-94.46
X257.19Y-73.26
X258.11Y-115.46
X258.19Y-136.46
X258.19Y-157.54
X263.04Y-91.92
X263.51Y-197.615
X263.54Y-70.72
X264.46Y-112.92
X264.54Y-133.92
X264.54Y-155.0
X270.28Y-198.591
X273.97Y-179.895
X277.92Y-120.46
X278.1Y-151.46
X278.99Y-73.16
X279.19Y-94.46
X280.46Y-126.81
X280.64Y-157.81
X280.74Y-180.871
X282.0Y-208.0
X285.34Y-70.62
X285.54Y-91.92
X288.769Y-208.975
X338.32Y-73.3
X338.82Y-121.08
X338.84Y-212.365
X338.92Y-151.46
X340.19Y-94.54
X341.36Y-127.43
X341.46Y-157.81
X343.07Y-206.991
X344.67Y-70.76
X346.43Y-183.705
X346.54Y-92.0
X350.66Y-178.331
X356.9Y-201.465
X359.19Y-73.2
X360.86Y-94.44
X361.13Y-196.091
X362.32Y-138.54
X362.52Y-159.46
X362.62Y-116.54
X365.54Y-70.66
X367.21Y-91.9
X368.67Y-136.0
X368.87Y-156.92
X368.97Y-114.0
X375.43Y-190.705
X379.66Y-185.331
X380.53Y-73.3
X381.86Y-94.2
X383.19Y-138.44
X384.19Y-116.3
X384.19Y-159.26
X386.88Y-70.76
X388.21Y-91.66
X389.54Y-135.9
X390.54Y-113.76
X390.54Y-156.72
X402.27Y-73.32
X402.86Y-94.46
X404.0Y-138.3
X405.19Y-115.56
X405.19Y-159.42
X405.19Y-180.8
X408.62Y-70.78
X409.21Y-91.92
X410.35Y-135.76
X411.54Y-113.02
X411.54Y-156.88
X411.54Y-178.26
X423.86Y-94.07
X424.19Y-73.4
X425.19Y-138.34
X426.19Y-116.34
X426.19Y-159.18
X426.26Y-180.44
X430.21Y-91.53
X430.54Y-70.86
X431.54Y-135.8
X432.54Y-113.8
X432.54Y-156.64
X432.61Y-177.9
X444.86Y-94.54
X445.19Y-73.46
X446.19Y-136.5
X447.19Y-116.44
X447.19Y-157.26
X447.26Y-178.64
X451.21Y-92.0
X451.54Y-70.92
X452.54Y-133.96
X453.54Y-113.9
X453.54Y-154.72
X453.61Y-176.1
X465.86Y-96.54
X466.19Y-73.3
X467.19Y-140.84
X468.19Y-119.3
X468.19Y-160.72
X468.26Y-182.54
X472.21Y-94.0
X472.54Y-70.76
X473.54Y-138.3
X474.54Y-116.76
X474.54Y-158.18
X474.61Y-180.0
X490.26Y-182.54
X493.945Y-139.26
X494.045Y-97.0
X494.045Y-118.34
X494.245Y-160.26
X496.61Y-180.0
X500.295Y-136.72
X500.395Y-94.46
X500.395Y-115.8
X500.595Y-157.72
T10
X100.5Y-34.0
X100.5Y-129.0
X100.9Y-228.0
X197.6Y-34.1
X198.4Y-228.0
X300.9Y-128.8
X302.2Y-227.8
X302.75Y-32.6
X322.0Y-32.65
X323.55Y-128.9
X324.75Y-228.0
X426.55Y-32.65
X427.4Y-229.45
X521.0Y-32.6
X521.0Y-129.0
X521.0Y-229.45
T0
M30
