%TF.GenerationSoftware,KiCad,Pcbnew,6.0.10-86aedd382b~118~ubuntu22.04.1*%
%TF.CreationDate,2023-01-19T13:58:43+01:00*%
%TF.ProjectId,Europe-ergo,4575726f-7065-42d6-9572-676f2e6b6963,rev?*%
%TF.SameCoordinates,Original*%
%TF.FileFunction,Drillmap*%
%TF.FilePolarity,Positive*%
%FSLAX45Y45*%
G04 Gerber Fmt 4.5, Leading zero omitted, Abs format (unit mm)*
G04 Created by KiCad (PCBNEW 6.0.10-86aedd382b~118~ubuntu22.04.1) date 2023-01-19 13:58:43*
%MOMM*%
%LPD*%
G01*
G04 APERTURE LIST*
%ADD10C,0.100000*%
%ADD11C,0.200000*%
%ADD12C,0.040000*%
%ADD13C,0.070000*%
%ADD14C,0.075000*%
%ADD15C,0.080000*%
%ADD16C,0.090000*%
%ADD17C,0.102000*%
%ADD18C,0.110000*%
%ADD19C,0.150000*%
%ADD20C,0.430000*%
G04 APERTURE END LIST*
D10*
X31607500Y-8340000D02*
X31605000Y-3125000D01*
X30858000Y-8439000D02*
X30850000Y-3125000D01*
X31255000Y-25475000D02*
X30900000Y-25475000D01*
X31255000Y-26300000D02*
X30900000Y-26300000D01*
X31605000Y-3125000D02*
X30850000Y-3125000D01*
X31255000Y-25475000D02*
X31655000Y-25475000D01*
X8500000Y-2700000D02*
X30850000Y-2700000D01*
X53555000Y-26300000D02*
X53555000Y-2700000D01*
X31255000Y-26300000D02*
X31655000Y-26300000D01*
X8500000Y-26300000D02*
X8500000Y-2700000D01*
X53555000Y-2700000D02*
X31605000Y-2700000D01*
X30858000Y-10159000D02*
X30900000Y-25475000D01*
X31655000Y-26300000D02*
X53555000Y-26300000D01*
X30850000Y-2700000D02*
X31605000Y-2700000D01*
X31607500Y-10060000D02*
X31655000Y-25475000D01*
X30900000Y-26300000D02*
X8500000Y-26300000D01*
D11*
D12*
X14004000Y-8909000D02*
X14044000Y-8949000D01*
X14044000Y-8909000D02*
X14004000Y-8949000D01*
X14519000Y-8949000D02*
X14559000Y-8989000D01*
X14559000Y-8949000D02*
X14519000Y-8989000D01*
X20272000Y-6392000D02*
X20312000Y-6432000D01*
X20312000Y-6392000D02*
X20272000Y-6432000D01*
X21981000Y-10500000D02*
X22021000Y-10540000D01*
X22021000Y-10500000D02*
X21981000Y-10540000D01*
X22237000Y-8471000D02*
X22277000Y-8511000D01*
X22277000Y-8471000D02*
X22237000Y-8511000D01*
X25493000Y-13259000D02*
X25533000Y-13299000D01*
X25533000Y-13259000D02*
X25493000Y-13299000D01*
X25766000Y-14851000D02*
X25806000Y-14891000D01*
X25806000Y-14851000D02*
X25766000Y-14891000D01*
X26504630Y-8730430D02*
X26544630Y-8770430D01*
X26544630Y-8730430D02*
X26504630Y-8770430D01*
X26582060Y-7967520D02*
X26622060Y-8007520D01*
X26622060Y-7967520D02*
X26582060Y-8007520D01*
X26792790Y-7967520D02*
X26832790Y-8007520D01*
X26832790Y-7967520D02*
X26792790Y-8007520D01*
X27162000Y-11842000D02*
X27202000Y-11882000D01*
X27202000Y-11842000D02*
X27162000Y-11882000D01*
X27353000Y-9351000D02*
X27393000Y-9391000D01*
X27393000Y-9351000D02*
X27353000Y-9391000D01*
X27827000Y-7863000D02*
X27867000Y-7903000D01*
X27867000Y-7863000D02*
X27827000Y-7903000D01*
X27939000Y-9302000D02*
X27979000Y-9342000D01*
X27979000Y-9302000D02*
X27939000Y-9342000D01*
X27951000Y-18759000D02*
X27991000Y-18799000D01*
X27991000Y-18759000D02*
X27951000Y-18799000D01*
X28123000Y-9726000D02*
X28163000Y-9766000D01*
X28163000Y-9726000D02*
X28123000Y-9766000D01*
X28379000Y-8674000D02*
X28419000Y-8714000D01*
X28419000Y-8674000D02*
X28379000Y-8714000D01*
X29128000Y-7188000D02*
X29168000Y-7228000D01*
X29168000Y-7188000D02*
X29128000Y-7228000D01*
X32175000Y-5254000D02*
X32215000Y-5294000D01*
X32215000Y-5254000D02*
X32175000Y-5294000D01*
X32352000Y-7429000D02*
X32392000Y-7469000D01*
X32392000Y-7429000D02*
X32352000Y-7469000D01*
X36212010Y-11956230D02*
X36252010Y-11996230D01*
X36252010Y-11956230D02*
X36212010Y-11996230D01*
X36300000Y-9209000D02*
X36340000Y-9249000D01*
X36340000Y-9209000D02*
X36300000Y-9249000D01*
X36772000Y-9069000D02*
X36812000Y-9109000D01*
X36812000Y-9069000D02*
X36772000Y-9109000D01*
X36775120Y-6509570D02*
X36815120Y-6549570D01*
X36815120Y-6509570D02*
X36775120Y-6549570D01*
X37330260Y-5258400D02*
X37370260Y-5298400D01*
X37370260Y-5258400D02*
X37330260Y-5298400D01*
X37376000Y-5037000D02*
X37416000Y-5077000D01*
X37416000Y-5037000D02*
X37376000Y-5077000D01*
X37422000Y-7846000D02*
X37462000Y-7886000D01*
X37462000Y-7846000D02*
X37422000Y-7886000D01*
X37479740Y-5552510D02*
X37519740Y-5592510D01*
X37519740Y-5552510D02*
X37479740Y-5592510D01*
X37714850Y-5144030D02*
X37754850Y-5184030D01*
X37754850Y-5144030D02*
X37714850Y-5184030D01*
X37939000Y-5533000D02*
X37979000Y-5573000D01*
X37979000Y-5533000D02*
X37939000Y-5573000D01*
X38144730Y-5610320D02*
X38184730Y-5650320D01*
X38184730Y-5610320D02*
X38144730Y-5650320D01*
X38460000Y-8539000D02*
X38500000Y-8579000D01*
X38500000Y-8539000D02*
X38460000Y-8579000D01*
X38544000Y-6800000D02*
X38584000Y-6840000D01*
X38584000Y-6800000D02*
X38544000Y-6840000D01*
X39133000Y-10759000D02*
X39173000Y-10799000D01*
X39173000Y-10759000D02*
X39133000Y-10799000D01*
X39230000Y-8641000D02*
X39270000Y-8681000D01*
X39270000Y-8641000D02*
X39230000Y-8681000D01*
X40607000Y-13556000D02*
X40647000Y-13596000D01*
X40647000Y-13556000D02*
X40607000Y-13596000D01*
X42647000Y-7263000D02*
X42687000Y-7303000D01*
X42687000Y-7263000D02*
X42647000Y-7303000D01*
X44652000Y-5275000D02*
X44692000Y-5315000D01*
X44692000Y-5275000D02*
X44652000Y-5315000D01*
D13*
X10827000Y-5600000D02*
G75*
G03*
X10827000Y-5600000I-35000J0D01*
G01*
X11335000Y-5600000D02*
G75*
G03*
X11335000Y-5600000I-35000J0D01*
G01*
X13727000Y-5600000D02*
G75*
G03*
X13727000Y-5600000I-35000J0D01*
G01*
X14235000Y-5600000D02*
G75*
G03*
X14235000Y-5600000I-35000J0D01*
G01*
X16627000Y-5600000D02*
G75*
G03*
X16627000Y-5600000I-35000J0D01*
G01*
X17135000Y-5600000D02*
G75*
G03*
X17135000Y-5600000I-35000J0D01*
G01*
X19427000Y-5600000D02*
G75*
G03*
X19427000Y-5600000I-35000J0D01*
G01*
X19935000Y-5600000D02*
G75*
G03*
X19935000Y-5600000I-35000J0D01*
G01*
X29881000Y-8250000D02*
G75*
G03*
X29881000Y-8250000I-35000J0D01*
G01*
X29889000Y-9950000D02*
G75*
G03*
X29889000Y-9950000I-35000J0D01*
G01*
X30389000Y-8250000D02*
G75*
G03*
X30389000Y-8250000I-35000J0D01*
G01*
X30397000Y-9950000D02*
G75*
G03*
X30397000Y-9950000I-35000J0D01*
G01*
X32036000Y-8250000D02*
G75*
G03*
X32036000Y-8250000I-35000J0D01*
G01*
X32144000Y-9950000D02*
G75*
G03*
X32144000Y-9950000I-35000J0D01*
G01*
X32544000Y-8250000D02*
G75*
G03*
X32544000Y-8250000I-35000J0D01*
G01*
X32652000Y-9950000D02*
G75*
G03*
X32652000Y-9950000I-35000J0D01*
G01*
X42582000Y-5400000D02*
G75*
G03*
X42582000Y-5400000I-35000J0D01*
G01*
X43090000Y-5400000D02*
G75*
G03*
X43090000Y-5400000I-35000J0D01*
G01*
X45482000Y-5400000D02*
G75*
G03*
X45482000Y-5400000I-35000J0D01*
G01*
X45990000Y-5400000D02*
G75*
G03*
X45990000Y-5400000I-35000J0D01*
G01*
X48490000Y-5400000D02*
G75*
G03*
X48490000Y-5400000I-35000J0D01*
G01*
X48998000Y-5400000D02*
G75*
G03*
X48998000Y-5400000I-35000J0D01*
G01*
X51336000Y-5400000D02*
G75*
G03*
X51336000Y-5400000I-35000J0D01*
G01*
X51844000Y-5400000D02*
G75*
G03*
X51844000Y-5400000I-35000J0D01*
G01*
D14*
X42691470Y-4996500D02*
X42691470Y-5071500D01*
X42653970Y-5034000D02*
X42728970Y-5034000D01*
X42945470Y-4996500D02*
X42945470Y-5071500D01*
X42907970Y-5034000D02*
X42982970Y-5034000D01*
X45561470Y-5006500D02*
X45561470Y-5081500D01*
X45523970Y-5044000D02*
X45598970Y-5044000D01*
X45815470Y-5006500D02*
X45815470Y-5081500D01*
X45777970Y-5044000D02*
X45852970Y-5044000D01*
X48511470Y-4986500D02*
X48511470Y-5061500D01*
X48473970Y-5024000D02*
X48548970Y-5024000D01*
X48765470Y-4986500D02*
X48765470Y-5061500D01*
X48727970Y-5024000D02*
X48802970Y-5024000D01*
X51273000Y-5006500D02*
X51273000Y-5081500D01*
X51235500Y-5044000D02*
X51310500Y-5044000D01*
X51527000Y-5006500D02*
X51527000Y-5081500D01*
X51489500Y-5044000D02*
X51564500Y-5044000D01*
D15*
X10666285Y-14228284D02*
X10666285Y-14171715D01*
X10609716Y-14171715D01*
X10609716Y-14228284D01*
X10666285Y-14228284D01*
X10828285Y-8928285D02*
X10828285Y-8871716D01*
X10771716Y-8871716D01*
X10771716Y-8928285D01*
X10828285Y-8928285D01*
X10828285Y-11828284D02*
X10828285Y-11771715D01*
X10771716Y-11771715D01*
X10771716Y-11828284D01*
X10828285Y-11828284D01*
X10828285Y-16528284D02*
X10828285Y-16471715D01*
X10771716Y-16471715D01*
X10771716Y-16528284D01*
X10828285Y-16528284D01*
X10828285Y-18828285D02*
X10828285Y-18771716D01*
X10771716Y-18771716D01*
X10771716Y-18828285D01*
X10828285Y-18828285D01*
X11228284Y-21228285D02*
X11228284Y-21171716D01*
X11171716Y-21171716D01*
X11171716Y-21228285D01*
X11228284Y-21228285D01*
X11428284Y-14228284D02*
X11428284Y-14171715D01*
X11371715Y-14171715D01*
X11371715Y-14228284D01*
X11428284Y-14228284D01*
X11590284Y-8928285D02*
X11590284Y-8871716D01*
X11533715Y-8871716D01*
X11533715Y-8928285D01*
X11590284Y-8928285D01*
X11590284Y-11828284D02*
X11590284Y-11771715D01*
X11533715Y-11771715D01*
X11533715Y-11828284D01*
X11590284Y-11828284D01*
X11590284Y-16528284D02*
X11590284Y-16471715D01*
X11533715Y-16471715D01*
X11533715Y-16528284D01*
X11590284Y-16528284D01*
X11590284Y-18828285D02*
X11590284Y-18771716D01*
X11533715Y-18771716D01*
X11533715Y-18828285D01*
X11590284Y-18828285D01*
X11990284Y-21228285D02*
X11990284Y-21171716D01*
X11933715Y-21171716D01*
X11933715Y-21228285D01*
X11990284Y-21228285D01*
X13566284Y-8928285D02*
X13566284Y-8871716D01*
X13509715Y-8871716D01*
X13509715Y-8928285D01*
X13566284Y-8928285D01*
X13628284Y-14228284D02*
X13628284Y-14171715D01*
X13571715Y-14171715D01*
X13571715Y-14228284D01*
X13628284Y-14228284D01*
X13628284Y-18828285D02*
X13628284Y-18771716D01*
X13571715Y-18771716D01*
X13571715Y-18828285D01*
X13628284Y-18828285D01*
X13628284Y-21228285D02*
X13628284Y-21171716D01*
X13571715Y-21171716D01*
X13571715Y-21228285D01*
X13628284Y-21228285D01*
X13728284Y-11828284D02*
X13728284Y-11771715D01*
X13671715Y-11771715D01*
X13671715Y-11828284D01*
X13728284Y-11828284D01*
X13728284Y-16528284D02*
X13728284Y-16471715D01*
X13671715Y-16471715D01*
X13671715Y-16528284D01*
X13728284Y-16528284D01*
X14328284Y-8928285D02*
X14328284Y-8871716D01*
X14271715Y-8871716D01*
X14271715Y-8928285D01*
X14328284Y-8928285D01*
X14390284Y-14228284D02*
X14390284Y-14171715D01*
X14333715Y-14171715D01*
X14333715Y-14228284D01*
X14390284Y-14228284D01*
X14390284Y-18828285D02*
X14390284Y-18771716D01*
X14333715Y-18771716D01*
X14333715Y-18828285D01*
X14390284Y-18828285D01*
X14390284Y-21228285D02*
X14390284Y-21171716D01*
X14333715Y-21171716D01*
X14333715Y-21228285D01*
X14390284Y-21228285D01*
X14490284Y-11828284D02*
X14490284Y-11771715D01*
X14433715Y-11771715D01*
X14433715Y-11828284D01*
X14490284Y-11828284D01*
X14490284Y-16528284D02*
X14490284Y-16471715D01*
X14433715Y-16471715D01*
X14433715Y-16528284D01*
X14490284Y-16528284D01*
X16028284Y-18328285D02*
X16028284Y-18271716D01*
X15971715Y-18271716D01*
X15971715Y-18328285D01*
X16028284Y-18328285D01*
X16028284Y-20728285D02*
X16028284Y-20671716D01*
X15971715Y-20671716D01*
X15971715Y-20728285D01*
X16028284Y-20728285D01*
X16047284Y-13828284D02*
X16047284Y-13771715D01*
X15990715Y-13771715D01*
X15990715Y-13828284D01*
X16047284Y-13828284D01*
X16066284Y-16128284D02*
X16066284Y-16071715D01*
X16009715Y-16071715D01*
X16009715Y-16128284D01*
X16066284Y-16128284D01*
X16128284Y-11328284D02*
X16128284Y-11271715D01*
X16071715Y-11271715D01*
X16071715Y-11328284D01*
X16128284Y-11328284D01*
X16528284Y-8828285D02*
X16528284Y-8771716D01*
X16471715Y-8771716D01*
X16471715Y-8828285D01*
X16528284Y-8828285D01*
X16790285Y-18328285D02*
X16790285Y-18271716D01*
X16733715Y-18271716D01*
X16733715Y-18328285D01*
X16790285Y-18328285D01*
X16790285Y-20728285D02*
X16790285Y-20671716D01*
X16733715Y-20671716D01*
X16733715Y-20728285D01*
X16790285Y-20728285D01*
X16809285Y-13828284D02*
X16809285Y-13771715D01*
X16752715Y-13771715D01*
X16752715Y-13828284D01*
X16809285Y-13828284D01*
X16828285Y-16128284D02*
X16828285Y-16071715D01*
X16771715Y-16071715D01*
X16771715Y-16128284D01*
X16828285Y-16128284D01*
X16890285Y-11328284D02*
X16890285Y-11271715D01*
X16833716Y-11271715D01*
X16833716Y-11328284D01*
X16890285Y-11328284D01*
X17290285Y-8828285D02*
X17290285Y-8771716D01*
X17233716Y-8771716D01*
X17233716Y-8828285D01*
X17290285Y-8828285D01*
X18366285Y-11128285D02*
X18366285Y-11071716D01*
X18309716Y-11071716D01*
X18309716Y-11128285D01*
X18366285Y-11128285D01*
X18409285Y-13528284D02*
X18409285Y-13471715D01*
X18352716Y-13471715D01*
X18352716Y-13528284D01*
X18409285Y-13528284D01*
X18428285Y-15928284D02*
X18428285Y-15871715D01*
X18371716Y-15871715D01*
X18371716Y-15928284D01*
X18428285Y-15928284D01*
X18428285Y-18128285D02*
X18428285Y-18071716D01*
X18371716Y-18071716D01*
X18371716Y-18128285D01*
X18428285Y-18128285D01*
X18428285Y-20528285D02*
X18428285Y-20471716D01*
X18371716Y-20471716D01*
X18371716Y-20528285D01*
X18428285Y-20528285D01*
X19128285Y-11128285D02*
X19128285Y-11071716D01*
X19071716Y-11071716D01*
X19071716Y-11128285D01*
X19128285Y-11128285D01*
X19171285Y-13528284D02*
X19171285Y-13471715D01*
X19114716Y-13471715D01*
X19114716Y-13528284D01*
X19171285Y-13528284D01*
X19190285Y-15928284D02*
X19190285Y-15871715D01*
X19133716Y-15871715D01*
X19133716Y-15928284D01*
X19190285Y-15928284D01*
X19190285Y-18128285D02*
X19190285Y-18071716D01*
X19133716Y-18071716D01*
X19133716Y-18128285D01*
X19190285Y-18128285D01*
X19190285Y-20528285D02*
X19190285Y-20471716D01*
X19133716Y-20471716D01*
X19133716Y-20528285D01*
X19190285Y-20528285D01*
X19428285Y-8728285D02*
X19428285Y-8671716D01*
X19371716Y-8671716D01*
X19371716Y-8728285D01*
X19428285Y-8728285D01*
X20190285Y-8728285D02*
X20190285Y-8671716D01*
X20133716Y-8671716D01*
X20133716Y-8728285D01*
X20190285Y-8728285D01*
X20766285Y-16128284D02*
X20766285Y-16071715D01*
X20709716Y-16071715D01*
X20709716Y-16128284D01*
X20766285Y-16128284D01*
X20828285Y-11328284D02*
X20828285Y-11271715D01*
X20771716Y-11271715D01*
X20771716Y-11328284D01*
X20828285Y-11328284D01*
X20828285Y-13728284D02*
X20828285Y-13671715D01*
X20771716Y-13671715D01*
X20771716Y-13728284D01*
X20828285Y-13728284D01*
X20828285Y-18328285D02*
X20828285Y-18271716D01*
X20771716Y-18271716D01*
X20771716Y-18328285D01*
X20828285Y-18328285D01*
X20828285Y-20728285D02*
X20828285Y-20671716D01*
X20771716Y-20671716D01*
X20771716Y-20728285D01*
X20828285Y-20728285D01*
X21528285Y-16128284D02*
X21528285Y-16071715D01*
X21471716Y-16071715D01*
X21471716Y-16128284D01*
X21528285Y-16128284D01*
X21590285Y-11328284D02*
X21590285Y-11271715D01*
X21533716Y-11271715D01*
X21533716Y-11328284D01*
X21590285Y-11328284D01*
X21590285Y-13728284D02*
X21590285Y-13671715D01*
X21533716Y-13671715D01*
X21533716Y-13728284D01*
X21590285Y-13728284D01*
X21590285Y-18328285D02*
X21590285Y-18271716D01*
X21533716Y-18271716D01*
X21533716Y-18328285D01*
X21590285Y-18328285D01*
X21590285Y-20728285D02*
X21590285Y-20671716D01*
X21533716Y-20671716D01*
X21533716Y-20728285D01*
X21590285Y-20728285D01*
X22128285Y-8728285D02*
X22128285Y-8671716D01*
X22071716Y-8671716D01*
X22071716Y-8728285D01*
X22128285Y-8728285D01*
X22890284Y-8728285D02*
X22890284Y-8671716D01*
X22833715Y-8671716D01*
X22833715Y-8728285D01*
X22890284Y-8728285D01*
X23166284Y-16328284D02*
X23166284Y-16271715D01*
X23109715Y-16271715D01*
X23109715Y-16328284D01*
X23166284Y-16328284D01*
X23166284Y-18628285D02*
X23166284Y-18571716D01*
X23109715Y-18571716D01*
X23109715Y-18628285D01*
X23166284Y-18628285D01*
X23228284Y-11428284D02*
X23228284Y-11371715D01*
X23171715Y-11371715D01*
X23171715Y-11428284D01*
X23228284Y-11428284D01*
X23228284Y-13928284D02*
X23228284Y-13871715D01*
X23171715Y-13871715D01*
X23171715Y-13928284D01*
X23228284Y-13928284D01*
X23928284Y-16328284D02*
X23928284Y-16271715D01*
X23871715Y-16271715D01*
X23871715Y-16328284D01*
X23928284Y-16328284D01*
X23928284Y-18628285D02*
X23928284Y-18571716D01*
X23871715Y-18571716D01*
X23871715Y-18628285D01*
X23928284Y-18628285D01*
X23990284Y-11428284D02*
X23990284Y-11371715D01*
X23933715Y-11371715D01*
X23933715Y-11428284D01*
X23990284Y-11428284D01*
X23990284Y-13928284D02*
X23990284Y-13871715D01*
X23933715Y-13871715D01*
X23933715Y-13928284D01*
X23990284Y-13928284D01*
X24666284Y-20328285D02*
X24666284Y-20271716D01*
X24609715Y-20271716D01*
X24609715Y-20328285D01*
X24666284Y-20328285D01*
X25128284Y-8728285D02*
X25128284Y-8671716D01*
X25071715Y-8671716D01*
X25071715Y-8728285D01*
X25128284Y-8728285D01*
X25428284Y-20328285D02*
X25428284Y-20271716D01*
X25371715Y-20271716D01*
X25371715Y-20328285D01*
X25428284Y-20328285D01*
X25528284Y-16328284D02*
X25528284Y-16271715D01*
X25471715Y-16271715D01*
X25471715Y-16328284D01*
X25528284Y-16328284D01*
X25566284Y-11528284D02*
X25566284Y-11471715D01*
X25509715Y-11471715D01*
X25509715Y-11528284D01*
X25566284Y-11528284D01*
X25628284Y-14028284D02*
X25628284Y-13971715D01*
X25571715Y-13971715D01*
X25571715Y-14028284D01*
X25628284Y-14028284D01*
X25628284Y-18628285D02*
X25628284Y-18571716D01*
X25571715Y-18571716D01*
X25571715Y-18628285D01*
X25628284Y-18628285D01*
X25890284Y-8728285D02*
X25890284Y-8671716D01*
X25833715Y-8671716D01*
X25833715Y-8728285D01*
X25890284Y-8728285D01*
X26290284Y-16328284D02*
X26290284Y-16271715D01*
X26233715Y-16271715D01*
X26233715Y-16328284D01*
X26290284Y-16328284D01*
X26328284Y-11528284D02*
X26328284Y-11471715D01*
X26271715Y-11471715D01*
X26271715Y-11528284D01*
X26328284Y-11528284D01*
X26390284Y-14028284D02*
X26390284Y-13971715D01*
X26333715Y-13971715D01*
X26333715Y-14028284D01*
X26390284Y-14028284D01*
X26390284Y-18628285D02*
X26390284Y-18571716D01*
X26333715Y-18571716D01*
X26333715Y-18628285D01*
X26390284Y-18628285D01*
X26766284Y-21628285D02*
X26766284Y-21571716D01*
X26709715Y-21571716D01*
X26709715Y-21628285D01*
X26766284Y-21628285D01*
X27528284Y-21628285D02*
X27528284Y-21571716D01*
X27471715Y-21571716D01*
X27471715Y-21628285D01*
X27528284Y-21628285D01*
X27828284Y-19328285D02*
X27828284Y-19271716D01*
X27771715Y-19271716D01*
X27771715Y-19328285D01*
X27828284Y-19328285D01*
X27866284Y-14828284D02*
X27866284Y-14771715D01*
X27809715Y-14771715D01*
X27809715Y-14828284D01*
X27866284Y-14828284D01*
X27866284Y-18228285D02*
X27866284Y-18171716D01*
X27809715Y-18171716D01*
X27809715Y-18228285D01*
X27866284Y-18228285D01*
X28028284Y-8728285D02*
X28028284Y-8671716D01*
X27971715Y-8671716D01*
X27971715Y-8728285D01*
X28028284Y-8728285D01*
X28028284Y-11628284D02*
X28028284Y-11571715D01*
X27971715Y-11571715D01*
X27971715Y-11628284D01*
X28028284Y-11628284D01*
X28590284Y-19328285D02*
X28590284Y-19271716D01*
X28533715Y-19271716D01*
X28533715Y-19328285D01*
X28590284Y-19328285D01*
X28628284Y-14828284D02*
X28628284Y-14771715D01*
X28571715Y-14771715D01*
X28571715Y-14828284D01*
X28628284Y-14828284D01*
X28628284Y-18228285D02*
X28628284Y-18171716D01*
X28571715Y-18171716D01*
X28571715Y-18228285D01*
X28628284Y-18228285D01*
X28628284Y-22628284D02*
X28628284Y-22571715D01*
X28571715Y-22571715D01*
X28571715Y-22628284D01*
X28628284Y-22628284D01*
X28790284Y-8728285D02*
X28790284Y-8671716D01*
X28733715Y-8671716D01*
X28733715Y-8728285D01*
X28790284Y-8728285D01*
X28790284Y-11628284D02*
X28790284Y-11571715D01*
X28733715Y-11571715D01*
X28733715Y-11628284D01*
X28790284Y-11628284D01*
X29390284Y-22628284D02*
X29390284Y-22571715D01*
X29333715Y-22571715D01*
X29333715Y-22628284D01*
X29390284Y-22628284D01*
X33283284Y-22728284D02*
X33283284Y-22671715D01*
X33226715Y-22671715D01*
X33226715Y-22728284D01*
X33283284Y-22728284D01*
X33883285Y-8628285D02*
X33883285Y-8571716D01*
X33826716Y-8571716D01*
X33826716Y-8628285D01*
X33883285Y-8628285D01*
X33883285Y-11528284D02*
X33883285Y-11471715D01*
X33826716Y-11471715D01*
X33826716Y-11528284D01*
X33883285Y-11528284D01*
X33983285Y-14828284D02*
X33983285Y-14771715D01*
X33926716Y-14771715D01*
X33926716Y-14828284D01*
X33983285Y-14828284D01*
X33983285Y-18128285D02*
X33983285Y-18071716D01*
X33926716Y-18071716D01*
X33926716Y-18128285D01*
X33983285Y-18128285D01*
X34045285Y-22728284D02*
X34045285Y-22671715D01*
X33988716Y-22671715D01*
X33988716Y-22728284D01*
X34045285Y-22728284D01*
X34121285Y-19528285D02*
X34121285Y-19471716D01*
X34064716Y-19471716D01*
X34064716Y-19528285D01*
X34121285Y-19528285D01*
X34645285Y-8628285D02*
X34645285Y-8571716D01*
X34588716Y-8571716D01*
X34588716Y-8628285D01*
X34645285Y-8628285D01*
X34645285Y-11528284D02*
X34645285Y-11471715D01*
X34588716Y-11471715D01*
X34588716Y-11528284D01*
X34645285Y-11528284D01*
X34745285Y-14828284D02*
X34745285Y-14771715D01*
X34688716Y-14771715D01*
X34688716Y-14828284D01*
X34745285Y-14828284D01*
X34745285Y-18128285D02*
X34745285Y-18071716D01*
X34688716Y-18071716D01*
X34688716Y-18128285D01*
X34745285Y-18128285D01*
X34883285Y-19528285D02*
X34883285Y-19471716D01*
X34826716Y-19471716D01*
X34826716Y-19528285D01*
X34883285Y-19528285D01*
X35383285Y-21528285D02*
X35383285Y-21471716D01*
X35326716Y-21471716D01*
X35326716Y-21528285D01*
X35383285Y-21528285D01*
X36145285Y-21528285D02*
X36145285Y-21471716D01*
X36088716Y-21471716D01*
X36088716Y-21528285D01*
X36145285Y-21528285D01*
X36221285Y-16228284D02*
X36221285Y-16171715D01*
X36164716Y-16171715D01*
X36164716Y-16228284D01*
X36221285Y-16228284D01*
X36283285Y-13928284D02*
X36283285Y-13871715D01*
X36226716Y-13871715D01*
X36226716Y-13928284D01*
X36283285Y-13928284D01*
X36321285Y-11528284D02*
X36321285Y-11471715D01*
X36264716Y-11471715D01*
X36264716Y-11528284D01*
X36321285Y-11528284D01*
X36321285Y-18628285D02*
X36321285Y-18571716D01*
X36264716Y-18571716D01*
X36264716Y-18628285D01*
X36321285Y-18628285D01*
X36783285Y-8628285D02*
X36783285Y-8571716D01*
X36726716Y-8571716D01*
X36726716Y-8628285D01*
X36783285Y-8628285D01*
X36983285Y-16228284D02*
X36983285Y-16171715D01*
X36926716Y-16171715D01*
X36926716Y-16228284D01*
X36983285Y-16228284D01*
X37045285Y-13928284D02*
X37045285Y-13871715D01*
X36988716Y-13871715D01*
X36988716Y-13928284D01*
X37045285Y-13928284D01*
X37083285Y-11528284D02*
X37083285Y-11471715D01*
X37026716Y-11471715D01*
X37026716Y-11528284D01*
X37083285Y-11528284D01*
X37083285Y-18628285D02*
X37083285Y-18571716D01*
X37026716Y-18571716D01*
X37026716Y-18628285D01*
X37083285Y-18628285D01*
X37321285Y-20428285D02*
X37321285Y-20371716D01*
X37264716Y-20371716D01*
X37264716Y-20428285D01*
X37321285Y-20428285D01*
X37545285Y-8628285D02*
X37545285Y-8571716D01*
X37488716Y-8571716D01*
X37488716Y-8628285D01*
X37545285Y-8628285D01*
X38083285Y-20428285D02*
X38083285Y-20371716D01*
X38026716Y-20371716D01*
X38026716Y-20428285D01*
X38083285Y-20428285D01*
X38683285Y-13828284D02*
X38683285Y-13771715D01*
X38626716Y-13771715D01*
X38626716Y-13828284D01*
X38683285Y-13828284D01*
X38721285Y-11528284D02*
X38721285Y-11471715D01*
X38664716Y-11471715D01*
X38664716Y-11528284D01*
X38721285Y-11528284D01*
X38721285Y-16228284D02*
X38721285Y-16171715D01*
X38664716Y-16171715D01*
X38664716Y-16228284D01*
X38721285Y-16228284D01*
X38721285Y-18628285D02*
X38721285Y-18571716D01*
X38664716Y-18571716D01*
X38664716Y-18628285D01*
X38721285Y-18628285D01*
X39445285Y-13828284D02*
X39445285Y-13771715D01*
X39388716Y-13771715D01*
X39388716Y-13828284D01*
X39445285Y-13828284D01*
X39483285Y-11528284D02*
X39483285Y-11471715D01*
X39426716Y-11471715D01*
X39426716Y-11528284D01*
X39483285Y-11528284D01*
X39483285Y-16228284D02*
X39483285Y-16171715D01*
X39426716Y-16171715D01*
X39426716Y-16228284D01*
X39483285Y-16228284D01*
X39483285Y-18628285D02*
X39483285Y-18571716D01*
X39426716Y-18571716D01*
X39426716Y-18628285D01*
X39483285Y-18628285D01*
X39683285Y-8628285D02*
X39683285Y-8571716D01*
X39626716Y-8571716D01*
X39626716Y-8628285D01*
X39683285Y-8628285D01*
X40445285Y-8628285D02*
X40445285Y-8571716D01*
X40388716Y-8571716D01*
X40388716Y-8628285D01*
X40445285Y-8628285D01*
X41021285Y-11228284D02*
X41021285Y-11171716D01*
X40964716Y-11171716D01*
X40964716Y-11228284D01*
X41021285Y-11228284D01*
X41083285Y-13628284D02*
X41083285Y-13571715D01*
X41026716Y-13571715D01*
X41026716Y-13628284D01*
X41083285Y-13628284D01*
X41083285Y-18328285D02*
X41083285Y-18271716D01*
X41026716Y-18271716D01*
X41026716Y-18328285D01*
X41083285Y-18328285D01*
X41083285Y-20728285D02*
X41083285Y-20671716D01*
X41026716Y-20671716D01*
X41026716Y-20728285D01*
X41083285Y-20728285D01*
X41121285Y-16028284D02*
X41121285Y-15971715D01*
X41064716Y-15971715D01*
X41064716Y-16028284D01*
X41121285Y-16028284D01*
X41783285Y-11228284D02*
X41783285Y-11171716D01*
X41726716Y-11171716D01*
X41726716Y-11228284D01*
X41783285Y-11228284D01*
X41845285Y-13628284D02*
X41845285Y-13571715D01*
X41788716Y-13571715D01*
X41788716Y-13628284D01*
X41845285Y-13628284D01*
X41845285Y-18328285D02*
X41845285Y-18271716D01*
X41788716Y-18271716D01*
X41788716Y-18328285D01*
X41845285Y-18328285D01*
X41845285Y-20728285D02*
X41845285Y-20671716D01*
X41788716Y-20671716D01*
X41788716Y-20728285D01*
X41845285Y-20728285D01*
X41883285Y-16028284D02*
X41883285Y-15971715D01*
X41826716Y-15971715D01*
X41826716Y-16028284D01*
X41883285Y-16028284D01*
X42421285Y-8628285D02*
X42421285Y-8571716D01*
X42364716Y-8571716D01*
X42364716Y-8628285D01*
X42421285Y-8628285D01*
X43183285Y-8628285D02*
X43183285Y-8571716D01*
X43126716Y-8571716D01*
X43126716Y-8628285D01*
X43183285Y-8628285D01*
X43421285Y-11028285D02*
X43421285Y-10971716D01*
X43364716Y-10971716D01*
X43364716Y-11028285D01*
X43421285Y-11028285D01*
X43421285Y-15728284D02*
X43421285Y-15671715D01*
X43364716Y-15671715D01*
X43364716Y-15728284D01*
X43421285Y-15728284D01*
X43421285Y-20528285D02*
X43421285Y-20471716D01*
X43364716Y-20471716D01*
X43364716Y-20528285D01*
X43421285Y-20528285D01*
X43483285Y-18128285D02*
X43483285Y-18071716D01*
X43426716Y-18071716D01*
X43426716Y-18128285D01*
X43483285Y-18128285D01*
X43521285Y-13428284D02*
X43521285Y-13371715D01*
X43464716Y-13371715D01*
X43464716Y-13428284D01*
X43521285Y-13428284D01*
X44183285Y-11028285D02*
X44183285Y-10971716D01*
X44126716Y-10971716D01*
X44126716Y-11028285D01*
X44183285Y-11028285D01*
X44183285Y-15728284D02*
X44183285Y-15671715D01*
X44126716Y-15671715D01*
X44126716Y-15728284D01*
X44183285Y-15728284D01*
X44183285Y-20528285D02*
X44183285Y-20471716D01*
X44126716Y-20471716D01*
X44126716Y-20528285D01*
X44183285Y-20528285D01*
X44245285Y-18128285D02*
X44245285Y-18071716D01*
X44188716Y-18071716D01*
X44188716Y-18128285D01*
X44245285Y-18128285D01*
X44283285Y-13428284D02*
X44283285Y-13371715D01*
X44226716Y-13371715D01*
X44226716Y-13428284D01*
X44283285Y-13428284D01*
X45321284Y-8628285D02*
X45321284Y-8571716D01*
X45264715Y-8571716D01*
X45264715Y-8628285D01*
X45321284Y-8628285D01*
X45783284Y-20728285D02*
X45783284Y-20671716D01*
X45726715Y-20671716D01*
X45726715Y-20728285D01*
X45783284Y-20728285D01*
X45821284Y-11528284D02*
X45821284Y-11471715D01*
X45764715Y-11471715D01*
X45764715Y-11528284D01*
X45821284Y-11528284D01*
X45821284Y-16028284D02*
X45821284Y-15971715D01*
X45764715Y-15971715D01*
X45764715Y-16028284D01*
X45821284Y-16028284D01*
X45883284Y-13828284D02*
X45883284Y-13771715D01*
X45826715Y-13771715D01*
X45826715Y-13828284D01*
X45883284Y-13828284D01*
X45883284Y-18428285D02*
X45883284Y-18371716D01*
X45826715Y-18371716D01*
X45826715Y-18428285D01*
X45883284Y-18428285D01*
X46083284Y-8628285D02*
X46083284Y-8571716D01*
X46026715Y-8571716D01*
X46026715Y-8628285D01*
X46083284Y-8628285D01*
X46545284Y-20728285D02*
X46545284Y-20671716D01*
X46488715Y-20671716D01*
X46488715Y-20728285D01*
X46545284Y-20728285D01*
X46583284Y-11528284D02*
X46583284Y-11471715D01*
X46526715Y-11471715D01*
X46526715Y-11528284D01*
X46583284Y-11528284D01*
X46583284Y-16028284D02*
X46583284Y-15971715D01*
X46526715Y-15971715D01*
X46526715Y-16028284D01*
X46583284Y-16028284D01*
X46645284Y-13828284D02*
X46645284Y-13771715D01*
X46588715Y-13771715D01*
X46588715Y-13828284D01*
X46645284Y-13828284D01*
X46645284Y-18428285D02*
X46645284Y-18371716D01*
X46588715Y-18371716D01*
X46588715Y-18428285D01*
X46645284Y-18428285D01*
X48183284Y-18828285D02*
X48183284Y-18771716D01*
X48126715Y-18771716D01*
X48126715Y-18828285D01*
X48183284Y-18828285D01*
X48183284Y-21328285D02*
X48183284Y-21271716D01*
X48126715Y-21271716D01*
X48126715Y-21328285D01*
X48183284Y-21328285D01*
X48221284Y-8628285D02*
X48221284Y-8571716D01*
X48164715Y-8571716D01*
X48164715Y-8628285D01*
X48221284Y-8628285D01*
X48221284Y-11728284D02*
X48221284Y-11671715D01*
X48164715Y-11671715D01*
X48164715Y-11728284D01*
X48221284Y-11728284D01*
X48221284Y-14128284D02*
X48221284Y-14071715D01*
X48164715Y-14071715D01*
X48164715Y-14128284D01*
X48221284Y-14128284D01*
X48221284Y-16528284D02*
X48221284Y-16471715D01*
X48164715Y-16471715D01*
X48164715Y-16528284D01*
X48221284Y-16528284D01*
X48945284Y-18828285D02*
X48945284Y-18771716D01*
X48888715Y-18771716D01*
X48888715Y-18828285D01*
X48945284Y-18828285D01*
X48945284Y-21328285D02*
X48945284Y-21271716D01*
X48888715Y-21271716D01*
X48888715Y-21328285D01*
X48945284Y-21328285D01*
X48983284Y-8628285D02*
X48983284Y-8571716D01*
X48926715Y-8571716D01*
X48926715Y-8628285D01*
X48983284Y-8628285D01*
X48983284Y-11728284D02*
X48983284Y-11671715D01*
X48926715Y-11671715D01*
X48926715Y-11728284D01*
X48983284Y-11728284D01*
X48983284Y-14128284D02*
X48983284Y-14071715D01*
X48926715Y-14071715D01*
X48926715Y-14128284D01*
X48983284Y-14128284D01*
X48983284Y-16528284D02*
X48983284Y-16471715D01*
X48926715Y-16471715D01*
X48926715Y-16528284D01*
X48983284Y-16528284D01*
X50621284Y-21228285D02*
X50621284Y-21171716D01*
X50564715Y-21171716D01*
X50564715Y-21228285D01*
X50621284Y-21228285D01*
X51083284Y-8628285D02*
X51083284Y-8571716D01*
X51026715Y-8571716D01*
X51026715Y-8628285D01*
X51083284Y-8628285D01*
X51083284Y-16528284D02*
X51083284Y-16471715D01*
X51026715Y-16471715D01*
X51026715Y-16528284D01*
X51083284Y-16528284D01*
X51083284Y-18828285D02*
X51083284Y-18771716D01*
X51026715Y-18771716D01*
X51026715Y-18828285D01*
X51083284Y-18828285D01*
X51121284Y-11728284D02*
X51121284Y-11671715D01*
X51064715Y-11671715D01*
X51064715Y-11728284D01*
X51121284Y-11728284D01*
X51121284Y-14028284D02*
X51121284Y-13971715D01*
X51064715Y-13971715D01*
X51064715Y-14028284D01*
X51121284Y-14028284D01*
X51383284Y-21228285D02*
X51383284Y-21171716D01*
X51326715Y-21171716D01*
X51326715Y-21228285D01*
X51383284Y-21228285D01*
X51845284Y-8628285D02*
X51845284Y-8571716D01*
X51788715Y-8571716D01*
X51788715Y-8628285D01*
X51845284Y-8628285D01*
X51845284Y-16528284D02*
X51845284Y-16471715D01*
X51788715Y-16471715D01*
X51788715Y-16528284D01*
X51845284Y-16528284D01*
X51845284Y-18828285D02*
X51845284Y-18771716D01*
X51788715Y-18771716D01*
X51788715Y-18828285D01*
X51845284Y-18828285D01*
X51883284Y-11728284D02*
X51883284Y-11671715D01*
X51826715Y-11671715D01*
X51826715Y-11728284D01*
X51883284Y-11728284D01*
X51883284Y-14028284D02*
X51883284Y-13971715D01*
X51826715Y-13971715D01*
X51826715Y-14028284D01*
X51883284Y-14028284D01*
D16*
X10990000Y-5115000D02*
X11035000Y-5070000D01*
X10990000Y-5025000D01*
X10945000Y-5070000D01*
X10990000Y-5115000D01*
X11244000Y-5115000D02*
X11289000Y-5070000D01*
X11244000Y-5025000D01*
X11199000Y-5070000D01*
X11244000Y-5115000D01*
X13810000Y-5165000D02*
X13855000Y-5120000D01*
X13810000Y-5075000D01*
X13765000Y-5120000D01*
X13810000Y-5165000D01*
X14064000Y-5165000D02*
X14109000Y-5120000D01*
X14064000Y-5075000D01*
X14019000Y-5120000D01*
X14064000Y-5165000D01*
X16740000Y-5145000D02*
X16785000Y-5100000D01*
X16740000Y-5055000D01*
X16695000Y-5100000D01*
X16740000Y-5145000D01*
X16994000Y-5145000D02*
X17039000Y-5100000D01*
X16994000Y-5055000D01*
X16949000Y-5100000D01*
X16994000Y-5145000D01*
X19520000Y-5165000D02*
X19565000Y-5120000D01*
X19520000Y-5075000D01*
X19475000Y-5120000D01*
X19520000Y-5165000D01*
X19774000Y-5165000D02*
X19819000Y-5120000D01*
X19774000Y-5075000D01*
X19729000Y-5120000D01*
X19774000Y-5165000D01*
D10*
X22342000Y-5250000D02*
X22442000Y-5350000D01*
X22442000Y-5250000D02*
X22342000Y-5350000D01*
X22442000Y-5300000D02*
G75*
G03*
X22442000Y-5300000I-50000J0D01*
G01*
X22850000Y-5250000D02*
X22950000Y-5350000D01*
X22950000Y-5250000D02*
X22850000Y-5350000D01*
X22950000Y-5300000D02*
G75*
G03*
X22950000Y-5300000I-50000J0D01*
G01*
X39651000Y-5250000D02*
X39751000Y-5350000D01*
X39751000Y-5250000D02*
X39651000Y-5350000D01*
X39751000Y-5300000D02*
G75*
G03*
X39751000Y-5300000I-50000J0D01*
G01*
X40159000Y-5250000D02*
X40259000Y-5350000D01*
X40259000Y-5250000D02*
X40159000Y-5350000D01*
X40259000Y-5300000D02*
G75*
G03*
X40259000Y-5300000I-50000J0D01*
G01*
D17*
X25536000Y-4332500D02*
X25638000Y-4434500D01*
X25638000Y-4332500D02*
X25536000Y-4434500D01*
X25587000Y-4332500D02*
X25587000Y-4434500D01*
X25536000Y-4383500D02*
X25638000Y-4383500D01*
X25536000Y-6110500D02*
X25638000Y-6212500D01*
X25638000Y-6110500D02*
X25536000Y-6212500D01*
X25587000Y-6110500D02*
X25587000Y-6212500D01*
X25536000Y-6161500D02*
X25638000Y-6161500D01*
X25559000Y-4967500D02*
X25661000Y-5069500D01*
X25661000Y-4967500D02*
X25559000Y-5069500D01*
X25610000Y-4967500D02*
X25610000Y-5069500D01*
X25559000Y-5018500D02*
X25661000Y-5018500D01*
X25559000Y-5221500D02*
X25661000Y-5323500D01*
X25661000Y-5221500D02*
X25559000Y-5323500D01*
X25610000Y-5221500D02*
X25610000Y-5323500D01*
X25559000Y-5272500D02*
X25661000Y-5272500D01*
X25559000Y-5475500D02*
X25661000Y-5577500D01*
X25661000Y-5475500D02*
X25559000Y-5577500D01*
X25610000Y-5475500D02*
X25610000Y-5577500D01*
X25559000Y-5526500D02*
X25661000Y-5526500D01*
X25790000Y-4332500D02*
X25892000Y-4434500D01*
X25892000Y-4332500D02*
X25790000Y-4434500D01*
X25841000Y-4332500D02*
X25841000Y-4434500D01*
X25790000Y-4383500D02*
X25892000Y-4383500D01*
X25790000Y-6110500D02*
X25892000Y-6212500D01*
X25892000Y-6110500D02*
X25790000Y-6212500D01*
X25841000Y-6110500D02*
X25841000Y-6212500D01*
X25790000Y-6161500D02*
X25892000Y-6161500D01*
X26044000Y-4332500D02*
X26146000Y-4434500D01*
X26146000Y-4332500D02*
X26044000Y-4434500D01*
X26095000Y-4332500D02*
X26095000Y-4434500D01*
X26044000Y-4383500D02*
X26146000Y-4383500D01*
X26044000Y-6110500D02*
X26146000Y-6212500D01*
X26146000Y-6110500D02*
X26044000Y-6212500D01*
X26095000Y-6110500D02*
X26095000Y-6212500D01*
X26044000Y-6161500D02*
X26146000Y-6161500D01*
X26298000Y-4332500D02*
X26400000Y-4434500D01*
X26400000Y-4332500D02*
X26298000Y-4434500D01*
X26349000Y-4332500D02*
X26349000Y-4434500D01*
X26298000Y-4383500D02*
X26400000Y-4383500D01*
X26298000Y-6110500D02*
X26400000Y-6212500D01*
X26400000Y-6110500D02*
X26298000Y-6212500D01*
X26349000Y-6110500D02*
X26349000Y-6212500D01*
X26298000Y-6161500D02*
X26400000Y-6161500D01*
X26552000Y-4332500D02*
X26654000Y-4434500D01*
X26654000Y-4332500D02*
X26552000Y-4434500D01*
X26603000Y-4332500D02*
X26603000Y-4434500D01*
X26552000Y-4383500D02*
X26654000Y-4383500D01*
X26552000Y-6110500D02*
X26654000Y-6212500D01*
X26654000Y-6110500D02*
X26552000Y-6212500D01*
X26603000Y-6110500D02*
X26603000Y-6212500D01*
X26552000Y-6161500D02*
X26654000Y-6161500D01*
X26806000Y-4332500D02*
X26908000Y-4434500D01*
X26908000Y-4332500D02*
X26806000Y-4434500D01*
X26857000Y-4332500D02*
X26857000Y-4434500D01*
X26806000Y-4383500D02*
X26908000Y-4383500D01*
X26806000Y-6110500D02*
X26908000Y-6212500D01*
X26908000Y-6110500D02*
X26806000Y-6212500D01*
X26857000Y-6110500D02*
X26857000Y-6212500D01*
X26806000Y-6161500D02*
X26908000Y-6161500D01*
X27060000Y-4332500D02*
X27162000Y-4434500D01*
X27162000Y-4332500D02*
X27060000Y-4434500D01*
X27111000Y-4332500D02*
X27111000Y-4434500D01*
X27060000Y-4383500D02*
X27162000Y-4383500D01*
X27060000Y-6110500D02*
X27162000Y-6212500D01*
X27162000Y-6110500D02*
X27060000Y-6212500D01*
X27111000Y-6110500D02*
X27111000Y-6212500D01*
X27060000Y-6161500D02*
X27162000Y-6161500D01*
X27314000Y-4332500D02*
X27416000Y-4434500D01*
X27416000Y-4332500D02*
X27314000Y-4434500D01*
X27365000Y-4332500D02*
X27365000Y-4434500D01*
X27314000Y-4383500D02*
X27416000Y-4383500D01*
X27314000Y-6110500D02*
X27416000Y-6212500D01*
X27416000Y-6110500D02*
X27314000Y-6212500D01*
X27365000Y-6110500D02*
X27365000Y-6212500D01*
X27314000Y-6161500D02*
X27416000Y-6161500D01*
X27568000Y-4332500D02*
X27670000Y-4434500D01*
X27670000Y-4332500D02*
X27568000Y-4434500D01*
X27619000Y-4332500D02*
X27619000Y-4434500D01*
X27568000Y-4383500D02*
X27670000Y-4383500D01*
X27568000Y-6110500D02*
X27670000Y-6212500D01*
X27670000Y-6110500D02*
X27568000Y-6212500D01*
X27619000Y-6110500D02*
X27619000Y-6212500D01*
X27568000Y-6161500D02*
X27670000Y-6161500D01*
X27822000Y-4332500D02*
X27924000Y-4434500D01*
X27924000Y-4332500D02*
X27822000Y-4434500D01*
X27873000Y-4332500D02*
X27873000Y-4434500D01*
X27822000Y-4383500D02*
X27924000Y-4383500D01*
X27822000Y-6110500D02*
X27924000Y-6212500D01*
X27924000Y-6110500D02*
X27822000Y-6212500D01*
X27873000Y-6110500D02*
X27873000Y-6212500D01*
X27822000Y-6161500D02*
X27924000Y-6161500D01*
X28076000Y-4332500D02*
X28178000Y-4434500D01*
X28178000Y-4332500D02*
X28076000Y-4434500D01*
X28127000Y-4332500D02*
X28127000Y-4434500D01*
X28076000Y-4383500D02*
X28178000Y-4383500D01*
X28076000Y-6110500D02*
X28178000Y-6212500D01*
X28178000Y-6110500D02*
X28076000Y-6212500D01*
X28127000Y-6110500D02*
X28127000Y-6212500D01*
X28076000Y-6161500D02*
X28178000Y-6161500D01*
X28330000Y-4332500D02*
X28432000Y-4434500D01*
X28432000Y-4332500D02*
X28330000Y-4434500D01*
X28381000Y-4332500D02*
X28381000Y-4434500D01*
X28330000Y-4383500D02*
X28432000Y-4383500D01*
X28330000Y-6110500D02*
X28432000Y-6212500D01*
X28432000Y-6110500D02*
X28330000Y-6212500D01*
X28381000Y-6110500D02*
X28381000Y-6212500D01*
X28330000Y-6161500D02*
X28432000Y-6161500D01*
X28584000Y-4332500D02*
X28686000Y-4434500D01*
X28686000Y-4332500D02*
X28584000Y-4434500D01*
X28635000Y-4332500D02*
X28635000Y-4434500D01*
X28584000Y-4383500D02*
X28686000Y-4383500D01*
X28584000Y-6110500D02*
X28686000Y-6212500D01*
X28686000Y-6110500D02*
X28584000Y-6212500D01*
X28635000Y-6110500D02*
X28635000Y-6212500D01*
X28584000Y-6161500D02*
X28686000Y-6161500D01*
X28838000Y-4332500D02*
X28940000Y-4434500D01*
X28940000Y-4332500D02*
X28838000Y-4434500D01*
X28889000Y-4332500D02*
X28889000Y-4434500D01*
X28838000Y-4383500D02*
X28940000Y-4383500D01*
X28838000Y-6110500D02*
X28940000Y-6212500D01*
X28940000Y-6110500D02*
X28838000Y-6212500D01*
X28889000Y-6110500D02*
X28889000Y-6212500D01*
X28838000Y-6161500D02*
X28940000Y-6161500D01*
X29092000Y-4332500D02*
X29194000Y-4434500D01*
X29194000Y-4332500D02*
X29092000Y-4434500D01*
X29143000Y-4332500D02*
X29143000Y-4434500D01*
X29092000Y-4383500D02*
X29194000Y-4383500D01*
X29092000Y-6110500D02*
X29194000Y-6212500D01*
X29194000Y-6110500D02*
X29092000Y-6212500D01*
X29143000Y-6110500D02*
X29143000Y-6212500D01*
X29092000Y-6161500D02*
X29194000Y-6161500D01*
X29346000Y-4332500D02*
X29448000Y-4434500D01*
X29448000Y-4332500D02*
X29346000Y-4434500D01*
X29397000Y-4332500D02*
X29397000Y-4434500D01*
X29346000Y-4383500D02*
X29448000Y-4383500D01*
X29346000Y-6110500D02*
X29448000Y-6212500D01*
X29448000Y-6110500D02*
X29346000Y-6212500D01*
X29397000Y-6110500D02*
X29397000Y-6212500D01*
X29346000Y-6161500D02*
X29448000Y-6161500D01*
X29600000Y-4332500D02*
X29702000Y-4434500D01*
X29702000Y-4332500D02*
X29600000Y-4434500D01*
X29651000Y-4332500D02*
X29651000Y-4434500D01*
X29600000Y-4383500D02*
X29702000Y-4383500D01*
X29600000Y-6110500D02*
X29702000Y-6212500D01*
X29702000Y-6110500D02*
X29600000Y-6212500D01*
X29651000Y-6110500D02*
X29651000Y-6212500D01*
X29600000Y-6161500D02*
X29702000Y-6161500D01*
X29854000Y-4332500D02*
X29956000Y-4434500D01*
X29956000Y-4332500D02*
X29854000Y-4434500D01*
X29905000Y-4332500D02*
X29905000Y-4434500D01*
X29854000Y-4383500D02*
X29956000Y-4383500D01*
X29854000Y-6110500D02*
X29956000Y-6212500D01*
X29956000Y-6110500D02*
X29854000Y-6212500D01*
X29905000Y-6110500D02*
X29905000Y-6212500D01*
X29854000Y-6161500D02*
X29956000Y-6161500D01*
X30108000Y-4332500D02*
X30210000Y-4434500D01*
X30210000Y-4332500D02*
X30108000Y-4434500D01*
X30159000Y-4332500D02*
X30159000Y-4434500D01*
X30108000Y-4383500D02*
X30210000Y-4383500D01*
X30108000Y-6110500D02*
X30210000Y-6212500D01*
X30210000Y-6110500D02*
X30108000Y-6212500D01*
X30159000Y-6110500D02*
X30159000Y-6212500D01*
X30108000Y-6161500D02*
X30210000Y-6161500D01*
X30362000Y-4332500D02*
X30464000Y-4434500D01*
X30464000Y-4332500D02*
X30362000Y-4434500D01*
X30413000Y-4332500D02*
X30413000Y-4434500D01*
X30362000Y-4383500D02*
X30464000Y-4383500D01*
X30362000Y-6110500D02*
X30464000Y-6212500D01*
X30464000Y-6110500D02*
X30362000Y-6212500D01*
X30413000Y-6110500D02*
X30413000Y-6212500D01*
X30362000Y-6161500D02*
X30464000Y-6161500D01*
X31991000Y-4332500D02*
X32093000Y-4434500D01*
X32093000Y-4332500D02*
X31991000Y-4434500D01*
X32042000Y-4332500D02*
X32042000Y-4434500D01*
X31991000Y-4383500D02*
X32093000Y-4383500D01*
X31991000Y-6110500D02*
X32093000Y-6212500D01*
X32093000Y-6110500D02*
X31991000Y-6212500D01*
X32042000Y-6110500D02*
X32042000Y-6212500D01*
X31991000Y-6161500D02*
X32093000Y-6161500D01*
X32245000Y-4332500D02*
X32347000Y-4434500D01*
X32347000Y-4332500D02*
X32245000Y-4434500D01*
X32296000Y-4332500D02*
X32296000Y-4434500D01*
X32245000Y-4383500D02*
X32347000Y-4383500D01*
X32245000Y-6110500D02*
X32347000Y-6212500D01*
X32347000Y-6110500D02*
X32245000Y-6212500D01*
X32296000Y-6110500D02*
X32296000Y-6212500D01*
X32245000Y-6161500D02*
X32347000Y-6161500D01*
X32499000Y-4332500D02*
X32601000Y-4434500D01*
X32601000Y-4332500D02*
X32499000Y-4434500D01*
X32550000Y-4332500D02*
X32550000Y-4434500D01*
X32499000Y-4383500D02*
X32601000Y-4383500D01*
X32499000Y-6110500D02*
X32601000Y-6212500D01*
X32601000Y-6110500D02*
X32499000Y-6212500D01*
X32550000Y-6110500D02*
X32550000Y-6212500D01*
X32499000Y-6161500D02*
X32601000Y-6161500D01*
X32753000Y-4332500D02*
X32855000Y-4434500D01*
X32855000Y-4332500D02*
X32753000Y-4434500D01*
X32804000Y-4332500D02*
X32804000Y-4434500D01*
X32753000Y-4383500D02*
X32855000Y-4383500D01*
X32753000Y-6110500D02*
X32855000Y-6212500D01*
X32855000Y-6110500D02*
X32753000Y-6212500D01*
X32804000Y-6110500D02*
X32804000Y-6212500D01*
X32753000Y-6161500D02*
X32855000Y-6161500D01*
X33007000Y-4332500D02*
X33109000Y-4434500D01*
X33109000Y-4332500D02*
X33007000Y-4434500D01*
X33058000Y-4332500D02*
X33058000Y-4434500D01*
X33007000Y-4383500D02*
X33109000Y-4383500D01*
X33007000Y-6110500D02*
X33109000Y-6212500D01*
X33109000Y-6110500D02*
X33007000Y-6212500D01*
X33058000Y-6110500D02*
X33058000Y-6212500D01*
X33007000Y-6161500D02*
X33109000Y-6161500D01*
X33261000Y-4332500D02*
X33363000Y-4434500D01*
X33363000Y-4332500D02*
X33261000Y-4434500D01*
X33312000Y-4332500D02*
X33312000Y-4434500D01*
X33261000Y-4383500D02*
X33363000Y-4383500D01*
X33261000Y-6110500D02*
X33363000Y-6212500D01*
X33363000Y-6110500D02*
X33261000Y-6212500D01*
X33312000Y-6110500D02*
X33312000Y-6212500D01*
X33261000Y-6161500D02*
X33363000Y-6161500D01*
X33515000Y-4332500D02*
X33617000Y-4434500D01*
X33617000Y-4332500D02*
X33515000Y-4434500D01*
X33566000Y-4332500D02*
X33566000Y-4434500D01*
X33515000Y-4383500D02*
X33617000Y-4383500D01*
X33515000Y-6110500D02*
X33617000Y-6212500D01*
X33617000Y-6110500D02*
X33515000Y-6212500D01*
X33566000Y-6110500D02*
X33566000Y-6212500D01*
X33515000Y-6161500D02*
X33617000Y-6161500D01*
X33769000Y-4332500D02*
X33871000Y-4434500D01*
X33871000Y-4332500D02*
X33769000Y-4434500D01*
X33820000Y-4332500D02*
X33820000Y-4434500D01*
X33769000Y-4383500D02*
X33871000Y-4383500D01*
X33769000Y-6110500D02*
X33871000Y-6212500D01*
X33871000Y-6110500D02*
X33769000Y-6212500D01*
X33820000Y-6110500D02*
X33820000Y-6212500D01*
X33769000Y-6161500D02*
X33871000Y-6161500D01*
X34023000Y-4332500D02*
X34125000Y-4434500D01*
X34125000Y-4332500D02*
X34023000Y-4434500D01*
X34074000Y-4332500D02*
X34074000Y-4434500D01*
X34023000Y-4383500D02*
X34125000Y-4383500D01*
X34023000Y-6110500D02*
X34125000Y-6212500D01*
X34125000Y-6110500D02*
X34023000Y-6212500D01*
X34074000Y-6110500D02*
X34074000Y-6212500D01*
X34023000Y-6161500D02*
X34125000Y-6161500D01*
X34277000Y-4332500D02*
X34379000Y-4434500D01*
X34379000Y-4332500D02*
X34277000Y-4434500D01*
X34328000Y-4332500D02*
X34328000Y-4434500D01*
X34277000Y-4383500D02*
X34379000Y-4383500D01*
X34277000Y-6110500D02*
X34379000Y-6212500D01*
X34379000Y-6110500D02*
X34277000Y-6212500D01*
X34328000Y-6110500D02*
X34328000Y-6212500D01*
X34277000Y-6161500D02*
X34379000Y-6161500D01*
X34531000Y-4332500D02*
X34633000Y-4434500D01*
X34633000Y-4332500D02*
X34531000Y-4434500D01*
X34582000Y-4332500D02*
X34582000Y-4434500D01*
X34531000Y-4383500D02*
X34633000Y-4383500D01*
X34531000Y-6110500D02*
X34633000Y-6212500D01*
X34633000Y-6110500D02*
X34531000Y-6212500D01*
X34582000Y-6110500D02*
X34582000Y-6212500D01*
X34531000Y-6161500D02*
X34633000Y-6161500D01*
X34785000Y-4332500D02*
X34887000Y-4434500D01*
X34887000Y-4332500D02*
X34785000Y-4434500D01*
X34836000Y-4332500D02*
X34836000Y-4434500D01*
X34785000Y-4383500D02*
X34887000Y-4383500D01*
X34785000Y-6110500D02*
X34887000Y-6212500D01*
X34887000Y-6110500D02*
X34785000Y-6212500D01*
X34836000Y-6110500D02*
X34836000Y-6212500D01*
X34785000Y-6161500D02*
X34887000Y-6161500D01*
X35039000Y-4332500D02*
X35141000Y-4434500D01*
X35141000Y-4332500D02*
X35039000Y-4434500D01*
X35090000Y-4332500D02*
X35090000Y-4434500D01*
X35039000Y-4383500D02*
X35141000Y-4383500D01*
X35039000Y-6110500D02*
X35141000Y-6212500D01*
X35141000Y-6110500D02*
X35039000Y-6212500D01*
X35090000Y-6110500D02*
X35090000Y-6212500D01*
X35039000Y-6161500D02*
X35141000Y-6161500D01*
X35293000Y-4332500D02*
X35395000Y-4434500D01*
X35395000Y-4332500D02*
X35293000Y-4434500D01*
X35344000Y-4332500D02*
X35344000Y-4434500D01*
X35293000Y-4383500D02*
X35395000Y-4383500D01*
X35293000Y-6110500D02*
X35395000Y-6212500D01*
X35395000Y-6110500D02*
X35293000Y-6212500D01*
X35344000Y-6110500D02*
X35344000Y-6212500D01*
X35293000Y-6161500D02*
X35395000Y-6161500D01*
X35547000Y-4332500D02*
X35649000Y-4434500D01*
X35649000Y-4332500D02*
X35547000Y-4434500D01*
X35598000Y-4332500D02*
X35598000Y-4434500D01*
X35547000Y-4383500D02*
X35649000Y-4383500D01*
X35547000Y-6110500D02*
X35649000Y-6212500D01*
X35649000Y-6110500D02*
X35547000Y-6212500D01*
X35598000Y-6110500D02*
X35598000Y-6212500D01*
X35547000Y-6161500D02*
X35649000Y-6161500D01*
X35801000Y-4332500D02*
X35903000Y-4434500D01*
X35903000Y-4332500D02*
X35801000Y-4434500D01*
X35852000Y-4332500D02*
X35852000Y-4434500D01*
X35801000Y-4383500D02*
X35903000Y-4383500D01*
X35801000Y-6110500D02*
X35903000Y-6212500D01*
X35903000Y-6110500D02*
X35801000Y-6212500D01*
X35852000Y-6110500D02*
X35852000Y-6212500D01*
X35801000Y-6161500D02*
X35903000Y-6161500D01*
X36055000Y-4332500D02*
X36157000Y-4434500D01*
X36157000Y-4332500D02*
X36055000Y-4434500D01*
X36106000Y-4332500D02*
X36106000Y-4434500D01*
X36055000Y-4383500D02*
X36157000Y-4383500D01*
X36055000Y-6110500D02*
X36157000Y-6212500D01*
X36157000Y-6110500D02*
X36055000Y-6212500D01*
X36106000Y-6110500D02*
X36106000Y-6212500D01*
X36055000Y-6161500D02*
X36157000Y-6161500D01*
X36309000Y-4332500D02*
X36411000Y-4434500D01*
X36411000Y-4332500D02*
X36309000Y-4434500D01*
X36360000Y-4332500D02*
X36360000Y-4434500D01*
X36309000Y-4383500D02*
X36411000Y-4383500D01*
X36309000Y-6110500D02*
X36411000Y-6212500D01*
X36411000Y-6110500D02*
X36309000Y-6212500D01*
X36360000Y-6110500D02*
X36360000Y-6212500D01*
X36309000Y-6161500D02*
X36411000Y-6161500D01*
X36563000Y-4332500D02*
X36665000Y-4434500D01*
X36665000Y-4332500D02*
X36563000Y-4434500D01*
X36614000Y-4332500D02*
X36614000Y-4434500D01*
X36563000Y-4383500D02*
X36665000Y-4383500D01*
X36563000Y-6110500D02*
X36665000Y-6212500D01*
X36665000Y-6110500D02*
X36563000Y-6212500D01*
X36614000Y-6110500D02*
X36614000Y-6212500D01*
X36563000Y-6161500D02*
X36665000Y-6161500D01*
X36794000Y-4967500D02*
X36896000Y-5069500D01*
X36896000Y-4967500D02*
X36794000Y-5069500D01*
X36845000Y-4967500D02*
X36845000Y-5069500D01*
X36794000Y-5018500D02*
X36896000Y-5018500D01*
X36794000Y-5221500D02*
X36896000Y-5323500D01*
X36896000Y-5221500D02*
X36794000Y-5323500D01*
X36845000Y-5221500D02*
X36845000Y-5323500D01*
X36794000Y-5272500D02*
X36896000Y-5272500D01*
X36794000Y-5475500D02*
X36896000Y-5577500D01*
X36896000Y-5475500D02*
X36794000Y-5577500D01*
X36845000Y-5475500D02*
X36845000Y-5577500D01*
X36794000Y-5526500D02*
X36896000Y-5526500D01*
X36817000Y-4332500D02*
X36919000Y-4434500D01*
X36919000Y-4332500D02*
X36817000Y-4434500D01*
X36868000Y-4332500D02*
X36868000Y-4434500D01*
X36817000Y-4383500D02*
X36919000Y-4383500D01*
X36817000Y-6110500D02*
X36919000Y-6212500D01*
X36919000Y-6110500D02*
X36817000Y-6212500D01*
X36868000Y-6110500D02*
X36868000Y-6212500D01*
X36817000Y-6161500D02*
X36919000Y-6161500D01*
D18*
X29703000Y-9059000D02*
X29813000Y-9169000D01*
X29813000Y-9059000D02*
X29703000Y-9169000D01*
X29796891Y-9152891D02*
X29796891Y-9075109D01*
X29719109Y-9075109D01*
X29719109Y-9152891D01*
X29796891Y-9152891D01*
X30013000Y-9579000D02*
X30123000Y-9689000D01*
X30123000Y-9579000D02*
X30013000Y-9689000D01*
X30106891Y-9672891D02*
X30106891Y-9595109D01*
X30029109Y-9595109D01*
X30029109Y-9672891D01*
X30106891Y-9672891D01*
X30513000Y-8739000D02*
X30623000Y-8849000D01*
X30623000Y-8739000D02*
X30513000Y-8849000D01*
X30606891Y-8832891D02*
X30606891Y-8755109D01*
X30529109Y-8755109D01*
X30529109Y-8832891D01*
X30606891Y-8832891D01*
X30513000Y-9669000D02*
X30623000Y-9779000D01*
X30623000Y-9669000D02*
X30513000Y-9779000D01*
X30606891Y-9762891D02*
X30606891Y-9685109D01*
X30529109Y-9685109D01*
X30529109Y-9762891D01*
X30606891Y-9762891D01*
X31842500Y-8720000D02*
X31952500Y-8830000D01*
X31952500Y-8720000D02*
X31842500Y-8830000D01*
X31936391Y-8813891D02*
X31936391Y-8736109D01*
X31858609Y-8736109D01*
X31858609Y-8813891D01*
X31936391Y-8813891D01*
X31842500Y-9650000D02*
X31952500Y-9760000D01*
X31952500Y-9650000D02*
X31842500Y-9760000D01*
X31936391Y-9743891D02*
X31936391Y-9666109D01*
X31858609Y-9666109D01*
X31858609Y-9743891D01*
X31936391Y-9743891D01*
X32342500Y-8810000D02*
X32452500Y-8920000D01*
X32452500Y-8810000D02*
X32342500Y-8920000D01*
X32436391Y-8903891D02*
X32436391Y-8826109D01*
X32358609Y-8826109D01*
X32358609Y-8903891D01*
X32436391Y-8903891D01*
X32652500Y-9330000D02*
X32762500Y-9440000D01*
X32762500Y-9330000D02*
X32652500Y-9440000D01*
X32746391Y-9423891D02*
X32746391Y-9346109D01*
X32668609Y-9346109D01*
X32668609Y-9423891D01*
X32746391Y-9423891D01*
D19*
X10664000Y-7231000D02*
X10814000Y-7381000D01*
X10814000Y-7231000D02*
X10664000Y-7381000D01*
X10739000Y-7381000D02*
X10814000Y-7306000D01*
X10739000Y-7231000D01*
X10664000Y-7306000D01*
X10739000Y-7381000D01*
X10674000Y-17481000D02*
X10824000Y-17631000D01*
X10824000Y-17481000D02*
X10674000Y-17631000D01*
X10749000Y-17631000D02*
X10824000Y-17556000D01*
X10749000Y-17481000D01*
X10674000Y-17556000D01*
X10749000Y-17631000D01*
X10684000Y-10331000D02*
X10834000Y-10481000D01*
X10834000Y-10331000D02*
X10684000Y-10481000D01*
X10759000Y-10481000D02*
X10834000Y-10406000D01*
X10759000Y-10331000D01*
X10684000Y-10406000D01*
X10759000Y-10481000D01*
X10684000Y-15101000D02*
X10834000Y-15251000D01*
X10834000Y-15101000D02*
X10684000Y-15251000D01*
X10759000Y-15251000D02*
X10834000Y-15176000D01*
X10759000Y-15101000D01*
X10684000Y-15176000D01*
X10759000Y-15251000D01*
X10704000Y-12721000D02*
X10854000Y-12871000D01*
X10854000Y-12721000D02*
X10704000Y-12871000D01*
X10779000Y-12871000D02*
X10854000Y-12796000D01*
X10779000Y-12721000D01*
X10704000Y-12796000D01*
X10779000Y-12871000D01*
X11154000Y-19871000D02*
X11304000Y-20021000D01*
X11304000Y-19871000D02*
X11154000Y-20021000D01*
X11229000Y-20021000D02*
X11304000Y-19946000D01*
X11229000Y-19871000D01*
X11154000Y-19946000D01*
X11229000Y-20021000D01*
X11299000Y-6977000D02*
X11449000Y-7127000D01*
X11449000Y-6977000D02*
X11299000Y-7127000D01*
X11374000Y-7127000D02*
X11449000Y-7052000D01*
X11374000Y-6977000D01*
X11299000Y-7052000D01*
X11374000Y-7127000D01*
X11309000Y-17227000D02*
X11459000Y-17377000D01*
X11459000Y-17227000D02*
X11309000Y-17377000D01*
X11384000Y-17377000D02*
X11459000Y-17302000D01*
X11384000Y-17227000D01*
X11309000Y-17302000D01*
X11384000Y-17377000D01*
X11319000Y-10077000D02*
X11469000Y-10227000D01*
X11469000Y-10077000D02*
X11319000Y-10227000D01*
X11394000Y-10227000D02*
X11469000Y-10152000D01*
X11394000Y-10077000D01*
X11319000Y-10152000D01*
X11394000Y-10227000D01*
X11319000Y-14847000D02*
X11469000Y-14997000D01*
X11469000Y-14847000D02*
X11319000Y-14997000D01*
X11394000Y-14997000D02*
X11469000Y-14922000D01*
X11394000Y-14847000D01*
X11319000Y-14922000D01*
X11394000Y-14997000D01*
X11339000Y-12467000D02*
X11489000Y-12617000D01*
X11489000Y-12467000D02*
X11339000Y-12617000D01*
X11414000Y-12617000D02*
X11489000Y-12542000D01*
X11414000Y-12467000D01*
X11339000Y-12542000D01*
X11414000Y-12617000D01*
X11789000Y-19617000D02*
X11939000Y-19767000D01*
X11939000Y-19617000D02*
X11789000Y-19767000D01*
X11864000Y-19767000D02*
X11939000Y-19692000D01*
X11864000Y-19617000D01*
X11789000Y-19692000D01*
X11864000Y-19767000D01*
X13524000Y-7241000D02*
X13674000Y-7391000D01*
X13674000Y-7241000D02*
X13524000Y-7391000D01*
X13599000Y-7391000D02*
X13674000Y-7316000D01*
X13599000Y-7241000D01*
X13524000Y-7316000D01*
X13599000Y-7391000D01*
X13524000Y-19861000D02*
X13674000Y-20011000D01*
X13674000Y-19861000D02*
X13524000Y-20011000D01*
X13599000Y-20011000D02*
X13674000Y-19936000D01*
X13599000Y-19861000D01*
X13524000Y-19936000D01*
X13599000Y-20011000D01*
X13534000Y-12721000D02*
X13684000Y-12871000D01*
X13684000Y-12721000D02*
X13534000Y-12871000D01*
X13609000Y-12871000D02*
X13684000Y-12796000D01*
X13609000Y-12721000D01*
X13534000Y-12796000D01*
X13609000Y-12871000D01*
X13544000Y-10351000D02*
X13694000Y-10501000D01*
X13694000Y-10351000D02*
X13544000Y-10501000D01*
X13619000Y-10501000D02*
X13694000Y-10426000D01*
X13619000Y-10351000D01*
X13544000Y-10426000D01*
X13619000Y-10501000D01*
X13544000Y-17461000D02*
X13694000Y-17611000D01*
X13694000Y-17461000D02*
X13544000Y-17611000D01*
X13619000Y-17611000D02*
X13694000Y-17536000D01*
X13619000Y-17461000D01*
X13544000Y-17536000D01*
X13619000Y-17611000D01*
X13574000Y-15091000D02*
X13724000Y-15241000D01*
X13724000Y-15091000D02*
X13574000Y-15241000D01*
X13649000Y-15241000D02*
X13724000Y-15166000D01*
X13649000Y-15091000D01*
X13574000Y-15166000D01*
X13649000Y-15241000D01*
X14159000Y-6987000D02*
X14309000Y-7137000D01*
X14309000Y-6987000D02*
X14159000Y-7137000D01*
X14234000Y-7137000D02*
X14309000Y-7062000D01*
X14234000Y-6987000D01*
X14159000Y-7062000D01*
X14234000Y-7137000D01*
X14159000Y-19607000D02*
X14309000Y-19757000D01*
X14309000Y-19607000D02*
X14159000Y-19757000D01*
X14234000Y-19757000D02*
X14309000Y-19682000D01*
X14234000Y-19607000D01*
X14159000Y-19682000D01*
X14234000Y-19757000D01*
X14169000Y-12467000D02*
X14319000Y-12617000D01*
X14319000Y-12467000D02*
X14169000Y-12617000D01*
X14244000Y-12617000D02*
X14319000Y-12542000D01*
X14244000Y-12467000D01*
X14169000Y-12542000D01*
X14244000Y-12617000D01*
X14179000Y-10097000D02*
X14329000Y-10247000D01*
X14329000Y-10097000D02*
X14179000Y-10247000D01*
X14254000Y-10247000D02*
X14329000Y-10172000D01*
X14254000Y-10097000D01*
X14179000Y-10172000D01*
X14254000Y-10247000D01*
X14179000Y-17207000D02*
X14329000Y-17357000D01*
X14329000Y-17207000D02*
X14179000Y-17357000D01*
X14254000Y-17357000D02*
X14329000Y-17282000D01*
X14254000Y-17207000D01*
X14179000Y-17282000D01*
X14254000Y-17357000D01*
X14209000Y-14837000D02*
X14359000Y-14987000D01*
X14359000Y-14837000D02*
X14209000Y-14987000D01*
X14284000Y-14987000D02*
X14359000Y-14912000D01*
X14284000Y-14837000D01*
X14209000Y-14912000D01*
X14284000Y-14987000D01*
X15914000Y-12251000D02*
X16064000Y-12401000D01*
X16064000Y-12251000D02*
X15914000Y-12401000D01*
X15989000Y-12401000D02*
X16064000Y-12326000D01*
X15989000Y-12251000D01*
X15914000Y-12326000D01*
X15989000Y-12401000D01*
X15914000Y-17001000D02*
X16064000Y-17151000D01*
X16064000Y-17001000D02*
X15914000Y-17151000D01*
X15989000Y-17151000D02*
X16064000Y-17076000D01*
X15989000Y-17001000D01*
X15914000Y-17076000D01*
X15989000Y-17151000D01*
X15924000Y-19381000D02*
X16074000Y-19531000D01*
X16074000Y-19381000D02*
X15924000Y-19531000D01*
X15999000Y-19531000D02*
X16074000Y-19456000D01*
X15999000Y-19381000D01*
X15924000Y-19456000D01*
X15999000Y-19531000D01*
X15934000Y-14621000D02*
X16084000Y-14771000D01*
X16084000Y-14621000D02*
X15934000Y-14771000D01*
X16009000Y-14771000D02*
X16084000Y-14696000D01*
X16009000Y-14621000D01*
X15934000Y-14696000D01*
X16009000Y-14771000D01*
X15944000Y-9871000D02*
X16094000Y-10021000D01*
X16094000Y-9871000D02*
X15944000Y-10021000D01*
X16019000Y-10021000D02*
X16094000Y-9946000D01*
X16019000Y-9871000D01*
X15944000Y-9946000D01*
X16019000Y-10021000D01*
X16404000Y-7241000D02*
X16554000Y-7391000D01*
X16554000Y-7241000D02*
X16404000Y-7391000D01*
X16479000Y-7391000D02*
X16554000Y-7316000D01*
X16479000Y-7241000D01*
X16404000Y-7316000D01*
X16479000Y-7391000D01*
X16549000Y-11997000D02*
X16699000Y-12147000D01*
X16699000Y-11997000D02*
X16549000Y-12147000D01*
X16624000Y-12147000D02*
X16699000Y-12072000D01*
X16624000Y-11997000D01*
X16549000Y-12072000D01*
X16624000Y-12147000D01*
X16549000Y-16747000D02*
X16699000Y-16897000D01*
X16699000Y-16747000D02*
X16549000Y-16897000D01*
X16624000Y-16897000D02*
X16699000Y-16822000D01*
X16624000Y-16747000D01*
X16549000Y-16822000D01*
X16624000Y-16897000D01*
X16559000Y-19127000D02*
X16709000Y-19277000D01*
X16709000Y-19127000D02*
X16559000Y-19277000D01*
X16634000Y-19277000D02*
X16709000Y-19202000D01*
X16634000Y-19127000D01*
X16559000Y-19202000D01*
X16634000Y-19277000D01*
X16569000Y-14367000D02*
X16719000Y-14517000D01*
X16719000Y-14367000D02*
X16569000Y-14517000D01*
X16644000Y-14517000D02*
X16719000Y-14442000D01*
X16644000Y-14367000D01*
X16569000Y-14442000D01*
X16644000Y-14517000D01*
X16579000Y-9617000D02*
X16729000Y-9767000D01*
X16729000Y-9617000D02*
X16579000Y-9767000D01*
X16654000Y-9767000D02*
X16729000Y-9692000D01*
X16654000Y-9617000D01*
X16579000Y-9692000D01*
X16654000Y-9767000D01*
X17039000Y-6987000D02*
X17189000Y-7137000D01*
X17189000Y-6987000D02*
X17039000Y-7137000D01*
X17114000Y-7137000D02*
X17189000Y-7062000D01*
X17114000Y-6987000D01*
X17039000Y-7062000D01*
X17114000Y-7137000D01*
X18294000Y-14381000D02*
X18444000Y-14531000D01*
X18444000Y-14381000D02*
X18294000Y-14531000D01*
X18369000Y-14531000D02*
X18444000Y-14456000D01*
X18369000Y-14381000D01*
X18294000Y-14456000D01*
X18369000Y-14531000D01*
X18294000Y-16751000D02*
X18444000Y-16901000D01*
X18444000Y-16751000D02*
X18294000Y-16901000D01*
X18369000Y-16901000D02*
X18444000Y-16826000D01*
X18369000Y-16751000D01*
X18294000Y-16826000D01*
X18369000Y-16901000D01*
X18294000Y-19151000D02*
X18444000Y-19301000D01*
X18444000Y-19151000D02*
X18294000Y-19301000D01*
X18369000Y-19301000D02*
X18444000Y-19226000D01*
X18369000Y-19151000D01*
X18294000Y-19226000D01*
X18369000Y-19301000D01*
X18304000Y-9611000D02*
X18454000Y-9761000D01*
X18454000Y-9611000D02*
X18304000Y-9761000D01*
X18379000Y-9761000D02*
X18454000Y-9686000D01*
X18379000Y-9611000D01*
X18304000Y-9686000D01*
X18379000Y-9761000D01*
X18304000Y-11991000D02*
X18454000Y-12141000D01*
X18454000Y-11991000D02*
X18304000Y-12141000D01*
X18379000Y-12141000D02*
X18454000Y-12066000D01*
X18379000Y-11991000D01*
X18304000Y-12066000D01*
X18379000Y-12141000D01*
X18929000Y-14127000D02*
X19079000Y-14277000D01*
X19079000Y-14127000D02*
X18929000Y-14277000D01*
X19004000Y-14277000D02*
X19079000Y-14202000D01*
X19004000Y-14127000D01*
X18929000Y-14202000D01*
X19004000Y-14277000D01*
X18929000Y-16497000D02*
X19079000Y-16647000D01*
X19079000Y-16497000D02*
X18929000Y-16647000D01*
X19004000Y-16647000D02*
X19079000Y-16572000D01*
X19004000Y-16497000D01*
X18929000Y-16572000D01*
X19004000Y-16647000D01*
X18929000Y-18897000D02*
X19079000Y-19047000D01*
X19079000Y-18897000D02*
X18929000Y-19047000D01*
X19004000Y-19047000D02*
X19079000Y-18972000D01*
X19004000Y-18897000D01*
X18929000Y-18972000D01*
X19004000Y-19047000D01*
X18939000Y-9357000D02*
X19089000Y-9507000D01*
X19089000Y-9357000D02*
X18939000Y-9507000D01*
X19014000Y-9507000D02*
X19089000Y-9432000D01*
X19014000Y-9357000D01*
X18939000Y-9432000D01*
X19014000Y-9507000D01*
X18939000Y-11737000D02*
X19089000Y-11887000D01*
X19089000Y-11737000D02*
X18939000Y-11887000D01*
X19014000Y-11887000D02*
X19089000Y-11812000D01*
X19014000Y-11737000D01*
X18939000Y-11812000D01*
X19014000Y-11887000D01*
X19264000Y-7231000D02*
X19414000Y-7381000D01*
X19414000Y-7231000D02*
X19264000Y-7381000D01*
X19339000Y-7381000D02*
X19414000Y-7306000D01*
X19339000Y-7231000D01*
X19264000Y-7306000D01*
X19339000Y-7381000D01*
X19899000Y-6977000D02*
X20049000Y-7127000D01*
X20049000Y-6977000D02*
X19899000Y-7127000D01*
X19974000Y-7127000D02*
X20049000Y-7052000D01*
X19974000Y-6977000D01*
X19899000Y-7052000D01*
X19974000Y-7127000D01*
X20664000Y-14621000D02*
X20814000Y-14771000D01*
X20814000Y-14621000D02*
X20664000Y-14771000D01*
X20739000Y-14771000D02*
X20814000Y-14696000D01*
X20739000Y-14621000D01*
X20664000Y-14696000D01*
X20739000Y-14771000D01*
X20684000Y-12241000D02*
X20834000Y-12391000D01*
X20834000Y-12241000D02*
X20684000Y-12391000D01*
X20759000Y-12391000D02*
X20834000Y-12316000D01*
X20759000Y-12241000D01*
X20684000Y-12316000D01*
X20759000Y-12391000D01*
X20684000Y-17011000D02*
X20834000Y-17161000D01*
X20834000Y-17011000D02*
X20684000Y-17161000D01*
X20759000Y-17161000D02*
X20834000Y-17086000D01*
X20759000Y-17011000D01*
X20684000Y-17086000D01*
X20759000Y-17161000D01*
X20694000Y-9861000D02*
X20844000Y-10011000D01*
X20844000Y-9861000D02*
X20694000Y-10011000D01*
X20769000Y-10011000D02*
X20844000Y-9936000D01*
X20769000Y-9861000D01*
X20694000Y-9936000D01*
X20769000Y-10011000D01*
X20694000Y-19391000D02*
X20844000Y-19541000D01*
X20844000Y-19391000D02*
X20694000Y-19541000D01*
X20769000Y-19541000D02*
X20844000Y-19466000D01*
X20769000Y-19391000D01*
X20694000Y-19466000D01*
X20769000Y-19541000D01*
X21299000Y-14367000D02*
X21449000Y-14517000D01*
X21449000Y-14367000D02*
X21299000Y-14517000D01*
X21374000Y-14517000D02*
X21449000Y-14442000D01*
X21374000Y-14367000D01*
X21299000Y-14442000D01*
X21374000Y-14517000D01*
X21319000Y-11987000D02*
X21469000Y-12137000D01*
X21469000Y-11987000D02*
X21319000Y-12137000D01*
X21394000Y-12137000D02*
X21469000Y-12062000D01*
X21394000Y-11987000D01*
X21319000Y-12062000D01*
X21394000Y-12137000D01*
X21319000Y-16757000D02*
X21469000Y-16907000D01*
X21469000Y-16757000D02*
X21319000Y-16907000D01*
X21394000Y-16907000D02*
X21469000Y-16832000D01*
X21394000Y-16757000D01*
X21319000Y-16832000D01*
X21394000Y-16907000D01*
X21329000Y-9607000D02*
X21479000Y-9757000D01*
X21479000Y-9607000D02*
X21329000Y-9757000D01*
X21404000Y-9757000D02*
X21479000Y-9682000D01*
X21404000Y-9607000D01*
X21329000Y-9682000D01*
X21404000Y-9757000D01*
X21329000Y-19137000D02*
X21479000Y-19287000D01*
X21479000Y-19137000D02*
X21329000Y-19287000D01*
X21404000Y-19287000D02*
X21479000Y-19212000D01*
X21404000Y-19137000D01*
X21329000Y-19212000D01*
X21404000Y-19287000D01*
X22134000Y-7221000D02*
X22284000Y-7371000D01*
X22284000Y-7221000D02*
X22134000Y-7371000D01*
X22209000Y-7371000D02*
X22284000Y-7296000D01*
X22209000Y-7221000D01*
X22134000Y-7296000D01*
X22209000Y-7371000D01*
X22769000Y-6967000D02*
X22919000Y-7117000D01*
X22919000Y-6967000D02*
X22769000Y-7117000D01*
X22844000Y-7117000D02*
X22919000Y-7042000D01*
X22844000Y-6967000D01*
X22769000Y-7042000D01*
X22844000Y-7117000D01*
X23044000Y-17241000D02*
X23194000Y-17391000D01*
X23194000Y-17241000D02*
X23044000Y-17391000D01*
X23119000Y-17391000D02*
X23194000Y-17316000D01*
X23119000Y-17241000D01*
X23044000Y-17316000D01*
X23119000Y-17391000D01*
X23054000Y-10081000D02*
X23204000Y-10231000D01*
X23204000Y-10081000D02*
X23054000Y-10231000D01*
X23129000Y-10231000D02*
X23204000Y-10156000D01*
X23129000Y-10081000D01*
X23054000Y-10156000D01*
X23129000Y-10231000D01*
X23054000Y-14851000D02*
X23204000Y-15001000D01*
X23204000Y-14851000D02*
X23054000Y-15001000D01*
X23129000Y-15001000D02*
X23204000Y-14926000D01*
X23129000Y-14851000D01*
X23054000Y-14926000D01*
X23129000Y-15001000D01*
X23074000Y-12471000D02*
X23224000Y-12621000D01*
X23224000Y-12471000D02*
X23074000Y-12621000D01*
X23149000Y-12621000D02*
X23224000Y-12546000D01*
X23149000Y-12471000D01*
X23074000Y-12546000D01*
X23149000Y-12621000D01*
X23679000Y-16987000D02*
X23829000Y-17137000D01*
X23829000Y-16987000D02*
X23679000Y-17137000D01*
X23754000Y-17137000D02*
X23829000Y-17062000D01*
X23754000Y-16987000D01*
X23679000Y-17062000D01*
X23754000Y-17137000D01*
X23689000Y-9827000D02*
X23839000Y-9977000D01*
X23839000Y-9827000D02*
X23689000Y-9977000D01*
X23764000Y-9977000D02*
X23839000Y-9902000D01*
X23764000Y-9827000D01*
X23689000Y-9902000D01*
X23764000Y-9977000D01*
X23689000Y-14597000D02*
X23839000Y-14747000D01*
X23839000Y-14597000D02*
X23689000Y-14747000D01*
X23764000Y-14747000D02*
X23839000Y-14672000D01*
X23764000Y-14597000D01*
X23689000Y-14672000D01*
X23764000Y-14747000D01*
X23709000Y-12217000D02*
X23859000Y-12367000D01*
X23859000Y-12217000D02*
X23709000Y-12367000D01*
X23784000Y-12367000D02*
X23859000Y-12292000D01*
X23784000Y-12217000D01*
X23709000Y-12292000D01*
X23784000Y-12367000D01*
X24206044Y-20906531D02*
X24356044Y-21056531D01*
X24356044Y-20906531D02*
X24206044Y-21056531D01*
X24281044Y-21056531D02*
X24356044Y-20981531D01*
X24281044Y-20906531D01*
X24206044Y-20981531D01*
X24281044Y-21056531D01*
X24882970Y-21004060D02*
X25032970Y-21154060D01*
X25032970Y-21004060D02*
X24882970Y-21154060D01*
X24957970Y-21154060D02*
X25032970Y-21079060D01*
X24957970Y-21004060D01*
X24882970Y-21079060D01*
X24957970Y-21154060D01*
X24954000Y-7251000D02*
X25104000Y-7401000D01*
X25104000Y-7251000D02*
X24954000Y-7401000D01*
X25029000Y-7401000D02*
X25104000Y-7326000D01*
X25029000Y-7251000D01*
X24954000Y-7326000D01*
X25029000Y-7401000D01*
X25434000Y-14861000D02*
X25584000Y-15011000D01*
X25584000Y-14861000D02*
X25434000Y-15011000D01*
X25509000Y-15011000D02*
X25584000Y-14936000D01*
X25509000Y-14861000D01*
X25434000Y-14936000D01*
X25509000Y-15011000D01*
X25444000Y-12471000D02*
X25594000Y-12621000D01*
X25594000Y-12471000D02*
X25444000Y-12621000D01*
X25519000Y-12621000D02*
X25594000Y-12546000D01*
X25519000Y-12471000D01*
X25444000Y-12546000D01*
X25519000Y-12621000D01*
X25454000Y-10091000D02*
X25604000Y-10241000D01*
X25604000Y-10091000D02*
X25454000Y-10241000D01*
X25529000Y-10241000D02*
X25604000Y-10166000D01*
X25529000Y-10091000D01*
X25454000Y-10166000D01*
X25529000Y-10241000D01*
X25454000Y-17241000D02*
X25604000Y-17391000D01*
X25604000Y-17241000D02*
X25454000Y-17391000D01*
X25529000Y-17391000D02*
X25604000Y-17316000D01*
X25529000Y-17241000D01*
X25454000Y-17316000D01*
X25529000Y-17391000D01*
X25589000Y-6997000D02*
X25739000Y-7147000D01*
X25739000Y-6997000D02*
X25589000Y-7147000D01*
X25664000Y-7147000D02*
X25739000Y-7072000D01*
X25664000Y-6997000D01*
X25589000Y-7072000D01*
X25664000Y-7147000D01*
X26069000Y-14607000D02*
X26219000Y-14757000D01*
X26219000Y-14607000D02*
X26069000Y-14757000D01*
X26144000Y-14757000D02*
X26219000Y-14682000D01*
X26144000Y-14607000D01*
X26069000Y-14682000D01*
X26144000Y-14757000D01*
X26079000Y-12217000D02*
X26229000Y-12367000D01*
X26229000Y-12217000D02*
X26079000Y-12367000D01*
X26154000Y-12367000D02*
X26229000Y-12292000D01*
X26154000Y-12217000D01*
X26079000Y-12292000D01*
X26154000Y-12367000D01*
X26089000Y-9837000D02*
X26239000Y-9987000D01*
X26239000Y-9837000D02*
X26089000Y-9987000D01*
X26164000Y-9987000D02*
X26239000Y-9912000D01*
X26164000Y-9837000D01*
X26089000Y-9912000D01*
X26164000Y-9987000D01*
X26089000Y-16987000D02*
X26239000Y-17137000D01*
X26239000Y-16987000D02*
X26089000Y-17137000D01*
X26164000Y-17137000D02*
X26239000Y-17062000D01*
X26164000Y-16987000D01*
X26089000Y-17062000D01*
X26164000Y-17137000D01*
X26276044Y-22086531D02*
X26426044Y-22236531D01*
X26426044Y-22086531D02*
X26276044Y-22236531D01*
X26351044Y-22236531D02*
X26426044Y-22161531D01*
X26351044Y-22086531D01*
X26276044Y-22161531D01*
X26351044Y-22236531D01*
X26952970Y-22184060D02*
X27102970Y-22334060D01*
X27102970Y-22184060D02*
X26952970Y-22334060D01*
X27027970Y-22334060D02*
X27102970Y-22259060D01*
X27027970Y-22184060D01*
X26952970Y-22259060D01*
X27027970Y-22334060D01*
X27456044Y-20026531D02*
X27606044Y-20176531D01*
X27606044Y-20026531D02*
X27456044Y-20176531D01*
X27531044Y-20176531D02*
X27606044Y-20101531D01*
X27531044Y-20026531D01*
X27456044Y-20101531D01*
X27531044Y-20176531D01*
X27699000Y-13417000D02*
X27849000Y-13567000D01*
X27849000Y-13417000D02*
X27699000Y-13567000D01*
X27774000Y-13567000D02*
X27849000Y-13492000D01*
X27774000Y-13417000D01*
X27699000Y-13492000D01*
X27774000Y-13567000D01*
X27721000Y-16743000D02*
X27871000Y-16893000D01*
X27871000Y-16743000D02*
X27721000Y-16893000D01*
X27796000Y-16893000D02*
X27871000Y-16818000D01*
X27796000Y-16743000D01*
X27721000Y-16818000D01*
X27796000Y-16893000D01*
X27824000Y-7241000D02*
X27974000Y-7391000D01*
X27974000Y-7241000D02*
X27824000Y-7391000D01*
X27899000Y-7391000D02*
X27974000Y-7316000D01*
X27899000Y-7241000D01*
X27824000Y-7316000D01*
X27899000Y-7391000D01*
X27824000Y-10091000D02*
X27974000Y-10241000D01*
X27974000Y-10091000D02*
X27824000Y-10241000D01*
X27899000Y-10241000D02*
X27974000Y-10166000D01*
X27899000Y-10091000D01*
X27824000Y-10166000D01*
X27899000Y-10241000D01*
X27953000Y-14052000D02*
X28103000Y-14202000D01*
X28103000Y-14052000D02*
X27953000Y-14202000D01*
X28028000Y-14202000D02*
X28103000Y-14127000D01*
X28028000Y-14052000D01*
X27953000Y-14127000D01*
X28028000Y-14202000D01*
X27975000Y-17378000D02*
X28125000Y-17528000D01*
X28125000Y-17378000D02*
X27975000Y-17528000D01*
X28050000Y-17528000D02*
X28125000Y-17453000D01*
X28050000Y-17378000D01*
X27975000Y-17453000D01*
X28050000Y-17528000D01*
X28132970Y-20124060D02*
X28282970Y-20274060D01*
X28282970Y-20124060D02*
X28132970Y-20274060D01*
X28207970Y-20274060D02*
X28282970Y-20199060D01*
X28207970Y-20124060D01*
X28132970Y-20199060D01*
X28207970Y-20274060D01*
X28336044Y-23296530D02*
X28486044Y-23446530D01*
X28486044Y-23296530D02*
X28336044Y-23446530D01*
X28411044Y-23446530D02*
X28486044Y-23371530D01*
X28411044Y-23296530D01*
X28336044Y-23371530D01*
X28411044Y-23446530D01*
X28459000Y-6987000D02*
X28609000Y-7137000D01*
X28609000Y-6987000D02*
X28459000Y-7137000D01*
X28534000Y-7137000D02*
X28609000Y-7062000D01*
X28534000Y-6987000D01*
X28459000Y-7062000D01*
X28534000Y-7137000D01*
X28459000Y-9837000D02*
X28609000Y-9987000D01*
X28609000Y-9837000D02*
X28459000Y-9987000D01*
X28534000Y-9987000D02*
X28609000Y-9912000D01*
X28534000Y-9837000D01*
X28459000Y-9912000D01*
X28534000Y-9987000D01*
X29012970Y-23394060D02*
X29162970Y-23544060D01*
X29162970Y-23394060D02*
X29012970Y-23544060D01*
X29087970Y-23544060D02*
X29162970Y-23469060D01*
X29087970Y-23394060D01*
X29012970Y-23469060D01*
X29087970Y-23544060D01*
X33545044Y-23661530D02*
X33695044Y-23811530D01*
X33695044Y-23661530D02*
X33545044Y-23811530D01*
X33620044Y-23811530D02*
X33695044Y-23736530D01*
X33620044Y-23661530D01*
X33545044Y-23736530D01*
X33620044Y-23811530D01*
X33662000Y-13441000D02*
X33812000Y-13591000D01*
X33812000Y-13441000D02*
X33662000Y-13591000D01*
X33737000Y-13591000D02*
X33812000Y-13516000D01*
X33737000Y-13441000D01*
X33662000Y-13516000D01*
X33737000Y-13591000D01*
X33672000Y-16771000D02*
X33822000Y-16921000D01*
X33822000Y-16771000D02*
X33672000Y-16921000D01*
X33747000Y-16921000D02*
X33822000Y-16846000D01*
X33747000Y-16771000D01*
X33672000Y-16846000D01*
X33747000Y-16921000D01*
X33757000Y-7255000D02*
X33907000Y-7405000D01*
X33907000Y-7255000D02*
X33757000Y-7405000D01*
X33832000Y-7405000D02*
X33907000Y-7330000D01*
X33832000Y-7255000D01*
X33757000Y-7330000D01*
X33832000Y-7405000D01*
X33777000Y-10105000D02*
X33927000Y-10255000D01*
X33927000Y-10105000D02*
X33777000Y-10255000D01*
X33852000Y-10255000D02*
X33927000Y-10180000D01*
X33852000Y-10105000D01*
X33777000Y-10180000D01*
X33852000Y-10255000D01*
X33916000Y-14076000D02*
X34066000Y-14226000D01*
X34066000Y-14076000D02*
X33916000Y-14226000D01*
X33991000Y-14226000D02*
X34066000Y-14151000D01*
X33991000Y-14076000D01*
X33916000Y-14151000D01*
X33991000Y-14226000D01*
X33926000Y-17406000D02*
X34076000Y-17556000D01*
X34076000Y-17406000D02*
X33926000Y-17556000D01*
X34001000Y-17556000D02*
X34076000Y-17481000D01*
X34001000Y-17406000D01*
X33926000Y-17481000D01*
X34001000Y-17556000D01*
X33967970Y-23124060D02*
X34117970Y-23274060D01*
X34117970Y-23124060D02*
X33967970Y-23274060D01*
X34042970Y-23274060D02*
X34117970Y-23199060D01*
X34042970Y-23124060D01*
X33967970Y-23199060D01*
X34042970Y-23274060D01*
X34392000Y-7001000D02*
X34542000Y-7151000D01*
X34542000Y-7001000D02*
X34392000Y-7151000D01*
X34467000Y-7151000D02*
X34542000Y-7076000D01*
X34467000Y-7001000D01*
X34392000Y-7076000D01*
X34467000Y-7151000D01*
X34405044Y-20398471D02*
X34555044Y-20548471D01*
X34555044Y-20398471D02*
X34405044Y-20548471D01*
X34480044Y-20548471D02*
X34555044Y-20473471D01*
X34480044Y-20398471D01*
X34405044Y-20473471D01*
X34480044Y-20548471D01*
X34412000Y-9851000D02*
X34562000Y-10001000D01*
X34562000Y-9851000D02*
X34412000Y-10001000D01*
X34487000Y-10001000D02*
X34562000Y-9926000D01*
X34487000Y-9851000D01*
X34412000Y-9926000D01*
X34487000Y-10001000D01*
X34827970Y-19861000D02*
X34977970Y-20011000D01*
X34977970Y-19861000D02*
X34827970Y-20011000D01*
X34902970Y-20011000D02*
X34977970Y-19936000D01*
X34902970Y-19861000D01*
X34827970Y-19936000D01*
X34902970Y-20011000D01*
X35615044Y-22471530D02*
X35765044Y-22621530D01*
X35765044Y-22471530D02*
X35615044Y-22621530D01*
X35690044Y-22621530D02*
X35765044Y-22546530D01*
X35690044Y-22471530D01*
X35615044Y-22546530D01*
X35690044Y-22621530D01*
X36037970Y-21934060D02*
X36187970Y-22084060D01*
X36187970Y-21934060D02*
X36037970Y-22084060D01*
X36112970Y-22084060D02*
X36187970Y-22009060D01*
X36112970Y-21934060D01*
X36037970Y-22009060D01*
X36112970Y-22084060D01*
X36157000Y-14875000D02*
X36307000Y-15025000D01*
X36307000Y-14875000D02*
X36157000Y-15025000D01*
X36232000Y-15025000D02*
X36307000Y-14950000D01*
X36232000Y-14875000D01*
X36157000Y-14950000D01*
X36232000Y-15025000D01*
X36167000Y-10095000D02*
X36317000Y-10245000D01*
X36317000Y-10095000D02*
X36167000Y-10245000D01*
X36242000Y-10245000D02*
X36317000Y-10170000D01*
X36242000Y-10095000D01*
X36167000Y-10170000D01*
X36242000Y-10245000D01*
X36177000Y-17245000D02*
X36327000Y-17395000D01*
X36327000Y-17245000D02*
X36177000Y-17395000D01*
X36252000Y-17395000D02*
X36327000Y-17320000D01*
X36252000Y-17245000D01*
X36177000Y-17320000D01*
X36252000Y-17395000D01*
X36187000Y-12495000D02*
X36337000Y-12645000D01*
X36337000Y-12495000D02*
X36187000Y-12645000D01*
X36262000Y-12645000D02*
X36337000Y-12570000D01*
X36262000Y-12495000D01*
X36187000Y-12570000D01*
X36262000Y-12645000D01*
X36637000Y-7245000D02*
X36787000Y-7395000D01*
X36787000Y-7245000D02*
X36637000Y-7395000D01*
X36712000Y-7395000D02*
X36787000Y-7320000D01*
X36712000Y-7245000D01*
X36637000Y-7320000D01*
X36712000Y-7395000D01*
X36792000Y-14621000D02*
X36942000Y-14771000D01*
X36942000Y-14621000D02*
X36792000Y-14771000D01*
X36867000Y-14771000D02*
X36942000Y-14696000D01*
X36867000Y-14621000D01*
X36792000Y-14696000D01*
X36867000Y-14771000D01*
X36802000Y-9841000D02*
X36952000Y-9991000D01*
X36952000Y-9841000D02*
X36802000Y-9991000D01*
X36877000Y-9991000D02*
X36952000Y-9916000D01*
X36877000Y-9841000D01*
X36802000Y-9916000D01*
X36877000Y-9991000D01*
X36812000Y-16991000D02*
X36962000Y-17141000D01*
X36962000Y-16991000D02*
X36812000Y-17141000D01*
X36887000Y-17141000D02*
X36962000Y-17066000D01*
X36887000Y-16991000D01*
X36812000Y-17066000D01*
X36887000Y-17141000D01*
X36822000Y-12241000D02*
X36972000Y-12391000D01*
X36972000Y-12241000D02*
X36822000Y-12391000D01*
X36897000Y-12391000D02*
X36972000Y-12316000D01*
X36897000Y-12241000D01*
X36822000Y-12316000D01*
X36897000Y-12391000D01*
X37272000Y-6991000D02*
X37422000Y-7141000D01*
X37422000Y-6991000D02*
X37272000Y-7141000D01*
X37347000Y-7141000D02*
X37422000Y-7066000D01*
X37347000Y-6991000D01*
X37272000Y-7066000D01*
X37347000Y-7141000D01*
X37675044Y-21271531D02*
X37825044Y-21421531D01*
X37825044Y-21271531D02*
X37675044Y-21421531D01*
X37750044Y-21421531D02*
X37825044Y-21346531D01*
X37750044Y-21271531D01*
X37675044Y-21346531D01*
X37750044Y-21421531D01*
X38097970Y-20734060D02*
X38247970Y-20884060D01*
X38247970Y-20734060D02*
X38097970Y-20884060D01*
X38172970Y-20884060D02*
X38247970Y-20809060D01*
X38172970Y-20734060D01*
X38097970Y-20809060D01*
X38172970Y-20884060D01*
X38547000Y-10115000D02*
X38697000Y-10265000D01*
X38697000Y-10115000D02*
X38547000Y-10265000D01*
X38622000Y-10265000D02*
X38697000Y-10190000D01*
X38622000Y-10115000D01*
X38547000Y-10190000D01*
X38622000Y-10265000D01*
X38547000Y-12485000D02*
X38697000Y-12635000D01*
X38697000Y-12485000D02*
X38547000Y-12635000D01*
X38622000Y-12635000D02*
X38697000Y-12560000D01*
X38622000Y-12485000D01*
X38547000Y-12560000D01*
X38622000Y-12635000D01*
X38557000Y-14865000D02*
X38707000Y-15015000D01*
X38707000Y-14865000D02*
X38557000Y-15015000D01*
X38632000Y-15015000D02*
X38707000Y-14940000D01*
X38632000Y-14865000D01*
X38557000Y-14940000D01*
X38632000Y-15015000D01*
X38557000Y-17225000D02*
X38707000Y-17375000D01*
X38707000Y-17225000D02*
X38557000Y-17375000D01*
X38632000Y-17375000D02*
X38707000Y-17300000D01*
X38632000Y-17225000D01*
X38557000Y-17300000D01*
X38632000Y-17375000D01*
X39182000Y-9861000D02*
X39332000Y-10011000D01*
X39332000Y-9861000D02*
X39182000Y-10011000D01*
X39257000Y-10011000D02*
X39332000Y-9936000D01*
X39257000Y-9861000D01*
X39182000Y-9936000D01*
X39257000Y-10011000D01*
X39182000Y-12231000D02*
X39332000Y-12381000D01*
X39332000Y-12231000D02*
X39182000Y-12381000D01*
X39257000Y-12381000D02*
X39332000Y-12306000D01*
X39257000Y-12231000D01*
X39182000Y-12306000D01*
X39257000Y-12381000D01*
X39192000Y-14611000D02*
X39342000Y-14761000D01*
X39342000Y-14611000D02*
X39192000Y-14761000D01*
X39267000Y-14761000D02*
X39342000Y-14686000D01*
X39267000Y-14611000D01*
X39192000Y-14686000D01*
X39267000Y-14761000D01*
X39192000Y-16971000D02*
X39342000Y-17121000D01*
X39342000Y-16971000D02*
X39192000Y-17121000D01*
X39267000Y-17121000D02*
X39342000Y-17046000D01*
X39267000Y-16971000D01*
X39192000Y-17046000D01*
X39267000Y-17121000D01*
X39497000Y-7255000D02*
X39647000Y-7405000D01*
X39647000Y-7255000D02*
X39497000Y-7405000D01*
X39572000Y-7405000D02*
X39647000Y-7330000D01*
X39572000Y-7255000D01*
X39497000Y-7330000D01*
X39572000Y-7405000D01*
X40132000Y-7001000D02*
X40282000Y-7151000D01*
X40282000Y-7001000D02*
X40132000Y-7151000D01*
X40207000Y-7151000D02*
X40282000Y-7076000D01*
X40207000Y-7001000D01*
X40132000Y-7076000D01*
X40207000Y-7151000D01*
X40927000Y-17015000D02*
X41077000Y-17165000D01*
X41077000Y-17015000D02*
X40927000Y-17165000D01*
X41002000Y-17165000D02*
X41077000Y-17090000D01*
X41002000Y-17015000D01*
X40927000Y-17090000D01*
X41002000Y-17165000D01*
X40937000Y-9875000D02*
X41087000Y-10025000D01*
X41087000Y-9875000D02*
X40937000Y-10025000D01*
X41012000Y-10025000D02*
X41087000Y-9950000D01*
X41012000Y-9875000D01*
X40937000Y-9950000D01*
X41012000Y-10025000D01*
X40937000Y-19395000D02*
X41087000Y-19545000D01*
X41087000Y-19395000D02*
X40937000Y-19545000D01*
X41012000Y-19545000D02*
X41087000Y-19470000D01*
X41012000Y-19395000D01*
X40937000Y-19470000D01*
X41012000Y-19545000D01*
X40947000Y-12245000D02*
X41097000Y-12395000D01*
X41097000Y-12245000D02*
X40947000Y-12395000D01*
X41022000Y-12395000D02*
X41097000Y-12320000D01*
X41022000Y-12245000D01*
X40947000Y-12320000D01*
X41022000Y-12395000D01*
X40947000Y-14645000D02*
X41097000Y-14795000D01*
X41097000Y-14645000D02*
X40947000Y-14795000D01*
X41022000Y-14795000D02*
X41097000Y-14720000D01*
X41022000Y-14645000D01*
X40947000Y-14720000D01*
X41022000Y-14795000D01*
X41562000Y-16761000D02*
X41712000Y-16911000D01*
X41712000Y-16761000D02*
X41562000Y-16911000D01*
X41637000Y-16911000D02*
X41712000Y-16836000D01*
X41637000Y-16761000D01*
X41562000Y-16836000D01*
X41637000Y-16911000D01*
X41572000Y-9621000D02*
X41722000Y-9771000D01*
X41722000Y-9621000D02*
X41572000Y-9771000D01*
X41647000Y-9771000D02*
X41722000Y-9696000D01*
X41647000Y-9621000D01*
X41572000Y-9696000D01*
X41647000Y-9771000D01*
X41572000Y-19141000D02*
X41722000Y-19291000D01*
X41722000Y-19141000D02*
X41572000Y-19291000D01*
X41647000Y-19291000D02*
X41722000Y-19216000D01*
X41647000Y-19141000D01*
X41572000Y-19216000D01*
X41647000Y-19291000D01*
X41582000Y-11991000D02*
X41732000Y-12141000D01*
X41732000Y-11991000D02*
X41582000Y-12141000D01*
X41657000Y-12141000D02*
X41732000Y-12066000D01*
X41657000Y-11991000D01*
X41582000Y-12066000D01*
X41657000Y-12141000D01*
X41582000Y-14391000D02*
X41732000Y-14541000D01*
X41732000Y-14391000D02*
X41582000Y-14541000D01*
X41657000Y-14541000D02*
X41732000Y-14466000D01*
X41657000Y-14391000D01*
X41582000Y-14466000D01*
X41657000Y-14541000D01*
X42351000Y-7257000D02*
X42501000Y-7407000D01*
X42501000Y-7257000D02*
X42351000Y-7407000D01*
X42426000Y-7407000D02*
X42501000Y-7332000D01*
X42426000Y-7257000D01*
X42351000Y-7332000D01*
X42426000Y-7407000D01*
X42986000Y-7003000D02*
X43136000Y-7153000D01*
X43136000Y-7003000D02*
X42986000Y-7153000D01*
X43061000Y-7153000D02*
X43136000Y-7078000D01*
X43061000Y-7003000D01*
X42986000Y-7078000D01*
X43061000Y-7153000D01*
X43297000Y-9645000D02*
X43447000Y-9795000D01*
X43447000Y-9645000D02*
X43297000Y-9795000D01*
X43372000Y-9795000D02*
X43447000Y-9720000D01*
X43372000Y-9645000D01*
X43297000Y-9720000D01*
X43372000Y-9795000D01*
X43313000Y-16767000D02*
X43463000Y-16917000D01*
X43463000Y-16767000D02*
X43313000Y-16917000D01*
X43388000Y-16917000D02*
X43463000Y-16842000D01*
X43388000Y-16767000D01*
X43313000Y-16842000D01*
X43388000Y-16917000D01*
X43317000Y-14405000D02*
X43467000Y-14555000D01*
X43467000Y-14405000D02*
X43317000Y-14555000D01*
X43392000Y-14555000D02*
X43467000Y-14480000D01*
X43392000Y-14405000D01*
X43317000Y-14480000D01*
X43392000Y-14555000D01*
X43327000Y-12025000D02*
X43477000Y-12175000D01*
X43477000Y-12025000D02*
X43327000Y-12175000D01*
X43402000Y-12175000D02*
X43477000Y-12100000D01*
X43402000Y-12025000D01*
X43327000Y-12100000D01*
X43402000Y-12175000D01*
X43327000Y-19135000D02*
X43477000Y-19285000D01*
X43477000Y-19135000D02*
X43327000Y-19285000D01*
X43402000Y-19285000D02*
X43477000Y-19210000D01*
X43402000Y-19135000D01*
X43327000Y-19210000D01*
X43402000Y-19285000D01*
X43932000Y-9391000D02*
X44082000Y-9541000D01*
X44082000Y-9391000D02*
X43932000Y-9541000D01*
X44007000Y-9541000D02*
X44082000Y-9466000D01*
X44007000Y-9391000D01*
X43932000Y-9466000D01*
X44007000Y-9541000D01*
X43948000Y-16513000D02*
X44098000Y-16663000D01*
X44098000Y-16513000D02*
X43948000Y-16663000D01*
X44023000Y-16663000D02*
X44098000Y-16588000D01*
X44023000Y-16513000D01*
X43948000Y-16588000D01*
X44023000Y-16663000D01*
X43952000Y-14151000D02*
X44102000Y-14301000D01*
X44102000Y-14151000D02*
X43952000Y-14301000D01*
X44027000Y-14301000D02*
X44102000Y-14226000D01*
X44027000Y-14151000D01*
X43952000Y-14226000D01*
X44027000Y-14301000D01*
X43962000Y-11771000D02*
X44112000Y-11921000D01*
X44112000Y-11771000D02*
X43962000Y-11921000D01*
X44037000Y-11921000D02*
X44112000Y-11846000D01*
X44037000Y-11771000D01*
X43962000Y-11846000D01*
X44037000Y-11921000D01*
X43962000Y-18881000D02*
X44112000Y-19031000D01*
X44112000Y-18881000D02*
X43962000Y-19031000D01*
X44037000Y-19031000D02*
X44112000Y-18956000D01*
X44037000Y-18881000D01*
X43962000Y-18956000D01*
X44037000Y-19031000D01*
X45217000Y-7265000D02*
X45367000Y-7415000D01*
X45367000Y-7265000D02*
X45217000Y-7415000D01*
X45292000Y-7415000D02*
X45367000Y-7340000D01*
X45292000Y-7265000D01*
X45217000Y-7340000D01*
X45292000Y-7415000D01*
X45677000Y-19405000D02*
X45827000Y-19555000D01*
X45827000Y-19405000D02*
X45677000Y-19555000D01*
X45752000Y-19555000D02*
X45827000Y-19480000D01*
X45752000Y-19405000D01*
X45677000Y-19480000D01*
X45752000Y-19555000D01*
X45697000Y-12485000D02*
X45847000Y-12635000D01*
X45847000Y-12485000D02*
X45697000Y-12635000D01*
X45772000Y-12635000D02*
X45847000Y-12560000D01*
X45772000Y-12485000D01*
X45697000Y-12560000D01*
X45772000Y-12635000D01*
X45707000Y-10105000D02*
X45857000Y-10255000D01*
X45857000Y-10105000D02*
X45707000Y-10255000D01*
X45782000Y-10255000D02*
X45857000Y-10180000D01*
X45782000Y-10105000D01*
X45707000Y-10180000D01*
X45782000Y-10255000D01*
X45707000Y-14635000D02*
X45857000Y-14785000D01*
X45857000Y-14635000D02*
X45707000Y-14785000D01*
X45782000Y-14785000D02*
X45857000Y-14710000D01*
X45782000Y-14635000D01*
X45707000Y-14710000D01*
X45782000Y-14785000D01*
X45737000Y-17025000D02*
X45887000Y-17175000D01*
X45887000Y-17025000D02*
X45737000Y-17175000D01*
X45812000Y-17175000D02*
X45887000Y-17100000D01*
X45812000Y-17025000D01*
X45737000Y-17100000D01*
X45812000Y-17175000D01*
X45852000Y-7011000D02*
X46002000Y-7161000D01*
X46002000Y-7011000D02*
X45852000Y-7161000D01*
X45927000Y-7161000D02*
X46002000Y-7086000D01*
X45927000Y-7011000D01*
X45852000Y-7086000D01*
X45927000Y-7161000D01*
X46312000Y-19151000D02*
X46462000Y-19301000D01*
X46462000Y-19151000D02*
X46312000Y-19301000D01*
X46387000Y-19301000D02*
X46462000Y-19226000D01*
X46387000Y-19151000D01*
X46312000Y-19226000D01*
X46387000Y-19301000D01*
X46332000Y-12231000D02*
X46482000Y-12381000D01*
X46482000Y-12231000D02*
X46332000Y-12381000D01*
X46407000Y-12381000D02*
X46482000Y-12306000D01*
X46407000Y-12231000D01*
X46332000Y-12306000D01*
X46407000Y-12381000D01*
X46342000Y-9851000D02*
X46492000Y-10001000D01*
X46492000Y-9851000D02*
X46342000Y-10001000D01*
X46417000Y-10001000D02*
X46492000Y-9926000D01*
X46417000Y-9851000D01*
X46342000Y-9926000D01*
X46417000Y-10001000D01*
X46342000Y-14381000D02*
X46492000Y-14531000D01*
X46492000Y-14381000D02*
X46342000Y-14531000D01*
X46417000Y-14531000D02*
X46492000Y-14456000D01*
X46417000Y-14381000D01*
X46342000Y-14456000D01*
X46417000Y-14531000D01*
X46372000Y-16771000D02*
X46522000Y-16921000D01*
X46522000Y-16771000D02*
X46372000Y-16921000D01*
X46447000Y-16921000D02*
X46522000Y-16846000D01*
X46447000Y-16771000D01*
X46372000Y-16846000D01*
X46447000Y-16921000D01*
X48057000Y-15105000D02*
X48207000Y-15255000D01*
X48207000Y-15105000D02*
X48057000Y-15255000D01*
X48132000Y-15255000D02*
X48207000Y-15180000D01*
X48132000Y-15105000D01*
X48057000Y-15180000D01*
X48132000Y-15255000D01*
X48057000Y-19885000D02*
X48207000Y-20035000D01*
X48207000Y-19885000D02*
X48057000Y-20035000D01*
X48132000Y-20035000D02*
X48207000Y-19960000D01*
X48132000Y-19885000D01*
X48057000Y-19960000D01*
X48132000Y-20035000D01*
X48067000Y-10355000D02*
X48217000Y-10505000D01*
X48217000Y-10355000D02*
X48067000Y-10505000D01*
X48142000Y-10505000D02*
X48217000Y-10430000D01*
X48142000Y-10355000D01*
X48067000Y-10430000D01*
X48142000Y-10505000D01*
X48067000Y-17475000D02*
X48217000Y-17625000D01*
X48217000Y-17475000D02*
X48067000Y-17625000D01*
X48142000Y-17625000D02*
X48217000Y-17550000D01*
X48142000Y-17475000D01*
X48067000Y-17550000D01*
X48142000Y-17625000D01*
X48077000Y-7245000D02*
X48227000Y-7395000D01*
X48227000Y-7245000D02*
X48077000Y-7395000D01*
X48152000Y-7395000D02*
X48227000Y-7320000D01*
X48152000Y-7245000D01*
X48077000Y-7320000D01*
X48152000Y-7395000D01*
X48087000Y-12735000D02*
X48237000Y-12885000D01*
X48237000Y-12735000D02*
X48087000Y-12885000D01*
X48162000Y-12885000D02*
X48237000Y-12810000D01*
X48162000Y-12735000D01*
X48087000Y-12810000D01*
X48162000Y-12885000D01*
X48692000Y-14851000D02*
X48842000Y-15001000D01*
X48842000Y-14851000D02*
X48692000Y-15001000D01*
X48767000Y-15001000D02*
X48842000Y-14926000D01*
X48767000Y-14851000D01*
X48692000Y-14926000D01*
X48767000Y-15001000D01*
X48692000Y-19631000D02*
X48842000Y-19781000D01*
X48842000Y-19631000D02*
X48692000Y-19781000D01*
X48767000Y-19781000D02*
X48842000Y-19706000D01*
X48767000Y-19631000D01*
X48692000Y-19706000D01*
X48767000Y-19781000D01*
X48702000Y-10101000D02*
X48852000Y-10251000D01*
X48852000Y-10101000D02*
X48702000Y-10251000D01*
X48777000Y-10251000D02*
X48852000Y-10176000D01*
X48777000Y-10101000D01*
X48702000Y-10176000D01*
X48777000Y-10251000D01*
X48702000Y-17221000D02*
X48852000Y-17371000D01*
X48852000Y-17221000D02*
X48702000Y-17371000D01*
X48777000Y-17371000D02*
X48852000Y-17296000D01*
X48777000Y-17221000D01*
X48702000Y-17296000D01*
X48777000Y-17371000D01*
X48712000Y-6991000D02*
X48862000Y-7141000D01*
X48862000Y-6991000D02*
X48712000Y-7141000D01*
X48787000Y-7141000D02*
X48862000Y-7066000D01*
X48787000Y-6991000D01*
X48712000Y-7066000D01*
X48787000Y-7141000D01*
X48722000Y-12481000D02*
X48872000Y-12631000D01*
X48872000Y-12481000D02*
X48722000Y-12631000D01*
X48797000Y-12631000D02*
X48872000Y-12556000D01*
X48797000Y-12481000D01*
X48722000Y-12556000D01*
X48797000Y-12631000D01*
X50447000Y-19895000D02*
X50597000Y-20045000D01*
X50597000Y-19895000D02*
X50447000Y-20045000D01*
X50522000Y-20045000D02*
X50597000Y-19970000D01*
X50522000Y-19895000D01*
X50447000Y-19970000D01*
X50522000Y-20045000D01*
X50927000Y-15115000D02*
X51077000Y-15265000D01*
X51077000Y-15115000D02*
X50927000Y-15265000D01*
X51002000Y-15265000D02*
X51077000Y-15190000D01*
X51002000Y-15115000D01*
X50927000Y-15190000D01*
X51002000Y-15265000D01*
X50937000Y-10345000D02*
X51087000Y-10495000D01*
X51087000Y-10345000D02*
X50937000Y-10495000D01*
X51012000Y-10495000D02*
X51087000Y-10420000D01*
X51012000Y-10345000D01*
X50937000Y-10420000D01*
X51012000Y-10495000D01*
X50937000Y-12725000D02*
X51087000Y-12875000D01*
X51087000Y-12725000D02*
X50937000Y-12875000D01*
X51012000Y-12875000D02*
X51087000Y-12800000D01*
X51012000Y-12725000D01*
X50937000Y-12800000D01*
X51012000Y-12875000D01*
X50947000Y-7255000D02*
X51097000Y-7405000D01*
X51097000Y-7255000D02*
X50947000Y-7405000D01*
X51022000Y-7405000D02*
X51097000Y-7330000D01*
X51022000Y-7255000D01*
X50947000Y-7330000D01*
X51022000Y-7405000D01*
X50957000Y-17485000D02*
X51107000Y-17635000D01*
X51107000Y-17485000D02*
X50957000Y-17635000D01*
X51032000Y-17635000D02*
X51107000Y-17560000D01*
X51032000Y-17485000D01*
X50957000Y-17560000D01*
X51032000Y-17635000D01*
X51082000Y-19641000D02*
X51232000Y-19791000D01*
X51232000Y-19641000D02*
X51082000Y-19791000D01*
X51157000Y-19791000D02*
X51232000Y-19716000D01*
X51157000Y-19641000D01*
X51082000Y-19716000D01*
X51157000Y-19791000D01*
X51562000Y-14861000D02*
X51712000Y-15011000D01*
X51712000Y-14861000D02*
X51562000Y-15011000D01*
X51637000Y-15011000D02*
X51712000Y-14936000D01*
X51637000Y-14861000D01*
X51562000Y-14936000D01*
X51637000Y-15011000D01*
X51572000Y-10091000D02*
X51722000Y-10241000D01*
X51722000Y-10091000D02*
X51572000Y-10241000D01*
X51647000Y-10241000D02*
X51722000Y-10166000D01*
X51647000Y-10091000D01*
X51572000Y-10166000D01*
X51647000Y-10241000D01*
X51572000Y-12471000D02*
X51722000Y-12621000D01*
X51722000Y-12471000D02*
X51572000Y-12621000D01*
X51647000Y-12621000D02*
X51722000Y-12546000D01*
X51647000Y-12471000D01*
X51572000Y-12546000D01*
X51647000Y-12621000D01*
X51582000Y-7001000D02*
X51732000Y-7151000D01*
X51732000Y-7001000D02*
X51582000Y-7151000D01*
X51657000Y-7151000D02*
X51732000Y-7076000D01*
X51657000Y-7001000D01*
X51582000Y-7076000D01*
X51657000Y-7151000D01*
X51592000Y-17231000D02*
X51742000Y-17381000D01*
X51742000Y-17231000D02*
X51592000Y-17381000D01*
X51667000Y-17381000D02*
X51742000Y-17306000D01*
X51667000Y-17231000D01*
X51592000Y-17306000D01*
X51667000Y-17381000D01*
D20*
X9210000Y-14395000D02*
X9210000Y-14825000D01*
X8995000Y-14610000D02*
X9425000Y-14610000D01*
X9425000Y-14610000D02*
G75*
G03*
X9425000Y-14610000I-215000J0D01*
G01*
X9210000Y-25375000D02*
X9210000Y-25805000D01*
X8995000Y-25590000D02*
X9425000Y-25590000D01*
X9425000Y-25590000D02*
G75*
G03*
X9425000Y-25590000I-215000J0D01*
G01*
X9220000Y-3195000D02*
X9220000Y-3625000D01*
X9005000Y-3410000D02*
X9435000Y-3410000D01*
X9435000Y-3410000D02*
G75*
G03*
X9435000Y-3410000I-215000J0D01*
G01*
X19750000Y-25375000D02*
X19750000Y-25805000D01*
X19535000Y-25590000D02*
X19965000Y-25590000D01*
X19965000Y-25590000D02*
G75*
G03*
X19965000Y-25590000I-215000J0D01*
G01*
X19760000Y-3195000D02*
X19760000Y-3625000D01*
X19545000Y-3410000D02*
X19975000Y-3410000D01*
X19975000Y-3410000D02*
G75*
G03*
X19975000Y-3410000I-215000J0D01*
G01*
X30090000Y-14375000D02*
X30090000Y-14805000D01*
X29875000Y-14590000D02*
X30305000Y-14590000D01*
X30305000Y-14590000D02*
G75*
G03*
X30305000Y-14590000I-215000J0D01*
G01*
X30130000Y-25355000D02*
X30130000Y-25785000D01*
X29915000Y-25570000D02*
X30345000Y-25570000D01*
X30345000Y-25570000D02*
G75*
G03*
X30345000Y-25570000I-215000J0D01*
G01*
X30275000Y-3045000D02*
X30275000Y-3475000D01*
X30060000Y-3260000D02*
X30490000Y-3260000D01*
X30490000Y-3260000D02*
G75*
G03*
X30490000Y-3260000I-215000J0D01*
G01*
X32200000Y-3050000D02*
X32200000Y-3480000D01*
X31985000Y-3265000D02*
X32415000Y-3265000D01*
X32415000Y-3265000D02*
G75*
G03*
X32415000Y-3265000I-215000J0D01*
G01*
X32355000Y-14385000D02*
X32355000Y-14815000D01*
X32140000Y-14600000D02*
X32570000Y-14600000D01*
X32570000Y-14600000D02*
G75*
G03*
X32570000Y-14600000I-215000J0D01*
G01*
X32385000Y-25375000D02*
X32385000Y-25805000D01*
X32170000Y-25590000D02*
X32600000Y-25590000D01*
X32600000Y-25590000D02*
G75*
G03*
X32600000Y-25590000I-215000J0D01*
G01*
X42650000Y-25520000D02*
X42650000Y-25950000D01*
X42435000Y-25735000D02*
X42865000Y-25735000D01*
X42865000Y-25735000D02*
G75*
G03*
X42865000Y-25735000I-215000J0D01*
G01*
X42655000Y-3050000D02*
X42655000Y-3480000D01*
X42440000Y-3265000D02*
X42870000Y-3265000D01*
X42870000Y-3265000D02*
G75*
G03*
X42870000Y-3265000I-215000J0D01*
G01*
X52980000Y-14380000D02*
X52980000Y-14810000D01*
X52765000Y-14595000D02*
X53195000Y-14595000D01*
X53195000Y-14595000D02*
G75*
G03*
X53195000Y-14595000I-215000J0D01*
G01*
X52985000Y-3045000D02*
X52985000Y-3475000D01*
X52770000Y-3260000D02*
X53200000Y-3260000D01*
X53200000Y-3260000D02*
G75*
G03*
X53200000Y-3260000I-215000J0D01*
G01*
X52985000Y-25520000D02*
X52985000Y-25950000D01*
X52770000Y-25735000D02*
X53200000Y-25735000D01*
X53200000Y-25735000D02*
G75*
G03*
X53200000Y-25735000I-215000J0D01*
G01*
D11*
X8752619Y-26615476D02*
X8752619Y-26415476D01*
X8800238Y-26415476D01*
X8828810Y-26425000D01*
X8847857Y-26444048D01*
X8857381Y-26463095D01*
X8866905Y-26501190D01*
X8866905Y-26529762D01*
X8857381Y-26567857D01*
X8847857Y-26586905D01*
X8828810Y-26605952D01*
X8800238Y-26615476D01*
X8752619Y-26615476D01*
X8952619Y-26615476D02*
X8952619Y-26482143D01*
X8952619Y-26520238D02*
X8962143Y-26501190D01*
X8971667Y-26491667D01*
X8990714Y-26482143D01*
X9009762Y-26482143D01*
X9076429Y-26615476D02*
X9076429Y-26482143D01*
X9076429Y-26415476D02*
X9066905Y-26425000D01*
X9076429Y-26434524D01*
X9085952Y-26425000D01*
X9076429Y-26415476D01*
X9076429Y-26434524D01*
X9200238Y-26615476D02*
X9181190Y-26605952D01*
X9171667Y-26586905D01*
X9171667Y-26415476D01*
X9305000Y-26615476D02*
X9285952Y-26605952D01*
X9276429Y-26586905D01*
X9276429Y-26415476D01*
X9533571Y-26615476D02*
X9533571Y-26415476D01*
X9600238Y-26558333D01*
X9666905Y-26415476D01*
X9666905Y-26615476D01*
X9847857Y-26615476D02*
X9847857Y-26510714D01*
X9838333Y-26491667D01*
X9819286Y-26482143D01*
X9781190Y-26482143D01*
X9762143Y-26491667D01*
X9847857Y-26605952D02*
X9828810Y-26615476D01*
X9781190Y-26615476D01*
X9762143Y-26605952D01*
X9752619Y-26586905D01*
X9752619Y-26567857D01*
X9762143Y-26548809D01*
X9781190Y-26539286D01*
X9828810Y-26539286D01*
X9847857Y-26529762D01*
X9943095Y-26482143D02*
X9943095Y-26682143D01*
X9943095Y-26491667D02*
X9962143Y-26482143D01*
X10000238Y-26482143D01*
X10019286Y-26491667D01*
X10028810Y-26501190D01*
X10038333Y-26520238D01*
X10038333Y-26577381D01*
X10028810Y-26596428D01*
X10019286Y-26605952D01*
X10000238Y-26615476D01*
X9962143Y-26615476D01*
X9943095Y-26605952D01*
X10124048Y-26596428D02*
X10133571Y-26605952D01*
X10124048Y-26615476D01*
X10114524Y-26605952D01*
X10124048Y-26596428D01*
X10124048Y-26615476D01*
X10124048Y-26491667D02*
X10133571Y-26501190D01*
X10124048Y-26510714D01*
X10114524Y-26501190D01*
X10124048Y-26491667D01*
X10124048Y-26510714D01*
D12*
X8455000Y-26925000D02*
X8495000Y-26965000D01*
X8495000Y-26925000D02*
X8455000Y-26965000D01*
D11*
X8790714Y-26835476D02*
X8809762Y-26835476D01*
X8828810Y-26845000D01*
X8838333Y-26854524D01*
X8847857Y-26873571D01*
X8857381Y-26911667D01*
X8857381Y-26959286D01*
X8847857Y-26997381D01*
X8838333Y-27016428D01*
X8828810Y-27025952D01*
X8809762Y-27035476D01*
X8790714Y-27035476D01*
X8771667Y-27025952D01*
X8762143Y-27016428D01*
X8752619Y-26997381D01*
X8743095Y-26959286D01*
X8743095Y-26911667D01*
X8752619Y-26873571D01*
X8762143Y-26854524D01*
X8771667Y-26845000D01*
X8790714Y-26835476D01*
X8943095Y-27016428D02*
X8952619Y-27025952D01*
X8943095Y-27035476D01*
X8933571Y-27025952D01*
X8943095Y-27016428D01*
X8943095Y-27035476D01*
X9124048Y-26902143D02*
X9124048Y-27035476D01*
X9076429Y-26825952D02*
X9028810Y-26968809D01*
X9152619Y-26968809D01*
X9266905Y-26835476D02*
X9285952Y-26835476D01*
X9305000Y-26845000D01*
X9314524Y-26854524D01*
X9324048Y-26873571D01*
X9333571Y-26911667D01*
X9333571Y-26959286D01*
X9324048Y-26997381D01*
X9314524Y-27016428D01*
X9305000Y-27025952D01*
X9285952Y-27035476D01*
X9266905Y-27035476D01*
X9247857Y-27025952D01*
X9238333Y-27016428D01*
X9228810Y-26997381D01*
X9219286Y-26959286D01*
X9219286Y-26911667D01*
X9228810Y-26873571D01*
X9238333Y-26854524D01*
X9247857Y-26845000D01*
X9266905Y-26835476D01*
X9457381Y-26835476D02*
X9476429Y-26835476D01*
X9495476Y-26845000D01*
X9505000Y-26854524D01*
X9514524Y-26873571D01*
X9524048Y-26911667D01*
X9524048Y-26959286D01*
X9514524Y-26997381D01*
X9505000Y-27016428D01*
X9495476Y-27025952D01*
X9476429Y-27035476D01*
X9457381Y-27035476D01*
X9438333Y-27025952D01*
X9428810Y-27016428D01*
X9419286Y-26997381D01*
X9409762Y-26959286D01*
X9409762Y-26911667D01*
X9419286Y-26873571D01*
X9428810Y-26854524D01*
X9438333Y-26845000D01*
X9457381Y-26835476D01*
X9609762Y-27035476D02*
X9609762Y-26902143D01*
X9609762Y-26921190D02*
X9619286Y-26911667D01*
X9638333Y-26902143D01*
X9666905Y-26902143D01*
X9685952Y-26911667D01*
X9695476Y-26930714D01*
X9695476Y-27035476D01*
X9695476Y-26930714D02*
X9705000Y-26911667D01*
X9724048Y-26902143D01*
X9752619Y-26902143D01*
X9771667Y-26911667D01*
X9781190Y-26930714D01*
X9781190Y-27035476D01*
X9876429Y-27035476D02*
X9876429Y-26902143D01*
X9876429Y-26921190D02*
X9885952Y-26911667D01*
X9905000Y-26902143D01*
X9933571Y-26902143D01*
X9952619Y-26911667D01*
X9962143Y-26930714D01*
X9962143Y-27035476D01*
X9962143Y-26930714D02*
X9971667Y-26911667D01*
X9990714Y-26902143D01*
X10019286Y-26902143D01*
X10038333Y-26911667D01*
X10047857Y-26930714D01*
X10047857Y-27035476D01*
X10438333Y-26825952D02*
X10266905Y-27083095D01*
X10695476Y-26835476D02*
X10714524Y-26835476D01*
X10733571Y-26845000D01*
X10743095Y-26854524D01*
X10752619Y-26873571D01*
X10762143Y-26911667D01*
X10762143Y-26959286D01*
X10752619Y-26997381D01*
X10743095Y-27016428D01*
X10733571Y-27025952D01*
X10714524Y-27035476D01*
X10695476Y-27035476D01*
X10676429Y-27025952D01*
X10666905Y-27016428D01*
X10657381Y-26997381D01*
X10647857Y-26959286D01*
X10647857Y-26911667D01*
X10657381Y-26873571D01*
X10666905Y-26854524D01*
X10676429Y-26845000D01*
X10695476Y-26835476D01*
X10847857Y-27016428D02*
X10857381Y-27025952D01*
X10847857Y-27035476D01*
X10838333Y-27025952D01*
X10847857Y-27016428D01*
X10847857Y-27035476D01*
X10981190Y-26835476D02*
X11000238Y-26835476D01*
X11019286Y-26845000D01*
X11028810Y-26854524D01*
X11038333Y-26873571D01*
X11047857Y-26911667D01*
X11047857Y-26959286D01*
X11038333Y-26997381D01*
X11028810Y-27016428D01*
X11019286Y-27025952D01*
X11000238Y-27035476D01*
X10981190Y-27035476D01*
X10962143Y-27025952D01*
X10952619Y-27016428D01*
X10943095Y-26997381D01*
X10933571Y-26959286D01*
X10933571Y-26911667D01*
X10943095Y-26873571D01*
X10952619Y-26854524D01*
X10962143Y-26845000D01*
X10981190Y-26835476D01*
X11238333Y-27035476D02*
X11124048Y-27035476D01*
X11181190Y-27035476D02*
X11181190Y-26835476D01*
X11162143Y-26864048D01*
X11143095Y-26883095D01*
X11124048Y-26892619D01*
X11419286Y-26835476D02*
X11324048Y-26835476D01*
X11314524Y-26930714D01*
X11324048Y-26921190D01*
X11343095Y-26911667D01*
X11390714Y-26911667D01*
X11409762Y-26921190D01*
X11419286Y-26930714D01*
X11428809Y-26949762D01*
X11428809Y-26997381D01*
X11419286Y-27016428D01*
X11409762Y-27025952D01*
X11390714Y-27035476D01*
X11343095Y-27035476D01*
X11324048Y-27025952D01*
X11314524Y-27016428D01*
X11495476Y-26835476D02*
X11628809Y-26835476D01*
X11543095Y-27035476D01*
X11695476Y-26835476D02*
X11695476Y-26873571D01*
X11771667Y-26835476D02*
X11771667Y-26873571D01*
X12066905Y-27111667D02*
X12057381Y-27102143D01*
X12038333Y-27073571D01*
X12028809Y-27054524D01*
X12019286Y-27025952D01*
X12009762Y-26978333D01*
X12009762Y-26940238D01*
X12019286Y-26892619D01*
X12028809Y-26864048D01*
X12038333Y-26845000D01*
X12057381Y-26816428D01*
X12066905Y-26806905D01*
X12124048Y-26835476D02*
X12247857Y-26835476D01*
X12181190Y-26911667D01*
X12209762Y-26911667D01*
X12228809Y-26921190D01*
X12238333Y-26930714D01*
X12247857Y-26949762D01*
X12247857Y-26997381D01*
X12238333Y-27016428D01*
X12228809Y-27025952D01*
X12209762Y-27035476D01*
X12152619Y-27035476D01*
X12133571Y-27025952D01*
X12124048Y-27016428D01*
X12362143Y-26921190D02*
X12343095Y-26911667D01*
X12333571Y-26902143D01*
X12324048Y-26883095D01*
X12324048Y-26873571D01*
X12333571Y-26854524D01*
X12343095Y-26845000D01*
X12362143Y-26835476D01*
X12400238Y-26835476D01*
X12419286Y-26845000D01*
X12428809Y-26854524D01*
X12438333Y-26873571D01*
X12438333Y-26883095D01*
X12428809Y-26902143D01*
X12419286Y-26911667D01*
X12400238Y-26921190D01*
X12362143Y-26921190D01*
X12343095Y-26930714D01*
X12333571Y-26940238D01*
X12324048Y-26959286D01*
X12324048Y-26997381D01*
X12333571Y-27016428D01*
X12343095Y-27025952D01*
X12362143Y-27035476D01*
X12400238Y-27035476D01*
X12419286Y-27025952D01*
X12428809Y-27016428D01*
X12438333Y-26997381D01*
X12438333Y-26959286D01*
X12428809Y-26940238D01*
X12419286Y-26930714D01*
X12400238Y-26921190D01*
X12676428Y-27035476D02*
X12676428Y-26835476D01*
X12762143Y-27035476D02*
X12762143Y-26930714D01*
X12752619Y-26911667D01*
X12733571Y-26902143D01*
X12705000Y-26902143D01*
X12685952Y-26911667D01*
X12676428Y-26921190D01*
X12885952Y-27035476D02*
X12866905Y-27025952D01*
X12857381Y-27016428D01*
X12847857Y-26997381D01*
X12847857Y-26940238D01*
X12857381Y-26921190D01*
X12866905Y-26911667D01*
X12885952Y-26902143D01*
X12914524Y-26902143D01*
X12933571Y-26911667D01*
X12943095Y-26921190D01*
X12952619Y-26940238D01*
X12952619Y-26997381D01*
X12943095Y-27016428D01*
X12933571Y-27025952D01*
X12914524Y-27035476D01*
X12885952Y-27035476D01*
X13066905Y-27035476D02*
X13047857Y-27025952D01*
X13038333Y-27006905D01*
X13038333Y-26835476D01*
X13219286Y-27025952D02*
X13200238Y-27035476D01*
X13162143Y-27035476D01*
X13143095Y-27025952D01*
X13133571Y-27006905D01*
X13133571Y-26930714D01*
X13143095Y-26911667D01*
X13162143Y-26902143D01*
X13200238Y-26902143D01*
X13219286Y-26911667D01*
X13228809Y-26930714D01*
X13228809Y-26949762D01*
X13133571Y-26968809D01*
X13305000Y-27025952D02*
X13324048Y-27035476D01*
X13362143Y-27035476D01*
X13381190Y-27025952D01*
X13390714Y-27006905D01*
X13390714Y-26997381D01*
X13381190Y-26978333D01*
X13362143Y-26968809D01*
X13333571Y-26968809D01*
X13314524Y-26959286D01*
X13305000Y-26940238D01*
X13305000Y-26930714D01*
X13314524Y-26911667D01*
X13333571Y-26902143D01*
X13362143Y-26902143D01*
X13381190Y-26911667D01*
X13457381Y-27111667D02*
X13466905Y-27102143D01*
X13485952Y-27073571D01*
X13495476Y-27054524D01*
X13505000Y-27025952D01*
X13514524Y-26978333D01*
X13514524Y-26940238D01*
X13505000Y-26892619D01*
X13495476Y-26864048D01*
X13485952Y-26845000D01*
X13466905Y-26816428D01*
X13457381Y-26806905D01*
D13*
X8495000Y-27209000D02*
G75*
G03*
X8495000Y-27209000I-35000J0D01*
G01*
D11*
X8790714Y-27099476D02*
X8809762Y-27099476D01*
X8828810Y-27109000D01*
X8838333Y-27118524D01*
X8847857Y-27137571D01*
X8857381Y-27175667D01*
X8857381Y-27223286D01*
X8847857Y-27261381D01*
X8838333Y-27280428D01*
X8828810Y-27289952D01*
X8809762Y-27299476D01*
X8790714Y-27299476D01*
X8771667Y-27289952D01*
X8762143Y-27280428D01*
X8752619Y-27261381D01*
X8743095Y-27223286D01*
X8743095Y-27175667D01*
X8752619Y-27137571D01*
X8762143Y-27118524D01*
X8771667Y-27109000D01*
X8790714Y-27099476D01*
X8943095Y-27280428D02*
X8952619Y-27289952D01*
X8943095Y-27299476D01*
X8933571Y-27289952D01*
X8943095Y-27280428D01*
X8943095Y-27299476D01*
X9019286Y-27099476D02*
X9152619Y-27099476D01*
X9066905Y-27299476D01*
X9266905Y-27099476D02*
X9285952Y-27099476D01*
X9305000Y-27109000D01*
X9314524Y-27118524D01*
X9324048Y-27137571D01*
X9333571Y-27175667D01*
X9333571Y-27223286D01*
X9324048Y-27261381D01*
X9314524Y-27280428D01*
X9305000Y-27289952D01*
X9285952Y-27299476D01*
X9266905Y-27299476D01*
X9247857Y-27289952D01*
X9238333Y-27280428D01*
X9228810Y-27261381D01*
X9219286Y-27223286D01*
X9219286Y-27175667D01*
X9228810Y-27137571D01*
X9238333Y-27118524D01*
X9247857Y-27109000D01*
X9266905Y-27099476D01*
X9457381Y-27099476D02*
X9476429Y-27099476D01*
X9495476Y-27109000D01*
X9505000Y-27118524D01*
X9514524Y-27137571D01*
X9524048Y-27175667D01*
X9524048Y-27223286D01*
X9514524Y-27261381D01*
X9505000Y-27280428D01*
X9495476Y-27289952D01*
X9476429Y-27299476D01*
X9457381Y-27299476D01*
X9438333Y-27289952D01*
X9428810Y-27280428D01*
X9419286Y-27261381D01*
X9409762Y-27223286D01*
X9409762Y-27175667D01*
X9419286Y-27137571D01*
X9428810Y-27118524D01*
X9438333Y-27109000D01*
X9457381Y-27099476D01*
X9609762Y-27299476D02*
X9609762Y-27166143D01*
X9609762Y-27185190D02*
X9619286Y-27175667D01*
X9638333Y-27166143D01*
X9666905Y-27166143D01*
X9685952Y-27175667D01*
X9695476Y-27194714D01*
X9695476Y-27299476D01*
X9695476Y-27194714D02*
X9705000Y-27175667D01*
X9724048Y-27166143D01*
X9752619Y-27166143D01*
X9771667Y-27175667D01*
X9781190Y-27194714D01*
X9781190Y-27299476D01*
X9876429Y-27299476D02*
X9876429Y-27166143D01*
X9876429Y-27185190D02*
X9885952Y-27175667D01*
X9905000Y-27166143D01*
X9933571Y-27166143D01*
X9952619Y-27175667D01*
X9962143Y-27194714D01*
X9962143Y-27299476D01*
X9962143Y-27194714D02*
X9971667Y-27175667D01*
X9990714Y-27166143D01*
X10019286Y-27166143D01*
X10038333Y-27175667D01*
X10047857Y-27194714D01*
X10047857Y-27299476D01*
X10438333Y-27089952D02*
X10266905Y-27347095D01*
X10695476Y-27099476D02*
X10714524Y-27099476D01*
X10733571Y-27109000D01*
X10743095Y-27118524D01*
X10752619Y-27137571D01*
X10762143Y-27175667D01*
X10762143Y-27223286D01*
X10752619Y-27261381D01*
X10743095Y-27280428D01*
X10733571Y-27289952D01*
X10714524Y-27299476D01*
X10695476Y-27299476D01*
X10676429Y-27289952D01*
X10666905Y-27280428D01*
X10657381Y-27261381D01*
X10647857Y-27223286D01*
X10647857Y-27175667D01*
X10657381Y-27137571D01*
X10666905Y-27118524D01*
X10676429Y-27109000D01*
X10695476Y-27099476D01*
X10847857Y-27280428D02*
X10857381Y-27289952D01*
X10847857Y-27299476D01*
X10838333Y-27289952D01*
X10847857Y-27280428D01*
X10847857Y-27299476D01*
X10981190Y-27099476D02*
X11000238Y-27099476D01*
X11019286Y-27109000D01*
X11028810Y-27118524D01*
X11038333Y-27137571D01*
X11047857Y-27175667D01*
X11047857Y-27223286D01*
X11038333Y-27261381D01*
X11028810Y-27280428D01*
X11019286Y-27289952D01*
X11000238Y-27299476D01*
X10981190Y-27299476D01*
X10962143Y-27289952D01*
X10952619Y-27280428D01*
X10943095Y-27261381D01*
X10933571Y-27223286D01*
X10933571Y-27175667D01*
X10943095Y-27137571D01*
X10952619Y-27118524D01*
X10962143Y-27109000D01*
X10981190Y-27099476D01*
X11124048Y-27118524D02*
X11133571Y-27109000D01*
X11152619Y-27099476D01*
X11200238Y-27099476D01*
X11219286Y-27109000D01*
X11228809Y-27118524D01*
X11238333Y-27137571D01*
X11238333Y-27156619D01*
X11228809Y-27185190D01*
X11114524Y-27299476D01*
X11238333Y-27299476D01*
X11305000Y-27099476D02*
X11438333Y-27099476D01*
X11352619Y-27299476D01*
X11600238Y-27099476D02*
X11562143Y-27099476D01*
X11543095Y-27109000D01*
X11533571Y-27118524D01*
X11514524Y-27147095D01*
X11505000Y-27185190D01*
X11505000Y-27261381D01*
X11514524Y-27280428D01*
X11524048Y-27289952D01*
X11543095Y-27299476D01*
X11581190Y-27299476D01*
X11600238Y-27289952D01*
X11609762Y-27280428D01*
X11619286Y-27261381D01*
X11619286Y-27213762D01*
X11609762Y-27194714D01*
X11600238Y-27185190D01*
X11581190Y-27175667D01*
X11543095Y-27175667D01*
X11524048Y-27185190D01*
X11514524Y-27194714D01*
X11505000Y-27213762D01*
X11695476Y-27099476D02*
X11695476Y-27137571D01*
X11771667Y-27099476D02*
X11771667Y-27137571D01*
X12066905Y-27375667D02*
X12057381Y-27366143D01*
X12038333Y-27337571D01*
X12028809Y-27318524D01*
X12019286Y-27289952D01*
X12009762Y-27242333D01*
X12009762Y-27204238D01*
X12019286Y-27156619D01*
X12028809Y-27128048D01*
X12038333Y-27109000D01*
X12057381Y-27080428D01*
X12066905Y-27070905D01*
X12133571Y-27118524D02*
X12143095Y-27109000D01*
X12162143Y-27099476D01*
X12209762Y-27099476D01*
X12228809Y-27109000D01*
X12238333Y-27118524D01*
X12247857Y-27137571D01*
X12247857Y-27156619D01*
X12238333Y-27185190D01*
X12124048Y-27299476D01*
X12247857Y-27299476D01*
X12419286Y-27166143D02*
X12419286Y-27299476D01*
X12371667Y-27089952D02*
X12324048Y-27232809D01*
X12447857Y-27232809D01*
X12676428Y-27299476D02*
X12676428Y-27099476D01*
X12762143Y-27299476D02*
X12762143Y-27194714D01*
X12752619Y-27175667D01*
X12733571Y-27166143D01*
X12705000Y-27166143D01*
X12685952Y-27175667D01*
X12676428Y-27185190D01*
X12885952Y-27299476D02*
X12866905Y-27289952D01*
X12857381Y-27280428D01*
X12847857Y-27261381D01*
X12847857Y-27204238D01*
X12857381Y-27185190D01*
X12866905Y-27175667D01*
X12885952Y-27166143D01*
X12914524Y-27166143D01*
X12933571Y-27175667D01*
X12943095Y-27185190D01*
X12952619Y-27204238D01*
X12952619Y-27261381D01*
X12943095Y-27280428D01*
X12933571Y-27289952D01*
X12914524Y-27299476D01*
X12885952Y-27299476D01*
X13066905Y-27299476D02*
X13047857Y-27289952D01*
X13038333Y-27270905D01*
X13038333Y-27099476D01*
X13219286Y-27289952D02*
X13200238Y-27299476D01*
X13162143Y-27299476D01*
X13143095Y-27289952D01*
X13133571Y-27270905D01*
X13133571Y-27194714D01*
X13143095Y-27175667D01*
X13162143Y-27166143D01*
X13200238Y-27166143D01*
X13219286Y-27175667D01*
X13228809Y-27194714D01*
X13228809Y-27213762D01*
X13133571Y-27232809D01*
X13305000Y-27289952D02*
X13324048Y-27299476D01*
X13362143Y-27299476D01*
X13381190Y-27289952D01*
X13390714Y-27270905D01*
X13390714Y-27261381D01*
X13381190Y-27242333D01*
X13362143Y-27232809D01*
X13333571Y-27232809D01*
X13314524Y-27223286D01*
X13305000Y-27204238D01*
X13305000Y-27194714D01*
X13314524Y-27175667D01*
X13333571Y-27166143D01*
X13362143Y-27166143D01*
X13381190Y-27175667D01*
X13457381Y-27375667D02*
X13466905Y-27366143D01*
X13485952Y-27337571D01*
X13495476Y-27318524D01*
X13505000Y-27289952D01*
X13514524Y-27242333D01*
X13514524Y-27204238D01*
X13505000Y-27156619D01*
X13495476Y-27128048D01*
X13485952Y-27109000D01*
X13466905Y-27080428D01*
X13457381Y-27070905D01*
D14*
X8457500Y-27435500D02*
X8457500Y-27510500D01*
X8420000Y-27473000D02*
X8495000Y-27473000D01*
D11*
X8790714Y-27363476D02*
X8809762Y-27363476D01*
X8828810Y-27373000D01*
X8838333Y-27382524D01*
X8847857Y-27401571D01*
X8857381Y-27439667D01*
X8857381Y-27487286D01*
X8847857Y-27525381D01*
X8838333Y-27544428D01*
X8828810Y-27553952D01*
X8809762Y-27563476D01*
X8790714Y-27563476D01*
X8771667Y-27553952D01*
X8762143Y-27544428D01*
X8752619Y-27525381D01*
X8743095Y-27487286D01*
X8743095Y-27439667D01*
X8752619Y-27401571D01*
X8762143Y-27382524D01*
X8771667Y-27373000D01*
X8790714Y-27363476D01*
X8943095Y-27544428D02*
X8952619Y-27553952D01*
X8943095Y-27563476D01*
X8933571Y-27553952D01*
X8943095Y-27544428D01*
X8943095Y-27563476D01*
X9019286Y-27363476D02*
X9152619Y-27363476D01*
X9066905Y-27563476D01*
X9324048Y-27363476D02*
X9228810Y-27363476D01*
X9219286Y-27458714D01*
X9228810Y-27449190D01*
X9247857Y-27439667D01*
X9295476Y-27439667D01*
X9314524Y-27449190D01*
X9324048Y-27458714D01*
X9333571Y-27477762D01*
X9333571Y-27525381D01*
X9324048Y-27544428D01*
X9314524Y-27553952D01*
X9295476Y-27563476D01*
X9247857Y-27563476D01*
X9228810Y-27553952D01*
X9219286Y-27544428D01*
X9457381Y-27363476D02*
X9476429Y-27363476D01*
X9495476Y-27373000D01*
X9505000Y-27382524D01*
X9514524Y-27401571D01*
X9524048Y-27439667D01*
X9524048Y-27487286D01*
X9514524Y-27525381D01*
X9505000Y-27544428D01*
X9495476Y-27553952D01*
X9476429Y-27563476D01*
X9457381Y-27563476D01*
X9438333Y-27553952D01*
X9428810Y-27544428D01*
X9419286Y-27525381D01*
X9409762Y-27487286D01*
X9409762Y-27439667D01*
X9419286Y-27401571D01*
X9428810Y-27382524D01*
X9438333Y-27373000D01*
X9457381Y-27363476D01*
X9609762Y-27563476D02*
X9609762Y-27430143D01*
X9609762Y-27449190D02*
X9619286Y-27439667D01*
X9638333Y-27430143D01*
X9666905Y-27430143D01*
X9685952Y-27439667D01*
X9695476Y-27458714D01*
X9695476Y-27563476D01*
X9695476Y-27458714D02*
X9705000Y-27439667D01*
X9724048Y-27430143D01*
X9752619Y-27430143D01*
X9771667Y-27439667D01*
X9781190Y-27458714D01*
X9781190Y-27563476D01*
X9876429Y-27563476D02*
X9876429Y-27430143D01*
X9876429Y-27449190D02*
X9885952Y-27439667D01*
X9905000Y-27430143D01*
X9933571Y-27430143D01*
X9952619Y-27439667D01*
X9962143Y-27458714D01*
X9962143Y-27563476D01*
X9962143Y-27458714D02*
X9971667Y-27439667D01*
X9990714Y-27430143D01*
X10019286Y-27430143D01*
X10038333Y-27439667D01*
X10047857Y-27458714D01*
X10047857Y-27563476D01*
X10438333Y-27353952D02*
X10266905Y-27611095D01*
X10695476Y-27363476D02*
X10714524Y-27363476D01*
X10733571Y-27373000D01*
X10743095Y-27382524D01*
X10752619Y-27401571D01*
X10762143Y-27439667D01*
X10762143Y-27487286D01*
X10752619Y-27525381D01*
X10743095Y-27544428D01*
X10733571Y-27553952D01*
X10714524Y-27563476D01*
X10695476Y-27563476D01*
X10676429Y-27553952D01*
X10666905Y-27544428D01*
X10657381Y-27525381D01*
X10647857Y-27487286D01*
X10647857Y-27439667D01*
X10657381Y-27401571D01*
X10666905Y-27382524D01*
X10676429Y-27373000D01*
X10695476Y-27363476D01*
X10847857Y-27544428D02*
X10857381Y-27553952D01*
X10847857Y-27563476D01*
X10838333Y-27553952D01*
X10847857Y-27544428D01*
X10847857Y-27563476D01*
X10981190Y-27363476D02*
X11000238Y-27363476D01*
X11019286Y-27373000D01*
X11028810Y-27382524D01*
X11038333Y-27401571D01*
X11047857Y-27439667D01*
X11047857Y-27487286D01*
X11038333Y-27525381D01*
X11028810Y-27544428D01*
X11019286Y-27553952D01*
X11000238Y-27563476D01*
X10981190Y-27563476D01*
X10962143Y-27553952D01*
X10952619Y-27544428D01*
X10943095Y-27525381D01*
X10933571Y-27487286D01*
X10933571Y-27439667D01*
X10943095Y-27401571D01*
X10952619Y-27382524D01*
X10962143Y-27373000D01*
X10981190Y-27363476D01*
X11124048Y-27382524D02*
X11133571Y-27373000D01*
X11152619Y-27363476D01*
X11200238Y-27363476D01*
X11219286Y-27373000D01*
X11228809Y-27382524D01*
X11238333Y-27401571D01*
X11238333Y-27420619D01*
X11228809Y-27449190D01*
X11114524Y-27563476D01*
X11238333Y-27563476D01*
X11333571Y-27563476D02*
X11371667Y-27563476D01*
X11390714Y-27553952D01*
X11400238Y-27544428D01*
X11419286Y-27515857D01*
X11428809Y-27477762D01*
X11428809Y-27401571D01*
X11419286Y-27382524D01*
X11409762Y-27373000D01*
X11390714Y-27363476D01*
X11352619Y-27363476D01*
X11333571Y-27373000D01*
X11324048Y-27382524D01*
X11314524Y-27401571D01*
X11314524Y-27449190D01*
X11324048Y-27468238D01*
X11333571Y-27477762D01*
X11352619Y-27487286D01*
X11390714Y-27487286D01*
X11409762Y-27477762D01*
X11419286Y-27468238D01*
X11428809Y-27449190D01*
X11609762Y-27363476D02*
X11514524Y-27363476D01*
X11505000Y-27458714D01*
X11514524Y-27449190D01*
X11533571Y-27439667D01*
X11581190Y-27439667D01*
X11600238Y-27449190D01*
X11609762Y-27458714D01*
X11619286Y-27477762D01*
X11619286Y-27525381D01*
X11609762Y-27544428D01*
X11600238Y-27553952D01*
X11581190Y-27563476D01*
X11533571Y-27563476D01*
X11514524Y-27553952D01*
X11505000Y-27544428D01*
X11695476Y-27363476D02*
X11695476Y-27401571D01*
X11771667Y-27363476D02*
X11771667Y-27401571D01*
X12066905Y-27639667D02*
X12057381Y-27630143D01*
X12038333Y-27601571D01*
X12028809Y-27582524D01*
X12019286Y-27553952D01*
X12009762Y-27506333D01*
X12009762Y-27468238D01*
X12019286Y-27420619D01*
X12028809Y-27392048D01*
X12038333Y-27373000D01*
X12057381Y-27344428D01*
X12066905Y-27334905D01*
X12171667Y-27449190D02*
X12152619Y-27439667D01*
X12143095Y-27430143D01*
X12133571Y-27411095D01*
X12133571Y-27401571D01*
X12143095Y-27382524D01*
X12152619Y-27373000D01*
X12171667Y-27363476D01*
X12209762Y-27363476D01*
X12228809Y-27373000D01*
X12238333Y-27382524D01*
X12247857Y-27401571D01*
X12247857Y-27411095D01*
X12238333Y-27430143D01*
X12228809Y-27439667D01*
X12209762Y-27449190D01*
X12171667Y-27449190D01*
X12152619Y-27458714D01*
X12143095Y-27468238D01*
X12133571Y-27487286D01*
X12133571Y-27525381D01*
X12143095Y-27544428D01*
X12152619Y-27553952D01*
X12171667Y-27563476D01*
X12209762Y-27563476D01*
X12228809Y-27553952D01*
X12238333Y-27544428D01*
X12247857Y-27525381D01*
X12247857Y-27487286D01*
X12238333Y-27468238D01*
X12228809Y-27458714D01*
X12209762Y-27449190D01*
X12485952Y-27563476D02*
X12485952Y-27363476D01*
X12571667Y-27563476D02*
X12571667Y-27458714D01*
X12562143Y-27439667D01*
X12543095Y-27430143D01*
X12514524Y-27430143D01*
X12495476Y-27439667D01*
X12485952Y-27449190D01*
X12695476Y-27563476D02*
X12676428Y-27553952D01*
X12666905Y-27544428D01*
X12657381Y-27525381D01*
X12657381Y-27468238D01*
X12666905Y-27449190D01*
X12676428Y-27439667D01*
X12695476Y-27430143D01*
X12724048Y-27430143D01*
X12743095Y-27439667D01*
X12752619Y-27449190D01*
X12762143Y-27468238D01*
X12762143Y-27525381D01*
X12752619Y-27544428D01*
X12743095Y-27553952D01*
X12724048Y-27563476D01*
X12695476Y-27563476D01*
X12876428Y-27563476D02*
X12857381Y-27553952D01*
X12847857Y-27534905D01*
X12847857Y-27363476D01*
X13028809Y-27553952D02*
X13009762Y-27563476D01*
X12971667Y-27563476D01*
X12952619Y-27553952D01*
X12943095Y-27534905D01*
X12943095Y-27458714D01*
X12952619Y-27439667D01*
X12971667Y-27430143D01*
X13009762Y-27430143D01*
X13028809Y-27439667D01*
X13038333Y-27458714D01*
X13038333Y-27477762D01*
X12943095Y-27496809D01*
X13114524Y-27553952D02*
X13133571Y-27563476D01*
X13171667Y-27563476D01*
X13190714Y-27553952D01*
X13200238Y-27534905D01*
X13200238Y-27525381D01*
X13190714Y-27506333D01*
X13171667Y-27496809D01*
X13143095Y-27496809D01*
X13124048Y-27487286D01*
X13114524Y-27468238D01*
X13114524Y-27458714D01*
X13124048Y-27439667D01*
X13143095Y-27430143D01*
X13171667Y-27430143D01*
X13190714Y-27439667D01*
X13266905Y-27639667D02*
X13276428Y-27630143D01*
X13295476Y-27601571D01*
X13305000Y-27582524D01*
X13314524Y-27553952D01*
X13324048Y-27506333D01*
X13324048Y-27468238D01*
X13314524Y-27420619D01*
X13305000Y-27392048D01*
X13295476Y-27373000D01*
X13276428Y-27344428D01*
X13266905Y-27334905D01*
D15*
X8483285Y-27765284D02*
X8483285Y-27708715D01*
X8426716Y-27708715D01*
X8426716Y-27765284D01*
X8483285Y-27765284D01*
D11*
X8790714Y-27627476D02*
X8809762Y-27627476D01*
X8828810Y-27637000D01*
X8838333Y-27646524D01*
X8847857Y-27665571D01*
X8857381Y-27703667D01*
X8857381Y-27751286D01*
X8847857Y-27789381D01*
X8838333Y-27808428D01*
X8828810Y-27817952D01*
X8809762Y-27827476D01*
X8790714Y-27827476D01*
X8771667Y-27817952D01*
X8762143Y-27808428D01*
X8752619Y-27789381D01*
X8743095Y-27751286D01*
X8743095Y-27703667D01*
X8752619Y-27665571D01*
X8762143Y-27646524D01*
X8771667Y-27637000D01*
X8790714Y-27627476D01*
X8943095Y-27808428D02*
X8952619Y-27817952D01*
X8943095Y-27827476D01*
X8933571Y-27817952D01*
X8943095Y-27808428D01*
X8943095Y-27827476D01*
X9066905Y-27713190D02*
X9047857Y-27703667D01*
X9038333Y-27694143D01*
X9028810Y-27675095D01*
X9028810Y-27665571D01*
X9038333Y-27646524D01*
X9047857Y-27637000D01*
X9066905Y-27627476D01*
X9105000Y-27627476D01*
X9124048Y-27637000D01*
X9133571Y-27646524D01*
X9143095Y-27665571D01*
X9143095Y-27675095D01*
X9133571Y-27694143D01*
X9124048Y-27703667D01*
X9105000Y-27713190D01*
X9066905Y-27713190D01*
X9047857Y-27722714D01*
X9038333Y-27732238D01*
X9028810Y-27751286D01*
X9028810Y-27789381D01*
X9038333Y-27808428D01*
X9047857Y-27817952D01*
X9066905Y-27827476D01*
X9105000Y-27827476D01*
X9124048Y-27817952D01*
X9133571Y-27808428D01*
X9143095Y-27789381D01*
X9143095Y-27751286D01*
X9133571Y-27732238D01*
X9124048Y-27722714D01*
X9105000Y-27713190D01*
X9266905Y-27627476D02*
X9285952Y-27627476D01*
X9305000Y-27637000D01*
X9314524Y-27646524D01*
X9324048Y-27665571D01*
X9333571Y-27703667D01*
X9333571Y-27751286D01*
X9324048Y-27789381D01*
X9314524Y-27808428D01*
X9305000Y-27817952D01*
X9285952Y-27827476D01*
X9266905Y-27827476D01*
X9247857Y-27817952D01*
X9238333Y-27808428D01*
X9228810Y-27789381D01*
X9219286Y-27751286D01*
X9219286Y-27703667D01*
X9228810Y-27665571D01*
X9238333Y-27646524D01*
X9247857Y-27637000D01*
X9266905Y-27627476D01*
X9457381Y-27627476D02*
X9476429Y-27627476D01*
X9495476Y-27637000D01*
X9505000Y-27646524D01*
X9514524Y-27665571D01*
X9524048Y-27703667D01*
X9524048Y-27751286D01*
X9514524Y-27789381D01*
X9505000Y-27808428D01*
X9495476Y-27817952D01*
X9476429Y-27827476D01*
X9457381Y-27827476D01*
X9438333Y-27817952D01*
X9428810Y-27808428D01*
X9419286Y-27789381D01*
X9409762Y-27751286D01*
X9409762Y-27703667D01*
X9419286Y-27665571D01*
X9428810Y-27646524D01*
X9438333Y-27637000D01*
X9457381Y-27627476D01*
X9609762Y-27827476D02*
X9609762Y-27694143D01*
X9609762Y-27713190D02*
X9619286Y-27703667D01*
X9638333Y-27694143D01*
X9666905Y-27694143D01*
X9685952Y-27703667D01*
X9695476Y-27722714D01*
X9695476Y-27827476D01*
X9695476Y-27722714D02*
X9705000Y-27703667D01*
X9724048Y-27694143D01*
X9752619Y-27694143D01*
X9771667Y-27703667D01*
X9781190Y-27722714D01*
X9781190Y-27827476D01*
X9876429Y-27827476D02*
X9876429Y-27694143D01*
X9876429Y-27713190D02*
X9885952Y-27703667D01*
X9905000Y-27694143D01*
X9933571Y-27694143D01*
X9952619Y-27703667D01*
X9962143Y-27722714D01*
X9962143Y-27827476D01*
X9962143Y-27722714D02*
X9971667Y-27703667D01*
X9990714Y-27694143D01*
X10019286Y-27694143D01*
X10038333Y-27703667D01*
X10047857Y-27722714D01*
X10047857Y-27827476D01*
X10438333Y-27617952D02*
X10266905Y-27875095D01*
X10695476Y-27627476D02*
X10714524Y-27627476D01*
X10733571Y-27637000D01*
X10743095Y-27646524D01*
X10752619Y-27665571D01*
X10762143Y-27703667D01*
X10762143Y-27751286D01*
X10752619Y-27789381D01*
X10743095Y-27808428D01*
X10733571Y-27817952D01*
X10714524Y-27827476D01*
X10695476Y-27827476D01*
X10676429Y-27817952D01*
X10666905Y-27808428D01*
X10657381Y-27789381D01*
X10647857Y-27751286D01*
X10647857Y-27703667D01*
X10657381Y-27665571D01*
X10666905Y-27646524D01*
X10676429Y-27637000D01*
X10695476Y-27627476D01*
X10847857Y-27808428D02*
X10857381Y-27817952D01*
X10847857Y-27827476D01*
X10838333Y-27817952D01*
X10847857Y-27808428D01*
X10847857Y-27827476D01*
X10981190Y-27627476D02*
X11000238Y-27627476D01*
X11019286Y-27637000D01*
X11028810Y-27646524D01*
X11038333Y-27665571D01*
X11047857Y-27703667D01*
X11047857Y-27751286D01*
X11038333Y-27789381D01*
X11028810Y-27808428D01*
X11019286Y-27817952D01*
X11000238Y-27827476D01*
X10981190Y-27827476D01*
X10962143Y-27817952D01*
X10952619Y-27808428D01*
X10943095Y-27789381D01*
X10933571Y-27751286D01*
X10933571Y-27703667D01*
X10943095Y-27665571D01*
X10952619Y-27646524D01*
X10962143Y-27637000D01*
X10981190Y-27627476D01*
X11114524Y-27627476D02*
X11238333Y-27627476D01*
X11171667Y-27703667D01*
X11200238Y-27703667D01*
X11219286Y-27713190D01*
X11228809Y-27722714D01*
X11238333Y-27741762D01*
X11238333Y-27789381D01*
X11228809Y-27808428D01*
X11219286Y-27817952D01*
X11200238Y-27827476D01*
X11143095Y-27827476D01*
X11124048Y-27817952D01*
X11114524Y-27808428D01*
X11428809Y-27827476D02*
X11314524Y-27827476D01*
X11371667Y-27827476D02*
X11371667Y-27627476D01*
X11352619Y-27656048D01*
X11333571Y-27675095D01*
X11314524Y-27684619D01*
X11609762Y-27627476D02*
X11514524Y-27627476D01*
X11505000Y-27722714D01*
X11514524Y-27713190D01*
X11533571Y-27703667D01*
X11581190Y-27703667D01*
X11600238Y-27713190D01*
X11609762Y-27722714D01*
X11619286Y-27741762D01*
X11619286Y-27789381D01*
X11609762Y-27808428D01*
X11600238Y-27817952D01*
X11581190Y-27827476D01*
X11533571Y-27827476D01*
X11514524Y-27817952D01*
X11505000Y-27808428D01*
X11695476Y-27627476D02*
X11695476Y-27665571D01*
X11771667Y-27627476D02*
X11771667Y-27665571D01*
X12066905Y-27903667D02*
X12057381Y-27894143D01*
X12038333Y-27865571D01*
X12028809Y-27846524D01*
X12019286Y-27817952D01*
X12009762Y-27770333D01*
X12009762Y-27732238D01*
X12019286Y-27684619D01*
X12028809Y-27656048D01*
X12038333Y-27637000D01*
X12057381Y-27608428D01*
X12066905Y-27598905D01*
X12247857Y-27827476D02*
X12133571Y-27827476D01*
X12190714Y-27827476D02*
X12190714Y-27627476D01*
X12171667Y-27656048D01*
X12152619Y-27675095D01*
X12133571Y-27684619D01*
X12362143Y-27713190D02*
X12343095Y-27703667D01*
X12333571Y-27694143D01*
X12324048Y-27675095D01*
X12324048Y-27665571D01*
X12333571Y-27646524D01*
X12343095Y-27637000D01*
X12362143Y-27627476D01*
X12400238Y-27627476D01*
X12419286Y-27637000D01*
X12428809Y-27646524D01*
X12438333Y-27665571D01*
X12438333Y-27675095D01*
X12428809Y-27694143D01*
X12419286Y-27703667D01*
X12400238Y-27713190D01*
X12362143Y-27713190D01*
X12343095Y-27722714D01*
X12333571Y-27732238D01*
X12324048Y-27751286D01*
X12324048Y-27789381D01*
X12333571Y-27808428D01*
X12343095Y-27817952D01*
X12362143Y-27827476D01*
X12400238Y-27827476D01*
X12419286Y-27817952D01*
X12428809Y-27808428D01*
X12438333Y-27789381D01*
X12438333Y-27751286D01*
X12428809Y-27732238D01*
X12419286Y-27722714D01*
X12400238Y-27713190D01*
X12552619Y-27713190D02*
X12533571Y-27703667D01*
X12524048Y-27694143D01*
X12514524Y-27675095D01*
X12514524Y-27665571D01*
X12524048Y-27646524D01*
X12533571Y-27637000D01*
X12552619Y-27627476D01*
X12590714Y-27627476D01*
X12609762Y-27637000D01*
X12619286Y-27646524D01*
X12628809Y-27665571D01*
X12628809Y-27675095D01*
X12619286Y-27694143D01*
X12609762Y-27703667D01*
X12590714Y-27713190D01*
X12552619Y-27713190D01*
X12533571Y-27722714D01*
X12524048Y-27732238D01*
X12514524Y-27751286D01*
X12514524Y-27789381D01*
X12524048Y-27808428D01*
X12533571Y-27817952D01*
X12552619Y-27827476D01*
X12590714Y-27827476D01*
X12609762Y-27817952D01*
X12619286Y-27808428D01*
X12628809Y-27789381D01*
X12628809Y-27751286D01*
X12619286Y-27732238D01*
X12609762Y-27722714D01*
X12590714Y-27713190D01*
X12866905Y-27827476D02*
X12866905Y-27627476D01*
X12952619Y-27827476D02*
X12952619Y-27722714D01*
X12943095Y-27703667D01*
X12924048Y-27694143D01*
X12895476Y-27694143D01*
X12876428Y-27703667D01*
X12866905Y-27713190D01*
X13076428Y-27827476D02*
X13057381Y-27817952D01*
X13047857Y-27808428D01*
X13038333Y-27789381D01*
X13038333Y-27732238D01*
X13047857Y-27713190D01*
X13057381Y-27703667D01*
X13076428Y-27694143D01*
X13105000Y-27694143D01*
X13124048Y-27703667D01*
X13133571Y-27713190D01*
X13143095Y-27732238D01*
X13143095Y-27789381D01*
X13133571Y-27808428D01*
X13124048Y-27817952D01*
X13105000Y-27827476D01*
X13076428Y-27827476D01*
X13257381Y-27827476D02*
X13238333Y-27817952D01*
X13228809Y-27798905D01*
X13228809Y-27627476D01*
X13409762Y-27817952D02*
X13390714Y-27827476D01*
X13352619Y-27827476D01*
X13333571Y-27817952D01*
X13324048Y-27798905D01*
X13324048Y-27722714D01*
X13333571Y-27703667D01*
X13352619Y-27694143D01*
X13390714Y-27694143D01*
X13409762Y-27703667D01*
X13419286Y-27722714D01*
X13419286Y-27741762D01*
X13324048Y-27760809D01*
X13495476Y-27817952D02*
X13514524Y-27827476D01*
X13552619Y-27827476D01*
X13571667Y-27817952D01*
X13581190Y-27798905D01*
X13581190Y-27789381D01*
X13571667Y-27770333D01*
X13552619Y-27760809D01*
X13524048Y-27760809D01*
X13505000Y-27751286D01*
X13495476Y-27732238D01*
X13495476Y-27722714D01*
X13505000Y-27703667D01*
X13524048Y-27694143D01*
X13552619Y-27694143D01*
X13571667Y-27703667D01*
X13647857Y-27903667D02*
X13657381Y-27894143D01*
X13676428Y-27865571D01*
X13685952Y-27846524D01*
X13695476Y-27817952D01*
X13705000Y-27770333D01*
X13705000Y-27732238D01*
X13695476Y-27684619D01*
X13685952Y-27656048D01*
X13676428Y-27637000D01*
X13657381Y-27608428D01*
X13647857Y-27598905D01*
D16*
X8450000Y-28046000D02*
X8495000Y-28001000D01*
X8450000Y-27956000D01*
X8405000Y-28001000D01*
X8450000Y-28046000D01*
D11*
X8790714Y-27891476D02*
X8809762Y-27891476D01*
X8828810Y-27901000D01*
X8838333Y-27910524D01*
X8847857Y-27929571D01*
X8857381Y-27967667D01*
X8857381Y-28015286D01*
X8847857Y-28053381D01*
X8838333Y-28072428D01*
X8828810Y-28081952D01*
X8809762Y-28091476D01*
X8790714Y-28091476D01*
X8771667Y-28081952D01*
X8762143Y-28072428D01*
X8752619Y-28053381D01*
X8743095Y-28015286D01*
X8743095Y-27967667D01*
X8752619Y-27929571D01*
X8762143Y-27910524D01*
X8771667Y-27901000D01*
X8790714Y-27891476D01*
X8943095Y-28072428D02*
X8952619Y-28081952D01*
X8943095Y-28091476D01*
X8933571Y-28081952D01*
X8943095Y-28072428D01*
X8943095Y-28091476D01*
X9047857Y-28091476D02*
X9085952Y-28091476D01*
X9105000Y-28081952D01*
X9114524Y-28072428D01*
X9133571Y-28043857D01*
X9143095Y-28005762D01*
X9143095Y-27929571D01*
X9133571Y-27910524D01*
X9124048Y-27901000D01*
X9105000Y-27891476D01*
X9066905Y-27891476D01*
X9047857Y-27901000D01*
X9038333Y-27910524D01*
X9028810Y-27929571D01*
X9028810Y-27977190D01*
X9038333Y-27996238D01*
X9047857Y-28005762D01*
X9066905Y-28015286D01*
X9105000Y-28015286D01*
X9124048Y-28005762D01*
X9133571Y-27996238D01*
X9143095Y-27977190D01*
X9266905Y-27891476D02*
X9285952Y-27891476D01*
X9305000Y-27901000D01*
X9314524Y-27910524D01*
X9324048Y-27929571D01*
X9333571Y-27967667D01*
X9333571Y-28015286D01*
X9324048Y-28053381D01*
X9314524Y-28072428D01*
X9305000Y-28081952D01*
X9285952Y-28091476D01*
X9266905Y-28091476D01*
X9247857Y-28081952D01*
X9238333Y-28072428D01*
X9228810Y-28053381D01*
X9219286Y-28015286D01*
X9219286Y-27967667D01*
X9228810Y-27929571D01*
X9238333Y-27910524D01*
X9247857Y-27901000D01*
X9266905Y-27891476D01*
X9457381Y-27891476D02*
X9476429Y-27891476D01*
X9495476Y-27901000D01*
X9505000Y-27910524D01*
X9514524Y-27929571D01*
X9524048Y-27967667D01*
X9524048Y-28015286D01*
X9514524Y-28053381D01*
X9505000Y-28072428D01*
X9495476Y-28081952D01*
X9476429Y-28091476D01*
X9457381Y-28091476D01*
X9438333Y-28081952D01*
X9428810Y-28072428D01*
X9419286Y-28053381D01*
X9409762Y-28015286D01*
X9409762Y-27967667D01*
X9419286Y-27929571D01*
X9428810Y-27910524D01*
X9438333Y-27901000D01*
X9457381Y-27891476D01*
X9609762Y-28091476D02*
X9609762Y-27958143D01*
X9609762Y-27977190D02*
X9619286Y-27967667D01*
X9638333Y-27958143D01*
X9666905Y-27958143D01*
X9685952Y-27967667D01*
X9695476Y-27986714D01*
X9695476Y-28091476D01*
X9695476Y-27986714D02*
X9705000Y-27967667D01*
X9724048Y-27958143D01*
X9752619Y-27958143D01*
X9771667Y-27967667D01*
X9781190Y-27986714D01*
X9781190Y-28091476D01*
X9876429Y-28091476D02*
X9876429Y-27958143D01*
X9876429Y-27977190D02*
X9885952Y-27967667D01*
X9905000Y-27958143D01*
X9933571Y-27958143D01*
X9952619Y-27967667D01*
X9962143Y-27986714D01*
X9962143Y-28091476D01*
X9962143Y-27986714D02*
X9971667Y-27967667D01*
X9990714Y-27958143D01*
X10019286Y-27958143D01*
X10038333Y-27967667D01*
X10047857Y-27986714D01*
X10047857Y-28091476D01*
X10438333Y-27881952D02*
X10266905Y-28139095D01*
X10695476Y-27891476D02*
X10714524Y-27891476D01*
X10733571Y-27901000D01*
X10743095Y-27910524D01*
X10752619Y-27929571D01*
X10762143Y-27967667D01*
X10762143Y-28015286D01*
X10752619Y-28053381D01*
X10743095Y-28072428D01*
X10733571Y-28081952D01*
X10714524Y-28091476D01*
X10695476Y-28091476D01*
X10676429Y-28081952D01*
X10666905Y-28072428D01*
X10657381Y-28053381D01*
X10647857Y-28015286D01*
X10647857Y-27967667D01*
X10657381Y-27929571D01*
X10666905Y-27910524D01*
X10676429Y-27901000D01*
X10695476Y-27891476D01*
X10847857Y-28072428D02*
X10857381Y-28081952D01*
X10847857Y-28091476D01*
X10838333Y-28081952D01*
X10847857Y-28072428D01*
X10847857Y-28091476D01*
X10981190Y-27891476D02*
X11000238Y-27891476D01*
X11019286Y-27901000D01*
X11028810Y-27910524D01*
X11038333Y-27929571D01*
X11047857Y-27967667D01*
X11047857Y-28015286D01*
X11038333Y-28053381D01*
X11028810Y-28072428D01*
X11019286Y-28081952D01*
X11000238Y-28091476D01*
X10981190Y-28091476D01*
X10962143Y-28081952D01*
X10952619Y-28072428D01*
X10943095Y-28053381D01*
X10933571Y-28015286D01*
X10933571Y-27967667D01*
X10943095Y-27929571D01*
X10952619Y-27910524D01*
X10962143Y-27901000D01*
X10981190Y-27891476D01*
X11114524Y-27891476D02*
X11238333Y-27891476D01*
X11171667Y-27967667D01*
X11200238Y-27967667D01*
X11219286Y-27977190D01*
X11228809Y-27986714D01*
X11238333Y-28005762D01*
X11238333Y-28053381D01*
X11228809Y-28072428D01*
X11219286Y-28081952D01*
X11200238Y-28091476D01*
X11143095Y-28091476D01*
X11124048Y-28081952D01*
X11114524Y-28072428D01*
X11419286Y-27891476D02*
X11324048Y-27891476D01*
X11314524Y-27986714D01*
X11324048Y-27977190D01*
X11343095Y-27967667D01*
X11390714Y-27967667D01*
X11409762Y-27977190D01*
X11419286Y-27986714D01*
X11428809Y-28005762D01*
X11428809Y-28053381D01*
X11419286Y-28072428D01*
X11409762Y-28081952D01*
X11390714Y-28091476D01*
X11343095Y-28091476D01*
X11324048Y-28081952D01*
X11314524Y-28072428D01*
X11600238Y-27958143D02*
X11600238Y-28091476D01*
X11552619Y-27881952D02*
X11505000Y-28024809D01*
X11628809Y-28024809D01*
X11695476Y-27891476D02*
X11695476Y-27929571D01*
X11771667Y-27891476D02*
X11771667Y-27929571D01*
X12066905Y-28167667D02*
X12057381Y-28158143D01*
X12038333Y-28129571D01*
X12028809Y-28110524D01*
X12019286Y-28081952D01*
X12009762Y-28034333D01*
X12009762Y-27996238D01*
X12019286Y-27948619D01*
X12028809Y-27920048D01*
X12038333Y-27901000D01*
X12057381Y-27872428D01*
X12066905Y-27862905D01*
X12171667Y-27977190D02*
X12152619Y-27967667D01*
X12143095Y-27958143D01*
X12133571Y-27939095D01*
X12133571Y-27929571D01*
X12143095Y-27910524D01*
X12152619Y-27901000D01*
X12171667Y-27891476D01*
X12209762Y-27891476D01*
X12228809Y-27901000D01*
X12238333Y-27910524D01*
X12247857Y-27929571D01*
X12247857Y-27939095D01*
X12238333Y-27958143D01*
X12228809Y-27967667D01*
X12209762Y-27977190D01*
X12171667Y-27977190D01*
X12152619Y-27986714D01*
X12143095Y-27996238D01*
X12133571Y-28015286D01*
X12133571Y-28053381D01*
X12143095Y-28072428D01*
X12152619Y-28081952D01*
X12171667Y-28091476D01*
X12209762Y-28091476D01*
X12228809Y-28081952D01*
X12238333Y-28072428D01*
X12247857Y-28053381D01*
X12247857Y-28015286D01*
X12238333Y-27996238D01*
X12228809Y-27986714D01*
X12209762Y-27977190D01*
X12485952Y-28091476D02*
X12485952Y-27891476D01*
X12571667Y-28091476D02*
X12571667Y-27986714D01*
X12562143Y-27967667D01*
X12543095Y-27958143D01*
X12514524Y-27958143D01*
X12495476Y-27967667D01*
X12485952Y-27977190D01*
X12695476Y-28091476D02*
X12676428Y-28081952D01*
X12666905Y-28072428D01*
X12657381Y-28053381D01*
X12657381Y-27996238D01*
X12666905Y-27977190D01*
X12676428Y-27967667D01*
X12695476Y-27958143D01*
X12724048Y-27958143D01*
X12743095Y-27967667D01*
X12752619Y-27977190D01*
X12762143Y-27996238D01*
X12762143Y-28053381D01*
X12752619Y-28072428D01*
X12743095Y-28081952D01*
X12724048Y-28091476D01*
X12695476Y-28091476D01*
X12876428Y-28091476D02*
X12857381Y-28081952D01*
X12847857Y-28062905D01*
X12847857Y-27891476D01*
X13028809Y-28081952D02*
X13009762Y-28091476D01*
X12971667Y-28091476D01*
X12952619Y-28081952D01*
X12943095Y-28062905D01*
X12943095Y-27986714D01*
X12952619Y-27967667D01*
X12971667Y-27958143D01*
X13009762Y-27958143D01*
X13028809Y-27967667D01*
X13038333Y-27986714D01*
X13038333Y-28005762D01*
X12943095Y-28024809D01*
X13114524Y-28081952D02*
X13133571Y-28091476D01*
X13171667Y-28091476D01*
X13190714Y-28081952D01*
X13200238Y-28062905D01*
X13200238Y-28053381D01*
X13190714Y-28034333D01*
X13171667Y-28024809D01*
X13143095Y-28024809D01*
X13124048Y-28015286D01*
X13114524Y-27996238D01*
X13114524Y-27986714D01*
X13124048Y-27967667D01*
X13143095Y-27958143D01*
X13171667Y-27958143D01*
X13190714Y-27967667D01*
X13266905Y-28167667D02*
X13276428Y-28158143D01*
X13295476Y-28129571D01*
X13305000Y-28110524D01*
X13314524Y-28081952D01*
X13324048Y-28034333D01*
X13324048Y-27996238D01*
X13314524Y-27948619D01*
X13305000Y-27920048D01*
X13295476Y-27901000D01*
X13276428Y-27872428D01*
X13266905Y-27862905D01*
D10*
X8395000Y-28215000D02*
X8495000Y-28315000D01*
X8495000Y-28215000D02*
X8395000Y-28315000D01*
X8495000Y-28265000D02*
G75*
G03*
X8495000Y-28265000I-50000J0D01*
G01*
D11*
X8857381Y-28355476D02*
X8743095Y-28355476D01*
X8800238Y-28355476D02*
X8800238Y-28155476D01*
X8781190Y-28184048D01*
X8762143Y-28203095D01*
X8743095Y-28212619D01*
X8943095Y-28336428D02*
X8952619Y-28345952D01*
X8943095Y-28355476D01*
X8933571Y-28345952D01*
X8943095Y-28336428D01*
X8943095Y-28355476D01*
X9076429Y-28155476D02*
X9095476Y-28155476D01*
X9114524Y-28165000D01*
X9124048Y-28174524D01*
X9133571Y-28193571D01*
X9143095Y-28231667D01*
X9143095Y-28279286D01*
X9133571Y-28317381D01*
X9124048Y-28336428D01*
X9114524Y-28345952D01*
X9095476Y-28355476D01*
X9076429Y-28355476D01*
X9057381Y-28345952D01*
X9047857Y-28336428D01*
X9038333Y-28317381D01*
X9028810Y-28279286D01*
X9028810Y-28231667D01*
X9038333Y-28193571D01*
X9047857Y-28174524D01*
X9057381Y-28165000D01*
X9076429Y-28155476D01*
X9266905Y-28155476D02*
X9285952Y-28155476D01*
X9305000Y-28165000D01*
X9314524Y-28174524D01*
X9324048Y-28193571D01*
X9333571Y-28231667D01*
X9333571Y-28279286D01*
X9324048Y-28317381D01*
X9314524Y-28336428D01*
X9305000Y-28345952D01*
X9285952Y-28355476D01*
X9266905Y-28355476D01*
X9247857Y-28345952D01*
X9238333Y-28336428D01*
X9228810Y-28317381D01*
X9219286Y-28279286D01*
X9219286Y-28231667D01*
X9228810Y-28193571D01*
X9238333Y-28174524D01*
X9247857Y-28165000D01*
X9266905Y-28155476D01*
X9457381Y-28155476D02*
X9476429Y-28155476D01*
X9495476Y-28165000D01*
X9505000Y-28174524D01*
X9514524Y-28193571D01*
X9524048Y-28231667D01*
X9524048Y-28279286D01*
X9514524Y-28317381D01*
X9505000Y-28336428D01*
X9495476Y-28345952D01*
X9476429Y-28355476D01*
X9457381Y-28355476D01*
X9438333Y-28345952D01*
X9428810Y-28336428D01*
X9419286Y-28317381D01*
X9409762Y-28279286D01*
X9409762Y-28231667D01*
X9419286Y-28193571D01*
X9428810Y-28174524D01*
X9438333Y-28165000D01*
X9457381Y-28155476D01*
X9609762Y-28355476D02*
X9609762Y-28222143D01*
X9609762Y-28241190D02*
X9619286Y-28231667D01*
X9638333Y-28222143D01*
X9666905Y-28222143D01*
X9685952Y-28231667D01*
X9695476Y-28250714D01*
X9695476Y-28355476D01*
X9695476Y-28250714D02*
X9705000Y-28231667D01*
X9724048Y-28222143D01*
X9752619Y-28222143D01*
X9771667Y-28231667D01*
X9781190Y-28250714D01*
X9781190Y-28355476D01*
X9876429Y-28355476D02*
X9876429Y-28222143D01*
X9876429Y-28241190D02*
X9885952Y-28231667D01*
X9905000Y-28222143D01*
X9933571Y-28222143D01*
X9952619Y-28231667D01*
X9962143Y-28250714D01*
X9962143Y-28355476D01*
X9962143Y-28250714D02*
X9971667Y-28231667D01*
X9990714Y-28222143D01*
X10019286Y-28222143D01*
X10038333Y-28231667D01*
X10047857Y-28250714D01*
X10047857Y-28355476D01*
X10438333Y-28145952D02*
X10266905Y-28403095D01*
X10695476Y-28155476D02*
X10714524Y-28155476D01*
X10733571Y-28165000D01*
X10743095Y-28174524D01*
X10752619Y-28193571D01*
X10762143Y-28231667D01*
X10762143Y-28279286D01*
X10752619Y-28317381D01*
X10743095Y-28336428D01*
X10733571Y-28345952D01*
X10714524Y-28355476D01*
X10695476Y-28355476D01*
X10676429Y-28345952D01*
X10666905Y-28336428D01*
X10657381Y-28317381D01*
X10647857Y-28279286D01*
X10647857Y-28231667D01*
X10657381Y-28193571D01*
X10666905Y-28174524D01*
X10676429Y-28165000D01*
X10695476Y-28155476D01*
X10847857Y-28336428D02*
X10857381Y-28345952D01*
X10847857Y-28355476D01*
X10838333Y-28345952D01*
X10847857Y-28336428D01*
X10847857Y-28355476D01*
X10981190Y-28155476D02*
X11000238Y-28155476D01*
X11019286Y-28165000D01*
X11028810Y-28174524D01*
X11038333Y-28193571D01*
X11047857Y-28231667D01*
X11047857Y-28279286D01*
X11038333Y-28317381D01*
X11028810Y-28336428D01*
X11019286Y-28345952D01*
X11000238Y-28355476D01*
X10981190Y-28355476D01*
X10962143Y-28345952D01*
X10952619Y-28336428D01*
X10943095Y-28317381D01*
X10933571Y-28279286D01*
X10933571Y-28231667D01*
X10943095Y-28193571D01*
X10952619Y-28174524D01*
X10962143Y-28165000D01*
X10981190Y-28155476D01*
X11114524Y-28155476D02*
X11238333Y-28155476D01*
X11171667Y-28231667D01*
X11200238Y-28231667D01*
X11219286Y-28241190D01*
X11228809Y-28250714D01*
X11238333Y-28269762D01*
X11238333Y-28317381D01*
X11228809Y-28336428D01*
X11219286Y-28345952D01*
X11200238Y-28355476D01*
X11143095Y-28355476D01*
X11124048Y-28345952D01*
X11114524Y-28336428D01*
X11333571Y-28355476D02*
X11371667Y-28355476D01*
X11390714Y-28345952D01*
X11400238Y-28336428D01*
X11419286Y-28307857D01*
X11428809Y-28269762D01*
X11428809Y-28193571D01*
X11419286Y-28174524D01*
X11409762Y-28165000D01*
X11390714Y-28155476D01*
X11352619Y-28155476D01*
X11333571Y-28165000D01*
X11324048Y-28174524D01*
X11314524Y-28193571D01*
X11314524Y-28241190D01*
X11324048Y-28260238D01*
X11333571Y-28269762D01*
X11352619Y-28279286D01*
X11390714Y-28279286D01*
X11409762Y-28269762D01*
X11419286Y-28260238D01*
X11428809Y-28241190D01*
X11600238Y-28222143D02*
X11600238Y-28355476D01*
X11552619Y-28145952D02*
X11505000Y-28288809D01*
X11628809Y-28288809D01*
X11695476Y-28155476D02*
X11695476Y-28193571D01*
X11771667Y-28155476D02*
X11771667Y-28193571D01*
X12066905Y-28431667D02*
X12057381Y-28422143D01*
X12038333Y-28393571D01*
X12028809Y-28374524D01*
X12019286Y-28345952D01*
X12009762Y-28298333D01*
X12009762Y-28260238D01*
X12019286Y-28212619D01*
X12028809Y-28184048D01*
X12038333Y-28165000D01*
X12057381Y-28136428D01*
X12066905Y-28126905D01*
X12228809Y-28222143D02*
X12228809Y-28355476D01*
X12181190Y-28145952D02*
X12133571Y-28288809D01*
X12257381Y-28288809D01*
X12485952Y-28355476D02*
X12485952Y-28155476D01*
X12571667Y-28355476D02*
X12571667Y-28250714D01*
X12562143Y-28231667D01*
X12543095Y-28222143D01*
X12514524Y-28222143D01*
X12495476Y-28231667D01*
X12485952Y-28241190D01*
X12695476Y-28355476D02*
X12676428Y-28345952D01*
X12666905Y-28336428D01*
X12657381Y-28317381D01*
X12657381Y-28260238D01*
X12666905Y-28241190D01*
X12676428Y-28231667D01*
X12695476Y-28222143D01*
X12724048Y-28222143D01*
X12743095Y-28231667D01*
X12752619Y-28241190D01*
X12762143Y-28260238D01*
X12762143Y-28317381D01*
X12752619Y-28336428D01*
X12743095Y-28345952D01*
X12724048Y-28355476D01*
X12695476Y-28355476D01*
X12876428Y-28355476D02*
X12857381Y-28345952D01*
X12847857Y-28326905D01*
X12847857Y-28155476D01*
X13028809Y-28345952D02*
X13009762Y-28355476D01*
X12971667Y-28355476D01*
X12952619Y-28345952D01*
X12943095Y-28326905D01*
X12943095Y-28250714D01*
X12952619Y-28231667D01*
X12971667Y-28222143D01*
X13009762Y-28222143D01*
X13028809Y-28231667D01*
X13038333Y-28250714D01*
X13038333Y-28269762D01*
X12943095Y-28288809D01*
X13114524Y-28345952D02*
X13133571Y-28355476D01*
X13171667Y-28355476D01*
X13190714Y-28345952D01*
X13200238Y-28326905D01*
X13200238Y-28317381D01*
X13190714Y-28298333D01*
X13171667Y-28288809D01*
X13143095Y-28288809D01*
X13124048Y-28279286D01*
X13114524Y-28260238D01*
X13114524Y-28250714D01*
X13124048Y-28231667D01*
X13143095Y-28222143D01*
X13171667Y-28222143D01*
X13190714Y-28231667D01*
X13266905Y-28431667D02*
X13276428Y-28422143D01*
X13295476Y-28393571D01*
X13305000Y-28374524D01*
X13314524Y-28345952D01*
X13324048Y-28298333D01*
X13324048Y-28260238D01*
X13314524Y-28212619D01*
X13305000Y-28184048D01*
X13295476Y-28165000D01*
X13276428Y-28136428D01*
X13266905Y-28126905D01*
D17*
X8393000Y-28478000D02*
X8495000Y-28580000D01*
X8495000Y-28478000D02*
X8393000Y-28580000D01*
X8444000Y-28478000D02*
X8444000Y-28580000D01*
X8393000Y-28529000D02*
X8495000Y-28529000D01*
D11*
X8857381Y-28619476D02*
X8743095Y-28619476D01*
X8800238Y-28619476D02*
X8800238Y-28419476D01*
X8781190Y-28448048D01*
X8762143Y-28467095D01*
X8743095Y-28476619D01*
X8943095Y-28600428D02*
X8952619Y-28609952D01*
X8943095Y-28619476D01*
X8933571Y-28609952D01*
X8943095Y-28600428D01*
X8943095Y-28619476D01*
X9076429Y-28419476D02*
X9095476Y-28419476D01*
X9114524Y-28429000D01*
X9124048Y-28438524D01*
X9133571Y-28457571D01*
X9143095Y-28495667D01*
X9143095Y-28543286D01*
X9133571Y-28581381D01*
X9124048Y-28600428D01*
X9114524Y-28609952D01*
X9095476Y-28619476D01*
X9076429Y-28619476D01*
X9057381Y-28609952D01*
X9047857Y-28600428D01*
X9038333Y-28581381D01*
X9028810Y-28543286D01*
X9028810Y-28495667D01*
X9038333Y-28457571D01*
X9047857Y-28438524D01*
X9057381Y-28429000D01*
X9076429Y-28419476D01*
X9219286Y-28438524D02*
X9228810Y-28429000D01*
X9247857Y-28419476D01*
X9295476Y-28419476D01*
X9314524Y-28429000D01*
X9324048Y-28438524D01*
X9333571Y-28457571D01*
X9333571Y-28476619D01*
X9324048Y-28505190D01*
X9209762Y-28619476D01*
X9333571Y-28619476D01*
X9457381Y-28419476D02*
X9476429Y-28419476D01*
X9495476Y-28429000D01*
X9505000Y-28438524D01*
X9514524Y-28457571D01*
X9524048Y-28495667D01*
X9524048Y-28543286D01*
X9514524Y-28581381D01*
X9505000Y-28600428D01*
X9495476Y-28609952D01*
X9476429Y-28619476D01*
X9457381Y-28619476D01*
X9438333Y-28609952D01*
X9428810Y-28600428D01*
X9419286Y-28581381D01*
X9409762Y-28543286D01*
X9409762Y-28495667D01*
X9419286Y-28457571D01*
X9428810Y-28438524D01*
X9438333Y-28429000D01*
X9457381Y-28419476D01*
X9609762Y-28619476D02*
X9609762Y-28486143D01*
X9609762Y-28505190D02*
X9619286Y-28495667D01*
X9638333Y-28486143D01*
X9666905Y-28486143D01*
X9685952Y-28495667D01*
X9695476Y-28514714D01*
X9695476Y-28619476D01*
X9695476Y-28514714D02*
X9705000Y-28495667D01*
X9724048Y-28486143D01*
X9752619Y-28486143D01*
X9771667Y-28495667D01*
X9781190Y-28514714D01*
X9781190Y-28619476D01*
X9876429Y-28619476D02*
X9876429Y-28486143D01*
X9876429Y-28505190D02*
X9885952Y-28495667D01*
X9905000Y-28486143D01*
X9933571Y-28486143D01*
X9952619Y-28495667D01*
X9962143Y-28514714D01*
X9962143Y-28619476D01*
X9962143Y-28514714D02*
X9971667Y-28495667D01*
X9990714Y-28486143D01*
X10019286Y-28486143D01*
X10038333Y-28495667D01*
X10047857Y-28514714D01*
X10047857Y-28619476D01*
X10438333Y-28409952D02*
X10266905Y-28667095D01*
X10695476Y-28419476D02*
X10714524Y-28419476D01*
X10733571Y-28429000D01*
X10743095Y-28438524D01*
X10752619Y-28457571D01*
X10762143Y-28495667D01*
X10762143Y-28543286D01*
X10752619Y-28581381D01*
X10743095Y-28600428D01*
X10733571Y-28609952D01*
X10714524Y-28619476D01*
X10695476Y-28619476D01*
X10676429Y-28609952D01*
X10666905Y-28600428D01*
X10657381Y-28581381D01*
X10647857Y-28543286D01*
X10647857Y-28495667D01*
X10657381Y-28457571D01*
X10666905Y-28438524D01*
X10676429Y-28429000D01*
X10695476Y-28419476D01*
X10847857Y-28600428D02*
X10857381Y-28609952D01*
X10847857Y-28619476D01*
X10838333Y-28609952D01*
X10847857Y-28600428D01*
X10847857Y-28619476D01*
X10981190Y-28419476D02*
X11000238Y-28419476D01*
X11019286Y-28429000D01*
X11028810Y-28438524D01*
X11038333Y-28457571D01*
X11047857Y-28495667D01*
X11047857Y-28543286D01*
X11038333Y-28581381D01*
X11028810Y-28600428D01*
X11019286Y-28609952D01*
X11000238Y-28619476D01*
X10981190Y-28619476D01*
X10962143Y-28609952D01*
X10952619Y-28600428D01*
X10943095Y-28581381D01*
X10933571Y-28543286D01*
X10933571Y-28495667D01*
X10943095Y-28457571D01*
X10952619Y-28438524D01*
X10962143Y-28429000D01*
X10981190Y-28419476D01*
X11219286Y-28486143D02*
X11219286Y-28619476D01*
X11171667Y-28409952D02*
X11124048Y-28552809D01*
X11247857Y-28552809D01*
X11362143Y-28419476D02*
X11381190Y-28419476D01*
X11400238Y-28429000D01*
X11409762Y-28438524D01*
X11419286Y-28457571D01*
X11428809Y-28495667D01*
X11428809Y-28543286D01*
X11419286Y-28581381D01*
X11409762Y-28600428D01*
X11400238Y-28609952D01*
X11381190Y-28619476D01*
X11362143Y-28619476D01*
X11343095Y-28609952D01*
X11333571Y-28600428D01*
X11324048Y-28581381D01*
X11314524Y-28543286D01*
X11314524Y-28495667D01*
X11324048Y-28457571D01*
X11333571Y-28438524D01*
X11343095Y-28429000D01*
X11362143Y-28419476D01*
X11505000Y-28438524D02*
X11514524Y-28429000D01*
X11533571Y-28419476D01*
X11581190Y-28419476D01*
X11600238Y-28429000D01*
X11609762Y-28438524D01*
X11619286Y-28457571D01*
X11619286Y-28476619D01*
X11609762Y-28505190D01*
X11495476Y-28619476D01*
X11619286Y-28619476D01*
X11695476Y-28419476D02*
X11695476Y-28457571D01*
X11771667Y-28419476D02*
X11771667Y-28457571D01*
X12066905Y-28695667D02*
X12057381Y-28686143D01*
X12038333Y-28657571D01*
X12028809Y-28638524D01*
X12019286Y-28609952D01*
X12009762Y-28562333D01*
X12009762Y-28524238D01*
X12019286Y-28476619D01*
X12028809Y-28448048D01*
X12038333Y-28429000D01*
X12057381Y-28400428D01*
X12066905Y-28390905D01*
X12171667Y-28505190D02*
X12152619Y-28495667D01*
X12143095Y-28486143D01*
X12133571Y-28467095D01*
X12133571Y-28457571D01*
X12143095Y-28438524D01*
X12152619Y-28429000D01*
X12171667Y-28419476D01*
X12209762Y-28419476D01*
X12228809Y-28429000D01*
X12238333Y-28438524D01*
X12247857Y-28457571D01*
X12247857Y-28467095D01*
X12238333Y-28486143D01*
X12228809Y-28495667D01*
X12209762Y-28505190D01*
X12171667Y-28505190D01*
X12152619Y-28514714D01*
X12143095Y-28524238D01*
X12133571Y-28543286D01*
X12133571Y-28581381D01*
X12143095Y-28600428D01*
X12152619Y-28609952D01*
X12171667Y-28619476D01*
X12209762Y-28619476D01*
X12228809Y-28609952D01*
X12238333Y-28600428D01*
X12247857Y-28581381D01*
X12247857Y-28543286D01*
X12238333Y-28524238D01*
X12228809Y-28514714D01*
X12209762Y-28505190D01*
X12419286Y-28419476D02*
X12381190Y-28419476D01*
X12362143Y-28429000D01*
X12352619Y-28438524D01*
X12333571Y-28467095D01*
X12324048Y-28505190D01*
X12324048Y-28581381D01*
X12333571Y-28600428D01*
X12343095Y-28609952D01*
X12362143Y-28619476D01*
X12400238Y-28619476D01*
X12419286Y-28609952D01*
X12428809Y-28600428D01*
X12438333Y-28581381D01*
X12438333Y-28533762D01*
X12428809Y-28514714D01*
X12419286Y-28505190D01*
X12400238Y-28495667D01*
X12362143Y-28495667D01*
X12343095Y-28505190D01*
X12333571Y-28514714D01*
X12324048Y-28533762D01*
X12676428Y-28619476D02*
X12676428Y-28419476D01*
X12762143Y-28619476D02*
X12762143Y-28514714D01*
X12752619Y-28495667D01*
X12733571Y-28486143D01*
X12705000Y-28486143D01*
X12685952Y-28495667D01*
X12676428Y-28505190D01*
X12885952Y-28619476D02*
X12866905Y-28609952D01*
X12857381Y-28600428D01*
X12847857Y-28581381D01*
X12847857Y-28524238D01*
X12857381Y-28505190D01*
X12866905Y-28495667D01*
X12885952Y-28486143D01*
X12914524Y-28486143D01*
X12933571Y-28495667D01*
X12943095Y-28505190D01*
X12952619Y-28524238D01*
X12952619Y-28581381D01*
X12943095Y-28600428D01*
X12933571Y-28609952D01*
X12914524Y-28619476D01*
X12885952Y-28619476D01*
X13066905Y-28619476D02*
X13047857Y-28609952D01*
X13038333Y-28590905D01*
X13038333Y-28419476D01*
X13219286Y-28609952D02*
X13200238Y-28619476D01*
X13162143Y-28619476D01*
X13143095Y-28609952D01*
X13133571Y-28590905D01*
X13133571Y-28514714D01*
X13143095Y-28495667D01*
X13162143Y-28486143D01*
X13200238Y-28486143D01*
X13219286Y-28495667D01*
X13228809Y-28514714D01*
X13228809Y-28533762D01*
X13133571Y-28552809D01*
X13305000Y-28609952D02*
X13324048Y-28619476D01*
X13362143Y-28619476D01*
X13381190Y-28609952D01*
X13390714Y-28590905D01*
X13390714Y-28581381D01*
X13381190Y-28562333D01*
X13362143Y-28552809D01*
X13333571Y-28552809D01*
X13314524Y-28543286D01*
X13305000Y-28524238D01*
X13305000Y-28514714D01*
X13314524Y-28495667D01*
X13333571Y-28486143D01*
X13362143Y-28486143D01*
X13381190Y-28495667D01*
X13457381Y-28695667D02*
X13466905Y-28686143D01*
X13485952Y-28657571D01*
X13495476Y-28638524D01*
X13505000Y-28609952D01*
X13514524Y-28562333D01*
X13514524Y-28524238D01*
X13505000Y-28476619D01*
X13495476Y-28448048D01*
X13485952Y-28429000D01*
X13466905Y-28400428D01*
X13457381Y-28390905D01*
D18*
X8385000Y-28738000D02*
X8495000Y-28848000D01*
X8495000Y-28738000D02*
X8385000Y-28848000D01*
X8478891Y-28831891D02*
X8478891Y-28754109D01*
X8401109Y-28754109D01*
X8401109Y-28831891D01*
X8478891Y-28831891D01*
D11*
X8857381Y-28883476D02*
X8743095Y-28883476D01*
X8800238Y-28883476D02*
X8800238Y-28683476D01*
X8781190Y-28712048D01*
X8762143Y-28731095D01*
X8743095Y-28740619D01*
X8943095Y-28864428D02*
X8952619Y-28873952D01*
X8943095Y-28883476D01*
X8933571Y-28873952D01*
X8943095Y-28864428D01*
X8943095Y-28883476D01*
X9143095Y-28883476D02*
X9028810Y-28883476D01*
X9085952Y-28883476D02*
X9085952Y-28683476D01*
X9066905Y-28712048D01*
X9047857Y-28731095D01*
X9028810Y-28740619D01*
X9266905Y-28683476D02*
X9285952Y-28683476D01*
X9305000Y-28693000D01*
X9314524Y-28702524D01*
X9324048Y-28721571D01*
X9333571Y-28759667D01*
X9333571Y-28807286D01*
X9324048Y-28845381D01*
X9314524Y-28864428D01*
X9305000Y-28873952D01*
X9285952Y-28883476D01*
X9266905Y-28883476D01*
X9247857Y-28873952D01*
X9238333Y-28864428D01*
X9228810Y-28845381D01*
X9219286Y-28807286D01*
X9219286Y-28759667D01*
X9228810Y-28721571D01*
X9238333Y-28702524D01*
X9247857Y-28693000D01*
X9266905Y-28683476D01*
X9457381Y-28683476D02*
X9476429Y-28683476D01*
X9495476Y-28693000D01*
X9505000Y-28702524D01*
X9514524Y-28721571D01*
X9524048Y-28759667D01*
X9524048Y-28807286D01*
X9514524Y-28845381D01*
X9505000Y-28864428D01*
X9495476Y-28873952D01*
X9476429Y-28883476D01*
X9457381Y-28883476D01*
X9438333Y-28873952D01*
X9428810Y-28864428D01*
X9419286Y-28845381D01*
X9409762Y-28807286D01*
X9409762Y-28759667D01*
X9419286Y-28721571D01*
X9428810Y-28702524D01*
X9438333Y-28693000D01*
X9457381Y-28683476D01*
X9609762Y-28883476D02*
X9609762Y-28750143D01*
X9609762Y-28769190D02*
X9619286Y-28759667D01*
X9638333Y-28750143D01*
X9666905Y-28750143D01*
X9685952Y-28759667D01*
X9695476Y-28778714D01*
X9695476Y-28883476D01*
X9695476Y-28778714D02*
X9705000Y-28759667D01*
X9724048Y-28750143D01*
X9752619Y-28750143D01*
X9771667Y-28759667D01*
X9781190Y-28778714D01*
X9781190Y-28883476D01*
X9876429Y-28883476D02*
X9876429Y-28750143D01*
X9876429Y-28769190D02*
X9885952Y-28759667D01*
X9905000Y-28750143D01*
X9933571Y-28750143D01*
X9952619Y-28759667D01*
X9962143Y-28778714D01*
X9962143Y-28883476D01*
X9962143Y-28778714D02*
X9971667Y-28759667D01*
X9990714Y-28750143D01*
X10019286Y-28750143D01*
X10038333Y-28759667D01*
X10047857Y-28778714D01*
X10047857Y-28883476D01*
X10438333Y-28673952D02*
X10266905Y-28931095D01*
X10695476Y-28683476D02*
X10714524Y-28683476D01*
X10733571Y-28693000D01*
X10743095Y-28702524D01*
X10752619Y-28721571D01*
X10762143Y-28759667D01*
X10762143Y-28807286D01*
X10752619Y-28845381D01*
X10743095Y-28864428D01*
X10733571Y-28873952D01*
X10714524Y-28883476D01*
X10695476Y-28883476D01*
X10676429Y-28873952D01*
X10666905Y-28864428D01*
X10657381Y-28845381D01*
X10647857Y-28807286D01*
X10647857Y-28759667D01*
X10657381Y-28721571D01*
X10666905Y-28702524D01*
X10676429Y-28693000D01*
X10695476Y-28683476D01*
X10847857Y-28864428D02*
X10857381Y-28873952D01*
X10847857Y-28883476D01*
X10838333Y-28873952D01*
X10847857Y-28864428D01*
X10847857Y-28883476D01*
X10981190Y-28683476D02*
X11000238Y-28683476D01*
X11019286Y-28693000D01*
X11028810Y-28702524D01*
X11038333Y-28721571D01*
X11047857Y-28759667D01*
X11047857Y-28807286D01*
X11038333Y-28845381D01*
X11028810Y-28864428D01*
X11019286Y-28873952D01*
X11000238Y-28883476D01*
X10981190Y-28883476D01*
X10962143Y-28873952D01*
X10952619Y-28864428D01*
X10943095Y-28845381D01*
X10933571Y-28807286D01*
X10933571Y-28759667D01*
X10943095Y-28721571D01*
X10952619Y-28702524D01*
X10962143Y-28693000D01*
X10981190Y-28683476D01*
X11219286Y-28750143D02*
X11219286Y-28883476D01*
X11171667Y-28673952D02*
X11124048Y-28816809D01*
X11247857Y-28816809D01*
X11305000Y-28683476D02*
X11428809Y-28683476D01*
X11362143Y-28759667D01*
X11390714Y-28759667D01*
X11409762Y-28769190D01*
X11419286Y-28778714D01*
X11428809Y-28797762D01*
X11428809Y-28845381D01*
X11419286Y-28864428D01*
X11409762Y-28873952D01*
X11390714Y-28883476D01*
X11333571Y-28883476D01*
X11314524Y-28873952D01*
X11305000Y-28864428D01*
X11495476Y-28683476D02*
X11619286Y-28683476D01*
X11552619Y-28759667D01*
X11581190Y-28759667D01*
X11600238Y-28769190D01*
X11609762Y-28778714D01*
X11619286Y-28797762D01*
X11619286Y-28845381D01*
X11609762Y-28864428D01*
X11600238Y-28873952D01*
X11581190Y-28883476D01*
X11524048Y-28883476D01*
X11505000Y-28873952D01*
X11495476Y-28864428D01*
X11695476Y-28683476D02*
X11695476Y-28721571D01*
X11771667Y-28683476D02*
X11771667Y-28721571D01*
X12066905Y-28959667D02*
X12057381Y-28950143D01*
X12038333Y-28921571D01*
X12028809Y-28902524D01*
X12019286Y-28873952D01*
X12009762Y-28826333D01*
X12009762Y-28788238D01*
X12019286Y-28740619D01*
X12028809Y-28712048D01*
X12038333Y-28693000D01*
X12057381Y-28664428D01*
X12066905Y-28654905D01*
X12171667Y-28769190D02*
X12152619Y-28759667D01*
X12143095Y-28750143D01*
X12133571Y-28731095D01*
X12133571Y-28721571D01*
X12143095Y-28702524D01*
X12152619Y-28693000D01*
X12171667Y-28683476D01*
X12209762Y-28683476D01*
X12228809Y-28693000D01*
X12238333Y-28702524D01*
X12247857Y-28721571D01*
X12247857Y-28731095D01*
X12238333Y-28750143D01*
X12228809Y-28759667D01*
X12209762Y-28769190D01*
X12171667Y-28769190D01*
X12152619Y-28778714D01*
X12143095Y-28788238D01*
X12133571Y-28807286D01*
X12133571Y-28845381D01*
X12143095Y-28864428D01*
X12152619Y-28873952D01*
X12171667Y-28883476D01*
X12209762Y-28883476D01*
X12228809Y-28873952D01*
X12238333Y-28864428D01*
X12247857Y-28845381D01*
X12247857Y-28807286D01*
X12238333Y-28788238D01*
X12228809Y-28778714D01*
X12209762Y-28769190D01*
X12485952Y-28883476D02*
X12485952Y-28683476D01*
X12571667Y-28883476D02*
X12571667Y-28778714D01*
X12562143Y-28759667D01*
X12543095Y-28750143D01*
X12514524Y-28750143D01*
X12495476Y-28759667D01*
X12485952Y-28769190D01*
X12695476Y-28883476D02*
X12676428Y-28873952D01*
X12666905Y-28864428D01*
X12657381Y-28845381D01*
X12657381Y-28788238D01*
X12666905Y-28769190D01*
X12676428Y-28759667D01*
X12695476Y-28750143D01*
X12724048Y-28750143D01*
X12743095Y-28759667D01*
X12752619Y-28769190D01*
X12762143Y-28788238D01*
X12762143Y-28845381D01*
X12752619Y-28864428D01*
X12743095Y-28873952D01*
X12724048Y-28883476D01*
X12695476Y-28883476D01*
X12876428Y-28883476D02*
X12857381Y-28873952D01*
X12847857Y-28854905D01*
X12847857Y-28683476D01*
X13028809Y-28873952D02*
X13009762Y-28883476D01*
X12971667Y-28883476D01*
X12952619Y-28873952D01*
X12943095Y-28854905D01*
X12943095Y-28778714D01*
X12952619Y-28759667D01*
X12971667Y-28750143D01*
X13009762Y-28750143D01*
X13028809Y-28759667D01*
X13038333Y-28778714D01*
X13038333Y-28797762D01*
X12943095Y-28816809D01*
X13114524Y-28873952D02*
X13133571Y-28883476D01*
X13171667Y-28883476D01*
X13190714Y-28873952D01*
X13200238Y-28854905D01*
X13200238Y-28845381D01*
X13190714Y-28826333D01*
X13171667Y-28816809D01*
X13143095Y-28816809D01*
X13124048Y-28807286D01*
X13114524Y-28788238D01*
X13114524Y-28778714D01*
X13124048Y-28759667D01*
X13143095Y-28750143D01*
X13171667Y-28750143D01*
X13190714Y-28759667D01*
X13266905Y-28959667D02*
X13276428Y-28950143D01*
X13295476Y-28921571D01*
X13305000Y-28902524D01*
X13314524Y-28873952D01*
X13324048Y-28826333D01*
X13324048Y-28788238D01*
X13314524Y-28740619D01*
X13305000Y-28712048D01*
X13295476Y-28693000D01*
X13276428Y-28664428D01*
X13266905Y-28654905D01*
D19*
X8345000Y-28982000D02*
X8495000Y-29132000D01*
X8495000Y-28982000D02*
X8345000Y-29132000D01*
X8420000Y-29132000D02*
X8495000Y-29057000D01*
X8420000Y-28982000D01*
X8345000Y-29057000D01*
X8420000Y-29132000D01*
D11*
X8857381Y-29147476D02*
X8743095Y-29147476D01*
X8800238Y-29147476D02*
X8800238Y-28947476D01*
X8781190Y-28976048D01*
X8762143Y-28995095D01*
X8743095Y-29004619D01*
X8943095Y-29128428D02*
X8952619Y-29137952D01*
X8943095Y-29147476D01*
X8933571Y-29137952D01*
X8943095Y-29128428D01*
X8943095Y-29147476D01*
X9133571Y-28947476D02*
X9038333Y-28947476D01*
X9028810Y-29042714D01*
X9038333Y-29033190D01*
X9057381Y-29023667D01*
X9105000Y-29023667D01*
X9124048Y-29033190D01*
X9133571Y-29042714D01*
X9143095Y-29061762D01*
X9143095Y-29109381D01*
X9133571Y-29128428D01*
X9124048Y-29137952D01*
X9105000Y-29147476D01*
X9057381Y-29147476D01*
X9038333Y-29137952D01*
X9028810Y-29128428D01*
X9266905Y-28947476D02*
X9285952Y-28947476D01*
X9305000Y-28957000D01*
X9314524Y-28966524D01*
X9324048Y-28985571D01*
X9333571Y-29023667D01*
X9333571Y-29071286D01*
X9324048Y-29109381D01*
X9314524Y-29128428D01*
X9305000Y-29137952D01*
X9285952Y-29147476D01*
X9266905Y-29147476D01*
X9247857Y-29137952D01*
X9238333Y-29128428D01*
X9228810Y-29109381D01*
X9219286Y-29071286D01*
X9219286Y-29023667D01*
X9228810Y-28985571D01*
X9238333Y-28966524D01*
X9247857Y-28957000D01*
X9266905Y-28947476D01*
X9457381Y-28947476D02*
X9476429Y-28947476D01*
X9495476Y-28957000D01*
X9505000Y-28966524D01*
X9514524Y-28985571D01*
X9524048Y-29023667D01*
X9524048Y-29071286D01*
X9514524Y-29109381D01*
X9505000Y-29128428D01*
X9495476Y-29137952D01*
X9476429Y-29147476D01*
X9457381Y-29147476D01*
X9438333Y-29137952D01*
X9428810Y-29128428D01*
X9419286Y-29109381D01*
X9409762Y-29071286D01*
X9409762Y-29023667D01*
X9419286Y-28985571D01*
X9428810Y-28966524D01*
X9438333Y-28957000D01*
X9457381Y-28947476D01*
X9609762Y-29147476D02*
X9609762Y-29014143D01*
X9609762Y-29033190D02*
X9619286Y-29023667D01*
X9638333Y-29014143D01*
X9666905Y-29014143D01*
X9685952Y-29023667D01*
X9695476Y-29042714D01*
X9695476Y-29147476D01*
X9695476Y-29042714D02*
X9705000Y-29023667D01*
X9724048Y-29014143D01*
X9752619Y-29014143D01*
X9771667Y-29023667D01*
X9781190Y-29042714D01*
X9781190Y-29147476D01*
X9876429Y-29147476D02*
X9876429Y-29014143D01*
X9876429Y-29033190D02*
X9885952Y-29023667D01*
X9905000Y-29014143D01*
X9933571Y-29014143D01*
X9952619Y-29023667D01*
X9962143Y-29042714D01*
X9962143Y-29147476D01*
X9962143Y-29042714D02*
X9971667Y-29023667D01*
X9990714Y-29014143D01*
X10019286Y-29014143D01*
X10038333Y-29023667D01*
X10047857Y-29042714D01*
X10047857Y-29147476D01*
X10438333Y-28937952D02*
X10266905Y-29195095D01*
X10695476Y-28947476D02*
X10714524Y-28947476D01*
X10733571Y-28957000D01*
X10743095Y-28966524D01*
X10752619Y-28985571D01*
X10762143Y-29023667D01*
X10762143Y-29071286D01*
X10752619Y-29109381D01*
X10743095Y-29128428D01*
X10733571Y-29137952D01*
X10714524Y-29147476D01*
X10695476Y-29147476D01*
X10676429Y-29137952D01*
X10666905Y-29128428D01*
X10657381Y-29109381D01*
X10647857Y-29071286D01*
X10647857Y-29023667D01*
X10657381Y-28985571D01*
X10666905Y-28966524D01*
X10676429Y-28957000D01*
X10695476Y-28947476D01*
X10847857Y-29128428D02*
X10857381Y-29137952D01*
X10847857Y-29147476D01*
X10838333Y-29137952D01*
X10847857Y-29128428D01*
X10847857Y-29147476D01*
X10981190Y-28947476D02*
X11000238Y-28947476D01*
X11019286Y-28957000D01*
X11028810Y-28966524D01*
X11038333Y-28985571D01*
X11047857Y-29023667D01*
X11047857Y-29071286D01*
X11038333Y-29109381D01*
X11028810Y-29128428D01*
X11019286Y-29137952D01*
X11000238Y-29147476D01*
X10981190Y-29147476D01*
X10962143Y-29137952D01*
X10952619Y-29128428D01*
X10943095Y-29109381D01*
X10933571Y-29071286D01*
X10933571Y-29023667D01*
X10943095Y-28985571D01*
X10952619Y-28966524D01*
X10962143Y-28957000D01*
X10981190Y-28947476D01*
X11228809Y-28947476D02*
X11133571Y-28947476D01*
X11124048Y-29042714D01*
X11133571Y-29033190D01*
X11152619Y-29023667D01*
X11200238Y-29023667D01*
X11219286Y-29033190D01*
X11228809Y-29042714D01*
X11238333Y-29061762D01*
X11238333Y-29109381D01*
X11228809Y-29128428D01*
X11219286Y-29137952D01*
X11200238Y-29147476D01*
X11152619Y-29147476D01*
X11133571Y-29137952D01*
X11124048Y-29128428D01*
X11333571Y-29147476D02*
X11371667Y-29147476D01*
X11390714Y-29137952D01*
X11400238Y-29128428D01*
X11419286Y-29099857D01*
X11428809Y-29061762D01*
X11428809Y-28985571D01*
X11419286Y-28966524D01*
X11409762Y-28957000D01*
X11390714Y-28947476D01*
X11352619Y-28947476D01*
X11333571Y-28957000D01*
X11324048Y-28966524D01*
X11314524Y-28985571D01*
X11314524Y-29033190D01*
X11324048Y-29052238D01*
X11333571Y-29061762D01*
X11352619Y-29071286D01*
X11390714Y-29071286D01*
X11409762Y-29061762D01*
X11419286Y-29052238D01*
X11428809Y-29033190D01*
X11619286Y-29147476D02*
X11505000Y-29147476D01*
X11562143Y-29147476D02*
X11562143Y-28947476D01*
X11543095Y-28976048D01*
X11524048Y-28995095D01*
X11505000Y-29004619D01*
X11695476Y-28947476D02*
X11695476Y-28985571D01*
X11771667Y-28947476D02*
X11771667Y-28985571D01*
X12066905Y-29223667D02*
X12057381Y-29214143D01*
X12038333Y-29185571D01*
X12028809Y-29166524D01*
X12019286Y-29137952D01*
X12009762Y-29090333D01*
X12009762Y-29052238D01*
X12019286Y-29004619D01*
X12028809Y-28976048D01*
X12038333Y-28957000D01*
X12057381Y-28928428D01*
X12066905Y-28918905D01*
X12247857Y-29147476D02*
X12133571Y-29147476D01*
X12190714Y-29147476D02*
X12190714Y-28947476D01*
X12171667Y-28976048D01*
X12152619Y-28995095D01*
X12133571Y-29004619D01*
X12362143Y-29033190D02*
X12343095Y-29023667D01*
X12333571Y-29014143D01*
X12324048Y-28995095D01*
X12324048Y-28985571D01*
X12333571Y-28966524D01*
X12343095Y-28957000D01*
X12362143Y-28947476D01*
X12400238Y-28947476D01*
X12419286Y-28957000D01*
X12428809Y-28966524D01*
X12438333Y-28985571D01*
X12438333Y-28995095D01*
X12428809Y-29014143D01*
X12419286Y-29023667D01*
X12400238Y-29033190D01*
X12362143Y-29033190D01*
X12343095Y-29042714D01*
X12333571Y-29052238D01*
X12324048Y-29071286D01*
X12324048Y-29109381D01*
X12333571Y-29128428D01*
X12343095Y-29137952D01*
X12362143Y-29147476D01*
X12400238Y-29147476D01*
X12419286Y-29137952D01*
X12428809Y-29128428D01*
X12438333Y-29109381D01*
X12438333Y-29071286D01*
X12428809Y-29052238D01*
X12419286Y-29042714D01*
X12400238Y-29033190D01*
X12552619Y-29033190D02*
X12533571Y-29023667D01*
X12524048Y-29014143D01*
X12514524Y-28995095D01*
X12514524Y-28985571D01*
X12524048Y-28966524D01*
X12533571Y-28957000D01*
X12552619Y-28947476D01*
X12590714Y-28947476D01*
X12609762Y-28957000D01*
X12619286Y-28966524D01*
X12628809Y-28985571D01*
X12628809Y-28995095D01*
X12619286Y-29014143D01*
X12609762Y-29023667D01*
X12590714Y-29033190D01*
X12552619Y-29033190D01*
X12533571Y-29042714D01*
X12524048Y-29052238D01*
X12514524Y-29071286D01*
X12514524Y-29109381D01*
X12524048Y-29128428D01*
X12533571Y-29137952D01*
X12552619Y-29147476D01*
X12590714Y-29147476D01*
X12609762Y-29137952D01*
X12619286Y-29128428D01*
X12628809Y-29109381D01*
X12628809Y-29071286D01*
X12619286Y-29052238D01*
X12609762Y-29042714D01*
X12590714Y-29033190D01*
X12866905Y-29147476D02*
X12866905Y-28947476D01*
X12952619Y-29147476D02*
X12952619Y-29042714D01*
X12943095Y-29023667D01*
X12924048Y-29014143D01*
X12895476Y-29014143D01*
X12876428Y-29023667D01*
X12866905Y-29033190D01*
X13076428Y-29147476D02*
X13057381Y-29137952D01*
X13047857Y-29128428D01*
X13038333Y-29109381D01*
X13038333Y-29052238D01*
X13047857Y-29033190D01*
X13057381Y-29023667D01*
X13076428Y-29014143D01*
X13105000Y-29014143D01*
X13124048Y-29023667D01*
X13133571Y-29033190D01*
X13143095Y-29052238D01*
X13143095Y-29109381D01*
X13133571Y-29128428D01*
X13124048Y-29137952D01*
X13105000Y-29147476D01*
X13076428Y-29147476D01*
X13257381Y-29147476D02*
X13238333Y-29137952D01*
X13228809Y-29118905D01*
X13228809Y-28947476D01*
X13409762Y-29137952D02*
X13390714Y-29147476D01*
X13352619Y-29147476D01*
X13333571Y-29137952D01*
X13324048Y-29118905D01*
X13324048Y-29042714D01*
X13333571Y-29023667D01*
X13352619Y-29014143D01*
X13390714Y-29014143D01*
X13409762Y-29023667D01*
X13419286Y-29042714D01*
X13419286Y-29061762D01*
X13324048Y-29080809D01*
X13495476Y-29137952D02*
X13514524Y-29147476D01*
X13552619Y-29147476D01*
X13571667Y-29137952D01*
X13581190Y-29118905D01*
X13581190Y-29109381D01*
X13571667Y-29090333D01*
X13552619Y-29080809D01*
X13524048Y-29080809D01*
X13505000Y-29071286D01*
X13495476Y-29052238D01*
X13495476Y-29042714D01*
X13505000Y-29023667D01*
X13524048Y-29014143D01*
X13552619Y-29014143D01*
X13571667Y-29023667D01*
X13647857Y-29223667D02*
X13657381Y-29214143D01*
X13676428Y-29185571D01*
X13685952Y-29166524D01*
X13695476Y-29137952D01*
X13705000Y-29090333D01*
X13705000Y-29052238D01*
X13695476Y-29004619D01*
X13685952Y-28976048D01*
X13676428Y-28957000D01*
X13657381Y-28928428D01*
X13647857Y-28918905D01*
X8395000Y-29227000D02*
X8395000Y-29427000D01*
X8295000Y-29327000D02*
X8495000Y-29327000D01*
X8495000Y-29327000D02*
G75*
G03*
X8495000Y-29327000I-100000J0D01*
G01*
X8838333Y-29284143D02*
X8838333Y-29417476D01*
X8790714Y-29207952D02*
X8743095Y-29350809D01*
X8866905Y-29350809D01*
X8943095Y-29398428D02*
X8952619Y-29407952D01*
X8943095Y-29417476D01*
X8933571Y-29407952D01*
X8943095Y-29398428D01*
X8943095Y-29417476D01*
X9019286Y-29217476D02*
X9143095Y-29217476D01*
X9076429Y-29293667D01*
X9105000Y-29293667D01*
X9124048Y-29303190D01*
X9133571Y-29312714D01*
X9143095Y-29331762D01*
X9143095Y-29379381D01*
X9133571Y-29398428D01*
X9124048Y-29407952D01*
X9105000Y-29417476D01*
X9047857Y-29417476D01*
X9028810Y-29407952D01*
X9019286Y-29398428D01*
X9266905Y-29217476D02*
X9285952Y-29217476D01*
X9305000Y-29227000D01*
X9314524Y-29236524D01*
X9324048Y-29255571D01*
X9333571Y-29293667D01*
X9333571Y-29341286D01*
X9324048Y-29379381D01*
X9314524Y-29398428D01*
X9305000Y-29407952D01*
X9285952Y-29417476D01*
X9266905Y-29417476D01*
X9247857Y-29407952D01*
X9238333Y-29398428D01*
X9228810Y-29379381D01*
X9219286Y-29341286D01*
X9219286Y-29293667D01*
X9228810Y-29255571D01*
X9238333Y-29236524D01*
X9247857Y-29227000D01*
X9266905Y-29217476D01*
X9457381Y-29217476D02*
X9476429Y-29217476D01*
X9495476Y-29227000D01*
X9505000Y-29236524D01*
X9514524Y-29255571D01*
X9524048Y-29293667D01*
X9524048Y-29341286D01*
X9514524Y-29379381D01*
X9505000Y-29398428D01*
X9495476Y-29407952D01*
X9476429Y-29417476D01*
X9457381Y-29417476D01*
X9438333Y-29407952D01*
X9428810Y-29398428D01*
X9419286Y-29379381D01*
X9409762Y-29341286D01*
X9409762Y-29293667D01*
X9419286Y-29255571D01*
X9428810Y-29236524D01*
X9438333Y-29227000D01*
X9457381Y-29217476D01*
X9609762Y-29417476D02*
X9609762Y-29284143D01*
X9609762Y-29303190D02*
X9619286Y-29293667D01*
X9638333Y-29284143D01*
X9666905Y-29284143D01*
X9685952Y-29293667D01*
X9695476Y-29312714D01*
X9695476Y-29417476D01*
X9695476Y-29312714D02*
X9705000Y-29293667D01*
X9724048Y-29284143D01*
X9752619Y-29284143D01*
X9771667Y-29293667D01*
X9781190Y-29312714D01*
X9781190Y-29417476D01*
X9876429Y-29417476D02*
X9876429Y-29284143D01*
X9876429Y-29303190D02*
X9885952Y-29293667D01*
X9905000Y-29284143D01*
X9933571Y-29284143D01*
X9952619Y-29293667D01*
X9962143Y-29312714D01*
X9962143Y-29417476D01*
X9962143Y-29312714D02*
X9971667Y-29293667D01*
X9990714Y-29284143D01*
X10019286Y-29284143D01*
X10038333Y-29293667D01*
X10047857Y-29312714D01*
X10047857Y-29417476D01*
X10438333Y-29207952D02*
X10266905Y-29465095D01*
X10695476Y-29217476D02*
X10714524Y-29217476D01*
X10733571Y-29227000D01*
X10743095Y-29236524D01*
X10752619Y-29255571D01*
X10762143Y-29293667D01*
X10762143Y-29341286D01*
X10752619Y-29379381D01*
X10743095Y-29398428D01*
X10733571Y-29407952D01*
X10714524Y-29417476D01*
X10695476Y-29417476D01*
X10676429Y-29407952D01*
X10666905Y-29398428D01*
X10657381Y-29379381D01*
X10647857Y-29341286D01*
X10647857Y-29293667D01*
X10657381Y-29255571D01*
X10666905Y-29236524D01*
X10676429Y-29227000D01*
X10695476Y-29217476D01*
X10847857Y-29398428D02*
X10857381Y-29407952D01*
X10847857Y-29417476D01*
X10838333Y-29407952D01*
X10847857Y-29398428D01*
X10847857Y-29417476D01*
X11047857Y-29417476D02*
X10933571Y-29417476D01*
X10990714Y-29417476D02*
X10990714Y-29217476D01*
X10971667Y-29246048D01*
X10952619Y-29265095D01*
X10933571Y-29274619D01*
X11219286Y-29217476D02*
X11181190Y-29217476D01*
X11162143Y-29227000D01*
X11152619Y-29236524D01*
X11133571Y-29265095D01*
X11124048Y-29303190D01*
X11124048Y-29379381D01*
X11133571Y-29398428D01*
X11143095Y-29407952D01*
X11162143Y-29417476D01*
X11200238Y-29417476D01*
X11219286Y-29407952D01*
X11228809Y-29398428D01*
X11238333Y-29379381D01*
X11238333Y-29331762D01*
X11228809Y-29312714D01*
X11219286Y-29303190D01*
X11200238Y-29293667D01*
X11162143Y-29293667D01*
X11143095Y-29303190D01*
X11133571Y-29312714D01*
X11124048Y-29331762D01*
X11333571Y-29417476D02*
X11371667Y-29417476D01*
X11390714Y-29407952D01*
X11400238Y-29398428D01*
X11419286Y-29369857D01*
X11428809Y-29331762D01*
X11428809Y-29255571D01*
X11419286Y-29236524D01*
X11409762Y-29227000D01*
X11390714Y-29217476D01*
X11352619Y-29217476D01*
X11333571Y-29227000D01*
X11324048Y-29236524D01*
X11314524Y-29255571D01*
X11314524Y-29303190D01*
X11324048Y-29322238D01*
X11333571Y-29331762D01*
X11352619Y-29341286D01*
X11390714Y-29341286D01*
X11409762Y-29331762D01*
X11419286Y-29322238D01*
X11428809Y-29303190D01*
X11495476Y-29217476D02*
X11619286Y-29217476D01*
X11552619Y-29293667D01*
X11581190Y-29293667D01*
X11600238Y-29303190D01*
X11609762Y-29312714D01*
X11619286Y-29331762D01*
X11619286Y-29379381D01*
X11609762Y-29398428D01*
X11600238Y-29407952D01*
X11581190Y-29417476D01*
X11524048Y-29417476D01*
X11505000Y-29407952D01*
X11495476Y-29398428D01*
X11695476Y-29217476D02*
X11695476Y-29255571D01*
X11771667Y-29217476D02*
X11771667Y-29255571D01*
X12066905Y-29493667D02*
X12057381Y-29484143D01*
X12038333Y-29455571D01*
X12028809Y-29436524D01*
X12019286Y-29407952D01*
X12009762Y-29360333D01*
X12009762Y-29322238D01*
X12019286Y-29274619D01*
X12028809Y-29246048D01*
X12038333Y-29227000D01*
X12057381Y-29198428D01*
X12066905Y-29188905D01*
X12247857Y-29417476D02*
X12133571Y-29417476D01*
X12190714Y-29417476D02*
X12190714Y-29217476D01*
X12171667Y-29246048D01*
X12152619Y-29265095D01*
X12133571Y-29274619D01*
X12419286Y-29217476D02*
X12381190Y-29217476D01*
X12362143Y-29227000D01*
X12352619Y-29236524D01*
X12333571Y-29265095D01*
X12324048Y-29303190D01*
X12324048Y-29379381D01*
X12333571Y-29398428D01*
X12343095Y-29407952D01*
X12362143Y-29417476D01*
X12400238Y-29417476D01*
X12419286Y-29407952D01*
X12428809Y-29398428D01*
X12438333Y-29379381D01*
X12438333Y-29331762D01*
X12428809Y-29312714D01*
X12419286Y-29303190D01*
X12400238Y-29293667D01*
X12362143Y-29293667D01*
X12343095Y-29303190D01*
X12333571Y-29312714D01*
X12324048Y-29331762D01*
X12676428Y-29417476D02*
X12676428Y-29217476D01*
X12762143Y-29417476D02*
X12762143Y-29312714D01*
X12752619Y-29293667D01*
X12733571Y-29284143D01*
X12705000Y-29284143D01*
X12685952Y-29293667D01*
X12676428Y-29303190D01*
X12885952Y-29417476D02*
X12866905Y-29407952D01*
X12857381Y-29398428D01*
X12847857Y-29379381D01*
X12847857Y-29322238D01*
X12857381Y-29303190D01*
X12866905Y-29293667D01*
X12885952Y-29284143D01*
X12914524Y-29284143D01*
X12933571Y-29293667D01*
X12943095Y-29303190D01*
X12952619Y-29322238D01*
X12952619Y-29379381D01*
X12943095Y-29398428D01*
X12933571Y-29407952D01*
X12914524Y-29417476D01*
X12885952Y-29417476D01*
X13066905Y-29417476D02*
X13047857Y-29407952D01*
X13038333Y-29388905D01*
X13038333Y-29217476D01*
X13219286Y-29407952D02*
X13200238Y-29417476D01*
X13162143Y-29417476D01*
X13143095Y-29407952D01*
X13133571Y-29388905D01*
X13133571Y-29312714D01*
X13143095Y-29293667D01*
X13162143Y-29284143D01*
X13200238Y-29284143D01*
X13219286Y-29293667D01*
X13228809Y-29312714D01*
X13228809Y-29331762D01*
X13133571Y-29350809D01*
X13305000Y-29407952D02*
X13324048Y-29417476D01*
X13362143Y-29417476D01*
X13381190Y-29407952D01*
X13390714Y-29388905D01*
X13390714Y-29379381D01*
X13381190Y-29360333D01*
X13362143Y-29350809D01*
X13333571Y-29350809D01*
X13314524Y-29341286D01*
X13305000Y-29322238D01*
X13305000Y-29312714D01*
X13314524Y-29293667D01*
X13333571Y-29284143D01*
X13362143Y-29284143D01*
X13381190Y-29293667D01*
X13457381Y-29493667D02*
X13466905Y-29484143D01*
X13485952Y-29455571D01*
X13495476Y-29436524D01*
X13505000Y-29407952D01*
X13514524Y-29360333D01*
X13514524Y-29322238D01*
X13505000Y-29274619D01*
X13495476Y-29246048D01*
X13485952Y-29227000D01*
X13466905Y-29198428D01*
X13457381Y-29188905D01*
M02*
