M48
; DRILL file {KiCad 6.0.9-8da3e8f707~117~ubuntu20.04.1} date fr. 09. des. 2022 kl. 06.03 +0100
; FORMAT={-:-/ absolute / metric / decimal}
; #@! TF.CreationDate,2022-12-09T06:03:14+01:00
; #@! TF.GenerationSoftware,Kicad,Pcbnew,6.0.9-8da3e8f707~117~ubuntu20.04.1
; #@! TF.FileFunction,Plated,1,2,PTH
FMAT,2
METRIC
; #@! TA.AperFunction,Plated,PTH,ViaDrill
T1C0.400
; #@! TA.AperFunction,Plated,PTH,ComponentDrill
T2C0.700
; #@! TA.AperFunction,Plated,PTH,ComponentDrill
T3C0.750
; #@! TA.AperFunction,Plated,PTH,ComponentDrill
T4C0.800
; #@! TA.AperFunction,Plated,PTH,ComponentDrill
T5C0.900
; #@! TA.AperFunction,Plated,PTH,ComponentDrill
T6C1.000
; #@! TA.AperFunction,Plated,PTH,ComponentDrill
T7C1.020
; #@! TA.AperFunction,Plated,PTH,ComponentDrill
T8C1.500
; #@! TA.AperFunction,Plated,PTH,ComponentDrill
T9C4.300
%
G90
G05
T1
X261.5Y-48.0
X265.493Y-77.592
X266.25Y-69.0
X271.25Y-191.0
X274.141Y-72.769
X275.053Y-107.11
X276.75Y-88.75
X279.5Y-94.75
X280.75Y-155.5
X282.5Y-122.5
X283.0Y-69.0
X287.5Y-100.75
X287.589Y-72.773
X288.0Y-81.25
X288.0Y-109.0
X289.5Y-90.0
X294.523Y-96.175
X302.0Y-72.75
X349.25Y-53.0
X367.75Y-107.25
X368.326Y-72.63
X370.495Y-76.107
X377.717Y-42.106
X378.602Y-100.539
X388.899Y-64.826
X406.75Y-154.25
X408.5Y-140.0
X414.75Y-129.0
X418.307Y-49.695
X419.875Y-165.88
X477.25Y-94.5
X480.0Y-111.5
X483.323Y-60.503
T2
X107.92Y-56.0
X113.0Y-56.0
X136.92Y-56.0
X142.0Y-56.0
X165.92Y-56.0
X171.0Y-56.0
X193.92Y-56.0
X199.0Y-56.0
X298.46Y-82.5
X298.54Y-99.5
X303.54Y-82.5
X303.62Y-99.5
X316.46Y-82.5
X317.54Y-99.5
X321.54Y-82.5
X322.62Y-99.5
X421.92Y-54.0
X427.0Y-54.0
X450.92Y-54.0
X456.0Y-54.0
X481.0Y-54.0
X486.08Y-54.0
X509.46Y-54.0
X514.54Y-54.0
T3
X423.365Y-50.34
X425.905Y-50.34
X452.065Y-50.44
X454.605Y-50.44
X481.565Y-50.24
X484.105Y-50.24
X509.18Y-50.44
X511.72Y-50.44
T4
X106.38Y-142.0
X108.0Y-89.0
X108.0Y-118.0
X108.0Y-165.0
X108.0Y-188.0
X112.0Y-212.0
X114.0Y-142.0
X115.62Y-89.0
X115.62Y-118.0
X115.62Y-165.0
X115.62Y-188.0
X119.62Y-212.0
X135.38Y-89.0
X136.0Y-142.0
X136.0Y-188.0
X136.0Y-212.0
X137.0Y-118.0
X137.0Y-165.0
X143.0Y-89.0
X143.62Y-142.0
X143.62Y-188.0
X143.62Y-212.0
X144.62Y-118.0
X144.62Y-165.0
X160.0Y-183.0
X160.0Y-207.0
X160.19Y-138.0
X160.38Y-161.0
X161.0Y-113.0
X165.0Y-88.0
X167.62Y-183.0
X167.62Y-207.0
X167.81Y-138.0
X168.0Y-161.0
X168.62Y-113.0
X172.62Y-88.0
X183.38Y-111.0
X183.81Y-135.0
X184.0Y-159.0
X184.0Y-181.0
X184.0Y-205.0
X191.0Y-111.0
X191.43Y-135.0
X191.62Y-159.0
X191.62Y-181.0
X191.62Y-205.0
X194.0Y-87.0
X201.62Y-87.0
X207.38Y-161.0
X208.0Y-113.0
X208.0Y-137.0
X208.0Y-183.0
X208.0Y-207.0
X215.0Y-161.0
X215.62Y-113.0
X215.62Y-137.0
X215.62Y-183.0
X215.62Y-207.0
X221.0Y-87.0
X228.62Y-87.0
X231.38Y-163.0
X231.38Y-186.0
X232.0Y-114.0
X232.0Y-139.0
X239.0Y-163.0
X239.0Y-186.0
X239.62Y-114.0
X239.62Y-139.0
X246.38Y-203.0
X251.0Y-87.0
X254.0Y-203.0
X255.0Y-163.0
X255.38Y-115.0
X256.0Y-140.0
X256.0Y-186.0
X258.62Y-87.0
X262.62Y-163.0
X263.0Y-115.0
X263.62Y-140.0
X263.62Y-186.0
X267.38Y-216.0
X275.0Y-216.0
X278.0Y-193.0
X278.38Y-148.0
X278.38Y-182.0
X280.0Y-87.0
X280.0Y-116.0
X285.62Y-193.0
X286.0Y-148.0
X286.0Y-182.0
X286.0Y-226.0
X287.62Y-87.0
X287.62Y-116.0
X293.62Y-226.0
X295.94Y-88.9
X295.94Y-92.1
X299.04Y-94.1
X304.04Y-86.0
X304.04Y-95.0
X317.04Y-86.0
X317.04Y-95.0
X322.04Y-86.9
X325.14Y-88.9
X325.14Y-92.1
X329.0Y-227.0
X335.0Y-86.0
X335.0Y-115.0
X336.0Y-148.0
X336.0Y-181.0
X336.62Y-227.0
X337.38Y-195.0
X342.62Y-86.0
X342.62Y-115.0
X343.62Y-148.0
X343.62Y-181.0
X345.0Y-195.0
X350.0Y-215.0
X357.62Y-215.0
X358.38Y-162.0
X359.0Y-139.0
X359.38Y-115.0
X359.38Y-186.0
X364.0Y-86.0
X366.0Y-162.0
X366.62Y-139.0
X367.0Y-115.0
X367.0Y-186.0
X369.38Y-204.0
X371.62Y-86.0
X377.0Y-204.0
X383.0Y-138.0
X383.38Y-115.0
X383.38Y-162.0
X383.38Y-186.0
X390.62Y-138.0
X391.0Y-115.0
X391.0Y-162.0
X391.0Y-186.0
X393.0Y-86.0
X400.62Y-86.0
X406.38Y-112.0
X407.0Y-136.0
X407.0Y-183.0
X407.0Y-207.0
X407.38Y-160.0
X414.0Y-112.0
X414.62Y-136.0
X414.62Y-183.0
X414.62Y-207.0
X415.0Y-160.0
X420.38Y-86.0
X428.0Y-86.0
X430.38Y-110.0
X430.38Y-157.0
X430.38Y-205.0
X431.0Y-181.0
X431.38Y-134.0
X438.0Y-110.0
X438.0Y-157.0
X438.0Y-205.0
X438.62Y-181.0
X439.0Y-134.0
X449.38Y-86.0
X454.0Y-207.0
X454.38Y-115.0
X454.38Y-160.0
X455.0Y-138.0
X455.0Y-184.0
X457.0Y-86.0
X461.62Y-207.0
X462.0Y-115.0
X462.0Y-160.0
X462.62Y-138.0
X462.62Y-184.0
X478.0Y-188.0
X478.0Y-213.0
X478.38Y-86.0
X478.38Y-117.0
X478.38Y-141.0
X478.38Y-165.0
X485.62Y-188.0
X485.62Y-213.0
X486.0Y-86.0
X486.0Y-117.0
X486.0Y-141.0
X486.0Y-165.0
X502.38Y-212.0
X507.0Y-86.0
X507.0Y-165.0
X507.0Y-188.0
X507.38Y-117.0
X507.38Y-140.0
X510.0Y-212.0
X514.62Y-86.0
X514.62Y-165.0
X514.62Y-188.0
X515.0Y-117.0
X515.0Y-140.0
T5
X109.9Y-50.7
X112.44Y-50.7
X138.1Y-51.2
X140.64Y-51.2
X167.4Y-51.0
X169.94Y-51.0
X195.2Y-51.2
X197.74Y-51.2
T6
X223.92Y-53.0
X229.0Y-53.0
X393.46Y-53.0
X398.54Y-53.0
T7
X255.87Y-43.835
X255.87Y-61.615
X256.1Y-50.185
X256.1Y-52.725
X256.1Y-55.265
X258.41Y-43.835
X258.41Y-61.615
X260.95Y-43.835
X260.95Y-61.615
X263.49Y-43.835
X263.49Y-61.615
X266.03Y-43.835
X266.03Y-61.615
X268.57Y-43.835
X268.57Y-61.615
X271.11Y-43.835
X271.11Y-61.615
X273.65Y-43.835
X273.65Y-61.615
X276.19Y-43.835
X276.19Y-61.615
X278.73Y-43.835
X278.73Y-61.615
X281.27Y-43.835
X281.27Y-61.615
X283.81Y-43.835
X283.81Y-61.615
X286.35Y-43.835
X286.35Y-61.615
X288.89Y-43.835
X288.89Y-61.615
X291.43Y-43.835
X291.43Y-61.615
X293.97Y-43.835
X293.97Y-61.615
X296.51Y-43.835
X296.51Y-61.615
X299.05Y-43.835
X299.05Y-61.615
X301.59Y-43.835
X301.59Y-61.615
X304.13Y-43.835
X304.13Y-61.615
X316.87Y-43.835
X316.87Y-61.615
X319.41Y-43.835
X319.41Y-61.615
X321.95Y-43.835
X321.95Y-61.615
X324.49Y-43.835
X324.49Y-61.615
X327.03Y-43.835
X327.03Y-61.615
X329.57Y-43.835
X329.57Y-61.615
X332.11Y-43.835
X332.11Y-61.615
X334.65Y-43.835
X334.65Y-61.615
X337.19Y-43.835
X337.19Y-61.615
X339.73Y-43.835
X339.73Y-61.615
X342.27Y-43.835
X342.27Y-61.615
X344.81Y-43.835
X344.81Y-61.615
X347.35Y-43.835
X347.35Y-61.615
X349.89Y-43.835
X349.89Y-61.615
X352.43Y-43.835
X352.43Y-61.615
X354.97Y-43.835
X354.97Y-61.615
X357.51Y-43.835
X357.51Y-61.615
X360.05Y-43.835
X360.05Y-61.615
X362.59Y-43.835
X362.59Y-61.615
X364.9Y-50.185
X364.9Y-52.725
X364.9Y-55.265
X365.13Y-43.835
X365.13Y-61.615
T8
X107.39Y-73.06
X107.49Y-175.56
X107.59Y-104.06
X107.59Y-151.76
X107.79Y-127.96
X112.29Y-199.46
X113.74Y-70.52
X113.84Y-173.02
X113.94Y-101.52
X113.94Y-149.22
X114.14Y-125.42
X118.64Y-196.92
X135.99Y-73.16
X135.99Y-199.36
X136.09Y-127.96
X136.19Y-104.26
X136.19Y-175.36
X136.49Y-151.66
X142.34Y-70.62
X142.34Y-196.82
X142.44Y-125.42
X142.54Y-101.72
X142.54Y-172.82
X142.84Y-149.12
X159.89Y-123.26
X159.89Y-170.76
X159.99Y-194.56
X160.09Y-146.96
X160.19Y-99.46
X164.79Y-73.16
X166.24Y-120.72
X166.24Y-168.22
X166.34Y-192.02
X166.44Y-144.42
X166.54Y-96.92
X171.14Y-70.62
X183.69Y-144.56
X183.69Y-168.26
X183.69Y-192.26
X183.79Y-96.86
X183.79Y-120.66
X190.04Y-142.02
X190.04Y-165.72
X190.04Y-189.72
X190.14Y-94.32
X190.14Y-118.12
X193.39Y-73.06
X199.74Y-70.52
X207.39Y-146.96
X207.59Y-123.16
X207.59Y-170.86
X207.69Y-99.36
X207.69Y-194.66
X213.74Y-144.42
X213.94Y-120.62
X213.94Y-168.32
X214.04Y-96.82
X214.04Y-192.12
X222.09Y-72.96
X228.44Y-70.42
X231.19Y-173.16
X231.29Y-101.56
X231.29Y-149.26
X231.49Y-125.46
X237.54Y-170.62
X237.64Y-99.02
X237.64Y-146.72
X237.84Y-122.92
X242.81Y-209.815
X249.58Y-210.791
X250.29Y-73.26
X255.09Y-149.36
X255.19Y-125.46
X255.29Y-101.66
X255.29Y-173.16
X256.64Y-70.72
X261.44Y-146.82
X261.54Y-122.92
X261.64Y-99.12
X261.64Y-170.62
X263.51Y-221.615
X270.28Y-222.591
X275.31Y-201.015
X277.74Y-134.92
X277.96Y-168.18
X278.99Y-73.16
X278.99Y-101.66
X280.28Y-141.27
X280.5Y-174.53
X282.08Y-201.991
X284.11Y-233.715
X285.34Y-70.62
X285.34Y-99.12
X290.88Y-234.691
X332.65Y-237.365
X333.82Y-135.16
X333.92Y-168.46
X334.77Y-73.3
X334.97Y-101.8
X336.36Y-141.51
X336.46Y-174.81
X336.88Y-231.991
X341.12Y-70.76
X341.25Y-204.735
X341.32Y-99.26
X345.48Y-199.36
X353.35Y-225.465
X357.58Y-220.091
X358.77Y-149.5
X358.87Y-101.7
X358.97Y-173.2
X359.07Y-125.7
X363.57Y-73.2
X365.12Y-146.96
X365.22Y-99.16
X365.32Y-170.66
X365.42Y-123.16
X369.92Y-70.66
X373.95Y-213.465
X378.18Y-208.091
X382.67Y-101.9
X382.67Y-125.6
X382.77Y-149.4
X382.77Y-173.0
X389.02Y-99.36
X389.02Y-123.06
X389.12Y-146.86
X389.12Y-170.46
X392.17Y-73.3
X398.52Y-70.76
X406.47Y-170.9
X406.57Y-99.5
X406.57Y-194.7
X406.67Y-123.2
X406.67Y-147.2
X412.82Y-168.36
X412.92Y-96.96
X412.92Y-192.16
X413.02Y-120.66
X413.02Y-144.66
X420.71Y-73.32
X427.06Y-70.78
X430.17Y-97.2
X430.33Y-168.42
X430.37Y-144.8
X430.47Y-121.0
X430.47Y-192.1
X436.52Y-94.66
X436.68Y-165.88
X436.72Y-142.26
X436.82Y-118.46
X436.82Y-189.56
X449.37Y-73.4
X453.97Y-194.8
X454.17Y-125.6
X454.27Y-101.8
X454.27Y-147.1
X454.57Y-171.0
X455.72Y-70.86
X460.32Y-192.26
X460.52Y-123.06
X460.62Y-99.26
X460.62Y-144.56
X460.92Y-168.46
X477.77Y-151.8
X477.77Y-199.6
X477.87Y-104.3
X477.87Y-175.5
X477.97Y-73.2
X478.07Y-128.1
X484.12Y-149.26
X484.12Y-197.06
X484.22Y-101.76
X484.22Y-172.96
X484.32Y-70.66
X484.42Y-125.56
X501.67Y-199.7
X506.47Y-151.9
X506.57Y-104.2
X506.57Y-128.0
X506.67Y-73.3
X506.77Y-175.6
X508.02Y-197.16
X512.82Y-149.36
X512.92Y-101.66
X512.92Y-125.46
X513.02Y-70.76
X513.12Y-173.06
T9
X92.1Y-146.1
X92.1Y-255.9
X92.2Y-34.1
X197.5Y-255.9
X197.6Y-34.1
X300.9Y-145.9
X301.3Y-255.7
X302.75Y-32.6
X318.45Y-32.65
X320.0Y-146.0
X320.3Y-255.9
X422.95Y-257.35
X423.0Y-32.65
X526.25Y-145.95
X526.3Y-32.6
X526.3Y-257.35
T0
M30
