%TF.GenerationSoftware,KiCad,Pcbnew,6.0.10-86aedd382b~118~ubuntu22.04.1*%
%TF.CreationDate,2023-01-15T06:45:34+01:00*%
%TF.ProjectId,Europe-ergo,4575726f-7065-42d6-9572-676f2e6b6963,rev?*%
%TF.SameCoordinates,Original*%
%TF.FileFunction,Legend,Bot*%
%TF.FilePolarity,Positive*%
%FSLAX46Y46*%
G04 Gerber Fmt 4.6, Leading zero omitted, Abs format (unit mm)*
G04 Created by KiCad (PCBNEW 6.0.10-86aedd382b~118~ubuntu22.04.1) date 2023-01-15 06:45:34*
%MOMM*%
%LPD*%
G01*
G04 APERTURE LIST*
%ADD10C,0.150000*%
%ADD11C,0.120150*%
%ADD12C,0.127000*%
%ADD13C,0.400000*%
%ADD14C,0.120000*%
%ADD15R,1.600000X1.600000*%
%ADD16O,1.600000X1.600000*%
%ADD17C,7.500000*%
%ADD18C,1.700000*%
%ADD19C,4.000000*%
%ADD20C,2.200000*%
%ADD21R,1.500000X1.500000*%
%ADD22O,1.500000X1.500000*%
%ADD23C,1.400000*%
%ADD24O,1.400000X1.400000*%
%ADD25R,1.800000X1.800000*%
%ADD26O,1.800000X1.800000*%
%ADD27C,1.100000*%
%ADD28R,1.650000X1.650000*%
%ADD29C,1.650000*%
%ADD30O,1.700000X1.700000*%
%ADD31R,1.700000X3.500000*%
%ADD32R,1.700000X1.700000*%
%ADD33R,3.500000X1.700000*%
G04 APERTURE END LIST*
D10*
%TO.C,SW48*%
X394444476Y-54627238D02*
X394587333Y-54579619D01*
X394825428Y-54579619D01*
X394920666Y-54627238D01*
X394968285Y-54674857D01*
X395015904Y-54770095D01*
X395015904Y-54865333D01*
X394968285Y-54960571D01*
X394920666Y-55008190D01*
X394825428Y-55055809D01*
X394634952Y-55103428D01*
X394539714Y-55151047D01*
X394492095Y-55198666D01*
X394444476Y-55293904D01*
X394444476Y-55389142D01*
X394492095Y-55484380D01*
X394539714Y-55532000D01*
X394634952Y-55579619D01*
X394873047Y-55579619D01*
X395015904Y-55532000D01*
X395349238Y-55579619D02*
X395587333Y-54579619D01*
X395777809Y-55293904D01*
X395968285Y-54579619D01*
X396206380Y-55579619D01*
X397015904Y-55246285D02*
X397015904Y-54579619D01*
X396777809Y-55627238D02*
X396539714Y-54912952D01*
X397158761Y-54912952D01*
X397682571Y-55151047D02*
X397587333Y-55198666D01*
X397539714Y-55246285D01*
X397492095Y-55341523D01*
X397492095Y-55389142D01*
X397539714Y-55484380D01*
X397587333Y-55532000D01*
X397682571Y-55579619D01*
X397873047Y-55579619D01*
X397968285Y-55532000D01*
X398015904Y-55484380D01*
X398063523Y-55389142D01*
X398063523Y-55341523D01*
X398015904Y-55246285D01*
X397968285Y-55198666D01*
X397873047Y-55151047D01*
X397682571Y-55151047D01*
X397587333Y-55103428D01*
X397539714Y-55055809D01*
X397492095Y-54960571D01*
X397492095Y-54770095D01*
X397539714Y-54674857D01*
X397587333Y-54627238D01*
X397682571Y-54579619D01*
X397873047Y-54579619D01*
X397968285Y-54627238D01*
X398015904Y-54674857D01*
X398063523Y-54770095D01*
X398063523Y-54960571D01*
X398015904Y-55055809D01*
X397968285Y-55103428D01*
X397873047Y-55151047D01*
D11*
%TO.C,J1*%
X315205496Y-98800085D02*
X315205496Y-99143369D01*
X315228381Y-99212026D01*
X315274153Y-99257797D01*
X315342810Y-99280683D01*
X315388581Y-99280683D01*
X314724898Y-99280683D02*
X314999525Y-99280683D01*
X314862212Y-99280683D02*
X314862212Y-98800085D01*
X314907983Y-98868742D01*
X314953754Y-98914513D01*
X314999525Y-98937399D01*
D10*
%TO.C,U2*%
X279452380Y-51963095D02*
X280261904Y-51963095D01*
X280357142Y-52010714D01*
X280404761Y-52058333D01*
X280452380Y-52153571D01*
X280452380Y-52344047D01*
X280404761Y-52439285D01*
X280357142Y-52486904D01*
X280261904Y-52534523D01*
X279452380Y-52534523D01*
X279547619Y-52963095D02*
X279500000Y-53010714D01*
X279452380Y-53105952D01*
X279452380Y-53344047D01*
X279500000Y-53439285D01*
X279547619Y-53486904D01*
X279642857Y-53534523D01*
X279738095Y-53534523D01*
X279880952Y-53486904D01*
X280452380Y-52915476D01*
X280452380Y-53534523D01*
X287440964Y-38768597D02*
X287171590Y-39037971D01*
X287656463Y-38876346D02*
X286902216Y-38499223D01*
X287279340Y-39253470D01*
X286255719Y-39199595D02*
X286282656Y-39118783D01*
X286363468Y-39037971D01*
X286471218Y-38984096D01*
X286578967Y-38984096D01*
X286659780Y-39011033D01*
X286794467Y-39091845D01*
X286875279Y-39172658D01*
X286956091Y-39307345D01*
X286983028Y-39388157D01*
X286983028Y-39495906D01*
X286929154Y-39603656D01*
X286875279Y-39657531D01*
X286767529Y-39711406D01*
X286713654Y-39711406D01*
X286525093Y-39522844D01*
X286632842Y-39415094D01*
X286525093Y-40007717D02*
X285959407Y-39442032D01*
X286201844Y-40330966D01*
X285636158Y-39765280D01*
X285932470Y-40600340D02*
X285366784Y-40034654D01*
X285232097Y-40169341D01*
X285178223Y-40277091D01*
X285178223Y-40384841D01*
X285205160Y-40465653D01*
X285285972Y-40600340D01*
X285366784Y-40681152D01*
X285501471Y-40761964D01*
X285582284Y-40788902D01*
X285690033Y-40788902D01*
X285797783Y-40735027D01*
X285932470Y-40600340D01*
X291551218Y-64838096D02*
X291578155Y-64757284D01*
X291658967Y-64676471D01*
X291766717Y-64622597D01*
X291874467Y-64622597D01*
X291955279Y-64649534D01*
X292089966Y-64730346D01*
X292170778Y-64811158D01*
X292251590Y-64945845D01*
X292278528Y-65026658D01*
X292278528Y-65134407D01*
X292224653Y-65242157D01*
X292170778Y-65296032D01*
X292063028Y-65349906D01*
X292009154Y-65349906D01*
X291820592Y-65161345D01*
X291928341Y-65053595D01*
X291820592Y-65646218D02*
X291254906Y-65080532D01*
X291039407Y-65296032D01*
X291012470Y-65376844D01*
X291012470Y-65430719D01*
X291039407Y-65511531D01*
X291120219Y-65592343D01*
X291201032Y-65619280D01*
X291254906Y-65619280D01*
X291335719Y-65592343D01*
X291551218Y-65376844D01*
X290635346Y-66077216D02*
X291012470Y-66454340D01*
X290554534Y-65727030D02*
X291093282Y-65996404D01*
X290743096Y-66346590D01*
X283931218Y-64838096D02*
X283958155Y-64757284D01*
X284038967Y-64676471D01*
X284146717Y-64622597D01*
X284254467Y-64622597D01*
X284335279Y-64649534D01*
X284469966Y-64730346D01*
X284550778Y-64811158D01*
X284631590Y-64945845D01*
X284658528Y-65026658D01*
X284658528Y-65134407D01*
X284604653Y-65242157D01*
X284550778Y-65296032D01*
X284443028Y-65349906D01*
X284389154Y-65349906D01*
X284200592Y-65161345D01*
X284308341Y-65053595D01*
X284200592Y-65646218D02*
X283634906Y-65080532D01*
X283419407Y-65296032D01*
X283392470Y-65376844D01*
X283392470Y-65430719D01*
X283419407Y-65511531D01*
X283500219Y-65592343D01*
X283581032Y-65619280D01*
X283634906Y-65619280D01*
X283715719Y-65592343D01*
X283931218Y-65376844D01*
X282826784Y-65888654D02*
X282934534Y-65780905D01*
X283015346Y-65753967D01*
X283069221Y-65753967D01*
X283203908Y-65780905D01*
X283338595Y-65861717D01*
X283554094Y-66077216D01*
X283581032Y-66158028D01*
X283581032Y-66211903D01*
X283554094Y-66292715D01*
X283446345Y-66400465D01*
X283365532Y-66427402D01*
X283311658Y-66427402D01*
X283230845Y-66400465D01*
X283096158Y-66265778D01*
X283069221Y-66184966D01*
X283069221Y-66131091D01*
X283096158Y-66050279D01*
X283203908Y-65942529D01*
X283284720Y-65915592D01*
X283338595Y-65915592D01*
X283419407Y-65942529D01*
X286498155Y-64811158D02*
X286525093Y-64730346D01*
X286605905Y-64649534D01*
X286713654Y-64595659D01*
X286821404Y-64595659D01*
X286902216Y-64622597D01*
X287036903Y-64703409D01*
X287117715Y-64784221D01*
X287198528Y-64918908D01*
X287225465Y-64999720D01*
X287225465Y-65107470D01*
X287171590Y-65215219D01*
X287117715Y-65269094D01*
X287009966Y-65322969D01*
X286956091Y-65322969D01*
X286767529Y-65134407D01*
X286875279Y-65026658D01*
X286767529Y-65619280D02*
X286201844Y-65053595D01*
X286444280Y-65942529D01*
X285878595Y-65376844D01*
X286174906Y-66211903D02*
X285609221Y-65646218D01*
X285474534Y-65780905D01*
X285420659Y-65888654D01*
X285420659Y-65996404D01*
X285447597Y-66077216D01*
X285528409Y-66211903D01*
X285609221Y-66292715D01*
X285743908Y-66373528D01*
X285824720Y-66400465D01*
X285932470Y-66400465D01*
X286040219Y-66346590D01*
X286174906Y-66211903D01*
X268960592Y-64968722D02*
X268987529Y-64887910D01*
X269068341Y-64807097D01*
X269176091Y-64753223D01*
X269283841Y-64753223D01*
X269364653Y-64780160D01*
X269499340Y-64860972D01*
X269580152Y-64941784D01*
X269660964Y-65076471D01*
X269687902Y-65157284D01*
X269687902Y-65265033D01*
X269634027Y-65372783D01*
X269580152Y-65426658D01*
X269472402Y-65480532D01*
X269418528Y-65480532D01*
X269229966Y-65291971D01*
X269337715Y-65184221D01*
X269229966Y-65776844D02*
X268664280Y-65211158D01*
X268448781Y-65426658D01*
X268421844Y-65507470D01*
X268421844Y-65561345D01*
X268448781Y-65642157D01*
X268529593Y-65722969D01*
X268610406Y-65749906D01*
X268664280Y-65749906D01*
X268745093Y-65722969D01*
X268960592Y-65507470D01*
X268367969Y-66638841D02*
X268691218Y-66315592D01*
X268529593Y-66477216D02*
X267963908Y-65911531D01*
X268098595Y-65938468D01*
X268206345Y-65938468D01*
X268287157Y-65911531D01*
X267829221Y-67177589D02*
X268152470Y-66854340D01*
X267990845Y-67015964D02*
X267425160Y-66450279D01*
X267559847Y-66477216D01*
X267667597Y-66477216D01*
X267748409Y-66450279D01*
X299198155Y-64811158D02*
X299225093Y-64730346D01*
X299305905Y-64649534D01*
X299413654Y-64595659D01*
X299521404Y-64595659D01*
X299602216Y-64622597D01*
X299736903Y-64703409D01*
X299817715Y-64784221D01*
X299898528Y-64918908D01*
X299925465Y-64999720D01*
X299925465Y-65107470D01*
X299871590Y-65215219D01*
X299817715Y-65269094D01*
X299709966Y-65322969D01*
X299656091Y-65322969D01*
X299467529Y-65134407D01*
X299575279Y-65026658D01*
X299467529Y-65619280D02*
X298901844Y-65053595D01*
X299144280Y-65942529D01*
X298578595Y-65376844D01*
X298874906Y-66211903D02*
X298309221Y-65646218D01*
X298174534Y-65780905D01*
X298120659Y-65888654D01*
X298120659Y-65996404D01*
X298147597Y-66077216D01*
X298228409Y-66211903D01*
X298309221Y-66292715D01*
X298443908Y-66373528D01*
X298524720Y-66400465D01*
X298632470Y-66400465D01*
X298740219Y-66346590D01*
X298874906Y-66211903D01*
X258800592Y-38714722D02*
X258827529Y-38633910D01*
X258908341Y-38553097D01*
X259016091Y-38499223D01*
X259123841Y-38499223D01*
X259204653Y-38526160D01*
X259339340Y-38606972D01*
X259420152Y-38687784D01*
X259500964Y-38822471D01*
X259527902Y-38903284D01*
X259527902Y-39011033D01*
X259474027Y-39118783D01*
X259420152Y-39172658D01*
X259312402Y-39226532D01*
X259258528Y-39226532D01*
X259069966Y-39037971D01*
X259177715Y-38930221D01*
X259069966Y-39522844D02*
X258504280Y-38957158D01*
X258288781Y-39172658D01*
X258261844Y-39253470D01*
X258261844Y-39307345D01*
X258288781Y-39388157D01*
X258369593Y-39468969D01*
X258450406Y-39495906D01*
X258504280Y-39495906D01*
X258585093Y-39468969D01*
X258800592Y-39253470D01*
X258207969Y-40384841D02*
X258531218Y-40061592D01*
X258369593Y-40223216D02*
X257803908Y-39657531D01*
X257938595Y-39684468D01*
X258046345Y-39684468D01*
X258127157Y-39657531D01*
X257453722Y-40007717D02*
X257076598Y-40384841D01*
X257884720Y-40708089D01*
X304927309Y-38078129D02*
X305304433Y-38832377D01*
X304550186Y-38455253D01*
X304442436Y-39101751D02*
X304388561Y-39209500D01*
X304388561Y-39263375D01*
X304415499Y-39344187D01*
X304496311Y-39424999D01*
X304577123Y-39451937D01*
X304630998Y-39451937D01*
X304711810Y-39424999D01*
X304927309Y-39209500D01*
X304361624Y-38643815D01*
X304173062Y-38832377D01*
X304146125Y-38913189D01*
X304146125Y-38967064D01*
X304173062Y-39047876D01*
X304226937Y-39101751D01*
X304307749Y-39128688D01*
X304361624Y-39128688D01*
X304442436Y-39101751D01*
X304630998Y-38913189D01*
X303795938Y-39209500D02*
X304253874Y-39667436D01*
X304280812Y-39748248D01*
X304280812Y-39802123D01*
X304253874Y-39882935D01*
X304146125Y-39990685D01*
X304065312Y-40017622D01*
X304011438Y-40017622D01*
X303930625Y-39990685D01*
X303472690Y-39532749D01*
X303769001Y-40313934D02*
X303715126Y-40421683D01*
X303580439Y-40556370D01*
X303499627Y-40583308D01*
X303445752Y-40583308D01*
X303364940Y-40556370D01*
X303311065Y-40502496D01*
X303284128Y-40421683D01*
X303284128Y-40367809D01*
X303311065Y-40286996D01*
X303391877Y-40152309D01*
X303418815Y-40071497D01*
X303418815Y-40017622D01*
X303391877Y-39936810D01*
X303338003Y-39882935D01*
X303257190Y-39855998D01*
X303203316Y-39855998D01*
X303122503Y-39882935D01*
X302987816Y-40017622D01*
X302933942Y-40125372D01*
X289534592Y-38714722D02*
X289561529Y-38633910D01*
X289642341Y-38553097D01*
X289750091Y-38499223D01*
X289857841Y-38499223D01*
X289938653Y-38526160D01*
X290073340Y-38606972D01*
X290154152Y-38687784D01*
X290234964Y-38822471D01*
X290261902Y-38903284D01*
X290261902Y-39011033D01*
X290208027Y-39118783D01*
X290154152Y-39172658D01*
X290046402Y-39226532D01*
X289992528Y-39226532D01*
X289803966Y-39037971D01*
X289911715Y-38930221D01*
X289803966Y-39522844D02*
X289238280Y-38957158D01*
X289022781Y-39172658D01*
X288995844Y-39253470D01*
X288995844Y-39307345D01*
X289022781Y-39388157D01*
X289103593Y-39468969D01*
X289184406Y-39495906D01*
X289238280Y-39495906D01*
X289319093Y-39468969D01*
X289534592Y-39253470D01*
X288753407Y-39549781D02*
X288699532Y-39549781D01*
X288618720Y-39576719D01*
X288484033Y-39711406D01*
X288457096Y-39792218D01*
X288457096Y-39846093D01*
X288484033Y-39926905D01*
X288537908Y-39980780D01*
X288645658Y-40034654D01*
X289292155Y-40034654D01*
X288941969Y-40384841D01*
X288295471Y-40384841D02*
X288322409Y-40304028D01*
X288322409Y-40250154D01*
X288295471Y-40169341D01*
X288268534Y-40142404D01*
X288187722Y-40115467D01*
X288133847Y-40115467D01*
X288053035Y-40142404D01*
X287945285Y-40250154D01*
X287918348Y-40330966D01*
X287918348Y-40384841D01*
X287945285Y-40465653D01*
X287972223Y-40492590D01*
X288053035Y-40519528D01*
X288106910Y-40519528D01*
X288187722Y-40492590D01*
X288295471Y-40384841D01*
X288376284Y-40357903D01*
X288430158Y-40357903D01*
X288510971Y-40384841D01*
X288618720Y-40492590D01*
X288645658Y-40573402D01*
X288645658Y-40627277D01*
X288618720Y-40708089D01*
X288510971Y-40815839D01*
X288430158Y-40842776D01*
X288376284Y-40842776D01*
X288295471Y-40815839D01*
X288187722Y-40708089D01*
X288160784Y-40627277D01*
X288160784Y-40573402D01*
X288187722Y-40492590D01*
X273798155Y-64811158D02*
X273825093Y-64730346D01*
X273905905Y-64649534D01*
X274013654Y-64595659D01*
X274121404Y-64595659D01*
X274202216Y-64622597D01*
X274336903Y-64703409D01*
X274417715Y-64784221D01*
X274498528Y-64918908D01*
X274525465Y-64999720D01*
X274525465Y-65107470D01*
X274471590Y-65215219D01*
X274417715Y-65269094D01*
X274309966Y-65322969D01*
X274256091Y-65322969D01*
X274067529Y-65134407D01*
X274175279Y-65026658D01*
X274067529Y-65619280D02*
X273501844Y-65053595D01*
X273744280Y-65942529D01*
X273178595Y-65376844D01*
X273474906Y-66211903D02*
X272909221Y-65646218D01*
X272774534Y-65780905D01*
X272720659Y-65888654D01*
X272720659Y-65996404D01*
X272747597Y-66077216D01*
X272828409Y-66211903D01*
X272909221Y-66292715D01*
X273043908Y-66373528D01*
X273124720Y-66400465D01*
X273232470Y-66400465D01*
X273340219Y-66346590D01*
X273474906Y-66211903D01*
X289011218Y-64838096D02*
X289038155Y-64757284D01*
X289118967Y-64676471D01*
X289226717Y-64622597D01*
X289334467Y-64622597D01*
X289415279Y-64649534D01*
X289549966Y-64730346D01*
X289630778Y-64811158D01*
X289711590Y-64945845D01*
X289738528Y-65026658D01*
X289738528Y-65134407D01*
X289684653Y-65242157D01*
X289630778Y-65296032D01*
X289523028Y-65349906D01*
X289469154Y-65349906D01*
X289280592Y-65161345D01*
X289388341Y-65053595D01*
X289280592Y-65646218D02*
X288714906Y-65080532D01*
X288499407Y-65296032D01*
X288472470Y-65376844D01*
X288472470Y-65430719D01*
X288499407Y-65511531D01*
X288580219Y-65592343D01*
X288661032Y-65619280D01*
X288714906Y-65619280D01*
X288795719Y-65592343D01*
X289011218Y-65376844D01*
X287879847Y-65915592D02*
X288149221Y-65646218D01*
X288445532Y-65888654D01*
X288391658Y-65888654D01*
X288310845Y-65915592D01*
X288176158Y-66050279D01*
X288149221Y-66131091D01*
X288149221Y-66184966D01*
X288176158Y-66265778D01*
X288310845Y-66400465D01*
X288391658Y-66427402D01*
X288445532Y-66427402D01*
X288526345Y-66400465D01*
X288661032Y-66265778D01*
X288687969Y-66184966D01*
X288687969Y-66131091D01*
X294290592Y-38814847D02*
X293940406Y-39165033D01*
X294344467Y-39191971D01*
X294263654Y-39272783D01*
X294236717Y-39353595D01*
X294236717Y-39407470D01*
X294263654Y-39488282D01*
X294398341Y-39622969D01*
X294479154Y-39649906D01*
X294533028Y-39649906D01*
X294613841Y-39622969D01*
X294775465Y-39461345D01*
X294802402Y-39380532D01*
X294802402Y-39326658D01*
X293778781Y-39326658D02*
X294155905Y-40080905D01*
X293401658Y-39703781D01*
X293266971Y-39838468D02*
X292916784Y-40188654D01*
X293320845Y-40215592D01*
X293240033Y-40296404D01*
X293213096Y-40377216D01*
X293213096Y-40431091D01*
X293240033Y-40511903D01*
X293374720Y-40646590D01*
X293455532Y-40673528D01*
X293509407Y-40673528D01*
X293590219Y-40646590D01*
X293751844Y-40484966D01*
X293778781Y-40404154D01*
X293778781Y-40350279D01*
X301721218Y-64938096D02*
X301748155Y-64857284D01*
X301828967Y-64776471D01*
X301936717Y-64722597D01*
X302044467Y-64722597D01*
X302125279Y-64749534D01*
X302259966Y-64830346D01*
X302340778Y-64911158D01*
X302421590Y-65045845D01*
X302448528Y-65126658D01*
X302448528Y-65234407D01*
X302394653Y-65342157D01*
X302340778Y-65396032D01*
X302233028Y-65449906D01*
X302179154Y-65449906D01*
X301990592Y-65261345D01*
X302098341Y-65153595D01*
X301990592Y-65746218D02*
X301424906Y-65180532D01*
X301209407Y-65396032D01*
X301182470Y-65476844D01*
X301182470Y-65530719D01*
X301209407Y-65611531D01*
X301290219Y-65692343D01*
X301371032Y-65719280D01*
X301424906Y-65719280D01*
X301505719Y-65692343D01*
X301721218Y-65476844D01*
X301128595Y-66608215D02*
X301451844Y-66284966D01*
X301290219Y-66446590D02*
X300724534Y-65880905D01*
X300859221Y-65907842D01*
X300966971Y-65907842D01*
X301047783Y-65880905D01*
X281660592Y-38714722D02*
X281687529Y-38633910D01*
X281768341Y-38553097D01*
X281876091Y-38499223D01*
X281983841Y-38499223D01*
X282064653Y-38526160D01*
X282199340Y-38606972D01*
X282280152Y-38687784D01*
X282360964Y-38822471D01*
X282387902Y-38903284D01*
X282387902Y-39011033D01*
X282334027Y-39118783D01*
X282280152Y-39172658D01*
X282172402Y-39226532D01*
X282118528Y-39226532D01*
X281929966Y-39037971D01*
X282037715Y-38930221D01*
X281929966Y-39522844D02*
X281364280Y-38957158D01*
X281148781Y-39172658D01*
X281121844Y-39253470D01*
X281121844Y-39307345D01*
X281148781Y-39388157D01*
X281229593Y-39468969D01*
X281310406Y-39495906D01*
X281364280Y-39495906D01*
X281445093Y-39468969D01*
X281660592Y-39253470D01*
X280879407Y-39549781D02*
X280825532Y-39549781D01*
X280744720Y-39576719D01*
X280610033Y-39711406D01*
X280583096Y-39792218D01*
X280583096Y-39846093D01*
X280610033Y-39926905D01*
X280663908Y-39980780D01*
X280771658Y-40034654D01*
X281418155Y-40034654D01*
X281067969Y-40384841D01*
X280017410Y-40304028D02*
X280125160Y-40196279D01*
X280205972Y-40169341D01*
X280259847Y-40169341D01*
X280394534Y-40196279D01*
X280529221Y-40277091D01*
X280744720Y-40492590D01*
X280771658Y-40573402D01*
X280771658Y-40627277D01*
X280744720Y-40708089D01*
X280636971Y-40815839D01*
X280556158Y-40842776D01*
X280502284Y-40842776D01*
X280421471Y-40815839D01*
X280286784Y-40681152D01*
X280259847Y-40600340D01*
X280259847Y-40546465D01*
X280286784Y-40465653D01*
X280394534Y-40357903D01*
X280475346Y-40330966D01*
X280529221Y-40330966D01*
X280610033Y-40357903D01*
X254123809Y-45429761D02*
X254161904Y-45544047D01*
X254161904Y-45734523D01*
X254123809Y-45810714D01*
X254085714Y-45848809D01*
X254009523Y-45886904D01*
X253933333Y-45886904D01*
X253857142Y-45848809D01*
X253819047Y-45810714D01*
X253780952Y-45734523D01*
X253742857Y-45582142D01*
X253704761Y-45505952D01*
X253666666Y-45467857D01*
X253590476Y-45429761D01*
X253514285Y-45429761D01*
X253438095Y-45467857D01*
X253400000Y-45505952D01*
X253361904Y-45582142D01*
X253361904Y-45772619D01*
X253400000Y-45886904D01*
X253361904Y-46153571D02*
X254161904Y-46344047D01*
X253590476Y-46496428D01*
X254161904Y-46648809D01*
X253361904Y-46839285D01*
X254161904Y-47144047D02*
X253361904Y-47144047D01*
X253361904Y-47334523D01*
X253400000Y-47448809D01*
X253476190Y-47525000D01*
X253552380Y-47563095D01*
X253704761Y-47601190D01*
X253819047Y-47601190D01*
X253971428Y-47563095D01*
X254047619Y-47525000D01*
X254123809Y-47448809D01*
X254161904Y-47334523D01*
X254161904Y-47144047D01*
X254161904Y-47944047D02*
X253361904Y-47944047D01*
X253361904Y-48477380D02*
X253361904Y-48629761D01*
X253400000Y-48705952D01*
X253476190Y-48782142D01*
X253628571Y-48820238D01*
X253895238Y-48820238D01*
X254047619Y-48782142D01*
X254123809Y-48705952D01*
X254161904Y-48629761D01*
X254161904Y-48477380D01*
X254123809Y-48401190D01*
X254047619Y-48325000D01*
X253895238Y-48286904D01*
X253628571Y-48286904D01*
X253476190Y-48325000D01*
X253400000Y-48401190D01*
X253361904Y-48477380D01*
X298358308Y-37247131D02*
X298008122Y-37597317D01*
X298412183Y-37624255D01*
X298331370Y-37705067D01*
X298304433Y-37785879D01*
X298304433Y-37839754D01*
X298331370Y-37920566D01*
X298466057Y-38055253D01*
X298546870Y-38082190D01*
X298600744Y-38082190D01*
X298681557Y-38055253D01*
X298843181Y-37893629D01*
X298870118Y-37812816D01*
X298870118Y-37758942D01*
X297846497Y-37758942D02*
X298223621Y-38513189D01*
X297469374Y-38136065D01*
X297334687Y-38270752D02*
X296984500Y-38620938D01*
X297388561Y-38647876D01*
X297307749Y-38728688D01*
X297280812Y-38809500D01*
X297280812Y-38863375D01*
X297307749Y-38944187D01*
X297442436Y-39078874D01*
X297523248Y-39105812D01*
X297577123Y-39105812D01*
X297657935Y-39078874D01*
X297819560Y-38917250D01*
X297846497Y-38836438D01*
X297846497Y-38782563D01*
X297496311Y-39348248D02*
X297065312Y-39779247D01*
X296580439Y-39563748D02*
X296391877Y-39752309D01*
X296607377Y-40129433D02*
X296876751Y-39860059D01*
X296311065Y-39294374D01*
X296041691Y-39563748D01*
X296364940Y-40371870D02*
X295799255Y-39806184D01*
X296041691Y-40695118D01*
X295476006Y-40129433D01*
X271490592Y-38714722D02*
X271517529Y-38633910D01*
X271598341Y-38553097D01*
X271706091Y-38499223D01*
X271813841Y-38499223D01*
X271894653Y-38526160D01*
X272029340Y-38606972D01*
X272110152Y-38687784D01*
X272190964Y-38822471D01*
X272217902Y-38903284D01*
X272217902Y-39011033D01*
X272164027Y-39118783D01*
X272110152Y-39172658D01*
X272002402Y-39226532D01*
X271948528Y-39226532D01*
X271759966Y-39037971D01*
X271867715Y-38930221D01*
X271759966Y-39522844D02*
X271194280Y-38957158D01*
X270978781Y-39172658D01*
X270951844Y-39253470D01*
X270951844Y-39307345D01*
X270978781Y-39388157D01*
X271059593Y-39468969D01*
X271140406Y-39495906D01*
X271194280Y-39495906D01*
X271275093Y-39468969D01*
X271490592Y-39253470D01*
X270709407Y-39549781D02*
X270655532Y-39549781D01*
X270574720Y-39576719D01*
X270440033Y-39711406D01*
X270413096Y-39792218D01*
X270413096Y-39846093D01*
X270440033Y-39926905D01*
X270493908Y-39980780D01*
X270601658Y-40034654D01*
X271248155Y-40034654D01*
X270897969Y-40384841D01*
X270359221Y-40923589D02*
X270682470Y-40600340D01*
X270520845Y-40761964D02*
X269955160Y-40196279D01*
X270089847Y-40223216D01*
X270197597Y-40223216D01*
X270278409Y-40196279D01*
X266420592Y-38714722D02*
X266447529Y-38633910D01*
X266528341Y-38553097D01*
X266636091Y-38499223D01*
X266743841Y-38499223D01*
X266824653Y-38526160D01*
X266959340Y-38606972D01*
X267040152Y-38687784D01*
X267120964Y-38822471D01*
X267147902Y-38903284D01*
X267147902Y-39011033D01*
X267094027Y-39118783D01*
X267040152Y-39172658D01*
X266932402Y-39226532D01*
X266878528Y-39226532D01*
X266689966Y-39037971D01*
X266797715Y-38930221D01*
X266689966Y-39522844D02*
X266124280Y-38957158D01*
X265908781Y-39172658D01*
X265881844Y-39253470D01*
X265881844Y-39307345D01*
X265908781Y-39388157D01*
X265989593Y-39468969D01*
X266070406Y-39495906D01*
X266124280Y-39495906D01*
X266205093Y-39468969D01*
X266420592Y-39253470D01*
X265827969Y-40384841D02*
X266151218Y-40061592D01*
X265989593Y-40223216D02*
X265423908Y-39657531D01*
X265558595Y-39684468D01*
X265666345Y-39684468D01*
X265747157Y-39657531D01*
X265558595Y-40654215D02*
X265450845Y-40761964D01*
X265370033Y-40788902D01*
X265316158Y-40788902D01*
X265181471Y-40761964D01*
X265046784Y-40681152D01*
X264831285Y-40465653D01*
X264804348Y-40384841D01*
X264804348Y-40330966D01*
X264831285Y-40250154D01*
X264939035Y-40142404D01*
X265019847Y-40115467D01*
X265073722Y-40115467D01*
X265154534Y-40142404D01*
X265289221Y-40277091D01*
X265316158Y-40357903D01*
X265316158Y-40411778D01*
X265289221Y-40492590D01*
X265181471Y-40600340D01*
X265100659Y-40627277D01*
X265046784Y-40627277D01*
X264965972Y-40600340D01*
X294091218Y-64838096D02*
X294118155Y-64757284D01*
X294198967Y-64676471D01*
X294306717Y-64622597D01*
X294414467Y-64622597D01*
X294495279Y-64649534D01*
X294629966Y-64730346D01*
X294710778Y-64811158D01*
X294791590Y-64945845D01*
X294818528Y-65026658D01*
X294818528Y-65134407D01*
X294764653Y-65242157D01*
X294710778Y-65296032D01*
X294603028Y-65349906D01*
X294549154Y-65349906D01*
X294360592Y-65161345D01*
X294468341Y-65053595D01*
X294360592Y-65646218D02*
X293794906Y-65080532D01*
X293579407Y-65296032D01*
X293552470Y-65376844D01*
X293552470Y-65430719D01*
X293579407Y-65511531D01*
X293660219Y-65592343D01*
X293741032Y-65619280D01*
X293794906Y-65619280D01*
X293875719Y-65592343D01*
X294091218Y-65376844D01*
X293283096Y-65592343D02*
X292932910Y-65942529D01*
X293336971Y-65969467D01*
X293256158Y-66050279D01*
X293229221Y-66131091D01*
X293229221Y-66184966D01*
X293256158Y-66265778D01*
X293390845Y-66400465D01*
X293471658Y-66427402D01*
X293525532Y-66427402D01*
X293606345Y-66400465D01*
X293767969Y-66238841D01*
X293794906Y-66158028D01*
X293794906Y-66104154D01*
X261098155Y-39211158D02*
X261125093Y-39130346D01*
X261205905Y-39049534D01*
X261313654Y-38995659D01*
X261421404Y-38995659D01*
X261502216Y-39022597D01*
X261636903Y-39103409D01*
X261717715Y-39184221D01*
X261798528Y-39318908D01*
X261825465Y-39399720D01*
X261825465Y-39507470D01*
X261771590Y-39615219D01*
X261717715Y-39669094D01*
X261609966Y-39722969D01*
X261556091Y-39722969D01*
X261367529Y-39534407D01*
X261475279Y-39426658D01*
X261367529Y-40019280D02*
X260801844Y-39453595D01*
X261044280Y-40342529D01*
X260478595Y-39776844D01*
X260774906Y-40611903D02*
X260209221Y-40046218D01*
X260074534Y-40180905D01*
X260020659Y-40288654D01*
X260020659Y-40396404D01*
X260047597Y-40477216D01*
X260128409Y-40611903D01*
X260209221Y-40692715D01*
X260343908Y-40773528D01*
X260424720Y-40800465D01*
X260532470Y-40800465D01*
X260640219Y-40746590D01*
X260774906Y-40611903D01*
X266420592Y-64968722D02*
X266447529Y-64887910D01*
X266528341Y-64807097D01*
X266636091Y-64753223D01*
X266743841Y-64753223D01*
X266824653Y-64780160D01*
X266959340Y-64860972D01*
X267040152Y-64941784D01*
X267120964Y-65076471D01*
X267147902Y-65157284D01*
X267147902Y-65265033D01*
X267094027Y-65372783D01*
X267040152Y-65426658D01*
X266932402Y-65480532D01*
X266878528Y-65480532D01*
X266689966Y-65291971D01*
X266797715Y-65184221D01*
X266689966Y-65776844D02*
X266124280Y-65211158D01*
X265908781Y-65426658D01*
X265881844Y-65507470D01*
X265881844Y-65561345D01*
X265908781Y-65642157D01*
X265989593Y-65722969D01*
X266070406Y-65749906D01*
X266124280Y-65749906D01*
X266205093Y-65722969D01*
X266420592Y-65507470D01*
X265827969Y-66638841D02*
X266151218Y-66315592D01*
X265989593Y-66477216D02*
X265423908Y-65911531D01*
X265558595Y-65938468D01*
X265666345Y-65938468D01*
X265747157Y-65911531D01*
X265100659Y-66342529D02*
X265046784Y-66342529D01*
X264965972Y-66369467D01*
X264831285Y-66504154D01*
X264804348Y-66584966D01*
X264804348Y-66638841D01*
X264831285Y-66719653D01*
X264885160Y-66773528D01*
X264992910Y-66827402D01*
X265639407Y-66827402D01*
X265289221Y-67177589D01*
X299198155Y-39211158D02*
X299225093Y-39130346D01*
X299305905Y-39049534D01*
X299413654Y-38995659D01*
X299521404Y-38995659D01*
X299602216Y-39022597D01*
X299736903Y-39103409D01*
X299817715Y-39184221D01*
X299898528Y-39318908D01*
X299925465Y-39399720D01*
X299925465Y-39507470D01*
X299871590Y-39615219D01*
X299817715Y-39669094D01*
X299709966Y-39722969D01*
X299656091Y-39722969D01*
X299467529Y-39534407D01*
X299575279Y-39426658D01*
X299467529Y-40019280D02*
X298901844Y-39453595D01*
X299144280Y-40342529D01*
X298578595Y-39776844D01*
X298874906Y-40611903D02*
X298309221Y-40046218D01*
X298174534Y-40180905D01*
X298120659Y-40288654D01*
X298120659Y-40396404D01*
X298147597Y-40477216D01*
X298228409Y-40611903D01*
X298309221Y-40692715D01*
X298443908Y-40773528D01*
X298524720Y-40800465D01*
X298632470Y-40800465D01*
X298740219Y-40746590D01*
X298874906Y-40611903D01*
X268960592Y-38714722D02*
X268987529Y-38633910D01*
X269068341Y-38553097D01*
X269176091Y-38499223D01*
X269283841Y-38499223D01*
X269364653Y-38526160D01*
X269499340Y-38606972D01*
X269580152Y-38687784D01*
X269660964Y-38822471D01*
X269687902Y-38903284D01*
X269687902Y-39011033D01*
X269634027Y-39118783D01*
X269580152Y-39172658D01*
X269472402Y-39226532D01*
X269418528Y-39226532D01*
X269229966Y-39037971D01*
X269337715Y-38930221D01*
X269229966Y-39522844D02*
X268664280Y-38957158D01*
X268448781Y-39172658D01*
X268421844Y-39253470D01*
X268421844Y-39307345D01*
X268448781Y-39388157D01*
X268529593Y-39468969D01*
X268610406Y-39495906D01*
X268664280Y-39495906D01*
X268745093Y-39468969D01*
X268960592Y-39253470D01*
X268179407Y-39549781D02*
X268125532Y-39549781D01*
X268044720Y-39576719D01*
X267910033Y-39711406D01*
X267883096Y-39792218D01*
X267883096Y-39846093D01*
X267910033Y-39926905D01*
X267963908Y-39980780D01*
X268071658Y-40034654D01*
X268718155Y-40034654D01*
X268367969Y-40384841D01*
X267452097Y-40169341D02*
X267398223Y-40223216D01*
X267371285Y-40304028D01*
X267371285Y-40357903D01*
X267398223Y-40438715D01*
X267479035Y-40573402D01*
X267613722Y-40708089D01*
X267748409Y-40788902D01*
X267829221Y-40815839D01*
X267883096Y-40815839D01*
X267963908Y-40788902D01*
X268017783Y-40735027D01*
X268044720Y-40654215D01*
X268044720Y-40600340D01*
X268017783Y-40519528D01*
X267936971Y-40384841D01*
X267802284Y-40250154D01*
X267667597Y-40169341D01*
X267586784Y-40142404D01*
X267532910Y-40142404D01*
X267452097Y-40169341D01*
X273798155Y-39211158D02*
X273825093Y-39130346D01*
X273905905Y-39049534D01*
X274013654Y-38995659D01*
X274121404Y-38995659D01*
X274202216Y-39022597D01*
X274336903Y-39103409D01*
X274417715Y-39184221D01*
X274498528Y-39318908D01*
X274525465Y-39399720D01*
X274525465Y-39507470D01*
X274471590Y-39615219D01*
X274417715Y-39669094D01*
X274309966Y-39722969D01*
X274256091Y-39722969D01*
X274067529Y-39534407D01*
X274175279Y-39426658D01*
X274067529Y-40019280D02*
X273501844Y-39453595D01*
X273744280Y-40342529D01*
X273178595Y-39776844D01*
X273474906Y-40611903D02*
X272909221Y-40046218D01*
X272774534Y-40180905D01*
X272720659Y-40288654D01*
X272720659Y-40396404D01*
X272747597Y-40477216D01*
X272828409Y-40611903D01*
X272909221Y-40692715D01*
X273043908Y-40773528D01*
X273124720Y-40800465D01*
X273232470Y-40800465D01*
X273340219Y-40746590D01*
X273474906Y-40611903D01*
X256260592Y-64822722D02*
X256287529Y-64741910D01*
X256368341Y-64661097D01*
X256476091Y-64607223D01*
X256583841Y-64607223D01*
X256664653Y-64634160D01*
X256799340Y-64714972D01*
X256880152Y-64795784D01*
X256960964Y-64930471D01*
X256987902Y-65011284D01*
X256987902Y-65119033D01*
X256934027Y-65226783D01*
X256880152Y-65280658D01*
X256772402Y-65334532D01*
X256718528Y-65334532D01*
X256529966Y-65145971D01*
X256637715Y-65038221D01*
X256529966Y-65630844D02*
X255964280Y-65065158D01*
X255748781Y-65280658D01*
X255721844Y-65361470D01*
X255721844Y-65415345D01*
X255748781Y-65496157D01*
X255829593Y-65576969D01*
X255910406Y-65603906D01*
X255964280Y-65603906D01*
X256045093Y-65576969D01*
X256260592Y-65361470D01*
X255667969Y-66492841D02*
X255991218Y-66169592D01*
X255829593Y-66331216D02*
X255263908Y-65765531D01*
X255398595Y-65792468D01*
X255506345Y-65792468D01*
X255587157Y-65765531D01*
X254590473Y-66438966D02*
X254859847Y-66169592D01*
X255156158Y-66412028D01*
X255102284Y-66412028D01*
X255021471Y-66438966D01*
X254886784Y-66573653D01*
X254859847Y-66654465D01*
X254859847Y-66708340D01*
X254886784Y-66789152D01*
X255021471Y-66923839D01*
X255102284Y-66950776D01*
X255156158Y-66950776D01*
X255236971Y-66923839D01*
X255371658Y-66789152D01*
X255398595Y-66708340D01*
X255398595Y-66654465D01*
X304251218Y-64838096D02*
X304278155Y-64757284D01*
X304358967Y-64676471D01*
X304466717Y-64622597D01*
X304574467Y-64622597D01*
X304655279Y-64649534D01*
X304789966Y-64730346D01*
X304870778Y-64811158D01*
X304951590Y-64945845D01*
X304978528Y-65026658D01*
X304978528Y-65134407D01*
X304924653Y-65242157D01*
X304870778Y-65296032D01*
X304763028Y-65349906D01*
X304709154Y-65349906D01*
X304520592Y-65161345D01*
X304628341Y-65053595D01*
X304520592Y-65646218D02*
X303954906Y-65080532D01*
X303739407Y-65296032D01*
X303712470Y-65376844D01*
X303712470Y-65430719D01*
X303739407Y-65511531D01*
X303820219Y-65592343D01*
X303901032Y-65619280D01*
X303954906Y-65619280D01*
X304035719Y-65592343D01*
X304251218Y-65376844D01*
X303281471Y-65753967D02*
X303227597Y-65807842D01*
X303200659Y-65888654D01*
X303200659Y-65942529D01*
X303227597Y-66023341D01*
X303308409Y-66158028D01*
X303443096Y-66292715D01*
X303577783Y-66373528D01*
X303658595Y-66400465D01*
X303712470Y-66400465D01*
X303793282Y-66373528D01*
X303847157Y-66319653D01*
X303874094Y-66238841D01*
X303874094Y-66184966D01*
X303847157Y-66104154D01*
X303766345Y-65969467D01*
X303631658Y-65834780D01*
X303496971Y-65753967D01*
X303416158Y-65727030D01*
X303362284Y-65727030D01*
X303281471Y-65753967D01*
X261098155Y-64811158D02*
X261125093Y-64730346D01*
X261205905Y-64649534D01*
X261313654Y-64595659D01*
X261421404Y-64595659D01*
X261502216Y-64622597D01*
X261636903Y-64703409D01*
X261717715Y-64784221D01*
X261798528Y-64918908D01*
X261825465Y-64999720D01*
X261825465Y-65107470D01*
X261771590Y-65215219D01*
X261717715Y-65269094D01*
X261609966Y-65322969D01*
X261556091Y-65322969D01*
X261367529Y-65134407D01*
X261475279Y-65026658D01*
X261367529Y-65619280D02*
X260801844Y-65053595D01*
X261044280Y-65942529D01*
X260478595Y-65376844D01*
X260774906Y-66211903D02*
X260209221Y-65646218D01*
X260074534Y-65780905D01*
X260020659Y-65888654D01*
X260020659Y-65996404D01*
X260047597Y-66077216D01*
X260128409Y-66211903D01*
X260209221Y-66292715D01*
X260343908Y-66373528D01*
X260424720Y-66400465D01*
X260532470Y-66400465D01*
X260640219Y-66346590D01*
X260774906Y-66211903D01*
X284190592Y-38714722D02*
X284217529Y-38633910D01*
X284298341Y-38553097D01*
X284406091Y-38499223D01*
X284513841Y-38499223D01*
X284594653Y-38526160D01*
X284729340Y-38606972D01*
X284810152Y-38687784D01*
X284890964Y-38822471D01*
X284917902Y-38903284D01*
X284917902Y-39011033D01*
X284864027Y-39118783D01*
X284810152Y-39172658D01*
X284702402Y-39226532D01*
X284648528Y-39226532D01*
X284459966Y-39037971D01*
X284567715Y-38930221D01*
X284459966Y-39522844D02*
X283894280Y-38957158D01*
X283678781Y-39172658D01*
X283651844Y-39253470D01*
X283651844Y-39307345D01*
X283678781Y-39388157D01*
X283759593Y-39468969D01*
X283840406Y-39495906D01*
X283894280Y-39495906D01*
X283975093Y-39468969D01*
X284190592Y-39253470D01*
X283409407Y-39549781D02*
X283355532Y-39549781D01*
X283274720Y-39576719D01*
X283140033Y-39711406D01*
X283113096Y-39792218D01*
X283113096Y-39846093D01*
X283140033Y-39926905D01*
X283193908Y-39980780D01*
X283301658Y-40034654D01*
X283948155Y-40034654D01*
X283597969Y-40384841D01*
X282843722Y-40007717D02*
X282466598Y-40384841D01*
X283274720Y-40708089D01*
X278851218Y-64838096D02*
X278878155Y-64757284D01*
X278958967Y-64676471D01*
X279066717Y-64622597D01*
X279174467Y-64622597D01*
X279255279Y-64649534D01*
X279389966Y-64730346D01*
X279470778Y-64811158D01*
X279551590Y-64945845D01*
X279578528Y-65026658D01*
X279578528Y-65134407D01*
X279524653Y-65242157D01*
X279470778Y-65296032D01*
X279363028Y-65349906D01*
X279309154Y-65349906D01*
X279120592Y-65161345D01*
X279228341Y-65053595D01*
X279120592Y-65646218D02*
X278554906Y-65080532D01*
X278339407Y-65296032D01*
X278312470Y-65376844D01*
X278312470Y-65430719D01*
X278339407Y-65511531D01*
X278420219Y-65592343D01*
X278501032Y-65619280D01*
X278554906Y-65619280D01*
X278635719Y-65592343D01*
X278851218Y-65376844D01*
X278150845Y-65969467D02*
X278177783Y-65888654D01*
X278177783Y-65834780D01*
X278150845Y-65753967D01*
X278123908Y-65727030D01*
X278043096Y-65700093D01*
X277989221Y-65700093D01*
X277908409Y-65727030D01*
X277800659Y-65834780D01*
X277773722Y-65915592D01*
X277773722Y-65969467D01*
X277800659Y-66050279D01*
X277827597Y-66077216D01*
X277908409Y-66104154D01*
X277962284Y-66104154D01*
X278043096Y-66077216D01*
X278150845Y-65969467D01*
X278231658Y-65942529D01*
X278285532Y-65942529D01*
X278366345Y-65969467D01*
X278474094Y-66077216D01*
X278501032Y-66158028D01*
X278501032Y-66211903D01*
X278474094Y-66292715D01*
X278366345Y-66400465D01*
X278285532Y-66427402D01*
X278231658Y-66427402D01*
X278150845Y-66400465D01*
X278043096Y-66292715D01*
X278016158Y-66211903D01*
X278016158Y-66158028D01*
X278043096Y-66077216D01*
X281421218Y-64738096D02*
X281448155Y-64657284D01*
X281528967Y-64576471D01*
X281636717Y-64522597D01*
X281744467Y-64522597D01*
X281825279Y-64549534D01*
X281959966Y-64630346D01*
X282040778Y-64711158D01*
X282121590Y-64845845D01*
X282148528Y-64926658D01*
X282148528Y-65034407D01*
X282094653Y-65142157D01*
X282040778Y-65196032D01*
X281933028Y-65249906D01*
X281879154Y-65249906D01*
X281690592Y-65061345D01*
X281798341Y-64953595D01*
X281690592Y-65546218D02*
X281124906Y-64980532D01*
X280909407Y-65196032D01*
X280882470Y-65276844D01*
X280882470Y-65330719D01*
X280909407Y-65411531D01*
X280990219Y-65492343D01*
X281071032Y-65519280D01*
X281124906Y-65519280D01*
X281205719Y-65492343D01*
X281421218Y-65276844D01*
X280613096Y-65492343D02*
X280235972Y-65869467D01*
X281044094Y-66192715D01*
X256260592Y-38714722D02*
X256287529Y-38633910D01*
X256368341Y-38553097D01*
X256476091Y-38499223D01*
X256583841Y-38499223D01*
X256664653Y-38526160D01*
X256799340Y-38606972D01*
X256880152Y-38687784D01*
X256960964Y-38822471D01*
X256987902Y-38903284D01*
X256987902Y-39011033D01*
X256934027Y-39118783D01*
X256880152Y-39172658D01*
X256772402Y-39226532D01*
X256718528Y-39226532D01*
X256529966Y-39037971D01*
X256637715Y-38930221D01*
X256529966Y-39522844D02*
X255964280Y-38957158D01*
X255748781Y-39172658D01*
X255721844Y-39253470D01*
X255721844Y-39307345D01*
X255748781Y-39388157D01*
X255829593Y-39468969D01*
X255910406Y-39495906D01*
X255964280Y-39495906D01*
X256045093Y-39468969D01*
X256260592Y-39253470D01*
X255667969Y-40384841D02*
X255991218Y-40061592D01*
X255829593Y-40223216D02*
X255263908Y-39657531D01*
X255398595Y-39684468D01*
X255506345Y-39684468D01*
X255587157Y-39657531D01*
X254617410Y-40304028D02*
X254725160Y-40196279D01*
X254805972Y-40169341D01*
X254859847Y-40169341D01*
X254994534Y-40196279D01*
X255129221Y-40277091D01*
X255344720Y-40492590D01*
X255371658Y-40573402D01*
X255371658Y-40627277D01*
X255344720Y-40708089D01*
X255236971Y-40815839D01*
X255156158Y-40842776D01*
X255102284Y-40842776D01*
X255021471Y-40815839D01*
X254886784Y-40681152D01*
X254859847Y-40600340D01*
X254859847Y-40546465D01*
X254886784Y-40465653D01*
X254994534Y-40357903D01*
X255075346Y-40330966D01*
X255129221Y-40330966D01*
X255210033Y-40357903D01*
X279403435Y-39563375D02*
X279322622Y-39105439D01*
X279726683Y-39240126D02*
X279160998Y-38674441D01*
X278945499Y-38889940D01*
X278918561Y-38970752D01*
X278918561Y-39024627D01*
X278945499Y-39105439D01*
X279026311Y-39186251D01*
X279107123Y-39213189D01*
X279160998Y-39213189D01*
X279241810Y-39186251D01*
X279457309Y-38970752D01*
X278595312Y-39240126D02*
X279053248Y-39698062D01*
X279080186Y-39778874D01*
X279080186Y-39832749D01*
X279053248Y-39913561D01*
X278945499Y-40021311D01*
X278864687Y-40048248D01*
X278810812Y-40048248D01*
X278730000Y-40021311D01*
X278272064Y-39563375D01*
X278568375Y-40398435D02*
X278002690Y-39832749D01*
X278245126Y-40721683D01*
X277679441Y-40155998D01*
X263880592Y-38714722D02*
X263907529Y-38633910D01*
X263988341Y-38553097D01*
X264096091Y-38499223D01*
X264203841Y-38499223D01*
X264284653Y-38526160D01*
X264419340Y-38606972D01*
X264500152Y-38687784D01*
X264580964Y-38822471D01*
X264607902Y-38903284D01*
X264607902Y-39011033D01*
X264554027Y-39118783D01*
X264500152Y-39172658D01*
X264392402Y-39226532D01*
X264338528Y-39226532D01*
X264149966Y-39037971D01*
X264257715Y-38930221D01*
X264149966Y-39522844D02*
X263584280Y-38957158D01*
X263368781Y-39172658D01*
X263341844Y-39253470D01*
X263341844Y-39307345D01*
X263368781Y-39388157D01*
X263449593Y-39468969D01*
X263530406Y-39495906D01*
X263584280Y-39495906D01*
X263665093Y-39468969D01*
X263880592Y-39253470D01*
X263287969Y-40384841D02*
X263611218Y-40061592D01*
X263449593Y-40223216D02*
X262883908Y-39657531D01*
X263018595Y-39684468D01*
X263126345Y-39684468D01*
X263207157Y-39657531D01*
X262641471Y-40384841D02*
X262668409Y-40304028D01*
X262668409Y-40250154D01*
X262641471Y-40169341D01*
X262614534Y-40142404D01*
X262533722Y-40115467D01*
X262479847Y-40115467D01*
X262399035Y-40142404D01*
X262291285Y-40250154D01*
X262264348Y-40330966D01*
X262264348Y-40384841D01*
X262291285Y-40465653D01*
X262318223Y-40492590D01*
X262399035Y-40519528D01*
X262452910Y-40519528D01*
X262533722Y-40492590D01*
X262641471Y-40384841D01*
X262722284Y-40357903D01*
X262776158Y-40357903D01*
X262856971Y-40384841D01*
X262964720Y-40492590D01*
X262991658Y-40573402D01*
X262991658Y-40627277D01*
X262964720Y-40708089D01*
X262856971Y-40815839D01*
X262776158Y-40842776D01*
X262722284Y-40842776D01*
X262641471Y-40815839D01*
X262533722Y-40708089D01*
X262506784Y-40627277D01*
X262506784Y-40573402D01*
X262533722Y-40492590D01*
X258800592Y-64868722D02*
X258827529Y-64787910D01*
X258908341Y-64707097D01*
X259016091Y-64653223D01*
X259123841Y-64653223D01*
X259204653Y-64680160D01*
X259339340Y-64760972D01*
X259420152Y-64841784D01*
X259500964Y-64976471D01*
X259527902Y-65057284D01*
X259527902Y-65165033D01*
X259474027Y-65272783D01*
X259420152Y-65326658D01*
X259312402Y-65380532D01*
X259258528Y-65380532D01*
X259069966Y-65191971D01*
X259177715Y-65084221D01*
X259069966Y-65676844D02*
X258504280Y-65111158D01*
X258288781Y-65326658D01*
X258261844Y-65407470D01*
X258261844Y-65461345D01*
X258288781Y-65542157D01*
X258369593Y-65622969D01*
X258450406Y-65649906D01*
X258504280Y-65649906D01*
X258585093Y-65622969D01*
X258800592Y-65407470D01*
X258207969Y-66538841D02*
X258531218Y-66215592D01*
X258369593Y-66377216D02*
X257803908Y-65811531D01*
X257938595Y-65838468D01*
X258046345Y-65838468D01*
X258127157Y-65811531D01*
X257345972Y-66646590D02*
X257723096Y-67023714D01*
X257265160Y-66296404D02*
X257803908Y-66565778D01*
X257453722Y-66915964D01*
X294533773Y-36879788D02*
X294264399Y-37149162D01*
X294749272Y-36987537D02*
X293995025Y-36610414D01*
X294372149Y-37364661D01*
X294183587Y-37553223D02*
X293617902Y-36987537D01*
X293483215Y-37122224D01*
X293429340Y-37229974D01*
X293429340Y-37337723D01*
X293456277Y-37418536D01*
X293537089Y-37553223D01*
X293617902Y-37634035D01*
X293752589Y-37714847D01*
X293833401Y-37741784D01*
X293941150Y-37741784D01*
X294048900Y-37687910D01*
X294183587Y-37553223D01*
X293240778Y-38388282D02*
X293294653Y-38388282D01*
X293402402Y-38334407D01*
X293456277Y-38280532D01*
X293510152Y-38172783D01*
X293510152Y-38065033D01*
X293483215Y-37984221D01*
X293402402Y-37849534D01*
X293321590Y-37768722D01*
X293186903Y-37687910D01*
X293106091Y-37660972D01*
X292998341Y-37660972D01*
X292890592Y-37714847D01*
X292836717Y-37768722D01*
X292782842Y-37876471D01*
X292782842Y-37930346D01*
X293240778Y-38603781D02*
X292809780Y-39034780D01*
X292136345Y-38469094D02*
X292513468Y-39223341D01*
X291759221Y-38846218D01*
X291813096Y-39923714D02*
X291732284Y-39465778D01*
X292136345Y-39600465D02*
X291570659Y-39034780D01*
X291355160Y-39250279D01*
X291328223Y-39331091D01*
X291328223Y-39384966D01*
X291355160Y-39465778D01*
X291435972Y-39546590D01*
X291516784Y-39573528D01*
X291570659Y-39573528D01*
X291651471Y-39546590D01*
X291866971Y-39331091D01*
X291274348Y-39869839D02*
X291085786Y-40058401D01*
X291301285Y-40435524D02*
X291570659Y-40166150D01*
X291004974Y-39600465D01*
X290735600Y-39869839D01*
X290573975Y-40570211D02*
X290762537Y-40381650D01*
X291058849Y-40677961D02*
X290493163Y-40112276D01*
X290223789Y-40381650D01*
X296631218Y-64938096D02*
X296658155Y-64857284D01*
X296738967Y-64776471D01*
X296846717Y-64722597D01*
X296954467Y-64722597D01*
X297035279Y-64749534D01*
X297169966Y-64830346D01*
X297250778Y-64911158D01*
X297331590Y-65045845D01*
X297358528Y-65126658D01*
X297358528Y-65234407D01*
X297304653Y-65342157D01*
X297250778Y-65396032D01*
X297143028Y-65449906D01*
X297089154Y-65449906D01*
X296900592Y-65261345D01*
X297008341Y-65153595D01*
X296900592Y-65746218D02*
X296334906Y-65180532D01*
X296119407Y-65396032D01*
X296092470Y-65476844D01*
X296092470Y-65530719D01*
X296119407Y-65611531D01*
X296200219Y-65692343D01*
X296281032Y-65719280D01*
X296334906Y-65719280D01*
X296415719Y-65692343D01*
X296631218Y-65476844D01*
X295850033Y-65773155D02*
X295796158Y-65773155D01*
X295715346Y-65800093D01*
X295580659Y-65934780D01*
X295553722Y-66015592D01*
X295553722Y-66069467D01*
X295580659Y-66150279D01*
X295634534Y-66204154D01*
X295742284Y-66258028D01*
X296388781Y-66258028D01*
X296038595Y-66608215D01*
X276311218Y-64838096D02*
X276338155Y-64757284D01*
X276418967Y-64676471D01*
X276526717Y-64622597D01*
X276634467Y-64622597D01*
X276715279Y-64649534D01*
X276849966Y-64730346D01*
X276930778Y-64811158D01*
X277011590Y-64945845D01*
X277038528Y-65026658D01*
X277038528Y-65134407D01*
X276984653Y-65242157D01*
X276930778Y-65296032D01*
X276823028Y-65349906D01*
X276769154Y-65349906D01*
X276580592Y-65161345D01*
X276688341Y-65053595D01*
X276580592Y-65646218D02*
X276014906Y-65080532D01*
X275799407Y-65296032D01*
X275772470Y-65376844D01*
X275772470Y-65430719D01*
X275799407Y-65511531D01*
X275880219Y-65592343D01*
X275961032Y-65619280D01*
X276014906Y-65619280D01*
X276095719Y-65592343D01*
X276311218Y-65376844D01*
X275987969Y-66238841D02*
X275880219Y-66346590D01*
X275799407Y-66373528D01*
X275745532Y-66373528D01*
X275610845Y-66346590D01*
X275476158Y-66265778D01*
X275260659Y-66050279D01*
X275233722Y-65969467D01*
X275233722Y-65915592D01*
X275260659Y-65834780D01*
X275368409Y-65727030D01*
X275449221Y-65700093D01*
X275503096Y-65700093D01*
X275583908Y-65727030D01*
X275718595Y-65861717D01*
X275745532Y-65942529D01*
X275745532Y-65996404D01*
X275718595Y-66077216D01*
X275610845Y-66184966D01*
X275530033Y-66211903D01*
X275476158Y-66211903D01*
X275395346Y-66184966D01*
X263880592Y-64822722D02*
X263907529Y-64741910D01*
X263988341Y-64661097D01*
X264096091Y-64607223D01*
X264203841Y-64607223D01*
X264284653Y-64634160D01*
X264419340Y-64714972D01*
X264500152Y-64795784D01*
X264580964Y-64930471D01*
X264607902Y-65011284D01*
X264607902Y-65119033D01*
X264554027Y-65226783D01*
X264500152Y-65280658D01*
X264392402Y-65334532D01*
X264338528Y-65334532D01*
X264149966Y-65145971D01*
X264257715Y-65038221D01*
X264149966Y-65630844D02*
X263584280Y-65065158D01*
X263368781Y-65280658D01*
X263341844Y-65361470D01*
X263341844Y-65415345D01*
X263368781Y-65496157D01*
X263449593Y-65576969D01*
X263530406Y-65603906D01*
X263584280Y-65603906D01*
X263665093Y-65576969D01*
X263880592Y-65361470D01*
X263287969Y-66492841D02*
X263611218Y-66169592D01*
X263449593Y-66331216D02*
X262883908Y-65765531D01*
X263018595Y-65792468D01*
X263126345Y-65792468D01*
X263207157Y-65765531D01*
X262533722Y-66115717D02*
X262183536Y-66465903D01*
X262587597Y-66492841D01*
X262506784Y-66573653D01*
X262479847Y-66654465D01*
X262479847Y-66708340D01*
X262506784Y-66789152D01*
X262641471Y-66923839D01*
X262722284Y-66950776D01*
X262776158Y-66950776D01*
X262856971Y-66923839D01*
X263018595Y-66762215D01*
X263045532Y-66681402D01*
X263045532Y-66627528D01*
X276580592Y-38714722D02*
X276607529Y-38633910D01*
X276688341Y-38553097D01*
X276796091Y-38499223D01*
X276903841Y-38499223D01*
X276984653Y-38526160D01*
X277119340Y-38606972D01*
X277200152Y-38687784D01*
X277280964Y-38822471D01*
X277307902Y-38903284D01*
X277307902Y-39011033D01*
X277254027Y-39118783D01*
X277200152Y-39172658D01*
X277092402Y-39226532D01*
X277038528Y-39226532D01*
X276849966Y-39037971D01*
X276957715Y-38930221D01*
X276849966Y-39522844D02*
X276284280Y-38957158D01*
X276068781Y-39172658D01*
X276041844Y-39253470D01*
X276041844Y-39307345D01*
X276068781Y-39388157D01*
X276149593Y-39468969D01*
X276230406Y-39495906D01*
X276284280Y-39495906D01*
X276365093Y-39468969D01*
X276580592Y-39253470D01*
X275799407Y-39549781D02*
X275745532Y-39549781D01*
X275664720Y-39576719D01*
X275530033Y-39711406D01*
X275503096Y-39792218D01*
X275503096Y-39846093D01*
X275530033Y-39926905D01*
X275583908Y-39980780D01*
X275691658Y-40034654D01*
X276338155Y-40034654D01*
X275987969Y-40384841D01*
X275260659Y-40088529D02*
X275206784Y-40088529D01*
X275125972Y-40115467D01*
X274991285Y-40250154D01*
X274964348Y-40330966D01*
X274964348Y-40384841D01*
X274991285Y-40465653D01*
X275045160Y-40519528D01*
X275152910Y-40573402D01*
X275799407Y-40573402D01*
X275449221Y-40923589D01*
X302249966Y-38245473D02*
X302627089Y-38999720D01*
X301872842Y-38622597D01*
X302249966Y-39322969D02*
X302196091Y-39430719D01*
X302061404Y-39565406D01*
X301980592Y-39592343D01*
X301926717Y-39592343D01*
X301845905Y-39565406D01*
X301792030Y-39511531D01*
X301765093Y-39430719D01*
X301765093Y-39376844D01*
X301792030Y-39296032D01*
X301872842Y-39161345D01*
X301899780Y-39080532D01*
X301899780Y-39026658D01*
X301872842Y-38945845D01*
X301818967Y-38891971D01*
X301738155Y-38865033D01*
X301684280Y-38865033D01*
X301603468Y-38891971D01*
X301468781Y-39026658D01*
X301414906Y-39134407D01*
X301334094Y-39753967D02*
X301603468Y-40023341D01*
X301226345Y-39269094D02*
X301334094Y-39753967D01*
X300849221Y-39646218D01*
X301226345Y-40346590D02*
X301172470Y-40454340D01*
X301037783Y-40589027D01*
X300956971Y-40615964D01*
X300903096Y-40615964D01*
X300822284Y-40589027D01*
X300768409Y-40535152D01*
X300741471Y-40454340D01*
X300741471Y-40400465D01*
X300768409Y-40319653D01*
X300849221Y-40184966D01*
X300876158Y-40104154D01*
X300876158Y-40050279D01*
X300849221Y-39969467D01*
X300795346Y-39915592D01*
X300714534Y-39888654D01*
X300660659Y-39888654D01*
X300579847Y-39915592D01*
X300445160Y-40050279D01*
X300391285Y-40158028D01*
X271500592Y-64822722D02*
X271527529Y-64741910D01*
X271608341Y-64661097D01*
X271716091Y-64607223D01*
X271823841Y-64607223D01*
X271904653Y-64634160D01*
X272039340Y-64714972D01*
X272120152Y-64795784D01*
X272200964Y-64930471D01*
X272227902Y-65011284D01*
X272227902Y-65119033D01*
X272174027Y-65226783D01*
X272120152Y-65280658D01*
X272012402Y-65334532D01*
X271958528Y-65334532D01*
X271769966Y-65145971D01*
X271877715Y-65038221D01*
X271769966Y-65630844D02*
X271204280Y-65065158D01*
X270988781Y-65280658D01*
X270961844Y-65361470D01*
X270961844Y-65415345D01*
X270988781Y-65496157D01*
X271069593Y-65576969D01*
X271150406Y-65603906D01*
X271204280Y-65603906D01*
X271285093Y-65576969D01*
X271500592Y-65361470D01*
X270907969Y-66492841D02*
X271231218Y-66169592D01*
X271069593Y-66331216D02*
X270503908Y-65765531D01*
X270638595Y-65792468D01*
X270746345Y-65792468D01*
X270827157Y-65765531D01*
X269992097Y-66277341D02*
X269938223Y-66331216D01*
X269911285Y-66412028D01*
X269911285Y-66465903D01*
X269938223Y-66546715D01*
X270019035Y-66681402D01*
X270153722Y-66816089D01*
X270288409Y-66896902D01*
X270369221Y-66923839D01*
X270423096Y-66923839D01*
X270503908Y-66896902D01*
X270557783Y-66843027D01*
X270584720Y-66762215D01*
X270584720Y-66708340D01*
X270557783Y-66627528D01*
X270476971Y-66492841D01*
X270342284Y-66358154D01*
X270207597Y-66277341D01*
X270126784Y-66250404D01*
X270072910Y-66250404D01*
X269992097Y-66277341D01*
X254123809Y-56615476D02*
X254161904Y-56729761D01*
X254161904Y-56920238D01*
X254123809Y-56996428D01*
X254085714Y-57034523D01*
X254009523Y-57072619D01*
X253933333Y-57072619D01*
X253857142Y-57034523D01*
X253819047Y-56996428D01*
X253780952Y-56920238D01*
X253742857Y-56767857D01*
X253704761Y-56691666D01*
X253666666Y-56653571D01*
X253590476Y-56615476D01*
X253514285Y-56615476D01*
X253438095Y-56653571D01*
X253400000Y-56691666D01*
X253361904Y-56767857D01*
X253361904Y-56958333D01*
X253400000Y-57072619D01*
X253361904Y-57339285D02*
X254161904Y-57529761D01*
X253590476Y-57682142D01*
X254161904Y-57834523D01*
X253361904Y-58025000D01*
X254085714Y-58786904D02*
X254123809Y-58748809D01*
X254161904Y-58634523D01*
X254161904Y-58558333D01*
X254123809Y-58444047D01*
X254047619Y-58367857D01*
X253971428Y-58329761D01*
X253819047Y-58291666D01*
X253704761Y-58291666D01*
X253552380Y-58329761D01*
X253476190Y-58367857D01*
X253400000Y-58444047D01*
X253361904Y-58558333D01*
X253361904Y-58634523D01*
X253400000Y-58748809D01*
X253438095Y-58786904D01*
X254161904Y-59510714D02*
X254161904Y-59129761D01*
X253361904Y-59129761D01*
X254161904Y-59777380D02*
X253361904Y-59777380D01*
X254161904Y-60234523D02*
X253704761Y-59891666D01*
X253361904Y-60234523D02*
X253819047Y-59777380D01*
%TO.C,U1*%
X340452380Y-51963095D02*
X341261904Y-51963095D01*
X341357142Y-52010714D01*
X341404761Y-52058333D01*
X341452380Y-52153571D01*
X341452380Y-52344047D01*
X341404761Y-52439285D01*
X341357142Y-52486904D01*
X341261904Y-52534523D01*
X340452380Y-52534523D01*
X341452380Y-53534523D02*
X341452380Y-52963095D01*
X341452380Y-53248809D02*
X340452380Y-53248809D01*
X340595238Y-53153571D01*
X340690476Y-53058333D01*
X340738095Y-52963095D01*
X340120592Y-64822722D02*
X340147529Y-64741910D01*
X340228341Y-64661097D01*
X340336091Y-64607223D01*
X340443841Y-64607223D01*
X340524653Y-64634160D01*
X340659340Y-64714972D01*
X340740152Y-64795784D01*
X340820964Y-64930471D01*
X340847902Y-65011284D01*
X340847902Y-65119033D01*
X340794027Y-65226783D01*
X340740152Y-65280658D01*
X340632402Y-65334532D01*
X340578528Y-65334532D01*
X340389966Y-65145971D01*
X340497715Y-65038221D01*
X340389966Y-65630844D02*
X339824280Y-65065158D01*
X339608781Y-65280658D01*
X339581844Y-65361470D01*
X339581844Y-65415345D01*
X339608781Y-65496157D01*
X339689593Y-65576969D01*
X339770406Y-65603906D01*
X339824280Y-65603906D01*
X339905093Y-65576969D01*
X340120592Y-65361470D01*
X339339407Y-65657781D02*
X339285532Y-65657781D01*
X339204720Y-65684719D01*
X339070033Y-65819406D01*
X339043096Y-65900218D01*
X339043096Y-65954093D01*
X339070033Y-66034905D01*
X339123908Y-66088780D01*
X339231658Y-66142654D01*
X339878155Y-66142654D01*
X339527969Y-66492841D01*
X338477410Y-66412028D02*
X338585160Y-66304279D01*
X338665972Y-66277341D01*
X338719847Y-66277341D01*
X338854534Y-66304279D01*
X338989221Y-66385091D01*
X339204720Y-66600590D01*
X339231658Y-66681402D01*
X339231658Y-66735277D01*
X339204720Y-66816089D01*
X339096971Y-66923839D01*
X339016158Y-66950776D01*
X338962284Y-66950776D01*
X338881471Y-66923839D01*
X338746784Y-66789152D01*
X338719847Y-66708340D01*
X338719847Y-66654465D01*
X338746784Y-66573653D01*
X338854534Y-66465903D01*
X338935346Y-66438966D01*
X338989221Y-66438966D01*
X339070033Y-66465903D01*
X327151218Y-39238096D02*
X327178155Y-39157284D01*
X327258967Y-39076471D01*
X327366717Y-39022597D01*
X327474467Y-39022597D01*
X327555279Y-39049534D01*
X327689966Y-39130346D01*
X327770778Y-39211158D01*
X327851590Y-39345845D01*
X327878528Y-39426658D01*
X327878528Y-39534407D01*
X327824653Y-39642157D01*
X327770778Y-39696032D01*
X327663028Y-39749906D01*
X327609154Y-39749906D01*
X327420592Y-39561345D01*
X327528341Y-39453595D01*
X327420592Y-40046218D02*
X326854906Y-39480532D01*
X326639407Y-39696032D01*
X326612470Y-39776844D01*
X326612470Y-39830719D01*
X326639407Y-39911531D01*
X326720219Y-39992343D01*
X326801032Y-40019280D01*
X326854906Y-40019280D01*
X326935719Y-39992343D01*
X327151218Y-39776844D01*
X326343096Y-39992343D02*
X325992910Y-40342529D01*
X326396971Y-40369467D01*
X326316158Y-40450279D01*
X326289221Y-40531091D01*
X326289221Y-40584966D01*
X326316158Y-40665778D01*
X326450845Y-40800465D01*
X326531658Y-40827402D01*
X326585532Y-40827402D01*
X326666345Y-40800465D01*
X326827969Y-40638841D01*
X326854906Y-40558028D01*
X326854906Y-40504154D01*
X362980592Y-38668722D02*
X363007529Y-38587910D01*
X363088341Y-38507097D01*
X363196091Y-38453223D01*
X363303841Y-38453223D01*
X363384653Y-38480160D01*
X363519340Y-38560972D01*
X363600152Y-38641784D01*
X363680964Y-38776471D01*
X363707902Y-38857284D01*
X363707902Y-38965033D01*
X363654027Y-39072783D01*
X363600152Y-39126658D01*
X363492402Y-39180532D01*
X363438528Y-39180532D01*
X363249966Y-38991971D01*
X363357715Y-38884221D01*
X363249966Y-39476844D02*
X362684280Y-38911158D01*
X362468781Y-39126658D01*
X362441844Y-39207470D01*
X362441844Y-39261345D01*
X362468781Y-39342157D01*
X362549593Y-39422969D01*
X362630406Y-39449906D01*
X362684280Y-39449906D01*
X362765093Y-39422969D01*
X362980592Y-39207470D01*
X362387969Y-40338841D02*
X362711218Y-40015592D01*
X362549593Y-40177216D02*
X361983908Y-39611531D01*
X362118595Y-39638468D01*
X362226345Y-39638468D01*
X362307157Y-39611531D01*
X361525972Y-40446590D02*
X361903096Y-40823714D01*
X361445160Y-40096404D02*
X361983908Y-40365778D01*
X361633722Y-40715964D01*
X316991218Y-39238096D02*
X317018155Y-39157284D01*
X317098967Y-39076471D01*
X317206717Y-39022597D01*
X317314467Y-39022597D01*
X317395279Y-39049534D01*
X317529966Y-39130346D01*
X317610778Y-39211158D01*
X317691590Y-39345845D01*
X317718528Y-39426658D01*
X317718528Y-39534407D01*
X317664653Y-39642157D01*
X317610778Y-39696032D01*
X317503028Y-39749906D01*
X317449154Y-39749906D01*
X317260592Y-39561345D01*
X317368341Y-39453595D01*
X317260592Y-40046218D02*
X316694906Y-39480532D01*
X316479407Y-39696032D01*
X316452470Y-39776844D01*
X316452470Y-39830719D01*
X316479407Y-39911531D01*
X316560219Y-39992343D01*
X316641032Y-40019280D01*
X316694906Y-40019280D01*
X316775719Y-39992343D01*
X316991218Y-39776844D01*
X316021471Y-40153967D02*
X315967597Y-40207842D01*
X315940659Y-40288654D01*
X315940659Y-40342529D01*
X315967597Y-40423341D01*
X316048409Y-40558028D01*
X316183096Y-40692715D01*
X316317783Y-40773528D01*
X316398595Y-40800465D01*
X316452470Y-40800465D01*
X316533282Y-40773528D01*
X316587157Y-40719653D01*
X316614094Y-40638841D01*
X316614094Y-40584966D01*
X316587157Y-40504154D01*
X316506345Y-40369467D01*
X316371658Y-40234780D01*
X316236971Y-40153967D01*
X316156158Y-40127030D01*
X316102284Y-40127030D01*
X316021471Y-40153967D01*
X324958308Y-64647131D02*
X324608122Y-64997317D01*
X325012183Y-65024255D01*
X324931370Y-65105067D01*
X324904433Y-65185879D01*
X324904433Y-65239754D01*
X324931370Y-65320566D01*
X325066057Y-65455253D01*
X325146870Y-65482190D01*
X325200744Y-65482190D01*
X325281557Y-65455253D01*
X325443181Y-65293629D01*
X325470118Y-65212816D01*
X325470118Y-65158942D01*
X324446497Y-65158942D02*
X324823621Y-65913189D01*
X324069374Y-65536065D01*
X323934687Y-65670752D02*
X323584500Y-66020938D01*
X323988561Y-66047876D01*
X323907749Y-66128688D01*
X323880812Y-66209500D01*
X323880812Y-66263375D01*
X323907749Y-66344187D01*
X324042436Y-66478874D01*
X324123248Y-66505812D01*
X324177123Y-66505812D01*
X324257935Y-66478874D01*
X324419560Y-66317250D01*
X324446497Y-66236438D01*
X324446497Y-66182563D01*
X324096311Y-66748248D02*
X323665312Y-67179247D01*
X323180439Y-66963748D02*
X322991877Y-67152309D01*
X323207377Y-67529433D02*
X323476751Y-67260059D01*
X322911065Y-66694374D01*
X322641691Y-66963748D01*
X322964940Y-67771870D02*
X322399255Y-67206184D01*
X322641691Y-68095118D01*
X322076006Y-67529433D01*
X330533773Y-64879788D02*
X330264399Y-65149162D01*
X330749272Y-64987537D02*
X329995025Y-64610414D01*
X330372149Y-65364661D01*
X330183587Y-65553223D02*
X329617902Y-64987537D01*
X329483215Y-65122224D01*
X329429340Y-65229974D01*
X329429340Y-65337723D01*
X329456277Y-65418536D01*
X329537089Y-65553223D01*
X329617902Y-65634035D01*
X329752589Y-65714847D01*
X329833401Y-65741784D01*
X329941150Y-65741784D01*
X330048900Y-65687910D01*
X330183587Y-65553223D01*
X329240778Y-66388282D02*
X329294653Y-66388282D01*
X329402402Y-66334407D01*
X329456277Y-66280532D01*
X329510152Y-66172783D01*
X329510152Y-66065033D01*
X329483215Y-65984221D01*
X329402402Y-65849534D01*
X329321590Y-65768722D01*
X329186903Y-65687910D01*
X329106091Y-65660972D01*
X328998341Y-65660972D01*
X328890592Y-65714847D01*
X328836717Y-65768722D01*
X328782842Y-65876471D01*
X328782842Y-65930346D01*
X329240778Y-66603781D02*
X328809780Y-67034780D01*
X328136345Y-66469094D02*
X328513468Y-67223341D01*
X327759221Y-66846218D01*
X327813096Y-67923714D02*
X327732284Y-67465778D01*
X328136345Y-67600465D02*
X327570659Y-67034780D01*
X327355160Y-67250279D01*
X327328223Y-67331091D01*
X327328223Y-67384966D01*
X327355160Y-67465778D01*
X327435972Y-67546590D01*
X327516784Y-67573528D01*
X327570659Y-67573528D01*
X327651471Y-67546590D01*
X327866971Y-67331091D01*
X327274348Y-67869839D02*
X327085786Y-68058401D01*
X327301285Y-68435524D02*
X327570659Y-68166150D01*
X327004974Y-67600465D01*
X326735600Y-67869839D01*
X326573975Y-68570211D02*
X326762537Y-68381650D01*
X327058849Y-68677961D02*
X326493163Y-68112276D01*
X326223789Y-68381650D01*
X319521218Y-39138096D02*
X319548155Y-39057284D01*
X319628967Y-38976471D01*
X319736717Y-38922597D01*
X319844467Y-38922597D01*
X319925279Y-38949534D01*
X320059966Y-39030346D01*
X320140778Y-39111158D01*
X320221590Y-39245845D01*
X320248528Y-39326658D01*
X320248528Y-39434407D01*
X320194653Y-39542157D01*
X320140778Y-39596032D01*
X320033028Y-39649906D01*
X319979154Y-39649906D01*
X319790592Y-39461345D01*
X319898341Y-39353595D01*
X319790592Y-39946218D02*
X319224906Y-39380532D01*
X319009407Y-39596032D01*
X318982470Y-39676844D01*
X318982470Y-39730719D01*
X319009407Y-39811531D01*
X319090219Y-39892343D01*
X319171032Y-39919280D01*
X319224906Y-39919280D01*
X319305719Y-39892343D01*
X319521218Y-39676844D01*
X318928595Y-40808215D02*
X319251844Y-40484966D01*
X319090219Y-40646590D02*
X318524534Y-40080905D01*
X318659221Y-40107842D01*
X318766971Y-40107842D01*
X318847783Y-40080905D01*
X342391218Y-39238096D02*
X342418155Y-39157284D01*
X342498967Y-39076471D01*
X342606717Y-39022597D01*
X342714467Y-39022597D01*
X342795279Y-39049534D01*
X342929966Y-39130346D01*
X343010778Y-39211158D01*
X343091590Y-39345845D01*
X343118528Y-39426658D01*
X343118528Y-39534407D01*
X343064653Y-39642157D01*
X343010778Y-39696032D01*
X342903028Y-39749906D01*
X342849154Y-39749906D01*
X342660592Y-39561345D01*
X342768341Y-39453595D01*
X342660592Y-40046218D02*
X342094906Y-39480532D01*
X341879407Y-39696032D01*
X341852470Y-39776844D01*
X341852470Y-39830719D01*
X341879407Y-39911531D01*
X341960219Y-39992343D01*
X342041032Y-40019280D01*
X342094906Y-40019280D01*
X342175719Y-39992343D01*
X342391218Y-39776844D01*
X341690845Y-40369467D02*
X341717783Y-40288654D01*
X341717783Y-40234780D01*
X341690845Y-40153967D01*
X341663908Y-40127030D01*
X341583096Y-40100093D01*
X341529221Y-40100093D01*
X341448409Y-40127030D01*
X341340659Y-40234780D01*
X341313722Y-40315592D01*
X341313722Y-40369467D01*
X341340659Y-40450279D01*
X341367597Y-40477216D01*
X341448409Y-40504154D01*
X341502284Y-40504154D01*
X341583096Y-40477216D01*
X341690845Y-40369467D01*
X341771658Y-40342529D01*
X341825532Y-40342529D01*
X341906345Y-40369467D01*
X342014094Y-40477216D01*
X342041032Y-40558028D01*
X342041032Y-40611903D01*
X342014094Y-40692715D01*
X341906345Y-40800465D01*
X341825532Y-40827402D01*
X341771658Y-40827402D01*
X341690845Y-40800465D01*
X341583096Y-40692715D01*
X341556158Y-40611903D01*
X341556158Y-40558028D01*
X341583096Y-40477216D01*
X337311218Y-39238096D02*
X337338155Y-39157284D01*
X337418967Y-39076471D01*
X337526717Y-39022597D01*
X337634467Y-39022597D01*
X337715279Y-39049534D01*
X337849966Y-39130346D01*
X337930778Y-39211158D01*
X338011590Y-39345845D01*
X338038528Y-39426658D01*
X338038528Y-39534407D01*
X337984653Y-39642157D01*
X337930778Y-39696032D01*
X337823028Y-39749906D01*
X337769154Y-39749906D01*
X337580592Y-39561345D01*
X337688341Y-39453595D01*
X337580592Y-40046218D02*
X337014906Y-39480532D01*
X336799407Y-39696032D01*
X336772470Y-39776844D01*
X336772470Y-39830719D01*
X336799407Y-39911531D01*
X336880219Y-39992343D01*
X336961032Y-40019280D01*
X337014906Y-40019280D01*
X337095719Y-39992343D01*
X337311218Y-39776844D01*
X336206784Y-40288654D02*
X336314534Y-40180905D01*
X336395346Y-40153967D01*
X336449221Y-40153967D01*
X336583908Y-40180905D01*
X336718595Y-40261717D01*
X336934094Y-40477216D01*
X336961032Y-40558028D01*
X336961032Y-40611903D01*
X336934094Y-40692715D01*
X336826345Y-40800465D01*
X336745532Y-40827402D01*
X336691658Y-40827402D01*
X336610845Y-40800465D01*
X336476158Y-40665778D01*
X336449221Y-40584966D01*
X336449221Y-40531091D01*
X336476158Y-40450279D01*
X336583908Y-40342529D01*
X336664720Y-40315592D01*
X336718595Y-40315592D01*
X336799407Y-40342529D01*
X357900592Y-38714722D02*
X357927529Y-38633910D01*
X358008341Y-38553097D01*
X358116091Y-38499223D01*
X358223841Y-38499223D01*
X358304653Y-38526160D01*
X358439340Y-38606972D01*
X358520152Y-38687784D01*
X358600964Y-38822471D01*
X358627902Y-38903284D01*
X358627902Y-39011033D01*
X358574027Y-39118783D01*
X358520152Y-39172658D01*
X358412402Y-39226532D01*
X358358528Y-39226532D01*
X358169966Y-39037971D01*
X358277715Y-38930221D01*
X358169966Y-39522844D02*
X357604280Y-38957158D01*
X357388781Y-39172658D01*
X357361844Y-39253470D01*
X357361844Y-39307345D01*
X357388781Y-39388157D01*
X357469593Y-39468969D01*
X357550406Y-39495906D01*
X357604280Y-39495906D01*
X357685093Y-39468969D01*
X357900592Y-39253470D01*
X357307969Y-40384841D02*
X357631218Y-40061592D01*
X357469593Y-40223216D02*
X356903908Y-39657531D01*
X357038595Y-39684468D01*
X357146345Y-39684468D01*
X357227157Y-39657531D01*
X356553722Y-40007717D02*
X356203536Y-40357903D01*
X356607597Y-40384841D01*
X356526784Y-40465653D01*
X356499847Y-40546465D01*
X356499847Y-40600340D01*
X356526784Y-40681152D01*
X356661471Y-40815839D01*
X356742284Y-40842776D01*
X356796158Y-40842776D01*
X356876971Y-40815839D01*
X357038595Y-40654215D01*
X357065532Y-40573402D01*
X357065532Y-40519528D01*
X352820592Y-64822722D02*
X352847529Y-64741910D01*
X352928341Y-64661097D01*
X353036091Y-64607223D01*
X353143841Y-64607223D01*
X353224653Y-64634160D01*
X353359340Y-64714972D01*
X353440152Y-64795784D01*
X353520964Y-64930471D01*
X353547902Y-65011284D01*
X353547902Y-65119033D01*
X353494027Y-65226783D01*
X353440152Y-65280658D01*
X353332402Y-65334532D01*
X353278528Y-65334532D01*
X353089966Y-65145971D01*
X353197715Y-65038221D01*
X353089966Y-65630844D02*
X352524280Y-65065158D01*
X352308781Y-65280658D01*
X352281844Y-65361470D01*
X352281844Y-65415345D01*
X352308781Y-65496157D01*
X352389593Y-65576969D01*
X352470406Y-65603906D01*
X352524280Y-65603906D01*
X352605093Y-65576969D01*
X352820592Y-65361470D01*
X352039407Y-65657781D02*
X351985532Y-65657781D01*
X351904720Y-65684719D01*
X351770033Y-65819406D01*
X351743096Y-65900218D01*
X351743096Y-65954093D01*
X351770033Y-66034905D01*
X351823908Y-66088780D01*
X351931658Y-66142654D01*
X352578155Y-66142654D01*
X352227969Y-66492841D01*
X351312097Y-66277341D02*
X351258223Y-66331216D01*
X351231285Y-66412028D01*
X351231285Y-66465903D01*
X351258223Y-66546715D01*
X351339035Y-66681402D01*
X351473722Y-66816089D01*
X351608409Y-66896902D01*
X351689221Y-66923839D01*
X351743096Y-66923839D01*
X351823908Y-66896902D01*
X351877783Y-66843027D01*
X351904720Y-66762215D01*
X351904720Y-66708340D01*
X351877783Y-66627528D01*
X351796971Y-66492841D01*
X351662284Y-66358154D01*
X351527597Y-66277341D01*
X351446784Y-66250404D01*
X351392910Y-66250404D01*
X351312097Y-66277341D01*
X347498155Y-39211158D02*
X347525093Y-39130346D01*
X347605905Y-39049534D01*
X347713654Y-38995659D01*
X347821404Y-38995659D01*
X347902216Y-39022597D01*
X348036903Y-39103409D01*
X348117715Y-39184221D01*
X348198528Y-39318908D01*
X348225465Y-39399720D01*
X348225465Y-39507470D01*
X348171590Y-39615219D01*
X348117715Y-39669094D01*
X348009966Y-39722969D01*
X347956091Y-39722969D01*
X347767529Y-39534407D01*
X347875279Y-39426658D01*
X347767529Y-40019280D02*
X347201844Y-39453595D01*
X347444280Y-40342529D01*
X346878595Y-39776844D01*
X347174906Y-40611903D02*
X346609221Y-40046218D01*
X346474534Y-40180905D01*
X346420659Y-40288654D01*
X346420659Y-40396404D01*
X346447597Y-40477216D01*
X346528409Y-40611903D01*
X346609221Y-40692715D01*
X346743908Y-40773528D01*
X346824720Y-40800465D01*
X346932470Y-40800465D01*
X347040219Y-40746590D01*
X347174906Y-40611903D01*
X357900592Y-64822722D02*
X357927529Y-64741910D01*
X358008341Y-64661097D01*
X358116091Y-64607223D01*
X358223841Y-64607223D01*
X358304653Y-64634160D01*
X358439340Y-64714972D01*
X358520152Y-64795784D01*
X358600964Y-64930471D01*
X358627902Y-65011284D01*
X358627902Y-65119033D01*
X358574027Y-65226783D01*
X358520152Y-65280658D01*
X358412402Y-65334532D01*
X358358528Y-65334532D01*
X358169966Y-65145971D01*
X358277715Y-65038221D01*
X358169966Y-65630844D02*
X357604280Y-65065158D01*
X357388781Y-65280658D01*
X357361844Y-65361470D01*
X357361844Y-65415345D01*
X357388781Y-65496157D01*
X357469593Y-65576969D01*
X357550406Y-65603906D01*
X357604280Y-65603906D01*
X357685093Y-65576969D01*
X357900592Y-65361470D01*
X357307969Y-66492841D02*
X357631218Y-66169592D01*
X357469593Y-66331216D02*
X356903908Y-65765531D01*
X357038595Y-65792468D01*
X357146345Y-65792468D01*
X357227157Y-65765531D01*
X356661471Y-66492841D02*
X356688409Y-66412028D01*
X356688409Y-66358154D01*
X356661471Y-66277341D01*
X356634534Y-66250404D01*
X356553722Y-66223467D01*
X356499847Y-66223467D01*
X356419035Y-66250404D01*
X356311285Y-66358154D01*
X356284348Y-66438966D01*
X356284348Y-66492841D01*
X356311285Y-66573653D01*
X356338223Y-66600590D01*
X356419035Y-66627528D01*
X356472910Y-66627528D01*
X356553722Y-66600590D01*
X356661471Y-66492841D01*
X356742284Y-66465903D01*
X356796158Y-66465903D01*
X356876971Y-66492841D01*
X356984720Y-66600590D01*
X357011658Y-66681402D01*
X357011658Y-66735277D01*
X356984720Y-66816089D01*
X356876971Y-66923839D01*
X356796158Y-66950776D01*
X356742284Y-66950776D01*
X356661471Y-66923839D01*
X356553722Y-66816089D01*
X356526784Y-66735277D01*
X356526784Y-66681402D01*
X356553722Y-66600590D01*
X365520592Y-38714722D02*
X365547529Y-38633910D01*
X365628341Y-38553097D01*
X365736091Y-38499223D01*
X365843841Y-38499223D01*
X365924653Y-38526160D01*
X366059340Y-38606972D01*
X366140152Y-38687784D01*
X366220964Y-38822471D01*
X366247902Y-38903284D01*
X366247902Y-39011033D01*
X366194027Y-39118783D01*
X366140152Y-39172658D01*
X366032402Y-39226532D01*
X365978528Y-39226532D01*
X365789966Y-39037971D01*
X365897715Y-38930221D01*
X365789966Y-39522844D02*
X365224280Y-38957158D01*
X365008781Y-39172658D01*
X364981844Y-39253470D01*
X364981844Y-39307345D01*
X365008781Y-39388157D01*
X365089593Y-39468969D01*
X365170406Y-39495906D01*
X365224280Y-39495906D01*
X365305093Y-39468969D01*
X365520592Y-39253470D01*
X364927969Y-40384841D02*
X365251218Y-40061592D01*
X365089593Y-40223216D02*
X364523908Y-39657531D01*
X364658595Y-39684468D01*
X364766345Y-39684468D01*
X364847157Y-39657531D01*
X363850473Y-40330966D02*
X364119847Y-40061592D01*
X364416158Y-40304028D01*
X364362284Y-40304028D01*
X364281471Y-40330966D01*
X364146784Y-40465653D01*
X364119847Y-40546465D01*
X364119847Y-40600340D01*
X364146784Y-40681152D01*
X364281471Y-40815839D01*
X364362284Y-40842776D01*
X364416158Y-40842776D01*
X364496971Y-40815839D01*
X364631658Y-40681152D01*
X364658595Y-40600340D01*
X364658595Y-40546465D01*
X320069966Y-64645473D02*
X320447089Y-65399720D01*
X319692842Y-65022597D01*
X320069966Y-65722969D02*
X320016091Y-65830719D01*
X319881404Y-65965406D01*
X319800592Y-65992343D01*
X319746717Y-65992343D01*
X319665905Y-65965406D01*
X319612030Y-65911531D01*
X319585093Y-65830719D01*
X319585093Y-65776844D01*
X319612030Y-65696032D01*
X319692842Y-65561345D01*
X319719780Y-65480532D01*
X319719780Y-65426658D01*
X319692842Y-65345845D01*
X319638967Y-65291971D01*
X319558155Y-65265033D01*
X319504280Y-65265033D01*
X319423468Y-65291971D01*
X319288781Y-65426658D01*
X319234906Y-65534407D01*
X319154094Y-66153967D02*
X319423468Y-66423341D01*
X319046345Y-65669094D02*
X319154094Y-66153967D01*
X318669221Y-66046218D01*
X319046345Y-66746590D02*
X318992470Y-66854340D01*
X318857783Y-66989027D01*
X318776971Y-67015964D01*
X318723096Y-67015964D01*
X318642284Y-66989027D01*
X318588409Y-66935152D01*
X318561471Y-66854340D01*
X318561471Y-66800465D01*
X318588409Y-66719653D01*
X318669221Y-66584966D01*
X318696158Y-66504154D01*
X318696158Y-66450279D01*
X318669221Y-66369467D01*
X318615346Y-66315592D01*
X318534534Y-66288654D01*
X318480659Y-66288654D01*
X318399847Y-66315592D01*
X318265160Y-66450279D01*
X318211285Y-66558028D01*
X355360592Y-38568722D02*
X355387529Y-38487910D01*
X355468341Y-38407097D01*
X355576091Y-38353223D01*
X355683841Y-38353223D01*
X355764653Y-38380160D01*
X355899340Y-38460972D01*
X355980152Y-38541784D01*
X356060964Y-38676471D01*
X356087902Y-38757284D01*
X356087902Y-38865033D01*
X356034027Y-38972783D01*
X355980152Y-39026658D01*
X355872402Y-39080532D01*
X355818528Y-39080532D01*
X355629966Y-38891971D01*
X355737715Y-38784221D01*
X355629966Y-39376844D02*
X355064280Y-38811158D01*
X354848781Y-39026658D01*
X354821844Y-39107470D01*
X354821844Y-39161345D01*
X354848781Y-39242157D01*
X354929593Y-39322969D01*
X355010406Y-39349906D01*
X355064280Y-39349906D01*
X355145093Y-39322969D01*
X355360592Y-39107470D01*
X354767969Y-40238841D02*
X355091218Y-39915592D01*
X354929593Y-40077216D02*
X354363908Y-39511531D01*
X354498595Y-39538468D01*
X354606345Y-39538468D01*
X354687157Y-39511531D01*
X354040659Y-39942529D02*
X353986784Y-39942529D01*
X353905972Y-39969467D01*
X353771285Y-40104154D01*
X353744348Y-40184966D01*
X353744348Y-40238841D01*
X353771285Y-40319653D01*
X353825160Y-40373528D01*
X353932910Y-40427402D01*
X354579407Y-40427402D01*
X354229221Y-40777589D01*
X332246592Y-64822722D02*
X332273529Y-64741910D01*
X332354341Y-64661097D01*
X332462091Y-64607223D01*
X332569841Y-64607223D01*
X332650653Y-64634160D01*
X332785340Y-64714972D01*
X332866152Y-64795784D01*
X332946964Y-64930471D01*
X332973902Y-65011284D01*
X332973902Y-65119033D01*
X332920027Y-65226783D01*
X332866152Y-65280658D01*
X332758402Y-65334532D01*
X332704528Y-65334532D01*
X332515966Y-65145971D01*
X332623715Y-65038221D01*
X332515966Y-65630844D02*
X331950280Y-65065158D01*
X331734781Y-65280658D01*
X331707844Y-65361470D01*
X331707844Y-65415345D01*
X331734781Y-65496157D01*
X331815593Y-65576969D01*
X331896406Y-65603906D01*
X331950280Y-65603906D01*
X332031093Y-65576969D01*
X332246592Y-65361470D01*
X331465407Y-65657781D02*
X331411532Y-65657781D01*
X331330720Y-65684719D01*
X331196033Y-65819406D01*
X331169096Y-65900218D01*
X331169096Y-65954093D01*
X331196033Y-66034905D01*
X331249908Y-66088780D01*
X331357658Y-66142654D01*
X332004155Y-66142654D01*
X331653969Y-66492841D01*
X331007471Y-66492841D02*
X331034409Y-66412028D01*
X331034409Y-66358154D01*
X331007471Y-66277341D01*
X330980534Y-66250404D01*
X330899722Y-66223467D01*
X330845847Y-66223467D01*
X330765035Y-66250404D01*
X330657285Y-66358154D01*
X330630348Y-66438966D01*
X330630348Y-66492841D01*
X330657285Y-66573653D01*
X330684223Y-66600590D01*
X330765035Y-66627528D01*
X330818910Y-66627528D01*
X330899722Y-66600590D01*
X331007471Y-66492841D01*
X331088284Y-66465903D01*
X331142158Y-66465903D01*
X331222971Y-66492841D01*
X331330720Y-66600590D01*
X331357658Y-66681402D01*
X331357658Y-66735277D01*
X331330720Y-66816089D01*
X331222971Y-66923839D01*
X331142158Y-66950776D01*
X331088284Y-66950776D01*
X331007471Y-66923839D01*
X330899722Y-66816089D01*
X330872784Y-66735277D01*
X330872784Y-66681402D01*
X330899722Y-66600590D01*
X344931218Y-39238096D02*
X344958155Y-39157284D01*
X345038967Y-39076471D01*
X345146717Y-39022597D01*
X345254467Y-39022597D01*
X345335279Y-39049534D01*
X345469966Y-39130346D01*
X345550778Y-39211158D01*
X345631590Y-39345845D01*
X345658528Y-39426658D01*
X345658528Y-39534407D01*
X345604653Y-39642157D01*
X345550778Y-39696032D01*
X345443028Y-39749906D01*
X345389154Y-39749906D01*
X345200592Y-39561345D01*
X345308341Y-39453595D01*
X345200592Y-40046218D02*
X344634906Y-39480532D01*
X344419407Y-39696032D01*
X344392470Y-39776844D01*
X344392470Y-39830719D01*
X344419407Y-39911531D01*
X344500219Y-39992343D01*
X344581032Y-40019280D01*
X344634906Y-40019280D01*
X344715719Y-39992343D01*
X344931218Y-39776844D01*
X344607969Y-40638841D02*
X344500219Y-40746590D01*
X344419407Y-40773528D01*
X344365532Y-40773528D01*
X344230845Y-40746590D01*
X344096158Y-40665778D01*
X343880659Y-40450279D01*
X343853722Y-40369467D01*
X343853722Y-40315592D01*
X343880659Y-40234780D01*
X343988409Y-40127030D01*
X344069221Y-40100093D01*
X344123096Y-40100093D01*
X344203908Y-40127030D01*
X344338595Y-40261717D01*
X344365532Y-40342529D01*
X344365532Y-40396404D01*
X344338595Y-40477216D01*
X344230845Y-40584966D01*
X344150033Y-40611903D01*
X344096158Y-40611903D01*
X344015346Y-40584966D01*
X339821218Y-39338096D02*
X339848155Y-39257284D01*
X339928967Y-39176471D01*
X340036717Y-39122597D01*
X340144467Y-39122597D01*
X340225279Y-39149534D01*
X340359966Y-39230346D01*
X340440778Y-39311158D01*
X340521590Y-39445845D01*
X340548528Y-39526658D01*
X340548528Y-39634407D01*
X340494653Y-39742157D01*
X340440778Y-39796032D01*
X340333028Y-39849906D01*
X340279154Y-39849906D01*
X340090592Y-39661345D01*
X340198341Y-39553595D01*
X340090592Y-40146218D02*
X339524906Y-39580532D01*
X339309407Y-39796032D01*
X339282470Y-39876844D01*
X339282470Y-39930719D01*
X339309407Y-40011531D01*
X339390219Y-40092343D01*
X339471032Y-40119280D01*
X339524906Y-40119280D01*
X339605719Y-40092343D01*
X339821218Y-39876844D01*
X339013096Y-40092343D02*
X338635972Y-40469467D01*
X339444094Y-40792715D01*
X317527309Y-64678129D02*
X317904433Y-65432377D01*
X317150186Y-65055253D01*
X317042436Y-65701751D02*
X316988561Y-65809500D01*
X316988561Y-65863375D01*
X317015499Y-65944187D01*
X317096311Y-66024999D01*
X317177123Y-66051937D01*
X317230998Y-66051937D01*
X317311810Y-66024999D01*
X317527309Y-65809500D01*
X316961624Y-65243815D01*
X316773062Y-65432377D01*
X316746125Y-65513189D01*
X316746125Y-65567064D01*
X316773062Y-65647876D01*
X316826937Y-65701751D01*
X316907749Y-65728688D01*
X316961624Y-65728688D01*
X317042436Y-65701751D01*
X317230998Y-65513189D01*
X316395938Y-65809500D02*
X316853874Y-66267436D01*
X316880812Y-66348248D01*
X316880812Y-66402123D01*
X316853874Y-66482935D01*
X316746125Y-66590685D01*
X316665312Y-66617622D01*
X316611438Y-66617622D01*
X316530625Y-66590685D01*
X316072690Y-66132749D01*
X316369001Y-66913934D02*
X316315126Y-67021683D01*
X316180439Y-67156370D01*
X316099627Y-67183308D01*
X316045752Y-67183308D01*
X315964940Y-67156370D01*
X315911065Y-67102496D01*
X315884128Y-67021683D01*
X315884128Y-66967809D01*
X315911065Y-66886996D01*
X315991877Y-66752309D01*
X316018815Y-66671497D01*
X316018815Y-66617622D01*
X315991877Y-66536810D01*
X315938003Y-66482935D01*
X315857190Y-66455998D01*
X315803316Y-66455998D01*
X315722503Y-66482935D01*
X315587816Y-66617622D01*
X315533942Y-66725372D01*
X345200592Y-64822722D02*
X345227529Y-64741910D01*
X345308341Y-64661097D01*
X345416091Y-64607223D01*
X345523841Y-64607223D01*
X345604653Y-64634160D01*
X345739340Y-64714972D01*
X345820152Y-64795784D01*
X345900964Y-64930471D01*
X345927902Y-65011284D01*
X345927902Y-65119033D01*
X345874027Y-65226783D01*
X345820152Y-65280658D01*
X345712402Y-65334532D01*
X345658528Y-65334532D01*
X345469966Y-65145971D01*
X345577715Y-65038221D01*
X345469966Y-65630844D02*
X344904280Y-65065158D01*
X344688781Y-65280658D01*
X344661844Y-65361470D01*
X344661844Y-65415345D01*
X344688781Y-65496157D01*
X344769593Y-65576969D01*
X344850406Y-65603906D01*
X344904280Y-65603906D01*
X344985093Y-65576969D01*
X345200592Y-65361470D01*
X344419407Y-65657781D02*
X344365532Y-65657781D01*
X344284720Y-65684719D01*
X344150033Y-65819406D01*
X344123096Y-65900218D01*
X344123096Y-65954093D01*
X344150033Y-66034905D01*
X344203908Y-66088780D01*
X344311658Y-66142654D01*
X344958155Y-66142654D01*
X344607969Y-66492841D01*
X343880659Y-66196529D02*
X343826784Y-66196529D01*
X343745972Y-66223467D01*
X343611285Y-66358154D01*
X343584348Y-66438966D01*
X343584348Y-66492841D01*
X343611285Y-66573653D01*
X343665160Y-66627528D01*
X343772910Y-66681402D01*
X344419407Y-66681402D01*
X344069221Y-67031589D01*
X352820592Y-38568722D02*
X352847529Y-38487910D01*
X352928341Y-38407097D01*
X353036091Y-38353223D01*
X353143841Y-38353223D01*
X353224653Y-38380160D01*
X353359340Y-38460972D01*
X353440152Y-38541784D01*
X353520964Y-38676471D01*
X353547902Y-38757284D01*
X353547902Y-38865033D01*
X353494027Y-38972783D01*
X353440152Y-39026658D01*
X353332402Y-39080532D01*
X353278528Y-39080532D01*
X353089966Y-38891971D01*
X353197715Y-38784221D01*
X353089966Y-39376844D02*
X352524280Y-38811158D01*
X352308781Y-39026658D01*
X352281844Y-39107470D01*
X352281844Y-39161345D01*
X352308781Y-39242157D01*
X352389593Y-39322969D01*
X352470406Y-39349906D01*
X352524280Y-39349906D01*
X352605093Y-39322969D01*
X352820592Y-39107470D01*
X352227969Y-40238841D02*
X352551218Y-39915592D01*
X352389593Y-40077216D02*
X351823908Y-39511531D01*
X351958595Y-39538468D01*
X352066345Y-39538468D01*
X352147157Y-39511531D01*
X351689221Y-40777589D02*
X352012470Y-40454340D01*
X351850845Y-40615964D02*
X351285160Y-40050279D01*
X351419847Y-40077216D01*
X351527597Y-40077216D01*
X351608409Y-40050279D01*
X327490592Y-64614847D02*
X327140406Y-64965033D01*
X327544467Y-64991971D01*
X327463654Y-65072783D01*
X327436717Y-65153595D01*
X327436717Y-65207470D01*
X327463654Y-65288282D01*
X327598341Y-65422969D01*
X327679154Y-65449906D01*
X327733028Y-65449906D01*
X327813841Y-65422969D01*
X327975465Y-65261345D01*
X328002402Y-65180532D01*
X328002402Y-65126658D01*
X326978781Y-65126658D02*
X327355905Y-65880905D01*
X326601658Y-65503781D01*
X326466971Y-65638468D02*
X326116784Y-65988654D01*
X326520845Y-66015592D01*
X326440033Y-66096404D01*
X326413096Y-66177216D01*
X326413096Y-66231091D01*
X326440033Y-66311903D01*
X326574720Y-66446590D01*
X326655532Y-66473528D01*
X326709407Y-66473528D01*
X326790219Y-66446590D01*
X326951844Y-66284966D01*
X326978781Y-66204154D01*
X326978781Y-66150279D01*
X362980592Y-64822722D02*
X363007529Y-64741910D01*
X363088341Y-64661097D01*
X363196091Y-64607223D01*
X363303841Y-64607223D01*
X363384653Y-64634160D01*
X363519340Y-64714972D01*
X363600152Y-64795784D01*
X363680964Y-64930471D01*
X363707902Y-65011284D01*
X363707902Y-65119033D01*
X363654027Y-65226783D01*
X363600152Y-65280658D01*
X363492402Y-65334532D01*
X363438528Y-65334532D01*
X363249966Y-65145971D01*
X363357715Y-65038221D01*
X363249966Y-65630844D02*
X362684280Y-65065158D01*
X362468781Y-65280658D01*
X362441844Y-65361470D01*
X362441844Y-65415345D01*
X362468781Y-65496157D01*
X362549593Y-65576969D01*
X362630406Y-65603906D01*
X362684280Y-65603906D01*
X362765093Y-65576969D01*
X362980592Y-65361470D01*
X362387969Y-66492841D02*
X362711218Y-66169592D01*
X362549593Y-66331216D02*
X361983908Y-65765531D01*
X362118595Y-65792468D01*
X362226345Y-65792468D01*
X362307157Y-65765531D01*
X361633722Y-66115717D02*
X361256598Y-66492841D01*
X362064720Y-66816089D01*
X335740964Y-64876597D02*
X335471590Y-65145971D01*
X335956463Y-64984346D02*
X335202216Y-64607223D01*
X335579340Y-65361470D01*
X334555719Y-65307595D02*
X334582656Y-65226783D01*
X334663468Y-65145971D01*
X334771218Y-65092096D01*
X334878967Y-65092096D01*
X334959780Y-65119033D01*
X335094467Y-65199845D01*
X335175279Y-65280658D01*
X335256091Y-65415345D01*
X335283028Y-65496157D01*
X335283028Y-65603906D01*
X335229154Y-65711656D01*
X335175279Y-65765531D01*
X335067529Y-65819406D01*
X335013654Y-65819406D01*
X334825093Y-65630844D01*
X334932842Y-65523094D01*
X334825093Y-66115717D02*
X334259407Y-65550032D01*
X334501844Y-66438966D01*
X333936158Y-65873280D01*
X334232470Y-66708340D02*
X333666784Y-66142654D01*
X333532097Y-66277341D01*
X333478223Y-66385091D01*
X333478223Y-66492841D01*
X333505160Y-66573653D01*
X333585972Y-66708340D01*
X333666784Y-66789152D01*
X333801471Y-66869964D01*
X333882284Y-66896902D01*
X333990033Y-66896902D01*
X334097783Y-66843027D01*
X334232470Y-66708340D01*
X347498155Y-64811158D02*
X347525093Y-64730346D01*
X347605905Y-64649534D01*
X347713654Y-64595659D01*
X347821404Y-64595659D01*
X347902216Y-64622597D01*
X348036903Y-64703409D01*
X348117715Y-64784221D01*
X348198528Y-64918908D01*
X348225465Y-64999720D01*
X348225465Y-65107470D01*
X348171590Y-65215219D01*
X348117715Y-65269094D01*
X348009966Y-65322969D01*
X347956091Y-65322969D01*
X347767529Y-65134407D01*
X347875279Y-65026658D01*
X347767529Y-65619280D02*
X347201844Y-65053595D01*
X347444280Y-65942529D01*
X346878595Y-65376844D01*
X347174906Y-66211903D02*
X346609221Y-65646218D01*
X346474534Y-65780905D01*
X346420659Y-65888654D01*
X346420659Y-65996404D01*
X346447597Y-66077216D01*
X346528409Y-66211903D01*
X346609221Y-66292715D01*
X346743908Y-66373528D01*
X346824720Y-66400465D01*
X346932470Y-66400465D01*
X347040219Y-66346590D01*
X347174906Y-66211903D01*
X329691218Y-39238096D02*
X329718155Y-39157284D01*
X329798967Y-39076471D01*
X329906717Y-39022597D01*
X330014467Y-39022597D01*
X330095279Y-39049534D01*
X330229966Y-39130346D01*
X330310778Y-39211158D01*
X330391590Y-39345845D01*
X330418528Y-39426658D01*
X330418528Y-39534407D01*
X330364653Y-39642157D01*
X330310778Y-39696032D01*
X330203028Y-39749906D01*
X330149154Y-39749906D01*
X329960592Y-39561345D01*
X330068341Y-39453595D01*
X329960592Y-40046218D02*
X329394906Y-39480532D01*
X329179407Y-39696032D01*
X329152470Y-39776844D01*
X329152470Y-39830719D01*
X329179407Y-39911531D01*
X329260219Y-39992343D01*
X329341032Y-40019280D01*
X329394906Y-40019280D01*
X329475719Y-39992343D01*
X329691218Y-39776844D01*
X328775346Y-40477216D02*
X329152470Y-40854340D01*
X328694534Y-40127030D02*
X329233282Y-40396404D01*
X328883096Y-40746590D01*
X350280592Y-38714722D02*
X350307529Y-38633910D01*
X350388341Y-38553097D01*
X350496091Y-38499223D01*
X350603841Y-38499223D01*
X350684653Y-38526160D01*
X350819340Y-38606972D01*
X350900152Y-38687784D01*
X350980964Y-38822471D01*
X351007902Y-38903284D01*
X351007902Y-39011033D01*
X350954027Y-39118783D01*
X350900152Y-39172658D01*
X350792402Y-39226532D01*
X350738528Y-39226532D01*
X350549966Y-39037971D01*
X350657715Y-38930221D01*
X350549966Y-39522844D02*
X349984280Y-38957158D01*
X349768781Y-39172658D01*
X349741844Y-39253470D01*
X349741844Y-39307345D01*
X349768781Y-39388157D01*
X349849593Y-39468969D01*
X349930406Y-39495906D01*
X349984280Y-39495906D01*
X350065093Y-39468969D01*
X350280592Y-39253470D01*
X349687969Y-40384841D02*
X350011218Y-40061592D01*
X349849593Y-40223216D02*
X349283908Y-39657531D01*
X349418595Y-39684468D01*
X349526345Y-39684468D01*
X349607157Y-39657531D01*
X348772097Y-40169341D02*
X348718223Y-40223216D01*
X348691285Y-40304028D01*
X348691285Y-40357903D01*
X348718223Y-40438715D01*
X348799035Y-40573402D01*
X348933722Y-40708089D01*
X349068409Y-40788902D01*
X349149221Y-40815839D01*
X349203096Y-40815839D01*
X349283908Y-40788902D01*
X349337783Y-40735027D01*
X349364720Y-40654215D01*
X349364720Y-40600340D01*
X349337783Y-40519528D01*
X349256971Y-40384841D01*
X349122284Y-40250154D01*
X348987597Y-40169341D01*
X348906784Y-40142404D01*
X348852910Y-40142404D01*
X348772097Y-40169341D01*
X337590592Y-64822722D02*
X337617529Y-64741910D01*
X337698341Y-64661097D01*
X337806091Y-64607223D01*
X337913841Y-64607223D01*
X337994653Y-64634160D01*
X338129340Y-64714972D01*
X338210152Y-64795784D01*
X338290964Y-64930471D01*
X338317902Y-65011284D01*
X338317902Y-65119033D01*
X338264027Y-65226783D01*
X338210152Y-65280658D01*
X338102402Y-65334532D01*
X338048528Y-65334532D01*
X337859966Y-65145971D01*
X337967715Y-65038221D01*
X337859966Y-65630844D02*
X337294280Y-65065158D01*
X337078781Y-65280658D01*
X337051844Y-65361470D01*
X337051844Y-65415345D01*
X337078781Y-65496157D01*
X337159593Y-65576969D01*
X337240406Y-65603906D01*
X337294280Y-65603906D01*
X337375093Y-65576969D01*
X337590592Y-65361470D01*
X336809407Y-65657781D02*
X336755532Y-65657781D01*
X336674720Y-65684719D01*
X336540033Y-65819406D01*
X336513096Y-65900218D01*
X336513096Y-65954093D01*
X336540033Y-66034905D01*
X336593908Y-66088780D01*
X336701658Y-66142654D01*
X337348155Y-66142654D01*
X336997969Y-66492841D01*
X336243722Y-66115717D02*
X335866598Y-66492841D01*
X336674720Y-66816089D01*
X350290592Y-64822722D02*
X350317529Y-64741910D01*
X350398341Y-64661097D01*
X350506091Y-64607223D01*
X350613841Y-64607223D01*
X350694653Y-64634160D01*
X350829340Y-64714972D01*
X350910152Y-64795784D01*
X350990964Y-64930471D01*
X351017902Y-65011284D01*
X351017902Y-65119033D01*
X350964027Y-65226783D01*
X350910152Y-65280658D01*
X350802402Y-65334532D01*
X350748528Y-65334532D01*
X350559966Y-65145971D01*
X350667715Y-65038221D01*
X350559966Y-65630844D02*
X349994280Y-65065158D01*
X349778781Y-65280658D01*
X349751844Y-65361470D01*
X349751844Y-65415345D01*
X349778781Y-65496157D01*
X349859593Y-65576969D01*
X349940406Y-65603906D01*
X349994280Y-65603906D01*
X350075093Y-65576969D01*
X350290592Y-65361470D01*
X349509407Y-65657781D02*
X349455532Y-65657781D01*
X349374720Y-65684719D01*
X349240033Y-65819406D01*
X349213096Y-65900218D01*
X349213096Y-65954093D01*
X349240033Y-66034905D01*
X349293908Y-66088780D01*
X349401658Y-66142654D01*
X350048155Y-66142654D01*
X349697969Y-66492841D01*
X349159221Y-67031589D02*
X349482470Y-66708340D01*
X349320845Y-66869964D02*
X348755160Y-66304279D01*
X348889847Y-66331216D01*
X348997597Y-66331216D01*
X349078409Y-66304279D01*
X322098155Y-39211158D02*
X322125093Y-39130346D01*
X322205905Y-39049534D01*
X322313654Y-38995659D01*
X322421404Y-38995659D01*
X322502216Y-39022597D01*
X322636903Y-39103409D01*
X322717715Y-39184221D01*
X322798528Y-39318908D01*
X322825465Y-39399720D01*
X322825465Y-39507470D01*
X322771590Y-39615219D01*
X322717715Y-39669094D01*
X322609966Y-39722969D01*
X322556091Y-39722969D01*
X322367529Y-39534407D01*
X322475279Y-39426658D01*
X322367529Y-40019280D02*
X321801844Y-39453595D01*
X322044280Y-40342529D01*
X321478595Y-39776844D01*
X321774906Y-40611903D02*
X321209221Y-40046218D01*
X321074534Y-40180905D01*
X321020659Y-40288654D01*
X321020659Y-40396404D01*
X321047597Y-40477216D01*
X321128409Y-40611903D01*
X321209221Y-40692715D01*
X321343908Y-40773528D01*
X321424720Y-40800465D01*
X321532470Y-40800465D01*
X321640219Y-40746590D01*
X321774906Y-40611903D01*
X367523809Y-56629761D02*
X367561904Y-56744047D01*
X367561904Y-56934523D01*
X367523809Y-57010714D01*
X367485714Y-57048809D01*
X367409523Y-57086904D01*
X367333333Y-57086904D01*
X367257142Y-57048809D01*
X367219047Y-57010714D01*
X367180952Y-56934523D01*
X367142857Y-56782142D01*
X367104761Y-56705952D01*
X367066666Y-56667857D01*
X366990476Y-56629761D01*
X366914285Y-56629761D01*
X366838095Y-56667857D01*
X366800000Y-56705952D01*
X366761904Y-56782142D01*
X366761904Y-56972619D01*
X366800000Y-57086904D01*
X366761904Y-57353571D02*
X367561904Y-57544047D01*
X366990476Y-57696428D01*
X367561904Y-57848809D01*
X366761904Y-58039285D01*
X367561904Y-58344047D02*
X366761904Y-58344047D01*
X366761904Y-58534523D01*
X366800000Y-58648809D01*
X366876190Y-58725000D01*
X366952380Y-58763095D01*
X367104761Y-58801190D01*
X367219047Y-58801190D01*
X367371428Y-58763095D01*
X367447619Y-58725000D01*
X367523809Y-58648809D01*
X367561904Y-58534523D01*
X367561904Y-58344047D01*
X367561904Y-59144047D02*
X366761904Y-59144047D01*
X366761904Y-59677380D02*
X366761904Y-59829761D01*
X366800000Y-59905952D01*
X366876190Y-59982142D01*
X367028571Y-60020238D01*
X367295238Y-60020238D01*
X367447619Y-59982142D01*
X367523809Y-59905952D01*
X367561904Y-59829761D01*
X367561904Y-59677380D01*
X367523809Y-59601190D01*
X367447619Y-59525000D01*
X367295238Y-59486904D01*
X367028571Y-59486904D01*
X366876190Y-59525000D01*
X366800000Y-59601190D01*
X366761904Y-59677380D01*
X322098155Y-64811158D02*
X322125093Y-64730346D01*
X322205905Y-64649534D01*
X322313654Y-64595659D01*
X322421404Y-64595659D01*
X322502216Y-64622597D01*
X322636903Y-64703409D01*
X322717715Y-64784221D01*
X322798528Y-64918908D01*
X322825465Y-64999720D01*
X322825465Y-65107470D01*
X322771590Y-65215219D01*
X322717715Y-65269094D01*
X322609966Y-65322969D01*
X322556091Y-65322969D01*
X322367529Y-65134407D01*
X322475279Y-65026658D01*
X322367529Y-65619280D02*
X321801844Y-65053595D01*
X322044280Y-65942529D01*
X321478595Y-65376844D01*
X321774906Y-66211903D02*
X321209221Y-65646218D01*
X321074534Y-65780905D01*
X321020659Y-65888654D01*
X321020659Y-65996404D01*
X321047597Y-66077216D01*
X321128409Y-66211903D01*
X321209221Y-66292715D01*
X321343908Y-66373528D01*
X321424720Y-66400465D01*
X321532470Y-66400465D01*
X321640219Y-66346590D01*
X321774906Y-66211903D01*
X324611218Y-39138096D02*
X324638155Y-39057284D01*
X324718967Y-38976471D01*
X324826717Y-38922597D01*
X324934467Y-38922597D01*
X325015279Y-38949534D01*
X325149966Y-39030346D01*
X325230778Y-39111158D01*
X325311590Y-39245845D01*
X325338528Y-39326658D01*
X325338528Y-39434407D01*
X325284653Y-39542157D01*
X325230778Y-39596032D01*
X325123028Y-39649906D01*
X325069154Y-39649906D01*
X324880592Y-39461345D01*
X324988341Y-39353595D01*
X324880592Y-39946218D02*
X324314906Y-39380532D01*
X324099407Y-39596032D01*
X324072470Y-39676844D01*
X324072470Y-39730719D01*
X324099407Y-39811531D01*
X324180219Y-39892343D01*
X324261032Y-39919280D01*
X324314906Y-39919280D01*
X324395719Y-39892343D01*
X324611218Y-39676844D01*
X323830033Y-39973155D02*
X323776158Y-39973155D01*
X323695346Y-40000093D01*
X323560659Y-40134780D01*
X323533722Y-40215592D01*
X323533722Y-40269467D01*
X323560659Y-40350279D01*
X323614534Y-40404154D01*
X323722284Y-40458028D01*
X324368781Y-40458028D01*
X324018595Y-40808215D01*
X334798155Y-39211158D02*
X334825093Y-39130346D01*
X334905905Y-39049534D01*
X335013654Y-38995659D01*
X335121404Y-38995659D01*
X335202216Y-39022597D01*
X335336903Y-39103409D01*
X335417715Y-39184221D01*
X335498528Y-39318908D01*
X335525465Y-39399720D01*
X335525465Y-39507470D01*
X335471590Y-39615219D01*
X335417715Y-39669094D01*
X335309966Y-39722969D01*
X335256091Y-39722969D01*
X335067529Y-39534407D01*
X335175279Y-39426658D01*
X335067529Y-40019280D02*
X334501844Y-39453595D01*
X334744280Y-40342529D01*
X334178595Y-39776844D01*
X334474906Y-40611903D02*
X333909221Y-40046218D01*
X333774534Y-40180905D01*
X333720659Y-40288654D01*
X333720659Y-40396404D01*
X333747597Y-40477216D01*
X333828409Y-40611903D01*
X333909221Y-40692715D01*
X334043908Y-40773528D01*
X334124720Y-40800465D01*
X334232470Y-40800465D01*
X334340219Y-40746590D01*
X334474906Y-40611903D01*
X342943435Y-65563375D02*
X342862622Y-65105439D01*
X343266683Y-65240126D02*
X342700998Y-64674441D01*
X342485499Y-64889940D01*
X342458561Y-64970752D01*
X342458561Y-65024627D01*
X342485499Y-65105439D01*
X342566311Y-65186251D01*
X342647123Y-65213189D01*
X342700998Y-65213189D01*
X342781810Y-65186251D01*
X342997309Y-64970752D01*
X342135312Y-65240126D02*
X342593248Y-65698062D01*
X342620186Y-65778874D01*
X342620186Y-65832749D01*
X342593248Y-65913561D01*
X342485499Y-66021311D01*
X342404687Y-66048248D01*
X342350812Y-66048248D01*
X342270000Y-66021311D01*
X341812064Y-65563375D01*
X342108375Y-66398435D02*
X341542690Y-65832749D01*
X341785126Y-66721683D01*
X341219441Y-66155998D01*
X332231218Y-39238096D02*
X332258155Y-39157284D01*
X332338967Y-39076471D01*
X332446717Y-39022597D01*
X332554467Y-39022597D01*
X332635279Y-39049534D01*
X332769966Y-39130346D01*
X332850778Y-39211158D01*
X332931590Y-39345845D01*
X332958528Y-39426658D01*
X332958528Y-39534407D01*
X332904653Y-39642157D01*
X332850778Y-39696032D01*
X332743028Y-39749906D01*
X332689154Y-39749906D01*
X332500592Y-39561345D01*
X332608341Y-39453595D01*
X332500592Y-40046218D02*
X331934906Y-39480532D01*
X331719407Y-39696032D01*
X331692470Y-39776844D01*
X331692470Y-39830719D01*
X331719407Y-39911531D01*
X331800219Y-39992343D01*
X331881032Y-40019280D01*
X331934906Y-40019280D01*
X332015719Y-39992343D01*
X332231218Y-39776844D01*
X331099847Y-40315592D02*
X331369221Y-40046218D01*
X331665532Y-40288654D01*
X331611658Y-40288654D01*
X331530845Y-40315592D01*
X331396158Y-40450279D01*
X331369221Y-40531091D01*
X331369221Y-40584966D01*
X331396158Y-40665778D01*
X331530845Y-40800465D01*
X331611658Y-40827402D01*
X331665532Y-40827402D01*
X331746345Y-40800465D01*
X331881032Y-40665778D01*
X331907969Y-40584966D01*
X331907969Y-40531091D01*
X360198155Y-64811158D02*
X360225093Y-64730346D01*
X360305905Y-64649534D01*
X360413654Y-64595659D01*
X360521404Y-64595659D01*
X360602216Y-64622597D01*
X360736903Y-64703409D01*
X360817715Y-64784221D01*
X360898528Y-64918908D01*
X360925465Y-64999720D01*
X360925465Y-65107470D01*
X360871590Y-65215219D01*
X360817715Y-65269094D01*
X360709966Y-65322969D01*
X360656091Y-65322969D01*
X360467529Y-65134407D01*
X360575279Y-65026658D01*
X360467529Y-65619280D02*
X359901844Y-65053595D01*
X360144280Y-65942529D01*
X359578595Y-65376844D01*
X359874906Y-66211903D02*
X359309221Y-65646218D01*
X359174534Y-65780905D01*
X359120659Y-65888654D01*
X359120659Y-65996404D01*
X359147597Y-66077216D01*
X359228409Y-66211903D01*
X359309221Y-66292715D01*
X359443908Y-66373528D01*
X359524720Y-66400465D01*
X359632470Y-66400465D01*
X359740219Y-66346590D01*
X359874906Y-66211903D01*
X355360592Y-64822722D02*
X355387529Y-64741910D01*
X355468341Y-64661097D01*
X355576091Y-64607223D01*
X355683841Y-64607223D01*
X355764653Y-64634160D01*
X355899340Y-64714972D01*
X355980152Y-64795784D01*
X356060964Y-64930471D01*
X356087902Y-65011284D01*
X356087902Y-65119033D01*
X356034027Y-65226783D01*
X355980152Y-65280658D01*
X355872402Y-65334532D01*
X355818528Y-65334532D01*
X355629966Y-65145971D01*
X355737715Y-65038221D01*
X355629966Y-65630844D02*
X355064280Y-65065158D01*
X354848781Y-65280658D01*
X354821844Y-65361470D01*
X354821844Y-65415345D01*
X354848781Y-65496157D01*
X354929593Y-65576969D01*
X355010406Y-65603906D01*
X355064280Y-65603906D01*
X355145093Y-65576969D01*
X355360592Y-65361470D01*
X354767969Y-66492841D02*
X355091218Y-66169592D01*
X354929593Y-66331216D02*
X354363908Y-65765531D01*
X354498595Y-65792468D01*
X354606345Y-65792468D01*
X354687157Y-65765531D01*
X354498595Y-66762215D02*
X354390845Y-66869964D01*
X354310033Y-66896902D01*
X354256158Y-66896902D01*
X354121471Y-66869964D01*
X353986784Y-66789152D01*
X353771285Y-66573653D01*
X353744348Y-66492841D01*
X353744348Y-66438966D01*
X353771285Y-66358154D01*
X353879035Y-66250404D01*
X353959847Y-66223467D01*
X354013722Y-66223467D01*
X354094534Y-66250404D01*
X354229221Y-66385091D01*
X354256158Y-66465903D01*
X354256158Y-66519778D01*
X354229221Y-66600590D01*
X354121471Y-66708340D01*
X354040659Y-66735277D01*
X353986784Y-66735277D01*
X353905972Y-66708340D01*
X360198155Y-39211158D02*
X360225093Y-39130346D01*
X360305905Y-39049534D01*
X360413654Y-38995659D01*
X360521404Y-38995659D01*
X360602216Y-39022597D01*
X360736903Y-39103409D01*
X360817715Y-39184221D01*
X360898528Y-39318908D01*
X360925465Y-39399720D01*
X360925465Y-39507470D01*
X360871590Y-39615219D01*
X360817715Y-39669094D01*
X360709966Y-39722969D01*
X360656091Y-39722969D01*
X360467529Y-39534407D01*
X360575279Y-39426658D01*
X360467529Y-40019280D02*
X359901844Y-39453595D01*
X360144280Y-40342529D01*
X359578595Y-39776844D01*
X359874906Y-40611903D02*
X359309221Y-40046218D01*
X359174534Y-40180905D01*
X359120659Y-40288654D01*
X359120659Y-40396404D01*
X359147597Y-40477216D01*
X359228409Y-40611903D01*
X359309221Y-40692715D01*
X359443908Y-40773528D01*
X359524720Y-40800465D01*
X359632470Y-40800465D01*
X359740219Y-40746590D01*
X359874906Y-40611903D01*
X367523809Y-45215476D02*
X367561904Y-45329761D01*
X367561904Y-45520238D01*
X367523809Y-45596428D01*
X367485714Y-45634523D01*
X367409523Y-45672619D01*
X367333333Y-45672619D01*
X367257142Y-45634523D01*
X367219047Y-45596428D01*
X367180952Y-45520238D01*
X367142857Y-45367857D01*
X367104761Y-45291666D01*
X367066666Y-45253571D01*
X366990476Y-45215476D01*
X366914285Y-45215476D01*
X366838095Y-45253571D01*
X366800000Y-45291666D01*
X366761904Y-45367857D01*
X366761904Y-45558333D01*
X366800000Y-45672619D01*
X366761904Y-45939285D02*
X367561904Y-46129761D01*
X366990476Y-46282142D01*
X367561904Y-46434523D01*
X366761904Y-46625000D01*
X367485714Y-47386904D02*
X367523809Y-47348809D01*
X367561904Y-47234523D01*
X367561904Y-47158333D01*
X367523809Y-47044047D01*
X367447619Y-46967857D01*
X367371428Y-46929761D01*
X367219047Y-46891666D01*
X367104761Y-46891666D01*
X366952380Y-46929761D01*
X366876190Y-46967857D01*
X366800000Y-47044047D01*
X366761904Y-47158333D01*
X366761904Y-47234523D01*
X366800000Y-47348809D01*
X366838095Y-47386904D01*
X367561904Y-48110714D02*
X367561904Y-47729761D01*
X366761904Y-47729761D01*
X367561904Y-48377380D02*
X366761904Y-48377380D01*
X367561904Y-48834523D02*
X367104761Y-48491666D01*
X366761904Y-48834523D02*
X367219047Y-48377380D01*
X365520592Y-64822722D02*
X365547529Y-64741910D01*
X365628341Y-64661097D01*
X365736091Y-64607223D01*
X365843841Y-64607223D01*
X365924653Y-64634160D01*
X366059340Y-64714972D01*
X366140152Y-64795784D01*
X366220964Y-64930471D01*
X366247902Y-65011284D01*
X366247902Y-65119033D01*
X366194027Y-65226783D01*
X366140152Y-65280658D01*
X366032402Y-65334532D01*
X365978528Y-65334532D01*
X365789966Y-65145971D01*
X365897715Y-65038221D01*
X365789966Y-65630844D02*
X365224280Y-65065158D01*
X365008781Y-65280658D01*
X364981844Y-65361470D01*
X364981844Y-65415345D01*
X365008781Y-65496157D01*
X365089593Y-65576969D01*
X365170406Y-65603906D01*
X365224280Y-65603906D01*
X365305093Y-65576969D01*
X365520592Y-65361470D01*
X364927969Y-66492841D02*
X365251218Y-66169592D01*
X365089593Y-66331216D02*
X364523908Y-65765531D01*
X364658595Y-65792468D01*
X364766345Y-65792468D01*
X364847157Y-65765531D01*
X363877410Y-66412028D02*
X363985160Y-66304279D01*
X364065972Y-66277341D01*
X364119847Y-66277341D01*
X364254534Y-66304279D01*
X364389221Y-66385091D01*
X364604720Y-66600590D01*
X364631658Y-66681402D01*
X364631658Y-66735277D01*
X364604720Y-66816089D01*
X364496971Y-66923839D01*
X364416158Y-66950776D01*
X364362284Y-66950776D01*
X364281471Y-66923839D01*
X364146784Y-66789152D01*
X364119847Y-66708340D01*
X364119847Y-66654465D01*
X364146784Y-66573653D01*
X364254534Y-66465903D01*
X364335346Y-66438966D01*
X364389221Y-66438966D01*
X364470033Y-66465903D01*
%TO.C,SW49*%
X228015523Y-51372761D02*
X227872666Y-51420380D01*
X227634571Y-51420380D01*
X227539333Y-51372761D01*
X227491714Y-51325142D01*
X227444095Y-51229904D01*
X227444095Y-51134666D01*
X227491714Y-51039428D01*
X227539333Y-50991809D01*
X227634571Y-50944190D01*
X227825047Y-50896571D01*
X227920285Y-50848952D01*
X227967904Y-50801333D01*
X228015523Y-50706095D01*
X228015523Y-50610857D01*
X227967904Y-50515619D01*
X227920285Y-50468000D01*
X227825047Y-50420380D01*
X227586952Y-50420380D01*
X227444095Y-50468000D01*
X227110761Y-50420380D02*
X226872666Y-51420380D01*
X226682190Y-50706095D01*
X226491714Y-51420380D01*
X226253619Y-50420380D01*
X225444095Y-50753714D02*
X225444095Y-51420380D01*
X225682190Y-50372761D02*
X225920285Y-51087047D01*
X225301238Y-51087047D01*
X224872666Y-51420380D02*
X224682190Y-51420380D01*
X224586952Y-51372761D01*
X224539333Y-51325142D01*
X224444095Y-51182285D01*
X224396476Y-50991809D01*
X224396476Y-50610857D01*
X224444095Y-50515619D01*
X224491714Y-50468000D01*
X224586952Y-50420380D01*
X224777428Y-50420380D01*
X224872666Y-50468000D01*
X224920285Y-50515619D01*
X224967904Y-50610857D01*
X224967904Y-50848952D01*
X224920285Y-50944190D01*
X224872666Y-50991809D01*
X224777428Y-51039428D01*
X224586952Y-51039428D01*
X224491714Y-50991809D01*
X224444095Y-50944190D01*
X224396476Y-50848952D01*
D11*
%TO.C,J2*%
X306214902Y-85673545D02*
X306214902Y-86016829D01*
X306237787Y-86085486D01*
X306283559Y-86131257D01*
X306352216Y-86154143D01*
X306397987Y-86154143D01*
X306008931Y-85719316D02*
X305986046Y-85696431D01*
X305940274Y-85673545D01*
X305825846Y-85673545D01*
X305780075Y-85696431D01*
X305757189Y-85719316D01*
X305734304Y-85765087D01*
X305734304Y-85810859D01*
X305757189Y-85879515D01*
X306031817Y-86154143D01*
X305734304Y-86154143D01*
D12*
%TO.C,J1*%
X312525000Y-96950000D02*
X312525000Y-95250000D01*
X312525000Y-95250000D02*
X312525000Y-94500000D01*
X323525000Y-87950000D02*
X321425000Y-87950000D01*
X314225000Y-96950000D02*
X312525000Y-96950000D01*
X313825000Y-90000000D02*
X312525000Y-90000000D01*
X312525000Y-89250000D02*
X312525000Y-87950000D01*
X309525000Y-95250000D02*
X312525000Y-95250000D01*
X312525000Y-90000000D02*
X312525000Y-89250000D01*
X319525000Y-87950000D02*
X316475000Y-87950000D01*
X312525000Y-87950000D02*
X314275000Y-87950000D01*
X309525000Y-89250000D02*
X309525000Y-95250000D01*
X323525000Y-96950000D02*
X323525000Y-94950000D01*
X312525000Y-89250000D02*
X309525000Y-89250000D01*
X316625000Y-96950000D02*
X323525000Y-96950000D01*
X323525000Y-92600000D02*
X323525000Y-87950000D01*
X313825000Y-94500000D02*
X313825000Y-90000000D01*
X312525000Y-94500000D02*
X313825000Y-94500000D01*
D13*
X314225000Y-97750000D02*
G75*
G03*
X314225000Y-97750000I-200000J0D01*
G01*
D14*
%TO.C,U2*%
X270000000Y-42225000D02*
X269600000Y-42225000D01*
X277700000Y-63225000D02*
X277300000Y-63225000D01*
X264900000Y-42225000D02*
X264500000Y-42225000D01*
X277700000Y-42225000D02*
X277300000Y-42225000D01*
X272600000Y-42225000D02*
X272200000Y-42225000D01*
X302833000Y-63225000D02*
X302833000Y-60218000D01*
X295400000Y-63225000D02*
X295000000Y-63225000D01*
X285300000Y-42225000D02*
X284900000Y-42225000D01*
X270000000Y-63225000D02*
X269600000Y-63225000D01*
X303100000Y-63225000D02*
X302700000Y-63225000D01*
X280200000Y-42225000D02*
X279800000Y-42225000D01*
X290400000Y-42225000D02*
X290000000Y-42225000D01*
X267500000Y-42225000D02*
X267100000Y-42225000D01*
X282700000Y-42225000D02*
X282300000Y-42225000D01*
X254500000Y-51625000D02*
X254500000Y-51225000D01*
X257300000Y-63225000D02*
X256900000Y-63225000D01*
X262400000Y-42225000D02*
X262000000Y-42225000D01*
X305500000Y-42225000D02*
X305200000Y-42225000D01*
X305500000Y-63225000D02*
X305200000Y-63225000D01*
X287800000Y-42225000D02*
X287400000Y-42225000D01*
X290400000Y-63225000D02*
X290000000Y-63225000D01*
X298000000Y-63225000D02*
X297600000Y-63225000D01*
X272600000Y-63225000D02*
X272200000Y-63225000D01*
X259900000Y-42225000D02*
X259500000Y-42225000D01*
X267500000Y-63225000D02*
X267100000Y-63225000D01*
X303100000Y-42225000D02*
X302700000Y-42225000D01*
X298000000Y-42225000D02*
X297600000Y-42225000D01*
X305500000Y-63225000D02*
X305500000Y-42225000D01*
X295400000Y-42225000D02*
X295000000Y-42225000D01*
X262400000Y-63225000D02*
X262000000Y-63225000D01*
X264900000Y-63225000D02*
X264500000Y-63225000D01*
X300500000Y-63225000D02*
X300100000Y-63225000D01*
X287800000Y-63225000D02*
X287400000Y-63225000D01*
X275100000Y-63225000D02*
X274700000Y-63225000D01*
X280200000Y-63225000D02*
X279800000Y-63225000D01*
X254500000Y-56425000D02*
X254500000Y-63225000D01*
X292900000Y-42225000D02*
X292500000Y-42225000D01*
X292900000Y-63225000D02*
X292500000Y-63225000D01*
X300500000Y-42225000D02*
X300100000Y-42225000D01*
X257300000Y-42225000D02*
X256900000Y-42225000D01*
X275100000Y-42225000D02*
X274700000Y-42225000D01*
X302833000Y-60218000D02*
X305500000Y-60218000D01*
X285300000Y-63225000D02*
X284900000Y-63225000D01*
X254500000Y-42225000D02*
X254500000Y-49025000D01*
X282700000Y-63225000D02*
X282300000Y-63225000D01*
X254500000Y-54225000D02*
X254500000Y-53825000D01*
X259900000Y-63225000D02*
X259500000Y-63225000D01*
%TO.C,U1*%
X353500000Y-42225000D02*
X353900000Y-42225000D01*
X366500000Y-63225000D02*
X366500000Y-56425000D01*
X340800000Y-42225000D02*
X341200000Y-42225000D01*
X351000000Y-63225000D02*
X351400000Y-63225000D01*
X320500000Y-42225000D02*
X320900000Y-42225000D01*
X343300000Y-42225000D02*
X343700000Y-42225000D01*
X320500000Y-63225000D02*
X320900000Y-63225000D01*
X343300000Y-63225000D02*
X343700000Y-63225000D01*
X315500000Y-42225000D02*
X315500000Y-63225000D01*
X315500000Y-63225000D02*
X315800000Y-63225000D01*
X366500000Y-49025000D02*
X366500000Y-42225000D01*
X345900000Y-63225000D02*
X346300000Y-63225000D01*
X353500000Y-63225000D02*
X353900000Y-63225000D01*
X345900000Y-42225000D02*
X346300000Y-42225000D01*
X323000000Y-63225000D02*
X323400000Y-63225000D01*
X358600000Y-63225000D02*
X359000000Y-63225000D01*
X361100000Y-42225000D02*
X361500000Y-42225000D01*
X318167000Y-45232000D02*
X315500000Y-45232000D01*
X356100000Y-63225000D02*
X356500000Y-63225000D01*
X366500000Y-51225000D02*
X366500000Y-51625000D01*
X330600000Y-42225000D02*
X331000000Y-42225000D01*
X328100000Y-42225000D02*
X328500000Y-42225000D01*
X333200000Y-63225000D02*
X333600000Y-63225000D01*
X363700000Y-63225000D02*
X364100000Y-63225000D01*
X366500000Y-53825000D02*
X366500000Y-54225000D01*
X335700000Y-63225000D02*
X336100000Y-63225000D01*
X317900000Y-42225000D02*
X318300000Y-42225000D01*
X330600000Y-63225000D02*
X331000000Y-63225000D01*
X351000000Y-42225000D02*
X351400000Y-42225000D01*
X315500000Y-42225000D02*
X315800000Y-42225000D01*
X338300000Y-63225000D02*
X338700000Y-63225000D01*
X325600000Y-63225000D02*
X326000000Y-63225000D01*
X318167000Y-42225000D02*
X318167000Y-45232000D01*
X335700000Y-42225000D02*
X336100000Y-42225000D01*
X348400000Y-63225000D02*
X348800000Y-63225000D01*
X333200000Y-42225000D02*
X333600000Y-42225000D01*
X323000000Y-42225000D02*
X323400000Y-42225000D01*
X356100000Y-42225000D02*
X356500000Y-42225000D01*
X358600000Y-42225000D02*
X359000000Y-42225000D01*
X363700000Y-42225000D02*
X364100000Y-42225000D01*
X348400000Y-42225000D02*
X348800000Y-42225000D01*
X328100000Y-63225000D02*
X328500000Y-63225000D01*
X325600000Y-42225000D02*
X326000000Y-42225000D01*
X338300000Y-42225000D02*
X338700000Y-42225000D01*
X340800000Y-63225000D02*
X341200000Y-63225000D01*
X361100000Y-63225000D02*
X361500000Y-63225000D01*
X317900000Y-63225000D02*
X318300000Y-63225000D01*
D12*
%TO.C,J2*%
X308575000Y-95750000D02*
X308575000Y-97050000D01*
X297575000Y-97050000D02*
X299675000Y-97050000D01*
X311575000Y-89750000D02*
X308575000Y-89750000D01*
X308575000Y-97050000D02*
X306825000Y-97050000D01*
X301575000Y-97050000D02*
X304625000Y-97050000D01*
X306875000Y-88050000D02*
X308575000Y-88050000D01*
X308575000Y-88050000D02*
X308575000Y-89750000D01*
X308575000Y-90500000D02*
X307275000Y-90500000D01*
X307275000Y-90500000D02*
X307275000Y-95000000D01*
X311575000Y-95750000D02*
X311575000Y-89750000D01*
X304475000Y-88050000D02*
X297575000Y-88050000D01*
X308575000Y-95750000D02*
X311575000Y-95750000D01*
X308575000Y-89750000D02*
X308575000Y-90500000D01*
X297575000Y-92400000D02*
X297575000Y-97050000D01*
X308575000Y-95000000D02*
X308575000Y-95750000D01*
X307275000Y-95000000D02*
X308575000Y-95000000D01*
X297575000Y-88050000D02*
X297575000Y-90050000D01*
D13*
X307275000Y-87250000D02*
G75*
G03*
X307275000Y-87250000I-200000J0D01*
G01*
%TD*%
%LPC*%
D15*
%TO.C,D23*%
X431000000Y-181000000D03*
D16*
X438620000Y-181000000D03*
%TD*%
D15*
%TO.C,D91*%
X136000000Y-212000000D03*
D16*
X143620000Y-212000000D03*
%TD*%
D15*
%TO.C,D61*%
X267380000Y-216000000D03*
D16*
X275000000Y-216000000D03*
%TD*%
D17*
%TO.C,H15*%
X302750000Y-32600000D03*
%TD*%
D15*
%TO.C,D90*%
X165000000Y-88000000D03*
D16*
X172620000Y-88000000D03*
%TD*%
D15*
%TO.C,D79*%
X183380000Y-111000000D03*
D16*
X191000000Y-111000000D03*
%TD*%
D18*
%TO.C,SW43*%
X338900000Y-142780000D03*
D19*
X338900000Y-137700000D03*
D18*
X338900000Y-132620000D03*
D20*
X333820000Y-135160000D03*
X336360000Y-141510000D03*
%TD*%
D19*
%TO.C,SW89*%
X140000000Y-177900000D03*
D18*
X145080000Y-177900000D03*
X134920000Y-177900000D03*
D20*
X142540000Y-172820000D03*
X136190000Y-175360000D03*
%TD*%
D19*
%TO.C,SW3*%
X510380000Y-130540000D03*
D18*
X505300000Y-130540000D03*
X515460000Y-130540000D03*
D20*
X512920000Y-125460000D03*
X506570000Y-128000000D03*
%TD*%
D15*
%TO.C,D44*%
X350000000Y-215000000D03*
D16*
X357620000Y-215000000D03*
%TD*%
D15*
%TO.C,D47*%
X329000000Y-227000000D03*
D16*
X336620000Y-227000000D03*
%TD*%
D17*
%TO.C,H3*%
X526300000Y-32600000D03*
%TD*%
D21*
%TO.C,D51*%
X509180000Y-50440000D03*
D22*
X511720000Y-50440000D03*
%TD*%
D18*
%TO.C,SW21*%
X439360000Y-123540000D03*
D19*
X434280000Y-123540000D03*
D18*
X429200000Y-123540000D03*
D20*
X436820000Y-118460000D03*
X430470000Y-121000000D03*
%TD*%
D18*
%TO.C,SW28*%
X415360000Y-173440000D03*
D19*
X410280000Y-173440000D03*
D18*
X405200000Y-173440000D03*
D20*
X412820000Y-168360000D03*
X406470000Y-170900000D03*
%TD*%
D15*
%TO.C,D26*%
X407000000Y-136000000D03*
D16*
X414620000Y-136000000D03*
%TD*%
D15*
%TO.C,D95*%
X136000000Y-188000000D03*
D16*
X143620000Y-188000000D03*
%TD*%
D18*
%TO.C,SW80*%
X158720000Y-197100000D03*
X168880000Y-197100000D03*
D19*
X163800000Y-197100000D03*
D20*
X166340000Y-192020000D03*
X159990000Y-194560000D03*
%TD*%
D15*
%TO.C,D43*%
X336000000Y-148000000D03*
D16*
X343620000Y-148000000D03*
%TD*%
D18*
%TO.C,SW5*%
X505200000Y-154440000D03*
X515360000Y-154440000D03*
D19*
X510280000Y-154440000D03*
D20*
X512820000Y-149360000D03*
X506470000Y-151900000D03*
%TD*%
D23*
%TO.C,R10*%
X136920000Y-56000000D03*
D24*
X142000000Y-56000000D03*
%TD*%
D19*
%TO.C,SW9*%
X481880000Y-130640000D03*
D18*
X486960000Y-130640000D03*
X476800000Y-130640000D03*
D20*
X484420000Y-125560000D03*
X478070000Y-128100000D03*
%TD*%
D17*
%TO.C,H11*%
X92100000Y-255900000D03*
%TD*%
D18*
%TO.C,SW35*%
X382919405Y-211220009D03*
X374120586Y-216300009D03*
D19*
X378519995Y-213760009D03*
D20*
X378179700Y-208090600D03*
X373950439Y-213465305D03*
%TD*%
D19*
%TO.C,SW34*%
X386580000Y-175540000D03*
D18*
X381500000Y-175540000D03*
X391660000Y-175540000D03*
D20*
X389120000Y-170460000D03*
X382770000Y-173000000D03*
%TD*%
D17*
%TO.C,H9*%
X92200000Y-34100000D03*
%TD*%
D23*
%TO.C,R11*%
X298460000Y-82500000D03*
D24*
X303540000Y-82500000D03*
%TD*%
D19*
%TO.C,SW53*%
X282820000Y-137460000D03*
D18*
X282820000Y-132380000D03*
X282820000Y-142540000D03*
D20*
X277740000Y-134920000D03*
X280280000Y-141270000D03*
%TD*%
D15*
%TO.C,D93*%
X136000000Y-142000000D03*
D16*
X143620000Y-142000000D03*
%TD*%
D18*
%TO.C,SW11*%
X476500000Y-154340000D03*
D19*
X481580000Y-154340000D03*
D18*
X486660000Y-154340000D03*
D20*
X484120000Y-149260000D03*
X477770000Y-151800000D03*
%TD*%
D23*
%TO.C,R8*%
X171000000Y-56000000D03*
D24*
X165920000Y-56000000D03*
%TD*%
D15*
%TO.C,D88*%
X160190000Y-138000000D03*
D16*
X167810000Y-138000000D03*
%TD*%
D19*
%TO.C,SW7*%
X481780000Y-75740000D03*
D18*
X476700000Y-75740000D03*
X486860000Y-75740000D03*
D20*
X484320000Y-70660000D03*
X477970000Y-73200000D03*
%TD*%
D18*
%TO.C,SW58*%
X264080000Y-128000000D03*
X253920000Y-128000000D03*
D19*
X259000000Y-128000000D03*
D20*
X261540000Y-122920000D03*
X255190000Y-125460000D03*
%TD*%
D18*
%TO.C,SW76*%
X182520000Y-123200000D03*
D19*
X187600000Y-123200000D03*
D18*
X192680000Y-123200000D03*
D20*
X190140000Y-118120000D03*
X183790000Y-120660000D03*
%TD*%
D17*
%TO.C,H8*%
X422950000Y-257350000D03*
%TD*%
D15*
%TO.C,D35*%
X383380000Y-186000000D03*
D16*
X391000000Y-186000000D03*
%TD*%
D15*
%TO.C,D83*%
X184000000Y-205000000D03*
D16*
X191620000Y-205000000D03*
%TD*%
D15*
%TO.C,D66*%
X280000000Y-87000000D03*
D16*
X287620000Y-87000000D03*
%TD*%
D19*
%TO.C,SW20*%
X433980000Y-99740000D03*
D18*
X428900000Y-99740000D03*
X439060000Y-99740000D03*
D20*
X436520000Y-94660000D03*
X430170000Y-97200000D03*
%TD*%
D15*
%TO.C,D81*%
X184000000Y-159000000D03*
D16*
X191620000Y-159000000D03*
%TD*%
D18*
%TO.C,SW29*%
X415560000Y-149740000D03*
D19*
X410480000Y-149740000D03*
D18*
X405400000Y-149740000D03*
D20*
X413020000Y-144660000D03*
X406670000Y-147200000D03*
%TD*%
D19*
%TO.C,SW17*%
X458080000Y-149640000D03*
D18*
X463160000Y-149640000D03*
X453000000Y-149640000D03*
D20*
X460620000Y-144560000D03*
X454270000Y-147100000D03*
%TD*%
D15*
%TO.C,D86*%
X160000000Y-207000000D03*
D16*
X167620000Y-207000000D03*
%TD*%
D18*
%TO.C,SW74*%
X192580000Y-194800000D03*
X182420000Y-194800000D03*
D19*
X187500000Y-194800000D03*
D20*
X190040000Y-189720000D03*
X183690000Y-192260000D03*
%TD*%
D17*
%TO.C,H1*%
X526300000Y-257350000D03*
%TD*%
D18*
%TO.C,SW66*%
X259180000Y-75800000D03*
D19*
X254100000Y-75800000D03*
D18*
X249020000Y-75800000D03*
D20*
X256640000Y-70720000D03*
X250290000Y-73260000D03*
%TD*%
D15*
%TO.C,D40*%
X359000000Y-139000000D03*
D16*
X366620000Y-139000000D03*
%TD*%
D18*
%TO.C,SW85*%
X135220000Y-154200000D03*
D19*
X140300000Y-154200000D03*
D18*
X145380000Y-154200000D03*
D20*
X142840000Y-149120000D03*
X136490000Y-151660000D03*
%TD*%
D15*
%TO.C,D62*%
X256000000Y-140000000D03*
D16*
X263620000Y-140000000D03*
%TD*%
D19*
%TO.C,SW15*%
X457980000Y-128140000D03*
D18*
X452900000Y-128140000D03*
X463060000Y-128140000D03*
D20*
X460520000Y-123060000D03*
X454170000Y-125600000D03*
%TD*%
D15*
%TO.C,D92*%
X137000000Y-118000000D03*
D16*
X144620000Y-118000000D03*
%TD*%
D15*
%TO.C,D82*%
X184000000Y-181000000D03*
D16*
X191620000Y-181000000D03*
%TD*%
D23*
%TO.C,R1*%
X421920000Y-54000000D03*
D24*
X427000000Y-54000000D03*
%TD*%
D18*
%TO.C,SW6*%
X510560000Y-202240000D03*
D19*
X505480000Y-202240000D03*
D18*
X500400000Y-202240000D03*
D20*
X508020000Y-197160000D03*
X501670000Y-199700000D03*
%TD*%
D15*
%TO.C,D56*%
X286000000Y-226000000D03*
D16*
X293620000Y-226000000D03*
%TD*%
D15*
%TO.C,D73*%
X208000000Y-113000000D03*
D16*
X215620000Y-113000000D03*
%TD*%
D19*
%TO.C,SW27*%
X410480000Y-125740000D03*
D18*
X405400000Y-125740000D03*
X415560000Y-125740000D03*
D20*
X413020000Y-120660000D03*
X406670000Y-123200000D03*
%TD*%
D15*
%TO.C,D42*%
X335000000Y-115000000D03*
D16*
X342620000Y-115000000D03*
%TD*%
D18*
%TO.C,SW88*%
X144980000Y-130500000D03*
D19*
X139900000Y-130500000D03*
D18*
X134820000Y-130500000D03*
D20*
X142440000Y-125420000D03*
X136090000Y-127960000D03*
%TD*%
D19*
%TO.C,SW62*%
X235100000Y-104100000D03*
D18*
X240180000Y-104100000D03*
X230020000Y-104100000D03*
D20*
X237640000Y-99020000D03*
X231290000Y-101560000D03*
%TD*%
D18*
%TO.C,SW87*%
X134920000Y-106800000D03*
X145080000Y-106800000D03*
D19*
X140000000Y-106800000D03*
D20*
X142540000Y-101720000D03*
X136190000Y-104260000D03*
%TD*%
D15*
%TO.C,D98*%
X108000000Y-165000000D03*
D16*
X115620000Y-165000000D03*
%TD*%
D18*
%TO.C,SW4*%
X505500000Y-178140000D03*
X515660000Y-178140000D03*
D19*
X510580000Y-178140000D03*
D20*
X513120000Y-173060000D03*
X506770000Y-175600000D03*
%TD*%
D19*
%TO.C,SW93*%
X111400000Y-106600000D03*
D18*
X106320000Y-106600000D03*
X116480000Y-106600000D03*
D20*
X113940000Y-101520000D03*
X107590000Y-104060000D03*
%TD*%
D15*
%TO.C,D10*%
X478380000Y-165000000D03*
D16*
X486000000Y-165000000D03*
%TD*%
D19*
%TO.C,SW90*%
X139800000Y-75700000D03*
D18*
X134720000Y-75700000D03*
X144880000Y-75700000D03*
D20*
X142340000Y-70620000D03*
X135990000Y-73160000D03*
%TD*%
D15*
%TO.C,D70*%
X231380000Y-163000000D03*
D16*
X239000000Y-163000000D03*
%TD*%
D15*
%TO.C,D39*%
X359380000Y-186000000D03*
D16*
X367000000Y-186000000D03*
%TD*%
D18*
%TO.C,SW39*%
X357800000Y-128240000D03*
X367960000Y-128240000D03*
D19*
X362880000Y-128240000D03*
D20*
X365420000Y-123160000D03*
X359070000Y-125700000D03*
%TD*%
D15*
%TO.C,D69*%
X232000000Y-139000000D03*
D16*
X239620000Y-139000000D03*
%TD*%
D15*
%TO.C,D100*%
X108000000Y-118000000D03*
D16*
X115620000Y-118000000D03*
%TD*%
D15*
%TO.C,D99*%
X108000000Y-188000000D03*
D16*
X115620000Y-188000000D03*
%TD*%
D23*
%TO.C,R4*%
X486080000Y-54000000D03*
D24*
X481000000Y-54000000D03*
%TD*%
D15*
%TO.C,D80*%
X183810000Y-135000000D03*
D16*
X191430000Y-135000000D03*
%TD*%
D18*
%TO.C,SW31*%
X362300000Y-75740000D03*
X372460000Y-75740000D03*
D19*
X367380000Y-75740000D03*
D20*
X369920000Y-70660000D03*
X363570000Y-73200000D03*
%TD*%
D15*
%TO.C,D2*%
X507380000Y-117000000D03*
D16*
X515000000Y-117000000D03*
%TD*%
D18*
%TO.C,SW81*%
X169080000Y-102000000D03*
X158920000Y-102000000D03*
D19*
X164000000Y-102000000D03*
D20*
X166540000Y-96920000D03*
X160190000Y-99460000D03*
%TD*%
D17*
%TO.C,H5*%
X318450000Y-32650000D03*
%TD*%
D15*
%TO.C,D41*%
X358380000Y-162000000D03*
D16*
X366000000Y-162000000D03*
%TD*%
D15*
%TO.C,D34*%
X383380000Y-162000000D03*
D16*
X391000000Y-162000000D03*
%TD*%
D15*
%TO.C,D24*%
X430380000Y-205000000D03*
D16*
X438000000Y-205000000D03*
%TD*%
D19*
%TO.C,SW54*%
X283040000Y-170720000D03*
D18*
X283040000Y-165640000D03*
X283040000Y-175800000D03*
D20*
X277960000Y-168180000D03*
X280500000Y-174530000D03*
%TD*%
D15*
%TO.C,D58*%
X278380000Y-182000000D03*
D16*
X286000000Y-182000000D03*
%TD*%
D15*
%TO.C,D16*%
X455000000Y-184000000D03*
D16*
X462620000Y-184000000D03*
%TD*%
D18*
%TO.C,SW19*%
X429600000Y-75860000D03*
X419440000Y-75860000D03*
D19*
X424520000Y-75860000D03*
D20*
X427060000Y-70780000D03*
X420710000Y-73320000D03*
%TD*%
D15*
%TO.C,D27*%
X406380000Y-112000000D03*
D16*
X414000000Y-112000000D03*
%TD*%
D23*
%TO.C,R12*%
X107920000Y-56000000D03*
D24*
X113000000Y-56000000D03*
%TD*%
D18*
%TO.C,SW47*%
X332820586Y-240200009D03*
D19*
X337219995Y-237660009D03*
D18*
X341619405Y-235120009D03*
D20*
X336879700Y-231990600D03*
X332650439Y-237365305D03*
%TD*%
D21*
%TO.C,D49*%
X452064700Y-50440000D03*
D22*
X454604700Y-50440000D03*
%TD*%
D19*
%TO.C,SW18*%
X457780000Y-197340000D03*
D18*
X452700000Y-197340000D03*
X462860000Y-197340000D03*
D20*
X460320000Y-192260000D03*
X453970000Y-194800000D03*
%TD*%
D15*
%TO.C,D14*%
X454380000Y-115000000D03*
D16*
X462000000Y-115000000D03*
%TD*%
D18*
%TO.C,SW96*%
X116280000Y-75600000D03*
D19*
X111200000Y-75600000D03*
D18*
X106120000Y-75600000D03*
D20*
X113740000Y-70520000D03*
X107390000Y-73060000D03*
%TD*%
D17*
%TO.C,H4*%
X423000000Y-32650000D03*
%TD*%
D19*
%TO.C,SW67*%
X211200000Y-149500000D03*
D18*
X206120000Y-149500000D03*
X216280000Y-149500000D03*
D20*
X213740000Y-144420000D03*
X207390000Y-146960000D03*
%TD*%
D18*
%TO.C,SW41*%
X357500000Y-152040000D03*
D19*
X362580000Y-152040000D03*
D18*
X367660000Y-152040000D03*
D20*
X365120000Y-146960000D03*
X358770000Y-149500000D03*
%TD*%
D15*
%TO.C,D4*%
X507000000Y-165000000D03*
D16*
X514620000Y-165000000D03*
%TD*%
D18*
%TO.C,SW46*%
X341420586Y-207569409D03*
X350219405Y-202489409D03*
D19*
X345819995Y-205029409D03*
D20*
X345479700Y-199360000D03*
X341250439Y-204734705D03*
%TD*%
D19*
%TO.C,SW16*%
X458380000Y-173540000D03*
D18*
X463460000Y-173540000D03*
X453300000Y-173540000D03*
D20*
X460920000Y-168460000D03*
X454570000Y-171000000D03*
%TD*%
D15*
%TO.C,D63*%
X255000000Y-163000000D03*
D16*
X262620000Y-163000000D03*
%TD*%
D15*
%TO.C,D33*%
X383000000Y-138000000D03*
D16*
X390620000Y-138000000D03*
%TD*%
D18*
%TO.C,SW22*%
X429060000Y-170960000D03*
X439220000Y-170960000D03*
D19*
X434140000Y-170960000D03*
D20*
X436680000Y-165880000D03*
X430330000Y-168420000D03*
%TD*%
D19*
%TO.C,SW26*%
X410380000Y-102040000D03*
D18*
X405300000Y-102040000D03*
X415460000Y-102040000D03*
D20*
X412920000Y-96960000D03*
X406570000Y-99500000D03*
%TD*%
D15*
%TO.C,D25*%
X393000000Y-86000000D03*
D16*
X400620000Y-86000000D03*
%TD*%
D25*
%TO.C,D54*%
X138100000Y-51200000D03*
D26*
X140640000Y-51200000D03*
%TD*%
D18*
%TO.C,SW12*%
X476500000Y-202140000D03*
D19*
X481580000Y-202140000D03*
D18*
X486660000Y-202140000D03*
D20*
X484120000Y-197060000D03*
X477770000Y-199600000D03*
%TD*%
D18*
%TO.C,SW84*%
X163520000Y-75700000D03*
X173680000Y-75700000D03*
D19*
X168600000Y-75700000D03*
D20*
X171140000Y-70620000D03*
X164790000Y-73160000D03*
%TD*%
D15*
%TO.C,D5*%
X507000000Y-188000000D03*
D16*
X514620000Y-188000000D03*
%TD*%
D15*
%TO.C,D78*%
X221000000Y-87000000D03*
D16*
X228620000Y-87000000D03*
%TD*%
D15*
%TO.C,D96*%
X135380000Y-89000000D03*
D16*
X143000000Y-89000000D03*
%TD*%
D18*
%TO.C,SW60*%
X277720000Y-75700000D03*
D19*
X282800000Y-75700000D03*
D18*
X287880000Y-75700000D03*
D20*
X285340000Y-70620000D03*
X278990000Y-73160000D03*
%TD*%
D18*
%TO.C,SW56*%
X263980000Y-151900000D03*
D19*
X258900000Y-151900000D03*
D18*
X253820000Y-151900000D03*
D20*
X261440000Y-146820000D03*
X255090000Y-149360000D03*
%TD*%
D23*
%TO.C,R6*%
X509460000Y-54000000D03*
D24*
X514540000Y-54000000D03*
%TD*%
D15*
%TO.C,D65*%
X256000000Y-186000000D03*
D16*
X263620000Y-186000000D03*
%TD*%
D15*
%TO.C,D77*%
X208000000Y-137000000D03*
D16*
X215620000Y-137000000D03*
%TD*%
D18*
%TO.C,SW36*%
X381500000Y-151940000D03*
D19*
X386580000Y-151940000D03*
D18*
X391660000Y-151940000D03*
D20*
X389120000Y-146860000D03*
X382770000Y-149400000D03*
%TD*%
D23*
%TO.C,R3*%
X322620000Y-99500000D03*
D24*
X317540000Y-99500000D03*
%TD*%
D17*
%TO.C,H16*%
X301300000Y-255700000D03*
%TD*%
%TO.C,H13*%
X300900000Y-145900000D03*
%TD*%
D15*
%TO.C,D3*%
X507380000Y-140000000D03*
D16*
X515000000Y-140000000D03*
%TD*%
D15*
%TO.C,D72*%
X251000000Y-87000000D03*
D16*
X258620000Y-87000000D03*
%TD*%
D17*
%TO.C,H12*%
X92100000Y-146100000D03*
%TD*%
D15*
%TO.C,D18*%
X454000000Y-207000000D03*
D16*
X461620000Y-207000000D03*
%TD*%
D15*
%TO.C,D28*%
X407380000Y-160000000D03*
D16*
X415000000Y-160000000D03*
%TD*%
D17*
%TO.C,H2*%
X526250000Y-145950000D03*
%TD*%
D15*
%TO.C,D71*%
X231380000Y-186000000D03*
D16*
X239000000Y-186000000D03*
%TD*%
D18*
%TO.C,SW1*%
X515560000Y-75840000D03*
D19*
X510480000Y-75840000D03*
D18*
X505400000Y-75840000D03*
D20*
X513020000Y-70760000D03*
X506670000Y-73300000D03*
%TD*%
D15*
%TO.C,D8*%
X478380000Y-117000000D03*
D16*
X486000000Y-117000000D03*
%TD*%
D19*
%TO.C,SW73*%
X187500000Y-147100000D03*
D18*
X192580000Y-147100000D03*
X182420000Y-147100000D03*
D20*
X190040000Y-142020000D03*
X183690000Y-144560000D03*
%TD*%
D15*
%TO.C,D1*%
X507000000Y-86000000D03*
D16*
X514620000Y-86000000D03*
%TD*%
D15*
%TO.C,D22*%
X430380000Y-157000000D03*
D16*
X438000000Y-157000000D03*
%TD*%
D15*
%TO.C,D46*%
X337380000Y-195000000D03*
D16*
X345000000Y-195000000D03*
%TD*%
D21*
%TO.C,D48*%
X423364700Y-50340000D03*
D22*
X425904700Y-50340000D03*
%TD*%
D18*
%TO.C,SW51*%
X281739405Y-207660009D03*
D19*
X277339995Y-205120009D03*
D18*
X272940586Y-202580009D03*
D20*
X282079700Y-201990600D03*
X275310439Y-201015305D03*
%TD*%
D19*
%TO.C,SW71*%
X211400000Y-173400000D03*
D18*
X206320000Y-173400000D03*
X216480000Y-173400000D03*
D20*
X213940000Y-168320000D03*
X207590000Y-170860000D03*
%TD*%
D18*
%TO.C,SW91*%
X116480000Y-154300000D03*
X106320000Y-154300000D03*
D19*
X111400000Y-154300000D03*
D20*
X113940000Y-149220000D03*
X107590000Y-151760000D03*
%TD*%
D19*
%TO.C,SW69*%
X211500000Y-101900000D03*
D18*
X206420000Y-101900000D03*
X216580000Y-101900000D03*
D20*
X214040000Y-96820000D03*
X207690000Y-99360000D03*
%TD*%
D18*
%TO.C,SW86*%
X134720000Y-201900000D03*
D19*
X139800000Y-201900000D03*
D18*
X144880000Y-201900000D03*
D20*
X142340000Y-196820000D03*
X135990000Y-199360000D03*
%TD*%
D17*
%TO.C,H7*%
X320300000Y-255900000D03*
%TD*%
D15*
%TO.C,D11*%
X478000000Y-188000000D03*
D16*
X485620000Y-188000000D03*
%TD*%
D15*
%TO.C,D89*%
X160000000Y-183000000D03*
D16*
X167620000Y-183000000D03*
%TD*%
D18*
%TO.C,SW32*%
X381400000Y-104440000D03*
D19*
X386480000Y-104440000D03*
D18*
X391560000Y-104440000D03*
D20*
X389020000Y-99360000D03*
X382670000Y-101900000D03*
%TD*%
D25*
%TO.C,D55*%
X109900000Y-50700000D03*
D26*
X112440000Y-50700000D03*
%TD*%
D23*
%TO.C,R2*%
X456000000Y-54000000D03*
D24*
X450920000Y-54000000D03*
%TD*%
D15*
%TO.C,D67*%
X246380000Y-203000000D03*
D16*
X254000000Y-203000000D03*
%TD*%
D23*
%TO.C,R7*%
X199000000Y-56000000D03*
D24*
X193920000Y-56000000D03*
%TD*%
D15*
%TO.C,D21*%
X431380000Y-134000000D03*
D16*
X439000000Y-134000000D03*
%TD*%
D23*
%TO.C,R9*%
X298540000Y-99500000D03*
D24*
X303620000Y-99500000D03*
%TD*%
D19*
%TO.C,SW2*%
X510380000Y-106740000D03*
D18*
X505300000Y-106740000D03*
X515460000Y-106740000D03*
D20*
X512920000Y-101660000D03*
X506570000Y-104200000D03*
%TD*%
D18*
%TO.C,SW10*%
X476600000Y-178040000D03*
X486760000Y-178040000D03*
D19*
X481680000Y-178040000D03*
D20*
X484220000Y-172960000D03*
X477870000Y-175500000D03*
%TD*%
D15*
%TO.C,D97*%
X112000000Y-212000000D03*
D16*
X119620000Y-212000000D03*
%TD*%
D18*
%TO.C,SW77*%
X182420000Y-170800000D03*
D19*
X187500000Y-170800000D03*
D18*
X192580000Y-170800000D03*
D20*
X190040000Y-165720000D03*
X183690000Y-168260000D03*
%TD*%
D18*
%TO.C,SW95*%
X116380000Y-178100000D03*
X106220000Y-178100000D03*
D19*
X111300000Y-178100000D03*
D20*
X113840000Y-173020000D03*
X107490000Y-175560000D03*
%TD*%
D23*
%TO.C,R5*%
X321540000Y-82500000D03*
D24*
X316460000Y-82500000D03*
%TD*%
D18*
%TO.C,SW45*%
X362319405Y-223220009D03*
D19*
X357919995Y-225760009D03*
D18*
X353520586Y-228300009D03*
D20*
X357579700Y-220090600D03*
X353350439Y-225465305D03*
%TD*%
D18*
%TO.C,SW30*%
X405300000Y-197240000D03*
X415460000Y-197240000D03*
D19*
X410380000Y-197240000D03*
D20*
X412920000Y-192160000D03*
X406570000Y-194700000D03*
%TD*%
D18*
%TO.C,SW55*%
X269939405Y-228260009D03*
X261140586Y-223180009D03*
D19*
X265539995Y-225720009D03*
D20*
X270279700Y-222590600D03*
X263510439Y-221615305D03*
%TD*%
D15*
%TO.C,D75*%
X208000000Y-183000000D03*
D16*
X215620000Y-183000000D03*
%TD*%
D19*
%TO.C,SW78*%
X197200000Y-75600000D03*
D18*
X202280000Y-75600000D03*
X192120000Y-75600000D03*
D20*
X199740000Y-70520000D03*
X193390000Y-73060000D03*
%TD*%
D18*
%TO.C,SW70*%
X206320000Y-125700000D03*
D19*
X211400000Y-125700000D03*
D18*
X216480000Y-125700000D03*
D20*
X213940000Y-120620000D03*
X207590000Y-123160000D03*
%TD*%
D18*
%TO.C,SW94*%
X116680000Y-130500000D03*
X106520000Y-130500000D03*
D19*
X111600000Y-130500000D03*
D20*
X114140000Y-125420000D03*
X107790000Y-127960000D03*
%TD*%
D18*
%TO.C,SW79*%
X168980000Y-149500000D03*
D19*
X163900000Y-149500000D03*
D18*
X158820000Y-149500000D03*
D20*
X166440000Y-144420000D03*
X160090000Y-146960000D03*
%TD*%
D18*
%TO.C,SW72*%
X230980000Y-75500000D03*
X220820000Y-75500000D03*
D19*
X225900000Y-75500000D03*
D20*
X228440000Y-70420000D03*
X222090000Y-72960000D03*
%TD*%
D15*
%TO.C,D19*%
X420380000Y-86000000D03*
D16*
X428000000Y-86000000D03*
%TD*%
D15*
%TO.C,D74*%
X207380000Y-161000000D03*
D16*
X215000000Y-161000000D03*
%TD*%
D18*
%TO.C,SW13*%
X448100000Y-75940000D03*
D19*
X453180000Y-75940000D03*
D18*
X458260000Y-75940000D03*
D20*
X455720000Y-70860000D03*
X449370000Y-73400000D03*
%TD*%
D15*
%TO.C,D36*%
X369380000Y-204000000D03*
D16*
X377000000Y-204000000D03*
%TD*%
D15*
%TO.C,D59*%
X278380000Y-148000000D03*
D16*
X286000000Y-148000000D03*
%TD*%
D17*
%TO.C,H14*%
X197500000Y-255900000D03*
%TD*%
D18*
%TO.C,SW8*%
X476600000Y-106840000D03*
D19*
X481680000Y-106840000D03*
D18*
X486760000Y-106840000D03*
D20*
X484220000Y-101760000D03*
X477870000Y-104300000D03*
%TD*%
D15*
%TO.C,D32*%
X383380000Y-115000000D03*
D16*
X391000000Y-115000000D03*
%TD*%
D17*
%TO.C,H6*%
X320000000Y-146000000D03*
%TD*%
D15*
%TO.C,D9*%
X478380000Y-141000000D03*
D16*
X486000000Y-141000000D03*
%TD*%
D18*
%TO.C,SW33*%
X381400000Y-128140000D03*
X391560000Y-128140000D03*
D19*
X386480000Y-128140000D03*
D20*
X389020000Y-123060000D03*
X382670000Y-125600000D03*
%TD*%
D15*
%TO.C,D101*%
X106380000Y-142000000D03*
D16*
X114000000Y-142000000D03*
%TD*%
D15*
%TO.C,D76*%
X208000000Y-207000000D03*
D16*
X215620000Y-207000000D03*
%TD*%
D15*
%TO.C,D84*%
X194000000Y-87000000D03*
D16*
X201620000Y-87000000D03*
%TD*%
D18*
%TO.C,SW68*%
X206420000Y-197200000D03*
X216580000Y-197200000D03*
D19*
X211500000Y-197200000D03*
D20*
X214040000Y-192120000D03*
X207690000Y-194660000D03*
%TD*%
D15*
%TO.C,D37*%
X335000000Y-86000000D03*
D16*
X342620000Y-86000000D03*
%TD*%
D15*
%TO.C,D38*%
X359380000Y-115000000D03*
D16*
X367000000Y-115000000D03*
%TD*%
D25*
%TO.C,D52*%
X195200000Y-51200000D03*
D26*
X197740000Y-51200000D03*
%TD*%
D18*
%TO.C,SW37*%
X343660000Y-75840000D03*
X333500000Y-75840000D03*
D19*
X338580000Y-75840000D03*
D20*
X341120000Y-70760000D03*
X334770000Y-73300000D03*
%TD*%
D15*
%TO.C,D60*%
X280000000Y-116000000D03*
D16*
X287620000Y-116000000D03*
%TD*%
D15*
%TO.C,D31*%
X364000000Y-86000000D03*
D16*
X371620000Y-86000000D03*
%TD*%
D19*
%TO.C,SW25*%
X395980000Y-75840000D03*
D18*
X390900000Y-75840000D03*
X401060000Y-75840000D03*
D20*
X398520000Y-70760000D03*
X392170000Y-73300000D03*
%TD*%
D15*
%TO.C,D85*%
X160380000Y-161000000D03*
D16*
X168000000Y-161000000D03*
%TD*%
D15*
%TO.C,D12*%
X478000000Y-213000000D03*
D16*
X485620000Y-213000000D03*
%TD*%
D18*
%TO.C,SW64*%
X229920000Y-175700000D03*
D19*
X235000000Y-175700000D03*
D18*
X240080000Y-175700000D03*
D20*
X237540000Y-170620000D03*
X231190000Y-173160000D03*
%TD*%
D18*
%TO.C,SW38*%
X357600000Y-104240000D03*
X367760000Y-104240000D03*
D19*
X362680000Y-104240000D03*
D20*
X365220000Y-99160000D03*
X358870000Y-101700000D03*
%TD*%
D18*
%TO.C,SW52*%
X287880000Y-104200000D03*
X277720000Y-104200000D03*
D19*
X282800000Y-104200000D03*
D20*
X285340000Y-99120000D03*
X278990000Y-101660000D03*
%TD*%
D15*
%TO.C,D17*%
X454380000Y-160000000D03*
D16*
X462000000Y-160000000D03*
%TD*%
D15*
%TO.C,D45*%
X336000000Y-181000000D03*
D16*
X343620000Y-181000000D03*
%TD*%
D18*
%TO.C,SW63*%
X230220000Y-128000000D03*
D19*
X235300000Y-128000000D03*
D18*
X240380000Y-128000000D03*
D20*
X237840000Y-122920000D03*
X231490000Y-125460000D03*
%TD*%
D18*
%TO.C,SW82*%
X158620000Y-125800000D03*
X168780000Y-125800000D03*
D19*
X163700000Y-125800000D03*
D20*
X166240000Y-120720000D03*
X159890000Y-123260000D03*
%TD*%
D19*
%TO.C,SW92*%
X116100000Y-202000000D03*
D18*
X121180000Y-202000000D03*
X111020000Y-202000000D03*
D20*
X118640000Y-196920000D03*
X112290000Y-199460000D03*
%TD*%
D17*
%TO.C,H10*%
X197600000Y-34100000D03*
%TD*%
D15*
%TO.C,D87*%
X161000000Y-113000000D03*
D16*
X168620000Y-113000000D03*
%TD*%
D15*
%TO.C,D94*%
X137000000Y-165000000D03*
D16*
X144620000Y-165000000D03*
%TD*%
D19*
%TO.C,SW75*%
X187600000Y-99400000D03*
D18*
X192680000Y-99400000D03*
X182520000Y-99400000D03*
D20*
X190140000Y-94320000D03*
X183790000Y-96860000D03*
%TD*%
D15*
%TO.C,D30*%
X407000000Y-207000000D03*
D16*
X414620000Y-207000000D03*
%TD*%
D19*
%TO.C,SW50*%
X286139995Y-237820009D03*
D18*
X281740586Y-235280009D03*
X290539405Y-240360009D03*
D20*
X290879700Y-234690600D03*
X284110439Y-233715305D03*
%TD*%
D15*
%TO.C,D6*%
X502380000Y-212000000D03*
D16*
X510000000Y-212000000D03*
%TD*%
D18*
%TO.C,SW65*%
X240440586Y-211380009D03*
D19*
X244839995Y-213920009D03*
D18*
X249239405Y-216460009D03*
D20*
X249579700Y-210790600D03*
X242810439Y-209815305D03*
%TD*%
D18*
%TO.C,SW57*%
X264180000Y-104200000D03*
X254020000Y-104200000D03*
D19*
X259100000Y-104200000D03*
D20*
X261640000Y-99120000D03*
X255290000Y-101660000D03*
%TD*%
D19*
%TO.C,SW44*%
X339000000Y-171000000D03*
D18*
X339000000Y-176080000D03*
X339000000Y-165920000D03*
D20*
X333920000Y-168460000D03*
X336460000Y-174810000D03*
%TD*%
D18*
%TO.C,SW61*%
X240180000Y-151800000D03*
X230020000Y-151800000D03*
D19*
X235100000Y-151800000D03*
D20*
X237640000Y-146720000D03*
X231290000Y-149260000D03*
%TD*%
D18*
%TO.C,SW59*%
X264180000Y-175700000D03*
X254020000Y-175700000D03*
D19*
X259100000Y-175700000D03*
D20*
X261640000Y-170620000D03*
X255290000Y-173160000D03*
%TD*%
D15*
%TO.C,D15*%
X455000000Y-138000000D03*
D16*
X462620000Y-138000000D03*
%TD*%
D15*
%TO.C,D13*%
X449380000Y-86000000D03*
D16*
X457000000Y-86000000D03*
%TD*%
D19*
%TO.C,SW40*%
X362780000Y-175740000D03*
D18*
X367860000Y-175740000D03*
X357700000Y-175740000D03*
D20*
X365320000Y-170660000D03*
X358970000Y-173200000D03*
%TD*%
D15*
%TO.C,D20*%
X430380000Y-110000000D03*
D16*
X438000000Y-110000000D03*
%TD*%
D15*
%TO.C,D64*%
X255380000Y-115000000D03*
D16*
X263000000Y-115000000D03*
%TD*%
D18*
%TO.C,SW24*%
X429200000Y-194640000D03*
X439360000Y-194640000D03*
D19*
X434280000Y-194640000D03*
D20*
X436820000Y-189560000D03*
X430470000Y-192100000D03*
%TD*%
D15*
%TO.C,D102*%
X108000000Y-89000000D03*
D16*
X115620000Y-89000000D03*
%TD*%
D15*
%TO.C,D68*%
X232000000Y-114000000D03*
D16*
X239620000Y-114000000D03*
%TD*%
D18*
%TO.C,SW83*%
X168780000Y-173300000D03*
X158620000Y-173300000D03*
D19*
X163700000Y-173300000D03*
D20*
X166240000Y-168220000D03*
X159890000Y-170760000D03*
%TD*%
D15*
%TO.C,D7*%
X478380000Y-86000000D03*
D16*
X486000000Y-86000000D03*
%TD*%
D15*
%TO.C,D57*%
X278000000Y-193000000D03*
D16*
X285620000Y-193000000D03*
%TD*%
D25*
%TO.C,D53*%
X167400000Y-51000000D03*
D26*
X169940000Y-51000000D03*
%TD*%
D18*
%TO.C,SW14*%
X463160000Y-104340000D03*
X453000000Y-104340000D03*
D19*
X458080000Y-104340000D03*
D20*
X460620000Y-99260000D03*
X454270000Y-101800000D03*
%TD*%
D21*
%TO.C,D50*%
X481564700Y-50240000D03*
D22*
X484104700Y-50240000D03*
%TD*%
D15*
%TO.C,D29*%
X407000000Y-183000000D03*
D16*
X414620000Y-183000000D03*
%TD*%
D18*
%TO.C,SW23*%
X429100000Y-147340000D03*
D19*
X434180000Y-147340000D03*
D18*
X439260000Y-147340000D03*
D20*
X436720000Y-142260000D03*
X430370000Y-144800000D03*
%TD*%
D19*
%TO.C,SW42*%
X338780000Y-104340000D03*
D18*
X333700000Y-104340000D03*
X343860000Y-104340000D03*
D20*
X341320000Y-99260000D03*
X334970000Y-101800000D03*
%TD*%
D18*
%TO.C,SW48*%
X393460000Y-53000000D03*
X398540000Y-53000000D03*
%TD*%
D27*
%TO.C,J1*%
X315425000Y-92250000D03*
X320425000Y-92250000D03*
D28*
X315425000Y-97050000D03*
D29*
X320425000Y-88650000D03*
X323525000Y-93850000D03*
X315425000Y-87750000D03*
%TD*%
D22*
%TO.C,U2*%
X300970000Y-50300000D03*
D26*
X304000000Y-50000000D03*
X304000000Y-55450000D03*
D22*
X300970000Y-55150000D03*
D30*
X304130000Y-61615000D03*
D31*
X304130000Y-62515000D03*
X301590000Y-62515000D03*
D30*
X301590000Y-61615000D03*
D31*
X299050000Y-62515000D03*
D32*
X299050000Y-61615000D03*
D30*
X296510000Y-61615000D03*
D31*
X296510000Y-62515000D03*
D30*
X293970000Y-61615000D03*
D31*
X293970000Y-62515000D03*
D30*
X291430000Y-61615000D03*
D31*
X291430000Y-62515000D03*
D30*
X288890000Y-61615000D03*
D31*
X288890000Y-62515000D03*
D32*
X286350000Y-61615000D03*
D31*
X286350000Y-62515000D03*
X283810000Y-62515000D03*
D30*
X283810000Y-61615000D03*
X281270000Y-61615000D03*
D31*
X281270000Y-62515000D03*
X278730000Y-62515000D03*
D30*
X278730000Y-61615000D03*
D31*
X276190000Y-62515000D03*
D30*
X276190000Y-61615000D03*
D31*
X273650000Y-62515000D03*
D32*
X273650000Y-61615000D03*
D31*
X271110000Y-62515000D03*
D30*
X271110000Y-61615000D03*
D31*
X268570000Y-62515000D03*
D30*
X268570000Y-61615000D03*
D31*
X266030000Y-62515000D03*
D30*
X266030000Y-61615000D03*
D31*
X263490000Y-62515000D03*
D30*
X263490000Y-61615000D03*
D31*
X260950000Y-62515000D03*
D32*
X260950000Y-61615000D03*
D30*
X258410000Y-61615000D03*
D31*
X258410000Y-62515000D03*
D30*
X255870000Y-61615000D03*
D31*
X255870000Y-62515000D03*
X255870000Y-42935000D03*
D30*
X255870000Y-43835000D03*
D31*
X258410000Y-42935000D03*
D30*
X258410000Y-43835000D03*
D32*
X260950000Y-43835000D03*
D31*
X260950000Y-42935000D03*
X263490000Y-42935000D03*
D30*
X263490000Y-43835000D03*
D31*
X266030000Y-42935000D03*
D30*
X266030000Y-43835000D03*
X268570000Y-43835000D03*
D31*
X268570000Y-42935000D03*
D30*
X271110000Y-43835000D03*
D31*
X271110000Y-42935000D03*
X273650000Y-42935000D03*
D32*
X273650000Y-43835000D03*
D30*
X276190000Y-43835000D03*
D31*
X276190000Y-42935000D03*
D30*
X278730000Y-43835000D03*
D31*
X278730000Y-42935000D03*
X281270000Y-42935000D03*
D30*
X281270000Y-43835000D03*
X283810000Y-43835000D03*
D31*
X283810000Y-42935000D03*
D32*
X286350000Y-43835000D03*
D31*
X286350000Y-42935000D03*
X288890000Y-42935000D03*
D30*
X288890000Y-43835000D03*
D31*
X291430000Y-42935000D03*
D30*
X291430000Y-43835000D03*
D31*
X293970000Y-42935000D03*
D30*
X293970000Y-43835000D03*
X296510000Y-43835000D03*
D31*
X296510000Y-42935000D03*
D32*
X299050000Y-43835000D03*
D31*
X299050000Y-42935000D03*
X301590000Y-42935000D03*
D30*
X301590000Y-43835000D03*
X304130000Y-43835000D03*
D31*
X304130000Y-42935000D03*
D33*
X255200000Y-55265000D03*
D30*
X256100000Y-55265000D03*
D32*
X256100000Y-52725000D03*
D33*
X255200000Y-52725000D03*
X255200000Y-50185000D03*
D30*
X256100000Y-50185000D03*
%TD*%
D26*
%TO.C,U1*%
X317000000Y-55450000D03*
D22*
X320030000Y-55150000D03*
D26*
X317000000Y-50000000D03*
D22*
X320030000Y-50300000D03*
D31*
X316870000Y-42935000D03*
D30*
X316870000Y-43835000D03*
X319410000Y-43835000D03*
D31*
X319410000Y-42935000D03*
X321950000Y-42935000D03*
D32*
X321950000Y-43835000D03*
D30*
X324490000Y-43835000D03*
D31*
X324490000Y-42935000D03*
X327030000Y-42935000D03*
D30*
X327030000Y-43835000D03*
X329570000Y-43835000D03*
D31*
X329570000Y-42935000D03*
D30*
X332110000Y-43835000D03*
D31*
X332110000Y-42935000D03*
D32*
X334650000Y-43835000D03*
D31*
X334650000Y-42935000D03*
D30*
X337190000Y-43835000D03*
D31*
X337190000Y-42935000D03*
D30*
X339730000Y-43835000D03*
D31*
X339730000Y-42935000D03*
X342270000Y-42935000D03*
D30*
X342270000Y-43835000D03*
D31*
X344810000Y-42935000D03*
D30*
X344810000Y-43835000D03*
D31*
X347350000Y-42935000D03*
D32*
X347350000Y-43835000D03*
D30*
X349890000Y-43835000D03*
D31*
X349890000Y-42935000D03*
D30*
X352430000Y-43835000D03*
D31*
X352430000Y-42935000D03*
D30*
X354970000Y-43835000D03*
D31*
X354970000Y-42935000D03*
D30*
X357510000Y-43835000D03*
D31*
X357510000Y-42935000D03*
X360050000Y-42935000D03*
D32*
X360050000Y-43835000D03*
D30*
X362590000Y-43835000D03*
D31*
X362590000Y-42935000D03*
X365130000Y-42935000D03*
D30*
X365130000Y-43835000D03*
X365130000Y-61615000D03*
D31*
X365130000Y-62515000D03*
D30*
X362590000Y-61615000D03*
D31*
X362590000Y-62515000D03*
D32*
X360050000Y-61615000D03*
D31*
X360050000Y-62515000D03*
D30*
X357510000Y-61615000D03*
D31*
X357510000Y-62515000D03*
X354970000Y-62515000D03*
D30*
X354970000Y-61615000D03*
D31*
X352430000Y-62515000D03*
D30*
X352430000Y-61615000D03*
D31*
X349890000Y-62515000D03*
D30*
X349890000Y-61615000D03*
D31*
X347350000Y-62515000D03*
D32*
X347350000Y-61615000D03*
D31*
X344810000Y-62515000D03*
D30*
X344810000Y-61615000D03*
D31*
X342270000Y-62515000D03*
D30*
X342270000Y-61615000D03*
D31*
X339730000Y-62515000D03*
D30*
X339730000Y-61615000D03*
X337190000Y-61615000D03*
D31*
X337190000Y-62515000D03*
X334650000Y-62515000D03*
D32*
X334650000Y-61615000D03*
D31*
X332110000Y-62515000D03*
D30*
X332110000Y-61615000D03*
X329570000Y-61615000D03*
D31*
X329570000Y-62515000D03*
X327030000Y-62515000D03*
D30*
X327030000Y-61615000D03*
X324490000Y-61615000D03*
D31*
X324490000Y-62515000D03*
X321950000Y-62515000D03*
D32*
X321950000Y-61615000D03*
D31*
X319410000Y-62515000D03*
D30*
X319410000Y-61615000D03*
D31*
X316870000Y-62515000D03*
D30*
X316870000Y-61615000D03*
D33*
X365800000Y-50185000D03*
D30*
X364900000Y-50185000D03*
D33*
X365800000Y-52725000D03*
D32*
X364900000Y-52725000D03*
D33*
X365800000Y-55265000D03*
D30*
X364900000Y-55265000D03*
%TD*%
D18*
%TO.C,SW49*%
X229000000Y-53000000D03*
X223920000Y-53000000D03*
%TD*%
D27*
%TO.C,J2*%
X300675000Y-92750000D03*
X305675000Y-92750000D03*
D28*
X305675000Y-87950000D03*
D29*
X300675000Y-96350000D03*
X297575000Y-91150000D03*
X305675000Y-97250000D03*
%TD*%
M02*
