%TF.GenerationSoftware,KiCad,Pcbnew,7.0.5-4d25ed1034~172~ubuntu22.04.1*%
%TF.CreationDate,2023-06-17T05:09:36+02:00*%
%TF.ProjectId,Europe-ergo,4575726f-7065-42d6-9572-676f2e6b6963,rev?*%
%TF.SameCoordinates,Original*%
%TF.FileFunction,AssemblyDrawing,Bot*%
%FSLAX46Y46*%
G04 Gerber Fmt 4.6, Leading zero omitted, Abs format (unit mm)*
G04 Created by KiCad (PCBNEW 7.0.5-4d25ed1034~172~ubuntu22.04.1) date 2023-06-17 05:09:36*
%MOMM*%
%LPD*%
G01*
G04 APERTURE LIST*
%ADD10C,0.150000*%
%ADD11C,0.120000*%
G04 APERTURE END LIST*
D10*
%TO.C,J2*%
X293039580Y-164854760D02*
X293087200Y-164807141D01*
X293087200Y-164807141D02*
X293134819Y-164664284D01*
X293134819Y-164664284D02*
X293134819Y-164569046D01*
X293134819Y-164569046D02*
X293087200Y-164426189D01*
X293087200Y-164426189D02*
X292991961Y-164330951D01*
X292991961Y-164330951D02*
X292896723Y-164283332D01*
X292896723Y-164283332D02*
X292706247Y-164235713D01*
X292706247Y-164235713D02*
X292563390Y-164235713D01*
X292563390Y-164235713D02*
X292372914Y-164283332D01*
X292372914Y-164283332D02*
X292277676Y-164330951D01*
X292277676Y-164330951D02*
X292182438Y-164426189D01*
X292182438Y-164426189D02*
X292134819Y-164569046D01*
X292134819Y-164569046D02*
X292134819Y-164664284D01*
X292134819Y-164664284D02*
X292182438Y-164807141D01*
X292182438Y-164807141D02*
X292230057Y-164854760D01*
X293134819Y-165426189D02*
X293087200Y-165330951D01*
X293087200Y-165330951D02*
X293039580Y-165283332D01*
X293039580Y-165283332D02*
X292944342Y-165235713D01*
X292944342Y-165235713D02*
X292658628Y-165235713D01*
X292658628Y-165235713D02*
X292563390Y-165283332D01*
X292563390Y-165283332D02*
X292515771Y-165330951D01*
X292515771Y-165330951D02*
X292468152Y-165426189D01*
X292468152Y-165426189D02*
X292468152Y-165569046D01*
X292468152Y-165569046D02*
X292515771Y-165664284D01*
X292515771Y-165664284D02*
X292563390Y-165711903D01*
X292563390Y-165711903D02*
X292658628Y-165759522D01*
X292658628Y-165759522D02*
X292944342Y-165759522D01*
X292944342Y-165759522D02*
X293039580Y-165711903D01*
X293039580Y-165711903D02*
X293087200Y-165664284D01*
X293087200Y-165664284D02*
X293134819Y-165569046D01*
X293134819Y-165569046D02*
X293134819Y-165426189D01*
X292468152Y-166188094D02*
X293134819Y-166188094D01*
X292563390Y-166188094D02*
X292515771Y-166235713D01*
X292515771Y-166235713D02*
X292468152Y-166330951D01*
X292468152Y-166330951D02*
X292468152Y-166473808D01*
X292468152Y-166473808D02*
X292515771Y-166569046D01*
X292515771Y-166569046D02*
X292611009Y-166616665D01*
X292611009Y-166616665D02*
X293134819Y-166616665D01*
X292468152Y-167092856D02*
X293134819Y-167092856D01*
X292563390Y-167092856D02*
X292515771Y-167140475D01*
X292515771Y-167140475D02*
X292468152Y-167235713D01*
X292468152Y-167235713D02*
X292468152Y-167378570D01*
X292468152Y-167378570D02*
X292515771Y-167473808D01*
X292515771Y-167473808D02*
X292611009Y-167521427D01*
X292611009Y-167521427D02*
X293134819Y-167521427D01*
X293230057Y-167759523D02*
X293230057Y-168521427D01*
X292134819Y-168949999D02*
X292134819Y-169045237D01*
X292134819Y-169045237D02*
X292182438Y-169140475D01*
X292182438Y-169140475D02*
X292230057Y-169188094D01*
X292230057Y-169188094D02*
X292325295Y-169235713D01*
X292325295Y-169235713D02*
X292515771Y-169283332D01*
X292515771Y-169283332D02*
X292753866Y-169283332D01*
X292753866Y-169283332D02*
X292944342Y-169235713D01*
X292944342Y-169235713D02*
X293039580Y-169188094D01*
X293039580Y-169188094D02*
X293087200Y-169140475D01*
X293087200Y-169140475D02*
X293134819Y-169045237D01*
X293134819Y-169045237D02*
X293134819Y-168949999D01*
X293134819Y-168949999D02*
X293087200Y-168854761D01*
X293087200Y-168854761D02*
X293039580Y-168807142D01*
X293039580Y-168807142D02*
X292944342Y-168759523D01*
X292944342Y-168759523D02*
X292753866Y-168711904D01*
X292753866Y-168711904D02*
X292515771Y-168711904D01*
X292515771Y-168711904D02*
X292325295Y-168759523D01*
X292325295Y-168759523D02*
X292230057Y-168807142D01*
X292230057Y-168807142D02*
X292182438Y-168854761D01*
X292182438Y-168854761D02*
X292134819Y-168949999D01*
X293134819Y-170235713D02*
X293134819Y-169664285D01*
X293134819Y-169949999D02*
X292134819Y-169949999D01*
X292134819Y-169949999D02*
X292277676Y-169854761D01*
X292277676Y-169854761D02*
X292372914Y-169759523D01*
X292372914Y-169759523D02*
X292420533Y-169664285D01*
X293134819Y-170569047D02*
X292468152Y-171092856D01*
X292468152Y-170569047D02*
X293134819Y-171092856D01*
X292134819Y-171664285D02*
X292134819Y-171759523D01*
X292134819Y-171759523D02*
X292182438Y-171854761D01*
X292182438Y-171854761D02*
X292230057Y-171902380D01*
X292230057Y-171902380D02*
X292325295Y-171949999D01*
X292325295Y-171949999D02*
X292515771Y-171997618D01*
X292515771Y-171997618D02*
X292753866Y-171997618D01*
X292753866Y-171997618D02*
X292944342Y-171949999D01*
X292944342Y-171949999D02*
X293039580Y-171902380D01*
X293039580Y-171902380D02*
X293087200Y-171854761D01*
X293087200Y-171854761D02*
X293134819Y-171759523D01*
X293134819Y-171759523D02*
X293134819Y-171664285D01*
X293134819Y-171664285D02*
X293087200Y-171569047D01*
X293087200Y-171569047D02*
X293039580Y-171521428D01*
X293039580Y-171521428D02*
X292944342Y-171473809D01*
X292944342Y-171473809D02*
X292753866Y-171426190D01*
X292753866Y-171426190D02*
X292515771Y-171426190D01*
X292515771Y-171426190D02*
X292325295Y-171473809D01*
X292325295Y-171473809D02*
X292230057Y-171521428D01*
X292230057Y-171521428D02*
X292182438Y-171569047D01*
X292182438Y-171569047D02*
X292134819Y-171664285D01*
X292134819Y-172330952D02*
X292134819Y-172997618D01*
X292134819Y-172997618D02*
X293134819Y-172569047D01*
X293230057Y-173140476D02*
X293230057Y-173902380D01*
X293087200Y-174092857D02*
X293134819Y-174235714D01*
X293134819Y-174235714D02*
X293134819Y-174473809D01*
X293134819Y-174473809D02*
X293087200Y-174569047D01*
X293087200Y-174569047D02*
X293039580Y-174616666D01*
X293039580Y-174616666D02*
X292944342Y-174664285D01*
X292944342Y-174664285D02*
X292849104Y-174664285D01*
X292849104Y-174664285D02*
X292753866Y-174616666D01*
X292753866Y-174616666D02*
X292706247Y-174569047D01*
X292706247Y-174569047D02*
X292658628Y-174473809D01*
X292658628Y-174473809D02*
X292611009Y-174283333D01*
X292611009Y-174283333D02*
X292563390Y-174188095D01*
X292563390Y-174188095D02*
X292515771Y-174140476D01*
X292515771Y-174140476D02*
X292420533Y-174092857D01*
X292420533Y-174092857D02*
X292325295Y-174092857D01*
X292325295Y-174092857D02*
X292230057Y-174140476D01*
X292230057Y-174140476D02*
X292182438Y-174188095D01*
X292182438Y-174188095D02*
X292134819Y-174283333D01*
X292134819Y-174283333D02*
X292134819Y-174521428D01*
X292134819Y-174521428D02*
X292182438Y-174664285D01*
X293134819Y-175235714D02*
X293087200Y-175140476D01*
X293087200Y-175140476D02*
X293039580Y-175092857D01*
X293039580Y-175092857D02*
X292944342Y-175045238D01*
X292944342Y-175045238D02*
X292658628Y-175045238D01*
X292658628Y-175045238D02*
X292563390Y-175092857D01*
X292563390Y-175092857D02*
X292515771Y-175140476D01*
X292515771Y-175140476D02*
X292468152Y-175235714D01*
X292468152Y-175235714D02*
X292468152Y-175378571D01*
X292468152Y-175378571D02*
X292515771Y-175473809D01*
X292515771Y-175473809D02*
X292563390Y-175521428D01*
X292563390Y-175521428D02*
X292658628Y-175569047D01*
X292658628Y-175569047D02*
X292944342Y-175569047D01*
X292944342Y-175569047D02*
X293039580Y-175521428D01*
X293039580Y-175521428D02*
X293087200Y-175473809D01*
X293087200Y-175473809D02*
X293134819Y-175378571D01*
X293134819Y-175378571D02*
X293134819Y-175235714D01*
X293087200Y-176426190D02*
X293134819Y-176330952D01*
X293134819Y-176330952D02*
X293134819Y-176140476D01*
X293134819Y-176140476D02*
X293087200Y-176045238D01*
X293087200Y-176045238D02*
X293039580Y-175997619D01*
X293039580Y-175997619D02*
X292944342Y-175950000D01*
X292944342Y-175950000D02*
X292658628Y-175950000D01*
X292658628Y-175950000D02*
X292563390Y-175997619D01*
X292563390Y-175997619D02*
X292515771Y-176045238D01*
X292515771Y-176045238D02*
X292468152Y-176140476D01*
X292468152Y-176140476D02*
X292468152Y-176330952D01*
X292468152Y-176330952D02*
X292515771Y-176426190D01*
X293134819Y-176854762D02*
X292134819Y-176854762D01*
X292753866Y-176950000D02*
X293134819Y-177235714D01*
X292468152Y-177235714D02*
X292849104Y-176854762D01*
X293087200Y-178045238D02*
X293134819Y-177950000D01*
X293134819Y-177950000D02*
X293134819Y-177759524D01*
X293134819Y-177759524D02*
X293087200Y-177664286D01*
X293087200Y-177664286D02*
X292991961Y-177616667D01*
X292991961Y-177616667D02*
X292611009Y-177616667D01*
X292611009Y-177616667D02*
X292515771Y-177664286D01*
X292515771Y-177664286D02*
X292468152Y-177759524D01*
X292468152Y-177759524D02*
X292468152Y-177950000D01*
X292468152Y-177950000D02*
X292515771Y-178045238D01*
X292515771Y-178045238D02*
X292611009Y-178092857D01*
X292611009Y-178092857D02*
X292706247Y-178092857D01*
X292706247Y-178092857D02*
X292801485Y-177616667D01*
X292468152Y-178378572D02*
X292468152Y-178759524D01*
X292134819Y-178521429D02*
X292991961Y-178521429D01*
X292991961Y-178521429D02*
X293087200Y-178569048D01*
X293087200Y-178569048D02*
X293134819Y-178664286D01*
X293134819Y-178664286D02*
X293134819Y-178759524D01*
%TO.C,SW16*%
X408289809Y-45836609D02*
X408194571Y-45884228D01*
X408194571Y-45884228D02*
X408146952Y-45931847D01*
X408146952Y-45931847D02*
X408099333Y-46027085D01*
X408099333Y-46027085D02*
X408099333Y-46074704D01*
X408099333Y-46074704D02*
X408146952Y-46169942D01*
X408146952Y-46169942D02*
X408194571Y-46217561D01*
X408194571Y-46217561D02*
X408289809Y-46265180D01*
X408289809Y-46265180D02*
X408480285Y-46265180D01*
X408480285Y-46265180D02*
X408575523Y-46217561D01*
X408575523Y-46217561D02*
X408623142Y-46169942D01*
X408623142Y-46169942D02*
X408670761Y-46074704D01*
X408670761Y-46074704D02*
X408670761Y-46027085D01*
X408670761Y-46027085D02*
X408623142Y-45931847D01*
X408623142Y-45931847D02*
X408575523Y-45884228D01*
X408575523Y-45884228D02*
X408480285Y-45836609D01*
X408480285Y-45836609D02*
X408289809Y-45836609D01*
X408289809Y-45836609D02*
X408194571Y-45788990D01*
X408194571Y-45788990D02*
X408146952Y-45741371D01*
X408146952Y-45741371D02*
X408099333Y-45646133D01*
X408099333Y-45646133D02*
X408099333Y-45455657D01*
X408099333Y-45455657D02*
X408146952Y-45360419D01*
X408146952Y-45360419D02*
X408194571Y-45312800D01*
X408194571Y-45312800D02*
X408289809Y-45265180D01*
X408289809Y-45265180D02*
X408480285Y-45265180D01*
X408480285Y-45265180D02*
X408575523Y-45312800D01*
X408575523Y-45312800D02*
X408623142Y-45360419D01*
X408623142Y-45360419D02*
X408670761Y-45455657D01*
X408670761Y-45455657D02*
X408670761Y-45646133D01*
X408670761Y-45646133D02*
X408623142Y-45741371D01*
X408623142Y-45741371D02*
X408575523Y-45788990D01*
X408575523Y-45788990D02*
X408480285Y-45836609D01*
X409289809Y-46265180D02*
X409385047Y-46265180D01*
X409385047Y-46265180D02*
X409480285Y-46217561D01*
X409480285Y-46217561D02*
X409527904Y-46169942D01*
X409527904Y-46169942D02*
X409575523Y-46074704D01*
X409575523Y-46074704D02*
X409623142Y-45884228D01*
X409623142Y-45884228D02*
X409623142Y-45646133D01*
X409623142Y-45646133D02*
X409575523Y-45455657D01*
X409575523Y-45455657D02*
X409527904Y-45360419D01*
X409527904Y-45360419D02*
X409480285Y-45312800D01*
X409480285Y-45312800D02*
X409385047Y-45265180D01*
X409385047Y-45265180D02*
X409289809Y-45265180D01*
X409289809Y-45265180D02*
X409194571Y-45312800D01*
X409194571Y-45312800D02*
X409146952Y-45360419D01*
X409146952Y-45360419D02*
X409099333Y-45455657D01*
X409099333Y-45455657D02*
X409051714Y-45646133D01*
X409051714Y-45646133D02*
X409051714Y-45884228D01*
X409051714Y-45884228D02*
X409099333Y-46074704D01*
X409099333Y-46074704D02*
X409146952Y-46169942D01*
X409146952Y-46169942D02*
X409194571Y-46217561D01*
X409194571Y-46217561D02*
X409289809Y-46265180D01*
X410242190Y-46265180D02*
X410337428Y-46265180D01*
X410337428Y-46265180D02*
X410432666Y-46217561D01*
X410432666Y-46217561D02*
X410480285Y-46169942D01*
X410480285Y-46169942D02*
X410527904Y-46074704D01*
X410527904Y-46074704D02*
X410575523Y-45884228D01*
X410575523Y-45884228D02*
X410575523Y-45646133D01*
X410575523Y-45646133D02*
X410527904Y-45455657D01*
X410527904Y-45455657D02*
X410480285Y-45360419D01*
X410480285Y-45360419D02*
X410432666Y-45312800D01*
X410432666Y-45312800D02*
X410337428Y-45265180D01*
X410337428Y-45265180D02*
X410242190Y-45265180D01*
X410242190Y-45265180D02*
X410146952Y-45312800D01*
X410146952Y-45312800D02*
X410099333Y-45360419D01*
X410099333Y-45360419D02*
X410051714Y-45455657D01*
X410051714Y-45455657D02*
X410004095Y-45646133D01*
X410004095Y-45646133D02*
X410004095Y-45884228D01*
X410004095Y-45884228D02*
X410051714Y-46074704D01*
X410051714Y-46074704D02*
X410099333Y-46169942D01*
X410099333Y-46169942D02*
X410146952Y-46217561D01*
X410146952Y-46217561D02*
X410242190Y-46265180D01*
X410956476Y-45312800D02*
X411099333Y-45265180D01*
X411099333Y-45265180D02*
X411337428Y-45265180D01*
X411337428Y-45265180D02*
X411432666Y-45312800D01*
X411432666Y-45312800D02*
X411480285Y-45360419D01*
X411480285Y-45360419D02*
X411527904Y-45455657D01*
X411527904Y-45455657D02*
X411527904Y-45550895D01*
X411527904Y-45550895D02*
X411480285Y-45646133D01*
X411480285Y-45646133D02*
X411432666Y-45693752D01*
X411432666Y-45693752D02*
X411337428Y-45741371D01*
X411337428Y-45741371D02*
X411146952Y-45788990D01*
X411146952Y-45788990D02*
X411051714Y-45836609D01*
X411051714Y-45836609D02*
X411004095Y-45884228D01*
X411004095Y-45884228D02*
X410956476Y-45979466D01*
X410956476Y-45979466D02*
X410956476Y-46074704D01*
X410956476Y-46074704D02*
X411004095Y-46169942D01*
X411004095Y-46169942D02*
X411051714Y-46217561D01*
X411051714Y-46217561D02*
X411146952Y-46265180D01*
X411146952Y-46265180D02*
X411385047Y-46265180D01*
X411385047Y-46265180D02*
X411527904Y-46217561D01*
X411956476Y-45265180D02*
X411956476Y-46265180D01*
X411956476Y-46265180D02*
X412337428Y-46265180D01*
X412337428Y-46265180D02*
X412432666Y-46217561D01*
X412432666Y-46217561D02*
X412480285Y-46169942D01*
X412480285Y-46169942D02*
X412527904Y-46074704D01*
X412527904Y-46074704D02*
X412527904Y-45931847D01*
X412527904Y-45931847D02*
X412480285Y-45836609D01*
X412480285Y-45836609D02*
X412432666Y-45788990D01*
X412432666Y-45788990D02*
X412337428Y-45741371D01*
X412337428Y-45741371D02*
X411956476Y-45741371D01*
X413004095Y-45265180D02*
X413194571Y-45265180D01*
X413194571Y-45265180D02*
X413289809Y-45312800D01*
X413289809Y-45312800D02*
X413337428Y-45360419D01*
X413337428Y-45360419D02*
X413432666Y-45503276D01*
X413432666Y-45503276D02*
X413480285Y-45693752D01*
X413480285Y-45693752D02*
X413480285Y-46074704D01*
X413480285Y-46074704D02*
X413432666Y-46169942D01*
X413432666Y-46169942D02*
X413385047Y-46217561D01*
X413385047Y-46217561D02*
X413289809Y-46265180D01*
X413289809Y-46265180D02*
X413099333Y-46265180D01*
X413099333Y-46265180D02*
X413004095Y-46217561D01*
X413004095Y-46217561D02*
X412956476Y-46169942D01*
X412956476Y-46169942D02*
X412908857Y-46074704D01*
X412908857Y-46074704D02*
X412908857Y-45836609D01*
X412908857Y-45836609D02*
X412956476Y-45741371D01*
X412956476Y-45741371D02*
X413004095Y-45693752D01*
X413004095Y-45693752D02*
X413099333Y-45646133D01*
X413099333Y-45646133D02*
X413289809Y-45646133D01*
X413289809Y-45646133D02*
X413385047Y-45693752D01*
X413385047Y-45693752D02*
X413432666Y-45741371D01*
X413432666Y-45741371D02*
X413480285Y-45836609D01*
X414242190Y-45788990D02*
X414385047Y-45741371D01*
X414385047Y-45741371D02*
X414432666Y-45693752D01*
X414432666Y-45693752D02*
X414480285Y-45598514D01*
X414480285Y-45598514D02*
X414480285Y-45455657D01*
X414480285Y-45455657D02*
X414432666Y-45360419D01*
X414432666Y-45360419D02*
X414385047Y-45312800D01*
X414385047Y-45312800D02*
X414289809Y-45265180D01*
X414289809Y-45265180D02*
X413908857Y-45265180D01*
X413908857Y-45265180D02*
X413908857Y-46265180D01*
X413908857Y-46265180D02*
X414242190Y-46265180D01*
X414242190Y-46265180D02*
X414337428Y-46217561D01*
X414337428Y-46217561D02*
X414385047Y-46169942D01*
X414385047Y-46169942D02*
X414432666Y-46074704D01*
X414432666Y-46074704D02*
X414432666Y-45979466D01*
X414432666Y-45979466D02*
X414385047Y-45884228D01*
X414385047Y-45884228D02*
X414337428Y-45836609D01*
X414337428Y-45836609D02*
X414242190Y-45788990D01*
X414242190Y-45788990D02*
X413908857Y-45788990D01*
X415337428Y-46265180D02*
X415146952Y-46265180D01*
X415146952Y-46265180D02*
X415051714Y-46217561D01*
X415051714Y-46217561D02*
X415004095Y-46169942D01*
X415004095Y-46169942D02*
X414908857Y-46027085D01*
X414908857Y-46027085D02*
X414861238Y-45836609D01*
X414861238Y-45836609D02*
X414861238Y-45455657D01*
X414861238Y-45455657D02*
X414908857Y-45360419D01*
X414908857Y-45360419D02*
X414956476Y-45312800D01*
X414956476Y-45312800D02*
X415051714Y-45265180D01*
X415051714Y-45265180D02*
X415242190Y-45265180D01*
X415242190Y-45265180D02*
X415337428Y-45312800D01*
X415337428Y-45312800D02*
X415385047Y-45360419D01*
X415385047Y-45360419D02*
X415432666Y-45455657D01*
X415432666Y-45455657D02*
X415432666Y-45693752D01*
X415432666Y-45693752D02*
X415385047Y-45788990D01*
X415385047Y-45788990D02*
X415337428Y-45836609D01*
X415337428Y-45836609D02*
X415242190Y-45884228D01*
X415242190Y-45884228D02*
X415051714Y-45884228D01*
X415051714Y-45884228D02*
X414956476Y-45836609D01*
X414956476Y-45836609D02*
X414908857Y-45788990D01*
X414908857Y-45788990D02*
X414861238Y-45693752D01*
X415861238Y-45265180D02*
X415861238Y-46265180D01*
X415861238Y-46265180D02*
X416194571Y-45550895D01*
X416194571Y-45550895D02*
X416527904Y-46265180D01*
X416527904Y-46265180D02*
X416527904Y-45265180D01*
X416956476Y-46169942D02*
X417004095Y-46217561D01*
X417004095Y-46217561D02*
X417099333Y-46265180D01*
X417099333Y-46265180D02*
X417337428Y-46265180D01*
X417337428Y-46265180D02*
X417432666Y-46217561D01*
X417432666Y-46217561D02*
X417480285Y-46169942D01*
X417480285Y-46169942D02*
X417527904Y-46074704D01*
X417527904Y-46074704D02*
X417527904Y-45979466D01*
X417527904Y-45979466D02*
X417480285Y-45836609D01*
X417480285Y-45836609D02*
X416908857Y-45265180D01*
X416908857Y-45265180D02*
X417527904Y-45265180D01*
X418527904Y-45265180D02*
X418194571Y-45741371D01*
X417956476Y-45265180D02*
X417956476Y-46265180D01*
X417956476Y-46265180D02*
X418337428Y-46265180D01*
X418337428Y-46265180D02*
X418432666Y-46217561D01*
X418432666Y-46217561D02*
X418480285Y-46169942D01*
X418480285Y-46169942D02*
X418527904Y-46074704D01*
X418527904Y-46074704D02*
X418527904Y-45931847D01*
X418527904Y-45931847D02*
X418480285Y-45836609D01*
X418480285Y-45836609D02*
X418432666Y-45788990D01*
X418432666Y-45788990D02*
X418337428Y-45741371D01*
X418337428Y-45741371D02*
X417956476Y-45741371D01*
X418956476Y-45788990D02*
X419289809Y-45788990D01*
X419432666Y-45265180D02*
X418956476Y-45265180D01*
X418956476Y-45265180D02*
X418956476Y-46265180D01*
X418956476Y-46265180D02*
X419432666Y-46265180D01*
X411448476Y-46836800D02*
X411591333Y-46789180D01*
X411591333Y-46789180D02*
X411829428Y-46789180D01*
X411829428Y-46789180D02*
X411924666Y-46836800D01*
X411924666Y-46836800D02*
X411972285Y-46884419D01*
X411972285Y-46884419D02*
X412019904Y-46979657D01*
X412019904Y-46979657D02*
X412019904Y-47074895D01*
X412019904Y-47074895D02*
X411972285Y-47170133D01*
X411972285Y-47170133D02*
X411924666Y-47217752D01*
X411924666Y-47217752D02*
X411829428Y-47265371D01*
X411829428Y-47265371D02*
X411638952Y-47312990D01*
X411638952Y-47312990D02*
X411543714Y-47360609D01*
X411543714Y-47360609D02*
X411496095Y-47408228D01*
X411496095Y-47408228D02*
X411448476Y-47503466D01*
X411448476Y-47503466D02*
X411448476Y-47598704D01*
X411448476Y-47598704D02*
X411496095Y-47693942D01*
X411496095Y-47693942D02*
X411543714Y-47741561D01*
X411543714Y-47741561D02*
X411638952Y-47789180D01*
X411638952Y-47789180D02*
X411877047Y-47789180D01*
X411877047Y-47789180D02*
X412019904Y-47741561D01*
X412353238Y-47789180D02*
X412591333Y-46789180D01*
X412591333Y-46789180D02*
X412781809Y-47503466D01*
X412781809Y-47503466D02*
X412972285Y-46789180D01*
X412972285Y-46789180D02*
X413210381Y-47789180D01*
X414115142Y-46789180D02*
X413543714Y-46789180D01*
X413829428Y-46789180D02*
X413829428Y-47789180D01*
X413829428Y-47789180D02*
X413734190Y-47646323D01*
X413734190Y-47646323D02*
X413638952Y-47551085D01*
X413638952Y-47551085D02*
X413543714Y-47503466D01*
X414972285Y-47789180D02*
X414781809Y-47789180D01*
X414781809Y-47789180D02*
X414686571Y-47741561D01*
X414686571Y-47741561D02*
X414638952Y-47693942D01*
X414638952Y-47693942D02*
X414543714Y-47551085D01*
X414543714Y-47551085D02*
X414496095Y-47360609D01*
X414496095Y-47360609D02*
X414496095Y-46979657D01*
X414496095Y-46979657D02*
X414543714Y-46884419D01*
X414543714Y-46884419D02*
X414591333Y-46836800D01*
X414591333Y-46836800D02*
X414686571Y-46789180D01*
X414686571Y-46789180D02*
X414877047Y-46789180D01*
X414877047Y-46789180D02*
X414972285Y-46836800D01*
X414972285Y-46836800D02*
X415019904Y-46884419D01*
X415019904Y-46884419D02*
X415067523Y-46979657D01*
X415067523Y-46979657D02*
X415067523Y-47217752D01*
X415067523Y-47217752D02*
X415019904Y-47312990D01*
X415019904Y-47312990D02*
X414972285Y-47360609D01*
X414972285Y-47360609D02*
X414877047Y-47408228D01*
X414877047Y-47408228D02*
X414686571Y-47408228D01*
X414686571Y-47408228D02*
X414591333Y-47360609D01*
X414591333Y-47360609D02*
X414543714Y-47312990D01*
X414543714Y-47312990D02*
X414496095Y-47217752D01*
%TO.C,U1*%
X278248200Y-50034524D02*
X278295819Y-50177381D01*
X278295819Y-50177381D02*
X278295819Y-50415476D01*
X278295819Y-50415476D02*
X278248200Y-50510714D01*
X278248200Y-50510714D02*
X278200580Y-50558333D01*
X278200580Y-50558333D02*
X278105342Y-50605952D01*
X278105342Y-50605952D02*
X278010104Y-50605952D01*
X278010104Y-50605952D02*
X277914866Y-50558333D01*
X277914866Y-50558333D02*
X277867247Y-50510714D01*
X277867247Y-50510714D02*
X277819628Y-50415476D01*
X277819628Y-50415476D02*
X277772009Y-50225000D01*
X277772009Y-50225000D02*
X277724390Y-50129762D01*
X277724390Y-50129762D02*
X277676771Y-50082143D01*
X277676771Y-50082143D02*
X277581533Y-50034524D01*
X277581533Y-50034524D02*
X277486295Y-50034524D01*
X277486295Y-50034524D02*
X277391057Y-50082143D01*
X277391057Y-50082143D02*
X277343438Y-50129762D01*
X277343438Y-50129762D02*
X277295819Y-50225000D01*
X277295819Y-50225000D02*
X277295819Y-50463095D01*
X277295819Y-50463095D02*
X277343438Y-50605952D01*
X278200580Y-51605952D02*
X278248200Y-51558333D01*
X278248200Y-51558333D02*
X278295819Y-51415476D01*
X278295819Y-51415476D02*
X278295819Y-51320238D01*
X278295819Y-51320238D02*
X278248200Y-51177381D01*
X278248200Y-51177381D02*
X278152961Y-51082143D01*
X278152961Y-51082143D02*
X278057723Y-51034524D01*
X278057723Y-51034524D02*
X277867247Y-50986905D01*
X277867247Y-50986905D02*
X277724390Y-50986905D01*
X277724390Y-50986905D02*
X277533914Y-51034524D01*
X277533914Y-51034524D02*
X277438676Y-51082143D01*
X277438676Y-51082143D02*
X277343438Y-51177381D01*
X277343438Y-51177381D02*
X277295819Y-51320238D01*
X277295819Y-51320238D02*
X277295819Y-51415476D01*
X277295819Y-51415476D02*
X277343438Y-51558333D01*
X277343438Y-51558333D02*
X277391057Y-51605952D01*
X277295819Y-52225000D02*
X277295819Y-52320238D01*
X277295819Y-52320238D02*
X277343438Y-52415476D01*
X277343438Y-52415476D02*
X277391057Y-52463095D01*
X277391057Y-52463095D02*
X277486295Y-52510714D01*
X277486295Y-52510714D02*
X277676771Y-52558333D01*
X277676771Y-52558333D02*
X277914866Y-52558333D01*
X277914866Y-52558333D02*
X278105342Y-52510714D01*
X278105342Y-52510714D02*
X278200580Y-52463095D01*
X278200580Y-52463095D02*
X278248200Y-52415476D01*
X278248200Y-52415476D02*
X278295819Y-52320238D01*
X278295819Y-52320238D02*
X278295819Y-52225000D01*
X278295819Y-52225000D02*
X278248200Y-52129762D01*
X278248200Y-52129762D02*
X278200580Y-52082143D01*
X278200580Y-52082143D02*
X278105342Y-52034524D01*
X278105342Y-52034524D02*
X277914866Y-51986905D01*
X277914866Y-51986905D02*
X277676771Y-51986905D01*
X277676771Y-51986905D02*
X277486295Y-52034524D01*
X277486295Y-52034524D02*
X277391057Y-52082143D01*
X277391057Y-52082143D02*
X277343438Y-52129762D01*
X277343438Y-52129762D02*
X277295819Y-52225000D01*
X278295819Y-53034524D02*
X278295819Y-53225000D01*
X278295819Y-53225000D02*
X278248200Y-53320238D01*
X278248200Y-53320238D02*
X278200580Y-53367857D01*
X278200580Y-53367857D02*
X278057723Y-53463095D01*
X278057723Y-53463095D02*
X277867247Y-53510714D01*
X277867247Y-53510714D02*
X277486295Y-53510714D01*
X277486295Y-53510714D02*
X277391057Y-53463095D01*
X277391057Y-53463095D02*
X277343438Y-53415476D01*
X277343438Y-53415476D02*
X277295819Y-53320238D01*
X277295819Y-53320238D02*
X277295819Y-53129762D01*
X277295819Y-53129762D02*
X277343438Y-53034524D01*
X277343438Y-53034524D02*
X277391057Y-52986905D01*
X277391057Y-52986905D02*
X277486295Y-52939286D01*
X277486295Y-52939286D02*
X277724390Y-52939286D01*
X277724390Y-52939286D02*
X277819628Y-52986905D01*
X277819628Y-52986905D02*
X277867247Y-53034524D01*
X277867247Y-53034524D02*
X277914866Y-53129762D01*
X277914866Y-53129762D02*
X277914866Y-53320238D01*
X277914866Y-53320238D02*
X277867247Y-53415476D01*
X277867247Y-53415476D02*
X277819628Y-53463095D01*
X277819628Y-53463095D02*
X277724390Y-53510714D01*
X278295819Y-54463095D02*
X278295819Y-53891667D01*
X278295819Y-54177381D02*
X277295819Y-54177381D01*
X277295819Y-54177381D02*
X277438676Y-54082143D01*
X277438676Y-54082143D02*
X277533914Y-53986905D01*
X277533914Y-53986905D02*
X277581533Y-53891667D01*
X277295819Y-55367857D02*
X277295819Y-54891667D01*
X277295819Y-54891667D02*
X277772009Y-54844048D01*
X277772009Y-54844048D02*
X277724390Y-54891667D01*
X277724390Y-54891667D02*
X277676771Y-54986905D01*
X277676771Y-54986905D02*
X277676771Y-55225000D01*
X277676771Y-55225000D02*
X277724390Y-55320238D01*
X277724390Y-55320238D02*
X277772009Y-55367857D01*
X277772009Y-55367857D02*
X277867247Y-55415476D01*
X277867247Y-55415476D02*
X278105342Y-55415476D01*
X278105342Y-55415476D02*
X278200580Y-55367857D01*
X278200580Y-55367857D02*
X278248200Y-55320238D01*
X278248200Y-55320238D02*
X278295819Y-55225000D01*
X278295819Y-55225000D02*
X278295819Y-54986905D01*
X278295819Y-54986905D02*
X278248200Y-54891667D01*
X278248200Y-54891667D02*
X278200580Y-54844048D01*
X279454819Y-51963095D02*
X280264342Y-51963095D01*
X280264342Y-51963095D02*
X280359580Y-52010714D01*
X280359580Y-52010714D02*
X280407200Y-52058333D01*
X280407200Y-52058333D02*
X280454819Y-52153571D01*
X280454819Y-52153571D02*
X280454819Y-52344047D01*
X280454819Y-52344047D02*
X280407200Y-52439285D01*
X280407200Y-52439285D02*
X280359580Y-52486904D01*
X280359580Y-52486904D02*
X280264342Y-52534523D01*
X280264342Y-52534523D02*
X279454819Y-52534523D01*
X280454819Y-53534523D02*
X280454819Y-52963095D01*
X280454819Y-53248809D02*
X279454819Y-53248809D01*
X279454819Y-53248809D02*
X279597676Y-53153571D01*
X279597676Y-53153571D02*
X279692914Y-53058333D01*
X279692914Y-53058333D02*
X279740533Y-52963095D01*
%TO.C,U2*%
X347116200Y-50034524D02*
X347163819Y-50177381D01*
X347163819Y-50177381D02*
X347163819Y-50415476D01*
X347163819Y-50415476D02*
X347116200Y-50510714D01*
X347116200Y-50510714D02*
X347068580Y-50558333D01*
X347068580Y-50558333D02*
X346973342Y-50605952D01*
X346973342Y-50605952D02*
X346878104Y-50605952D01*
X346878104Y-50605952D02*
X346782866Y-50558333D01*
X346782866Y-50558333D02*
X346735247Y-50510714D01*
X346735247Y-50510714D02*
X346687628Y-50415476D01*
X346687628Y-50415476D02*
X346640009Y-50225000D01*
X346640009Y-50225000D02*
X346592390Y-50129762D01*
X346592390Y-50129762D02*
X346544771Y-50082143D01*
X346544771Y-50082143D02*
X346449533Y-50034524D01*
X346449533Y-50034524D02*
X346354295Y-50034524D01*
X346354295Y-50034524D02*
X346259057Y-50082143D01*
X346259057Y-50082143D02*
X346211438Y-50129762D01*
X346211438Y-50129762D02*
X346163819Y-50225000D01*
X346163819Y-50225000D02*
X346163819Y-50463095D01*
X346163819Y-50463095D02*
X346211438Y-50605952D01*
X347068580Y-51605952D02*
X347116200Y-51558333D01*
X347116200Y-51558333D02*
X347163819Y-51415476D01*
X347163819Y-51415476D02*
X347163819Y-51320238D01*
X347163819Y-51320238D02*
X347116200Y-51177381D01*
X347116200Y-51177381D02*
X347020961Y-51082143D01*
X347020961Y-51082143D02*
X346925723Y-51034524D01*
X346925723Y-51034524D02*
X346735247Y-50986905D01*
X346735247Y-50986905D02*
X346592390Y-50986905D01*
X346592390Y-50986905D02*
X346401914Y-51034524D01*
X346401914Y-51034524D02*
X346306676Y-51082143D01*
X346306676Y-51082143D02*
X346211438Y-51177381D01*
X346211438Y-51177381D02*
X346163819Y-51320238D01*
X346163819Y-51320238D02*
X346163819Y-51415476D01*
X346163819Y-51415476D02*
X346211438Y-51558333D01*
X346211438Y-51558333D02*
X346259057Y-51605952D01*
X346163819Y-52225000D02*
X346163819Y-52320238D01*
X346163819Y-52320238D02*
X346211438Y-52415476D01*
X346211438Y-52415476D02*
X346259057Y-52463095D01*
X346259057Y-52463095D02*
X346354295Y-52510714D01*
X346354295Y-52510714D02*
X346544771Y-52558333D01*
X346544771Y-52558333D02*
X346782866Y-52558333D01*
X346782866Y-52558333D02*
X346973342Y-52510714D01*
X346973342Y-52510714D02*
X347068580Y-52463095D01*
X347068580Y-52463095D02*
X347116200Y-52415476D01*
X347116200Y-52415476D02*
X347163819Y-52320238D01*
X347163819Y-52320238D02*
X347163819Y-52225000D01*
X347163819Y-52225000D02*
X347116200Y-52129762D01*
X347116200Y-52129762D02*
X347068580Y-52082143D01*
X347068580Y-52082143D02*
X346973342Y-52034524D01*
X346973342Y-52034524D02*
X346782866Y-51986905D01*
X346782866Y-51986905D02*
X346544771Y-51986905D01*
X346544771Y-51986905D02*
X346354295Y-52034524D01*
X346354295Y-52034524D02*
X346259057Y-52082143D01*
X346259057Y-52082143D02*
X346211438Y-52129762D01*
X346211438Y-52129762D02*
X346163819Y-52225000D01*
X347163819Y-53034524D02*
X347163819Y-53225000D01*
X347163819Y-53225000D02*
X347116200Y-53320238D01*
X347116200Y-53320238D02*
X347068580Y-53367857D01*
X347068580Y-53367857D02*
X346925723Y-53463095D01*
X346925723Y-53463095D02*
X346735247Y-53510714D01*
X346735247Y-53510714D02*
X346354295Y-53510714D01*
X346354295Y-53510714D02*
X346259057Y-53463095D01*
X346259057Y-53463095D02*
X346211438Y-53415476D01*
X346211438Y-53415476D02*
X346163819Y-53320238D01*
X346163819Y-53320238D02*
X346163819Y-53129762D01*
X346163819Y-53129762D02*
X346211438Y-53034524D01*
X346211438Y-53034524D02*
X346259057Y-52986905D01*
X346259057Y-52986905D02*
X346354295Y-52939286D01*
X346354295Y-52939286D02*
X346592390Y-52939286D01*
X346592390Y-52939286D02*
X346687628Y-52986905D01*
X346687628Y-52986905D02*
X346735247Y-53034524D01*
X346735247Y-53034524D02*
X346782866Y-53129762D01*
X346782866Y-53129762D02*
X346782866Y-53320238D01*
X346782866Y-53320238D02*
X346735247Y-53415476D01*
X346735247Y-53415476D02*
X346687628Y-53463095D01*
X346687628Y-53463095D02*
X346592390Y-53510714D01*
X347163819Y-54463095D02*
X347163819Y-53891667D01*
X347163819Y-54177381D02*
X346163819Y-54177381D01*
X346163819Y-54177381D02*
X346306676Y-54082143D01*
X346306676Y-54082143D02*
X346401914Y-53986905D01*
X346401914Y-53986905D02*
X346449533Y-53891667D01*
X346163819Y-55367857D02*
X346163819Y-54891667D01*
X346163819Y-54891667D02*
X346640009Y-54844048D01*
X346640009Y-54844048D02*
X346592390Y-54891667D01*
X346592390Y-54891667D02*
X346544771Y-54986905D01*
X346544771Y-54986905D02*
X346544771Y-55225000D01*
X346544771Y-55225000D02*
X346592390Y-55320238D01*
X346592390Y-55320238D02*
X346640009Y-55367857D01*
X346640009Y-55367857D02*
X346735247Y-55415476D01*
X346735247Y-55415476D02*
X346973342Y-55415476D01*
X346973342Y-55415476D02*
X347068580Y-55367857D01*
X347068580Y-55367857D02*
X347116200Y-55320238D01*
X347116200Y-55320238D02*
X347163819Y-55225000D01*
X347163819Y-55225000D02*
X347163819Y-54986905D01*
X347163819Y-54986905D02*
X347116200Y-54891667D01*
X347116200Y-54891667D02*
X347068580Y-54844048D01*
X344004819Y-51963095D02*
X344814342Y-51963095D01*
X344814342Y-51963095D02*
X344909580Y-52010714D01*
X344909580Y-52010714D02*
X344957200Y-52058333D01*
X344957200Y-52058333D02*
X345004819Y-52153571D01*
X345004819Y-52153571D02*
X345004819Y-52344047D01*
X345004819Y-52344047D02*
X344957200Y-52439285D01*
X344957200Y-52439285D02*
X344909580Y-52486904D01*
X344909580Y-52486904D02*
X344814342Y-52534523D01*
X344814342Y-52534523D02*
X344004819Y-52534523D01*
X344100057Y-52963095D02*
X344052438Y-53010714D01*
X344052438Y-53010714D02*
X344004819Y-53105952D01*
X344004819Y-53105952D02*
X344004819Y-53344047D01*
X344004819Y-53344047D02*
X344052438Y-53439285D01*
X344052438Y-53439285D02*
X344100057Y-53486904D01*
X344100057Y-53486904D02*
X344195295Y-53534523D01*
X344195295Y-53534523D02*
X344290533Y-53534523D01*
X344290533Y-53534523D02*
X344433390Y-53486904D01*
X344433390Y-53486904D02*
X345004819Y-52915476D01*
X345004819Y-52915476D02*
X345004819Y-53534523D01*
%TO.C,SW15*%
X215280190Y-54493390D02*
X215375428Y-54445771D01*
X215375428Y-54445771D02*
X215423047Y-54398152D01*
X215423047Y-54398152D02*
X215470666Y-54302914D01*
X215470666Y-54302914D02*
X215470666Y-54255295D01*
X215470666Y-54255295D02*
X215423047Y-54160057D01*
X215423047Y-54160057D02*
X215375428Y-54112438D01*
X215375428Y-54112438D02*
X215280190Y-54064819D01*
X215280190Y-54064819D02*
X215089714Y-54064819D01*
X215089714Y-54064819D02*
X214994476Y-54112438D01*
X214994476Y-54112438D02*
X214946857Y-54160057D01*
X214946857Y-54160057D02*
X214899238Y-54255295D01*
X214899238Y-54255295D02*
X214899238Y-54302914D01*
X214899238Y-54302914D02*
X214946857Y-54398152D01*
X214946857Y-54398152D02*
X214994476Y-54445771D01*
X214994476Y-54445771D02*
X215089714Y-54493390D01*
X215089714Y-54493390D02*
X215280190Y-54493390D01*
X215280190Y-54493390D02*
X215375428Y-54541009D01*
X215375428Y-54541009D02*
X215423047Y-54588628D01*
X215423047Y-54588628D02*
X215470666Y-54683866D01*
X215470666Y-54683866D02*
X215470666Y-54874342D01*
X215470666Y-54874342D02*
X215423047Y-54969580D01*
X215423047Y-54969580D02*
X215375428Y-55017200D01*
X215375428Y-55017200D02*
X215280190Y-55064819D01*
X215280190Y-55064819D02*
X215089714Y-55064819D01*
X215089714Y-55064819D02*
X214994476Y-55017200D01*
X214994476Y-55017200D02*
X214946857Y-54969580D01*
X214946857Y-54969580D02*
X214899238Y-54874342D01*
X214899238Y-54874342D02*
X214899238Y-54683866D01*
X214899238Y-54683866D02*
X214946857Y-54588628D01*
X214946857Y-54588628D02*
X214994476Y-54541009D01*
X214994476Y-54541009D02*
X215089714Y-54493390D01*
X214280190Y-54064819D02*
X214184952Y-54064819D01*
X214184952Y-54064819D02*
X214089714Y-54112438D01*
X214089714Y-54112438D02*
X214042095Y-54160057D01*
X214042095Y-54160057D02*
X213994476Y-54255295D01*
X213994476Y-54255295D02*
X213946857Y-54445771D01*
X213946857Y-54445771D02*
X213946857Y-54683866D01*
X213946857Y-54683866D02*
X213994476Y-54874342D01*
X213994476Y-54874342D02*
X214042095Y-54969580D01*
X214042095Y-54969580D02*
X214089714Y-55017200D01*
X214089714Y-55017200D02*
X214184952Y-55064819D01*
X214184952Y-55064819D02*
X214280190Y-55064819D01*
X214280190Y-55064819D02*
X214375428Y-55017200D01*
X214375428Y-55017200D02*
X214423047Y-54969580D01*
X214423047Y-54969580D02*
X214470666Y-54874342D01*
X214470666Y-54874342D02*
X214518285Y-54683866D01*
X214518285Y-54683866D02*
X214518285Y-54445771D01*
X214518285Y-54445771D02*
X214470666Y-54255295D01*
X214470666Y-54255295D02*
X214423047Y-54160057D01*
X214423047Y-54160057D02*
X214375428Y-54112438D01*
X214375428Y-54112438D02*
X214280190Y-54064819D01*
X213327809Y-54064819D02*
X213232571Y-54064819D01*
X213232571Y-54064819D02*
X213137333Y-54112438D01*
X213137333Y-54112438D02*
X213089714Y-54160057D01*
X213089714Y-54160057D02*
X213042095Y-54255295D01*
X213042095Y-54255295D02*
X212994476Y-54445771D01*
X212994476Y-54445771D02*
X212994476Y-54683866D01*
X212994476Y-54683866D02*
X213042095Y-54874342D01*
X213042095Y-54874342D02*
X213089714Y-54969580D01*
X213089714Y-54969580D02*
X213137333Y-55017200D01*
X213137333Y-55017200D02*
X213232571Y-55064819D01*
X213232571Y-55064819D02*
X213327809Y-55064819D01*
X213327809Y-55064819D02*
X213423047Y-55017200D01*
X213423047Y-55017200D02*
X213470666Y-54969580D01*
X213470666Y-54969580D02*
X213518285Y-54874342D01*
X213518285Y-54874342D02*
X213565904Y-54683866D01*
X213565904Y-54683866D02*
X213565904Y-54445771D01*
X213565904Y-54445771D02*
X213518285Y-54255295D01*
X213518285Y-54255295D02*
X213470666Y-54160057D01*
X213470666Y-54160057D02*
X213423047Y-54112438D01*
X213423047Y-54112438D02*
X213327809Y-54064819D01*
X212613523Y-55017200D02*
X212470666Y-55064819D01*
X212470666Y-55064819D02*
X212232571Y-55064819D01*
X212232571Y-55064819D02*
X212137333Y-55017200D01*
X212137333Y-55017200D02*
X212089714Y-54969580D01*
X212089714Y-54969580D02*
X212042095Y-54874342D01*
X212042095Y-54874342D02*
X212042095Y-54779104D01*
X212042095Y-54779104D02*
X212089714Y-54683866D01*
X212089714Y-54683866D02*
X212137333Y-54636247D01*
X212137333Y-54636247D02*
X212232571Y-54588628D01*
X212232571Y-54588628D02*
X212423047Y-54541009D01*
X212423047Y-54541009D02*
X212518285Y-54493390D01*
X212518285Y-54493390D02*
X212565904Y-54445771D01*
X212565904Y-54445771D02*
X212613523Y-54350533D01*
X212613523Y-54350533D02*
X212613523Y-54255295D01*
X212613523Y-54255295D02*
X212565904Y-54160057D01*
X212565904Y-54160057D02*
X212518285Y-54112438D01*
X212518285Y-54112438D02*
X212423047Y-54064819D01*
X212423047Y-54064819D02*
X212184952Y-54064819D01*
X212184952Y-54064819D02*
X212042095Y-54112438D01*
X211613523Y-55064819D02*
X211613523Y-54064819D01*
X211613523Y-54064819D02*
X211232571Y-54064819D01*
X211232571Y-54064819D02*
X211137333Y-54112438D01*
X211137333Y-54112438D02*
X211089714Y-54160057D01*
X211089714Y-54160057D02*
X211042095Y-54255295D01*
X211042095Y-54255295D02*
X211042095Y-54398152D01*
X211042095Y-54398152D02*
X211089714Y-54493390D01*
X211089714Y-54493390D02*
X211137333Y-54541009D01*
X211137333Y-54541009D02*
X211232571Y-54588628D01*
X211232571Y-54588628D02*
X211613523Y-54588628D01*
X210565904Y-55064819D02*
X210375428Y-55064819D01*
X210375428Y-55064819D02*
X210280190Y-55017200D01*
X210280190Y-55017200D02*
X210232571Y-54969580D01*
X210232571Y-54969580D02*
X210137333Y-54826723D01*
X210137333Y-54826723D02*
X210089714Y-54636247D01*
X210089714Y-54636247D02*
X210089714Y-54255295D01*
X210089714Y-54255295D02*
X210137333Y-54160057D01*
X210137333Y-54160057D02*
X210184952Y-54112438D01*
X210184952Y-54112438D02*
X210280190Y-54064819D01*
X210280190Y-54064819D02*
X210470666Y-54064819D01*
X210470666Y-54064819D02*
X210565904Y-54112438D01*
X210565904Y-54112438D02*
X210613523Y-54160057D01*
X210613523Y-54160057D02*
X210661142Y-54255295D01*
X210661142Y-54255295D02*
X210661142Y-54493390D01*
X210661142Y-54493390D02*
X210613523Y-54588628D01*
X210613523Y-54588628D02*
X210565904Y-54636247D01*
X210565904Y-54636247D02*
X210470666Y-54683866D01*
X210470666Y-54683866D02*
X210280190Y-54683866D01*
X210280190Y-54683866D02*
X210184952Y-54636247D01*
X210184952Y-54636247D02*
X210137333Y-54588628D01*
X210137333Y-54588628D02*
X210089714Y-54493390D01*
X209327809Y-54541009D02*
X209184952Y-54588628D01*
X209184952Y-54588628D02*
X209137333Y-54636247D01*
X209137333Y-54636247D02*
X209089714Y-54731485D01*
X209089714Y-54731485D02*
X209089714Y-54874342D01*
X209089714Y-54874342D02*
X209137333Y-54969580D01*
X209137333Y-54969580D02*
X209184952Y-55017200D01*
X209184952Y-55017200D02*
X209280190Y-55064819D01*
X209280190Y-55064819D02*
X209661142Y-55064819D01*
X209661142Y-55064819D02*
X209661142Y-54064819D01*
X209661142Y-54064819D02*
X209327809Y-54064819D01*
X209327809Y-54064819D02*
X209232571Y-54112438D01*
X209232571Y-54112438D02*
X209184952Y-54160057D01*
X209184952Y-54160057D02*
X209137333Y-54255295D01*
X209137333Y-54255295D02*
X209137333Y-54350533D01*
X209137333Y-54350533D02*
X209184952Y-54445771D01*
X209184952Y-54445771D02*
X209232571Y-54493390D01*
X209232571Y-54493390D02*
X209327809Y-54541009D01*
X209327809Y-54541009D02*
X209661142Y-54541009D01*
X208232571Y-54064819D02*
X208423047Y-54064819D01*
X208423047Y-54064819D02*
X208518285Y-54112438D01*
X208518285Y-54112438D02*
X208565904Y-54160057D01*
X208565904Y-54160057D02*
X208661142Y-54302914D01*
X208661142Y-54302914D02*
X208708761Y-54493390D01*
X208708761Y-54493390D02*
X208708761Y-54874342D01*
X208708761Y-54874342D02*
X208661142Y-54969580D01*
X208661142Y-54969580D02*
X208613523Y-55017200D01*
X208613523Y-55017200D02*
X208518285Y-55064819D01*
X208518285Y-55064819D02*
X208327809Y-55064819D01*
X208327809Y-55064819D02*
X208232571Y-55017200D01*
X208232571Y-55017200D02*
X208184952Y-54969580D01*
X208184952Y-54969580D02*
X208137333Y-54874342D01*
X208137333Y-54874342D02*
X208137333Y-54636247D01*
X208137333Y-54636247D02*
X208184952Y-54541009D01*
X208184952Y-54541009D02*
X208232571Y-54493390D01*
X208232571Y-54493390D02*
X208327809Y-54445771D01*
X208327809Y-54445771D02*
X208518285Y-54445771D01*
X208518285Y-54445771D02*
X208613523Y-54493390D01*
X208613523Y-54493390D02*
X208661142Y-54541009D01*
X208661142Y-54541009D02*
X208708761Y-54636247D01*
X207708761Y-55064819D02*
X207708761Y-54064819D01*
X207708761Y-54064819D02*
X207375428Y-54779104D01*
X207375428Y-54779104D02*
X207042095Y-54064819D01*
X207042095Y-54064819D02*
X207042095Y-55064819D01*
X206613523Y-54160057D02*
X206565904Y-54112438D01*
X206565904Y-54112438D02*
X206470666Y-54064819D01*
X206470666Y-54064819D02*
X206232571Y-54064819D01*
X206232571Y-54064819D02*
X206137333Y-54112438D01*
X206137333Y-54112438D02*
X206089714Y-54160057D01*
X206089714Y-54160057D02*
X206042095Y-54255295D01*
X206042095Y-54255295D02*
X206042095Y-54350533D01*
X206042095Y-54350533D02*
X206089714Y-54493390D01*
X206089714Y-54493390D02*
X206661142Y-55064819D01*
X206661142Y-55064819D02*
X206042095Y-55064819D01*
X205042095Y-55064819D02*
X205375428Y-54588628D01*
X205613523Y-55064819D02*
X205613523Y-54064819D01*
X205613523Y-54064819D02*
X205232571Y-54064819D01*
X205232571Y-54064819D02*
X205137333Y-54112438D01*
X205137333Y-54112438D02*
X205089714Y-54160057D01*
X205089714Y-54160057D02*
X205042095Y-54255295D01*
X205042095Y-54255295D02*
X205042095Y-54398152D01*
X205042095Y-54398152D02*
X205089714Y-54493390D01*
X205089714Y-54493390D02*
X205137333Y-54541009D01*
X205137333Y-54541009D02*
X205232571Y-54588628D01*
X205232571Y-54588628D02*
X205613523Y-54588628D01*
X204613523Y-54541009D02*
X204280190Y-54541009D01*
X204137333Y-55064819D02*
X204613523Y-55064819D01*
X204613523Y-55064819D02*
X204613523Y-54064819D01*
X204613523Y-54064819D02*
X204137333Y-54064819D01*
X212121523Y-53493200D02*
X211978666Y-53540819D01*
X211978666Y-53540819D02*
X211740571Y-53540819D01*
X211740571Y-53540819D02*
X211645333Y-53493200D01*
X211645333Y-53493200D02*
X211597714Y-53445580D01*
X211597714Y-53445580D02*
X211550095Y-53350342D01*
X211550095Y-53350342D02*
X211550095Y-53255104D01*
X211550095Y-53255104D02*
X211597714Y-53159866D01*
X211597714Y-53159866D02*
X211645333Y-53112247D01*
X211645333Y-53112247D02*
X211740571Y-53064628D01*
X211740571Y-53064628D02*
X211931047Y-53017009D01*
X211931047Y-53017009D02*
X212026285Y-52969390D01*
X212026285Y-52969390D02*
X212073904Y-52921771D01*
X212073904Y-52921771D02*
X212121523Y-52826533D01*
X212121523Y-52826533D02*
X212121523Y-52731295D01*
X212121523Y-52731295D02*
X212073904Y-52636057D01*
X212073904Y-52636057D02*
X212026285Y-52588438D01*
X212026285Y-52588438D02*
X211931047Y-52540819D01*
X211931047Y-52540819D02*
X211692952Y-52540819D01*
X211692952Y-52540819D02*
X211550095Y-52588438D01*
X211216761Y-52540819D02*
X210978666Y-53540819D01*
X210978666Y-53540819D02*
X210788190Y-52826533D01*
X210788190Y-52826533D02*
X210597714Y-53540819D01*
X210597714Y-53540819D02*
X210359619Y-52540819D01*
X209454857Y-53540819D02*
X210026285Y-53540819D01*
X209740571Y-53540819D02*
X209740571Y-52540819D01*
X209740571Y-52540819D02*
X209835809Y-52683676D01*
X209835809Y-52683676D02*
X209931047Y-52778914D01*
X209931047Y-52778914D02*
X210026285Y-52826533D01*
X208550095Y-52540819D02*
X209026285Y-52540819D01*
X209026285Y-52540819D02*
X209073904Y-53017009D01*
X209073904Y-53017009D02*
X209026285Y-52969390D01*
X209026285Y-52969390D02*
X208931047Y-52921771D01*
X208931047Y-52921771D02*
X208692952Y-52921771D01*
X208692952Y-52921771D02*
X208597714Y-52969390D01*
X208597714Y-52969390D02*
X208550095Y-53017009D01*
X208550095Y-53017009D02*
X208502476Y-53112247D01*
X208502476Y-53112247D02*
X208502476Y-53350342D01*
X208502476Y-53350342D02*
X208550095Y-53445580D01*
X208550095Y-53445580D02*
X208597714Y-53493200D01*
X208597714Y-53493200D02*
X208692952Y-53540819D01*
X208692952Y-53540819D02*
X208931047Y-53540819D01*
X208931047Y-53540819D02*
X209026285Y-53493200D01*
X209026285Y-53493200D02*
X209073904Y-53445580D01*
%TO.C,J1*%
X334567080Y-164854760D02*
X334614700Y-164807141D01*
X334614700Y-164807141D02*
X334662319Y-164664284D01*
X334662319Y-164664284D02*
X334662319Y-164569046D01*
X334662319Y-164569046D02*
X334614700Y-164426189D01*
X334614700Y-164426189D02*
X334519461Y-164330951D01*
X334519461Y-164330951D02*
X334424223Y-164283332D01*
X334424223Y-164283332D02*
X334233747Y-164235713D01*
X334233747Y-164235713D02*
X334090890Y-164235713D01*
X334090890Y-164235713D02*
X333900414Y-164283332D01*
X333900414Y-164283332D02*
X333805176Y-164330951D01*
X333805176Y-164330951D02*
X333709938Y-164426189D01*
X333709938Y-164426189D02*
X333662319Y-164569046D01*
X333662319Y-164569046D02*
X333662319Y-164664284D01*
X333662319Y-164664284D02*
X333709938Y-164807141D01*
X333709938Y-164807141D02*
X333757557Y-164854760D01*
X334662319Y-165426189D02*
X334614700Y-165330951D01*
X334614700Y-165330951D02*
X334567080Y-165283332D01*
X334567080Y-165283332D02*
X334471842Y-165235713D01*
X334471842Y-165235713D02*
X334186128Y-165235713D01*
X334186128Y-165235713D02*
X334090890Y-165283332D01*
X334090890Y-165283332D02*
X334043271Y-165330951D01*
X334043271Y-165330951D02*
X333995652Y-165426189D01*
X333995652Y-165426189D02*
X333995652Y-165569046D01*
X333995652Y-165569046D02*
X334043271Y-165664284D01*
X334043271Y-165664284D02*
X334090890Y-165711903D01*
X334090890Y-165711903D02*
X334186128Y-165759522D01*
X334186128Y-165759522D02*
X334471842Y-165759522D01*
X334471842Y-165759522D02*
X334567080Y-165711903D01*
X334567080Y-165711903D02*
X334614700Y-165664284D01*
X334614700Y-165664284D02*
X334662319Y-165569046D01*
X334662319Y-165569046D02*
X334662319Y-165426189D01*
X333995652Y-166188094D02*
X334662319Y-166188094D01*
X334090890Y-166188094D02*
X334043271Y-166235713D01*
X334043271Y-166235713D02*
X333995652Y-166330951D01*
X333995652Y-166330951D02*
X333995652Y-166473808D01*
X333995652Y-166473808D02*
X334043271Y-166569046D01*
X334043271Y-166569046D02*
X334138509Y-166616665D01*
X334138509Y-166616665D02*
X334662319Y-166616665D01*
X333995652Y-167092856D02*
X334662319Y-167092856D01*
X334090890Y-167092856D02*
X334043271Y-167140475D01*
X334043271Y-167140475D02*
X333995652Y-167235713D01*
X333995652Y-167235713D02*
X333995652Y-167378570D01*
X333995652Y-167378570D02*
X334043271Y-167473808D01*
X334043271Y-167473808D02*
X334138509Y-167521427D01*
X334138509Y-167521427D02*
X334662319Y-167521427D01*
X334757557Y-167759523D02*
X334757557Y-168521427D01*
X333662319Y-168949999D02*
X333662319Y-169045237D01*
X333662319Y-169045237D02*
X333709938Y-169140475D01*
X333709938Y-169140475D02*
X333757557Y-169188094D01*
X333757557Y-169188094D02*
X333852795Y-169235713D01*
X333852795Y-169235713D02*
X334043271Y-169283332D01*
X334043271Y-169283332D02*
X334281366Y-169283332D01*
X334281366Y-169283332D02*
X334471842Y-169235713D01*
X334471842Y-169235713D02*
X334567080Y-169188094D01*
X334567080Y-169188094D02*
X334614700Y-169140475D01*
X334614700Y-169140475D02*
X334662319Y-169045237D01*
X334662319Y-169045237D02*
X334662319Y-168949999D01*
X334662319Y-168949999D02*
X334614700Y-168854761D01*
X334614700Y-168854761D02*
X334567080Y-168807142D01*
X334567080Y-168807142D02*
X334471842Y-168759523D01*
X334471842Y-168759523D02*
X334281366Y-168711904D01*
X334281366Y-168711904D02*
X334043271Y-168711904D01*
X334043271Y-168711904D02*
X333852795Y-168759523D01*
X333852795Y-168759523D02*
X333757557Y-168807142D01*
X333757557Y-168807142D02*
X333709938Y-168854761D01*
X333709938Y-168854761D02*
X333662319Y-168949999D01*
X334662319Y-170235713D02*
X334662319Y-169664285D01*
X334662319Y-169949999D02*
X333662319Y-169949999D01*
X333662319Y-169949999D02*
X333805176Y-169854761D01*
X333805176Y-169854761D02*
X333900414Y-169759523D01*
X333900414Y-169759523D02*
X333948033Y-169664285D01*
X334662319Y-170569047D02*
X333995652Y-171092856D01*
X333995652Y-170569047D02*
X334662319Y-171092856D01*
X333662319Y-171664285D02*
X333662319Y-171759523D01*
X333662319Y-171759523D02*
X333709938Y-171854761D01*
X333709938Y-171854761D02*
X333757557Y-171902380D01*
X333757557Y-171902380D02*
X333852795Y-171949999D01*
X333852795Y-171949999D02*
X334043271Y-171997618D01*
X334043271Y-171997618D02*
X334281366Y-171997618D01*
X334281366Y-171997618D02*
X334471842Y-171949999D01*
X334471842Y-171949999D02*
X334567080Y-171902380D01*
X334567080Y-171902380D02*
X334614700Y-171854761D01*
X334614700Y-171854761D02*
X334662319Y-171759523D01*
X334662319Y-171759523D02*
X334662319Y-171664285D01*
X334662319Y-171664285D02*
X334614700Y-171569047D01*
X334614700Y-171569047D02*
X334567080Y-171521428D01*
X334567080Y-171521428D02*
X334471842Y-171473809D01*
X334471842Y-171473809D02*
X334281366Y-171426190D01*
X334281366Y-171426190D02*
X334043271Y-171426190D01*
X334043271Y-171426190D02*
X333852795Y-171473809D01*
X333852795Y-171473809D02*
X333757557Y-171521428D01*
X333757557Y-171521428D02*
X333709938Y-171569047D01*
X333709938Y-171569047D02*
X333662319Y-171664285D01*
X333662319Y-172330952D02*
X333662319Y-172997618D01*
X333662319Y-172997618D02*
X334662319Y-172569047D01*
X334757557Y-173140476D02*
X334757557Y-173902380D01*
X334614700Y-174092857D02*
X334662319Y-174235714D01*
X334662319Y-174235714D02*
X334662319Y-174473809D01*
X334662319Y-174473809D02*
X334614700Y-174569047D01*
X334614700Y-174569047D02*
X334567080Y-174616666D01*
X334567080Y-174616666D02*
X334471842Y-174664285D01*
X334471842Y-174664285D02*
X334376604Y-174664285D01*
X334376604Y-174664285D02*
X334281366Y-174616666D01*
X334281366Y-174616666D02*
X334233747Y-174569047D01*
X334233747Y-174569047D02*
X334186128Y-174473809D01*
X334186128Y-174473809D02*
X334138509Y-174283333D01*
X334138509Y-174283333D02*
X334090890Y-174188095D01*
X334090890Y-174188095D02*
X334043271Y-174140476D01*
X334043271Y-174140476D02*
X333948033Y-174092857D01*
X333948033Y-174092857D02*
X333852795Y-174092857D01*
X333852795Y-174092857D02*
X333757557Y-174140476D01*
X333757557Y-174140476D02*
X333709938Y-174188095D01*
X333709938Y-174188095D02*
X333662319Y-174283333D01*
X333662319Y-174283333D02*
X333662319Y-174521428D01*
X333662319Y-174521428D02*
X333709938Y-174664285D01*
X334662319Y-175235714D02*
X334614700Y-175140476D01*
X334614700Y-175140476D02*
X334567080Y-175092857D01*
X334567080Y-175092857D02*
X334471842Y-175045238D01*
X334471842Y-175045238D02*
X334186128Y-175045238D01*
X334186128Y-175045238D02*
X334090890Y-175092857D01*
X334090890Y-175092857D02*
X334043271Y-175140476D01*
X334043271Y-175140476D02*
X333995652Y-175235714D01*
X333995652Y-175235714D02*
X333995652Y-175378571D01*
X333995652Y-175378571D02*
X334043271Y-175473809D01*
X334043271Y-175473809D02*
X334090890Y-175521428D01*
X334090890Y-175521428D02*
X334186128Y-175569047D01*
X334186128Y-175569047D02*
X334471842Y-175569047D01*
X334471842Y-175569047D02*
X334567080Y-175521428D01*
X334567080Y-175521428D02*
X334614700Y-175473809D01*
X334614700Y-175473809D02*
X334662319Y-175378571D01*
X334662319Y-175378571D02*
X334662319Y-175235714D01*
X334614700Y-176426190D02*
X334662319Y-176330952D01*
X334662319Y-176330952D02*
X334662319Y-176140476D01*
X334662319Y-176140476D02*
X334614700Y-176045238D01*
X334614700Y-176045238D02*
X334567080Y-175997619D01*
X334567080Y-175997619D02*
X334471842Y-175950000D01*
X334471842Y-175950000D02*
X334186128Y-175950000D01*
X334186128Y-175950000D02*
X334090890Y-175997619D01*
X334090890Y-175997619D02*
X334043271Y-176045238D01*
X334043271Y-176045238D02*
X333995652Y-176140476D01*
X333995652Y-176140476D02*
X333995652Y-176330952D01*
X333995652Y-176330952D02*
X334043271Y-176426190D01*
X334662319Y-176854762D02*
X333662319Y-176854762D01*
X334281366Y-176950000D02*
X334662319Y-177235714D01*
X333995652Y-177235714D02*
X334376604Y-176854762D01*
X334614700Y-178045238D02*
X334662319Y-177950000D01*
X334662319Y-177950000D02*
X334662319Y-177759524D01*
X334662319Y-177759524D02*
X334614700Y-177664286D01*
X334614700Y-177664286D02*
X334519461Y-177616667D01*
X334519461Y-177616667D02*
X334138509Y-177616667D01*
X334138509Y-177616667D02*
X334043271Y-177664286D01*
X334043271Y-177664286D02*
X333995652Y-177759524D01*
X333995652Y-177759524D02*
X333995652Y-177950000D01*
X333995652Y-177950000D02*
X334043271Y-178045238D01*
X334043271Y-178045238D02*
X334138509Y-178092857D01*
X334138509Y-178092857D02*
X334233747Y-178092857D01*
X334233747Y-178092857D02*
X334328985Y-177616667D01*
X333995652Y-178378572D02*
X333995652Y-178759524D01*
X333662319Y-178521429D02*
X334519461Y-178521429D01*
X334519461Y-178521429D02*
X334614700Y-178569048D01*
X334614700Y-178569048D02*
X334662319Y-178664286D01*
X334662319Y-178664286D02*
X334662319Y-178759524D01*
D11*
%TO.C,U1*%
X254500000Y-63225000D02*
X305500000Y-63225000D01*
X304200000Y-63225000D02*
X305500000Y-61925000D01*
X305500000Y-63225000D02*
X305500000Y-42225000D01*
X254500000Y-42225000D02*
X254500000Y-63225000D01*
X305500000Y-42225000D02*
X254500000Y-42225000D01*
%TO.C,U2*%
X370050000Y-42225000D02*
X319050000Y-42225000D01*
X320350000Y-42225000D02*
X319050000Y-43525000D01*
X319050000Y-42225000D02*
X319050000Y-63225000D01*
X370050000Y-63225000D02*
X370050000Y-42225000D01*
X319050000Y-63225000D02*
X370050000Y-63225000D01*
%TD*%
M02*
