M48
; DRILL file {KiCad 6.0.10-86aedd382b~118~ubuntu22.04.1} date fr. 27. jan. 2023 kl. 14.43 +0100
; FORMAT={-:-/ absolute / metric / decimal}
; #@! TF.CreationDate,2023-01-27T14:43:52+01:00
; #@! TF.GenerationSoftware,Kicad,Pcbnew,6.0.10-86aedd382b~118~ubuntu22.04.1
; #@! TF.FileFunction,Plated,1,2,PTH
FMAT,2
METRIC
; #@! TA.AperFunction,Plated,PTH,ViaDrill
T1C0.400
; #@! TA.AperFunction,Plated,PTH,ComponentDrill
T2C0.700
; #@! TA.AperFunction,Plated,PTH,ComponentDrill
T3C0.750
; #@! TA.AperFunction,Plated,PTH,ComponentDrill
T4C0.800
; #@! TA.AperFunction,Plated,PTH,ComponentDrill
T5C0.900
; #@! TA.AperFunction,Plated,PTH,ComponentDrill
T6C1.000
; #@! TA.AperFunction,Plated,PTH,ComponentDrill
T7C1.020
; #@! TA.AperFunction,Plated,PTH,ComponentDrill
T8C1.100
; #@! TA.AperFunction,Plated,PTH,ComponentDrill
T9C1.500
; #@! TA.AperFunction,Plated,PTH,ComponentDrill
T10C4.300
%
G90
G05
T1
X140.24Y-89.29
X145.39Y-89.69
X202.92Y-64.12
X220.01Y-105.2
X222.57Y-84.91
X255.13Y-132.79
X257.86Y-148.71
X265.246Y-87.504
X266.021Y-79.875
X268.128Y-79.875
X271.82Y-118.62
X273.73Y-93.71
X278.47Y-78.83
X279.59Y-93.22
X279.71Y-187.79
X281.43Y-97.46
X283.99Y-86.94
X291.48Y-72.08
X321.95Y-52.74
X323.72Y-74.49
X362.32Y-119.762
X363.2Y-92.29
X367.92Y-90.89
X367.951Y-65.296
X373.503Y-52.784
X373.96Y-50.57
X374.42Y-78.66
X374.997Y-55.725
X377.349Y-51.64
X379.59Y-55.53
X381.647Y-56.303
X384.8Y-85.59
X385.64Y-68.2
X391.53Y-107.79
X392.5Y-86.61
X406.27Y-135.76
X426.67Y-72.83
X446.72Y-52.95
T2
X107.92Y-56.0
X113.0Y-56.0
X136.92Y-56.0
X142.0Y-56.0
X165.92Y-56.0
X171.0Y-56.0
X193.92Y-56.0
X199.0Y-56.0
X298.46Y-82.5
X298.54Y-99.5
X303.54Y-82.5
X303.62Y-99.5
X320.01Y-82.5
X321.09Y-99.5
X325.09Y-82.5
X326.17Y-99.5
X425.47Y-54.0
X430.55Y-54.0
X454.47Y-54.0
X459.55Y-54.0
X484.55Y-54.0
X489.63Y-54.0
X513.01Y-54.0
X518.09Y-54.0
T3
X426.915Y-50.34
X429.455Y-50.34
X455.615Y-50.44
X458.155Y-50.44
X485.115Y-50.24
X487.655Y-50.24
X512.73Y-50.44
X515.27Y-50.44
T4
X106.38Y-142.0
X108.0Y-89.0
X108.0Y-118.0
X108.0Y-165.0
X108.0Y-188.0
X112.0Y-212.0
X114.0Y-142.0
X115.62Y-89.0
X115.62Y-118.0
X115.62Y-165.0
X115.62Y-188.0
X119.62Y-212.0
X135.38Y-89.0
X136.0Y-142.0
X136.0Y-188.0
X136.0Y-212.0
X137.0Y-118.0
X137.0Y-165.0
X143.0Y-89.0
X143.62Y-142.0
X143.62Y-188.0
X143.62Y-212.0
X144.62Y-118.0
X144.62Y-165.0
X160.0Y-183.0
X160.0Y-207.0
X160.19Y-138.0
X160.38Y-161.0
X161.0Y-113.0
X165.0Y-88.0
X167.62Y-183.0
X167.62Y-207.0
X167.81Y-138.0
X168.0Y-161.0
X168.62Y-113.0
X172.62Y-88.0
X183.38Y-111.0
X183.81Y-135.0
X184.0Y-159.0
X184.0Y-181.0
X184.0Y-205.0
X191.0Y-111.0
X191.43Y-135.0
X191.62Y-159.0
X191.62Y-181.0
X191.62Y-205.0
X194.0Y-87.0
X201.62Y-87.0
X207.38Y-161.0
X208.0Y-113.0
X208.0Y-137.0
X208.0Y-183.0
X208.0Y-207.0
X215.0Y-161.0
X215.62Y-113.0
X215.62Y-137.0
X215.62Y-183.0
X215.62Y-207.0
X221.0Y-87.0
X228.62Y-87.0
X231.38Y-163.0
X231.38Y-186.0
X232.0Y-114.0
X232.0Y-139.0
X239.0Y-163.0
X239.0Y-186.0
X239.62Y-114.0
X239.62Y-139.0
X246.38Y-203.0
X251.0Y-87.0
X254.0Y-203.0
X255.0Y-163.0
X255.38Y-115.0
X256.0Y-140.0
X256.0Y-186.0
X258.62Y-87.0
X262.62Y-163.0
X263.0Y-115.0
X263.62Y-140.0
X263.62Y-186.0
X267.38Y-216.0
X275.0Y-216.0
X278.0Y-193.0
X278.38Y-148.0
X278.38Y-182.0
X280.0Y-87.0
X280.0Y-116.0
X285.62Y-193.0
X286.0Y-148.0
X286.0Y-182.0
X286.0Y-226.0
X287.62Y-87.0
X287.62Y-116.0
X293.62Y-226.0
X332.55Y-227.0
X338.55Y-86.0
X338.55Y-115.0
X339.55Y-148.0
X339.55Y-181.0
X340.17Y-227.0
X340.93Y-195.0
X346.17Y-86.0
X346.17Y-115.0
X347.17Y-148.0
X347.17Y-181.0
X348.55Y-195.0
X353.55Y-215.0
X361.17Y-215.0
X361.93Y-162.0
X362.55Y-139.0
X362.93Y-115.0
X362.93Y-186.0
X367.55Y-86.0
X369.55Y-162.0
X370.17Y-139.0
X370.55Y-115.0
X370.55Y-186.0
X372.93Y-204.0
X375.17Y-86.0
X380.55Y-204.0
X386.55Y-138.0
X386.93Y-115.0
X386.93Y-162.0
X386.93Y-186.0
X394.17Y-138.0
X394.55Y-115.0
X394.55Y-162.0
X394.55Y-186.0
X396.55Y-86.0
X404.17Y-86.0
X409.93Y-112.0
X410.55Y-136.0
X410.55Y-183.0
X410.55Y-207.0
X410.93Y-160.0
X417.55Y-112.0
X418.17Y-136.0
X418.17Y-183.0
X418.17Y-207.0
X418.55Y-160.0
X423.93Y-86.0
X431.55Y-86.0
X433.93Y-110.0
X433.93Y-157.0
X433.93Y-205.0
X434.55Y-181.0
X434.93Y-134.0
X441.55Y-110.0
X441.55Y-157.0
X441.55Y-205.0
X442.17Y-181.0
X442.55Y-134.0
X452.93Y-86.0
X457.55Y-207.0
X457.93Y-115.0
X457.93Y-160.0
X458.55Y-138.0
X458.55Y-184.0
X460.55Y-86.0
X465.17Y-207.0
X465.55Y-115.0
X465.55Y-160.0
X466.17Y-138.0
X466.17Y-184.0
X481.55Y-188.0
X481.55Y-213.0
X481.93Y-86.0
X481.93Y-117.0
X481.93Y-141.0
X481.93Y-165.0
X489.17Y-188.0
X489.17Y-213.0
X489.55Y-86.0
X489.55Y-117.0
X489.55Y-141.0
X489.55Y-165.0
X505.93Y-212.0
X510.55Y-86.0
X510.55Y-165.0
X510.55Y-188.0
X510.93Y-117.0
X510.93Y-140.0
X513.55Y-212.0
X518.17Y-86.0
X518.17Y-165.0
X518.17Y-188.0
X518.55Y-117.0
X518.55Y-140.0
T5
X109.9Y-50.7
X112.44Y-50.7
X138.1Y-51.2
X140.64Y-51.2
X167.4Y-51.0
X169.94Y-51.0
X195.2Y-51.2
X197.74Y-51.2
T6
X223.92Y-53.0
X229.0Y-53.0
X397.01Y-53.0
X402.09Y-53.0
T7
X255.87Y-43.835
X255.87Y-61.615
X256.1Y-50.185
X256.1Y-52.725
X256.1Y-55.265
X258.41Y-43.835
X258.41Y-61.615
X260.95Y-43.835
X260.95Y-61.615
X263.49Y-43.835
X263.49Y-61.615
X266.03Y-43.835
X266.03Y-61.615
X268.57Y-43.835
X268.57Y-61.615
X271.11Y-43.835
X271.11Y-61.615
X273.65Y-43.835
X273.65Y-61.615
X276.19Y-43.835
X276.19Y-61.615
X278.73Y-43.835
X278.73Y-61.615
X281.27Y-43.835
X281.27Y-61.615
X283.81Y-43.835
X283.81Y-61.615
X286.35Y-43.835
X286.35Y-61.615
X288.89Y-43.835
X288.89Y-61.615
X291.43Y-43.835
X291.43Y-61.615
X293.97Y-43.835
X293.97Y-61.615
X296.51Y-43.835
X296.51Y-61.615
X299.05Y-43.835
X299.05Y-61.615
X301.59Y-43.835
X301.59Y-61.615
X304.13Y-43.835
X304.13Y-61.615
X320.42Y-43.835
X320.42Y-61.615
X322.96Y-43.835
X322.96Y-61.615
X325.5Y-43.835
X325.5Y-61.615
X328.04Y-43.835
X328.04Y-61.615
X330.58Y-43.835
X330.58Y-61.615
X333.12Y-43.835
X333.12Y-61.615
X335.66Y-43.835
X335.66Y-61.615
X338.2Y-43.835
X338.2Y-61.615
X340.74Y-43.835
X340.74Y-61.615
X343.28Y-43.835
X343.28Y-61.615
X345.82Y-43.835
X345.82Y-61.615
X348.36Y-43.835
X348.36Y-61.615
X350.9Y-43.835
X350.9Y-61.615
X353.44Y-43.835
X353.44Y-61.615
X355.98Y-43.835
X355.98Y-61.615
X358.52Y-43.835
X358.52Y-61.615
X361.06Y-43.835
X361.06Y-61.615
X363.6Y-43.835
X363.6Y-61.615
X366.14Y-43.835
X366.14Y-61.615
X368.45Y-50.185
X368.45Y-52.725
X368.45Y-55.265
X368.68Y-43.835
X368.68Y-61.615
T8
X297.57Y-90.63
X300.67Y-95.83
X305.67Y-87.43
X305.67Y-96.73
X318.975Y-87.75
X318.975Y-97.05
X323.975Y-88.65
X327.075Y-93.85
T9
X107.39Y-73.06
X107.49Y-175.56
X107.59Y-104.06
X107.59Y-151.76
X107.79Y-127.96
X112.29Y-199.46
X113.74Y-70.52
X113.84Y-173.02
X113.94Y-101.52
X113.94Y-149.22
X114.14Y-125.42
X118.64Y-196.92
X135.99Y-73.16
X135.99Y-199.36
X136.09Y-127.96
X136.19Y-104.26
X136.19Y-175.36
X136.49Y-151.66
X142.34Y-70.62
X142.34Y-196.82
X142.44Y-125.42
X142.54Y-101.72
X142.54Y-172.82
X142.84Y-149.12
X159.89Y-123.26
X159.89Y-170.76
X159.99Y-194.56
X160.09Y-146.96
X160.19Y-99.46
X164.79Y-73.16
X166.24Y-120.72
X166.24Y-168.22
X166.34Y-192.02
X166.44Y-144.42
X166.54Y-96.92
X171.14Y-70.62
X183.69Y-144.56
X183.69Y-168.26
X183.69Y-192.26
X183.79Y-96.86
X183.79Y-120.66
X190.04Y-142.02
X190.04Y-165.72
X190.04Y-189.72
X190.14Y-94.32
X190.14Y-118.12
X193.39Y-73.06
X199.74Y-70.52
X207.39Y-146.96
X207.59Y-123.16
X207.59Y-170.86
X207.69Y-99.36
X207.69Y-194.66
X213.74Y-144.42
X213.94Y-120.62
X213.94Y-168.32
X214.04Y-96.82
X214.04Y-192.12
X222.09Y-72.96
X228.44Y-70.42
X231.19Y-173.16
X231.29Y-101.56
X231.29Y-149.26
X231.49Y-125.46
X237.54Y-170.62
X237.64Y-99.02
X237.64Y-146.72
X237.84Y-122.92
X242.81Y-209.815
X249.58Y-210.791
X250.29Y-73.26
X255.09Y-149.36
X255.19Y-125.46
X255.29Y-101.66
X255.29Y-173.16
X256.64Y-70.72
X261.44Y-146.82
X261.54Y-122.92
X261.64Y-99.12
X261.64Y-170.62
X263.51Y-221.615
X270.28Y-222.591
X275.31Y-201.015
X277.74Y-134.92
X277.96Y-168.18
X278.99Y-73.16
X278.99Y-101.66
X280.28Y-141.27
X280.5Y-174.53
X282.08Y-201.991
X284.11Y-233.715
X285.34Y-70.62
X285.34Y-99.12
X290.88Y-234.691
X336.2Y-237.365
X337.37Y-135.16
X337.47Y-168.46
X338.32Y-73.3
X338.52Y-101.8
X339.91Y-141.51
X340.01Y-174.81
X340.43Y-231.991
X344.67Y-70.76
X344.8Y-204.735
X344.87Y-99.26
X349.03Y-199.36
X356.9Y-225.465
X361.13Y-220.091
X362.32Y-149.5
X362.42Y-101.7
X362.52Y-173.2
X362.62Y-125.7
X367.12Y-73.2
X368.67Y-146.96
X368.77Y-99.16
X368.87Y-170.66
X368.97Y-123.16
X373.47Y-70.66
X377.5Y-213.465
X381.73Y-208.091
X386.22Y-101.9
X386.22Y-125.6
X386.32Y-149.4
X386.32Y-173.0
X392.57Y-99.36
X392.57Y-123.06
X392.67Y-146.86
X392.67Y-170.46
X395.72Y-73.3
X402.07Y-70.76
X410.02Y-170.9
X410.12Y-99.5
X410.12Y-194.7
X410.22Y-123.2
X410.22Y-147.2
X416.37Y-168.36
X416.47Y-96.96
X416.47Y-192.16
X416.57Y-120.66
X416.57Y-144.66
X424.26Y-73.32
X430.61Y-70.78
X433.72Y-97.2
X433.88Y-168.42
X433.92Y-144.8
X434.02Y-121.0
X434.02Y-192.1
X440.07Y-94.66
X440.23Y-165.88
X440.27Y-142.26
X440.37Y-118.46
X440.37Y-189.56
X452.92Y-73.4
X457.52Y-194.8
X457.72Y-125.6
X457.82Y-101.8
X457.82Y-147.1
X458.12Y-171.0
X459.27Y-70.86
X463.87Y-192.26
X464.07Y-123.06
X464.17Y-99.26
X464.17Y-144.56
X464.47Y-168.46
X481.32Y-151.8
X481.32Y-199.6
X481.42Y-104.3
X481.42Y-175.5
X481.52Y-73.2
X481.62Y-128.1
X487.67Y-149.26
X487.67Y-197.06
X487.77Y-101.76
X487.77Y-172.96
X487.87Y-70.66
X487.97Y-125.56
X505.22Y-199.7
X510.02Y-151.9
X510.12Y-104.2
X510.12Y-128.0
X510.22Y-73.3
X510.32Y-175.6
X511.57Y-197.16
X516.37Y-149.36
X516.47Y-101.66
X516.47Y-125.46
X516.57Y-70.76
X516.67Y-173.06
T10
X92.1Y-146.1
X92.1Y-255.9
X92.2Y-34.1
X197.5Y-255.9
X197.6Y-34.1
X300.9Y-145.9
X301.3Y-255.7
X302.75Y-32.6
X322.0Y-32.65
X323.55Y-146.0
X323.85Y-255.9
X426.5Y-257.35
X426.55Y-32.65
X529.8Y-145.95
X529.85Y-32.6
X529.85Y-257.35
T0
M30
