%TF.GenerationSoftware,KiCad,Pcbnew,7.0.5-4d25ed1034~172~ubuntu22.04.1*%
%TF.CreationDate,2023-06-17T05:02:15+02:00*%
%TF.ProjectId,Europe-ergo,4575726f-7065-42d6-9572-676f2e6b6963,rev?*%
%TF.SameCoordinates,Original*%
%TF.FileFunction,Soldermask,Bot*%
%TF.FilePolarity,Negative*%
%FSLAX46Y46*%
G04 Gerber Fmt 4.6, Leading zero omitted, Abs format (unit mm)*
G04 Created by KiCad (PCBNEW 7.0.5-4d25ed1034~172~ubuntu22.04.1) date 2023-06-17 05:02:15*
%MOMM*%
%LPD*%
G01*
G04 APERTURE LIST*
%ADD10R,1.600000X1.600000*%
%ADD11O,1.600000X1.600000*%
%ADD12C,7.500000*%
%ADD13C,1.700000*%
%ADD14C,4.000000*%
%ADD15C,2.200000*%
%ADD16R,1.500000X1.500000*%
%ADD17O,1.500000X1.500000*%
%ADD18C,1.400000*%
%ADD19O,1.400000X1.400000*%
%ADD20R,1.800000X1.800000*%
%ADD21O,1.800000X1.800000*%
%ADD22C,6.000000*%
%ADD23C,4.500000*%
%ADD24O,1.700000X1.700000*%
%ADD25R,1.700000X3.500000*%
%ADD26R,1.700000X1.700000*%
%ADD27R,3.500000X1.700000*%
G04 APERTURE END LIST*
D10*
%TO.C,D85*%
X426860000Y-171760000D03*
D11*
X434480000Y-171760000D03*
%TD*%
D10*
%TO.C,D90*%
X153190000Y-192000000D03*
D11*
X160810000Y-192000000D03*
%TD*%
D10*
%TO.C,D92*%
X267380000Y-192000000D03*
D11*
X275000000Y-192000000D03*
%TD*%
D12*
%TO.C,H13*%
X302750000Y-32600000D03*
%TD*%
D10*
%TO.C,D3*%
X193400000Y-84000000D03*
D11*
X201020000Y-84000000D03*
%TD*%
D10*
%TO.C,D22*%
X192360000Y-105600000D03*
D11*
X199980000Y-105600000D03*
%TD*%
D13*
%TO.C,SW41*%
X343900000Y-128700000D03*
D14*
X343900000Y-123620000D03*
D13*
X343900000Y-118540000D03*
D15*
X338820000Y-121080000D03*
X341360000Y-127430000D03*
%TD*%
D13*
%TO.C,SW64*%
X151340000Y-162280000D03*
D14*
X156420000Y-162280000D03*
D13*
X161500000Y-162280000D03*
D15*
X158960000Y-157200000D03*
X152610000Y-159740000D03*
%TD*%
D13*
%TO.C,SW48*%
X492775000Y-120880000D03*
D14*
X497855000Y-120880000D03*
D13*
X502935000Y-120880000D03*
D15*
X500395000Y-115800000D03*
X494045000Y-118340000D03*
%TD*%
D10*
%TO.C,D95*%
X353550000Y-191000000D03*
D11*
X361170000Y-191000000D03*
%TD*%
D10*
%TO.C,D94*%
X335190000Y-202000000D03*
D11*
X342810000Y-202000000D03*
%TD*%
D12*
%TO.C,H6*%
X521000000Y-32600000D03*
%TD*%
D16*
%TO.C,D42*%
X512730000Y-50440000D03*
D17*
X515270000Y-50440000D03*
%TD*%
D13*
%TO.C,SW45*%
X424920000Y-118880000D03*
D14*
X430000000Y-118880000D03*
D13*
X435080000Y-118880000D03*
D15*
X432540000Y-113800000D03*
X426190000Y-116340000D03*
%TD*%
D13*
%TO.C,SW76*%
X403920000Y-161960000D03*
D14*
X409000000Y-161960000D03*
D13*
X414080000Y-161960000D03*
D15*
X411540000Y-156880000D03*
X405190000Y-159420000D03*
%TD*%
D10*
%TO.C,D55*%
X405520000Y-128360000D03*
D11*
X413140000Y-128360000D03*
%TD*%
D10*
%TO.C,D72*%
X152960000Y-171380000D03*
D11*
X160580000Y-171380000D03*
%TD*%
D13*
%TO.C,SW83*%
X172920000Y-183500000D03*
D14*
X178000000Y-183500000D03*
D13*
X183080000Y-183500000D03*
D15*
X180540000Y-178420000D03*
X174190000Y-180960000D03*
%TD*%
D10*
%TO.C,D44*%
X341000000Y-132920000D03*
D11*
X348620000Y-132920000D03*
%TD*%
D13*
%TO.C,SW62*%
X492675000Y-141800000D03*
D14*
X497755000Y-141800000D03*
D13*
X502835000Y-141800000D03*
D15*
X500295000Y-136720000D03*
X493945000Y-139260000D03*
%TD*%
D18*
%TO.C,R2*%
X136920000Y-56000000D03*
D19*
X142000000Y-56000000D03*
%TD*%
D13*
%TO.C,SW47*%
X466920000Y-121840000D03*
D14*
X472000000Y-121840000D03*
D13*
X477080000Y-121840000D03*
D15*
X474540000Y-116760000D03*
X468190000Y-119300000D03*
%TD*%
D12*
%TO.C,H5*%
X100900000Y-228000000D03*
%TD*%
D13*
%TO.C,SW91*%
X375600586Y-193540009D03*
D14*
X379999995Y-191000009D03*
D13*
X384399405Y-188460009D03*
D15*
X379659700Y-185330600D03*
X375430439Y-190705305D03*
%TD*%
D13*
%TO.C,SW75*%
X382920000Y-161800000D03*
D14*
X388000000Y-161800000D03*
D13*
X393080000Y-161800000D03*
D15*
X390540000Y-156720000D03*
X384190000Y-159260000D03*
%TD*%
D12*
%TO.C,H1*%
X100500000Y-34000000D03*
%TD*%
D18*
%TO.C,R14*%
X298450000Y-139260000D03*
D19*
X303530000Y-139260000D03*
%TD*%
D13*
%TO.C,SW40*%
X283000000Y-128080000D03*
D14*
X283000000Y-123000000D03*
D13*
X283000000Y-117920000D03*
D15*
X277920000Y-120460000D03*
X280460000Y-126810000D03*
%TD*%
D10*
%TO.C,D34*%
X151400000Y-130000000D03*
D11*
X159020000Y-130000000D03*
%TD*%
D13*
%TO.C,SW61*%
X465920000Y-143380000D03*
D14*
X471000000Y-143380000D03*
D13*
X476080000Y-143380000D03*
D15*
X473540000Y-138300000D03*
X467190000Y-140840000D03*
%TD*%
D18*
%TO.C,R3*%
X171000000Y-56000000D03*
D19*
X165920000Y-56000000D03*
%TD*%
D10*
%TO.C,D49*%
X173690000Y-129800000D03*
D11*
X181310000Y-129800000D03*
%TD*%
D13*
%TO.C,SW13*%
X443920000Y-76000000D03*
D14*
X449000000Y-76000000D03*
D13*
X454080000Y-76000000D03*
D15*
X451540000Y-70920000D03*
X445190000Y-73460000D03*
%TD*%
D13*
%TO.C,SW39*%
X256840000Y-118000000D03*
D14*
X261920000Y-118000000D03*
D13*
X267000000Y-118000000D03*
D15*
X264460000Y-112920000D03*
X258110000Y-115460000D03*
%TD*%
D13*
%TO.C,SW36*%
X193340000Y-118000000D03*
D14*
X198420000Y-118000000D03*
D13*
X203500000Y-118000000D03*
D15*
X200960000Y-112920000D03*
X194610000Y-115460000D03*
%TD*%
D12*
%TO.C,H16*%
X427400000Y-229450000D03*
%TD*%
D10*
%TO.C,D83*%
X384800000Y-171260000D03*
D11*
X392420000Y-171260000D03*
%TD*%
D10*
%TO.C,D102*%
X195660000Y-189800000D03*
D11*
X203280000Y-189800000D03*
%TD*%
D10*
%TO.C,D5*%
X279380000Y-84000000D03*
D11*
X287000000Y-84000000D03*
%TD*%
D13*
%TO.C,SW29*%
X422590000Y-96610000D03*
D14*
X427670000Y-96610000D03*
D13*
X432750000Y-96610000D03*
D15*
X430210000Y-91530000D03*
X423860000Y-94070000D03*
%TD*%
D10*
%TO.C,D65*%
X195510000Y-147900000D03*
D11*
X203130000Y-147900000D03*
%TD*%
D13*
%TO.C,SW58*%
X402730000Y-140840000D03*
D14*
X407810000Y-140840000D03*
D13*
X412890000Y-140840000D03*
D15*
X410350000Y-135760000D03*
X404000000Y-138300000D03*
%TD*%
D13*
%TO.C,SW60*%
X444920000Y-139040000D03*
D14*
X450000000Y-139040000D03*
D13*
X455080000Y-139040000D03*
D15*
X452540000Y-133960000D03*
X446190000Y-136500000D03*
%TD*%
D10*
%TO.C,D99*%
X174200000Y-191900000D03*
D11*
X181820000Y-191900000D03*
%TD*%
D13*
%TO.C,SW84*%
X194200000Y-181400000D03*
D14*
X199280000Y-181400000D03*
D13*
X204360000Y-181400000D03*
D15*
X201820000Y-176320000D03*
X195470000Y-178860000D03*
%TD*%
D12*
%TO.C,H2*%
X521000000Y-229450000D03*
%TD*%
D13*
%TO.C,SW6*%
X255920000Y-75800000D03*
D14*
X261000000Y-75800000D03*
D13*
X266080000Y-75800000D03*
D15*
X263540000Y-70720000D03*
X257190000Y-73260000D03*
%TD*%
D10*
%TO.C,D50*%
X362550000Y-129840000D03*
D11*
X370170000Y-129840000D03*
%TD*%
D20*
%TO.C,D38*%
X223520000Y-50800000D03*
D21*
X226060000Y-50800000D03*
%TD*%
D13*
%TO.C,SW50*%
X151350000Y-141300000D03*
D14*
X156430000Y-141300000D03*
D13*
X161510000Y-141300000D03*
D15*
X158970000Y-136220000D03*
X152620000Y-138760000D03*
%TD*%
D10*
%TO.C,D48*%
X258920000Y-128000000D03*
D11*
X266540000Y-128000000D03*
%TD*%
D13*
%TO.C,SW46*%
X445920000Y-118980000D03*
D14*
X451000000Y-118980000D03*
D13*
X456080000Y-118980000D03*
D15*
X453540000Y-113900000D03*
X447190000Y-116440000D03*
%TD*%
D10*
%TO.C,D16*%
X153380000Y-112000000D03*
D11*
X161000000Y-112000000D03*
%TD*%
D10*
%TO.C,D80*%
X195700000Y-168180000D03*
D11*
X203320000Y-168180000D03*
%TD*%
D18*
%TO.C,R6*%
X425470000Y-54000000D03*
D19*
X430550000Y-54000000D03*
%TD*%
D13*
%TO.C,SW96*%
X488990000Y-185080000D03*
D14*
X494070000Y-185080000D03*
D13*
X499150000Y-185080000D03*
D15*
X496610000Y-180000000D03*
X490260000Y-182540000D03*
%TD*%
D10*
%TO.C,D93*%
X283889600Y-200284700D03*
D11*
X291509600Y-200284700D03*
%TD*%
D10*
%TO.C,D23*%
X214300000Y-105140000D03*
D11*
X221920000Y-105140000D03*
%TD*%
D13*
%TO.C,SW44*%
X403920000Y-118100000D03*
D14*
X409000000Y-118100000D03*
D13*
X414080000Y-118100000D03*
D15*
X411540000Y-113020000D03*
X405190000Y-115560000D03*
%TD*%
D10*
%TO.C,D18*%
X339410000Y-106005000D03*
D11*
X347030000Y-106005000D03*
%TD*%
D13*
%TO.C,SW34*%
X150220000Y-120500000D03*
D14*
X155300000Y-120500000D03*
D13*
X160380000Y-120500000D03*
D15*
X157840000Y-115420000D03*
X151490000Y-117960000D03*
%TD*%
D13*
%TO.C,SW22*%
X234320000Y-96900000D03*
D14*
X239400000Y-96900000D03*
D13*
X244480000Y-96900000D03*
D15*
X241940000Y-91820000D03*
X235590000Y-94360000D03*
%TD*%
D13*
%TO.C,SW18*%
X149920000Y-99800000D03*
D14*
X155000000Y-99800000D03*
D13*
X160080000Y-99800000D03*
D15*
X157540000Y-94720000D03*
X151190000Y-97260000D03*
%TD*%
D10*
%TO.C,D57*%
X127410000Y-149100000D03*
D11*
X135030000Y-149100000D03*
%TD*%
D13*
%TO.C,SW80*%
X492975000Y-162800000D03*
D14*
X498055000Y-162800000D03*
D13*
X503135000Y-162800000D03*
D15*
X500595000Y-157720000D03*
X494245000Y-160260000D03*
%TD*%
D13*
%TO.C,SW17*%
X123880000Y-99600000D03*
D14*
X128960000Y-99600000D03*
D13*
X134040000Y-99600000D03*
D15*
X131500000Y-94520000D03*
X125150000Y-97060000D03*
%TD*%
D10*
%TO.C,D59*%
X467190000Y-152040000D03*
D11*
X474810000Y-152040000D03*
%TD*%
D13*
%TO.C,SW2*%
X170180000Y-75700000D03*
D14*
X175260000Y-75700000D03*
D13*
X180340000Y-75700000D03*
D15*
X177800000Y-70620000D03*
X171450000Y-73160000D03*
%TD*%
D10*
%TO.C,D62*%
X237390000Y-147100000D03*
D11*
X245010000Y-147100000D03*
%TD*%
D10*
%TO.C,D88*%
X362520000Y-170525000D03*
D11*
X370140000Y-170525000D03*
%TD*%
D13*
%TO.C,SW42*%
X361350000Y-119080000D03*
D14*
X366430000Y-119080000D03*
D13*
X371510000Y-119080000D03*
D15*
X368970000Y-114000000D03*
X362620000Y-116540000D03*
%TD*%
D10*
%TO.C,D47*%
X237540000Y-127000000D03*
D11*
X245160000Y-127000000D03*
%TD*%
D10*
%TO.C,D15*%
X127110000Y-112000000D03*
D11*
X134730000Y-112000000D03*
%TD*%
D10*
%TO.C,D71*%
X127700000Y-171380000D03*
D11*
X135320000Y-171380000D03*
%TD*%
D18*
%TO.C,R8*%
X489630000Y-54000000D03*
D19*
X484550000Y-54000000D03*
%TD*%
D10*
%TO.C,D52*%
X194630000Y-126800000D03*
D11*
X202250000Y-126800000D03*
%TD*%
D13*
%TO.C,SW9*%
X357920000Y-75740000D03*
D14*
X363000000Y-75740000D03*
D13*
X368080000Y-75740000D03*
D15*
X365540000Y-70660000D03*
X359190000Y-73200000D03*
%TD*%
D10*
%TO.C,D20*%
X494045000Y-108065000D03*
D11*
X501665000Y-108065000D03*
%TD*%
D13*
%TO.C,SW19*%
X170730000Y-99540000D03*
D14*
X175810000Y-99540000D03*
D13*
X180890000Y-99540000D03*
D15*
X178350000Y-94460000D03*
X172000000Y-97000000D03*
%TD*%
D12*
%TO.C,H10*%
X322000000Y-32650000D03*
%TD*%
D10*
%TO.C,D66*%
X361930000Y-151040000D03*
D11*
X369550000Y-151040000D03*
%TD*%
D10*
%TO.C,D67*%
X383800000Y-151040000D03*
D11*
X391420000Y-151040000D03*
%TD*%
D10*
%TO.C,D104*%
X426170000Y-191000000D03*
D11*
X433790000Y-191000000D03*
%TD*%
D13*
%TO.C,SW70*%
X283180000Y-159080000D03*
D14*
X283180000Y-154000000D03*
D13*
X283180000Y-148920000D03*
D15*
X278100000Y-151460000D03*
X280640000Y-157810000D03*
%TD*%
D10*
%TO.C,D73*%
X278520000Y-164280000D03*
D11*
X286140000Y-164280000D03*
%TD*%
D10*
%TO.C,D86*%
X447620000Y-170260000D03*
D11*
X455240000Y-170260000D03*
%TD*%
D13*
%TO.C,SW11*%
X401000000Y-75860000D03*
D14*
X406080000Y-75860000D03*
D13*
X411160000Y-75860000D03*
D15*
X408620000Y-70780000D03*
X402270000Y-73320000D03*
%TD*%
D10*
%TO.C,D28*%
X401860000Y-105225000D03*
D11*
X409480000Y-105225000D03*
%TD*%
D18*
%TO.C,R1*%
X107920000Y-56000000D03*
D19*
X113000000Y-56000000D03*
%TD*%
D13*
%TO.C,SW89*%
X339010586Y-215200009D03*
D14*
X343409995Y-212660009D03*
D13*
X347809405Y-210120009D03*
D15*
X343069700Y-206990600D03*
X338840439Y-212365305D03*
%TD*%
D16*
%TO.C,D40*%
X455614700Y-50440000D03*
D17*
X458154700Y-50440000D03*
%TD*%
D13*
%TO.C,SW94*%
X445990000Y-181180000D03*
D14*
X451070000Y-181180000D03*
D13*
X456150000Y-181180000D03*
D15*
X453610000Y-176100000D03*
X447260000Y-178640000D03*
%TD*%
D10*
%TO.C,D30*%
X444860000Y-105740000D03*
D11*
X452480000Y-105740000D03*
%TD*%
D13*
%TO.C,SW1*%
X148380000Y-75600000D03*
D14*
X153460000Y-75600000D03*
D13*
X158540000Y-75600000D03*
D15*
X156000000Y-70520000D03*
X149650000Y-73060000D03*
%TD*%
D12*
%TO.C,H8*%
X426550000Y-32650000D03*
%TD*%
D13*
%TO.C,SW53*%
X214760000Y-138940000D03*
D14*
X219840000Y-138940000D03*
D13*
X224920000Y-138940000D03*
D15*
X222380000Y-133860000D03*
X216030000Y-136400000D03*
%TD*%
D13*
%TO.C,SW56*%
X361050000Y-141080000D03*
D14*
X366130000Y-141080000D03*
D13*
X371210000Y-141080000D03*
D15*
X368670000Y-136000000D03*
X362320000Y-138540000D03*
%TD*%
D10*
%TO.C,D60*%
X493945000Y-150205000D03*
D11*
X501565000Y-150205000D03*
%TD*%
D13*
%TO.C,SW72*%
X346600586Y-186540009D03*
D14*
X350999995Y-184000009D03*
D13*
X355399405Y-181460009D03*
D15*
X350659700Y-178330600D03*
X346430439Y-183705305D03*
%TD*%
D13*
%TO.C,SW78*%
X445920000Y-159800000D03*
D14*
X451000000Y-159800000D03*
D13*
X456080000Y-159800000D03*
D15*
X453540000Y-154720000D03*
X447190000Y-157260000D03*
%TD*%
D10*
%TO.C,D63*%
X258190000Y-147100000D03*
D11*
X265810000Y-147100000D03*
%TD*%
D10*
%TO.C,D51*%
X384520000Y-128700000D03*
D11*
X392140000Y-128700000D03*
%TD*%
D13*
%TO.C,SW77*%
X424920000Y-161720000D03*
D14*
X430000000Y-161720000D03*
D13*
X435080000Y-161720000D03*
D15*
X432540000Y-156640000D03*
X426190000Y-159180000D03*
%TD*%
D13*
%TO.C,SW28*%
X401590000Y-97000000D03*
D14*
X406670000Y-97000000D03*
D13*
X411750000Y-97000000D03*
D15*
X409210000Y-91920000D03*
X402860000Y-94460000D03*
%TD*%
D10*
%TO.C,D13*%
X381000000Y-84000000D03*
D11*
X388620000Y-84000000D03*
%TD*%
D20*
%TO.C,D32*%
X138100000Y-51200000D03*
D21*
X140640000Y-51200000D03*
%TD*%
D13*
%TO.C,SW95*%
X466990000Y-185080000D03*
D14*
X472070000Y-185080000D03*
D13*
X477150000Y-185080000D03*
D15*
X474610000Y-180000000D03*
X468260000Y-182540000D03*
%TD*%
D13*
%TO.C,SW3*%
X191380000Y-75700000D03*
D14*
X196460000Y-75700000D03*
D13*
X201540000Y-75700000D03*
D15*
X199000000Y-70620000D03*
X192650000Y-73160000D03*
%TD*%
D10*
%TO.C,D78*%
X494475000Y-172660000D03*
D11*
X502095000Y-172660000D03*
%TD*%
D10*
%TO.C,D12*%
X234380000Y-84000000D03*
D11*
X242000000Y-84000000D03*
%TD*%
D10*
%TO.C,D2*%
X173000000Y-84000000D03*
D11*
X180620000Y-84000000D03*
%TD*%
D13*
%TO.C,SW7*%
X277720000Y-75700000D03*
D14*
X282800000Y-75700000D03*
D13*
X287880000Y-75700000D03*
D15*
X285340000Y-70620000D03*
X278990000Y-73160000D03*
%TD*%
D13*
%TO.C,SW55*%
X256920000Y-139000000D03*
D14*
X262000000Y-139000000D03*
D13*
X267080000Y-139000000D03*
D15*
X264540000Y-133920000D03*
X258190000Y-136460000D03*
%TD*%
D18*
%TO.C,R9*%
X513010000Y-54000000D03*
D19*
X518090000Y-54000000D03*
%TD*%
D10*
%TO.C,D87*%
X258280000Y-168380000D03*
D11*
X265900000Y-168380000D03*
%TD*%
D10*
%TO.C,D53*%
X216140000Y-127340000D03*
D11*
X223760000Y-127340000D03*
%TD*%
D13*
%TO.C,SW57*%
X381920000Y-140980000D03*
D14*
X387000000Y-140980000D03*
D13*
X392080000Y-140980000D03*
D15*
X389540000Y-135900000D03*
X383190000Y-138440000D03*
%TD*%
D18*
%TO.C,R11*%
X326390000Y-142240000D03*
D19*
X321310000Y-142240000D03*
%TD*%
D12*
%TO.C,H15*%
X302200000Y-227800000D03*
%TD*%
%TO.C,H9*%
X300900000Y-128800000D03*
%TD*%
D10*
%TO.C,D46*%
X494855000Y-128800000D03*
D11*
X502475000Y-128800000D03*
%TD*%
D10*
%TO.C,D4*%
X257380000Y-84000000D03*
D11*
X265000000Y-84000000D03*
%TD*%
D12*
%TO.C,H7*%
X100500000Y-129000000D03*
%TD*%
D10*
%TO.C,D101*%
X447290000Y-190000000D03*
D11*
X454910000Y-190000000D03*
%TD*%
D10*
%TO.C,D68*%
X404710000Y-151100000D03*
D11*
X412330000Y-151100000D03*
%TD*%
D12*
%TO.C,H4*%
X521000000Y-129000000D03*
%TD*%
D10*
%TO.C,D82*%
X237380000Y-168380000D03*
D11*
X245000000Y-168380000D03*
%TD*%
D13*
%TO.C,SW14*%
X464920000Y-75840000D03*
D14*
X470000000Y-75840000D03*
D13*
X475080000Y-75840000D03*
D15*
X472540000Y-70760000D03*
X466190000Y-73300000D03*
%TD*%
D10*
%TO.C,D19*%
X465560000Y-108005000D03*
D11*
X473180000Y-108005000D03*
%TD*%
D13*
%TO.C,SW52*%
X193840000Y-139000000D03*
D14*
X198920000Y-139000000D03*
D13*
X204000000Y-139000000D03*
D15*
X201460000Y-133920000D03*
X195110000Y-136460000D03*
%TD*%
D10*
%TO.C,D7*%
X466520000Y-84000000D03*
D11*
X474140000Y-84000000D03*
%TD*%
D10*
%TO.C,D69*%
X425200000Y-150540000D03*
D11*
X432820000Y-150540000D03*
%TD*%
D10*
%TO.C,D75*%
X342560000Y-173970600D03*
D11*
X350180000Y-173970600D03*
%TD*%
D16*
%TO.C,D39*%
X426914700Y-50340000D03*
D17*
X429454700Y-50340000D03*
%TD*%
D13*
%TO.C,SW71*%
X271600586Y-181460009D03*
D14*
X275999995Y-184000009D03*
D13*
X280399405Y-186540009D03*
D15*
X280739700Y-180870600D03*
X273970439Y-179895305D03*
%TD*%
D13*
%TO.C,SW67*%
X214920000Y-160120000D03*
D14*
X220000000Y-160120000D03*
D13*
X225080000Y-160120000D03*
D15*
X222540000Y-155040000D03*
X216190000Y-157580000D03*
%TD*%
D13*
%TO.C,SW49*%
X124380000Y-141400000D03*
D14*
X129460000Y-141400000D03*
D13*
X134540000Y-141400000D03*
D15*
X132000000Y-136320000D03*
X125650000Y-138860000D03*
%TD*%
D13*
%TO.C,SW21*%
X213220000Y-97040000D03*
D14*
X218300000Y-97040000D03*
D13*
X223380000Y-97040000D03*
D15*
X220840000Y-91960000D03*
X214490000Y-94500000D03*
%TD*%
D13*
%TO.C,SW82*%
X151920000Y-183580000D03*
D14*
X157000000Y-183580000D03*
D13*
X162080000Y-183580000D03*
D15*
X159540000Y-178500000D03*
X153190000Y-181040000D03*
%TD*%
D12*
%TO.C,H14*%
X324750000Y-228000000D03*
%TD*%
D10*
%TO.C,D77*%
X468320000Y-173220000D03*
D11*
X475940000Y-173220000D03*
%TD*%
D10*
%TO.C,D79*%
X174390000Y-171180000D03*
D11*
X182010000Y-171180000D03*
%TD*%
D13*
%TO.C,SW27*%
X380590000Y-96740000D03*
D14*
X385670000Y-96740000D03*
D13*
X390750000Y-96740000D03*
D15*
X388210000Y-91660000D03*
X381860000Y-94200000D03*
%TD*%
D20*
%TO.C,D31*%
X109900000Y-50700000D03*
D21*
X112440000Y-50700000D03*
%TD*%
D18*
%TO.C,R7*%
X459550000Y-54000000D03*
D19*
X454470000Y-54000000D03*
%TD*%
D10*
%TO.C,D91*%
X249000000Y-180250000D03*
D11*
X256620000Y-180250000D03*
%TD*%
D18*
%TO.C,R4*%
X199000000Y-56000000D03*
D19*
X193920000Y-56000000D03*
%TD*%
D10*
%TO.C,D56*%
X427100000Y-129340000D03*
D11*
X434720000Y-129340000D03*
%TD*%
D18*
%TO.C,R13*%
X298540000Y-142240000D03*
D19*
X303620000Y-142240000D03*
%TD*%
D13*
%TO.C,SW32*%
X492775000Y-99540000D03*
D14*
X497855000Y-99540000D03*
D13*
X502935000Y-99540000D03*
D15*
X500395000Y-94460000D03*
X494045000Y-97000000D03*
%TD*%
D13*
%TO.C,SW79*%
X466920000Y-163260000D03*
D14*
X472000000Y-163260000D03*
D13*
X477080000Y-163260000D03*
D15*
X474540000Y-158180000D03*
X468190000Y-160720000D03*
%TD*%
D10*
%TO.C,D89*%
X131360000Y-192000000D03*
D11*
X138980000Y-192000000D03*
%TD*%
D13*
%TO.C,SW66*%
X193580000Y-159980000D03*
D14*
X198660000Y-159980000D03*
D13*
X203740000Y-159980000D03*
D15*
X201200000Y-154900000D03*
X194850000Y-157440000D03*
%TD*%
D13*
%TO.C,SW63*%
X124380000Y-162480000D03*
D14*
X129460000Y-162480000D03*
D13*
X134540000Y-162480000D03*
D15*
X132000000Y-157400000D03*
X125650000Y-159940000D03*
%TD*%
D18*
%TO.C,R12*%
X321310000Y-139700000D03*
D19*
X326390000Y-139700000D03*
%TD*%
D13*
%TO.C,SW90*%
X357070586Y-204300009D03*
D14*
X361469995Y-201760009D03*
D13*
X365869405Y-199220009D03*
D15*
X361129700Y-196090600D03*
X356900439Y-201465305D03*
%TD*%
D13*
%TO.C,SW92*%
X403920000Y-183340000D03*
D14*
X409000000Y-183340000D03*
D13*
X414080000Y-183340000D03*
D15*
X411540000Y-178260000D03*
X405190000Y-180800000D03*
%TD*%
D20*
%TO.C,D43*%
X398780000Y-49530000D03*
D21*
X401320000Y-49530000D03*
%TD*%
D13*
%TO.C,SW87*%
X261140586Y-199180009D03*
D14*
X265539995Y-201720009D03*
D13*
X269939405Y-204260009D03*
D15*
X270279700Y-198590600D03*
X263510439Y-197615305D03*
%TD*%
D10*
%TO.C,D81*%
X216190000Y-168720000D03*
D11*
X223810000Y-168720000D03*
%TD*%
D13*
%TO.C,SW4*%
X212920000Y-75600000D03*
D14*
X218000000Y-75600000D03*
D13*
X223080000Y-75600000D03*
D15*
X220540000Y-70520000D03*
X214190000Y-73060000D03*
%TD*%
D13*
%TO.C,SW37*%
X214460000Y-118040000D03*
D14*
X219540000Y-118040000D03*
D13*
X224620000Y-118040000D03*
D15*
X222080000Y-112960000D03*
X215730000Y-115500000D03*
%TD*%
D13*
%TO.C,SW33*%
X124240000Y-120500000D03*
D14*
X129320000Y-120500000D03*
D13*
X134400000Y-120500000D03*
D15*
X131860000Y-115420000D03*
X125510000Y-117960000D03*
%TD*%
D13*
%TO.C,SW51*%
X172530000Y-141400000D03*
D14*
X177610000Y-141400000D03*
D13*
X182690000Y-141400000D03*
D15*
X180150000Y-136320000D03*
X173800000Y-138860000D03*
%TD*%
D13*
%TO.C,SW5*%
X233920000Y-75500000D03*
D14*
X239000000Y-75500000D03*
D13*
X244080000Y-75500000D03*
D15*
X241540000Y-70420000D03*
X235190000Y-72960000D03*
%TD*%
D10*
%TO.C,D14*%
X401390000Y-84000000D03*
D11*
X409010000Y-84000000D03*
%TD*%
D10*
%TO.C,D61*%
X216110000Y-147440000D03*
D11*
X223730000Y-147440000D03*
%TD*%
D13*
%TO.C,SW12*%
X422920000Y-75940000D03*
D14*
X428000000Y-75940000D03*
D13*
X433080000Y-75940000D03*
D15*
X430540000Y-70860000D03*
X424190000Y-73400000D03*
%TD*%
D10*
%TO.C,D96*%
X370860000Y-181240000D03*
D11*
X378480000Y-181240000D03*
%TD*%
D10*
%TO.C,D35*%
X278560000Y-132540000D03*
D11*
X286180000Y-132540000D03*
%TD*%
D12*
%TO.C,H11*%
X198400000Y-228000000D03*
%TD*%
D13*
%TO.C,SW31*%
X464590000Y-99080000D03*
D14*
X469670000Y-99080000D03*
D13*
X474750000Y-99080000D03*
D15*
X472210000Y-94000000D03*
X465860000Y-96540000D03*
%TD*%
D10*
%TO.C,D27*%
X381760000Y-105565000D03*
D11*
X389380000Y-105565000D03*
%TD*%
D12*
%TO.C,H12*%
X323550000Y-128900000D03*
%TD*%
D10*
%TO.C,D45*%
X468500000Y-132200000D03*
D11*
X476120000Y-132200000D03*
%TD*%
D13*
%TO.C,SW43*%
X382920000Y-118840000D03*
D14*
X388000000Y-118840000D03*
D13*
X393080000Y-118840000D03*
D15*
X390540000Y-113760000D03*
X384190000Y-116300000D03*
%TD*%
D10*
%TO.C,D33*%
X125100000Y-130000000D03*
D11*
X132720000Y-130000000D03*
%TD*%
D10*
%TO.C,D100*%
X216500000Y-189340000D03*
D11*
X224120000Y-189340000D03*
%TD*%
D10*
%TO.C,D11*%
X214800000Y-84000000D03*
D11*
X222420000Y-84000000D03*
%TD*%
D13*
%TO.C,SW85*%
X214920000Y-181340000D03*
D14*
X220000000Y-181340000D03*
D13*
X225080000Y-181340000D03*
D15*
X222540000Y-176260000D03*
X216190000Y-178800000D03*
%TD*%
D10*
%TO.C,D8*%
X338550000Y-84000000D03*
D11*
X346170000Y-84000000D03*
%TD*%
D10*
%TO.C,D26*%
X360560000Y-106005000D03*
D11*
X368180000Y-106005000D03*
%TD*%
D20*
%TO.C,D37*%
X195200000Y-51200000D03*
D21*
X197740000Y-51200000D03*
%TD*%
D13*
%TO.C,SW8*%
X337050000Y-75840000D03*
D14*
X342130000Y-75840000D03*
D13*
X347210000Y-75840000D03*
D15*
X344670000Y-70760000D03*
X338320000Y-73300000D03*
%TD*%
D10*
%TO.C,D17*%
X278080000Y-105800000D03*
D11*
X285700000Y-105800000D03*
%TD*%
D10*
%TO.C,D9*%
X359190000Y-84000000D03*
D11*
X366810000Y-84000000D03*
%TD*%
D13*
%TO.C,SW10*%
X379260000Y-75840000D03*
D14*
X384340000Y-75840000D03*
D13*
X389420000Y-75840000D03*
D15*
X386880000Y-70760000D03*
X380530000Y-73300000D03*
%TD*%
D10*
%TO.C,D64*%
X174180000Y-149900000D03*
D11*
X181800000Y-149900000D03*
%TD*%
D10*
%TO.C,D97*%
X468490000Y-194000000D03*
D11*
X476110000Y-194000000D03*
%TD*%
D13*
%TO.C,SW68*%
X235920000Y-160080000D03*
D14*
X241000000Y-160080000D03*
D13*
X246080000Y-160080000D03*
D15*
X243540000Y-155000000D03*
X237190000Y-157540000D03*
%TD*%
D13*
%TO.C,SW26*%
X359590000Y-96980000D03*
D14*
X364670000Y-96980000D03*
D13*
X369750000Y-96980000D03*
D15*
X367210000Y-91900000D03*
X360860000Y-94440000D03*
%TD*%
D13*
%TO.C,SW24*%
X277920000Y-97000000D03*
D14*
X283000000Y-97000000D03*
D13*
X288080000Y-97000000D03*
D15*
X285540000Y-91920000D03*
X279190000Y-94460000D03*
%TD*%
D10*
%TO.C,D70*%
X446190000Y-148565000D03*
D11*
X453810000Y-148565000D03*
%TD*%
D10*
%TO.C,D76*%
X340640000Y-163000000D03*
D11*
X348260000Y-163000000D03*
%TD*%
D13*
%TO.C,SW38*%
X235760000Y-118000000D03*
D14*
X240840000Y-118000000D03*
D13*
X245920000Y-118000000D03*
D15*
X243380000Y-112920000D03*
X237030000Y-115460000D03*
%TD*%
D18*
%TO.C,R5*%
X223520000Y-45720000D03*
D19*
X228600000Y-45720000D03*
%TD*%
D13*
%TO.C,SW35*%
X171730000Y-120540000D03*
D14*
X176810000Y-120540000D03*
D13*
X181890000Y-120540000D03*
D15*
X179350000Y-115460000D03*
X173000000Y-118000000D03*
%TD*%
D13*
%TO.C,SW81*%
X130380000Y-183680000D03*
D14*
X135460000Y-183680000D03*
D13*
X140540000Y-183680000D03*
D15*
X138000000Y-178600000D03*
X131650000Y-181140000D03*
%TD*%
D12*
%TO.C,H3*%
X197600000Y-34100000D03*
%TD*%
D10*
%TO.C,D21*%
X172900000Y-108600000D03*
D11*
X180520000Y-108600000D03*
%TD*%
D10*
%TO.C,D58*%
X153220000Y-149100000D03*
D11*
X160840000Y-149100000D03*
%TD*%
D13*
%TO.C,SW20*%
X192000000Y-97000000D03*
D14*
X197080000Y-97000000D03*
D13*
X202160000Y-97000000D03*
D15*
X199620000Y-91920000D03*
X193270000Y-94460000D03*
%TD*%
D10*
%TO.C,D103*%
X405620000Y-192000000D03*
D11*
X413240000Y-192000000D03*
%TD*%
D13*
%TO.C,SW88*%
X279630186Y-209564709D03*
D14*
X284029595Y-212104709D03*
D13*
X288429005Y-214644709D03*
D15*
X288769300Y-208975300D03*
X282000039Y-208000005D03*
%TD*%
D10*
%TO.C,D98*%
X490970000Y-193000000D03*
D11*
X498590000Y-193000000D03*
%TD*%
D13*
%TO.C,SW86*%
X243060586Y-188630009D03*
D14*
X247459995Y-191170009D03*
D13*
X251859405Y-193710009D03*
D15*
X252199700Y-188040600D03*
X245430439Y-187065305D03*
%TD*%
D13*
%TO.C,SW23*%
X255420000Y-97000000D03*
D14*
X260500000Y-97000000D03*
D13*
X265580000Y-97000000D03*
D15*
X263040000Y-91920000D03*
X256690000Y-94460000D03*
%TD*%
D13*
%TO.C,SW73*%
X344000000Y-159080000D03*
D14*
X344000000Y-154000000D03*
D13*
X344000000Y-148920000D03*
D15*
X338920000Y-151460000D03*
X341460000Y-157810000D03*
%TD*%
D13*
%TO.C,SW54*%
X235940000Y-138900000D03*
D14*
X241020000Y-138900000D03*
D13*
X246100000Y-138900000D03*
D15*
X243560000Y-133820000D03*
X237210000Y-136360000D03*
%TD*%
D13*
%TO.C,SW69*%
X256920000Y-160080000D03*
D14*
X262000000Y-160080000D03*
D13*
X267080000Y-160080000D03*
D15*
X264540000Y-155000000D03*
X258190000Y-157540000D03*
%TD*%
D10*
%TO.C,D54*%
X448020000Y-128840000D03*
D11*
X455640000Y-128840000D03*
%TD*%
D10*
%TO.C,D10*%
X424650000Y-84000000D03*
D11*
X432270000Y-84000000D03*
%TD*%
D13*
%TO.C,SW74*%
X361250000Y-162000000D03*
D14*
X366330000Y-162000000D03*
D13*
X371410000Y-162000000D03*
D15*
X368870000Y-156920000D03*
X362520000Y-159460000D03*
%TD*%
D10*
%TO.C,D29*%
X423260000Y-105505000D03*
D11*
X430880000Y-105505000D03*
%TD*%
D10*
%TO.C,D25*%
X256280000Y-105800000D03*
D11*
X263900000Y-105800000D03*
%TD*%
D13*
%TO.C,SW93*%
X424990000Y-182980000D03*
D14*
X430070000Y-182980000D03*
D13*
X435150000Y-182980000D03*
D15*
X432610000Y-177900000D03*
X426260000Y-180440000D03*
%TD*%
D10*
%TO.C,D1*%
X151380000Y-84000000D03*
D11*
X159000000Y-84000000D03*
%TD*%
D10*
%TO.C,D24*%
X235800000Y-105800000D03*
D11*
X243420000Y-105800000D03*
%TD*%
D13*
%TO.C,SW65*%
X172580000Y-162480000D03*
D14*
X177660000Y-162480000D03*
D13*
X182740000Y-162480000D03*
D15*
X180200000Y-157400000D03*
X173850000Y-159940000D03*
%TD*%
D10*
%TO.C,D6*%
X445050000Y-84260000D03*
D11*
X452670000Y-84260000D03*
%TD*%
D10*
%TO.C,D74*%
X276660000Y-171880000D03*
D11*
X284280000Y-171880000D03*
%TD*%
D20*
%TO.C,D36*%
X167400000Y-51000000D03*
D21*
X169940000Y-51000000D03*
%TD*%
D13*
%TO.C,SW30*%
X443590000Y-97080000D03*
D14*
X448670000Y-97080000D03*
D13*
X453750000Y-97080000D03*
D15*
X451210000Y-92000000D03*
X444860000Y-94540000D03*
%TD*%
D16*
%TO.C,D41*%
X485114700Y-50240000D03*
D17*
X487654700Y-50240000D03*
%TD*%
D10*
%TO.C,D84*%
X405720000Y-171520000D03*
D11*
X413340000Y-171520000D03*
%TD*%
D13*
%TO.C,SW59*%
X423920000Y-140880000D03*
D14*
X429000000Y-140880000D03*
D13*
X434080000Y-140880000D03*
D15*
X431540000Y-135800000D03*
X425190000Y-138340000D03*
%TD*%
D18*
%TO.C,R10*%
X397510000Y-44450000D03*
D19*
X402590000Y-44450000D03*
%TD*%
D13*
%TO.C,SW25*%
X338920000Y-97080000D03*
D14*
X344000000Y-97080000D03*
D13*
X349080000Y-97080000D03*
D15*
X346540000Y-92000000D03*
X340190000Y-94540000D03*
%TD*%
D22*
%TO.C,J2*%
X297180000Y-156970000D03*
X297180000Y-163830000D03*
X297180000Y-170690000D03*
X297180000Y-177550000D03*
X297180000Y-184410000D03*
D23*
X299710000Y-147930000D03*
X299710000Y-194970000D03*
%TD*%
D13*
%TO.C,SW16*%
X410210000Y-49530000D03*
X415290000Y-49530000D03*
%TD*%
D21*
%TO.C,U1*%
X304000000Y-55450000D03*
D17*
X300970000Y-55150000D03*
X300970000Y-50300000D03*
D21*
X304000000Y-50000000D03*
D24*
X304130000Y-61615000D03*
D25*
X304130000Y-62515000D03*
D24*
X301590000Y-61615000D03*
D25*
X301590000Y-62515000D03*
D26*
X299050000Y-61615000D03*
D25*
X299050000Y-62515000D03*
D24*
X296510000Y-61615000D03*
D25*
X296510000Y-62515000D03*
D24*
X293970000Y-61615000D03*
D25*
X293970000Y-62515000D03*
D24*
X291430000Y-61615000D03*
D25*
X291430000Y-62515000D03*
D24*
X288890000Y-61615000D03*
D25*
X288890000Y-62515000D03*
D26*
X286350000Y-61615000D03*
D25*
X286350000Y-62515000D03*
D24*
X283810000Y-61615000D03*
D25*
X283810000Y-62515000D03*
D24*
X281270000Y-61615000D03*
D25*
X281270000Y-62515000D03*
D24*
X278730000Y-61615000D03*
D25*
X278730000Y-62515000D03*
D24*
X276190000Y-61615000D03*
D25*
X276190000Y-62515000D03*
D26*
X273650000Y-61615000D03*
D25*
X273650000Y-62515000D03*
D24*
X271110000Y-61615000D03*
D25*
X271110000Y-62515000D03*
D24*
X268570000Y-61615000D03*
D25*
X268570000Y-62515000D03*
D24*
X266030000Y-61615000D03*
D25*
X266030000Y-62515000D03*
D24*
X263490000Y-61615000D03*
D25*
X263490000Y-62515000D03*
D26*
X260950000Y-61615000D03*
D25*
X260950000Y-62515000D03*
D24*
X258410000Y-61615000D03*
D25*
X258410000Y-62515000D03*
D24*
X255870000Y-61615000D03*
D25*
X255870000Y-62515000D03*
D24*
X255870000Y-43835000D03*
D25*
X255870000Y-42935000D03*
D24*
X258410000Y-43835000D03*
D25*
X258410000Y-42935000D03*
D26*
X260950000Y-43835000D03*
D25*
X260950000Y-42935000D03*
D24*
X263490000Y-43835000D03*
D25*
X263490000Y-42935000D03*
D24*
X266030000Y-43835000D03*
D25*
X266030000Y-42935000D03*
D24*
X268570000Y-43835000D03*
D25*
X268570000Y-42935000D03*
D24*
X271110000Y-43835000D03*
D25*
X271110000Y-42935000D03*
D26*
X273650000Y-43835000D03*
D25*
X273650000Y-42935000D03*
D24*
X276190000Y-43835000D03*
D25*
X276190000Y-42935000D03*
D24*
X278730000Y-43835000D03*
D25*
X278730000Y-42935000D03*
D24*
X281270000Y-43835000D03*
D25*
X281270000Y-42935000D03*
D24*
X283810000Y-43835000D03*
D25*
X283810000Y-42935000D03*
D26*
X286350000Y-43835000D03*
D25*
X286350000Y-42935000D03*
D24*
X288890000Y-43835000D03*
D25*
X288890000Y-42935000D03*
D24*
X291430000Y-43835000D03*
D25*
X291430000Y-42935000D03*
D24*
X293970000Y-43835000D03*
D25*
X293970000Y-42935000D03*
D24*
X296510000Y-43835000D03*
D25*
X296510000Y-42935000D03*
D26*
X299050000Y-43835000D03*
D25*
X299050000Y-42935000D03*
D24*
X301590000Y-43835000D03*
D25*
X301590000Y-42935000D03*
D24*
X304130000Y-43835000D03*
D25*
X304130000Y-42935000D03*
D24*
X256100000Y-55265000D03*
D27*
X255200000Y-55265000D03*
D26*
X256100000Y-52725000D03*
D27*
X255200000Y-52725000D03*
D24*
X256100000Y-50185000D03*
D27*
X255200000Y-50185000D03*
%TD*%
D21*
%TO.C,U2*%
X320550000Y-50000000D03*
D17*
X323580000Y-50300000D03*
X323580000Y-55150000D03*
D21*
X320550000Y-55450000D03*
D24*
X320420000Y-43835000D03*
D25*
X320420000Y-42935000D03*
D24*
X322960000Y-43835000D03*
D25*
X322960000Y-42935000D03*
D26*
X325500000Y-43835000D03*
D25*
X325500000Y-42935000D03*
D24*
X328040000Y-43835000D03*
D25*
X328040000Y-42935000D03*
D24*
X330580000Y-43835000D03*
D25*
X330580000Y-42935000D03*
D24*
X333120000Y-43835000D03*
D25*
X333120000Y-42935000D03*
D24*
X335660000Y-43835000D03*
D25*
X335660000Y-42935000D03*
D26*
X338200000Y-43835000D03*
D25*
X338200000Y-42935000D03*
D24*
X340740000Y-43835000D03*
D25*
X340740000Y-42935000D03*
D24*
X343280000Y-43835000D03*
D25*
X343280000Y-42935000D03*
D24*
X345820000Y-43835000D03*
D25*
X345820000Y-42935000D03*
D24*
X348360000Y-43835000D03*
D25*
X348360000Y-42935000D03*
D26*
X350900000Y-43835000D03*
D25*
X350900000Y-42935000D03*
D24*
X353440000Y-43835000D03*
D25*
X353440000Y-42935000D03*
D24*
X355980000Y-43835000D03*
D25*
X355980000Y-42935000D03*
D24*
X358520000Y-43835000D03*
D25*
X358520000Y-42935000D03*
D24*
X361060000Y-43835000D03*
D25*
X361060000Y-42935000D03*
D26*
X363600000Y-43835000D03*
D25*
X363600000Y-42935000D03*
D24*
X366140000Y-43835000D03*
D25*
X366140000Y-42935000D03*
D24*
X368680000Y-43835000D03*
D25*
X368680000Y-42935000D03*
D24*
X368680000Y-61615000D03*
D25*
X368680000Y-62515000D03*
D24*
X366140000Y-61615000D03*
D25*
X366140000Y-62515000D03*
D26*
X363600000Y-61615000D03*
D25*
X363600000Y-62515000D03*
D24*
X361060000Y-61615000D03*
D25*
X361060000Y-62515000D03*
D24*
X358520000Y-61615000D03*
D25*
X358520000Y-62515000D03*
D24*
X355980000Y-61615000D03*
D25*
X355980000Y-62515000D03*
D24*
X353440000Y-61615000D03*
D25*
X353440000Y-62515000D03*
D26*
X350900000Y-61615000D03*
D25*
X350900000Y-62515000D03*
D24*
X348360000Y-61615000D03*
D25*
X348360000Y-62515000D03*
D24*
X345820000Y-61615000D03*
D25*
X345820000Y-62515000D03*
D24*
X343280000Y-61615000D03*
D25*
X343280000Y-62515000D03*
D24*
X340740000Y-61615000D03*
D25*
X340740000Y-62515000D03*
D26*
X338200000Y-61615000D03*
D25*
X338200000Y-62515000D03*
D24*
X335660000Y-61615000D03*
D25*
X335660000Y-62515000D03*
D24*
X333120000Y-61615000D03*
D25*
X333120000Y-62515000D03*
D24*
X330580000Y-61615000D03*
D25*
X330580000Y-62515000D03*
D24*
X328040000Y-61615000D03*
D25*
X328040000Y-62515000D03*
D26*
X325500000Y-61615000D03*
D25*
X325500000Y-62515000D03*
D24*
X322960000Y-61615000D03*
D25*
X322960000Y-62515000D03*
D24*
X320420000Y-61615000D03*
D25*
X320420000Y-62515000D03*
D24*
X368450000Y-50185000D03*
D27*
X369350000Y-50185000D03*
D26*
X368450000Y-52725000D03*
D27*
X369350000Y-52725000D03*
D24*
X368450000Y-55265000D03*
D27*
X369350000Y-55265000D03*
%TD*%
D13*
%TO.C,SW15*%
X213360000Y-50800000D03*
X208280000Y-50800000D03*
%TD*%
D22*
%TO.C,J1*%
X329707500Y-185930000D03*
X329707500Y-179070000D03*
X329707500Y-172210000D03*
X329707500Y-165350000D03*
X329707500Y-158490000D03*
D23*
X327177500Y-194970000D03*
X327177500Y-147930000D03*
%TD*%
M02*
