%TF.GenerationSoftware,KiCad,Pcbnew,6.0.11-2627ca5db0~126~ubuntu22.04.1*%
%TF.CreationDate,2023-02-17T11:48:26+01:00*%
%TF.ProjectId,Europe-ergo,4575726f-7065-42d6-9572-676f2e6b6963,rev?*%
%TF.SameCoordinates,Original*%
%TF.FileFunction,Drillmap*%
%TF.FilePolarity,Positive*%
%FSLAX45Y45*%
G04 Gerber Fmt 4.5, Leading zero omitted, Abs format (unit mm)*
G04 Created by KiCad (PCBNEW 6.0.11-2627ca5db0~126~ubuntu22.04.1) date 2023-02-17 11:48:26*
%MOMM*%
%LPD*%
G01*
G04 APERTURE LIST*
%ADD10C,0.100000*%
%ADD11C,0.200000*%
%ADD12C,0.110000*%
%ADD13C,0.150000*%
%ADD14C,0.170000*%
%ADD15C,0.180000*%
%ADD16C,0.400000*%
G04 APERTURE END LIST*
D10*
X30857000Y-8388000D02*
X30850000Y-3125000D01*
X31607500Y-8340000D02*
X31605000Y-3125000D01*
X31345000Y-22685000D02*
X31745000Y-22685000D01*
X8500000Y-2700000D02*
X30850000Y-2700000D01*
X53645000Y-23510000D02*
X53700000Y-2700000D01*
X8590000Y-23510000D02*
X8500000Y-2700000D01*
X31345000Y-22685000D02*
X30900000Y-22685000D01*
X31605000Y-3125000D02*
X30850000Y-3125000D01*
X53700000Y-2700000D02*
X30850000Y-2700000D01*
X30990000Y-23510000D02*
X53645000Y-23510000D01*
X30857000Y-10108000D02*
X30900000Y-22685000D01*
X31607500Y-10060000D02*
X31745000Y-22685000D01*
X30990000Y-23510000D02*
X8590000Y-23510000D01*
D11*
D12*
X30012000Y-9168000D02*
X30122000Y-9278000D01*
X30122000Y-9168000D02*
X30012000Y-9278000D01*
X30512000Y-9168000D02*
X30622000Y-9278000D01*
X30622000Y-9168000D02*
X30512000Y-9278000D01*
X31842500Y-9170000D02*
X31952500Y-9280000D01*
X31952500Y-9170000D02*
X31842500Y-9280000D01*
X32342500Y-9170000D02*
X32452500Y-9280000D01*
X32452500Y-9170000D02*
X32342500Y-9280000D01*
D13*
X30172000Y-5030000D02*
G75*
G03*
X30172000Y-5030000I-75000J0D01*
G01*
X30172000Y-5515000D02*
G75*
G03*
X30172000Y-5515000I-75000J0D01*
G01*
X32433000Y-5030000D02*
G75*
G03*
X32433000Y-5030000I-75000J0D01*
G01*
X32433000Y-5515000D02*
G75*
G03*
X32433000Y-5515000I-75000J0D01*
G01*
D14*
X12392000Y-9875000D02*
X12392000Y-10045000D01*
X12307000Y-9960000D02*
X12477000Y-9960000D01*
X12424000Y-11965000D02*
X12424000Y-12135000D01*
X12339000Y-12050000D02*
X12509000Y-12050000D01*
X12551000Y-14055000D02*
X12551000Y-14225000D01*
X12466000Y-14140000D02*
X12636000Y-14140000D01*
X12592000Y-16163000D02*
X12592000Y-16333000D01*
X12507000Y-16248000D02*
X12677000Y-16248000D01*
X13038000Y-18283000D02*
X13038000Y-18453000D01*
X12953000Y-18368000D02*
X13123000Y-18368000D01*
X13408000Y-9875000D02*
X13408000Y-10045000D01*
X13323000Y-9960000D02*
X13493000Y-9960000D01*
X13440000Y-11965000D02*
X13440000Y-12135000D01*
X13355000Y-12050000D02*
X13525000Y-12050000D01*
X13567000Y-14055000D02*
X13567000Y-14225000D01*
X13482000Y-14140000D02*
X13652000Y-14140000D01*
X13608000Y-16163000D02*
X13608000Y-16333000D01*
X13523000Y-16248000D02*
X13693000Y-16248000D01*
X14054000Y-18283000D02*
X14054000Y-18453000D01*
X13969000Y-18368000D02*
X14139000Y-18368000D01*
X14992000Y-7475000D02*
X14992000Y-7645000D01*
X14907000Y-7560000D02*
X15077000Y-7560000D01*
X15000000Y-9895000D02*
X15000000Y-10065000D01*
X14915000Y-9980000D02*
X15085000Y-9980000D01*
X15022000Y-11965000D02*
X15022000Y-12135000D01*
X14937000Y-12050000D02*
X15107000Y-12050000D01*
X15135000Y-14045000D02*
X15135000Y-14215000D01*
X15050000Y-14130000D02*
X15220000Y-14130000D01*
X15188000Y-16143000D02*
X15188000Y-16313000D01*
X15103000Y-16228000D02*
X15273000Y-16228000D01*
X15192000Y-18273000D02*
X15192000Y-18443000D01*
X15107000Y-18358000D02*
X15277000Y-18358000D01*
X16008000Y-7475000D02*
X16008000Y-7645000D01*
X15923000Y-7560000D02*
X16093000Y-7560000D01*
X16016000Y-9895000D02*
X16016000Y-10065000D01*
X15931000Y-9980000D02*
X16101000Y-9980000D01*
X16038000Y-11965000D02*
X16038000Y-12135000D01*
X15953000Y-12050000D02*
X16123000Y-12050000D01*
X16151000Y-14045000D02*
X16151000Y-14215000D01*
X16066000Y-14130000D02*
X16236000Y-14130000D01*
X16204000Y-16143000D02*
X16204000Y-16313000D01*
X16119000Y-16228000D02*
X16289000Y-16228000D01*
X16208000Y-18273000D02*
X16208000Y-18443000D01*
X16123000Y-18358000D02*
X16293000Y-18358000D01*
X17054000Y-9395000D02*
X17054000Y-9565000D01*
X16969000Y-9480000D02*
X17139000Y-9480000D01*
X17072000Y-7485000D02*
X17072000Y-7655000D01*
X16987000Y-7570000D02*
X17157000Y-7570000D01*
X17184000Y-11495000D02*
X17184000Y-11665000D01*
X17099000Y-11580000D02*
X17269000Y-11580000D01*
X17225000Y-13575000D02*
X17225000Y-13745000D01*
X17140000Y-13660000D02*
X17310000Y-13660000D01*
X17284000Y-15683000D02*
X17284000Y-15853000D01*
X17199000Y-15768000D02*
X17369000Y-15768000D01*
X17292000Y-17975000D02*
X17292000Y-18145000D01*
X17207000Y-18060000D02*
X17377000Y-18060000D01*
X18070000Y-9395000D02*
X18070000Y-9565000D01*
X17985000Y-9480000D02*
X18155000Y-9480000D01*
X18088000Y-7485000D02*
X18088000Y-7655000D01*
X18003000Y-7570000D02*
X18173000Y-7570000D01*
X18200000Y-11495000D02*
X18200000Y-11665000D01*
X18115000Y-11580000D02*
X18285000Y-11580000D01*
X18241000Y-13575000D02*
X18241000Y-13745000D01*
X18156000Y-13660000D02*
X18326000Y-13660000D01*
X18300000Y-15683000D02*
X18300000Y-15853000D01*
X18215000Y-15768000D02*
X18385000Y-15768000D01*
X18308000Y-17975000D02*
X18308000Y-18145000D01*
X18223000Y-18060000D02*
X18393000Y-18060000D01*
X19122000Y-9135000D02*
X19122000Y-9305000D01*
X19037000Y-9220000D02*
X19207000Y-9220000D01*
X19192000Y-7485000D02*
X19192000Y-7655000D01*
X19107000Y-7570000D02*
X19277000Y-7570000D01*
X19306000Y-11235000D02*
X19306000Y-11405000D01*
X19221000Y-11320000D02*
X19391000Y-11320000D01*
X19356000Y-13335000D02*
X19356000Y-13505000D01*
X19271000Y-13420000D02*
X19441000Y-13420000D01*
X19384000Y-15433000D02*
X19384000Y-15603000D01*
X19299000Y-15518000D02*
X19469000Y-15518000D01*
X19392000Y-17575000D02*
X19392000Y-17745000D01*
X19307000Y-17660000D02*
X19477000Y-17660000D01*
X20138000Y-9135000D02*
X20138000Y-9305000D01*
X20053000Y-9220000D02*
X20223000Y-9220000D01*
X20208000Y-7485000D02*
X20208000Y-7655000D01*
X20123000Y-7570000D02*
X20293000Y-7570000D01*
X20322000Y-11235000D02*
X20322000Y-11405000D01*
X20237000Y-11320000D02*
X20407000Y-11320000D01*
X20372000Y-13335000D02*
X20372000Y-13505000D01*
X20287000Y-13420000D02*
X20457000Y-13420000D01*
X20400000Y-15433000D02*
X20400000Y-15603000D01*
X20315000Y-15518000D02*
X20485000Y-15518000D01*
X20408000Y-17575000D02*
X20408000Y-17745000D01*
X20323000Y-17660000D02*
X20493000Y-17660000D01*
X21272000Y-9385000D02*
X21272000Y-9555000D01*
X21187000Y-9470000D02*
X21357000Y-9470000D01*
X21292000Y-7475000D02*
X21292000Y-7645000D01*
X21207000Y-7560000D02*
X21377000Y-7560000D01*
X21446000Y-11485000D02*
X21446000Y-11655000D01*
X21361000Y-11570000D02*
X21531000Y-11570000D01*
X21476000Y-13575000D02*
X21476000Y-13745000D01*
X21391000Y-13660000D02*
X21561000Y-13660000D01*
X21492000Y-15693000D02*
X21492000Y-15863000D01*
X21407000Y-15778000D02*
X21577000Y-15778000D01*
X21492000Y-17815000D02*
X21492000Y-17985000D01*
X21407000Y-17900000D02*
X21577000Y-17900000D01*
X22288000Y-9385000D02*
X22288000Y-9555000D01*
X22203000Y-9470000D02*
X22373000Y-9470000D01*
X22308000Y-7475000D02*
X22308000Y-7645000D01*
X22223000Y-7560000D02*
X22393000Y-7560000D01*
X22462000Y-11485000D02*
X22462000Y-11655000D01*
X22377000Y-11570000D02*
X22547000Y-11570000D01*
X22492000Y-13575000D02*
X22492000Y-13745000D01*
X22407000Y-13660000D02*
X22577000Y-13660000D01*
X22508000Y-15693000D02*
X22508000Y-15863000D01*
X22423000Y-15778000D02*
X22593000Y-15778000D01*
X22508000Y-17815000D02*
X22508000Y-17985000D01*
X22423000Y-17900000D02*
X22593000Y-17900000D01*
X23382000Y-9605000D02*
X23382000Y-9775000D01*
X23297000Y-9690000D02*
X23467000Y-9690000D01*
X23392000Y-7465000D02*
X23392000Y-7635000D01*
X23307000Y-7550000D02*
X23477000Y-7550000D01*
X23576000Y-11715000D02*
X23576000Y-11885000D01*
X23491000Y-11800000D02*
X23661000Y-11800000D01*
X23592000Y-15923000D02*
X23592000Y-16093000D01*
X23507000Y-16008000D02*
X23677000Y-16008000D01*
X23594000Y-13805000D02*
X23594000Y-13975000D01*
X23509000Y-13890000D02*
X23679000Y-13890000D01*
X24306059Y-18778001D02*
X24306059Y-18948001D01*
X24221059Y-18863001D02*
X24391059Y-18863001D01*
X24398000Y-9605000D02*
X24398000Y-9775000D01*
X24313000Y-9690000D02*
X24483000Y-9690000D01*
X24408000Y-7465000D02*
X24408000Y-7635000D01*
X24323000Y-7550000D02*
X24493000Y-7550000D01*
X24592000Y-11715000D02*
X24592000Y-11885000D01*
X24507000Y-11800000D02*
X24677000Y-11800000D01*
X24608000Y-15923000D02*
X24608000Y-16093000D01*
X24523000Y-16008000D02*
X24693000Y-16008000D01*
X24610000Y-13805000D02*
X24610000Y-13975000D01*
X24525000Y-13890000D02*
X24695000Y-13890000D01*
X25185940Y-19286001D02*
X25185940Y-19456001D01*
X25100940Y-19371001D02*
X25270940Y-19371001D01*
X25492000Y-9615000D02*
X25492000Y-9785000D01*
X25407000Y-9700000D02*
X25577000Y-9700000D01*
X25592000Y-7495000D02*
X25592000Y-7665000D01*
X25507000Y-7580000D02*
X25677000Y-7580000D01*
X25684000Y-11715000D02*
X25684000Y-11885000D01*
X25599000Y-11800000D02*
X25769000Y-11800000D01*
X25692000Y-13815000D02*
X25692000Y-13985000D01*
X25607000Y-13900000D02*
X25777000Y-13900000D01*
X25692000Y-15923000D02*
X25692000Y-16093000D01*
X25607000Y-16008000D02*
X25777000Y-16008000D01*
X26114059Y-19833001D02*
X26114059Y-20003001D01*
X26029059Y-19918001D02*
X26199059Y-19918001D01*
X26508000Y-9615000D02*
X26508000Y-9785000D01*
X26423000Y-9700000D02*
X26593000Y-9700000D01*
X26608000Y-7495000D02*
X26608000Y-7665000D01*
X26523000Y-7580000D02*
X26693000Y-7580000D01*
X26700000Y-11715000D02*
X26700000Y-11885000D01*
X26615000Y-11800000D02*
X26785000Y-11800000D01*
X26708000Y-13815000D02*
X26708000Y-13985000D01*
X26623000Y-13900000D02*
X26793000Y-13900000D01*
X26708000Y-15923000D02*
X26708000Y-16093000D01*
X26623000Y-16008000D02*
X26793000Y-16008000D01*
X26993940Y-20341001D02*
X26993940Y-20511001D01*
X26908940Y-20426001D02*
X27078940Y-20426001D01*
X27160059Y-18061001D02*
X27160059Y-18231001D01*
X27075059Y-18146001D02*
X27245059Y-18146001D01*
X27772000Y-7485000D02*
X27772000Y-7655000D01*
X27687000Y-7570000D02*
X27857000Y-7570000D01*
X27792000Y-9615000D02*
X27792000Y-9785000D01*
X27707000Y-9700000D02*
X27877000Y-9700000D01*
X27963019Y-20871471D02*
X27963019Y-21041471D01*
X27878019Y-20956471D02*
X28048019Y-20956471D01*
X28039940Y-18569001D02*
X28039940Y-18739001D01*
X27954940Y-18654001D02*
X28124940Y-18654001D01*
X28300000Y-11707000D02*
X28300000Y-11877000D01*
X28215000Y-11792000D02*
X28385000Y-11792000D01*
X28300000Y-12723000D02*
X28300000Y-12893000D01*
X28215000Y-12808000D02*
X28385000Y-12808000D01*
X28318000Y-14807000D02*
X28318000Y-14977000D01*
X28233000Y-14892000D02*
X28403000Y-14892000D01*
X28318000Y-15823000D02*
X28318000Y-15993000D01*
X28233000Y-15908000D02*
X28403000Y-15908000D01*
X28788000Y-7485000D02*
X28788000Y-7655000D01*
X28703000Y-7570000D02*
X28873000Y-7570000D01*
X28808000Y-9615000D02*
X28808000Y-9785000D01*
X28723000Y-9700000D02*
X28893000Y-9700000D01*
X28842900Y-21379471D02*
X28842900Y-21549471D01*
X28757900Y-21464471D02*
X28927900Y-21464471D01*
X33705000Y-7499000D02*
X33705000Y-7669000D01*
X33620000Y-7584000D02*
X33790000Y-7584000D01*
X33892000Y-9623000D02*
X33892000Y-9793000D01*
X33807000Y-9708000D02*
X33977000Y-9708000D01*
X33901059Y-21435001D02*
X33901059Y-21605001D01*
X33816059Y-21520001D02*
X33986059Y-21520001D01*
X34390000Y-11769000D02*
X34390000Y-11939000D01*
X34305000Y-11854000D02*
X34475000Y-11854000D01*
X34390000Y-12785000D02*
X34390000Y-12955000D01*
X34305000Y-12870000D02*
X34475000Y-12870000D01*
X34400000Y-14807000D02*
X34400000Y-14977000D01*
X34315000Y-14892000D02*
X34485000Y-14892000D01*
X34400000Y-15823000D02*
X34400000Y-15993000D01*
X34315000Y-15908000D02*
X34485000Y-15908000D01*
X34660059Y-18569001D02*
X34660059Y-18739001D01*
X34575059Y-18654001D02*
X34745059Y-18654001D01*
X34721000Y-7499000D02*
X34721000Y-7669000D01*
X34636000Y-7584000D02*
X34806000Y-7584000D01*
X34780941Y-20927001D02*
X34780941Y-21097001D01*
X34695941Y-21012001D02*
X34865941Y-21012001D01*
X34908000Y-9623000D02*
X34908000Y-9793000D01*
X34823000Y-9708000D02*
X34993000Y-9708000D01*
X35539941Y-18061001D02*
X35539941Y-18231001D01*
X35454941Y-18146001D02*
X35624941Y-18146001D01*
X35707059Y-20345001D02*
X35707059Y-20515001D01*
X35622059Y-20430001D02*
X35792059Y-20430001D01*
X35792000Y-7489000D02*
X35792000Y-7659000D01*
X35707000Y-7574000D02*
X35877000Y-7574000D01*
X35959000Y-9613000D02*
X35959000Y-9783000D01*
X35874000Y-9698000D02*
X36044000Y-9698000D01*
X36105000Y-14023000D02*
X36105000Y-14193000D01*
X36020000Y-14108000D02*
X36190000Y-14108000D01*
X36125000Y-16115000D02*
X36125000Y-16285000D01*
X36040000Y-16200000D02*
X36210000Y-16200000D01*
X36135000Y-11823000D02*
X36135000Y-11993000D01*
X36050000Y-11908000D02*
X36220000Y-11908000D01*
X36586941Y-19837001D02*
X36586941Y-20007001D01*
X36501941Y-19922001D02*
X36671941Y-19922001D01*
X36808000Y-7489000D02*
X36808000Y-7659000D01*
X36723000Y-7574000D02*
X36893000Y-7574000D01*
X36975000Y-9613000D02*
X36975000Y-9783000D01*
X36890000Y-9698000D02*
X37060000Y-9698000D01*
X37121000Y-14023000D02*
X37121000Y-14193000D01*
X37036000Y-14108000D02*
X37206000Y-14108000D01*
X37141000Y-16115000D02*
X37141000Y-16285000D01*
X37056000Y-16200000D02*
X37226000Y-16200000D01*
X37151000Y-11823000D02*
X37151000Y-11993000D01*
X37066000Y-11908000D02*
X37236000Y-11908000D01*
X37560059Y-19269001D02*
X37560059Y-19439001D01*
X37475059Y-19354001D02*
X37645059Y-19354001D01*
X37926000Y-7499000D02*
X37926000Y-7669000D01*
X37841000Y-7584000D02*
X38011000Y-7584000D01*
X38059000Y-9589000D02*
X38059000Y-9759000D01*
X37974000Y-9674000D02*
X38144000Y-9674000D01*
X38192000Y-14013000D02*
X38192000Y-14183000D01*
X38107000Y-14098000D02*
X38277000Y-14098000D01*
X38292000Y-11799000D02*
X38292000Y-11969000D01*
X38207000Y-11884000D02*
X38377000Y-11884000D01*
X38292000Y-16095000D02*
X38292000Y-16265000D01*
X38207000Y-16180000D02*
X38377000Y-16180000D01*
X38439941Y-18761001D02*
X38439941Y-18931001D01*
X38354941Y-18846001D02*
X38524941Y-18846001D01*
X38942000Y-7499000D02*
X38942000Y-7669000D01*
X38857000Y-7584000D02*
X39027000Y-7584000D01*
X39075000Y-9589000D02*
X39075000Y-9759000D01*
X38990000Y-9674000D02*
X39160000Y-9674000D01*
X39208000Y-14013000D02*
X39208000Y-14183000D01*
X39123000Y-14098000D02*
X39293000Y-14098000D01*
X39308000Y-11799000D02*
X39308000Y-11969000D01*
X39223000Y-11884000D02*
X39393000Y-11884000D01*
X39308000Y-16095000D02*
X39308000Y-16265000D01*
X39223000Y-16180000D02*
X39393000Y-16180000D01*
X40100000Y-7501000D02*
X40100000Y-7671000D01*
X40015000Y-7586000D02*
X40185000Y-7586000D01*
X40159000Y-9389000D02*
X40159000Y-9559000D01*
X40074000Y-9474000D02*
X40244000Y-9474000D01*
X40273000Y-13773000D02*
X40273000Y-13943000D01*
X40188000Y-13858000D02*
X40358000Y-13858000D01*
X40392000Y-11499000D02*
X40392000Y-11669000D01*
X40307000Y-11584000D02*
X40477000Y-11584000D01*
X40392000Y-15885000D02*
X40392000Y-16055000D01*
X40307000Y-15970000D02*
X40477000Y-15970000D01*
X40392000Y-18023000D02*
X40392000Y-18193000D01*
X40307000Y-18108000D02*
X40477000Y-18108000D01*
X41116000Y-7501000D02*
X41116000Y-7671000D01*
X41031000Y-7586000D02*
X41201000Y-7586000D01*
X41175000Y-9389000D02*
X41175000Y-9559000D01*
X41090000Y-9474000D02*
X41260000Y-9474000D01*
X41289000Y-13773000D02*
X41289000Y-13943000D01*
X41204000Y-13858000D02*
X41374000Y-13858000D01*
X41408000Y-11499000D02*
X41408000Y-11669000D01*
X41323000Y-11584000D02*
X41493000Y-11584000D01*
X41408000Y-15885000D02*
X41408000Y-16055000D01*
X41323000Y-15970000D02*
X41493000Y-15970000D01*
X41408000Y-18023000D02*
X41408000Y-18193000D01*
X41323000Y-18108000D02*
X41493000Y-18108000D01*
X42259000Y-9163000D02*
X42259000Y-9333000D01*
X42174000Y-9248000D02*
X42344000Y-9248000D01*
X42292000Y-7509000D02*
X42292000Y-7679000D01*
X42207000Y-7594000D02*
X42377000Y-7594000D01*
X42392000Y-13553000D02*
X42392000Y-13723000D01*
X42307000Y-13638000D02*
X42477000Y-13638000D01*
X42492000Y-11353000D02*
X42492000Y-11523000D01*
X42407000Y-11438000D02*
X42577000Y-11438000D01*
X42492000Y-15637000D02*
X42492000Y-15807000D01*
X42407000Y-15722000D02*
X42577000Y-15722000D01*
X42499000Y-17763000D02*
X42499000Y-17933000D01*
X42414000Y-17848000D02*
X42584000Y-17848000D01*
X43275000Y-9163000D02*
X43275000Y-9333000D01*
X43190000Y-9248000D02*
X43360000Y-9248000D01*
X43308000Y-7509000D02*
X43308000Y-7679000D01*
X43223000Y-7594000D02*
X43393000Y-7594000D01*
X43408000Y-13553000D02*
X43408000Y-13723000D01*
X43323000Y-13638000D02*
X43493000Y-13638000D01*
X43508000Y-11353000D02*
X43508000Y-11523000D01*
X43423000Y-11438000D02*
X43593000Y-11438000D01*
X43508000Y-15637000D02*
X43508000Y-15807000D01*
X43423000Y-15722000D02*
X43593000Y-15722000D01*
X43515000Y-17763000D02*
X43515000Y-17933000D01*
X43430000Y-17848000D02*
X43600000Y-17848000D01*
X44359000Y-9623000D02*
X44359000Y-9793000D01*
X44274000Y-9708000D02*
X44444000Y-9708000D01*
X44392000Y-7515000D02*
X44392000Y-7685000D01*
X44307000Y-7600000D02*
X44477000Y-7600000D01*
X44492000Y-13819000D02*
X44492000Y-13989000D01*
X44407000Y-13904000D02*
X44577000Y-13904000D01*
X44592000Y-11813000D02*
X44592000Y-11983000D01*
X44507000Y-11898000D02*
X44677000Y-11898000D01*
X44592000Y-15895000D02*
X44592000Y-16065000D01*
X44507000Y-15980000D02*
X44677000Y-15980000D01*
X44599000Y-18033000D02*
X44599000Y-18203000D01*
X44514000Y-18118000D02*
X44684000Y-18118000D01*
X45375000Y-9623000D02*
X45375000Y-9793000D01*
X45290000Y-9708000D02*
X45460000Y-9708000D01*
X45408000Y-7515000D02*
X45408000Y-7685000D01*
X45323000Y-7600000D02*
X45493000Y-7600000D01*
X45508000Y-13819000D02*
X45508000Y-13989000D01*
X45423000Y-13904000D02*
X45593000Y-13904000D01*
X45608000Y-11813000D02*
X45608000Y-11983000D01*
X45523000Y-11898000D02*
X45693000Y-11898000D01*
X45608000Y-15895000D02*
X45608000Y-16065000D01*
X45523000Y-15980000D02*
X45693000Y-15980000D01*
X45615000Y-18033000D02*
X45615000Y-18203000D01*
X45530000Y-18118000D02*
X45700000Y-18118000D01*
X46459000Y-9873000D02*
X46459000Y-10043000D01*
X46374000Y-9958000D02*
X46544000Y-9958000D01*
X46492000Y-7499000D02*
X46492000Y-7669000D01*
X46407000Y-7584000D02*
X46577000Y-7584000D01*
X46592000Y-14253000D02*
X46592000Y-14423000D01*
X46507000Y-14338000D02*
X46677000Y-14338000D01*
X46692000Y-12099000D02*
X46692000Y-12269000D01*
X46607000Y-12184000D02*
X46777000Y-12184000D01*
X46692000Y-16241000D02*
X46692000Y-16411000D01*
X46607000Y-16326000D02*
X46777000Y-16326000D01*
X46699000Y-18423000D02*
X46699000Y-18593000D01*
X46614000Y-18508000D02*
X46784000Y-18508000D01*
X47475000Y-9873000D02*
X47475000Y-10043000D01*
X47390000Y-9958000D02*
X47560000Y-9958000D01*
X47508000Y-7499000D02*
X47508000Y-7669000D01*
X47423000Y-7584000D02*
X47593000Y-7584000D01*
X47608000Y-14253000D02*
X47608000Y-14423000D01*
X47523000Y-14338000D02*
X47693000Y-14338000D01*
X47708000Y-12099000D02*
X47708000Y-12269000D01*
X47623000Y-12184000D02*
X47793000Y-12184000D01*
X47708000Y-16241000D02*
X47708000Y-16411000D01*
X47623000Y-16326000D02*
X47793000Y-16326000D01*
X47715000Y-18423000D02*
X47715000Y-18593000D01*
X47630000Y-18508000D02*
X47800000Y-18508000D01*
X48899000Y-18423000D02*
X48899000Y-18593000D01*
X48814000Y-18508000D02*
X48984000Y-18508000D01*
X49267500Y-14095000D02*
X49267500Y-14265000D01*
X49182500Y-14180000D02*
X49352500Y-14180000D01*
X49277500Y-9869000D02*
X49277500Y-10039000D01*
X49192500Y-9954000D02*
X49362500Y-9954000D01*
X49277500Y-12003000D02*
X49277500Y-12173000D01*
X49192500Y-12088000D02*
X49362500Y-12088000D01*
X49297500Y-16195000D02*
X49297500Y-16365000D01*
X49212500Y-16280000D02*
X49382500Y-16280000D01*
X49915000Y-18423000D02*
X49915000Y-18593000D01*
X49830000Y-18508000D02*
X50000000Y-18508000D01*
X50283500Y-14095000D02*
X50283500Y-14265000D01*
X50198500Y-14180000D02*
X50368500Y-14180000D01*
X50293500Y-9869000D02*
X50293500Y-10039000D01*
X50208500Y-9954000D02*
X50378500Y-9954000D01*
X50293500Y-12003000D02*
X50293500Y-12173000D01*
X50208500Y-12088000D02*
X50378500Y-12088000D01*
X50313500Y-16195000D02*
X50313500Y-16365000D01*
X50228500Y-16280000D02*
X50398500Y-16280000D01*
D15*
X30463640Y-5063640D02*
X30463640Y-4936360D01*
X30336360Y-4936360D01*
X30336360Y-5063640D01*
X30463640Y-5063640D01*
X30463640Y-5608640D02*
X30463640Y-5481360D01*
X30336360Y-5481360D01*
X30336360Y-5608640D01*
X30463640Y-5608640D01*
X32118640Y-5063640D02*
X32118640Y-4936360D01*
X31991360Y-4936360D01*
X31991360Y-5063640D01*
X32118640Y-5063640D01*
X32118640Y-5608640D02*
X32118640Y-5481360D01*
X31991360Y-5481360D01*
X31991360Y-5608640D01*
X32118640Y-5608640D01*
D16*
X12900000Y-10160000D02*
X13100000Y-9960000D01*
X12900000Y-9760000D01*
X12700000Y-9960000D01*
X12900000Y-10160000D01*
X12932000Y-12250000D02*
X13132000Y-12050000D01*
X12932000Y-11850000D01*
X12732000Y-12050000D01*
X12932000Y-12250000D01*
X13059000Y-14340000D02*
X13259000Y-14140000D01*
X13059000Y-13940000D01*
X12859000Y-14140000D01*
X13059000Y-14340000D01*
X13100000Y-16448000D02*
X13300000Y-16248000D01*
X13100000Y-16048000D01*
X12900000Y-16248000D01*
X13100000Y-16448000D01*
X13546000Y-18568000D02*
X13746000Y-18368000D01*
X13546000Y-18168000D01*
X13346000Y-18368000D01*
X13546000Y-18568000D01*
X15500000Y-7760000D02*
X15700000Y-7560000D01*
X15500000Y-7360000D01*
X15300000Y-7560000D01*
X15500000Y-7760000D01*
X15508000Y-10180000D02*
X15708000Y-9980000D01*
X15508000Y-9780000D01*
X15308000Y-9980000D01*
X15508000Y-10180000D01*
X15530000Y-12250000D02*
X15730000Y-12050000D01*
X15530000Y-11850000D01*
X15330000Y-12050000D01*
X15530000Y-12250000D01*
X15643000Y-14330000D02*
X15843000Y-14130000D01*
X15643000Y-13930000D01*
X15443000Y-14130000D01*
X15643000Y-14330000D01*
X15696000Y-16428000D02*
X15896000Y-16228000D01*
X15696000Y-16028000D01*
X15496000Y-16228000D01*
X15696000Y-16428000D01*
X15700000Y-18558000D02*
X15900000Y-18358000D01*
X15700000Y-18158000D01*
X15500000Y-18358000D01*
X15700000Y-18558000D01*
X17562000Y-9680000D02*
X17762000Y-9480000D01*
X17562000Y-9280000D01*
X17362000Y-9480000D01*
X17562000Y-9680000D01*
X17580000Y-7770000D02*
X17780000Y-7570000D01*
X17580000Y-7370000D01*
X17380000Y-7570000D01*
X17580000Y-7770000D01*
X17692000Y-11780000D02*
X17892000Y-11580000D01*
X17692000Y-11380000D01*
X17492000Y-11580000D01*
X17692000Y-11780000D01*
X17733000Y-13860000D02*
X17933000Y-13660000D01*
X17733000Y-13460000D01*
X17533000Y-13660000D01*
X17733000Y-13860000D01*
X17792000Y-15968000D02*
X17992000Y-15768000D01*
X17792000Y-15568000D01*
X17592000Y-15768000D01*
X17792000Y-15968000D01*
X17800000Y-18260000D02*
X18000000Y-18060000D01*
X17800000Y-17860000D01*
X17600000Y-18060000D01*
X17800000Y-18260000D01*
X19630000Y-9420000D02*
X19830000Y-9220000D01*
X19630000Y-9020000D01*
X19430000Y-9220000D01*
X19630000Y-9420000D01*
X19700000Y-7770000D02*
X19900000Y-7570000D01*
X19700000Y-7370000D01*
X19500000Y-7570000D01*
X19700000Y-7770000D01*
X19814000Y-11520000D02*
X20014000Y-11320000D01*
X19814000Y-11120000D01*
X19614000Y-11320000D01*
X19814000Y-11520000D01*
X19864000Y-13620000D02*
X20064000Y-13420000D01*
X19864000Y-13220000D01*
X19664000Y-13420000D01*
X19864000Y-13620000D01*
X19892000Y-15718000D02*
X20092000Y-15518000D01*
X19892000Y-15318000D01*
X19692000Y-15518000D01*
X19892000Y-15718000D01*
X19900000Y-17860000D02*
X20100000Y-17660000D01*
X19900000Y-17460000D01*
X19700000Y-17660000D01*
X19900000Y-17860000D01*
X21780000Y-9670000D02*
X21980000Y-9470000D01*
X21780000Y-9270000D01*
X21580000Y-9470000D01*
X21780000Y-9670000D01*
X21800000Y-7760000D02*
X22000000Y-7560000D01*
X21800000Y-7360000D01*
X21600000Y-7560000D01*
X21800000Y-7760000D01*
X21954000Y-11770000D02*
X22154000Y-11570000D01*
X21954000Y-11370000D01*
X21754000Y-11570000D01*
X21954000Y-11770000D01*
X21984000Y-13860000D02*
X22184000Y-13660000D01*
X21984000Y-13460000D01*
X21784000Y-13660000D01*
X21984000Y-13860000D01*
X22000000Y-15978000D02*
X22200000Y-15778000D01*
X22000000Y-15578000D01*
X21800000Y-15778000D01*
X22000000Y-15978000D01*
X22000000Y-18100000D02*
X22200000Y-17900000D01*
X22000000Y-17700000D01*
X21800000Y-17900000D01*
X22000000Y-18100000D01*
X23890000Y-9890000D02*
X24090000Y-9690000D01*
X23890000Y-9490000D01*
X23690000Y-9690000D01*
X23890000Y-9890000D01*
X23900000Y-7750000D02*
X24100000Y-7550000D01*
X23900000Y-7350000D01*
X23700000Y-7550000D01*
X23900000Y-7750000D01*
X24084000Y-12000000D02*
X24284000Y-11800000D01*
X24084000Y-11600000D01*
X23884000Y-11800000D01*
X24084000Y-12000000D01*
X24100000Y-16208000D02*
X24300000Y-16008000D01*
X24100000Y-15808000D01*
X23900000Y-16008000D01*
X24100000Y-16208000D01*
X24102000Y-14090000D02*
X24302000Y-13890000D01*
X24102000Y-13690000D01*
X23902000Y-13890000D01*
X24102000Y-14090000D01*
X24745999Y-19317001D02*
X24945999Y-19117001D01*
X24745999Y-18917001D01*
X24545999Y-19117001D01*
X24745999Y-19317001D01*
X26000000Y-9900000D02*
X26200000Y-9700000D01*
X26000000Y-9500000D01*
X25800000Y-9700000D01*
X26000000Y-9900000D01*
X26100000Y-7780000D02*
X26300000Y-7580000D01*
X26100000Y-7380000D01*
X25900000Y-7580000D01*
X26100000Y-7780000D01*
X26192000Y-12000000D02*
X26392000Y-11800000D01*
X26192000Y-11600000D01*
X25992000Y-11800000D01*
X26192000Y-12000000D01*
X26200000Y-14100000D02*
X26400000Y-13900000D01*
X26200000Y-13700000D01*
X26000000Y-13900000D01*
X26200000Y-14100000D01*
X26200000Y-16208000D02*
X26400000Y-16008000D01*
X26200000Y-15808000D01*
X26000000Y-16008000D01*
X26200000Y-16208000D01*
X26553999Y-20372001D02*
X26753999Y-20172001D01*
X26553999Y-19972001D01*
X26353999Y-20172001D01*
X26553999Y-20372001D01*
X27599999Y-18600001D02*
X27799999Y-18400001D01*
X27599999Y-18200001D01*
X27399999Y-18400001D01*
X27599999Y-18600001D01*
X28280000Y-7770000D02*
X28480000Y-7570000D01*
X28280000Y-7370000D01*
X28080000Y-7570000D01*
X28280000Y-7770000D01*
X28300000Y-9900000D02*
X28500000Y-9700000D01*
X28300000Y-9500000D01*
X28100000Y-9700000D01*
X28300000Y-9900000D01*
X28300000Y-12500000D02*
X28500000Y-12300000D01*
X28300000Y-12100000D01*
X28100000Y-12300000D01*
X28300000Y-12500000D01*
X28318000Y-15600000D02*
X28518000Y-15400000D01*
X28318000Y-15200000D01*
X28118000Y-15400000D01*
X28318000Y-15600000D01*
X28402959Y-21410471D02*
X28602959Y-21210471D01*
X28402959Y-21010471D01*
X28202959Y-21210471D01*
X28402959Y-21410471D01*
X34213000Y-7784000D02*
X34413000Y-7584000D01*
X34213000Y-7384000D01*
X34013000Y-7584000D01*
X34213000Y-7784000D01*
X34341000Y-21466001D02*
X34541000Y-21266001D01*
X34341000Y-21066001D01*
X34141000Y-21266001D01*
X34341000Y-21466001D01*
X34390000Y-12562000D02*
X34590000Y-12362000D01*
X34390000Y-12162000D01*
X34190000Y-12362000D01*
X34390000Y-12562000D01*
X34400000Y-9908000D02*
X34600000Y-9708000D01*
X34400000Y-9508000D01*
X34200000Y-9708000D01*
X34400000Y-9908000D01*
X34400000Y-15600000D02*
X34600000Y-15400000D01*
X34400000Y-15200000D01*
X34200000Y-15400000D01*
X34400000Y-15600000D01*
X35100000Y-18600001D02*
X35300000Y-18400001D01*
X35100000Y-18200001D01*
X34900000Y-18400001D01*
X35100000Y-18600001D01*
X36147000Y-20376001D02*
X36347000Y-20176001D01*
X36147000Y-19976001D01*
X35947000Y-20176001D01*
X36147000Y-20376001D01*
X36300000Y-7774000D02*
X36500000Y-7574000D01*
X36300000Y-7374000D01*
X36100000Y-7574000D01*
X36300000Y-7774000D01*
X36467000Y-9898000D02*
X36667000Y-9698000D01*
X36467000Y-9498000D01*
X36267000Y-9698000D01*
X36467000Y-9898000D01*
X36613000Y-14308000D02*
X36813000Y-14108000D01*
X36613000Y-13908000D01*
X36413000Y-14108000D01*
X36613000Y-14308000D01*
X36633000Y-16400000D02*
X36833000Y-16200000D01*
X36633000Y-16000000D01*
X36433000Y-16200000D01*
X36633000Y-16400000D01*
X36643000Y-12108000D02*
X36843000Y-11908000D01*
X36643000Y-11708000D01*
X36443000Y-11908000D01*
X36643000Y-12108000D01*
X38000000Y-19300001D02*
X38200000Y-19100001D01*
X38000000Y-18900001D01*
X37800000Y-19100001D01*
X38000000Y-19300001D01*
X38434000Y-7784000D02*
X38634000Y-7584000D01*
X38434000Y-7384000D01*
X38234000Y-7584000D01*
X38434000Y-7784000D01*
X38567000Y-9874000D02*
X38767000Y-9674000D01*
X38567000Y-9474000D01*
X38367000Y-9674000D01*
X38567000Y-9874000D01*
X38700000Y-14298000D02*
X38900000Y-14098000D01*
X38700000Y-13898000D01*
X38500000Y-14098000D01*
X38700000Y-14298000D01*
X38800000Y-12084000D02*
X39000000Y-11884000D01*
X38800000Y-11684000D01*
X38600000Y-11884000D01*
X38800000Y-12084000D01*
X38800000Y-16380000D02*
X39000000Y-16180000D01*
X38800000Y-15980000D01*
X38600000Y-16180000D01*
X38800000Y-16380000D01*
X40608000Y-7786000D02*
X40808000Y-7586000D01*
X40608000Y-7386000D01*
X40408000Y-7586000D01*
X40608000Y-7786000D01*
X40667000Y-9674000D02*
X40867000Y-9474000D01*
X40667000Y-9274000D01*
X40467000Y-9474000D01*
X40667000Y-9674000D01*
X40781000Y-14058000D02*
X40981000Y-13858000D01*
X40781000Y-13658000D01*
X40581000Y-13858000D01*
X40781000Y-14058000D01*
X40900000Y-11784000D02*
X41100000Y-11584000D01*
X40900000Y-11384000D01*
X40700000Y-11584000D01*
X40900000Y-11784000D01*
X40900000Y-16170000D02*
X41100000Y-15970000D01*
X40900000Y-15770000D01*
X40700000Y-15970000D01*
X40900000Y-16170000D01*
X40900000Y-18308000D02*
X41100000Y-18108000D01*
X40900000Y-17908000D01*
X40700000Y-18108000D01*
X40900000Y-18308000D01*
X42767000Y-9448000D02*
X42967000Y-9248000D01*
X42767000Y-9048000D01*
X42567000Y-9248000D01*
X42767000Y-9448000D01*
X42800000Y-7794000D02*
X43000000Y-7594000D01*
X42800000Y-7394000D01*
X42600000Y-7594000D01*
X42800000Y-7794000D01*
X42900000Y-13838000D02*
X43100000Y-13638000D01*
X42900000Y-13438000D01*
X42700000Y-13638000D01*
X42900000Y-13838000D01*
X43000000Y-11638000D02*
X43200000Y-11438000D01*
X43000000Y-11238000D01*
X42800000Y-11438000D01*
X43000000Y-11638000D01*
X43000000Y-15922000D02*
X43200000Y-15722000D01*
X43000000Y-15522000D01*
X42800000Y-15722000D01*
X43000000Y-15922000D01*
X43007000Y-18048000D02*
X43207000Y-17848000D01*
X43007000Y-17648000D01*
X42807000Y-17848000D01*
X43007000Y-18048000D01*
X44867000Y-9908000D02*
X45067000Y-9708000D01*
X44867000Y-9508000D01*
X44667000Y-9708000D01*
X44867000Y-9908000D01*
X44900000Y-7800000D02*
X45100000Y-7600000D01*
X44900000Y-7400000D01*
X44700000Y-7600000D01*
X44900000Y-7800000D01*
X45000000Y-14104000D02*
X45200000Y-13904000D01*
X45000000Y-13704000D01*
X44800000Y-13904000D01*
X45000000Y-14104000D01*
X45100000Y-12098000D02*
X45300000Y-11898000D01*
X45100000Y-11698000D01*
X44900000Y-11898000D01*
X45100000Y-12098000D01*
X45100000Y-16180000D02*
X45300000Y-15980000D01*
X45100000Y-15780000D01*
X44900000Y-15980000D01*
X45100000Y-16180000D01*
X45107000Y-18318000D02*
X45307000Y-18118000D01*
X45107000Y-17918000D01*
X44907000Y-18118000D01*
X45107000Y-18318000D01*
X46967000Y-10158000D02*
X47167000Y-9958000D01*
X46967000Y-9758000D01*
X46767000Y-9958000D01*
X46967000Y-10158000D01*
X47000000Y-7784000D02*
X47200000Y-7584000D01*
X47000000Y-7384000D01*
X46800000Y-7584000D01*
X47000000Y-7784000D01*
X47100000Y-14538000D02*
X47300000Y-14338000D01*
X47100000Y-14138000D01*
X46900000Y-14338000D01*
X47100000Y-14538000D01*
X47200000Y-12384000D02*
X47400000Y-12184000D01*
X47200000Y-11984000D01*
X47000000Y-12184000D01*
X47200000Y-12384000D01*
X47200000Y-16526000D02*
X47400000Y-16326000D01*
X47200000Y-16126000D01*
X47000000Y-16326000D01*
X47200000Y-16526000D01*
X47207000Y-18708000D02*
X47407000Y-18508000D01*
X47207000Y-18308000D01*
X47007000Y-18508000D01*
X47207000Y-18708000D01*
X49407000Y-18708000D02*
X49607000Y-18508000D01*
X49407000Y-18308000D01*
X49207000Y-18508000D01*
X49407000Y-18708000D01*
X49775500Y-14380000D02*
X49975500Y-14180000D01*
X49775500Y-13980000D01*
X49575500Y-14180000D01*
X49775500Y-14380000D01*
X49785500Y-10154000D02*
X49985500Y-9954000D01*
X49785500Y-9754000D01*
X49585500Y-9954000D01*
X49785500Y-10154000D01*
X49785500Y-12288000D02*
X49985500Y-12088000D01*
X49785500Y-11888000D01*
X49585500Y-12088000D01*
X49785500Y-12288000D01*
X49805500Y-16480000D02*
X50005500Y-16280000D01*
X49805500Y-16080000D01*
X49605500Y-16280000D01*
X49805500Y-16480000D01*
D11*
X8752619Y-23825476D02*
X8752619Y-23625476D01*
X8800238Y-23625476D01*
X8828810Y-23635000D01*
X8847857Y-23654048D01*
X8857381Y-23673095D01*
X8866905Y-23711190D01*
X8866905Y-23739762D01*
X8857381Y-23777857D01*
X8847857Y-23796905D01*
X8828810Y-23815952D01*
X8800238Y-23825476D01*
X8752619Y-23825476D01*
X8952619Y-23825476D02*
X8952619Y-23692143D01*
X8952619Y-23730238D02*
X8962143Y-23711190D01*
X8971667Y-23701667D01*
X8990714Y-23692143D01*
X9009762Y-23692143D01*
X9076429Y-23825476D02*
X9076429Y-23692143D01*
X9076429Y-23625476D02*
X9066905Y-23635000D01*
X9076429Y-23644524D01*
X9085952Y-23635000D01*
X9076429Y-23625476D01*
X9076429Y-23644524D01*
X9200238Y-23825476D02*
X9181190Y-23815952D01*
X9171667Y-23796905D01*
X9171667Y-23625476D01*
X9305000Y-23825476D02*
X9285952Y-23815952D01*
X9276429Y-23796905D01*
X9276429Y-23625476D01*
X9533571Y-23825476D02*
X9533571Y-23625476D01*
X9600238Y-23768333D01*
X9666905Y-23625476D01*
X9666905Y-23825476D01*
X9847857Y-23825476D02*
X9847857Y-23720714D01*
X9838333Y-23701667D01*
X9819286Y-23692143D01*
X9781190Y-23692143D01*
X9762143Y-23701667D01*
X9847857Y-23815952D02*
X9828810Y-23825476D01*
X9781190Y-23825476D01*
X9762143Y-23815952D01*
X9752619Y-23796905D01*
X9752619Y-23777857D01*
X9762143Y-23758809D01*
X9781190Y-23749286D01*
X9828810Y-23749286D01*
X9847857Y-23739762D01*
X9943095Y-23692143D02*
X9943095Y-23892143D01*
X9943095Y-23701667D02*
X9962143Y-23692143D01*
X10000238Y-23692143D01*
X10019286Y-23701667D01*
X10028810Y-23711190D01*
X10038333Y-23730238D01*
X10038333Y-23787381D01*
X10028810Y-23806428D01*
X10019286Y-23815952D01*
X10000238Y-23825476D01*
X9962143Y-23825476D01*
X9943095Y-23815952D01*
X10124048Y-23806428D02*
X10133571Y-23815952D01*
X10124048Y-23825476D01*
X10114524Y-23815952D01*
X10124048Y-23806428D01*
X10124048Y-23825476D01*
X10124048Y-23701667D02*
X10133571Y-23711190D01*
X10124048Y-23720714D01*
X10114524Y-23711190D01*
X10124048Y-23701667D01*
X10124048Y-23720714D01*
D12*
X8385000Y-24100000D02*
X8495000Y-24210000D01*
X8495000Y-24100000D02*
X8385000Y-24210000D01*
D11*
X8857381Y-24245476D02*
X8743095Y-24245476D01*
X8800238Y-24245476D02*
X8800238Y-24045476D01*
X8781190Y-24074048D01*
X8762143Y-24093095D01*
X8743095Y-24102619D01*
X8943095Y-24226428D02*
X8952619Y-24235952D01*
X8943095Y-24245476D01*
X8933571Y-24235952D01*
X8943095Y-24226428D01*
X8943095Y-24245476D01*
X9143095Y-24245476D02*
X9028810Y-24245476D01*
X9085952Y-24245476D02*
X9085952Y-24045476D01*
X9066905Y-24074048D01*
X9047857Y-24093095D01*
X9028810Y-24102619D01*
X9266905Y-24045476D02*
X9285952Y-24045476D01*
X9305000Y-24055000D01*
X9314524Y-24064524D01*
X9324048Y-24083571D01*
X9333571Y-24121667D01*
X9333571Y-24169286D01*
X9324048Y-24207381D01*
X9314524Y-24226428D01*
X9305000Y-24235952D01*
X9285952Y-24245476D01*
X9266905Y-24245476D01*
X9247857Y-24235952D01*
X9238333Y-24226428D01*
X9228810Y-24207381D01*
X9219286Y-24169286D01*
X9219286Y-24121667D01*
X9228810Y-24083571D01*
X9238333Y-24064524D01*
X9247857Y-24055000D01*
X9266905Y-24045476D01*
X9457381Y-24045476D02*
X9476429Y-24045476D01*
X9495476Y-24055000D01*
X9505000Y-24064524D01*
X9514524Y-24083571D01*
X9524048Y-24121667D01*
X9524048Y-24169286D01*
X9514524Y-24207381D01*
X9505000Y-24226428D01*
X9495476Y-24235952D01*
X9476429Y-24245476D01*
X9457381Y-24245476D01*
X9438333Y-24235952D01*
X9428810Y-24226428D01*
X9419286Y-24207381D01*
X9409762Y-24169286D01*
X9409762Y-24121667D01*
X9419286Y-24083571D01*
X9428810Y-24064524D01*
X9438333Y-24055000D01*
X9457381Y-24045476D01*
X9609762Y-24245476D02*
X9609762Y-24112143D01*
X9609762Y-24131190D02*
X9619286Y-24121667D01*
X9638333Y-24112143D01*
X9666905Y-24112143D01*
X9685952Y-24121667D01*
X9695476Y-24140714D01*
X9695476Y-24245476D01*
X9695476Y-24140714D02*
X9705000Y-24121667D01*
X9724048Y-24112143D01*
X9752619Y-24112143D01*
X9771667Y-24121667D01*
X9781190Y-24140714D01*
X9781190Y-24245476D01*
X9876429Y-24245476D02*
X9876429Y-24112143D01*
X9876429Y-24131190D02*
X9885952Y-24121667D01*
X9905000Y-24112143D01*
X9933571Y-24112143D01*
X9952619Y-24121667D01*
X9962143Y-24140714D01*
X9962143Y-24245476D01*
X9962143Y-24140714D02*
X9971667Y-24121667D01*
X9990714Y-24112143D01*
X10019286Y-24112143D01*
X10038333Y-24121667D01*
X10047857Y-24140714D01*
X10047857Y-24245476D01*
X10438333Y-24035952D02*
X10266905Y-24293095D01*
X10695476Y-24045476D02*
X10714524Y-24045476D01*
X10733571Y-24055000D01*
X10743095Y-24064524D01*
X10752619Y-24083571D01*
X10762143Y-24121667D01*
X10762143Y-24169286D01*
X10752619Y-24207381D01*
X10743095Y-24226428D01*
X10733571Y-24235952D01*
X10714524Y-24245476D01*
X10695476Y-24245476D01*
X10676429Y-24235952D01*
X10666905Y-24226428D01*
X10657381Y-24207381D01*
X10647857Y-24169286D01*
X10647857Y-24121667D01*
X10657381Y-24083571D01*
X10666905Y-24064524D01*
X10676429Y-24055000D01*
X10695476Y-24045476D01*
X10847857Y-24226428D02*
X10857381Y-24235952D01*
X10847857Y-24245476D01*
X10838333Y-24235952D01*
X10847857Y-24226428D01*
X10847857Y-24245476D01*
X10981190Y-24045476D02*
X11000238Y-24045476D01*
X11019286Y-24055000D01*
X11028810Y-24064524D01*
X11038333Y-24083571D01*
X11047857Y-24121667D01*
X11047857Y-24169286D01*
X11038333Y-24207381D01*
X11028810Y-24226428D01*
X11019286Y-24235952D01*
X11000238Y-24245476D01*
X10981190Y-24245476D01*
X10962143Y-24235952D01*
X10952619Y-24226428D01*
X10943095Y-24207381D01*
X10933571Y-24169286D01*
X10933571Y-24121667D01*
X10943095Y-24083571D01*
X10952619Y-24064524D01*
X10962143Y-24055000D01*
X10981190Y-24045476D01*
X11219286Y-24112143D02*
X11219286Y-24245476D01*
X11171667Y-24035952D02*
X11124048Y-24178809D01*
X11247857Y-24178809D01*
X11305000Y-24045476D02*
X11428809Y-24045476D01*
X11362143Y-24121667D01*
X11390714Y-24121667D01*
X11409762Y-24131190D01*
X11419286Y-24140714D01*
X11428809Y-24159762D01*
X11428809Y-24207381D01*
X11419286Y-24226428D01*
X11409762Y-24235952D01*
X11390714Y-24245476D01*
X11333571Y-24245476D01*
X11314524Y-24235952D01*
X11305000Y-24226428D01*
X11495476Y-24045476D02*
X11619286Y-24045476D01*
X11552619Y-24121667D01*
X11581190Y-24121667D01*
X11600238Y-24131190D01*
X11609762Y-24140714D01*
X11619286Y-24159762D01*
X11619286Y-24207381D01*
X11609762Y-24226428D01*
X11600238Y-24235952D01*
X11581190Y-24245476D01*
X11524048Y-24245476D01*
X11505000Y-24235952D01*
X11495476Y-24226428D01*
X11695476Y-24045476D02*
X11695476Y-24083571D01*
X11771667Y-24045476D02*
X11771667Y-24083571D01*
X12066905Y-24321667D02*
X12057381Y-24312143D01*
X12038333Y-24283571D01*
X12028809Y-24264524D01*
X12019286Y-24235952D01*
X12009762Y-24188333D01*
X12009762Y-24150238D01*
X12019286Y-24102619D01*
X12028809Y-24074048D01*
X12038333Y-24055000D01*
X12057381Y-24026428D01*
X12066905Y-24016905D01*
X12228809Y-24112143D02*
X12228809Y-24245476D01*
X12181190Y-24035952D02*
X12133571Y-24178809D01*
X12257381Y-24178809D01*
X12485952Y-24245476D02*
X12485952Y-24045476D01*
X12571667Y-24245476D02*
X12571667Y-24140714D01*
X12562143Y-24121667D01*
X12543095Y-24112143D01*
X12514524Y-24112143D01*
X12495476Y-24121667D01*
X12485952Y-24131190D01*
X12695476Y-24245476D02*
X12676428Y-24235952D01*
X12666905Y-24226428D01*
X12657381Y-24207381D01*
X12657381Y-24150238D01*
X12666905Y-24131190D01*
X12676428Y-24121667D01*
X12695476Y-24112143D01*
X12724048Y-24112143D01*
X12743095Y-24121667D01*
X12752619Y-24131190D01*
X12762143Y-24150238D01*
X12762143Y-24207381D01*
X12752619Y-24226428D01*
X12743095Y-24235952D01*
X12724048Y-24245476D01*
X12695476Y-24245476D01*
X12876428Y-24245476D02*
X12857381Y-24235952D01*
X12847857Y-24216905D01*
X12847857Y-24045476D01*
X13028809Y-24235952D02*
X13009762Y-24245476D01*
X12971667Y-24245476D01*
X12952619Y-24235952D01*
X12943095Y-24216905D01*
X12943095Y-24140714D01*
X12952619Y-24121667D01*
X12971667Y-24112143D01*
X13009762Y-24112143D01*
X13028809Y-24121667D01*
X13038333Y-24140714D01*
X13038333Y-24159762D01*
X12943095Y-24178809D01*
X13114524Y-24235952D02*
X13133571Y-24245476D01*
X13171667Y-24245476D01*
X13190714Y-24235952D01*
X13200238Y-24216905D01*
X13200238Y-24207381D01*
X13190714Y-24188333D01*
X13171667Y-24178809D01*
X13143095Y-24178809D01*
X13124048Y-24169286D01*
X13114524Y-24150238D01*
X13114524Y-24140714D01*
X13124048Y-24121667D01*
X13143095Y-24112143D01*
X13171667Y-24112143D01*
X13190714Y-24121667D01*
X13266905Y-24321667D02*
X13276428Y-24312143D01*
X13295476Y-24283571D01*
X13305000Y-24264524D01*
X13314524Y-24235952D01*
X13324048Y-24188333D01*
X13324048Y-24150238D01*
X13314524Y-24102619D01*
X13305000Y-24074048D01*
X13295476Y-24055000D01*
X13276428Y-24026428D01*
X13266905Y-24016905D01*
X13628809Y-24321667D02*
X13619286Y-24312143D01*
X13600238Y-24283571D01*
X13590714Y-24264524D01*
X13581190Y-24235952D01*
X13571667Y-24188333D01*
X13571667Y-24150238D01*
X13581190Y-24102619D01*
X13590714Y-24074048D01*
X13600238Y-24055000D01*
X13619286Y-24026428D01*
X13628809Y-24016905D01*
X13705000Y-24112143D02*
X13705000Y-24245476D01*
X13705000Y-24131190D02*
X13714524Y-24121667D01*
X13733571Y-24112143D01*
X13762143Y-24112143D01*
X13781190Y-24121667D01*
X13790714Y-24140714D01*
X13790714Y-24245476D01*
X13914524Y-24245476D02*
X13895476Y-24235952D01*
X13885952Y-24226428D01*
X13876428Y-24207381D01*
X13876428Y-24150238D01*
X13885952Y-24131190D01*
X13895476Y-24121667D01*
X13914524Y-24112143D01*
X13943095Y-24112143D01*
X13962143Y-24121667D01*
X13971667Y-24131190D01*
X13981190Y-24150238D01*
X13981190Y-24207381D01*
X13971667Y-24226428D01*
X13962143Y-24235952D01*
X13943095Y-24245476D01*
X13914524Y-24245476D01*
X14038333Y-24112143D02*
X14114524Y-24112143D01*
X14066905Y-24045476D02*
X14066905Y-24216905D01*
X14076428Y-24235952D01*
X14095476Y-24245476D01*
X14114524Y-24245476D01*
X14333571Y-24112143D02*
X14333571Y-24312143D01*
X14333571Y-24121667D02*
X14352619Y-24112143D01*
X14390714Y-24112143D01*
X14409762Y-24121667D01*
X14419286Y-24131190D01*
X14428809Y-24150238D01*
X14428809Y-24207381D01*
X14419286Y-24226428D01*
X14409762Y-24235952D01*
X14390714Y-24245476D01*
X14352619Y-24245476D01*
X14333571Y-24235952D01*
X14543095Y-24245476D02*
X14524048Y-24235952D01*
X14514524Y-24216905D01*
X14514524Y-24045476D01*
X14705000Y-24245476D02*
X14705000Y-24140714D01*
X14695476Y-24121667D01*
X14676428Y-24112143D01*
X14638333Y-24112143D01*
X14619286Y-24121667D01*
X14705000Y-24235952D02*
X14685952Y-24245476D01*
X14638333Y-24245476D01*
X14619286Y-24235952D01*
X14609762Y-24216905D01*
X14609762Y-24197857D01*
X14619286Y-24178809D01*
X14638333Y-24169286D01*
X14685952Y-24169286D01*
X14705000Y-24159762D01*
X14771667Y-24112143D02*
X14847857Y-24112143D01*
X14800238Y-24045476D02*
X14800238Y-24216905D01*
X14809762Y-24235952D01*
X14828809Y-24245476D01*
X14847857Y-24245476D01*
X14990714Y-24235952D02*
X14971667Y-24245476D01*
X14933571Y-24245476D01*
X14914524Y-24235952D01*
X14905000Y-24216905D01*
X14905000Y-24140714D01*
X14914524Y-24121667D01*
X14933571Y-24112143D01*
X14971667Y-24112143D01*
X14990714Y-24121667D01*
X15000238Y-24140714D01*
X15000238Y-24159762D01*
X14905000Y-24178809D01*
X15171667Y-24245476D02*
X15171667Y-24045476D01*
X15171667Y-24235952D02*
X15152619Y-24245476D01*
X15114524Y-24245476D01*
X15095476Y-24235952D01*
X15085952Y-24226428D01*
X15076428Y-24207381D01*
X15076428Y-24150238D01*
X15085952Y-24131190D01*
X15095476Y-24121667D01*
X15114524Y-24112143D01*
X15152619Y-24112143D01*
X15171667Y-24121667D01*
X15247857Y-24321667D02*
X15257381Y-24312143D01*
X15276428Y-24283571D01*
X15285952Y-24264524D01*
X15295476Y-24235952D01*
X15305000Y-24188333D01*
X15305000Y-24150238D01*
X15295476Y-24102619D01*
X15285952Y-24074048D01*
X15276428Y-24055000D01*
X15257381Y-24026428D01*
X15247857Y-24016905D01*
D13*
X8495000Y-24419000D02*
G75*
G03*
X8495000Y-24419000I-75000J0D01*
G01*
D11*
X8857381Y-24509476D02*
X8743095Y-24509476D01*
X8800238Y-24509476D02*
X8800238Y-24309476D01*
X8781190Y-24338048D01*
X8762143Y-24357095D01*
X8743095Y-24366619D01*
X8943095Y-24490428D02*
X8952619Y-24499952D01*
X8943095Y-24509476D01*
X8933571Y-24499952D01*
X8943095Y-24490428D01*
X8943095Y-24509476D01*
X9133571Y-24309476D02*
X9038333Y-24309476D01*
X9028810Y-24404714D01*
X9038333Y-24395190D01*
X9057381Y-24385667D01*
X9105000Y-24385667D01*
X9124048Y-24395190D01*
X9133571Y-24404714D01*
X9143095Y-24423762D01*
X9143095Y-24471381D01*
X9133571Y-24490428D01*
X9124048Y-24499952D01*
X9105000Y-24509476D01*
X9057381Y-24509476D01*
X9038333Y-24499952D01*
X9028810Y-24490428D01*
X9266905Y-24309476D02*
X9285952Y-24309476D01*
X9305000Y-24319000D01*
X9314524Y-24328524D01*
X9324048Y-24347571D01*
X9333571Y-24385667D01*
X9333571Y-24433286D01*
X9324048Y-24471381D01*
X9314524Y-24490428D01*
X9305000Y-24499952D01*
X9285952Y-24509476D01*
X9266905Y-24509476D01*
X9247857Y-24499952D01*
X9238333Y-24490428D01*
X9228810Y-24471381D01*
X9219286Y-24433286D01*
X9219286Y-24385667D01*
X9228810Y-24347571D01*
X9238333Y-24328524D01*
X9247857Y-24319000D01*
X9266905Y-24309476D01*
X9457381Y-24309476D02*
X9476429Y-24309476D01*
X9495476Y-24319000D01*
X9505000Y-24328524D01*
X9514524Y-24347571D01*
X9524048Y-24385667D01*
X9524048Y-24433286D01*
X9514524Y-24471381D01*
X9505000Y-24490428D01*
X9495476Y-24499952D01*
X9476429Y-24509476D01*
X9457381Y-24509476D01*
X9438333Y-24499952D01*
X9428810Y-24490428D01*
X9419286Y-24471381D01*
X9409762Y-24433286D01*
X9409762Y-24385667D01*
X9419286Y-24347571D01*
X9428810Y-24328524D01*
X9438333Y-24319000D01*
X9457381Y-24309476D01*
X9609762Y-24509476D02*
X9609762Y-24376143D01*
X9609762Y-24395190D02*
X9619286Y-24385667D01*
X9638333Y-24376143D01*
X9666905Y-24376143D01*
X9685952Y-24385667D01*
X9695476Y-24404714D01*
X9695476Y-24509476D01*
X9695476Y-24404714D02*
X9705000Y-24385667D01*
X9724048Y-24376143D01*
X9752619Y-24376143D01*
X9771667Y-24385667D01*
X9781190Y-24404714D01*
X9781190Y-24509476D01*
X9876429Y-24509476D02*
X9876429Y-24376143D01*
X9876429Y-24395190D02*
X9885952Y-24385667D01*
X9905000Y-24376143D01*
X9933571Y-24376143D01*
X9952619Y-24385667D01*
X9962143Y-24404714D01*
X9962143Y-24509476D01*
X9962143Y-24404714D02*
X9971667Y-24385667D01*
X9990714Y-24376143D01*
X10019286Y-24376143D01*
X10038333Y-24385667D01*
X10047857Y-24404714D01*
X10047857Y-24509476D01*
X10438333Y-24299952D02*
X10266905Y-24557095D01*
X10695476Y-24309476D02*
X10714524Y-24309476D01*
X10733571Y-24319000D01*
X10743095Y-24328524D01*
X10752619Y-24347571D01*
X10762143Y-24385667D01*
X10762143Y-24433286D01*
X10752619Y-24471381D01*
X10743095Y-24490428D01*
X10733571Y-24499952D01*
X10714524Y-24509476D01*
X10695476Y-24509476D01*
X10676429Y-24499952D01*
X10666905Y-24490428D01*
X10657381Y-24471381D01*
X10647857Y-24433286D01*
X10647857Y-24385667D01*
X10657381Y-24347571D01*
X10666905Y-24328524D01*
X10676429Y-24319000D01*
X10695476Y-24309476D01*
X10847857Y-24490428D02*
X10857381Y-24499952D01*
X10847857Y-24509476D01*
X10838333Y-24499952D01*
X10847857Y-24490428D01*
X10847857Y-24509476D01*
X10981190Y-24309476D02*
X11000238Y-24309476D01*
X11019286Y-24319000D01*
X11028810Y-24328524D01*
X11038333Y-24347571D01*
X11047857Y-24385667D01*
X11047857Y-24433286D01*
X11038333Y-24471381D01*
X11028810Y-24490428D01*
X11019286Y-24499952D01*
X11000238Y-24509476D01*
X10981190Y-24509476D01*
X10962143Y-24499952D01*
X10952619Y-24490428D01*
X10943095Y-24471381D01*
X10933571Y-24433286D01*
X10933571Y-24385667D01*
X10943095Y-24347571D01*
X10952619Y-24328524D01*
X10962143Y-24319000D01*
X10981190Y-24309476D01*
X11228809Y-24309476D02*
X11133571Y-24309476D01*
X11124048Y-24404714D01*
X11133571Y-24395190D01*
X11152619Y-24385667D01*
X11200238Y-24385667D01*
X11219286Y-24395190D01*
X11228809Y-24404714D01*
X11238333Y-24423762D01*
X11238333Y-24471381D01*
X11228809Y-24490428D01*
X11219286Y-24499952D01*
X11200238Y-24509476D01*
X11152619Y-24509476D01*
X11133571Y-24499952D01*
X11124048Y-24490428D01*
X11333571Y-24509476D02*
X11371667Y-24509476D01*
X11390714Y-24499952D01*
X11400238Y-24490428D01*
X11419286Y-24461857D01*
X11428809Y-24423762D01*
X11428809Y-24347571D01*
X11419286Y-24328524D01*
X11409762Y-24319000D01*
X11390714Y-24309476D01*
X11352619Y-24309476D01*
X11333571Y-24319000D01*
X11324048Y-24328524D01*
X11314524Y-24347571D01*
X11314524Y-24395190D01*
X11324048Y-24414238D01*
X11333571Y-24423762D01*
X11352619Y-24433286D01*
X11390714Y-24433286D01*
X11409762Y-24423762D01*
X11419286Y-24414238D01*
X11428809Y-24395190D01*
X11619286Y-24509476D02*
X11505000Y-24509476D01*
X11562143Y-24509476D02*
X11562143Y-24309476D01*
X11543095Y-24338048D01*
X11524048Y-24357095D01*
X11505000Y-24366619D01*
X11695476Y-24309476D02*
X11695476Y-24347571D01*
X11771667Y-24309476D02*
X11771667Y-24347571D01*
X12066905Y-24585667D02*
X12057381Y-24576143D01*
X12038333Y-24547571D01*
X12028809Y-24528524D01*
X12019286Y-24499952D01*
X12009762Y-24452333D01*
X12009762Y-24414238D01*
X12019286Y-24366619D01*
X12028809Y-24338048D01*
X12038333Y-24319000D01*
X12057381Y-24290428D01*
X12066905Y-24280905D01*
X12228809Y-24376143D02*
X12228809Y-24509476D01*
X12181190Y-24299952D02*
X12133571Y-24442809D01*
X12257381Y-24442809D01*
X12485952Y-24509476D02*
X12485952Y-24309476D01*
X12571667Y-24509476D02*
X12571667Y-24404714D01*
X12562143Y-24385667D01*
X12543095Y-24376143D01*
X12514524Y-24376143D01*
X12495476Y-24385667D01*
X12485952Y-24395190D01*
X12695476Y-24509476D02*
X12676428Y-24499952D01*
X12666905Y-24490428D01*
X12657381Y-24471381D01*
X12657381Y-24414238D01*
X12666905Y-24395190D01*
X12676428Y-24385667D01*
X12695476Y-24376143D01*
X12724048Y-24376143D01*
X12743095Y-24385667D01*
X12752619Y-24395190D01*
X12762143Y-24414238D01*
X12762143Y-24471381D01*
X12752619Y-24490428D01*
X12743095Y-24499952D01*
X12724048Y-24509476D01*
X12695476Y-24509476D01*
X12876428Y-24509476D02*
X12857381Y-24499952D01*
X12847857Y-24480905D01*
X12847857Y-24309476D01*
X13028809Y-24499952D02*
X13009762Y-24509476D01*
X12971667Y-24509476D01*
X12952619Y-24499952D01*
X12943095Y-24480905D01*
X12943095Y-24404714D01*
X12952619Y-24385667D01*
X12971667Y-24376143D01*
X13009762Y-24376143D01*
X13028809Y-24385667D01*
X13038333Y-24404714D01*
X13038333Y-24423762D01*
X12943095Y-24442809D01*
X13114524Y-24499952D02*
X13133571Y-24509476D01*
X13171667Y-24509476D01*
X13190714Y-24499952D01*
X13200238Y-24480905D01*
X13200238Y-24471381D01*
X13190714Y-24452333D01*
X13171667Y-24442809D01*
X13143095Y-24442809D01*
X13124048Y-24433286D01*
X13114524Y-24414238D01*
X13114524Y-24404714D01*
X13124048Y-24385667D01*
X13143095Y-24376143D01*
X13171667Y-24376143D01*
X13190714Y-24385667D01*
X13266905Y-24585667D02*
X13276428Y-24576143D01*
X13295476Y-24547571D01*
X13305000Y-24528524D01*
X13314524Y-24499952D01*
X13324048Y-24452333D01*
X13324048Y-24414238D01*
X13314524Y-24366619D01*
X13305000Y-24338048D01*
X13295476Y-24319000D01*
X13276428Y-24290428D01*
X13266905Y-24280905D01*
X13628809Y-24585667D02*
X13619286Y-24576143D01*
X13600238Y-24547571D01*
X13590714Y-24528524D01*
X13581190Y-24499952D01*
X13571667Y-24452333D01*
X13571667Y-24414238D01*
X13581190Y-24366619D01*
X13590714Y-24338048D01*
X13600238Y-24319000D01*
X13619286Y-24290428D01*
X13628809Y-24280905D01*
X13705000Y-24376143D02*
X13705000Y-24509476D01*
X13705000Y-24395190D02*
X13714524Y-24385667D01*
X13733571Y-24376143D01*
X13762143Y-24376143D01*
X13781190Y-24385667D01*
X13790714Y-24404714D01*
X13790714Y-24509476D01*
X13914524Y-24509476D02*
X13895476Y-24499952D01*
X13885952Y-24490428D01*
X13876428Y-24471381D01*
X13876428Y-24414238D01*
X13885952Y-24395190D01*
X13895476Y-24385667D01*
X13914524Y-24376143D01*
X13943095Y-24376143D01*
X13962143Y-24385667D01*
X13971667Y-24395190D01*
X13981190Y-24414238D01*
X13981190Y-24471381D01*
X13971667Y-24490428D01*
X13962143Y-24499952D01*
X13943095Y-24509476D01*
X13914524Y-24509476D01*
X14038333Y-24376143D02*
X14114524Y-24376143D01*
X14066905Y-24309476D02*
X14066905Y-24480905D01*
X14076428Y-24499952D01*
X14095476Y-24509476D01*
X14114524Y-24509476D01*
X14333571Y-24376143D02*
X14333571Y-24576143D01*
X14333571Y-24385667D02*
X14352619Y-24376143D01*
X14390714Y-24376143D01*
X14409762Y-24385667D01*
X14419286Y-24395190D01*
X14428809Y-24414238D01*
X14428809Y-24471381D01*
X14419286Y-24490428D01*
X14409762Y-24499952D01*
X14390714Y-24509476D01*
X14352619Y-24509476D01*
X14333571Y-24499952D01*
X14543095Y-24509476D02*
X14524048Y-24499952D01*
X14514524Y-24480905D01*
X14514524Y-24309476D01*
X14705000Y-24509476D02*
X14705000Y-24404714D01*
X14695476Y-24385667D01*
X14676428Y-24376143D01*
X14638333Y-24376143D01*
X14619286Y-24385667D01*
X14705000Y-24499952D02*
X14685952Y-24509476D01*
X14638333Y-24509476D01*
X14619286Y-24499952D01*
X14609762Y-24480905D01*
X14609762Y-24461857D01*
X14619286Y-24442809D01*
X14638333Y-24433286D01*
X14685952Y-24433286D01*
X14705000Y-24423762D01*
X14771667Y-24376143D02*
X14847857Y-24376143D01*
X14800238Y-24309476D02*
X14800238Y-24480905D01*
X14809762Y-24499952D01*
X14828809Y-24509476D01*
X14847857Y-24509476D01*
X14990714Y-24499952D02*
X14971667Y-24509476D01*
X14933571Y-24509476D01*
X14914524Y-24499952D01*
X14905000Y-24480905D01*
X14905000Y-24404714D01*
X14914524Y-24385667D01*
X14933571Y-24376143D01*
X14971667Y-24376143D01*
X14990714Y-24385667D01*
X15000238Y-24404714D01*
X15000238Y-24423762D01*
X14905000Y-24442809D01*
X15171667Y-24509476D02*
X15171667Y-24309476D01*
X15171667Y-24499952D02*
X15152619Y-24509476D01*
X15114524Y-24509476D01*
X15095476Y-24499952D01*
X15085952Y-24490428D01*
X15076428Y-24471381D01*
X15076428Y-24414238D01*
X15085952Y-24395190D01*
X15095476Y-24385667D01*
X15114524Y-24376143D01*
X15152619Y-24376143D01*
X15171667Y-24385667D01*
X15247857Y-24585667D02*
X15257381Y-24576143D01*
X15276428Y-24547571D01*
X15285952Y-24528524D01*
X15295476Y-24499952D01*
X15305000Y-24452333D01*
X15305000Y-24414238D01*
X15295476Y-24366619D01*
X15285952Y-24338048D01*
X15276428Y-24319000D01*
X15257381Y-24290428D01*
X15247857Y-24280905D01*
D14*
X8410000Y-24604000D02*
X8410000Y-24774000D01*
X8325000Y-24689000D02*
X8495000Y-24689000D01*
D11*
X8857381Y-24779476D02*
X8743095Y-24779476D01*
X8800238Y-24779476D02*
X8800238Y-24579476D01*
X8781190Y-24608048D01*
X8762143Y-24627095D01*
X8743095Y-24636619D01*
X8943095Y-24760428D02*
X8952619Y-24769952D01*
X8943095Y-24779476D01*
X8933571Y-24769952D01*
X8943095Y-24760428D01*
X8943095Y-24779476D01*
X9019286Y-24579476D02*
X9152619Y-24579476D01*
X9066905Y-24779476D01*
X9266905Y-24579476D02*
X9285952Y-24579476D01*
X9305000Y-24589000D01*
X9314524Y-24598524D01*
X9324048Y-24617571D01*
X9333571Y-24655667D01*
X9333571Y-24703286D01*
X9324048Y-24741381D01*
X9314524Y-24760428D01*
X9305000Y-24769952D01*
X9285952Y-24779476D01*
X9266905Y-24779476D01*
X9247857Y-24769952D01*
X9238333Y-24760428D01*
X9228810Y-24741381D01*
X9219286Y-24703286D01*
X9219286Y-24655667D01*
X9228810Y-24617571D01*
X9238333Y-24598524D01*
X9247857Y-24589000D01*
X9266905Y-24579476D01*
X9457381Y-24579476D02*
X9476429Y-24579476D01*
X9495476Y-24589000D01*
X9505000Y-24598524D01*
X9514524Y-24617571D01*
X9524048Y-24655667D01*
X9524048Y-24703286D01*
X9514524Y-24741381D01*
X9505000Y-24760428D01*
X9495476Y-24769952D01*
X9476429Y-24779476D01*
X9457381Y-24779476D01*
X9438333Y-24769952D01*
X9428810Y-24760428D01*
X9419286Y-24741381D01*
X9409762Y-24703286D01*
X9409762Y-24655667D01*
X9419286Y-24617571D01*
X9428810Y-24598524D01*
X9438333Y-24589000D01*
X9457381Y-24579476D01*
X9609762Y-24779476D02*
X9609762Y-24646143D01*
X9609762Y-24665190D02*
X9619286Y-24655667D01*
X9638333Y-24646143D01*
X9666905Y-24646143D01*
X9685952Y-24655667D01*
X9695476Y-24674714D01*
X9695476Y-24779476D01*
X9695476Y-24674714D02*
X9705000Y-24655667D01*
X9724048Y-24646143D01*
X9752619Y-24646143D01*
X9771667Y-24655667D01*
X9781190Y-24674714D01*
X9781190Y-24779476D01*
X9876429Y-24779476D02*
X9876429Y-24646143D01*
X9876429Y-24665190D02*
X9885952Y-24655667D01*
X9905000Y-24646143D01*
X9933571Y-24646143D01*
X9952619Y-24655667D01*
X9962143Y-24674714D01*
X9962143Y-24779476D01*
X9962143Y-24674714D02*
X9971667Y-24655667D01*
X9990714Y-24646143D01*
X10019286Y-24646143D01*
X10038333Y-24655667D01*
X10047857Y-24674714D01*
X10047857Y-24779476D01*
X10438333Y-24569952D02*
X10266905Y-24827095D01*
X10695476Y-24579476D02*
X10714524Y-24579476D01*
X10733571Y-24589000D01*
X10743095Y-24598524D01*
X10752619Y-24617571D01*
X10762143Y-24655667D01*
X10762143Y-24703286D01*
X10752619Y-24741381D01*
X10743095Y-24760428D01*
X10733571Y-24769952D01*
X10714524Y-24779476D01*
X10695476Y-24779476D01*
X10676429Y-24769952D01*
X10666905Y-24760428D01*
X10657381Y-24741381D01*
X10647857Y-24703286D01*
X10647857Y-24655667D01*
X10657381Y-24617571D01*
X10666905Y-24598524D01*
X10676429Y-24589000D01*
X10695476Y-24579476D01*
X10847857Y-24760428D02*
X10857381Y-24769952D01*
X10847857Y-24779476D01*
X10838333Y-24769952D01*
X10847857Y-24760428D01*
X10847857Y-24779476D01*
X10981190Y-24579476D02*
X11000238Y-24579476D01*
X11019286Y-24589000D01*
X11028810Y-24598524D01*
X11038333Y-24617571D01*
X11047857Y-24655667D01*
X11047857Y-24703286D01*
X11038333Y-24741381D01*
X11028810Y-24760428D01*
X11019286Y-24769952D01*
X11000238Y-24779476D01*
X10981190Y-24779476D01*
X10962143Y-24769952D01*
X10952619Y-24760428D01*
X10943095Y-24741381D01*
X10933571Y-24703286D01*
X10933571Y-24655667D01*
X10943095Y-24617571D01*
X10952619Y-24598524D01*
X10962143Y-24589000D01*
X10981190Y-24579476D01*
X11219286Y-24579476D02*
X11181190Y-24579476D01*
X11162143Y-24589000D01*
X11152619Y-24598524D01*
X11133571Y-24627095D01*
X11124048Y-24665190D01*
X11124048Y-24741381D01*
X11133571Y-24760428D01*
X11143095Y-24769952D01*
X11162143Y-24779476D01*
X11200238Y-24779476D01*
X11219286Y-24769952D01*
X11228809Y-24760428D01*
X11238333Y-24741381D01*
X11238333Y-24693762D01*
X11228809Y-24674714D01*
X11219286Y-24665190D01*
X11200238Y-24655667D01*
X11162143Y-24655667D01*
X11143095Y-24665190D01*
X11133571Y-24674714D01*
X11124048Y-24693762D01*
X11409762Y-24579476D02*
X11371667Y-24579476D01*
X11352619Y-24589000D01*
X11343095Y-24598524D01*
X11324048Y-24627095D01*
X11314524Y-24665190D01*
X11314524Y-24741381D01*
X11324048Y-24760428D01*
X11333571Y-24769952D01*
X11352619Y-24779476D01*
X11390714Y-24779476D01*
X11409762Y-24769952D01*
X11419286Y-24760428D01*
X11428809Y-24741381D01*
X11428809Y-24693762D01*
X11419286Y-24674714D01*
X11409762Y-24665190D01*
X11390714Y-24655667D01*
X11352619Y-24655667D01*
X11333571Y-24665190D01*
X11324048Y-24674714D01*
X11314524Y-24693762D01*
X11524048Y-24779476D02*
X11562143Y-24779476D01*
X11581190Y-24769952D01*
X11590714Y-24760428D01*
X11609762Y-24731857D01*
X11619286Y-24693762D01*
X11619286Y-24617571D01*
X11609762Y-24598524D01*
X11600238Y-24589000D01*
X11581190Y-24579476D01*
X11543095Y-24579476D01*
X11524048Y-24589000D01*
X11514524Y-24598524D01*
X11505000Y-24617571D01*
X11505000Y-24665190D01*
X11514524Y-24684238D01*
X11524048Y-24693762D01*
X11543095Y-24703286D01*
X11581190Y-24703286D01*
X11600238Y-24693762D01*
X11609762Y-24684238D01*
X11619286Y-24665190D01*
X11695476Y-24579476D02*
X11695476Y-24617571D01*
X11771667Y-24579476D02*
X11771667Y-24617571D01*
X12066905Y-24855667D02*
X12057381Y-24846143D01*
X12038333Y-24817571D01*
X12028809Y-24798524D01*
X12019286Y-24769952D01*
X12009762Y-24722333D01*
X12009762Y-24684238D01*
X12019286Y-24636619D01*
X12028809Y-24608048D01*
X12038333Y-24589000D01*
X12057381Y-24560428D01*
X12066905Y-24550905D01*
X12247857Y-24779476D02*
X12133571Y-24779476D01*
X12190714Y-24779476D02*
X12190714Y-24579476D01*
X12171667Y-24608048D01*
X12152619Y-24627095D01*
X12133571Y-24636619D01*
X12362143Y-24665190D02*
X12343095Y-24655667D01*
X12333571Y-24646143D01*
X12324048Y-24627095D01*
X12324048Y-24617571D01*
X12333571Y-24598524D01*
X12343095Y-24589000D01*
X12362143Y-24579476D01*
X12400238Y-24579476D01*
X12419286Y-24589000D01*
X12428809Y-24598524D01*
X12438333Y-24617571D01*
X12438333Y-24627095D01*
X12428809Y-24646143D01*
X12419286Y-24655667D01*
X12400238Y-24665190D01*
X12362143Y-24665190D01*
X12343095Y-24674714D01*
X12333571Y-24684238D01*
X12324048Y-24703286D01*
X12324048Y-24741381D01*
X12333571Y-24760428D01*
X12343095Y-24769952D01*
X12362143Y-24779476D01*
X12400238Y-24779476D01*
X12419286Y-24769952D01*
X12428809Y-24760428D01*
X12438333Y-24741381D01*
X12438333Y-24703286D01*
X12428809Y-24684238D01*
X12419286Y-24674714D01*
X12400238Y-24665190D01*
X12552619Y-24665190D02*
X12533571Y-24655667D01*
X12524048Y-24646143D01*
X12514524Y-24627095D01*
X12514524Y-24617571D01*
X12524048Y-24598524D01*
X12533571Y-24589000D01*
X12552619Y-24579476D01*
X12590714Y-24579476D01*
X12609762Y-24589000D01*
X12619286Y-24598524D01*
X12628809Y-24617571D01*
X12628809Y-24627095D01*
X12619286Y-24646143D01*
X12609762Y-24655667D01*
X12590714Y-24665190D01*
X12552619Y-24665190D01*
X12533571Y-24674714D01*
X12524048Y-24684238D01*
X12514524Y-24703286D01*
X12514524Y-24741381D01*
X12524048Y-24760428D01*
X12533571Y-24769952D01*
X12552619Y-24779476D01*
X12590714Y-24779476D01*
X12609762Y-24769952D01*
X12619286Y-24760428D01*
X12628809Y-24741381D01*
X12628809Y-24703286D01*
X12619286Y-24684238D01*
X12609762Y-24674714D01*
X12590714Y-24665190D01*
X12866905Y-24779476D02*
X12866905Y-24579476D01*
X12952619Y-24779476D02*
X12952619Y-24674714D01*
X12943095Y-24655667D01*
X12924048Y-24646143D01*
X12895476Y-24646143D01*
X12876428Y-24655667D01*
X12866905Y-24665190D01*
X13076428Y-24779476D02*
X13057381Y-24769952D01*
X13047857Y-24760428D01*
X13038333Y-24741381D01*
X13038333Y-24684238D01*
X13047857Y-24665190D01*
X13057381Y-24655667D01*
X13076428Y-24646143D01*
X13105000Y-24646143D01*
X13124048Y-24655667D01*
X13133571Y-24665190D01*
X13143095Y-24684238D01*
X13143095Y-24741381D01*
X13133571Y-24760428D01*
X13124048Y-24769952D01*
X13105000Y-24779476D01*
X13076428Y-24779476D01*
X13257381Y-24779476D02*
X13238333Y-24769952D01*
X13228809Y-24750905D01*
X13228809Y-24579476D01*
X13409762Y-24769952D02*
X13390714Y-24779476D01*
X13352619Y-24779476D01*
X13333571Y-24769952D01*
X13324048Y-24750905D01*
X13324048Y-24674714D01*
X13333571Y-24655667D01*
X13352619Y-24646143D01*
X13390714Y-24646143D01*
X13409762Y-24655667D01*
X13419286Y-24674714D01*
X13419286Y-24693762D01*
X13324048Y-24712809D01*
X13495476Y-24769952D02*
X13514524Y-24779476D01*
X13552619Y-24779476D01*
X13571667Y-24769952D01*
X13581190Y-24750905D01*
X13581190Y-24741381D01*
X13571667Y-24722333D01*
X13552619Y-24712809D01*
X13524048Y-24712809D01*
X13505000Y-24703286D01*
X13495476Y-24684238D01*
X13495476Y-24674714D01*
X13505000Y-24655667D01*
X13524048Y-24646143D01*
X13552619Y-24646143D01*
X13571667Y-24655667D01*
X13647857Y-24855667D02*
X13657381Y-24846143D01*
X13676428Y-24817571D01*
X13685952Y-24798524D01*
X13695476Y-24769952D01*
X13705000Y-24722333D01*
X13705000Y-24684238D01*
X13695476Y-24636619D01*
X13685952Y-24608048D01*
X13676428Y-24589000D01*
X13657381Y-24560428D01*
X13647857Y-24550905D01*
X14009762Y-24855667D02*
X14000238Y-24846143D01*
X13981190Y-24817571D01*
X13971667Y-24798524D01*
X13962143Y-24769952D01*
X13952619Y-24722333D01*
X13952619Y-24684238D01*
X13962143Y-24636619D01*
X13971667Y-24608048D01*
X13981190Y-24589000D01*
X14000238Y-24560428D01*
X14009762Y-24550905D01*
X14085952Y-24646143D02*
X14085952Y-24779476D01*
X14085952Y-24665190D02*
X14095476Y-24655667D01*
X14114524Y-24646143D01*
X14143095Y-24646143D01*
X14162143Y-24655667D01*
X14171667Y-24674714D01*
X14171667Y-24779476D01*
X14295476Y-24779476D02*
X14276428Y-24769952D01*
X14266905Y-24760428D01*
X14257381Y-24741381D01*
X14257381Y-24684238D01*
X14266905Y-24665190D01*
X14276428Y-24655667D01*
X14295476Y-24646143D01*
X14324048Y-24646143D01*
X14343095Y-24655667D01*
X14352619Y-24665190D01*
X14362143Y-24684238D01*
X14362143Y-24741381D01*
X14352619Y-24760428D01*
X14343095Y-24769952D01*
X14324048Y-24779476D01*
X14295476Y-24779476D01*
X14419286Y-24646143D02*
X14495476Y-24646143D01*
X14447857Y-24579476D02*
X14447857Y-24750905D01*
X14457381Y-24769952D01*
X14476428Y-24779476D01*
X14495476Y-24779476D01*
X14714524Y-24646143D02*
X14714524Y-24846143D01*
X14714524Y-24655667D02*
X14733571Y-24646143D01*
X14771667Y-24646143D01*
X14790714Y-24655667D01*
X14800238Y-24665190D01*
X14809762Y-24684238D01*
X14809762Y-24741381D01*
X14800238Y-24760428D01*
X14790714Y-24769952D01*
X14771667Y-24779476D01*
X14733571Y-24779476D01*
X14714524Y-24769952D01*
X14924048Y-24779476D02*
X14905000Y-24769952D01*
X14895476Y-24750905D01*
X14895476Y-24579476D01*
X15085952Y-24779476D02*
X15085952Y-24674714D01*
X15076428Y-24655667D01*
X15057381Y-24646143D01*
X15019286Y-24646143D01*
X15000238Y-24655667D01*
X15085952Y-24769952D02*
X15066905Y-24779476D01*
X15019286Y-24779476D01*
X15000238Y-24769952D01*
X14990714Y-24750905D01*
X14990714Y-24731857D01*
X15000238Y-24712809D01*
X15019286Y-24703286D01*
X15066905Y-24703286D01*
X15085952Y-24693762D01*
X15152619Y-24646143D02*
X15228809Y-24646143D01*
X15181190Y-24579476D02*
X15181190Y-24750905D01*
X15190714Y-24769952D01*
X15209762Y-24779476D01*
X15228809Y-24779476D01*
X15371667Y-24769952D02*
X15352619Y-24779476D01*
X15314524Y-24779476D01*
X15295476Y-24769952D01*
X15285952Y-24750905D01*
X15285952Y-24674714D01*
X15295476Y-24655667D01*
X15314524Y-24646143D01*
X15352619Y-24646143D01*
X15371667Y-24655667D01*
X15381190Y-24674714D01*
X15381190Y-24693762D01*
X15285952Y-24712809D01*
X15552619Y-24779476D02*
X15552619Y-24579476D01*
X15552619Y-24769952D02*
X15533571Y-24779476D01*
X15495476Y-24779476D01*
X15476428Y-24769952D01*
X15466905Y-24760428D01*
X15457381Y-24741381D01*
X15457381Y-24684238D01*
X15466905Y-24665190D01*
X15476428Y-24655667D01*
X15495476Y-24646143D01*
X15533571Y-24646143D01*
X15552619Y-24655667D01*
X15628809Y-24855667D02*
X15638333Y-24846143D01*
X15657381Y-24817571D01*
X15666905Y-24798524D01*
X15676428Y-24769952D01*
X15685952Y-24722333D01*
X15685952Y-24684238D01*
X15676428Y-24636619D01*
X15666905Y-24608048D01*
X15657381Y-24589000D01*
X15638333Y-24560428D01*
X15628809Y-24550905D01*
D15*
X8468640Y-25042640D02*
X8468640Y-24915360D01*
X8341360Y-24915360D01*
X8341360Y-25042640D01*
X8468640Y-25042640D01*
D11*
X8857381Y-25069476D02*
X8743095Y-25069476D01*
X8800238Y-25069476D02*
X8800238Y-24869476D01*
X8781190Y-24898048D01*
X8762143Y-24917095D01*
X8743095Y-24926619D01*
X8943095Y-25050428D02*
X8952619Y-25059952D01*
X8943095Y-25069476D01*
X8933571Y-25059952D01*
X8943095Y-25050428D01*
X8943095Y-25069476D01*
X9066905Y-24955190D02*
X9047857Y-24945667D01*
X9038333Y-24936143D01*
X9028810Y-24917095D01*
X9028810Y-24907571D01*
X9038333Y-24888524D01*
X9047857Y-24879000D01*
X9066905Y-24869476D01*
X9105000Y-24869476D01*
X9124048Y-24879000D01*
X9133571Y-24888524D01*
X9143095Y-24907571D01*
X9143095Y-24917095D01*
X9133571Y-24936143D01*
X9124048Y-24945667D01*
X9105000Y-24955190D01*
X9066905Y-24955190D01*
X9047857Y-24964714D01*
X9038333Y-24974238D01*
X9028810Y-24993286D01*
X9028810Y-25031381D01*
X9038333Y-25050428D01*
X9047857Y-25059952D01*
X9066905Y-25069476D01*
X9105000Y-25069476D01*
X9124048Y-25059952D01*
X9133571Y-25050428D01*
X9143095Y-25031381D01*
X9143095Y-24993286D01*
X9133571Y-24974238D01*
X9124048Y-24964714D01*
X9105000Y-24955190D01*
X9266905Y-24869476D02*
X9285952Y-24869476D01*
X9305000Y-24879000D01*
X9314524Y-24888524D01*
X9324048Y-24907571D01*
X9333571Y-24945667D01*
X9333571Y-24993286D01*
X9324048Y-25031381D01*
X9314524Y-25050428D01*
X9305000Y-25059952D01*
X9285952Y-25069476D01*
X9266905Y-25069476D01*
X9247857Y-25059952D01*
X9238333Y-25050428D01*
X9228810Y-25031381D01*
X9219286Y-24993286D01*
X9219286Y-24945667D01*
X9228810Y-24907571D01*
X9238333Y-24888524D01*
X9247857Y-24879000D01*
X9266905Y-24869476D01*
X9457381Y-24869476D02*
X9476429Y-24869476D01*
X9495476Y-24879000D01*
X9505000Y-24888524D01*
X9514524Y-24907571D01*
X9524048Y-24945667D01*
X9524048Y-24993286D01*
X9514524Y-25031381D01*
X9505000Y-25050428D01*
X9495476Y-25059952D01*
X9476429Y-25069476D01*
X9457381Y-25069476D01*
X9438333Y-25059952D01*
X9428810Y-25050428D01*
X9419286Y-25031381D01*
X9409762Y-24993286D01*
X9409762Y-24945667D01*
X9419286Y-24907571D01*
X9428810Y-24888524D01*
X9438333Y-24879000D01*
X9457381Y-24869476D01*
X9609762Y-25069476D02*
X9609762Y-24936143D01*
X9609762Y-24955190D02*
X9619286Y-24945667D01*
X9638333Y-24936143D01*
X9666905Y-24936143D01*
X9685952Y-24945667D01*
X9695476Y-24964714D01*
X9695476Y-25069476D01*
X9695476Y-24964714D02*
X9705000Y-24945667D01*
X9724048Y-24936143D01*
X9752619Y-24936143D01*
X9771667Y-24945667D01*
X9781190Y-24964714D01*
X9781190Y-25069476D01*
X9876429Y-25069476D02*
X9876429Y-24936143D01*
X9876429Y-24955190D02*
X9885952Y-24945667D01*
X9905000Y-24936143D01*
X9933571Y-24936143D01*
X9952619Y-24945667D01*
X9962143Y-24964714D01*
X9962143Y-25069476D01*
X9962143Y-24964714D02*
X9971667Y-24945667D01*
X9990714Y-24936143D01*
X10019286Y-24936143D01*
X10038333Y-24945667D01*
X10047857Y-24964714D01*
X10047857Y-25069476D01*
X10438333Y-24859952D02*
X10266905Y-25117095D01*
X10695476Y-24869476D02*
X10714524Y-24869476D01*
X10733571Y-24879000D01*
X10743095Y-24888524D01*
X10752619Y-24907571D01*
X10762143Y-24945667D01*
X10762143Y-24993286D01*
X10752619Y-25031381D01*
X10743095Y-25050428D01*
X10733571Y-25059952D01*
X10714524Y-25069476D01*
X10695476Y-25069476D01*
X10676429Y-25059952D01*
X10666905Y-25050428D01*
X10657381Y-25031381D01*
X10647857Y-24993286D01*
X10647857Y-24945667D01*
X10657381Y-24907571D01*
X10666905Y-24888524D01*
X10676429Y-24879000D01*
X10695476Y-24869476D01*
X10847857Y-25050428D02*
X10857381Y-25059952D01*
X10847857Y-25069476D01*
X10838333Y-25059952D01*
X10847857Y-25050428D01*
X10847857Y-25069476D01*
X10981190Y-24869476D02*
X11000238Y-24869476D01*
X11019286Y-24879000D01*
X11028810Y-24888524D01*
X11038333Y-24907571D01*
X11047857Y-24945667D01*
X11047857Y-24993286D01*
X11038333Y-25031381D01*
X11028810Y-25050428D01*
X11019286Y-25059952D01*
X11000238Y-25069476D01*
X10981190Y-25069476D01*
X10962143Y-25059952D01*
X10952619Y-25050428D01*
X10943095Y-25031381D01*
X10933571Y-24993286D01*
X10933571Y-24945667D01*
X10943095Y-24907571D01*
X10952619Y-24888524D01*
X10962143Y-24879000D01*
X10981190Y-24869476D01*
X11114524Y-24869476D02*
X11247857Y-24869476D01*
X11162143Y-25069476D01*
X11362143Y-24869476D02*
X11381190Y-24869476D01*
X11400238Y-24879000D01*
X11409762Y-24888524D01*
X11419286Y-24907571D01*
X11428809Y-24945667D01*
X11428809Y-24993286D01*
X11419286Y-25031381D01*
X11409762Y-25050428D01*
X11400238Y-25059952D01*
X11381190Y-25069476D01*
X11362143Y-25069476D01*
X11343095Y-25059952D01*
X11333571Y-25050428D01*
X11324048Y-25031381D01*
X11314524Y-24993286D01*
X11314524Y-24945667D01*
X11324048Y-24907571D01*
X11333571Y-24888524D01*
X11343095Y-24879000D01*
X11362143Y-24869476D01*
X11524048Y-25069476D02*
X11562143Y-25069476D01*
X11581190Y-25059952D01*
X11590714Y-25050428D01*
X11609762Y-25021857D01*
X11619286Y-24983762D01*
X11619286Y-24907571D01*
X11609762Y-24888524D01*
X11600238Y-24879000D01*
X11581190Y-24869476D01*
X11543095Y-24869476D01*
X11524048Y-24879000D01*
X11514524Y-24888524D01*
X11505000Y-24907571D01*
X11505000Y-24955190D01*
X11514524Y-24974238D01*
X11524048Y-24983762D01*
X11543095Y-24993286D01*
X11581190Y-24993286D01*
X11600238Y-24983762D01*
X11609762Y-24974238D01*
X11619286Y-24955190D01*
X11695476Y-24869476D02*
X11695476Y-24907571D01*
X11771667Y-24869476D02*
X11771667Y-24907571D01*
X12066905Y-25145667D02*
X12057381Y-25136143D01*
X12038333Y-25107571D01*
X12028809Y-25088524D01*
X12019286Y-25059952D01*
X12009762Y-25012333D01*
X12009762Y-24974238D01*
X12019286Y-24926619D01*
X12028809Y-24898048D01*
X12038333Y-24879000D01*
X12057381Y-24850428D01*
X12066905Y-24840905D01*
X12228809Y-24936143D02*
X12228809Y-25069476D01*
X12181190Y-24859952D02*
X12133571Y-25002809D01*
X12257381Y-25002809D01*
X12485952Y-25069476D02*
X12485952Y-24869476D01*
X12571667Y-25069476D02*
X12571667Y-24964714D01*
X12562143Y-24945667D01*
X12543095Y-24936143D01*
X12514524Y-24936143D01*
X12495476Y-24945667D01*
X12485952Y-24955190D01*
X12695476Y-25069476D02*
X12676428Y-25059952D01*
X12666905Y-25050428D01*
X12657381Y-25031381D01*
X12657381Y-24974238D01*
X12666905Y-24955190D01*
X12676428Y-24945667D01*
X12695476Y-24936143D01*
X12724048Y-24936143D01*
X12743095Y-24945667D01*
X12752619Y-24955190D01*
X12762143Y-24974238D01*
X12762143Y-25031381D01*
X12752619Y-25050428D01*
X12743095Y-25059952D01*
X12724048Y-25069476D01*
X12695476Y-25069476D01*
X12876428Y-25069476D02*
X12857381Y-25059952D01*
X12847857Y-25040905D01*
X12847857Y-24869476D01*
X13028809Y-25059952D02*
X13009762Y-25069476D01*
X12971667Y-25069476D01*
X12952619Y-25059952D01*
X12943095Y-25040905D01*
X12943095Y-24964714D01*
X12952619Y-24945667D01*
X12971667Y-24936143D01*
X13009762Y-24936143D01*
X13028809Y-24945667D01*
X13038333Y-24964714D01*
X13038333Y-24983762D01*
X12943095Y-25002809D01*
X13114524Y-25059952D02*
X13133571Y-25069476D01*
X13171667Y-25069476D01*
X13190714Y-25059952D01*
X13200238Y-25040905D01*
X13200238Y-25031381D01*
X13190714Y-25012333D01*
X13171667Y-25002809D01*
X13143095Y-25002809D01*
X13124048Y-24993286D01*
X13114524Y-24974238D01*
X13114524Y-24964714D01*
X13124048Y-24945667D01*
X13143095Y-24936143D01*
X13171667Y-24936143D01*
X13190714Y-24945667D01*
X13266905Y-25145667D02*
X13276428Y-25136143D01*
X13295476Y-25107571D01*
X13305000Y-25088524D01*
X13314524Y-25059952D01*
X13324048Y-25012333D01*
X13324048Y-24974238D01*
X13314524Y-24926619D01*
X13305000Y-24898048D01*
X13295476Y-24879000D01*
X13276428Y-24850428D01*
X13266905Y-24840905D01*
X13628809Y-25145667D02*
X13619286Y-25136143D01*
X13600238Y-25107571D01*
X13590714Y-25088524D01*
X13581190Y-25059952D01*
X13571667Y-25012333D01*
X13571667Y-24974238D01*
X13581190Y-24926619D01*
X13590714Y-24898048D01*
X13600238Y-24879000D01*
X13619286Y-24850428D01*
X13628809Y-24840905D01*
X13705000Y-24936143D02*
X13705000Y-25069476D01*
X13705000Y-24955190D02*
X13714524Y-24945667D01*
X13733571Y-24936143D01*
X13762143Y-24936143D01*
X13781190Y-24945667D01*
X13790714Y-24964714D01*
X13790714Y-25069476D01*
X13914524Y-25069476D02*
X13895476Y-25059952D01*
X13885952Y-25050428D01*
X13876428Y-25031381D01*
X13876428Y-24974238D01*
X13885952Y-24955190D01*
X13895476Y-24945667D01*
X13914524Y-24936143D01*
X13943095Y-24936143D01*
X13962143Y-24945667D01*
X13971667Y-24955190D01*
X13981190Y-24974238D01*
X13981190Y-25031381D01*
X13971667Y-25050428D01*
X13962143Y-25059952D01*
X13943095Y-25069476D01*
X13914524Y-25069476D01*
X14038333Y-24936143D02*
X14114524Y-24936143D01*
X14066905Y-24869476D02*
X14066905Y-25040905D01*
X14076428Y-25059952D01*
X14095476Y-25069476D01*
X14114524Y-25069476D01*
X14333571Y-24936143D02*
X14333571Y-25136143D01*
X14333571Y-24945667D02*
X14352619Y-24936143D01*
X14390714Y-24936143D01*
X14409762Y-24945667D01*
X14419286Y-24955190D01*
X14428809Y-24974238D01*
X14428809Y-25031381D01*
X14419286Y-25050428D01*
X14409762Y-25059952D01*
X14390714Y-25069476D01*
X14352619Y-25069476D01*
X14333571Y-25059952D01*
X14543095Y-25069476D02*
X14524048Y-25059952D01*
X14514524Y-25040905D01*
X14514524Y-24869476D01*
X14705000Y-25069476D02*
X14705000Y-24964714D01*
X14695476Y-24945667D01*
X14676428Y-24936143D01*
X14638333Y-24936143D01*
X14619286Y-24945667D01*
X14705000Y-25059952D02*
X14685952Y-25069476D01*
X14638333Y-25069476D01*
X14619286Y-25059952D01*
X14609762Y-25040905D01*
X14609762Y-25021857D01*
X14619286Y-25002809D01*
X14638333Y-24993286D01*
X14685952Y-24993286D01*
X14705000Y-24983762D01*
X14771667Y-24936143D02*
X14847857Y-24936143D01*
X14800238Y-24869476D02*
X14800238Y-25040905D01*
X14809762Y-25059952D01*
X14828809Y-25069476D01*
X14847857Y-25069476D01*
X14990714Y-25059952D02*
X14971667Y-25069476D01*
X14933571Y-25069476D01*
X14914524Y-25059952D01*
X14905000Y-25040905D01*
X14905000Y-24964714D01*
X14914524Y-24945667D01*
X14933571Y-24936143D01*
X14971667Y-24936143D01*
X14990714Y-24945667D01*
X15000238Y-24964714D01*
X15000238Y-24983762D01*
X14905000Y-25002809D01*
X15171667Y-25069476D02*
X15171667Y-24869476D01*
X15171667Y-25059952D02*
X15152619Y-25069476D01*
X15114524Y-25069476D01*
X15095476Y-25059952D01*
X15085952Y-25050428D01*
X15076428Y-25031381D01*
X15076428Y-24974238D01*
X15085952Y-24955190D01*
X15095476Y-24945667D01*
X15114524Y-24936143D01*
X15152619Y-24936143D01*
X15171667Y-24945667D01*
X15247857Y-25145667D02*
X15257381Y-25136143D01*
X15276428Y-25107571D01*
X15285952Y-25088524D01*
X15295476Y-25059952D01*
X15305000Y-25012333D01*
X15305000Y-24974238D01*
X15295476Y-24926619D01*
X15285952Y-24898048D01*
X15276428Y-24879000D01*
X15257381Y-24850428D01*
X15247857Y-24840905D01*
X8395000Y-25379000D02*
X8495000Y-25279000D01*
X8395000Y-25179000D01*
X8295000Y-25279000D01*
X8395000Y-25379000D01*
X8838333Y-25236143D02*
X8838333Y-25369476D01*
X8790714Y-25159952D02*
X8743095Y-25302809D01*
X8866905Y-25302809D01*
X8943095Y-25350428D02*
X8952619Y-25359952D01*
X8943095Y-25369476D01*
X8933571Y-25359952D01*
X8943095Y-25350428D01*
X8943095Y-25369476D01*
X9076429Y-25169476D02*
X9095476Y-25169476D01*
X9114524Y-25179000D01*
X9124048Y-25188524D01*
X9133571Y-25207571D01*
X9143095Y-25245667D01*
X9143095Y-25293286D01*
X9133571Y-25331381D01*
X9124048Y-25350428D01*
X9114524Y-25359952D01*
X9095476Y-25369476D01*
X9076429Y-25369476D01*
X9057381Y-25359952D01*
X9047857Y-25350428D01*
X9038333Y-25331381D01*
X9028810Y-25293286D01*
X9028810Y-25245667D01*
X9038333Y-25207571D01*
X9047857Y-25188524D01*
X9057381Y-25179000D01*
X9076429Y-25169476D01*
X9266905Y-25169476D02*
X9285952Y-25169476D01*
X9305000Y-25179000D01*
X9314524Y-25188524D01*
X9324048Y-25207571D01*
X9333571Y-25245667D01*
X9333571Y-25293286D01*
X9324048Y-25331381D01*
X9314524Y-25350428D01*
X9305000Y-25359952D01*
X9285952Y-25369476D01*
X9266905Y-25369476D01*
X9247857Y-25359952D01*
X9238333Y-25350428D01*
X9228810Y-25331381D01*
X9219286Y-25293286D01*
X9219286Y-25245667D01*
X9228810Y-25207571D01*
X9238333Y-25188524D01*
X9247857Y-25179000D01*
X9266905Y-25169476D01*
X9457381Y-25169476D02*
X9476429Y-25169476D01*
X9495476Y-25179000D01*
X9505000Y-25188524D01*
X9514524Y-25207571D01*
X9524048Y-25245667D01*
X9524048Y-25293286D01*
X9514524Y-25331381D01*
X9505000Y-25350428D01*
X9495476Y-25359952D01*
X9476429Y-25369476D01*
X9457381Y-25369476D01*
X9438333Y-25359952D01*
X9428810Y-25350428D01*
X9419286Y-25331381D01*
X9409762Y-25293286D01*
X9409762Y-25245667D01*
X9419286Y-25207571D01*
X9428810Y-25188524D01*
X9438333Y-25179000D01*
X9457381Y-25169476D01*
X9609762Y-25369476D02*
X9609762Y-25236143D01*
X9609762Y-25255190D02*
X9619286Y-25245667D01*
X9638333Y-25236143D01*
X9666905Y-25236143D01*
X9685952Y-25245667D01*
X9695476Y-25264714D01*
X9695476Y-25369476D01*
X9695476Y-25264714D02*
X9705000Y-25245667D01*
X9724048Y-25236143D01*
X9752619Y-25236143D01*
X9771667Y-25245667D01*
X9781190Y-25264714D01*
X9781190Y-25369476D01*
X9876429Y-25369476D02*
X9876429Y-25236143D01*
X9876429Y-25255190D02*
X9885952Y-25245667D01*
X9905000Y-25236143D01*
X9933571Y-25236143D01*
X9952619Y-25245667D01*
X9962143Y-25264714D01*
X9962143Y-25369476D01*
X9962143Y-25264714D02*
X9971667Y-25245667D01*
X9990714Y-25236143D01*
X10019286Y-25236143D01*
X10038333Y-25245667D01*
X10047857Y-25264714D01*
X10047857Y-25369476D01*
X10438333Y-25159952D02*
X10266905Y-25417095D01*
X10695476Y-25169476D02*
X10714524Y-25169476D01*
X10733571Y-25179000D01*
X10743095Y-25188524D01*
X10752619Y-25207571D01*
X10762143Y-25245667D01*
X10762143Y-25293286D01*
X10752619Y-25331381D01*
X10743095Y-25350428D01*
X10733571Y-25359952D01*
X10714524Y-25369476D01*
X10695476Y-25369476D01*
X10676429Y-25359952D01*
X10666905Y-25350428D01*
X10657381Y-25331381D01*
X10647857Y-25293286D01*
X10647857Y-25245667D01*
X10657381Y-25207571D01*
X10666905Y-25188524D01*
X10676429Y-25179000D01*
X10695476Y-25169476D01*
X10847857Y-25350428D02*
X10857381Y-25359952D01*
X10847857Y-25369476D01*
X10838333Y-25359952D01*
X10847857Y-25350428D01*
X10847857Y-25369476D01*
X11047857Y-25369476D02*
X10933571Y-25369476D01*
X10990714Y-25369476D02*
X10990714Y-25169476D01*
X10971667Y-25198048D01*
X10952619Y-25217095D01*
X10933571Y-25226619D01*
X11228809Y-25169476D02*
X11133571Y-25169476D01*
X11124048Y-25264714D01*
X11133571Y-25255190D01*
X11152619Y-25245667D01*
X11200238Y-25245667D01*
X11219286Y-25255190D01*
X11228809Y-25264714D01*
X11238333Y-25283762D01*
X11238333Y-25331381D01*
X11228809Y-25350428D01*
X11219286Y-25359952D01*
X11200238Y-25369476D01*
X11152619Y-25369476D01*
X11133571Y-25359952D01*
X11124048Y-25350428D01*
X11305000Y-25169476D02*
X11438333Y-25169476D01*
X11352619Y-25369476D01*
X11609762Y-25169476D02*
X11514524Y-25169476D01*
X11505000Y-25264714D01*
X11514524Y-25255190D01*
X11533571Y-25245667D01*
X11581190Y-25245667D01*
X11600238Y-25255190D01*
X11609762Y-25264714D01*
X11619286Y-25283762D01*
X11619286Y-25331381D01*
X11609762Y-25350428D01*
X11600238Y-25359952D01*
X11581190Y-25369476D01*
X11533571Y-25369476D01*
X11514524Y-25359952D01*
X11505000Y-25350428D01*
X11695476Y-25169476D02*
X11695476Y-25207571D01*
X11771667Y-25169476D02*
X11771667Y-25207571D01*
X12066905Y-25445667D02*
X12057381Y-25436143D01*
X12038333Y-25407571D01*
X12028809Y-25388524D01*
X12019286Y-25359952D01*
X12009762Y-25312333D01*
X12009762Y-25274238D01*
X12019286Y-25226619D01*
X12028809Y-25198048D01*
X12038333Y-25179000D01*
X12057381Y-25150428D01*
X12066905Y-25140905D01*
X12152619Y-25369476D02*
X12190714Y-25369476D01*
X12209762Y-25359952D01*
X12219286Y-25350428D01*
X12238333Y-25321857D01*
X12247857Y-25283762D01*
X12247857Y-25207571D01*
X12238333Y-25188524D01*
X12228809Y-25179000D01*
X12209762Y-25169476D01*
X12171667Y-25169476D01*
X12152619Y-25179000D01*
X12143095Y-25188524D01*
X12133571Y-25207571D01*
X12133571Y-25255190D01*
X12143095Y-25274238D01*
X12152619Y-25283762D01*
X12171667Y-25293286D01*
X12209762Y-25293286D01*
X12228809Y-25283762D01*
X12238333Y-25274238D01*
X12247857Y-25255190D01*
X12419286Y-25236143D02*
X12419286Y-25369476D01*
X12371667Y-25159952D02*
X12324048Y-25302809D01*
X12447857Y-25302809D01*
X12676428Y-25369476D02*
X12676428Y-25169476D01*
X12762143Y-25369476D02*
X12762143Y-25264714D01*
X12752619Y-25245667D01*
X12733571Y-25236143D01*
X12705000Y-25236143D01*
X12685952Y-25245667D01*
X12676428Y-25255190D01*
X12885952Y-25369476D02*
X12866905Y-25359952D01*
X12857381Y-25350428D01*
X12847857Y-25331381D01*
X12847857Y-25274238D01*
X12857381Y-25255190D01*
X12866905Y-25245667D01*
X12885952Y-25236143D01*
X12914524Y-25236143D01*
X12933571Y-25245667D01*
X12943095Y-25255190D01*
X12952619Y-25274238D01*
X12952619Y-25331381D01*
X12943095Y-25350428D01*
X12933571Y-25359952D01*
X12914524Y-25369476D01*
X12885952Y-25369476D01*
X13066905Y-25369476D02*
X13047857Y-25359952D01*
X13038333Y-25340905D01*
X13038333Y-25169476D01*
X13219286Y-25359952D02*
X13200238Y-25369476D01*
X13162143Y-25369476D01*
X13143095Y-25359952D01*
X13133571Y-25340905D01*
X13133571Y-25264714D01*
X13143095Y-25245667D01*
X13162143Y-25236143D01*
X13200238Y-25236143D01*
X13219286Y-25245667D01*
X13228809Y-25264714D01*
X13228809Y-25283762D01*
X13133571Y-25302809D01*
X13305000Y-25359952D02*
X13324048Y-25369476D01*
X13362143Y-25369476D01*
X13381190Y-25359952D01*
X13390714Y-25340905D01*
X13390714Y-25331381D01*
X13381190Y-25312333D01*
X13362143Y-25302809D01*
X13333571Y-25302809D01*
X13314524Y-25293286D01*
X13305000Y-25274238D01*
X13305000Y-25264714D01*
X13314524Y-25245667D01*
X13333571Y-25236143D01*
X13362143Y-25236143D01*
X13381190Y-25245667D01*
X13457381Y-25445667D02*
X13466905Y-25436143D01*
X13485952Y-25407571D01*
X13495476Y-25388524D01*
X13505000Y-25359952D01*
X13514524Y-25312333D01*
X13514524Y-25274238D01*
X13505000Y-25226619D01*
X13495476Y-25198048D01*
X13485952Y-25179000D01*
X13466905Y-25150428D01*
X13457381Y-25140905D01*
X13819286Y-25445667D02*
X13809762Y-25436143D01*
X13790714Y-25407571D01*
X13781190Y-25388524D01*
X13771667Y-25359952D01*
X13762143Y-25312333D01*
X13762143Y-25274238D01*
X13771667Y-25226619D01*
X13781190Y-25198048D01*
X13790714Y-25179000D01*
X13809762Y-25150428D01*
X13819286Y-25140905D01*
X13895476Y-25236143D02*
X13895476Y-25369476D01*
X13895476Y-25255190D02*
X13905000Y-25245667D01*
X13924048Y-25236143D01*
X13952619Y-25236143D01*
X13971667Y-25245667D01*
X13981190Y-25264714D01*
X13981190Y-25369476D01*
X14105000Y-25369476D02*
X14085952Y-25359952D01*
X14076428Y-25350428D01*
X14066905Y-25331381D01*
X14066905Y-25274238D01*
X14076428Y-25255190D01*
X14085952Y-25245667D01*
X14105000Y-25236143D01*
X14133571Y-25236143D01*
X14152619Y-25245667D01*
X14162143Y-25255190D01*
X14171667Y-25274238D01*
X14171667Y-25331381D01*
X14162143Y-25350428D01*
X14152619Y-25359952D01*
X14133571Y-25369476D01*
X14105000Y-25369476D01*
X14228809Y-25236143D02*
X14305000Y-25236143D01*
X14257381Y-25169476D02*
X14257381Y-25340905D01*
X14266905Y-25359952D01*
X14285952Y-25369476D01*
X14305000Y-25369476D01*
X14524048Y-25236143D02*
X14524048Y-25436143D01*
X14524048Y-25245667D02*
X14543095Y-25236143D01*
X14581190Y-25236143D01*
X14600238Y-25245667D01*
X14609762Y-25255190D01*
X14619286Y-25274238D01*
X14619286Y-25331381D01*
X14609762Y-25350428D01*
X14600238Y-25359952D01*
X14581190Y-25369476D01*
X14543095Y-25369476D01*
X14524048Y-25359952D01*
X14733571Y-25369476D02*
X14714524Y-25359952D01*
X14705000Y-25340905D01*
X14705000Y-25169476D01*
X14895476Y-25369476D02*
X14895476Y-25264714D01*
X14885952Y-25245667D01*
X14866905Y-25236143D01*
X14828809Y-25236143D01*
X14809762Y-25245667D01*
X14895476Y-25359952D02*
X14876428Y-25369476D01*
X14828809Y-25369476D01*
X14809762Y-25359952D01*
X14800238Y-25340905D01*
X14800238Y-25321857D01*
X14809762Y-25302809D01*
X14828809Y-25293286D01*
X14876428Y-25293286D01*
X14895476Y-25283762D01*
X14962143Y-25236143D02*
X15038333Y-25236143D01*
X14990714Y-25169476D02*
X14990714Y-25340905D01*
X15000238Y-25359952D01*
X15019286Y-25369476D01*
X15038333Y-25369476D01*
X15181190Y-25359952D02*
X15162143Y-25369476D01*
X15124048Y-25369476D01*
X15105000Y-25359952D01*
X15095476Y-25340905D01*
X15095476Y-25264714D01*
X15105000Y-25245667D01*
X15124048Y-25236143D01*
X15162143Y-25236143D01*
X15181190Y-25245667D01*
X15190714Y-25264714D01*
X15190714Y-25283762D01*
X15095476Y-25302809D01*
X15362143Y-25369476D02*
X15362143Y-25169476D01*
X15362143Y-25359952D02*
X15343095Y-25369476D01*
X15305000Y-25369476D01*
X15285952Y-25359952D01*
X15276428Y-25350428D01*
X15266905Y-25331381D01*
X15266905Y-25274238D01*
X15276428Y-25255190D01*
X15285952Y-25245667D01*
X15305000Y-25236143D01*
X15343095Y-25236143D01*
X15362143Y-25245667D01*
X15438333Y-25445667D02*
X15447857Y-25436143D01*
X15466905Y-25407571D01*
X15476428Y-25388524D01*
X15485952Y-25359952D01*
X15495476Y-25312333D01*
X15495476Y-25274238D01*
X15485952Y-25226619D01*
X15476428Y-25198048D01*
X15466905Y-25179000D01*
X15447857Y-25150428D01*
X15438333Y-25140905D01*
M02*
