%TF.GenerationSoftware,KiCad,Pcbnew,7.0.5-4d25ed1034~172~ubuntu22.04.1*%
%TF.CreationDate,2023-06-17T05:02:15+02:00*%
%TF.ProjectId,Europe-ergo,4575726f-7065-42d6-9572-676f2e6b6963,rev?*%
%TF.SameCoordinates,Original*%
%TF.FileFunction,Other,User*%
%FSLAX46Y46*%
G04 Gerber Fmt 4.6, Leading zero omitted, Abs format (unit mm)*
G04 Created by KiCad (PCBNEW 7.0.5-4d25ed1034~172~ubuntu22.04.1) date 2023-06-17 05:02:15*
%MOMM*%
%LPD*%
G01*
G04 APERTURE LIST*
%ADD10C,0.050000*%
%ADD11C,0.120000*%
G04 APERTURE END LIST*
D10*
%TO.C,J2*%
X293930000Y-144950000D02*
X310380000Y-144950000D01*
X293930000Y-144950000D02*
X293930000Y-197950000D01*
X310380000Y-197950000D02*
X310380000Y-144950000D01*
X293930000Y-197950000D02*
X310380000Y-197950000D01*
%TO.C,SW16*%
X416560000Y-48260000D02*
X408940000Y-48260000D01*
X408940000Y-48260000D02*
X408940000Y-50800000D01*
X408940000Y-50800000D02*
X416560000Y-50800000D01*
X416560000Y-50800000D02*
X416560000Y-48260000D01*
D11*
%TO.C,U1*%
X254000000Y-63725000D02*
X306000000Y-63725000D01*
X306000000Y-63725000D02*
X306000000Y-41725000D01*
X254000000Y-41725000D02*
X254000000Y-63725000D01*
X306000000Y-41725000D02*
X254000000Y-41725000D01*
%TO.C,U2*%
X370550000Y-41725000D02*
X318550000Y-41725000D01*
X318550000Y-41725000D02*
X318550000Y-63725000D01*
X370550000Y-63725000D02*
X370550000Y-41725000D01*
X318550000Y-63725000D02*
X370550000Y-63725000D01*
D10*
%TO.C,SW15*%
X207010000Y-52070000D02*
X214630000Y-52070000D01*
X214630000Y-52070000D02*
X214630000Y-49530000D01*
X214630000Y-49530000D02*
X207010000Y-49530000D01*
X207010000Y-49530000D02*
X207010000Y-52070000D01*
%TO.C,J1*%
X332957500Y-197950000D02*
X316507500Y-197950000D01*
X332957500Y-197950000D02*
X332957500Y-144950000D01*
X316507500Y-144950000D02*
X316507500Y-197950000D01*
X332957500Y-144950000D02*
X316507500Y-144950000D01*
%TD*%
M02*
