M48
; DRILL file {KiCad 6.0.10-86aedd382b~118~ubuntu22.04.1} date to. 19. jan. 2023 kl. 13.58 +0100
; FORMAT={-:-/ absolute / metric / decimal}
; #@! TF.CreationDate,2023-01-19T13:58:46+01:00
; #@! TF.GenerationSoftware,Kicad,Pcbnew,6.0.10-86aedd382b~118~ubuntu22.04.1
; #@! TF.FileFunction,NonPlated,1,2,NPTH
FMAT,2
METRIC
; #@! TA.AperFunction,NonPlated,NPTH,ComponentDrill
T1C1.100
; #@! TA.AperFunction,NonPlated,NPTH,ComponentDrill
T2C1.500
; #@! TA.AperFunction,NonPlated,NPTH,ComponentDrill
T3C1.700
; #@! TA.AperFunction,NonPlated,NPTH,ComponentDrill
T4C1.800
; #@! TA.AperFunction,NonPlated,NPTH,ComponentDrill
T5C4.000
%
G90
G05
T1
X300.68Y-92.74
X305.68Y-92.74
X318.975Y-92.25
X323.975Y-92.25
T2
X300.97Y-50.3
X300.97Y-55.15
X323.58Y-50.3
X323.58Y-55.15
T3
X106.12Y-75.6
X106.22Y-178.1
X106.32Y-106.6
X106.32Y-154.3
X106.52Y-130.5
X111.02Y-202.0
X116.28Y-75.6
X116.38Y-178.1
X116.48Y-106.6
X116.48Y-154.3
X116.68Y-130.5
X121.18Y-202.0
X134.72Y-75.7
X134.72Y-201.9
X134.82Y-130.5
X134.92Y-106.8
X134.92Y-177.9
X135.22Y-154.2
X144.88Y-75.7
X144.88Y-201.9
X144.98Y-130.5
X145.08Y-106.8
X145.08Y-177.9
X145.38Y-154.2
X158.62Y-125.8
X158.62Y-173.3
X158.72Y-197.1
X158.82Y-149.5
X158.92Y-102.0
X163.52Y-75.7
X168.78Y-125.8
X168.78Y-173.3
X168.88Y-197.1
X168.98Y-149.5
X169.08Y-102.0
X173.68Y-75.7
X182.42Y-147.1
X182.42Y-170.8
X182.42Y-194.8
X182.52Y-99.4
X182.52Y-123.2
X192.12Y-75.6
X192.58Y-147.1
X192.58Y-170.8
X192.58Y-194.8
X192.68Y-99.4
X192.68Y-123.2
X202.28Y-75.6
X206.12Y-149.5
X206.32Y-125.7
X206.32Y-173.4
X206.42Y-101.9
X206.42Y-197.2
X216.28Y-149.5
X216.48Y-125.7
X216.48Y-173.4
X216.58Y-101.9
X216.58Y-197.2
X220.82Y-75.5
X229.92Y-175.7
X230.02Y-104.1
X230.02Y-151.8
X230.22Y-128.0
X230.98Y-75.5
X240.08Y-175.7
X240.18Y-104.1
X240.18Y-151.8
X240.38Y-128.0
X240.441Y-211.38
X249.02Y-75.8
X249.239Y-216.46
X253.82Y-151.9
X253.92Y-128.0
X254.02Y-104.2
X254.02Y-175.7
X259.18Y-75.8
X261.141Y-223.18
X263.98Y-151.9
X264.08Y-128.0
X264.18Y-104.2
X264.18Y-175.7
X269.939Y-228.26
X272.941Y-202.58
X277.72Y-75.7
X277.72Y-104.2
X281.739Y-207.66
X281.741Y-235.28
X282.82Y-132.38
X282.82Y-142.54
X283.04Y-165.64
X283.04Y-175.8
X287.88Y-75.7
X287.88Y-104.2
X290.539Y-240.36
X336.371Y-240.2
X337.05Y-75.84
X337.25Y-104.34
X342.45Y-132.62
X342.45Y-142.78
X342.55Y-165.92
X342.55Y-176.08
X344.971Y-207.569
X345.169Y-235.12
X347.21Y-75.84
X347.41Y-104.34
X353.769Y-202.489
X357.071Y-228.3
X361.05Y-152.04
X361.15Y-104.24
X361.25Y-175.74
X361.35Y-128.24
X365.85Y-75.74
X365.869Y-223.22
X371.21Y-152.04
X371.31Y-104.24
X371.41Y-175.74
X371.51Y-128.24
X376.01Y-75.74
X377.671Y-216.3
X384.95Y-104.44
X384.95Y-128.14
X385.05Y-151.94
X385.05Y-175.54
X386.469Y-211.22
X394.45Y-75.84
X395.11Y-104.44
X395.11Y-128.14
X395.21Y-151.94
X395.21Y-175.54
X404.61Y-75.84
X408.75Y-173.44
X408.85Y-102.04
X408.85Y-197.24
X408.95Y-125.74
X408.95Y-149.74
X418.91Y-173.44
X419.01Y-102.04
X419.01Y-197.24
X419.11Y-125.74
X419.11Y-149.74
X422.99Y-75.86
X432.45Y-99.74
X432.61Y-170.96
X432.65Y-147.34
X432.75Y-123.54
X432.75Y-194.64
X433.15Y-75.86
X442.61Y-99.74
X442.77Y-170.96
X442.81Y-147.34
X442.91Y-123.54
X442.91Y-194.64
X451.65Y-75.94
X456.25Y-197.34
X456.45Y-128.14
X456.55Y-104.34
X456.55Y-149.64
X456.85Y-173.54
X461.81Y-75.94
X466.41Y-197.34
X466.61Y-128.14
X466.71Y-104.34
X466.71Y-149.64
X467.01Y-173.54
X480.05Y-154.34
X480.05Y-202.14
X480.15Y-106.84
X480.15Y-178.04
X480.25Y-75.74
X480.35Y-130.64
X490.21Y-154.34
X490.21Y-202.14
X490.31Y-106.84
X490.31Y-178.04
X490.41Y-75.74
X490.51Y-130.64
X503.95Y-202.24
X508.75Y-154.44
X508.85Y-106.74
X508.85Y-130.54
X508.95Y-75.84
X509.05Y-178.14
X514.11Y-202.24
X518.91Y-154.44
X519.01Y-106.74
X519.01Y-130.54
X519.11Y-75.84
X519.21Y-178.14
T4
X304.0Y-50.0
X304.0Y-55.45
X320.55Y-50.0
X320.55Y-55.45
T5
X111.2Y-75.6
X111.3Y-178.1
X111.4Y-106.6
X111.4Y-154.3
X111.6Y-130.5
X116.1Y-202.0
X139.8Y-75.7
X139.8Y-201.9
X139.9Y-130.5
X140.0Y-106.8
X140.0Y-177.9
X140.3Y-154.2
X163.7Y-125.8
X163.7Y-173.3
X163.8Y-197.1
X163.9Y-149.5
X164.0Y-102.0
X168.6Y-75.7
X187.5Y-147.1
X187.5Y-170.8
X187.5Y-194.8
X187.6Y-99.4
X187.6Y-123.2
X197.2Y-75.6
X211.2Y-149.5
X211.4Y-125.7
X211.4Y-173.4
X211.5Y-101.9
X211.5Y-197.2
X225.9Y-75.5
X235.0Y-175.7
X235.1Y-104.1
X235.1Y-151.8
X235.3Y-128.0
X244.84Y-213.92
X254.1Y-75.8
X258.9Y-151.9
X259.0Y-128.0
X259.1Y-104.2
X259.1Y-175.7
X265.54Y-225.72
X277.34Y-205.12
X282.8Y-75.7
X282.8Y-104.2
X282.82Y-137.46
X283.04Y-170.72
X286.14Y-237.82
X340.77Y-237.66
X342.13Y-75.84
X342.33Y-104.34
X342.45Y-137.7
X342.55Y-171.0
X349.37Y-205.029
X361.47Y-225.76
X366.13Y-152.04
X366.23Y-104.24
X366.33Y-175.74
X366.43Y-128.24
X370.93Y-75.74
X382.07Y-213.76
X390.03Y-104.44
X390.03Y-128.14
X390.13Y-151.94
X390.13Y-175.54
X399.53Y-75.84
X413.83Y-173.44
X413.93Y-102.04
X413.93Y-197.24
X414.03Y-125.74
X414.03Y-149.74
X428.07Y-75.86
X437.53Y-99.74
X437.69Y-170.96
X437.73Y-147.34
X437.83Y-123.54
X437.83Y-194.64
X456.73Y-75.94
X461.33Y-197.34
X461.53Y-128.14
X461.63Y-104.34
X461.63Y-149.64
X461.93Y-173.54
X485.13Y-154.34
X485.13Y-202.14
X485.23Y-106.84
X485.23Y-178.04
X485.33Y-75.74
X485.43Y-130.64
X509.03Y-202.24
X513.83Y-154.44
X513.93Y-106.74
X513.93Y-130.54
X514.03Y-75.84
X514.13Y-178.14
T0
M30
