%TF.GenerationSoftware,KiCad,Pcbnew,7.0.1-3b83917a11~172~ubuntu22.04.1*%
%TF.CreationDate,2023-03-20T17:17:28+01:00*%
%TF.ProjectId,Europe-ergo,4575726f-7065-42d6-9572-676f2e6b6963,rev?*%
%TF.SameCoordinates,Original*%
%TF.FileFunction,Other,User*%
%FSLAX46Y46*%
G04 Gerber Fmt 4.6, Leading zero omitted, Abs format (unit mm)*
G04 Created by KiCad (PCBNEW 7.0.1-3b83917a11~172~ubuntu22.04.1) date 2023-03-20 17:17:28*
%MOMM*%
%LPD*%
G01*
G04 APERTURE LIST*
%ADD10C,0.050000*%
G04 APERTURE END LIST*
D10*
%TO.C,D85*%
X425810000Y-170510000D02*
X425810000Y-173010000D01*
X425810000Y-173010000D02*
X435530000Y-173010000D01*
X435530000Y-170510000D02*
X425810000Y-170510000D01*
X435530000Y-173010000D02*
X435530000Y-170510000D01*
%TO.C,D90*%
X152140000Y-190750000D02*
X152140000Y-193250000D01*
X152140000Y-193250000D02*
X161860000Y-193250000D01*
X161860000Y-190750000D02*
X152140000Y-190750000D01*
X161860000Y-193250000D02*
X161860000Y-190750000D01*
%TO.C,D92*%
X266330000Y-190750000D02*
X266330000Y-193250000D01*
X266330000Y-193250000D02*
X276050000Y-193250000D01*
X276050000Y-190750000D02*
X266330000Y-190750000D01*
X276050000Y-193250000D02*
X276050000Y-190750000D01*
%TO.C,H13*%
X306750000Y-32600000D02*
G75*
G03*
X306750000Y-32600000I-4000000J0D01*
G01*
%TO.C,D3*%
X192350000Y-82750000D02*
X192350000Y-85250000D01*
X192350000Y-85250000D02*
X202070000Y-85250000D01*
X202070000Y-82750000D02*
X192350000Y-82750000D01*
X202070000Y-85250000D02*
X202070000Y-82750000D01*
%TO.C,D22*%
X191310000Y-104350000D02*
X191310000Y-106850000D01*
X191310000Y-106850000D02*
X201030000Y-106850000D01*
X201030000Y-104350000D02*
X191310000Y-104350000D01*
X201030000Y-106850000D02*
X201030000Y-104350000D01*
%TO.C,SW41*%
X337300000Y-130220000D02*
X337300000Y-117020000D01*
X350500000Y-130220000D02*
X337300000Y-130220000D01*
X337300000Y-117020000D02*
X350500000Y-117020000D01*
X350500000Y-117020000D02*
X350500000Y-130220000D01*
%TO.C,SW64*%
X149820000Y-155680000D02*
X163020000Y-155680000D01*
X149820000Y-168880000D02*
X149820000Y-155680000D01*
X163020000Y-155680000D02*
X163020000Y-168880000D01*
X163020000Y-168880000D02*
X149820000Y-168880000D01*
%TO.C,SW48*%
X491255000Y-114280000D02*
X504455000Y-114280000D01*
X491255000Y-127480000D02*
X491255000Y-114280000D01*
X504455000Y-114280000D02*
X504455000Y-127480000D01*
X504455000Y-127480000D02*
X491255000Y-127480000D01*
%TO.C,D95*%
X352500000Y-189750000D02*
X352500000Y-192250000D01*
X352500000Y-192250000D02*
X362220000Y-192250000D01*
X362220000Y-189750000D02*
X352500000Y-189750000D01*
X362220000Y-192250000D02*
X362220000Y-189750000D01*
%TO.C,D94*%
X334140000Y-200750000D02*
X334140000Y-203250000D01*
X334140000Y-203250000D02*
X343860000Y-203250000D01*
X343860000Y-200750000D02*
X334140000Y-200750000D01*
X343860000Y-203250000D02*
X343860000Y-200750000D01*
%TO.C,H6*%
X525000000Y-32600000D02*
G75*
G03*
X525000000Y-32600000I-4000000J0D01*
G01*
%TO.C,D42*%
X511730000Y-49390000D02*
X511730000Y-51490000D01*
X511730000Y-51490000D02*
X516320000Y-51490000D01*
X516320000Y-49390000D02*
X511730000Y-49390000D01*
X516320000Y-51490000D02*
X516320000Y-49390000D01*
%TO.C,SW45*%
X423400000Y-112280000D02*
X436600000Y-112280000D01*
X423400000Y-125480000D02*
X423400000Y-112280000D01*
X436600000Y-112280000D02*
X436600000Y-125480000D01*
X436600000Y-125480000D02*
X423400000Y-125480000D01*
%TO.C,SW76*%
X402400000Y-155360000D02*
X415600000Y-155360000D01*
X402400000Y-168560000D02*
X402400000Y-155360000D01*
X415600000Y-155360000D02*
X415600000Y-168560000D01*
X415600000Y-168560000D02*
X402400000Y-168560000D01*
%TO.C,D55*%
X404470000Y-127110000D02*
X404470000Y-129610000D01*
X404470000Y-129610000D02*
X414190000Y-129610000D01*
X414190000Y-127110000D02*
X404470000Y-127110000D01*
X414190000Y-129610000D02*
X414190000Y-127110000D01*
%TO.C,D72*%
X151910000Y-170130000D02*
X151910000Y-172630000D01*
X151910000Y-172630000D02*
X161630000Y-172630000D01*
X161630000Y-170130000D02*
X151910000Y-170130000D01*
X161630000Y-172630000D02*
X161630000Y-170130000D01*
%TO.C,SW83*%
X171400000Y-176900000D02*
X184600000Y-176900000D01*
X171400000Y-190100000D02*
X171400000Y-176900000D01*
X184600000Y-176900000D02*
X184600000Y-190100000D01*
X184600000Y-190100000D02*
X171400000Y-190100000D01*
%TO.C,D44*%
X339950000Y-131670000D02*
X339950000Y-134170000D01*
X339950000Y-134170000D02*
X349670000Y-134170000D01*
X349670000Y-131670000D02*
X339950000Y-131670000D01*
X349670000Y-134170000D02*
X349670000Y-131670000D01*
%TO.C,SW62*%
X491155000Y-135200000D02*
X504355000Y-135200000D01*
X491155000Y-148400000D02*
X491155000Y-135200000D01*
X504355000Y-135200000D02*
X504355000Y-148400000D01*
X504355000Y-148400000D02*
X491155000Y-148400000D01*
%TO.C,R2*%
X135970000Y-54950000D02*
X135970000Y-57050000D01*
X135970000Y-57050000D02*
X142950000Y-57050000D01*
X142950000Y-54950000D02*
X135970000Y-54950000D01*
X142950000Y-57050000D02*
X142950000Y-54950000D01*
%TO.C,SW47*%
X465400000Y-115240000D02*
X478600000Y-115240000D01*
X465400000Y-128440000D02*
X465400000Y-115240000D01*
X478600000Y-115240000D02*
X478600000Y-128440000D01*
X478600000Y-128440000D02*
X465400000Y-128440000D01*
%TO.C,H5*%
X104900000Y-228000000D02*
G75*
G03*
X104900000Y-228000000I-4000000J0D01*
G01*
%TO.C,SW91*%
X370984228Y-188584241D02*
X382415763Y-181984241D01*
X377584228Y-200015777D02*
X370984228Y-188584241D01*
X382415763Y-181984241D02*
X389015763Y-193415777D01*
X389015763Y-193415777D02*
X377584228Y-200015777D01*
%TO.C,SW75*%
X381400000Y-155200000D02*
X394600000Y-155200000D01*
X381400000Y-168400000D02*
X381400000Y-155200000D01*
X394600000Y-155200000D02*
X394600000Y-168400000D01*
X394600000Y-168400000D02*
X381400000Y-168400000D01*
%TO.C,H1*%
X104500000Y-34000000D02*
G75*
G03*
X104500000Y-34000000I-4000000J0D01*
G01*
%TO.C,R14*%
X304490000Y-83550000D02*
X304490000Y-81450000D01*
X304490000Y-81450000D02*
X297510000Y-81450000D01*
X297510000Y-83550000D02*
X304490000Y-83550000D01*
X297510000Y-81450000D02*
X297510000Y-83550000D01*
%TO.C,SW40*%
X276400000Y-129600000D02*
X276400000Y-116400000D01*
X289600000Y-129600000D02*
X276400000Y-129600000D01*
X276400000Y-116400000D02*
X289600000Y-116400000D01*
X289600000Y-116400000D02*
X289600000Y-129600000D01*
%TO.C,D34*%
X150350000Y-128750000D02*
X150350000Y-131250000D01*
X150350000Y-131250000D02*
X160070000Y-131250000D01*
X160070000Y-128750000D02*
X150350000Y-128750000D01*
X160070000Y-131250000D02*
X160070000Y-128750000D01*
%TO.C,SW61*%
X464400000Y-136780000D02*
X477600000Y-136780000D01*
X464400000Y-149980000D02*
X464400000Y-136780000D01*
X477600000Y-136780000D02*
X477600000Y-149980000D01*
X477600000Y-149980000D02*
X464400000Y-149980000D01*
%TO.C,R3*%
X171950000Y-57050000D02*
X171950000Y-54950000D01*
X171950000Y-54950000D02*
X164970000Y-54950000D01*
X164970000Y-57050000D02*
X171950000Y-57050000D01*
X164970000Y-54950000D02*
X164970000Y-57050000D01*
%TO.C,D49*%
X172640000Y-128550000D02*
X172640000Y-131050000D01*
X172640000Y-131050000D02*
X182360000Y-131050000D01*
X182360000Y-128550000D02*
X172640000Y-128550000D01*
X182360000Y-131050000D02*
X182360000Y-128550000D01*
%TO.C,SW13*%
X442400000Y-69400000D02*
X455600000Y-69400000D01*
X442400000Y-82600000D02*
X442400000Y-69400000D01*
X455600000Y-69400000D02*
X455600000Y-82600000D01*
X455600000Y-82600000D02*
X442400000Y-82600000D01*
%TO.C,SW39*%
X255320000Y-111400000D02*
X268520000Y-111400000D01*
X255320000Y-124600000D02*
X255320000Y-111400000D01*
X268520000Y-111400000D02*
X268520000Y-124600000D01*
X268520000Y-124600000D02*
X255320000Y-124600000D01*
%TO.C,SW36*%
X191820000Y-111400000D02*
X205020000Y-111400000D01*
X191820000Y-124600000D02*
X191820000Y-111400000D01*
X205020000Y-111400000D02*
X205020000Y-124600000D01*
X205020000Y-124600000D02*
X191820000Y-124600000D01*
%TO.C,H16*%
X431400000Y-229450000D02*
G75*
G03*
X431400000Y-229450000I-4000000J0D01*
G01*
%TO.C,D83*%
X383750000Y-170010000D02*
X383750000Y-172510000D01*
X383750000Y-172510000D02*
X393470000Y-172510000D01*
X393470000Y-170010000D02*
X383750000Y-170010000D01*
X393470000Y-172510000D02*
X393470000Y-170010000D01*
%TO.C,D102*%
X194610000Y-188550000D02*
X194610000Y-191050000D01*
X194610000Y-191050000D02*
X204330000Y-191050000D01*
X204330000Y-188550000D02*
X194610000Y-188550000D01*
X204330000Y-191050000D02*
X204330000Y-188550000D01*
%TO.C,D5*%
X278330000Y-82750000D02*
X278330000Y-85250000D01*
X278330000Y-85250000D02*
X288050000Y-85250000D01*
X288050000Y-82750000D02*
X278330000Y-82750000D01*
X288050000Y-85250000D02*
X288050000Y-82750000D01*
%TO.C,SW29*%
X421070000Y-90010000D02*
X434270000Y-90010000D01*
X421070000Y-103210000D02*
X421070000Y-90010000D01*
X434270000Y-90010000D02*
X434270000Y-103210000D01*
X434270000Y-103210000D02*
X421070000Y-103210000D01*
%TO.C,D65*%
X194460000Y-146650000D02*
X194460000Y-149150000D01*
X194460000Y-149150000D02*
X204180000Y-149150000D01*
X204180000Y-146650000D02*
X194460000Y-146650000D01*
X204180000Y-149150000D02*
X204180000Y-146650000D01*
%TO.C,SW58*%
X401210000Y-134240000D02*
X414410000Y-134240000D01*
X401210000Y-147440000D02*
X401210000Y-134240000D01*
X414410000Y-134240000D02*
X414410000Y-147440000D01*
X414410000Y-147440000D02*
X401210000Y-147440000D01*
%TO.C,SW60*%
X443400000Y-132440000D02*
X456600000Y-132440000D01*
X443400000Y-145640000D02*
X443400000Y-132440000D01*
X456600000Y-132440000D02*
X456600000Y-145640000D01*
X456600000Y-145640000D02*
X443400000Y-145640000D01*
%TO.C,D99*%
X173150000Y-190650000D02*
X173150000Y-193150000D01*
X173150000Y-193150000D02*
X182870000Y-193150000D01*
X182870000Y-190650000D02*
X173150000Y-190650000D01*
X182870000Y-193150000D02*
X182870000Y-190650000D01*
%TO.C,SW84*%
X192680000Y-174800000D02*
X205880000Y-174800000D01*
X192680000Y-188000000D02*
X192680000Y-174800000D01*
X205880000Y-174800000D02*
X205880000Y-188000000D01*
X205880000Y-188000000D02*
X192680000Y-188000000D01*
%TO.C,H2*%
X525000000Y-229450000D02*
G75*
G03*
X525000000Y-229450000I-4000000J0D01*
G01*
%TO.C,SW6*%
X254400000Y-69200000D02*
X267600000Y-69200000D01*
X254400000Y-82400000D02*
X254400000Y-69200000D01*
X267600000Y-69200000D02*
X267600000Y-82400000D01*
X267600000Y-82400000D02*
X254400000Y-82400000D01*
%TO.C,D50*%
X361500000Y-128590000D02*
X361500000Y-131090000D01*
X361500000Y-131090000D02*
X371220000Y-131090000D01*
X371220000Y-128590000D02*
X361500000Y-128590000D01*
X371220000Y-131090000D02*
X371220000Y-128590000D01*
%TO.C,D38*%
X294400000Y-72400000D02*
X294400000Y-75600000D01*
X294400000Y-75600000D02*
X299690000Y-75600000D01*
X299690000Y-72400000D02*
X294400000Y-72400000D01*
X299690000Y-75600000D02*
X299690000Y-72400000D01*
%TO.C,SW50*%
X149830000Y-134700000D02*
X163030000Y-134700000D01*
X149830000Y-147900000D02*
X149830000Y-134700000D01*
X163030000Y-134700000D02*
X163030000Y-147900000D01*
X163030000Y-147900000D02*
X149830000Y-147900000D01*
%TO.C,D48*%
X257870000Y-126750000D02*
X257870000Y-129250000D01*
X257870000Y-129250000D02*
X267590000Y-129250000D01*
X267590000Y-126750000D02*
X257870000Y-126750000D01*
X267590000Y-129250000D02*
X267590000Y-126750000D01*
%TO.C,SW46*%
X444400000Y-112380000D02*
X457600000Y-112380000D01*
X444400000Y-125580000D02*
X444400000Y-112380000D01*
X457600000Y-112380000D02*
X457600000Y-125580000D01*
X457600000Y-125580000D02*
X444400000Y-125580000D01*
%TO.C,D16*%
X152330000Y-110750000D02*
X152330000Y-113250000D01*
X152330000Y-113250000D02*
X162050000Y-113250000D01*
X162050000Y-110750000D02*
X152330000Y-110750000D01*
X162050000Y-113250000D02*
X162050000Y-110750000D01*
%TO.C,D80*%
X194650000Y-166930000D02*
X194650000Y-169430000D01*
X194650000Y-169430000D02*
X204370000Y-169430000D01*
X204370000Y-166930000D02*
X194650000Y-166930000D01*
X204370000Y-169430000D02*
X204370000Y-166930000D01*
%TO.C,R6*%
X424520000Y-52950000D02*
X424520000Y-55050000D01*
X424520000Y-55050000D02*
X431500000Y-55050000D01*
X431500000Y-52950000D02*
X424520000Y-52950000D01*
X431500000Y-55050000D02*
X431500000Y-52950000D01*
%TO.C,SW96*%
X487470000Y-178480000D02*
X500670000Y-178480000D01*
X487470000Y-191680000D02*
X487470000Y-178480000D01*
X500670000Y-178480000D02*
X500670000Y-191680000D01*
X500670000Y-191680000D02*
X487470000Y-191680000D01*
%TO.C,D93*%
X282839600Y-199034700D02*
X282839600Y-201534700D01*
X282839600Y-201534700D02*
X292559600Y-201534700D01*
X292559600Y-199034700D02*
X282839600Y-199034700D01*
X292559600Y-201534700D02*
X292559600Y-199034700D01*
%TO.C,D23*%
X213250000Y-103890000D02*
X213250000Y-106390000D01*
X213250000Y-106390000D02*
X222970000Y-106390000D01*
X222970000Y-103890000D02*
X213250000Y-103890000D01*
X222970000Y-106390000D02*
X222970000Y-103890000D01*
%TO.C,SW44*%
X402400000Y-111500000D02*
X415600000Y-111500000D01*
X402400000Y-124700000D02*
X402400000Y-111500000D01*
X415600000Y-111500000D02*
X415600000Y-124700000D01*
X415600000Y-124700000D02*
X402400000Y-124700000D01*
%TO.C,D18*%
X338360000Y-104755000D02*
X338360000Y-107255000D01*
X338360000Y-107255000D02*
X348080000Y-107255000D01*
X348080000Y-104755000D02*
X338360000Y-104755000D01*
X348080000Y-107255000D02*
X348080000Y-104755000D01*
%TO.C,SW34*%
X148700000Y-113900000D02*
X161900000Y-113900000D01*
X148700000Y-127100000D02*
X148700000Y-113900000D01*
X161900000Y-113900000D02*
X161900000Y-127100000D01*
X161900000Y-127100000D02*
X148700000Y-127100000D01*
%TO.C,SW22*%
X232800000Y-90300000D02*
X246000000Y-90300000D01*
X232800000Y-103500000D02*
X232800000Y-90300000D01*
X246000000Y-90300000D02*
X246000000Y-103500000D01*
X246000000Y-103500000D02*
X232800000Y-103500000D01*
%TO.C,SW18*%
X148400000Y-93200000D02*
X161600000Y-93200000D01*
X148400000Y-106400000D02*
X148400000Y-93200000D01*
X161600000Y-93200000D02*
X161600000Y-106400000D01*
X161600000Y-106400000D02*
X148400000Y-106400000D01*
%TO.C,D57*%
X126360000Y-147850000D02*
X126360000Y-150350000D01*
X126360000Y-150350000D02*
X136080000Y-150350000D01*
X136080000Y-147850000D02*
X126360000Y-147850000D01*
X136080000Y-150350000D02*
X136080000Y-147850000D01*
%TO.C,SW80*%
X491455000Y-156200000D02*
X504655000Y-156200000D01*
X491455000Y-169400000D02*
X491455000Y-156200000D01*
X504655000Y-156200000D02*
X504655000Y-169400000D01*
X504655000Y-169400000D02*
X491455000Y-169400000D01*
%TO.C,SW17*%
X122360000Y-93000000D02*
X135560000Y-93000000D01*
X122360000Y-106200000D02*
X122360000Y-93000000D01*
X135560000Y-93000000D02*
X135560000Y-106200000D01*
X135560000Y-106200000D02*
X122360000Y-106200000D01*
%TO.C,D59*%
X466140000Y-150790000D02*
X466140000Y-153290000D01*
X466140000Y-153290000D02*
X475860000Y-153290000D01*
X475860000Y-150790000D02*
X466140000Y-150790000D01*
X475860000Y-153290000D02*
X475860000Y-150790000D01*
%TO.C,SW2*%
X168660000Y-69100000D02*
X181860000Y-69100000D01*
X168660000Y-82300000D02*
X168660000Y-69100000D01*
X181860000Y-69100000D02*
X181860000Y-82300000D01*
X181860000Y-82300000D02*
X168660000Y-82300000D01*
%TO.C,D62*%
X236340000Y-145850000D02*
X236340000Y-148350000D01*
X236340000Y-148350000D02*
X246060000Y-148350000D01*
X246060000Y-145850000D02*
X236340000Y-145850000D01*
X246060000Y-148350000D02*
X246060000Y-145850000D01*
%TO.C,D88*%
X361470000Y-169275000D02*
X361470000Y-171775000D01*
X361470000Y-171775000D02*
X371190000Y-171775000D01*
X371190000Y-169275000D02*
X361470000Y-169275000D01*
X371190000Y-171775000D02*
X371190000Y-169275000D01*
%TO.C,SW42*%
X359830000Y-112480000D02*
X373030000Y-112480000D01*
X359830000Y-125680000D02*
X359830000Y-112480000D01*
X373030000Y-112480000D02*
X373030000Y-125680000D01*
X373030000Y-125680000D02*
X359830000Y-125680000D01*
%TO.C,D47*%
X236490000Y-125750000D02*
X236490000Y-128250000D01*
X236490000Y-128250000D02*
X246210000Y-128250000D01*
X246210000Y-125750000D02*
X236490000Y-125750000D01*
X246210000Y-128250000D02*
X246210000Y-125750000D01*
%TO.C,D15*%
X126060000Y-110750000D02*
X126060000Y-113250000D01*
X126060000Y-113250000D02*
X135780000Y-113250000D01*
X135780000Y-110750000D02*
X126060000Y-110750000D01*
X135780000Y-113250000D02*
X135780000Y-110750000D01*
%TO.C,D71*%
X126650000Y-170130000D02*
X126650000Y-172630000D01*
X126650000Y-172630000D02*
X136370000Y-172630000D01*
X136370000Y-170130000D02*
X126650000Y-170130000D01*
X136370000Y-172630000D02*
X136370000Y-170130000D01*
%TO.C,R8*%
X490580000Y-55050000D02*
X490580000Y-52950000D01*
X490580000Y-52950000D02*
X483600000Y-52950000D01*
X483600000Y-55050000D02*
X490580000Y-55050000D01*
X483600000Y-52950000D02*
X483600000Y-55050000D01*
%TO.C,D52*%
X193580000Y-125550000D02*
X193580000Y-128050000D01*
X193580000Y-128050000D02*
X203300000Y-128050000D01*
X203300000Y-125550000D02*
X193580000Y-125550000D01*
X203300000Y-128050000D02*
X203300000Y-125550000D01*
%TO.C,SW9*%
X356400000Y-69140000D02*
X369600000Y-69140000D01*
X356400000Y-82340000D02*
X356400000Y-69140000D01*
X369600000Y-69140000D02*
X369600000Y-82340000D01*
X369600000Y-82340000D02*
X356400000Y-82340000D01*
%TO.C,D20*%
X492995000Y-106815000D02*
X492995000Y-109315000D01*
X492995000Y-109315000D02*
X502715000Y-109315000D01*
X502715000Y-106815000D02*
X492995000Y-106815000D01*
X502715000Y-109315000D02*
X502715000Y-106815000D01*
%TO.C,SW19*%
X169210000Y-92940000D02*
X182410000Y-92940000D01*
X169210000Y-106140000D02*
X169210000Y-92940000D01*
X182410000Y-92940000D02*
X182410000Y-106140000D01*
X182410000Y-106140000D02*
X169210000Y-106140000D01*
%TO.C,H10*%
X326000000Y-32650000D02*
G75*
G03*
X326000000Y-32650000I-4000000J0D01*
G01*
%TO.C,D66*%
X360880000Y-149790000D02*
X360880000Y-152290000D01*
X360880000Y-152290000D02*
X370600000Y-152290000D01*
X370600000Y-149790000D02*
X360880000Y-149790000D01*
X370600000Y-152290000D02*
X370600000Y-149790000D01*
%TO.C,D67*%
X382750000Y-149790000D02*
X382750000Y-152290000D01*
X382750000Y-152290000D02*
X392470000Y-152290000D01*
X392470000Y-149790000D02*
X382750000Y-149790000D01*
X392470000Y-152290000D02*
X392470000Y-149790000D01*
%TO.C,D104*%
X425120000Y-189750000D02*
X425120000Y-192250000D01*
X425120000Y-192250000D02*
X434840000Y-192250000D01*
X434840000Y-189750000D02*
X425120000Y-189750000D01*
X434840000Y-192250000D02*
X434840000Y-189750000D01*
%TO.C,SW70*%
X276580000Y-160600000D02*
X276580000Y-147400000D01*
X289780000Y-160600000D02*
X276580000Y-160600000D01*
X276580000Y-147400000D02*
X289780000Y-147400000D01*
X289780000Y-147400000D02*
X289780000Y-160600000D01*
%TO.C,D73*%
X277470000Y-163030000D02*
X277470000Y-165530000D01*
X277470000Y-165530000D02*
X287190000Y-165530000D01*
X287190000Y-163030000D02*
X277470000Y-163030000D01*
X287190000Y-165530000D02*
X287190000Y-163030000D01*
%TO.C,D86*%
X446570000Y-169010000D02*
X446570000Y-171510000D01*
X446570000Y-171510000D02*
X456290000Y-171510000D01*
X456290000Y-169010000D02*
X446570000Y-169010000D01*
X456290000Y-171510000D02*
X456290000Y-169010000D01*
%TO.C,SW11*%
X399480000Y-69260000D02*
X412680000Y-69260000D01*
X399480000Y-82460000D02*
X399480000Y-69260000D01*
X412680000Y-69260000D02*
X412680000Y-82460000D01*
X412680000Y-82460000D02*
X399480000Y-82460000D01*
%TO.C,D28*%
X400810000Y-103975000D02*
X400810000Y-106475000D01*
X400810000Y-106475000D02*
X410530000Y-106475000D01*
X410530000Y-103975000D02*
X400810000Y-103975000D01*
X410530000Y-106475000D02*
X410530000Y-103975000D01*
%TO.C,R1*%
X106970000Y-54950000D02*
X106970000Y-57050000D01*
X106970000Y-57050000D02*
X113950000Y-57050000D01*
X113950000Y-54950000D02*
X106970000Y-54950000D01*
X113950000Y-57050000D02*
X113950000Y-54950000D01*
%TO.C,SW89*%
X334394228Y-210244241D02*
X345825763Y-203644241D01*
X340994228Y-221675777D02*
X334394228Y-210244241D01*
X345825763Y-203644241D02*
X352425763Y-215075777D01*
X352425763Y-215075777D02*
X340994228Y-221675777D01*
%TO.C,D40*%
X454614700Y-49390000D02*
X454614700Y-51490000D01*
X454614700Y-51490000D02*
X459204700Y-51490000D01*
X459204700Y-49390000D02*
X454614700Y-49390000D01*
X459204700Y-51490000D02*
X459204700Y-49390000D01*
%TO.C,SW94*%
X444470000Y-174580000D02*
X457670000Y-174580000D01*
X444470000Y-187780000D02*
X444470000Y-174580000D01*
X457670000Y-174580000D02*
X457670000Y-187780000D01*
X457670000Y-187780000D02*
X444470000Y-187780000D01*
%TO.C,D30*%
X443810000Y-104490000D02*
X443810000Y-106990000D01*
X443810000Y-106990000D02*
X453530000Y-106990000D01*
X453530000Y-104490000D02*
X443810000Y-104490000D01*
X453530000Y-106990000D02*
X453530000Y-104490000D01*
%TO.C,SW1*%
X146860000Y-69000000D02*
X160060000Y-69000000D01*
X146860000Y-82200000D02*
X146860000Y-69000000D01*
X160060000Y-69000000D02*
X160060000Y-82200000D01*
X160060000Y-82200000D02*
X146860000Y-82200000D01*
%TO.C,H8*%
X430550000Y-32650000D02*
G75*
G03*
X430550000Y-32650000I-4000000J0D01*
G01*
%TO.C,SW53*%
X213240000Y-132340000D02*
X226440000Y-132340000D01*
X213240000Y-145540000D02*
X213240000Y-132340000D01*
X226440000Y-132340000D02*
X226440000Y-145540000D01*
X226440000Y-145540000D02*
X213240000Y-145540000D01*
%TO.C,SW56*%
X359530000Y-134480000D02*
X372730000Y-134480000D01*
X359530000Y-147680000D02*
X359530000Y-134480000D01*
X372730000Y-134480000D02*
X372730000Y-147680000D01*
X372730000Y-147680000D02*
X359530000Y-147680000D01*
%TO.C,D60*%
X492895000Y-148955000D02*
X492895000Y-151455000D01*
X492895000Y-151455000D02*
X502615000Y-151455000D01*
X502615000Y-148955000D02*
X492895000Y-148955000D01*
X502615000Y-151455000D02*
X502615000Y-148955000D01*
%TO.C,SW72*%
X341984228Y-181584241D02*
X353415763Y-174984241D01*
X348584228Y-193015777D02*
X341984228Y-181584241D01*
X353415763Y-174984241D02*
X360015763Y-186415777D01*
X360015763Y-186415777D02*
X348584228Y-193015777D01*
%TO.C,SW78*%
X444400000Y-153200000D02*
X457600000Y-153200000D01*
X444400000Y-166400000D02*
X444400000Y-153200000D01*
X457600000Y-153200000D02*
X457600000Y-166400000D01*
X457600000Y-166400000D02*
X444400000Y-166400000D01*
%TO.C,D63*%
X257140000Y-145850000D02*
X257140000Y-148350000D01*
X257140000Y-148350000D02*
X266860000Y-148350000D01*
X266860000Y-145850000D02*
X257140000Y-145850000D01*
X266860000Y-148350000D02*
X266860000Y-145850000D01*
%TO.C,D51*%
X383470000Y-127450000D02*
X383470000Y-129950000D01*
X383470000Y-129950000D02*
X393190000Y-129950000D01*
X393190000Y-127450000D02*
X383470000Y-127450000D01*
X393190000Y-129950000D02*
X393190000Y-127450000D01*
%TO.C,SW77*%
X423400000Y-155120000D02*
X436600000Y-155120000D01*
X423400000Y-168320000D02*
X423400000Y-155120000D01*
X436600000Y-155120000D02*
X436600000Y-168320000D01*
X436600000Y-168320000D02*
X423400000Y-168320000D01*
%TO.C,SW28*%
X400070000Y-90400000D02*
X413270000Y-90400000D01*
X400070000Y-103600000D02*
X400070000Y-90400000D01*
X413270000Y-90400000D02*
X413270000Y-103600000D01*
X413270000Y-103600000D02*
X400070000Y-103600000D01*
%TO.C,D13*%
X379950000Y-82750000D02*
X379950000Y-85250000D01*
X379950000Y-85250000D02*
X389670000Y-85250000D01*
X389670000Y-82750000D02*
X379950000Y-82750000D01*
X389670000Y-85250000D02*
X389670000Y-82750000D01*
%TO.C,D32*%
X136500000Y-49600000D02*
X136500000Y-52800000D01*
X136500000Y-52800000D02*
X141790000Y-52800000D01*
X141790000Y-49600000D02*
X136500000Y-49600000D01*
X141790000Y-52800000D02*
X141790000Y-49600000D01*
%TO.C,SW95*%
X465470000Y-178480000D02*
X478670000Y-178480000D01*
X465470000Y-191680000D02*
X465470000Y-178480000D01*
X478670000Y-178480000D02*
X478670000Y-191680000D01*
X478670000Y-191680000D02*
X465470000Y-191680000D01*
%TO.C,SW3*%
X189860000Y-69100000D02*
X203060000Y-69100000D01*
X189860000Y-82300000D02*
X189860000Y-69100000D01*
X203060000Y-69100000D02*
X203060000Y-82300000D01*
X203060000Y-82300000D02*
X189860000Y-82300000D01*
%TO.C,D78*%
X493425000Y-171410000D02*
X493425000Y-173910000D01*
X493425000Y-173910000D02*
X503145000Y-173910000D01*
X503145000Y-171410000D02*
X493425000Y-171410000D01*
X503145000Y-173910000D02*
X503145000Y-171410000D01*
%TO.C,D12*%
X233330000Y-82750000D02*
X233330000Y-85250000D01*
X233330000Y-85250000D02*
X243050000Y-85250000D01*
X243050000Y-82750000D02*
X233330000Y-82750000D01*
X243050000Y-85250000D02*
X243050000Y-82750000D01*
%TO.C,D2*%
X171950000Y-82750000D02*
X171950000Y-85250000D01*
X171950000Y-85250000D02*
X181670000Y-85250000D01*
X181670000Y-82750000D02*
X171950000Y-82750000D01*
X181670000Y-85250000D02*
X181670000Y-82750000D01*
%TO.C,SW7*%
X276200000Y-69100000D02*
X289400000Y-69100000D01*
X276200000Y-82300000D02*
X276200000Y-69100000D01*
X289400000Y-69100000D02*
X289400000Y-82300000D01*
X289400000Y-82300000D02*
X276200000Y-82300000D01*
%TO.C,SW55*%
X255400000Y-132400000D02*
X268600000Y-132400000D01*
X255400000Y-145600000D02*
X255400000Y-132400000D01*
X268600000Y-132400000D02*
X268600000Y-145600000D01*
X268600000Y-145600000D02*
X255400000Y-145600000D01*
%TO.C,R9*%
X512060000Y-52950000D02*
X512060000Y-55050000D01*
X512060000Y-55050000D02*
X519040000Y-55050000D01*
X519040000Y-52950000D02*
X512060000Y-52950000D01*
X519040000Y-55050000D02*
X519040000Y-52950000D01*
%TO.C,D87*%
X257230000Y-167130000D02*
X257230000Y-169630000D01*
X257230000Y-169630000D02*
X266950000Y-169630000D01*
X266950000Y-167130000D02*
X257230000Y-167130000D01*
X266950000Y-169630000D02*
X266950000Y-167130000D01*
%TO.C,D53*%
X215090000Y-126090000D02*
X215090000Y-128590000D01*
X215090000Y-128590000D02*
X224810000Y-128590000D01*
X224810000Y-126090000D02*
X215090000Y-126090000D01*
X224810000Y-128590000D02*
X224810000Y-126090000D01*
%TO.C,SW57*%
X380400000Y-134380000D02*
X393600000Y-134380000D01*
X380400000Y-147580000D02*
X380400000Y-134380000D01*
X393600000Y-134380000D02*
X393600000Y-147580000D01*
X393600000Y-147580000D02*
X380400000Y-147580000D01*
%TO.C,R11*%
X327120000Y-100550000D02*
X327120000Y-98450000D01*
X327120000Y-98450000D02*
X320140000Y-98450000D01*
X320140000Y-100550000D02*
X327120000Y-100550000D01*
X320140000Y-98450000D02*
X320140000Y-100550000D01*
%TO.C,H15*%
X306200000Y-227800000D02*
G75*
G03*
X306200000Y-227800000I-4000000J0D01*
G01*
%TO.C,H9*%
X304900000Y-128800000D02*
G75*
G03*
X304900000Y-128800000I-4000000J0D01*
G01*
%TO.C,D46*%
X493805000Y-127550000D02*
X493805000Y-130050000D01*
X493805000Y-130050000D02*
X503525000Y-130050000D01*
X503525000Y-127550000D02*
X493805000Y-127550000D01*
X503525000Y-130050000D02*
X503525000Y-127550000D01*
%TO.C,D4*%
X256330000Y-82750000D02*
X256330000Y-85250000D01*
X256330000Y-85250000D02*
X266050000Y-85250000D01*
X266050000Y-82750000D02*
X256330000Y-82750000D01*
X266050000Y-85250000D02*
X266050000Y-82750000D01*
%TO.C,H7*%
X104500000Y-129000000D02*
G75*
G03*
X104500000Y-129000000I-4000000J0D01*
G01*
%TO.C,D101*%
X446240000Y-188750000D02*
X446240000Y-191250000D01*
X446240000Y-191250000D02*
X455960000Y-191250000D01*
X455960000Y-188750000D02*
X446240000Y-188750000D01*
X455960000Y-191250000D02*
X455960000Y-188750000D01*
%TO.C,D68*%
X403660000Y-149850000D02*
X403660000Y-152350000D01*
X403660000Y-152350000D02*
X413380000Y-152350000D01*
X413380000Y-149850000D02*
X403660000Y-149850000D01*
X413380000Y-152350000D02*
X413380000Y-149850000D01*
%TO.C,H4*%
X525000000Y-129000000D02*
G75*
G03*
X525000000Y-129000000I-4000000J0D01*
G01*
%TO.C,D82*%
X236330000Y-167130000D02*
X236330000Y-169630000D01*
X236330000Y-169630000D02*
X246050000Y-169630000D01*
X246050000Y-167130000D02*
X236330000Y-167130000D01*
X246050000Y-169630000D02*
X246050000Y-167130000D01*
%TO.C,SW14*%
X463400000Y-69240000D02*
X476600000Y-69240000D01*
X463400000Y-82440000D02*
X463400000Y-69240000D01*
X476600000Y-69240000D02*
X476600000Y-82440000D01*
X476600000Y-82440000D02*
X463400000Y-82440000D01*
%TO.C,D19*%
X464510000Y-106755000D02*
X464510000Y-109255000D01*
X464510000Y-109255000D02*
X474230000Y-109255000D01*
X474230000Y-106755000D02*
X464510000Y-106755000D01*
X474230000Y-109255000D02*
X474230000Y-106755000D01*
%TO.C,SW52*%
X192320000Y-132400000D02*
X205520000Y-132400000D01*
X192320000Y-145600000D02*
X192320000Y-132400000D01*
X205520000Y-132400000D02*
X205520000Y-145600000D01*
X205520000Y-145600000D02*
X192320000Y-145600000D01*
%TO.C,D7*%
X465470000Y-82750000D02*
X465470000Y-85250000D01*
X465470000Y-85250000D02*
X475190000Y-85250000D01*
X475190000Y-82750000D02*
X465470000Y-82750000D01*
X475190000Y-85250000D02*
X475190000Y-82750000D01*
%TO.C,D69*%
X424150000Y-149290000D02*
X424150000Y-151790000D01*
X424150000Y-151790000D02*
X433870000Y-151790000D01*
X433870000Y-149290000D02*
X424150000Y-149290000D01*
X433870000Y-151790000D02*
X433870000Y-149290000D01*
%TO.C,D75*%
X341510000Y-172720600D02*
X341510000Y-175220600D01*
X341510000Y-175220600D02*
X351230000Y-175220600D01*
X351230000Y-172720600D02*
X341510000Y-172720600D01*
X351230000Y-175220600D02*
X351230000Y-172720600D01*
%TO.C,D39*%
X425914700Y-49290000D02*
X425914700Y-51390000D01*
X425914700Y-51390000D02*
X430504700Y-51390000D01*
X430504700Y-49290000D02*
X425914700Y-49290000D01*
X430504700Y-51390000D02*
X430504700Y-49290000D01*
%TO.C,SW71*%
X273584228Y-174984241D02*
X285015763Y-181584241D01*
X266984228Y-186415777D02*
X273584228Y-174984241D01*
X285015763Y-181584241D02*
X278415763Y-193015777D01*
X278415763Y-193015777D02*
X266984228Y-186415777D01*
%TO.C,SW67*%
X213400000Y-153520000D02*
X226600000Y-153520000D01*
X213400000Y-166720000D02*
X213400000Y-153520000D01*
X226600000Y-153520000D02*
X226600000Y-166720000D01*
X226600000Y-166720000D02*
X213400000Y-166720000D01*
%TO.C,SW49*%
X122860000Y-134800000D02*
X136060000Y-134800000D01*
X122860000Y-148000000D02*
X122860000Y-134800000D01*
X136060000Y-134800000D02*
X136060000Y-148000000D01*
X136060000Y-148000000D02*
X122860000Y-148000000D01*
%TO.C,SW21*%
X211700000Y-90440000D02*
X224900000Y-90440000D01*
X211700000Y-103640000D02*
X211700000Y-90440000D01*
X224900000Y-90440000D02*
X224900000Y-103640000D01*
X224900000Y-103640000D02*
X211700000Y-103640000D01*
%TO.C,SW82*%
X150400000Y-176980000D02*
X163600000Y-176980000D01*
X150400000Y-190180000D02*
X150400000Y-176980000D01*
X163600000Y-176980000D02*
X163600000Y-190180000D01*
X163600000Y-190180000D02*
X150400000Y-190180000D01*
%TO.C,H14*%
X328750000Y-228000000D02*
G75*
G03*
X328750000Y-228000000I-4000000J0D01*
G01*
%TO.C,D77*%
X467270000Y-171970000D02*
X467270000Y-174470000D01*
X467270000Y-174470000D02*
X476990000Y-174470000D01*
X476990000Y-171970000D02*
X467270000Y-171970000D01*
X476990000Y-174470000D02*
X476990000Y-171970000D01*
%TO.C,D79*%
X173340000Y-169930000D02*
X173340000Y-172430000D01*
X173340000Y-172430000D02*
X183060000Y-172430000D01*
X183060000Y-169930000D02*
X173340000Y-169930000D01*
X183060000Y-172430000D02*
X183060000Y-169930000D01*
%TO.C,SW27*%
X379070000Y-90140000D02*
X392270000Y-90140000D01*
X379070000Y-103340000D02*
X379070000Y-90140000D01*
X392270000Y-90140000D02*
X392270000Y-103340000D01*
X392270000Y-103340000D02*
X379070000Y-103340000D01*
%TO.C,D31*%
X108300000Y-49100000D02*
X108300000Y-52300000D01*
X108300000Y-52300000D02*
X113590000Y-52300000D01*
X113590000Y-49100000D02*
X108300000Y-49100000D01*
X113590000Y-52300000D02*
X113590000Y-49100000D01*
%TO.C,R7*%
X460500000Y-55050000D02*
X460500000Y-52950000D01*
X460500000Y-52950000D02*
X453520000Y-52950000D01*
X453520000Y-55050000D02*
X460500000Y-55050000D01*
X453520000Y-52950000D02*
X453520000Y-55050000D01*
%TO.C,D91*%
X247950000Y-179000000D02*
X247950000Y-181500000D01*
X247950000Y-181500000D02*
X257670000Y-181500000D01*
X257670000Y-179000000D02*
X247950000Y-179000000D01*
X257670000Y-181500000D02*
X257670000Y-179000000D01*
%TO.C,R4*%
X199950000Y-57050000D02*
X199950000Y-54950000D01*
X199950000Y-54950000D02*
X192970000Y-54950000D01*
X192970000Y-57050000D02*
X199950000Y-57050000D01*
X192970000Y-54950000D02*
X192970000Y-57050000D01*
%TO.C,D56*%
X426050000Y-128090000D02*
X426050000Y-130590000D01*
X426050000Y-130590000D02*
X435770000Y-130590000D01*
X435770000Y-128090000D02*
X426050000Y-128090000D01*
X435770000Y-130590000D02*
X435770000Y-128090000D01*
%TO.C,R13*%
X297590000Y-98450000D02*
X297590000Y-100550000D01*
X297590000Y-100550000D02*
X304570000Y-100550000D01*
X304570000Y-98450000D02*
X297590000Y-98450000D01*
X304570000Y-100550000D02*
X304570000Y-98450000D01*
%TO.C,SW32*%
X491255000Y-92940000D02*
X504455000Y-92940000D01*
X491255000Y-106140000D02*
X491255000Y-92940000D01*
X504455000Y-92940000D02*
X504455000Y-106140000D01*
X504455000Y-106140000D02*
X491255000Y-106140000D01*
%TO.C,SW79*%
X465400000Y-156660000D02*
X478600000Y-156660000D01*
X465400000Y-169860000D02*
X465400000Y-156660000D01*
X478600000Y-156660000D02*
X478600000Y-169860000D01*
X478600000Y-169860000D02*
X465400000Y-169860000D01*
%TO.C,D89*%
X130310000Y-190750000D02*
X130310000Y-193250000D01*
X130310000Y-193250000D02*
X140030000Y-193250000D01*
X140030000Y-190750000D02*
X130310000Y-190750000D01*
X140030000Y-193250000D02*
X140030000Y-190750000D01*
%TO.C,SW66*%
X192060000Y-153380000D02*
X205260000Y-153380000D01*
X192060000Y-166580000D02*
X192060000Y-153380000D01*
X205260000Y-153380000D02*
X205260000Y-166580000D01*
X205260000Y-166580000D02*
X192060000Y-166580000D01*
%TO.C,SW63*%
X122860000Y-155880000D02*
X136060000Y-155880000D01*
X122860000Y-169080000D02*
X122860000Y-155880000D01*
X136060000Y-155880000D02*
X136060000Y-169080000D01*
X136060000Y-169080000D02*
X122860000Y-169080000D01*
%TO.C,R12*%
X326040000Y-83550000D02*
X326040000Y-81450000D01*
X326040000Y-81450000D02*
X319060000Y-81450000D01*
X319060000Y-83550000D02*
X326040000Y-83550000D01*
X319060000Y-81450000D02*
X319060000Y-83550000D01*
%TO.C,SW90*%
X352454228Y-199344241D02*
X363885763Y-192744241D01*
X359054228Y-210775777D02*
X352454228Y-199344241D01*
X363885763Y-192744241D02*
X370485763Y-204175777D01*
X370485763Y-204175777D02*
X359054228Y-210775777D01*
%TO.C,SW92*%
X402400000Y-176740000D02*
X415600000Y-176740000D01*
X402400000Y-189940000D02*
X402400000Y-176740000D01*
X415600000Y-176740000D02*
X415600000Y-189940000D01*
X415600000Y-189940000D02*
X402400000Y-189940000D01*
%TO.C,D43*%
X324400000Y-72400000D02*
X324400000Y-75600000D01*
X324400000Y-75600000D02*
X329690000Y-75600000D01*
X329690000Y-72400000D02*
X324400000Y-72400000D01*
X329690000Y-75600000D02*
X329690000Y-72400000D01*
%TO.C,SW87*%
X263124228Y-192704241D02*
X274555763Y-199304241D01*
X256524228Y-204135777D02*
X263124228Y-192704241D01*
X274555763Y-199304241D02*
X267955763Y-210735777D01*
X267955763Y-210735777D02*
X256524228Y-204135777D01*
%TO.C,D81*%
X215140000Y-167470000D02*
X215140000Y-169970000D01*
X215140000Y-169970000D02*
X224860000Y-169970000D01*
X224860000Y-167470000D02*
X215140000Y-167470000D01*
X224860000Y-169970000D02*
X224860000Y-167470000D01*
%TO.C,SW4*%
X211400000Y-69000000D02*
X224600000Y-69000000D01*
X211400000Y-82200000D02*
X211400000Y-69000000D01*
X224600000Y-69000000D02*
X224600000Y-82200000D01*
X224600000Y-82200000D02*
X211400000Y-82200000D01*
%TO.C,SW37*%
X212940000Y-111440000D02*
X226140000Y-111440000D01*
X212940000Y-124640000D02*
X212940000Y-111440000D01*
X226140000Y-111440000D02*
X226140000Y-124640000D01*
X226140000Y-124640000D02*
X212940000Y-124640000D01*
%TO.C,SW33*%
X122720000Y-113900000D02*
X135920000Y-113900000D01*
X122720000Y-127100000D02*
X122720000Y-113900000D01*
X135920000Y-113900000D02*
X135920000Y-127100000D01*
X135920000Y-127100000D02*
X122720000Y-127100000D01*
%TO.C,SW51*%
X171010000Y-134800000D02*
X184210000Y-134800000D01*
X171010000Y-148000000D02*
X171010000Y-134800000D01*
X184210000Y-134800000D02*
X184210000Y-148000000D01*
X184210000Y-148000000D02*
X171010000Y-148000000D01*
%TO.C,SW5*%
X232400000Y-68900000D02*
X245600000Y-68900000D01*
X232400000Y-82100000D02*
X232400000Y-68900000D01*
X245600000Y-68900000D02*
X245600000Y-82100000D01*
X245600000Y-82100000D02*
X232400000Y-82100000D01*
%TO.C,D14*%
X400340000Y-82750000D02*
X400340000Y-85250000D01*
X400340000Y-85250000D02*
X410060000Y-85250000D01*
X410060000Y-82750000D02*
X400340000Y-82750000D01*
X410060000Y-85250000D02*
X410060000Y-82750000D01*
%TO.C,D61*%
X215060000Y-146190000D02*
X215060000Y-148690000D01*
X215060000Y-148690000D02*
X224780000Y-148690000D01*
X224780000Y-146190000D02*
X215060000Y-146190000D01*
X224780000Y-148690000D02*
X224780000Y-146190000D01*
%TO.C,SW12*%
X421400000Y-69340000D02*
X434600000Y-69340000D01*
X421400000Y-82540000D02*
X421400000Y-69340000D01*
X434600000Y-69340000D02*
X434600000Y-82540000D01*
X434600000Y-82540000D02*
X421400000Y-82540000D01*
%TO.C,D96*%
X369810000Y-179990000D02*
X369810000Y-182490000D01*
X369810000Y-182490000D02*
X379530000Y-182490000D01*
X379530000Y-179990000D02*
X369810000Y-179990000D01*
X379530000Y-182490000D02*
X379530000Y-179990000D01*
%TO.C,D35*%
X277510000Y-131290000D02*
X277510000Y-133790000D01*
X277510000Y-133790000D02*
X287230000Y-133790000D01*
X287230000Y-131290000D02*
X277510000Y-131290000D01*
X287230000Y-133790000D02*
X287230000Y-131290000D01*
%TO.C,H11*%
X202400000Y-228000000D02*
G75*
G03*
X202400000Y-228000000I-4000000J0D01*
G01*
%TO.C,SW31*%
X463070000Y-92480000D02*
X476270000Y-92480000D01*
X463070000Y-105680000D02*
X463070000Y-92480000D01*
X476270000Y-92480000D02*
X476270000Y-105680000D01*
X476270000Y-105680000D02*
X463070000Y-105680000D01*
%TO.C,D27*%
X380710000Y-104315000D02*
X380710000Y-106815000D01*
X380710000Y-106815000D02*
X390430000Y-106815000D01*
X390430000Y-104315000D02*
X380710000Y-104315000D01*
X390430000Y-106815000D02*
X390430000Y-104315000D01*
%TO.C,H12*%
X327550000Y-128900000D02*
G75*
G03*
X327550000Y-128900000I-4000000J0D01*
G01*
%TO.C,D45*%
X467450000Y-130950000D02*
X467450000Y-133450000D01*
X467450000Y-133450000D02*
X477170000Y-133450000D01*
X477170000Y-130950000D02*
X467450000Y-130950000D01*
X477170000Y-133450000D02*
X477170000Y-130950000D01*
%TO.C,SW43*%
X381400000Y-112240000D02*
X394600000Y-112240000D01*
X381400000Y-125440000D02*
X381400000Y-112240000D01*
X394600000Y-112240000D02*
X394600000Y-125440000D01*
X394600000Y-125440000D02*
X381400000Y-125440000D01*
%TO.C,D33*%
X124050000Y-128750000D02*
X124050000Y-131250000D01*
X124050000Y-131250000D02*
X133770000Y-131250000D01*
X133770000Y-128750000D02*
X124050000Y-128750000D01*
X133770000Y-131250000D02*
X133770000Y-128750000D01*
%TO.C,D100*%
X215450000Y-188090000D02*
X215450000Y-190590000D01*
X215450000Y-190590000D02*
X225170000Y-190590000D01*
X225170000Y-188090000D02*
X215450000Y-188090000D01*
X225170000Y-190590000D02*
X225170000Y-188090000D01*
%TO.C,D11*%
X213750000Y-82750000D02*
X213750000Y-85250000D01*
X213750000Y-85250000D02*
X223470000Y-85250000D01*
X223470000Y-82750000D02*
X213750000Y-82750000D01*
X223470000Y-85250000D02*
X223470000Y-82750000D01*
%TO.C,SW85*%
X213400000Y-174740000D02*
X226600000Y-174740000D01*
X213400000Y-187940000D02*
X213400000Y-174740000D01*
X226600000Y-174740000D02*
X226600000Y-187940000D01*
X226600000Y-187940000D02*
X213400000Y-187940000D01*
%TO.C,D8*%
X337500000Y-82750000D02*
X337500000Y-85250000D01*
X337500000Y-85250000D02*
X347220000Y-85250000D01*
X347220000Y-82750000D02*
X337500000Y-82750000D01*
X347220000Y-85250000D02*
X347220000Y-82750000D01*
%TO.C,D26*%
X359510000Y-104755000D02*
X359510000Y-107255000D01*
X359510000Y-107255000D02*
X369230000Y-107255000D01*
X369230000Y-104755000D02*
X359510000Y-104755000D01*
X369230000Y-107255000D02*
X369230000Y-104755000D01*
%TO.C,D37*%
X193600000Y-49600000D02*
X193600000Y-52800000D01*
X193600000Y-52800000D02*
X198890000Y-52800000D01*
X198890000Y-49600000D02*
X193600000Y-49600000D01*
X198890000Y-52800000D02*
X198890000Y-49600000D01*
%TO.C,SW8*%
X335530000Y-69240000D02*
X348730000Y-69240000D01*
X335530000Y-82440000D02*
X335530000Y-69240000D01*
X348730000Y-69240000D02*
X348730000Y-82440000D01*
X348730000Y-82440000D02*
X335530000Y-82440000D01*
%TO.C,D17*%
X277030000Y-104550000D02*
X277030000Y-107050000D01*
X277030000Y-107050000D02*
X286750000Y-107050000D01*
X286750000Y-104550000D02*
X277030000Y-104550000D01*
X286750000Y-107050000D02*
X286750000Y-104550000D01*
%TO.C,D9*%
X358140000Y-82750000D02*
X358140000Y-85250000D01*
X358140000Y-85250000D02*
X367860000Y-85250000D01*
X367860000Y-82750000D02*
X358140000Y-82750000D01*
X367860000Y-85250000D02*
X367860000Y-82750000D01*
%TO.C,SW10*%
X377740000Y-69240000D02*
X390940000Y-69240000D01*
X377740000Y-82440000D02*
X377740000Y-69240000D01*
X390940000Y-69240000D02*
X390940000Y-82440000D01*
X390940000Y-82440000D02*
X377740000Y-82440000D01*
%TO.C,D64*%
X173130000Y-148650000D02*
X173130000Y-151150000D01*
X173130000Y-151150000D02*
X182850000Y-151150000D01*
X182850000Y-148650000D02*
X173130000Y-148650000D01*
X182850000Y-151150000D02*
X182850000Y-148650000D01*
%TO.C,D97*%
X467440000Y-192750000D02*
X467440000Y-195250000D01*
X467440000Y-195250000D02*
X477160000Y-195250000D01*
X477160000Y-192750000D02*
X467440000Y-192750000D01*
X477160000Y-195250000D02*
X477160000Y-192750000D01*
%TO.C,SW68*%
X234400000Y-153480000D02*
X247600000Y-153480000D01*
X234400000Y-166680000D02*
X234400000Y-153480000D01*
X247600000Y-153480000D02*
X247600000Y-166680000D01*
X247600000Y-166680000D02*
X234400000Y-166680000D01*
%TO.C,SW26*%
X358070000Y-90380000D02*
X371270000Y-90380000D01*
X358070000Y-103580000D02*
X358070000Y-90380000D01*
X371270000Y-90380000D02*
X371270000Y-103580000D01*
X371270000Y-103580000D02*
X358070000Y-103580000D01*
%TO.C,SW24*%
X276400000Y-90400000D02*
X289600000Y-90400000D01*
X276400000Y-103600000D02*
X276400000Y-90400000D01*
X289600000Y-90400000D02*
X289600000Y-103600000D01*
X289600000Y-103600000D02*
X276400000Y-103600000D01*
%TO.C,D70*%
X445140000Y-147315000D02*
X445140000Y-149815000D01*
X445140000Y-149815000D02*
X454860000Y-149815000D01*
X454860000Y-147315000D02*
X445140000Y-147315000D01*
X454860000Y-149815000D02*
X454860000Y-147315000D01*
%TO.C,D76*%
X339590000Y-161750000D02*
X339590000Y-164250000D01*
X339590000Y-164250000D02*
X349310000Y-164250000D01*
X349310000Y-161750000D02*
X339590000Y-161750000D01*
X349310000Y-164250000D02*
X349310000Y-161750000D01*
%TO.C,SW38*%
X234240000Y-111400000D02*
X247440000Y-111400000D01*
X234240000Y-124600000D02*
X234240000Y-111400000D01*
X247440000Y-111400000D02*
X247440000Y-124600000D01*
X247440000Y-124600000D02*
X234240000Y-124600000D01*
%TO.C,R5*%
X293970000Y-76950000D02*
X293970000Y-79050000D01*
X293970000Y-79050000D02*
X300950000Y-79050000D01*
X300950000Y-76950000D02*
X293970000Y-76950000D01*
X300950000Y-79050000D02*
X300950000Y-76950000D01*
%TO.C,SW35*%
X170210000Y-113940000D02*
X183410000Y-113940000D01*
X170210000Y-127140000D02*
X170210000Y-113940000D01*
X183410000Y-113940000D02*
X183410000Y-127140000D01*
X183410000Y-127140000D02*
X170210000Y-127140000D01*
%TO.C,SW81*%
X128860000Y-177080000D02*
X142060000Y-177080000D01*
X128860000Y-190280000D02*
X128860000Y-177080000D01*
X142060000Y-177080000D02*
X142060000Y-190280000D01*
X142060000Y-190280000D02*
X128860000Y-190280000D01*
%TO.C,H3*%
X201600000Y-34100000D02*
G75*
G03*
X201600000Y-34100000I-4000000J0D01*
G01*
%TO.C,D21*%
X171850000Y-107350000D02*
X171850000Y-109850000D01*
X171850000Y-109850000D02*
X181570000Y-109850000D01*
X181570000Y-107350000D02*
X171850000Y-107350000D01*
X181570000Y-109850000D02*
X181570000Y-107350000D01*
%TO.C,D58*%
X152170000Y-147850000D02*
X152170000Y-150350000D01*
X152170000Y-150350000D02*
X161890000Y-150350000D01*
X161890000Y-147850000D02*
X152170000Y-147850000D01*
X161890000Y-150350000D02*
X161890000Y-147850000D01*
%TO.C,SW20*%
X190480000Y-90400000D02*
X203680000Y-90400000D01*
X190480000Y-103600000D02*
X190480000Y-90400000D01*
X203680000Y-90400000D02*
X203680000Y-103600000D01*
X203680000Y-103600000D02*
X190480000Y-103600000D01*
%TO.C,D103*%
X404570000Y-190750000D02*
X404570000Y-193250000D01*
X404570000Y-193250000D02*
X414290000Y-193250000D01*
X414290000Y-190750000D02*
X404570000Y-190750000D01*
X414290000Y-193250000D02*
X414290000Y-190750000D01*
%TO.C,SW88*%
X281613828Y-203088941D02*
X293045363Y-209688941D01*
X275013828Y-214520477D02*
X281613828Y-203088941D01*
X293045363Y-209688941D02*
X286445363Y-221120477D01*
X286445363Y-221120477D02*
X275013828Y-214520477D01*
%TO.C,D98*%
X489920000Y-191750000D02*
X489920000Y-194250000D01*
X489920000Y-194250000D02*
X499640000Y-194250000D01*
X499640000Y-191750000D02*
X489920000Y-191750000D01*
X499640000Y-194250000D02*
X499640000Y-191750000D01*
%TO.C,SW86*%
X245044228Y-182154241D02*
X256475763Y-188754241D01*
X238444228Y-193585777D02*
X245044228Y-182154241D01*
X256475763Y-188754241D02*
X249875763Y-200185777D01*
X249875763Y-200185777D02*
X238444228Y-193585777D01*
%TO.C,SW23*%
X253900000Y-90400000D02*
X267100000Y-90400000D01*
X253900000Y-103600000D02*
X253900000Y-90400000D01*
X267100000Y-90400000D02*
X267100000Y-103600000D01*
X267100000Y-103600000D02*
X253900000Y-103600000D01*
%TO.C,SW73*%
X337400000Y-160600000D02*
X337400000Y-147400000D01*
X350600000Y-160600000D02*
X337400000Y-160600000D01*
X337400000Y-147400000D02*
X350600000Y-147400000D01*
X350600000Y-147400000D02*
X350600000Y-160600000D01*
%TO.C,SW54*%
X234420000Y-132300000D02*
X247620000Y-132300000D01*
X234420000Y-145500000D02*
X234420000Y-132300000D01*
X247620000Y-132300000D02*
X247620000Y-145500000D01*
X247620000Y-145500000D02*
X234420000Y-145500000D01*
%TO.C,SW69*%
X255400000Y-153480000D02*
X268600000Y-153480000D01*
X255400000Y-166680000D02*
X255400000Y-153480000D01*
X268600000Y-153480000D02*
X268600000Y-166680000D01*
X268600000Y-166680000D02*
X255400000Y-166680000D01*
%TO.C,D54*%
X446970000Y-127590000D02*
X446970000Y-130090000D01*
X446970000Y-130090000D02*
X456690000Y-130090000D01*
X456690000Y-127590000D02*
X446970000Y-127590000D01*
X456690000Y-130090000D02*
X456690000Y-127590000D01*
%TO.C,D10*%
X423600000Y-82750000D02*
X423600000Y-85250000D01*
X423600000Y-85250000D02*
X433320000Y-85250000D01*
X433320000Y-82750000D02*
X423600000Y-82750000D01*
X433320000Y-85250000D02*
X433320000Y-82750000D01*
%TO.C,SW74*%
X359730000Y-155400000D02*
X372930000Y-155400000D01*
X359730000Y-168600000D02*
X359730000Y-155400000D01*
X372930000Y-155400000D02*
X372930000Y-168600000D01*
X372930000Y-168600000D02*
X359730000Y-168600000D01*
%TO.C,D29*%
X422210000Y-104255000D02*
X422210000Y-106755000D01*
X422210000Y-106755000D02*
X431930000Y-106755000D01*
X431930000Y-104255000D02*
X422210000Y-104255000D01*
X431930000Y-106755000D02*
X431930000Y-104255000D01*
%TO.C,D25*%
X255230000Y-104550000D02*
X255230000Y-107050000D01*
X255230000Y-107050000D02*
X264950000Y-107050000D01*
X264950000Y-104550000D02*
X255230000Y-104550000D01*
X264950000Y-107050000D02*
X264950000Y-104550000D01*
%TO.C,SW93*%
X423470000Y-176380000D02*
X436670000Y-176380000D01*
X423470000Y-189580000D02*
X423470000Y-176380000D01*
X436670000Y-176380000D02*
X436670000Y-189580000D01*
X436670000Y-189580000D02*
X423470000Y-189580000D01*
%TO.C,D1*%
X150330000Y-82750000D02*
X150330000Y-85250000D01*
X150330000Y-85250000D02*
X160050000Y-85250000D01*
X160050000Y-82750000D02*
X150330000Y-82750000D01*
X160050000Y-85250000D02*
X160050000Y-82750000D01*
%TO.C,D24*%
X234750000Y-104550000D02*
X234750000Y-107050000D01*
X234750000Y-107050000D02*
X244470000Y-107050000D01*
X244470000Y-104550000D02*
X234750000Y-104550000D01*
X244470000Y-107050000D02*
X244470000Y-104550000D01*
%TO.C,SW65*%
X171060000Y-155880000D02*
X184260000Y-155880000D01*
X171060000Y-169080000D02*
X171060000Y-155880000D01*
X184260000Y-155880000D02*
X184260000Y-169080000D01*
X184260000Y-169080000D02*
X171060000Y-169080000D01*
%TO.C,D6*%
X444000000Y-83010000D02*
X444000000Y-85510000D01*
X444000000Y-85510000D02*
X453720000Y-85510000D01*
X453720000Y-83010000D02*
X444000000Y-83010000D01*
X453720000Y-85510000D02*
X453720000Y-83010000D01*
%TO.C,D74*%
X275610000Y-170630000D02*
X275610000Y-173130000D01*
X275610000Y-173130000D02*
X285330000Y-173130000D01*
X285330000Y-170630000D02*
X275610000Y-170630000D01*
X285330000Y-173130000D02*
X285330000Y-170630000D01*
%TO.C,D36*%
X165800000Y-49400000D02*
X165800000Y-52600000D01*
X165800000Y-52600000D02*
X171090000Y-52600000D01*
X171090000Y-49400000D02*
X165800000Y-49400000D01*
X171090000Y-52600000D02*
X171090000Y-49400000D01*
%TO.C,SW30*%
X442070000Y-90480000D02*
X455270000Y-90480000D01*
X442070000Y-103680000D02*
X442070000Y-90480000D01*
X455270000Y-90480000D02*
X455270000Y-103680000D01*
X455270000Y-103680000D02*
X442070000Y-103680000D01*
%TO.C,D41*%
X484114700Y-49190000D02*
X484114700Y-51290000D01*
X484114700Y-51290000D02*
X488704700Y-51290000D01*
X488704700Y-49190000D02*
X484114700Y-49190000D01*
X488704700Y-51290000D02*
X488704700Y-49190000D01*
%TO.C,D84*%
X404670000Y-170270000D02*
X404670000Y-172770000D01*
X404670000Y-172770000D02*
X414390000Y-172770000D01*
X414390000Y-170270000D02*
X404670000Y-170270000D01*
X414390000Y-172770000D02*
X414390000Y-170270000D01*
%TO.C,SW59*%
X422400000Y-134280000D02*
X435600000Y-134280000D01*
X422400000Y-147480000D02*
X422400000Y-134280000D01*
X435600000Y-134280000D02*
X435600000Y-147480000D01*
X435600000Y-147480000D02*
X422400000Y-147480000D01*
%TO.C,R10*%
X323510000Y-76950000D02*
X323510000Y-79050000D01*
X323510000Y-79050000D02*
X330490000Y-79050000D01*
X330490000Y-76950000D02*
X323510000Y-76950000D01*
X330490000Y-79050000D02*
X330490000Y-76950000D01*
%TO.C,SW25*%
X337400000Y-90480000D02*
X350600000Y-90480000D01*
X337400000Y-103680000D02*
X337400000Y-90480000D01*
X350600000Y-90480000D02*
X350600000Y-103680000D01*
X350600000Y-103680000D02*
X337400000Y-103680000D01*
%TD*%
M02*
