%TF.GenerationSoftware,KiCad,Pcbnew,7.0.5-4d25ed1034~172~ubuntu22.04.1*%
%TF.CreationDate,2023-06-17T05:02:06+02:00*%
%TF.ProjectId,Europe-ergo,4575726f-7065-42d6-9572-676f2e6b6963,rev?*%
%TF.SameCoordinates,Original*%
%TF.FileFunction,Drillmap*%
%TF.FilePolarity,Positive*%
%FSLAX45Y45*%
G04 Gerber Fmt 4.5, Leading zero omitted, Abs format (unit mm)*
G04 Created by KiCad (PCBNEW 7.0.5-4d25ed1034~172~ubuntu22.04.1) date 2023-06-17 05:02:06*
%MOMM*%
%LPD*%
G01*
G04 APERTURE LIST*
%ADD10C,0.100000*%
%ADD11C,0.200000*%
%ADD12C,0.150000*%
%ADD13C,0.170000*%
%ADD14C,0.180000*%
%ADD15C,0.400000*%
G04 APERTURE END LIST*
D10*
X30857000Y-10108000D02*
X30850000Y-3125000D01*
X31607500Y-8340000D02*
X31605000Y-3125000D01*
X31345000Y-22685000D02*
X31745000Y-22685000D01*
X9400000Y-2700000D02*
X30850000Y-2700000D01*
X52800000Y-23500000D02*
X52855000Y-2690000D01*
X31345000Y-22685000D02*
X30900000Y-22685000D01*
X31605000Y-3125000D02*
X30850000Y-3125000D01*
X52855000Y-2690000D02*
X30850000Y-2700000D01*
X30990000Y-23510000D02*
X52800000Y-23500000D01*
X30857000Y-10108000D02*
X30900000Y-22685000D01*
X31607500Y-8340000D02*
X31745000Y-22685000D01*
X30990000Y-23510000D02*
X9490000Y-23510000D01*
D11*
D12*
X30022000Y-4955000D02*
X30172000Y-5105000D01*
X30172000Y-4955000D02*
X30022000Y-5105000D01*
X30022000Y-5440000D02*
X30172000Y-5590000D01*
X30172000Y-5440000D02*
X30022000Y-5590000D01*
X32283000Y-4955000D02*
X32433000Y-5105000D01*
X32433000Y-4955000D02*
X32283000Y-5105000D01*
X32283000Y-5440000D02*
X32433000Y-5590000D01*
X32433000Y-5440000D02*
X32283000Y-5590000D01*
D13*
X12473000Y-9960000D02*
G75*
G03*
X12473000Y-9960000I-85000J0D01*
G01*
X12509000Y-12050000D02*
G75*
G03*
X12509000Y-12050000I-85000J0D01*
G01*
X12523000Y-14140000D02*
G75*
G03*
X12523000Y-14140000I-85000J0D01*
G01*
X12523000Y-16248000D02*
G75*
G03*
X12523000Y-16248000I-85000J0D01*
G01*
X13123000Y-18368000D02*
G75*
G03*
X13123000Y-18368000I-85000J0D01*
G01*
X13489000Y-9960000D02*
G75*
G03*
X13489000Y-9960000I-85000J0D01*
G01*
X13525000Y-12050000D02*
G75*
G03*
X13525000Y-12050000I-85000J0D01*
G01*
X13539000Y-14140000D02*
G75*
G03*
X13539000Y-14140000I-85000J0D01*
G01*
X13539000Y-16248000D02*
G75*
G03*
X13539000Y-16248000I-85000J0D01*
G01*
X14139000Y-18368000D02*
G75*
G03*
X14139000Y-18368000I-85000J0D01*
G01*
X14923000Y-7560000D02*
G75*
G03*
X14923000Y-7560000I-85000J0D01*
G01*
X15077000Y-9980000D02*
G75*
G03*
X15077000Y-9980000I-85000J0D01*
G01*
X15107000Y-12050000D02*
G75*
G03*
X15107000Y-12050000I-85000J0D01*
G01*
X15219000Y-16228000D02*
G75*
G03*
X15219000Y-16228000I-85000J0D01*
G01*
X15220000Y-14130000D02*
G75*
G03*
X15220000Y-14130000I-85000J0D01*
G01*
X15277000Y-18358000D02*
G75*
G03*
X15277000Y-18358000I-85000J0D01*
G01*
X15939000Y-7560000D02*
G75*
G03*
X15939000Y-7560000I-85000J0D01*
G01*
X16093000Y-9980000D02*
G75*
G03*
X16093000Y-9980000I-85000J0D01*
G01*
X16123000Y-12050000D02*
G75*
G03*
X16123000Y-12050000I-85000J0D01*
G01*
X16235000Y-16228000D02*
G75*
G03*
X16235000Y-16228000I-85000J0D01*
G01*
X16236000Y-14130000D02*
G75*
G03*
X16236000Y-14130000I-85000J0D01*
G01*
X16293000Y-18358000D02*
G75*
G03*
X16293000Y-18358000I-85000J0D01*
G01*
X17103000Y-7570000D02*
G75*
G03*
X17103000Y-7570000I-85000J0D01*
G01*
X17158000Y-9954000D02*
G75*
G03*
X17158000Y-9954000I-85000J0D01*
G01*
X17258000Y-12054000D02*
G75*
G03*
X17258000Y-12054000I-85000J0D01*
G01*
X17338000Y-14140000D02*
G75*
G03*
X17338000Y-14140000I-85000J0D01*
G01*
X17343000Y-16248000D02*
G75*
G03*
X17343000Y-16248000I-85000J0D01*
G01*
X17377000Y-18350000D02*
G75*
G03*
X17377000Y-18350000I-85000J0D01*
G01*
X18119000Y-7570000D02*
G75*
G03*
X18119000Y-7570000I-85000J0D01*
G01*
X18174000Y-9954000D02*
G75*
G03*
X18174000Y-9954000I-85000J0D01*
G01*
X18274000Y-12054000D02*
G75*
G03*
X18274000Y-12054000I-85000J0D01*
G01*
X18354000Y-14140000D02*
G75*
G03*
X18354000Y-14140000I-85000J0D01*
G01*
X18359000Y-16248000D02*
G75*
G03*
X18359000Y-16248000I-85000J0D01*
G01*
X18393000Y-18350000D02*
G75*
G03*
X18393000Y-18350000I-85000J0D01*
G01*
X19223000Y-7570000D02*
G75*
G03*
X19223000Y-7570000I-85000J0D01*
G01*
X19285000Y-9700000D02*
G75*
G03*
X19285000Y-9700000I-85000J0D01*
G01*
X19419000Y-11800000D02*
G75*
G03*
X19419000Y-11800000I-85000J0D01*
G01*
X19443000Y-15998000D02*
G75*
G03*
X19443000Y-15998000I-85000J0D01*
G01*
X19469000Y-13900000D02*
G75*
G03*
X19469000Y-13900000I-85000J0D01*
G01*
X19505000Y-18140000D02*
G75*
G03*
X19505000Y-18140000I-85000J0D01*
G01*
X20239000Y-7570000D02*
G75*
G03*
X20239000Y-7570000I-85000J0D01*
G01*
X20301000Y-9700000D02*
G75*
G03*
X20301000Y-9700000I-85000J0D01*
G01*
X20435000Y-11800000D02*
G75*
G03*
X20435000Y-11800000I-85000J0D01*
G01*
X20459000Y-15998000D02*
G75*
G03*
X20459000Y-15998000I-85000J0D01*
G01*
X20485000Y-13900000D02*
G75*
G03*
X20485000Y-13900000I-85000J0D01*
G01*
X20521000Y-18140000D02*
G75*
G03*
X20521000Y-18140000I-85000J0D01*
G01*
X21377000Y-7560000D02*
G75*
G03*
X21377000Y-7560000I-85000J0D01*
G01*
X21407000Y-9704000D02*
G75*
G03*
X21407000Y-9704000I-85000J0D01*
G01*
X21531000Y-11804000D02*
G75*
G03*
X21531000Y-11804000I-85000J0D01*
G01*
X21561000Y-13894000D02*
G75*
G03*
X21561000Y-13894000I-85000J0D01*
G01*
X21577000Y-16012000D02*
G75*
G03*
X21577000Y-16012000I-85000J0D01*
G01*
X21577000Y-18134000D02*
G75*
G03*
X21577000Y-18134000I-85000J0D01*
G01*
X22393000Y-7560000D02*
G75*
G03*
X22393000Y-7560000I-85000J0D01*
G01*
X22423000Y-9704000D02*
G75*
G03*
X22423000Y-9704000I-85000J0D01*
G01*
X22547000Y-11804000D02*
G75*
G03*
X22547000Y-11804000I-85000J0D01*
G01*
X22577000Y-13894000D02*
G75*
G03*
X22577000Y-13894000I-85000J0D01*
G01*
X22593000Y-16012000D02*
G75*
G03*
X22593000Y-16012000I-85000J0D01*
G01*
X22593000Y-18134000D02*
G75*
G03*
X22593000Y-18134000I-85000J0D01*
G01*
X23477000Y-7550000D02*
G75*
G03*
X23477000Y-7550000I-85000J0D01*
G01*
X23517000Y-9690000D02*
G75*
G03*
X23517000Y-9690000I-85000J0D01*
G01*
X23661000Y-11800000D02*
G75*
G03*
X23661000Y-11800000I-85000J0D01*
G01*
X23677000Y-16008000D02*
G75*
G03*
X23677000Y-16008000I-85000J0D01*
G01*
X23679000Y-13890000D02*
G75*
G03*
X23679000Y-13890000I-85000J0D01*
G01*
X24391059Y-18863001D02*
G75*
G03*
X24391059Y-18863001I-85000J0D01*
G01*
X24493000Y-7550000D02*
G75*
G03*
X24493000Y-7550000I-85000J0D01*
G01*
X24533000Y-9690000D02*
G75*
G03*
X24533000Y-9690000I-85000J0D01*
G01*
X24677000Y-11800000D02*
G75*
G03*
X24677000Y-11800000I-85000J0D01*
G01*
X24693000Y-16008000D02*
G75*
G03*
X24693000Y-16008000I-85000J0D01*
G01*
X24695000Y-13890000D02*
G75*
G03*
X24695000Y-13890000I-85000J0D01*
G01*
X25270940Y-19371001D02*
G75*
G03*
X25270940Y-19371001I-85000J0D01*
G01*
X25627000Y-9700000D02*
G75*
G03*
X25627000Y-9700000I-85000J0D01*
G01*
X25677000Y-7580000D02*
G75*
G03*
X25677000Y-7580000I-85000J0D01*
G01*
X25769000Y-11800000D02*
G75*
G03*
X25769000Y-11800000I-85000J0D01*
G01*
X25777000Y-13900000D02*
G75*
G03*
X25777000Y-13900000I-85000J0D01*
G01*
X25777000Y-16008000D02*
G75*
G03*
X25777000Y-16008000I-85000J0D01*
G01*
X26199059Y-19918001D02*
G75*
G03*
X26199059Y-19918001I-85000J0D01*
G01*
X26643000Y-9700000D02*
G75*
G03*
X26643000Y-9700000I-85000J0D01*
G01*
X26693000Y-7580000D02*
G75*
G03*
X26693000Y-7580000I-85000J0D01*
G01*
X26785000Y-11800000D02*
G75*
G03*
X26785000Y-11800000I-85000J0D01*
G01*
X26793000Y-13900000D02*
G75*
G03*
X26793000Y-13900000I-85000J0D01*
G01*
X26793000Y-16008000D02*
G75*
G03*
X26793000Y-16008000I-85000J0D01*
G01*
X27078940Y-20426001D02*
G75*
G03*
X27078940Y-20426001I-85000J0D01*
G01*
X27245059Y-18146001D02*
G75*
G03*
X27245059Y-18146001I-85000J0D01*
G01*
X27857000Y-7570000D02*
G75*
G03*
X27857000Y-7570000I-85000J0D01*
G01*
X27877000Y-9700000D02*
G75*
G03*
X27877000Y-9700000I-85000J0D01*
G01*
X28048019Y-20956471D02*
G75*
G03*
X28048019Y-20956471I-85000J0D01*
G01*
X28124940Y-18654001D02*
G75*
G03*
X28124940Y-18654001I-85000J0D01*
G01*
X28385000Y-11792000D02*
G75*
G03*
X28385000Y-11792000I-85000J0D01*
G01*
X28385000Y-12808000D02*
G75*
G03*
X28385000Y-12808000I-85000J0D01*
G01*
X28403000Y-14892000D02*
G75*
G03*
X28403000Y-14892000I-85000J0D01*
G01*
X28403000Y-15908000D02*
G75*
G03*
X28403000Y-15908000I-85000J0D01*
G01*
X28873000Y-7570000D02*
G75*
G03*
X28873000Y-7570000I-85000J0D01*
G01*
X28893000Y-9700000D02*
G75*
G03*
X28893000Y-9700000I-85000J0D01*
G01*
X28927900Y-21464471D02*
G75*
G03*
X28927900Y-21464471I-85000J0D01*
G01*
X33790000Y-7584000D02*
G75*
G03*
X33790000Y-7584000I-85000J0D01*
G01*
X33977000Y-9708000D02*
G75*
G03*
X33977000Y-9708000I-85000J0D01*
G01*
X33986059Y-21520001D02*
G75*
G03*
X33986059Y-21520001I-85000J0D01*
G01*
X34475000Y-11854000D02*
G75*
G03*
X34475000Y-11854000I-85000J0D01*
G01*
X34475000Y-12870000D02*
G75*
G03*
X34475000Y-12870000I-85000J0D01*
G01*
X34485000Y-14892000D02*
G75*
G03*
X34485000Y-14892000I-85000J0D01*
G01*
X34485000Y-15908000D02*
G75*
G03*
X34485000Y-15908000I-85000J0D01*
G01*
X34745059Y-18654001D02*
G75*
G03*
X34745059Y-18654001I-85000J0D01*
G01*
X34806000Y-7584000D02*
G75*
G03*
X34806000Y-7584000I-85000J0D01*
G01*
X34865941Y-21012001D02*
G75*
G03*
X34865941Y-21012001I-85000J0D01*
G01*
X34993000Y-9708000D02*
G75*
G03*
X34993000Y-9708000I-85000J0D01*
G01*
X35624941Y-18146001D02*
G75*
G03*
X35624941Y-18146001I-85000J0D01*
G01*
X35792059Y-20430001D02*
G75*
G03*
X35792059Y-20430001I-85000J0D01*
G01*
X35877000Y-7574000D02*
G75*
G03*
X35877000Y-7574000I-85000J0D01*
G01*
X36044000Y-9698000D02*
G75*
G03*
X36044000Y-9698000I-85000J0D01*
G01*
X36190000Y-14108000D02*
G75*
G03*
X36190000Y-14108000I-85000J0D01*
G01*
X36210000Y-16200000D02*
G75*
G03*
X36210000Y-16200000I-85000J0D01*
G01*
X36220000Y-11908000D02*
G75*
G03*
X36220000Y-11908000I-85000J0D01*
G01*
X36671941Y-19922001D02*
G75*
G03*
X36671941Y-19922001I-85000J0D01*
G01*
X36893000Y-7574000D02*
G75*
G03*
X36893000Y-7574000I-85000J0D01*
G01*
X37060000Y-9698000D02*
G75*
G03*
X37060000Y-9698000I-85000J0D01*
G01*
X37206000Y-14108000D02*
G75*
G03*
X37206000Y-14108000I-85000J0D01*
G01*
X37226000Y-16200000D02*
G75*
G03*
X37226000Y-16200000I-85000J0D01*
G01*
X37236000Y-11908000D02*
G75*
G03*
X37236000Y-11908000I-85000J0D01*
G01*
X37645059Y-19354001D02*
G75*
G03*
X37645059Y-19354001I-85000J0D01*
G01*
X38011000Y-7584000D02*
G75*
G03*
X38011000Y-7584000I-85000J0D01*
G01*
X38144000Y-9674000D02*
G75*
G03*
X38144000Y-9674000I-85000J0D01*
G01*
X38277000Y-14098000D02*
G75*
G03*
X38277000Y-14098000I-85000J0D01*
G01*
X38377000Y-11884000D02*
G75*
G03*
X38377000Y-11884000I-85000J0D01*
G01*
X38377000Y-16180000D02*
G75*
G03*
X38377000Y-16180000I-85000J0D01*
G01*
X38524941Y-18846001D02*
G75*
G03*
X38524941Y-18846001I-85000J0D01*
G01*
X39027000Y-7584000D02*
G75*
G03*
X39027000Y-7584000I-85000J0D01*
G01*
X39160000Y-9674000D02*
G75*
G03*
X39160000Y-9674000I-85000J0D01*
G01*
X39293000Y-14098000D02*
G75*
G03*
X39293000Y-14098000I-85000J0D01*
G01*
X39393000Y-11884000D02*
G75*
G03*
X39393000Y-11884000I-85000J0D01*
G01*
X39393000Y-16180000D02*
G75*
G03*
X39393000Y-16180000I-85000J0D01*
G01*
X40185000Y-7586000D02*
G75*
G03*
X40185000Y-7586000I-85000J0D01*
G01*
X40244000Y-9700000D02*
G75*
G03*
X40244000Y-9700000I-85000J0D01*
G01*
X40358000Y-14084000D02*
G75*
G03*
X40358000Y-14084000I-85000J0D01*
G01*
X40477000Y-11810000D02*
G75*
G03*
X40477000Y-11810000I-85000J0D01*
G01*
X40477000Y-16196000D02*
G75*
G03*
X40477000Y-16196000I-85000J0D01*
G01*
X40477000Y-18334000D02*
G75*
G03*
X40477000Y-18334000I-85000J0D01*
G01*
X41201000Y-7586000D02*
G75*
G03*
X41201000Y-7586000I-85000J0D01*
G01*
X41260000Y-9700000D02*
G75*
G03*
X41260000Y-9700000I-85000J0D01*
G01*
X41374000Y-14084000D02*
G75*
G03*
X41374000Y-14084000I-85000J0D01*
G01*
X41493000Y-11810000D02*
G75*
G03*
X41493000Y-11810000I-85000J0D01*
G01*
X41493000Y-16196000D02*
G75*
G03*
X41493000Y-16196000I-85000J0D01*
G01*
X41493000Y-18334000D02*
G75*
G03*
X41493000Y-18334000I-85000J0D01*
G01*
X42344000Y-9661000D02*
G75*
G03*
X42344000Y-9661000I-85000J0D01*
G01*
X42377000Y-7594000D02*
G75*
G03*
X42377000Y-7594000I-85000J0D01*
G01*
X42477000Y-14088000D02*
G75*
G03*
X42477000Y-14088000I-85000J0D01*
G01*
X42577000Y-11888000D02*
G75*
G03*
X42577000Y-11888000I-85000J0D01*
G01*
X42577000Y-16172000D02*
G75*
G03*
X42577000Y-16172000I-85000J0D01*
G01*
X42584000Y-18298000D02*
G75*
G03*
X42584000Y-18298000I-85000J0D01*
G01*
X43360000Y-9661000D02*
G75*
G03*
X43360000Y-9661000I-85000J0D01*
G01*
X43393000Y-7594000D02*
G75*
G03*
X43393000Y-7594000I-85000J0D01*
G01*
X43493000Y-14088000D02*
G75*
G03*
X43493000Y-14088000I-85000J0D01*
G01*
X43593000Y-11888000D02*
G75*
G03*
X43593000Y-11888000I-85000J0D01*
G01*
X43593000Y-16172000D02*
G75*
G03*
X43593000Y-16172000I-85000J0D01*
G01*
X43600000Y-18298000D02*
G75*
G03*
X43600000Y-18298000I-85000J0D01*
G01*
X44444000Y-9708000D02*
G75*
G03*
X44444000Y-9708000I-85000J0D01*
G01*
X44477000Y-7600000D02*
G75*
G03*
X44477000Y-7600000I-85000J0D01*
G01*
X44577000Y-13904000D02*
G75*
G03*
X44577000Y-13904000I-85000J0D01*
G01*
X44677000Y-11898000D02*
G75*
G03*
X44677000Y-11898000I-85000J0D01*
G01*
X44677000Y-15980000D02*
G75*
G03*
X44677000Y-15980000I-85000J0D01*
G01*
X44684000Y-18118000D02*
G75*
G03*
X44684000Y-18118000I-85000J0D01*
G01*
X45460000Y-9708000D02*
G75*
G03*
X45460000Y-9708000I-85000J0D01*
G01*
X45493000Y-7600000D02*
G75*
G03*
X45493000Y-7600000I-85000J0D01*
G01*
X45593000Y-13904000D02*
G75*
G03*
X45593000Y-13904000I-85000J0D01*
G01*
X45693000Y-11898000D02*
G75*
G03*
X45693000Y-11898000I-85000J0D01*
G01*
X45693000Y-15980000D02*
G75*
G03*
X45693000Y-15980000I-85000J0D01*
G01*
X45700000Y-18118000D02*
G75*
G03*
X45700000Y-18118000I-85000J0D01*
G01*
X46544000Y-9908000D02*
G75*
G03*
X46544000Y-9908000I-85000J0D01*
G01*
X46577000Y-7584000D02*
G75*
G03*
X46577000Y-7584000I-85000J0D01*
G01*
X46677000Y-14338000D02*
G75*
G03*
X46677000Y-14338000I-85000J0D01*
G01*
X46777000Y-12184000D02*
G75*
G03*
X46777000Y-12184000I-85000J0D01*
G01*
X46777000Y-16326000D02*
G75*
G03*
X46777000Y-16326000I-85000J0D01*
G01*
X46784000Y-18508000D02*
G75*
G03*
X46784000Y-18508000I-85000J0D01*
G01*
X47560000Y-9908000D02*
G75*
G03*
X47560000Y-9908000I-85000J0D01*
G01*
X47593000Y-7584000D02*
G75*
G03*
X47593000Y-7584000I-85000J0D01*
G01*
X47693000Y-14338000D02*
G75*
G03*
X47693000Y-14338000I-85000J0D01*
G01*
X47793000Y-12184000D02*
G75*
G03*
X47793000Y-12184000I-85000J0D01*
G01*
X47793000Y-16326000D02*
G75*
G03*
X47793000Y-16326000I-85000J0D01*
G01*
X47800000Y-18508000D02*
G75*
G03*
X47800000Y-18508000I-85000J0D01*
G01*
X48984000Y-18508000D02*
G75*
G03*
X48984000Y-18508000I-85000J0D01*
G01*
X49352500Y-14180000D02*
G75*
G03*
X49352500Y-14180000I-85000J0D01*
G01*
X49362500Y-9954000D02*
G75*
G03*
X49362500Y-9954000I-85000J0D01*
G01*
X49362500Y-12088000D02*
G75*
G03*
X49362500Y-12088000I-85000J0D01*
G01*
X49382500Y-16280000D02*
G75*
G03*
X49382500Y-16280000I-85000J0D01*
G01*
X50000000Y-18508000D02*
G75*
G03*
X50000000Y-18508000I-85000J0D01*
G01*
X50368500Y-14180000D02*
G75*
G03*
X50368500Y-14180000I-85000J0D01*
G01*
X50378500Y-9954000D02*
G75*
G03*
X50378500Y-9954000I-85000J0D01*
G01*
X50378500Y-12088000D02*
G75*
G03*
X50378500Y-12088000I-85000J0D01*
G01*
X50398500Y-16280000D02*
G75*
G03*
X50398500Y-16280000I-85000J0D01*
G01*
D14*
X30400000Y-4910000D02*
X30400000Y-5090000D01*
X30310000Y-5000000D02*
X30490000Y-5000000D01*
X30400000Y-5455000D02*
X30400000Y-5635000D01*
X30310000Y-5545000D02*
X30490000Y-5545000D01*
X32055000Y-4910000D02*
X32055000Y-5090000D01*
X31965000Y-5000000D02*
X32145000Y-5000000D01*
X32055000Y-5455000D02*
X32055000Y-5635000D01*
X31965000Y-5545000D02*
X32145000Y-5545000D01*
D15*
X13037423Y-10101423D02*
X13037423Y-9818577D01*
X12754577Y-9818577D01*
X12754577Y-10101423D01*
X13037423Y-10101423D01*
X13073423Y-12191423D02*
X13073423Y-11908577D01*
X12790577Y-11908577D01*
X12790577Y-12191423D01*
X13073423Y-12191423D01*
X13087423Y-14281423D02*
X13087423Y-13998577D01*
X12804577Y-13998577D01*
X12804577Y-14281423D01*
X13087423Y-14281423D01*
X13087423Y-16389423D02*
X13087423Y-16106577D01*
X12804577Y-16106577D01*
X12804577Y-16389423D01*
X13087423Y-16389423D01*
X13687423Y-18509423D02*
X13687423Y-18226577D01*
X13404577Y-18226577D01*
X13404577Y-18509423D01*
X13687423Y-18509423D01*
X15487423Y-7701423D02*
X15487423Y-7418577D01*
X15204577Y-7418577D01*
X15204577Y-7701423D01*
X15487423Y-7701423D01*
X15641423Y-10121423D02*
X15641423Y-9838577D01*
X15358577Y-9838577D01*
X15358577Y-10121423D01*
X15641423Y-10121423D01*
X15671423Y-12191423D02*
X15671423Y-11908577D01*
X15388577Y-11908577D01*
X15388577Y-12191423D01*
X15671423Y-12191423D01*
X15783423Y-16369423D02*
X15783423Y-16086577D01*
X15500577Y-16086577D01*
X15500577Y-16369423D01*
X15783423Y-16369423D01*
X15784423Y-14271423D02*
X15784423Y-13988577D01*
X15501577Y-13988577D01*
X15501577Y-14271423D01*
X15784423Y-14271423D01*
X15841423Y-18499423D02*
X15841423Y-18216577D01*
X15558577Y-18216577D01*
X15558577Y-18499423D01*
X15841423Y-18499423D01*
X17667423Y-7711423D02*
X17667423Y-7428577D01*
X17384577Y-7428577D01*
X17384577Y-7711423D01*
X17667423Y-7711423D01*
X17722423Y-10095423D02*
X17722423Y-9812577D01*
X17439577Y-9812577D01*
X17439577Y-10095423D01*
X17722423Y-10095423D01*
X17822423Y-12195423D02*
X17822423Y-11912577D01*
X17539577Y-11912577D01*
X17539577Y-12195423D01*
X17822423Y-12195423D01*
X17902423Y-14281423D02*
X17902423Y-13998577D01*
X17619577Y-13998577D01*
X17619577Y-14281423D01*
X17902423Y-14281423D01*
X17907423Y-16389423D02*
X17907423Y-16106577D01*
X17624577Y-16106577D01*
X17624577Y-16389423D01*
X17907423Y-16389423D01*
X17941423Y-18491423D02*
X17941423Y-18208577D01*
X17658577Y-18208577D01*
X17658577Y-18491423D01*
X17941423Y-18491423D01*
X19787423Y-7711423D02*
X19787423Y-7428577D01*
X19504577Y-7428577D01*
X19504577Y-7711423D01*
X19787423Y-7711423D01*
X19849423Y-9841423D02*
X19849423Y-9558577D01*
X19566577Y-9558577D01*
X19566577Y-9841423D01*
X19849423Y-9841423D01*
X19983423Y-11941423D02*
X19983423Y-11658577D01*
X19700577Y-11658577D01*
X19700577Y-11941423D01*
X19983423Y-11941423D01*
X20007423Y-16139423D02*
X20007423Y-15856577D01*
X19724577Y-15856577D01*
X19724577Y-16139423D01*
X20007423Y-16139423D01*
X20033423Y-14041423D02*
X20033423Y-13758577D01*
X19750577Y-13758577D01*
X19750577Y-14041423D01*
X20033423Y-14041423D01*
X20069423Y-18281423D02*
X20069423Y-17998577D01*
X19786577Y-17998577D01*
X19786577Y-18281423D01*
X20069423Y-18281423D01*
X21941423Y-7701423D02*
X21941423Y-7418577D01*
X21658577Y-7418577D01*
X21658577Y-7701423D01*
X21941423Y-7701423D01*
X21971423Y-9845423D02*
X21971423Y-9562577D01*
X21688577Y-9562577D01*
X21688577Y-9845423D01*
X21971423Y-9845423D01*
X22095423Y-11945423D02*
X22095423Y-11662577D01*
X21812577Y-11662577D01*
X21812577Y-11945423D01*
X22095423Y-11945423D01*
X22125423Y-14035423D02*
X22125423Y-13752577D01*
X21842577Y-13752577D01*
X21842577Y-14035423D01*
X22125423Y-14035423D01*
X22141423Y-16153423D02*
X22141423Y-15870577D01*
X21858577Y-15870577D01*
X21858577Y-16153423D01*
X22141423Y-16153423D01*
X22141423Y-18275423D02*
X22141423Y-17992577D01*
X21858577Y-17992577D01*
X21858577Y-18275423D01*
X22141423Y-18275423D01*
X24041423Y-7691423D02*
X24041423Y-7408577D01*
X23758577Y-7408577D01*
X23758577Y-7691423D01*
X24041423Y-7691423D01*
X24081423Y-9831423D02*
X24081423Y-9548577D01*
X23798577Y-9548577D01*
X23798577Y-9831423D01*
X24081423Y-9831423D01*
X24225423Y-11941423D02*
X24225423Y-11658577D01*
X23942577Y-11658577D01*
X23942577Y-11941423D01*
X24225423Y-11941423D01*
X24241423Y-16149423D02*
X24241423Y-15866577D01*
X23958577Y-15866577D01*
X23958577Y-16149423D01*
X24241423Y-16149423D01*
X24243423Y-14031423D02*
X24243423Y-13748577D01*
X23960577Y-13748577D01*
X23960577Y-14031423D01*
X24243423Y-14031423D01*
X24887422Y-19258424D02*
X24887422Y-18975578D01*
X24604577Y-18975578D01*
X24604577Y-19258424D01*
X24887422Y-19258424D01*
X26191423Y-9841423D02*
X26191423Y-9558577D01*
X25908577Y-9558577D01*
X25908577Y-9841423D01*
X26191423Y-9841423D01*
X26241423Y-7721423D02*
X26241423Y-7438577D01*
X25958577Y-7438577D01*
X25958577Y-7721423D01*
X26241423Y-7721423D01*
X26333423Y-11941423D02*
X26333423Y-11658577D01*
X26050577Y-11658577D01*
X26050577Y-11941423D01*
X26333423Y-11941423D01*
X26341423Y-14041423D02*
X26341423Y-13758577D01*
X26058577Y-13758577D01*
X26058577Y-14041423D01*
X26341423Y-14041423D01*
X26341423Y-16149423D02*
X26341423Y-15866577D01*
X26058577Y-15866577D01*
X26058577Y-16149423D01*
X26341423Y-16149423D01*
X26695422Y-20313424D02*
X26695422Y-20030578D01*
X26412577Y-20030578D01*
X26412577Y-20313424D01*
X26695422Y-20313424D01*
X27741422Y-18541424D02*
X27741422Y-18258578D01*
X27458577Y-18258578D01*
X27458577Y-18541424D01*
X27741422Y-18541424D01*
X28421423Y-7711423D02*
X28421423Y-7428577D01*
X28138577Y-7428577D01*
X28138577Y-7711423D01*
X28421423Y-7711423D01*
X28441423Y-9841423D02*
X28441423Y-9558577D01*
X28158577Y-9558577D01*
X28158577Y-9841423D01*
X28441423Y-9841423D01*
X28441423Y-12441423D02*
X28441423Y-12158577D01*
X28158577Y-12158577D01*
X28158577Y-12441423D01*
X28441423Y-12441423D01*
X28459423Y-15541423D02*
X28459423Y-15258577D01*
X28176577Y-15258577D01*
X28176577Y-15541423D01*
X28459423Y-15541423D01*
X28544382Y-21351894D02*
X28544382Y-21069048D01*
X28261537Y-21069048D01*
X28261537Y-21351894D01*
X28544382Y-21351894D01*
X34354423Y-7725423D02*
X34354423Y-7442577D01*
X34071577Y-7442577D01*
X34071577Y-7725423D01*
X34354423Y-7725423D01*
X34482422Y-21407424D02*
X34482422Y-21124578D01*
X34199577Y-21124578D01*
X34199577Y-21407424D01*
X34482422Y-21407424D01*
X34531423Y-12503423D02*
X34531423Y-12220577D01*
X34248577Y-12220577D01*
X34248577Y-12503423D01*
X34531423Y-12503423D01*
X34541423Y-9849423D02*
X34541423Y-9566577D01*
X34258577Y-9566577D01*
X34258577Y-9849423D01*
X34541423Y-9849423D01*
X34541423Y-15541423D02*
X34541423Y-15258577D01*
X34258577Y-15258577D01*
X34258577Y-15541423D01*
X34541423Y-15541423D01*
X35241422Y-18541424D02*
X35241422Y-18258578D01*
X34958577Y-18258578D01*
X34958577Y-18541424D01*
X35241422Y-18541424D01*
X36288422Y-20317424D02*
X36288422Y-20034578D01*
X36005577Y-20034578D01*
X36005577Y-20317424D01*
X36288422Y-20317424D01*
X36441423Y-7715423D02*
X36441423Y-7432577D01*
X36158577Y-7432577D01*
X36158577Y-7715423D01*
X36441423Y-7715423D01*
X36608423Y-9839423D02*
X36608423Y-9556577D01*
X36325577Y-9556577D01*
X36325577Y-9839423D01*
X36608423Y-9839423D01*
X36754423Y-14249423D02*
X36754423Y-13966577D01*
X36471577Y-13966577D01*
X36471577Y-14249423D01*
X36754423Y-14249423D01*
X36774423Y-16341423D02*
X36774423Y-16058577D01*
X36491577Y-16058577D01*
X36491577Y-16341423D01*
X36774423Y-16341423D01*
X36784423Y-12049423D02*
X36784423Y-11766577D01*
X36501577Y-11766577D01*
X36501577Y-12049423D01*
X36784423Y-12049423D01*
X38141422Y-19241424D02*
X38141422Y-18958578D01*
X37858577Y-18958578D01*
X37858577Y-19241424D01*
X38141422Y-19241424D01*
X38575423Y-7725423D02*
X38575423Y-7442577D01*
X38292577Y-7442577D01*
X38292577Y-7725423D01*
X38575423Y-7725423D01*
X38708423Y-9815423D02*
X38708423Y-9532577D01*
X38425577Y-9532577D01*
X38425577Y-9815423D01*
X38708423Y-9815423D01*
X38841423Y-14239423D02*
X38841423Y-13956577D01*
X38558577Y-13956577D01*
X38558577Y-14239423D01*
X38841423Y-14239423D01*
X38941423Y-12025423D02*
X38941423Y-11742577D01*
X38658577Y-11742577D01*
X38658577Y-12025423D01*
X38941423Y-12025423D01*
X38941423Y-16321423D02*
X38941423Y-16038577D01*
X38658577Y-16038577D01*
X38658577Y-16321423D01*
X38941423Y-16321423D01*
X40749423Y-7727423D02*
X40749423Y-7444577D01*
X40466577Y-7444577D01*
X40466577Y-7727423D01*
X40749423Y-7727423D01*
X40808423Y-9841423D02*
X40808423Y-9558577D01*
X40525577Y-9558577D01*
X40525577Y-9841423D01*
X40808423Y-9841423D01*
X40922423Y-14225423D02*
X40922423Y-13942577D01*
X40639577Y-13942577D01*
X40639577Y-14225423D01*
X40922423Y-14225423D01*
X41041423Y-11951423D02*
X41041423Y-11668577D01*
X40758577Y-11668577D01*
X40758577Y-11951423D01*
X41041423Y-11951423D01*
X41041423Y-16337423D02*
X41041423Y-16054577D01*
X40758577Y-16054577D01*
X40758577Y-16337423D01*
X41041423Y-16337423D01*
X41041423Y-18475423D02*
X41041423Y-18192577D01*
X40758577Y-18192577D01*
X40758577Y-18475423D01*
X41041423Y-18475423D01*
X42908423Y-9802423D02*
X42908423Y-9519577D01*
X42625577Y-9519577D01*
X42625577Y-9802423D01*
X42908423Y-9802423D01*
X42941423Y-7735423D02*
X42941423Y-7452577D01*
X42658577Y-7452577D01*
X42658577Y-7735423D01*
X42941423Y-7735423D01*
X43041423Y-14229423D02*
X43041423Y-13946577D01*
X42758577Y-13946577D01*
X42758577Y-14229423D01*
X43041423Y-14229423D01*
X43141423Y-12029423D02*
X43141423Y-11746577D01*
X42858577Y-11746577D01*
X42858577Y-12029423D01*
X43141423Y-12029423D01*
X43141423Y-16313423D02*
X43141423Y-16030577D01*
X42858577Y-16030577D01*
X42858577Y-16313423D01*
X43141423Y-16313423D01*
X43148423Y-18439423D02*
X43148423Y-18156577D01*
X42865577Y-18156577D01*
X42865577Y-18439423D01*
X43148423Y-18439423D01*
X45008423Y-9849423D02*
X45008423Y-9566577D01*
X44725577Y-9566577D01*
X44725577Y-9849423D01*
X45008423Y-9849423D01*
X45041423Y-7741423D02*
X45041423Y-7458577D01*
X44758577Y-7458577D01*
X44758577Y-7741423D01*
X45041423Y-7741423D01*
X45141423Y-14045423D02*
X45141423Y-13762577D01*
X44858577Y-13762577D01*
X44858577Y-14045423D01*
X45141423Y-14045423D01*
X45241423Y-12039423D02*
X45241423Y-11756577D01*
X44958577Y-11756577D01*
X44958577Y-12039423D01*
X45241423Y-12039423D01*
X45241423Y-16121423D02*
X45241423Y-15838577D01*
X44958577Y-15838577D01*
X44958577Y-16121423D01*
X45241423Y-16121423D01*
X45248423Y-18259423D02*
X45248423Y-17976577D01*
X44965577Y-17976577D01*
X44965577Y-18259423D01*
X45248423Y-18259423D01*
X47108423Y-10049423D02*
X47108423Y-9766577D01*
X46825577Y-9766577D01*
X46825577Y-10049423D01*
X47108423Y-10049423D01*
X47141423Y-7725423D02*
X47141423Y-7442577D01*
X46858577Y-7442577D01*
X46858577Y-7725423D01*
X47141423Y-7725423D01*
X47241423Y-14479423D02*
X47241423Y-14196577D01*
X46958577Y-14196577D01*
X46958577Y-14479423D01*
X47241423Y-14479423D01*
X47341423Y-12325423D02*
X47341423Y-12042577D01*
X47058577Y-12042577D01*
X47058577Y-12325423D01*
X47341423Y-12325423D01*
X47341423Y-16467423D02*
X47341423Y-16184577D01*
X47058577Y-16184577D01*
X47058577Y-16467423D01*
X47341423Y-16467423D01*
X47348423Y-18649423D02*
X47348423Y-18366577D01*
X47065577Y-18366577D01*
X47065577Y-18649423D01*
X47348423Y-18649423D01*
X49548423Y-18649423D02*
X49548423Y-18366577D01*
X49265577Y-18366577D01*
X49265577Y-18649423D01*
X49548423Y-18649423D01*
X49916923Y-14321423D02*
X49916923Y-14038577D01*
X49634077Y-14038577D01*
X49634077Y-14321423D01*
X49916923Y-14321423D01*
X49926923Y-10095423D02*
X49926923Y-9812577D01*
X49644077Y-9812577D01*
X49644077Y-10095423D01*
X49926923Y-10095423D01*
X49926923Y-12229423D02*
X49926923Y-11946577D01*
X49644077Y-11946577D01*
X49644077Y-12229423D01*
X49926923Y-12229423D01*
X49946923Y-16421423D02*
X49946923Y-16138577D01*
X49664077Y-16138577D01*
X49664077Y-16421423D01*
X49946923Y-16421423D01*
D11*
X9655777Y-23826484D02*
X9655777Y-23626484D01*
X9655777Y-23626484D02*
X9703396Y-23626484D01*
X9703396Y-23626484D02*
X9731967Y-23636008D01*
X9731967Y-23636008D02*
X9751015Y-23655055D01*
X9751015Y-23655055D02*
X9760539Y-23674103D01*
X9760539Y-23674103D02*
X9770063Y-23712198D01*
X9770063Y-23712198D02*
X9770063Y-23740769D01*
X9770063Y-23740769D02*
X9760539Y-23778865D01*
X9760539Y-23778865D02*
X9751015Y-23797912D01*
X9751015Y-23797912D02*
X9731967Y-23816960D01*
X9731967Y-23816960D02*
X9703396Y-23826484D01*
X9703396Y-23826484D02*
X9655777Y-23826484D01*
X9855777Y-23826484D02*
X9855777Y-23693150D01*
X9855777Y-23731246D02*
X9865301Y-23712198D01*
X9865301Y-23712198D02*
X9874824Y-23702674D01*
X9874824Y-23702674D02*
X9893872Y-23693150D01*
X9893872Y-23693150D02*
X9912920Y-23693150D01*
X9979586Y-23826484D02*
X9979586Y-23693150D01*
X9979586Y-23626484D02*
X9970063Y-23636008D01*
X9970063Y-23636008D02*
X9979586Y-23645531D01*
X9979586Y-23645531D02*
X9989110Y-23636008D01*
X9989110Y-23636008D02*
X9979586Y-23626484D01*
X9979586Y-23626484D02*
X9979586Y-23645531D01*
X10103396Y-23826484D02*
X10084348Y-23816960D01*
X10084348Y-23816960D02*
X10074824Y-23797912D01*
X10074824Y-23797912D02*
X10074824Y-23626484D01*
X10208158Y-23826484D02*
X10189110Y-23816960D01*
X10189110Y-23816960D02*
X10179586Y-23797912D01*
X10179586Y-23797912D02*
X10179586Y-23626484D01*
X10436729Y-23826484D02*
X10436729Y-23626484D01*
X10436729Y-23626484D02*
X10503396Y-23769341D01*
X10503396Y-23769341D02*
X10570063Y-23626484D01*
X10570063Y-23626484D02*
X10570063Y-23826484D01*
X10751015Y-23826484D02*
X10751015Y-23721722D01*
X10751015Y-23721722D02*
X10741491Y-23702674D01*
X10741491Y-23702674D02*
X10722444Y-23693150D01*
X10722444Y-23693150D02*
X10684348Y-23693150D01*
X10684348Y-23693150D02*
X10665301Y-23702674D01*
X10751015Y-23816960D02*
X10731967Y-23826484D01*
X10731967Y-23826484D02*
X10684348Y-23826484D01*
X10684348Y-23826484D02*
X10665301Y-23816960D01*
X10665301Y-23816960D02*
X10655777Y-23797912D01*
X10655777Y-23797912D02*
X10655777Y-23778865D01*
X10655777Y-23778865D02*
X10665301Y-23759817D01*
X10665301Y-23759817D02*
X10684348Y-23750293D01*
X10684348Y-23750293D02*
X10731967Y-23750293D01*
X10731967Y-23750293D02*
X10751015Y-23740769D01*
X10846253Y-23693150D02*
X10846253Y-23893150D01*
X10846253Y-23702674D02*
X10865301Y-23693150D01*
X10865301Y-23693150D02*
X10903396Y-23693150D01*
X10903396Y-23693150D02*
X10922444Y-23702674D01*
X10922444Y-23702674D02*
X10931967Y-23712198D01*
X10931967Y-23712198D02*
X10941491Y-23731246D01*
X10941491Y-23731246D02*
X10941491Y-23788388D01*
X10941491Y-23788388D02*
X10931967Y-23807436D01*
X10931967Y-23807436D02*
X10922444Y-23816960D01*
X10922444Y-23816960D02*
X10903396Y-23826484D01*
X10903396Y-23826484D02*
X10865301Y-23826484D01*
X10865301Y-23826484D02*
X10846253Y-23816960D01*
X11027205Y-23807436D02*
X11036729Y-23816960D01*
X11036729Y-23816960D02*
X11027205Y-23826484D01*
X11027205Y-23826484D02*
X11017682Y-23816960D01*
X11017682Y-23816960D02*
X11027205Y-23807436D01*
X11027205Y-23807436D02*
X11027205Y-23826484D01*
X11027205Y-23702674D02*
X11036729Y-23712198D01*
X11036729Y-23712198D02*
X11027205Y-23721722D01*
X11027205Y-23721722D02*
X11017682Y-23712198D01*
X11017682Y-23712198D02*
X11027205Y-23702674D01*
X11027205Y-23702674D02*
X11027205Y-23721722D01*
D12*
X9245000Y-24080000D02*
X9395000Y-24230000D01*
X9395000Y-24080000D02*
X9245000Y-24230000D01*
D11*
X9760539Y-24246484D02*
X9646253Y-24246484D01*
X9703396Y-24246484D02*
X9703396Y-24046484D01*
X9703396Y-24046484D02*
X9684348Y-24075055D01*
X9684348Y-24075055D02*
X9665301Y-24094103D01*
X9665301Y-24094103D02*
X9646253Y-24103627D01*
X9846253Y-24227436D02*
X9855777Y-24236960D01*
X9855777Y-24236960D02*
X9846253Y-24246484D01*
X9846253Y-24246484D02*
X9836729Y-24236960D01*
X9836729Y-24236960D02*
X9846253Y-24227436D01*
X9846253Y-24227436D02*
X9846253Y-24246484D01*
X10036729Y-24046484D02*
X9941491Y-24046484D01*
X9941491Y-24046484D02*
X9931967Y-24141722D01*
X9931967Y-24141722D02*
X9941491Y-24132198D01*
X9941491Y-24132198D02*
X9960539Y-24122674D01*
X9960539Y-24122674D02*
X10008158Y-24122674D01*
X10008158Y-24122674D02*
X10027205Y-24132198D01*
X10027205Y-24132198D02*
X10036729Y-24141722D01*
X10036729Y-24141722D02*
X10046253Y-24160769D01*
X10046253Y-24160769D02*
X10046253Y-24208388D01*
X10046253Y-24208388D02*
X10036729Y-24227436D01*
X10036729Y-24227436D02*
X10027205Y-24236960D01*
X10027205Y-24236960D02*
X10008158Y-24246484D01*
X10008158Y-24246484D02*
X9960539Y-24246484D01*
X9960539Y-24246484D02*
X9941491Y-24236960D01*
X9941491Y-24236960D02*
X9931967Y-24227436D01*
X10170063Y-24046484D02*
X10189110Y-24046484D01*
X10189110Y-24046484D02*
X10208158Y-24056008D01*
X10208158Y-24056008D02*
X10217682Y-24065531D01*
X10217682Y-24065531D02*
X10227205Y-24084579D01*
X10227205Y-24084579D02*
X10236729Y-24122674D01*
X10236729Y-24122674D02*
X10236729Y-24170293D01*
X10236729Y-24170293D02*
X10227205Y-24208388D01*
X10227205Y-24208388D02*
X10217682Y-24227436D01*
X10217682Y-24227436D02*
X10208158Y-24236960D01*
X10208158Y-24236960D02*
X10189110Y-24246484D01*
X10189110Y-24246484D02*
X10170063Y-24246484D01*
X10170063Y-24246484D02*
X10151015Y-24236960D01*
X10151015Y-24236960D02*
X10141491Y-24227436D01*
X10141491Y-24227436D02*
X10131967Y-24208388D01*
X10131967Y-24208388D02*
X10122444Y-24170293D01*
X10122444Y-24170293D02*
X10122444Y-24122674D01*
X10122444Y-24122674D02*
X10131967Y-24084579D01*
X10131967Y-24084579D02*
X10141491Y-24065531D01*
X10141491Y-24065531D02*
X10151015Y-24056008D01*
X10151015Y-24056008D02*
X10170063Y-24046484D01*
X10360539Y-24046484D02*
X10379586Y-24046484D01*
X10379586Y-24046484D02*
X10398634Y-24056008D01*
X10398634Y-24056008D02*
X10408158Y-24065531D01*
X10408158Y-24065531D02*
X10417682Y-24084579D01*
X10417682Y-24084579D02*
X10427205Y-24122674D01*
X10427205Y-24122674D02*
X10427205Y-24170293D01*
X10427205Y-24170293D02*
X10417682Y-24208388D01*
X10417682Y-24208388D02*
X10408158Y-24227436D01*
X10408158Y-24227436D02*
X10398634Y-24236960D01*
X10398634Y-24236960D02*
X10379586Y-24246484D01*
X10379586Y-24246484D02*
X10360539Y-24246484D01*
X10360539Y-24246484D02*
X10341491Y-24236960D01*
X10341491Y-24236960D02*
X10331967Y-24227436D01*
X10331967Y-24227436D02*
X10322444Y-24208388D01*
X10322444Y-24208388D02*
X10312920Y-24170293D01*
X10312920Y-24170293D02*
X10312920Y-24122674D01*
X10312920Y-24122674D02*
X10322444Y-24084579D01*
X10322444Y-24084579D02*
X10331967Y-24065531D01*
X10331967Y-24065531D02*
X10341491Y-24056008D01*
X10341491Y-24056008D02*
X10360539Y-24046484D01*
X10512920Y-24246484D02*
X10512920Y-24113150D01*
X10512920Y-24132198D02*
X10522444Y-24122674D01*
X10522444Y-24122674D02*
X10541491Y-24113150D01*
X10541491Y-24113150D02*
X10570063Y-24113150D01*
X10570063Y-24113150D02*
X10589110Y-24122674D01*
X10589110Y-24122674D02*
X10598634Y-24141722D01*
X10598634Y-24141722D02*
X10598634Y-24246484D01*
X10598634Y-24141722D02*
X10608158Y-24122674D01*
X10608158Y-24122674D02*
X10627205Y-24113150D01*
X10627205Y-24113150D02*
X10655777Y-24113150D01*
X10655777Y-24113150D02*
X10674825Y-24122674D01*
X10674825Y-24122674D02*
X10684348Y-24141722D01*
X10684348Y-24141722D02*
X10684348Y-24246484D01*
X10779586Y-24246484D02*
X10779586Y-24113150D01*
X10779586Y-24132198D02*
X10789110Y-24122674D01*
X10789110Y-24122674D02*
X10808158Y-24113150D01*
X10808158Y-24113150D02*
X10836729Y-24113150D01*
X10836729Y-24113150D02*
X10855777Y-24122674D01*
X10855777Y-24122674D02*
X10865301Y-24141722D01*
X10865301Y-24141722D02*
X10865301Y-24246484D01*
X10865301Y-24141722D02*
X10874825Y-24122674D01*
X10874825Y-24122674D02*
X10893872Y-24113150D01*
X10893872Y-24113150D02*
X10922444Y-24113150D01*
X10922444Y-24113150D02*
X10941491Y-24122674D01*
X10941491Y-24122674D02*
X10951015Y-24141722D01*
X10951015Y-24141722D02*
X10951015Y-24246484D01*
X11341491Y-24036960D02*
X11170063Y-24294103D01*
X11598634Y-24046484D02*
X11617682Y-24046484D01*
X11617682Y-24046484D02*
X11636729Y-24056008D01*
X11636729Y-24056008D02*
X11646253Y-24065531D01*
X11646253Y-24065531D02*
X11655777Y-24084579D01*
X11655777Y-24084579D02*
X11665301Y-24122674D01*
X11665301Y-24122674D02*
X11665301Y-24170293D01*
X11665301Y-24170293D02*
X11655777Y-24208388D01*
X11655777Y-24208388D02*
X11646253Y-24227436D01*
X11646253Y-24227436D02*
X11636729Y-24236960D01*
X11636729Y-24236960D02*
X11617682Y-24246484D01*
X11617682Y-24246484D02*
X11598634Y-24246484D01*
X11598634Y-24246484D02*
X11579586Y-24236960D01*
X11579586Y-24236960D02*
X11570063Y-24227436D01*
X11570063Y-24227436D02*
X11560539Y-24208388D01*
X11560539Y-24208388D02*
X11551015Y-24170293D01*
X11551015Y-24170293D02*
X11551015Y-24122674D01*
X11551015Y-24122674D02*
X11560539Y-24084579D01*
X11560539Y-24084579D02*
X11570063Y-24065531D01*
X11570063Y-24065531D02*
X11579586Y-24056008D01*
X11579586Y-24056008D02*
X11598634Y-24046484D01*
X11751015Y-24227436D02*
X11760539Y-24236960D01*
X11760539Y-24236960D02*
X11751015Y-24246484D01*
X11751015Y-24246484D02*
X11741491Y-24236960D01*
X11741491Y-24236960D02*
X11751015Y-24227436D01*
X11751015Y-24227436D02*
X11751015Y-24246484D01*
X11884348Y-24046484D02*
X11903396Y-24046484D01*
X11903396Y-24046484D02*
X11922444Y-24056008D01*
X11922444Y-24056008D02*
X11931967Y-24065531D01*
X11931967Y-24065531D02*
X11941491Y-24084579D01*
X11941491Y-24084579D02*
X11951015Y-24122674D01*
X11951015Y-24122674D02*
X11951015Y-24170293D01*
X11951015Y-24170293D02*
X11941491Y-24208388D01*
X11941491Y-24208388D02*
X11931967Y-24227436D01*
X11931967Y-24227436D02*
X11922444Y-24236960D01*
X11922444Y-24236960D02*
X11903396Y-24246484D01*
X11903396Y-24246484D02*
X11884348Y-24246484D01*
X11884348Y-24246484D02*
X11865301Y-24236960D01*
X11865301Y-24236960D02*
X11855777Y-24227436D01*
X11855777Y-24227436D02*
X11846253Y-24208388D01*
X11846253Y-24208388D02*
X11836729Y-24170293D01*
X11836729Y-24170293D02*
X11836729Y-24122674D01*
X11836729Y-24122674D02*
X11846253Y-24084579D01*
X11846253Y-24084579D02*
X11855777Y-24065531D01*
X11855777Y-24065531D02*
X11865301Y-24056008D01*
X11865301Y-24056008D02*
X11884348Y-24046484D01*
X12131967Y-24046484D02*
X12036729Y-24046484D01*
X12036729Y-24046484D02*
X12027206Y-24141722D01*
X12027206Y-24141722D02*
X12036729Y-24132198D01*
X12036729Y-24132198D02*
X12055777Y-24122674D01*
X12055777Y-24122674D02*
X12103396Y-24122674D01*
X12103396Y-24122674D02*
X12122444Y-24132198D01*
X12122444Y-24132198D02*
X12131967Y-24141722D01*
X12131967Y-24141722D02*
X12141491Y-24160769D01*
X12141491Y-24160769D02*
X12141491Y-24208388D01*
X12141491Y-24208388D02*
X12131967Y-24227436D01*
X12131967Y-24227436D02*
X12122444Y-24236960D01*
X12122444Y-24236960D02*
X12103396Y-24246484D01*
X12103396Y-24246484D02*
X12055777Y-24246484D01*
X12055777Y-24246484D02*
X12036729Y-24236960D01*
X12036729Y-24236960D02*
X12027206Y-24227436D01*
X12236729Y-24246484D02*
X12274825Y-24246484D01*
X12274825Y-24246484D02*
X12293872Y-24236960D01*
X12293872Y-24236960D02*
X12303396Y-24227436D01*
X12303396Y-24227436D02*
X12322444Y-24198865D01*
X12322444Y-24198865D02*
X12331967Y-24160769D01*
X12331967Y-24160769D02*
X12331967Y-24084579D01*
X12331967Y-24084579D02*
X12322444Y-24065531D01*
X12322444Y-24065531D02*
X12312920Y-24056008D01*
X12312920Y-24056008D02*
X12293872Y-24046484D01*
X12293872Y-24046484D02*
X12255777Y-24046484D01*
X12255777Y-24046484D02*
X12236729Y-24056008D01*
X12236729Y-24056008D02*
X12227206Y-24065531D01*
X12227206Y-24065531D02*
X12217682Y-24084579D01*
X12217682Y-24084579D02*
X12217682Y-24132198D01*
X12217682Y-24132198D02*
X12227206Y-24151246D01*
X12227206Y-24151246D02*
X12236729Y-24160769D01*
X12236729Y-24160769D02*
X12255777Y-24170293D01*
X12255777Y-24170293D02*
X12293872Y-24170293D01*
X12293872Y-24170293D02*
X12312920Y-24160769D01*
X12312920Y-24160769D02*
X12322444Y-24151246D01*
X12322444Y-24151246D02*
X12331967Y-24132198D01*
X12522444Y-24246484D02*
X12408158Y-24246484D01*
X12465301Y-24246484D02*
X12465301Y-24046484D01*
X12465301Y-24046484D02*
X12446253Y-24075055D01*
X12446253Y-24075055D02*
X12427206Y-24094103D01*
X12427206Y-24094103D02*
X12408158Y-24103627D01*
X12598634Y-24046484D02*
X12598634Y-24084579D01*
X12674825Y-24046484D02*
X12674825Y-24084579D01*
X12970063Y-24322674D02*
X12960539Y-24313150D01*
X12960539Y-24313150D02*
X12941491Y-24284579D01*
X12941491Y-24284579D02*
X12931968Y-24265531D01*
X12931968Y-24265531D02*
X12922444Y-24236960D01*
X12922444Y-24236960D02*
X12912920Y-24189341D01*
X12912920Y-24189341D02*
X12912920Y-24151246D01*
X12912920Y-24151246D02*
X12922444Y-24103627D01*
X12922444Y-24103627D02*
X12931968Y-24075055D01*
X12931968Y-24075055D02*
X12941491Y-24056008D01*
X12941491Y-24056008D02*
X12960539Y-24027436D01*
X12960539Y-24027436D02*
X12970063Y-24017912D01*
X13131968Y-24113150D02*
X13131968Y-24246484D01*
X13084348Y-24036960D02*
X13036729Y-24179817D01*
X13036729Y-24179817D02*
X13160539Y-24179817D01*
X13389110Y-24246484D02*
X13389110Y-24046484D01*
X13474825Y-24246484D02*
X13474825Y-24141722D01*
X13474825Y-24141722D02*
X13465301Y-24122674D01*
X13465301Y-24122674D02*
X13446253Y-24113150D01*
X13446253Y-24113150D02*
X13417682Y-24113150D01*
X13417682Y-24113150D02*
X13398634Y-24122674D01*
X13398634Y-24122674D02*
X13389110Y-24132198D01*
X13598634Y-24246484D02*
X13579587Y-24236960D01*
X13579587Y-24236960D02*
X13570063Y-24227436D01*
X13570063Y-24227436D02*
X13560539Y-24208388D01*
X13560539Y-24208388D02*
X13560539Y-24151246D01*
X13560539Y-24151246D02*
X13570063Y-24132198D01*
X13570063Y-24132198D02*
X13579587Y-24122674D01*
X13579587Y-24122674D02*
X13598634Y-24113150D01*
X13598634Y-24113150D02*
X13627206Y-24113150D01*
X13627206Y-24113150D02*
X13646253Y-24122674D01*
X13646253Y-24122674D02*
X13655777Y-24132198D01*
X13655777Y-24132198D02*
X13665301Y-24151246D01*
X13665301Y-24151246D02*
X13665301Y-24208388D01*
X13665301Y-24208388D02*
X13655777Y-24227436D01*
X13655777Y-24227436D02*
X13646253Y-24236960D01*
X13646253Y-24236960D02*
X13627206Y-24246484D01*
X13627206Y-24246484D02*
X13598634Y-24246484D01*
X13779587Y-24246484D02*
X13760539Y-24236960D01*
X13760539Y-24236960D02*
X13751015Y-24217912D01*
X13751015Y-24217912D02*
X13751015Y-24046484D01*
X13931968Y-24236960D02*
X13912920Y-24246484D01*
X13912920Y-24246484D02*
X13874825Y-24246484D01*
X13874825Y-24246484D02*
X13855777Y-24236960D01*
X13855777Y-24236960D02*
X13846253Y-24217912D01*
X13846253Y-24217912D02*
X13846253Y-24141722D01*
X13846253Y-24141722D02*
X13855777Y-24122674D01*
X13855777Y-24122674D02*
X13874825Y-24113150D01*
X13874825Y-24113150D02*
X13912920Y-24113150D01*
X13912920Y-24113150D02*
X13931968Y-24122674D01*
X13931968Y-24122674D02*
X13941491Y-24141722D01*
X13941491Y-24141722D02*
X13941491Y-24160769D01*
X13941491Y-24160769D02*
X13846253Y-24179817D01*
X14017682Y-24236960D02*
X14036730Y-24246484D01*
X14036730Y-24246484D02*
X14074825Y-24246484D01*
X14074825Y-24246484D02*
X14093872Y-24236960D01*
X14093872Y-24236960D02*
X14103396Y-24217912D01*
X14103396Y-24217912D02*
X14103396Y-24208388D01*
X14103396Y-24208388D02*
X14093872Y-24189341D01*
X14093872Y-24189341D02*
X14074825Y-24179817D01*
X14074825Y-24179817D02*
X14046253Y-24179817D01*
X14046253Y-24179817D02*
X14027206Y-24170293D01*
X14027206Y-24170293D02*
X14017682Y-24151246D01*
X14017682Y-24151246D02*
X14017682Y-24141722D01*
X14017682Y-24141722D02*
X14027206Y-24122674D01*
X14027206Y-24122674D02*
X14046253Y-24113150D01*
X14046253Y-24113150D02*
X14074825Y-24113150D01*
X14074825Y-24113150D02*
X14093872Y-24122674D01*
X14170063Y-24322674D02*
X14179587Y-24313150D01*
X14179587Y-24313150D02*
X14198634Y-24284579D01*
X14198634Y-24284579D02*
X14208158Y-24265531D01*
X14208158Y-24265531D02*
X14217682Y-24236960D01*
X14217682Y-24236960D02*
X14227206Y-24189341D01*
X14227206Y-24189341D02*
X14227206Y-24151246D01*
X14227206Y-24151246D02*
X14217682Y-24103627D01*
X14217682Y-24103627D02*
X14208158Y-24075055D01*
X14208158Y-24075055D02*
X14198634Y-24056008D01*
X14198634Y-24056008D02*
X14179587Y-24027436D01*
X14179587Y-24027436D02*
X14170063Y-24017912D01*
X14531968Y-24322674D02*
X14522444Y-24313150D01*
X14522444Y-24313150D02*
X14503396Y-24284579D01*
X14503396Y-24284579D02*
X14493872Y-24265531D01*
X14493872Y-24265531D02*
X14484349Y-24236960D01*
X14484349Y-24236960D02*
X14474825Y-24189341D01*
X14474825Y-24189341D02*
X14474825Y-24151246D01*
X14474825Y-24151246D02*
X14484349Y-24103627D01*
X14484349Y-24103627D02*
X14493872Y-24075055D01*
X14493872Y-24075055D02*
X14503396Y-24056008D01*
X14503396Y-24056008D02*
X14522444Y-24027436D01*
X14522444Y-24027436D02*
X14531968Y-24017912D01*
X14608158Y-24113150D02*
X14608158Y-24246484D01*
X14608158Y-24132198D02*
X14617682Y-24122674D01*
X14617682Y-24122674D02*
X14636730Y-24113150D01*
X14636730Y-24113150D02*
X14665301Y-24113150D01*
X14665301Y-24113150D02*
X14684349Y-24122674D01*
X14684349Y-24122674D02*
X14693872Y-24141722D01*
X14693872Y-24141722D02*
X14693872Y-24246484D01*
X14817682Y-24246484D02*
X14798634Y-24236960D01*
X14798634Y-24236960D02*
X14789111Y-24227436D01*
X14789111Y-24227436D02*
X14779587Y-24208388D01*
X14779587Y-24208388D02*
X14779587Y-24151246D01*
X14779587Y-24151246D02*
X14789111Y-24132198D01*
X14789111Y-24132198D02*
X14798634Y-24122674D01*
X14798634Y-24122674D02*
X14817682Y-24113150D01*
X14817682Y-24113150D02*
X14846253Y-24113150D01*
X14846253Y-24113150D02*
X14865301Y-24122674D01*
X14865301Y-24122674D02*
X14874825Y-24132198D01*
X14874825Y-24132198D02*
X14884349Y-24151246D01*
X14884349Y-24151246D02*
X14884349Y-24208388D01*
X14884349Y-24208388D02*
X14874825Y-24227436D01*
X14874825Y-24227436D02*
X14865301Y-24236960D01*
X14865301Y-24236960D02*
X14846253Y-24246484D01*
X14846253Y-24246484D02*
X14817682Y-24246484D01*
X14941492Y-24113150D02*
X15017682Y-24113150D01*
X14970063Y-24046484D02*
X14970063Y-24217912D01*
X14970063Y-24217912D02*
X14979587Y-24236960D01*
X14979587Y-24236960D02*
X14998634Y-24246484D01*
X14998634Y-24246484D02*
X15017682Y-24246484D01*
X15236730Y-24113150D02*
X15236730Y-24313150D01*
X15236730Y-24122674D02*
X15255777Y-24113150D01*
X15255777Y-24113150D02*
X15293873Y-24113150D01*
X15293873Y-24113150D02*
X15312920Y-24122674D01*
X15312920Y-24122674D02*
X15322444Y-24132198D01*
X15322444Y-24132198D02*
X15331968Y-24151246D01*
X15331968Y-24151246D02*
X15331968Y-24208388D01*
X15331968Y-24208388D02*
X15322444Y-24227436D01*
X15322444Y-24227436D02*
X15312920Y-24236960D01*
X15312920Y-24236960D02*
X15293873Y-24246484D01*
X15293873Y-24246484D02*
X15255777Y-24246484D01*
X15255777Y-24246484D02*
X15236730Y-24236960D01*
X15446253Y-24246484D02*
X15427206Y-24236960D01*
X15427206Y-24236960D02*
X15417682Y-24217912D01*
X15417682Y-24217912D02*
X15417682Y-24046484D01*
X15608158Y-24246484D02*
X15608158Y-24141722D01*
X15608158Y-24141722D02*
X15598634Y-24122674D01*
X15598634Y-24122674D02*
X15579587Y-24113150D01*
X15579587Y-24113150D02*
X15541492Y-24113150D01*
X15541492Y-24113150D02*
X15522444Y-24122674D01*
X15608158Y-24236960D02*
X15589111Y-24246484D01*
X15589111Y-24246484D02*
X15541492Y-24246484D01*
X15541492Y-24246484D02*
X15522444Y-24236960D01*
X15522444Y-24236960D02*
X15512920Y-24217912D01*
X15512920Y-24217912D02*
X15512920Y-24198865D01*
X15512920Y-24198865D02*
X15522444Y-24179817D01*
X15522444Y-24179817D02*
X15541492Y-24170293D01*
X15541492Y-24170293D02*
X15589111Y-24170293D01*
X15589111Y-24170293D02*
X15608158Y-24160769D01*
X15674825Y-24113150D02*
X15751015Y-24113150D01*
X15703396Y-24046484D02*
X15703396Y-24217912D01*
X15703396Y-24217912D02*
X15712920Y-24236960D01*
X15712920Y-24236960D02*
X15731968Y-24246484D01*
X15731968Y-24246484D02*
X15751015Y-24246484D01*
X15893873Y-24236960D02*
X15874825Y-24246484D01*
X15874825Y-24246484D02*
X15836730Y-24246484D01*
X15836730Y-24246484D02*
X15817682Y-24236960D01*
X15817682Y-24236960D02*
X15808158Y-24217912D01*
X15808158Y-24217912D02*
X15808158Y-24141722D01*
X15808158Y-24141722D02*
X15817682Y-24122674D01*
X15817682Y-24122674D02*
X15836730Y-24113150D01*
X15836730Y-24113150D02*
X15874825Y-24113150D01*
X15874825Y-24113150D02*
X15893873Y-24122674D01*
X15893873Y-24122674D02*
X15903396Y-24141722D01*
X15903396Y-24141722D02*
X15903396Y-24160769D01*
X15903396Y-24160769D02*
X15808158Y-24179817D01*
X16074825Y-24246484D02*
X16074825Y-24046484D01*
X16074825Y-24236960D02*
X16055777Y-24246484D01*
X16055777Y-24246484D02*
X16017682Y-24246484D01*
X16017682Y-24246484D02*
X15998634Y-24236960D01*
X15998634Y-24236960D02*
X15989111Y-24227436D01*
X15989111Y-24227436D02*
X15979587Y-24208388D01*
X15979587Y-24208388D02*
X15979587Y-24151246D01*
X15979587Y-24151246D02*
X15989111Y-24132198D01*
X15989111Y-24132198D02*
X15998634Y-24122674D01*
X15998634Y-24122674D02*
X16017682Y-24113150D01*
X16017682Y-24113150D02*
X16055777Y-24113150D01*
X16055777Y-24113150D02*
X16074825Y-24122674D01*
X16151015Y-24322674D02*
X16160539Y-24313150D01*
X16160539Y-24313150D02*
X16179587Y-24284579D01*
X16179587Y-24284579D02*
X16189111Y-24265531D01*
X16189111Y-24265531D02*
X16198634Y-24236960D01*
X16198634Y-24236960D02*
X16208158Y-24189341D01*
X16208158Y-24189341D02*
X16208158Y-24151246D01*
X16208158Y-24151246D02*
X16198634Y-24103627D01*
X16198634Y-24103627D02*
X16189111Y-24075055D01*
X16189111Y-24075055D02*
X16179587Y-24056008D01*
X16179587Y-24056008D02*
X16160539Y-24027436D01*
X16160539Y-24027436D02*
X16151015Y-24017912D01*
D13*
X9395000Y-24425000D02*
G75*
G03*
X9395000Y-24425000I-85000J0D01*
G01*
D11*
X9760539Y-24516484D02*
X9646253Y-24516484D01*
X9703396Y-24516484D02*
X9703396Y-24316484D01*
X9703396Y-24316484D02*
X9684348Y-24345055D01*
X9684348Y-24345055D02*
X9665301Y-24364103D01*
X9665301Y-24364103D02*
X9646253Y-24373627D01*
X9846253Y-24497436D02*
X9855777Y-24506960D01*
X9855777Y-24506960D02*
X9846253Y-24516484D01*
X9846253Y-24516484D02*
X9836729Y-24506960D01*
X9836729Y-24506960D02*
X9846253Y-24497436D01*
X9846253Y-24497436D02*
X9846253Y-24516484D01*
X9922444Y-24316484D02*
X10055777Y-24316484D01*
X10055777Y-24316484D02*
X9970063Y-24516484D01*
X10170063Y-24316484D02*
X10189110Y-24316484D01*
X10189110Y-24316484D02*
X10208158Y-24326008D01*
X10208158Y-24326008D02*
X10217682Y-24335531D01*
X10217682Y-24335531D02*
X10227205Y-24354579D01*
X10227205Y-24354579D02*
X10236729Y-24392674D01*
X10236729Y-24392674D02*
X10236729Y-24440293D01*
X10236729Y-24440293D02*
X10227205Y-24478388D01*
X10227205Y-24478388D02*
X10217682Y-24497436D01*
X10217682Y-24497436D02*
X10208158Y-24506960D01*
X10208158Y-24506960D02*
X10189110Y-24516484D01*
X10189110Y-24516484D02*
X10170063Y-24516484D01*
X10170063Y-24516484D02*
X10151015Y-24506960D01*
X10151015Y-24506960D02*
X10141491Y-24497436D01*
X10141491Y-24497436D02*
X10131967Y-24478388D01*
X10131967Y-24478388D02*
X10122444Y-24440293D01*
X10122444Y-24440293D02*
X10122444Y-24392674D01*
X10122444Y-24392674D02*
X10131967Y-24354579D01*
X10131967Y-24354579D02*
X10141491Y-24335531D01*
X10141491Y-24335531D02*
X10151015Y-24326008D01*
X10151015Y-24326008D02*
X10170063Y-24316484D01*
X10360539Y-24316484D02*
X10379586Y-24316484D01*
X10379586Y-24316484D02*
X10398634Y-24326008D01*
X10398634Y-24326008D02*
X10408158Y-24335531D01*
X10408158Y-24335531D02*
X10417682Y-24354579D01*
X10417682Y-24354579D02*
X10427205Y-24392674D01*
X10427205Y-24392674D02*
X10427205Y-24440293D01*
X10427205Y-24440293D02*
X10417682Y-24478388D01*
X10417682Y-24478388D02*
X10408158Y-24497436D01*
X10408158Y-24497436D02*
X10398634Y-24506960D01*
X10398634Y-24506960D02*
X10379586Y-24516484D01*
X10379586Y-24516484D02*
X10360539Y-24516484D01*
X10360539Y-24516484D02*
X10341491Y-24506960D01*
X10341491Y-24506960D02*
X10331967Y-24497436D01*
X10331967Y-24497436D02*
X10322444Y-24478388D01*
X10322444Y-24478388D02*
X10312920Y-24440293D01*
X10312920Y-24440293D02*
X10312920Y-24392674D01*
X10312920Y-24392674D02*
X10322444Y-24354579D01*
X10322444Y-24354579D02*
X10331967Y-24335531D01*
X10331967Y-24335531D02*
X10341491Y-24326008D01*
X10341491Y-24326008D02*
X10360539Y-24316484D01*
X10512920Y-24516484D02*
X10512920Y-24383150D01*
X10512920Y-24402198D02*
X10522444Y-24392674D01*
X10522444Y-24392674D02*
X10541491Y-24383150D01*
X10541491Y-24383150D02*
X10570063Y-24383150D01*
X10570063Y-24383150D02*
X10589110Y-24392674D01*
X10589110Y-24392674D02*
X10598634Y-24411722D01*
X10598634Y-24411722D02*
X10598634Y-24516484D01*
X10598634Y-24411722D02*
X10608158Y-24392674D01*
X10608158Y-24392674D02*
X10627205Y-24383150D01*
X10627205Y-24383150D02*
X10655777Y-24383150D01*
X10655777Y-24383150D02*
X10674825Y-24392674D01*
X10674825Y-24392674D02*
X10684348Y-24411722D01*
X10684348Y-24411722D02*
X10684348Y-24516484D01*
X10779586Y-24516484D02*
X10779586Y-24383150D01*
X10779586Y-24402198D02*
X10789110Y-24392674D01*
X10789110Y-24392674D02*
X10808158Y-24383150D01*
X10808158Y-24383150D02*
X10836729Y-24383150D01*
X10836729Y-24383150D02*
X10855777Y-24392674D01*
X10855777Y-24392674D02*
X10865301Y-24411722D01*
X10865301Y-24411722D02*
X10865301Y-24516484D01*
X10865301Y-24411722D02*
X10874825Y-24392674D01*
X10874825Y-24392674D02*
X10893872Y-24383150D01*
X10893872Y-24383150D02*
X10922444Y-24383150D01*
X10922444Y-24383150D02*
X10941491Y-24392674D01*
X10941491Y-24392674D02*
X10951015Y-24411722D01*
X10951015Y-24411722D02*
X10951015Y-24516484D01*
X11341491Y-24306960D02*
X11170063Y-24564103D01*
X11598634Y-24316484D02*
X11617682Y-24316484D01*
X11617682Y-24316484D02*
X11636729Y-24326008D01*
X11636729Y-24326008D02*
X11646253Y-24335531D01*
X11646253Y-24335531D02*
X11655777Y-24354579D01*
X11655777Y-24354579D02*
X11665301Y-24392674D01*
X11665301Y-24392674D02*
X11665301Y-24440293D01*
X11665301Y-24440293D02*
X11655777Y-24478388D01*
X11655777Y-24478388D02*
X11646253Y-24497436D01*
X11646253Y-24497436D02*
X11636729Y-24506960D01*
X11636729Y-24506960D02*
X11617682Y-24516484D01*
X11617682Y-24516484D02*
X11598634Y-24516484D01*
X11598634Y-24516484D02*
X11579586Y-24506960D01*
X11579586Y-24506960D02*
X11570063Y-24497436D01*
X11570063Y-24497436D02*
X11560539Y-24478388D01*
X11560539Y-24478388D02*
X11551015Y-24440293D01*
X11551015Y-24440293D02*
X11551015Y-24392674D01*
X11551015Y-24392674D02*
X11560539Y-24354579D01*
X11560539Y-24354579D02*
X11570063Y-24335531D01*
X11570063Y-24335531D02*
X11579586Y-24326008D01*
X11579586Y-24326008D02*
X11598634Y-24316484D01*
X11751015Y-24497436D02*
X11760539Y-24506960D01*
X11760539Y-24506960D02*
X11751015Y-24516484D01*
X11751015Y-24516484D02*
X11741491Y-24506960D01*
X11741491Y-24506960D02*
X11751015Y-24497436D01*
X11751015Y-24497436D02*
X11751015Y-24516484D01*
X11884348Y-24316484D02*
X11903396Y-24316484D01*
X11903396Y-24316484D02*
X11922444Y-24326008D01*
X11922444Y-24326008D02*
X11931967Y-24335531D01*
X11931967Y-24335531D02*
X11941491Y-24354579D01*
X11941491Y-24354579D02*
X11951015Y-24392674D01*
X11951015Y-24392674D02*
X11951015Y-24440293D01*
X11951015Y-24440293D02*
X11941491Y-24478388D01*
X11941491Y-24478388D02*
X11931967Y-24497436D01*
X11931967Y-24497436D02*
X11922444Y-24506960D01*
X11922444Y-24506960D02*
X11903396Y-24516484D01*
X11903396Y-24516484D02*
X11884348Y-24516484D01*
X11884348Y-24516484D02*
X11865301Y-24506960D01*
X11865301Y-24506960D02*
X11855777Y-24497436D01*
X11855777Y-24497436D02*
X11846253Y-24478388D01*
X11846253Y-24478388D02*
X11836729Y-24440293D01*
X11836729Y-24440293D02*
X11836729Y-24392674D01*
X11836729Y-24392674D02*
X11846253Y-24354579D01*
X11846253Y-24354579D02*
X11855777Y-24335531D01*
X11855777Y-24335531D02*
X11865301Y-24326008D01*
X11865301Y-24326008D02*
X11884348Y-24316484D01*
X12122444Y-24316484D02*
X12084348Y-24316484D01*
X12084348Y-24316484D02*
X12065301Y-24326008D01*
X12065301Y-24326008D02*
X12055777Y-24335531D01*
X12055777Y-24335531D02*
X12036729Y-24364103D01*
X12036729Y-24364103D02*
X12027206Y-24402198D01*
X12027206Y-24402198D02*
X12027206Y-24478388D01*
X12027206Y-24478388D02*
X12036729Y-24497436D01*
X12036729Y-24497436D02*
X12046253Y-24506960D01*
X12046253Y-24506960D02*
X12065301Y-24516484D01*
X12065301Y-24516484D02*
X12103396Y-24516484D01*
X12103396Y-24516484D02*
X12122444Y-24506960D01*
X12122444Y-24506960D02*
X12131967Y-24497436D01*
X12131967Y-24497436D02*
X12141491Y-24478388D01*
X12141491Y-24478388D02*
X12141491Y-24430769D01*
X12141491Y-24430769D02*
X12131967Y-24411722D01*
X12131967Y-24411722D02*
X12122444Y-24402198D01*
X12122444Y-24402198D02*
X12103396Y-24392674D01*
X12103396Y-24392674D02*
X12065301Y-24392674D01*
X12065301Y-24392674D02*
X12046253Y-24402198D01*
X12046253Y-24402198D02*
X12036729Y-24411722D01*
X12036729Y-24411722D02*
X12027206Y-24430769D01*
X12312920Y-24316484D02*
X12274825Y-24316484D01*
X12274825Y-24316484D02*
X12255777Y-24326008D01*
X12255777Y-24326008D02*
X12246253Y-24335531D01*
X12246253Y-24335531D02*
X12227206Y-24364103D01*
X12227206Y-24364103D02*
X12217682Y-24402198D01*
X12217682Y-24402198D02*
X12217682Y-24478388D01*
X12217682Y-24478388D02*
X12227206Y-24497436D01*
X12227206Y-24497436D02*
X12236729Y-24506960D01*
X12236729Y-24506960D02*
X12255777Y-24516484D01*
X12255777Y-24516484D02*
X12293872Y-24516484D01*
X12293872Y-24516484D02*
X12312920Y-24506960D01*
X12312920Y-24506960D02*
X12322444Y-24497436D01*
X12322444Y-24497436D02*
X12331967Y-24478388D01*
X12331967Y-24478388D02*
X12331967Y-24430769D01*
X12331967Y-24430769D02*
X12322444Y-24411722D01*
X12322444Y-24411722D02*
X12312920Y-24402198D01*
X12312920Y-24402198D02*
X12293872Y-24392674D01*
X12293872Y-24392674D02*
X12255777Y-24392674D01*
X12255777Y-24392674D02*
X12236729Y-24402198D01*
X12236729Y-24402198D02*
X12227206Y-24411722D01*
X12227206Y-24411722D02*
X12217682Y-24430769D01*
X12427206Y-24516484D02*
X12465301Y-24516484D01*
X12465301Y-24516484D02*
X12484348Y-24506960D01*
X12484348Y-24506960D02*
X12493872Y-24497436D01*
X12493872Y-24497436D02*
X12512920Y-24468865D01*
X12512920Y-24468865D02*
X12522444Y-24430769D01*
X12522444Y-24430769D02*
X12522444Y-24354579D01*
X12522444Y-24354579D02*
X12512920Y-24335531D01*
X12512920Y-24335531D02*
X12503396Y-24326008D01*
X12503396Y-24326008D02*
X12484348Y-24316484D01*
X12484348Y-24316484D02*
X12446253Y-24316484D01*
X12446253Y-24316484D02*
X12427206Y-24326008D01*
X12427206Y-24326008D02*
X12417682Y-24335531D01*
X12417682Y-24335531D02*
X12408158Y-24354579D01*
X12408158Y-24354579D02*
X12408158Y-24402198D01*
X12408158Y-24402198D02*
X12417682Y-24421246D01*
X12417682Y-24421246D02*
X12427206Y-24430769D01*
X12427206Y-24430769D02*
X12446253Y-24440293D01*
X12446253Y-24440293D02*
X12484348Y-24440293D01*
X12484348Y-24440293D02*
X12503396Y-24430769D01*
X12503396Y-24430769D02*
X12512920Y-24421246D01*
X12512920Y-24421246D02*
X12522444Y-24402198D01*
X12598634Y-24316484D02*
X12598634Y-24354579D01*
X12674825Y-24316484D02*
X12674825Y-24354579D01*
X12970063Y-24592674D02*
X12960539Y-24583150D01*
X12960539Y-24583150D02*
X12941491Y-24554579D01*
X12941491Y-24554579D02*
X12931968Y-24535531D01*
X12931968Y-24535531D02*
X12922444Y-24506960D01*
X12922444Y-24506960D02*
X12912920Y-24459341D01*
X12912920Y-24459341D02*
X12912920Y-24421246D01*
X12912920Y-24421246D02*
X12922444Y-24373627D01*
X12922444Y-24373627D02*
X12931968Y-24345055D01*
X12931968Y-24345055D02*
X12941491Y-24326008D01*
X12941491Y-24326008D02*
X12960539Y-24297436D01*
X12960539Y-24297436D02*
X12970063Y-24287912D01*
X13151015Y-24516484D02*
X13036729Y-24516484D01*
X13093872Y-24516484D02*
X13093872Y-24316484D01*
X13093872Y-24316484D02*
X13074825Y-24345055D01*
X13074825Y-24345055D02*
X13055777Y-24364103D01*
X13055777Y-24364103D02*
X13036729Y-24373627D01*
X13265301Y-24402198D02*
X13246253Y-24392674D01*
X13246253Y-24392674D02*
X13236729Y-24383150D01*
X13236729Y-24383150D02*
X13227206Y-24364103D01*
X13227206Y-24364103D02*
X13227206Y-24354579D01*
X13227206Y-24354579D02*
X13236729Y-24335531D01*
X13236729Y-24335531D02*
X13246253Y-24326008D01*
X13246253Y-24326008D02*
X13265301Y-24316484D01*
X13265301Y-24316484D02*
X13303396Y-24316484D01*
X13303396Y-24316484D02*
X13322444Y-24326008D01*
X13322444Y-24326008D02*
X13331968Y-24335531D01*
X13331968Y-24335531D02*
X13341491Y-24354579D01*
X13341491Y-24354579D02*
X13341491Y-24364103D01*
X13341491Y-24364103D02*
X13331968Y-24383150D01*
X13331968Y-24383150D02*
X13322444Y-24392674D01*
X13322444Y-24392674D02*
X13303396Y-24402198D01*
X13303396Y-24402198D02*
X13265301Y-24402198D01*
X13265301Y-24402198D02*
X13246253Y-24411722D01*
X13246253Y-24411722D02*
X13236729Y-24421246D01*
X13236729Y-24421246D02*
X13227206Y-24440293D01*
X13227206Y-24440293D02*
X13227206Y-24478388D01*
X13227206Y-24478388D02*
X13236729Y-24497436D01*
X13236729Y-24497436D02*
X13246253Y-24506960D01*
X13246253Y-24506960D02*
X13265301Y-24516484D01*
X13265301Y-24516484D02*
X13303396Y-24516484D01*
X13303396Y-24516484D02*
X13322444Y-24506960D01*
X13322444Y-24506960D02*
X13331968Y-24497436D01*
X13331968Y-24497436D02*
X13341491Y-24478388D01*
X13341491Y-24478388D02*
X13341491Y-24440293D01*
X13341491Y-24440293D02*
X13331968Y-24421246D01*
X13331968Y-24421246D02*
X13322444Y-24411722D01*
X13322444Y-24411722D02*
X13303396Y-24402198D01*
X13455777Y-24402198D02*
X13436729Y-24392674D01*
X13436729Y-24392674D02*
X13427206Y-24383150D01*
X13427206Y-24383150D02*
X13417682Y-24364103D01*
X13417682Y-24364103D02*
X13417682Y-24354579D01*
X13417682Y-24354579D02*
X13427206Y-24335531D01*
X13427206Y-24335531D02*
X13436729Y-24326008D01*
X13436729Y-24326008D02*
X13455777Y-24316484D01*
X13455777Y-24316484D02*
X13493872Y-24316484D01*
X13493872Y-24316484D02*
X13512920Y-24326008D01*
X13512920Y-24326008D02*
X13522444Y-24335531D01*
X13522444Y-24335531D02*
X13531968Y-24354579D01*
X13531968Y-24354579D02*
X13531968Y-24364103D01*
X13531968Y-24364103D02*
X13522444Y-24383150D01*
X13522444Y-24383150D02*
X13512920Y-24392674D01*
X13512920Y-24392674D02*
X13493872Y-24402198D01*
X13493872Y-24402198D02*
X13455777Y-24402198D01*
X13455777Y-24402198D02*
X13436729Y-24411722D01*
X13436729Y-24411722D02*
X13427206Y-24421246D01*
X13427206Y-24421246D02*
X13417682Y-24440293D01*
X13417682Y-24440293D02*
X13417682Y-24478388D01*
X13417682Y-24478388D02*
X13427206Y-24497436D01*
X13427206Y-24497436D02*
X13436729Y-24506960D01*
X13436729Y-24506960D02*
X13455777Y-24516484D01*
X13455777Y-24516484D02*
X13493872Y-24516484D01*
X13493872Y-24516484D02*
X13512920Y-24506960D01*
X13512920Y-24506960D02*
X13522444Y-24497436D01*
X13522444Y-24497436D02*
X13531968Y-24478388D01*
X13531968Y-24478388D02*
X13531968Y-24440293D01*
X13531968Y-24440293D02*
X13522444Y-24421246D01*
X13522444Y-24421246D02*
X13512920Y-24411722D01*
X13512920Y-24411722D02*
X13493872Y-24402198D01*
X13770063Y-24516484D02*
X13770063Y-24316484D01*
X13855777Y-24516484D02*
X13855777Y-24411722D01*
X13855777Y-24411722D02*
X13846253Y-24392674D01*
X13846253Y-24392674D02*
X13827206Y-24383150D01*
X13827206Y-24383150D02*
X13798634Y-24383150D01*
X13798634Y-24383150D02*
X13779587Y-24392674D01*
X13779587Y-24392674D02*
X13770063Y-24402198D01*
X13979587Y-24516484D02*
X13960539Y-24506960D01*
X13960539Y-24506960D02*
X13951015Y-24497436D01*
X13951015Y-24497436D02*
X13941491Y-24478388D01*
X13941491Y-24478388D02*
X13941491Y-24421246D01*
X13941491Y-24421246D02*
X13951015Y-24402198D01*
X13951015Y-24402198D02*
X13960539Y-24392674D01*
X13960539Y-24392674D02*
X13979587Y-24383150D01*
X13979587Y-24383150D02*
X14008158Y-24383150D01*
X14008158Y-24383150D02*
X14027206Y-24392674D01*
X14027206Y-24392674D02*
X14036730Y-24402198D01*
X14036730Y-24402198D02*
X14046253Y-24421246D01*
X14046253Y-24421246D02*
X14046253Y-24478388D01*
X14046253Y-24478388D02*
X14036730Y-24497436D01*
X14036730Y-24497436D02*
X14027206Y-24506960D01*
X14027206Y-24506960D02*
X14008158Y-24516484D01*
X14008158Y-24516484D02*
X13979587Y-24516484D01*
X14160539Y-24516484D02*
X14141491Y-24506960D01*
X14141491Y-24506960D02*
X14131968Y-24487912D01*
X14131968Y-24487912D02*
X14131968Y-24316484D01*
X14312920Y-24506960D02*
X14293872Y-24516484D01*
X14293872Y-24516484D02*
X14255777Y-24516484D01*
X14255777Y-24516484D02*
X14236730Y-24506960D01*
X14236730Y-24506960D02*
X14227206Y-24487912D01*
X14227206Y-24487912D02*
X14227206Y-24411722D01*
X14227206Y-24411722D02*
X14236730Y-24392674D01*
X14236730Y-24392674D02*
X14255777Y-24383150D01*
X14255777Y-24383150D02*
X14293872Y-24383150D01*
X14293872Y-24383150D02*
X14312920Y-24392674D01*
X14312920Y-24392674D02*
X14322444Y-24411722D01*
X14322444Y-24411722D02*
X14322444Y-24430769D01*
X14322444Y-24430769D02*
X14227206Y-24449817D01*
X14398634Y-24506960D02*
X14417682Y-24516484D01*
X14417682Y-24516484D02*
X14455777Y-24516484D01*
X14455777Y-24516484D02*
X14474825Y-24506960D01*
X14474825Y-24506960D02*
X14484349Y-24487912D01*
X14484349Y-24487912D02*
X14484349Y-24478388D01*
X14484349Y-24478388D02*
X14474825Y-24459341D01*
X14474825Y-24459341D02*
X14455777Y-24449817D01*
X14455777Y-24449817D02*
X14427206Y-24449817D01*
X14427206Y-24449817D02*
X14408158Y-24440293D01*
X14408158Y-24440293D02*
X14398634Y-24421246D01*
X14398634Y-24421246D02*
X14398634Y-24411722D01*
X14398634Y-24411722D02*
X14408158Y-24392674D01*
X14408158Y-24392674D02*
X14427206Y-24383150D01*
X14427206Y-24383150D02*
X14455777Y-24383150D01*
X14455777Y-24383150D02*
X14474825Y-24392674D01*
X14551015Y-24592674D02*
X14560539Y-24583150D01*
X14560539Y-24583150D02*
X14579587Y-24554579D01*
X14579587Y-24554579D02*
X14589111Y-24535531D01*
X14589111Y-24535531D02*
X14598634Y-24506960D01*
X14598634Y-24506960D02*
X14608158Y-24459341D01*
X14608158Y-24459341D02*
X14608158Y-24421246D01*
X14608158Y-24421246D02*
X14598634Y-24373627D01*
X14598634Y-24373627D02*
X14589111Y-24345055D01*
X14589111Y-24345055D02*
X14579587Y-24326008D01*
X14579587Y-24326008D02*
X14560539Y-24297436D01*
X14560539Y-24297436D02*
X14551015Y-24287912D01*
X14912920Y-24592674D02*
X14903396Y-24583150D01*
X14903396Y-24583150D02*
X14884349Y-24554579D01*
X14884349Y-24554579D02*
X14874825Y-24535531D01*
X14874825Y-24535531D02*
X14865301Y-24506960D01*
X14865301Y-24506960D02*
X14855777Y-24459341D01*
X14855777Y-24459341D02*
X14855777Y-24421246D01*
X14855777Y-24421246D02*
X14865301Y-24373627D01*
X14865301Y-24373627D02*
X14874825Y-24345055D01*
X14874825Y-24345055D02*
X14884349Y-24326008D01*
X14884349Y-24326008D02*
X14903396Y-24297436D01*
X14903396Y-24297436D02*
X14912920Y-24287912D01*
X14989111Y-24383150D02*
X14989111Y-24516484D01*
X14989111Y-24402198D02*
X14998634Y-24392674D01*
X14998634Y-24392674D02*
X15017682Y-24383150D01*
X15017682Y-24383150D02*
X15046253Y-24383150D01*
X15046253Y-24383150D02*
X15065301Y-24392674D01*
X15065301Y-24392674D02*
X15074825Y-24411722D01*
X15074825Y-24411722D02*
X15074825Y-24516484D01*
X15198634Y-24516484D02*
X15179587Y-24506960D01*
X15179587Y-24506960D02*
X15170063Y-24497436D01*
X15170063Y-24497436D02*
X15160539Y-24478388D01*
X15160539Y-24478388D02*
X15160539Y-24421246D01*
X15160539Y-24421246D02*
X15170063Y-24402198D01*
X15170063Y-24402198D02*
X15179587Y-24392674D01*
X15179587Y-24392674D02*
X15198634Y-24383150D01*
X15198634Y-24383150D02*
X15227206Y-24383150D01*
X15227206Y-24383150D02*
X15246253Y-24392674D01*
X15246253Y-24392674D02*
X15255777Y-24402198D01*
X15255777Y-24402198D02*
X15265301Y-24421246D01*
X15265301Y-24421246D02*
X15265301Y-24478388D01*
X15265301Y-24478388D02*
X15255777Y-24497436D01*
X15255777Y-24497436D02*
X15246253Y-24506960D01*
X15246253Y-24506960D02*
X15227206Y-24516484D01*
X15227206Y-24516484D02*
X15198634Y-24516484D01*
X15322444Y-24383150D02*
X15398634Y-24383150D01*
X15351015Y-24316484D02*
X15351015Y-24487912D01*
X15351015Y-24487912D02*
X15360539Y-24506960D01*
X15360539Y-24506960D02*
X15379587Y-24516484D01*
X15379587Y-24516484D02*
X15398634Y-24516484D01*
X15617682Y-24383150D02*
X15617682Y-24583150D01*
X15617682Y-24392674D02*
X15636730Y-24383150D01*
X15636730Y-24383150D02*
X15674825Y-24383150D01*
X15674825Y-24383150D02*
X15693873Y-24392674D01*
X15693873Y-24392674D02*
X15703396Y-24402198D01*
X15703396Y-24402198D02*
X15712920Y-24421246D01*
X15712920Y-24421246D02*
X15712920Y-24478388D01*
X15712920Y-24478388D02*
X15703396Y-24497436D01*
X15703396Y-24497436D02*
X15693873Y-24506960D01*
X15693873Y-24506960D02*
X15674825Y-24516484D01*
X15674825Y-24516484D02*
X15636730Y-24516484D01*
X15636730Y-24516484D02*
X15617682Y-24506960D01*
X15827206Y-24516484D02*
X15808158Y-24506960D01*
X15808158Y-24506960D02*
X15798634Y-24487912D01*
X15798634Y-24487912D02*
X15798634Y-24316484D01*
X15989111Y-24516484D02*
X15989111Y-24411722D01*
X15989111Y-24411722D02*
X15979587Y-24392674D01*
X15979587Y-24392674D02*
X15960539Y-24383150D01*
X15960539Y-24383150D02*
X15922444Y-24383150D01*
X15922444Y-24383150D02*
X15903396Y-24392674D01*
X15989111Y-24506960D02*
X15970063Y-24516484D01*
X15970063Y-24516484D02*
X15922444Y-24516484D01*
X15922444Y-24516484D02*
X15903396Y-24506960D01*
X15903396Y-24506960D02*
X15893873Y-24487912D01*
X15893873Y-24487912D02*
X15893873Y-24468865D01*
X15893873Y-24468865D02*
X15903396Y-24449817D01*
X15903396Y-24449817D02*
X15922444Y-24440293D01*
X15922444Y-24440293D02*
X15970063Y-24440293D01*
X15970063Y-24440293D02*
X15989111Y-24430769D01*
X16055777Y-24383150D02*
X16131968Y-24383150D01*
X16084349Y-24316484D02*
X16084349Y-24487912D01*
X16084349Y-24487912D02*
X16093873Y-24506960D01*
X16093873Y-24506960D02*
X16112920Y-24516484D01*
X16112920Y-24516484D02*
X16131968Y-24516484D01*
X16274825Y-24506960D02*
X16255777Y-24516484D01*
X16255777Y-24516484D02*
X16217682Y-24516484D01*
X16217682Y-24516484D02*
X16198634Y-24506960D01*
X16198634Y-24506960D02*
X16189111Y-24487912D01*
X16189111Y-24487912D02*
X16189111Y-24411722D01*
X16189111Y-24411722D02*
X16198634Y-24392674D01*
X16198634Y-24392674D02*
X16217682Y-24383150D01*
X16217682Y-24383150D02*
X16255777Y-24383150D01*
X16255777Y-24383150D02*
X16274825Y-24392674D01*
X16274825Y-24392674D02*
X16284349Y-24411722D01*
X16284349Y-24411722D02*
X16284349Y-24430769D01*
X16284349Y-24430769D02*
X16189111Y-24449817D01*
X16455777Y-24516484D02*
X16455777Y-24316484D01*
X16455777Y-24506960D02*
X16436730Y-24516484D01*
X16436730Y-24516484D02*
X16398634Y-24516484D01*
X16398634Y-24516484D02*
X16379587Y-24506960D01*
X16379587Y-24506960D02*
X16370063Y-24497436D01*
X16370063Y-24497436D02*
X16360539Y-24478388D01*
X16360539Y-24478388D02*
X16360539Y-24421246D01*
X16360539Y-24421246D02*
X16370063Y-24402198D01*
X16370063Y-24402198D02*
X16379587Y-24392674D01*
X16379587Y-24392674D02*
X16398634Y-24383150D01*
X16398634Y-24383150D02*
X16436730Y-24383150D01*
X16436730Y-24383150D02*
X16455777Y-24392674D01*
X16531968Y-24592674D02*
X16541492Y-24583150D01*
X16541492Y-24583150D02*
X16560539Y-24554579D01*
X16560539Y-24554579D02*
X16570063Y-24535531D01*
X16570063Y-24535531D02*
X16579587Y-24506960D01*
X16579587Y-24506960D02*
X16589111Y-24459341D01*
X16589111Y-24459341D02*
X16589111Y-24421246D01*
X16589111Y-24421246D02*
X16579587Y-24373627D01*
X16579587Y-24373627D02*
X16570063Y-24345055D01*
X16570063Y-24345055D02*
X16560539Y-24326008D01*
X16560539Y-24326008D02*
X16541492Y-24297436D01*
X16541492Y-24297436D02*
X16531968Y-24287912D01*
D14*
X9305000Y-24625000D02*
X9305000Y-24805000D01*
X9215000Y-24715000D02*
X9395000Y-24715000D01*
D11*
X9760539Y-24806484D02*
X9646253Y-24806484D01*
X9703396Y-24806484D02*
X9703396Y-24606484D01*
X9703396Y-24606484D02*
X9684348Y-24635055D01*
X9684348Y-24635055D02*
X9665301Y-24654103D01*
X9665301Y-24654103D02*
X9646253Y-24663627D01*
X9846253Y-24787436D02*
X9855777Y-24796960D01*
X9855777Y-24796960D02*
X9846253Y-24806484D01*
X9846253Y-24806484D02*
X9836729Y-24796960D01*
X9836729Y-24796960D02*
X9846253Y-24787436D01*
X9846253Y-24787436D02*
X9846253Y-24806484D01*
X9970063Y-24692198D02*
X9951015Y-24682674D01*
X9951015Y-24682674D02*
X9941491Y-24673150D01*
X9941491Y-24673150D02*
X9931967Y-24654103D01*
X9931967Y-24654103D02*
X9931967Y-24644579D01*
X9931967Y-24644579D02*
X9941491Y-24625531D01*
X9941491Y-24625531D02*
X9951015Y-24616008D01*
X9951015Y-24616008D02*
X9970063Y-24606484D01*
X9970063Y-24606484D02*
X10008158Y-24606484D01*
X10008158Y-24606484D02*
X10027205Y-24616008D01*
X10027205Y-24616008D02*
X10036729Y-24625531D01*
X10036729Y-24625531D02*
X10046253Y-24644579D01*
X10046253Y-24644579D02*
X10046253Y-24654103D01*
X10046253Y-24654103D02*
X10036729Y-24673150D01*
X10036729Y-24673150D02*
X10027205Y-24682674D01*
X10027205Y-24682674D02*
X10008158Y-24692198D01*
X10008158Y-24692198D02*
X9970063Y-24692198D01*
X9970063Y-24692198D02*
X9951015Y-24701722D01*
X9951015Y-24701722D02*
X9941491Y-24711246D01*
X9941491Y-24711246D02*
X9931967Y-24730293D01*
X9931967Y-24730293D02*
X9931967Y-24768388D01*
X9931967Y-24768388D02*
X9941491Y-24787436D01*
X9941491Y-24787436D02*
X9951015Y-24796960D01*
X9951015Y-24796960D02*
X9970063Y-24806484D01*
X9970063Y-24806484D02*
X10008158Y-24806484D01*
X10008158Y-24806484D02*
X10027205Y-24796960D01*
X10027205Y-24796960D02*
X10036729Y-24787436D01*
X10036729Y-24787436D02*
X10046253Y-24768388D01*
X10046253Y-24768388D02*
X10046253Y-24730293D01*
X10046253Y-24730293D02*
X10036729Y-24711246D01*
X10036729Y-24711246D02*
X10027205Y-24701722D01*
X10027205Y-24701722D02*
X10008158Y-24692198D01*
X10170063Y-24606484D02*
X10189110Y-24606484D01*
X10189110Y-24606484D02*
X10208158Y-24616008D01*
X10208158Y-24616008D02*
X10217682Y-24625531D01*
X10217682Y-24625531D02*
X10227205Y-24644579D01*
X10227205Y-24644579D02*
X10236729Y-24682674D01*
X10236729Y-24682674D02*
X10236729Y-24730293D01*
X10236729Y-24730293D02*
X10227205Y-24768388D01*
X10227205Y-24768388D02*
X10217682Y-24787436D01*
X10217682Y-24787436D02*
X10208158Y-24796960D01*
X10208158Y-24796960D02*
X10189110Y-24806484D01*
X10189110Y-24806484D02*
X10170063Y-24806484D01*
X10170063Y-24806484D02*
X10151015Y-24796960D01*
X10151015Y-24796960D02*
X10141491Y-24787436D01*
X10141491Y-24787436D02*
X10131967Y-24768388D01*
X10131967Y-24768388D02*
X10122444Y-24730293D01*
X10122444Y-24730293D02*
X10122444Y-24682674D01*
X10122444Y-24682674D02*
X10131967Y-24644579D01*
X10131967Y-24644579D02*
X10141491Y-24625531D01*
X10141491Y-24625531D02*
X10151015Y-24616008D01*
X10151015Y-24616008D02*
X10170063Y-24606484D01*
X10360539Y-24606484D02*
X10379586Y-24606484D01*
X10379586Y-24606484D02*
X10398634Y-24616008D01*
X10398634Y-24616008D02*
X10408158Y-24625531D01*
X10408158Y-24625531D02*
X10417682Y-24644579D01*
X10417682Y-24644579D02*
X10427205Y-24682674D01*
X10427205Y-24682674D02*
X10427205Y-24730293D01*
X10427205Y-24730293D02*
X10417682Y-24768388D01*
X10417682Y-24768388D02*
X10408158Y-24787436D01*
X10408158Y-24787436D02*
X10398634Y-24796960D01*
X10398634Y-24796960D02*
X10379586Y-24806484D01*
X10379586Y-24806484D02*
X10360539Y-24806484D01*
X10360539Y-24806484D02*
X10341491Y-24796960D01*
X10341491Y-24796960D02*
X10331967Y-24787436D01*
X10331967Y-24787436D02*
X10322444Y-24768388D01*
X10322444Y-24768388D02*
X10312920Y-24730293D01*
X10312920Y-24730293D02*
X10312920Y-24682674D01*
X10312920Y-24682674D02*
X10322444Y-24644579D01*
X10322444Y-24644579D02*
X10331967Y-24625531D01*
X10331967Y-24625531D02*
X10341491Y-24616008D01*
X10341491Y-24616008D02*
X10360539Y-24606484D01*
X10512920Y-24806484D02*
X10512920Y-24673150D01*
X10512920Y-24692198D02*
X10522444Y-24682674D01*
X10522444Y-24682674D02*
X10541491Y-24673150D01*
X10541491Y-24673150D02*
X10570063Y-24673150D01*
X10570063Y-24673150D02*
X10589110Y-24682674D01*
X10589110Y-24682674D02*
X10598634Y-24701722D01*
X10598634Y-24701722D02*
X10598634Y-24806484D01*
X10598634Y-24701722D02*
X10608158Y-24682674D01*
X10608158Y-24682674D02*
X10627205Y-24673150D01*
X10627205Y-24673150D02*
X10655777Y-24673150D01*
X10655777Y-24673150D02*
X10674825Y-24682674D01*
X10674825Y-24682674D02*
X10684348Y-24701722D01*
X10684348Y-24701722D02*
X10684348Y-24806484D01*
X10779586Y-24806484D02*
X10779586Y-24673150D01*
X10779586Y-24692198D02*
X10789110Y-24682674D01*
X10789110Y-24682674D02*
X10808158Y-24673150D01*
X10808158Y-24673150D02*
X10836729Y-24673150D01*
X10836729Y-24673150D02*
X10855777Y-24682674D01*
X10855777Y-24682674D02*
X10865301Y-24701722D01*
X10865301Y-24701722D02*
X10865301Y-24806484D01*
X10865301Y-24701722D02*
X10874825Y-24682674D01*
X10874825Y-24682674D02*
X10893872Y-24673150D01*
X10893872Y-24673150D02*
X10922444Y-24673150D01*
X10922444Y-24673150D02*
X10941491Y-24682674D01*
X10941491Y-24682674D02*
X10951015Y-24701722D01*
X10951015Y-24701722D02*
X10951015Y-24806484D01*
X11341491Y-24596960D02*
X11170063Y-24854103D01*
X11598634Y-24606484D02*
X11617682Y-24606484D01*
X11617682Y-24606484D02*
X11636729Y-24616008D01*
X11636729Y-24616008D02*
X11646253Y-24625531D01*
X11646253Y-24625531D02*
X11655777Y-24644579D01*
X11655777Y-24644579D02*
X11665301Y-24682674D01*
X11665301Y-24682674D02*
X11665301Y-24730293D01*
X11665301Y-24730293D02*
X11655777Y-24768388D01*
X11655777Y-24768388D02*
X11646253Y-24787436D01*
X11646253Y-24787436D02*
X11636729Y-24796960D01*
X11636729Y-24796960D02*
X11617682Y-24806484D01*
X11617682Y-24806484D02*
X11598634Y-24806484D01*
X11598634Y-24806484D02*
X11579586Y-24796960D01*
X11579586Y-24796960D02*
X11570063Y-24787436D01*
X11570063Y-24787436D02*
X11560539Y-24768388D01*
X11560539Y-24768388D02*
X11551015Y-24730293D01*
X11551015Y-24730293D02*
X11551015Y-24682674D01*
X11551015Y-24682674D02*
X11560539Y-24644579D01*
X11560539Y-24644579D02*
X11570063Y-24625531D01*
X11570063Y-24625531D02*
X11579586Y-24616008D01*
X11579586Y-24616008D02*
X11598634Y-24606484D01*
X11751015Y-24787436D02*
X11760539Y-24796960D01*
X11760539Y-24796960D02*
X11751015Y-24806484D01*
X11751015Y-24806484D02*
X11741491Y-24796960D01*
X11741491Y-24796960D02*
X11751015Y-24787436D01*
X11751015Y-24787436D02*
X11751015Y-24806484D01*
X11884348Y-24606484D02*
X11903396Y-24606484D01*
X11903396Y-24606484D02*
X11922444Y-24616008D01*
X11922444Y-24616008D02*
X11931967Y-24625531D01*
X11931967Y-24625531D02*
X11941491Y-24644579D01*
X11941491Y-24644579D02*
X11951015Y-24682674D01*
X11951015Y-24682674D02*
X11951015Y-24730293D01*
X11951015Y-24730293D02*
X11941491Y-24768388D01*
X11941491Y-24768388D02*
X11931967Y-24787436D01*
X11931967Y-24787436D02*
X11922444Y-24796960D01*
X11922444Y-24796960D02*
X11903396Y-24806484D01*
X11903396Y-24806484D02*
X11884348Y-24806484D01*
X11884348Y-24806484D02*
X11865301Y-24796960D01*
X11865301Y-24796960D02*
X11855777Y-24787436D01*
X11855777Y-24787436D02*
X11846253Y-24768388D01*
X11846253Y-24768388D02*
X11836729Y-24730293D01*
X11836729Y-24730293D02*
X11836729Y-24682674D01*
X11836729Y-24682674D02*
X11846253Y-24644579D01*
X11846253Y-24644579D02*
X11855777Y-24625531D01*
X11855777Y-24625531D02*
X11865301Y-24616008D01*
X11865301Y-24616008D02*
X11884348Y-24606484D01*
X12017682Y-24606484D02*
X12151015Y-24606484D01*
X12151015Y-24606484D02*
X12065301Y-24806484D01*
X12265301Y-24606484D02*
X12284348Y-24606484D01*
X12284348Y-24606484D02*
X12303396Y-24616008D01*
X12303396Y-24616008D02*
X12312920Y-24625531D01*
X12312920Y-24625531D02*
X12322444Y-24644579D01*
X12322444Y-24644579D02*
X12331967Y-24682674D01*
X12331967Y-24682674D02*
X12331967Y-24730293D01*
X12331967Y-24730293D02*
X12322444Y-24768388D01*
X12322444Y-24768388D02*
X12312920Y-24787436D01*
X12312920Y-24787436D02*
X12303396Y-24796960D01*
X12303396Y-24796960D02*
X12284348Y-24806484D01*
X12284348Y-24806484D02*
X12265301Y-24806484D01*
X12265301Y-24806484D02*
X12246253Y-24796960D01*
X12246253Y-24796960D02*
X12236729Y-24787436D01*
X12236729Y-24787436D02*
X12227206Y-24768388D01*
X12227206Y-24768388D02*
X12217682Y-24730293D01*
X12217682Y-24730293D02*
X12217682Y-24682674D01*
X12217682Y-24682674D02*
X12227206Y-24644579D01*
X12227206Y-24644579D02*
X12236729Y-24625531D01*
X12236729Y-24625531D02*
X12246253Y-24616008D01*
X12246253Y-24616008D02*
X12265301Y-24606484D01*
X12427206Y-24806484D02*
X12465301Y-24806484D01*
X12465301Y-24806484D02*
X12484348Y-24796960D01*
X12484348Y-24796960D02*
X12493872Y-24787436D01*
X12493872Y-24787436D02*
X12512920Y-24758865D01*
X12512920Y-24758865D02*
X12522444Y-24720769D01*
X12522444Y-24720769D02*
X12522444Y-24644579D01*
X12522444Y-24644579D02*
X12512920Y-24625531D01*
X12512920Y-24625531D02*
X12503396Y-24616008D01*
X12503396Y-24616008D02*
X12484348Y-24606484D01*
X12484348Y-24606484D02*
X12446253Y-24606484D01*
X12446253Y-24606484D02*
X12427206Y-24616008D01*
X12427206Y-24616008D02*
X12417682Y-24625531D01*
X12417682Y-24625531D02*
X12408158Y-24644579D01*
X12408158Y-24644579D02*
X12408158Y-24692198D01*
X12408158Y-24692198D02*
X12417682Y-24711246D01*
X12417682Y-24711246D02*
X12427206Y-24720769D01*
X12427206Y-24720769D02*
X12446253Y-24730293D01*
X12446253Y-24730293D02*
X12484348Y-24730293D01*
X12484348Y-24730293D02*
X12503396Y-24720769D01*
X12503396Y-24720769D02*
X12512920Y-24711246D01*
X12512920Y-24711246D02*
X12522444Y-24692198D01*
X12598634Y-24606484D02*
X12598634Y-24644579D01*
X12674825Y-24606484D02*
X12674825Y-24644579D01*
X12970063Y-24882674D02*
X12960539Y-24873150D01*
X12960539Y-24873150D02*
X12941491Y-24844579D01*
X12941491Y-24844579D02*
X12931968Y-24825531D01*
X12931968Y-24825531D02*
X12922444Y-24796960D01*
X12922444Y-24796960D02*
X12912920Y-24749341D01*
X12912920Y-24749341D02*
X12912920Y-24711246D01*
X12912920Y-24711246D02*
X12922444Y-24663627D01*
X12922444Y-24663627D02*
X12931968Y-24635055D01*
X12931968Y-24635055D02*
X12941491Y-24616008D01*
X12941491Y-24616008D02*
X12960539Y-24587436D01*
X12960539Y-24587436D02*
X12970063Y-24577912D01*
X13131968Y-24673150D02*
X13131968Y-24806484D01*
X13084348Y-24596960D02*
X13036729Y-24739817D01*
X13036729Y-24739817D02*
X13160539Y-24739817D01*
X13389110Y-24806484D02*
X13389110Y-24606484D01*
X13474825Y-24806484D02*
X13474825Y-24701722D01*
X13474825Y-24701722D02*
X13465301Y-24682674D01*
X13465301Y-24682674D02*
X13446253Y-24673150D01*
X13446253Y-24673150D02*
X13417682Y-24673150D01*
X13417682Y-24673150D02*
X13398634Y-24682674D01*
X13398634Y-24682674D02*
X13389110Y-24692198D01*
X13598634Y-24806484D02*
X13579587Y-24796960D01*
X13579587Y-24796960D02*
X13570063Y-24787436D01*
X13570063Y-24787436D02*
X13560539Y-24768388D01*
X13560539Y-24768388D02*
X13560539Y-24711246D01*
X13560539Y-24711246D02*
X13570063Y-24692198D01*
X13570063Y-24692198D02*
X13579587Y-24682674D01*
X13579587Y-24682674D02*
X13598634Y-24673150D01*
X13598634Y-24673150D02*
X13627206Y-24673150D01*
X13627206Y-24673150D02*
X13646253Y-24682674D01*
X13646253Y-24682674D02*
X13655777Y-24692198D01*
X13655777Y-24692198D02*
X13665301Y-24711246D01*
X13665301Y-24711246D02*
X13665301Y-24768388D01*
X13665301Y-24768388D02*
X13655777Y-24787436D01*
X13655777Y-24787436D02*
X13646253Y-24796960D01*
X13646253Y-24796960D02*
X13627206Y-24806484D01*
X13627206Y-24806484D02*
X13598634Y-24806484D01*
X13779587Y-24806484D02*
X13760539Y-24796960D01*
X13760539Y-24796960D02*
X13751015Y-24777912D01*
X13751015Y-24777912D02*
X13751015Y-24606484D01*
X13931968Y-24796960D02*
X13912920Y-24806484D01*
X13912920Y-24806484D02*
X13874825Y-24806484D01*
X13874825Y-24806484D02*
X13855777Y-24796960D01*
X13855777Y-24796960D02*
X13846253Y-24777912D01*
X13846253Y-24777912D02*
X13846253Y-24701722D01*
X13846253Y-24701722D02*
X13855777Y-24682674D01*
X13855777Y-24682674D02*
X13874825Y-24673150D01*
X13874825Y-24673150D02*
X13912920Y-24673150D01*
X13912920Y-24673150D02*
X13931968Y-24682674D01*
X13931968Y-24682674D02*
X13941491Y-24701722D01*
X13941491Y-24701722D02*
X13941491Y-24720769D01*
X13941491Y-24720769D02*
X13846253Y-24739817D01*
X14017682Y-24796960D02*
X14036730Y-24806484D01*
X14036730Y-24806484D02*
X14074825Y-24806484D01*
X14074825Y-24806484D02*
X14093872Y-24796960D01*
X14093872Y-24796960D02*
X14103396Y-24777912D01*
X14103396Y-24777912D02*
X14103396Y-24768388D01*
X14103396Y-24768388D02*
X14093872Y-24749341D01*
X14093872Y-24749341D02*
X14074825Y-24739817D01*
X14074825Y-24739817D02*
X14046253Y-24739817D01*
X14046253Y-24739817D02*
X14027206Y-24730293D01*
X14027206Y-24730293D02*
X14017682Y-24711246D01*
X14017682Y-24711246D02*
X14017682Y-24701722D01*
X14017682Y-24701722D02*
X14027206Y-24682674D01*
X14027206Y-24682674D02*
X14046253Y-24673150D01*
X14046253Y-24673150D02*
X14074825Y-24673150D01*
X14074825Y-24673150D02*
X14093872Y-24682674D01*
X14170063Y-24882674D02*
X14179587Y-24873150D01*
X14179587Y-24873150D02*
X14198634Y-24844579D01*
X14198634Y-24844579D02*
X14208158Y-24825531D01*
X14208158Y-24825531D02*
X14217682Y-24796960D01*
X14217682Y-24796960D02*
X14227206Y-24749341D01*
X14227206Y-24749341D02*
X14227206Y-24711246D01*
X14227206Y-24711246D02*
X14217682Y-24663627D01*
X14217682Y-24663627D02*
X14208158Y-24635055D01*
X14208158Y-24635055D02*
X14198634Y-24616008D01*
X14198634Y-24616008D02*
X14179587Y-24587436D01*
X14179587Y-24587436D02*
X14170063Y-24577912D01*
X14531968Y-24882674D02*
X14522444Y-24873150D01*
X14522444Y-24873150D02*
X14503396Y-24844579D01*
X14503396Y-24844579D02*
X14493872Y-24825531D01*
X14493872Y-24825531D02*
X14484349Y-24796960D01*
X14484349Y-24796960D02*
X14474825Y-24749341D01*
X14474825Y-24749341D02*
X14474825Y-24711246D01*
X14474825Y-24711246D02*
X14484349Y-24663627D01*
X14484349Y-24663627D02*
X14493872Y-24635055D01*
X14493872Y-24635055D02*
X14503396Y-24616008D01*
X14503396Y-24616008D02*
X14522444Y-24587436D01*
X14522444Y-24587436D02*
X14531968Y-24577912D01*
X14608158Y-24673150D02*
X14608158Y-24806484D01*
X14608158Y-24692198D02*
X14617682Y-24682674D01*
X14617682Y-24682674D02*
X14636730Y-24673150D01*
X14636730Y-24673150D02*
X14665301Y-24673150D01*
X14665301Y-24673150D02*
X14684349Y-24682674D01*
X14684349Y-24682674D02*
X14693872Y-24701722D01*
X14693872Y-24701722D02*
X14693872Y-24806484D01*
X14817682Y-24806484D02*
X14798634Y-24796960D01*
X14798634Y-24796960D02*
X14789111Y-24787436D01*
X14789111Y-24787436D02*
X14779587Y-24768388D01*
X14779587Y-24768388D02*
X14779587Y-24711246D01*
X14779587Y-24711246D02*
X14789111Y-24692198D01*
X14789111Y-24692198D02*
X14798634Y-24682674D01*
X14798634Y-24682674D02*
X14817682Y-24673150D01*
X14817682Y-24673150D02*
X14846253Y-24673150D01*
X14846253Y-24673150D02*
X14865301Y-24682674D01*
X14865301Y-24682674D02*
X14874825Y-24692198D01*
X14874825Y-24692198D02*
X14884349Y-24711246D01*
X14884349Y-24711246D02*
X14884349Y-24768388D01*
X14884349Y-24768388D02*
X14874825Y-24787436D01*
X14874825Y-24787436D02*
X14865301Y-24796960D01*
X14865301Y-24796960D02*
X14846253Y-24806484D01*
X14846253Y-24806484D02*
X14817682Y-24806484D01*
X14941492Y-24673150D02*
X15017682Y-24673150D01*
X14970063Y-24606484D02*
X14970063Y-24777912D01*
X14970063Y-24777912D02*
X14979587Y-24796960D01*
X14979587Y-24796960D02*
X14998634Y-24806484D01*
X14998634Y-24806484D02*
X15017682Y-24806484D01*
X15236730Y-24673150D02*
X15236730Y-24873150D01*
X15236730Y-24682674D02*
X15255777Y-24673150D01*
X15255777Y-24673150D02*
X15293873Y-24673150D01*
X15293873Y-24673150D02*
X15312920Y-24682674D01*
X15312920Y-24682674D02*
X15322444Y-24692198D01*
X15322444Y-24692198D02*
X15331968Y-24711246D01*
X15331968Y-24711246D02*
X15331968Y-24768388D01*
X15331968Y-24768388D02*
X15322444Y-24787436D01*
X15322444Y-24787436D02*
X15312920Y-24796960D01*
X15312920Y-24796960D02*
X15293873Y-24806484D01*
X15293873Y-24806484D02*
X15255777Y-24806484D01*
X15255777Y-24806484D02*
X15236730Y-24796960D01*
X15446253Y-24806484D02*
X15427206Y-24796960D01*
X15427206Y-24796960D02*
X15417682Y-24777912D01*
X15417682Y-24777912D02*
X15417682Y-24606484D01*
X15608158Y-24806484D02*
X15608158Y-24701722D01*
X15608158Y-24701722D02*
X15598634Y-24682674D01*
X15598634Y-24682674D02*
X15579587Y-24673150D01*
X15579587Y-24673150D02*
X15541492Y-24673150D01*
X15541492Y-24673150D02*
X15522444Y-24682674D01*
X15608158Y-24796960D02*
X15589111Y-24806484D01*
X15589111Y-24806484D02*
X15541492Y-24806484D01*
X15541492Y-24806484D02*
X15522444Y-24796960D01*
X15522444Y-24796960D02*
X15512920Y-24777912D01*
X15512920Y-24777912D02*
X15512920Y-24758865D01*
X15512920Y-24758865D02*
X15522444Y-24739817D01*
X15522444Y-24739817D02*
X15541492Y-24730293D01*
X15541492Y-24730293D02*
X15589111Y-24730293D01*
X15589111Y-24730293D02*
X15608158Y-24720769D01*
X15674825Y-24673150D02*
X15751015Y-24673150D01*
X15703396Y-24606484D02*
X15703396Y-24777912D01*
X15703396Y-24777912D02*
X15712920Y-24796960D01*
X15712920Y-24796960D02*
X15731968Y-24806484D01*
X15731968Y-24806484D02*
X15751015Y-24806484D01*
X15893873Y-24796960D02*
X15874825Y-24806484D01*
X15874825Y-24806484D02*
X15836730Y-24806484D01*
X15836730Y-24806484D02*
X15817682Y-24796960D01*
X15817682Y-24796960D02*
X15808158Y-24777912D01*
X15808158Y-24777912D02*
X15808158Y-24701722D01*
X15808158Y-24701722D02*
X15817682Y-24682674D01*
X15817682Y-24682674D02*
X15836730Y-24673150D01*
X15836730Y-24673150D02*
X15874825Y-24673150D01*
X15874825Y-24673150D02*
X15893873Y-24682674D01*
X15893873Y-24682674D02*
X15903396Y-24701722D01*
X15903396Y-24701722D02*
X15903396Y-24720769D01*
X15903396Y-24720769D02*
X15808158Y-24739817D01*
X16074825Y-24806484D02*
X16074825Y-24606484D01*
X16074825Y-24796960D02*
X16055777Y-24806484D01*
X16055777Y-24806484D02*
X16017682Y-24806484D01*
X16017682Y-24806484D02*
X15998634Y-24796960D01*
X15998634Y-24796960D02*
X15989111Y-24787436D01*
X15989111Y-24787436D02*
X15979587Y-24768388D01*
X15979587Y-24768388D02*
X15979587Y-24711246D01*
X15979587Y-24711246D02*
X15989111Y-24692198D01*
X15989111Y-24692198D02*
X15998634Y-24682674D01*
X15998634Y-24682674D02*
X16017682Y-24673150D01*
X16017682Y-24673150D02*
X16055777Y-24673150D01*
X16055777Y-24673150D02*
X16074825Y-24682674D01*
X16151015Y-24882674D02*
X16160539Y-24873150D01*
X16160539Y-24873150D02*
X16179587Y-24844579D01*
X16179587Y-24844579D02*
X16189111Y-24825531D01*
X16189111Y-24825531D02*
X16198634Y-24796960D01*
X16198634Y-24796960D02*
X16208158Y-24749341D01*
X16208158Y-24749341D02*
X16208158Y-24711246D01*
X16208158Y-24711246D02*
X16198634Y-24663627D01*
X16198634Y-24663627D02*
X16189111Y-24635055D01*
X16189111Y-24635055D02*
X16179587Y-24616008D01*
X16179587Y-24616008D02*
X16160539Y-24587436D01*
X16160539Y-24587436D02*
X16151015Y-24577912D01*
X9365711Y-25085711D02*
X9365711Y-24944289D01*
X9224289Y-24944289D01*
X9224289Y-25085711D01*
X9365711Y-25085711D01*
X9741491Y-24973150D02*
X9741491Y-25106484D01*
X9693872Y-24896960D02*
X9646253Y-25039817D01*
X9646253Y-25039817D02*
X9770063Y-25039817D01*
X9846253Y-25087436D02*
X9855777Y-25096960D01*
X9855777Y-25096960D02*
X9846253Y-25106484D01*
X9846253Y-25106484D02*
X9836729Y-25096960D01*
X9836729Y-25096960D02*
X9846253Y-25087436D01*
X9846253Y-25087436D02*
X9846253Y-25106484D01*
X9979586Y-24906484D02*
X9998634Y-24906484D01*
X9998634Y-24906484D02*
X10017682Y-24916008D01*
X10017682Y-24916008D02*
X10027205Y-24925531D01*
X10027205Y-24925531D02*
X10036729Y-24944579D01*
X10036729Y-24944579D02*
X10046253Y-24982674D01*
X10046253Y-24982674D02*
X10046253Y-25030293D01*
X10046253Y-25030293D02*
X10036729Y-25068388D01*
X10036729Y-25068388D02*
X10027205Y-25087436D01*
X10027205Y-25087436D02*
X10017682Y-25096960D01*
X10017682Y-25096960D02*
X9998634Y-25106484D01*
X9998634Y-25106484D02*
X9979586Y-25106484D01*
X9979586Y-25106484D02*
X9960539Y-25096960D01*
X9960539Y-25096960D02*
X9951015Y-25087436D01*
X9951015Y-25087436D02*
X9941491Y-25068388D01*
X9941491Y-25068388D02*
X9931967Y-25030293D01*
X9931967Y-25030293D02*
X9931967Y-24982674D01*
X9931967Y-24982674D02*
X9941491Y-24944579D01*
X9941491Y-24944579D02*
X9951015Y-24925531D01*
X9951015Y-24925531D02*
X9960539Y-24916008D01*
X9960539Y-24916008D02*
X9979586Y-24906484D01*
X10170063Y-24906484D02*
X10189110Y-24906484D01*
X10189110Y-24906484D02*
X10208158Y-24916008D01*
X10208158Y-24916008D02*
X10217682Y-24925531D01*
X10217682Y-24925531D02*
X10227205Y-24944579D01*
X10227205Y-24944579D02*
X10236729Y-24982674D01*
X10236729Y-24982674D02*
X10236729Y-25030293D01*
X10236729Y-25030293D02*
X10227205Y-25068388D01*
X10227205Y-25068388D02*
X10217682Y-25087436D01*
X10217682Y-25087436D02*
X10208158Y-25096960D01*
X10208158Y-25096960D02*
X10189110Y-25106484D01*
X10189110Y-25106484D02*
X10170063Y-25106484D01*
X10170063Y-25106484D02*
X10151015Y-25096960D01*
X10151015Y-25096960D02*
X10141491Y-25087436D01*
X10141491Y-25087436D02*
X10131967Y-25068388D01*
X10131967Y-25068388D02*
X10122444Y-25030293D01*
X10122444Y-25030293D02*
X10122444Y-24982674D01*
X10122444Y-24982674D02*
X10131967Y-24944579D01*
X10131967Y-24944579D02*
X10141491Y-24925531D01*
X10141491Y-24925531D02*
X10151015Y-24916008D01*
X10151015Y-24916008D02*
X10170063Y-24906484D01*
X10360539Y-24906484D02*
X10379586Y-24906484D01*
X10379586Y-24906484D02*
X10398634Y-24916008D01*
X10398634Y-24916008D02*
X10408158Y-24925531D01*
X10408158Y-24925531D02*
X10417682Y-24944579D01*
X10417682Y-24944579D02*
X10427205Y-24982674D01*
X10427205Y-24982674D02*
X10427205Y-25030293D01*
X10427205Y-25030293D02*
X10417682Y-25068388D01*
X10417682Y-25068388D02*
X10408158Y-25087436D01*
X10408158Y-25087436D02*
X10398634Y-25096960D01*
X10398634Y-25096960D02*
X10379586Y-25106484D01*
X10379586Y-25106484D02*
X10360539Y-25106484D01*
X10360539Y-25106484D02*
X10341491Y-25096960D01*
X10341491Y-25096960D02*
X10331967Y-25087436D01*
X10331967Y-25087436D02*
X10322444Y-25068388D01*
X10322444Y-25068388D02*
X10312920Y-25030293D01*
X10312920Y-25030293D02*
X10312920Y-24982674D01*
X10312920Y-24982674D02*
X10322444Y-24944579D01*
X10322444Y-24944579D02*
X10331967Y-24925531D01*
X10331967Y-24925531D02*
X10341491Y-24916008D01*
X10341491Y-24916008D02*
X10360539Y-24906484D01*
X10512920Y-25106484D02*
X10512920Y-24973150D01*
X10512920Y-24992198D02*
X10522444Y-24982674D01*
X10522444Y-24982674D02*
X10541491Y-24973150D01*
X10541491Y-24973150D02*
X10570063Y-24973150D01*
X10570063Y-24973150D02*
X10589110Y-24982674D01*
X10589110Y-24982674D02*
X10598634Y-25001722D01*
X10598634Y-25001722D02*
X10598634Y-25106484D01*
X10598634Y-25001722D02*
X10608158Y-24982674D01*
X10608158Y-24982674D02*
X10627205Y-24973150D01*
X10627205Y-24973150D02*
X10655777Y-24973150D01*
X10655777Y-24973150D02*
X10674825Y-24982674D01*
X10674825Y-24982674D02*
X10684348Y-25001722D01*
X10684348Y-25001722D02*
X10684348Y-25106484D01*
X10779586Y-25106484D02*
X10779586Y-24973150D01*
X10779586Y-24992198D02*
X10789110Y-24982674D01*
X10789110Y-24982674D02*
X10808158Y-24973150D01*
X10808158Y-24973150D02*
X10836729Y-24973150D01*
X10836729Y-24973150D02*
X10855777Y-24982674D01*
X10855777Y-24982674D02*
X10865301Y-25001722D01*
X10865301Y-25001722D02*
X10865301Y-25106484D01*
X10865301Y-25001722D02*
X10874825Y-24982674D01*
X10874825Y-24982674D02*
X10893872Y-24973150D01*
X10893872Y-24973150D02*
X10922444Y-24973150D01*
X10922444Y-24973150D02*
X10941491Y-24982674D01*
X10941491Y-24982674D02*
X10951015Y-25001722D01*
X10951015Y-25001722D02*
X10951015Y-25106484D01*
X11341491Y-24896960D02*
X11170063Y-25154103D01*
X11598634Y-24906484D02*
X11617682Y-24906484D01*
X11617682Y-24906484D02*
X11636729Y-24916008D01*
X11636729Y-24916008D02*
X11646253Y-24925531D01*
X11646253Y-24925531D02*
X11655777Y-24944579D01*
X11655777Y-24944579D02*
X11665301Y-24982674D01*
X11665301Y-24982674D02*
X11665301Y-25030293D01*
X11665301Y-25030293D02*
X11655777Y-25068388D01*
X11655777Y-25068388D02*
X11646253Y-25087436D01*
X11646253Y-25087436D02*
X11636729Y-25096960D01*
X11636729Y-25096960D02*
X11617682Y-25106484D01*
X11617682Y-25106484D02*
X11598634Y-25106484D01*
X11598634Y-25106484D02*
X11579586Y-25096960D01*
X11579586Y-25096960D02*
X11570063Y-25087436D01*
X11570063Y-25087436D02*
X11560539Y-25068388D01*
X11560539Y-25068388D02*
X11551015Y-25030293D01*
X11551015Y-25030293D02*
X11551015Y-24982674D01*
X11551015Y-24982674D02*
X11560539Y-24944579D01*
X11560539Y-24944579D02*
X11570063Y-24925531D01*
X11570063Y-24925531D02*
X11579586Y-24916008D01*
X11579586Y-24916008D02*
X11598634Y-24906484D01*
X11751015Y-25087436D02*
X11760539Y-25096960D01*
X11760539Y-25096960D02*
X11751015Y-25106484D01*
X11751015Y-25106484D02*
X11741491Y-25096960D01*
X11741491Y-25096960D02*
X11751015Y-25087436D01*
X11751015Y-25087436D02*
X11751015Y-25106484D01*
X11951015Y-25106484D02*
X11836729Y-25106484D01*
X11893872Y-25106484D02*
X11893872Y-24906484D01*
X11893872Y-24906484D02*
X11874825Y-24935055D01*
X11874825Y-24935055D02*
X11855777Y-24954103D01*
X11855777Y-24954103D02*
X11836729Y-24963627D01*
X12131967Y-24906484D02*
X12036729Y-24906484D01*
X12036729Y-24906484D02*
X12027206Y-25001722D01*
X12027206Y-25001722D02*
X12036729Y-24992198D01*
X12036729Y-24992198D02*
X12055777Y-24982674D01*
X12055777Y-24982674D02*
X12103396Y-24982674D01*
X12103396Y-24982674D02*
X12122444Y-24992198D01*
X12122444Y-24992198D02*
X12131967Y-25001722D01*
X12131967Y-25001722D02*
X12141491Y-25020769D01*
X12141491Y-25020769D02*
X12141491Y-25068388D01*
X12141491Y-25068388D02*
X12131967Y-25087436D01*
X12131967Y-25087436D02*
X12122444Y-25096960D01*
X12122444Y-25096960D02*
X12103396Y-25106484D01*
X12103396Y-25106484D02*
X12055777Y-25106484D01*
X12055777Y-25106484D02*
X12036729Y-25096960D01*
X12036729Y-25096960D02*
X12027206Y-25087436D01*
X12208158Y-24906484D02*
X12341491Y-24906484D01*
X12341491Y-24906484D02*
X12255777Y-25106484D01*
X12512920Y-24906484D02*
X12417682Y-24906484D01*
X12417682Y-24906484D02*
X12408158Y-25001722D01*
X12408158Y-25001722D02*
X12417682Y-24992198D01*
X12417682Y-24992198D02*
X12436729Y-24982674D01*
X12436729Y-24982674D02*
X12484348Y-24982674D01*
X12484348Y-24982674D02*
X12503396Y-24992198D01*
X12503396Y-24992198D02*
X12512920Y-25001722D01*
X12512920Y-25001722D02*
X12522444Y-25020769D01*
X12522444Y-25020769D02*
X12522444Y-25068388D01*
X12522444Y-25068388D02*
X12512920Y-25087436D01*
X12512920Y-25087436D02*
X12503396Y-25096960D01*
X12503396Y-25096960D02*
X12484348Y-25106484D01*
X12484348Y-25106484D02*
X12436729Y-25106484D01*
X12436729Y-25106484D02*
X12417682Y-25096960D01*
X12417682Y-25096960D02*
X12408158Y-25087436D01*
X12598634Y-24906484D02*
X12598634Y-24944579D01*
X12674825Y-24906484D02*
X12674825Y-24944579D01*
X12970063Y-25182674D02*
X12960539Y-25173150D01*
X12960539Y-25173150D02*
X12941491Y-25144579D01*
X12941491Y-25144579D02*
X12931968Y-25125531D01*
X12931968Y-25125531D02*
X12922444Y-25096960D01*
X12922444Y-25096960D02*
X12912920Y-25049341D01*
X12912920Y-25049341D02*
X12912920Y-25011246D01*
X12912920Y-25011246D02*
X12922444Y-24963627D01*
X12922444Y-24963627D02*
X12931968Y-24935055D01*
X12931968Y-24935055D02*
X12941491Y-24916008D01*
X12941491Y-24916008D02*
X12960539Y-24887436D01*
X12960539Y-24887436D02*
X12970063Y-24877912D01*
X13055777Y-25106484D02*
X13093872Y-25106484D01*
X13093872Y-25106484D02*
X13112920Y-25096960D01*
X13112920Y-25096960D02*
X13122444Y-25087436D01*
X13122444Y-25087436D02*
X13141491Y-25058865D01*
X13141491Y-25058865D02*
X13151015Y-25020769D01*
X13151015Y-25020769D02*
X13151015Y-24944579D01*
X13151015Y-24944579D02*
X13141491Y-24925531D01*
X13141491Y-24925531D02*
X13131968Y-24916008D01*
X13131968Y-24916008D02*
X13112920Y-24906484D01*
X13112920Y-24906484D02*
X13074825Y-24906484D01*
X13074825Y-24906484D02*
X13055777Y-24916008D01*
X13055777Y-24916008D02*
X13046253Y-24925531D01*
X13046253Y-24925531D02*
X13036729Y-24944579D01*
X13036729Y-24944579D02*
X13036729Y-24992198D01*
X13036729Y-24992198D02*
X13046253Y-25011246D01*
X13046253Y-25011246D02*
X13055777Y-25020769D01*
X13055777Y-25020769D02*
X13074825Y-25030293D01*
X13074825Y-25030293D02*
X13112920Y-25030293D01*
X13112920Y-25030293D02*
X13131968Y-25020769D01*
X13131968Y-25020769D02*
X13141491Y-25011246D01*
X13141491Y-25011246D02*
X13151015Y-24992198D01*
X13322444Y-24973150D02*
X13322444Y-25106484D01*
X13274825Y-24896960D02*
X13227206Y-25039817D01*
X13227206Y-25039817D02*
X13351015Y-25039817D01*
X13579587Y-25106484D02*
X13579587Y-24906484D01*
X13665301Y-25106484D02*
X13665301Y-25001722D01*
X13665301Y-25001722D02*
X13655777Y-24982674D01*
X13655777Y-24982674D02*
X13636730Y-24973150D01*
X13636730Y-24973150D02*
X13608158Y-24973150D01*
X13608158Y-24973150D02*
X13589110Y-24982674D01*
X13589110Y-24982674D02*
X13579587Y-24992198D01*
X13789110Y-25106484D02*
X13770063Y-25096960D01*
X13770063Y-25096960D02*
X13760539Y-25087436D01*
X13760539Y-25087436D02*
X13751015Y-25068388D01*
X13751015Y-25068388D02*
X13751015Y-25011246D01*
X13751015Y-25011246D02*
X13760539Y-24992198D01*
X13760539Y-24992198D02*
X13770063Y-24982674D01*
X13770063Y-24982674D02*
X13789110Y-24973150D01*
X13789110Y-24973150D02*
X13817682Y-24973150D01*
X13817682Y-24973150D02*
X13836730Y-24982674D01*
X13836730Y-24982674D02*
X13846253Y-24992198D01*
X13846253Y-24992198D02*
X13855777Y-25011246D01*
X13855777Y-25011246D02*
X13855777Y-25068388D01*
X13855777Y-25068388D02*
X13846253Y-25087436D01*
X13846253Y-25087436D02*
X13836730Y-25096960D01*
X13836730Y-25096960D02*
X13817682Y-25106484D01*
X13817682Y-25106484D02*
X13789110Y-25106484D01*
X13970063Y-25106484D02*
X13951015Y-25096960D01*
X13951015Y-25096960D02*
X13941491Y-25077912D01*
X13941491Y-25077912D02*
X13941491Y-24906484D01*
X14122444Y-25096960D02*
X14103396Y-25106484D01*
X14103396Y-25106484D02*
X14065301Y-25106484D01*
X14065301Y-25106484D02*
X14046253Y-25096960D01*
X14046253Y-25096960D02*
X14036730Y-25077912D01*
X14036730Y-25077912D02*
X14036730Y-25001722D01*
X14036730Y-25001722D02*
X14046253Y-24982674D01*
X14046253Y-24982674D02*
X14065301Y-24973150D01*
X14065301Y-24973150D02*
X14103396Y-24973150D01*
X14103396Y-24973150D02*
X14122444Y-24982674D01*
X14122444Y-24982674D02*
X14131968Y-25001722D01*
X14131968Y-25001722D02*
X14131968Y-25020769D01*
X14131968Y-25020769D02*
X14036730Y-25039817D01*
X14208158Y-25096960D02*
X14227206Y-25106484D01*
X14227206Y-25106484D02*
X14265301Y-25106484D01*
X14265301Y-25106484D02*
X14284349Y-25096960D01*
X14284349Y-25096960D02*
X14293872Y-25077912D01*
X14293872Y-25077912D02*
X14293872Y-25068388D01*
X14293872Y-25068388D02*
X14284349Y-25049341D01*
X14284349Y-25049341D02*
X14265301Y-25039817D01*
X14265301Y-25039817D02*
X14236730Y-25039817D01*
X14236730Y-25039817D02*
X14217682Y-25030293D01*
X14217682Y-25030293D02*
X14208158Y-25011246D01*
X14208158Y-25011246D02*
X14208158Y-25001722D01*
X14208158Y-25001722D02*
X14217682Y-24982674D01*
X14217682Y-24982674D02*
X14236730Y-24973150D01*
X14236730Y-24973150D02*
X14265301Y-24973150D01*
X14265301Y-24973150D02*
X14284349Y-24982674D01*
X14360539Y-25182674D02*
X14370063Y-25173150D01*
X14370063Y-25173150D02*
X14389111Y-25144579D01*
X14389111Y-25144579D02*
X14398634Y-25125531D01*
X14398634Y-25125531D02*
X14408158Y-25096960D01*
X14408158Y-25096960D02*
X14417682Y-25049341D01*
X14417682Y-25049341D02*
X14417682Y-25011246D01*
X14417682Y-25011246D02*
X14408158Y-24963627D01*
X14408158Y-24963627D02*
X14398634Y-24935055D01*
X14398634Y-24935055D02*
X14389111Y-24916008D01*
X14389111Y-24916008D02*
X14370063Y-24887436D01*
X14370063Y-24887436D02*
X14360539Y-24877912D01*
X14722444Y-25182674D02*
X14712920Y-25173150D01*
X14712920Y-25173150D02*
X14693872Y-25144579D01*
X14693872Y-25144579D02*
X14684349Y-25125531D01*
X14684349Y-25125531D02*
X14674825Y-25096960D01*
X14674825Y-25096960D02*
X14665301Y-25049341D01*
X14665301Y-25049341D02*
X14665301Y-25011246D01*
X14665301Y-25011246D02*
X14674825Y-24963627D01*
X14674825Y-24963627D02*
X14684349Y-24935055D01*
X14684349Y-24935055D02*
X14693872Y-24916008D01*
X14693872Y-24916008D02*
X14712920Y-24887436D01*
X14712920Y-24887436D02*
X14722444Y-24877912D01*
X14798634Y-24973150D02*
X14798634Y-25106484D01*
X14798634Y-24992198D02*
X14808158Y-24982674D01*
X14808158Y-24982674D02*
X14827206Y-24973150D01*
X14827206Y-24973150D02*
X14855777Y-24973150D01*
X14855777Y-24973150D02*
X14874825Y-24982674D01*
X14874825Y-24982674D02*
X14884349Y-25001722D01*
X14884349Y-25001722D02*
X14884349Y-25106484D01*
X15008158Y-25106484D02*
X14989111Y-25096960D01*
X14989111Y-25096960D02*
X14979587Y-25087436D01*
X14979587Y-25087436D02*
X14970063Y-25068388D01*
X14970063Y-25068388D02*
X14970063Y-25011246D01*
X14970063Y-25011246D02*
X14979587Y-24992198D01*
X14979587Y-24992198D02*
X14989111Y-24982674D01*
X14989111Y-24982674D02*
X15008158Y-24973150D01*
X15008158Y-24973150D02*
X15036730Y-24973150D01*
X15036730Y-24973150D02*
X15055777Y-24982674D01*
X15055777Y-24982674D02*
X15065301Y-24992198D01*
X15065301Y-24992198D02*
X15074825Y-25011246D01*
X15074825Y-25011246D02*
X15074825Y-25068388D01*
X15074825Y-25068388D02*
X15065301Y-25087436D01*
X15065301Y-25087436D02*
X15055777Y-25096960D01*
X15055777Y-25096960D02*
X15036730Y-25106484D01*
X15036730Y-25106484D02*
X15008158Y-25106484D01*
X15131968Y-24973150D02*
X15208158Y-24973150D01*
X15160539Y-24906484D02*
X15160539Y-25077912D01*
X15160539Y-25077912D02*
X15170063Y-25096960D01*
X15170063Y-25096960D02*
X15189111Y-25106484D01*
X15189111Y-25106484D02*
X15208158Y-25106484D01*
X15427206Y-24973150D02*
X15427206Y-25173150D01*
X15427206Y-24982674D02*
X15446253Y-24973150D01*
X15446253Y-24973150D02*
X15484349Y-24973150D01*
X15484349Y-24973150D02*
X15503396Y-24982674D01*
X15503396Y-24982674D02*
X15512920Y-24992198D01*
X15512920Y-24992198D02*
X15522444Y-25011246D01*
X15522444Y-25011246D02*
X15522444Y-25068388D01*
X15522444Y-25068388D02*
X15512920Y-25087436D01*
X15512920Y-25087436D02*
X15503396Y-25096960D01*
X15503396Y-25096960D02*
X15484349Y-25106484D01*
X15484349Y-25106484D02*
X15446253Y-25106484D01*
X15446253Y-25106484D02*
X15427206Y-25096960D01*
X15636730Y-25106484D02*
X15617682Y-25096960D01*
X15617682Y-25096960D02*
X15608158Y-25077912D01*
X15608158Y-25077912D02*
X15608158Y-24906484D01*
X15798634Y-25106484D02*
X15798634Y-25001722D01*
X15798634Y-25001722D02*
X15789111Y-24982674D01*
X15789111Y-24982674D02*
X15770063Y-24973150D01*
X15770063Y-24973150D02*
X15731968Y-24973150D01*
X15731968Y-24973150D02*
X15712920Y-24982674D01*
X15798634Y-25096960D02*
X15779587Y-25106484D01*
X15779587Y-25106484D02*
X15731968Y-25106484D01*
X15731968Y-25106484D02*
X15712920Y-25096960D01*
X15712920Y-25096960D02*
X15703396Y-25077912D01*
X15703396Y-25077912D02*
X15703396Y-25058865D01*
X15703396Y-25058865D02*
X15712920Y-25039817D01*
X15712920Y-25039817D02*
X15731968Y-25030293D01*
X15731968Y-25030293D02*
X15779587Y-25030293D01*
X15779587Y-25030293D02*
X15798634Y-25020769D01*
X15865301Y-24973150D02*
X15941492Y-24973150D01*
X15893873Y-24906484D02*
X15893873Y-25077912D01*
X15893873Y-25077912D02*
X15903396Y-25096960D01*
X15903396Y-25096960D02*
X15922444Y-25106484D01*
X15922444Y-25106484D02*
X15941492Y-25106484D01*
X16084349Y-25096960D02*
X16065301Y-25106484D01*
X16065301Y-25106484D02*
X16027206Y-25106484D01*
X16027206Y-25106484D02*
X16008158Y-25096960D01*
X16008158Y-25096960D02*
X15998634Y-25077912D01*
X15998634Y-25077912D02*
X15998634Y-25001722D01*
X15998634Y-25001722D02*
X16008158Y-24982674D01*
X16008158Y-24982674D02*
X16027206Y-24973150D01*
X16027206Y-24973150D02*
X16065301Y-24973150D01*
X16065301Y-24973150D02*
X16084349Y-24982674D01*
X16084349Y-24982674D02*
X16093873Y-25001722D01*
X16093873Y-25001722D02*
X16093873Y-25020769D01*
X16093873Y-25020769D02*
X15998634Y-25039817D01*
X16265301Y-25106484D02*
X16265301Y-24906484D01*
X16265301Y-25096960D02*
X16246254Y-25106484D01*
X16246254Y-25106484D02*
X16208158Y-25106484D01*
X16208158Y-25106484D02*
X16189111Y-25096960D01*
X16189111Y-25096960D02*
X16179587Y-25087436D01*
X16179587Y-25087436D02*
X16170063Y-25068388D01*
X16170063Y-25068388D02*
X16170063Y-25011246D01*
X16170063Y-25011246D02*
X16179587Y-24992198D01*
X16179587Y-24992198D02*
X16189111Y-24982674D01*
X16189111Y-24982674D02*
X16208158Y-24973150D01*
X16208158Y-24973150D02*
X16246254Y-24973150D01*
X16246254Y-24973150D02*
X16265301Y-24982674D01*
X16341492Y-25182674D02*
X16351015Y-25173150D01*
X16351015Y-25173150D02*
X16370063Y-25144579D01*
X16370063Y-25144579D02*
X16379587Y-25125531D01*
X16379587Y-25125531D02*
X16389111Y-25096960D01*
X16389111Y-25096960D02*
X16398634Y-25049341D01*
X16398634Y-25049341D02*
X16398634Y-25011246D01*
X16398634Y-25011246D02*
X16389111Y-24963627D01*
X16389111Y-24963627D02*
X16379587Y-24935055D01*
X16379587Y-24935055D02*
X16370063Y-24916008D01*
X16370063Y-24916008D02*
X16351015Y-24887436D01*
X16351015Y-24887436D02*
X16341492Y-24877912D01*
M02*
