%TF.GenerationSoftware,KiCad,Pcbnew,7.0.0-da2b9df05c~163~ubuntu22.04.1*%
%TF.CreationDate,2023-02-19T11:59:05+01:00*%
%TF.ProjectId,Europe-ergo,4575726f-7065-42d6-9572-676f2e6b6963,rev?*%
%TF.SameCoordinates,Original*%
%TF.FileFunction,Soldermask,Top*%
%TF.FilePolarity,Negative*%
%FSLAX46Y46*%
G04 Gerber Fmt 4.6, Leading zero omitted, Abs format (unit mm)*
G04 Created by KiCad (PCBNEW 7.0.0-da2b9df05c~163~ubuntu22.04.1) date 2023-02-19 11:59:05*
%MOMM*%
%LPD*%
G01*
G04 APERTURE LIST*
%ADD10R,1.600000X1.600000*%
%ADD11O,1.600000X1.600000*%
%ADD12C,7.500000*%
%ADD13C,1.700000*%
%ADD14C,4.000000*%
%ADD15C,2.200000*%
%ADD16R,1.500000X1.500000*%
%ADD17O,1.500000X1.500000*%
%ADD18C,1.400000*%
%ADD19O,1.400000X1.400000*%
%ADD20R,1.800000X1.800000*%
%ADD21O,1.800000X1.800000*%
%ADD22C,1.100000*%
%ADD23R,1.650000X1.650000*%
%ADD24C,1.650000*%
%ADD25O,1.700000X1.700000*%
%ADD26R,1.700000X1.700000*%
G04 APERTURE END LIST*
D10*
%TO.C,D23*%
X426859999Y-167259999D03*
D11*
X434479999Y-167259999D03*
%TD*%
D10*
%TO.C,D91*%
X153189999Y-191999999D03*
D11*
X160809999Y-191999999D03*
%TD*%
D10*
%TO.C,D61*%
X267379999Y-191999999D03*
D11*
X274999999Y-191999999D03*
%TD*%
D12*
%TO.C,H15*%
X302750000Y-32600000D03*
%TD*%
D10*
%TO.C,D90*%
X193399999Y-83999999D03*
D11*
X201019999Y-83999999D03*
%TD*%
D10*
%TO.C,D79*%
X192079999Y-100799999D03*
D11*
X199699999Y-100799999D03*
%TD*%
D13*
%TO.C,SW43*%
X343900000Y-128700000D03*
D14*
X343900000Y-123620000D03*
D13*
X343900000Y-118540000D03*
D15*
X338820000Y-121080000D03*
X341360000Y-127430000D03*
%TD*%
D13*
%TO.C,SW89*%
X151880000Y-162280000D03*
D14*
X156960000Y-162280000D03*
D13*
X162040000Y-162280000D03*
D15*
X159500000Y-157200000D03*
X153150000Y-159740000D03*
%TD*%
D13*
%TO.C,SW3*%
X492775000Y-120880000D03*
D14*
X497855000Y-120880000D03*
D13*
X502935000Y-120880000D03*
D15*
X500395000Y-115800000D03*
X494045000Y-118340000D03*
%TD*%
D10*
%TO.C,D44*%
X353549999Y-190999999D03*
D11*
X361169999Y-190999999D03*
%TD*%
D10*
%TO.C,D47*%
X335189999Y-201999999D03*
D11*
X342809999Y-201999999D03*
%TD*%
D12*
%TO.C,H3*%
X521000000Y-32600000D03*
%TD*%
D16*
%TO.C,D51*%
X512729999Y-50439999D03*
D17*
X515269999Y-50439999D03*
%TD*%
D13*
%TO.C,SW21*%
X424920000Y-114380000D03*
D14*
X430000000Y-114380000D03*
D13*
X435080000Y-114380000D03*
D15*
X432540000Y-109300000D03*
X426190000Y-111840000D03*
%TD*%
D13*
%TO.C,SW28*%
X403920000Y-159700000D03*
D14*
X409000000Y-159700000D03*
D13*
X414080000Y-159700000D03*
D15*
X411540000Y-154620000D03*
X405190000Y-157160000D03*
%TD*%
D10*
%TO.C,D26*%
X405519999Y-126099999D03*
D11*
X413139999Y-126099999D03*
%TD*%
D10*
%TO.C,D95*%
X152959999Y-171379999D03*
D11*
X160579999Y-171379999D03*
%TD*%
D13*
%TO.C,SW80*%
X172920000Y-180600000D03*
D14*
X178000000Y-180600000D03*
D13*
X183080000Y-180600000D03*
D15*
X180540000Y-175520000D03*
X174190000Y-178060000D03*
%TD*%
D10*
%TO.C,D43*%
X340999999Y-132919999D03*
D11*
X348619999Y-132919999D03*
%TD*%
D13*
%TO.C,SW5*%
X492675000Y-141800000D03*
D14*
X497755000Y-141800000D03*
D13*
X502835000Y-141800000D03*
D15*
X500295000Y-136720000D03*
X493945000Y-139260000D03*
%TD*%
D18*
%TO.C,R10*%
X136920000Y-56000000D03*
D19*
X141999999Y-55999999D03*
%TD*%
D13*
%TO.C,SW9*%
X466920000Y-121840000D03*
D14*
X472000000Y-121840000D03*
D13*
X477080000Y-121840000D03*
D15*
X474540000Y-116760000D03*
X468190000Y-119300000D03*
%TD*%
D12*
%TO.C,H11*%
X100900000Y-228000000D03*
%TD*%
D13*
%TO.C,SW35*%
X375600586Y-193540009D03*
D14*
X379999995Y-191000009D03*
D13*
X384399405Y-188460009D03*
D15*
X379659700Y-185330600D03*
X375430439Y-190705305D03*
%TD*%
D13*
%TO.C,SW34*%
X382920000Y-161800000D03*
D14*
X388000000Y-161800000D03*
D13*
X393080000Y-161800000D03*
D15*
X390540000Y-156720000D03*
X384190000Y-159260000D03*
%TD*%
D12*
%TO.C,H9*%
X100500000Y-34000000D03*
%TD*%
D18*
%TO.C,R11*%
X298460000Y-82500000D03*
D19*
X303539999Y-82499999D03*
%TD*%
D13*
%TO.C,SW53*%
X283000000Y-128080000D03*
D14*
X283000000Y-123000000D03*
D13*
X283000000Y-117920000D03*
D15*
X277920000Y-120460000D03*
X280460000Y-126810000D03*
%TD*%
D10*
%TO.C,D93*%
X151399999Y-129999999D03*
D11*
X159019999Y-129999999D03*
%TD*%
D13*
%TO.C,SW11*%
X465920000Y-143380000D03*
D14*
X471000000Y-143380000D03*
D13*
X476080000Y-143380000D03*
D15*
X473540000Y-138300000D03*
X467190000Y-140840000D03*
%TD*%
D18*
%TO.C,R8*%
X171000000Y-56000000D03*
D19*
X165919999Y-55999999D03*
%TD*%
D10*
%TO.C,D88*%
X173409999Y-124999999D03*
D11*
X181029999Y-124999999D03*
%TD*%
D13*
%TO.C,SW7*%
X443920000Y-76000000D03*
D14*
X449000000Y-76000000D03*
D13*
X454080000Y-76000000D03*
D15*
X451540000Y-70920000D03*
X445190000Y-73460000D03*
%TD*%
D13*
%TO.C,SW58*%
X256840000Y-118000000D03*
D14*
X261920000Y-118000000D03*
D13*
X267000000Y-118000000D03*
D15*
X264460000Y-112920000D03*
X258110000Y-115460000D03*
%TD*%
D13*
%TO.C,SW76*%
X193060000Y-113200000D03*
D14*
X198140000Y-113200000D03*
D13*
X203220000Y-113200000D03*
D15*
X200680000Y-108120000D03*
X194330000Y-110660000D03*
%TD*%
D12*
%TO.C,H8*%
X427400000Y-229450000D03*
%TD*%
D10*
%TO.C,D35*%
X384799999Y-171259999D03*
D11*
X392419999Y-171259999D03*
%TD*%
D10*
%TO.C,D83*%
X195379999Y-184999999D03*
D11*
X202999999Y-184999999D03*
%TD*%
D10*
%TO.C,D66*%
X279379999Y-83999999D03*
D11*
X286999999Y-83999999D03*
%TD*%
D13*
%TO.C,SW20*%
X422590000Y-92480000D03*
D14*
X427670000Y-92480000D03*
D13*
X432750000Y-92480000D03*
D15*
X430210000Y-87400000D03*
X423860000Y-89940000D03*
%TD*%
D10*
%TO.C,D81*%
X195229999Y-143099999D03*
D11*
X202849999Y-143099999D03*
%TD*%
D13*
%TO.C,SW29*%
X402730000Y-138580000D03*
D14*
X407810000Y-138580000D03*
D13*
X412890000Y-138580000D03*
D15*
X410350000Y-133500000D03*
X404000000Y-136040000D03*
%TD*%
D13*
%TO.C,SW17*%
X444920000Y-139040000D03*
D14*
X450000000Y-139040000D03*
D13*
X455080000Y-139040000D03*
D15*
X452540000Y-133960000D03*
X446190000Y-136500000D03*
%TD*%
D10*
%TO.C,D86*%
X174199999Y-188999999D03*
D11*
X181819999Y-188999999D03*
%TD*%
D13*
%TO.C,SW74*%
X193920000Y-176600000D03*
D14*
X199000000Y-176600000D03*
D13*
X204080000Y-176600000D03*
D15*
X201540000Y-171520000D03*
X195190000Y-174060000D03*
%TD*%
D12*
%TO.C,H1*%
X521000000Y-229450000D03*
%TD*%
D13*
%TO.C,SW66*%
X255920000Y-75800000D03*
D14*
X261000000Y-75800000D03*
D13*
X266080000Y-75800000D03*
D15*
X263540000Y-70720000D03*
X257190000Y-73260000D03*
%TD*%
D10*
%TO.C,D40*%
X362549999Y-129839999D03*
D11*
X370169999Y-129839999D03*
%TD*%
D13*
%TO.C,SW85*%
X151350000Y-141300000D03*
D14*
X156430000Y-141300000D03*
D13*
X161510000Y-141300000D03*
D15*
X158970000Y-136220000D03*
X152620000Y-138760000D03*
%TD*%
D10*
%TO.C,D62*%
X258919999Y-127999999D03*
D11*
X266539999Y-127999999D03*
%TD*%
D13*
%TO.C,SW15*%
X445920000Y-118980000D03*
D14*
X451000000Y-118980000D03*
D13*
X456080000Y-118980000D03*
D15*
X453540000Y-113900000D03*
X447190000Y-116440000D03*
%TD*%
D10*
%TO.C,D92*%
X153379999Y-111999999D03*
D11*
X160999999Y-111999999D03*
%TD*%
D10*
%TO.C,D82*%
X195419999Y-163379999D03*
D11*
X203039999Y-163379999D03*
%TD*%
D18*
%TO.C,R1*%
X425470000Y-54000000D03*
D19*
X430549999Y-53999999D03*
%TD*%
D13*
%TO.C,SW6*%
X488990000Y-185080000D03*
D14*
X494070000Y-185080000D03*
D13*
X499150000Y-185080000D03*
D15*
X496610000Y-180000000D03*
X490260000Y-182540000D03*
%TD*%
D10*
%TO.C,D56*%
X283889599Y-200284699D03*
D11*
X291509599Y-200284699D03*
%TD*%
D10*
%TO.C,D73*%
X214299999Y-102799999D03*
D11*
X221919999Y-102799999D03*
%TD*%
D13*
%TO.C,SW27*%
X403920000Y-115840000D03*
D14*
X409000000Y-115840000D03*
D13*
X414080000Y-115840000D03*
D15*
X411540000Y-110760000D03*
X405190000Y-113300000D03*
%TD*%
D10*
%TO.C,D42*%
X339409999Y-106004999D03*
D11*
X347029999Y-106004999D03*
%TD*%
D13*
%TO.C,SW88*%
X150220000Y-120500000D03*
D14*
X155300000Y-120500000D03*
D13*
X160380000Y-120500000D03*
D15*
X157840000Y-115420000D03*
X151490000Y-117960000D03*
%TD*%
D13*
%TO.C,SW62*%
X233820000Y-96900000D03*
D14*
X238900000Y-96900000D03*
D13*
X243980000Y-96900000D03*
D15*
X241440000Y-91820000D03*
X235090000Y-94360000D03*
%TD*%
D13*
%TO.C,SW87*%
X150000000Y-99800000D03*
D14*
X155080000Y-99800000D03*
D13*
X160160000Y-99800000D03*
D15*
X157620000Y-94720000D03*
X151270000Y-97260000D03*
%TD*%
D10*
%TO.C,D98*%
X127409999Y-149099999D03*
D11*
X135029999Y-149099999D03*
%TD*%
D13*
%TO.C,SW4*%
X492975000Y-162800000D03*
D14*
X498055000Y-162800000D03*
D13*
X503135000Y-162800000D03*
D15*
X500595000Y-157720000D03*
X494245000Y-160260000D03*
%TD*%
D13*
%TO.C,SW93*%
X123920000Y-99600000D03*
D14*
X129000000Y-99600000D03*
D13*
X134080000Y-99600000D03*
D15*
X131540000Y-94520000D03*
X125190000Y-97060000D03*
%TD*%
D10*
%TO.C,D10*%
X467189999Y-152039999D03*
D11*
X474809999Y-152039999D03*
%TD*%
D13*
%TO.C,SW90*%
X170720000Y-75700000D03*
D14*
X175800000Y-75700000D03*
D13*
X180880000Y-75700000D03*
D15*
X178340000Y-70620000D03*
X171990000Y-73160000D03*
%TD*%
D10*
%TO.C,D70*%
X237389999Y-147099999D03*
D11*
X245009999Y-147099999D03*
%TD*%
D10*
%TO.C,D39*%
X362519999Y-170524999D03*
D11*
X370139999Y-170524999D03*
%TD*%
D13*
%TO.C,SW39*%
X361350000Y-119080000D03*
D14*
X366430000Y-119080000D03*
D13*
X371510000Y-119080000D03*
D15*
X368970000Y-114000000D03*
X362620000Y-116540000D03*
%TD*%
D10*
%TO.C,D69*%
X237539999Y-126999999D03*
D11*
X245159999Y-126999999D03*
%TD*%
D10*
%TO.C,D100*%
X127109999Y-111999999D03*
D11*
X134729999Y-111999999D03*
%TD*%
D10*
%TO.C,D99*%
X127699999Y-171379999D03*
D11*
X135319999Y-171379999D03*
%TD*%
D18*
%TO.C,R4*%
X489630000Y-54000000D03*
D19*
X484549999Y-53999999D03*
%TD*%
D10*
%TO.C,D80*%
X194349999Y-121999999D03*
D11*
X201969999Y-121999999D03*
%TD*%
D13*
%TO.C,SW31*%
X357920000Y-75740000D03*
D14*
X363000000Y-75740000D03*
D13*
X368080000Y-75740000D03*
D15*
X365540000Y-70660000D03*
X359190000Y-73200000D03*
%TD*%
D10*
%TO.C,D2*%
X494044999Y-108064999D03*
D11*
X501664999Y-108064999D03*
%TD*%
D13*
%TO.C,SW81*%
X170540000Y-94800000D03*
D14*
X175620000Y-94800000D03*
D13*
X180700000Y-94800000D03*
D15*
X178160000Y-89720000D03*
X171810000Y-92260000D03*
%TD*%
D12*
%TO.C,H5*%
X322000000Y-32650000D03*
%TD*%
D10*
%TO.C,D41*%
X361929999Y-151039999D03*
D11*
X369549999Y-151039999D03*
%TD*%
D10*
%TO.C,D34*%
X383799999Y-151039999D03*
D11*
X391419999Y-151039999D03*
%TD*%
D10*
%TO.C,D24*%
X426169999Y-188839999D03*
D11*
X433789999Y-188839999D03*
%TD*%
D13*
%TO.C,SW54*%
X283180000Y-159080000D03*
D14*
X283180000Y-154000000D03*
D13*
X283180000Y-148920000D03*
D15*
X278100000Y-151460000D03*
X280640000Y-157810000D03*
%TD*%
D10*
%TO.C,D58*%
X278519999Y-164279999D03*
D11*
X286139999Y-164279999D03*
%TD*%
D10*
%TO.C,D16*%
X447619999Y-170259999D03*
D11*
X455239999Y-170259999D03*
%TD*%
D13*
%TO.C,SW19*%
X401000000Y-75860000D03*
D14*
X406080000Y-75860000D03*
D13*
X411160000Y-75860000D03*
D15*
X408620000Y-70780000D03*
X402270000Y-73320000D03*
%TD*%
D10*
%TO.C,D27*%
X401859999Y-102964999D03*
D11*
X409479999Y-102964999D03*
%TD*%
D18*
%TO.C,R12*%
X107920000Y-56000000D03*
D19*
X112999999Y-55999999D03*
%TD*%
D13*
%TO.C,SW47*%
X339010586Y-215200009D03*
D14*
X343409995Y-212660009D03*
D13*
X347809405Y-210120009D03*
D15*
X343069700Y-206990600D03*
X338840439Y-212365305D03*
%TD*%
D16*
%TO.C,D49*%
X455614699Y-50439999D03*
D17*
X458154699Y-50439999D03*
%TD*%
D13*
%TO.C,SW18*%
X445990000Y-181180000D03*
D14*
X451070000Y-181180000D03*
D13*
X456150000Y-181180000D03*
D15*
X453610000Y-176100000D03*
X447260000Y-178640000D03*
%TD*%
D10*
%TO.C,D14*%
X444859999Y-105739999D03*
D11*
X452479999Y-105739999D03*
%TD*%
D13*
%TO.C,SW96*%
X149920000Y-75600000D03*
D14*
X155000000Y-75600000D03*
D13*
X160080000Y-75600000D03*
D15*
X157540000Y-70520000D03*
X151190000Y-73060000D03*
%TD*%
D12*
%TO.C,H4*%
X426550000Y-32650000D03*
%TD*%
D13*
%TO.C,SW67*%
X214760000Y-136600000D03*
D14*
X219840000Y-136600000D03*
D13*
X224920000Y-136600000D03*
D15*
X222380000Y-131520000D03*
X216030000Y-134060000D03*
%TD*%
D13*
%TO.C,SW41*%
X361050000Y-141080000D03*
D14*
X366130000Y-141080000D03*
D13*
X371210000Y-141080000D03*
D15*
X368670000Y-136000000D03*
X362320000Y-138540000D03*
%TD*%
D10*
%TO.C,D4*%
X493944999Y-150204999D03*
D11*
X501564999Y-150204999D03*
%TD*%
D13*
%TO.C,SW46*%
X346600586Y-186540009D03*
D14*
X350999995Y-184000009D03*
D13*
X355399405Y-181460009D03*
D15*
X350659700Y-178330600D03*
X346430439Y-183705305D03*
%TD*%
D13*
%TO.C,SW16*%
X445920000Y-159800000D03*
D14*
X451000000Y-159800000D03*
D13*
X456080000Y-159800000D03*
D15*
X453540000Y-154720000D03*
X447190000Y-157260000D03*
%TD*%
D10*
%TO.C,D63*%
X258189999Y-147099999D03*
D11*
X265809999Y-147099999D03*
%TD*%
D10*
%TO.C,D33*%
X384519999Y-128699999D03*
D11*
X392139999Y-128699999D03*
%TD*%
D13*
%TO.C,SW22*%
X424920000Y-157220000D03*
D14*
X430000000Y-157220000D03*
D13*
X435080000Y-157220000D03*
D15*
X432540000Y-152140000D03*
X426190000Y-154680000D03*
%TD*%
D13*
%TO.C,SW26*%
X401590000Y-94740000D03*
D14*
X406670000Y-94740000D03*
D13*
X411750000Y-94740000D03*
D15*
X409210000Y-89660000D03*
X402860000Y-92200000D03*
%TD*%
D10*
%TO.C,D25*%
X380999999Y-83999999D03*
D11*
X388619999Y-83999999D03*
%TD*%
D20*
%TO.C,D54*%
X138099999Y-51199999D03*
D21*
X140639999Y-51199999D03*
%TD*%
D13*
%TO.C,SW12*%
X466990000Y-185080000D03*
D14*
X472070000Y-185080000D03*
D13*
X477150000Y-185080000D03*
D15*
X474610000Y-180000000D03*
X468260000Y-182540000D03*
%TD*%
D13*
%TO.C,SW84*%
X191920000Y-75700000D03*
D14*
X197000000Y-75700000D03*
D13*
X202080000Y-75700000D03*
D15*
X199540000Y-70620000D03*
X193190000Y-73160000D03*
%TD*%
D10*
%TO.C,D5*%
X494474999Y-172659999D03*
D11*
X502094999Y-172659999D03*
%TD*%
D10*
%TO.C,D78*%
X234379999Y-83999999D03*
D11*
X241999999Y-83999999D03*
%TD*%
D10*
%TO.C,D96*%
X172999999Y-83999999D03*
D11*
X180619999Y-83999999D03*
%TD*%
D13*
%TO.C,SW60*%
X277720000Y-75700000D03*
D14*
X282800000Y-75700000D03*
D13*
X287880000Y-75700000D03*
D15*
X285340000Y-70620000D03*
X278990000Y-73160000D03*
%TD*%
D13*
%TO.C,SW56*%
X256920000Y-139000000D03*
D14*
X262000000Y-139000000D03*
D13*
X267080000Y-139000000D03*
D15*
X264540000Y-133920000D03*
X258190000Y-136460000D03*
%TD*%
D18*
%TO.C,R6*%
X513010000Y-54000000D03*
D19*
X518089999Y-53999999D03*
%TD*%
D10*
%TO.C,D65*%
X258279999Y-168379999D03*
D11*
X265899999Y-168379999D03*
%TD*%
D10*
%TO.C,D77*%
X216139999Y-124999999D03*
D11*
X223759999Y-124999999D03*
%TD*%
D13*
%TO.C,SW36*%
X381920000Y-140980000D03*
D14*
X387000000Y-140980000D03*
D13*
X392080000Y-140980000D03*
D15*
X389540000Y-135900000D03*
X383190000Y-138440000D03*
%TD*%
D18*
%TO.C,R3*%
X326170000Y-99500000D03*
D19*
X321089999Y-99499999D03*
%TD*%
D12*
%TO.C,H16*%
X302200000Y-227800000D03*
%TD*%
%TO.C,H13*%
X300900000Y-128800000D03*
%TD*%
D10*
%TO.C,D3*%
X494854999Y-128799999D03*
D11*
X502474999Y-128799999D03*
%TD*%
D10*
%TO.C,D72*%
X257379999Y-83999999D03*
D11*
X264999999Y-83999999D03*
%TD*%
D12*
%TO.C,H12*%
X100500000Y-129000000D03*
%TD*%
D10*
%TO.C,D18*%
X447289999Y-190839999D03*
D11*
X454909999Y-190839999D03*
%TD*%
D10*
%TO.C,D28*%
X404709999Y-148839999D03*
D11*
X412329999Y-148839999D03*
%TD*%
D12*
%TO.C,H2*%
X521000000Y-129000000D03*
%TD*%
D10*
%TO.C,D71*%
X237379999Y-168379999D03*
D11*
X244999999Y-168379999D03*
%TD*%
D13*
%TO.C,SW1*%
X464920000Y-75840000D03*
D14*
X470000000Y-75840000D03*
D13*
X475080000Y-75840000D03*
D15*
X472540000Y-70760000D03*
X466190000Y-73300000D03*
%TD*%
D10*
%TO.C,D8*%
X465559999Y-108004999D03*
D11*
X473179999Y-108004999D03*
%TD*%
D13*
%TO.C,SW73*%
X193560000Y-134200000D03*
D14*
X198640000Y-134200000D03*
D13*
X203720000Y-134200000D03*
D15*
X201180000Y-129120000D03*
X194830000Y-131660000D03*
%TD*%
D10*
%TO.C,D1*%
X466519999Y-83999999D03*
D11*
X474139999Y-83999999D03*
%TD*%
D10*
%TO.C,D22*%
X425199999Y-146039999D03*
D11*
X432819999Y-146039999D03*
%TD*%
D10*
%TO.C,D46*%
X342559999Y-173970599D03*
D11*
X350179999Y-173970599D03*
%TD*%
D16*
%TO.C,D48*%
X426914699Y-50339999D03*
D17*
X429454699Y-50339999D03*
%TD*%
D13*
%TO.C,SW51*%
X271600586Y-181460009D03*
D14*
X275999995Y-184000009D03*
D13*
X280399405Y-186540009D03*
D15*
X280739700Y-180870600D03*
X273970439Y-179895305D03*
%TD*%
D13*
%TO.C,SW71*%
X214920000Y-157780000D03*
D14*
X220000000Y-157780000D03*
D13*
X225080000Y-157780000D03*
D15*
X222540000Y-152700000D03*
X216190000Y-155240000D03*
%TD*%
D13*
%TO.C,SW91*%
X125510000Y-141400000D03*
D14*
X130590000Y-141400000D03*
D13*
X135670000Y-141400000D03*
D15*
X133130000Y-136320000D03*
X126780000Y-138860000D03*
%TD*%
D13*
%TO.C,SW69*%
X212720000Y-94700000D03*
D14*
X217800000Y-94700000D03*
D13*
X222880000Y-94700000D03*
D15*
X220340000Y-89620000D03*
X213990000Y-92160000D03*
%TD*%
D13*
%TO.C,SW86*%
X151920000Y-183580000D03*
D14*
X157000000Y-183580000D03*
D13*
X162080000Y-183580000D03*
D15*
X159540000Y-178500000D03*
X153190000Y-181040000D03*
%TD*%
D12*
%TO.C,H7*%
X324750000Y-228000000D03*
%TD*%
D10*
%TO.C,D11*%
X468319999Y-173219999D03*
D11*
X475939999Y-173219999D03*
%TD*%
D10*
%TO.C,D89*%
X174109999Y-166379999D03*
D11*
X181729999Y-166379999D03*
%TD*%
D13*
%TO.C,SW32*%
X380590000Y-96740000D03*
D14*
X385670000Y-96740000D03*
D13*
X390750000Y-96740000D03*
D15*
X388210000Y-91660000D03*
X381860000Y-94200000D03*
%TD*%
D20*
%TO.C,D55*%
X109899999Y-50699999D03*
D21*
X112439999Y-50699999D03*
%TD*%
D18*
%TO.C,R2*%
X459550000Y-54000000D03*
D19*
X454469999Y-53999999D03*
%TD*%
D10*
%TO.C,D67*%
X248999999Y-180249999D03*
D11*
X256619999Y-180249999D03*
%TD*%
D18*
%TO.C,R7*%
X199000000Y-56000000D03*
D19*
X193919999Y-55999999D03*
%TD*%
D10*
%TO.C,D21*%
X427099999Y-124839999D03*
D11*
X434719999Y-124839999D03*
%TD*%
D18*
%TO.C,R9*%
X298540000Y-99500000D03*
D19*
X303619999Y-99499999D03*
%TD*%
D13*
%TO.C,SW2*%
X492775000Y-99540000D03*
D14*
X497855000Y-99540000D03*
D13*
X502935000Y-99540000D03*
D15*
X500395000Y-94460000D03*
X494045000Y-97000000D03*
%TD*%
D13*
%TO.C,SW10*%
X466920000Y-163260000D03*
D14*
X472000000Y-163260000D03*
D13*
X477080000Y-163260000D03*
D15*
X474540000Y-158180000D03*
X468190000Y-160720000D03*
%TD*%
D10*
%TO.C,D97*%
X131359999Y-191999999D03*
D11*
X138979999Y-191999999D03*
%TD*%
D13*
%TO.C,SW77*%
X193840000Y-155180000D03*
D14*
X198920000Y-155180000D03*
D13*
X204000000Y-155180000D03*
D15*
X201460000Y-150100000D03*
X195110000Y-152640000D03*
%TD*%
D13*
%TO.C,SW95*%
X125920000Y-162480000D03*
D14*
X131000000Y-162480000D03*
D13*
X136080000Y-162480000D03*
D15*
X133540000Y-157400000D03*
X127190000Y-159940000D03*
%TD*%
D18*
%TO.C,R5*%
X325090000Y-82500000D03*
D19*
X320009999Y-82499999D03*
%TD*%
D13*
%TO.C,SW45*%
X357070586Y-204300009D03*
D14*
X361469995Y-201760009D03*
D13*
X365869405Y-199220009D03*
D15*
X361129700Y-196090600D03*
X356900439Y-201465305D03*
%TD*%
D13*
%TO.C,SW30*%
X403920000Y-181080000D03*
D14*
X409000000Y-181080000D03*
D13*
X414080000Y-181080000D03*
D15*
X411540000Y-176000000D03*
X405190000Y-178540000D03*
%TD*%
D13*
%TO.C,SW55*%
X261140586Y-199180009D03*
D14*
X265539995Y-201720009D03*
D13*
X269939405Y-204260009D03*
D15*
X270279700Y-198590600D03*
X263510439Y-197615305D03*
%TD*%
D10*
%TO.C,D75*%
X216189999Y-166379999D03*
D11*
X223809999Y-166379999D03*
%TD*%
D13*
%TO.C,SW78*%
X212920000Y-75600000D03*
D14*
X218000000Y-75600000D03*
D13*
X223080000Y-75600000D03*
D15*
X220540000Y-70520000D03*
X214190000Y-73060000D03*
%TD*%
D13*
%TO.C,SW70*%
X214460000Y-115700000D03*
D14*
X219540000Y-115700000D03*
D13*
X224620000Y-115700000D03*
D15*
X222080000Y-110620000D03*
X215730000Y-113160000D03*
%TD*%
D13*
%TO.C,SW94*%
X124240000Y-120500000D03*
D14*
X129320000Y-120500000D03*
D13*
X134400000Y-120500000D03*
D15*
X131860000Y-115420000D03*
X125510000Y-117960000D03*
%TD*%
D13*
%TO.C,SW79*%
X172250000Y-136600000D03*
D14*
X177330000Y-136600000D03*
D13*
X182410000Y-136600000D03*
D15*
X179870000Y-131520000D03*
X173520000Y-134060000D03*
%TD*%
D13*
%TO.C,SW72*%
X233920000Y-75500000D03*
D14*
X239000000Y-75500000D03*
D13*
X244080000Y-75500000D03*
D15*
X241540000Y-70420000D03*
X235190000Y-72960000D03*
%TD*%
D10*
%TO.C,D19*%
X401389999Y-83999999D03*
D11*
X409009999Y-83999999D03*
%TD*%
D10*
%TO.C,D74*%
X216109999Y-145099999D03*
D11*
X223729999Y-145099999D03*
%TD*%
D13*
%TO.C,SW13*%
X422920000Y-75940000D03*
D14*
X428000000Y-75940000D03*
D13*
X433080000Y-75940000D03*
D15*
X430540000Y-70860000D03*
X424190000Y-73400000D03*
%TD*%
D10*
%TO.C,D36*%
X370859999Y-181239999D03*
D11*
X378479999Y-181239999D03*
%TD*%
D10*
%TO.C,D59*%
X278559999Y-132539999D03*
D11*
X286179999Y-132539999D03*
%TD*%
D12*
%TO.C,H14*%
X198400000Y-228000000D03*
%TD*%
D13*
%TO.C,SW8*%
X464590000Y-99580000D03*
D14*
X469670000Y-99580000D03*
D13*
X474750000Y-99580000D03*
D15*
X472210000Y-94500000D03*
X465860000Y-97040000D03*
%TD*%
D10*
%TO.C,D32*%
X381759999Y-105564999D03*
D11*
X389379999Y-105564999D03*
%TD*%
D12*
%TO.C,H6*%
X323550000Y-128900000D03*
%TD*%
D10*
%TO.C,D9*%
X468499999Y-132199999D03*
D11*
X476119999Y-132199999D03*
%TD*%
D13*
%TO.C,SW33*%
X382920000Y-118840000D03*
D14*
X388000000Y-118840000D03*
D13*
X393080000Y-118840000D03*
D15*
X390540000Y-113760000D03*
X384190000Y-116300000D03*
%TD*%
D10*
%TO.C,D101*%
X125099999Y-129999999D03*
D11*
X132719999Y-129999999D03*
%TD*%
D10*
%TO.C,D76*%
X216499999Y-186999999D03*
D11*
X224119999Y-186999999D03*
%TD*%
D10*
%TO.C,D84*%
X214799999Y-83999999D03*
D11*
X222419999Y-83999999D03*
%TD*%
D13*
%TO.C,SW68*%
X214920000Y-179000000D03*
D14*
X220000000Y-179000000D03*
D13*
X225080000Y-179000000D03*
D15*
X222540000Y-173920000D03*
X216190000Y-176460000D03*
%TD*%
D10*
%TO.C,D37*%
X338549999Y-83999999D03*
D11*
X346169999Y-83999999D03*
%TD*%
D10*
%TO.C,D38*%
X360559999Y-106004999D03*
D11*
X368179999Y-106004999D03*
%TD*%
D20*
%TO.C,D52*%
X195199999Y-51199999D03*
D21*
X197739999Y-51199999D03*
%TD*%
D13*
%TO.C,SW37*%
X337050000Y-75840000D03*
D14*
X342130000Y-75840000D03*
D13*
X347210000Y-75840000D03*
D15*
X344670000Y-70760000D03*
X338320000Y-73300000D03*
%TD*%
D10*
%TO.C,D60*%
X278079999Y-105799999D03*
D11*
X285699999Y-105799999D03*
%TD*%
D10*
%TO.C,D31*%
X359189999Y-83999999D03*
D11*
X366809999Y-83999999D03*
%TD*%
D13*
%TO.C,SW25*%
X379260000Y-75840000D03*
D14*
X384340000Y-75840000D03*
D13*
X389420000Y-75840000D03*
D15*
X386880000Y-70760000D03*
X380530000Y-73300000D03*
%TD*%
D10*
%TO.C,D85*%
X173899999Y-145099999D03*
D11*
X181519999Y-145099999D03*
%TD*%
D10*
%TO.C,D12*%
X468489999Y-196699999D03*
D11*
X476109999Y-196699999D03*
%TD*%
D13*
%TO.C,SW64*%
X235920000Y-160080000D03*
D14*
X241000000Y-160080000D03*
D13*
X246080000Y-160080000D03*
D15*
X243540000Y-155000000D03*
X237190000Y-157540000D03*
%TD*%
D13*
%TO.C,SW38*%
X359590000Y-96980000D03*
D14*
X364670000Y-96980000D03*
D13*
X369750000Y-96980000D03*
D15*
X367210000Y-91900000D03*
X360860000Y-94440000D03*
%TD*%
D13*
%TO.C,SW52*%
X277920000Y-97000000D03*
D14*
X283000000Y-97000000D03*
D13*
X288080000Y-97000000D03*
D15*
X285540000Y-91920000D03*
X279190000Y-94460000D03*
%TD*%
D10*
%TO.C,D17*%
X446189999Y-148564999D03*
D11*
X453809999Y-148564999D03*
%TD*%
D10*
%TO.C,D45*%
X340639999Y-162999999D03*
D11*
X348259999Y-162999999D03*
%TD*%
D13*
%TO.C,SW63*%
X235760000Y-118000000D03*
D14*
X240840000Y-118000000D03*
D13*
X245920000Y-118000000D03*
D15*
X243380000Y-112920000D03*
X237030000Y-115460000D03*
%TD*%
D13*
%TO.C,SW82*%
X171840000Y-115800000D03*
D14*
X176920000Y-115800000D03*
D13*
X182000000Y-115800000D03*
D15*
X179460000Y-110720000D03*
X173110000Y-113260000D03*
%TD*%
D13*
%TO.C,SW92*%
X130380000Y-183680000D03*
D14*
X135460000Y-183680000D03*
D13*
X140540000Y-183680000D03*
D15*
X138000000Y-178600000D03*
X131650000Y-181140000D03*
%TD*%
D12*
%TO.C,H10*%
X197600000Y-34100000D03*
%TD*%
D10*
%TO.C,D87*%
X172619999Y-103799999D03*
D11*
X180239999Y-103799999D03*
%TD*%
D10*
%TO.C,D94*%
X153219999Y-149099999D03*
D11*
X160839999Y-149099999D03*
%TD*%
D13*
%TO.C,SW75*%
X191220000Y-92200000D03*
D14*
X196300000Y-92200000D03*
D13*
X201380000Y-92200000D03*
D15*
X198840000Y-87120000D03*
X192490000Y-89660000D03*
%TD*%
D10*
%TO.C,D30*%
X405619999Y-190839999D03*
D11*
X413239999Y-190839999D03*
%TD*%
D13*
%TO.C,SW50*%
X279630186Y-209564709D03*
D14*
X284029595Y-212104709D03*
D13*
X288429005Y-214644709D03*
D15*
X288769300Y-208975300D03*
X282000039Y-208000005D03*
%TD*%
D10*
%TO.C,D6*%
X490969999Y-195839999D03*
D11*
X498589999Y-195839999D03*
%TD*%
D13*
%TO.C,SW65*%
X243060586Y-188630009D03*
D14*
X247459995Y-191170009D03*
D13*
X251859405Y-193710009D03*
D15*
X252199700Y-188040600D03*
X245430439Y-187065305D03*
%TD*%
D13*
%TO.C,SW57*%
X254920000Y-97000000D03*
D14*
X260000000Y-97000000D03*
D13*
X265080000Y-97000000D03*
D15*
X262540000Y-91920000D03*
X256190000Y-94460000D03*
%TD*%
D13*
%TO.C,SW44*%
X344000000Y-159080000D03*
D14*
X344000000Y-154000000D03*
D13*
X344000000Y-148920000D03*
D15*
X338920000Y-151460000D03*
X341460000Y-157810000D03*
%TD*%
D13*
%TO.C,SW61*%
X235940000Y-138900000D03*
D14*
X241020000Y-138900000D03*
D13*
X246100000Y-138900000D03*
D15*
X243560000Y-133820000D03*
X237210000Y-136360000D03*
%TD*%
D13*
%TO.C,SW59*%
X256920000Y-160080000D03*
D14*
X262000000Y-160080000D03*
D13*
X267080000Y-160080000D03*
D15*
X264540000Y-155000000D03*
X258190000Y-157540000D03*
%TD*%
D10*
%TO.C,D15*%
X448019999Y-128839999D03*
D11*
X455639999Y-128839999D03*
%TD*%
D10*
%TO.C,D13*%
X424649999Y-83999999D03*
D11*
X432269999Y-83999999D03*
%TD*%
D13*
%TO.C,SW40*%
X361250000Y-162000000D03*
D14*
X366330000Y-162000000D03*
D13*
X371410000Y-162000000D03*
D15*
X368870000Y-156920000D03*
X362520000Y-159460000D03*
%TD*%
D10*
%TO.C,D20*%
X423259999Y-101004999D03*
D11*
X430879999Y-101004999D03*
%TD*%
D10*
%TO.C,D64*%
X256279999Y-105799999D03*
D11*
X263899999Y-105799999D03*
%TD*%
D13*
%TO.C,SW24*%
X424990000Y-178480000D03*
D14*
X430070000Y-178480000D03*
D13*
X435150000Y-178480000D03*
D15*
X432610000Y-173400000D03*
X426260000Y-175940000D03*
%TD*%
D10*
%TO.C,D102*%
X151379999Y-83999999D03*
D11*
X158999999Y-83999999D03*
%TD*%
D10*
%TO.C,D68*%
X235799999Y-105799999D03*
D11*
X243419999Y-105799999D03*
%TD*%
D13*
%TO.C,SW83*%
X172840000Y-157680000D03*
D14*
X177920000Y-157680000D03*
D13*
X183000000Y-157680000D03*
D15*
X180460000Y-152600000D03*
X174110000Y-155140000D03*
%TD*%
D10*
%TO.C,D7*%
X445049999Y-84259999D03*
D11*
X452669999Y-84259999D03*
%TD*%
D10*
%TO.C,D57*%
X276659999Y-171879999D03*
D11*
X284279999Y-171879999D03*
%TD*%
D20*
%TO.C,D53*%
X167399999Y-50999999D03*
D21*
X169939999Y-50999999D03*
%TD*%
D13*
%TO.C,SW14*%
X443590000Y-97080000D03*
D14*
X448670000Y-97080000D03*
D13*
X453750000Y-97080000D03*
D15*
X451210000Y-92000000D03*
X444860000Y-94540000D03*
%TD*%
D16*
%TO.C,D50*%
X485114699Y-50239999D03*
D17*
X487654699Y-50239999D03*
%TD*%
D10*
%TO.C,D29*%
X405719999Y-169259999D03*
D11*
X413339999Y-169259999D03*
%TD*%
D13*
%TO.C,SW23*%
X423920000Y-136380000D03*
D14*
X429000000Y-136380000D03*
D13*
X434080000Y-136380000D03*
D15*
X431540000Y-131300000D03*
X425190000Y-133840000D03*
%TD*%
D13*
%TO.C,SW42*%
X338920000Y-97080000D03*
D14*
X344000000Y-97080000D03*
D13*
X349080000Y-97080000D03*
D15*
X346540000Y-92000000D03*
X340190000Y-94540000D03*
%TD*%
D13*
%TO.C,SW48*%
X397010000Y-53000000D03*
X402090000Y-53000000D03*
%TD*%
D22*
%TO.C,J1*%
X318975000Y-92250000D03*
X323975000Y-92250000D03*
D23*
X318974999Y-97049999D03*
D24*
X323975000Y-88650000D03*
X327075000Y-93850000D03*
X318975000Y-87750000D03*
%TD*%
D21*
%TO.C,U2*%
X303999999Y-55449999D03*
D17*
X300969999Y-55149999D03*
X300969999Y-50299999D03*
D21*
X303999999Y-49999999D03*
D25*
X304129999Y-61614999D03*
X301589999Y-61614999D03*
D26*
X299049999Y-61614999D03*
D25*
X296509999Y-61614999D03*
X293969999Y-61614999D03*
X291429999Y-61614999D03*
X288889999Y-61614999D03*
D26*
X286349999Y-61614999D03*
D25*
X283809999Y-61614999D03*
X281269999Y-61614999D03*
X278729999Y-61614999D03*
X276189999Y-61614999D03*
D26*
X273649999Y-61614999D03*
D25*
X271109999Y-61614999D03*
X268569999Y-61614999D03*
X266029999Y-61614999D03*
X263489999Y-61614999D03*
D26*
X260949999Y-61614999D03*
D25*
X258409999Y-61614999D03*
X255869999Y-61614999D03*
X255869999Y-43834999D03*
X258409999Y-43834999D03*
D26*
X260949999Y-43834999D03*
D25*
X263489999Y-43834999D03*
X266029999Y-43834999D03*
X268569999Y-43834999D03*
X271109999Y-43834999D03*
D26*
X273649999Y-43834999D03*
D25*
X276189999Y-43834999D03*
X278729999Y-43834999D03*
X281269999Y-43834999D03*
X283809999Y-43834999D03*
D26*
X286349999Y-43834999D03*
D25*
X288889999Y-43834999D03*
X291429999Y-43834999D03*
X293969999Y-43834999D03*
X296509999Y-43834999D03*
D26*
X299049999Y-43834999D03*
D25*
X301589999Y-43834999D03*
X304129999Y-43834999D03*
X256099999Y-55264999D03*
D26*
X256099999Y-52724999D03*
D25*
X256099999Y-50184999D03*
%TD*%
D21*
%TO.C,U1*%
X320549999Y-49999999D03*
D17*
X323579999Y-50299999D03*
X323579999Y-55149999D03*
D21*
X320549999Y-55449999D03*
D25*
X320419999Y-43834999D03*
X322959999Y-43834999D03*
D26*
X325499999Y-43834999D03*
D25*
X328039999Y-43834999D03*
X330579999Y-43834999D03*
X333119999Y-43834999D03*
X335659999Y-43834999D03*
D26*
X338199999Y-43834999D03*
D25*
X340739999Y-43834999D03*
X343279999Y-43834999D03*
X345819999Y-43834999D03*
X348359999Y-43834999D03*
D26*
X350899999Y-43834999D03*
D25*
X353439999Y-43834999D03*
X355979999Y-43834999D03*
X358519999Y-43834999D03*
X361059999Y-43834999D03*
D26*
X363599999Y-43834999D03*
D25*
X366139999Y-43834999D03*
X368679999Y-43834999D03*
X368679999Y-61614999D03*
X366139999Y-61614999D03*
D26*
X363599999Y-61614999D03*
D25*
X361059999Y-61614999D03*
X358519999Y-61614999D03*
X355979999Y-61614999D03*
X353439999Y-61614999D03*
D26*
X350899999Y-61614999D03*
D25*
X348359999Y-61614999D03*
X345819999Y-61614999D03*
X343279999Y-61614999D03*
X340739999Y-61614999D03*
D26*
X338199999Y-61614999D03*
D25*
X335659999Y-61614999D03*
X333119999Y-61614999D03*
X330579999Y-61614999D03*
X328039999Y-61614999D03*
D26*
X325499999Y-61614999D03*
D25*
X322959999Y-61614999D03*
X320419999Y-61614999D03*
X368449999Y-50184999D03*
D26*
X368449999Y-52724999D03*
D25*
X368449999Y-55264999D03*
%TD*%
D13*
%TO.C,SW49*%
X229000000Y-53000000D03*
X223920000Y-53000000D03*
%TD*%
D22*
%TO.C,J2*%
X305670000Y-92230000D03*
X300670000Y-92230000D03*
D23*
X305669999Y-87429999D03*
D24*
X300670000Y-95830000D03*
X297570000Y-90630000D03*
X305670000Y-96730000D03*
%TD*%
M02*
