%TF.GenerationSoftware,KiCad,Pcbnew,6.0.9-8da3e8f707~117~ubuntu20.04.1*%
%TF.CreationDate,2022-12-09T19:31:54+01:00*%
%TF.ProjectId,Europe-ergo,4575726f-7065-42d6-9572-676f2e6b6963,rev?*%
%TF.SameCoordinates,Original*%
%TF.FileFunction,Profile,NP*%
%FSLAX46Y46*%
G04 Gerber Fmt 4.6, Leading zero omitted, Abs format (unit mm)*
G04 Created by KiCad (PCBNEW 6.0.9-8da3e8f707~117~ubuntu20.04.1) date 2022-12-09 19:31:54*
%MOMM*%
%LPD*%
G01*
G04 APERTURE LIST*
%TA.AperFunction,Profile*%
%ADD10C,0.100000*%
%TD*%
%TA.AperFunction,Profile*%
%ADD11C,0.010000*%
%TD*%
G04 APERTURE END LIST*
D10*
X308575000Y-84400000D02*
X308500000Y-31250000D01*
X312500000Y-31250000D02*
X312525000Y-83400000D01*
X308575000Y-101600000D02*
X309000000Y-254750000D01*
X312525000Y-100600000D02*
X313000000Y-254750000D01*
X309000000Y-254750000D02*
X313000000Y-254750000D01*
X85000000Y-27000000D02*
X308500000Y-27000000D01*
X532000000Y-263000000D02*
X532000000Y-27000000D01*
X309000000Y-263000000D02*
X313000000Y-263000000D01*
X85000000Y-263000000D02*
X85000000Y-27000000D01*
X532000000Y-27000000D02*
X312500000Y-27000000D01*
X313000000Y-263000000D02*
X532000000Y-263000000D01*
X308500000Y-27000000D02*
X312500000Y-27000000D01*
X308500000Y-31250000D02*
X312500000Y-31250000D01*
X309000000Y-263000000D02*
X85000000Y-263000000D01*
D11*
%TO.C,J1*%
X313825000Y-90000000D02*
X312525000Y-90000000D01*
X313825000Y-94500000D02*
X313825000Y-90000000D01*
X312525000Y-90000000D02*
X312525000Y-83400000D01*
X312525000Y-100600000D02*
X312525000Y-94500000D01*
X312525000Y-94500000D02*
X313825000Y-94500000D01*
%TO.C,J2*%
X308575000Y-84400000D02*
X308575000Y-90500000D01*
X308575000Y-95000000D02*
X308575000Y-101600000D01*
X308575000Y-90500000D02*
X307275000Y-90500000D01*
X307275000Y-90500000D02*
X307275000Y-95000000D01*
X307275000Y-95000000D02*
X308575000Y-95000000D01*
%TD*%
M02*
