%TF.GenerationSoftware,KiCad,Pcbnew,7.0.1-3b83917a11~172~ubuntu22.04.1*%
%TF.CreationDate,2023-03-31T12:58:08+02:00*%
%TF.ProjectId,Europe-ergo,4575726f-7065-42d6-9572-676f2e6b6963,rev?*%
%TF.SameCoordinates,Original*%
%TF.FileFunction,AssemblyDrawing,Bot*%
%FSLAX46Y46*%
G04 Gerber Fmt 4.6, Leading zero omitted, Abs format (unit mm)*
G04 Created by KiCad (PCBNEW 7.0.1-3b83917a11~172~ubuntu22.04.1) date 2023-03-31 12:58:08*
%MOMM*%
%LPD*%
G01*
G04 APERTURE LIST*
%ADD10C,0.150000*%
%ADD11C,0.127000*%
%ADD12C,0.120000*%
G04 APERTURE END LIST*
D10*
%TO.C,J2*%
X327988615Y-85232870D02*
X327845407Y-85280606D01*
X327845407Y-85280606D02*
X327606727Y-85280606D01*
X327606727Y-85280606D02*
X327511255Y-85232870D01*
X327511255Y-85232870D02*
X327463519Y-85185133D01*
X327463519Y-85185133D02*
X327415783Y-85089661D01*
X327415783Y-85089661D02*
X327415783Y-84994189D01*
X327415783Y-84994189D02*
X327463519Y-84898717D01*
X327463519Y-84898717D02*
X327511255Y-84850981D01*
X327511255Y-84850981D02*
X327606727Y-84803245D01*
X327606727Y-84803245D02*
X327797671Y-84755509D01*
X327797671Y-84755509D02*
X327893143Y-84707773D01*
X327893143Y-84707773D02*
X327940879Y-84660037D01*
X327940879Y-84660037D02*
X327988615Y-84564565D01*
X327988615Y-84564565D02*
X327988615Y-84469093D01*
X327988615Y-84469093D02*
X327940879Y-84373621D01*
X327940879Y-84373621D02*
X327893143Y-84325885D01*
X327893143Y-84325885D02*
X327797671Y-84278149D01*
X327797671Y-84278149D02*
X327558991Y-84278149D01*
X327558991Y-84278149D02*
X327415783Y-84325885D01*
X326699742Y-84278149D02*
X326699742Y-84994189D01*
X326699742Y-84994189D02*
X326747478Y-85137397D01*
X326747478Y-85137397D02*
X326842950Y-85232870D01*
X326842950Y-85232870D02*
X326986158Y-85280606D01*
X326986158Y-85280606D02*
X327081630Y-85280606D01*
X326222381Y-84898717D02*
X325458605Y-84898717D01*
X324551620Y-84612301D02*
X324551620Y-85280606D01*
X324790300Y-84230413D02*
X325028980Y-84946453D01*
X325028980Y-84946453D02*
X324408412Y-84946453D01*
X324121995Y-84278149D02*
X323501427Y-84278149D01*
X323501427Y-84278149D02*
X323835579Y-84660037D01*
X323835579Y-84660037D02*
X323692371Y-84660037D01*
X323692371Y-84660037D02*
X323596899Y-84707773D01*
X323596899Y-84707773D02*
X323549163Y-84755509D01*
X323549163Y-84755509D02*
X323501427Y-84850981D01*
X323501427Y-84850981D02*
X323501427Y-85089661D01*
X323501427Y-85089661D02*
X323549163Y-85185133D01*
X323549163Y-85185133D02*
X323596899Y-85232870D01*
X323596899Y-85232870D02*
X323692371Y-85280606D01*
X323692371Y-85280606D02*
X323978787Y-85280606D01*
X323978787Y-85280606D02*
X324074259Y-85232870D01*
X324074259Y-85232870D02*
X324121995Y-85185133D01*
X322594442Y-84278149D02*
X323071802Y-84278149D01*
X323071802Y-84278149D02*
X323119538Y-84755509D01*
X323119538Y-84755509D02*
X323071802Y-84707773D01*
X323071802Y-84707773D02*
X322976330Y-84660037D01*
X322976330Y-84660037D02*
X322737650Y-84660037D01*
X322737650Y-84660037D02*
X322642178Y-84707773D01*
X322642178Y-84707773D02*
X322594442Y-84755509D01*
X322594442Y-84755509D02*
X322546706Y-84850981D01*
X322546706Y-84850981D02*
X322546706Y-85089661D01*
X322546706Y-85089661D02*
X322594442Y-85185133D01*
X322594442Y-85185133D02*
X322642178Y-85232870D01*
X322642178Y-85232870D02*
X322737650Y-85280606D01*
X322737650Y-85280606D02*
X322976330Y-85280606D01*
X322976330Y-85280606D02*
X323071802Y-85232870D01*
X323071802Y-85232870D02*
X323119538Y-85185133D01*
X321591985Y-85280606D02*
X322164817Y-85280606D01*
X321878401Y-85280606D02*
X321878401Y-84278149D01*
X321878401Y-84278149D02*
X321973873Y-84421357D01*
X321973873Y-84421357D02*
X322069345Y-84516829D01*
X322069345Y-84516829D02*
X322164817Y-84564565D01*
X320971416Y-84278149D02*
X320875944Y-84278149D01*
X320875944Y-84278149D02*
X320780472Y-84325885D01*
X320780472Y-84325885D02*
X320732736Y-84373621D01*
X320732736Y-84373621D02*
X320685000Y-84469093D01*
X320685000Y-84469093D02*
X320637264Y-84660037D01*
X320637264Y-84660037D02*
X320637264Y-84898717D01*
X320637264Y-84898717D02*
X320685000Y-85089661D01*
X320685000Y-85089661D02*
X320732736Y-85185133D01*
X320732736Y-85185133D02*
X320780472Y-85232870D01*
X320780472Y-85232870D02*
X320875944Y-85280606D01*
X320875944Y-85280606D02*
X320971416Y-85280606D01*
X320971416Y-85280606D02*
X321066888Y-85232870D01*
X321066888Y-85232870D02*
X321114624Y-85185133D01*
X321114624Y-85185133D02*
X321162360Y-85089661D01*
X321162360Y-85089661D02*
X321210096Y-84898717D01*
X321210096Y-84898717D02*
X321210096Y-84660037D01*
X321210096Y-84660037D02*
X321162360Y-84469093D01*
X321162360Y-84469093D02*
X321114624Y-84373621D01*
X321114624Y-84373621D02*
X321066888Y-84325885D01*
X321066888Y-84325885D02*
X320971416Y-84278149D01*
X320303111Y-84278149D02*
X319634807Y-84278149D01*
X319634807Y-84278149D02*
X320064431Y-85280606D01*
%TO.C,J1*%
X304962455Y-100079170D02*
X304819247Y-100126906D01*
X304819247Y-100126906D02*
X304580567Y-100126906D01*
X304580567Y-100126906D02*
X304485095Y-100079170D01*
X304485095Y-100079170D02*
X304437359Y-100031433D01*
X304437359Y-100031433D02*
X304389623Y-99935961D01*
X304389623Y-99935961D02*
X304389623Y-99840489D01*
X304389623Y-99840489D02*
X304437359Y-99745017D01*
X304437359Y-99745017D02*
X304485095Y-99697281D01*
X304485095Y-99697281D02*
X304580567Y-99649545D01*
X304580567Y-99649545D02*
X304771511Y-99601809D01*
X304771511Y-99601809D02*
X304866983Y-99554073D01*
X304866983Y-99554073D02*
X304914719Y-99506337D01*
X304914719Y-99506337D02*
X304962455Y-99410865D01*
X304962455Y-99410865D02*
X304962455Y-99315393D01*
X304962455Y-99315393D02*
X304914719Y-99219921D01*
X304914719Y-99219921D02*
X304866983Y-99172185D01*
X304866983Y-99172185D02*
X304771511Y-99124449D01*
X304771511Y-99124449D02*
X304532831Y-99124449D01*
X304532831Y-99124449D02*
X304389623Y-99172185D01*
X303673582Y-99124449D02*
X303673582Y-99840489D01*
X303673582Y-99840489D02*
X303721318Y-99983697D01*
X303721318Y-99983697D02*
X303816790Y-100079170D01*
X303816790Y-100079170D02*
X303959998Y-100126906D01*
X303959998Y-100126906D02*
X304055470Y-100126906D01*
X303196221Y-99745017D02*
X302432445Y-99745017D01*
X301525460Y-99458601D02*
X301525460Y-100126906D01*
X301764140Y-99076713D02*
X302002820Y-99792753D01*
X302002820Y-99792753D02*
X301382252Y-99792753D01*
X301095835Y-99124449D02*
X300475267Y-99124449D01*
X300475267Y-99124449D02*
X300809419Y-99506337D01*
X300809419Y-99506337D02*
X300666211Y-99506337D01*
X300666211Y-99506337D02*
X300570739Y-99554073D01*
X300570739Y-99554073D02*
X300523003Y-99601809D01*
X300523003Y-99601809D02*
X300475267Y-99697281D01*
X300475267Y-99697281D02*
X300475267Y-99935961D01*
X300475267Y-99935961D02*
X300523003Y-100031433D01*
X300523003Y-100031433D02*
X300570739Y-100079170D01*
X300570739Y-100079170D02*
X300666211Y-100126906D01*
X300666211Y-100126906D02*
X300952627Y-100126906D01*
X300952627Y-100126906D02*
X301048099Y-100079170D01*
X301048099Y-100079170D02*
X301095835Y-100031433D01*
X299568282Y-99124449D02*
X300045642Y-99124449D01*
X300045642Y-99124449D02*
X300093378Y-99601809D01*
X300093378Y-99601809D02*
X300045642Y-99554073D01*
X300045642Y-99554073D02*
X299950170Y-99506337D01*
X299950170Y-99506337D02*
X299711490Y-99506337D01*
X299711490Y-99506337D02*
X299616018Y-99554073D01*
X299616018Y-99554073D02*
X299568282Y-99601809D01*
X299568282Y-99601809D02*
X299520546Y-99697281D01*
X299520546Y-99697281D02*
X299520546Y-99935961D01*
X299520546Y-99935961D02*
X299568282Y-100031433D01*
X299568282Y-100031433D02*
X299616018Y-100079170D01*
X299616018Y-100079170D02*
X299711490Y-100126906D01*
X299711490Y-100126906D02*
X299950170Y-100126906D01*
X299950170Y-100126906D02*
X300045642Y-100079170D01*
X300045642Y-100079170D02*
X300093378Y-100031433D01*
X298565825Y-100126906D02*
X299138657Y-100126906D01*
X298852241Y-100126906D02*
X298852241Y-99124449D01*
X298852241Y-99124449D02*
X298947713Y-99267657D01*
X298947713Y-99267657D02*
X299043185Y-99363129D01*
X299043185Y-99363129D02*
X299138657Y-99410865D01*
X297945256Y-99124449D02*
X297849784Y-99124449D01*
X297849784Y-99124449D02*
X297754312Y-99172185D01*
X297754312Y-99172185D02*
X297706576Y-99219921D01*
X297706576Y-99219921D02*
X297658840Y-99315393D01*
X297658840Y-99315393D02*
X297611104Y-99506337D01*
X297611104Y-99506337D02*
X297611104Y-99745017D01*
X297611104Y-99745017D02*
X297658840Y-99935961D01*
X297658840Y-99935961D02*
X297706576Y-100031433D01*
X297706576Y-100031433D02*
X297754312Y-100079170D01*
X297754312Y-100079170D02*
X297849784Y-100126906D01*
X297849784Y-100126906D02*
X297945256Y-100126906D01*
X297945256Y-100126906D02*
X298040728Y-100079170D01*
X298040728Y-100079170D02*
X298088464Y-100031433D01*
X298088464Y-100031433D02*
X298136200Y-99935961D01*
X298136200Y-99935961D02*
X298183936Y-99745017D01*
X298183936Y-99745017D02*
X298183936Y-99506337D01*
X298183936Y-99506337D02*
X298136200Y-99315393D01*
X298136200Y-99315393D02*
X298088464Y-99219921D01*
X298088464Y-99219921D02*
X298040728Y-99172185D01*
X298040728Y-99172185D02*
X297945256Y-99124449D01*
X297276951Y-99124449D02*
X296608647Y-99124449D01*
X296608647Y-99124449D02*
X297038271Y-100126906D01*
%TO.C,SW16*%
X395089809Y-49298809D02*
X394994571Y-49346428D01*
X394994571Y-49346428D02*
X394946952Y-49394047D01*
X394946952Y-49394047D02*
X394899333Y-49489285D01*
X394899333Y-49489285D02*
X394899333Y-49536904D01*
X394899333Y-49536904D02*
X394946952Y-49632142D01*
X394946952Y-49632142D02*
X394994571Y-49679761D01*
X394994571Y-49679761D02*
X395089809Y-49727380D01*
X395089809Y-49727380D02*
X395280285Y-49727380D01*
X395280285Y-49727380D02*
X395375523Y-49679761D01*
X395375523Y-49679761D02*
X395423142Y-49632142D01*
X395423142Y-49632142D02*
X395470761Y-49536904D01*
X395470761Y-49536904D02*
X395470761Y-49489285D01*
X395470761Y-49489285D02*
X395423142Y-49394047D01*
X395423142Y-49394047D02*
X395375523Y-49346428D01*
X395375523Y-49346428D02*
X395280285Y-49298809D01*
X395280285Y-49298809D02*
X395089809Y-49298809D01*
X395089809Y-49298809D02*
X394994571Y-49251190D01*
X394994571Y-49251190D02*
X394946952Y-49203571D01*
X394946952Y-49203571D02*
X394899333Y-49108333D01*
X394899333Y-49108333D02*
X394899333Y-48917857D01*
X394899333Y-48917857D02*
X394946952Y-48822619D01*
X394946952Y-48822619D02*
X394994571Y-48775000D01*
X394994571Y-48775000D02*
X395089809Y-48727380D01*
X395089809Y-48727380D02*
X395280285Y-48727380D01*
X395280285Y-48727380D02*
X395375523Y-48775000D01*
X395375523Y-48775000D02*
X395423142Y-48822619D01*
X395423142Y-48822619D02*
X395470761Y-48917857D01*
X395470761Y-48917857D02*
X395470761Y-49108333D01*
X395470761Y-49108333D02*
X395423142Y-49203571D01*
X395423142Y-49203571D02*
X395375523Y-49251190D01*
X395375523Y-49251190D02*
X395280285Y-49298809D01*
X396089809Y-49727380D02*
X396185047Y-49727380D01*
X396185047Y-49727380D02*
X396280285Y-49679761D01*
X396280285Y-49679761D02*
X396327904Y-49632142D01*
X396327904Y-49632142D02*
X396375523Y-49536904D01*
X396375523Y-49536904D02*
X396423142Y-49346428D01*
X396423142Y-49346428D02*
X396423142Y-49108333D01*
X396423142Y-49108333D02*
X396375523Y-48917857D01*
X396375523Y-48917857D02*
X396327904Y-48822619D01*
X396327904Y-48822619D02*
X396280285Y-48775000D01*
X396280285Y-48775000D02*
X396185047Y-48727380D01*
X396185047Y-48727380D02*
X396089809Y-48727380D01*
X396089809Y-48727380D02*
X395994571Y-48775000D01*
X395994571Y-48775000D02*
X395946952Y-48822619D01*
X395946952Y-48822619D02*
X395899333Y-48917857D01*
X395899333Y-48917857D02*
X395851714Y-49108333D01*
X395851714Y-49108333D02*
X395851714Y-49346428D01*
X395851714Y-49346428D02*
X395899333Y-49536904D01*
X395899333Y-49536904D02*
X395946952Y-49632142D01*
X395946952Y-49632142D02*
X395994571Y-49679761D01*
X395994571Y-49679761D02*
X396089809Y-49727380D01*
X397042190Y-49727380D02*
X397137428Y-49727380D01*
X397137428Y-49727380D02*
X397232666Y-49679761D01*
X397232666Y-49679761D02*
X397280285Y-49632142D01*
X397280285Y-49632142D02*
X397327904Y-49536904D01*
X397327904Y-49536904D02*
X397375523Y-49346428D01*
X397375523Y-49346428D02*
X397375523Y-49108333D01*
X397375523Y-49108333D02*
X397327904Y-48917857D01*
X397327904Y-48917857D02*
X397280285Y-48822619D01*
X397280285Y-48822619D02*
X397232666Y-48775000D01*
X397232666Y-48775000D02*
X397137428Y-48727380D01*
X397137428Y-48727380D02*
X397042190Y-48727380D01*
X397042190Y-48727380D02*
X396946952Y-48775000D01*
X396946952Y-48775000D02*
X396899333Y-48822619D01*
X396899333Y-48822619D02*
X396851714Y-48917857D01*
X396851714Y-48917857D02*
X396804095Y-49108333D01*
X396804095Y-49108333D02*
X396804095Y-49346428D01*
X396804095Y-49346428D02*
X396851714Y-49536904D01*
X396851714Y-49536904D02*
X396899333Y-49632142D01*
X396899333Y-49632142D02*
X396946952Y-49679761D01*
X396946952Y-49679761D02*
X397042190Y-49727380D01*
X397756476Y-48775000D02*
X397899333Y-48727380D01*
X397899333Y-48727380D02*
X398137428Y-48727380D01*
X398137428Y-48727380D02*
X398232666Y-48775000D01*
X398232666Y-48775000D02*
X398280285Y-48822619D01*
X398280285Y-48822619D02*
X398327904Y-48917857D01*
X398327904Y-48917857D02*
X398327904Y-49013095D01*
X398327904Y-49013095D02*
X398280285Y-49108333D01*
X398280285Y-49108333D02*
X398232666Y-49155952D01*
X398232666Y-49155952D02*
X398137428Y-49203571D01*
X398137428Y-49203571D02*
X397946952Y-49251190D01*
X397946952Y-49251190D02*
X397851714Y-49298809D01*
X397851714Y-49298809D02*
X397804095Y-49346428D01*
X397804095Y-49346428D02*
X397756476Y-49441666D01*
X397756476Y-49441666D02*
X397756476Y-49536904D01*
X397756476Y-49536904D02*
X397804095Y-49632142D01*
X397804095Y-49632142D02*
X397851714Y-49679761D01*
X397851714Y-49679761D02*
X397946952Y-49727380D01*
X397946952Y-49727380D02*
X398185047Y-49727380D01*
X398185047Y-49727380D02*
X398327904Y-49679761D01*
X398756476Y-48727380D02*
X398756476Y-49727380D01*
X398756476Y-49727380D02*
X399137428Y-49727380D01*
X399137428Y-49727380D02*
X399232666Y-49679761D01*
X399232666Y-49679761D02*
X399280285Y-49632142D01*
X399280285Y-49632142D02*
X399327904Y-49536904D01*
X399327904Y-49536904D02*
X399327904Y-49394047D01*
X399327904Y-49394047D02*
X399280285Y-49298809D01*
X399280285Y-49298809D02*
X399232666Y-49251190D01*
X399232666Y-49251190D02*
X399137428Y-49203571D01*
X399137428Y-49203571D02*
X398756476Y-49203571D01*
X399804095Y-48727380D02*
X399994571Y-48727380D01*
X399994571Y-48727380D02*
X400089809Y-48775000D01*
X400089809Y-48775000D02*
X400137428Y-48822619D01*
X400137428Y-48822619D02*
X400232666Y-48965476D01*
X400232666Y-48965476D02*
X400280285Y-49155952D01*
X400280285Y-49155952D02*
X400280285Y-49536904D01*
X400280285Y-49536904D02*
X400232666Y-49632142D01*
X400232666Y-49632142D02*
X400185047Y-49679761D01*
X400185047Y-49679761D02*
X400089809Y-49727380D01*
X400089809Y-49727380D02*
X399899333Y-49727380D01*
X399899333Y-49727380D02*
X399804095Y-49679761D01*
X399804095Y-49679761D02*
X399756476Y-49632142D01*
X399756476Y-49632142D02*
X399708857Y-49536904D01*
X399708857Y-49536904D02*
X399708857Y-49298809D01*
X399708857Y-49298809D02*
X399756476Y-49203571D01*
X399756476Y-49203571D02*
X399804095Y-49155952D01*
X399804095Y-49155952D02*
X399899333Y-49108333D01*
X399899333Y-49108333D02*
X400089809Y-49108333D01*
X400089809Y-49108333D02*
X400185047Y-49155952D01*
X400185047Y-49155952D02*
X400232666Y-49203571D01*
X400232666Y-49203571D02*
X400280285Y-49298809D01*
X401042190Y-49251190D02*
X401185047Y-49203571D01*
X401185047Y-49203571D02*
X401232666Y-49155952D01*
X401232666Y-49155952D02*
X401280285Y-49060714D01*
X401280285Y-49060714D02*
X401280285Y-48917857D01*
X401280285Y-48917857D02*
X401232666Y-48822619D01*
X401232666Y-48822619D02*
X401185047Y-48775000D01*
X401185047Y-48775000D02*
X401089809Y-48727380D01*
X401089809Y-48727380D02*
X400708857Y-48727380D01*
X400708857Y-48727380D02*
X400708857Y-49727380D01*
X400708857Y-49727380D02*
X401042190Y-49727380D01*
X401042190Y-49727380D02*
X401137428Y-49679761D01*
X401137428Y-49679761D02*
X401185047Y-49632142D01*
X401185047Y-49632142D02*
X401232666Y-49536904D01*
X401232666Y-49536904D02*
X401232666Y-49441666D01*
X401232666Y-49441666D02*
X401185047Y-49346428D01*
X401185047Y-49346428D02*
X401137428Y-49298809D01*
X401137428Y-49298809D02*
X401042190Y-49251190D01*
X401042190Y-49251190D02*
X400708857Y-49251190D01*
X402137428Y-49727380D02*
X401946952Y-49727380D01*
X401946952Y-49727380D02*
X401851714Y-49679761D01*
X401851714Y-49679761D02*
X401804095Y-49632142D01*
X401804095Y-49632142D02*
X401708857Y-49489285D01*
X401708857Y-49489285D02*
X401661238Y-49298809D01*
X401661238Y-49298809D02*
X401661238Y-48917857D01*
X401661238Y-48917857D02*
X401708857Y-48822619D01*
X401708857Y-48822619D02*
X401756476Y-48775000D01*
X401756476Y-48775000D02*
X401851714Y-48727380D01*
X401851714Y-48727380D02*
X402042190Y-48727380D01*
X402042190Y-48727380D02*
X402137428Y-48775000D01*
X402137428Y-48775000D02*
X402185047Y-48822619D01*
X402185047Y-48822619D02*
X402232666Y-48917857D01*
X402232666Y-48917857D02*
X402232666Y-49155952D01*
X402232666Y-49155952D02*
X402185047Y-49251190D01*
X402185047Y-49251190D02*
X402137428Y-49298809D01*
X402137428Y-49298809D02*
X402042190Y-49346428D01*
X402042190Y-49346428D02*
X401851714Y-49346428D01*
X401851714Y-49346428D02*
X401756476Y-49298809D01*
X401756476Y-49298809D02*
X401708857Y-49251190D01*
X401708857Y-49251190D02*
X401661238Y-49155952D01*
X402661238Y-48727380D02*
X402661238Y-49727380D01*
X402661238Y-49727380D02*
X402994571Y-49013095D01*
X402994571Y-49013095D02*
X403327904Y-49727380D01*
X403327904Y-49727380D02*
X403327904Y-48727380D01*
X403756476Y-49632142D02*
X403804095Y-49679761D01*
X403804095Y-49679761D02*
X403899333Y-49727380D01*
X403899333Y-49727380D02*
X404137428Y-49727380D01*
X404137428Y-49727380D02*
X404232666Y-49679761D01*
X404232666Y-49679761D02*
X404280285Y-49632142D01*
X404280285Y-49632142D02*
X404327904Y-49536904D01*
X404327904Y-49536904D02*
X404327904Y-49441666D01*
X404327904Y-49441666D02*
X404280285Y-49298809D01*
X404280285Y-49298809D02*
X403708857Y-48727380D01*
X403708857Y-48727380D02*
X404327904Y-48727380D01*
X405327904Y-48727380D02*
X404994571Y-49203571D01*
X404756476Y-48727380D02*
X404756476Y-49727380D01*
X404756476Y-49727380D02*
X405137428Y-49727380D01*
X405137428Y-49727380D02*
X405232666Y-49679761D01*
X405232666Y-49679761D02*
X405280285Y-49632142D01*
X405280285Y-49632142D02*
X405327904Y-49536904D01*
X405327904Y-49536904D02*
X405327904Y-49394047D01*
X405327904Y-49394047D02*
X405280285Y-49298809D01*
X405280285Y-49298809D02*
X405232666Y-49251190D01*
X405232666Y-49251190D02*
X405137428Y-49203571D01*
X405137428Y-49203571D02*
X404756476Y-49203571D01*
X405756476Y-49251190D02*
X406089809Y-49251190D01*
X406232666Y-48727380D02*
X405756476Y-48727380D01*
X405756476Y-48727380D02*
X405756476Y-49727380D01*
X405756476Y-49727380D02*
X406232666Y-49727380D01*
X398248476Y-50299000D02*
X398391333Y-50251380D01*
X398391333Y-50251380D02*
X398629428Y-50251380D01*
X398629428Y-50251380D02*
X398724666Y-50299000D01*
X398724666Y-50299000D02*
X398772285Y-50346619D01*
X398772285Y-50346619D02*
X398819904Y-50441857D01*
X398819904Y-50441857D02*
X398819904Y-50537095D01*
X398819904Y-50537095D02*
X398772285Y-50632333D01*
X398772285Y-50632333D02*
X398724666Y-50679952D01*
X398724666Y-50679952D02*
X398629428Y-50727571D01*
X398629428Y-50727571D02*
X398438952Y-50775190D01*
X398438952Y-50775190D02*
X398343714Y-50822809D01*
X398343714Y-50822809D02*
X398296095Y-50870428D01*
X398296095Y-50870428D02*
X398248476Y-50965666D01*
X398248476Y-50965666D02*
X398248476Y-51060904D01*
X398248476Y-51060904D02*
X398296095Y-51156142D01*
X398296095Y-51156142D02*
X398343714Y-51203761D01*
X398343714Y-51203761D02*
X398438952Y-51251380D01*
X398438952Y-51251380D02*
X398677047Y-51251380D01*
X398677047Y-51251380D02*
X398819904Y-51203761D01*
X399153238Y-51251380D02*
X399391333Y-50251380D01*
X399391333Y-50251380D02*
X399581809Y-50965666D01*
X399581809Y-50965666D02*
X399772285Y-50251380D01*
X399772285Y-50251380D02*
X400010381Y-51251380D01*
X400915142Y-50251380D02*
X400343714Y-50251380D01*
X400629428Y-50251380D02*
X400629428Y-51251380D01*
X400629428Y-51251380D02*
X400534190Y-51108523D01*
X400534190Y-51108523D02*
X400438952Y-51013285D01*
X400438952Y-51013285D02*
X400343714Y-50965666D01*
X401772285Y-51251380D02*
X401581809Y-51251380D01*
X401581809Y-51251380D02*
X401486571Y-51203761D01*
X401486571Y-51203761D02*
X401438952Y-51156142D01*
X401438952Y-51156142D02*
X401343714Y-51013285D01*
X401343714Y-51013285D02*
X401296095Y-50822809D01*
X401296095Y-50822809D02*
X401296095Y-50441857D01*
X401296095Y-50441857D02*
X401343714Y-50346619D01*
X401343714Y-50346619D02*
X401391333Y-50299000D01*
X401391333Y-50299000D02*
X401486571Y-50251380D01*
X401486571Y-50251380D02*
X401677047Y-50251380D01*
X401677047Y-50251380D02*
X401772285Y-50299000D01*
X401772285Y-50299000D02*
X401819904Y-50346619D01*
X401819904Y-50346619D02*
X401867523Y-50441857D01*
X401867523Y-50441857D02*
X401867523Y-50679952D01*
X401867523Y-50679952D02*
X401819904Y-50775190D01*
X401819904Y-50775190D02*
X401772285Y-50822809D01*
X401772285Y-50822809D02*
X401677047Y-50870428D01*
X401677047Y-50870428D02*
X401486571Y-50870428D01*
X401486571Y-50870428D02*
X401391333Y-50822809D01*
X401391333Y-50822809D02*
X401343714Y-50775190D01*
X401343714Y-50775190D02*
X401296095Y-50679952D01*
%TO.C,U1*%
X278256000Y-50034524D02*
X278303619Y-50177381D01*
X278303619Y-50177381D02*
X278303619Y-50415476D01*
X278303619Y-50415476D02*
X278256000Y-50510714D01*
X278256000Y-50510714D02*
X278208380Y-50558333D01*
X278208380Y-50558333D02*
X278113142Y-50605952D01*
X278113142Y-50605952D02*
X278017904Y-50605952D01*
X278017904Y-50605952D02*
X277922666Y-50558333D01*
X277922666Y-50558333D02*
X277875047Y-50510714D01*
X277875047Y-50510714D02*
X277827428Y-50415476D01*
X277827428Y-50415476D02*
X277779809Y-50225000D01*
X277779809Y-50225000D02*
X277732190Y-50129762D01*
X277732190Y-50129762D02*
X277684571Y-50082143D01*
X277684571Y-50082143D02*
X277589333Y-50034524D01*
X277589333Y-50034524D02*
X277494095Y-50034524D01*
X277494095Y-50034524D02*
X277398857Y-50082143D01*
X277398857Y-50082143D02*
X277351238Y-50129762D01*
X277351238Y-50129762D02*
X277303619Y-50225000D01*
X277303619Y-50225000D02*
X277303619Y-50463095D01*
X277303619Y-50463095D02*
X277351238Y-50605952D01*
X278208380Y-51605952D02*
X278256000Y-51558333D01*
X278256000Y-51558333D02*
X278303619Y-51415476D01*
X278303619Y-51415476D02*
X278303619Y-51320238D01*
X278303619Y-51320238D02*
X278256000Y-51177381D01*
X278256000Y-51177381D02*
X278160761Y-51082143D01*
X278160761Y-51082143D02*
X278065523Y-51034524D01*
X278065523Y-51034524D02*
X277875047Y-50986905D01*
X277875047Y-50986905D02*
X277732190Y-50986905D01*
X277732190Y-50986905D02*
X277541714Y-51034524D01*
X277541714Y-51034524D02*
X277446476Y-51082143D01*
X277446476Y-51082143D02*
X277351238Y-51177381D01*
X277351238Y-51177381D02*
X277303619Y-51320238D01*
X277303619Y-51320238D02*
X277303619Y-51415476D01*
X277303619Y-51415476D02*
X277351238Y-51558333D01*
X277351238Y-51558333D02*
X277398857Y-51605952D01*
X277303619Y-52225000D02*
X277303619Y-52320238D01*
X277303619Y-52320238D02*
X277351238Y-52415476D01*
X277351238Y-52415476D02*
X277398857Y-52463095D01*
X277398857Y-52463095D02*
X277494095Y-52510714D01*
X277494095Y-52510714D02*
X277684571Y-52558333D01*
X277684571Y-52558333D02*
X277922666Y-52558333D01*
X277922666Y-52558333D02*
X278113142Y-52510714D01*
X278113142Y-52510714D02*
X278208380Y-52463095D01*
X278208380Y-52463095D02*
X278256000Y-52415476D01*
X278256000Y-52415476D02*
X278303619Y-52320238D01*
X278303619Y-52320238D02*
X278303619Y-52225000D01*
X278303619Y-52225000D02*
X278256000Y-52129762D01*
X278256000Y-52129762D02*
X278208380Y-52082143D01*
X278208380Y-52082143D02*
X278113142Y-52034524D01*
X278113142Y-52034524D02*
X277922666Y-51986905D01*
X277922666Y-51986905D02*
X277684571Y-51986905D01*
X277684571Y-51986905D02*
X277494095Y-52034524D01*
X277494095Y-52034524D02*
X277398857Y-52082143D01*
X277398857Y-52082143D02*
X277351238Y-52129762D01*
X277351238Y-52129762D02*
X277303619Y-52225000D01*
X278303619Y-53034524D02*
X278303619Y-53225000D01*
X278303619Y-53225000D02*
X278256000Y-53320238D01*
X278256000Y-53320238D02*
X278208380Y-53367857D01*
X278208380Y-53367857D02*
X278065523Y-53463095D01*
X278065523Y-53463095D02*
X277875047Y-53510714D01*
X277875047Y-53510714D02*
X277494095Y-53510714D01*
X277494095Y-53510714D02*
X277398857Y-53463095D01*
X277398857Y-53463095D02*
X277351238Y-53415476D01*
X277351238Y-53415476D02*
X277303619Y-53320238D01*
X277303619Y-53320238D02*
X277303619Y-53129762D01*
X277303619Y-53129762D02*
X277351238Y-53034524D01*
X277351238Y-53034524D02*
X277398857Y-52986905D01*
X277398857Y-52986905D02*
X277494095Y-52939286D01*
X277494095Y-52939286D02*
X277732190Y-52939286D01*
X277732190Y-52939286D02*
X277827428Y-52986905D01*
X277827428Y-52986905D02*
X277875047Y-53034524D01*
X277875047Y-53034524D02*
X277922666Y-53129762D01*
X277922666Y-53129762D02*
X277922666Y-53320238D01*
X277922666Y-53320238D02*
X277875047Y-53415476D01*
X277875047Y-53415476D02*
X277827428Y-53463095D01*
X277827428Y-53463095D02*
X277732190Y-53510714D01*
X278303619Y-54463095D02*
X278303619Y-53891667D01*
X278303619Y-54177381D02*
X277303619Y-54177381D01*
X277303619Y-54177381D02*
X277446476Y-54082143D01*
X277446476Y-54082143D02*
X277541714Y-53986905D01*
X277541714Y-53986905D02*
X277589333Y-53891667D01*
X277303619Y-55367857D02*
X277303619Y-54891667D01*
X277303619Y-54891667D02*
X277779809Y-54844048D01*
X277779809Y-54844048D02*
X277732190Y-54891667D01*
X277732190Y-54891667D02*
X277684571Y-54986905D01*
X277684571Y-54986905D02*
X277684571Y-55225000D01*
X277684571Y-55225000D02*
X277732190Y-55320238D01*
X277732190Y-55320238D02*
X277779809Y-55367857D01*
X277779809Y-55367857D02*
X277875047Y-55415476D01*
X277875047Y-55415476D02*
X278113142Y-55415476D01*
X278113142Y-55415476D02*
X278208380Y-55367857D01*
X278208380Y-55367857D02*
X278256000Y-55320238D01*
X278256000Y-55320238D02*
X278303619Y-55225000D01*
X278303619Y-55225000D02*
X278303619Y-54986905D01*
X278303619Y-54986905D02*
X278256000Y-54891667D01*
X278256000Y-54891667D02*
X278208380Y-54844048D01*
X279462619Y-51963095D02*
X280272142Y-51963095D01*
X280272142Y-51963095D02*
X280367380Y-52010714D01*
X280367380Y-52010714D02*
X280415000Y-52058333D01*
X280415000Y-52058333D02*
X280462619Y-52153571D01*
X280462619Y-52153571D02*
X280462619Y-52344047D01*
X280462619Y-52344047D02*
X280415000Y-52439285D01*
X280415000Y-52439285D02*
X280367380Y-52486904D01*
X280367380Y-52486904D02*
X280272142Y-52534523D01*
X280272142Y-52534523D02*
X279462619Y-52534523D01*
X280462619Y-53534523D02*
X280462619Y-52963095D01*
X280462619Y-53248809D02*
X279462619Y-53248809D01*
X279462619Y-53248809D02*
X279605476Y-53153571D01*
X279605476Y-53153571D02*
X279700714Y-53058333D01*
X279700714Y-53058333D02*
X279748333Y-52963095D01*
%TO.C,U2*%
X347124000Y-50034524D02*
X347171619Y-50177381D01*
X347171619Y-50177381D02*
X347171619Y-50415476D01*
X347171619Y-50415476D02*
X347124000Y-50510714D01*
X347124000Y-50510714D02*
X347076380Y-50558333D01*
X347076380Y-50558333D02*
X346981142Y-50605952D01*
X346981142Y-50605952D02*
X346885904Y-50605952D01*
X346885904Y-50605952D02*
X346790666Y-50558333D01*
X346790666Y-50558333D02*
X346743047Y-50510714D01*
X346743047Y-50510714D02*
X346695428Y-50415476D01*
X346695428Y-50415476D02*
X346647809Y-50225000D01*
X346647809Y-50225000D02*
X346600190Y-50129762D01*
X346600190Y-50129762D02*
X346552571Y-50082143D01*
X346552571Y-50082143D02*
X346457333Y-50034524D01*
X346457333Y-50034524D02*
X346362095Y-50034524D01*
X346362095Y-50034524D02*
X346266857Y-50082143D01*
X346266857Y-50082143D02*
X346219238Y-50129762D01*
X346219238Y-50129762D02*
X346171619Y-50225000D01*
X346171619Y-50225000D02*
X346171619Y-50463095D01*
X346171619Y-50463095D02*
X346219238Y-50605952D01*
X347076380Y-51605952D02*
X347124000Y-51558333D01*
X347124000Y-51558333D02*
X347171619Y-51415476D01*
X347171619Y-51415476D02*
X347171619Y-51320238D01*
X347171619Y-51320238D02*
X347124000Y-51177381D01*
X347124000Y-51177381D02*
X347028761Y-51082143D01*
X347028761Y-51082143D02*
X346933523Y-51034524D01*
X346933523Y-51034524D02*
X346743047Y-50986905D01*
X346743047Y-50986905D02*
X346600190Y-50986905D01*
X346600190Y-50986905D02*
X346409714Y-51034524D01*
X346409714Y-51034524D02*
X346314476Y-51082143D01*
X346314476Y-51082143D02*
X346219238Y-51177381D01*
X346219238Y-51177381D02*
X346171619Y-51320238D01*
X346171619Y-51320238D02*
X346171619Y-51415476D01*
X346171619Y-51415476D02*
X346219238Y-51558333D01*
X346219238Y-51558333D02*
X346266857Y-51605952D01*
X346171619Y-52225000D02*
X346171619Y-52320238D01*
X346171619Y-52320238D02*
X346219238Y-52415476D01*
X346219238Y-52415476D02*
X346266857Y-52463095D01*
X346266857Y-52463095D02*
X346362095Y-52510714D01*
X346362095Y-52510714D02*
X346552571Y-52558333D01*
X346552571Y-52558333D02*
X346790666Y-52558333D01*
X346790666Y-52558333D02*
X346981142Y-52510714D01*
X346981142Y-52510714D02*
X347076380Y-52463095D01*
X347076380Y-52463095D02*
X347124000Y-52415476D01*
X347124000Y-52415476D02*
X347171619Y-52320238D01*
X347171619Y-52320238D02*
X347171619Y-52225000D01*
X347171619Y-52225000D02*
X347124000Y-52129762D01*
X347124000Y-52129762D02*
X347076380Y-52082143D01*
X347076380Y-52082143D02*
X346981142Y-52034524D01*
X346981142Y-52034524D02*
X346790666Y-51986905D01*
X346790666Y-51986905D02*
X346552571Y-51986905D01*
X346552571Y-51986905D02*
X346362095Y-52034524D01*
X346362095Y-52034524D02*
X346266857Y-52082143D01*
X346266857Y-52082143D02*
X346219238Y-52129762D01*
X346219238Y-52129762D02*
X346171619Y-52225000D01*
X347171619Y-53034524D02*
X347171619Y-53225000D01*
X347171619Y-53225000D02*
X347124000Y-53320238D01*
X347124000Y-53320238D02*
X347076380Y-53367857D01*
X347076380Y-53367857D02*
X346933523Y-53463095D01*
X346933523Y-53463095D02*
X346743047Y-53510714D01*
X346743047Y-53510714D02*
X346362095Y-53510714D01*
X346362095Y-53510714D02*
X346266857Y-53463095D01*
X346266857Y-53463095D02*
X346219238Y-53415476D01*
X346219238Y-53415476D02*
X346171619Y-53320238D01*
X346171619Y-53320238D02*
X346171619Y-53129762D01*
X346171619Y-53129762D02*
X346219238Y-53034524D01*
X346219238Y-53034524D02*
X346266857Y-52986905D01*
X346266857Y-52986905D02*
X346362095Y-52939286D01*
X346362095Y-52939286D02*
X346600190Y-52939286D01*
X346600190Y-52939286D02*
X346695428Y-52986905D01*
X346695428Y-52986905D02*
X346743047Y-53034524D01*
X346743047Y-53034524D02*
X346790666Y-53129762D01*
X346790666Y-53129762D02*
X346790666Y-53320238D01*
X346790666Y-53320238D02*
X346743047Y-53415476D01*
X346743047Y-53415476D02*
X346695428Y-53463095D01*
X346695428Y-53463095D02*
X346600190Y-53510714D01*
X347171619Y-54463095D02*
X347171619Y-53891667D01*
X347171619Y-54177381D02*
X346171619Y-54177381D01*
X346171619Y-54177381D02*
X346314476Y-54082143D01*
X346314476Y-54082143D02*
X346409714Y-53986905D01*
X346409714Y-53986905D02*
X346457333Y-53891667D01*
X346171619Y-55367857D02*
X346171619Y-54891667D01*
X346171619Y-54891667D02*
X346647809Y-54844048D01*
X346647809Y-54844048D02*
X346600190Y-54891667D01*
X346600190Y-54891667D02*
X346552571Y-54986905D01*
X346552571Y-54986905D02*
X346552571Y-55225000D01*
X346552571Y-55225000D02*
X346600190Y-55320238D01*
X346600190Y-55320238D02*
X346647809Y-55367857D01*
X346647809Y-55367857D02*
X346743047Y-55415476D01*
X346743047Y-55415476D02*
X346981142Y-55415476D01*
X346981142Y-55415476D02*
X347076380Y-55367857D01*
X347076380Y-55367857D02*
X347124000Y-55320238D01*
X347124000Y-55320238D02*
X347171619Y-55225000D01*
X347171619Y-55225000D02*
X347171619Y-54986905D01*
X347171619Y-54986905D02*
X347124000Y-54891667D01*
X347124000Y-54891667D02*
X347076380Y-54844048D01*
X344012619Y-51963095D02*
X344822142Y-51963095D01*
X344822142Y-51963095D02*
X344917380Y-52010714D01*
X344917380Y-52010714D02*
X344965000Y-52058333D01*
X344965000Y-52058333D02*
X345012619Y-52153571D01*
X345012619Y-52153571D02*
X345012619Y-52344047D01*
X345012619Y-52344047D02*
X344965000Y-52439285D01*
X344965000Y-52439285D02*
X344917380Y-52486904D01*
X344917380Y-52486904D02*
X344822142Y-52534523D01*
X344822142Y-52534523D02*
X344012619Y-52534523D01*
X344107857Y-52963095D02*
X344060238Y-53010714D01*
X344060238Y-53010714D02*
X344012619Y-53105952D01*
X344012619Y-53105952D02*
X344012619Y-53344047D01*
X344012619Y-53344047D02*
X344060238Y-53439285D01*
X344060238Y-53439285D02*
X344107857Y-53486904D01*
X344107857Y-53486904D02*
X344203095Y-53534523D01*
X344203095Y-53534523D02*
X344298333Y-53534523D01*
X344298333Y-53534523D02*
X344441190Y-53486904D01*
X344441190Y-53486904D02*
X345012619Y-52915476D01*
X345012619Y-52915476D02*
X345012619Y-53534523D01*
%TO.C,SW15*%
X230920190Y-56701190D02*
X231015428Y-56653571D01*
X231015428Y-56653571D02*
X231063047Y-56605952D01*
X231063047Y-56605952D02*
X231110666Y-56510714D01*
X231110666Y-56510714D02*
X231110666Y-56463095D01*
X231110666Y-56463095D02*
X231063047Y-56367857D01*
X231063047Y-56367857D02*
X231015428Y-56320238D01*
X231015428Y-56320238D02*
X230920190Y-56272619D01*
X230920190Y-56272619D02*
X230729714Y-56272619D01*
X230729714Y-56272619D02*
X230634476Y-56320238D01*
X230634476Y-56320238D02*
X230586857Y-56367857D01*
X230586857Y-56367857D02*
X230539238Y-56463095D01*
X230539238Y-56463095D02*
X230539238Y-56510714D01*
X230539238Y-56510714D02*
X230586857Y-56605952D01*
X230586857Y-56605952D02*
X230634476Y-56653571D01*
X230634476Y-56653571D02*
X230729714Y-56701190D01*
X230729714Y-56701190D02*
X230920190Y-56701190D01*
X230920190Y-56701190D02*
X231015428Y-56748809D01*
X231015428Y-56748809D02*
X231063047Y-56796428D01*
X231063047Y-56796428D02*
X231110666Y-56891666D01*
X231110666Y-56891666D02*
X231110666Y-57082142D01*
X231110666Y-57082142D02*
X231063047Y-57177380D01*
X231063047Y-57177380D02*
X231015428Y-57225000D01*
X231015428Y-57225000D02*
X230920190Y-57272619D01*
X230920190Y-57272619D02*
X230729714Y-57272619D01*
X230729714Y-57272619D02*
X230634476Y-57225000D01*
X230634476Y-57225000D02*
X230586857Y-57177380D01*
X230586857Y-57177380D02*
X230539238Y-57082142D01*
X230539238Y-57082142D02*
X230539238Y-56891666D01*
X230539238Y-56891666D02*
X230586857Y-56796428D01*
X230586857Y-56796428D02*
X230634476Y-56748809D01*
X230634476Y-56748809D02*
X230729714Y-56701190D01*
X229920190Y-56272619D02*
X229824952Y-56272619D01*
X229824952Y-56272619D02*
X229729714Y-56320238D01*
X229729714Y-56320238D02*
X229682095Y-56367857D01*
X229682095Y-56367857D02*
X229634476Y-56463095D01*
X229634476Y-56463095D02*
X229586857Y-56653571D01*
X229586857Y-56653571D02*
X229586857Y-56891666D01*
X229586857Y-56891666D02*
X229634476Y-57082142D01*
X229634476Y-57082142D02*
X229682095Y-57177380D01*
X229682095Y-57177380D02*
X229729714Y-57225000D01*
X229729714Y-57225000D02*
X229824952Y-57272619D01*
X229824952Y-57272619D02*
X229920190Y-57272619D01*
X229920190Y-57272619D02*
X230015428Y-57225000D01*
X230015428Y-57225000D02*
X230063047Y-57177380D01*
X230063047Y-57177380D02*
X230110666Y-57082142D01*
X230110666Y-57082142D02*
X230158285Y-56891666D01*
X230158285Y-56891666D02*
X230158285Y-56653571D01*
X230158285Y-56653571D02*
X230110666Y-56463095D01*
X230110666Y-56463095D02*
X230063047Y-56367857D01*
X230063047Y-56367857D02*
X230015428Y-56320238D01*
X230015428Y-56320238D02*
X229920190Y-56272619D01*
X228967809Y-56272619D02*
X228872571Y-56272619D01*
X228872571Y-56272619D02*
X228777333Y-56320238D01*
X228777333Y-56320238D02*
X228729714Y-56367857D01*
X228729714Y-56367857D02*
X228682095Y-56463095D01*
X228682095Y-56463095D02*
X228634476Y-56653571D01*
X228634476Y-56653571D02*
X228634476Y-56891666D01*
X228634476Y-56891666D02*
X228682095Y-57082142D01*
X228682095Y-57082142D02*
X228729714Y-57177380D01*
X228729714Y-57177380D02*
X228777333Y-57225000D01*
X228777333Y-57225000D02*
X228872571Y-57272619D01*
X228872571Y-57272619D02*
X228967809Y-57272619D01*
X228967809Y-57272619D02*
X229063047Y-57225000D01*
X229063047Y-57225000D02*
X229110666Y-57177380D01*
X229110666Y-57177380D02*
X229158285Y-57082142D01*
X229158285Y-57082142D02*
X229205904Y-56891666D01*
X229205904Y-56891666D02*
X229205904Y-56653571D01*
X229205904Y-56653571D02*
X229158285Y-56463095D01*
X229158285Y-56463095D02*
X229110666Y-56367857D01*
X229110666Y-56367857D02*
X229063047Y-56320238D01*
X229063047Y-56320238D02*
X228967809Y-56272619D01*
X228253523Y-57225000D02*
X228110666Y-57272619D01*
X228110666Y-57272619D02*
X227872571Y-57272619D01*
X227872571Y-57272619D02*
X227777333Y-57225000D01*
X227777333Y-57225000D02*
X227729714Y-57177380D01*
X227729714Y-57177380D02*
X227682095Y-57082142D01*
X227682095Y-57082142D02*
X227682095Y-56986904D01*
X227682095Y-56986904D02*
X227729714Y-56891666D01*
X227729714Y-56891666D02*
X227777333Y-56844047D01*
X227777333Y-56844047D02*
X227872571Y-56796428D01*
X227872571Y-56796428D02*
X228063047Y-56748809D01*
X228063047Y-56748809D02*
X228158285Y-56701190D01*
X228158285Y-56701190D02*
X228205904Y-56653571D01*
X228205904Y-56653571D02*
X228253523Y-56558333D01*
X228253523Y-56558333D02*
X228253523Y-56463095D01*
X228253523Y-56463095D02*
X228205904Y-56367857D01*
X228205904Y-56367857D02*
X228158285Y-56320238D01*
X228158285Y-56320238D02*
X228063047Y-56272619D01*
X228063047Y-56272619D02*
X227824952Y-56272619D01*
X227824952Y-56272619D02*
X227682095Y-56320238D01*
X227253523Y-57272619D02*
X227253523Y-56272619D01*
X227253523Y-56272619D02*
X226872571Y-56272619D01*
X226872571Y-56272619D02*
X226777333Y-56320238D01*
X226777333Y-56320238D02*
X226729714Y-56367857D01*
X226729714Y-56367857D02*
X226682095Y-56463095D01*
X226682095Y-56463095D02*
X226682095Y-56605952D01*
X226682095Y-56605952D02*
X226729714Y-56701190D01*
X226729714Y-56701190D02*
X226777333Y-56748809D01*
X226777333Y-56748809D02*
X226872571Y-56796428D01*
X226872571Y-56796428D02*
X227253523Y-56796428D01*
X226205904Y-57272619D02*
X226015428Y-57272619D01*
X226015428Y-57272619D02*
X225920190Y-57225000D01*
X225920190Y-57225000D02*
X225872571Y-57177380D01*
X225872571Y-57177380D02*
X225777333Y-57034523D01*
X225777333Y-57034523D02*
X225729714Y-56844047D01*
X225729714Y-56844047D02*
X225729714Y-56463095D01*
X225729714Y-56463095D02*
X225777333Y-56367857D01*
X225777333Y-56367857D02*
X225824952Y-56320238D01*
X225824952Y-56320238D02*
X225920190Y-56272619D01*
X225920190Y-56272619D02*
X226110666Y-56272619D01*
X226110666Y-56272619D02*
X226205904Y-56320238D01*
X226205904Y-56320238D02*
X226253523Y-56367857D01*
X226253523Y-56367857D02*
X226301142Y-56463095D01*
X226301142Y-56463095D02*
X226301142Y-56701190D01*
X226301142Y-56701190D02*
X226253523Y-56796428D01*
X226253523Y-56796428D02*
X226205904Y-56844047D01*
X226205904Y-56844047D02*
X226110666Y-56891666D01*
X226110666Y-56891666D02*
X225920190Y-56891666D01*
X225920190Y-56891666D02*
X225824952Y-56844047D01*
X225824952Y-56844047D02*
X225777333Y-56796428D01*
X225777333Y-56796428D02*
X225729714Y-56701190D01*
X224967809Y-56748809D02*
X224824952Y-56796428D01*
X224824952Y-56796428D02*
X224777333Y-56844047D01*
X224777333Y-56844047D02*
X224729714Y-56939285D01*
X224729714Y-56939285D02*
X224729714Y-57082142D01*
X224729714Y-57082142D02*
X224777333Y-57177380D01*
X224777333Y-57177380D02*
X224824952Y-57225000D01*
X224824952Y-57225000D02*
X224920190Y-57272619D01*
X224920190Y-57272619D02*
X225301142Y-57272619D01*
X225301142Y-57272619D02*
X225301142Y-56272619D01*
X225301142Y-56272619D02*
X224967809Y-56272619D01*
X224967809Y-56272619D02*
X224872571Y-56320238D01*
X224872571Y-56320238D02*
X224824952Y-56367857D01*
X224824952Y-56367857D02*
X224777333Y-56463095D01*
X224777333Y-56463095D02*
X224777333Y-56558333D01*
X224777333Y-56558333D02*
X224824952Y-56653571D01*
X224824952Y-56653571D02*
X224872571Y-56701190D01*
X224872571Y-56701190D02*
X224967809Y-56748809D01*
X224967809Y-56748809D02*
X225301142Y-56748809D01*
X223872571Y-56272619D02*
X224063047Y-56272619D01*
X224063047Y-56272619D02*
X224158285Y-56320238D01*
X224158285Y-56320238D02*
X224205904Y-56367857D01*
X224205904Y-56367857D02*
X224301142Y-56510714D01*
X224301142Y-56510714D02*
X224348761Y-56701190D01*
X224348761Y-56701190D02*
X224348761Y-57082142D01*
X224348761Y-57082142D02*
X224301142Y-57177380D01*
X224301142Y-57177380D02*
X224253523Y-57225000D01*
X224253523Y-57225000D02*
X224158285Y-57272619D01*
X224158285Y-57272619D02*
X223967809Y-57272619D01*
X223967809Y-57272619D02*
X223872571Y-57225000D01*
X223872571Y-57225000D02*
X223824952Y-57177380D01*
X223824952Y-57177380D02*
X223777333Y-57082142D01*
X223777333Y-57082142D02*
X223777333Y-56844047D01*
X223777333Y-56844047D02*
X223824952Y-56748809D01*
X223824952Y-56748809D02*
X223872571Y-56701190D01*
X223872571Y-56701190D02*
X223967809Y-56653571D01*
X223967809Y-56653571D02*
X224158285Y-56653571D01*
X224158285Y-56653571D02*
X224253523Y-56701190D01*
X224253523Y-56701190D02*
X224301142Y-56748809D01*
X224301142Y-56748809D02*
X224348761Y-56844047D01*
X223348761Y-57272619D02*
X223348761Y-56272619D01*
X223348761Y-56272619D02*
X223015428Y-56986904D01*
X223015428Y-56986904D02*
X222682095Y-56272619D01*
X222682095Y-56272619D02*
X222682095Y-57272619D01*
X222253523Y-56367857D02*
X222205904Y-56320238D01*
X222205904Y-56320238D02*
X222110666Y-56272619D01*
X222110666Y-56272619D02*
X221872571Y-56272619D01*
X221872571Y-56272619D02*
X221777333Y-56320238D01*
X221777333Y-56320238D02*
X221729714Y-56367857D01*
X221729714Y-56367857D02*
X221682095Y-56463095D01*
X221682095Y-56463095D02*
X221682095Y-56558333D01*
X221682095Y-56558333D02*
X221729714Y-56701190D01*
X221729714Y-56701190D02*
X222301142Y-57272619D01*
X222301142Y-57272619D02*
X221682095Y-57272619D01*
X220682095Y-57272619D02*
X221015428Y-56796428D01*
X221253523Y-57272619D02*
X221253523Y-56272619D01*
X221253523Y-56272619D02*
X220872571Y-56272619D01*
X220872571Y-56272619D02*
X220777333Y-56320238D01*
X220777333Y-56320238D02*
X220729714Y-56367857D01*
X220729714Y-56367857D02*
X220682095Y-56463095D01*
X220682095Y-56463095D02*
X220682095Y-56605952D01*
X220682095Y-56605952D02*
X220729714Y-56701190D01*
X220729714Y-56701190D02*
X220777333Y-56748809D01*
X220777333Y-56748809D02*
X220872571Y-56796428D01*
X220872571Y-56796428D02*
X221253523Y-56796428D01*
X220253523Y-56748809D02*
X219920190Y-56748809D01*
X219777333Y-57272619D02*
X220253523Y-57272619D01*
X220253523Y-57272619D02*
X220253523Y-56272619D01*
X220253523Y-56272619D02*
X219777333Y-56272619D01*
X227761523Y-55701000D02*
X227618666Y-55748619D01*
X227618666Y-55748619D02*
X227380571Y-55748619D01*
X227380571Y-55748619D02*
X227285333Y-55701000D01*
X227285333Y-55701000D02*
X227237714Y-55653380D01*
X227237714Y-55653380D02*
X227190095Y-55558142D01*
X227190095Y-55558142D02*
X227190095Y-55462904D01*
X227190095Y-55462904D02*
X227237714Y-55367666D01*
X227237714Y-55367666D02*
X227285333Y-55320047D01*
X227285333Y-55320047D02*
X227380571Y-55272428D01*
X227380571Y-55272428D02*
X227571047Y-55224809D01*
X227571047Y-55224809D02*
X227666285Y-55177190D01*
X227666285Y-55177190D02*
X227713904Y-55129571D01*
X227713904Y-55129571D02*
X227761523Y-55034333D01*
X227761523Y-55034333D02*
X227761523Y-54939095D01*
X227761523Y-54939095D02*
X227713904Y-54843857D01*
X227713904Y-54843857D02*
X227666285Y-54796238D01*
X227666285Y-54796238D02*
X227571047Y-54748619D01*
X227571047Y-54748619D02*
X227332952Y-54748619D01*
X227332952Y-54748619D02*
X227190095Y-54796238D01*
X226856761Y-54748619D02*
X226618666Y-55748619D01*
X226618666Y-55748619D02*
X226428190Y-55034333D01*
X226428190Y-55034333D02*
X226237714Y-55748619D01*
X226237714Y-55748619D02*
X225999619Y-54748619D01*
X225094857Y-55748619D02*
X225666285Y-55748619D01*
X225380571Y-55748619D02*
X225380571Y-54748619D01*
X225380571Y-54748619D02*
X225475809Y-54891476D01*
X225475809Y-54891476D02*
X225571047Y-54986714D01*
X225571047Y-54986714D02*
X225666285Y-55034333D01*
X224190095Y-54748619D02*
X224666285Y-54748619D01*
X224666285Y-54748619D02*
X224713904Y-55224809D01*
X224713904Y-55224809D02*
X224666285Y-55177190D01*
X224666285Y-55177190D02*
X224571047Y-55129571D01*
X224571047Y-55129571D02*
X224332952Y-55129571D01*
X224332952Y-55129571D02*
X224237714Y-55177190D01*
X224237714Y-55177190D02*
X224190095Y-55224809D01*
X224190095Y-55224809D02*
X224142476Y-55320047D01*
X224142476Y-55320047D02*
X224142476Y-55558142D01*
X224142476Y-55558142D02*
X224190095Y-55653380D01*
X224190095Y-55653380D02*
X224237714Y-55701000D01*
X224237714Y-55701000D02*
X224332952Y-55748619D01*
X224332952Y-55748619D02*
X224571047Y-55748619D01*
X224571047Y-55748619D02*
X224666285Y-55701000D01*
X224666285Y-55701000D02*
X224713904Y-55653380D01*
D11*
%TO.C,J2*%
X315575000Y-97450000D02*
X327575000Y-97450000D01*
X327575000Y-97450000D02*
X327575000Y-86650000D01*
X327575000Y-86650000D02*
X315575000Y-86650000D01*
X315575000Y-86650000D02*
X315575000Y-89250000D01*
X315575000Y-89250000D02*
X315575000Y-95250000D01*
X315575000Y-95250000D02*
X315575000Y-97450000D01*
X315575000Y-95250000D02*
X312575000Y-95250000D01*
X315575000Y-89250000D02*
X312575000Y-89250000D01*
X312575000Y-95250000D02*
X312575000Y-89250000D01*
%TO.C,J1*%
X309070000Y-87030000D02*
X297070000Y-87030000D01*
X297070000Y-87030000D02*
X297070000Y-97830000D01*
X297070000Y-97830000D02*
X309070000Y-97830000D01*
X309070000Y-97830000D02*
X309070000Y-95230000D01*
X309070000Y-95230000D02*
X309070000Y-89230000D01*
X309070000Y-89230000D02*
X309070000Y-87030000D01*
X309070000Y-89230000D02*
X312070000Y-89230000D01*
X309070000Y-95230000D02*
X312070000Y-95230000D01*
X312070000Y-89230000D02*
X312070000Y-95230000D01*
D12*
%TO.C,U1*%
X254500000Y-63225000D02*
X305500000Y-63225000D01*
X304200000Y-63225000D02*
X305500000Y-61925000D01*
X305500000Y-63225000D02*
X305500000Y-42225000D01*
X254500000Y-42225000D02*
X254500000Y-63225000D01*
X305500000Y-42225000D02*
X254500000Y-42225000D01*
%TO.C,U2*%
X370050000Y-42225000D02*
X319050000Y-42225000D01*
X320350000Y-42225000D02*
X319050000Y-43525000D01*
X319050000Y-42225000D02*
X319050000Y-63225000D01*
X370050000Y-63225000D02*
X370050000Y-42225000D01*
X319050000Y-63225000D02*
X370050000Y-63225000D01*
%TD*%
M02*
