%TF.GenerationSoftware,KiCad,Pcbnew,7.0.1-3b83917a11~172~ubuntu22.04.1*%
%TF.CreationDate,2023-03-31T12:58:08+02:00*%
%TF.ProjectId,Europe-ergo,4575726f-7065-42d6-9572-676f2e6b6963,rev?*%
%TF.SameCoordinates,Original*%
%TF.FileFunction,Other,User*%
%FSLAX46Y46*%
G04 Gerber Fmt 4.6, Leading zero omitted, Abs format (unit mm)*
G04 Created by KiCad (PCBNEW 7.0.1-3b83917a11~172~ubuntu22.04.1) date 2023-03-31 12:58:08*
%MOMM*%
%LPD*%
G01*
G04 APERTURE LIST*
%ADD10C,0.050000*%
%ADD11C,0.120000*%
G04 APERTURE END LIST*
D10*
%TO.C,J2*%
X316575000Y-97750000D02*
X316575000Y-98150000D01*
X316575000Y-98150000D02*
X319325000Y-98150000D01*
X319325000Y-98150000D02*
X319325000Y-97750000D01*
X319325000Y-97750000D02*
X327825000Y-97750000D01*
X327825000Y-97750000D02*
X327825000Y-86500000D01*
X327825000Y-86500000D02*
X321825000Y-86500000D01*
X321825000Y-86500000D02*
X321825000Y-85950000D01*
X321825000Y-85950000D02*
X319325000Y-85950000D01*
X319325000Y-85950000D02*
X319325000Y-86500000D01*
X319325000Y-86500000D02*
X315325000Y-86500000D01*
X315325000Y-86500000D02*
X315325000Y-89000000D01*
X315325000Y-89000000D02*
X312325000Y-89000000D01*
X312325000Y-89000000D02*
X312325000Y-95500000D01*
X312325000Y-95500000D02*
X315325000Y-95500000D01*
X315325000Y-95500000D02*
X315325000Y-97750000D01*
X315325000Y-97750000D02*
X316575000Y-97750000D01*
%TO.C,J1*%
X308070000Y-86730000D02*
X308070000Y-86330000D01*
X308070000Y-86330000D02*
X305320000Y-86330000D01*
X305320000Y-86330000D02*
X305320000Y-86730000D01*
X305320000Y-86730000D02*
X296820000Y-86730000D01*
X296820000Y-86730000D02*
X296820000Y-97980000D01*
X296820000Y-97980000D02*
X302820000Y-97980000D01*
X302820000Y-97980000D02*
X302820000Y-98530000D01*
X302820000Y-98530000D02*
X305320000Y-98530000D01*
X305320000Y-98530000D02*
X305320000Y-97980000D01*
X305320000Y-97980000D02*
X309320000Y-97980000D01*
X309320000Y-97980000D02*
X309320000Y-95480000D01*
X309320000Y-95480000D02*
X312320000Y-95480000D01*
X312320000Y-95480000D02*
X312320000Y-88980000D01*
X312320000Y-88980000D02*
X309320000Y-88980000D01*
X309320000Y-88980000D02*
X309320000Y-86730000D01*
X309320000Y-86730000D02*
X308070000Y-86730000D01*
%TO.C,SW16*%
X403360000Y-51730000D02*
X395740000Y-51730000D01*
X395740000Y-51730000D02*
X395740000Y-54270000D01*
X395740000Y-54270000D02*
X403360000Y-54270000D01*
X403360000Y-54270000D02*
X403360000Y-51730000D01*
D11*
%TO.C,U1*%
X254000000Y-63725000D02*
X306000000Y-63725000D01*
X306000000Y-63725000D02*
X306000000Y-41725000D01*
X254000000Y-41725000D02*
X254000000Y-63725000D01*
X306000000Y-41725000D02*
X254000000Y-41725000D01*
%TO.C,U2*%
X370550000Y-41725000D02*
X318550000Y-41725000D01*
X318550000Y-41725000D02*
X318550000Y-63725000D01*
X370550000Y-63725000D02*
X370550000Y-41725000D01*
X318550000Y-63725000D02*
X370550000Y-63725000D01*
D10*
%TO.C,SW15*%
X222650000Y-54270000D02*
X230270000Y-54270000D01*
X230270000Y-54270000D02*
X230270000Y-51730000D01*
X230270000Y-51730000D02*
X222650000Y-51730000D01*
X222650000Y-51730000D02*
X222650000Y-54270000D01*
%TD*%
M02*
