%TF.GenerationSoftware,KiCad,Pcbnew,6.0.9-8da3e8f707~117~ubuntu20.04.1*%
%TF.CreationDate,2022-12-05T03:41:19+01:00*%
%TF.ProjectId,Europe-ergo,4575726f-7065-42d6-9572-676f2e6b6963,rev?*%
%TF.SameCoordinates,Original*%
%TF.FileFunction,Profile,NP*%
%FSLAX46Y46*%
G04 Gerber Fmt 4.6, Leading zero omitted, Abs format (unit mm)*
G04 Created by KiCad (PCBNEW 6.0.9-8da3e8f707~117~ubuntu20.04.1) date 2022-12-05 03:41:19*
%MOMM*%
%LPD*%
G01*
G04 APERTURE LIST*
%TA.AperFunction,Profile*%
%ADD10C,0.100000*%
%TD*%
%TA.AperFunction,Profile*%
%ADD11C,0.120000*%
%TD*%
G04 APERTURE END LIST*
D10*
X308500000Y-116500000D02*
X309000000Y-263000000D01*
X308500000Y-116500000D02*
X313000000Y-116500000D01*
X312500000Y-27000000D02*
X312540000Y-84000000D01*
X85000000Y-27000000D02*
X308500000Y-27000000D01*
X532000000Y-263000000D02*
X532000000Y-27000000D01*
X308500000Y-110000000D02*
X312500000Y-110000000D01*
X85000000Y-263000000D02*
X85000000Y-27000000D01*
X532000000Y-27000000D02*
X312500000Y-27000000D01*
X313000000Y-116500000D02*
X313000000Y-263000000D01*
X312500000Y-110000000D02*
X312540000Y-97000000D01*
X313000000Y-263000000D02*
X532000000Y-263000000D01*
X308500000Y-27000000D02*
X308540000Y-84000000D01*
X308540000Y-97000000D02*
X308500000Y-110000000D01*
X309000000Y-263000000D02*
X85000000Y-263000000D01*
D11*
%TO.C,J1*%
X313940000Y-88700000D02*
X313940000Y-92300000D01*
X313540000Y-92700000D02*
X312540000Y-92700000D01*
X312540000Y-92700000D02*
X312540000Y-97000000D01*
X313540000Y-88300000D02*
X312540000Y-88300000D01*
X312540000Y-88300000D02*
X312540000Y-84000000D01*
X313540000Y-92700000D02*
G75*
G03*
X313940000Y-92300000I-2J400002D01*
G01*
X313940000Y-88700000D02*
G75*
G03*
X313540000Y-88300000I-400000J0D01*
G01*
%TO.C,J2*%
X308540000Y-88300000D02*
X308540000Y-84000000D01*
X308540000Y-92700000D02*
X308540000Y-97000000D01*
X307540000Y-88300000D02*
X308540000Y-88300000D01*
X307140000Y-92300000D02*
X307140000Y-88700000D01*
X307540000Y-92700000D02*
X308540000Y-92700000D01*
X307140000Y-92300000D02*
G75*
G03*
X307540000Y-92700000I400000J0D01*
G01*
X307540000Y-88300000D02*
G75*
G03*
X307140000Y-88700000I2J-400002D01*
G01*
%TD*%
M02*
