%TF.GenerationSoftware,KiCad,Pcbnew,6.0.9-8da3e8f707~117~ubuntu20.04.1*%
%TF.CreationDate,2022-12-05T03:41:19+01:00*%
%TF.ProjectId,Europe-ergo,4575726f-7065-42d6-9572-676f2e6b6963,rev?*%
%TF.SameCoordinates,Original*%
%TF.FileFunction,Legend,Bot*%
%TF.FilePolarity,Positive*%
%FSLAX46Y46*%
G04 Gerber Fmt 4.6, Leading zero omitted, Abs format (unit mm)*
G04 Created by KiCad (PCBNEW 6.0.9-8da3e8f707~117~ubuntu20.04.1) date 2022-12-05 03:41:19*
%MOMM*%
%LPD*%
G01*
G04 APERTURE LIST*
%ADD10C,0.150000*%
%ADD11C,0.120000*%
%ADD12R,1.600000X1.600000*%
%ADD13O,1.600000X1.600000*%
%ADD14C,7.500000*%
%ADD15C,1.700000*%
%ADD16C,4.000000*%
%ADD17C,2.200000*%
%ADD18R,1.500000X1.500000*%
%ADD19O,1.500000X1.500000*%
%ADD20C,1.400000*%
%ADD21O,1.400000X1.400000*%
%ADD22R,1.800000X1.800000*%
%ADD23O,1.800000X1.800000*%
%ADD24O,1.700000X1.700000*%
%ADD25R,1.700000X1.700000*%
%ADD26C,1.200000*%
G04 APERTURE END LIST*
D10*
%TO.C,J1*%
X326906380Y-90166666D02*
X327620666Y-90166666D01*
X327763523Y-90119047D01*
X327858761Y-90023809D01*
X327906380Y-89880952D01*
X327906380Y-89785714D01*
X327906380Y-91166666D02*
X327906380Y-90595238D01*
X327906380Y-90880952D02*
X326906380Y-90880952D01*
X327049238Y-90785714D01*
X327144476Y-90690476D01*
X327192095Y-90595238D01*
%TO.C,J2*%
X293078380Y-90166666D02*
X293792666Y-90166666D01*
X293935523Y-90119047D01*
X294030761Y-90023809D01*
X294078380Y-89880952D01*
X294078380Y-89785714D01*
X293173619Y-90595238D02*
X293126000Y-90642857D01*
X293078380Y-90738095D01*
X293078380Y-90976190D01*
X293126000Y-91071428D01*
X293173619Y-91119047D01*
X293268857Y-91166666D01*
X293364095Y-91166666D01*
X293506952Y-91119047D01*
X294078380Y-90547619D01*
X294078380Y-91166666D01*
D11*
%TO.C,J1*%
X312540000Y-86000000D02*
X312540000Y-87500000D01*
X312540000Y-93500000D02*
X312540000Y-95000000D01*
X313740000Y-96500000D02*
X326184000Y-96500000D01*
X312540000Y-95000000D02*
X313740000Y-95000000D01*
X310740000Y-88500000D02*
X313740000Y-88500000D01*
X326184000Y-84500000D02*
X313740000Y-84500000D01*
X313740000Y-86000000D02*
X312540000Y-86000000D01*
X310740000Y-93500000D02*
X312540000Y-93500000D01*
X313740000Y-95000000D02*
X313740000Y-96500000D01*
X310740000Y-87500000D02*
X310740000Y-93500000D01*
X313740000Y-88500000D02*
X313740000Y-92500000D01*
X326184000Y-96500000D02*
X326184000Y-84500000D01*
X313740000Y-92500000D02*
X310740000Y-92500000D01*
X312540000Y-87500000D02*
X310740000Y-87500000D01*
X313740000Y-84500000D02*
X313740000Y-86000000D01*
%TO.C,J2*%
X310340000Y-92500000D02*
X307340000Y-92500000D01*
X308540000Y-86000000D02*
X307340000Y-86000000D01*
X310340000Y-87500000D02*
X308540000Y-87500000D01*
X307340000Y-84500000D02*
X294896000Y-84500000D01*
X294896000Y-84500000D02*
X294896000Y-96500000D01*
X308540000Y-87500000D02*
X308540000Y-86000000D01*
X307340000Y-86000000D02*
X307340000Y-84500000D01*
X310340000Y-93500000D02*
X310340000Y-87500000D01*
X307340000Y-92500000D02*
X307340000Y-88500000D01*
X307340000Y-95000000D02*
X308540000Y-95000000D01*
X307340000Y-88500000D02*
X310340000Y-88500000D01*
X294896000Y-96500000D02*
X307340000Y-96500000D01*
X307340000Y-96500000D02*
X307340000Y-95000000D01*
X308540000Y-93500000D02*
X310340000Y-93500000D01*
X308540000Y-95000000D02*
X308540000Y-93500000D01*
%TD*%
%LPC*%
D12*
%TO.C,D23*%
X431000000Y-181000000D03*
D13*
X438620000Y-181000000D03*
%TD*%
D12*
%TO.C,D91*%
X136000000Y-212000000D03*
D13*
X143620000Y-212000000D03*
%TD*%
D12*
%TO.C,D61*%
X267380000Y-216000000D03*
D13*
X275000000Y-216000000D03*
%TD*%
D14*
%TO.C,H15*%
X302750000Y-32600000D03*
%TD*%
D12*
%TO.C,D90*%
X165000000Y-88000000D03*
D13*
X172620000Y-88000000D03*
%TD*%
D12*
%TO.C,D79*%
X183380000Y-111000000D03*
D13*
X191000000Y-111000000D03*
%TD*%
D15*
%TO.C,SW43*%
X338900000Y-142780000D03*
D16*
X338900000Y-137700000D03*
D15*
X338900000Y-132620000D03*
D17*
X333820000Y-135160000D03*
X336360000Y-141510000D03*
%TD*%
D16*
%TO.C,SW89*%
X140000000Y-177900000D03*
D15*
X145080000Y-177900000D03*
X134920000Y-177900000D03*
D17*
X142540000Y-172820000D03*
X136190000Y-175360000D03*
%TD*%
D16*
%TO.C,SW3*%
X510380000Y-130540000D03*
D15*
X505300000Y-130540000D03*
X515460000Y-130540000D03*
D17*
X512920000Y-125460000D03*
X506570000Y-128000000D03*
%TD*%
D12*
%TO.C,D44*%
X350000000Y-215000000D03*
D13*
X357620000Y-215000000D03*
%TD*%
D12*
%TO.C,D47*%
X329000000Y-227000000D03*
D13*
X336620000Y-227000000D03*
%TD*%
D14*
%TO.C,H3*%
X526300000Y-32600000D03*
%TD*%
D18*
%TO.C,D51*%
X509180000Y-50440000D03*
D19*
X511720000Y-50440000D03*
%TD*%
D15*
%TO.C,SW21*%
X439360000Y-123540000D03*
D16*
X434280000Y-123540000D03*
D15*
X429200000Y-123540000D03*
D17*
X436820000Y-118460000D03*
X430470000Y-121000000D03*
%TD*%
D15*
%TO.C,SW28*%
X415360000Y-173440000D03*
D16*
X410280000Y-173440000D03*
D15*
X405200000Y-173440000D03*
D17*
X412820000Y-168360000D03*
X406470000Y-170900000D03*
%TD*%
D12*
%TO.C,D26*%
X407000000Y-136000000D03*
D13*
X414620000Y-136000000D03*
%TD*%
D12*
%TO.C,D95*%
X136000000Y-188000000D03*
D13*
X143620000Y-188000000D03*
%TD*%
D15*
%TO.C,SW80*%
X158720000Y-197100000D03*
X168880000Y-197100000D03*
D16*
X163800000Y-197100000D03*
D17*
X166340000Y-192020000D03*
X159990000Y-194560000D03*
%TD*%
D12*
%TO.C,D43*%
X336000000Y-148000000D03*
D13*
X343620000Y-148000000D03*
%TD*%
D15*
%TO.C,SW5*%
X505200000Y-154440000D03*
X515360000Y-154440000D03*
D16*
X510280000Y-154440000D03*
D17*
X512820000Y-149360000D03*
X506470000Y-151900000D03*
%TD*%
D20*
%TO.C,R10*%
X136920000Y-56000000D03*
D21*
X142000000Y-56000000D03*
%TD*%
D16*
%TO.C,SW9*%
X481880000Y-130640000D03*
D15*
X486960000Y-130640000D03*
X476800000Y-130640000D03*
D17*
X484420000Y-125560000D03*
X478070000Y-128100000D03*
%TD*%
D14*
%TO.C,H11*%
X92100000Y-255900000D03*
%TD*%
D15*
%TO.C,SW35*%
X382919405Y-211220009D03*
X374120586Y-216300009D03*
D16*
X378519995Y-213760009D03*
D17*
X378179700Y-208090600D03*
X373950439Y-213465305D03*
%TD*%
D16*
%TO.C,SW34*%
X386580000Y-175540000D03*
D15*
X381500000Y-175540000D03*
X391660000Y-175540000D03*
D17*
X389120000Y-170460000D03*
X382770000Y-173000000D03*
%TD*%
D14*
%TO.C,H9*%
X92200000Y-34100000D03*
%TD*%
D20*
%TO.C,R11*%
X298460000Y-82500000D03*
D21*
X303540000Y-82500000D03*
%TD*%
D16*
%TO.C,SW53*%
X282820000Y-137460000D03*
D15*
X282820000Y-132380000D03*
X282820000Y-142540000D03*
D17*
X277740000Y-134920000D03*
X280280000Y-141270000D03*
%TD*%
D12*
%TO.C,D93*%
X136000000Y-142000000D03*
D13*
X143620000Y-142000000D03*
%TD*%
D15*
%TO.C,SW11*%
X476500000Y-154340000D03*
D16*
X481580000Y-154340000D03*
D15*
X486660000Y-154340000D03*
D17*
X484120000Y-149260000D03*
X477770000Y-151800000D03*
%TD*%
D20*
%TO.C,R8*%
X171000000Y-56000000D03*
D21*
X165920000Y-56000000D03*
%TD*%
D12*
%TO.C,D88*%
X160190000Y-138000000D03*
D13*
X167810000Y-138000000D03*
%TD*%
D16*
%TO.C,SW7*%
X481780000Y-75740000D03*
D15*
X476700000Y-75740000D03*
X486860000Y-75740000D03*
D17*
X484320000Y-70660000D03*
X477970000Y-73200000D03*
%TD*%
D15*
%TO.C,SW58*%
X264080000Y-128000000D03*
X253920000Y-128000000D03*
D16*
X259000000Y-128000000D03*
D17*
X261540000Y-122920000D03*
X255190000Y-125460000D03*
%TD*%
D15*
%TO.C,SW76*%
X182520000Y-123200000D03*
D16*
X187600000Y-123200000D03*
D15*
X192680000Y-123200000D03*
D17*
X190140000Y-118120000D03*
X183790000Y-120660000D03*
%TD*%
D14*
%TO.C,H8*%
X422950000Y-257350000D03*
%TD*%
D12*
%TO.C,D35*%
X383380000Y-186000000D03*
D13*
X391000000Y-186000000D03*
%TD*%
D12*
%TO.C,D83*%
X184000000Y-205000000D03*
D13*
X191620000Y-205000000D03*
%TD*%
D12*
%TO.C,D66*%
X280000000Y-87000000D03*
D13*
X287620000Y-87000000D03*
%TD*%
D16*
%TO.C,SW20*%
X433980000Y-99740000D03*
D15*
X428900000Y-99740000D03*
X439060000Y-99740000D03*
D17*
X436520000Y-94660000D03*
X430170000Y-97200000D03*
%TD*%
D12*
%TO.C,D81*%
X184000000Y-159000000D03*
D13*
X191620000Y-159000000D03*
%TD*%
D15*
%TO.C,SW29*%
X415560000Y-149740000D03*
D16*
X410480000Y-149740000D03*
D15*
X405400000Y-149740000D03*
D17*
X413020000Y-144660000D03*
X406670000Y-147200000D03*
%TD*%
D16*
%TO.C,SW17*%
X458080000Y-149640000D03*
D15*
X463160000Y-149640000D03*
X453000000Y-149640000D03*
D17*
X460620000Y-144560000D03*
X454270000Y-147100000D03*
%TD*%
D12*
%TO.C,D86*%
X160000000Y-207000000D03*
D13*
X167620000Y-207000000D03*
%TD*%
D15*
%TO.C,SW74*%
X192580000Y-194800000D03*
X182420000Y-194800000D03*
D16*
X187500000Y-194800000D03*
D17*
X190040000Y-189720000D03*
X183690000Y-192260000D03*
%TD*%
D14*
%TO.C,H1*%
X526300000Y-257350000D03*
%TD*%
D15*
%TO.C,SW66*%
X259180000Y-75800000D03*
D16*
X254100000Y-75800000D03*
D15*
X249020000Y-75800000D03*
D17*
X256640000Y-70720000D03*
X250290000Y-73260000D03*
%TD*%
D12*
%TO.C,D40*%
X359000000Y-139000000D03*
D13*
X366620000Y-139000000D03*
%TD*%
D15*
%TO.C,SW85*%
X135220000Y-154200000D03*
D16*
X140300000Y-154200000D03*
D15*
X145380000Y-154200000D03*
D17*
X142840000Y-149120000D03*
X136490000Y-151660000D03*
%TD*%
D12*
%TO.C,D62*%
X256000000Y-140000000D03*
D13*
X263620000Y-140000000D03*
%TD*%
D16*
%TO.C,SW15*%
X457980000Y-128140000D03*
D15*
X452900000Y-128140000D03*
X463060000Y-128140000D03*
D17*
X460520000Y-123060000D03*
X454170000Y-125600000D03*
%TD*%
D12*
%TO.C,D92*%
X137000000Y-118000000D03*
D13*
X144620000Y-118000000D03*
%TD*%
D12*
%TO.C,D82*%
X184000000Y-181000000D03*
D13*
X191620000Y-181000000D03*
%TD*%
D20*
%TO.C,R1*%
X421920000Y-54000000D03*
D21*
X427000000Y-54000000D03*
%TD*%
D15*
%TO.C,SW6*%
X510560000Y-202240000D03*
D16*
X505480000Y-202240000D03*
D15*
X500400000Y-202240000D03*
D17*
X508020000Y-197160000D03*
X501670000Y-199700000D03*
%TD*%
D12*
%TO.C,D56*%
X286000000Y-226000000D03*
D13*
X293620000Y-226000000D03*
%TD*%
D12*
%TO.C,D73*%
X208000000Y-113000000D03*
D13*
X215620000Y-113000000D03*
%TD*%
D16*
%TO.C,SW27*%
X410480000Y-125740000D03*
D15*
X405400000Y-125740000D03*
X415560000Y-125740000D03*
D17*
X413020000Y-120660000D03*
X406670000Y-123200000D03*
%TD*%
D12*
%TO.C,D42*%
X335000000Y-115000000D03*
D13*
X342620000Y-115000000D03*
%TD*%
D15*
%TO.C,SW88*%
X144980000Y-130500000D03*
D16*
X139900000Y-130500000D03*
D15*
X134820000Y-130500000D03*
D17*
X142440000Y-125420000D03*
X136090000Y-127960000D03*
%TD*%
D16*
%TO.C,SW62*%
X235100000Y-104100000D03*
D15*
X240180000Y-104100000D03*
X230020000Y-104100000D03*
D17*
X237640000Y-99020000D03*
X231290000Y-101560000D03*
%TD*%
D15*
%TO.C,SW87*%
X134920000Y-106800000D03*
X145080000Y-106800000D03*
D16*
X140000000Y-106800000D03*
D17*
X142540000Y-101720000D03*
X136190000Y-104260000D03*
%TD*%
D15*
%TO.C,SW48*%
X393460000Y-53000000D03*
X398540000Y-53000000D03*
%TD*%
D12*
%TO.C,D98*%
X108000000Y-165000000D03*
D13*
X115620000Y-165000000D03*
%TD*%
D15*
%TO.C,SW4*%
X505500000Y-178140000D03*
X515660000Y-178140000D03*
D16*
X510580000Y-178140000D03*
D17*
X513120000Y-173060000D03*
X506770000Y-175600000D03*
%TD*%
D16*
%TO.C,SW93*%
X111400000Y-106600000D03*
D15*
X106320000Y-106600000D03*
X116480000Y-106600000D03*
D17*
X113940000Y-101520000D03*
X107590000Y-104060000D03*
%TD*%
D12*
%TO.C,D10*%
X478380000Y-165000000D03*
D13*
X486000000Y-165000000D03*
%TD*%
D16*
%TO.C,SW90*%
X139800000Y-75700000D03*
D15*
X134720000Y-75700000D03*
X144880000Y-75700000D03*
D17*
X142340000Y-70620000D03*
X135990000Y-73160000D03*
%TD*%
D12*
%TO.C,D70*%
X231380000Y-163000000D03*
D13*
X239000000Y-163000000D03*
%TD*%
D12*
%TO.C,D39*%
X359380000Y-186000000D03*
D13*
X367000000Y-186000000D03*
%TD*%
D15*
%TO.C,SW39*%
X357800000Y-128240000D03*
X367960000Y-128240000D03*
D16*
X362880000Y-128240000D03*
D17*
X365420000Y-123160000D03*
X359070000Y-125700000D03*
%TD*%
D12*
%TO.C,D69*%
X232000000Y-139000000D03*
D13*
X239620000Y-139000000D03*
%TD*%
D12*
%TO.C,D100*%
X108000000Y-118000000D03*
D13*
X115620000Y-118000000D03*
%TD*%
D12*
%TO.C,D99*%
X108000000Y-188000000D03*
D13*
X115620000Y-188000000D03*
%TD*%
D20*
%TO.C,R4*%
X486080000Y-54000000D03*
D21*
X481000000Y-54000000D03*
%TD*%
D12*
%TO.C,D80*%
X183810000Y-135000000D03*
D13*
X191430000Y-135000000D03*
%TD*%
D15*
%TO.C,SW31*%
X362300000Y-75740000D03*
X372460000Y-75740000D03*
D16*
X367380000Y-75740000D03*
D17*
X369920000Y-70660000D03*
X363570000Y-73200000D03*
%TD*%
D12*
%TO.C,D2*%
X507380000Y-117000000D03*
D13*
X515000000Y-117000000D03*
%TD*%
D15*
%TO.C,SW81*%
X169080000Y-102000000D03*
X158920000Y-102000000D03*
D16*
X164000000Y-102000000D03*
D17*
X166540000Y-96920000D03*
X160190000Y-99460000D03*
%TD*%
D14*
%TO.C,H5*%
X318450000Y-32650000D03*
%TD*%
D12*
%TO.C,D41*%
X358380000Y-162000000D03*
D13*
X366000000Y-162000000D03*
%TD*%
D12*
%TO.C,D34*%
X383380000Y-162000000D03*
D13*
X391000000Y-162000000D03*
%TD*%
D12*
%TO.C,D24*%
X430380000Y-205000000D03*
D13*
X438000000Y-205000000D03*
%TD*%
D16*
%TO.C,SW54*%
X283040000Y-170720000D03*
D15*
X283040000Y-165640000D03*
X283040000Y-175800000D03*
D17*
X277960000Y-168180000D03*
X280500000Y-174530000D03*
%TD*%
D12*
%TO.C,D58*%
X278380000Y-182000000D03*
D13*
X286000000Y-182000000D03*
%TD*%
D12*
%TO.C,D16*%
X455000000Y-184000000D03*
D13*
X462620000Y-184000000D03*
%TD*%
D15*
%TO.C,SW19*%
X429600000Y-75860000D03*
X419440000Y-75860000D03*
D16*
X424520000Y-75860000D03*
D17*
X427060000Y-70780000D03*
X420710000Y-73320000D03*
%TD*%
D12*
%TO.C,D27*%
X406380000Y-112000000D03*
D13*
X414000000Y-112000000D03*
%TD*%
D20*
%TO.C,R12*%
X107920000Y-56000000D03*
D21*
X113000000Y-56000000D03*
%TD*%
D15*
%TO.C,SW47*%
X332820586Y-240200009D03*
D16*
X337219995Y-237660009D03*
D15*
X341619405Y-235120009D03*
D17*
X336879700Y-231990600D03*
X332650439Y-237365305D03*
%TD*%
D18*
%TO.C,D49*%
X452064700Y-50440000D03*
D19*
X454604700Y-50440000D03*
%TD*%
D16*
%TO.C,SW18*%
X457780000Y-197340000D03*
D15*
X452700000Y-197340000D03*
X462860000Y-197340000D03*
D17*
X460320000Y-192260000D03*
X453970000Y-194800000D03*
%TD*%
D12*
%TO.C,D14*%
X454380000Y-115000000D03*
D13*
X462000000Y-115000000D03*
%TD*%
D15*
%TO.C,SW96*%
X116280000Y-75600000D03*
D16*
X111200000Y-75600000D03*
D15*
X106120000Y-75600000D03*
D17*
X113740000Y-70520000D03*
X107390000Y-73060000D03*
%TD*%
D14*
%TO.C,H4*%
X423000000Y-32650000D03*
%TD*%
D16*
%TO.C,SW67*%
X211200000Y-149500000D03*
D15*
X206120000Y-149500000D03*
X216280000Y-149500000D03*
D17*
X213740000Y-144420000D03*
X207390000Y-146960000D03*
%TD*%
D15*
%TO.C,SW41*%
X357500000Y-152040000D03*
D16*
X362580000Y-152040000D03*
D15*
X367660000Y-152040000D03*
D17*
X365120000Y-146960000D03*
X358770000Y-149500000D03*
%TD*%
D12*
%TO.C,D4*%
X507000000Y-165000000D03*
D13*
X514620000Y-165000000D03*
%TD*%
D15*
%TO.C,SW46*%
X341420586Y-207569409D03*
X350219405Y-202489409D03*
D16*
X345819995Y-205029409D03*
D17*
X345479700Y-199360000D03*
X341250439Y-204734705D03*
%TD*%
D16*
%TO.C,SW16*%
X458380000Y-173540000D03*
D15*
X463460000Y-173540000D03*
X453300000Y-173540000D03*
D17*
X460920000Y-168460000D03*
X454570000Y-171000000D03*
%TD*%
D12*
%TO.C,D63*%
X255000000Y-163000000D03*
D13*
X262620000Y-163000000D03*
%TD*%
D12*
%TO.C,D33*%
X383000000Y-138000000D03*
D13*
X390620000Y-138000000D03*
%TD*%
D15*
%TO.C,SW22*%
X429060000Y-170960000D03*
X439220000Y-170960000D03*
D16*
X434140000Y-170960000D03*
D17*
X436680000Y-165880000D03*
X430330000Y-168420000D03*
%TD*%
D16*
%TO.C,SW26*%
X410380000Y-102040000D03*
D15*
X405300000Y-102040000D03*
X415460000Y-102040000D03*
D17*
X412920000Y-96960000D03*
X406570000Y-99500000D03*
%TD*%
D12*
%TO.C,D25*%
X393000000Y-86000000D03*
D13*
X400620000Y-86000000D03*
%TD*%
D22*
%TO.C,D54*%
X138100000Y-51200000D03*
D23*
X140640000Y-51200000D03*
%TD*%
D15*
%TO.C,SW12*%
X476500000Y-202140000D03*
D16*
X481580000Y-202140000D03*
D15*
X486660000Y-202140000D03*
D17*
X484120000Y-197060000D03*
X477770000Y-199600000D03*
%TD*%
D15*
%TO.C,SW84*%
X163520000Y-75700000D03*
X173680000Y-75700000D03*
D16*
X168600000Y-75700000D03*
D17*
X171140000Y-70620000D03*
X164790000Y-73160000D03*
%TD*%
D12*
%TO.C,D5*%
X507000000Y-188000000D03*
D13*
X514620000Y-188000000D03*
%TD*%
D12*
%TO.C,D78*%
X221000000Y-87000000D03*
D13*
X228620000Y-87000000D03*
%TD*%
D12*
%TO.C,D96*%
X135380000Y-89000000D03*
D13*
X143000000Y-89000000D03*
%TD*%
D15*
%TO.C,SW60*%
X277720000Y-75700000D03*
D16*
X282800000Y-75700000D03*
D15*
X287880000Y-75700000D03*
D17*
X285340000Y-70620000D03*
X278990000Y-73160000D03*
%TD*%
D15*
%TO.C,SW56*%
X263980000Y-151900000D03*
D16*
X258900000Y-151900000D03*
D15*
X253820000Y-151900000D03*
D17*
X261440000Y-146820000D03*
X255090000Y-149360000D03*
%TD*%
D20*
%TO.C,R6*%
X509460000Y-54000000D03*
D21*
X514540000Y-54000000D03*
%TD*%
D12*
%TO.C,D65*%
X256000000Y-186000000D03*
D13*
X263620000Y-186000000D03*
%TD*%
D12*
%TO.C,D77*%
X208000000Y-137000000D03*
D13*
X215620000Y-137000000D03*
%TD*%
D15*
%TO.C,SW36*%
X381500000Y-151940000D03*
D16*
X386580000Y-151940000D03*
D15*
X391660000Y-151940000D03*
D17*
X389120000Y-146860000D03*
X382770000Y-149400000D03*
%TD*%
D20*
%TO.C,R3*%
X322620000Y-99500000D03*
D21*
X317540000Y-99500000D03*
%TD*%
D14*
%TO.C,H16*%
X301300000Y-255700000D03*
%TD*%
%TO.C,H13*%
X300900000Y-145900000D03*
%TD*%
D12*
%TO.C,D3*%
X507380000Y-140000000D03*
D13*
X515000000Y-140000000D03*
%TD*%
D12*
%TO.C,D72*%
X251000000Y-87000000D03*
D13*
X258620000Y-87000000D03*
%TD*%
D14*
%TO.C,H12*%
X92100000Y-146100000D03*
%TD*%
D12*
%TO.C,D18*%
X454000000Y-207000000D03*
D13*
X461620000Y-207000000D03*
%TD*%
D12*
%TO.C,D28*%
X407380000Y-160000000D03*
D13*
X415000000Y-160000000D03*
%TD*%
D14*
%TO.C,H2*%
X526250000Y-145950000D03*
%TD*%
D12*
%TO.C,D71*%
X231380000Y-186000000D03*
D13*
X239000000Y-186000000D03*
%TD*%
D15*
%TO.C,SW1*%
X515560000Y-75840000D03*
D16*
X510480000Y-75840000D03*
D15*
X505400000Y-75840000D03*
D17*
X513020000Y-70760000D03*
X506670000Y-73300000D03*
%TD*%
D12*
%TO.C,D8*%
X478380000Y-117000000D03*
D13*
X486000000Y-117000000D03*
%TD*%
D16*
%TO.C,SW73*%
X187500000Y-147100000D03*
D15*
X192580000Y-147100000D03*
X182420000Y-147100000D03*
D17*
X190040000Y-142020000D03*
X183690000Y-144560000D03*
%TD*%
D12*
%TO.C,D1*%
X507000000Y-86000000D03*
D13*
X514620000Y-86000000D03*
%TD*%
D12*
%TO.C,D22*%
X430380000Y-157000000D03*
D13*
X438000000Y-157000000D03*
%TD*%
D12*
%TO.C,D46*%
X337380000Y-195000000D03*
D13*
X345000000Y-195000000D03*
%TD*%
D18*
%TO.C,D48*%
X423364700Y-50340000D03*
D19*
X425904700Y-50340000D03*
%TD*%
D15*
%TO.C,SW51*%
X281739405Y-207660009D03*
D16*
X277339995Y-205120009D03*
D15*
X272940586Y-202580009D03*
D17*
X282079700Y-201990600D03*
X275310439Y-201015305D03*
%TD*%
D16*
%TO.C,SW71*%
X211400000Y-173400000D03*
D15*
X206320000Y-173400000D03*
X216480000Y-173400000D03*
D17*
X213940000Y-168320000D03*
X207590000Y-170860000D03*
%TD*%
D15*
%TO.C,SW91*%
X116480000Y-154300000D03*
X106320000Y-154300000D03*
D16*
X111400000Y-154300000D03*
D17*
X113940000Y-149220000D03*
X107590000Y-151760000D03*
%TD*%
D16*
%TO.C,SW69*%
X211500000Y-101900000D03*
D15*
X206420000Y-101900000D03*
X216580000Y-101900000D03*
D17*
X214040000Y-96820000D03*
X207690000Y-99360000D03*
%TD*%
D15*
%TO.C,SW86*%
X134720000Y-201900000D03*
D16*
X139800000Y-201900000D03*
D15*
X144880000Y-201900000D03*
D17*
X142340000Y-196820000D03*
X135990000Y-199360000D03*
%TD*%
D14*
%TO.C,H7*%
X320300000Y-255900000D03*
%TD*%
D12*
%TO.C,D11*%
X478000000Y-188000000D03*
D13*
X485620000Y-188000000D03*
%TD*%
D12*
%TO.C,D89*%
X160000000Y-183000000D03*
D13*
X167620000Y-183000000D03*
%TD*%
D15*
%TO.C,SW32*%
X381400000Y-104440000D03*
D16*
X386480000Y-104440000D03*
D15*
X391560000Y-104440000D03*
D17*
X389020000Y-99360000D03*
X382670000Y-101900000D03*
%TD*%
D22*
%TO.C,D55*%
X109900000Y-50700000D03*
D23*
X112440000Y-50700000D03*
%TD*%
D20*
%TO.C,R2*%
X456000000Y-54000000D03*
D21*
X450920000Y-54000000D03*
%TD*%
D12*
%TO.C,D67*%
X246380000Y-203000000D03*
D13*
X254000000Y-203000000D03*
%TD*%
D20*
%TO.C,R7*%
X199000000Y-56000000D03*
D21*
X193920000Y-56000000D03*
%TD*%
D12*
%TO.C,D21*%
X431380000Y-134000000D03*
D13*
X439000000Y-134000000D03*
%TD*%
D20*
%TO.C,R9*%
X298540000Y-99500000D03*
D21*
X303620000Y-99500000D03*
%TD*%
D16*
%TO.C,SW2*%
X510380000Y-106740000D03*
D15*
X505300000Y-106740000D03*
X515460000Y-106740000D03*
D17*
X512920000Y-101660000D03*
X506570000Y-104200000D03*
%TD*%
D15*
%TO.C,SW10*%
X476600000Y-178040000D03*
X486760000Y-178040000D03*
D16*
X481680000Y-178040000D03*
D17*
X484220000Y-172960000D03*
X477870000Y-175500000D03*
%TD*%
D12*
%TO.C,D97*%
X112000000Y-212000000D03*
D13*
X119620000Y-212000000D03*
%TD*%
D15*
%TO.C,SW77*%
X182420000Y-170800000D03*
D16*
X187500000Y-170800000D03*
D15*
X192580000Y-170800000D03*
D17*
X190040000Y-165720000D03*
X183690000Y-168260000D03*
%TD*%
D15*
%TO.C,SW95*%
X116380000Y-178100000D03*
X106220000Y-178100000D03*
D16*
X111300000Y-178100000D03*
D17*
X113840000Y-173020000D03*
X107490000Y-175560000D03*
%TD*%
D20*
%TO.C,R5*%
X321540000Y-82500000D03*
D21*
X316460000Y-82500000D03*
%TD*%
D15*
%TO.C,SW45*%
X362319405Y-223220009D03*
D16*
X357919995Y-225760009D03*
D15*
X353520586Y-228300009D03*
D17*
X357579700Y-220090600D03*
X353350439Y-225465305D03*
%TD*%
D15*
%TO.C,SW30*%
X405300000Y-197240000D03*
X415460000Y-197240000D03*
D16*
X410380000Y-197240000D03*
D17*
X412920000Y-192160000D03*
X406570000Y-194700000D03*
%TD*%
D19*
%TO.C,U2*%
X300970000Y-55150000D03*
D23*
X304000000Y-55450000D03*
X304000000Y-50000000D03*
D19*
X300970000Y-50300000D03*
D24*
X304130000Y-43835000D03*
X301590000Y-43835000D03*
D25*
X299050000Y-43835000D03*
D24*
X296510000Y-43835000D03*
X293970000Y-43835000D03*
X291430000Y-43835000D03*
X288890000Y-43835000D03*
D25*
X286350000Y-43835000D03*
D24*
X283810000Y-43835000D03*
X281270000Y-43835000D03*
X278730000Y-43835000D03*
X276190000Y-43835000D03*
D25*
X273650000Y-43835000D03*
D24*
X271110000Y-43835000D03*
X268570000Y-43835000D03*
X266030000Y-43835000D03*
X263490000Y-43835000D03*
D25*
X260950000Y-43835000D03*
D24*
X258410000Y-43835000D03*
X255870000Y-43835000D03*
X255870000Y-61615000D03*
X258410000Y-61615000D03*
D25*
X260950000Y-61615000D03*
D24*
X263490000Y-61615000D03*
X266030000Y-61615000D03*
X268570000Y-61615000D03*
X271110000Y-61615000D03*
D25*
X273650000Y-61615000D03*
D24*
X276190000Y-61615000D03*
X278730000Y-61615000D03*
X281270000Y-61615000D03*
X283810000Y-61615000D03*
D25*
X286350000Y-61615000D03*
D24*
X288890000Y-61615000D03*
X291430000Y-61615000D03*
X293970000Y-61615000D03*
X296510000Y-61615000D03*
D25*
X299050000Y-61615000D03*
D24*
X301590000Y-61615000D03*
X304130000Y-61615000D03*
X256100000Y-50185000D03*
D25*
X256100000Y-52725000D03*
D24*
X256100000Y-55265000D03*
%TD*%
D15*
%TO.C,SW55*%
X269939405Y-228260009D03*
X261140586Y-223180009D03*
D16*
X265539995Y-225720009D03*
D17*
X270279700Y-222590600D03*
X263510439Y-221615305D03*
%TD*%
D12*
%TO.C,D75*%
X208000000Y-183000000D03*
D13*
X215620000Y-183000000D03*
%TD*%
D16*
%TO.C,SW78*%
X197200000Y-75600000D03*
D15*
X202280000Y-75600000D03*
X192120000Y-75600000D03*
D17*
X199740000Y-70520000D03*
X193390000Y-73060000D03*
%TD*%
D15*
%TO.C,SW70*%
X206320000Y-125700000D03*
D16*
X211400000Y-125700000D03*
D15*
X216480000Y-125700000D03*
D17*
X213940000Y-120620000D03*
X207590000Y-123160000D03*
%TD*%
D23*
%TO.C,U1*%
X317000000Y-50000000D03*
D19*
X320030000Y-50300000D03*
D23*
X317000000Y-55450000D03*
D19*
X320030000Y-55150000D03*
D24*
X316870000Y-61615000D03*
X319410000Y-61615000D03*
D25*
X321950000Y-61615000D03*
D24*
X324490000Y-61615000D03*
X327030000Y-61615000D03*
X329570000Y-61615000D03*
X332110000Y-61615000D03*
D25*
X334650000Y-61615000D03*
D24*
X337190000Y-61615000D03*
X339730000Y-61615000D03*
X342270000Y-61615000D03*
X344810000Y-61615000D03*
D25*
X347350000Y-61615000D03*
D24*
X349890000Y-61615000D03*
X352430000Y-61615000D03*
X354970000Y-61615000D03*
X357510000Y-61615000D03*
D25*
X360050000Y-61615000D03*
D24*
X362590000Y-61615000D03*
X365130000Y-61615000D03*
X365130000Y-43835000D03*
X362590000Y-43835000D03*
D25*
X360050000Y-43835000D03*
D24*
X357510000Y-43835000D03*
X354970000Y-43835000D03*
X352430000Y-43835000D03*
X349890000Y-43835000D03*
D25*
X347350000Y-43835000D03*
D24*
X344810000Y-43835000D03*
X342270000Y-43835000D03*
X339730000Y-43835000D03*
X337190000Y-43835000D03*
D25*
X334650000Y-43835000D03*
D24*
X332110000Y-43835000D03*
X329570000Y-43835000D03*
X327030000Y-43835000D03*
X324490000Y-43835000D03*
D25*
X321950000Y-43835000D03*
D24*
X319410000Y-43835000D03*
X316870000Y-43835000D03*
X364900000Y-55265000D03*
D25*
X364900000Y-52725000D03*
D24*
X364900000Y-50185000D03*
%TD*%
D15*
%TO.C,SW94*%
X116680000Y-130500000D03*
X106520000Y-130500000D03*
D16*
X111600000Y-130500000D03*
D17*
X114140000Y-125420000D03*
X107790000Y-127960000D03*
%TD*%
D15*
%TO.C,SW79*%
X168980000Y-149500000D03*
D16*
X163900000Y-149500000D03*
D15*
X158820000Y-149500000D03*
D17*
X166440000Y-144420000D03*
X160090000Y-146960000D03*
%TD*%
D15*
%TO.C,SW72*%
X230980000Y-75500000D03*
X220820000Y-75500000D03*
D16*
X225900000Y-75500000D03*
D17*
X228440000Y-70420000D03*
X222090000Y-72960000D03*
%TD*%
D12*
%TO.C,D19*%
X420380000Y-86000000D03*
D13*
X428000000Y-86000000D03*
%TD*%
D12*
%TO.C,D74*%
X207380000Y-161000000D03*
D13*
X215000000Y-161000000D03*
%TD*%
D15*
%TO.C,SW13*%
X448100000Y-75940000D03*
D16*
X453180000Y-75940000D03*
D15*
X458260000Y-75940000D03*
D17*
X455720000Y-70860000D03*
X449370000Y-73400000D03*
%TD*%
D12*
%TO.C,D36*%
X369380000Y-204000000D03*
D13*
X377000000Y-204000000D03*
%TD*%
D12*
%TO.C,D59*%
X278380000Y-148000000D03*
D13*
X286000000Y-148000000D03*
%TD*%
D14*
%TO.C,H14*%
X197500000Y-255900000D03*
%TD*%
D15*
%TO.C,SW8*%
X476600000Y-106840000D03*
D16*
X481680000Y-106840000D03*
D15*
X486760000Y-106840000D03*
D17*
X484220000Y-101760000D03*
X477870000Y-104300000D03*
%TD*%
D12*
%TO.C,D32*%
X383380000Y-115000000D03*
D13*
X391000000Y-115000000D03*
%TD*%
D14*
%TO.C,H6*%
X320000000Y-146000000D03*
%TD*%
D12*
%TO.C,D9*%
X478380000Y-141000000D03*
D13*
X486000000Y-141000000D03*
%TD*%
D15*
%TO.C,SW33*%
X381400000Y-128140000D03*
X391560000Y-128140000D03*
D16*
X386480000Y-128140000D03*
D17*
X389020000Y-123060000D03*
X382670000Y-125600000D03*
%TD*%
D12*
%TO.C,D101*%
X106380000Y-142000000D03*
D13*
X114000000Y-142000000D03*
%TD*%
D12*
%TO.C,D76*%
X208000000Y-207000000D03*
D13*
X215620000Y-207000000D03*
%TD*%
D12*
%TO.C,D84*%
X194000000Y-87000000D03*
D13*
X201620000Y-87000000D03*
%TD*%
D15*
%TO.C,SW68*%
X206420000Y-197200000D03*
X216580000Y-197200000D03*
D16*
X211500000Y-197200000D03*
D17*
X214040000Y-192120000D03*
X207690000Y-194660000D03*
%TD*%
D12*
%TO.C,D37*%
X335000000Y-86000000D03*
D13*
X342620000Y-86000000D03*
%TD*%
D15*
%TO.C,SW49*%
X229000000Y-53000000D03*
X223920000Y-53000000D03*
%TD*%
D12*
%TO.C,D38*%
X359380000Y-115000000D03*
D13*
X367000000Y-115000000D03*
%TD*%
D22*
%TO.C,D52*%
X195200000Y-51200000D03*
D23*
X197740000Y-51200000D03*
%TD*%
D15*
%TO.C,SW37*%
X343660000Y-75840000D03*
X333500000Y-75840000D03*
D16*
X338580000Y-75840000D03*
D17*
X341120000Y-70760000D03*
X334770000Y-73300000D03*
%TD*%
D12*
%TO.C,D60*%
X280000000Y-116000000D03*
D13*
X287620000Y-116000000D03*
%TD*%
D12*
%TO.C,D31*%
X364000000Y-86000000D03*
D13*
X371620000Y-86000000D03*
%TD*%
D16*
%TO.C,SW25*%
X395980000Y-75840000D03*
D15*
X390900000Y-75840000D03*
X401060000Y-75840000D03*
D17*
X398520000Y-70760000D03*
X392170000Y-73300000D03*
%TD*%
D12*
%TO.C,D85*%
X160380000Y-161000000D03*
D13*
X168000000Y-161000000D03*
%TD*%
D12*
%TO.C,D12*%
X478000000Y-213000000D03*
D13*
X485620000Y-213000000D03*
%TD*%
D15*
%TO.C,SW64*%
X229920000Y-175700000D03*
D16*
X235000000Y-175700000D03*
D15*
X240080000Y-175700000D03*
D17*
X237540000Y-170620000D03*
X231190000Y-173160000D03*
%TD*%
D15*
%TO.C,SW38*%
X357600000Y-104240000D03*
X367760000Y-104240000D03*
D16*
X362680000Y-104240000D03*
D17*
X365220000Y-99160000D03*
X358870000Y-101700000D03*
%TD*%
D15*
%TO.C,SW52*%
X287880000Y-104200000D03*
X277720000Y-104200000D03*
D16*
X282800000Y-104200000D03*
D17*
X285340000Y-99120000D03*
X278990000Y-101660000D03*
%TD*%
D12*
%TO.C,D17*%
X454380000Y-160000000D03*
D13*
X462000000Y-160000000D03*
%TD*%
D12*
%TO.C,D45*%
X336000000Y-181000000D03*
D13*
X343620000Y-181000000D03*
%TD*%
D15*
%TO.C,SW63*%
X230220000Y-128000000D03*
D16*
X235300000Y-128000000D03*
D15*
X240380000Y-128000000D03*
D17*
X237840000Y-122920000D03*
X231490000Y-125460000D03*
%TD*%
D15*
%TO.C,SW82*%
X158620000Y-125800000D03*
X168780000Y-125800000D03*
D16*
X163700000Y-125800000D03*
D17*
X166240000Y-120720000D03*
X159890000Y-123260000D03*
%TD*%
D16*
%TO.C,SW92*%
X116100000Y-202000000D03*
D15*
X121180000Y-202000000D03*
X111020000Y-202000000D03*
D17*
X118640000Y-196920000D03*
X112290000Y-199460000D03*
%TD*%
D14*
%TO.C,H10*%
X197600000Y-34100000D03*
%TD*%
D12*
%TO.C,D87*%
X161000000Y-113000000D03*
D13*
X168620000Y-113000000D03*
%TD*%
D12*
%TO.C,D94*%
X137000000Y-165000000D03*
D13*
X144620000Y-165000000D03*
%TD*%
D16*
%TO.C,SW75*%
X187600000Y-99400000D03*
D15*
X192680000Y-99400000D03*
X182520000Y-99400000D03*
D17*
X190140000Y-94320000D03*
X183790000Y-96860000D03*
%TD*%
D12*
%TO.C,D30*%
X407000000Y-207000000D03*
D13*
X414620000Y-207000000D03*
%TD*%
D16*
%TO.C,SW50*%
X286139995Y-237820009D03*
D15*
X281740586Y-235280009D03*
X290539405Y-240360009D03*
D17*
X290879700Y-234690600D03*
X284110439Y-233715305D03*
%TD*%
D12*
%TO.C,D6*%
X502380000Y-212000000D03*
D13*
X510000000Y-212000000D03*
%TD*%
D15*
%TO.C,SW65*%
X240440586Y-211380009D03*
D16*
X244839995Y-213920009D03*
D15*
X249239405Y-216460009D03*
D17*
X249579700Y-210790600D03*
X242810439Y-209815305D03*
%TD*%
D15*
%TO.C,SW57*%
X264180000Y-104200000D03*
X254020000Y-104200000D03*
D16*
X259100000Y-104200000D03*
D17*
X261640000Y-99120000D03*
X255290000Y-101660000D03*
%TD*%
D16*
%TO.C,SW44*%
X339000000Y-171000000D03*
D15*
X339000000Y-176080000D03*
X339000000Y-165920000D03*
D17*
X333920000Y-168460000D03*
X336460000Y-174810000D03*
%TD*%
D15*
%TO.C,SW61*%
X240180000Y-151800000D03*
X230020000Y-151800000D03*
D16*
X235100000Y-151800000D03*
D17*
X237640000Y-146720000D03*
X231290000Y-149260000D03*
%TD*%
D15*
%TO.C,SW59*%
X264180000Y-175700000D03*
X254020000Y-175700000D03*
D16*
X259100000Y-175700000D03*
D17*
X261640000Y-170620000D03*
X255290000Y-173160000D03*
%TD*%
D12*
%TO.C,D15*%
X455000000Y-138000000D03*
D13*
X462620000Y-138000000D03*
%TD*%
D12*
%TO.C,D13*%
X449380000Y-86000000D03*
D13*
X457000000Y-86000000D03*
%TD*%
D16*
%TO.C,SW40*%
X362780000Y-175740000D03*
D15*
X367860000Y-175740000D03*
X357700000Y-175740000D03*
D17*
X365320000Y-170660000D03*
X358970000Y-173200000D03*
%TD*%
D12*
%TO.C,D20*%
X430380000Y-110000000D03*
D13*
X438000000Y-110000000D03*
%TD*%
D12*
%TO.C,D64*%
X255380000Y-115000000D03*
D13*
X263000000Y-115000000D03*
%TD*%
D15*
%TO.C,SW24*%
X429200000Y-194640000D03*
X439360000Y-194640000D03*
D16*
X434280000Y-194640000D03*
D17*
X436820000Y-189560000D03*
X430470000Y-192100000D03*
%TD*%
D12*
%TO.C,D102*%
X108000000Y-89000000D03*
D13*
X115620000Y-89000000D03*
%TD*%
D12*
%TO.C,D68*%
X232000000Y-114000000D03*
D13*
X239620000Y-114000000D03*
%TD*%
D15*
%TO.C,SW83*%
X168780000Y-173300000D03*
X158620000Y-173300000D03*
D16*
X163700000Y-173300000D03*
D17*
X166240000Y-168220000D03*
X159890000Y-170760000D03*
%TD*%
D12*
%TO.C,D7*%
X478380000Y-86000000D03*
D13*
X486000000Y-86000000D03*
%TD*%
D12*
%TO.C,D57*%
X278000000Y-193000000D03*
D13*
X285620000Y-193000000D03*
%TD*%
D22*
%TO.C,D53*%
X167400000Y-51000000D03*
D23*
X169940000Y-51000000D03*
%TD*%
D15*
%TO.C,SW14*%
X463160000Y-104340000D03*
X453000000Y-104340000D03*
D16*
X458080000Y-104340000D03*
D17*
X460620000Y-99260000D03*
X454270000Y-101800000D03*
%TD*%
D18*
%TO.C,D50*%
X481564700Y-50240000D03*
D19*
X484104700Y-50240000D03*
%TD*%
D12*
%TO.C,D29*%
X407000000Y-183000000D03*
D13*
X414620000Y-183000000D03*
%TD*%
D15*
%TO.C,SW23*%
X429100000Y-147340000D03*
D16*
X434180000Y-147340000D03*
D15*
X439260000Y-147340000D03*
D17*
X436720000Y-142260000D03*
X430370000Y-144800000D03*
%TD*%
D16*
%TO.C,SW42*%
X338780000Y-104340000D03*
D15*
X333700000Y-104340000D03*
X343860000Y-104340000D03*
D17*
X341320000Y-99260000D03*
X334970000Y-101800000D03*
%TD*%
D26*
%TO.C,J1*%
X317040000Y-95000000D03*
X322040000Y-86900000D03*
X325140000Y-92100000D03*
X317040000Y-86000000D03*
X325140000Y-88900000D03*
%TD*%
%TO.C,J2*%
X304040000Y-86000000D03*
X299040000Y-94100000D03*
X295940000Y-88900000D03*
X304040000Y-95000000D03*
X295940000Y-92100000D03*
%TD*%
M02*
