%TF.GenerationSoftware,KiCad,Pcbnew,7.0.1-3b83917a11~172~ubuntu22.04.1*%
%TF.CreationDate,2023-03-22T13:00:22+01:00*%
%TF.ProjectId,Europe-ergo-smd,4575726f-7065-42d6-9572-676f2d736d64,rev?*%
%TF.SameCoordinates,Original*%
%TF.FileFunction,Paste,Top*%
%TF.FilePolarity,Positive*%
%FSLAX46Y46*%
G04 Gerber Fmt 4.6, Leading zero omitted, Abs format (unit mm)*
G04 Created by KiCad (PCBNEW 7.0.1-3b83917a11~172~ubuntu22.04.1) date 2023-03-22 13:00:22*
%MOMM*%
%LPD*%
G01*
G04 APERTURE LIST*
G04 Aperture macros list*
%AMRoundRect*
0 Rectangle with rounded corners*
0 $1 Rounding radius*
0 $2 $3 $4 $5 $6 $7 $8 $9 X,Y pos of 4 corners*
0 Add a 4 corners polygon primitive as box body*
4,1,4,$2,$3,$4,$5,$6,$7,$8,$9,$2,$3,0*
0 Add four circle primitives for the rounded corners*
1,1,$1+$1,$2,$3*
1,1,$1+$1,$4,$5*
1,1,$1+$1,$6,$7*
1,1,$1+$1,$8,$9*
0 Add four rect primitives between the rounded corners*
20,1,$1+$1,$2,$3,$4,$5,0*
20,1,$1+$1,$4,$5,$6,$7,0*
20,1,$1+$1,$6,$7,$8,$9,0*
20,1,$1+$1,$8,$9,$2,$3,0*%
G04 Aperture macros list end*
%ADD10RoundRect,0.250000X-0.312500X-1.450000X0.312500X-1.450000X0.312500X1.450000X-0.312500X1.450000X0*%
%ADD11RoundRect,0.250000X0.312500X1.450000X-0.312500X1.450000X-0.312500X-1.450000X0.312500X-1.450000X0*%
G04 APERTURE END LIST*
D10*
%TO.C,R14*%
X296322500Y-82500000D03*
X300597500Y-82500000D03*
%TD*%
%TO.C,R13*%
X296402500Y-99500000D03*
X300677500Y-99500000D03*
%TD*%
D11*
%TO.C,R12*%
X327227500Y-82500000D03*
X322952500Y-82500000D03*
%TD*%
%TO.C,R11*%
X328307500Y-99500000D03*
X324032500Y-99500000D03*
%TD*%
D10*
%TO.C,R10*%
X322322500Y-78000000D03*
X326597500Y-78000000D03*
%TD*%
%TO.C,R9*%
X510872500Y-54000000D03*
X515147500Y-54000000D03*
%TD*%
D11*
%TO.C,R8*%
X491767500Y-54000000D03*
X487492500Y-54000000D03*
%TD*%
%TO.C,R7*%
X461687500Y-54000000D03*
X457412500Y-54000000D03*
%TD*%
D10*
%TO.C,R6*%
X423332500Y-54000000D03*
X427607500Y-54000000D03*
%TD*%
%TO.C,R5*%
X292782500Y-78000000D03*
X297057500Y-78000000D03*
%TD*%
D11*
%TO.C,R4*%
X201137500Y-56000000D03*
X196862500Y-56000000D03*
%TD*%
%TO.C,R3*%
X173137500Y-56000000D03*
X168862500Y-56000000D03*
%TD*%
D10*
%TO.C,R2*%
X134782500Y-56000000D03*
X139057500Y-56000000D03*
%TD*%
%TO.C,R1*%
X105782500Y-56000000D03*
X110057500Y-56000000D03*
%TD*%
%TO.C,D104*%
X424032500Y-193340000D03*
X428307500Y-193340000D03*
%TD*%
%TO.C,D103*%
X403482500Y-193470000D03*
X407757500Y-193470000D03*
%TD*%
%TO.C,D102*%
X193522500Y-189800000D03*
X197797500Y-189800000D03*
%TD*%
%TO.C,D101*%
X445152500Y-190840000D03*
X449427500Y-190840000D03*
%TD*%
%TO.C,D100*%
X214362500Y-189340000D03*
X218637500Y-189340000D03*
%TD*%
%TO.C,D99*%
X172062500Y-191900000D03*
X176337500Y-191900000D03*
%TD*%
%TO.C,D98*%
X488832500Y-195840000D03*
X493107500Y-195840000D03*
%TD*%
%TO.C,D97*%
X466352500Y-196700000D03*
X470627500Y-196700000D03*
%TD*%
%TO.C,D96*%
X368722500Y-181240000D03*
X372997500Y-181240000D03*
%TD*%
%TO.C,D95*%
X351412500Y-191000000D03*
X355687500Y-191000000D03*
%TD*%
%TO.C,D94*%
X333052500Y-202000000D03*
X337327500Y-202000000D03*
%TD*%
%TO.C,D93*%
X281752100Y-200284700D03*
X286027100Y-200284700D03*
%TD*%
%TO.C,D92*%
X265242500Y-192000000D03*
X269517500Y-192000000D03*
%TD*%
%TO.C,D91*%
X246862500Y-180250000D03*
X251137500Y-180250000D03*
%TD*%
%TO.C,D90*%
X151052500Y-192000000D03*
X155327500Y-192000000D03*
%TD*%
%TO.C,D89*%
X129222500Y-192000000D03*
X133497500Y-192000000D03*
%TD*%
%TO.C,D88*%
X360382500Y-170525000D03*
X364657500Y-170525000D03*
%TD*%
%TO.C,D87*%
X256142500Y-168380000D03*
X260417500Y-168380000D03*
%TD*%
%TO.C,D86*%
X445482500Y-170260000D03*
X449757500Y-170260000D03*
%TD*%
%TO.C,D85*%
X424722500Y-171760000D03*
X428997500Y-171760000D03*
%TD*%
%TO.C,D84*%
X403582500Y-171520000D03*
X407857500Y-171520000D03*
%TD*%
%TO.C,D83*%
X382662500Y-171260000D03*
X386937500Y-171260000D03*
%TD*%
%TO.C,D82*%
X235242500Y-168380000D03*
X239517500Y-168380000D03*
%TD*%
%TO.C,D81*%
X214052500Y-168720000D03*
X218327500Y-168720000D03*
%TD*%
%TO.C,D80*%
X193562500Y-168180000D03*
X197837500Y-168180000D03*
%TD*%
%TO.C,D79*%
X172252500Y-171180000D03*
X176527500Y-171180000D03*
%TD*%
%TO.C,D78*%
X492337500Y-172660000D03*
X496612500Y-172660000D03*
%TD*%
%TO.C,D77*%
X466182500Y-173220000D03*
X470457500Y-173220000D03*
%TD*%
%TO.C,D76*%
X338502500Y-163000000D03*
X342777500Y-163000000D03*
%TD*%
%TO.C,D75*%
X340422500Y-173970600D03*
X344697500Y-173970600D03*
%TD*%
%TO.C,D74*%
X274522500Y-171880000D03*
X278797500Y-171880000D03*
%TD*%
%TO.C,D73*%
X276382500Y-164280000D03*
X280657500Y-164280000D03*
%TD*%
%TO.C,D72*%
X150822500Y-171380000D03*
X155097500Y-171380000D03*
%TD*%
%TO.C,D71*%
X125562500Y-171380000D03*
X129837500Y-171380000D03*
%TD*%
%TO.C,D70*%
X444052500Y-148565000D03*
X448327500Y-148565000D03*
%TD*%
%TO.C,D69*%
X423062500Y-150540000D03*
X427337500Y-150540000D03*
%TD*%
%TO.C,D68*%
X402725000Y-151100000D03*
X407000000Y-151100000D03*
%TD*%
%TO.C,D67*%
X381662500Y-151040000D03*
X385937500Y-151040000D03*
%TD*%
%TO.C,D66*%
X359792500Y-151040000D03*
X364067500Y-151040000D03*
%TD*%
%TO.C,D65*%
X193372500Y-147900000D03*
X197647500Y-147900000D03*
%TD*%
%TO.C,D64*%
X172042500Y-149900000D03*
X176317500Y-149900000D03*
%TD*%
%TO.C,D63*%
X256052500Y-147100000D03*
X260327500Y-147100000D03*
%TD*%
%TO.C,D62*%
X235252500Y-147100000D03*
X239527500Y-147100000D03*
%TD*%
%TO.C,D61*%
X213972500Y-147440000D03*
X218247500Y-147440000D03*
%TD*%
%TO.C,D60*%
X491807500Y-150205000D03*
X496082500Y-150205000D03*
%TD*%
%TO.C,D59*%
X465052500Y-152040000D03*
X469327500Y-152040000D03*
%TD*%
%TO.C,D58*%
X151082500Y-149100000D03*
X155357500Y-149100000D03*
%TD*%
%TO.C,D57*%
X125272500Y-149100000D03*
X129547500Y-149100000D03*
%TD*%
%TO.C,D56*%
X424962500Y-129340000D03*
X429237500Y-129340000D03*
%TD*%
%TO.C,D55*%
X403382500Y-128360000D03*
X407657500Y-128360000D03*
%TD*%
%TO.C,D54*%
X445882500Y-128840000D03*
X450157500Y-128840000D03*
%TD*%
%TO.C,D53*%
X214002500Y-127340000D03*
X218277500Y-127340000D03*
%TD*%
%TO.C,D52*%
X192492500Y-126800000D03*
X196767500Y-126800000D03*
%TD*%
%TO.C,D51*%
X382382500Y-128700000D03*
X386657500Y-128700000D03*
%TD*%
%TO.C,D50*%
X360412500Y-129840000D03*
X364687500Y-129840000D03*
%TD*%
%TO.C,D49*%
X171552500Y-129800000D03*
X175827500Y-129800000D03*
%TD*%
%TO.C,D48*%
X256782500Y-128000000D03*
X261057500Y-128000000D03*
%TD*%
%TO.C,D47*%
X235402500Y-127000000D03*
X239677500Y-127000000D03*
%TD*%
%TO.C,D46*%
X492717500Y-128800000D03*
X496992500Y-128800000D03*
%TD*%
%TO.C,D45*%
X466362500Y-132200000D03*
X470637500Y-132200000D03*
%TD*%
%TO.C,D44*%
X338862500Y-132920000D03*
X343137500Y-132920000D03*
%TD*%
%TO.C,D35*%
X276422500Y-132540000D03*
X280697500Y-132540000D03*
%TD*%
%TO.C,D34*%
X149262500Y-130000000D03*
X153537500Y-130000000D03*
%TD*%
%TO.C,D33*%
X122962500Y-130000000D03*
X127237500Y-130000000D03*
%TD*%
%TO.C,D30*%
X442722500Y-105740000D03*
X446997500Y-105740000D03*
%TD*%
%TO.C,D29*%
X421122500Y-105505000D03*
X425397500Y-105505000D03*
%TD*%
%TO.C,D28*%
X399722500Y-105225000D03*
X403997500Y-105225000D03*
%TD*%
%TO.C,D27*%
X379622500Y-105565000D03*
X383897500Y-105565000D03*
%TD*%
%TO.C,D26*%
X358422500Y-106005000D03*
X362697500Y-106005000D03*
%TD*%
%TO.C,D25*%
X254142500Y-105800000D03*
X258417500Y-105800000D03*
%TD*%
%TO.C,D24*%
X233662500Y-105800000D03*
X237937500Y-105800000D03*
%TD*%
%TO.C,D23*%
X212162500Y-105140000D03*
X216437500Y-105140000D03*
%TD*%
%TO.C,D22*%
X190222500Y-105600000D03*
X194497500Y-105600000D03*
%TD*%
%TO.C,D21*%
X170762500Y-108600000D03*
X175037500Y-108600000D03*
%TD*%
%TO.C,D20*%
X491907500Y-108065000D03*
X496182500Y-108065000D03*
%TD*%
%TO.C,D19*%
X463422500Y-108005000D03*
X467697500Y-108005000D03*
%TD*%
%TO.C,D18*%
X337272500Y-106005000D03*
X341547500Y-106005000D03*
%TD*%
%TO.C,D17*%
X275942500Y-105800000D03*
X280217500Y-105800000D03*
%TD*%
%TO.C,D16*%
X151242500Y-112000000D03*
X155517500Y-112000000D03*
%TD*%
%TO.C,D15*%
X124972500Y-112000000D03*
X129247500Y-112000000D03*
%TD*%
%TO.C,D14*%
X399252500Y-84000000D03*
X403527500Y-84000000D03*
%TD*%
%TO.C,D13*%
X378862500Y-84000000D03*
X383137500Y-84000000D03*
%TD*%
%TO.C,D12*%
X232242500Y-84000000D03*
X236517500Y-84000000D03*
%TD*%
%TO.C,D11*%
X212662500Y-84000000D03*
X216937500Y-84000000D03*
%TD*%
%TO.C,D10*%
X422512500Y-84000000D03*
X426787500Y-84000000D03*
%TD*%
%TO.C,D9*%
X357052500Y-84000000D03*
X361327500Y-84000000D03*
%TD*%
%TO.C,D8*%
X336412500Y-84000000D03*
X340687500Y-84000000D03*
%TD*%
%TO.C,D7*%
X464382500Y-84000000D03*
X468657500Y-84000000D03*
%TD*%
%TO.C,D6*%
X442912500Y-84260000D03*
X447187500Y-84260000D03*
%TD*%
%TO.C,D5*%
X277242500Y-84000000D03*
X281517500Y-84000000D03*
%TD*%
%TO.C,D4*%
X255242500Y-84000000D03*
X259517500Y-84000000D03*
%TD*%
%TO.C,D3*%
X191262500Y-84000000D03*
X195537500Y-84000000D03*
%TD*%
%TO.C,D2*%
X170862500Y-84000000D03*
X175137500Y-84000000D03*
%TD*%
%TO.C,D1*%
X149242500Y-84000000D03*
X153517500Y-84000000D03*
%TD*%
M02*
