%TF.GenerationSoftware,KiCad,Pcbnew,7.0.1-3b83917a11~172~ubuntu22.04.1*%
%TF.CreationDate,2023-03-22T13:00:23+01:00*%
%TF.ProjectId,Europe-ergo-smd,4575726f-7065-42d6-9572-676f2d736d64,rev?*%
%TF.SameCoordinates,Original*%
%TF.FileFunction,Profile,NP*%
%FSLAX46Y46*%
G04 Gerber Fmt 4.6, Leading zero omitted, Abs format (unit mm)*
G04 Created by KiCad (PCBNEW 7.0.1-3b83917a11~172~ubuntu22.04.1) date 2023-03-22 13:00:23*
%MOMM*%
%LPD*%
G01*
G04 APERTURE LIST*
%TA.AperFunction,Profile*%
%ADD10C,0.100000*%
%TD*%
%TA.AperFunction,Profile*%
%ADD11C,0.010000*%
%TD*%
G04 APERTURE END LIST*
D10*
X308570000Y-83880000D02*
X308500000Y-31250000D01*
X316075000Y-83400000D02*
X316050000Y-31250000D01*
X313450000Y-226850000D02*
X317450000Y-226850000D01*
X94000000Y-27000000D02*
X308500000Y-27000000D01*
X528000000Y-235000000D02*
X528550000Y-26900000D01*
X94900000Y-235100000D02*
X94000000Y-27000000D01*
X313450000Y-226850000D02*
X309000000Y-226850000D01*
X316050000Y-31250000D02*
X308500000Y-31250000D01*
X528550000Y-26900000D02*
X308500000Y-27000000D01*
X309900000Y-235100000D02*
X528000000Y-235000000D01*
X308570000Y-101080000D02*
X309000000Y-226850000D01*
X316075000Y-100600000D02*
X317450000Y-226850000D01*
X309900000Y-235100000D02*
X94900000Y-235100000D01*
D11*
%TO.C,J2*%
X316075000Y-90000000D02*
X316075000Y-83400000D01*
X316075000Y-94500000D02*
X317375000Y-94500000D01*
X316075000Y-100600000D02*
X316075000Y-94500000D01*
X317375000Y-90000000D02*
X316075000Y-90000000D01*
X317375000Y-94500000D02*
X317375000Y-90000000D01*
%TO.C,J1*%
X308570000Y-94480000D02*
X308570000Y-101080000D01*
X308570000Y-89980000D02*
X307270000Y-89980000D01*
X308570000Y-83880000D02*
X308570000Y-89980000D01*
X307270000Y-94480000D02*
X308570000Y-94480000D01*
X307270000Y-89980000D02*
X307270000Y-94480000D01*
%TD*%
M02*
