M48
; DRILL file {KiCad 7.0.1-3b83917a11~172~ubuntu22.04.1} date on. 22. mars 2023 kl. 13.00 +0100
; FORMAT={-:-/ absolute / metric / decimal}
; #@! TF.CreationDate,2023-03-22T13:00:21+01:00
; #@! TF.GenerationSoftware,Kicad,Pcbnew,7.0.1-3b83917a11~172~ubuntu22.04.1
; #@! TF.FileFunction,Plated,1,2,PTH
FMAT,2
METRIC
; #@! TA.AperFunction,Plated,PTH,ViaDrill
T1C0.400
; #@! TA.AperFunction,Plated,PTH,ComponentDrill
T2C0.750
; #@! TA.AperFunction,Plated,PTH,ComponentDrill
T3C0.900
; #@! TA.AperFunction,Plated,PTH,ComponentDrill
T4C1.000
; #@! TA.AperFunction,Plated,PTH,ComponentDrill
T5C1.020
; #@! TA.AperFunction,Plated,PTH,ComponentDrill
T6C1.100
; #@! TA.AperFunction,Plated,PTH,ComponentDrill
T7C1.500
; #@! TA.AperFunction,Plated,PTH,ComponentDrill
T8C4.300
%
G90
G05
T1
X124.0Y-104.0
X124.0Y-166.0
X125.0Y-133.0
X125.0Y-144.0
X127.0Y-115.0
X133.0Y-149.0
X140.692Y-56.289
X144.0Y-88.0
X145.0Y-111.0
X145.0Y-144.0
X146.0Y-133.0
X146.0Y-152.0
X150.0Y-103.0
X151.674Y-84.115
X163.0Y-45.0
X164.0Y-110.0
X165.0Y-98.0
X166.997Y-56.289
X167.689Y-114.087
X170.581Y-150.66
X170.591Y-191.147
X170.686Y-170.32
X171.414Y-126.6
X173.675Y-83.874
X181.0Y-48.0
X186.0Y-82.0
X187.632Y-150.66
X191.293Y-189.981
X193.0Y-110.0
X193.307Y-165.451
X196.0Y-94.0
X196.092Y-81.265
X207.0Y-62.0
X208.0Y-86.0
X209.0Y-108.0
X211.504Y-127.067
X214.946Y-162.696
X216.791Y-81.129
X234.98Y-104.843
X236.087Y-81.504
X236.585Y-146.728
X236.626Y-167.461
X237.721Y-127.543
X240.0Y-51.0
X244.0Y-86.0
X247.338Y-83.814
X251.45Y-39.965
X254.233Y-58.704
X254.466Y-146.728
X254.511Y-167.59
X254.831Y-127.067
X255.601Y-102.804
X259.427Y-93.007
X262.3Y-65.073
X263.689Y-80.155
X264.0Y-75.0
X264.522Y-90.472
X267.0Y-177.0
X268.706Y-77.343
X270.96Y-172.696
X272.0Y-96.0
X274.4Y-65.477
X283.0Y-101.0
X289.799Y-93.137
X304.573Y-83.814
X304.601Y-72.018
X305.0Y-77.0
X318.844Y-52.218
X319.27Y-72.445
X320.0Y-77.0
X324.166Y-73.431
X331.222Y-103.475
X342.664Y-174.252
X356.428Y-38.758
X357.102Y-161.279
X358.498Y-130.999
X358.755Y-108.539
X360.036Y-87.951
X363.13Y-55.594
X370.0Y-86.0
X370.571Y-42.109
X371.108Y-103.475
X371.108Y-127.067
X375.089Y-166.388
X379.0Y-144.0
X381.266Y-84.437
X382.714Y-51.349
X384.0Y-46.0
X386.713Y-53.135
X387.062Y-83.814
X388.16Y-55.774
X389.0Y-73.0
X389.0Y-80.0
X391.377Y-40.235
X395.039Y-99.542
X395.498Y-47.139
X399.028Y-138.863
X403.0Y-65.0
X403.017Y-123.135
X403.37Y-49.812
X404.0Y-165.0
X411.0Y-73.0
X411.0Y-172.0
X412.337Y-77.102
X417.0Y-82.0
X417.0Y-98.0
X418.768Y-103.475
X418.971Y-83.814
X418.971Y-127.067
X418.971Y-150.66
X420.0Y-161.0
X422.0Y-68.0
X425.0Y-88.0
X426.948Y-81.063
X434.925Y-44.493
X437.0Y-172.0
X442.199Y-146.728
X442.902Y-111.311
X442.902Y-170.32
X446.116Y-126.12
X446.56Y-189.981
X447.495Y-102.774
X450.88Y-83.814
X462.845Y-130.999
X463.545Y-53.326
X466.475Y-151.556
X467.746Y-173.918
X467.872Y-197.845
X476.0Y-57.0
X486.526Y-193.913
X486.777Y-127.067
X486.777Y-150.66
X486.777Y-170.32
X490.058Y-109.569
T2
X426.915Y-50.34
X429.455Y-50.34
X455.615Y-50.44
X458.155Y-50.44
X485.115Y-50.24
X487.655Y-50.24
X512.73Y-50.44
X515.27Y-50.44
T3
X109.9Y-50.7
X112.44Y-50.7
X138.1Y-51.2
X140.64Y-51.2
X167.4Y-51.0
X169.94Y-51.0
X195.2Y-51.2
X197.74Y-51.2
X296.0Y-74.0
X298.54Y-74.0
X326.0Y-74.0
X328.54Y-74.0
T4
X223.92Y-53.0
X229.0Y-53.0
X397.01Y-53.0
X402.09Y-53.0
T5
X255.87Y-43.835
X255.87Y-61.615
X256.1Y-50.185
X256.1Y-52.725
X256.1Y-55.265
X258.41Y-43.835
X258.41Y-61.615
X260.95Y-43.835
X260.95Y-61.615
X263.49Y-43.835
X263.49Y-61.615
X266.03Y-43.835
X266.03Y-61.615
X268.57Y-43.835
X268.57Y-61.615
X271.11Y-43.835
X271.11Y-61.615
X273.65Y-43.835
X273.65Y-61.615
X276.19Y-43.835
X276.19Y-61.615
X278.73Y-43.835
X278.73Y-61.615
X281.27Y-43.835
X281.27Y-61.615
X283.81Y-43.835
X283.81Y-61.615
X286.35Y-43.835
X286.35Y-61.615
X288.89Y-43.835
X288.89Y-61.615
X291.43Y-43.835
X291.43Y-61.615
X293.97Y-43.835
X293.97Y-61.615
X296.51Y-43.835
X296.51Y-61.615
X299.05Y-43.835
X299.05Y-61.615
X301.59Y-43.835
X301.59Y-61.615
X304.13Y-43.835
X304.13Y-61.615
X320.42Y-43.835
X320.42Y-61.615
X322.96Y-43.835
X322.96Y-61.615
X325.5Y-43.835
X325.5Y-61.615
X328.04Y-43.835
X328.04Y-61.615
X330.58Y-43.835
X330.58Y-61.615
X333.12Y-43.835
X333.12Y-61.615
X335.66Y-43.835
X335.66Y-61.615
X338.2Y-43.835
X338.2Y-61.615
X340.74Y-43.835
X340.74Y-61.615
X343.28Y-43.835
X343.28Y-61.615
X345.82Y-43.835
X345.82Y-61.615
X348.36Y-43.835
X348.36Y-61.615
X350.9Y-43.835
X350.9Y-61.615
X353.44Y-43.835
X353.44Y-61.615
X355.98Y-43.835
X355.98Y-61.615
X358.52Y-43.835
X358.52Y-61.615
X361.06Y-43.835
X361.06Y-61.615
X363.6Y-43.835
X363.6Y-61.615
X366.14Y-43.835
X366.14Y-61.615
X368.45Y-50.185
X368.45Y-52.725
X368.45Y-55.265
X368.68Y-43.835
X368.68Y-61.615
T6
X297.57Y-90.63
X300.67Y-95.83
X305.67Y-87.43
X305.67Y-96.73
X318.975Y-87.75
X318.975Y-97.05
X323.975Y-88.65
X327.075Y-93.85
T7
X125.15Y-97.06
X125.51Y-117.96
X125.65Y-138.86
X125.65Y-159.94
X131.5Y-94.52
X131.65Y-181.14
X131.86Y-115.42
X132.0Y-136.32
X132.0Y-157.4
X138.0Y-178.6
X149.65Y-73.06
X151.19Y-97.26
X151.49Y-117.96
X152.61Y-159.74
X152.62Y-138.76
X153.19Y-181.04
X156.0Y-70.52
X157.54Y-94.72
X157.84Y-115.42
X158.96Y-157.2
X158.97Y-136.22
X159.54Y-178.5
X171.45Y-73.16
X172.0Y-97.0
X173.0Y-118.0
X173.8Y-138.86
X173.85Y-159.94
X174.19Y-180.96
X177.8Y-70.62
X178.35Y-94.46
X179.35Y-115.46
X180.15Y-136.32
X180.2Y-157.4
X180.54Y-178.42
X192.65Y-73.16
X193.27Y-94.46
X194.61Y-115.46
X194.85Y-157.44
X195.11Y-136.46
X195.47Y-178.86
X199.0Y-70.62
X199.62Y-91.92
X200.96Y-112.92
X201.2Y-154.9
X201.46Y-133.92
X201.82Y-176.32
X214.19Y-73.06
X214.49Y-94.5
X215.73Y-115.5
X216.03Y-136.4
X216.19Y-157.58
X216.19Y-178.8
X220.54Y-70.52
X220.84Y-91.96
X222.08Y-112.96
X222.38Y-133.86
X222.54Y-155.04
X222.54Y-176.26
X235.19Y-72.96
X235.59Y-94.36
X237.03Y-115.46
X237.19Y-157.54
X237.21Y-136.36
X241.54Y-70.42
X241.94Y-91.82
X243.38Y-112.92
X243.54Y-155.0
X243.56Y-133.82
X245.43Y-187.065
X252.2Y-188.041
X256.69Y-94.46
X257.19Y-73.26
X258.11Y-115.46
X258.19Y-136.46
X258.19Y-157.54
X263.04Y-91.92
X263.51Y-197.615
X263.54Y-70.72
X264.46Y-112.92
X264.54Y-133.92
X264.54Y-155.0
X270.28Y-198.591
X273.97Y-179.895
X277.92Y-120.46
X278.1Y-151.46
X278.99Y-73.16
X279.19Y-94.46
X280.46Y-126.81
X280.64Y-157.81
X280.74Y-180.871
X282.0Y-208.0
X285.34Y-70.62
X285.54Y-91.92
X288.769Y-208.975
X338.32Y-73.3
X338.82Y-121.08
X338.84Y-212.365
X338.92Y-151.46
X340.19Y-94.54
X341.36Y-127.43
X341.46Y-157.81
X343.07Y-206.991
X344.67Y-70.76
X346.43Y-183.705
X346.54Y-92.0
X350.66Y-178.331
X356.9Y-201.465
X359.19Y-73.2
X360.86Y-94.44
X361.13Y-196.091
X362.32Y-138.54
X362.52Y-159.46
X362.62Y-116.54
X365.54Y-70.66
X367.21Y-91.9
X368.67Y-136.0
X368.87Y-156.92
X368.97Y-114.0
X375.43Y-190.705
X379.66Y-185.331
X380.53Y-73.3
X381.86Y-94.2
X383.19Y-138.44
X384.19Y-116.3
X384.19Y-159.26
X386.88Y-70.76
X388.21Y-91.66
X389.54Y-135.9
X390.54Y-113.76
X390.54Y-156.72
X402.27Y-73.32
X402.86Y-94.46
X404.0Y-138.3
X405.19Y-115.56
X405.19Y-159.42
X405.19Y-180.8
X408.62Y-70.78
X409.21Y-91.92
X410.35Y-135.76
X411.54Y-113.02
X411.54Y-156.88
X411.54Y-178.26
X423.86Y-94.07
X424.19Y-73.4
X425.19Y-138.34
X426.19Y-116.34
X426.19Y-159.18
X426.26Y-180.44
X430.21Y-91.53
X430.54Y-70.86
X431.54Y-135.8
X432.54Y-113.8
X432.54Y-156.64
X432.61Y-177.9
X444.86Y-94.54
X445.19Y-73.46
X446.19Y-136.5
X447.19Y-116.44
X447.19Y-157.26
X447.26Y-178.64
X451.21Y-92.0
X451.54Y-70.92
X452.54Y-133.96
X453.54Y-113.9
X453.54Y-154.72
X453.61Y-176.1
X465.86Y-96.54
X466.19Y-73.3
X467.19Y-140.84
X468.19Y-119.3
X468.19Y-160.72
X468.26Y-182.54
X472.21Y-94.0
X472.54Y-70.76
X473.54Y-138.3
X474.54Y-116.76
X474.54Y-158.18
X474.61Y-180.0
X490.26Y-182.54
X493.945Y-139.26
X494.045Y-97.0
X494.045Y-118.34
X494.245Y-160.26
X496.61Y-180.0
X500.295Y-136.72
X500.395Y-94.46
X500.395Y-115.8
X500.595Y-157.72
T8
X100.5Y-34.0
X100.5Y-129.0
X100.9Y-228.0
X197.6Y-34.1
X198.4Y-228.0
X300.9Y-128.8
X302.2Y-227.8
X302.75Y-32.6
X322.0Y-32.65
X323.55Y-128.9
X324.75Y-228.0
X426.55Y-32.65
X427.4Y-229.45
X521.0Y-32.6
X521.0Y-129.0
X521.0Y-229.45
T0
M30
