%TF.GenerationSoftware,KiCad,Pcbnew,7.0.1-3b83917a11~172~ubuntu22.04.1*%
%TF.CreationDate,2023-03-22T13:00:23+01:00*%
%TF.ProjectId,Europe-ergo-smd,4575726f-7065-42d6-9572-676f2d736d64,rev?*%
%TF.SameCoordinates,Original*%
%TF.FileFunction,Other,User*%
%FSLAX46Y46*%
G04 Gerber Fmt 4.6, Leading zero omitted, Abs format (unit mm)*
G04 Created by KiCad (PCBNEW 7.0.1-3b83917a11~172~ubuntu22.04.1) date 2023-03-22 13:00:23*
%MOMM*%
%LPD*%
G01*
G04 APERTURE LIST*
%ADD10C,0.050000*%
G04 APERTURE END LIST*
D10*
%TO.C,R14*%
X301410000Y-84450000D02*
X295510000Y-84450000D01*
X301410000Y-80550000D02*
X301410000Y-84450000D01*
X295510000Y-84450000D02*
X295510000Y-80550000D01*
X295510000Y-80550000D02*
X301410000Y-80550000D01*
%TO.C,R13*%
X301490000Y-101450000D02*
X295590000Y-101450000D01*
X301490000Y-97550000D02*
X301490000Y-101450000D01*
X295590000Y-101450000D02*
X295590000Y-97550000D01*
X295590000Y-97550000D02*
X301490000Y-97550000D01*
%TO.C,R12*%
X322140000Y-80550000D02*
X328040000Y-80550000D01*
X322140000Y-84450000D02*
X322140000Y-80550000D01*
X328040000Y-80550000D02*
X328040000Y-84450000D01*
X328040000Y-84450000D02*
X322140000Y-84450000D01*
%TO.C,R11*%
X323220000Y-97550000D02*
X329120000Y-97550000D01*
X323220000Y-101450000D02*
X323220000Y-97550000D01*
X329120000Y-97550000D02*
X329120000Y-101450000D01*
X329120000Y-101450000D02*
X323220000Y-101450000D01*
%TO.C,R10*%
X327410000Y-79950000D02*
X321510000Y-79950000D01*
X327410000Y-76050000D02*
X327410000Y-79950000D01*
X321510000Y-79950000D02*
X321510000Y-76050000D01*
X321510000Y-76050000D02*
X327410000Y-76050000D01*
%TO.C,R9*%
X515960000Y-55950000D02*
X510060000Y-55950000D01*
X515960000Y-52050000D02*
X515960000Y-55950000D01*
X510060000Y-55950000D02*
X510060000Y-52050000D01*
X510060000Y-52050000D02*
X515960000Y-52050000D01*
%TO.C,R8*%
X486680000Y-52050000D02*
X492580000Y-52050000D01*
X486680000Y-55950000D02*
X486680000Y-52050000D01*
X492580000Y-52050000D02*
X492580000Y-55950000D01*
X492580000Y-55950000D02*
X486680000Y-55950000D01*
%TO.C,R7*%
X456600000Y-52050000D02*
X462500000Y-52050000D01*
X456600000Y-55950000D02*
X456600000Y-52050000D01*
X462500000Y-52050000D02*
X462500000Y-55950000D01*
X462500000Y-55950000D02*
X456600000Y-55950000D01*
%TO.C,R6*%
X428420000Y-55950000D02*
X422520000Y-55950000D01*
X428420000Y-52050000D02*
X428420000Y-55950000D01*
X422520000Y-55950000D02*
X422520000Y-52050000D01*
X422520000Y-52050000D02*
X428420000Y-52050000D01*
%TO.C,R5*%
X297870000Y-79950000D02*
X291970000Y-79950000D01*
X297870000Y-76050000D02*
X297870000Y-79950000D01*
X291970000Y-79950000D02*
X291970000Y-76050000D01*
X291970000Y-76050000D02*
X297870000Y-76050000D01*
%TO.C,R4*%
X196050000Y-54050000D02*
X201950000Y-54050000D01*
X196050000Y-57950000D02*
X196050000Y-54050000D01*
X201950000Y-54050000D02*
X201950000Y-57950000D01*
X201950000Y-57950000D02*
X196050000Y-57950000D01*
%TO.C,R3*%
X168050000Y-54050000D02*
X173950000Y-54050000D01*
X168050000Y-57950000D02*
X168050000Y-54050000D01*
X173950000Y-54050000D02*
X173950000Y-57950000D01*
X173950000Y-57950000D02*
X168050000Y-57950000D01*
%TO.C,R2*%
X139870000Y-57950000D02*
X133970000Y-57950000D01*
X139870000Y-54050000D02*
X139870000Y-57950000D01*
X133970000Y-57950000D02*
X133970000Y-54050000D01*
X133970000Y-54050000D02*
X139870000Y-54050000D01*
%TO.C,R1*%
X110870000Y-57950000D02*
X104970000Y-57950000D01*
X110870000Y-54050000D02*
X110870000Y-57950000D01*
X104970000Y-57950000D02*
X104970000Y-54050000D01*
X104970000Y-54050000D02*
X110870000Y-54050000D01*
%TO.C,D104*%
X423220000Y-191390000D02*
X429120000Y-191390000D01*
X423220000Y-195290000D02*
X423220000Y-191390000D01*
X429120000Y-191390000D02*
X429120000Y-195290000D01*
X429120000Y-195290000D02*
X423220000Y-195290000D01*
%TO.C,D103*%
X402670000Y-191520000D02*
X408570000Y-191520000D01*
X402670000Y-195420000D02*
X402670000Y-191520000D01*
X408570000Y-191520000D02*
X408570000Y-195420000D01*
X408570000Y-195420000D02*
X402670000Y-195420000D01*
%TO.C,D102*%
X192710000Y-187850000D02*
X198610000Y-187850000D01*
X192710000Y-191750000D02*
X192710000Y-187850000D01*
X198610000Y-187850000D02*
X198610000Y-191750000D01*
X198610000Y-191750000D02*
X192710000Y-191750000D01*
%TO.C,D101*%
X444340000Y-188890000D02*
X450240000Y-188890000D01*
X444340000Y-192790000D02*
X444340000Y-188890000D01*
X450240000Y-188890000D02*
X450240000Y-192790000D01*
X450240000Y-192790000D02*
X444340000Y-192790000D01*
%TO.C,D100*%
X213550000Y-187390000D02*
X219450000Y-187390000D01*
X213550000Y-191290000D02*
X213550000Y-187390000D01*
X219450000Y-187390000D02*
X219450000Y-191290000D01*
X219450000Y-191290000D02*
X213550000Y-191290000D01*
%TO.C,D99*%
X171250000Y-189950000D02*
X177150000Y-189950000D01*
X171250000Y-193850000D02*
X171250000Y-189950000D01*
X177150000Y-189950000D02*
X177150000Y-193850000D01*
X177150000Y-193850000D02*
X171250000Y-193850000D01*
%TO.C,D98*%
X488020000Y-193890000D02*
X493920000Y-193890000D01*
X488020000Y-197790000D02*
X488020000Y-193890000D01*
X493920000Y-193890000D02*
X493920000Y-197790000D01*
X493920000Y-197790000D02*
X488020000Y-197790000D01*
%TO.C,D97*%
X465540000Y-194750000D02*
X471440000Y-194750000D01*
X465540000Y-198650000D02*
X465540000Y-194750000D01*
X471440000Y-194750000D02*
X471440000Y-198650000D01*
X471440000Y-198650000D02*
X465540000Y-198650000D01*
%TO.C,D96*%
X367910000Y-179290000D02*
X373810000Y-179290000D01*
X367910000Y-183190000D02*
X367910000Y-179290000D01*
X373810000Y-179290000D02*
X373810000Y-183190000D01*
X373810000Y-183190000D02*
X367910000Y-183190000D01*
%TO.C,D95*%
X350600000Y-189050000D02*
X356500000Y-189050000D01*
X350600000Y-192950000D02*
X350600000Y-189050000D01*
X356500000Y-189050000D02*
X356500000Y-192950000D01*
X356500000Y-192950000D02*
X350600000Y-192950000D01*
%TO.C,D94*%
X332240000Y-200050000D02*
X338140000Y-200050000D01*
X332240000Y-203950000D02*
X332240000Y-200050000D01*
X338140000Y-200050000D02*
X338140000Y-203950000D01*
X338140000Y-203950000D02*
X332240000Y-203950000D01*
%TO.C,D93*%
X280939600Y-198334700D02*
X286839600Y-198334700D01*
X280939600Y-202234700D02*
X280939600Y-198334700D01*
X286839600Y-198334700D02*
X286839600Y-202234700D01*
X286839600Y-202234700D02*
X280939600Y-202234700D01*
%TO.C,D92*%
X264430000Y-190050000D02*
X270330000Y-190050000D01*
X264430000Y-193950000D02*
X264430000Y-190050000D01*
X270330000Y-190050000D02*
X270330000Y-193950000D01*
X270330000Y-193950000D02*
X264430000Y-193950000D01*
%TO.C,D91*%
X246050000Y-178300000D02*
X251950000Y-178300000D01*
X246050000Y-182200000D02*
X246050000Y-178300000D01*
X251950000Y-178300000D02*
X251950000Y-182200000D01*
X251950000Y-182200000D02*
X246050000Y-182200000D01*
%TO.C,D90*%
X150240000Y-190050000D02*
X156140000Y-190050000D01*
X150240000Y-193950000D02*
X150240000Y-190050000D01*
X156140000Y-190050000D02*
X156140000Y-193950000D01*
X156140000Y-193950000D02*
X150240000Y-193950000D01*
%TO.C,D89*%
X128410000Y-190050000D02*
X134310000Y-190050000D01*
X128410000Y-193950000D02*
X128410000Y-190050000D01*
X134310000Y-190050000D02*
X134310000Y-193950000D01*
X134310000Y-193950000D02*
X128410000Y-193950000D01*
%TO.C,D88*%
X359570000Y-168575000D02*
X365470000Y-168575000D01*
X359570000Y-172475000D02*
X359570000Y-168575000D01*
X365470000Y-168575000D02*
X365470000Y-172475000D01*
X365470000Y-172475000D02*
X359570000Y-172475000D01*
%TO.C,D87*%
X255330000Y-166430000D02*
X261230000Y-166430000D01*
X255330000Y-170330000D02*
X255330000Y-166430000D01*
X261230000Y-166430000D02*
X261230000Y-170330000D01*
X261230000Y-170330000D02*
X255330000Y-170330000D01*
%TO.C,D86*%
X444670000Y-168310000D02*
X450570000Y-168310000D01*
X444670000Y-172210000D02*
X444670000Y-168310000D01*
X450570000Y-168310000D02*
X450570000Y-172210000D01*
X450570000Y-172210000D02*
X444670000Y-172210000D01*
%TO.C,D85*%
X423910000Y-169810000D02*
X429810000Y-169810000D01*
X423910000Y-173710000D02*
X423910000Y-169810000D01*
X429810000Y-169810000D02*
X429810000Y-173710000D01*
X429810000Y-173710000D02*
X423910000Y-173710000D01*
%TO.C,D84*%
X402770000Y-169570000D02*
X408670000Y-169570000D01*
X402770000Y-173470000D02*
X402770000Y-169570000D01*
X408670000Y-169570000D02*
X408670000Y-173470000D01*
X408670000Y-173470000D02*
X402770000Y-173470000D01*
%TO.C,D83*%
X381850000Y-169310000D02*
X387750000Y-169310000D01*
X381850000Y-173210000D02*
X381850000Y-169310000D01*
X387750000Y-169310000D02*
X387750000Y-173210000D01*
X387750000Y-173210000D02*
X381850000Y-173210000D01*
%TO.C,D82*%
X234430000Y-166430000D02*
X240330000Y-166430000D01*
X234430000Y-170330000D02*
X234430000Y-166430000D01*
X240330000Y-166430000D02*
X240330000Y-170330000D01*
X240330000Y-170330000D02*
X234430000Y-170330000D01*
%TO.C,D81*%
X213240000Y-166770000D02*
X219140000Y-166770000D01*
X213240000Y-170670000D02*
X213240000Y-166770000D01*
X219140000Y-166770000D02*
X219140000Y-170670000D01*
X219140000Y-170670000D02*
X213240000Y-170670000D01*
%TO.C,D80*%
X192750000Y-166230000D02*
X198650000Y-166230000D01*
X192750000Y-170130000D02*
X192750000Y-166230000D01*
X198650000Y-166230000D02*
X198650000Y-170130000D01*
X198650000Y-170130000D02*
X192750000Y-170130000D01*
%TO.C,D79*%
X171440000Y-169230000D02*
X177340000Y-169230000D01*
X171440000Y-173130000D02*
X171440000Y-169230000D01*
X177340000Y-169230000D02*
X177340000Y-173130000D01*
X177340000Y-173130000D02*
X171440000Y-173130000D01*
%TO.C,D78*%
X491525000Y-170710000D02*
X497425000Y-170710000D01*
X491525000Y-174610000D02*
X491525000Y-170710000D01*
X497425000Y-170710000D02*
X497425000Y-174610000D01*
X497425000Y-174610000D02*
X491525000Y-174610000D01*
%TO.C,D77*%
X465370000Y-171270000D02*
X471270000Y-171270000D01*
X465370000Y-175170000D02*
X465370000Y-171270000D01*
X471270000Y-171270000D02*
X471270000Y-175170000D01*
X471270000Y-175170000D02*
X465370000Y-175170000D01*
%TO.C,D76*%
X337690000Y-161050000D02*
X343590000Y-161050000D01*
X337690000Y-164950000D02*
X337690000Y-161050000D01*
X343590000Y-161050000D02*
X343590000Y-164950000D01*
X343590000Y-164950000D02*
X337690000Y-164950000D01*
%TO.C,D75*%
X339610000Y-172020600D02*
X345510000Y-172020600D01*
X339610000Y-175920600D02*
X339610000Y-172020600D01*
X345510000Y-172020600D02*
X345510000Y-175920600D01*
X345510000Y-175920600D02*
X339610000Y-175920600D01*
%TO.C,D74*%
X273710000Y-169930000D02*
X279610000Y-169930000D01*
X273710000Y-173830000D02*
X273710000Y-169930000D01*
X279610000Y-169930000D02*
X279610000Y-173830000D01*
X279610000Y-173830000D02*
X273710000Y-173830000D01*
%TO.C,D73*%
X275570000Y-162330000D02*
X281470000Y-162330000D01*
X275570000Y-166230000D02*
X275570000Y-162330000D01*
X281470000Y-162330000D02*
X281470000Y-166230000D01*
X281470000Y-166230000D02*
X275570000Y-166230000D01*
%TO.C,D72*%
X150010000Y-169430000D02*
X155910000Y-169430000D01*
X150010000Y-173330000D02*
X150010000Y-169430000D01*
X155910000Y-169430000D02*
X155910000Y-173330000D01*
X155910000Y-173330000D02*
X150010000Y-173330000D01*
%TO.C,D71*%
X124750000Y-169430000D02*
X130650000Y-169430000D01*
X124750000Y-173330000D02*
X124750000Y-169430000D01*
X130650000Y-169430000D02*
X130650000Y-173330000D01*
X130650000Y-173330000D02*
X124750000Y-173330000D01*
%TO.C,D70*%
X443240000Y-146615000D02*
X449140000Y-146615000D01*
X443240000Y-150515000D02*
X443240000Y-146615000D01*
X449140000Y-146615000D02*
X449140000Y-150515000D01*
X449140000Y-150515000D02*
X443240000Y-150515000D01*
%TO.C,D69*%
X422250000Y-148590000D02*
X428150000Y-148590000D01*
X422250000Y-152490000D02*
X422250000Y-148590000D01*
X428150000Y-148590000D02*
X428150000Y-152490000D01*
X428150000Y-152490000D02*
X422250000Y-152490000D01*
%TO.C,D68*%
X401912500Y-149150000D02*
X407812500Y-149150000D01*
X401912500Y-153050000D02*
X401912500Y-149150000D01*
X407812500Y-149150000D02*
X407812500Y-153050000D01*
X407812500Y-153050000D02*
X401912500Y-153050000D01*
%TO.C,D67*%
X380850000Y-149090000D02*
X386750000Y-149090000D01*
X380850000Y-152990000D02*
X380850000Y-149090000D01*
X386750000Y-149090000D02*
X386750000Y-152990000D01*
X386750000Y-152990000D02*
X380850000Y-152990000D01*
%TO.C,D66*%
X358980000Y-149090000D02*
X364880000Y-149090000D01*
X358980000Y-152990000D02*
X358980000Y-149090000D01*
X364880000Y-149090000D02*
X364880000Y-152990000D01*
X364880000Y-152990000D02*
X358980000Y-152990000D01*
%TO.C,D65*%
X192560000Y-145950000D02*
X198460000Y-145950000D01*
X192560000Y-149850000D02*
X192560000Y-145950000D01*
X198460000Y-145950000D02*
X198460000Y-149850000D01*
X198460000Y-149850000D02*
X192560000Y-149850000D01*
%TO.C,D64*%
X171230000Y-147950000D02*
X177130000Y-147950000D01*
X171230000Y-151850000D02*
X171230000Y-147950000D01*
X177130000Y-147950000D02*
X177130000Y-151850000D01*
X177130000Y-151850000D02*
X171230000Y-151850000D01*
%TO.C,D63*%
X255240000Y-145150000D02*
X261140000Y-145150000D01*
X255240000Y-149050000D02*
X255240000Y-145150000D01*
X261140000Y-145150000D02*
X261140000Y-149050000D01*
X261140000Y-149050000D02*
X255240000Y-149050000D01*
%TO.C,D62*%
X234440000Y-145150000D02*
X240340000Y-145150000D01*
X234440000Y-149050000D02*
X234440000Y-145150000D01*
X240340000Y-145150000D02*
X240340000Y-149050000D01*
X240340000Y-149050000D02*
X234440000Y-149050000D01*
%TO.C,D61*%
X213160000Y-145490000D02*
X219060000Y-145490000D01*
X213160000Y-149390000D02*
X213160000Y-145490000D01*
X219060000Y-145490000D02*
X219060000Y-149390000D01*
X219060000Y-149390000D02*
X213160000Y-149390000D01*
%TO.C,D60*%
X490995000Y-148255000D02*
X496895000Y-148255000D01*
X490995000Y-152155000D02*
X490995000Y-148255000D01*
X496895000Y-148255000D02*
X496895000Y-152155000D01*
X496895000Y-152155000D02*
X490995000Y-152155000D01*
%TO.C,D59*%
X464240000Y-150090000D02*
X470140000Y-150090000D01*
X464240000Y-153990000D02*
X464240000Y-150090000D01*
X470140000Y-150090000D02*
X470140000Y-153990000D01*
X470140000Y-153990000D02*
X464240000Y-153990000D01*
%TO.C,D58*%
X150270000Y-147150000D02*
X156170000Y-147150000D01*
X150270000Y-151050000D02*
X150270000Y-147150000D01*
X156170000Y-147150000D02*
X156170000Y-151050000D01*
X156170000Y-151050000D02*
X150270000Y-151050000D01*
%TO.C,D57*%
X124460000Y-147150000D02*
X130360000Y-147150000D01*
X124460000Y-151050000D02*
X124460000Y-147150000D01*
X130360000Y-147150000D02*
X130360000Y-151050000D01*
X130360000Y-151050000D02*
X124460000Y-151050000D01*
%TO.C,D56*%
X424150000Y-127390000D02*
X430050000Y-127390000D01*
X424150000Y-131290000D02*
X424150000Y-127390000D01*
X430050000Y-127390000D02*
X430050000Y-131290000D01*
X430050000Y-131290000D02*
X424150000Y-131290000D01*
%TO.C,D55*%
X402570000Y-126410000D02*
X408470000Y-126410000D01*
X402570000Y-130310000D02*
X402570000Y-126410000D01*
X408470000Y-126410000D02*
X408470000Y-130310000D01*
X408470000Y-130310000D02*
X402570000Y-130310000D01*
%TO.C,D54*%
X445070000Y-126890000D02*
X450970000Y-126890000D01*
X445070000Y-130790000D02*
X445070000Y-126890000D01*
X450970000Y-126890000D02*
X450970000Y-130790000D01*
X450970000Y-130790000D02*
X445070000Y-130790000D01*
%TO.C,D53*%
X213190000Y-125390000D02*
X219090000Y-125390000D01*
X213190000Y-129290000D02*
X213190000Y-125390000D01*
X219090000Y-125390000D02*
X219090000Y-129290000D01*
X219090000Y-129290000D02*
X213190000Y-129290000D01*
%TO.C,D52*%
X191680000Y-124850000D02*
X197580000Y-124850000D01*
X191680000Y-128750000D02*
X191680000Y-124850000D01*
X197580000Y-124850000D02*
X197580000Y-128750000D01*
X197580000Y-128750000D02*
X191680000Y-128750000D01*
%TO.C,D51*%
X381570000Y-126750000D02*
X387470000Y-126750000D01*
X381570000Y-130650000D02*
X381570000Y-126750000D01*
X387470000Y-126750000D02*
X387470000Y-130650000D01*
X387470000Y-130650000D02*
X381570000Y-130650000D01*
%TO.C,D50*%
X359600000Y-127890000D02*
X365500000Y-127890000D01*
X359600000Y-131790000D02*
X359600000Y-127890000D01*
X365500000Y-127890000D02*
X365500000Y-131790000D01*
X365500000Y-131790000D02*
X359600000Y-131790000D01*
%TO.C,D49*%
X170740000Y-127850000D02*
X176640000Y-127850000D01*
X170740000Y-131750000D02*
X170740000Y-127850000D01*
X176640000Y-127850000D02*
X176640000Y-131750000D01*
X176640000Y-131750000D02*
X170740000Y-131750000D01*
%TO.C,D48*%
X255970000Y-126050000D02*
X261870000Y-126050000D01*
X255970000Y-129950000D02*
X255970000Y-126050000D01*
X261870000Y-126050000D02*
X261870000Y-129950000D01*
X261870000Y-129950000D02*
X255970000Y-129950000D01*
%TO.C,D47*%
X234590000Y-125050000D02*
X240490000Y-125050000D01*
X234590000Y-128950000D02*
X234590000Y-125050000D01*
X240490000Y-125050000D02*
X240490000Y-128950000D01*
X240490000Y-128950000D02*
X234590000Y-128950000D01*
%TO.C,D46*%
X491905000Y-126850000D02*
X497805000Y-126850000D01*
X491905000Y-130750000D02*
X491905000Y-126850000D01*
X497805000Y-126850000D02*
X497805000Y-130750000D01*
X497805000Y-130750000D02*
X491905000Y-130750000D01*
%TO.C,D45*%
X465550000Y-130250000D02*
X471450000Y-130250000D01*
X465550000Y-134150000D02*
X465550000Y-130250000D01*
X471450000Y-130250000D02*
X471450000Y-134150000D01*
X471450000Y-134150000D02*
X465550000Y-134150000D01*
%TO.C,D44*%
X338050000Y-130970000D02*
X343950000Y-130970000D01*
X338050000Y-134870000D02*
X338050000Y-130970000D01*
X343950000Y-130970000D02*
X343950000Y-134870000D01*
X343950000Y-134870000D02*
X338050000Y-134870000D01*
%TO.C,D35*%
X275610000Y-130590000D02*
X281510000Y-130590000D01*
X275610000Y-134490000D02*
X275610000Y-130590000D01*
X281510000Y-130590000D02*
X281510000Y-134490000D01*
X281510000Y-134490000D02*
X275610000Y-134490000D01*
%TO.C,D34*%
X148450000Y-128050000D02*
X154350000Y-128050000D01*
X148450000Y-131950000D02*
X148450000Y-128050000D01*
X154350000Y-128050000D02*
X154350000Y-131950000D01*
X154350000Y-131950000D02*
X148450000Y-131950000D01*
%TO.C,D33*%
X122150000Y-128050000D02*
X128050000Y-128050000D01*
X122150000Y-131950000D02*
X122150000Y-128050000D01*
X128050000Y-128050000D02*
X128050000Y-131950000D01*
X128050000Y-131950000D02*
X122150000Y-131950000D01*
%TO.C,D30*%
X441910000Y-103790000D02*
X447810000Y-103790000D01*
X441910000Y-107690000D02*
X441910000Y-103790000D01*
X447810000Y-103790000D02*
X447810000Y-107690000D01*
X447810000Y-107690000D02*
X441910000Y-107690000D01*
%TO.C,D29*%
X420310000Y-103555000D02*
X426210000Y-103555000D01*
X420310000Y-107455000D02*
X420310000Y-103555000D01*
X426210000Y-103555000D02*
X426210000Y-107455000D01*
X426210000Y-107455000D02*
X420310000Y-107455000D01*
%TO.C,D28*%
X398910000Y-103275000D02*
X404810000Y-103275000D01*
X398910000Y-107175000D02*
X398910000Y-103275000D01*
X404810000Y-103275000D02*
X404810000Y-107175000D01*
X404810000Y-107175000D02*
X398910000Y-107175000D01*
%TO.C,D27*%
X378810000Y-103615000D02*
X384710000Y-103615000D01*
X378810000Y-107515000D02*
X378810000Y-103615000D01*
X384710000Y-103615000D02*
X384710000Y-107515000D01*
X384710000Y-107515000D02*
X378810000Y-107515000D01*
%TO.C,D26*%
X357610000Y-104055000D02*
X363510000Y-104055000D01*
X357610000Y-107955000D02*
X357610000Y-104055000D01*
X363510000Y-104055000D02*
X363510000Y-107955000D01*
X363510000Y-107955000D02*
X357610000Y-107955000D01*
%TO.C,D25*%
X253330000Y-103850000D02*
X259230000Y-103850000D01*
X253330000Y-107750000D02*
X253330000Y-103850000D01*
X259230000Y-103850000D02*
X259230000Y-107750000D01*
X259230000Y-107750000D02*
X253330000Y-107750000D01*
%TO.C,D24*%
X232850000Y-103850000D02*
X238750000Y-103850000D01*
X232850000Y-107750000D02*
X232850000Y-103850000D01*
X238750000Y-103850000D02*
X238750000Y-107750000D01*
X238750000Y-107750000D02*
X232850000Y-107750000D01*
%TO.C,D23*%
X211350000Y-103190000D02*
X217250000Y-103190000D01*
X211350000Y-107090000D02*
X211350000Y-103190000D01*
X217250000Y-103190000D02*
X217250000Y-107090000D01*
X217250000Y-107090000D02*
X211350000Y-107090000D01*
%TO.C,D22*%
X189410000Y-103650000D02*
X195310000Y-103650000D01*
X189410000Y-107550000D02*
X189410000Y-103650000D01*
X195310000Y-103650000D02*
X195310000Y-107550000D01*
X195310000Y-107550000D02*
X189410000Y-107550000D01*
%TO.C,D21*%
X169950000Y-106650000D02*
X175850000Y-106650000D01*
X169950000Y-110550000D02*
X169950000Y-106650000D01*
X175850000Y-106650000D02*
X175850000Y-110550000D01*
X175850000Y-110550000D02*
X169950000Y-110550000D01*
%TO.C,D20*%
X491095000Y-106115000D02*
X496995000Y-106115000D01*
X491095000Y-110015000D02*
X491095000Y-106115000D01*
X496995000Y-106115000D02*
X496995000Y-110015000D01*
X496995000Y-110015000D02*
X491095000Y-110015000D01*
%TO.C,D19*%
X462610000Y-106055000D02*
X468510000Y-106055000D01*
X462610000Y-109955000D02*
X462610000Y-106055000D01*
X468510000Y-106055000D02*
X468510000Y-109955000D01*
X468510000Y-109955000D02*
X462610000Y-109955000D01*
%TO.C,D18*%
X336460000Y-104055000D02*
X342360000Y-104055000D01*
X336460000Y-107955000D02*
X336460000Y-104055000D01*
X342360000Y-104055000D02*
X342360000Y-107955000D01*
X342360000Y-107955000D02*
X336460000Y-107955000D01*
%TO.C,D17*%
X275130000Y-103850000D02*
X281030000Y-103850000D01*
X275130000Y-107750000D02*
X275130000Y-103850000D01*
X281030000Y-103850000D02*
X281030000Y-107750000D01*
X281030000Y-107750000D02*
X275130000Y-107750000D01*
%TO.C,D16*%
X150430000Y-110050000D02*
X156330000Y-110050000D01*
X150430000Y-113950000D02*
X150430000Y-110050000D01*
X156330000Y-110050000D02*
X156330000Y-113950000D01*
X156330000Y-113950000D02*
X150430000Y-113950000D01*
%TO.C,D15*%
X124160000Y-110050000D02*
X130060000Y-110050000D01*
X124160000Y-113950000D02*
X124160000Y-110050000D01*
X130060000Y-110050000D02*
X130060000Y-113950000D01*
X130060000Y-113950000D02*
X124160000Y-113950000D01*
%TO.C,D14*%
X398440000Y-82050000D02*
X404340000Y-82050000D01*
X398440000Y-85950000D02*
X398440000Y-82050000D01*
X404340000Y-82050000D02*
X404340000Y-85950000D01*
X404340000Y-85950000D02*
X398440000Y-85950000D01*
%TO.C,D13*%
X378050000Y-82050000D02*
X383950000Y-82050000D01*
X378050000Y-85950000D02*
X378050000Y-82050000D01*
X383950000Y-82050000D02*
X383950000Y-85950000D01*
X383950000Y-85950000D02*
X378050000Y-85950000D01*
%TO.C,D12*%
X231430000Y-82050000D02*
X237330000Y-82050000D01*
X231430000Y-85950000D02*
X231430000Y-82050000D01*
X237330000Y-82050000D02*
X237330000Y-85950000D01*
X237330000Y-85950000D02*
X231430000Y-85950000D01*
%TO.C,D11*%
X211850000Y-82050000D02*
X217750000Y-82050000D01*
X211850000Y-85950000D02*
X211850000Y-82050000D01*
X217750000Y-82050000D02*
X217750000Y-85950000D01*
X217750000Y-85950000D02*
X211850000Y-85950000D01*
%TO.C,D10*%
X421700000Y-82050000D02*
X427600000Y-82050000D01*
X421700000Y-85950000D02*
X421700000Y-82050000D01*
X427600000Y-82050000D02*
X427600000Y-85950000D01*
X427600000Y-85950000D02*
X421700000Y-85950000D01*
%TO.C,D9*%
X356240000Y-82050000D02*
X362140000Y-82050000D01*
X356240000Y-85950000D02*
X356240000Y-82050000D01*
X362140000Y-82050000D02*
X362140000Y-85950000D01*
X362140000Y-85950000D02*
X356240000Y-85950000D01*
%TO.C,D8*%
X335600000Y-82050000D02*
X341500000Y-82050000D01*
X335600000Y-85950000D02*
X335600000Y-82050000D01*
X341500000Y-82050000D02*
X341500000Y-85950000D01*
X341500000Y-85950000D02*
X335600000Y-85950000D01*
%TO.C,D7*%
X463570000Y-82050000D02*
X469470000Y-82050000D01*
X463570000Y-85950000D02*
X463570000Y-82050000D01*
X469470000Y-82050000D02*
X469470000Y-85950000D01*
X469470000Y-85950000D02*
X463570000Y-85950000D01*
%TO.C,D6*%
X442100000Y-82310000D02*
X448000000Y-82310000D01*
X442100000Y-86210000D02*
X442100000Y-82310000D01*
X448000000Y-82310000D02*
X448000000Y-86210000D01*
X448000000Y-86210000D02*
X442100000Y-86210000D01*
%TO.C,D5*%
X276430000Y-82050000D02*
X282330000Y-82050000D01*
X276430000Y-85950000D02*
X276430000Y-82050000D01*
X282330000Y-82050000D02*
X282330000Y-85950000D01*
X282330000Y-85950000D02*
X276430000Y-85950000D01*
%TO.C,D4*%
X254430000Y-82050000D02*
X260330000Y-82050000D01*
X254430000Y-85950000D02*
X254430000Y-82050000D01*
X260330000Y-82050000D02*
X260330000Y-85950000D01*
X260330000Y-85950000D02*
X254430000Y-85950000D01*
%TO.C,D3*%
X190450000Y-82050000D02*
X196350000Y-82050000D01*
X190450000Y-85950000D02*
X190450000Y-82050000D01*
X196350000Y-82050000D02*
X196350000Y-85950000D01*
X196350000Y-85950000D02*
X190450000Y-85950000D01*
%TO.C,D2*%
X170050000Y-82050000D02*
X175950000Y-82050000D01*
X170050000Y-85950000D02*
X170050000Y-82050000D01*
X175950000Y-82050000D02*
X175950000Y-85950000D01*
X175950000Y-85950000D02*
X170050000Y-85950000D01*
%TO.C,D1*%
X148430000Y-82050000D02*
X154330000Y-82050000D01*
X148430000Y-85950000D02*
X148430000Y-82050000D01*
X154330000Y-82050000D02*
X154330000Y-85950000D01*
X154330000Y-85950000D02*
X148430000Y-85950000D01*
%TO.C,H13*%
X306750000Y-32600000D02*
G75*
G03*
X306750000Y-32600000I-4000000J0D01*
G01*
%TO.C,SW41*%
X337300000Y-130220000D02*
X337300000Y-117020000D01*
X350500000Y-130220000D02*
X337300000Y-130220000D01*
X337300000Y-117020000D02*
X350500000Y-117020000D01*
X350500000Y-117020000D02*
X350500000Y-130220000D01*
%TO.C,SW64*%
X149820000Y-155680000D02*
X163020000Y-155680000D01*
X149820000Y-168880000D02*
X149820000Y-155680000D01*
X163020000Y-155680000D02*
X163020000Y-168880000D01*
X163020000Y-168880000D02*
X149820000Y-168880000D01*
%TO.C,SW48*%
X491255000Y-114280000D02*
X504455000Y-114280000D01*
X491255000Y-127480000D02*
X491255000Y-114280000D01*
X504455000Y-114280000D02*
X504455000Y-127480000D01*
X504455000Y-127480000D02*
X491255000Y-127480000D01*
%TO.C,H6*%
X525000000Y-32600000D02*
G75*
G03*
X525000000Y-32600000I-4000000J0D01*
G01*
%TO.C,D42*%
X511730000Y-49390000D02*
X511730000Y-51490000D01*
X511730000Y-51490000D02*
X516320000Y-51490000D01*
X516320000Y-49390000D02*
X511730000Y-49390000D01*
X516320000Y-51490000D02*
X516320000Y-49390000D01*
%TO.C,SW45*%
X423400000Y-112280000D02*
X436600000Y-112280000D01*
X423400000Y-125480000D02*
X423400000Y-112280000D01*
X436600000Y-112280000D02*
X436600000Y-125480000D01*
X436600000Y-125480000D02*
X423400000Y-125480000D01*
%TO.C,SW76*%
X402400000Y-155360000D02*
X415600000Y-155360000D01*
X402400000Y-168560000D02*
X402400000Y-155360000D01*
X415600000Y-155360000D02*
X415600000Y-168560000D01*
X415600000Y-168560000D02*
X402400000Y-168560000D01*
%TO.C,SW83*%
X171400000Y-176900000D02*
X184600000Y-176900000D01*
X171400000Y-190100000D02*
X171400000Y-176900000D01*
X184600000Y-176900000D02*
X184600000Y-190100000D01*
X184600000Y-190100000D02*
X171400000Y-190100000D01*
%TO.C,SW62*%
X491155000Y-135200000D02*
X504355000Y-135200000D01*
X491155000Y-148400000D02*
X491155000Y-135200000D01*
X504355000Y-135200000D02*
X504355000Y-148400000D01*
X504355000Y-148400000D02*
X491155000Y-148400000D01*
%TO.C,SW47*%
X465400000Y-115240000D02*
X478600000Y-115240000D01*
X465400000Y-128440000D02*
X465400000Y-115240000D01*
X478600000Y-115240000D02*
X478600000Y-128440000D01*
X478600000Y-128440000D02*
X465400000Y-128440000D01*
%TO.C,H5*%
X104900000Y-228000000D02*
G75*
G03*
X104900000Y-228000000I-4000000J0D01*
G01*
%TO.C,SW91*%
X370984228Y-188584241D02*
X382415763Y-181984241D01*
X377584228Y-200015777D02*
X370984228Y-188584241D01*
X382415763Y-181984241D02*
X389015763Y-193415777D01*
X389015763Y-193415777D02*
X377584228Y-200015777D01*
%TO.C,SW75*%
X381400000Y-155200000D02*
X394600000Y-155200000D01*
X381400000Y-168400000D02*
X381400000Y-155200000D01*
X394600000Y-155200000D02*
X394600000Y-168400000D01*
X394600000Y-168400000D02*
X381400000Y-168400000D01*
%TO.C,H1*%
X104500000Y-34000000D02*
G75*
G03*
X104500000Y-34000000I-4000000J0D01*
G01*
%TO.C,SW40*%
X276400000Y-129600000D02*
X276400000Y-116400000D01*
X289600000Y-129600000D02*
X276400000Y-129600000D01*
X276400000Y-116400000D02*
X289600000Y-116400000D01*
X289600000Y-116400000D02*
X289600000Y-129600000D01*
%TO.C,SW61*%
X464400000Y-136780000D02*
X477600000Y-136780000D01*
X464400000Y-149980000D02*
X464400000Y-136780000D01*
X477600000Y-136780000D02*
X477600000Y-149980000D01*
X477600000Y-149980000D02*
X464400000Y-149980000D01*
%TO.C,SW13*%
X442400000Y-69400000D02*
X455600000Y-69400000D01*
X442400000Y-82600000D02*
X442400000Y-69400000D01*
X455600000Y-69400000D02*
X455600000Y-82600000D01*
X455600000Y-82600000D02*
X442400000Y-82600000D01*
%TO.C,SW39*%
X255320000Y-111400000D02*
X268520000Y-111400000D01*
X255320000Y-124600000D02*
X255320000Y-111400000D01*
X268520000Y-111400000D02*
X268520000Y-124600000D01*
X268520000Y-124600000D02*
X255320000Y-124600000D01*
%TO.C,SW36*%
X191820000Y-111400000D02*
X205020000Y-111400000D01*
X191820000Y-124600000D02*
X191820000Y-111400000D01*
X205020000Y-111400000D02*
X205020000Y-124600000D01*
X205020000Y-124600000D02*
X191820000Y-124600000D01*
%TO.C,H16*%
X431400000Y-229450000D02*
G75*
G03*
X431400000Y-229450000I-4000000J0D01*
G01*
%TO.C,SW29*%
X421070000Y-90010000D02*
X434270000Y-90010000D01*
X421070000Y-103210000D02*
X421070000Y-90010000D01*
X434270000Y-90010000D02*
X434270000Y-103210000D01*
X434270000Y-103210000D02*
X421070000Y-103210000D01*
%TO.C,SW58*%
X401210000Y-134240000D02*
X414410000Y-134240000D01*
X401210000Y-147440000D02*
X401210000Y-134240000D01*
X414410000Y-134240000D02*
X414410000Y-147440000D01*
X414410000Y-147440000D02*
X401210000Y-147440000D01*
%TO.C,SW60*%
X443400000Y-132440000D02*
X456600000Y-132440000D01*
X443400000Y-145640000D02*
X443400000Y-132440000D01*
X456600000Y-132440000D02*
X456600000Y-145640000D01*
X456600000Y-145640000D02*
X443400000Y-145640000D01*
%TO.C,SW84*%
X192680000Y-174800000D02*
X205880000Y-174800000D01*
X192680000Y-188000000D02*
X192680000Y-174800000D01*
X205880000Y-174800000D02*
X205880000Y-188000000D01*
X205880000Y-188000000D02*
X192680000Y-188000000D01*
%TO.C,H2*%
X525000000Y-229450000D02*
G75*
G03*
X525000000Y-229450000I-4000000J0D01*
G01*
%TO.C,SW6*%
X254400000Y-69200000D02*
X267600000Y-69200000D01*
X254400000Y-82400000D02*
X254400000Y-69200000D01*
X267600000Y-69200000D02*
X267600000Y-82400000D01*
X267600000Y-82400000D02*
X254400000Y-82400000D01*
%TO.C,D38*%
X294400000Y-72400000D02*
X294400000Y-75600000D01*
X294400000Y-75600000D02*
X299690000Y-75600000D01*
X299690000Y-72400000D02*
X294400000Y-72400000D01*
X299690000Y-75600000D02*
X299690000Y-72400000D01*
%TO.C,SW50*%
X149830000Y-134700000D02*
X163030000Y-134700000D01*
X149830000Y-147900000D02*
X149830000Y-134700000D01*
X163030000Y-134700000D02*
X163030000Y-147900000D01*
X163030000Y-147900000D02*
X149830000Y-147900000D01*
%TO.C,SW46*%
X444400000Y-112380000D02*
X457600000Y-112380000D01*
X444400000Y-125580000D02*
X444400000Y-112380000D01*
X457600000Y-112380000D02*
X457600000Y-125580000D01*
X457600000Y-125580000D02*
X444400000Y-125580000D01*
%TO.C,SW96*%
X487470000Y-178480000D02*
X500670000Y-178480000D01*
X487470000Y-191680000D02*
X487470000Y-178480000D01*
X500670000Y-178480000D02*
X500670000Y-191680000D01*
X500670000Y-191680000D02*
X487470000Y-191680000D01*
%TO.C,SW44*%
X402400000Y-111500000D02*
X415600000Y-111500000D01*
X402400000Y-124700000D02*
X402400000Y-111500000D01*
X415600000Y-111500000D02*
X415600000Y-124700000D01*
X415600000Y-124700000D02*
X402400000Y-124700000D01*
%TO.C,SW34*%
X148700000Y-113900000D02*
X161900000Y-113900000D01*
X148700000Y-127100000D02*
X148700000Y-113900000D01*
X161900000Y-113900000D02*
X161900000Y-127100000D01*
X161900000Y-127100000D02*
X148700000Y-127100000D01*
%TO.C,SW22*%
X232800000Y-90300000D02*
X246000000Y-90300000D01*
X232800000Y-103500000D02*
X232800000Y-90300000D01*
X246000000Y-90300000D02*
X246000000Y-103500000D01*
X246000000Y-103500000D02*
X232800000Y-103500000D01*
%TO.C,SW18*%
X148400000Y-93200000D02*
X161600000Y-93200000D01*
X148400000Y-106400000D02*
X148400000Y-93200000D01*
X161600000Y-93200000D02*
X161600000Y-106400000D01*
X161600000Y-106400000D02*
X148400000Y-106400000D01*
%TO.C,SW80*%
X491455000Y-156200000D02*
X504655000Y-156200000D01*
X491455000Y-169400000D02*
X491455000Y-156200000D01*
X504655000Y-156200000D02*
X504655000Y-169400000D01*
X504655000Y-169400000D02*
X491455000Y-169400000D01*
%TO.C,SW17*%
X122360000Y-93000000D02*
X135560000Y-93000000D01*
X122360000Y-106200000D02*
X122360000Y-93000000D01*
X135560000Y-93000000D02*
X135560000Y-106200000D01*
X135560000Y-106200000D02*
X122360000Y-106200000D01*
%TO.C,SW2*%
X168660000Y-69100000D02*
X181860000Y-69100000D01*
X168660000Y-82300000D02*
X168660000Y-69100000D01*
X181860000Y-69100000D02*
X181860000Y-82300000D01*
X181860000Y-82300000D02*
X168660000Y-82300000D01*
%TO.C,SW42*%
X359830000Y-112480000D02*
X373030000Y-112480000D01*
X359830000Y-125680000D02*
X359830000Y-112480000D01*
X373030000Y-112480000D02*
X373030000Y-125680000D01*
X373030000Y-125680000D02*
X359830000Y-125680000D01*
%TO.C,SW9*%
X356400000Y-69140000D02*
X369600000Y-69140000D01*
X356400000Y-82340000D02*
X356400000Y-69140000D01*
X369600000Y-69140000D02*
X369600000Y-82340000D01*
X369600000Y-82340000D02*
X356400000Y-82340000D01*
%TO.C,SW19*%
X169210000Y-92940000D02*
X182410000Y-92940000D01*
X169210000Y-106140000D02*
X169210000Y-92940000D01*
X182410000Y-92940000D02*
X182410000Y-106140000D01*
X182410000Y-106140000D02*
X169210000Y-106140000D01*
%TO.C,H10*%
X326000000Y-32650000D02*
G75*
G03*
X326000000Y-32650000I-4000000J0D01*
G01*
%TO.C,SW70*%
X276580000Y-160600000D02*
X276580000Y-147400000D01*
X289780000Y-160600000D02*
X276580000Y-160600000D01*
X276580000Y-147400000D02*
X289780000Y-147400000D01*
X289780000Y-147400000D02*
X289780000Y-160600000D01*
%TO.C,SW11*%
X399480000Y-69260000D02*
X412680000Y-69260000D01*
X399480000Y-82460000D02*
X399480000Y-69260000D01*
X412680000Y-69260000D02*
X412680000Y-82460000D01*
X412680000Y-82460000D02*
X399480000Y-82460000D01*
%TO.C,SW89*%
X334394228Y-210244241D02*
X345825763Y-203644241D01*
X340994228Y-221675777D02*
X334394228Y-210244241D01*
X345825763Y-203644241D02*
X352425763Y-215075777D01*
X352425763Y-215075777D02*
X340994228Y-221675777D01*
%TO.C,D40*%
X454614700Y-49390000D02*
X454614700Y-51490000D01*
X454614700Y-51490000D02*
X459204700Y-51490000D01*
X459204700Y-49390000D02*
X454614700Y-49390000D01*
X459204700Y-51490000D02*
X459204700Y-49390000D01*
%TO.C,SW94*%
X444470000Y-174580000D02*
X457670000Y-174580000D01*
X444470000Y-187780000D02*
X444470000Y-174580000D01*
X457670000Y-174580000D02*
X457670000Y-187780000D01*
X457670000Y-187780000D02*
X444470000Y-187780000D01*
%TO.C,SW1*%
X146860000Y-69000000D02*
X160060000Y-69000000D01*
X146860000Y-82200000D02*
X146860000Y-69000000D01*
X160060000Y-69000000D02*
X160060000Y-82200000D01*
X160060000Y-82200000D02*
X146860000Y-82200000D01*
%TO.C,H8*%
X430550000Y-32650000D02*
G75*
G03*
X430550000Y-32650000I-4000000J0D01*
G01*
%TO.C,SW53*%
X213240000Y-132340000D02*
X226440000Y-132340000D01*
X213240000Y-145540000D02*
X213240000Y-132340000D01*
X226440000Y-132340000D02*
X226440000Y-145540000D01*
X226440000Y-145540000D02*
X213240000Y-145540000D01*
%TO.C,SW56*%
X359530000Y-134480000D02*
X372730000Y-134480000D01*
X359530000Y-147680000D02*
X359530000Y-134480000D01*
X372730000Y-134480000D02*
X372730000Y-147680000D01*
X372730000Y-147680000D02*
X359530000Y-147680000D01*
%TO.C,SW72*%
X341984228Y-181584241D02*
X353415763Y-174984241D01*
X348584228Y-193015777D02*
X341984228Y-181584241D01*
X353415763Y-174984241D02*
X360015763Y-186415777D01*
X360015763Y-186415777D02*
X348584228Y-193015777D01*
%TO.C,SW78*%
X444400000Y-153200000D02*
X457600000Y-153200000D01*
X444400000Y-166400000D02*
X444400000Y-153200000D01*
X457600000Y-153200000D02*
X457600000Y-166400000D01*
X457600000Y-166400000D02*
X444400000Y-166400000D01*
%TO.C,SW77*%
X423400000Y-155120000D02*
X436600000Y-155120000D01*
X423400000Y-168320000D02*
X423400000Y-155120000D01*
X436600000Y-155120000D02*
X436600000Y-168320000D01*
X436600000Y-168320000D02*
X423400000Y-168320000D01*
%TO.C,SW28*%
X400070000Y-90400000D02*
X413270000Y-90400000D01*
X400070000Y-103600000D02*
X400070000Y-90400000D01*
X413270000Y-90400000D02*
X413270000Y-103600000D01*
X413270000Y-103600000D02*
X400070000Y-103600000D01*
%TO.C,D32*%
X136500000Y-49600000D02*
X136500000Y-52800000D01*
X136500000Y-52800000D02*
X141790000Y-52800000D01*
X141790000Y-49600000D02*
X136500000Y-49600000D01*
X141790000Y-52800000D02*
X141790000Y-49600000D01*
%TO.C,SW95*%
X465470000Y-178480000D02*
X478670000Y-178480000D01*
X465470000Y-191680000D02*
X465470000Y-178480000D01*
X478670000Y-178480000D02*
X478670000Y-191680000D01*
X478670000Y-191680000D02*
X465470000Y-191680000D01*
%TO.C,SW3*%
X189860000Y-69100000D02*
X203060000Y-69100000D01*
X189860000Y-82300000D02*
X189860000Y-69100000D01*
X203060000Y-69100000D02*
X203060000Y-82300000D01*
X203060000Y-82300000D02*
X189860000Y-82300000D01*
%TO.C,SW7*%
X276200000Y-69100000D02*
X289400000Y-69100000D01*
X276200000Y-82300000D02*
X276200000Y-69100000D01*
X289400000Y-69100000D02*
X289400000Y-82300000D01*
X289400000Y-82300000D02*
X276200000Y-82300000D01*
%TO.C,SW55*%
X255400000Y-132400000D02*
X268600000Y-132400000D01*
X255400000Y-145600000D02*
X255400000Y-132400000D01*
X268600000Y-132400000D02*
X268600000Y-145600000D01*
X268600000Y-145600000D02*
X255400000Y-145600000D01*
%TO.C,SW57*%
X380400000Y-134380000D02*
X393600000Y-134380000D01*
X380400000Y-147580000D02*
X380400000Y-134380000D01*
X393600000Y-134380000D02*
X393600000Y-147580000D01*
X393600000Y-147580000D02*
X380400000Y-147580000D01*
%TO.C,H15*%
X306200000Y-227800000D02*
G75*
G03*
X306200000Y-227800000I-4000000J0D01*
G01*
%TO.C,H9*%
X304900000Y-128800000D02*
G75*
G03*
X304900000Y-128800000I-4000000J0D01*
G01*
%TO.C,H7*%
X104500000Y-129000000D02*
G75*
G03*
X104500000Y-129000000I-4000000J0D01*
G01*
%TO.C,H4*%
X525000000Y-129000000D02*
G75*
G03*
X525000000Y-129000000I-4000000J0D01*
G01*
%TO.C,SW14*%
X463400000Y-69240000D02*
X476600000Y-69240000D01*
X463400000Y-82440000D02*
X463400000Y-69240000D01*
X476600000Y-69240000D02*
X476600000Y-82440000D01*
X476600000Y-82440000D02*
X463400000Y-82440000D01*
%TO.C,SW52*%
X192320000Y-132400000D02*
X205520000Y-132400000D01*
X192320000Y-145600000D02*
X192320000Y-132400000D01*
X205520000Y-132400000D02*
X205520000Y-145600000D01*
X205520000Y-145600000D02*
X192320000Y-145600000D01*
%TO.C,D39*%
X425914700Y-49290000D02*
X425914700Y-51390000D01*
X425914700Y-51390000D02*
X430504700Y-51390000D01*
X430504700Y-49290000D02*
X425914700Y-49290000D01*
X430504700Y-51390000D02*
X430504700Y-49290000D01*
%TO.C,SW71*%
X273584228Y-174984241D02*
X285015763Y-181584241D01*
X266984228Y-186415777D02*
X273584228Y-174984241D01*
X285015763Y-181584241D02*
X278415763Y-193015777D01*
X278415763Y-193015777D02*
X266984228Y-186415777D01*
%TO.C,SW67*%
X213400000Y-153520000D02*
X226600000Y-153520000D01*
X213400000Y-166720000D02*
X213400000Y-153520000D01*
X226600000Y-153520000D02*
X226600000Y-166720000D01*
X226600000Y-166720000D02*
X213400000Y-166720000D01*
%TO.C,SW49*%
X122860000Y-134800000D02*
X136060000Y-134800000D01*
X122860000Y-148000000D02*
X122860000Y-134800000D01*
X136060000Y-134800000D02*
X136060000Y-148000000D01*
X136060000Y-148000000D02*
X122860000Y-148000000D01*
%TO.C,SW21*%
X211700000Y-90440000D02*
X224900000Y-90440000D01*
X211700000Y-103640000D02*
X211700000Y-90440000D01*
X224900000Y-90440000D02*
X224900000Y-103640000D01*
X224900000Y-103640000D02*
X211700000Y-103640000D01*
%TO.C,SW82*%
X150400000Y-176980000D02*
X163600000Y-176980000D01*
X150400000Y-190180000D02*
X150400000Y-176980000D01*
X163600000Y-176980000D02*
X163600000Y-190180000D01*
X163600000Y-190180000D02*
X150400000Y-190180000D01*
%TO.C,H14*%
X328750000Y-228000000D02*
G75*
G03*
X328750000Y-228000000I-4000000J0D01*
G01*
%TO.C,SW27*%
X379070000Y-90140000D02*
X392270000Y-90140000D01*
X379070000Y-103340000D02*
X379070000Y-90140000D01*
X392270000Y-90140000D02*
X392270000Y-103340000D01*
X392270000Y-103340000D02*
X379070000Y-103340000D01*
%TO.C,D31*%
X108300000Y-49100000D02*
X108300000Y-52300000D01*
X108300000Y-52300000D02*
X113590000Y-52300000D01*
X113590000Y-49100000D02*
X108300000Y-49100000D01*
X113590000Y-52300000D02*
X113590000Y-49100000D01*
%TO.C,SW32*%
X491255000Y-92940000D02*
X504455000Y-92940000D01*
X491255000Y-106140000D02*
X491255000Y-92940000D01*
X504455000Y-92940000D02*
X504455000Y-106140000D01*
X504455000Y-106140000D02*
X491255000Y-106140000D01*
%TO.C,SW79*%
X465400000Y-156660000D02*
X478600000Y-156660000D01*
X465400000Y-169860000D02*
X465400000Y-156660000D01*
X478600000Y-156660000D02*
X478600000Y-169860000D01*
X478600000Y-169860000D02*
X465400000Y-169860000D01*
%TO.C,SW66*%
X192060000Y-153380000D02*
X205260000Y-153380000D01*
X192060000Y-166580000D02*
X192060000Y-153380000D01*
X205260000Y-153380000D02*
X205260000Y-166580000D01*
X205260000Y-166580000D02*
X192060000Y-166580000D01*
%TO.C,SW63*%
X122860000Y-155880000D02*
X136060000Y-155880000D01*
X122860000Y-169080000D02*
X122860000Y-155880000D01*
X136060000Y-155880000D02*
X136060000Y-169080000D01*
X136060000Y-169080000D02*
X122860000Y-169080000D01*
%TO.C,SW90*%
X352454228Y-199344241D02*
X363885763Y-192744241D01*
X359054228Y-210775777D02*
X352454228Y-199344241D01*
X363885763Y-192744241D02*
X370485763Y-204175777D01*
X370485763Y-204175777D02*
X359054228Y-210775777D01*
%TO.C,SW92*%
X402400000Y-176740000D02*
X415600000Y-176740000D01*
X402400000Y-189940000D02*
X402400000Y-176740000D01*
X415600000Y-176740000D02*
X415600000Y-189940000D01*
X415600000Y-189940000D02*
X402400000Y-189940000D01*
%TO.C,D43*%
X324400000Y-72400000D02*
X324400000Y-75600000D01*
X324400000Y-75600000D02*
X329690000Y-75600000D01*
X329690000Y-72400000D02*
X324400000Y-72400000D01*
X329690000Y-75600000D02*
X329690000Y-72400000D01*
%TO.C,SW87*%
X263124228Y-192704241D02*
X274555763Y-199304241D01*
X256524228Y-204135777D02*
X263124228Y-192704241D01*
X274555763Y-199304241D02*
X267955763Y-210735777D01*
X267955763Y-210735777D02*
X256524228Y-204135777D01*
%TO.C,SW4*%
X211400000Y-69000000D02*
X224600000Y-69000000D01*
X211400000Y-82200000D02*
X211400000Y-69000000D01*
X224600000Y-69000000D02*
X224600000Y-82200000D01*
X224600000Y-82200000D02*
X211400000Y-82200000D01*
%TO.C,SW37*%
X212940000Y-111440000D02*
X226140000Y-111440000D01*
X212940000Y-124640000D02*
X212940000Y-111440000D01*
X226140000Y-111440000D02*
X226140000Y-124640000D01*
X226140000Y-124640000D02*
X212940000Y-124640000D01*
%TO.C,SW33*%
X122720000Y-113900000D02*
X135920000Y-113900000D01*
X122720000Y-127100000D02*
X122720000Y-113900000D01*
X135920000Y-113900000D02*
X135920000Y-127100000D01*
X135920000Y-127100000D02*
X122720000Y-127100000D01*
%TO.C,SW51*%
X171010000Y-134800000D02*
X184210000Y-134800000D01*
X171010000Y-148000000D02*
X171010000Y-134800000D01*
X184210000Y-134800000D02*
X184210000Y-148000000D01*
X184210000Y-148000000D02*
X171010000Y-148000000D01*
%TO.C,SW5*%
X232400000Y-68900000D02*
X245600000Y-68900000D01*
X232400000Y-82100000D02*
X232400000Y-68900000D01*
X245600000Y-68900000D02*
X245600000Y-82100000D01*
X245600000Y-82100000D02*
X232400000Y-82100000D01*
%TO.C,SW12*%
X421400000Y-69340000D02*
X434600000Y-69340000D01*
X421400000Y-82540000D02*
X421400000Y-69340000D01*
X434600000Y-69340000D02*
X434600000Y-82540000D01*
X434600000Y-82540000D02*
X421400000Y-82540000D01*
%TO.C,H11*%
X202400000Y-228000000D02*
G75*
G03*
X202400000Y-228000000I-4000000J0D01*
G01*
%TO.C,SW31*%
X463070000Y-92480000D02*
X476270000Y-92480000D01*
X463070000Y-105680000D02*
X463070000Y-92480000D01*
X476270000Y-92480000D02*
X476270000Y-105680000D01*
X476270000Y-105680000D02*
X463070000Y-105680000D01*
%TO.C,H12*%
X327550000Y-128900000D02*
G75*
G03*
X327550000Y-128900000I-4000000J0D01*
G01*
%TO.C,SW43*%
X381400000Y-112240000D02*
X394600000Y-112240000D01*
X381400000Y-125440000D02*
X381400000Y-112240000D01*
X394600000Y-112240000D02*
X394600000Y-125440000D01*
X394600000Y-125440000D02*
X381400000Y-125440000D01*
%TO.C,SW85*%
X213400000Y-174740000D02*
X226600000Y-174740000D01*
X213400000Y-187940000D02*
X213400000Y-174740000D01*
X226600000Y-174740000D02*
X226600000Y-187940000D01*
X226600000Y-187940000D02*
X213400000Y-187940000D01*
%TO.C,D37*%
X193600000Y-49600000D02*
X193600000Y-52800000D01*
X193600000Y-52800000D02*
X198890000Y-52800000D01*
X198890000Y-49600000D02*
X193600000Y-49600000D01*
X198890000Y-52800000D02*
X198890000Y-49600000D01*
%TO.C,SW8*%
X335530000Y-69240000D02*
X348730000Y-69240000D01*
X335530000Y-82440000D02*
X335530000Y-69240000D01*
X348730000Y-69240000D02*
X348730000Y-82440000D01*
X348730000Y-82440000D02*
X335530000Y-82440000D01*
%TO.C,SW10*%
X377740000Y-69240000D02*
X390940000Y-69240000D01*
X377740000Y-82440000D02*
X377740000Y-69240000D01*
X390940000Y-69240000D02*
X390940000Y-82440000D01*
X390940000Y-82440000D02*
X377740000Y-82440000D01*
%TO.C,SW68*%
X234400000Y-153480000D02*
X247600000Y-153480000D01*
X234400000Y-166680000D02*
X234400000Y-153480000D01*
X247600000Y-153480000D02*
X247600000Y-166680000D01*
X247600000Y-166680000D02*
X234400000Y-166680000D01*
%TO.C,SW26*%
X358070000Y-90380000D02*
X371270000Y-90380000D01*
X358070000Y-103580000D02*
X358070000Y-90380000D01*
X371270000Y-90380000D02*
X371270000Y-103580000D01*
X371270000Y-103580000D02*
X358070000Y-103580000D01*
%TO.C,SW24*%
X276400000Y-90400000D02*
X289600000Y-90400000D01*
X276400000Y-103600000D02*
X276400000Y-90400000D01*
X289600000Y-90400000D02*
X289600000Y-103600000D01*
X289600000Y-103600000D02*
X276400000Y-103600000D01*
%TO.C,SW38*%
X234240000Y-111400000D02*
X247440000Y-111400000D01*
X234240000Y-124600000D02*
X234240000Y-111400000D01*
X247440000Y-111400000D02*
X247440000Y-124600000D01*
X247440000Y-124600000D02*
X234240000Y-124600000D01*
%TO.C,SW35*%
X170210000Y-113940000D02*
X183410000Y-113940000D01*
X170210000Y-127140000D02*
X170210000Y-113940000D01*
X183410000Y-113940000D02*
X183410000Y-127140000D01*
X183410000Y-127140000D02*
X170210000Y-127140000D01*
%TO.C,SW81*%
X128860000Y-177080000D02*
X142060000Y-177080000D01*
X128860000Y-190280000D02*
X128860000Y-177080000D01*
X142060000Y-177080000D02*
X142060000Y-190280000D01*
X142060000Y-190280000D02*
X128860000Y-190280000D01*
%TO.C,H3*%
X201600000Y-34100000D02*
G75*
G03*
X201600000Y-34100000I-4000000J0D01*
G01*
%TO.C,SW20*%
X190480000Y-90400000D02*
X203680000Y-90400000D01*
X190480000Y-103600000D02*
X190480000Y-90400000D01*
X203680000Y-90400000D02*
X203680000Y-103600000D01*
X203680000Y-103600000D02*
X190480000Y-103600000D01*
%TO.C,SW88*%
X281613828Y-203088941D02*
X293045363Y-209688941D01*
X275013828Y-214520477D02*
X281613828Y-203088941D01*
X293045363Y-209688941D02*
X286445363Y-221120477D01*
X286445363Y-221120477D02*
X275013828Y-214520477D01*
%TO.C,SW86*%
X245044228Y-182154241D02*
X256475763Y-188754241D01*
X238444228Y-193585777D02*
X245044228Y-182154241D01*
X256475763Y-188754241D02*
X249875763Y-200185777D01*
X249875763Y-200185777D02*
X238444228Y-193585777D01*
%TO.C,SW23*%
X253900000Y-90400000D02*
X267100000Y-90400000D01*
X253900000Y-103600000D02*
X253900000Y-90400000D01*
X267100000Y-90400000D02*
X267100000Y-103600000D01*
X267100000Y-103600000D02*
X253900000Y-103600000D01*
%TO.C,SW73*%
X337400000Y-160600000D02*
X337400000Y-147400000D01*
X350600000Y-160600000D02*
X337400000Y-160600000D01*
X337400000Y-147400000D02*
X350600000Y-147400000D01*
X350600000Y-147400000D02*
X350600000Y-160600000D01*
%TO.C,SW54*%
X234420000Y-132300000D02*
X247620000Y-132300000D01*
X234420000Y-145500000D02*
X234420000Y-132300000D01*
X247620000Y-132300000D02*
X247620000Y-145500000D01*
X247620000Y-145500000D02*
X234420000Y-145500000D01*
%TO.C,SW69*%
X255400000Y-153480000D02*
X268600000Y-153480000D01*
X255400000Y-166680000D02*
X255400000Y-153480000D01*
X268600000Y-153480000D02*
X268600000Y-166680000D01*
X268600000Y-166680000D02*
X255400000Y-166680000D01*
%TO.C,SW74*%
X359730000Y-155400000D02*
X372930000Y-155400000D01*
X359730000Y-168600000D02*
X359730000Y-155400000D01*
X372930000Y-155400000D02*
X372930000Y-168600000D01*
X372930000Y-168600000D02*
X359730000Y-168600000D01*
%TO.C,SW93*%
X423470000Y-176380000D02*
X436670000Y-176380000D01*
X423470000Y-189580000D02*
X423470000Y-176380000D01*
X436670000Y-176380000D02*
X436670000Y-189580000D01*
X436670000Y-189580000D02*
X423470000Y-189580000D01*
%TO.C,SW65*%
X171060000Y-155880000D02*
X184260000Y-155880000D01*
X171060000Y-169080000D02*
X171060000Y-155880000D01*
X184260000Y-155880000D02*
X184260000Y-169080000D01*
X184260000Y-169080000D02*
X171060000Y-169080000D01*
%TO.C,D36*%
X165800000Y-49400000D02*
X165800000Y-52600000D01*
X165800000Y-52600000D02*
X171090000Y-52600000D01*
X171090000Y-49400000D02*
X165800000Y-49400000D01*
X171090000Y-52600000D02*
X171090000Y-49400000D01*
%TO.C,SW30*%
X442070000Y-90480000D02*
X455270000Y-90480000D01*
X442070000Y-103680000D02*
X442070000Y-90480000D01*
X455270000Y-90480000D02*
X455270000Y-103680000D01*
X455270000Y-103680000D02*
X442070000Y-103680000D01*
%TO.C,D41*%
X484114700Y-49190000D02*
X484114700Y-51290000D01*
X484114700Y-51290000D02*
X488704700Y-51290000D01*
X488704700Y-49190000D02*
X484114700Y-49190000D01*
X488704700Y-51290000D02*
X488704700Y-49190000D01*
%TO.C,SW59*%
X422400000Y-134280000D02*
X435600000Y-134280000D01*
X422400000Y-147480000D02*
X422400000Y-134280000D01*
X435600000Y-134280000D02*
X435600000Y-147480000D01*
X435600000Y-147480000D02*
X422400000Y-147480000D01*
%TO.C,SW25*%
X337400000Y-90480000D02*
X350600000Y-90480000D01*
X337400000Y-103680000D02*
X337400000Y-90480000D01*
X350600000Y-90480000D02*
X350600000Y-103680000D01*
X350600000Y-103680000D02*
X337400000Y-103680000D01*
%TD*%
M02*
